G04 #@! TF.GenerationSoftware,KiCad,Pcbnew,5.0.2-bee76a0~70~ubuntu18.04.1*
G04 #@! TF.CreationDate,2019-04-15T21:30:03-04:00*
G04 #@! TF.ProjectId,dashboard_mk4_rev4,64617368-626f-4617-9264-5f6d6b345f72,6.0*
G04 #@! TF.SameCoordinates,Original*
G04 #@! TF.FileFunction,Soldermask,Top*
G04 #@! TF.FilePolarity,Negative*
%FSLAX46Y46*%
G04 Gerber Fmt 4.6, Leading zero omitted, Abs format (unit mm)*
G04 Created by KiCad (PCBNEW 5.0.2-bee76a0~70~ubuntu18.04.1) date Mon 15 Apr 2019 09:30:03 PM EDT*
%MOMM*%
%LPD*%
G01*
G04 APERTURE LIST*
%ADD10C,0.100000*%
G04 APERTURE END LIST*
D10*
G36*
X144373812Y-162832579D02*
X142573812Y-162832579D01*
X142573812Y-159632579D01*
X144373812Y-159632579D01*
X144373812Y-162832579D01*
X144373812Y-162832579D01*
G37*
G36*
X142173812Y-162832579D02*
X140373812Y-162832579D01*
X140373812Y-159632579D01*
X142173812Y-159632579D01*
X142173812Y-162832579D01*
X142173812Y-162832579D01*
G37*
G36*
X146596154Y-162823336D02*
X144946154Y-162823336D01*
X144946154Y-161423336D01*
X146596154Y-161423336D01*
X146596154Y-162823336D01*
X146596154Y-162823336D01*
G37*
G36*
X150050000Y-162736000D02*
X148400000Y-162736000D01*
X148400000Y-161336000D01*
X150050000Y-161336000D01*
X150050000Y-162736000D01*
X150050000Y-162736000D01*
G37*
G36*
X136074713Y-162178576D02*
X134374713Y-162178576D01*
X134374713Y-161078576D01*
X136074713Y-161078576D01*
X136074713Y-162178576D01*
X136074713Y-162178576D01*
G37*
G36*
X138165315Y-162135472D02*
X136465315Y-162135472D01*
X136465315Y-161035472D01*
X138165315Y-161035472D01*
X138165315Y-162135472D01*
X138165315Y-162135472D01*
G37*
G36*
X110274551Y-159949286D02*
X110438339Y-160017129D01*
X110585750Y-160115626D01*
X110711104Y-160240980D01*
X110809601Y-160388391D01*
X110877444Y-160552179D01*
X110912030Y-160726056D01*
X110912030Y-160903344D01*
X110877444Y-161077221D01*
X110809601Y-161241009D01*
X110711104Y-161388420D01*
X110585750Y-161513774D01*
X110438339Y-161612271D01*
X110274551Y-161680114D01*
X110100674Y-161714700D01*
X109923386Y-161714700D01*
X109749509Y-161680114D01*
X109585721Y-161612271D01*
X109438310Y-161513774D01*
X109312956Y-161388420D01*
X109214459Y-161241009D01*
X109146616Y-161077221D01*
X109112030Y-160903344D01*
X109112030Y-160726056D01*
X109146616Y-160552179D01*
X109214459Y-160388391D01*
X109312956Y-160240980D01*
X109438310Y-160115626D01*
X109585721Y-160017129D01*
X109749509Y-159949286D01*
X109923386Y-159914700D01*
X110100674Y-159914700D01*
X110274551Y-159949286D01*
X110274551Y-159949286D01*
G37*
G36*
X107734551Y-159949286D02*
X107898339Y-160017129D01*
X108045750Y-160115626D01*
X108171104Y-160240980D01*
X108269601Y-160388391D01*
X108337444Y-160552179D01*
X108372030Y-160726056D01*
X108372030Y-160903344D01*
X108337444Y-161077221D01*
X108269601Y-161241009D01*
X108171104Y-161388420D01*
X108045750Y-161513774D01*
X107898339Y-161612271D01*
X107734551Y-161680114D01*
X107560674Y-161714700D01*
X107383386Y-161714700D01*
X107209509Y-161680114D01*
X107045721Y-161612271D01*
X106898310Y-161513774D01*
X106772956Y-161388420D01*
X106674459Y-161241009D01*
X106606616Y-161077221D01*
X106572030Y-160903344D01*
X106572030Y-160726056D01*
X106606616Y-160552179D01*
X106674459Y-160388391D01*
X106772956Y-160240980D01*
X106898310Y-160115626D01*
X107045721Y-160017129D01*
X107209509Y-159949286D01*
X107383386Y-159914700D01*
X107560674Y-159914700D01*
X107734551Y-159949286D01*
X107734551Y-159949286D01*
G37*
G36*
X105832030Y-161714700D02*
X104032030Y-161714700D01*
X104032030Y-159914700D01*
X105832030Y-159914700D01*
X105832030Y-161714700D01*
X105832030Y-161714700D01*
G37*
G36*
X125183516Y-161271054D02*
X123233516Y-161271054D01*
X123233516Y-160271054D01*
X125183516Y-160271054D01*
X125183516Y-161271054D01*
X125183516Y-161271054D01*
G37*
G36*
X119783516Y-161271054D02*
X117833516Y-161271054D01*
X117833516Y-160271054D01*
X119783516Y-160271054D01*
X119783516Y-161271054D01*
X119783516Y-161271054D01*
G37*
G36*
X146596154Y-160823336D02*
X144946154Y-160823336D01*
X144946154Y-159423336D01*
X146596154Y-159423336D01*
X146596154Y-160823336D01*
X146596154Y-160823336D01*
G37*
G36*
X150050000Y-160736000D02*
X148400000Y-160736000D01*
X148400000Y-159336000D01*
X150050000Y-159336000D01*
X150050000Y-160736000D01*
X150050000Y-160736000D01*
G37*
G36*
X116915297Y-160561632D02*
X115215297Y-160561632D01*
X115215297Y-159461632D01*
X116915297Y-159461632D01*
X116915297Y-160561632D01*
X116915297Y-160561632D01*
G37*
G36*
X136074713Y-160278578D02*
X134374713Y-160278578D01*
X134374713Y-159178578D01*
X136074713Y-159178578D01*
X136074713Y-160278578D01*
X136074713Y-160278578D01*
G37*
G36*
X138165315Y-160235474D02*
X136465315Y-160235474D01*
X136465315Y-159135474D01*
X138165315Y-159135474D01*
X138165315Y-160235474D01*
X138165315Y-160235474D01*
G37*
G36*
X125183516Y-160001054D02*
X123233516Y-160001054D01*
X123233516Y-159001054D01*
X125183516Y-159001054D01*
X125183516Y-160001054D01*
X125183516Y-160001054D01*
G37*
G36*
X119783516Y-160001054D02*
X117833516Y-160001054D01*
X117833516Y-159001054D01*
X119783516Y-159001054D01*
X119783516Y-160001054D01*
X119783516Y-160001054D01*
G37*
G36*
X127530359Y-159854855D02*
X125880359Y-159854855D01*
X125880359Y-158454855D01*
X127530359Y-158454855D01*
X127530359Y-159854855D01*
X127530359Y-159854855D01*
G37*
G36*
X107734551Y-157409286D02*
X107898339Y-157477129D01*
X108045750Y-157575626D01*
X108171104Y-157700980D01*
X108269601Y-157848391D01*
X108337444Y-158012179D01*
X108372030Y-158186056D01*
X108372030Y-158363344D01*
X108337444Y-158537221D01*
X108269601Y-158701009D01*
X108171104Y-158848420D01*
X108045750Y-158973774D01*
X107898339Y-159072271D01*
X107734551Y-159140114D01*
X107560674Y-159174700D01*
X107383386Y-159174700D01*
X107209509Y-159140114D01*
X107045721Y-159072271D01*
X106898310Y-158973774D01*
X106772956Y-158848420D01*
X106674459Y-158701009D01*
X106606616Y-158537221D01*
X106572030Y-158363344D01*
X106572030Y-158186056D01*
X106606616Y-158012179D01*
X106674459Y-157848391D01*
X106772956Y-157700980D01*
X106898310Y-157575626D01*
X107045721Y-157477129D01*
X107209509Y-157409286D01*
X107383386Y-157374700D01*
X107560674Y-157374700D01*
X107734551Y-157409286D01*
X107734551Y-157409286D01*
G37*
G36*
X110274551Y-157409286D02*
X110438339Y-157477129D01*
X110585750Y-157575626D01*
X110711104Y-157700980D01*
X110809601Y-157848391D01*
X110877444Y-158012179D01*
X110912030Y-158186056D01*
X110912030Y-158363344D01*
X110877444Y-158537221D01*
X110809601Y-158701009D01*
X110711104Y-158848420D01*
X110585750Y-158973774D01*
X110438339Y-159072271D01*
X110274551Y-159140114D01*
X110100674Y-159174700D01*
X109923386Y-159174700D01*
X109749509Y-159140114D01*
X109585721Y-159072271D01*
X109438310Y-158973774D01*
X109312956Y-158848420D01*
X109214459Y-158701009D01*
X109146616Y-158537221D01*
X109112030Y-158363344D01*
X109112030Y-158186056D01*
X109146616Y-158012179D01*
X109214459Y-157848391D01*
X109312956Y-157700980D01*
X109438310Y-157575626D01*
X109585721Y-157477129D01*
X109749509Y-157409286D01*
X109923386Y-157374700D01*
X110100674Y-157374700D01*
X110274551Y-157409286D01*
X110274551Y-157409286D01*
G37*
G36*
X105194551Y-157409286D02*
X105358339Y-157477129D01*
X105505750Y-157575626D01*
X105631104Y-157700980D01*
X105729601Y-157848391D01*
X105797444Y-158012179D01*
X105832030Y-158186056D01*
X105832030Y-158363344D01*
X105797444Y-158537221D01*
X105729601Y-158701009D01*
X105631104Y-158848420D01*
X105505750Y-158973774D01*
X105358339Y-159072271D01*
X105194551Y-159140114D01*
X105020674Y-159174700D01*
X104843386Y-159174700D01*
X104669509Y-159140114D01*
X104505721Y-159072271D01*
X104358310Y-158973774D01*
X104232956Y-158848420D01*
X104134459Y-158701009D01*
X104066616Y-158537221D01*
X104032030Y-158363344D01*
X104032030Y-158186056D01*
X104066616Y-158012179D01*
X104134459Y-157848391D01*
X104232956Y-157700980D01*
X104358310Y-157575626D01*
X104505721Y-157477129D01*
X104669509Y-157409286D01*
X104843386Y-157374700D01*
X105020674Y-157374700D01*
X105194551Y-157409286D01*
X105194551Y-157409286D01*
G37*
G36*
X144981587Y-150096853D02*
X144983989Y-150121239D01*
X144991102Y-150144688D01*
X145002653Y-150166299D01*
X145018199Y-150185241D01*
X145037141Y-150200787D01*
X145058752Y-150212338D01*
X145082201Y-150219451D01*
X145106587Y-150221853D01*
X146956587Y-150221853D01*
X146956587Y-156771853D01*
X145106587Y-156771853D01*
X145082201Y-156774255D01*
X145058752Y-156781368D01*
X145037141Y-156792919D01*
X145018199Y-156808465D01*
X145002653Y-156827407D01*
X144991102Y-156849018D01*
X144983989Y-156872467D01*
X144981587Y-156896853D01*
X144981587Y-158746853D01*
X138431587Y-158746853D01*
X138431587Y-156896853D01*
X138429185Y-156872467D01*
X138422072Y-156849018D01*
X138410521Y-156827407D01*
X138394975Y-156808465D01*
X138376033Y-156792919D01*
X138354422Y-156781368D01*
X138330973Y-156774255D01*
X138306587Y-156771853D01*
X136456587Y-156771853D01*
X136456587Y-150371853D01*
X138456587Y-150371853D01*
X138456587Y-156621853D01*
X138458989Y-156646239D01*
X138466102Y-156669688D01*
X138477653Y-156691299D01*
X138493199Y-156710241D01*
X138512141Y-156725787D01*
X138533752Y-156737338D01*
X138557201Y-156744451D01*
X138581587Y-156746853D01*
X144831587Y-156746853D01*
X144855973Y-156744451D01*
X144879422Y-156737338D01*
X144901033Y-156725787D01*
X144919975Y-156710241D01*
X144935521Y-156691299D01*
X144947072Y-156669688D01*
X144954185Y-156646239D01*
X144956587Y-156621853D01*
X144956587Y-150371853D01*
X144954185Y-150347467D01*
X144947072Y-150324018D01*
X144935521Y-150302407D01*
X144919975Y-150283465D01*
X144901033Y-150267919D01*
X144879422Y-150256368D01*
X144855973Y-150249255D01*
X144831587Y-150246853D01*
X138581587Y-150246853D01*
X138557201Y-150249255D01*
X138533752Y-150256368D01*
X138512141Y-150267919D01*
X138493199Y-150283465D01*
X138477653Y-150302407D01*
X138466102Y-150324018D01*
X138458989Y-150347467D01*
X138456587Y-150371853D01*
X136456587Y-150371853D01*
X136456587Y-150221853D01*
X138306587Y-150221853D01*
X138330973Y-150219451D01*
X138354422Y-150212338D01*
X138376033Y-150200787D01*
X138394975Y-150185241D01*
X138410521Y-150166299D01*
X138422072Y-150144688D01*
X138429185Y-150121239D01*
X138431587Y-150096853D01*
X138431587Y-148246853D01*
X144981587Y-148246853D01*
X144981587Y-150096853D01*
X144981587Y-150096853D01*
G37*
G36*
X119783516Y-158731054D02*
X117833516Y-158731054D01*
X117833516Y-157731054D01*
X119783516Y-157731054D01*
X119783516Y-158731054D01*
X119783516Y-158731054D01*
G37*
G36*
X125183516Y-158731054D02*
X123233516Y-158731054D01*
X123233516Y-157731054D01*
X125183516Y-157731054D01*
X125183516Y-158731054D01*
X125183516Y-158731054D01*
G37*
G36*
X116915297Y-158661634D02*
X115215297Y-158661634D01*
X115215297Y-157561634D01*
X116915297Y-157561634D01*
X116915297Y-158661634D01*
X116915297Y-158661634D01*
G37*
G36*
X132842290Y-157918601D02*
X131442290Y-157918601D01*
X131442290Y-156268601D01*
X132842290Y-156268601D01*
X132842290Y-157918601D01*
X132842290Y-157918601D01*
G37*
G36*
X130842290Y-157918601D02*
X129442290Y-157918601D01*
X129442290Y-156268601D01*
X130842290Y-156268601D01*
X130842290Y-157918601D01*
X130842290Y-157918601D01*
G37*
G36*
X127530359Y-157854855D02*
X125880359Y-157854855D01*
X125880359Y-156454855D01*
X127530359Y-156454855D01*
X127530359Y-157854855D01*
X127530359Y-157854855D01*
G37*
G36*
X125183516Y-157461054D02*
X123233516Y-157461054D01*
X123233516Y-156461054D01*
X125183516Y-156461054D01*
X125183516Y-157461054D01*
X125183516Y-157461054D01*
G37*
G36*
X119783516Y-157461054D02*
X117833516Y-157461054D01*
X117833516Y-156461054D01*
X119783516Y-156461054D01*
X119783516Y-157461054D01*
X119783516Y-157461054D01*
G37*
G36*
X163188934Y-155519664D02*
X163343627Y-155583740D01*
X163482847Y-155676764D01*
X163601236Y-155795153D01*
X163694260Y-155934373D01*
X163758336Y-156089066D01*
X163791000Y-156253281D01*
X163791000Y-156420719D01*
X163758336Y-156584934D01*
X163694260Y-156739627D01*
X163601236Y-156878847D01*
X163482847Y-156997236D01*
X163343627Y-157090260D01*
X163188934Y-157154336D01*
X163024719Y-157187000D01*
X162857281Y-157187000D01*
X162693066Y-157154336D01*
X162538373Y-157090260D01*
X162399153Y-156997236D01*
X162280764Y-156878847D01*
X162187740Y-156739627D01*
X162123664Y-156584934D01*
X162091000Y-156420719D01*
X162091000Y-156253281D01*
X162123664Y-156089066D01*
X162187740Y-155934373D01*
X162280764Y-155795153D01*
X162399153Y-155676764D01*
X162538373Y-155583740D01*
X162693066Y-155519664D01*
X162857281Y-155487000D01*
X163024719Y-155487000D01*
X163188934Y-155519664D01*
X163188934Y-155519664D01*
G37*
G36*
X165728934Y-154249664D02*
X165883627Y-154313740D01*
X166022847Y-154406764D01*
X166141236Y-154525153D01*
X166234260Y-154664373D01*
X166298336Y-154819066D01*
X166331000Y-154983281D01*
X166331000Y-155150719D01*
X166298336Y-155314934D01*
X166234260Y-155469627D01*
X166141236Y-155608847D01*
X166022847Y-155727236D01*
X165883627Y-155820260D01*
X165728934Y-155884336D01*
X165564719Y-155917000D01*
X165397281Y-155917000D01*
X165233066Y-155884336D01*
X165078373Y-155820260D01*
X164939153Y-155727236D01*
X164820764Y-155608847D01*
X164727740Y-155469627D01*
X164663664Y-155314934D01*
X164631000Y-155150719D01*
X164631000Y-154983281D01*
X164663664Y-154819066D01*
X164727740Y-154664373D01*
X164820764Y-154525153D01*
X164939153Y-154406764D01*
X165078373Y-154313740D01*
X165233066Y-154249664D01*
X165397281Y-154217000D01*
X165564719Y-154217000D01*
X165728934Y-154249664D01*
X165728934Y-154249664D01*
G37*
G36*
X96006096Y-155562001D02*
X94906096Y-155562001D01*
X94906096Y-153862001D01*
X96006096Y-153862001D01*
X96006096Y-155562001D01*
X96006096Y-155562001D01*
G37*
G36*
X97906096Y-155562001D02*
X96806096Y-155562001D01*
X96806096Y-153862001D01*
X97906096Y-153862001D01*
X97906096Y-155562001D01*
X97906096Y-155562001D01*
G37*
G36*
X94242098Y-155511999D02*
X92642098Y-155511999D01*
X92642098Y-153911999D01*
X94242098Y-153911999D01*
X94242098Y-155511999D01*
X94242098Y-155511999D01*
G37*
G36*
X92042098Y-155511999D02*
X90442098Y-155511999D01*
X90442098Y-153911999D01*
X92042098Y-153911999D01*
X92042098Y-155511999D01*
X92042098Y-155511999D01*
G37*
G36*
X153968961Y-155365382D02*
X152368961Y-155365382D01*
X152368961Y-153765382D01*
X153968961Y-153765382D01*
X153968961Y-155365382D01*
X153968961Y-155365382D01*
G37*
G36*
X151768963Y-155365382D02*
X150168963Y-155365382D01*
X150168963Y-153765382D01*
X151768963Y-153765382D01*
X151768963Y-155365382D01*
X151768963Y-155365382D01*
G37*
G36*
X103781594Y-155293000D02*
X101222594Y-155293000D01*
X101222594Y-153115000D01*
X103781594Y-153115000D01*
X103781594Y-155293000D01*
X103781594Y-155293000D01*
G37*
G36*
X115977504Y-153467024D02*
X116132197Y-153531100D01*
X116271417Y-153624124D01*
X116389806Y-153742513D01*
X116482830Y-153881733D01*
X116546906Y-154036426D01*
X116579570Y-154200641D01*
X116579570Y-154368079D01*
X116546906Y-154532294D01*
X116482830Y-154686987D01*
X116389806Y-154826207D01*
X116271417Y-154944596D01*
X116132197Y-155037620D01*
X115977504Y-155101696D01*
X115813289Y-155134360D01*
X115645851Y-155134360D01*
X115481636Y-155101696D01*
X115326943Y-155037620D01*
X115187723Y-154944596D01*
X115069334Y-154826207D01*
X114976310Y-154686987D01*
X114912234Y-154532294D01*
X114879570Y-154368079D01*
X114879570Y-154200641D01*
X114912234Y-154036426D01*
X114976310Y-153881733D01*
X115069334Y-153742513D01*
X115187723Y-153624124D01*
X115326943Y-153531100D01*
X115481636Y-153467024D01*
X115645851Y-153434360D01*
X115813289Y-153434360D01*
X115977504Y-153467024D01*
X115977504Y-153467024D01*
G37*
G36*
X133757504Y-153467024D02*
X133912197Y-153531100D01*
X134051417Y-153624124D01*
X134169806Y-153742513D01*
X134262830Y-153881733D01*
X134326906Y-154036426D01*
X134359570Y-154200641D01*
X134359570Y-154368079D01*
X134326906Y-154532294D01*
X134262830Y-154686987D01*
X134169806Y-154826207D01*
X134051417Y-154944596D01*
X133912197Y-155037620D01*
X133757504Y-155101696D01*
X133593289Y-155134360D01*
X133425851Y-155134360D01*
X133261636Y-155101696D01*
X133106943Y-155037620D01*
X132967723Y-154944596D01*
X132849334Y-154826207D01*
X132756310Y-154686987D01*
X132692234Y-154532294D01*
X132659570Y-154368079D01*
X132659570Y-154200641D01*
X132692234Y-154036426D01*
X132756310Y-153881733D01*
X132849334Y-153742513D01*
X132967723Y-153624124D01*
X133106943Y-153531100D01*
X133261636Y-153467024D01*
X133425851Y-153434360D01*
X133593289Y-153434360D01*
X133757504Y-153467024D01*
X133757504Y-153467024D01*
G37*
G36*
X131217504Y-153467024D02*
X131372197Y-153531100D01*
X131511417Y-153624124D01*
X131629806Y-153742513D01*
X131722830Y-153881733D01*
X131786906Y-154036426D01*
X131819570Y-154200641D01*
X131819570Y-154368079D01*
X131786906Y-154532294D01*
X131722830Y-154686987D01*
X131629806Y-154826207D01*
X131511417Y-154944596D01*
X131372197Y-155037620D01*
X131217504Y-155101696D01*
X131053289Y-155134360D01*
X130885851Y-155134360D01*
X130721636Y-155101696D01*
X130566943Y-155037620D01*
X130427723Y-154944596D01*
X130309334Y-154826207D01*
X130216310Y-154686987D01*
X130152234Y-154532294D01*
X130119570Y-154368079D01*
X130119570Y-154200641D01*
X130152234Y-154036426D01*
X130216310Y-153881733D01*
X130309334Y-153742513D01*
X130427723Y-153624124D01*
X130566943Y-153531100D01*
X130721636Y-153467024D01*
X130885851Y-153434360D01*
X131053289Y-153434360D01*
X131217504Y-153467024D01*
X131217504Y-153467024D01*
G37*
G36*
X128677504Y-153467024D02*
X128832197Y-153531100D01*
X128971417Y-153624124D01*
X129089806Y-153742513D01*
X129182830Y-153881733D01*
X129246906Y-154036426D01*
X129279570Y-154200641D01*
X129279570Y-154368079D01*
X129246906Y-154532294D01*
X129182830Y-154686987D01*
X129089806Y-154826207D01*
X128971417Y-154944596D01*
X128832197Y-155037620D01*
X128677504Y-155101696D01*
X128513289Y-155134360D01*
X128345851Y-155134360D01*
X128181636Y-155101696D01*
X128026943Y-155037620D01*
X127887723Y-154944596D01*
X127769334Y-154826207D01*
X127676310Y-154686987D01*
X127612234Y-154532294D01*
X127579570Y-154368079D01*
X127579570Y-154200641D01*
X127612234Y-154036426D01*
X127676310Y-153881733D01*
X127769334Y-153742513D01*
X127887723Y-153624124D01*
X128026943Y-153531100D01*
X128181636Y-153467024D01*
X128345851Y-153434360D01*
X128513289Y-153434360D01*
X128677504Y-153467024D01*
X128677504Y-153467024D01*
G37*
G36*
X126137504Y-153467024D02*
X126292197Y-153531100D01*
X126431417Y-153624124D01*
X126549806Y-153742513D01*
X126642830Y-153881733D01*
X126706906Y-154036426D01*
X126739570Y-154200641D01*
X126739570Y-154368079D01*
X126706906Y-154532294D01*
X126642830Y-154686987D01*
X126549806Y-154826207D01*
X126431417Y-154944596D01*
X126292197Y-155037620D01*
X126137504Y-155101696D01*
X125973289Y-155134360D01*
X125805851Y-155134360D01*
X125641636Y-155101696D01*
X125486943Y-155037620D01*
X125347723Y-154944596D01*
X125229334Y-154826207D01*
X125136310Y-154686987D01*
X125072234Y-154532294D01*
X125039570Y-154368079D01*
X125039570Y-154200641D01*
X125072234Y-154036426D01*
X125136310Y-153881733D01*
X125229334Y-153742513D01*
X125347723Y-153624124D01*
X125486943Y-153531100D01*
X125641636Y-153467024D01*
X125805851Y-153434360D01*
X125973289Y-153434360D01*
X126137504Y-153467024D01*
X126137504Y-153467024D01*
G37*
G36*
X113437504Y-153467024D02*
X113592197Y-153531100D01*
X113731417Y-153624124D01*
X113849806Y-153742513D01*
X113942830Y-153881733D01*
X114006906Y-154036426D01*
X114039570Y-154200641D01*
X114039570Y-154368079D01*
X114006906Y-154532294D01*
X113942830Y-154686987D01*
X113849806Y-154826207D01*
X113731417Y-154944596D01*
X113592197Y-155037620D01*
X113437504Y-155101696D01*
X113273289Y-155134360D01*
X113105851Y-155134360D01*
X112941636Y-155101696D01*
X112786943Y-155037620D01*
X112647723Y-154944596D01*
X112529334Y-154826207D01*
X112436310Y-154686987D01*
X112372234Y-154532294D01*
X112339570Y-154368079D01*
X112339570Y-154200641D01*
X112372234Y-154036426D01*
X112436310Y-153881733D01*
X112529334Y-153742513D01*
X112647723Y-153624124D01*
X112786943Y-153531100D01*
X112941636Y-153467024D01*
X113105851Y-153434360D01*
X113273289Y-153434360D01*
X113437504Y-153467024D01*
X113437504Y-153467024D01*
G37*
G36*
X118517504Y-153467024D02*
X118672197Y-153531100D01*
X118811417Y-153624124D01*
X118929806Y-153742513D01*
X119022830Y-153881733D01*
X119086906Y-154036426D01*
X119119570Y-154200641D01*
X119119570Y-154368079D01*
X119086906Y-154532294D01*
X119022830Y-154686987D01*
X118929806Y-154826207D01*
X118811417Y-154944596D01*
X118672197Y-155037620D01*
X118517504Y-155101696D01*
X118353289Y-155134360D01*
X118185851Y-155134360D01*
X118021636Y-155101696D01*
X117866943Y-155037620D01*
X117727723Y-154944596D01*
X117609334Y-154826207D01*
X117516310Y-154686987D01*
X117452234Y-154532294D01*
X117419570Y-154368079D01*
X117419570Y-154200641D01*
X117452234Y-154036426D01*
X117516310Y-153881733D01*
X117609334Y-153742513D01*
X117727723Y-153624124D01*
X117866943Y-153531100D01*
X118021636Y-153467024D01*
X118185851Y-153434360D01*
X118353289Y-153434360D01*
X118517504Y-153467024D01*
X118517504Y-153467024D01*
G37*
G36*
X123597504Y-153467024D02*
X123752197Y-153531100D01*
X123891417Y-153624124D01*
X124009806Y-153742513D01*
X124102830Y-153881733D01*
X124166906Y-154036426D01*
X124199570Y-154200641D01*
X124199570Y-154368079D01*
X124166906Y-154532294D01*
X124102830Y-154686987D01*
X124009806Y-154826207D01*
X123891417Y-154944596D01*
X123752197Y-155037620D01*
X123597504Y-155101696D01*
X123433289Y-155134360D01*
X123265851Y-155134360D01*
X123101636Y-155101696D01*
X122946943Y-155037620D01*
X122807723Y-154944596D01*
X122689334Y-154826207D01*
X122596310Y-154686987D01*
X122532234Y-154532294D01*
X122499570Y-154368079D01*
X122499570Y-154200641D01*
X122532234Y-154036426D01*
X122596310Y-153881733D01*
X122689334Y-153742513D01*
X122807723Y-153624124D01*
X122946943Y-153531100D01*
X123101636Y-153467024D01*
X123265851Y-153434360D01*
X123433289Y-153434360D01*
X123597504Y-153467024D01*
X123597504Y-153467024D01*
G37*
G36*
X121057504Y-153467024D02*
X121212197Y-153531100D01*
X121351417Y-153624124D01*
X121469806Y-153742513D01*
X121562830Y-153881733D01*
X121626906Y-154036426D01*
X121659570Y-154200641D01*
X121659570Y-154368079D01*
X121626906Y-154532294D01*
X121562830Y-154686987D01*
X121469806Y-154826207D01*
X121351417Y-154944596D01*
X121212197Y-155037620D01*
X121057504Y-155101696D01*
X120893289Y-155134360D01*
X120725851Y-155134360D01*
X120561636Y-155101696D01*
X120406943Y-155037620D01*
X120267723Y-154944596D01*
X120149334Y-154826207D01*
X120056310Y-154686987D01*
X119992234Y-154532294D01*
X119959570Y-154368079D01*
X119959570Y-154200641D01*
X119992234Y-154036426D01*
X120056310Y-153881733D01*
X120149334Y-153742513D01*
X120267723Y-153624124D01*
X120406943Y-153531100D01*
X120561636Y-153467024D01*
X120725851Y-153434360D01*
X120893289Y-153434360D01*
X121057504Y-153467024D01*
X121057504Y-153467024D01*
G37*
G36*
X110897504Y-153467024D02*
X111052197Y-153531100D01*
X111191417Y-153624124D01*
X111309806Y-153742513D01*
X111402830Y-153881733D01*
X111466906Y-154036426D01*
X111499570Y-154200641D01*
X111499570Y-154368079D01*
X111466906Y-154532294D01*
X111402830Y-154686987D01*
X111309806Y-154826207D01*
X111191417Y-154944596D01*
X111052197Y-155037620D01*
X110897504Y-155101696D01*
X110733289Y-155134360D01*
X110565851Y-155134360D01*
X110401636Y-155101696D01*
X110246943Y-155037620D01*
X110107723Y-154944596D01*
X109989334Y-154826207D01*
X109896310Y-154686987D01*
X109832234Y-154532294D01*
X109799570Y-154368079D01*
X109799570Y-154200641D01*
X109832234Y-154036426D01*
X109896310Y-153881733D01*
X109989334Y-153742513D01*
X110107723Y-153624124D01*
X110246943Y-153531100D01*
X110401636Y-153467024D01*
X110565851Y-153434360D01*
X110733289Y-153434360D01*
X110897504Y-153467024D01*
X110897504Y-153467024D01*
G37*
G36*
X109627504Y-150927024D02*
X109782197Y-150991100D01*
X109921417Y-151084124D01*
X110039806Y-151202513D01*
X110132830Y-151341733D01*
X110196906Y-151496426D01*
X110229570Y-151660641D01*
X110229570Y-151828079D01*
X110196906Y-151992294D01*
X110132830Y-152146987D01*
X110039806Y-152286207D01*
X109921417Y-152404596D01*
X109782197Y-152497620D01*
X109627504Y-152561696D01*
X109463289Y-152594360D01*
X109295851Y-152594360D01*
X109131636Y-152561696D01*
X108966564Y-152493321D01*
X108964673Y-152492310D01*
X108941223Y-152485197D01*
X108916837Y-152482796D01*
X108892451Y-152485198D01*
X108869002Y-152492312D01*
X108847391Y-152503863D01*
X108828449Y-152519409D01*
X108812904Y-152538351D01*
X108801353Y-152559962D01*
X108794240Y-152583412D01*
X108791839Y-152607798D01*
X108794241Y-152632184D01*
X108801355Y-152655633D01*
X108812906Y-152677244D01*
X108828451Y-152696184D01*
X108911669Y-152779402D01*
X109042997Y-152975948D01*
X109133455Y-153194334D01*
X109179570Y-153426169D01*
X109179570Y-153662551D01*
X109133455Y-153894386D01*
X109042997Y-154112772D01*
X108911669Y-154309318D01*
X108744528Y-154476459D01*
X108547982Y-154607787D01*
X108329596Y-154698245D01*
X108097761Y-154744360D01*
X107861379Y-154744360D01*
X107629544Y-154698245D01*
X107411158Y-154607787D01*
X107214612Y-154476459D01*
X107047471Y-154309318D01*
X106916143Y-154112772D01*
X106825685Y-153894386D01*
X106779570Y-153662551D01*
X106779570Y-153426169D01*
X106825685Y-153194334D01*
X106916143Y-152975948D01*
X107047471Y-152779402D01*
X107214612Y-152612261D01*
X107411158Y-152480933D01*
X107629544Y-152390475D01*
X107861379Y-152344360D01*
X108097761Y-152344360D01*
X108329596Y-152390475D01*
X108547982Y-152480933D01*
X108595965Y-152512994D01*
X108617576Y-152524545D01*
X108641025Y-152531658D01*
X108665411Y-152534060D01*
X108689797Y-152531658D01*
X108713246Y-152524545D01*
X108734857Y-152512994D01*
X108753799Y-152497448D01*
X108769345Y-152478506D01*
X108780896Y-152456895D01*
X108788009Y-152433446D01*
X108790411Y-152409060D01*
X108788009Y-152384674D01*
X108780896Y-152361225D01*
X108769345Y-152339614D01*
X108753799Y-152320672D01*
X108719334Y-152286207D01*
X108626310Y-152146987D01*
X108562234Y-151992294D01*
X108529570Y-151828079D01*
X108529570Y-151660641D01*
X108562234Y-151496426D01*
X108626310Y-151341733D01*
X108719334Y-151202513D01*
X108837723Y-151084124D01*
X108976943Y-150991100D01*
X109131636Y-150927024D01*
X109295851Y-150894360D01*
X109463289Y-150894360D01*
X109627504Y-150927024D01*
X109627504Y-150927024D01*
G37*
G36*
X163188934Y-152979664D02*
X163343627Y-153043740D01*
X163482847Y-153136764D01*
X163601236Y-153255153D01*
X163694260Y-153394373D01*
X163758336Y-153549066D01*
X163791000Y-153713281D01*
X163791000Y-153880719D01*
X163758336Y-154044934D01*
X163694260Y-154199627D01*
X163601236Y-154338847D01*
X163482847Y-154457236D01*
X163343627Y-154550260D01*
X163188934Y-154614336D01*
X163024719Y-154647000D01*
X162857281Y-154647000D01*
X162693066Y-154614336D01*
X162538373Y-154550260D01*
X162399153Y-154457236D01*
X162280764Y-154338847D01*
X162187740Y-154199627D01*
X162123664Y-154044934D01*
X162091000Y-153880719D01*
X162091000Y-153713281D01*
X162123664Y-153549066D01*
X162187740Y-153394373D01*
X162280764Y-153255153D01*
X162399153Y-153136764D01*
X162538373Y-153043740D01*
X162693066Y-152979664D01*
X162857281Y-152947000D01*
X163024719Y-152947000D01*
X163188934Y-152979664D01*
X163188934Y-152979664D01*
G37*
G36*
X149542000Y-153973000D02*
X147892000Y-153973000D01*
X147892000Y-152573000D01*
X149542000Y-152573000D01*
X149542000Y-153973000D01*
X149542000Y-153973000D01*
G37*
G36*
X165728934Y-151709664D02*
X165883627Y-151773740D01*
X166022847Y-151866764D01*
X166141236Y-151985153D01*
X166234260Y-152124373D01*
X166298336Y-152279066D01*
X166331000Y-152443281D01*
X166331000Y-152610719D01*
X166298336Y-152774934D01*
X166234260Y-152929627D01*
X166141236Y-153068847D01*
X166022847Y-153187236D01*
X165883627Y-153280260D01*
X165728934Y-153344336D01*
X165564719Y-153377000D01*
X165397281Y-153377000D01*
X165233066Y-153344336D01*
X165078373Y-153280260D01*
X164939153Y-153187236D01*
X164820764Y-153068847D01*
X164727740Y-152929627D01*
X164663664Y-152774934D01*
X164631000Y-152610719D01*
X164631000Y-152443281D01*
X164663664Y-152279066D01*
X164727740Y-152124373D01*
X164820764Y-151985153D01*
X164939153Y-151866764D01*
X165078373Y-151773740D01*
X165233066Y-151709664D01*
X165397281Y-151677000D01*
X165564719Y-151677000D01*
X165728934Y-151709664D01*
X165728934Y-151709664D01*
G37*
G36*
X98809097Y-153336996D02*
X97409097Y-153336996D01*
X97409097Y-149736996D01*
X98809097Y-149736996D01*
X98809097Y-153336996D01*
X98809097Y-153336996D01*
G37*
G36*
X92609097Y-153336996D02*
X91209097Y-153336996D01*
X91209097Y-149736996D01*
X92609097Y-149736996D01*
X92609097Y-153336996D01*
X92609097Y-153336996D01*
G37*
G36*
X153441960Y-153129382D02*
X152341960Y-153129382D01*
X152341960Y-151429382D01*
X153441960Y-151429382D01*
X153441960Y-153129382D01*
X153441960Y-153129382D01*
G37*
G36*
X151541962Y-153129382D02*
X150441962Y-153129382D01*
X150441962Y-151429382D01*
X151541962Y-151429382D01*
X151541962Y-153129382D01*
X151541962Y-153129382D01*
G37*
G36*
X127407504Y-150927024D02*
X127562197Y-150991100D01*
X127701417Y-151084124D01*
X127819806Y-151202513D01*
X127912830Y-151341733D01*
X127976906Y-151496426D01*
X128009570Y-151660641D01*
X128009570Y-151828079D01*
X127976906Y-151992294D01*
X127912830Y-152146987D01*
X127819806Y-152286207D01*
X127701417Y-152404596D01*
X127562197Y-152497620D01*
X127407504Y-152561696D01*
X127243289Y-152594360D01*
X127075851Y-152594360D01*
X126911636Y-152561696D01*
X126756943Y-152497620D01*
X126617723Y-152404596D01*
X126499334Y-152286207D01*
X126406310Y-152146987D01*
X126342234Y-151992294D01*
X126309570Y-151828079D01*
X126309570Y-151660641D01*
X126342234Y-151496426D01*
X126406310Y-151341733D01*
X126499334Y-151202513D01*
X126617723Y-151084124D01*
X126756943Y-150991100D01*
X126911636Y-150927024D01*
X127075851Y-150894360D01*
X127243289Y-150894360D01*
X127407504Y-150927024D01*
X127407504Y-150927024D01*
G37*
G36*
X122327504Y-150927024D02*
X122482197Y-150991100D01*
X122621417Y-151084124D01*
X122739806Y-151202513D01*
X122832830Y-151341733D01*
X122896906Y-151496426D01*
X122929570Y-151660641D01*
X122929570Y-151828079D01*
X122896906Y-151992294D01*
X122832830Y-152146987D01*
X122739806Y-152286207D01*
X122621417Y-152404596D01*
X122482197Y-152497620D01*
X122327504Y-152561696D01*
X122163289Y-152594360D01*
X121995851Y-152594360D01*
X121831636Y-152561696D01*
X121676943Y-152497620D01*
X121537723Y-152404596D01*
X121419334Y-152286207D01*
X121326310Y-152146987D01*
X121262234Y-151992294D01*
X121229570Y-151828079D01*
X121229570Y-151660641D01*
X121262234Y-151496426D01*
X121326310Y-151341733D01*
X121419334Y-151202513D01*
X121537723Y-151084124D01*
X121676943Y-150991100D01*
X121831636Y-150927024D01*
X121995851Y-150894360D01*
X122163289Y-150894360D01*
X122327504Y-150927024D01*
X122327504Y-150927024D01*
G37*
G36*
X129947504Y-150927024D02*
X130102197Y-150991100D01*
X130241417Y-151084124D01*
X130359806Y-151202513D01*
X130452830Y-151341733D01*
X130516906Y-151496426D01*
X130549570Y-151660641D01*
X130549570Y-151828079D01*
X130516906Y-151992294D01*
X130452830Y-152146987D01*
X130359806Y-152286207D01*
X130241417Y-152404596D01*
X130102197Y-152497620D01*
X129947504Y-152561696D01*
X129783289Y-152594360D01*
X129615851Y-152594360D01*
X129451636Y-152561696D01*
X129296943Y-152497620D01*
X129157723Y-152404596D01*
X129039334Y-152286207D01*
X128946310Y-152146987D01*
X128882234Y-151992294D01*
X128849570Y-151828079D01*
X128849570Y-151660641D01*
X128882234Y-151496426D01*
X128946310Y-151341733D01*
X129039334Y-151202513D01*
X129157723Y-151084124D01*
X129296943Y-150991100D01*
X129451636Y-150927024D01*
X129615851Y-150894360D01*
X129783289Y-150894360D01*
X129947504Y-150927024D01*
X129947504Y-150927024D01*
G37*
G36*
X124867504Y-150927024D02*
X125022197Y-150991100D01*
X125161417Y-151084124D01*
X125279806Y-151202513D01*
X125372830Y-151341733D01*
X125436906Y-151496426D01*
X125469570Y-151660641D01*
X125469570Y-151828079D01*
X125436906Y-151992294D01*
X125372830Y-152146987D01*
X125279806Y-152286207D01*
X125161417Y-152404596D01*
X125022197Y-152497620D01*
X124867504Y-152561696D01*
X124703289Y-152594360D01*
X124535851Y-152594360D01*
X124371636Y-152561696D01*
X124216943Y-152497620D01*
X124077723Y-152404596D01*
X123959334Y-152286207D01*
X123866310Y-152146987D01*
X123802234Y-151992294D01*
X123769570Y-151828079D01*
X123769570Y-151660641D01*
X123802234Y-151496426D01*
X123866310Y-151341733D01*
X123959334Y-151202513D01*
X124077723Y-151084124D01*
X124216943Y-150991100D01*
X124371636Y-150927024D01*
X124535851Y-150894360D01*
X124703289Y-150894360D01*
X124867504Y-150927024D01*
X124867504Y-150927024D01*
G37*
G36*
X119787504Y-150927024D02*
X119942197Y-150991100D01*
X120081417Y-151084124D01*
X120199806Y-151202513D01*
X120292830Y-151341733D01*
X120356906Y-151496426D01*
X120389570Y-151660641D01*
X120389570Y-151828079D01*
X120356906Y-151992294D01*
X120292830Y-152146987D01*
X120199806Y-152286207D01*
X120081417Y-152404596D01*
X119942197Y-152497620D01*
X119787504Y-152561696D01*
X119623289Y-152594360D01*
X119455851Y-152594360D01*
X119291636Y-152561696D01*
X119136943Y-152497620D01*
X118997723Y-152404596D01*
X118879334Y-152286207D01*
X118786310Y-152146987D01*
X118722234Y-151992294D01*
X118689570Y-151828079D01*
X118689570Y-151660641D01*
X118722234Y-151496426D01*
X118786310Y-151341733D01*
X118879334Y-151202513D01*
X118997723Y-151084124D01*
X119136943Y-150991100D01*
X119291636Y-150927024D01*
X119455851Y-150894360D01*
X119623289Y-150894360D01*
X119787504Y-150927024D01*
X119787504Y-150927024D01*
G37*
G36*
X114707504Y-150927024D02*
X114862197Y-150991100D01*
X115001417Y-151084124D01*
X115119806Y-151202513D01*
X115212830Y-151341733D01*
X115276906Y-151496426D01*
X115309570Y-151660641D01*
X115309570Y-151828079D01*
X115276906Y-151992294D01*
X115212830Y-152146987D01*
X115119806Y-152286207D01*
X115001417Y-152404596D01*
X114862197Y-152497620D01*
X114707504Y-152561696D01*
X114543289Y-152594360D01*
X114375851Y-152594360D01*
X114211636Y-152561696D01*
X114056943Y-152497620D01*
X113917723Y-152404596D01*
X113799334Y-152286207D01*
X113706310Y-152146987D01*
X113642234Y-151992294D01*
X113609570Y-151828079D01*
X113609570Y-151660641D01*
X113642234Y-151496426D01*
X113706310Y-151341733D01*
X113799334Y-151202513D01*
X113917723Y-151084124D01*
X114056943Y-150991100D01*
X114211636Y-150927024D01*
X114375851Y-150894360D01*
X114543289Y-150894360D01*
X114707504Y-150927024D01*
X114707504Y-150927024D01*
G37*
G36*
X112167504Y-150927024D02*
X112322197Y-150991100D01*
X112461417Y-151084124D01*
X112579806Y-151202513D01*
X112672830Y-151341733D01*
X112736906Y-151496426D01*
X112769570Y-151660641D01*
X112769570Y-151828079D01*
X112736906Y-151992294D01*
X112672830Y-152146987D01*
X112579806Y-152286207D01*
X112461417Y-152404596D01*
X112322197Y-152497620D01*
X112167504Y-152561696D01*
X112003289Y-152594360D01*
X111835851Y-152594360D01*
X111671636Y-152561696D01*
X111516943Y-152497620D01*
X111377723Y-152404596D01*
X111259334Y-152286207D01*
X111166310Y-152146987D01*
X111102234Y-151992294D01*
X111069570Y-151828079D01*
X111069570Y-151660641D01*
X111102234Y-151496426D01*
X111166310Y-151341733D01*
X111259334Y-151202513D01*
X111377723Y-151084124D01*
X111516943Y-150991100D01*
X111671636Y-150927024D01*
X111835851Y-150894360D01*
X112003289Y-150894360D01*
X112167504Y-150927024D01*
X112167504Y-150927024D01*
G37*
G36*
X132487504Y-150927024D02*
X132642197Y-150991100D01*
X132781417Y-151084124D01*
X132899806Y-151202513D01*
X132992830Y-151341733D01*
X133056906Y-151496426D01*
X133089570Y-151660641D01*
X133089570Y-151828079D01*
X133056906Y-151992294D01*
X132992830Y-152146987D01*
X132899806Y-152286207D01*
X132781417Y-152404596D01*
X132642197Y-152497620D01*
X132487504Y-152561696D01*
X132323289Y-152594360D01*
X132155851Y-152594360D01*
X131991636Y-152561696D01*
X131836943Y-152497620D01*
X131697723Y-152404596D01*
X131579334Y-152286207D01*
X131486310Y-152146987D01*
X131422234Y-151992294D01*
X131389570Y-151828079D01*
X131389570Y-151660641D01*
X131422234Y-151496426D01*
X131486310Y-151341733D01*
X131579334Y-151202513D01*
X131697723Y-151084124D01*
X131836943Y-150991100D01*
X131991636Y-150927024D01*
X132155851Y-150894360D01*
X132323289Y-150894360D01*
X132487504Y-150927024D01*
X132487504Y-150927024D01*
G37*
G36*
X117247504Y-150927024D02*
X117402197Y-150991100D01*
X117541417Y-151084124D01*
X117659806Y-151202513D01*
X117752830Y-151341733D01*
X117816906Y-151496426D01*
X117849570Y-151660641D01*
X117849570Y-151828079D01*
X117816906Y-151992294D01*
X117752830Y-152146987D01*
X117659806Y-152286207D01*
X117541417Y-152404596D01*
X117402197Y-152497620D01*
X117247504Y-152561696D01*
X117083289Y-152594360D01*
X116915851Y-152594360D01*
X116751636Y-152561696D01*
X116596943Y-152497620D01*
X116457723Y-152404596D01*
X116339334Y-152286207D01*
X116246310Y-152146987D01*
X116182234Y-151992294D01*
X116149570Y-151828079D01*
X116149570Y-151660641D01*
X116182234Y-151496426D01*
X116246310Y-151341733D01*
X116339334Y-151202513D01*
X116457723Y-151084124D01*
X116596943Y-150991100D01*
X116751636Y-150927024D01*
X116915851Y-150894360D01*
X117083289Y-150894360D01*
X117247504Y-150927024D01*
X117247504Y-150927024D01*
G37*
G36*
X163188934Y-150439664D02*
X163343627Y-150503740D01*
X163482847Y-150596764D01*
X163601236Y-150715153D01*
X163694260Y-150854373D01*
X163758336Y-151009066D01*
X163791000Y-151173281D01*
X163791000Y-151340719D01*
X163758336Y-151504934D01*
X163694260Y-151659627D01*
X163601236Y-151798847D01*
X163482847Y-151917236D01*
X163343627Y-152010260D01*
X163188934Y-152074336D01*
X163024719Y-152107000D01*
X162857281Y-152107000D01*
X162693066Y-152074336D01*
X162538373Y-152010260D01*
X162399153Y-151917236D01*
X162280764Y-151798847D01*
X162187740Y-151659627D01*
X162123664Y-151504934D01*
X162091000Y-151340719D01*
X162091000Y-151173281D01*
X162123664Y-151009066D01*
X162187740Y-150854373D01*
X162280764Y-150715153D01*
X162399153Y-150596764D01*
X162538373Y-150503740D01*
X162693066Y-150439664D01*
X162857281Y-150407000D01*
X163024719Y-150407000D01*
X163188934Y-150439664D01*
X163188934Y-150439664D01*
G37*
G36*
X149542000Y-151973000D02*
X147892000Y-151973000D01*
X147892000Y-150573000D01*
X149542000Y-150573000D01*
X149542000Y-151973000D01*
X149542000Y-151973000D01*
G37*
G36*
X103781594Y-151229000D02*
X101222594Y-151229000D01*
X101222594Y-149051000D01*
X103781594Y-149051000D01*
X103781594Y-151229000D01*
X103781594Y-151229000D01*
G37*
G36*
X153441960Y-150843382D02*
X152341960Y-150843382D01*
X152341960Y-149143382D01*
X153441960Y-149143382D01*
X153441960Y-150843382D01*
X153441960Y-150843382D01*
G37*
G36*
X151541962Y-150843382D02*
X150441962Y-150843382D01*
X150441962Y-149143382D01*
X151541962Y-149143382D01*
X151541962Y-150843382D01*
X151541962Y-150843382D01*
G37*
G36*
X165728934Y-149169664D02*
X165883627Y-149233740D01*
X166022847Y-149326764D01*
X166141236Y-149445153D01*
X166234260Y-149584373D01*
X166298336Y-149739066D01*
X166331000Y-149903281D01*
X166331000Y-150070719D01*
X166298336Y-150234934D01*
X166234260Y-150389627D01*
X166141236Y-150528847D01*
X166022847Y-150647236D01*
X165883627Y-150740260D01*
X165728934Y-150804336D01*
X165564719Y-150837000D01*
X165397281Y-150837000D01*
X165233066Y-150804336D01*
X165078373Y-150740260D01*
X164939153Y-150647236D01*
X164820764Y-150528847D01*
X164727740Y-150389627D01*
X164663664Y-150234934D01*
X164631000Y-150070719D01*
X164631000Y-149903281D01*
X164663664Y-149739066D01*
X164727740Y-149584373D01*
X164820764Y-149445153D01*
X164939153Y-149326764D01*
X165078373Y-149233740D01*
X165233066Y-149169664D01*
X165397281Y-149137000D01*
X165564719Y-149137000D01*
X165728934Y-149169664D01*
X165728934Y-149169664D01*
G37*
G36*
X163188934Y-147899664D02*
X163343627Y-147963740D01*
X163482847Y-148056764D01*
X163601236Y-148175153D01*
X163694260Y-148314373D01*
X163758336Y-148469066D01*
X163791000Y-148633281D01*
X163791000Y-148800719D01*
X163758336Y-148964934D01*
X163694260Y-149119627D01*
X163601236Y-149258847D01*
X163482847Y-149377236D01*
X163343627Y-149470260D01*
X163188934Y-149534336D01*
X163024719Y-149567000D01*
X162857281Y-149567000D01*
X162693066Y-149534336D01*
X162538373Y-149470260D01*
X162399153Y-149377236D01*
X162280764Y-149258847D01*
X162187740Y-149119627D01*
X162123664Y-148964934D01*
X162091000Y-148800719D01*
X162091000Y-148633281D01*
X162123664Y-148469066D01*
X162187740Y-148314373D01*
X162280764Y-148175153D01*
X162399153Y-148056764D01*
X162538373Y-147963740D01*
X162693066Y-147899664D01*
X162857281Y-147867000D01*
X163024719Y-147867000D01*
X163188934Y-147899664D01*
X163188934Y-147899664D01*
G37*
G36*
X99118596Y-149323500D02*
X90518596Y-149323500D01*
X90518596Y-145623500D01*
X99118596Y-145623500D01*
X99118596Y-149323500D01*
X99118596Y-149323500D01*
G37*
G36*
X117922490Y-147554087D02*
X118086278Y-147621930D01*
X118233689Y-147720427D01*
X118359043Y-147845781D01*
X118457540Y-147993192D01*
X118525383Y-148156980D01*
X118559969Y-148330857D01*
X118559969Y-148508145D01*
X118525383Y-148682022D01*
X118457540Y-148845810D01*
X118359043Y-148993221D01*
X118233689Y-149118575D01*
X118086278Y-149217072D01*
X117922490Y-149284915D01*
X117748613Y-149319501D01*
X117571325Y-149319501D01*
X117397448Y-149284915D01*
X117233660Y-149217072D01*
X117086249Y-149118575D01*
X116960895Y-148993221D01*
X116862398Y-148845810D01*
X116794555Y-148682022D01*
X116759969Y-148508145D01*
X116759969Y-148330857D01*
X116794555Y-148156980D01*
X116862398Y-147993192D01*
X116960895Y-147845781D01*
X117086249Y-147720427D01*
X117233660Y-147621930D01*
X117397448Y-147554087D01*
X117571325Y-147519501D01*
X117748613Y-147519501D01*
X117922490Y-147554087D01*
X117922490Y-147554087D01*
G37*
G36*
X123002490Y-147554087D02*
X123166278Y-147621930D01*
X123313689Y-147720427D01*
X123439043Y-147845781D01*
X123537540Y-147993192D01*
X123605383Y-148156980D01*
X123639969Y-148330857D01*
X123639969Y-148508145D01*
X123605383Y-148682022D01*
X123537540Y-148845810D01*
X123439043Y-148993221D01*
X123313689Y-149118575D01*
X123166278Y-149217072D01*
X123002490Y-149284915D01*
X122828613Y-149319501D01*
X122651325Y-149319501D01*
X122477448Y-149284915D01*
X122313660Y-149217072D01*
X122166249Y-149118575D01*
X122040895Y-148993221D01*
X121942398Y-148845810D01*
X121874555Y-148682022D01*
X121839969Y-148508145D01*
X121839969Y-148330857D01*
X121874555Y-148156980D01*
X121942398Y-147993192D01*
X122040895Y-147845781D01*
X122166249Y-147720427D01*
X122313660Y-147621930D01*
X122477448Y-147554087D01*
X122651325Y-147519501D01*
X122828613Y-147519501D01*
X123002490Y-147554087D01*
X123002490Y-147554087D01*
G37*
G36*
X120462490Y-147554087D02*
X120626278Y-147621930D01*
X120773689Y-147720427D01*
X120899043Y-147845781D01*
X120997540Y-147993192D01*
X121065383Y-148156980D01*
X121099969Y-148330857D01*
X121099969Y-148508145D01*
X121065383Y-148682022D01*
X120997540Y-148845810D01*
X120899043Y-148993221D01*
X120773689Y-149118575D01*
X120626278Y-149217072D01*
X120462490Y-149284915D01*
X120288613Y-149319501D01*
X120111325Y-149319501D01*
X119937448Y-149284915D01*
X119773660Y-149217072D01*
X119626249Y-149118575D01*
X119500895Y-148993221D01*
X119402398Y-148845810D01*
X119334555Y-148682022D01*
X119299969Y-148508145D01*
X119299969Y-148330857D01*
X119334555Y-148156980D01*
X119402398Y-147993192D01*
X119500895Y-147845781D01*
X119626249Y-147720427D01*
X119773660Y-147621930D01*
X119937448Y-147554087D01*
X120111325Y-147519501D01*
X120288613Y-147519501D01*
X120462490Y-147554087D01*
X120462490Y-147554087D01*
G37*
G36*
X87724099Y-148679000D02*
X86324099Y-148679000D01*
X86324099Y-147029000D01*
X87724099Y-147029000D01*
X87724099Y-148679000D01*
X87724099Y-148679000D01*
G37*
G36*
X89724099Y-148679000D02*
X88324099Y-148679000D01*
X88324099Y-147029000D01*
X89724099Y-147029000D01*
X89724099Y-148679000D01*
X89724099Y-148679000D01*
G37*
G36*
X151591962Y-148645383D02*
X150391962Y-148645383D01*
X150391962Y-147345383D01*
X151591962Y-147345383D01*
X151591962Y-148645383D01*
X151591962Y-148645383D01*
G37*
G36*
X153491962Y-148645383D02*
X152291962Y-148645383D01*
X152291962Y-147345383D01*
X153491962Y-147345383D01*
X153491962Y-148645383D01*
X153491962Y-148645383D01*
G37*
G36*
X165728934Y-146629664D02*
X165883627Y-146693740D01*
X166022847Y-146786764D01*
X166141236Y-146905153D01*
X166234260Y-147044373D01*
X166298336Y-147199066D01*
X166331000Y-147363281D01*
X166331000Y-147530719D01*
X166298336Y-147694934D01*
X166234260Y-147849627D01*
X166141236Y-147988847D01*
X166022847Y-148107236D01*
X165883627Y-148200260D01*
X165728934Y-148264336D01*
X165564719Y-148297000D01*
X165397281Y-148297000D01*
X165233066Y-148264336D01*
X165078373Y-148200260D01*
X164939153Y-148107236D01*
X164820764Y-147988847D01*
X164727740Y-147849627D01*
X164663664Y-147694934D01*
X164631000Y-147530719D01*
X164631000Y-147363281D01*
X164663664Y-147199066D01*
X164727740Y-147044373D01*
X164820764Y-146905153D01*
X164939153Y-146786764D01*
X165078373Y-146693740D01*
X165233066Y-146629664D01*
X165397281Y-146597000D01*
X165564719Y-146597000D01*
X165728934Y-146629664D01*
X165728934Y-146629664D01*
G37*
G36*
X105842095Y-147467996D02*
X104242095Y-147467996D01*
X104242095Y-145867996D01*
X105842095Y-145867996D01*
X105842095Y-147467996D01*
X105842095Y-147467996D01*
G37*
G36*
X112824582Y-147386878D02*
X111724582Y-147386878D01*
X111724582Y-145686878D01*
X112824582Y-145686878D01*
X112824582Y-147386878D01*
X112824582Y-147386878D01*
G37*
G36*
X114724580Y-147386878D02*
X113624580Y-147386878D01*
X113624580Y-145686878D01*
X114724580Y-145686878D01*
X114724580Y-147386878D01*
X114724580Y-147386878D01*
G37*
G36*
X111078078Y-147320713D02*
X109478078Y-147320713D01*
X109478078Y-145720713D01*
X111078078Y-145720713D01*
X111078078Y-147320713D01*
X111078078Y-147320713D01*
G37*
G36*
X108878080Y-147320713D02*
X107278080Y-147320713D01*
X107278080Y-145720713D01*
X108878080Y-145720713D01*
X108878080Y-147320713D01*
X108878080Y-147320713D01*
G37*
G36*
X163188934Y-145359664D02*
X163343627Y-145423740D01*
X163482847Y-145516764D01*
X163601236Y-145635153D01*
X163694260Y-145774373D01*
X163758336Y-145929066D01*
X163791000Y-146093281D01*
X163791000Y-146260719D01*
X163758336Y-146424934D01*
X163694260Y-146579627D01*
X163601236Y-146718847D01*
X163482847Y-146837236D01*
X163343627Y-146930260D01*
X163188934Y-146994336D01*
X163024719Y-147027000D01*
X162857281Y-147027000D01*
X162693066Y-146994336D01*
X162538373Y-146930260D01*
X162399153Y-146837236D01*
X162280764Y-146718847D01*
X162187740Y-146579627D01*
X162123664Y-146424934D01*
X162091000Y-146260719D01*
X162091000Y-146093281D01*
X162123664Y-145929066D01*
X162187740Y-145774373D01*
X162280764Y-145635153D01*
X162399153Y-145516764D01*
X162538373Y-145423740D01*
X162693066Y-145359664D01*
X162857281Y-145327000D01*
X163024719Y-145327000D01*
X163188934Y-145359664D01*
X163188934Y-145359664D01*
G37*
G36*
X120462490Y-145014087D02*
X120626278Y-145081930D01*
X120773689Y-145180427D01*
X120899043Y-145305781D01*
X120997540Y-145453192D01*
X121065383Y-145616980D01*
X121099969Y-145790857D01*
X121099969Y-145968145D01*
X121065383Y-146142022D01*
X120997540Y-146305810D01*
X120899043Y-146453221D01*
X120773689Y-146578575D01*
X120626278Y-146677072D01*
X120462490Y-146744915D01*
X120288613Y-146779501D01*
X120111325Y-146779501D01*
X119937448Y-146744915D01*
X119773660Y-146677072D01*
X119626249Y-146578575D01*
X119500895Y-146453221D01*
X119402398Y-146305810D01*
X119334555Y-146142022D01*
X119299969Y-145968145D01*
X119299969Y-145790857D01*
X119334555Y-145616980D01*
X119402398Y-145453192D01*
X119500895Y-145305781D01*
X119626249Y-145180427D01*
X119773660Y-145081930D01*
X119937448Y-145014087D01*
X120111325Y-144979501D01*
X120288613Y-144979501D01*
X120462490Y-145014087D01*
X120462490Y-145014087D01*
G37*
G36*
X117922490Y-145014087D02*
X118086278Y-145081930D01*
X118233689Y-145180427D01*
X118359043Y-145305781D01*
X118457540Y-145453192D01*
X118525383Y-145616980D01*
X118559969Y-145790857D01*
X118559969Y-145968145D01*
X118525383Y-146142022D01*
X118457540Y-146305810D01*
X118359043Y-146453221D01*
X118233689Y-146578575D01*
X118086278Y-146677072D01*
X117922490Y-146744915D01*
X117748613Y-146779501D01*
X117571325Y-146779501D01*
X117397448Y-146744915D01*
X117233660Y-146677072D01*
X117086249Y-146578575D01*
X116960895Y-146453221D01*
X116862398Y-146305810D01*
X116794555Y-146142022D01*
X116759969Y-145968145D01*
X116759969Y-145790857D01*
X116794555Y-145616980D01*
X116862398Y-145453192D01*
X116960895Y-145305781D01*
X117086249Y-145180427D01*
X117233660Y-145081930D01*
X117397448Y-145014087D01*
X117571325Y-144979501D01*
X117748613Y-144979501D01*
X117922490Y-145014087D01*
X117922490Y-145014087D01*
G37*
G36*
X123639969Y-146779501D02*
X121839969Y-146779501D01*
X121839969Y-144979501D01*
X123639969Y-144979501D01*
X123639969Y-146779501D01*
X123639969Y-146779501D01*
G37*
G36*
X87724096Y-146646998D02*
X86324096Y-146646998D01*
X86324096Y-144996998D01*
X87724096Y-144996998D01*
X87724096Y-146646998D01*
X87724096Y-146646998D01*
G37*
G36*
X89724096Y-146646998D02*
X88324096Y-146646998D01*
X88324096Y-144996998D01*
X89724096Y-144996998D01*
X89724096Y-146646998D01*
X89724096Y-146646998D01*
G37*
G36*
X152541962Y-146545382D02*
X151341962Y-146545382D01*
X151341962Y-145245382D01*
X152541962Y-145245382D01*
X152541962Y-146545382D01*
X152541962Y-146545382D01*
G37*
G36*
X102574594Y-146519499D02*
X99674594Y-146519499D01*
X99674594Y-145219499D01*
X102574594Y-145219499D01*
X102574594Y-146519499D01*
X102574594Y-146519499D01*
G37*
G36*
X137674434Y-145873219D02*
X135974434Y-145873219D01*
X135974434Y-144773219D01*
X137674434Y-144773219D01*
X137674434Y-145873219D01*
X137674434Y-145873219D01*
G37*
G36*
X139815582Y-145860981D02*
X138115582Y-145860981D01*
X138115582Y-144760981D01*
X139815582Y-144760981D01*
X139815582Y-145860981D01*
X139815582Y-145860981D01*
G37*
G36*
X135566128Y-145850205D02*
X133866128Y-145850205D01*
X133866128Y-144750205D01*
X135566128Y-144750205D01*
X135566128Y-145850205D01*
X135566128Y-145850205D01*
G37*
G36*
X164031026Y-142353115D02*
X164249412Y-142443573D01*
X164445958Y-142574901D01*
X164613099Y-142742042D01*
X164744427Y-142938588D01*
X164834885Y-143156974D01*
X164881000Y-143388809D01*
X164881000Y-143625191D01*
X164834885Y-143857026D01*
X164744427Y-144075412D01*
X164712366Y-144123395D01*
X164700815Y-144145006D01*
X164693702Y-144168455D01*
X164691300Y-144192841D01*
X164693702Y-144217227D01*
X164700815Y-144240676D01*
X164712366Y-144262287D01*
X164727912Y-144281229D01*
X164746854Y-144296775D01*
X164768465Y-144308326D01*
X164791914Y-144315439D01*
X164816300Y-144317841D01*
X164840686Y-144315439D01*
X164864135Y-144308326D01*
X164885746Y-144296775D01*
X164904688Y-144281229D01*
X164939153Y-144246764D01*
X165078373Y-144153740D01*
X165233066Y-144089664D01*
X165397281Y-144057000D01*
X165564719Y-144057000D01*
X165728934Y-144089664D01*
X165883627Y-144153740D01*
X166022847Y-144246764D01*
X166141236Y-144365153D01*
X166234260Y-144504373D01*
X166298336Y-144659066D01*
X166331000Y-144823281D01*
X166331000Y-144990719D01*
X166298336Y-145154934D01*
X166234260Y-145309627D01*
X166141236Y-145448847D01*
X166022847Y-145567236D01*
X165883627Y-145660260D01*
X165728934Y-145724336D01*
X165564719Y-145757000D01*
X165397281Y-145757000D01*
X165233066Y-145724336D01*
X165078373Y-145660260D01*
X164939153Y-145567236D01*
X164820764Y-145448847D01*
X164727740Y-145309627D01*
X164663664Y-145154934D01*
X164631000Y-144990719D01*
X164631000Y-144823281D01*
X164663664Y-144659066D01*
X164732039Y-144493994D01*
X164733050Y-144492103D01*
X164740163Y-144468653D01*
X164742564Y-144444267D01*
X164740162Y-144419881D01*
X164733048Y-144396432D01*
X164721497Y-144374821D01*
X164705951Y-144355879D01*
X164687009Y-144340334D01*
X164665398Y-144328783D01*
X164641948Y-144321670D01*
X164617562Y-144319269D01*
X164593176Y-144321671D01*
X164569727Y-144328785D01*
X164548116Y-144340336D01*
X164529176Y-144355881D01*
X164445958Y-144439099D01*
X164249412Y-144570427D01*
X164031026Y-144660885D01*
X163799191Y-144707000D01*
X163562809Y-144707000D01*
X163330974Y-144660885D01*
X163112588Y-144570427D01*
X162916042Y-144439099D01*
X162748901Y-144271958D01*
X162617573Y-144075412D01*
X162527115Y-143857026D01*
X162481000Y-143625191D01*
X162481000Y-143388809D01*
X162527115Y-143156974D01*
X162617573Y-142938588D01*
X162748901Y-142742042D01*
X162916042Y-142574901D01*
X163112588Y-142443573D01*
X163330974Y-142353115D01*
X163562809Y-142307000D01*
X163799191Y-142307000D01*
X164031026Y-142353115D01*
X164031026Y-142353115D01*
G37*
G36*
X144372959Y-145642623D02*
X142672959Y-145642623D01*
X142672959Y-144542623D01*
X144372959Y-144542623D01*
X144372959Y-145642623D01*
X144372959Y-145642623D01*
G37*
G36*
X146589286Y-145639033D02*
X144889286Y-145639033D01*
X144889286Y-144539033D01*
X146589286Y-144539033D01*
X146589286Y-145639033D01*
X146589286Y-145639033D01*
G37*
G36*
X142145855Y-145635441D02*
X140445855Y-145635441D01*
X140445855Y-144535441D01*
X142145855Y-144535441D01*
X142145855Y-145635441D01*
X142145855Y-145635441D01*
G37*
G36*
X130569891Y-145598959D02*
X128869891Y-145598959D01*
X128869891Y-144498959D01*
X130569891Y-144498959D01*
X130569891Y-145598959D01*
X130569891Y-145598959D01*
G37*
G36*
X114713803Y-145278313D02*
X113613803Y-145278313D01*
X113613803Y-143578313D01*
X114713803Y-143578313D01*
X114713803Y-145278313D01*
X114713803Y-145278313D01*
G37*
G36*
X112813805Y-145278313D02*
X111713805Y-145278313D01*
X111713805Y-143578313D01*
X112813805Y-143578313D01*
X112813805Y-145278313D01*
X112813805Y-145278313D01*
G37*
G36*
X105842095Y-145267996D02*
X104242095Y-145267996D01*
X104242095Y-143667996D01*
X105842095Y-143667996D01*
X105842095Y-145267996D01*
X105842095Y-145267996D01*
G37*
G36*
X108878078Y-145151081D02*
X107278078Y-145151081D01*
X107278078Y-143551081D01*
X108878078Y-143551081D01*
X108878078Y-145151081D01*
X108878078Y-145151081D01*
G37*
G36*
X111078076Y-145151081D02*
X109478076Y-145151081D01*
X109478076Y-143551081D01*
X111078076Y-143551081D01*
X111078076Y-145151081D01*
X111078076Y-145151081D01*
G37*
G36*
X99118596Y-144623500D02*
X90518596Y-144623500D01*
X90518596Y-140923500D01*
X99118596Y-140923500D01*
X99118596Y-144623500D01*
X99118596Y-144623500D01*
G37*
G36*
X87724098Y-144360998D02*
X86324098Y-144360998D01*
X86324098Y-142710998D01*
X87724098Y-142710998D01*
X87724098Y-144360998D01*
X87724098Y-144360998D01*
G37*
G36*
X89724098Y-144360998D02*
X88324098Y-144360998D01*
X88324098Y-142710998D01*
X89724098Y-142710998D01*
X89724098Y-144360998D01*
X89724098Y-144360998D01*
G37*
G36*
X137674434Y-143973221D02*
X135974434Y-143973221D01*
X135974434Y-142873221D01*
X137674434Y-142873221D01*
X137674434Y-143973221D01*
X137674434Y-143973221D01*
G37*
G36*
X139815582Y-143960983D02*
X138115582Y-143960983D01*
X138115582Y-142860983D01*
X139815582Y-142860983D01*
X139815582Y-143960983D01*
X139815582Y-143960983D01*
G37*
G36*
X135566128Y-143950207D02*
X133866128Y-143950207D01*
X133866128Y-142850207D01*
X135566128Y-142850207D01*
X135566128Y-143950207D01*
X135566128Y-143950207D01*
G37*
G36*
X144372959Y-143742625D02*
X142672959Y-143742625D01*
X142672959Y-142642625D01*
X144372959Y-142642625D01*
X144372959Y-143742625D01*
X144372959Y-143742625D01*
G37*
G36*
X146589286Y-143739035D02*
X144889286Y-143739035D01*
X144889286Y-142639035D01*
X146589286Y-142639035D01*
X146589286Y-143739035D01*
X146589286Y-143739035D01*
G37*
G36*
X142145855Y-143735443D02*
X140445855Y-143735443D01*
X140445855Y-142635443D01*
X142145855Y-142635443D01*
X142145855Y-143735443D01*
X142145855Y-143735443D01*
G37*
G36*
X130569891Y-143698961D02*
X128869891Y-143698961D01*
X128869891Y-142598961D01*
X130569891Y-142598961D01*
X130569891Y-143698961D01*
X130569891Y-143698961D01*
G37*
G36*
X103880098Y-142862002D02*
X102699594Y-142862002D01*
X102675208Y-142864404D01*
X102651759Y-142871517D01*
X102630148Y-142883068D01*
X102611206Y-142898614D01*
X102595660Y-142917556D01*
X102584109Y-142939167D01*
X102576996Y-142962616D01*
X102574594Y-142987002D01*
X102574594Y-143619499D01*
X99674594Y-143619499D01*
X99674594Y-142319499D01*
X102655098Y-142319499D01*
X102679484Y-142317097D01*
X102702933Y-142309984D01*
X102724544Y-142298433D01*
X102743486Y-142282887D01*
X102759032Y-142263945D01*
X102770583Y-142242334D01*
X102777696Y-142218885D01*
X102780098Y-142194499D01*
X102780098Y-141162002D01*
X103880098Y-141162002D01*
X103880098Y-142862002D01*
X103880098Y-142862002D01*
G37*
G36*
X105780098Y-142862002D02*
X104680098Y-142862002D01*
X104680098Y-141162002D01*
X105780098Y-141162002D01*
X105780098Y-142862002D01*
X105780098Y-142862002D01*
G37*
G36*
X123124449Y-134061941D02*
X123126851Y-134086327D01*
X123133964Y-134109776D01*
X123145515Y-134131387D01*
X123161061Y-134150329D01*
X123180003Y-134165875D01*
X123201614Y-134177426D01*
X123225063Y-134184539D01*
X123249449Y-134186941D01*
X125099449Y-134186941D01*
X125099449Y-140736941D01*
X123249449Y-140736941D01*
X123225063Y-140739343D01*
X123201614Y-140746456D01*
X123180003Y-140758007D01*
X123161061Y-140773553D01*
X123145515Y-140792495D01*
X123133964Y-140814106D01*
X123126851Y-140837555D01*
X123124449Y-140861941D01*
X123124449Y-142711941D01*
X116574449Y-142711941D01*
X116574449Y-140861941D01*
X116572047Y-140837555D01*
X116564934Y-140814106D01*
X116553383Y-140792495D01*
X116537837Y-140773553D01*
X116518895Y-140758007D01*
X116497284Y-140746456D01*
X116473835Y-140739343D01*
X116449449Y-140736941D01*
X114599449Y-140736941D01*
X114599449Y-134336941D01*
X116599449Y-134336941D01*
X116599449Y-140586941D01*
X116601851Y-140611327D01*
X116608964Y-140634776D01*
X116620515Y-140656387D01*
X116636061Y-140675329D01*
X116655003Y-140690875D01*
X116676614Y-140702426D01*
X116700063Y-140709539D01*
X116724449Y-140711941D01*
X122974449Y-140711941D01*
X122998835Y-140709539D01*
X123022284Y-140702426D01*
X123043895Y-140690875D01*
X123062837Y-140675329D01*
X123078383Y-140656387D01*
X123089934Y-140634776D01*
X123097047Y-140611327D01*
X123099449Y-140586941D01*
X123099449Y-134336941D01*
X123097047Y-134312555D01*
X123089934Y-134289106D01*
X123078383Y-134267495D01*
X123062837Y-134248553D01*
X123043895Y-134233007D01*
X123022284Y-134221456D01*
X122998835Y-134214343D01*
X122974449Y-134211941D01*
X116724449Y-134211941D01*
X116700063Y-134214343D01*
X116676614Y-134221456D01*
X116655003Y-134233007D01*
X116636061Y-134248553D01*
X116620515Y-134267495D01*
X116608964Y-134289106D01*
X116601851Y-134312555D01*
X116599449Y-134336941D01*
X114599449Y-134336941D01*
X114599449Y-134186941D01*
X116449449Y-134186941D01*
X116473835Y-134184539D01*
X116497284Y-134177426D01*
X116518895Y-134165875D01*
X116537837Y-134150329D01*
X116553383Y-134131387D01*
X116564934Y-134109776D01*
X116572047Y-134086327D01*
X116574449Y-134061941D01*
X116574449Y-132211941D01*
X123124449Y-132211941D01*
X123124449Y-134061941D01*
X123124449Y-134061941D01*
G37*
G36*
X139821121Y-142462846D02*
X138221121Y-142462846D01*
X138221121Y-140862846D01*
X139821121Y-140862846D01*
X139821121Y-142462846D01*
X139821121Y-142462846D01*
G37*
G36*
X135526762Y-142425129D02*
X133926762Y-142425129D01*
X133926762Y-140825129D01*
X135526762Y-140825129D01*
X135526762Y-142425129D01*
X135526762Y-142425129D01*
G37*
G36*
X137615571Y-142423331D02*
X136015571Y-142423331D01*
X136015571Y-140823331D01*
X137615571Y-140823331D01*
X137615571Y-142423331D01*
X137615571Y-142423331D01*
G37*
G36*
X151000032Y-141319258D02*
X150222214Y-142097076D01*
X149020132Y-140894994D01*
X149797950Y-140117176D01*
X151000032Y-141319258D01*
X151000032Y-141319258D01*
G37*
G36*
X105780096Y-140829997D02*
X104680096Y-140829997D01*
X104680096Y-139129997D01*
X105780096Y-139129997D01*
X105780096Y-140829997D01*
X105780096Y-140829997D01*
G37*
G36*
X103880096Y-140829997D02*
X102780096Y-140829997D01*
X102780096Y-139129997D01*
X103880096Y-139129997D01*
X103880096Y-140829997D01*
X103880096Y-140829997D01*
G37*
G36*
X149544886Y-139806233D02*
X148554935Y-140796184D01*
X147388208Y-139629457D01*
X148378159Y-138639506D01*
X149544886Y-139806233D01*
X149544886Y-139806233D01*
G37*
G36*
X152343534Y-139975756D02*
X151565716Y-140753574D01*
X150363634Y-139551492D01*
X151141452Y-138773674D01*
X152343534Y-139975756D01*
X152343534Y-139975756D01*
G37*
G36*
X126612934Y-137104664D02*
X126767627Y-137168740D01*
X126906847Y-137261764D01*
X127025236Y-137380153D01*
X127118260Y-137519373D01*
X127182336Y-137674066D01*
X127215000Y-137838281D01*
X127215000Y-138005719D01*
X127198486Y-138088742D01*
X127196084Y-138113128D01*
X127198486Y-138137515D01*
X127205599Y-138160964D01*
X127217151Y-138182575D01*
X127232696Y-138201517D01*
X127251638Y-138217062D01*
X127273249Y-138228613D01*
X127296698Y-138235726D01*
X127321084Y-138238128D01*
X127345471Y-138235726D01*
X127368920Y-138228613D01*
X127514973Y-138168116D01*
X127514974Y-138168116D01*
X127514976Y-138168115D01*
X127746809Y-138122000D01*
X127983191Y-138122000D01*
X128215026Y-138168115D01*
X128433412Y-138258573D01*
X128629958Y-138389901D01*
X128797099Y-138557042D01*
X128928427Y-138753588D01*
X128957515Y-138823813D01*
X128969066Y-138845424D01*
X128984611Y-138864366D01*
X129003553Y-138879912D01*
X129007716Y-138882137D01*
X129006346Y-138886652D01*
X129003944Y-138911038D01*
X129006346Y-138935424D01*
X129013458Y-138958872D01*
X129018885Y-138971975D01*
X129065000Y-139203809D01*
X129065000Y-139443801D01*
X129063302Y-139461040D01*
X129065704Y-139485426D01*
X129072818Y-139508875D01*
X129084369Y-139530486D01*
X129099915Y-139549427D01*
X129118857Y-139564973D01*
X129140468Y-139576524D01*
X129163917Y-139583636D01*
X129188302Y-139586038D01*
X130898000Y-139586038D01*
X130898000Y-140686038D01*
X129198000Y-140686038D01*
X129198000Y-139868022D01*
X129195598Y-139843636D01*
X129188485Y-139820187D01*
X129176934Y-139798576D01*
X129161388Y-139779634D01*
X129142446Y-139764088D01*
X129120835Y-139752537D01*
X129097386Y-139745424D01*
X129073000Y-139743022D01*
X129048614Y-139745424D01*
X129025165Y-139752537D01*
X129003554Y-139764088D01*
X128984612Y-139779634D01*
X128969066Y-139798576D01*
X128957515Y-139820187D01*
X128928427Y-139890412D01*
X128797099Y-140086958D01*
X128629958Y-140254099D01*
X128433412Y-140385427D01*
X128215026Y-140475885D01*
X127983191Y-140522000D01*
X127746809Y-140522000D01*
X127514974Y-140475885D01*
X127296588Y-140385427D01*
X127100042Y-140254099D01*
X126932901Y-140086958D01*
X126801573Y-139890412D01*
X126711115Y-139672026D01*
X126665000Y-139440191D01*
X126665000Y-139203809D01*
X126711115Y-138971974D01*
X126735451Y-138913221D01*
X126742564Y-138889772D01*
X126744966Y-138865386D01*
X126742564Y-138841000D01*
X126735451Y-138817550D01*
X126723900Y-138795940D01*
X126708354Y-138776998D01*
X126689412Y-138761452D01*
X126667801Y-138749901D01*
X126644352Y-138742788D01*
X126619966Y-138740386D01*
X126595580Y-138742788D01*
X126448719Y-138772000D01*
X126281281Y-138772000D01*
X126117066Y-138739336D01*
X125962373Y-138675260D01*
X125823153Y-138582236D01*
X125704764Y-138463847D01*
X125611740Y-138324627D01*
X125547664Y-138169934D01*
X125515000Y-138005719D01*
X125515000Y-137838281D01*
X125547664Y-137674066D01*
X125611740Y-137519373D01*
X125704764Y-137380153D01*
X125823153Y-137261764D01*
X125962373Y-137168740D01*
X126117066Y-137104664D01*
X126281281Y-137072000D01*
X126448719Y-137072000D01*
X126612934Y-137104664D01*
X126612934Y-137104664D01*
G37*
G36*
X113125000Y-140665000D02*
X111325000Y-140665000D01*
X111325000Y-137465000D01*
X113125000Y-137465000D01*
X113125000Y-140665000D01*
X113125000Y-140665000D01*
G37*
G36*
X110925000Y-140665000D02*
X109125000Y-140665000D01*
X109125000Y-137465000D01*
X110925000Y-137465000D01*
X110925000Y-140665000D01*
X110925000Y-140665000D01*
G37*
G36*
X99184099Y-140402001D02*
X97184099Y-140402001D01*
X97184099Y-139002001D01*
X99184099Y-139002001D01*
X99184099Y-140402001D01*
X99184099Y-140402001D01*
G37*
G36*
X96318996Y-140349499D02*
X93368996Y-140349499D01*
X93368996Y-138889499D01*
X96318996Y-138889499D01*
X96318996Y-140349499D01*
X96318996Y-140349499D01*
G37*
G36*
X139821121Y-140262848D02*
X138221121Y-140262848D01*
X138221121Y-138662848D01*
X139821121Y-138662848D01*
X139821121Y-140262848D01*
X139821121Y-140262848D01*
G37*
G36*
X135526762Y-140225131D02*
X133926762Y-140225131D01*
X133926762Y-138625131D01*
X135526762Y-138625131D01*
X135526762Y-140225131D01*
X135526762Y-140225131D01*
G37*
G36*
X137615571Y-140223333D02*
X136015571Y-140223333D01*
X136015571Y-138623333D01*
X137615571Y-138623333D01*
X137615571Y-140223333D01*
X137615571Y-140223333D01*
G37*
G36*
X150959100Y-138392019D02*
X149969149Y-139381970D01*
X148802422Y-138215243D01*
X149792373Y-137225292D01*
X150959100Y-138392019D01*
X150959100Y-138392019D01*
G37*
G36*
X147936792Y-138484616D02*
X147158974Y-139262434D01*
X145956892Y-138060352D01*
X146734710Y-137282534D01*
X147936792Y-138484616D01*
X147936792Y-138484616D01*
G37*
G36*
X92659101Y-138885998D02*
X91009101Y-138885998D01*
X91009101Y-137485998D01*
X92659101Y-137485998D01*
X92659101Y-138885998D01*
X92659101Y-138885998D01*
G37*
G36*
X129210352Y-137676523D02*
X129233801Y-137683636D01*
X129258187Y-137686038D01*
X130898000Y-137686038D01*
X130898000Y-138786038D01*
X129197009Y-138786038D01*
X129198000Y-138775978D01*
X129198000Y-137669921D01*
X129210352Y-137676523D01*
X129210352Y-137676523D01*
G37*
G36*
X89382094Y-138432001D02*
X87682094Y-138432001D01*
X87682094Y-137332001D01*
X89382094Y-137332001D01*
X89382094Y-138432001D01*
X89382094Y-138432001D01*
G37*
G36*
X96318996Y-138149499D02*
X93368996Y-138149499D01*
X93368996Y-136689499D01*
X96318996Y-136689499D01*
X96318996Y-138149499D01*
X96318996Y-138149499D01*
G37*
G36*
X149280294Y-137141114D02*
X148502476Y-137918932D01*
X147300394Y-136716850D01*
X148078212Y-135939032D01*
X149280294Y-137141114D01*
X149280294Y-137141114D01*
G37*
G36*
X146521706Y-136912870D02*
X145531755Y-137902821D01*
X144365028Y-136736094D01*
X145354979Y-135746143D01*
X146521706Y-136912870D01*
X146521706Y-136912870D01*
G37*
G36*
X129152934Y-135834664D02*
X129307627Y-135898740D01*
X129446847Y-135991764D01*
X129565236Y-136110153D01*
X129658260Y-136249373D01*
X129722336Y-136404066D01*
X129755000Y-136568281D01*
X129755000Y-136735719D01*
X129722336Y-136899934D01*
X129658260Y-137054627D01*
X129565236Y-137193847D01*
X129446847Y-137312236D01*
X129307627Y-137405260D01*
X129210351Y-137445553D01*
X129188741Y-137457104D01*
X129169799Y-137472650D01*
X129154253Y-137491592D01*
X129144278Y-137510254D01*
X129142446Y-137508750D01*
X129120835Y-137497199D01*
X129097386Y-137490086D01*
X129073000Y-137487684D01*
X129048614Y-137490086D01*
X128988719Y-137502000D01*
X128821281Y-137502000D01*
X128657066Y-137469336D01*
X128502373Y-137405260D01*
X128363153Y-137312236D01*
X128244764Y-137193847D01*
X128151740Y-137054627D01*
X128087664Y-136899934D01*
X128055000Y-136735719D01*
X128055000Y-136568281D01*
X128087664Y-136404066D01*
X128151740Y-136249373D01*
X128244764Y-136110153D01*
X128363153Y-135991764D01*
X128502373Y-135898740D01*
X128657066Y-135834664D01*
X128821281Y-135802000D01*
X128988719Y-135802000D01*
X129152934Y-135834664D01*
X129152934Y-135834664D01*
G37*
G36*
X99184099Y-137402001D02*
X97184099Y-137402001D01*
X97184099Y-136002001D01*
X99184099Y-136002001D01*
X99184099Y-137402001D01*
X99184099Y-137402001D01*
G37*
G36*
X108567560Y-137161618D02*
X107167560Y-137161618D01*
X107167560Y-135511618D01*
X108567560Y-135511618D01*
X108567560Y-137161618D01*
X108567560Y-137161618D01*
G37*
G36*
X110567560Y-137161618D02*
X109167560Y-137161618D01*
X109167560Y-135511618D01*
X110567560Y-135511618D01*
X110567560Y-137161618D01*
X110567560Y-137161618D01*
G37*
G36*
X92659101Y-136885998D02*
X91009101Y-136885998D01*
X91009101Y-135485998D01*
X92659101Y-135485998D01*
X92659101Y-136885998D01*
X92659101Y-136885998D01*
G37*
G36*
X112966000Y-136701000D02*
X111316000Y-136701000D01*
X111316000Y-135301000D01*
X112966000Y-135301000D01*
X112966000Y-136701000D01*
X112966000Y-136701000D01*
G37*
G36*
X89382094Y-136532001D02*
X87682094Y-136532001D01*
X87682094Y-135432001D01*
X89382094Y-135432001D01*
X89382094Y-136532001D01*
X89382094Y-136532001D01*
G37*
G36*
X147935920Y-135498656D02*
X146945969Y-136488607D01*
X145779242Y-135321880D01*
X146769193Y-134331929D01*
X147935920Y-135498656D01*
X147935920Y-135498656D01*
G37*
G36*
X126612934Y-134564664D02*
X126767627Y-134628740D01*
X126906847Y-134721764D01*
X127025236Y-134840153D01*
X127118260Y-134979373D01*
X127182336Y-135134066D01*
X127215000Y-135298281D01*
X127215000Y-135465719D01*
X127182336Y-135629934D01*
X127118260Y-135784627D01*
X127025236Y-135923847D01*
X126906847Y-136042236D01*
X126767627Y-136135260D01*
X126612934Y-136199336D01*
X126448719Y-136232000D01*
X126281281Y-136232000D01*
X126117066Y-136199336D01*
X125962373Y-136135260D01*
X125823153Y-136042236D01*
X125704764Y-135923847D01*
X125611740Y-135784627D01*
X125547664Y-135629934D01*
X125515000Y-135465719D01*
X125515000Y-135298281D01*
X125547664Y-135134066D01*
X125611740Y-134979373D01*
X125704764Y-134840153D01*
X125823153Y-134721764D01*
X125962373Y-134628740D01*
X126117066Y-134564664D01*
X126281281Y-134532000D01*
X126448719Y-134532000D01*
X126612934Y-134564664D01*
X126612934Y-134564664D01*
G37*
G36*
X98160095Y-135750001D02*
X97060095Y-135750001D01*
X97060095Y-134050001D01*
X98160095Y-134050001D01*
X98160095Y-135750001D01*
X98160095Y-135750001D01*
G37*
G36*
X96260095Y-135750001D02*
X95160095Y-135750001D01*
X95160095Y-134050001D01*
X96260095Y-134050001D01*
X96260095Y-135750001D01*
X96260095Y-135750001D01*
G37*
G36*
X108539000Y-135064000D02*
X107139000Y-135064000D01*
X107139000Y-133414000D01*
X108539000Y-133414000D01*
X108539000Y-135064000D01*
X108539000Y-135064000D01*
G37*
G36*
X110539000Y-135064000D02*
X109139000Y-135064000D01*
X109139000Y-133414000D01*
X110539000Y-133414000D01*
X110539000Y-135064000D01*
X110539000Y-135064000D01*
G37*
G36*
X129152934Y-133294664D02*
X129307627Y-133358740D01*
X129446847Y-133451764D01*
X129565236Y-133570153D01*
X129658260Y-133709373D01*
X129722336Y-133864066D01*
X129755000Y-134028281D01*
X129755000Y-134195719D01*
X129722336Y-134359934D01*
X129658260Y-134514627D01*
X129565236Y-134653847D01*
X129446847Y-134772236D01*
X129307627Y-134865260D01*
X129152934Y-134929336D01*
X128988719Y-134962000D01*
X128821281Y-134962000D01*
X128657066Y-134929336D01*
X128502373Y-134865260D01*
X128363153Y-134772236D01*
X128244764Y-134653847D01*
X128151740Y-134514627D01*
X128087664Y-134359934D01*
X128055000Y-134195719D01*
X128055000Y-134028281D01*
X128087664Y-133864066D01*
X128151740Y-133709373D01*
X128244764Y-133570153D01*
X128363153Y-133451764D01*
X128502373Y-133358740D01*
X128657066Y-133294664D01*
X128821281Y-133262000D01*
X128988719Y-133262000D01*
X129152934Y-133294664D01*
X129152934Y-133294664D01*
G37*
G36*
X112966000Y-134701000D02*
X111316000Y-134701000D01*
X111316000Y-133301000D01*
X112966000Y-133301000D01*
X112966000Y-134701000D01*
X112966000Y-134701000D01*
G37*
G36*
X107296001Y-132422000D02*
X106196001Y-132422000D01*
X106196001Y-130722000D01*
X107296001Y-130722000D01*
X107296001Y-132422000D01*
X107296001Y-132422000D01*
G37*
G36*
X109195999Y-132422000D02*
X108095999Y-132422000D01*
X108095999Y-130722000D01*
X109195999Y-130722000D01*
X109195999Y-132422000D01*
X109195999Y-132422000D01*
G37*
M02*
