M48
INCH,TZ
T1C0.0120
T2C0.0315
T3C0.0400
T4C0.0591
%
G90
G05
T1
X33055Y-56610
X33055Y-57410
X33055Y-58110
X33455Y-57010
X33455Y-57710
X33455Y-56210
X33555Y-58110
X34255Y-54410
X35055Y-55610
X35255Y-60910
X35420Y-54528
X35440Y-55548
X37055Y-53110
X37455Y-52410
X39155Y-61510
X39455Y-54310
X39455Y-53610
X40355Y-53610
X40355Y-54310
X41355Y-58510
X41455Y-60710
X41812Y-53672
X42540Y-58403
X43250Y-52250
X44100Y-52000
X44300Y-55600
X44368Y-60251
X44741Y-61545
X44925Y-51831
X44927Y-54300
X44955Y-53656
X45024Y-61745
X45070Y-62154
X46155Y-63422
X46350Y-56450
X46700Y-56308
X46904Y-51899
X47450Y-51950
X49150Y-56700
X49400Y-53750
X49499Y-56513
X50000Y-58150
X50351Y-63171
X50787Y-58292
X50787Y-58292
X50979Y-57626
X50979Y-57626
X51491Y-58058
X51967Y-58930
X51975Y-57970
X52115Y-63657
X52468Y-63509
X52500Y-53875
X52500Y-55000
X52850Y-59150
X52871Y-58140
X52950Y-57750
X53492Y-60840
X53540Y-60171
X55108Y-58152
X55140Y-63290
X55321Y-55196
X55513Y-58187
X56285Y-62689
X58187Y-52929
X58550Y-58900
X58750Y-62500
X59107Y-53583
X59351Y-54113
X60608Y-55177
X60697Y-60032
T2
X43063Y-59742
X43563Y-60742
X44063Y-59742
X44563Y-60742
X45063Y-59742
X45563Y-60742
X46063Y-59742
X46563Y-60742
X47063Y-59742
X47563Y-60742
X48063Y-59742
X48563Y-60742
X49063Y-59742
X49563Y-60742
X50063Y-59742
X50563Y-60742
X51063Y-59742
X51563Y-60742
X52063Y-59742
X52563Y-60742
X49750Y-53300
X49750Y-54300
X50750Y-52800
X50750Y-53800
X64150Y-57550
X64150Y-58550
X64150Y-59550
X64150Y-60550
X64150Y-61550
X65150Y-57050
X65150Y-58050
X65150Y-59050
X65150Y-60050
X65150Y-61050
T3
X41312Y-62313
X41312Y-63313
X42312Y-62313
X42312Y-63313
X43312Y-62313
X43312Y-63313
X46323Y-57433
X46323Y-58433
X47323Y-57433
X47323Y-58433
X48323Y-57433
X48323Y-58433
T4
X42512Y-60451
X50341Y-54851
X64441Y-56499
T0
M30
