M48
INCH,TZ
T1C0.0120
T2C0.0157
T3C0.0315
T4C0.0400
T5C0.0591
%
G90
G05
T1
X19300Y-20475
X19425Y-25750
X20375Y-19425
X20375Y-20475
X21025Y-25475
X21075Y-26475
X21275Y-23250
X21600Y-23250
X22300Y-22350
X22750Y-25650
X23250Y-21375
X23250Y-26150
X23275Y-20600
X26150Y-26875
X26225Y-14325
X27175Y-26300
X27550Y-14350
X27575Y-28875
X27600Y-28125
X27625Y-27600
X27625Y-29700
X27825Y-26725
X28075Y-21250
X28425Y-25825
X28625Y-19550
X28675Y-29375
X28850Y-14375
X29425Y-28760
X29500Y-27775
X29850Y-30496
X30125Y-28125
X30175Y-28800
X30340Y-32460
X30525Y-23700
X30550Y-19200
X30600Y-24600
X30725Y-25925
X30907Y-30343
X31275Y-19125
X31475Y-25250
X31490Y-32310
X31600Y-28550
X31675Y-28875
X31675Y-30275
X31725Y-19550
X32125Y-17900
X32150Y-23325
X32450Y-28925
X32700Y-16300
X32725Y-14650
X33075Y-16750
X33360Y-32070
X33360Y-32810
X33788Y-28635
X33825Y-23875
X33850Y-24675
X34325Y-21250
X34450Y-28600
X34800Y-18425
X34975Y-21900
X35050Y-17150
X35425Y-15225
X36025Y-15100
X36296Y-32503
X36650Y-28700
X36725Y-30000
X36750Y-32725
X37000Y-30300
X37300Y-29375
X37800Y-28700
X39150Y-27625
X39825Y-27625
X41450Y-29200
X44450Y-20525
T2
X35776Y-22989
X35781Y-21875
X35791Y-24158
X35791Y-25400
X36499Y-25425
X37633Y-25430
X39269Y-14285
X40582Y-14271
X41659Y-14271
X42486Y-14271
X43019Y-15399
T3
X29350Y-30850
X29850Y-31850
X30350Y-30850
X30850Y-31850
X31350Y-30850
X31850Y-31850
X32350Y-30850
X32850Y-31850
X33350Y-30850
X33850Y-31850
X34350Y-30850
X34850Y-31850
X35350Y-30850
X35850Y-31850
X36350Y-30850
X36850Y-31850
X37350Y-30850
X37850Y-31850
X38350Y-30850
X38850Y-31850
X20600Y-15450
X21100Y-16450
X21600Y-15450
X22100Y-16450
T4
X33050Y-28025
X33050Y-29025
X34050Y-28025
X34050Y-29025
X35050Y-28025
X35050Y-29025
T5
X39401Y-31141
X22651Y-15859
T0
M30
