G04 #@! TF.GenerationSoftware,KiCad,Pcbnew,5.0.2-bee76a0~70~ubuntu18.04.1*
G04 #@! TF.CreationDate,2019-04-11T22:59:15-04:00*
G04 #@! TF.ProjectId,throttle,7468726f-7474-46c6-952e-6b696361645f,rev?*
G04 #@! TF.SameCoordinates,Original*
G04 #@! TF.FileFunction,Copper,L2,Bot*
G04 #@! TF.FilePolarity,Positive*
%FSLAX46Y46*%
G04 Gerber Fmt 4.6, Leading zero omitted, Abs format (unit mm)*
G04 Created by KiCad (PCBNEW 5.0.2-bee76a0~70~ubuntu18.04.1) date Thu 11 Apr 2019 10:59:15 PM EDT*
%MOMM*%
%LPD*%
G01*
G04 APERTURE LIST*
G04 #@! TA.AperFunction,ComponentPad*
%ADD10C,1.400000*%
G04 #@! TD*
G04 #@! TA.AperFunction,ComponentPad*
%ADD11R,1.400000X1.400000*%
G04 #@! TD*
G04 #@! TA.AperFunction,ComponentPad*
%ADD12C,2.000000*%
G04 #@! TD*
G04 #@! TA.AperFunction,ComponentPad*
%ADD13C,1.300000*%
G04 #@! TD*
G04 #@! TA.AperFunction,ViaPad*
%ADD14C,0.800000*%
G04 #@! TD*
G04 #@! TA.AperFunction,ViaPad*
%ADD15C,0.609600*%
G04 #@! TD*
G04 #@! TA.AperFunction,Conductor*
%ADD16C,0.152400*%
G04 #@! TD*
G04 #@! TA.AperFunction,Conductor*
%ADD17C,0.254000*%
G04 #@! TD*
G04 APERTURE END LIST*
D10*
G04 #@! TO.P,J3,6*
G04 #@! TO.N,GND*
X83947000Y-73723500D03*
G04 #@! TO.P,J3,5*
G04 #@! TO.N,/RESET*
X83947000Y-71183500D03*
G04 #@! TO.P,J3,4*
G04 #@! TO.N,/MOSI*
X86487000Y-73723500D03*
G04 #@! TO.P,J3,3*
G04 #@! TO.N,/SCK*
X86487000Y-71183500D03*
G04 #@! TO.P,J3,2*
G04 #@! TO.N,VCC*
X89027000Y-73723500D03*
D11*
G04 #@! TO.P,J3,1*
G04 #@! TO.N,/MISO*
X89027000Y-71183500D03*
G04 #@! TD*
D12*
G04 #@! TO.P,J1,5*
G04 #@! TO.N,N/C*
X57534000Y-40283000D03*
D13*
G04 #@! TO.P,J1,4*
G04 #@! TO.N,Net-(J1-Pad4)*
X52324000Y-39243000D03*
G04 #@! TO.P,J1,2*
G04 #@! TO.N,/SS_Inertia_Switch*
X54864000Y-39243000D03*
G04 #@! TO.P,J1,1*
G04 #@! TO.N,/SS_BOTS*
X56134000Y-41783000D03*
G04 #@! TO.P,J1,3*
G04 #@! TO.N,/SS_Cockpit_EStop*
X53594000Y-41783000D03*
G04 #@! TD*
D12*
G04 #@! TO.P,J2,21*
G04 #@! TO.N,N/C*
X100079000Y-79099000D03*
D13*
G04 #@! TO.P,J2,20*
G04 #@! TO.N,/LED2*
X74549000Y-78359000D03*
G04 #@! TO.P,J2,19*
G04 #@! TO.N,/LED1*
X75819000Y-80899000D03*
G04 #@! TO.P,J2,18*
G04 #@! TO.N,GND*
X77089000Y-78359000D03*
G04 #@! TO.P,J2,17*
G04 #@! TO.N,/Throttle2_Left_Sense*
X78359000Y-80899000D03*
G04 #@! TO.P,J2,16*
G04 #@! TO.N,Net-(J2-Pad16)*
X79629000Y-78359000D03*
G04 #@! TO.P,J2,15*
G04 #@! TO.N,GND*
X80899000Y-80899000D03*
G04 #@! TO.P,J2,14*
G04 #@! TO.N,/Throttle1_Right_Sense*
X82169000Y-78359000D03*
G04 #@! TO.P,J2,13*
G04 #@! TO.N,Net-(J2-Pad13)*
X83439000Y-80899000D03*
G04 #@! TO.P,J2,12*
G04 #@! TO.N,/CANL*
X84709000Y-78359000D03*
G04 #@! TO.P,J2,11*
G04 #@! TO.N,/CANH*
X85979000Y-80899000D03*
G04 #@! TO.P,J2,10*
G04 #@! TO.N,/RESET*
X87249000Y-78359000D03*
G04 #@! TO.P,J2,9*
G04 #@! TO.N,/SCK*
X88519000Y-80899000D03*
G04 #@! TO.P,J2,8*
G04 #@! TO.N,/MISO*
X89789000Y-78359000D03*
G04 #@! TO.P,J2,6*
G04 #@! TO.N,VCC*
X92329000Y-78359000D03*
G04 #@! TO.P,J2,4*
G04 #@! TO.N,/Drive_Mode_Out*
X94869000Y-78359000D03*
G04 #@! TO.P,J2,2*
G04 #@! TO.N,+12V*
X97409000Y-78359000D03*
G04 #@! TO.P,J2,7*
G04 #@! TO.N,/MOSI*
X91059000Y-80899000D03*
G04 #@! TO.P,J2,1*
G04 #@! TO.N,GND*
X98679000Y-80899000D03*
G04 #@! TO.P,J2,3*
G04 #@! TO.N,VCC*
X96139000Y-80899000D03*
G04 #@! TO.P,J2,5*
G04 #@! TO.N,/GND_DriveMode*
X93599000Y-80899000D03*
G04 #@! TD*
D14*
G04 #@! TO.N,GND*
X103077703Y-36249577D03*
X99742683Y-36285137D03*
X107913863Y-36249577D03*
X105813283Y-36249577D03*
X90883163Y-55563737D03*
X90870463Y-58393297D03*
X90908563Y-61362557D03*
X90908563Y-64517237D03*
X92706883Y-64580737D03*
X95587243Y-64593437D03*
X109267683Y-39114697D03*
D15*
X56642000Y-56769000D03*
X54864000Y-59055000D03*
X112903000Y-52133500D03*
X51752500Y-49339500D03*
X49022000Y-52006500D03*
X51752500Y-52006500D03*
X49339500Y-65405000D03*
X53403500Y-64706500D03*
X53530500Y-67246500D03*
X105283000Y-74168000D03*
X96012000Y-72898000D03*
X66611500Y-36385500D03*
X69977000Y-36449000D03*
X73279000Y-36512500D03*
X89027000Y-43561000D03*
X89979500Y-38671500D03*
X91503500Y-38354000D03*
X79946500Y-64135000D03*
X81661000Y-59245500D03*
X85915500Y-60642500D03*
X85979000Y-62674500D03*
X70167500Y-75438000D03*
X72707500Y-49657000D03*
X71310500Y-53975000D03*
X72199500Y-65595500D03*
X70675500Y-67881500D03*
X70167500Y-70104000D03*
X83121500Y-37211000D03*
X88392000Y-46799500D03*
X81597500Y-45466000D03*
X78041500Y-65849500D03*
X54038500Y-59055000D03*
G04 #@! TO.N,VCC*
X70040500Y-73342500D03*
X70104000Y-71437500D03*
X69024500Y-66802000D03*
X66421000Y-68262500D03*
X59055000Y-66421000D03*
X57785000Y-65151000D03*
X101155500Y-70167500D03*
X99441000Y-70167500D03*
X88836500Y-55626000D03*
X87185500Y-53975000D03*
X80581500Y-49657000D03*
X79438500Y-48577500D03*
X77597000Y-48768000D03*
X79984600Y-82067400D03*
X77063600Y-82448400D03*
G04 #@! TO.N,/MISO*
X80264000Y-72517000D03*
X87503000Y-72644000D03*
G04 #@! TO.N,/MOSI*
X80454500Y-73342500D03*
X85820638Y-72732900D03*
G04 #@! TO.N,Net-(IC1-Pad8)*
X76644500Y-73152000D03*
X76517500Y-71437500D03*
G04 #@! TO.N,Net-(IC1-Pad9)*
X74739500Y-73050400D03*
X74930000Y-70548500D03*
G04 #@! TO.N,/SCK*
X77533500Y-60198000D03*
X77724000Y-62484000D03*
G04 #@! TO.N,/Drive_Mode_Out*
X93091000Y-72898000D03*
X94742000Y-74612500D03*
G04 #@! TO.N,/RESET*
X72834500Y-74612500D03*
X82423000Y-73469500D03*
G04 #@! TO.N,/SS_Inertia_Switch*
X59118500Y-52324000D03*
X59055000Y-54292500D03*
G04 #@! TO.N,/Throttle1_Right_Sense*
X83058000Y-41402000D03*
X84010500Y-42545000D03*
X93980000Y-76962000D03*
X93345000Y-83121500D03*
X80454500Y-76898500D03*
X78504948Y-77070052D03*
X84734400Y-81457800D03*
X84734400Y-83337400D03*
G04 #@! TO.N,/Throttle2_Left_Sense*
X93281500Y-76200000D03*
X92190596Y-82558743D03*
G04 #@! TO.N,/LED1*
X75819000Y-77459400D03*
G04 #@! TD*
D16*
G04 #@! TO.N,GND*
X43065701Y-61353701D02*
X43065701Y-61099701D01*
X43370500Y-61658500D02*
X43065701Y-61353701D01*
X47244000Y-52324000D02*
X47752000Y-51816000D01*
G04 #@! TO.N,VCC*
X70040500Y-73342500D02*
X70040500Y-71501000D01*
X70040500Y-71501000D02*
X70104000Y-71437500D01*
X69024500Y-66802000D02*
X67564000Y-68262500D01*
X67564000Y-68262500D02*
X66421000Y-68262500D01*
X59055000Y-66421000D02*
X57785000Y-65151000D01*
X101155500Y-70167500D02*
X99441000Y-70167500D01*
X88836500Y-55626000D02*
X87185500Y-53975000D01*
X80581500Y-49657000D02*
X79502000Y-48577500D01*
X79502000Y-48577500D02*
X79438500Y-48577500D01*
X79438500Y-48577500D02*
X77787500Y-48577500D01*
X77787500Y-48577500D02*
X77597000Y-48768000D01*
X79984600Y-82067400D02*
X79603600Y-82448400D01*
X79603600Y-82448400D02*
X77063600Y-82448400D01*
G04 #@! TO.N,/MISO*
X87376000Y-72517000D02*
X87503000Y-72644000D01*
X80568799Y-72212201D02*
X83489799Y-72212201D01*
X80264000Y-72517000D02*
X80568799Y-72212201D01*
X83489799Y-72212201D02*
X83502500Y-72199500D01*
X87058500Y-72199500D02*
X87503000Y-72644000D01*
X83502500Y-72199500D02*
X87058500Y-72199500D01*
G04 #@! TO.N,/MOSI*
X80454500Y-73342500D02*
X81064100Y-72732900D01*
X81064100Y-72732900D02*
X85820638Y-72732900D01*
G04 #@! TO.N,Net-(IC1-Pad8)*
X76644500Y-73152000D02*
X76644500Y-71564500D01*
X76644500Y-71564500D02*
X76517500Y-71437500D01*
G04 #@! TO.N,Net-(IC1-Pad9)*
X74739500Y-73050400D02*
X74739500Y-70739000D01*
X74739500Y-70739000D02*
X74930000Y-70548500D01*
G04 #@! TO.N,/SCK*
X77533500Y-60198000D02*
X77533500Y-62293500D01*
X77533500Y-62293500D02*
X77724000Y-62484000D01*
G04 #@! TO.N,/Drive_Mode_Out*
X93091000Y-72898000D02*
X94742000Y-74549000D01*
X94742000Y-74549000D02*
X94742000Y-74612500D01*
G04 #@! TO.N,/RESET*
X78981299Y-74307701D02*
X79057500Y-74231500D01*
X72834500Y-74612500D02*
X73139299Y-74307701D01*
X73139299Y-74307701D02*
X78981299Y-74307701D01*
X80354934Y-74231500D02*
X81370934Y-73215500D01*
X79057500Y-74231500D02*
X80354934Y-74231500D01*
X81370934Y-73215500D02*
X82169000Y-73215500D01*
X82169000Y-73215500D02*
X82423000Y-73469500D01*
G04 #@! TO.N,/SS_Inertia_Switch*
X59118500Y-52324000D02*
X59118500Y-54229000D01*
X59118500Y-54229000D02*
X59055000Y-54292500D01*
G04 #@! TO.N,/Throttle1_Right_Sense*
X83058000Y-41402000D02*
X84010500Y-42354500D01*
X84010500Y-42354500D02*
X84010500Y-42545000D01*
X80454500Y-76898500D02*
X78676500Y-76898500D01*
X78676500Y-76898500D02*
X78504948Y-77070052D01*
X93040201Y-82816701D02*
X93345000Y-83121500D01*
X93980000Y-78439396D02*
X92720399Y-79698997D01*
X92720399Y-82496899D02*
X93040201Y-82816701D01*
X92720399Y-79698997D02*
X92720399Y-82496899D01*
X93980000Y-76962000D02*
X93980000Y-78439396D01*
X84734400Y-81457800D02*
X84734400Y-83337400D01*
G04 #@! TO.N,/Throttle2_Left_Sense*
X92190596Y-82127691D02*
X92190596Y-82558743D01*
X93281500Y-76200000D02*
X93281500Y-77216000D01*
X92265500Y-79722830D02*
X92265500Y-82052787D01*
X93599000Y-77533500D02*
X93599000Y-78389330D01*
X93281500Y-77216000D02*
X93599000Y-77533500D01*
X93599000Y-78389330D02*
X92265500Y-79722830D01*
X92265500Y-82052787D02*
X92190596Y-82127691D01*
G04 #@! TO.N,/LED1*
X75819000Y-80899000D02*
X75819000Y-77459400D01*
G04 #@! TD*
D17*
G04 #@! TO.N,GND*
G36*
X109544631Y-31615381D02*
X110063672Y-31767368D01*
X110528605Y-32043660D01*
X110917123Y-32433826D01*
X111099258Y-32710108D01*
X111293225Y-33042849D01*
X111301937Y-33055843D01*
X111310095Y-33069225D01*
X112032216Y-34101710D01*
X112048743Y-34122435D01*
X112061921Y-34138962D01*
X112907754Y-35072800D01*
X112941893Y-35106035D01*
X113898097Y-35926498D01*
X113936132Y-35955192D01*
X114977678Y-36642774D01*
X115438174Y-36990174D01*
X115775361Y-37413030D01*
X115996793Y-37906454D01*
X116090220Y-38449085D01*
X116080427Y-38776077D01*
X112252840Y-75193147D01*
X112123846Y-75743117D01*
X111873278Y-76222408D01*
X111511391Y-76624323D01*
X111052776Y-76929027D01*
X110745639Y-77053839D01*
X110325049Y-77199733D01*
X110310100Y-77205996D01*
X110294888Y-77211662D01*
X109144133Y-77724738D01*
X109131533Y-77731334D01*
X109101921Y-77746834D01*
X108024545Y-78400094D01*
X107985436Y-78427306D01*
X106998431Y-79210444D01*
X106987476Y-79220319D01*
X106963040Y-79242344D01*
X106081970Y-80143012D01*
X106050857Y-80179095D01*
X105289619Y-81183087D01*
X105281302Y-81195620D01*
X105263273Y-81222786D01*
X104639826Y-82303945D01*
X104320862Y-82784574D01*
X103919135Y-83146674D01*
X103439977Y-83397494D01*
X102903356Y-83523655D01*
X102578545Y-83534647D01*
X102575720Y-83535101D01*
X93763734Y-83528950D01*
X93840261Y-83452423D01*
X93929200Y-83237705D01*
X93929200Y-83005295D01*
X93840261Y-82790577D01*
X93675923Y-82626239D01*
X93461205Y-82537300D01*
X93263694Y-82537300D01*
X93075999Y-82349605D01*
X93075999Y-81688341D01*
X93414131Y-81828400D01*
X93783869Y-81828400D01*
X94125463Y-81686907D01*
X94386907Y-81425463D01*
X94528400Y-81083869D01*
X94528400Y-80714131D01*
X95209600Y-80714131D01*
X95209600Y-81083869D01*
X95351093Y-81425463D01*
X95612537Y-81686907D01*
X95954131Y-81828400D01*
X96323869Y-81828400D01*
X96397222Y-81798016D01*
X97959590Y-81798016D01*
X98015271Y-82028611D01*
X98498078Y-82196622D01*
X99008428Y-82167083D01*
X99342729Y-82028611D01*
X99398410Y-81798016D01*
X98679000Y-81078605D01*
X97959590Y-81798016D01*
X96397222Y-81798016D01*
X96665463Y-81686907D01*
X96926907Y-81425463D01*
X97068400Y-81083869D01*
X97068400Y-80718078D01*
X97381378Y-80718078D01*
X97410917Y-81228428D01*
X97549389Y-81562729D01*
X97779984Y-81618410D01*
X98499395Y-80899000D01*
X97779984Y-80179590D01*
X97549389Y-80235271D01*
X97381378Y-80718078D01*
X97068400Y-80718078D01*
X97068400Y-80714131D01*
X96926907Y-80372537D01*
X96665463Y-80111093D01*
X96397223Y-79999984D01*
X97959590Y-79999984D01*
X98679000Y-80719395D01*
X98693143Y-80705253D01*
X98872748Y-80884858D01*
X98858605Y-80899000D01*
X99578016Y-81618410D01*
X99808611Y-81562729D01*
X99976622Y-81079922D01*
X99947083Y-80569572D01*
X99867897Y-80378400D01*
X100333488Y-80378400D01*
X100803722Y-80183623D01*
X101163623Y-79823722D01*
X101358400Y-79353488D01*
X101358400Y-78844512D01*
X101163623Y-78374278D01*
X100803722Y-78014377D01*
X100333488Y-77819600D01*
X99824512Y-77819600D01*
X99354278Y-78014377D01*
X98994377Y-78374278D01*
X98799600Y-78844512D01*
X98799600Y-79353488D01*
X98909413Y-79618600D01*
X98859922Y-79601378D01*
X98349572Y-79630917D01*
X98015271Y-79769389D01*
X97959590Y-79999984D01*
X96397223Y-79999984D01*
X96323869Y-79969600D01*
X95954131Y-79969600D01*
X95612537Y-80111093D01*
X95351093Y-80372537D01*
X95209600Y-80714131D01*
X94528400Y-80714131D01*
X94386907Y-80372537D01*
X94125463Y-80111093D01*
X93783869Y-79969600D01*
X93414131Y-79969600D01*
X93075999Y-80109659D01*
X93075999Y-79846291D01*
X94068128Y-78854163D01*
X94081093Y-78885463D01*
X94342537Y-79146907D01*
X94684131Y-79288400D01*
X95053869Y-79288400D01*
X95395463Y-79146907D01*
X95656907Y-78885463D01*
X95798400Y-78543869D01*
X95798400Y-78174131D01*
X96479600Y-78174131D01*
X96479600Y-78543869D01*
X96621093Y-78885463D01*
X96882537Y-79146907D01*
X97224131Y-79288400D01*
X97593869Y-79288400D01*
X97935463Y-79146907D01*
X98196907Y-78885463D01*
X98338400Y-78543869D01*
X98338400Y-78174131D01*
X98196907Y-77832537D01*
X97935463Y-77571093D01*
X97593869Y-77429600D01*
X97224131Y-77429600D01*
X96882537Y-77571093D01*
X96621093Y-77832537D01*
X96479600Y-78174131D01*
X95798400Y-78174131D01*
X95656907Y-77832537D01*
X95395463Y-77571093D01*
X95053869Y-77429600D01*
X94684131Y-77429600D01*
X94342537Y-77571093D01*
X94335600Y-77578030D01*
X94335600Y-77432584D01*
X94475261Y-77292923D01*
X94564200Y-77078205D01*
X94564200Y-76845795D01*
X94475261Y-76631077D01*
X94310923Y-76466739D01*
X94096205Y-76377800D01*
X93863795Y-76377800D01*
X93835297Y-76389604D01*
X93865700Y-76316205D01*
X93865700Y-76083795D01*
X93776761Y-75869077D01*
X93612423Y-75704739D01*
X93397705Y-75615800D01*
X93165295Y-75615800D01*
X92950577Y-75704739D01*
X92786239Y-75869077D01*
X92697300Y-76083795D01*
X92697300Y-76316205D01*
X92786239Y-76530923D01*
X92925900Y-76670584D01*
X92925901Y-77180975D01*
X92918934Y-77216000D01*
X92946533Y-77354747D01*
X93005290Y-77442684D01*
X93005292Y-77442686D01*
X93025128Y-77472373D01*
X93054815Y-77492209D01*
X93243400Y-77680795D01*
X93243401Y-78137919D01*
X93116907Y-77832537D01*
X92855463Y-77571093D01*
X92513869Y-77429600D01*
X92144131Y-77429600D01*
X91802537Y-77571093D01*
X91541093Y-77832537D01*
X91399600Y-78174131D01*
X91399600Y-78543869D01*
X91541093Y-78885463D01*
X91802537Y-79146907D01*
X92144131Y-79288400D01*
X92197036Y-79288400D01*
X92038815Y-79446621D01*
X92009127Y-79466458D01*
X91989291Y-79496145D01*
X91989290Y-79496146D01*
X91930533Y-79584083D01*
X91902934Y-79722830D01*
X91909900Y-79757850D01*
X91909900Y-80524616D01*
X91846907Y-80372537D01*
X91585463Y-80111093D01*
X91243869Y-79969600D01*
X90874131Y-79969600D01*
X90532537Y-80111093D01*
X90271093Y-80372537D01*
X90129600Y-80714131D01*
X90129600Y-81083869D01*
X90271093Y-81425463D01*
X90532537Y-81686907D01*
X90874131Y-81828400D01*
X91243869Y-81828400D01*
X91585463Y-81686907D01*
X91846907Y-81425463D01*
X91909901Y-81273383D01*
X91909901Y-81907719D01*
X91855629Y-81988944D01*
X91836116Y-82087039D01*
X91695335Y-82227820D01*
X91606396Y-82442538D01*
X91606396Y-82674948D01*
X91695335Y-82889666D01*
X91859673Y-83054004D01*
X92074391Y-83142943D01*
X92306801Y-83142943D01*
X92521519Y-83054004D01*
X92648065Y-82927459D01*
X92760800Y-83040194D01*
X92760800Y-83237705D01*
X92849739Y-83452423D01*
X92925681Y-83528365D01*
X85289841Y-83523035D01*
X85318600Y-83453605D01*
X85318600Y-83221195D01*
X85229661Y-83006477D01*
X85090000Y-82866816D01*
X85090000Y-81928384D01*
X85229661Y-81788723D01*
X85318600Y-81574005D01*
X85318600Y-81552970D01*
X85452537Y-81686907D01*
X85794131Y-81828400D01*
X86163869Y-81828400D01*
X86505463Y-81686907D01*
X86766907Y-81425463D01*
X86908400Y-81083869D01*
X86908400Y-80714131D01*
X87589600Y-80714131D01*
X87589600Y-81083869D01*
X87731093Y-81425463D01*
X87992537Y-81686907D01*
X88334131Y-81828400D01*
X88703869Y-81828400D01*
X89045463Y-81686907D01*
X89306907Y-81425463D01*
X89448400Y-81083869D01*
X89448400Y-80714131D01*
X89306907Y-80372537D01*
X89045463Y-80111093D01*
X88703869Y-79969600D01*
X88334131Y-79969600D01*
X87992537Y-80111093D01*
X87731093Y-80372537D01*
X87589600Y-80714131D01*
X86908400Y-80714131D01*
X86766907Y-80372537D01*
X86505463Y-80111093D01*
X86163869Y-79969600D01*
X85794131Y-79969600D01*
X85452537Y-80111093D01*
X85191093Y-80372537D01*
X85049600Y-80714131D01*
X85049600Y-80956026D01*
X84850605Y-80873600D01*
X84618195Y-80873600D01*
X84403477Y-80962539D01*
X84368400Y-80997616D01*
X84368400Y-80714131D01*
X84226907Y-80372537D01*
X83965463Y-80111093D01*
X83623869Y-79969600D01*
X83254131Y-79969600D01*
X82912537Y-80111093D01*
X82651093Y-80372537D01*
X82509600Y-80714131D01*
X82509600Y-81083869D01*
X82651093Y-81425463D01*
X82912537Y-81686907D01*
X83254131Y-81828400D01*
X83623869Y-81828400D01*
X83965463Y-81686907D01*
X84150200Y-81502170D01*
X84150200Y-81574005D01*
X84239139Y-81788723D01*
X84378800Y-81928384D01*
X84378801Y-82866815D01*
X84239139Y-83006477D01*
X84150200Y-83221195D01*
X84150200Y-83453605D01*
X84178637Y-83522259D01*
X58300634Y-83504195D01*
X57239324Y-82332195D01*
X76479400Y-82332195D01*
X76479400Y-82564605D01*
X76568339Y-82779323D01*
X76732677Y-82943661D01*
X76947395Y-83032600D01*
X77179805Y-83032600D01*
X77394523Y-82943661D01*
X77534184Y-82804000D01*
X79568580Y-82804000D01*
X79603600Y-82810966D01*
X79638620Y-82804000D01*
X79742348Y-82783367D01*
X79859973Y-82704773D01*
X79879811Y-82675083D01*
X79903294Y-82651600D01*
X80100805Y-82651600D01*
X80315523Y-82562661D01*
X80479861Y-82398323D01*
X80568800Y-82183605D01*
X80568800Y-82144675D01*
X80718078Y-82196622D01*
X81228428Y-82167083D01*
X81562729Y-82028611D01*
X81618410Y-81798016D01*
X80899000Y-81078605D01*
X80884858Y-81092748D01*
X80705252Y-80913142D01*
X80719395Y-80899000D01*
X81078605Y-80899000D01*
X81798016Y-81618410D01*
X82028611Y-81562729D01*
X82196622Y-81079922D01*
X82167083Y-80569572D01*
X82028611Y-80235271D01*
X81798016Y-80179590D01*
X81078605Y-80899000D01*
X80719395Y-80899000D01*
X79999984Y-80179590D01*
X79769389Y-80235271D01*
X79601378Y-80718078D01*
X79630917Y-81228428D01*
X79755770Y-81529851D01*
X79653677Y-81572139D01*
X79489339Y-81736477D01*
X79400400Y-81951195D01*
X79400400Y-82092800D01*
X77534184Y-82092800D01*
X77394523Y-81953139D01*
X77179805Y-81864200D01*
X76947395Y-81864200D01*
X76732677Y-81953139D01*
X76568339Y-82117477D01*
X76479400Y-82332195D01*
X57239324Y-82332195D01*
X53473966Y-78174131D01*
X73619600Y-78174131D01*
X73619600Y-78543869D01*
X73761093Y-78885463D01*
X74022537Y-79146907D01*
X74364131Y-79288400D01*
X74733869Y-79288400D01*
X75075463Y-79146907D01*
X75336907Y-78885463D01*
X75463401Y-78580081D01*
X75463400Y-80040319D01*
X75292537Y-80111093D01*
X75031093Y-80372537D01*
X74889600Y-80714131D01*
X74889600Y-81083869D01*
X75031093Y-81425463D01*
X75292537Y-81686907D01*
X75634131Y-81828400D01*
X76003869Y-81828400D01*
X76345463Y-81686907D01*
X76606907Y-81425463D01*
X76748400Y-81083869D01*
X76748400Y-80714131D01*
X77429600Y-80714131D01*
X77429600Y-81083869D01*
X77571093Y-81425463D01*
X77832537Y-81686907D01*
X78174131Y-81828400D01*
X78543869Y-81828400D01*
X78885463Y-81686907D01*
X79146907Y-81425463D01*
X79288400Y-81083869D01*
X79288400Y-80714131D01*
X79146907Y-80372537D01*
X78885463Y-80111093D01*
X78617223Y-79999984D01*
X80179590Y-79999984D01*
X80899000Y-80719395D01*
X81618410Y-79999984D01*
X81562729Y-79769389D01*
X81079922Y-79601378D01*
X80569572Y-79630917D01*
X80235271Y-79769389D01*
X80179590Y-79999984D01*
X78617223Y-79999984D01*
X78543869Y-79969600D01*
X78174131Y-79969600D01*
X77832537Y-80111093D01*
X77571093Y-80372537D01*
X77429600Y-80714131D01*
X76748400Y-80714131D01*
X76606907Y-80372537D01*
X76345463Y-80111093D01*
X76174600Y-80040319D01*
X76174600Y-79293948D01*
X76254130Y-79373478D01*
X76369590Y-79258018D01*
X76425271Y-79488611D01*
X76908078Y-79656622D01*
X77418428Y-79627083D01*
X77752729Y-79488611D01*
X77808410Y-79258016D01*
X77089000Y-78538605D01*
X77074858Y-78552748D01*
X76895252Y-78373142D01*
X76909395Y-78359000D01*
X77268605Y-78359000D01*
X77988016Y-79078410D01*
X78218611Y-79022729D01*
X78386622Y-78539922D01*
X78365451Y-78174131D01*
X78699600Y-78174131D01*
X78699600Y-78543869D01*
X78841093Y-78885463D01*
X79102537Y-79146907D01*
X79444131Y-79288400D01*
X79813869Y-79288400D01*
X80155463Y-79146907D01*
X80416907Y-78885463D01*
X80558400Y-78543869D01*
X80558400Y-78174131D01*
X81239600Y-78174131D01*
X81239600Y-78543869D01*
X81381093Y-78885463D01*
X81642537Y-79146907D01*
X81984131Y-79288400D01*
X82353869Y-79288400D01*
X82695463Y-79146907D01*
X82956907Y-78885463D01*
X83098400Y-78543869D01*
X83098400Y-78174131D01*
X83779600Y-78174131D01*
X83779600Y-78543869D01*
X83921093Y-78885463D01*
X84182537Y-79146907D01*
X84524131Y-79288400D01*
X84893869Y-79288400D01*
X85235463Y-79146907D01*
X85496907Y-78885463D01*
X85638400Y-78543869D01*
X85638400Y-78174131D01*
X86319600Y-78174131D01*
X86319600Y-78543869D01*
X86461093Y-78885463D01*
X86722537Y-79146907D01*
X87064131Y-79288400D01*
X87433869Y-79288400D01*
X87775463Y-79146907D01*
X88036907Y-78885463D01*
X88178400Y-78543869D01*
X88178400Y-78174131D01*
X88859600Y-78174131D01*
X88859600Y-78543869D01*
X89001093Y-78885463D01*
X89262537Y-79146907D01*
X89604131Y-79288400D01*
X89973869Y-79288400D01*
X90315463Y-79146907D01*
X90576907Y-78885463D01*
X90718400Y-78543869D01*
X90718400Y-78174131D01*
X90576907Y-77832537D01*
X90315463Y-77571093D01*
X89973869Y-77429600D01*
X89604131Y-77429600D01*
X89262537Y-77571093D01*
X89001093Y-77832537D01*
X88859600Y-78174131D01*
X88178400Y-78174131D01*
X88036907Y-77832537D01*
X87775463Y-77571093D01*
X87433869Y-77429600D01*
X87064131Y-77429600D01*
X86722537Y-77571093D01*
X86461093Y-77832537D01*
X86319600Y-78174131D01*
X85638400Y-78174131D01*
X85496907Y-77832537D01*
X85235463Y-77571093D01*
X84893869Y-77429600D01*
X84524131Y-77429600D01*
X84182537Y-77571093D01*
X83921093Y-77832537D01*
X83779600Y-78174131D01*
X83098400Y-78174131D01*
X82956907Y-77832537D01*
X82695463Y-77571093D01*
X82353869Y-77429600D01*
X81984131Y-77429600D01*
X81642537Y-77571093D01*
X81381093Y-77832537D01*
X81239600Y-78174131D01*
X80558400Y-78174131D01*
X80416907Y-77832537D01*
X80155463Y-77571093D01*
X79813869Y-77429600D01*
X79444131Y-77429600D01*
X79102537Y-77571093D01*
X78841093Y-77832537D01*
X78699600Y-78174131D01*
X78365451Y-78174131D01*
X78357083Y-78029572D01*
X78218611Y-77695271D01*
X77988016Y-77639590D01*
X77268605Y-78359000D01*
X76909395Y-78359000D01*
X76895252Y-78344858D01*
X77074858Y-78165252D01*
X77089000Y-78179395D01*
X77808410Y-77459984D01*
X77752729Y-77229389D01*
X77269922Y-77061378D01*
X76759572Y-77090917D01*
X76425271Y-77229389D01*
X76399783Y-77334945D01*
X76314261Y-77128477D01*
X76149923Y-76964139D01*
X76125076Y-76953847D01*
X77920748Y-76953847D01*
X77920748Y-77186257D01*
X78009687Y-77400975D01*
X78174025Y-77565313D01*
X78388743Y-77654252D01*
X78621153Y-77654252D01*
X78835871Y-77565313D01*
X79000209Y-77400975D01*
X79061047Y-77254100D01*
X79983916Y-77254100D01*
X80123577Y-77393761D01*
X80338295Y-77482700D01*
X80570705Y-77482700D01*
X80785423Y-77393761D01*
X80949761Y-77229423D01*
X81038700Y-77014705D01*
X81038700Y-76782295D01*
X80949761Y-76567577D01*
X80785423Y-76403239D01*
X80570705Y-76314300D01*
X80338295Y-76314300D01*
X80123577Y-76403239D01*
X79983916Y-76542900D01*
X78758879Y-76542900D01*
X78621153Y-76485852D01*
X78388743Y-76485852D01*
X78174025Y-76574791D01*
X78009687Y-76739129D01*
X77920748Y-76953847D01*
X76125076Y-76953847D01*
X75935205Y-76875200D01*
X75702795Y-76875200D01*
X75488077Y-76964139D01*
X75323739Y-77128477D01*
X75234800Y-77343195D01*
X75234800Y-77575605D01*
X75323739Y-77790323D01*
X75463401Y-77929985D01*
X75463401Y-78137919D01*
X75336907Y-77832537D01*
X75075463Y-77571093D01*
X74733869Y-77429600D01*
X74364131Y-77429600D01*
X74022537Y-77571093D01*
X73761093Y-77832537D01*
X73619600Y-78174131D01*
X53473966Y-78174131D01*
X50143481Y-74496295D01*
X72250300Y-74496295D01*
X72250300Y-74728705D01*
X72339239Y-74943423D01*
X72503577Y-75107761D01*
X72718295Y-75196700D01*
X72950705Y-75196700D01*
X73165423Y-75107761D01*
X73329761Y-74943423D01*
X73418700Y-74728705D01*
X73418700Y-74663301D01*
X78946279Y-74663301D01*
X78981299Y-74670267D01*
X79016319Y-74663301D01*
X79039072Y-74658775D01*
X83191331Y-74658775D01*
X83253169Y-74894542D01*
X83754122Y-75070919D01*
X84284440Y-75042164D01*
X84640831Y-74894542D01*
X84702669Y-74658775D01*
X83947000Y-73903105D01*
X83191331Y-74658775D01*
X79039072Y-74658775D01*
X79120047Y-74642668D01*
X79203211Y-74587100D01*
X80319914Y-74587100D01*
X80354934Y-74594066D01*
X80389954Y-74587100D01*
X80493682Y-74566467D01*
X80611307Y-74487873D01*
X80631145Y-74458183D01*
X81518229Y-73571100D01*
X81838800Y-73571100D01*
X81838800Y-73585705D01*
X81927739Y-73800423D01*
X82092077Y-73964761D01*
X82306795Y-74053700D01*
X82539205Y-74053700D01*
X82625994Y-74017751D01*
X82628336Y-74060940D01*
X82775958Y-74417331D01*
X83011725Y-74479169D01*
X83767395Y-73723500D01*
X83753252Y-73709358D01*
X83932858Y-73529752D01*
X83947000Y-73543895D01*
X83961142Y-73529752D01*
X84140748Y-73709358D01*
X84126605Y-73723500D01*
X84882275Y-74479169D01*
X85118042Y-74417331D01*
X85294419Y-73916378D01*
X85265664Y-73386060D01*
X85142411Y-73088500D01*
X85350054Y-73088500D01*
X85489715Y-73228161D01*
X85611232Y-73278495D01*
X85507600Y-73528685D01*
X85507600Y-73918315D01*
X85656704Y-74278286D01*
X85932214Y-74553796D01*
X86292185Y-74702900D01*
X86681815Y-74702900D01*
X87041786Y-74553796D01*
X87317296Y-74278286D01*
X87466400Y-73918315D01*
X87466400Y-73528685D01*
X88047600Y-73528685D01*
X88047600Y-73918315D01*
X88196704Y-74278286D01*
X88472214Y-74553796D01*
X88832185Y-74702900D01*
X89221815Y-74702900D01*
X89581786Y-74553796D01*
X89857296Y-74278286D01*
X90006400Y-73918315D01*
X90006400Y-73528685D01*
X89857296Y-73168714D01*
X89581786Y-72893204D01*
X89312820Y-72781795D01*
X92506800Y-72781795D01*
X92506800Y-73014205D01*
X92595739Y-73228923D01*
X92760077Y-73393261D01*
X92974795Y-73482200D01*
X93172306Y-73482200D01*
X94166177Y-74476072D01*
X94157800Y-74496295D01*
X94157800Y-74728705D01*
X94246739Y-74943423D01*
X94411077Y-75107761D01*
X94625795Y-75196700D01*
X94858205Y-75196700D01*
X95072923Y-75107761D01*
X95237261Y-74943423D01*
X95326200Y-74728705D01*
X95326200Y-74496295D01*
X95237261Y-74281577D01*
X95072923Y-74117239D01*
X94858205Y-74028300D01*
X94724195Y-74028300D01*
X93675200Y-72979306D01*
X93675200Y-72781795D01*
X93586261Y-72567077D01*
X93421923Y-72402739D01*
X93207205Y-72313800D01*
X92974795Y-72313800D01*
X92760077Y-72402739D01*
X92595739Y-72567077D01*
X92506800Y-72781795D01*
X89312820Y-72781795D01*
X89221815Y-72744100D01*
X88832185Y-72744100D01*
X88472214Y-72893204D01*
X88196704Y-73168714D01*
X88047600Y-73528685D01*
X87466400Y-73528685D01*
X87332645Y-73205770D01*
X87386795Y-73228200D01*
X87619205Y-73228200D01*
X87833923Y-73139261D01*
X87998261Y-72974923D01*
X88087200Y-72760205D01*
X88087200Y-72527795D01*
X87998261Y-72313077D01*
X87833923Y-72148739D01*
X87619205Y-72059800D01*
X87421694Y-72059800D01*
X87334711Y-71972817D01*
X87314873Y-71943127D01*
X87197248Y-71864533D01*
X87192077Y-71863505D01*
X87317296Y-71738286D01*
X87466400Y-71378315D01*
X87466400Y-70988685D01*
X87317296Y-70628714D01*
X87172082Y-70483500D01*
X88042127Y-70483500D01*
X88042127Y-71883500D01*
X88063812Y-71992516D01*
X88125564Y-72084936D01*
X88217984Y-72146688D01*
X88327000Y-72168373D01*
X89727000Y-72168373D01*
X89836016Y-72146688D01*
X89928436Y-72084936D01*
X89990188Y-71992516D01*
X90011873Y-71883500D01*
X90011873Y-70483500D01*
X89990188Y-70374484D01*
X89928436Y-70282064D01*
X89836016Y-70220312D01*
X89727000Y-70198627D01*
X88327000Y-70198627D01*
X88217984Y-70220312D01*
X88125564Y-70282064D01*
X88063812Y-70374484D01*
X88042127Y-70483500D01*
X87172082Y-70483500D01*
X87041786Y-70353204D01*
X86681815Y-70204100D01*
X86292185Y-70204100D01*
X85932214Y-70353204D01*
X85656704Y-70628714D01*
X85507600Y-70988685D01*
X85507600Y-71378315D01*
X85656704Y-71738286D01*
X85762318Y-71843900D01*
X84671682Y-71843900D01*
X84777296Y-71738286D01*
X84926400Y-71378315D01*
X84926400Y-70988685D01*
X84777296Y-70628714D01*
X84501786Y-70353204D01*
X84141815Y-70204100D01*
X83752185Y-70204100D01*
X83392214Y-70353204D01*
X83116704Y-70628714D01*
X82967600Y-70988685D01*
X82967600Y-71378315D01*
X83116704Y-71738286D01*
X83235019Y-71856601D01*
X80603819Y-71856601D01*
X80568799Y-71849635D01*
X80430051Y-71877234D01*
X80355472Y-71927066D01*
X80346890Y-71932800D01*
X80147795Y-71932800D01*
X79933077Y-72021739D01*
X79768739Y-72186077D01*
X79679800Y-72400795D01*
X79679800Y-72633205D01*
X79768739Y-72847923D01*
X79933077Y-73012261D01*
X79955166Y-73021410D01*
X79870300Y-73226295D01*
X79870300Y-73458705D01*
X79959239Y-73673423D01*
X80123577Y-73837761D01*
X80209987Y-73873553D01*
X80207640Y-73875900D01*
X79092514Y-73875900D01*
X79057499Y-73868935D01*
X79022484Y-73875900D01*
X79022480Y-73875900D01*
X78918752Y-73896533D01*
X78835588Y-73952101D01*
X73174319Y-73952101D01*
X73139299Y-73945135D01*
X73000551Y-73972734D01*
X72952537Y-74004816D01*
X72917390Y-74028300D01*
X72718295Y-74028300D01*
X72503577Y-74117239D01*
X72339239Y-74281577D01*
X72250300Y-74496295D01*
X50143481Y-74496295D01*
X48993425Y-73226295D01*
X69456300Y-73226295D01*
X69456300Y-73458705D01*
X69545239Y-73673423D01*
X69709577Y-73837761D01*
X69924295Y-73926700D01*
X70156705Y-73926700D01*
X70371423Y-73837761D01*
X70535761Y-73673423D01*
X70624700Y-73458705D01*
X70624700Y-73226295D01*
X70535761Y-73011577D01*
X70458379Y-72934195D01*
X74155300Y-72934195D01*
X74155300Y-73166605D01*
X74244239Y-73381323D01*
X74408577Y-73545661D01*
X74623295Y-73634600D01*
X74855705Y-73634600D01*
X75070423Y-73545661D01*
X75234761Y-73381323D01*
X75323700Y-73166605D01*
X75323700Y-72934195D01*
X75234761Y-72719477D01*
X75095100Y-72579816D01*
X75095100Y-71321295D01*
X75933300Y-71321295D01*
X75933300Y-71553705D01*
X76022239Y-71768423D01*
X76186577Y-71932761D01*
X76288901Y-71975145D01*
X76288900Y-72681416D01*
X76149239Y-72821077D01*
X76060300Y-73035795D01*
X76060300Y-73268205D01*
X76149239Y-73482923D01*
X76313577Y-73647261D01*
X76528295Y-73736200D01*
X76760705Y-73736200D01*
X76975423Y-73647261D01*
X77139761Y-73482923D01*
X77228700Y-73268205D01*
X77228700Y-73035795D01*
X77139761Y-72821077D01*
X77000100Y-72681416D01*
X77000100Y-71781084D01*
X77012761Y-71768423D01*
X77101700Y-71553705D01*
X77101700Y-71321295D01*
X77012761Y-71106577D01*
X76848423Y-70942239D01*
X76633705Y-70853300D01*
X76401295Y-70853300D01*
X76186577Y-70942239D01*
X76022239Y-71106577D01*
X75933300Y-71321295D01*
X75095100Y-71321295D01*
X75095100Y-71112447D01*
X75260923Y-71043761D01*
X75425261Y-70879423D01*
X75514200Y-70664705D01*
X75514200Y-70432295D01*
X75425261Y-70217577D01*
X75260923Y-70053239D01*
X75256230Y-70051295D01*
X98856800Y-70051295D01*
X98856800Y-70283705D01*
X98945739Y-70498423D01*
X99110077Y-70662761D01*
X99324795Y-70751700D01*
X99557205Y-70751700D01*
X99771923Y-70662761D01*
X99911584Y-70523100D01*
X100684916Y-70523100D01*
X100824577Y-70662761D01*
X101039295Y-70751700D01*
X101271705Y-70751700D01*
X101486423Y-70662761D01*
X101650761Y-70498423D01*
X101739700Y-70283705D01*
X101739700Y-70051295D01*
X101650761Y-69836577D01*
X101486423Y-69672239D01*
X101271705Y-69583300D01*
X101039295Y-69583300D01*
X100824577Y-69672239D01*
X100684916Y-69811900D01*
X99911584Y-69811900D01*
X99771923Y-69672239D01*
X99557205Y-69583300D01*
X99324795Y-69583300D01*
X99110077Y-69672239D01*
X98945739Y-69836577D01*
X98856800Y-70051295D01*
X75256230Y-70051295D01*
X75046205Y-69964300D01*
X74813795Y-69964300D01*
X74599077Y-70053239D01*
X74434739Y-70217577D01*
X74345800Y-70432295D01*
X74345800Y-70664705D01*
X74377267Y-70740672D01*
X74383901Y-70774025D01*
X74383900Y-72579816D01*
X74244239Y-72719477D01*
X74155300Y-72934195D01*
X70458379Y-72934195D01*
X70396100Y-72871916D01*
X70396100Y-71948842D01*
X70434923Y-71932761D01*
X70599261Y-71768423D01*
X70688200Y-71553705D01*
X70688200Y-71321295D01*
X70599261Y-71106577D01*
X70434923Y-70942239D01*
X70220205Y-70853300D01*
X69987795Y-70853300D01*
X69773077Y-70942239D01*
X69608739Y-71106577D01*
X69519800Y-71321295D01*
X69519800Y-71553705D01*
X69608739Y-71768423D01*
X69684901Y-71844585D01*
X69684900Y-72871916D01*
X69545239Y-73011577D01*
X69456300Y-73226295D01*
X48993425Y-73226295D01*
X44393202Y-68146295D01*
X65836800Y-68146295D01*
X65836800Y-68378705D01*
X65925739Y-68593423D01*
X66090077Y-68757761D01*
X66304795Y-68846700D01*
X66537205Y-68846700D01*
X66751923Y-68757761D01*
X66891584Y-68618100D01*
X67528980Y-68618100D01*
X67564000Y-68625066D01*
X67599020Y-68618100D01*
X67702748Y-68597467D01*
X67820373Y-68518873D01*
X67840211Y-68489183D01*
X68943195Y-67386200D01*
X69140705Y-67386200D01*
X69355423Y-67297261D01*
X69519761Y-67132923D01*
X69608700Y-66918205D01*
X69608700Y-66685795D01*
X69519761Y-66471077D01*
X69355423Y-66306739D01*
X69140705Y-66217800D01*
X68908295Y-66217800D01*
X68693577Y-66306739D01*
X68529239Y-66471077D01*
X68440300Y-66685795D01*
X68440300Y-66883305D01*
X67416706Y-67906900D01*
X66891584Y-67906900D01*
X66751923Y-67767239D01*
X66537205Y-67678300D01*
X66304795Y-67678300D01*
X66090077Y-67767239D01*
X65925739Y-67931577D01*
X65836800Y-68146295D01*
X44393202Y-68146295D01*
X41575565Y-65034795D01*
X57200800Y-65034795D01*
X57200800Y-65267205D01*
X57289739Y-65481923D01*
X57454077Y-65646261D01*
X57668795Y-65735200D01*
X57866306Y-65735200D01*
X58470800Y-66339694D01*
X58470800Y-66537205D01*
X58559739Y-66751923D01*
X58724077Y-66916261D01*
X58938795Y-67005200D01*
X59171205Y-67005200D01*
X59385923Y-66916261D01*
X59550261Y-66751923D01*
X59639200Y-66537205D01*
X59639200Y-66304795D01*
X59550261Y-66090077D01*
X59385923Y-65925739D01*
X59171205Y-65836800D01*
X58973694Y-65836800D01*
X58369200Y-65232306D01*
X58369200Y-65034795D01*
X58280261Y-64820077D01*
X58115923Y-64655739D01*
X57901205Y-64566800D01*
X57668795Y-64566800D01*
X57454077Y-64655739D01*
X57289739Y-64820077D01*
X57200800Y-65034795D01*
X41575565Y-65034795D01*
X37899326Y-60975145D01*
X38285918Y-60081795D01*
X76949300Y-60081795D01*
X76949300Y-60314205D01*
X77038239Y-60528923D01*
X77177900Y-60668584D01*
X77177901Y-62258475D01*
X77171267Y-62291828D01*
X77139800Y-62367795D01*
X77139800Y-62600205D01*
X77228739Y-62814923D01*
X77393077Y-62979261D01*
X77607795Y-63068200D01*
X77840205Y-63068200D01*
X78054923Y-62979261D01*
X78219261Y-62814923D01*
X78308200Y-62600205D01*
X78308200Y-62367795D01*
X78219261Y-62153077D01*
X78054923Y-61988739D01*
X77889100Y-61920053D01*
X77889100Y-60668584D01*
X78028761Y-60528923D01*
X78117700Y-60314205D01*
X78117700Y-60081795D01*
X78028761Y-59867077D01*
X77864423Y-59702739D01*
X77649705Y-59613800D01*
X77417295Y-59613800D01*
X77202577Y-59702739D01*
X77038239Y-59867077D01*
X76949300Y-60081795D01*
X38285918Y-60081795D01*
X40841494Y-54176295D01*
X58470800Y-54176295D01*
X58470800Y-54408705D01*
X58559739Y-54623423D01*
X58724077Y-54787761D01*
X58938795Y-54876700D01*
X59171205Y-54876700D01*
X59385923Y-54787761D01*
X59550261Y-54623423D01*
X59639200Y-54408705D01*
X59639200Y-54176295D01*
X59550261Y-53961577D01*
X59474100Y-53885416D01*
X59474100Y-53858795D01*
X86601300Y-53858795D01*
X86601300Y-54091205D01*
X86690239Y-54305923D01*
X86854577Y-54470261D01*
X87069295Y-54559200D01*
X87266806Y-54559200D01*
X88252300Y-55544695D01*
X88252300Y-55742205D01*
X88341239Y-55956923D01*
X88505577Y-56121261D01*
X88720295Y-56210200D01*
X88952705Y-56210200D01*
X89167423Y-56121261D01*
X89331761Y-55956923D01*
X89420700Y-55742205D01*
X89420700Y-55509795D01*
X89331761Y-55295077D01*
X89167423Y-55130739D01*
X88952705Y-55041800D01*
X88755195Y-55041800D01*
X87769700Y-54056306D01*
X87769700Y-53858795D01*
X87680761Y-53644077D01*
X87516423Y-53479739D01*
X87301705Y-53390800D01*
X87069295Y-53390800D01*
X86854577Y-53479739D01*
X86690239Y-53644077D01*
X86601300Y-53858795D01*
X59474100Y-53858795D01*
X59474100Y-52794584D01*
X59613761Y-52654923D01*
X59702700Y-52440205D01*
X59702700Y-52207795D01*
X59613761Y-51993077D01*
X59449423Y-51828739D01*
X59234705Y-51739800D01*
X59002295Y-51739800D01*
X58787577Y-51828739D01*
X58623239Y-51993077D01*
X58534300Y-52207795D01*
X58534300Y-52440205D01*
X58623239Y-52654923D01*
X58762900Y-52794584D01*
X58762901Y-53781158D01*
X58724077Y-53797239D01*
X58559739Y-53961577D01*
X58470800Y-54176295D01*
X40841494Y-54176295D01*
X43232194Y-48651795D01*
X77012800Y-48651795D01*
X77012800Y-48884205D01*
X77101739Y-49098923D01*
X77266077Y-49263261D01*
X77480795Y-49352200D01*
X77713205Y-49352200D01*
X77927923Y-49263261D01*
X78092261Y-49098923D01*
X78160947Y-48933100D01*
X78967916Y-48933100D01*
X79107577Y-49072761D01*
X79322295Y-49161700D01*
X79554705Y-49161700D01*
X79574929Y-49153323D01*
X79997300Y-49575694D01*
X79997300Y-49773205D01*
X80086239Y-49987923D01*
X80250577Y-50152261D01*
X80465295Y-50241200D01*
X80697705Y-50241200D01*
X80912423Y-50152261D01*
X81076761Y-49987923D01*
X81165700Y-49773205D01*
X81165700Y-49540795D01*
X81076761Y-49326077D01*
X80912423Y-49161739D01*
X80697705Y-49072800D01*
X80500194Y-49072800D01*
X80022700Y-48595306D01*
X80022700Y-48461295D01*
X79933761Y-48246577D01*
X79769423Y-48082239D01*
X79554705Y-47993300D01*
X79322295Y-47993300D01*
X79107577Y-48082239D01*
X78967916Y-48221900D01*
X77822520Y-48221900D01*
X77789172Y-48215267D01*
X77713205Y-48183800D01*
X77480795Y-48183800D01*
X77266077Y-48272739D01*
X77101739Y-48437077D01*
X77012800Y-48651795D01*
X43232194Y-48651795D01*
X46284633Y-41598131D01*
X52664600Y-41598131D01*
X52664600Y-41967869D01*
X52806093Y-42309463D01*
X53067537Y-42570907D01*
X53409131Y-42712400D01*
X53778869Y-42712400D01*
X54120463Y-42570907D01*
X54381907Y-42309463D01*
X54523400Y-41967869D01*
X54523400Y-41598131D01*
X55204600Y-41598131D01*
X55204600Y-41967869D01*
X55346093Y-42309463D01*
X55607537Y-42570907D01*
X55949131Y-42712400D01*
X56318869Y-42712400D01*
X56660463Y-42570907D01*
X56921907Y-42309463D01*
X57063400Y-41967869D01*
X57063400Y-41598131D01*
X57000776Y-41446944D01*
X57279512Y-41562400D01*
X57788488Y-41562400D01*
X58258722Y-41367623D01*
X58340550Y-41285795D01*
X82473800Y-41285795D01*
X82473800Y-41518205D01*
X82562739Y-41732923D01*
X82727077Y-41897261D01*
X82941795Y-41986200D01*
X83139306Y-41986200D01*
X83471874Y-42318768D01*
X83426300Y-42428795D01*
X83426300Y-42661205D01*
X83515239Y-42875923D01*
X83679577Y-43040261D01*
X83894295Y-43129200D01*
X84126705Y-43129200D01*
X84341423Y-43040261D01*
X84505761Y-42875923D01*
X84594700Y-42661205D01*
X84594700Y-42428795D01*
X84505761Y-42214077D01*
X84341423Y-42049739D01*
X84126705Y-41960800D01*
X84119694Y-41960800D01*
X83642200Y-41483306D01*
X83642200Y-41285795D01*
X83553261Y-41071077D01*
X83388923Y-40906739D01*
X83174205Y-40817800D01*
X82941795Y-40817800D01*
X82727077Y-40906739D01*
X82562739Y-41071077D01*
X82473800Y-41285795D01*
X58340550Y-41285795D01*
X58618623Y-41007722D01*
X58813400Y-40537488D01*
X58813400Y-40028512D01*
X58618623Y-39558278D01*
X58258722Y-39198377D01*
X57788488Y-39003600D01*
X57279512Y-39003600D01*
X56809278Y-39198377D01*
X56449377Y-39558278D01*
X56254600Y-40028512D01*
X56254600Y-40537488D01*
X56399345Y-40886934D01*
X56318869Y-40853600D01*
X55949131Y-40853600D01*
X55607537Y-40995093D01*
X55346093Y-41256537D01*
X55204600Y-41598131D01*
X54523400Y-41598131D01*
X54381907Y-41256537D01*
X54120463Y-40995093D01*
X53778869Y-40853600D01*
X53409131Y-40853600D01*
X53067537Y-40995093D01*
X52806093Y-41256537D01*
X52664600Y-41598131D01*
X46284633Y-41598131D01*
X47383806Y-39058131D01*
X51394600Y-39058131D01*
X51394600Y-39427869D01*
X51536093Y-39769463D01*
X51797537Y-40030907D01*
X52139131Y-40172400D01*
X52508869Y-40172400D01*
X52850463Y-40030907D01*
X53111907Y-39769463D01*
X53253400Y-39427869D01*
X53253400Y-39058131D01*
X53934600Y-39058131D01*
X53934600Y-39427869D01*
X54076093Y-39769463D01*
X54337537Y-40030907D01*
X54679131Y-40172400D01*
X55048869Y-40172400D01*
X55390463Y-40030907D01*
X55651907Y-39769463D01*
X55793400Y-39427869D01*
X55793400Y-39058131D01*
X55651907Y-38716537D01*
X55390463Y-38455093D01*
X55048869Y-38313600D01*
X54679131Y-38313600D01*
X54337537Y-38455093D01*
X54076093Y-38716537D01*
X53934600Y-39058131D01*
X53253400Y-39058131D01*
X53111907Y-38716537D01*
X52850463Y-38455093D01*
X52508869Y-38313600D01*
X52139131Y-38313600D01*
X51797537Y-38455093D01*
X51536093Y-38716537D01*
X51394600Y-39058131D01*
X47383806Y-39058131D01*
X47685149Y-38361781D01*
X47981514Y-37886042D01*
X48372660Y-37512534D01*
X48844404Y-37248034D01*
X49386497Y-37104009D01*
X49460626Y-37095591D01*
X108980057Y-31596442D01*
X109544631Y-31615381D01*
X109544631Y-31615381D01*
G37*
X109544631Y-31615381D02*
X110063672Y-31767368D01*
X110528605Y-32043660D01*
X110917123Y-32433826D01*
X111099258Y-32710108D01*
X111293225Y-33042849D01*
X111301937Y-33055843D01*
X111310095Y-33069225D01*
X112032216Y-34101710D01*
X112048743Y-34122435D01*
X112061921Y-34138962D01*
X112907754Y-35072800D01*
X112941893Y-35106035D01*
X113898097Y-35926498D01*
X113936132Y-35955192D01*
X114977678Y-36642774D01*
X115438174Y-36990174D01*
X115775361Y-37413030D01*
X115996793Y-37906454D01*
X116090220Y-38449085D01*
X116080427Y-38776077D01*
X112252840Y-75193147D01*
X112123846Y-75743117D01*
X111873278Y-76222408D01*
X111511391Y-76624323D01*
X111052776Y-76929027D01*
X110745639Y-77053839D01*
X110325049Y-77199733D01*
X110310100Y-77205996D01*
X110294888Y-77211662D01*
X109144133Y-77724738D01*
X109131533Y-77731334D01*
X109101921Y-77746834D01*
X108024545Y-78400094D01*
X107985436Y-78427306D01*
X106998431Y-79210444D01*
X106987476Y-79220319D01*
X106963040Y-79242344D01*
X106081970Y-80143012D01*
X106050857Y-80179095D01*
X105289619Y-81183087D01*
X105281302Y-81195620D01*
X105263273Y-81222786D01*
X104639826Y-82303945D01*
X104320862Y-82784574D01*
X103919135Y-83146674D01*
X103439977Y-83397494D01*
X102903356Y-83523655D01*
X102578545Y-83534647D01*
X102575720Y-83535101D01*
X93763734Y-83528950D01*
X93840261Y-83452423D01*
X93929200Y-83237705D01*
X93929200Y-83005295D01*
X93840261Y-82790577D01*
X93675923Y-82626239D01*
X93461205Y-82537300D01*
X93263694Y-82537300D01*
X93075999Y-82349605D01*
X93075999Y-81688341D01*
X93414131Y-81828400D01*
X93783869Y-81828400D01*
X94125463Y-81686907D01*
X94386907Y-81425463D01*
X94528400Y-81083869D01*
X94528400Y-80714131D01*
X95209600Y-80714131D01*
X95209600Y-81083869D01*
X95351093Y-81425463D01*
X95612537Y-81686907D01*
X95954131Y-81828400D01*
X96323869Y-81828400D01*
X96397222Y-81798016D01*
X97959590Y-81798016D01*
X98015271Y-82028611D01*
X98498078Y-82196622D01*
X99008428Y-82167083D01*
X99342729Y-82028611D01*
X99398410Y-81798016D01*
X98679000Y-81078605D01*
X97959590Y-81798016D01*
X96397222Y-81798016D01*
X96665463Y-81686907D01*
X96926907Y-81425463D01*
X97068400Y-81083869D01*
X97068400Y-80718078D01*
X97381378Y-80718078D01*
X97410917Y-81228428D01*
X97549389Y-81562729D01*
X97779984Y-81618410D01*
X98499395Y-80899000D01*
X97779984Y-80179590D01*
X97549389Y-80235271D01*
X97381378Y-80718078D01*
X97068400Y-80718078D01*
X97068400Y-80714131D01*
X96926907Y-80372537D01*
X96665463Y-80111093D01*
X96397223Y-79999984D01*
X97959590Y-79999984D01*
X98679000Y-80719395D01*
X98693143Y-80705253D01*
X98872748Y-80884858D01*
X98858605Y-80899000D01*
X99578016Y-81618410D01*
X99808611Y-81562729D01*
X99976622Y-81079922D01*
X99947083Y-80569572D01*
X99867897Y-80378400D01*
X100333488Y-80378400D01*
X100803722Y-80183623D01*
X101163623Y-79823722D01*
X101358400Y-79353488D01*
X101358400Y-78844512D01*
X101163623Y-78374278D01*
X100803722Y-78014377D01*
X100333488Y-77819600D01*
X99824512Y-77819600D01*
X99354278Y-78014377D01*
X98994377Y-78374278D01*
X98799600Y-78844512D01*
X98799600Y-79353488D01*
X98909413Y-79618600D01*
X98859922Y-79601378D01*
X98349572Y-79630917D01*
X98015271Y-79769389D01*
X97959590Y-79999984D01*
X96397223Y-79999984D01*
X96323869Y-79969600D01*
X95954131Y-79969600D01*
X95612537Y-80111093D01*
X95351093Y-80372537D01*
X95209600Y-80714131D01*
X94528400Y-80714131D01*
X94386907Y-80372537D01*
X94125463Y-80111093D01*
X93783869Y-79969600D01*
X93414131Y-79969600D01*
X93075999Y-80109659D01*
X93075999Y-79846291D01*
X94068128Y-78854163D01*
X94081093Y-78885463D01*
X94342537Y-79146907D01*
X94684131Y-79288400D01*
X95053869Y-79288400D01*
X95395463Y-79146907D01*
X95656907Y-78885463D01*
X95798400Y-78543869D01*
X95798400Y-78174131D01*
X96479600Y-78174131D01*
X96479600Y-78543869D01*
X96621093Y-78885463D01*
X96882537Y-79146907D01*
X97224131Y-79288400D01*
X97593869Y-79288400D01*
X97935463Y-79146907D01*
X98196907Y-78885463D01*
X98338400Y-78543869D01*
X98338400Y-78174131D01*
X98196907Y-77832537D01*
X97935463Y-77571093D01*
X97593869Y-77429600D01*
X97224131Y-77429600D01*
X96882537Y-77571093D01*
X96621093Y-77832537D01*
X96479600Y-78174131D01*
X95798400Y-78174131D01*
X95656907Y-77832537D01*
X95395463Y-77571093D01*
X95053869Y-77429600D01*
X94684131Y-77429600D01*
X94342537Y-77571093D01*
X94335600Y-77578030D01*
X94335600Y-77432584D01*
X94475261Y-77292923D01*
X94564200Y-77078205D01*
X94564200Y-76845795D01*
X94475261Y-76631077D01*
X94310923Y-76466739D01*
X94096205Y-76377800D01*
X93863795Y-76377800D01*
X93835297Y-76389604D01*
X93865700Y-76316205D01*
X93865700Y-76083795D01*
X93776761Y-75869077D01*
X93612423Y-75704739D01*
X93397705Y-75615800D01*
X93165295Y-75615800D01*
X92950577Y-75704739D01*
X92786239Y-75869077D01*
X92697300Y-76083795D01*
X92697300Y-76316205D01*
X92786239Y-76530923D01*
X92925900Y-76670584D01*
X92925901Y-77180975D01*
X92918934Y-77216000D01*
X92946533Y-77354747D01*
X93005290Y-77442684D01*
X93005292Y-77442686D01*
X93025128Y-77472373D01*
X93054815Y-77492209D01*
X93243400Y-77680795D01*
X93243401Y-78137919D01*
X93116907Y-77832537D01*
X92855463Y-77571093D01*
X92513869Y-77429600D01*
X92144131Y-77429600D01*
X91802537Y-77571093D01*
X91541093Y-77832537D01*
X91399600Y-78174131D01*
X91399600Y-78543869D01*
X91541093Y-78885463D01*
X91802537Y-79146907D01*
X92144131Y-79288400D01*
X92197036Y-79288400D01*
X92038815Y-79446621D01*
X92009127Y-79466458D01*
X91989291Y-79496145D01*
X91989290Y-79496146D01*
X91930533Y-79584083D01*
X91902934Y-79722830D01*
X91909900Y-79757850D01*
X91909900Y-80524616D01*
X91846907Y-80372537D01*
X91585463Y-80111093D01*
X91243869Y-79969600D01*
X90874131Y-79969600D01*
X90532537Y-80111093D01*
X90271093Y-80372537D01*
X90129600Y-80714131D01*
X90129600Y-81083869D01*
X90271093Y-81425463D01*
X90532537Y-81686907D01*
X90874131Y-81828400D01*
X91243869Y-81828400D01*
X91585463Y-81686907D01*
X91846907Y-81425463D01*
X91909901Y-81273383D01*
X91909901Y-81907719D01*
X91855629Y-81988944D01*
X91836116Y-82087039D01*
X91695335Y-82227820D01*
X91606396Y-82442538D01*
X91606396Y-82674948D01*
X91695335Y-82889666D01*
X91859673Y-83054004D01*
X92074391Y-83142943D01*
X92306801Y-83142943D01*
X92521519Y-83054004D01*
X92648065Y-82927459D01*
X92760800Y-83040194D01*
X92760800Y-83237705D01*
X92849739Y-83452423D01*
X92925681Y-83528365D01*
X85289841Y-83523035D01*
X85318600Y-83453605D01*
X85318600Y-83221195D01*
X85229661Y-83006477D01*
X85090000Y-82866816D01*
X85090000Y-81928384D01*
X85229661Y-81788723D01*
X85318600Y-81574005D01*
X85318600Y-81552970D01*
X85452537Y-81686907D01*
X85794131Y-81828400D01*
X86163869Y-81828400D01*
X86505463Y-81686907D01*
X86766907Y-81425463D01*
X86908400Y-81083869D01*
X86908400Y-80714131D01*
X87589600Y-80714131D01*
X87589600Y-81083869D01*
X87731093Y-81425463D01*
X87992537Y-81686907D01*
X88334131Y-81828400D01*
X88703869Y-81828400D01*
X89045463Y-81686907D01*
X89306907Y-81425463D01*
X89448400Y-81083869D01*
X89448400Y-80714131D01*
X89306907Y-80372537D01*
X89045463Y-80111093D01*
X88703869Y-79969600D01*
X88334131Y-79969600D01*
X87992537Y-80111093D01*
X87731093Y-80372537D01*
X87589600Y-80714131D01*
X86908400Y-80714131D01*
X86766907Y-80372537D01*
X86505463Y-80111093D01*
X86163869Y-79969600D01*
X85794131Y-79969600D01*
X85452537Y-80111093D01*
X85191093Y-80372537D01*
X85049600Y-80714131D01*
X85049600Y-80956026D01*
X84850605Y-80873600D01*
X84618195Y-80873600D01*
X84403477Y-80962539D01*
X84368400Y-80997616D01*
X84368400Y-80714131D01*
X84226907Y-80372537D01*
X83965463Y-80111093D01*
X83623869Y-79969600D01*
X83254131Y-79969600D01*
X82912537Y-80111093D01*
X82651093Y-80372537D01*
X82509600Y-80714131D01*
X82509600Y-81083869D01*
X82651093Y-81425463D01*
X82912537Y-81686907D01*
X83254131Y-81828400D01*
X83623869Y-81828400D01*
X83965463Y-81686907D01*
X84150200Y-81502170D01*
X84150200Y-81574005D01*
X84239139Y-81788723D01*
X84378800Y-81928384D01*
X84378801Y-82866815D01*
X84239139Y-83006477D01*
X84150200Y-83221195D01*
X84150200Y-83453605D01*
X84178637Y-83522259D01*
X58300634Y-83504195D01*
X57239324Y-82332195D01*
X76479400Y-82332195D01*
X76479400Y-82564605D01*
X76568339Y-82779323D01*
X76732677Y-82943661D01*
X76947395Y-83032600D01*
X77179805Y-83032600D01*
X77394523Y-82943661D01*
X77534184Y-82804000D01*
X79568580Y-82804000D01*
X79603600Y-82810966D01*
X79638620Y-82804000D01*
X79742348Y-82783367D01*
X79859973Y-82704773D01*
X79879811Y-82675083D01*
X79903294Y-82651600D01*
X80100805Y-82651600D01*
X80315523Y-82562661D01*
X80479861Y-82398323D01*
X80568800Y-82183605D01*
X80568800Y-82144675D01*
X80718078Y-82196622D01*
X81228428Y-82167083D01*
X81562729Y-82028611D01*
X81618410Y-81798016D01*
X80899000Y-81078605D01*
X80884858Y-81092748D01*
X80705252Y-80913142D01*
X80719395Y-80899000D01*
X81078605Y-80899000D01*
X81798016Y-81618410D01*
X82028611Y-81562729D01*
X82196622Y-81079922D01*
X82167083Y-80569572D01*
X82028611Y-80235271D01*
X81798016Y-80179590D01*
X81078605Y-80899000D01*
X80719395Y-80899000D01*
X79999984Y-80179590D01*
X79769389Y-80235271D01*
X79601378Y-80718078D01*
X79630917Y-81228428D01*
X79755770Y-81529851D01*
X79653677Y-81572139D01*
X79489339Y-81736477D01*
X79400400Y-81951195D01*
X79400400Y-82092800D01*
X77534184Y-82092800D01*
X77394523Y-81953139D01*
X77179805Y-81864200D01*
X76947395Y-81864200D01*
X76732677Y-81953139D01*
X76568339Y-82117477D01*
X76479400Y-82332195D01*
X57239324Y-82332195D01*
X53473966Y-78174131D01*
X73619600Y-78174131D01*
X73619600Y-78543869D01*
X73761093Y-78885463D01*
X74022537Y-79146907D01*
X74364131Y-79288400D01*
X74733869Y-79288400D01*
X75075463Y-79146907D01*
X75336907Y-78885463D01*
X75463401Y-78580081D01*
X75463400Y-80040319D01*
X75292537Y-80111093D01*
X75031093Y-80372537D01*
X74889600Y-80714131D01*
X74889600Y-81083869D01*
X75031093Y-81425463D01*
X75292537Y-81686907D01*
X75634131Y-81828400D01*
X76003869Y-81828400D01*
X76345463Y-81686907D01*
X76606907Y-81425463D01*
X76748400Y-81083869D01*
X76748400Y-80714131D01*
X77429600Y-80714131D01*
X77429600Y-81083869D01*
X77571093Y-81425463D01*
X77832537Y-81686907D01*
X78174131Y-81828400D01*
X78543869Y-81828400D01*
X78885463Y-81686907D01*
X79146907Y-81425463D01*
X79288400Y-81083869D01*
X79288400Y-80714131D01*
X79146907Y-80372537D01*
X78885463Y-80111093D01*
X78617223Y-79999984D01*
X80179590Y-79999984D01*
X80899000Y-80719395D01*
X81618410Y-79999984D01*
X81562729Y-79769389D01*
X81079922Y-79601378D01*
X80569572Y-79630917D01*
X80235271Y-79769389D01*
X80179590Y-79999984D01*
X78617223Y-79999984D01*
X78543869Y-79969600D01*
X78174131Y-79969600D01*
X77832537Y-80111093D01*
X77571093Y-80372537D01*
X77429600Y-80714131D01*
X76748400Y-80714131D01*
X76606907Y-80372537D01*
X76345463Y-80111093D01*
X76174600Y-80040319D01*
X76174600Y-79293948D01*
X76254130Y-79373478D01*
X76369590Y-79258018D01*
X76425271Y-79488611D01*
X76908078Y-79656622D01*
X77418428Y-79627083D01*
X77752729Y-79488611D01*
X77808410Y-79258016D01*
X77089000Y-78538605D01*
X77074858Y-78552748D01*
X76895252Y-78373142D01*
X76909395Y-78359000D01*
X77268605Y-78359000D01*
X77988016Y-79078410D01*
X78218611Y-79022729D01*
X78386622Y-78539922D01*
X78365451Y-78174131D01*
X78699600Y-78174131D01*
X78699600Y-78543869D01*
X78841093Y-78885463D01*
X79102537Y-79146907D01*
X79444131Y-79288400D01*
X79813869Y-79288400D01*
X80155463Y-79146907D01*
X80416907Y-78885463D01*
X80558400Y-78543869D01*
X80558400Y-78174131D01*
X81239600Y-78174131D01*
X81239600Y-78543869D01*
X81381093Y-78885463D01*
X81642537Y-79146907D01*
X81984131Y-79288400D01*
X82353869Y-79288400D01*
X82695463Y-79146907D01*
X82956907Y-78885463D01*
X83098400Y-78543869D01*
X83098400Y-78174131D01*
X83779600Y-78174131D01*
X83779600Y-78543869D01*
X83921093Y-78885463D01*
X84182537Y-79146907D01*
X84524131Y-79288400D01*
X84893869Y-79288400D01*
X85235463Y-79146907D01*
X85496907Y-78885463D01*
X85638400Y-78543869D01*
X85638400Y-78174131D01*
X86319600Y-78174131D01*
X86319600Y-78543869D01*
X86461093Y-78885463D01*
X86722537Y-79146907D01*
X87064131Y-79288400D01*
X87433869Y-79288400D01*
X87775463Y-79146907D01*
X88036907Y-78885463D01*
X88178400Y-78543869D01*
X88178400Y-78174131D01*
X88859600Y-78174131D01*
X88859600Y-78543869D01*
X89001093Y-78885463D01*
X89262537Y-79146907D01*
X89604131Y-79288400D01*
X89973869Y-79288400D01*
X90315463Y-79146907D01*
X90576907Y-78885463D01*
X90718400Y-78543869D01*
X90718400Y-78174131D01*
X90576907Y-77832537D01*
X90315463Y-77571093D01*
X89973869Y-77429600D01*
X89604131Y-77429600D01*
X89262537Y-77571093D01*
X89001093Y-77832537D01*
X88859600Y-78174131D01*
X88178400Y-78174131D01*
X88036907Y-77832537D01*
X87775463Y-77571093D01*
X87433869Y-77429600D01*
X87064131Y-77429600D01*
X86722537Y-77571093D01*
X86461093Y-77832537D01*
X86319600Y-78174131D01*
X85638400Y-78174131D01*
X85496907Y-77832537D01*
X85235463Y-77571093D01*
X84893869Y-77429600D01*
X84524131Y-77429600D01*
X84182537Y-77571093D01*
X83921093Y-77832537D01*
X83779600Y-78174131D01*
X83098400Y-78174131D01*
X82956907Y-77832537D01*
X82695463Y-77571093D01*
X82353869Y-77429600D01*
X81984131Y-77429600D01*
X81642537Y-77571093D01*
X81381093Y-77832537D01*
X81239600Y-78174131D01*
X80558400Y-78174131D01*
X80416907Y-77832537D01*
X80155463Y-77571093D01*
X79813869Y-77429600D01*
X79444131Y-77429600D01*
X79102537Y-77571093D01*
X78841093Y-77832537D01*
X78699600Y-78174131D01*
X78365451Y-78174131D01*
X78357083Y-78029572D01*
X78218611Y-77695271D01*
X77988016Y-77639590D01*
X77268605Y-78359000D01*
X76909395Y-78359000D01*
X76895252Y-78344858D01*
X77074858Y-78165252D01*
X77089000Y-78179395D01*
X77808410Y-77459984D01*
X77752729Y-77229389D01*
X77269922Y-77061378D01*
X76759572Y-77090917D01*
X76425271Y-77229389D01*
X76399783Y-77334945D01*
X76314261Y-77128477D01*
X76149923Y-76964139D01*
X76125076Y-76953847D01*
X77920748Y-76953847D01*
X77920748Y-77186257D01*
X78009687Y-77400975D01*
X78174025Y-77565313D01*
X78388743Y-77654252D01*
X78621153Y-77654252D01*
X78835871Y-77565313D01*
X79000209Y-77400975D01*
X79061047Y-77254100D01*
X79983916Y-77254100D01*
X80123577Y-77393761D01*
X80338295Y-77482700D01*
X80570705Y-77482700D01*
X80785423Y-77393761D01*
X80949761Y-77229423D01*
X81038700Y-77014705D01*
X81038700Y-76782295D01*
X80949761Y-76567577D01*
X80785423Y-76403239D01*
X80570705Y-76314300D01*
X80338295Y-76314300D01*
X80123577Y-76403239D01*
X79983916Y-76542900D01*
X78758879Y-76542900D01*
X78621153Y-76485852D01*
X78388743Y-76485852D01*
X78174025Y-76574791D01*
X78009687Y-76739129D01*
X77920748Y-76953847D01*
X76125076Y-76953847D01*
X75935205Y-76875200D01*
X75702795Y-76875200D01*
X75488077Y-76964139D01*
X75323739Y-77128477D01*
X75234800Y-77343195D01*
X75234800Y-77575605D01*
X75323739Y-77790323D01*
X75463401Y-77929985D01*
X75463401Y-78137919D01*
X75336907Y-77832537D01*
X75075463Y-77571093D01*
X74733869Y-77429600D01*
X74364131Y-77429600D01*
X74022537Y-77571093D01*
X73761093Y-77832537D01*
X73619600Y-78174131D01*
X53473966Y-78174131D01*
X50143481Y-74496295D01*
X72250300Y-74496295D01*
X72250300Y-74728705D01*
X72339239Y-74943423D01*
X72503577Y-75107761D01*
X72718295Y-75196700D01*
X72950705Y-75196700D01*
X73165423Y-75107761D01*
X73329761Y-74943423D01*
X73418700Y-74728705D01*
X73418700Y-74663301D01*
X78946279Y-74663301D01*
X78981299Y-74670267D01*
X79016319Y-74663301D01*
X79039072Y-74658775D01*
X83191331Y-74658775D01*
X83253169Y-74894542D01*
X83754122Y-75070919D01*
X84284440Y-75042164D01*
X84640831Y-74894542D01*
X84702669Y-74658775D01*
X83947000Y-73903105D01*
X83191331Y-74658775D01*
X79039072Y-74658775D01*
X79120047Y-74642668D01*
X79203211Y-74587100D01*
X80319914Y-74587100D01*
X80354934Y-74594066D01*
X80389954Y-74587100D01*
X80493682Y-74566467D01*
X80611307Y-74487873D01*
X80631145Y-74458183D01*
X81518229Y-73571100D01*
X81838800Y-73571100D01*
X81838800Y-73585705D01*
X81927739Y-73800423D01*
X82092077Y-73964761D01*
X82306795Y-74053700D01*
X82539205Y-74053700D01*
X82625994Y-74017751D01*
X82628336Y-74060940D01*
X82775958Y-74417331D01*
X83011725Y-74479169D01*
X83767395Y-73723500D01*
X83753252Y-73709358D01*
X83932858Y-73529752D01*
X83947000Y-73543895D01*
X83961142Y-73529752D01*
X84140748Y-73709358D01*
X84126605Y-73723500D01*
X84882275Y-74479169D01*
X85118042Y-74417331D01*
X85294419Y-73916378D01*
X85265664Y-73386060D01*
X85142411Y-73088500D01*
X85350054Y-73088500D01*
X85489715Y-73228161D01*
X85611232Y-73278495D01*
X85507600Y-73528685D01*
X85507600Y-73918315D01*
X85656704Y-74278286D01*
X85932214Y-74553796D01*
X86292185Y-74702900D01*
X86681815Y-74702900D01*
X87041786Y-74553796D01*
X87317296Y-74278286D01*
X87466400Y-73918315D01*
X87466400Y-73528685D01*
X88047600Y-73528685D01*
X88047600Y-73918315D01*
X88196704Y-74278286D01*
X88472214Y-74553796D01*
X88832185Y-74702900D01*
X89221815Y-74702900D01*
X89581786Y-74553796D01*
X89857296Y-74278286D01*
X90006400Y-73918315D01*
X90006400Y-73528685D01*
X89857296Y-73168714D01*
X89581786Y-72893204D01*
X89312820Y-72781795D01*
X92506800Y-72781795D01*
X92506800Y-73014205D01*
X92595739Y-73228923D01*
X92760077Y-73393261D01*
X92974795Y-73482200D01*
X93172306Y-73482200D01*
X94166177Y-74476072D01*
X94157800Y-74496295D01*
X94157800Y-74728705D01*
X94246739Y-74943423D01*
X94411077Y-75107761D01*
X94625795Y-75196700D01*
X94858205Y-75196700D01*
X95072923Y-75107761D01*
X95237261Y-74943423D01*
X95326200Y-74728705D01*
X95326200Y-74496295D01*
X95237261Y-74281577D01*
X95072923Y-74117239D01*
X94858205Y-74028300D01*
X94724195Y-74028300D01*
X93675200Y-72979306D01*
X93675200Y-72781795D01*
X93586261Y-72567077D01*
X93421923Y-72402739D01*
X93207205Y-72313800D01*
X92974795Y-72313800D01*
X92760077Y-72402739D01*
X92595739Y-72567077D01*
X92506800Y-72781795D01*
X89312820Y-72781795D01*
X89221815Y-72744100D01*
X88832185Y-72744100D01*
X88472214Y-72893204D01*
X88196704Y-73168714D01*
X88047600Y-73528685D01*
X87466400Y-73528685D01*
X87332645Y-73205770D01*
X87386795Y-73228200D01*
X87619205Y-73228200D01*
X87833923Y-73139261D01*
X87998261Y-72974923D01*
X88087200Y-72760205D01*
X88087200Y-72527795D01*
X87998261Y-72313077D01*
X87833923Y-72148739D01*
X87619205Y-72059800D01*
X87421694Y-72059800D01*
X87334711Y-71972817D01*
X87314873Y-71943127D01*
X87197248Y-71864533D01*
X87192077Y-71863505D01*
X87317296Y-71738286D01*
X87466400Y-71378315D01*
X87466400Y-70988685D01*
X87317296Y-70628714D01*
X87172082Y-70483500D01*
X88042127Y-70483500D01*
X88042127Y-71883500D01*
X88063812Y-71992516D01*
X88125564Y-72084936D01*
X88217984Y-72146688D01*
X88327000Y-72168373D01*
X89727000Y-72168373D01*
X89836016Y-72146688D01*
X89928436Y-72084936D01*
X89990188Y-71992516D01*
X90011873Y-71883500D01*
X90011873Y-70483500D01*
X89990188Y-70374484D01*
X89928436Y-70282064D01*
X89836016Y-70220312D01*
X89727000Y-70198627D01*
X88327000Y-70198627D01*
X88217984Y-70220312D01*
X88125564Y-70282064D01*
X88063812Y-70374484D01*
X88042127Y-70483500D01*
X87172082Y-70483500D01*
X87041786Y-70353204D01*
X86681815Y-70204100D01*
X86292185Y-70204100D01*
X85932214Y-70353204D01*
X85656704Y-70628714D01*
X85507600Y-70988685D01*
X85507600Y-71378315D01*
X85656704Y-71738286D01*
X85762318Y-71843900D01*
X84671682Y-71843900D01*
X84777296Y-71738286D01*
X84926400Y-71378315D01*
X84926400Y-70988685D01*
X84777296Y-70628714D01*
X84501786Y-70353204D01*
X84141815Y-70204100D01*
X83752185Y-70204100D01*
X83392214Y-70353204D01*
X83116704Y-70628714D01*
X82967600Y-70988685D01*
X82967600Y-71378315D01*
X83116704Y-71738286D01*
X83235019Y-71856601D01*
X80603819Y-71856601D01*
X80568799Y-71849635D01*
X80430051Y-71877234D01*
X80355472Y-71927066D01*
X80346890Y-71932800D01*
X80147795Y-71932800D01*
X79933077Y-72021739D01*
X79768739Y-72186077D01*
X79679800Y-72400795D01*
X79679800Y-72633205D01*
X79768739Y-72847923D01*
X79933077Y-73012261D01*
X79955166Y-73021410D01*
X79870300Y-73226295D01*
X79870300Y-73458705D01*
X79959239Y-73673423D01*
X80123577Y-73837761D01*
X80209987Y-73873553D01*
X80207640Y-73875900D01*
X79092514Y-73875900D01*
X79057499Y-73868935D01*
X79022484Y-73875900D01*
X79022480Y-73875900D01*
X78918752Y-73896533D01*
X78835588Y-73952101D01*
X73174319Y-73952101D01*
X73139299Y-73945135D01*
X73000551Y-73972734D01*
X72952537Y-74004816D01*
X72917390Y-74028300D01*
X72718295Y-74028300D01*
X72503577Y-74117239D01*
X72339239Y-74281577D01*
X72250300Y-74496295D01*
X50143481Y-74496295D01*
X48993425Y-73226295D01*
X69456300Y-73226295D01*
X69456300Y-73458705D01*
X69545239Y-73673423D01*
X69709577Y-73837761D01*
X69924295Y-73926700D01*
X70156705Y-73926700D01*
X70371423Y-73837761D01*
X70535761Y-73673423D01*
X70624700Y-73458705D01*
X70624700Y-73226295D01*
X70535761Y-73011577D01*
X70458379Y-72934195D01*
X74155300Y-72934195D01*
X74155300Y-73166605D01*
X74244239Y-73381323D01*
X74408577Y-73545661D01*
X74623295Y-73634600D01*
X74855705Y-73634600D01*
X75070423Y-73545661D01*
X75234761Y-73381323D01*
X75323700Y-73166605D01*
X75323700Y-72934195D01*
X75234761Y-72719477D01*
X75095100Y-72579816D01*
X75095100Y-71321295D01*
X75933300Y-71321295D01*
X75933300Y-71553705D01*
X76022239Y-71768423D01*
X76186577Y-71932761D01*
X76288901Y-71975145D01*
X76288900Y-72681416D01*
X76149239Y-72821077D01*
X76060300Y-73035795D01*
X76060300Y-73268205D01*
X76149239Y-73482923D01*
X76313577Y-73647261D01*
X76528295Y-73736200D01*
X76760705Y-73736200D01*
X76975423Y-73647261D01*
X77139761Y-73482923D01*
X77228700Y-73268205D01*
X77228700Y-73035795D01*
X77139761Y-72821077D01*
X77000100Y-72681416D01*
X77000100Y-71781084D01*
X77012761Y-71768423D01*
X77101700Y-71553705D01*
X77101700Y-71321295D01*
X77012761Y-71106577D01*
X76848423Y-70942239D01*
X76633705Y-70853300D01*
X76401295Y-70853300D01*
X76186577Y-70942239D01*
X76022239Y-71106577D01*
X75933300Y-71321295D01*
X75095100Y-71321295D01*
X75095100Y-71112447D01*
X75260923Y-71043761D01*
X75425261Y-70879423D01*
X75514200Y-70664705D01*
X75514200Y-70432295D01*
X75425261Y-70217577D01*
X75260923Y-70053239D01*
X75256230Y-70051295D01*
X98856800Y-70051295D01*
X98856800Y-70283705D01*
X98945739Y-70498423D01*
X99110077Y-70662761D01*
X99324795Y-70751700D01*
X99557205Y-70751700D01*
X99771923Y-70662761D01*
X99911584Y-70523100D01*
X100684916Y-70523100D01*
X100824577Y-70662761D01*
X101039295Y-70751700D01*
X101271705Y-70751700D01*
X101486423Y-70662761D01*
X101650761Y-70498423D01*
X101739700Y-70283705D01*
X101739700Y-70051295D01*
X101650761Y-69836577D01*
X101486423Y-69672239D01*
X101271705Y-69583300D01*
X101039295Y-69583300D01*
X100824577Y-69672239D01*
X100684916Y-69811900D01*
X99911584Y-69811900D01*
X99771923Y-69672239D01*
X99557205Y-69583300D01*
X99324795Y-69583300D01*
X99110077Y-69672239D01*
X98945739Y-69836577D01*
X98856800Y-70051295D01*
X75256230Y-70051295D01*
X75046205Y-69964300D01*
X74813795Y-69964300D01*
X74599077Y-70053239D01*
X74434739Y-70217577D01*
X74345800Y-70432295D01*
X74345800Y-70664705D01*
X74377267Y-70740672D01*
X74383901Y-70774025D01*
X74383900Y-72579816D01*
X74244239Y-72719477D01*
X74155300Y-72934195D01*
X70458379Y-72934195D01*
X70396100Y-72871916D01*
X70396100Y-71948842D01*
X70434923Y-71932761D01*
X70599261Y-71768423D01*
X70688200Y-71553705D01*
X70688200Y-71321295D01*
X70599261Y-71106577D01*
X70434923Y-70942239D01*
X70220205Y-70853300D01*
X69987795Y-70853300D01*
X69773077Y-70942239D01*
X69608739Y-71106577D01*
X69519800Y-71321295D01*
X69519800Y-71553705D01*
X69608739Y-71768423D01*
X69684901Y-71844585D01*
X69684900Y-72871916D01*
X69545239Y-73011577D01*
X69456300Y-73226295D01*
X48993425Y-73226295D01*
X44393202Y-68146295D01*
X65836800Y-68146295D01*
X65836800Y-68378705D01*
X65925739Y-68593423D01*
X66090077Y-68757761D01*
X66304795Y-68846700D01*
X66537205Y-68846700D01*
X66751923Y-68757761D01*
X66891584Y-68618100D01*
X67528980Y-68618100D01*
X67564000Y-68625066D01*
X67599020Y-68618100D01*
X67702748Y-68597467D01*
X67820373Y-68518873D01*
X67840211Y-68489183D01*
X68943195Y-67386200D01*
X69140705Y-67386200D01*
X69355423Y-67297261D01*
X69519761Y-67132923D01*
X69608700Y-66918205D01*
X69608700Y-66685795D01*
X69519761Y-66471077D01*
X69355423Y-66306739D01*
X69140705Y-66217800D01*
X68908295Y-66217800D01*
X68693577Y-66306739D01*
X68529239Y-66471077D01*
X68440300Y-66685795D01*
X68440300Y-66883305D01*
X67416706Y-67906900D01*
X66891584Y-67906900D01*
X66751923Y-67767239D01*
X66537205Y-67678300D01*
X66304795Y-67678300D01*
X66090077Y-67767239D01*
X65925739Y-67931577D01*
X65836800Y-68146295D01*
X44393202Y-68146295D01*
X41575565Y-65034795D01*
X57200800Y-65034795D01*
X57200800Y-65267205D01*
X57289739Y-65481923D01*
X57454077Y-65646261D01*
X57668795Y-65735200D01*
X57866306Y-65735200D01*
X58470800Y-66339694D01*
X58470800Y-66537205D01*
X58559739Y-66751923D01*
X58724077Y-66916261D01*
X58938795Y-67005200D01*
X59171205Y-67005200D01*
X59385923Y-66916261D01*
X59550261Y-66751923D01*
X59639200Y-66537205D01*
X59639200Y-66304795D01*
X59550261Y-66090077D01*
X59385923Y-65925739D01*
X59171205Y-65836800D01*
X58973694Y-65836800D01*
X58369200Y-65232306D01*
X58369200Y-65034795D01*
X58280261Y-64820077D01*
X58115923Y-64655739D01*
X57901205Y-64566800D01*
X57668795Y-64566800D01*
X57454077Y-64655739D01*
X57289739Y-64820077D01*
X57200800Y-65034795D01*
X41575565Y-65034795D01*
X37899326Y-60975145D01*
X38285918Y-60081795D01*
X76949300Y-60081795D01*
X76949300Y-60314205D01*
X77038239Y-60528923D01*
X77177900Y-60668584D01*
X77177901Y-62258475D01*
X77171267Y-62291828D01*
X77139800Y-62367795D01*
X77139800Y-62600205D01*
X77228739Y-62814923D01*
X77393077Y-62979261D01*
X77607795Y-63068200D01*
X77840205Y-63068200D01*
X78054923Y-62979261D01*
X78219261Y-62814923D01*
X78308200Y-62600205D01*
X78308200Y-62367795D01*
X78219261Y-62153077D01*
X78054923Y-61988739D01*
X77889100Y-61920053D01*
X77889100Y-60668584D01*
X78028761Y-60528923D01*
X78117700Y-60314205D01*
X78117700Y-60081795D01*
X78028761Y-59867077D01*
X77864423Y-59702739D01*
X77649705Y-59613800D01*
X77417295Y-59613800D01*
X77202577Y-59702739D01*
X77038239Y-59867077D01*
X76949300Y-60081795D01*
X38285918Y-60081795D01*
X40841494Y-54176295D01*
X58470800Y-54176295D01*
X58470800Y-54408705D01*
X58559739Y-54623423D01*
X58724077Y-54787761D01*
X58938795Y-54876700D01*
X59171205Y-54876700D01*
X59385923Y-54787761D01*
X59550261Y-54623423D01*
X59639200Y-54408705D01*
X59639200Y-54176295D01*
X59550261Y-53961577D01*
X59474100Y-53885416D01*
X59474100Y-53858795D01*
X86601300Y-53858795D01*
X86601300Y-54091205D01*
X86690239Y-54305923D01*
X86854577Y-54470261D01*
X87069295Y-54559200D01*
X87266806Y-54559200D01*
X88252300Y-55544695D01*
X88252300Y-55742205D01*
X88341239Y-55956923D01*
X88505577Y-56121261D01*
X88720295Y-56210200D01*
X88952705Y-56210200D01*
X89167423Y-56121261D01*
X89331761Y-55956923D01*
X89420700Y-55742205D01*
X89420700Y-55509795D01*
X89331761Y-55295077D01*
X89167423Y-55130739D01*
X88952705Y-55041800D01*
X88755195Y-55041800D01*
X87769700Y-54056306D01*
X87769700Y-53858795D01*
X87680761Y-53644077D01*
X87516423Y-53479739D01*
X87301705Y-53390800D01*
X87069295Y-53390800D01*
X86854577Y-53479739D01*
X86690239Y-53644077D01*
X86601300Y-53858795D01*
X59474100Y-53858795D01*
X59474100Y-52794584D01*
X59613761Y-52654923D01*
X59702700Y-52440205D01*
X59702700Y-52207795D01*
X59613761Y-51993077D01*
X59449423Y-51828739D01*
X59234705Y-51739800D01*
X59002295Y-51739800D01*
X58787577Y-51828739D01*
X58623239Y-51993077D01*
X58534300Y-52207795D01*
X58534300Y-52440205D01*
X58623239Y-52654923D01*
X58762900Y-52794584D01*
X58762901Y-53781158D01*
X58724077Y-53797239D01*
X58559739Y-53961577D01*
X58470800Y-54176295D01*
X40841494Y-54176295D01*
X43232194Y-48651795D01*
X77012800Y-48651795D01*
X77012800Y-48884205D01*
X77101739Y-49098923D01*
X77266077Y-49263261D01*
X77480795Y-49352200D01*
X77713205Y-49352200D01*
X77927923Y-49263261D01*
X78092261Y-49098923D01*
X78160947Y-48933100D01*
X78967916Y-48933100D01*
X79107577Y-49072761D01*
X79322295Y-49161700D01*
X79554705Y-49161700D01*
X79574929Y-49153323D01*
X79997300Y-49575694D01*
X79997300Y-49773205D01*
X80086239Y-49987923D01*
X80250577Y-50152261D01*
X80465295Y-50241200D01*
X80697705Y-50241200D01*
X80912423Y-50152261D01*
X81076761Y-49987923D01*
X81165700Y-49773205D01*
X81165700Y-49540795D01*
X81076761Y-49326077D01*
X80912423Y-49161739D01*
X80697705Y-49072800D01*
X80500194Y-49072800D01*
X80022700Y-48595306D01*
X80022700Y-48461295D01*
X79933761Y-48246577D01*
X79769423Y-48082239D01*
X79554705Y-47993300D01*
X79322295Y-47993300D01*
X79107577Y-48082239D01*
X78967916Y-48221900D01*
X77822520Y-48221900D01*
X77789172Y-48215267D01*
X77713205Y-48183800D01*
X77480795Y-48183800D01*
X77266077Y-48272739D01*
X77101739Y-48437077D01*
X77012800Y-48651795D01*
X43232194Y-48651795D01*
X46284633Y-41598131D01*
X52664600Y-41598131D01*
X52664600Y-41967869D01*
X52806093Y-42309463D01*
X53067537Y-42570907D01*
X53409131Y-42712400D01*
X53778869Y-42712400D01*
X54120463Y-42570907D01*
X54381907Y-42309463D01*
X54523400Y-41967869D01*
X54523400Y-41598131D01*
X55204600Y-41598131D01*
X55204600Y-41967869D01*
X55346093Y-42309463D01*
X55607537Y-42570907D01*
X55949131Y-42712400D01*
X56318869Y-42712400D01*
X56660463Y-42570907D01*
X56921907Y-42309463D01*
X57063400Y-41967869D01*
X57063400Y-41598131D01*
X57000776Y-41446944D01*
X57279512Y-41562400D01*
X57788488Y-41562400D01*
X58258722Y-41367623D01*
X58340550Y-41285795D01*
X82473800Y-41285795D01*
X82473800Y-41518205D01*
X82562739Y-41732923D01*
X82727077Y-41897261D01*
X82941795Y-41986200D01*
X83139306Y-41986200D01*
X83471874Y-42318768D01*
X83426300Y-42428795D01*
X83426300Y-42661205D01*
X83515239Y-42875923D01*
X83679577Y-43040261D01*
X83894295Y-43129200D01*
X84126705Y-43129200D01*
X84341423Y-43040261D01*
X84505761Y-42875923D01*
X84594700Y-42661205D01*
X84594700Y-42428795D01*
X84505761Y-42214077D01*
X84341423Y-42049739D01*
X84126705Y-41960800D01*
X84119694Y-41960800D01*
X83642200Y-41483306D01*
X83642200Y-41285795D01*
X83553261Y-41071077D01*
X83388923Y-40906739D01*
X83174205Y-40817800D01*
X82941795Y-40817800D01*
X82727077Y-40906739D01*
X82562739Y-41071077D01*
X82473800Y-41285795D01*
X58340550Y-41285795D01*
X58618623Y-41007722D01*
X58813400Y-40537488D01*
X58813400Y-40028512D01*
X58618623Y-39558278D01*
X58258722Y-39198377D01*
X57788488Y-39003600D01*
X57279512Y-39003600D01*
X56809278Y-39198377D01*
X56449377Y-39558278D01*
X56254600Y-40028512D01*
X56254600Y-40537488D01*
X56399345Y-40886934D01*
X56318869Y-40853600D01*
X55949131Y-40853600D01*
X55607537Y-40995093D01*
X55346093Y-41256537D01*
X55204600Y-41598131D01*
X54523400Y-41598131D01*
X54381907Y-41256537D01*
X54120463Y-40995093D01*
X53778869Y-40853600D01*
X53409131Y-40853600D01*
X53067537Y-40995093D01*
X52806093Y-41256537D01*
X52664600Y-41598131D01*
X46284633Y-41598131D01*
X47383806Y-39058131D01*
X51394600Y-39058131D01*
X51394600Y-39427869D01*
X51536093Y-39769463D01*
X51797537Y-40030907D01*
X52139131Y-40172400D01*
X52508869Y-40172400D01*
X52850463Y-40030907D01*
X53111907Y-39769463D01*
X53253400Y-39427869D01*
X53253400Y-39058131D01*
X53934600Y-39058131D01*
X53934600Y-39427869D01*
X54076093Y-39769463D01*
X54337537Y-40030907D01*
X54679131Y-40172400D01*
X55048869Y-40172400D01*
X55390463Y-40030907D01*
X55651907Y-39769463D01*
X55793400Y-39427869D01*
X55793400Y-39058131D01*
X55651907Y-38716537D01*
X55390463Y-38455093D01*
X55048869Y-38313600D01*
X54679131Y-38313600D01*
X54337537Y-38455093D01*
X54076093Y-38716537D01*
X53934600Y-39058131D01*
X53253400Y-39058131D01*
X53111907Y-38716537D01*
X52850463Y-38455093D01*
X52508869Y-38313600D01*
X52139131Y-38313600D01*
X51797537Y-38455093D01*
X51536093Y-38716537D01*
X51394600Y-39058131D01*
X47383806Y-39058131D01*
X47685149Y-38361781D01*
X47981514Y-37886042D01*
X48372660Y-37512534D01*
X48844404Y-37248034D01*
X49386497Y-37104009D01*
X49460626Y-37095591D01*
X108980057Y-31596442D01*
X109544631Y-31615381D01*
G04 #@! TD*
M02*
