G04 #@! TF.GenerationSoftware,KiCad,Pcbnew,5.1.4*
G04 #@! TF.CreationDate,2019-11-22T11:27:49-05:00*
G04 #@! TF.ProjectId,wheel_speed,77686565-6c5f-4737-9065-65642e6b6963,rev?*
G04 #@! TF.SameCoordinates,Original*
G04 #@! TF.FileFunction,Profile,NP*
%FSLAX46Y46*%
G04 Gerber Fmt 4.6, Leading zero omitted, Abs format (unit mm)*
G04 Created by KiCad (PCBNEW 5.1.4) date 2019-11-22 11:27:49*
%MOMM*%
%LPD*%
G04 APERTURE LIST*
%ADD10C,0.200000*%
G04 APERTURE END LIST*
D10*
X127406252Y-126865196D02*
X91846321Y-126865196D01*
X127406597Y-128769472D02*
X127406597Y-126864679D01*
X91846321Y-69715023D02*
X91648730Y-69720057D01*
X91648730Y-69720057D02*
X91461262Y-69734238D01*
X91461262Y-69734238D02*
X91282348Y-69756473D01*
X91282348Y-69756473D02*
X91106833Y-69786737D01*
X91106833Y-69786737D02*
X90942035Y-69822985D01*
X90942035Y-69822985D02*
X90782103Y-69865646D01*
X90782103Y-69865646D02*
X90628474Y-69913822D01*
X90628474Y-69913822D02*
X90481107Y-69966930D01*
X90481107Y-69966930D02*
X90335293Y-70026428D01*
X90335293Y-70026428D02*
X90188008Y-70093903D01*
X90188008Y-70093903D02*
X90046708Y-70166009D01*
X90046708Y-70166009D02*
X89913829Y-70240823D01*
X89913829Y-70240823D02*
X89786726Y-70319179D01*
X89786726Y-70319179D02*
X89662985Y-70402307D01*
X89662985Y-70402307D02*
X89542738Y-70490081D01*
X89542738Y-70490081D02*
X89430533Y-70578742D01*
X89430533Y-70578742D02*
X89321787Y-70671465D01*
X89321787Y-70671465D02*
X89216621Y-70768138D01*
X89216621Y-70768138D02*
X89115144Y-70868641D01*
X89115144Y-70868641D02*
X89017950Y-70972337D01*
X89017950Y-70972337D02*
X88923718Y-71080697D01*
X88923718Y-71080697D02*
X88832244Y-71194280D01*
X88832244Y-71194280D02*
X88743424Y-71313705D01*
X88743424Y-71313705D02*
X88659221Y-71436652D01*
X88659221Y-71436652D02*
X88578282Y-71565454D01*
X88578282Y-71565454D02*
X88503793Y-71695121D01*
X88503793Y-71695121D02*
X88434306Y-71827919D01*
X88434306Y-71827919D02*
X88369954Y-71963727D01*
X88369954Y-71963727D02*
X88310046Y-72104429D01*
X88310046Y-72104429D02*
X88254956Y-72250020D01*
X88254956Y-72250020D02*
X88204634Y-72401877D01*
X88204634Y-72401877D02*
X88159652Y-72560043D01*
X88159652Y-72560043D02*
X88121237Y-72721647D01*
X88121237Y-72721647D02*
X88088902Y-72890974D01*
X88088902Y-72890974D02*
X88063499Y-73068088D01*
X88063499Y-73068088D02*
X88046050Y-73251509D01*
X88046050Y-73251509D02*
X88037240Y-73443484D01*
X88037240Y-73443484D02*
X88036390Y-73524955D01*
X88036390Y-73524955D02*
X88036390Y-123054920D01*
X145186218Y-73524955D02*
X145181182Y-73327394D01*
X145181182Y-73327394D02*
X145166999Y-73139952D01*
X145166999Y-73139952D02*
X145144324Y-72958101D01*
X145144324Y-72958101D02*
X145114786Y-72787019D01*
X145114786Y-72787019D02*
X145078780Y-72622931D01*
X145078780Y-72622931D02*
X145036416Y-72463678D01*
X145036416Y-72463678D02*
X144988358Y-72310008D01*
X144988358Y-72310008D02*
X144935102Y-72161917D01*
X144935102Y-72161917D02*
X144876837Y-72018730D01*
X144876837Y-72018730D02*
X144809870Y-71871995D01*
X144809870Y-71871995D02*
X144742042Y-71738198D01*
X144742042Y-71738198D02*
X144669168Y-71607493D01*
X144669168Y-71607493D02*
X144593301Y-71483033D01*
X144593301Y-71483033D02*
X144510426Y-71358228D01*
X144510426Y-71358228D02*
X144426278Y-71241505D01*
X144426278Y-71241505D02*
X144338342Y-71128700D01*
X144338342Y-71128700D02*
X144246323Y-71019335D01*
X144246323Y-71019335D02*
X144150828Y-70914050D01*
X144150828Y-70914050D02*
X144051005Y-70811894D01*
X144051005Y-70811894D02*
X143947439Y-70713521D01*
X143947439Y-70713521D02*
X143840248Y-70619045D01*
X143840248Y-70619045D02*
X143727858Y-70527258D01*
X143727858Y-70527258D02*
X143613704Y-70440985D01*
X143613704Y-70440985D02*
X143495675Y-70358557D01*
X143495675Y-70358557D02*
X143372611Y-70279397D01*
X143372611Y-70279397D02*
X143244491Y-70203830D01*
X143244491Y-70203830D02*
X143111948Y-70132527D01*
X143111948Y-70132527D02*
X142976989Y-70066670D01*
X142976989Y-70066670D02*
X142834424Y-70004091D01*
X142834424Y-70004091D02*
X142690255Y-69947737D01*
X142690255Y-69947737D02*
X142541213Y-69896467D01*
X142541213Y-69896467D02*
X142386623Y-69850480D01*
X142386623Y-69850480D02*
X142226487Y-69810278D01*
X142226487Y-69810278D02*
X142060085Y-69776247D01*
X142060085Y-69776247D02*
X141883704Y-69748539D01*
X141883704Y-69748539D02*
X141701723Y-69728738D01*
X141701723Y-69728738D02*
X141511936Y-69717397D01*
X141511936Y-69717397D02*
X141376114Y-69715023D01*
X129311735Y-130674610D02*
X129502815Y-130665150D01*
X129502815Y-130665150D02*
X129677566Y-130639536D01*
X129677566Y-130639536D02*
X129842564Y-130599713D01*
X129842564Y-130599713D02*
X129997552Y-130547495D01*
X129997552Y-130547495D02*
X130137492Y-130486921D01*
X130137492Y-130486921D02*
X130269179Y-130417007D01*
X130269179Y-130417007D02*
X130391838Y-130339182D01*
X130391838Y-130339182D02*
X130508751Y-130251829D01*
X130508751Y-130251829D02*
X130615641Y-130158665D01*
X130615641Y-130158665D02*
X130715789Y-130057372D01*
X130715789Y-130057372D02*
X130808407Y-129948570D01*
X130808407Y-129948570D02*
X130893381Y-129832073D01*
X130893381Y-129832073D02*
X130969872Y-129708506D01*
X130969872Y-129708506D02*
X131038040Y-129576617D01*
X131038040Y-129576617D02*
X131098782Y-129431483D01*
X131098782Y-129431483D02*
X131147694Y-129280204D01*
X131147694Y-129280204D02*
X131185397Y-129116385D01*
X131185397Y-129116385D02*
X131209786Y-128935086D01*
X131209786Y-128935086D02*
X131216872Y-128769645D01*
X141376114Y-126865196D02*
X141573702Y-126860160D01*
X141573702Y-126860160D02*
X141761168Y-126845979D01*
X141761168Y-126845979D02*
X141939340Y-126823855D01*
X141939340Y-126823855D02*
X142113416Y-126793913D01*
X142113416Y-126793913D02*
X142280402Y-126757244D01*
X142280402Y-126757244D02*
X142440337Y-126714590D01*
X142440337Y-126714590D02*
X142593971Y-126666421D01*
X142593971Y-126666421D02*
X142742021Y-126613060D01*
X142742021Y-126613060D02*
X142884501Y-126554981D01*
X142884501Y-126554981D02*
X143029249Y-126488881D01*
X143029249Y-126488881D02*
X143162416Y-126421397D01*
X143162416Y-126421397D02*
X143291281Y-126349637D01*
X143291281Y-126349637D02*
X143418834Y-126271944D01*
X143418834Y-126271944D02*
X143540096Y-126191498D01*
X143540096Y-126191498D02*
X143656904Y-126107466D01*
X143656904Y-126107466D02*
X143769794Y-126019639D01*
X143769794Y-126019639D02*
X143885702Y-125922085D01*
X143885702Y-125922085D02*
X143993461Y-125824004D01*
X143993461Y-125824004D02*
X144095394Y-125723960D01*
X144095394Y-125723960D02*
X144193534Y-125620181D01*
X144193534Y-125620181D02*
X144287308Y-125513329D01*
X144287308Y-125513329D02*
X144377985Y-125401876D01*
X144377985Y-125401876D02*
X144464486Y-125287000D01*
X144464486Y-125287000D02*
X144547495Y-125167622D01*
X144547495Y-125167622D02*
X144626006Y-125044986D01*
X144626006Y-125044986D02*
X144700606Y-124917959D01*
X144700606Y-124917959D02*
X144771362Y-124785928D01*
X144771362Y-124785928D02*
X144837015Y-124650859D01*
X144837015Y-124650859D02*
X144898551Y-124510199D01*
X144898551Y-124510199D02*
X144955520Y-124363915D01*
X144955520Y-124363915D02*
X145006564Y-124214774D01*
X145006564Y-124214774D02*
X145052315Y-124060089D01*
X145052315Y-124060089D02*
X145092435Y-123899139D01*
X145092435Y-123899139D02*
X145126968Y-123728242D01*
X145126968Y-123728242D02*
X145153875Y-123553928D01*
X145153875Y-123553928D02*
X145173251Y-123371822D01*
X145173251Y-123371822D02*
X145184149Y-123181914D01*
X145184149Y-123181914D02*
X145186218Y-123055265D01*
X141376114Y-126864162D02*
X131216183Y-126864162D01*
X141376114Y-69715023D02*
X91846321Y-69715023D01*
X145186907Y-123055265D02*
X145186907Y-73524955D01*
X127406597Y-128769645D02*
X127416508Y-128965173D01*
X127416508Y-128965173D02*
X127442813Y-129141206D01*
X127442813Y-129141206D02*
X127482317Y-129303156D01*
X127482317Y-129303156D02*
X127533725Y-129455298D01*
X127533725Y-129455298D02*
X127594311Y-129595219D01*
X127594311Y-129595219D02*
X127664230Y-129726891D01*
X127664230Y-129726891D02*
X127742477Y-129850132D01*
X127742477Y-129850132D02*
X127828538Y-129965335D01*
X127828538Y-129965335D02*
X127922370Y-130073077D01*
X127922370Y-130073077D02*
X128023130Y-130172759D01*
X128023130Y-130172759D02*
X128132452Y-130265883D01*
X128132452Y-130265883D02*
X128250136Y-130351684D01*
X128250136Y-130351684D02*
X128375324Y-130428997D01*
X128375324Y-130428997D02*
X128508651Y-130497588D01*
X128508651Y-130497588D02*
X128650549Y-130556754D01*
X128650549Y-130556754D02*
X128805048Y-130606496D01*
X128805048Y-130606496D02*
X128971937Y-130644394D01*
X128971937Y-130644394D02*
X129149298Y-130667779D01*
X129149298Y-130667779D02*
X129311735Y-130674610D01*
X131216872Y-128769645D02*
X131216872Y-126864679D01*
X88036735Y-123055265D02*
X88041766Y-123252851D01*
X88041766Y-123252851D02*
X88055942Y-123440317D01*
X88055942Y-123440317D02*
X88078610Y-123622188D01*
X88078610Y-123622188D02*
X88108998Y-123797661D01*
X88108998Y-123797661D02*
X88146057Y-123965276D01*
X88146057Y-123965276D02*
X88188944Y-124125107D01*
X88188944Y-124125107D02*
X88238271Y-124281402D01*
X88238271Y-124281402D02*
X88291953Y-124429291D01*
X88291953Y-124429291D02*
X88350626Y-124572266D01*
X88350626Y-124572266D02*
X88415173Y-124712918D01*
X88415173Y-124712918D02*
X88484853Y-124849792D01*
X88484853Y-124849792D02*
X88559451Y-124982794D01*
X88559451Y-124982794D02*
X88636052Y-125107610D01*
X88636052Y-125107610D02*
X88717250Y-125229196D01*
X88717250Y-125229196D02*
X88802927Y-125347430D01*
X88802927Y-125347430D02*
X88891606Y-125460533D01*
X88891606Y-125460533D02*
X88983456Y-125569073D01*
X88983456Y-125569073D02*
X89081684Y-125676679D01*
X89081684Y-125676679D02*
X89181866Y-125778455D01*
X89181866Y-125778455D02*
X89285781Y-125876437D01*
X89285781Y-125876437D02*
X89392762Y-125970046D01*
X89392762Y-125970046D02*
X89503773Y-126060113D01*
X89503773Y-126060113D02*
X89618757Y-126146461D01*
X89618757Y-126146461D02*
X89741222Y-126231294D01*
X89741222Y-126231294D02*
X89864647Y-126309902D01*
X89864647Y-126309902D02*
X89991234Y-126383844D01*
X89991234Y-126383844D02*
X90126003Y-126455606D01*
X90126003Y-126455606D02*
X90261947Y-126521158D01*
X90261947Y-126521158D02*
X90402165Y-126581973D01*
X90402165Y-126581973D02*
X90548656Y-126638503D01*
X90548656Y-126638503D02*
X90698688Y-126689317D01*
X90698688Y-126689317D02*
X90855708Y-126735145D01*
X90855708Y-126735145D02*
X91021226Y-126775616D01*
X91021226Y-126775616D02*
X91190955Y-126809043D01*
X91190955Y-126809043D02*
X91368509Y-126835523D01*
X91368509Y-126835523D02*
X91551660Y-126853969D01*
X91551660Y-126853969D02*
X91745680Y-126863890D01*
X91745680Y-126863890D02*
X91846321Y-126865196D01*
M02*
