G04 #@! TF.GenerationSoftware,KiCad,Pcbnew,5.1.4*
G04 #@! TF.CreationDate,2019-11-22T11:27:49-05:00*
G04 #@! TF.ProjectId,wheel_speed,77686565-6c5f-4737-9065-65642e6b6963,rev?*
G04 #@! TF.SameCoordinates,Original*
G04 #@! TF.FileFunction,Legend,Bot*
G04 #@! TF.FilePolarity,Positive*
%FSLAX46Y46*%
G04 Gerber Fmt 4.6, Leading zero omitted, Abs format (unit mm)*
G04 Created by KiCad (PCBNEW 5.1.4) date 2019-11-22 11:27:49*
%MOMM*%
%LPD*%
G04 APERTURE LIST*
%ADD10C,0.250000*%
%ADD11C,0.010000*%
G04 APERTURE END LIST*
D10*
X103717380Y-90820952D02*
X103717380Y-90249523D01*
X103717380Y-90535238D02*
X102717380Y-90535238D01*
X102860238Y-90440000D01*
X102955476Y-90344761D01*
X103003095Y-90249523D01*
X102812619Y-91201904D02*
X102765000Y-91249523D01*
X102717380Y-91344761D01*
X102717380Y-91582857D01*
X102765000Y-91678095D01*
X102812619Y-91725714D01*
X102907857Y-91773333D01*
X103003095Y-91773333D01*
X103145952Y-91725714D01*
X103717380Y-91154285D01*
X103717380Y-91773333D01*
X102717380Y-92059047D02*
X103717380Y-92392380D01*
X102717380Y-92725714D01*
X105467380Y-90106666D02*
X104467380Y-90106666D01*
X104467380Y-90487619D01*
X104515000Y-90582857D01*
X104562619Y-90630476D01*
X104657857Y-90678095D01*
X104800714Y-90678095D01*
X104895952Y-90630476D01*
X104943571Y-90582857D01*
X104991190Y-90487619D01*
X104991190Y-90106666D01*
X104467380Y-91011428D02*
X105467380Y-91249523D01*
X104753095Y-91440000D01*
X105467380Y-91630476D01*
X104467380Y-91868571D01*
X105467380Y-92820952D02*
X104991190Y-92487619D01*
X105467380Y-92249523D02*
X104467380Y-92249523D01*
X104467380Y-92630476D01*
X104515000Y-92725714D01*
X104562619Y-92773333D01*
X104657857Y-92820952D01*
X104800714Y-92820952D01*
X104895952Y-92773333D01*
X104943571Y-92725714D01*
X104991190Y-92630476D01*
X104991190Y-92249523D01*
D11*
G36*
X117406797Y-73782221D02*
G01*
X117247503Y-73786652D01*
X117117875Y-73793673D01*
X117103710Y-73794774D01*
X116508543Y-73859945D01*
X115921605Y-73958622D01*
X115339688Y-74091666D01*
X114759586Y-74259939D01*
X114178092Y-74464303D01*
X113591997Y-74705619D01*
X113411928Y-74786662D01*
X113191800Y-74891272D01*
X112952615Y-75011307D01*
X112703428Y-75141832D01*
X112453295Y-75277910D01*
X112211270Y-75414606D01*
X111986410Y-75546985D01*
X111787770Y-75670110D01*
X111769162Y-75682068D01*
X111603692Y-75788814D01*
X111603692Y-75905599D01*
X111603650Y-75954067D01*
X111607306Y-75988726D01*
X111620334Y-76012358D01*
X111648408Y-76027741D01*
X111697203Y-76037657D01*
X111772393Y-76044886D01*
X111879651Y-76052209D01*
X111906538Y-76054003D01*
X111955289Y-76057717D01*
X112039347Y-76064628D01*
X112155098Y-76074421D01*
X112298932Y-76086782D01*
X112467234Y-76101397D01*
X112656395Y-76117950D01*
X112862800Y-76136128D01*
X113082837Y-76155614D01*
X113312895Y-76176096D01*
X113479385Y-76190984D01*
X113881032Y-76226724D01*
X114247169Y-76258771D01*
X114581159Y-76287391D01*
X114886369Y-76312849D01*
X115166163Y-76335411D01*
X115423906Y-76355343D01*
X115662964Y-76372909D01*
X115886700Y-76388375D01*
X116098481Y-76402006D01*
X116301672Y-76414069D01*
X116322231Y-76415232D01*
X116456117Y-76421581D01*
X116617352Y-76427272D01*
X116800258Y-76432255D01*
X116999157Y-76436483D01*
X117208371Y-76439907D01*
X117422223Y-76442480D01*
X117635036Y-76444153D01*
X117841130Y-76444877D01*
X118034829Y-76444605D01*
X118210455Y-76443288D01*
X118362330Y-76440878D01*
X118484776Y-76437327D01*
X118549615Y-76434156D01*
X119295312Y-76368269D01*
X120035282Y-76263820D01*
X120768744Y-76121008D01*
X121494917Y-75940034D01*
X122213022Y-75721099D01*
X122922279Y-75464402D01*
X123621905Y-75170144D01*
X123805461Y-75085956D01*
X123884988Y-75047827D01*
X123932927Y-75021655D01*
X123953705Y-75004231D01*
X123951748Y-74992349D01*
X123942231Y-74986858D01*
X123911484Y-74976939D01*
X123849458Y-74959588D01*
X123762849Y-74936583D01*
X123658351Y-74909704D01*
X123542663Y-74880727D01*
X123541692Y-74880487D01*
X123445753Y-74856530D01*
X123317924Y-74824236D01*
X123164129Y-74785122D01*
X122990291Y-74740703D01*
X122802336Y-74692495D01*
X122606187Y-74642014D01*
X122407769Y-74590775D01*
X122281461Y-74558060D01*
X121843614Y-74445576D01*
X121440045Y-74344210D01*
X121067764Y-74253325D01*
X120723783Y-74172286D01*
X120405111Y-74100455D01*
X120108760Y-74037197D01*
X119831740Y-73981876D01*
X119571062Y-73933856D01*
X119323735Y-73892500D01*
X119086772Y-73857174D01*
X118857182Y-73827240D01*
X118832923Y-73824330D01*
X118711166Y-73812743D01*
X118557992Y-73802703D01*
X118381038Y-73794338D01*
X118187939Y-73787779D01*
X117986330Y-73783158D01*
X117783846Y-73780604D01*
X117588124Y-73780248D01*
X117406797Y-73782221D01*
X117406797Y-73782221D01*
G37*
X117406797Y-73782221D02*
X117247503Y-73786652D01*
X117117875Y-73793673D01*
X117103710Y-73794774D01*
X116508543Y-73859945D01*
X115921605Y-73958622D01*
X115339688Y-74091666D01*
X114759586Y-74259939D01*
X114178092Y-74464303D01*
X113591997Y-74705619D01*
X113411928Y-74786662D01*
X113191800Y-74891272D01*
X112952615Y-75011307D01*
X112703428Y-75141832D01*
X112453295Y-75277910D01*
X112211270Y-75414606D01*
X111986410Y-75546985D01*
X111787770Y-75670110D01*
X111769162Y-75682068D01*
X111603692Y-75788814D01*
X111603692Y-75905599D01*
X111603650Y-75954067D01*
X111607306Y-75988726D01*
X111620334Y-76012358D01*
X111648408Y-76027741D01*
X111697203Y-76037657D01*
X111772393Y-76044886D01*
X111879651Y-76052209D01*
X111906538Y-76054003D01*
X111955289Y-76057717D01*
X112039347Y-76064628D01*
X112155098Y-76074421D01*
X112298932Y-76086782D01*
X112467234Y-76101397D01*
X112656395Y-76117950D01*
X112862800Y-76136128D01*
X113082837Y-76155614D01*
X113312895Y-76176096D01*
X113479385Y-76190984D01*
X113881032Y-76226724D01*
X114247169Y-76258771D01*
X114581159Y-76287391D01*
X114886369Y-76312849D01*
X115166163Y-76335411D01*
X115423906Y-76355343D01*
X115662964Y-76372909D01*
X115886700Y-76388375D01*
X116098481Y-76402006D01*
X116301672Y-76414069D01*
X116322231Y-76415232D01*
X116456117Y-76421581D01*
X116617352Y-76427272D01*
X116800258Y-76432255D01*
X116999157Y-76436483D01*
X117208371Y-76439907D01*
X117422223Y-76442480D01*
X117635036Y-76444153D01*
X117841130Y-76444877D01*
X118034829Y-76444605D01*
X118210455Y-76443288D01*
X118362330Y-76440878D01*
X118484776Y-76437327D01*
X118549615Y-76434156D01*
X119295312Y-76368269D01*
X120035282Y-76263820D01*
X120768744Y-76121008D01*
X121494917Y-75940034D01*
X122213022Y-75721099D01*
X122922279Y-75464402D01*
X123621905Y-75170144D01*
X123805461Y-75085956D01*
X123884988Y-75047827D01*
X123932927Y-75021655D01*
X123953705Y-75004231D01*
X123951748Y-74992349D01*
X123942231Y-74986858D01*
X123911484Y-74976939D01*
X123849458Y-74959588D01*
X123762849Y-74936583D01*
X123658351Y-74909704D01*
X123542663Y-74880727D01*
X123541692Y-74880487D01*
X123445753Y-74856530D01*
X123317924Y-74824236D01*
X123164129Y-74785122D01*
X122990291Y-74740703D01*
X122802336Y-74692495D01*
X122606187Y-74642014D01*
X122407769Y-74590775D01*
X122281461Y-74558060D01*
X121843614Y-74445576D01*
X121440045Y-74344210D01*
X121067764Y-74253325D01*
X120723783Y-74172286D01*
X120405111Y-74100455D01*
X120108760Y-74037197D01*
X119831740Y-73981876D01*
X119571062Y-73933856D01*
X119323735Y-73892500D01*
X119086772Y-73857174D01*
X118857182Y-73827240D01*
X118832923Y-73824330D01*
X118711166Y-73812743D01*
X118557992Y-73802703D01*
X118381038Y-73794338D01*
X118187939Y-73787779D01*
X117986330Y-73783158D01*
X117783846Y-73780604D01*
X117588124Y-73780248D01*
X117406797Y-73782221D01*
G36*
X125140611Y-76552295D02*
G01*
X124808971Y-76572599D01*
X124475459Y-76602690D01*
X124148067Y-76641493D01*
X123834788Y-76687934D01*
X123543616Y-76740938D01*
X123282541Y-76799430D01*
X123259958Y-76805141D01*
X123180861Y-76826953D01*
X123087005Y-76855330D01*
X122984747Y-76888053D01*
X122880446Y-76922903D01*
X122780460Y-76957662D01*
X122691148Y-76990110D01*
X122618868Y-77018028D01*
X122569978Y-77039198D01*
X122550836Y-77051401D01*
X122551086Y-77052521D01*
X122571992Y-77053770D01*
X122625935Y-77052864D01*
X122706946Y-77050019D01*
X122809058Y-77045453D01*
X122926303Y-77039383D01*
X122951458Y-77037984D01*
X123481680Y-77027638D01*
X124011102Y-77056032D01*
X124538116Y-77122839D01*
X125061113Y-77227729D01*
X125578486Y-77370374D01*
X126088626Y-77550446D01*
X126589926Y-77767616D01*
X126638538Y-77790892D01*
X126804314Y-77872156D01*
X126959216Y-77950979D01*
X127106686Y-78029638D01*
X127250165Y-78110410D01*
X127393096Y-78195571D01*
X127538918Y-78287397D01*
X127691075Y-78388164D01*
X127853008Y-78500149D01*
X128028158Y-78625628D01*
X128219967Y-78766878D01*
X128431876Y-78926174D01*
X128667327Y-79105792D01*
X128914769Y-79296418D01*
X129240058Y-79546672D01*
X129575781Y-79802628D01*
X129919635Y-80062631D01*
X130269317Y-80325022D01*
X130622526Y-80588145D01*
X130976958Y-80850343D01*
X131330312Y-81109960D01*
X131680284Y-81365339D01*
X132024574Y-81614823D01*
X132360878Y-81856755D01*
X132686893Y-82089479D01*
X133000318Y-82311337D01*
X133298850Y-82520674D01*
X133580187Y-82715831D01*
X133842026Y-82895153D01*
X134082064Y-83056983D01*
X134298001Y-83199663D01*
X134487532Y-83321538D01*
X134637552Y-83414437D01*
X135124750Y-83688325D01*
X135615654Y-83923598D01*
X136110061Y-84120189D01*
X136607768Y-84278029D01*
X137108572Y-84397049D01*
X137612270Y-84477182D01*
X137871107Y-84503126D01*
X138001769Y-84512340D01*
X138125712Y-84518696D01*
X138237635Y-84522169D01*
X138332234Y-84522733D01*
X138404208Y-84520365D01*
X138448252Y-84515037D01*
X138459066Y-84506726D01*
X138458331Y-84505926D01*
X138437488Y-84492508D01*
X138386625Y-84462246D01*
X138309772Y-84417467D01*
X138210961Y-84360497D01*
X138094223Y-84293661D01*
X137963589Y-84219286D01*
X137848405Y-84154009D01*
X137631491Y-84030962D01*
X137443490Y-83923388D01*
X137279019Y-83828028D01*
X137132696Y-83741619D01*
X136999141Y-83660901D01*
X136872970Y-83582614D01*
X136748804Y-83503497D01*
X136621259Y-83420290D01*
X136484954Y-83329731D01*
X136456615Y-83310750D01*
X135834015Y-82871859D01*
X135225985Y-82400427D01*
X134691762Y-81948100D01*
X134564448Y-81832770D01*
X134416253Y-81693603D01*
X134252395Y-81535848D01*
X134078089Y-81364755D01*
X133898550Y-81185572D01*
X133718994Y-81003549D01*
X133544637Y-80823937D01*
X133380695Y-80651983D01*
X133232382Y-80492938D01*
X133104916Y-80352052D01*
X133096156Y-80342154D01*
X132944130Y-80173626D01*
X132775573Y-79993022D01*
X132596261Y-79806127D01*
X132411969Y-79618725D01*
X132228470Y-79436602D01*
X132051540Y-79265543D01*
X131886954Y-79111332D01*
X131740486Y-78979755D01*
X131708769Y-78952272D01*
X131414701Y-78708377D01*
X131105431Y-78468202D01*
X130789585Y-78237940D01*
X130475788Y-78023789D01*
X130172666Y-77831944D01*
X130038231Y-77752337D01*
X129514131Y-77471582D01*
X128976676Y-77227149D01*
X128427287Y-77019387D01*
X127867385Y-76848644D01*
X127298391Y-76715268D01*
X126721727Y-76619607D01*
X126138813Y-76562010D01*
X125551072Y-76542824D01*
X125140611Y-76552295D01*
X125140611Y-76552295D01*
G37*
X125140611Y-76552295D02*
X124808971Y-76572599D01*
X124475459Y-76602690D01*
X124148067Y-76641493D01*
X123834788Y-76687934D01*
X123543616Y-76740938D01*
X123282541Y-76799430D01*
X123259958Y-76805141D01*
X123180861Y-76826953D01*
X123087005Y-76855330D01*
X122984747Y-76888053D01*
X122880446Y-76922903D01*
X122780460Y-76957662D01*
X122691148Y-76990110D01*
X122618868Y-77018028D01*
X122569978Y-77039198D01*
X122550836Y-77051401D01*
X122551086Y-77052521D01*
X122571992Y-77053770D01*
X122625935Y-77052864D01*
X122706946Y-77050019D01*
X122809058Y-77045453D01*
X122926303Y-77039383D01*
X122951458Y-77037984D01*
X123481680Y-77027638D01*
X124011102Y-77056032D01*
X124538116Y-77122839D01*
X125061113Y-77227729D01*
X125578486Y-77370374D01*
X126088626Y-77550446D01*
X126589926Y-77767616D01*
X126638538Y-77790892D01*
X126804314Y-77872156D01*
X126959216Y-77950979D01*
X127106686Y-78029638D01*
X127250165Y-78110410D01*
X127393096Y-78195571D01*
X127538918Y-78287397D01*
X127691075Y-78388164D01*
X127853008Y-78500149D01*
X128028158Y-78625628D01*
X128219967Y-78766878D01*
X128431876Y-78926174D01*
X128667327Y-79105792D01*
X128914769Y-79296418D01*
X129240058Y-79546672D01*
X129575781Y-79802628D01*
X129919635Y-80062631D01*
X130269317Y-80325022D01*
X130622526Y-80588145D01*
X130976958Y-80850343D01*
X131330312Y-81109960D01*
X131680284Y-81365339D01*
X132024574Y-81614823D01*
X132360878Y-81856755D01*
X132686893Y-82089479D01*
X133000318Y-82311337D01*
X133298850Y-82520674D01*
X133580187Y-82715831D01*
X133842026Y-82895153D01*
X134082064Y-83056983D01*
X134298001Y-83199663D01*
X134487532Y-83321538D01*
X134637552Y-83414437D01*
X135124750Y-83688325D01*
X135615654Y-83923598D01*
X136110061Y-84120189D01*
X136607768Y-84278029D01*
X137108572Y-84397049D01*
X137612270Y-84477182D01*
X137871107Y-84503126D01*
X138001769Y-84512340D01*
X138125712Y-84518696D01*
X138237635Y-84522169D01*
X138332234Y-84522733D01*
X138404208Y-84520365D01*
X138448252Y-84515037D01*
X138459066Y-84506726D01*
X138458331Y-84505926D01*
X138437488Y-84492508D01*
X138386625Y-84462246D01*
X138309772Y-84417467D01*
X138210961Y-84360497D01*
X138094223Y-84293661D01*
X137963589Y-84219286D01*
X137848405Y-84154009D01*
X137631491Y-84030962D01*
X137443490Y-83923388D01*
X137279019Y-83828028D01*
X137132696Y-83741619D01*
X136999141Y-83660901D01*
X136872970Y-83582614D01*
X136748804Y-83503497D01*
X136621259Y-83420290D01*
X136484954Y-83329731D01*
X136456615Y-83310750D01*
X135834015Y-82871859D01*
X135225985Y-82400427D01*
X134691762Y-81948100D01*
X134564448Y-81832770D01*
X134416253Y-81693603D01*
X134252395Y-81535848D01*
X134078089Y-81364755D01*
X133898550Y-81185572D01*
X133718994Y-81003549D01*
X133544637Y-80823937D01*
X133380695Y-80651983D01*
X133232382Y-80492938D01*
X133104916Y-80352052D01*
X133096156Y-80342154D01*
X132944130Y-80173626D01*
X132775573Y-79993022D01*
X132596261Y-79806127D01*
X132411969Y-79618725D01*
X132228470Y-79436602D01*
X132051540Y-79265543D01*
X131886954Y-79111332D01*
X131740486Y-78979755D01*
X131708769Y-78952272D01*
X131414701Y-78708377D01*
X131105431Y-78468202D01*
X130789585Y-78237940D01*
X130475788Y-78023789D01*
X130172666Y-77831944D01*
X130038231Y-77752337D01*
X129514131Y-77471582D01*
X128976676Y-77227149D01*
X128427287Y-77019387D01*
X127867385Y-76848644D01*
X127298391Y-76715268D01*
X126721727Y-76619607D01*
X126138813Y-76562010D01*
X125551072Y-76542824D01*
X125140611Y-76552295D01*
G36*
X93141931Y-95471257D02*
G01*
X93133104Y-95486852D01*
X93127782Y-95519445D01*
X93123239Y-95586591D01*
X93119469Y-95683775D01*
X93116466Y-95806481D01*
X93114224Y-95950194D01*
X93112736Y-96110398D01*
X93111996Y-96282578D01*
X93111998Y-96462218D01*
X93112736Y-96644801D01*
X93114203Y-96825814D01*
X93116393Y-97000740D01*
X93119300Y-97165063D01*
X93122918Y-97314268D01*
X93127240Y-97443840D01*
X93132260Y-97549262D01*
X93136031Y-97604385D01*
X93162820Y-97912464D01*
X93192539Y-98212898D01*
X93225783Y-98508848D01*
X93263145Y-98803473D01*
X93305220Y-99099933D01*
X93352602Y-99401389D01*
X93405884Y-99711001D01*
X93465661Y-100031929D01*
X93532526Y-100367333D01*
X93607073Y-100720373D01*
X93689897Y-101094209D01*
X93781591Y-101492002D01*
X93882749Y-101916911D01*
X93993965Y-102372096D01*
X94115833Y-102860718D01*
X94147721Y-102987231D01*
X94213573Y-103247982D01*
X94270533Y-103473297D01*
X94319294Y-103665623D01*
X94360551Y-103827408D01*
X94394995Y-103961098D01*
X94423322Y-104069141D01*
X94446223Y-104153984D01*
X94464393Y-104218074D01*
X94478524Y-104263858D01*
X94489311Y-104293784D01*
X94497446Y-104310298D01*
X94503624Y-104315848D01*
X94508537Y-104312881D01*
X94512878Y-104303843D01*
X94517259Y-104291423D01*
X94523797Y-104269885D01*
X94540648Y-104213473D01*
X94567043Y-104124785D01*
X94602212Y-104006420D01*
X94645386Y-103860974D01*
X94695795Y-103691047D01*
X94752671Y-103499237D01*
X94815243Y-103288142D01*
X94882741Y-103060361D01*
X94954398Y-102818490D01*
X95029442Y-102565130D01*
X95107106Y-102302877D01*
X95186618Y-102034330D01*
X95267210Y-101762087D01*
X95348113Y-101488747D01*
X95428556Y-101216907D01*
X95507771Y-100949166D01*
X95584987Y-100688122D01*
X95659436Y-100436374D01*
X95730349Y-100196518D01*
X95796954Y-99971155D01*
X95858484Y-99762881D01*
X95895839Y-99636385D01*
X95959533Y-99418920D01*
X96012034Y-99234852D01*
X96054011Y-99080345D01*
X96086134Y-98951563D01*
X96109073Y-98844670D01*
X96123497Y-98755830D01*
X96130077Y-98681207D01*
X96129482Y-98616965D01*
X96122381Y-98559268D01*
X96109444Y-98504281D01*
X96099244Y-98471249D01*
X96052438Y-98378791D01*
X95970097Y-98275213D01*
X95853685Y-98161970D01*
X95704666Y-98040516D01*
X95562615Y-97938182D01*
X95446761Y-97857327D01*
X95337687Y-97778086D01*
X95232298Y-97697642D01*
X95127496Y-97613180D01*
X95020187Y-97521885D01*
X94907272Y-97420941D01*
X94785658Y-97307533D01*
X94652246Y-97178845D01*
X94503941Y-97032062D01*
X94337647Y-96864368D01*
X94150268Y-96672948D01*
X93991671Y-96509682D01*
X93852170Y-96365614D01*
X93736868Y-96246023D01*
X93642742Y-96147350D01*
X93566766Y-96066039D01*
X93505918Y-95998531D01*
X93457171Y-95941270D01*
X93417503Y-95890699D01*
X93383889Y-95843259D01*
X93353304Y-95795394D01*
X93322724Y-95743546D01*
X93289125Y-95684158D01*
X93287739Y-95681687D01*
X93234285Y-95587285D01*
X93196225Y-95523133D01*
X93170312Y-95485140D01*
X93153297Y-95469212D01*
X93141931Y-95471257D01*
X93141931Y-95471257D01*
G37*
X93141931Y-95471257D02*
X93133104Y-95486852D01*
X93127782Y-95519445D01*
X93123239Y-95586591D01*
X93119469Y-95683775D01*
X93116466Y-95806481D01*
X93114224Y-95950194D01*
X93112736Y-96110398D01*
X93111996Y-96282578D01*
X93111998Y-96462218D01*
X93112736Y-96644801D01*
X93114203Y-96825814D01*
X93116393Y-97000740D01*
X93119300Y-97165063D01*
X93122918Y-97314268D01*
X93127240Y-97443840D01*
X93132260Y-97549262D01*
X93136031Y-97604385D01*
X93162820Y-97912464D01*
X93192539Y-98212898D01*
X93225783Y-98508848D01*
X93263145Y-98803473D01*
X93305220Y-99099933D01*
X93352602Y-99401389D01*
X93405884Y-99711001D01*
X93465661Y-100031929D01*
X93532526Y-100367333D01*
X93607073Y-100720373D01*
X93689897Y-101094209D01*
X93781591Y-101492002D01*
X93882749Y-101916911D01*
X93993965Y-102372096D01*
X94115833Y-102860718D01*
X94147721Y-102987231D01*
X94213573Y-103247982D01*
X94270533Y-103473297D01*
X94319294Y-103665623D01*
X94360551Y-103827408D01*
X94394995Y-103961098D01*
X94423322Y-104069141D01*
X94446223Y-104153984D01*
X94464393Y-104218074D01*
X94478524Y-104263858D01*
X94489311Y-104293784D01*
X94497446Y-104310298D01*
X94503624Y-104315848D01*
X94508537Y-104312881D01*
X94512878Y-104303843D01*
X94517259Y-104291423D01*
X94523797Y-104269885D01*
X94540648Y-104213473D01*
X94567043Y-104124785D01*
X94602212Y-104006420D01*
X94645386Y-103860974D01*
X94695795Y-103691047D01*
X94752671Y-103499237D01*
X94815243Y-103288142D01*
X94882741Y-103060361D01*
X94954398Y-102818490D01*
X95029442Y-102565130D01*
X95107106Y-102302877D01*
X95186618Y-102034330D01*
X95267210Y-101762087D01*
X95348113Y-101488747D01*
X95428556Y-101216907D01*
X95507771Y-100949166D01*
X95584987Y-100688122D01*
X95659436Y-100436374D01*
X95730349Y-100196518D01*
X95796954Y-99971155D01*
X95858484Y-99762881D01*
X95895839Y-99636385D01*
X95959533Y-99418920D01*
X96012034Y-99234852D01*
X96054011Y-99080345D01*
X96086134Y-98951563D01*
X96109073Y-98844670D01*
X96123497Y-98755830D01*
X96130077Y-98681207D01*
X96129482Y-98616965D01*
X96122381Y-98559268D01*
X96109444Y-98504281D01*
X96099244Y-98471249D01*
X96052438Y-98378791D01*
X95970097Y-98275213D01*
X95853685Y-98161970D01*
X95704666Y-98040516D01*
X95562615Y-97938182D01*
X95446761Y-97857327D01*
X95337687Y-97778086D01*
X95232298Y-97697642D01*
X95127496Y-97613180D01*
X95020187Y-97521885D01*
X94907272Y-97420941D01*
X94785658Y-97307533D01*
X94652246Y-97178845D01*
X94503941Y-97032062D01*
X94337647Y-96864368D01*
X94150268Y-96672948D01*
X93991671Y-96509682D01*
X93852170Y-96365614D01*
X93736868Y-96246023D01*
X93642742Y-96147350D01*
X93566766Y-96066039D01*
X93505918Y-95998531D01*
X93457171Y-95941270D01*
X93417503Y-95890699D01*
X93383889Y-95843259D01*
X93353304Y-95795394D01*
X93322724Y-95743546D01*
X93289125Y-95684158D01*
X93287739Y-95681687D01*
X93234285Y-95587285D01*
X93196225Y-95523133D01*
X93170312Y-95485140D01*
X93153297Y-95469212D01*
X93141931Y-95471257D01*
G36*
X94765648Y-71573614D02*
G01*
X94558490Y-71577031D01*
X94376001Y-71582728D01*
X94277714Y-71587483D01*
X93659374Y-71633515D01*
X93028255Y-71701071D01*
X92396979Y-71788428D01*
X91778167Y-71893863D01*
X91256076Y-71999766D01*
X90932700Y-72078875D01*
X90644041Y-72167323D01*
X90386491Y-72266824D01*
X90156442Y-72379091D01*
X89950285Y-72505840D01*
X89764413Y-72648783D01*
X89633035Y-72770772D01*
X89461115Y-72964879D01*
X89313785Y-73178142D01*
X89190279Y-73412763D01*
X89089832Y-73670944D01*
X89011679Y-73954890D01*
X88955052Y-74266802D01*
X88919188Y-74608883D01*
X88906211Y-74861615D01*
X88894283Y-75232846D01*
X89058334Y-75076028D01*
X89214667Y-74935268D01*
X89364013Y-74820488D01*
X89518114Y-74723373D01*
X89663090Y-74647789D01*
X89836283Y-74572652D01*
X90001544Y-74520010D01*
X90173017Y-74486415D01*
X90364843Y-74468421D01*
X90407451Y-74466367D01*
X90607163Y-74465351D01*
X90804026Y-74480158D01*
X91002850Y-74512132D01*
X91208448Y-74562615D01*
X91425631Y-74632953D01*
X91659210Y-74724488D01*
X91913999Y-74838563D01*
X92145990Y-74951812D01*
X92624550Y-75210498D01*
X93069620Y-75488130D01*
X93482416Y-75785701D01*
X93864156Y-76104204D01*
X94216058Y-76444632D01*
X94539339Y-76807979D01*
X94746808Y-77073186D01*
X95005016Y-77452842D01*
X95236945Y-77859332D01*
X95441022Y-78289210D01*
X95615673Y-78739033D01*
X95759322Y-79205357D01*
X95807043Y-79392789D01*
X95872257Y-79685884D01*
X95925175Y-79972664D01*
X95966449Y-80260064D01*
X95996734Y-80555020D01*
X96016684Y-80864468D01*
X96026953Y-81195343D01*
X96028196Y-81554581D01*
X96026167Y-81716551D01*
X96006674Y-82266954D01*
X95966115Y-82805756D01*
X95903375Y-83341018D01*
X95817342Y-83880801D01*
X95706903Y-84433167D01*
X95572757Y-84999037D01*
X95551154Y-85083646D01*
X95530109Y-85164828D01*
X95508988Y-85244565D01*
X95487156Y-85324839D01*
X95463978Y-85407630D01*
X95438819Y-85494921D01*
X95411044Y-85588693D01*
X95380018Y-85690928D01*
X95345106Y-85803607D01*
X95305673Y-85928713D01*
X95261084Y-86068225D01*
X95210705Y-86224127D01*
X95153900Y-86398400D01*
X95090034Y-86593025D01*
X95018473Y-86809984D01*
X94938581Y-87051259D01*
X94849723Y-87318831D01*
X94751265Y-87614681D01*
X94642571Y-87940792D01*
X94523007Y-88299145D01*
X94391938Y-88691721D01*
X94332167Y-88870692D01*
X94199303Y-89268511D01*
X94078239Y-89631055D01*
X93968395Y-89960114D01*
X93869191Y-90257478D01*
X93780048Y-90524936D01*
X93700384Y-90764277D01*
X93629622Y-90977291D01*
X93567179Y-91165767D01*
X93512478Y-91331495D01*
X93464937Y-91476265D01*
X93423978Y-91601866D01*
X93389019Y-91710088D01*
X93359481Y-91802720D01*
X93334785Y-91881551D01*
X93314350Y-91948371D01*
X93297597Y-92004970D01*
X93283945Y-92053136D01*
X93272815Y-92094661D01*
X93263627Y-92131332D01*
X93255801Y-92164941D01*
X93248757Y-92197275D01*
X93241915Y-92230125D01*
X93239078Y-92243939D01*
X93192666Y-92528954D01*
X93166924Y-92824116D01*
X93162011Y-93118814D01*
X93178089Y-93402435D01*
X93215320Y-93664367D01*
X93217358Y-93674781D01*
X93306658Y-94025643D01*
X93433905Y-94369641D01*
X93598331Y-94705222D01*
X93799169Y-95030833D01*
X94035651Y-95344923D01*
X94054182Y-95367231D01*
X94242845Y-95578435D01*
X94465392Y-95801923D01*
X94719350Y-96035662D01*
X95002242Y-96277621D01*
X95311596Y-96525767D01*
X95644934Y-96778068D01*
X95999783Y-97032491D01*
X96373668Y-97287005D01*
X96467398Y-97348820D01*
X96627410Y-97459123D01*
X96754194Y-97559955D01*
X96851069Y-97655671D01*
X96921357Y-97750624D01*
X96968378Y-97849171D01*
X96995453Y-97955665D01*
X97005196Y-98054107D01*
X97006429Y-98115332D01*
X97003704Y-98175575D01*
X96995868Y-98242227D01*
X96981770Y-98322680D01*
X96960256Y-98424326D01*
X96930175Y-98554557D01*
X96921427Y-98591415D01*
X96897672Y-98692170D01*
X96866753Y-98824912D01*
X96830079Y-98983507D01*
X96789060Y-99161816D01*
X96745106Y-99353704D01*
X96699626Y-99553034D01*
X96654030Y-99753670D01*
X96627493Y-99870846D01*
X96546022Y-100230184D01*
X96471964Y-100554767D01*
X96404487Y-100848037D01*
X96342756Y-101113436D01*
X96285938Y-101354405D01*
X96233199Y-101574386D01*
X96183706Y-101776820D01*
X96136625Y-101965150D01*
X96091123Y-102142818D01*
X96046365Y-102313264D01*
X96001518Y-102479931D01*
X95955749Y-102646261D01*
X95951863Y-102660227D01*
X95843914Y-103073201D01*
X95757441Y-103462406D01*
X95691364Y-103835980D01*
X95644607Y-104202064D01*
X95616089Y-104568799D01*
X95604734Y-104944324D01*
X95607374Y-105260471D01*
X95616034Y-105519394D01*
X95629647Y-105752941D01*
X95649466Y-105974638D01*
X95676740Y-106198008D01*
X95712723Y-106436579D01*
X95720626Y-106484615D01*
X95803351Y-106908812D01*
X95913290Y-107354896D01*
X96048683Y-107818534D01*
X96207773Y-108295394D01*
X96388798Y-108781141D01*
X96590001Y-109271441D01*
X96809622Y-109761962D01*
X97045902Y-110248369D01*
X97297082Y-110726329D01*
X97561402Y-111191509D01*
X97770919Y-111535308D01*
X97836179Y-111637633D01*
X97913339Y-111756164D01*
X97999261Y-111886298D01*
X98090805Y-112023431D01*
X98184833Y-112162961D01*
X98278206Y-112300283D01*
X98367785Y-112430794D01*
X98450432Y-112549892D01*
X98523007Y-112652973D01*
X98582372Y-112735434D01*
X98625387Y-112792672D01*
X98642448Y-112813449D01*
X98654353Y-112817687D01*
X98659254Y-112793862D01*
X98657115Y-112739070D01*
X98647899Y-112650405D01*
X98639546Y-112584215D01*
X98593473Y-112158932D01*
X98562635Y-111705143D01*
X98547073Y-111230346D01*
X98546828Y-110742036D01*
X98561944Y-110247712D01*
X98592461Y-109754870D01*
X98621955Y-109425154D01*
X98650364Y-109160373D01*
X98682063Y-108897219D01*
X98717593Y-108633160D01*
X98757492Y-108365667D01*
X98802299Y-108092210D01*
X98852554Y-107810257D01*
X98908795Y-107517279D01*
X98971561Y-107210745D01*
X99041392Y-106888124D01*
X99118826Y-106546887D01*
X99204402Y-106184503D01*
X99298660Y-105798442D01*
X99402138Y-105386173D01*
X99515375Y-104945167D01*
X99638911Y-104472891D01*
X99773284Y-103966817D01*
X99828942Y-103759000D01*
X99906115Y-103471475D01*
X99973761Y-103219507D01*
X100032491Y-103000915D01*
X100082918Y-102813517D01*
X100125653Y-102655131D01*
X100161310Y-102523577D01*
X100190500Y-102416673D01*
X100213836Y-102332237D01*
X100231930Y-102268088D01*
X100245394Y-102222045D01*
X100254841Y-102191926D01*
X100260882Y-102175550D01*
X100264130Y-102170735D01*
X100265198Y-102175301D01*
X100264696Y-102187064D01*
X100263239Y-102203845D01*
X100262156Y-102215461D01*
X100256378Y-102283014D01*
X100249341Y-102372032D01*
X100242423Y-102464994D01*
X100241407Y-102479231D01*
X100233157Y-102586145D01*
X100221042Y-102729249D01*
X100205331Y-102905872D01*
X100186292Y-103113347D01*
X100164194Y-103349004D01*
X100139305Y-103610174D01*
X100111895Y-103894188D01*
X100082230Y-104198378D01*
X100050581Y-104520075D01*
X100017216Y-104856610D01*
X99982402Y-105205313D01*
X99946410Y-105563517D01*
X99909507Y-105928551D01*
X99871961Y-106297748D01*
X99834042Y-106668438D01*
X99796018Y-107037953D01*
X99758158Y-107403624D01*
X99720729Y-107762781D01*
X99684002Y-108112756D01*
X99648243Y-108450881D01*
X99613722Y-108774485D01*
X99580708Y-109080900D01*
X99549469Y-109367458D01*
X99535584Y-109493538D01*
X99424381Y-110499769D01*
X99423071Y-111125000D01*
X99423200Y-111324920D01*
X99424661Y-111492110D01*
X99427690Y-111632902D01*
X99432523Y-111753627D01*
X99439398Y-111860617D01*
X99448550Y-111960203D01*
X99457013Y-112033538D01*
X99537537Y-112558445D01*
X99647110Y-113067542D01*
X99787061Y-113564285D01*
X99958718Y-114052126D01*
X100163410Y-114534518D01*
X100402467Y-115014915D01*
X100677216Y-115496769D01*
X100960577Y-115941231D01*
X101288658Y-116420103D01*
X101629346Y-116893655D01*
X101989127Y-117370675D01*
X102374486Y-117859949D01*
X102402774Y-117895117D01*
X102518873Y-118038464D01*
X102612496Y-118152199D01*
X102684919Y-118237740D01*
X102737420Y-118296505D01*
X102771275Y-118329910D01*
X102787761Y-118339374D01*
X102788155Y-118326313D01*
X102786344Y-118320927D01*
X102776593Y-118292089D01*
X102757079Y-118232787D01*
X102730001Y-118149756D01*
X102697556Y-118049733D01*
X102667855Y-117957796D01*
X102505548Y-117399499D01*
X102376115Y-116831829D01*
X102278588Y-116249754D01*
X102211996Y-115648245D01*
X102204238Y-115551060D01*
X102195642Y-115398067D01*
X102190175Y-115213691D01*
X102187692Y-115005485D01*
X102188051Y-114781006D01*
X102191107Y-114547810D01*
X102196715Y-114313450D01*
X102204732Y-114085484D01*
X102215012Y-113871465D01*
X102227413Y-113678950D01*
X102241790Y-113515494D01*
X102243359Y-113500786D01*
X102338845Y-112772176D01*
X102468894Y-112025547D01*
X102633517Y-111260837D01*
X102731459Y-110861231D01*
X102777876Y-110679645D01*
X102815594Y-110533435D01*
X102845389Y-110420067D01*
X102868039Y-110337006D01*
X102884319Y-110281717D01*
X102895007Y-110251666D01*
X102900880Y-110244318D01*
X102902713Y-110257138D01*
X102901284Y-110287593D01*
X102899106Y-110314154D01*
X102868528Y-110692183D01*
X102842793Y-111078800D01*
X102822058Y-111468136D01*
X102806482Y-111854325D01*
X102796222Y-112231498D01*
X102791437Y-112593789D01*
X102792284Y-112935330D01*
X102798922Y-113250254D01*
X102811508Y-113532693D01*
X102812162Y-113543640D01*
X102862291Y-114150112D01*
X102938141Y-114728746D01*
X103040480Y-115281775D01*
X103170073Y-115811433D01*
X103327689Y-116319952D01*
X103514093Y-116809567D01*
X103730053Y-117282510D01*
X103976336Y-117741014D01*
X104253708Y-118187314D01*
X104551355Y-118608231D01*
X104686324Y-118781449D01*
X104846939Y-118976093D01*
X105029280Y-119188035D01*
X105229428Y-119413150D01*
X105443462Y-119647312D01*
X105667463Y-119886394D01*
X105897511Y-120126269D01*
X106129687Y-120362813D01*
X106360070Y-120591899D01*
X106584740Y-120809399D01*
X106799778Y-121011190D01*
X107001265Y-121193143D01*
X107035721Y-121223409D01*
X107546522Y-121652159D01*
X108055259Y-122042980D01*
X108563817Y-122396816D01*
X109074081Y-122714614D01*
X109587936Y-122997321D01*
X110107269Y-123245883D01*
X110633965Y-123461246D01*
X111169910Y-123644357D01*
X111716988Y-123796162D01*
X112277085Y-123917606D01*
X112473427Y-123952590D01*
X112634081Y-123978775D01*
X112758077Y-123996912D01*
X112846965Y-124007144D01*
X112902294Y-124009617D01*
X112925614Y-124004474D01*
X112921561Y-123994341D01*
X112899020Y-123978985D01*
X112849283Y-123947518D01*
X112778694Y-123903881D01*
X112693599Y-123852013D01*
X112649000Y-123825072D01*
X112128577Y-123498482D01*
X111614867Y-123150397D01*
X111116945Y-122787329D01*
X110643886Y-122415791D01*
X110392308Y-122205681D01*
X110299116Y-122123050D01*
X110185837Y-122017839D01*
X110057537Y-121895154D01*
X109919283Y-121760098D01*
X109776139Y-121617775D01*
X109633172Y-121473291D01*
X109495448Y-121331748D01*
X109368033Y-121198251D01*
X109255993Y-121077904D01*
X109164393Y-120975812D01*
X109119770Y-120923538D01*
X108736901Y-120435375D01*
X108391825Y-119939129D01*
X108083774Y-119433037D01*
X107811978Y-118915338D01*
X107575670Y-118384270D01*
X107374080Y-117838070D01*
X107206439Y-117274978D01*
X107071980Y-116693231D01*
X106969932Y-116091067D01*
X106951617Y-115954602D01*
X106938536Y-115848325D01*
X106928088Y-115755395D01*
X106920985Y-115682844D01*
X106917940Y-115637705D01*
X106918378Y-115626635D01*
X106928256Y-115633742D01*
X106948658Y-115669767D01*
X106975533Y-115727370D01*
X106981085Y-115740263D01*
X107006336Y-115796982D01*
X107045470Y-115881577D01*
X107095097Y-115986873D01*
X107151824Y-116105695D01*
X107212261Y-116230869D01*
X107237712Y-116283154D01*
X107554927Y-116891099D01*
X107899566Y-117471227D01*
X108271498Y-118023424D01*
X108670590Y-118547578D01*
X109096710Y-119043577D01*
X109549724Y-119511309D01*
X110029501Y-119950661D01*
X110535908Y-120361520D01*
X111068812Y-120743775D01*
X111628082Y-121097312D01*
X112213584Y-121422020D01*
X112825186Y-121717785D01*
X113462755Y-121984497D01*
X114126160Y-122222041D01*
X114305439Y-122279824D01*
X115052380Y-122496776D01*
X115800612Y-122676977D01*
X116555288Y-122821433D01*
X117321563Y-122931150D01*
X117983000Y-122997614D01*
X118105138Y-123005330D01*
X118259445Y-123011533D01*
X118439045Y-123016223D01*
X118637059Y-123019402D01*
X118846610Y-123021068D01*
X119060819Y-123021223D01*
X119272810Y-123019866D01*
X119475704Y-123016999D01*
X119662624Y-123012621D01*
X119826691Y-123006732D01*
X119961029Y-122999334D01*
X119985692Y-122997520D01*
X120148244Y-122983695D01*
X120323040Y-122966734D01*
X120505511Y-122947258D01*
X120691091Y-122925886D01*
X120875210Y-122903240D01*
X121053302Y-122879939D01*
X121220799Y-122856604D01*
X121373132Y-122833854D01*
X121505734Y-122812310D01*
X121614038Y-122792593D01*
X121693475Y-122775321D01*
X121739477Y-122761116D01*
X121744154Y-122758762D01*
X121758950Y-122744527D01*
X121750131Y-122741209D01*
X121714689Y-122737339D01*
X121646459Y-122727263D01*
X121551062Y-122711969D01*
X121434118Y-122692447D01*
X121301247Y-122669684D01*
X121158071Y-122644669D01*
X121010210Y-122618392D01*
X120863285Y-122591840D01*
X120722916Y-122566003D01*
X120594725Y-122541869D01*
X120484331Y-122520427D01*
X120414617Y-122506294D01*
X119676673Y-122337751D01*
X118964463Y-122145060D01*
X118278528Y-121928611D01*
X117619410Y-121688790D01*
X116987649Y-121425987D01*
X116383786Y-121140592D01*
X115808363Y-120832992D01*
X115261921Y-120503575D01*
X114745000Y-120152732D01*
X114258143Y-119780850D01*
X113801890Y-119388318D01*
X113376783Y-118975525D01*
X112983361Y-118542860D01*
X112622168Y-118090711D01*
X112293743Y-117619466D01*
X111998628Y-117129515D01*
X111737363Y-116621246D01*
X111519152Y-116117077D01*
X111331608Y-115592665D01*
X111178404Y-115055819D01*
X111059018Y-114504126D01*
X110972928Y-113935173D01*
X110919974Y-113352385D01*
X110912889Y-113227027D01*
X110907229Y-113103173D01*
X110903126Y-112986870D01*
X110900714Y-112884170D01*
X110900127Y-112801119D01*
X110901499Y-112743767D01*
X110904964Y-112718163D01*
X110905925Y-112717385D01*
X110925390Y-112723264D01*
X110975476Y-112739495D01*
X111049764Y-112763969D01*
X111141839Y-112794577D01*
X111202483Y-112814852D01*
X111302156Y-112847676D01*
X111388027Y-112874878D01*
X111453656Y-112894503D01*
X111492600Y-112904597D01*
X111500471Y-112905273D01*
X111497125Y-112885269D01*
X111483156Y-112835030D01*
X111460585Y-112761295D01*
X111431432Y-112670804D01*
X111418201Y-112630886D01*
X111308708Y-112269736D01*
X111211685Y-111881720D01*
X111129435Y-111477699D01*
X111064258Y-111068537D01*
X111032931Y-110812385D01*
X111024049Y-110702292D01*
X111017048Y-110559453D01*
X111011897Y-110390153D01*
X111008562Y-110200673D01*
X111007014Y-109997300D01*
X111007219Y-109786316D01*
X111009147Y-109574005D01*
X111012764Y-109366651D01*
X111018041Y-109170539D01*
X111024944Y-108991952D01*
X111033442Y-108837174D01*
X111043503Y-108712488D01*
X111043553Y-108712000D01*
X111063050Y-108525475D01*
X111083618Y-108342935D01*
X111105832Y-108160731D01*
X111130264Y-107975218D01*
X111157490Y-107782748D01*
X111188082Y-107579674D01*
X111222613Y-107362349D01*
X111261659Y-107127126D01*
X111305793Y-106870358D01*
X111355588Y-106588398D01*
X111411617Y-106277599D01*
X111474456Y-105934314D01*
X111515367Y-105712846D01*
X111572763Y-105404399D01*
X111628562Y-105107574D01*
X111683508Y-104818698D01*
X111738347Y-104534096D01*
X111793824Y-104250095D01*
X111850684Y-103963022D01*
X111909671Y-103669202D01*
X111971530Y-103364961D01*
X112037007Y-103046627D01*
X112106845Y-102710524D01*
X112181791Y-102352980D01*
X112262588Y-101970321D01*
X112349982Y-101558872D01*
X112444718Y-101114960D01*
X112499815Y-100857538D01*
X112577653Y-100494092D01*
X112647707Y-100166716D01*
X112710416Y-99873276D01*
X112766217Y-99611641D01*
X112815548Y-99379677D01*
X112858848Y-99175251D01*
X112896554Y-98996232D01*
X112929104Y-98840486D01*
X112956935Y-98705881D01*
X112980487Y-98590283D01*
X113000196Y-98491561D01*
X113010241Y-98439821D01*
X111752202Y-98439821D01*
X111751909Y-98806190D01*
X111742291Y-99187180D01*
X111723399Y-99578138D01*
X111695281Y-99974410D01*
X111657988Y-100371343D01*
X111622152Y-100681692D01*
X111544442Y-101225997D01*
X111445403Y-101792797D01*
X111326781Y-102373052D01*
X111190323Y-102957721D01*
X111155879Y-103094692D01*
X111118789Y-103239617D01*
X111084092Y-103373606D01*
X111050858Y-103499605D01*
X111018160Y-103620563D01*
X110985070Y-103739425D01*
X110950660Y-103859140D01*
X110914002Y-103982654D01*
X110874168Y-104112914D01*
X110830230Y-104252867D01*
X110781260Y-104405460D01*
X110726330Y-104573641D01*
X110664512Y-104760355D01*
X110594878Y-104968551D01*
X110516500Y-105201175D01*
X110428450Y-105461175D01*
X110329799Y-105751497D01*
X110219621Y-106075088D01*
X110189927Y-106162231D01*
X110078566Y-106497837D01*
X109983301Y-106804927D01*
X109902527Y-107089822D01*
X109834639Y-107358844D01*
X109778029Y-107618313D01*
X109731093Y-107874551D01*
X109695974Y-108106308D01*
X109686070Y-108199369D01*
X109677544Y-108320352D01*
X109670509Y-108462066D01*
X109665077Y-108617320D01*
X109661362Y-108778921D01*
X109659475Y-108939679D01*
X109659529Y-109092401D01*
X109661637Y-109229898D01*
X109665911Y-109344976D01*
X109672464Y-109430445D01*
X109674942Y-109449577D01*
X109681849Y-109506558D01*
X109683282Y-109543803D01*
X109680796Y-109552154D01*
X109666536Y-109537312D01*
X109633093Y-109496241D01*
X109584529Y-109434117D01*
X109524911Y-109356120D01*
X109477595Y-109293269D01*
X109240557Y-108955742D01*
X109034898Y-108616917D01*
X108857918Y-108270646D01*
X108706917Y-107910780D01*
X108579194Y-107531168D01*
X108472049Y-107125663D01*
X108420065Y-106885154D01*
X108382380Y-106680581D01*
X108346772Y-106455847D01*
X108315183Y-106225200D01*
X108289554Y-106002889D01*
X108271828Y-105803163D01*
X108270974Y-105791000D01*
X108264293Y-105706562D01*
X108257132Y-105636601D01*
X108250534Y-105590413D01*
X108247088Y-105577625D01*
X108240137Y-105592161D01*
X108224336Y-105640873D01*
X108200714Y-105720128D01*
X108170299Y-105826292D01*
X108134119Y-105955734D01*
X108093201Y-106104821D01*
X108048575Y-106269921D01*
X108006527Y-106427548D01*
X107955831Y-106618719D01*
X107905198Y-106809584D01*
X107856144Y-106994432D01*
X107810187Y-107167553D01*
X107768842Y-107323234D01*
X107733626Y-107455764D01*
X107706055Y-107559432D01*
X107694515Y-107602765D01*
X107612622Y-107910069D01*
X107532196Y-107847657D01*
X107493507Y-107814538D01*
X107433081Y-107759020D01*
X107356625Y-107686523D01*
X107269846Y-107602465D01*
X107178450Y-107512266D01*
X107167433Y-107501276D01*
X106894787Y-107209320D01*
X106658705Y-106913609D01*
X106456672Y-106610222D01*
X106286174Y-106295234D01*
X106144698Y-105964722D01*
X106096612Y-105830077D01*
X106022586Y-105589266D01*
X105965337Y-105350735D01*
X105923850Y-105106780D01*
X105897114Y-104849696D01*
X105884113Y-104571779D01*
X105883836Y-104265324D01*
X105884760Y-104219472D01*
X105895648Y-103933219D01*
X105915876Y-103659895D01*
X105946739Y-103390364D01*
X105989530Y-103115490D01*
X106045543Y-102826136D01*
X106116071Y-102513165D01*
X106140832Y-102410947D01*
X106164343Y-102313503D01*
X106183513Y-102230632D01*
X106196823Y-102169185D01*
X106202751Y-102136016D01*
X106202706Y-102132193D01*
X106186148Y-102142025D01*
X106140412Y-102172219D01*
X106068385Y-102220799D01*
X105972953Y-102285791D01*
X105857001Y-102365219D01*
X105723415Y-102457107D01*
X105575081Y-102559480D01*
X105414886Y-102670363D01*
X105296585Y-102752438D01*
X105129557Y-102868303D01*
X104972202Y-102977209D01*
X104827431Y-103077159D01*
X104698153Y-103166156D01*
X104587278Y-103242205D01*
X104497715Y-103303307D01*
X104432373Y-103347466D01*
X104394162Y-103372685D01*
X104385121Y-103378000D01*
X104378258Y-103359595D01*
X104374804Y-103308578D01*
X104374564Y-103231248D01*
X104377342Y-103133903D01*
X104382942Y-103022843D01*
X104391168Y-102904366D01*
X104401824Y-102784770D01*
X104404346Y-102760160D01*
X104467953Y-102302135D01*
X104559833Y-101870861D01*
X104680131Y-101465968D01*
X104828991Y-101087082D01*
X105006554Y-100733832D01*
X105212965Y-100405847D01*
X105413091Y-100144385D01*
X105672695Y-99861541D01*
X105962305Y-99596989D01*
X106274848Y-99356681D01*
X106587453Y-99155750D01*
X106692302Y-99094513D01*
X106802451Y-99030136D01*
X106905009Y-98970155D01*
X106987084Y-98922109D01*
X106989058Y-98920952D01*
X107265550Y-98739559D01*
X107508497Y-98539308D01*
X107717501Y-98320855D01*
X107892168Y-98084856D01*
X108032101Y-97831968D01*
X108136903Y-97562846D01*
X108206179Y-97278147D01*
X108239532Y-96978526D01*
X108242730Y-96844710D01*
X108242379Y-96772384D01*
X108241249Y-96707021D01*
X108238885Y-96643135D01*
X108234829Y-96575244D01*
X108228626Y-96497862D01*
X108219819Y-96405504D01*
X108207952Y-96292685D01*
X108192570Y-96153922D01*
X108173214Y-95983730D01*
X108165530Y-95916702D01*
X108158970Y-95857067D01*
X105517461Y-95857067D01*
X105333698Y-95845679D01*
X105093917Y-95821460D01*
X104832763Y-95778403D01*
X104561588Y-95719024D01*
X104291747Y-95645838D01*
X104034593Y-95561360D01*
X104010266Y-95552481D01*
X103879894Y-95500450D01*
X103726558Y-95432837D01*
X103560484Y-95354686D01*
X103391896Y-95271040D01*
X103231023Y-95186943D01*
X103088088Y-95107439D01*
X102997000Y-95052720D01*
X102632346Y-94807745D01*
X102282223Y-94539824D01*
X101988968Y-94288867D01*
X101925879Y-94233273D01*
X101873656Y-94189084D01*
X101838981Y-94161850D01*
X101828770Y-94155846D01*
X101810778Y-94169967D01*
X101779469Y-94205506D01*
X101765184Y-94223665D01*
X101713456Y-94291483D01*
X102327522Y-95156626D01*
X102443671Y-95320352D01*
X102553226Y-95474950D01*
X102654058Y-95617404D01*
X102744038Y-95744697D01*
X102821035Y-95853812D01*
X102882920Y-95941734D01*
X102927564Y-96005444D01*
X102952836Y-96041928D01*
X102957659Y-96049211D01*
X102964560Y-96062999D01*
X102960848Y-96066543D01*
X102941581Y-96057210D01*
X102901816Y-96032366D01*
X102836611Y-95989376D01*
X102801615Y-95966054D01*
X102483303Y-95736712D01*
X102164559Y-95474339D01*
X101851067Y-95184501D01*
X101548512Y-94872762D01*
X101262580Y-94544687D01*
X100998954Y-94205841D01*
X100987760Y-94190503D01*
X100738629Y-93825353D01*
X100514173Y-93446948D01*
X100339550Y-93110538D01*
X100243427Y-92909535D01*
X100164237Y-92732959D01*
X100098552Y-92571890D01*
X100042939Y-92417406D01*
X99993967Y-92260585D01*
X99948540Y-92093811D01*
X99903051Y-91902920D01*
X99871549Y-91734274D01*
X99852481Y-91574262D01*
X99844296Y-91409274D01*
X99845441Y-91225701D01*
X99846272Y-91197271D01*
X99851119Y-91073216D01*
X99857622Y-90978033D01*
X99867168Y-90901515D01*
X99881145Y-90833458D01*
X99900941Y-90763657D01*
X99908407Y-90740283D01*
X99933689Y-90668491D01*
X99956434Y-90614422D01*
X99973067Y-90586161D01*
X99977508Y-90583975D01*
X99995932Y-90595880D01*
X100043966Y-90628392D01*
X100119322Y-90679926D01*
X100219712Y-90748892D01*
X100342847Y-90833704D01*
X100486439Y-90932774D01*
X100648199Y-91044515D01*
X100825840Y-91167338D01*
X101017073Y-91299656D01*
X101219610Y-91439882D01*
X101431162Y-91586427D01*
X101649442Y-91737705D01*
X101872160Y-91892128D01*
X102097029Y-92048108D01*
X102321760Y-92204057D01*
X102544065Y-92358388D01*
X102761656Y-92509513D01*
X102972244Y-92655846D01*
X103173542Y-92795797D01*
X103363260Y-92927780D01*
X103539110Y-93050207D01*
X103698805Y-93161490D01*
X103840055Y-93260042D01*
X103960573Y-93344274D01*
X104058071Y-93412601D01*
X104130259Y-93463433D01*
X104174850Y-93495184D01*
X104189567Y-93506259D01*
X104170994Y-93500623D01*
X104118733Y-93482711D01*
X104035818Y-93453607D01*
X103925282Y-93414395D01*
X103790159Y-93366159D01*
X103633483Y-93309984D01*
X103458288Y-93246952D01*
X103267607Y-93178150D01*
X103064474Y-93104661D01*
X102969071Y-93070082D01*
X102761162Y-92994865D01*
X102564197Y-92923961D01*
X102381225Y-92858444D01*
X102215297Y-92799390D01*
X102069459Y-92747873D01*
X101946761Y-92704969D01*
X101850251Y-92671752D01*
X101782979Y-92649296D01*
X101747993Y-92638677D01*
X101743593Y-92638048D01*
X101752268Y-92655627D01*
X101782603Y-92699000D01*
X101831244Y-92763937D01*
X101894837Y-92846210D01*
X101970030Y-92941589D01*
X102053467Y-93045848D01*
X102141796Y-93154755D01*
X102231663Y-93264084D01*
X102319714Y-93369604D01*
X102382424Y-93443563D01*
X102474687Y-93548192D01*
X102588251Y-93671757D01*
X102716991Y-93808019D01*
X102854779Y-93950736D01*
X102995490Y-94093668D01*
X103132996Y-94230575D01*
X103261170Y-94355215D01*
X103373886Y-94461348D01*
X103441553Y-94522382D01*
X103875923Y-94879636D01*
X104326676Y-95202720D01*
X104792319Y-95490656D01*
X105271362Y-95742465D01*
X105380692Y-95793976D01*
X105517461Y-95857067D01*
X108158970Y-95857067D01*
X108152988Y-95802703D01*
X108143010Y-95702595D01*
X108136134Y-95622628D01*
X108132898Y-95569052D01*
X108133790Y-95548158D01*
X108153178Y-95554624D01*
X108193704Y-95584622D01*
X108249910Y-95633057D01*
X108316338Y-95694831D01*
X108387529Y-95764847D01*
X108458024Y-95838010D01*
X108522367Y-95909223D01*
X108530191Y-95918300D01*
X108752796Y-96207035D01*
X108942022Y-96514963D01*
X109099663Y-96845058D01*
X109122420Y-96901000D01*
X109167182Y-97024649D01*
X109213941Y-97172607D01*
X109258932Y-97331279D01*
X109298391Y-97487069D01*
X109328555Y-97626381D01*
X109338085Y-97680019D01*
X109350911Y-97751486D01*
X109362518Y-97792345D01*
X109374355Y-97801104D01*
X109387870Y-97776270D01*
X109404509Y-97716353D01*
X109425722Y-97619861D01*
X109433585Y-97581642D01*
X109480966Y-97280982D01*
X109505344Y-96964693D01*
X109505715Y-96649445D01*
X109497992Y-96515102D01*
X109481787Y-96336501D01*
X109460504Y-96161729D01*
X109433151Y-95987338D01*
X109398735Y-95809880D01*
X109356263Y-95625910D01*
X109304743Y-95431979D01*
X109243181Y-95224642D01*
X109170587Y-95000452D01*
X109085966Y-94755960D01*
X108988326Y-94487722D01*
X108876674Y-94192289D01*
X108750018Y-93866214D01*
X108694760Y-93726000D01*
X108652741Y-93618580D01*
X108616731Y-93524273D01*
X108588849Y-93448815D01*
X108571215Y-93397947D01*
X108565948Y-93377406D01*
X108566012Y-93377308D01*
X108583226Y-93386279D01*
X108626125Y-93417324D01*
X108690664Y-93467153D01*
X108772801Y-93532477D01*
X108868491Y-93610008D01*
X108973690Y-93696456D01*
X109084354Y-93788534D01*
X109196441Y-93882951D01*
X109305905Y-93976420D01*
X109357819Y-94021276D01*
X109553454Y-94193954D01*
X109753568Y-94375984D01*
X109954063Y-94563310D01*
X110150838Y-94751880D01*
X110339793Y-94937639D01*
X110516831Y-95116534D01*
X110677850Y-95284511D01*
X110818752Y-95437516D01*
X110935437Y-95571495D01*
X110978372Y-95623775D01*
X111166918Y-95888887D01*
X111330287Y-96181925D01*
X111467197Y-96499894D01*
X111576365Y-96839800D01*
X111656511Y-97198650D01*
X111659140Y-97213615D01*
X111696640Y-97474970D01*
X111724617Y-97769558D01*
X111743121Y-98092726D01*
X111752202Y-98439821D01*
X113010241Y-98439821D01*
X113016501Y-98407581D01*
X113029840Y-98336211D01*
X113040650Y-98275317D01*
X113049370Y-98222768D01*
X113056436Y-98176431D01*
X113062288Y-98134173D01*
X113067364Y-98093861D01*
X113067486Y-98092846D01*
X113074852Y-98023989D01*
X113083619Y-97930169D01*
X113093103Y-97820160D01*
X113102618Y-97702735D01*
X113111479Y-97586669D01*
X113119002Y-97480737D01*
X113124503Y-97393711D01*
X113127296Y-97334365D01*
X113127499Y-97323902D01*
X113140524Y-97324709D01*
X113177773Y-97351613D01*
X113236798Y-97402155D01*
X113315149Y-97473877D01*
X113410375Y-97564320D01*
X113520027Y-97671024D01*
X113641655Y-97791531D01*
X113772809Y-97923382D01*
X113911040Y-98064119D01*
X114053897Y-98211282D01*
X114198930Y-98362412D01*
X114343690Y-98515051D01*
X114485727Y-98666739D01*
X114622590Y-98815019D01*
X114721476Y-98923736D01*
X115396910Y-99700444D01*
X116046840Y-100506340D01*
X116670683Y-101340514D01*
X117267854Y-102202054D01*
X117837768Y-103090048D01*
X118379842Y-104003585D01*
X118893490Y-104941753D01*
X119378129Y-105903641D01*
X119833175Y-106888337D01*
X119846861Y-106919351D01*
X119909753Y-107062754D01*
X119978293Y-107220188D01*
X120047016Y-107379026D01*
X120110458Y-107526641D01*
X120160346Y-107643765D01*
X120234277Y-107815395D01*
X120307503Y-107978402D01*
X120382030Y-108136277D01*
X120459863Y-108292512D01*
X120543007Y-108450598D01*
X120633468Y-108614027D01*
X120733251Y-108786288D01*
X120844362Y-108970874D01*
X120968805Y-109171276D01*
X121108586Y-109390984D01*
X121265711Y-109633491D01*
X121442184Y-109902287D01*
X121559554Y-110079692D01*
X121704495Y-110296773D01*
X121830586Y-110482345D01*
X121939198Y-110638336D01*
X122031705Y-110766674D01*
X122109481Y-110869287D01*
X122173898Y-110948103D01*
X122196040Y-110973186D01*
X122246909Y-111027620D01*
X122313323Y-111096261D01*
X122390957Y-111174888D01*
X122475486Y-111259279D01*
X122562583Y-111345213D01*
X122647923Y-111428470D01*
X122727182Y-111504828D01*
X122796032Y-111570065D01*
X122850150Y-111619962D01*
X122885209Y-111650296D01*
X122896923Y-111657164D01*
X122892960Y-111637111D01*
X122881506Y-111581924D01*
X122863212Y-111494690D01*
X122838732Y-111378493D01*
X122808718Y-111236420D01*
X122773822Y-111071555D01*
X122734696Y-110886985D01*
X122691993Y-110685794D01*
X122646365Y-110471069D01*
X122612570Y-110312177D01*
X122558380Y-110056710D01*
X122501520Y-109787215D01*
X122443356Y-109510259D01*
X122385256Y-109232409D01*
X122328587Y-108960232D01*
X122274717Y-108700294D01*
X122225013Y-108459163D01*
X122180843Y-108243405D01*
X122145113Y-108067231D01*
X122083833Y-107765250D01*
X122028348Y-107496961D01*
X121977472Y-107257606D01*
X121930019Y-107042427D01*
X121884801Y-106846669D01*
X121840630Y-106665574D01*
X121796320Y-106494386D01*
X121750685Y-106328346D01*
X121702535Y-106162699D01*
X121650686Y-105992688D01*
X121593949Y-105813554D01*
X121545394Y-105664000D01*
X121420974Y-105296502D01*
X121288571Y-104930523D01*
X121146849Y-104563259D01*
X120994470Y-104191906D01*
X120830098Y-103813660D01*
X120652396Y-103425716D01*
X120460028Y-103025270D01*
X120251657Y-102609517D01*
X120025946Y-102175655D01*
X119781559Y-101720878D01*
X119517159Y-101242383D01*
X119231409Y-100737364D01*
X119031161Y-100389355D01*
X118952725Y-100253468D01*
X118881157Y-100128719D01*
X118818668Y-100019027D01*
X118767474Y-99928309D01*
X118729788Y-99860485D01*
X118707823Y-99819470D01*
X118703025Y-99808615D01*
X118723119Y-99810083D01*
X118767212Y-99819919D01*
X118785176Y-99824673D01*
X118839244Y-99848873D01*
X118907253Y-99896906D01*
X118993362Y-99971852D01*
X119028401Y-100004875D01*
X119576024Y-100511116D01*
X120155086Y-101012477D01*
X120757968Y-101502937D01*
X121377050Y-101976471D01*
X122004712Y-102427057D01*
X122594077Y-102823229D01*
X123048138Y-103110330D01*
X123503808Y-103382170D01*
X123971135Y-103644443D01*
X124460167Y-103902842D01*
X124813747Y-104080984D01*
X125530593Y-104420056D01*
X126248750Y-104728007D01*
X126973488Y-105006621D01*
X127710076Y-105257685D01*
X128463783Y-105482982D01*
X129239878Y-105684300D01*
X130043632Y-105863422D01*
X130121456Y-105879317D01*
X130294997Y-105914619D01*
X130446938Y-105946061D01*
X130582047Y-105974995D01*
X130705089Y-106002773D01*
X130820832Y-106030746D01*
X130934043Y-106060266D01*
X131049488Y-106092686D01*
X131171933Y-106129356D01*
X131306146Y-106171628D01*
X131456894Y-106220855D01*
X131628942Y-106278387D01*
X131827058Y-106345577D01*
X132056008Y-106423777D01*
X132126594Y-106447934D01*
X132281602Y-106500653D01*
X132424762Y-106548686D01*
X132551928Y-106590691D01*
X132658956Y-106625329D01*
X132741699Y-106651258D01*
X132796012Y-106667137D01*
X132817751Y-106671626D01*
X132817905Y-106671530D01*
X132807324Y-106655658D01*
X132772645Y-106615689D01*
X132717347Y-106555211D01*
X132644911Y-106477813D01*
X132558817Y-106387082D01*
X132462545Y-106286606D01*
X132359575Y-106179973D01*
X132253388Y-106070770D01*
X132147465Y-105962586D01*
X132045284Y-105859008D01*
X131950327Y-105763624D01*
X131866073Y-105680022D01*
X131796004Y-105611789D01*
X131743598Y-105562514D01*
X131732334Y-105552399D01*
X131621550Y-105458172D01*
X131496108Y-105358599D01*
X131353991Y-105252350D01*
X131193177Y-105138093D01*
X131011649Y-105014498D01*
X130807387Y-104880233D01*
X130578372Y-104733967D01*
X130322585Y-104574369D01*
X130038006Y-104400107D01*
X129722617Y-104209850D01*
X129442308Y-104042585D01*
X129270887Y-103940680D01*
X129085283Y-103830269D01*
X128894196Y-103716535D01*
X128706332Y-103604659D01*
X128530393Y-103499825D01*
X128375083Y-103407214D01*
X128309077Y-103367824D01*
X128204107Y-103305658D01*
X128069602Y-103226799D01*
X127910023Y-103133824D01*
X127729830Y-103029310D01*
X127533485Y-102915832D01*
X127325448Y-102795969D01*
X127110178Y-102672297D01*
X126892138Y-102547393D01*
X126675787Y-102423834D01*
X126619000Y-102391471D01*
X126312175Y-102216527D01*
X126036459Y-102058947D01*
X125788872Y-101916985D01*
X125566435Y-101788898D01*
X125366171Y-101672942D01*
X125185100Y-101567371D01*
X125020244Y-101470441D01*
X124868623Y-101380409D01*
X124727260Y-101295530D01*
X124593175Y-101214059D01*
X124463391Y-101134252D01*
X124334927Y-101054365D01*
X124323231Y-101047051D01*
X123808904Y-100714837D01*
X123296950Y-100363764D01*
X122790695Y-99996694D01*
X122293469Y-99616487D01*
X121808599Y-99226005D01*
X121339412Y-98828110D01*
X120889238Y-98425663D01*
X120461403Y-98021527D01*
X120059235Y-97618561D01*
X119686064Y-97219629D01*
X119345215Y-96827591D01*
X119178768Y-96623533D01*
X118816939Y-96147545D01*
X118489302Y-95670483D01*
X118191415Y-95185424D01*
X117918832Y-94685443D01*
X117858525Y-94566154D01*
X117792249Y-94431377D01*
X117731099Y-94302700D01*
X117672794Y-94174646D01*
X117663699Y-94153709D01*
X115703681Y-94153709D01*
X115702613Y-94439154D01*
X115697000Y-95513769D01*
X115618846Y-95525650D01*
X115545984Y-95535874D01*
X115502642Y-95537779D01*
X115479805Y-95529549D01*
X115468462Y-95509366D01*
X115464352Y-95494502D01*
X115453850Y-95450101D01*
X115436240Y-95372539D01*
X115412169Y-95264808D01*
X115382286Y-95129899D01*
X115347239Y-94970805D01*
X115307676Y-94790515D01*
X115264244Y-94592022D01*
X115217592Y-94378316D01*
X115168366Y-94152390D01*
X115117217Y-93917235D01*
X115064790Y-93675842D01*
X115011734Y-93431202D01*
X114958698Y-93186307D01*
X114906328Y-92944149D01*
X114855273Y-92707718D01*
X114822001Y-92553384D01*
X112108358Y-92553384D01*
X112102012Y-92559991D01*
X112082390Y-92558122D01*
X112044842Y-92546354D01*
X111984721Y-92523268D01*
X111897379Y-92487441D01*
X111795588Y-92444785D01*
X111472489Y-92292323D01*
X111183717Y-92121226D01*
X110929230Y-91931452D01*
X110708986Y-91722960D01*
X110522941Y-91495709D01*
X110371053Y-91249657D01*
X110253281Y-90984763D01*
X110229802Y-90917521D01*
X110203136Y-90827300D01*
X110172568Y-90707605D01*
X110140211Y-90567573D01*
X110108180Y-90416343D01*
X110079440Y-90267692D01*
X110062250Y-90172509D01*
X110040621Y-90050286D01*
X110015139Y-89904495D01*
X109986390Y-89738611D01*
X109954960Y-89556107D01*
X109921433Y-89360457D01*
X109886396Y-89155133D01*
X109850435Y-88943611D01*
X109814136Y-88729363D01*
X109778083Y-88515862D01*
X109742863Y-88306583D01*
X109709061Y-88104999D01*
X109677964Y-87918773D01*
X105688002Y-87918773D01*
X105514809Y-87959393D01*
X105401603Y-87983686D01*
X105269327Y-88008554D01*
X105131487Y-88031753D01*
X105001587Y-88051039D01*
X104893130Y-88064168D01*
X104872692Y-88066077D01*
X104780906Y-88071393D01*
X104660563Y-88074627D01*
X104522123Y-88075859D01*
X104376046Y-88075165D01*
X104232792Y-88072624D01*
X104102821Y-88068314D01*
X103996594Y-88062312D01*
X103961339Y-88059282D01*
X103507851Y-87995207D01*
X103051641Y-87893369D01*
X102594704Y-87754799D01*
X102139035Y-87580526D01*
X101686629Y-87371579D01*
X101239483Y-87128988D01*
X100799591Y-86853781D01*
X100368948Y-86546989D01*
X99949551Y-86209641D01*
X99543393Y-85842765D01*
X99406965Y-85709790D01*
X98987584Y-85267221D01*
X98599359Y-84804354D01*
X98243746Y-84323171D01*
X97922199Y-83825656D01*
X97636174Y-83313794D01*
X97605262Y-83253385D01*
X97375579Y-82766862D01*
X97182358Y-82284272D01*
X97024018Y-81800619D01*
X96898979Y-81310904D01*
X96805659Y-80810131D01*
X96783313Y-80654769D01*
X96775728Y-80585375D01*
X96768157Y-80493001D01*
X96760822Y-80383362D01*
X96753943Y-80262171D01*
X96747742Y-80135141D01*
X96742440Y-80007985D01*
X96738257Y-79886416D01*
X96735415Y-79776148D01*
X96734134Y-79682895D01*
X96734636Y-79612369D01*
X96737142Y-79570283D01*
X96741004Y-79561133D01*
X96750908Y-79581472D01*
X96772804Y-79633207D01*
X96804640Y-79711265D01*
X96844366Y-79810576D01*
X96889931Y-79926068D01*
X96926714Y-80020286D01*
X97015538Y-80247789D01*
X97093562Y-80444823D01*
X97163568Y-80617562D01*
X97228339Y-80772179D01*
X97290658Y-80914847D01*
X97353308Y-81051737D01*
X97419070Y-81189023D01*
X97490727Y-81332878D01*
X97571062Y-81489474D01*
X97662858Y-81664983D01*
X97699053Y-81733621D01*
X97765244Y-81858572D01*
X97825296Y-81971216D01*
X97876869Y-82067224D01*
X97917624Y-82142263D01*
X97945220Y-82192004D01*
X97957318Y-82212115D01*
X97957648Y-82212314D01*
X97953182Y-82193265D01*
X97938995Y-82140419D01*
X97916142Y-82057543D01*
X97885676Y-81948400D01*
X97848653Y-81816757D01*
X97806128Y-81666379D01*
X97759153Y-81501031D01*
X97718756Y-81359368D01*
X97624107Y-81026532D01*
X97540008Y-80727428D01*
X97465526Y-80458436D01*
X97399733Y-80215934D01*
X97341698Y-79996302D01*
X97290490Y-79795919D01*
X97245179Y-79611164D01*
X97204834Y-79438417D01*
X97168525Y-79274057D01*
X97135323Y-79114463D01*
X97113454Y-79003769D01*
X97092185Y-78887152D01*
X97077229Y-78785352D01*
X97067497Y-78686056D01*
X97061898Y-78576953D01*
X97059342Y-78445732D01*
X97058946Y-78388308D01*
X97059762Y-78234727D01*
X97064701Y-78111299D01*
X97075112Y-78009200D01*
X97092343Y-77919605D01*
X97117742Y-77833689D01*
X97152659Y-77742627D01*
X97160456Y-77724072D01*
X97194984Y-77642773D01*
X97436941Y-78166963D01*
X97606132Y-78532494D01*
X97761239Y-78865367D01*
X97903801Y-79168743D01*
X98035357Y-79445783D01*
X98157445Y-79699646D01*
X98271603Y-79933495D01*
X98379371Y-80150489D01*
X98482287Y-80353789D01*
X98581890Y-80546556D01*
X98679718Y-80731950D01*
X98743167Y-80850154D01*
X99047814Y-81394436D01*
X99354093Y-81902157D01*
X99663721Y-82375832D01*
X99978416Y-82817977D01*
X100299896Y-83231108D01*
X100629878Y-83617740D01*
X100642836Y-83632197D01*
X100726070Y-83723595D01*
X100812545Y-83816289D01*
X100898407Y-83906396D01*
X100979801Y-83990037D01*
X101052870Y-84063329D01*
X101113762Y-84122394D01*
X101158621Y-84163348D01*
X101183591Y-84182312D01*
X101187070Y-84180108D01*
X101176831Y-84159255D01*
X101150086Y-84107147D01*
X101108563Y-84027089D01*
X101053988Y-83922387D01*
X100988090Y-83796349D01*
X100912594Y-83652280D01*
X100829229Y-83493486D01*
X100739721Y-83323275D01*
X100706115Y-83259437D01*
X100615071Y-83086360D01*
X100529774Y-82923859D01*
X100451919Y-82775186D01*
X100383201Y-82643594D01*
X100325313Y-82532335D01*
X100279949Y-82444661D01*
X100248804Y-82383823D01*
X100233571Y-82353073D01*
X100232308Y-82349964D01*
X100247495Y-82332440D01*
X100284631Y-82305348D01*
X100331075Y-82276437D01*
X100374189Y-82253456D01*
X100401333Y-82244153D01*
X100403954Y-82244740D01*
X100417646Y-82261031D01*
X100453782Y-82306100D01*
X100510765Y-82377919D01*
X100587002Y-82474456D01*
X100680898Y-82593683D01*
X100790858Y-82733569D01*
X100915287Y-82892083D01*
X101052591Y-83067197D01*
X101201175Y-83256879D01*
X101359444Y-83459100D01*
X101525804Y-83671830D01*
X101678154Y-83866789D01*
X101880468Y-84125697D01*
X102060182Y-84355470D01*
X102218692Y-84557817D01*
X102357393Y-84734444D01*
X102477680Y-84887059D01*
X102580947Y-85017370D01*
X102668591Y-85127086D01*
X102742007Y-85217913D01*
X102802589Y-85291559D01*
X102851733Y-85349732D01*
X102890834Y-85394140D01*
X102921287Y-85426490D01*
X102944488Y-85448490D01*
X102961832Y-85461848D01*
X102974713Y-85468271D01*
X102984527Y-85469467D01*
X102987191Y-85469038D01*
X103025602Y-85459117D01*
X103040783Y-85453268D01*
X103035407Y-85434474D01*
X103018339Y-85381631D01*
X102990562Y-85297652D01*
X102953057Y-85185453D01*
X102906808Y-85047948D01*
X102852797Y-84888052D01*
X102792006Y-84708680D01*
X102725417Y-84512746D01*
X102654014Y-84303164D01*
X102585916Y-84103732D01*
X102510946Y-83883969D01*
X102439925Y-83674944D01*
X102373838Y-83479605D01*
X102313667Y-83300897D01*
X102260395Y-83141766D01*
X102215007Y-83005159D01*
X102178484Y-82894021D01*
X102151810Y-82811298D01*
X102135969Y-82759937D01*
X102131785Y-82742964D01*
X102148424Y-82748379D01*
X102191059Y-82775074D01*
X102255313Y-82819743D01*
X102336806Y-82879082D01*
X102431160Y-82949786D01*
X102533997Y-83028551D01*
X102640938Y-83112072D01*
X102747606Y-83197044D01*
X102849620Y-83280163D01*
X102908102Y-83328887D01*
X103129039Y-83522306D01*
X103357432Y-83736034D01*
X103585454Y-83962059D01*
X103805279Y-84192372D01*
X104009077Y-84418960D01*
X104189024Y-84633813D01*
X104215130Y-84666630D01*
X104499413Y-85053563D01*
X104762880Y-85465930D01*
X105001654Y-85896461D01*
X105211854Y-86337887D01*
X105389600Y-86782939D01*
X105468281Y-87014538D01*
X105504589Y-87133375D01*
X105542287Y-87265277D01*
X105579196Y-87401744D01*
X105613135Y-87534278D01*
X105641922Y-87654379D01*
X105663377Y-87753548D01*
X105674837Y-87819532D01*
X105688002Y-87918773D01*
X109677964Y-87918773D01*
X109677264Y-87914583D01*
X109648056Y-87738810D01*
X109622023Y-87581152D01*
X109599752Y-87445083D01*
X109581828Y-87334077D01*
X109568837Y-87251607D01*
X109561363Y-87201147D01*
X109559809Y-87185986D01*
X109571626Y-87200129D01*
X109602185Y-87243179D01*
X109648937Y-87311273D01*
X109709334Y-87400550D01*
X109780826Y-87507148D01*
X109860866Y-87627206D01*
X109946904Y-87756862D01*
X110036392Y-87892254D01*
X110126782Y-88029521D01*
X110215524Y-88164800D01*
X110300071Y-88294232D01*
X110377873Y-88413953D01*
X110446382Y-88520102D01*
X110503050Y-88608818D01*
X110545327Y-88676238D01*
X110566801Y-88711776D01*
X110681184Y-88916874D01*
X110796124Y-89141363D01*
X110913160Y-89388667D01*
X111033831Y-89662211D01*
X111159677Y-89965421D01*
X111292236Y-90301722D01*
X111353849Y-90463077D01*
X111382036Y-90538354D01*
X111419876Y-90640617D01*
X111465837Y-90765637D01*
X111518389Y-90909188D01*
X111576001Y-91067044D01*
X111637140Y-91234976D01*
X111700276Y-91408757D01*
X111763878Y-91584162D01*
X111826415Y-91756962D01*
X111886355Y-91922930D01*
X111942167Y-92077840D01*
X111992320Y-92217464D01*
X112035283Y-92337575D01*
X112069525Y-92433946D01*
X112093514Y-92502351D01*
X112105719Y-92538561D01*
X112106075Y-92539722D01*
X112108358Y-92553384D01*
X114822001Y-92553384D01*
X114806181Y-92480006D01*
X114759700Y-92264004D01*
X114716477Y-92062705D01*
X114677160Y-91879098D01*
X114642398Y-91716177D01*
X114612839Y-91576931D01*
X114589129Y-91464353D01*
X114571918Y-91381433D01*
X114561852Y-91331164D01*
X114559398Y-91316345D01*
X114574706Y-91321709D01*
X114612327Y-91351642D01*
X114668125Y-91401946D01*
X114737965Y-91468425D01*
X114817711Y-91546881D01*
X114903227Y-91633118D01*
X114990376Y-91722938D01*
X115075025Y-91812144D01*
X115153036Y-91896540D01*
X115220275Y-91971928D01*
X115272605Y-92034110D01*
X115294146Y-92061995D01*
X115391814Y-92208244D01*
X115482705Y-92368938D01*
X115560317Y-92531325D01*
X115618151Y-92682655D01*
X115629477Y-92719769D01*
X115645766Y-92784742D01*
X115659748Y-92859246D01*
X115671550Y-92946242D01*
X115681297Y-93048692D01*
X115689115Y-93169555D01*
X115695130Y-93311794D01*
X115699469Y-93478367D01*
X115702256Y-93672237D01*
X115703618Y-93896364D01*
X115703681Y-94153709D01*
X117663699Y-94153709D01*
X117615053Y-94041738D01*
X117555596Y-93898498D01*
X117492141Y-93739448D01*
X117422408Y-93559110D01*
X117344117Y-93352009D01*
X117268682Y-93149615D01*
X117216099Y-93007940D01*
X117167528Y-92877221D01*
X117124732Y-92762195D01*
X117089476Y-92667599D01*
X117063524Y-92598171D01*
X117048642Y-92558647D01*
X117046109Y-92552085D01*
X117046213Y-92534402D01*
X117067378Y-92520413D01*
X117116217Y-92507163D01*
X117169462Y-92496913D01*
X117305204Y-92472654D01*
X117635041Y-92579911D01*
X118330466Y-92790910D01*
X119039942Y-92975932D01*
X119765617Y-93135284D01*
X120509637Y-93269274D01*
X121274150Y-93378206D01*
X122061302Y-93462388D01*
X122873241Y-93522126D01*
X123712114Y-93557727D01*
X124568327Y-93569495D01*
X124759187Y-93568695D01*
X124969275Y-93566337D01*
X125186945Y-93562652D01*
X125400551Y-93557867D01*
X125598447Y-93552213D01*
X125768986Y-93545917D01*
X125769942Y-93545876D01*
X126026959Y-93536192D01*
X126280090Y-93529188D01*
X126524613Y-93524859D01*
X126755805Y-93523198D01*
X126968944Y-93524202D01*
X127159308Y-93527863D01*
X127322175Y-93534178D01*
X127452822Y-93543140D01*
X127498231Y-93547843D01*
X127969674Y-93619749D01*
X128419813Y-93721894D01*
X128851214Y-93855472D01*
X129266444Y-94021675D01*
X129668069Y-94221697D01*
X130058655Y-94456733D01*
X130440770Y-94727974D01*
X130816979Y-95036616D01*
X130943934Y-95150225D01*
X131191756Y-95390460D01*
X131446240Y-95664531D01*
X131708219Y-95973421D01*
X131978523Y-96318110D01*
X132257984Y-96699579D01*
X132262015Y-96705256D01*
X132381768Y-96871869D01*
X132498792Y-97030737D01*
X132610821Y-97179068D01*
X132715590Y-97314069D01*
X132810833Y-97432948D01*
X132894285Y-97532914D01*
X132963679Y-97611174D01*
X133016750Y-97664937D01*
X133051232Y-97691410D01*
X133063000Y-97692308D01*
X133061931Y-97671571D01*
X133054818Y-97616420D01*
X133042298Y-97530939D01*
X133025010Y-97419216D01*
X133003591Y-97285338D01*
X132978678Y-97133389D01*
X132950911Y-96967457D01*
X132937980Y-96891231D01*
X132908859Y-96719667D01*
X132881893Y-96559658D01*
X132857775Y-96415402D01*
X132837198Y-96291098D01*
X132820856Y-96190944D01*
X132809443Y-96119140D01*
X132803650Y-96079883D01*
X132803061Y-96074106D01*
X132817751Y-96073212D01*
X132859684Y-96094079D01*
X132925447Y-96134233D01*
X133011629Y-96191199D01*
X133114818Y-96262501D01*
X133231602Y-96345666D01*
X133358571Y-96438218D01*
X133492312Y-96537683D01*
X133629414Y-96641586D01*
X133766466Y-96747453D01*
X133900055Y-96852807D01*
X134026771Y-96955176D01*
X134092461Y-97009444D01*
X134665963Y-97511672D01*
X135209328Y-98036857D01*
X135721583Y-98583918D01*
X136201752Y-99151770D01*
X136648861Y-99739331D01*
X136975450Y-100212769D01*
X137117692Y-100431383D01*
X137244146Y-100632893D01*
X137360078Y-100826517D01*
X137470750Y-101021475D01*
X137581427Y-101226984D01*
X137697373Y-101452263D01*
X137795451Y-101648846D01*
X138064804Y-102227546D01*
X138298554Y-102801679D01*
X138498325Y-103376887D01*
X138665741Y-103958818D01*
X138802426Y-104553115D01*
X138910005Y-105165424D01*
X138990037Y-105800769D01*
X139000727Y-105931635D01*
X139009562Y-106094181D01*
X139016506Y-106281298D01*
X139021523Y-106485876D01*
X139024577Y-106700805D01*
X139025631Y-106918978D01*
X139024650Y-107133283D01*
X139021597Y-107336613D01*
X139016436Y-107521857D01*
X139009130Y-107681907D01*
X139000235Y-107803461D01*
X138918572Y-108490277D01*
X138803112Y-109168418D01*
X138653272Y-109839583D01*
X138468469Y-110505475D01*
X138248119Y-111167794D01*
X137991638Y-111828240D01*
X137698445Y-112488515D01*
X137367954Y-113150318D01*
X136999584Y-113815351D01*
X136853434Y-114062798D01*
X136792221Y-114165727D01*
X136739145Y-114256867D01*
X136697088Y-114331105D01*
X136668935Y-114383332D01*
X136657570Y-114408437D01*
X136657619Y-114409824D01*
X136673040Y-114399080D01*
X136711046Y-114364436D01*
X136767176Y-114310195D01*
X136836969Y-114240661D01*
X136907998Y-114168334D01*
X137244496Y-113796726D01*
X137565088Y-113390720D01*
X137869105Y-112951900D01*
X138155879Y-112481852D01*
X138424741Y-111982160D01*
X138675024Y-111454409D01*
X138906059Y-110900185D01*
X139117177Y-110321071D01*
X139307711Y-109718653D01*
X139476993Y-109094516D01*
X139624353Y-108450245D01*
X139749124Y-107787425D01*
X139834675Y-107227077D01*
X139910576Y-106574023D01*
X139963291Y-105897674D01*
X139992734Y-105206252D01*
X139998818Y-104507982D01*
X139981455Y-103811088D01*
X139940558Y-103123793D01*
X139884434Y-102528077D01*
X139786897Y-101789425D01*
X139660788Y-101062914D01*
X139506834Y-100350424D01*
X139325761Y-99653835D01*
X139118292Y-98975025D01*
X138885155Y-98315874D01*
X138627073Y-97678263D01*
X138344772Y-97064070D01*
X138038977Y-96475176D01*
X137710414Y-95913460D01*
X137359807Y-95380801D01*
X136987883Y-94879080D01*
X136882048Y-94746885D01*
X136833543Y-94685829D01*
X136797824Y-94637986D01*
X136779652Y-94609896D01*
X136778966Y-94605231D01*
X136802456Y-94617114D01*
X136850682Y-94650028D01*
X136918461Y-94699869D01*
X137000607Y-94762534D01*
X137091935Y-94833920D01*
X137187262Y-94909923D01*
X137281401Y-94986439D01*
X137369169Y-95059367D01*
X137445381Y-95124601D01*
X137504853Y-95178039D01*
X137515732Y-95188340D01*
X137577308Y-95251398D01*
X137646460Y-95330066D01*
X137724791Y-95426538D01*
X137813904Y-95543004D01*
X137915401Y-95681657D01*
X138030886Y-95844689D01*
X138161962Y-96034291D01*
X138310231Y-96252656D01*
X138477296Y-96501977D01*
X138487536Y-96517343D01*
X138674505Y-96800492D01*
X138844562Y-97063838D01*
X139001741Y-97314284D01*
X139150076Y-97558734D01*
X139293600Y-97804090D01*
X139436346Y-98057255D01*
X139582348Y-98325133D01*
X139735639Y-98614625D01*
X139900253Y-98932635D01*
X139910458Y-98952538D01*
X139998442Y-99123890D01*
X140087191Y-99296113D01*
X140173741Y-99463498D01*
X140255127Y-99620335D01*
X140328385Y-99760912D01*
X140390550Y-99879520D01*
X140438657Y-99970448D01*
X140448081Y-99988077D01*
X140682489Y-100414185D01*
X140910629Y-100805704D01*
X141134962Y-101166136D01*
X141357953Y-101498978D01*
X141582064Y-101807733D01*
X141809758Y-102095900D01*
X142043498Y-102366980D01*
X142285748Y-102624472D01*
X142346005Y-102685213D01*
X142574916Y-102905387D01*
X142790128Y-103094635D01*
X142996340Y-103256510D01*
X143198248Y-103394563D01*
X143400550Y-103512347D01*
X143519769Y-103572702D01*
X143732375Y-103666260D01*
X143930106Y-103733807D01*
X144124561Y-103778075D01*
X144327337Y-103801796D01*
X144517949Y-103807846D01*
X144618880Y-103807489D01*
X144687107Y-103805732D01*
X144729003Y-103801543D01*
X144750938Y-103793892D01*
X144759285Y-103781748D01*
X144760461Y-103768611D01*
X144746466Y-103735914D01*
X144700829Y-103706544D01*
X144677423Y-103696586D01*
X144435851Y-103588716D01*
X144188848Y-103455375D01*
X143945154Y-103302463D01*
X143713512Y-103135882D01*
X143502663Y-102961532D01*
X143321350Y-102785316D01*
X143311120Y-102774290D01*
X143133954Y-102570385D01*
X142969910Y-102356330D01*
X142817371Y-102128793D01*
X142674722Y-101884441D01*
X142540345Y-101619940D01*
X142412625Y-101331958D01*
X142289944Y-101017162D01*
X142170687Y-100672217D01*
X142053236Y-100293793D01*
X141974062Y-100017385D01*
X141860382Y-99611542D01*
X141754242Y-99239127D01*
X141654197Y-98895539D01*
X141558802Y-98576175D01*
X141466614Y-98276434D01*
X141376187Y-97991714D01*
X141286078Y-97717413D01*
X141194841Y-97448929D01*
X141101032Y-97181660D01*
X141003207Y-96911004D01*
X140974394Y-96832615D01*
X140731691Y-96205782D01*
X140467709Y-95582199D01*
X140185730Y-94968670D01*
X139889039Y-94372002D01*
X139580919Y-93798998D01*
X139264654Y-93256462D01*
X139211461Y-93169859D01*
X130201624Y-93169859D01*
X130195094Y-93177628D01*
X130179885Y-93173743D01*
X130154667Y-93165110D01*
X130098170Y-93146342D01*
X130016281Y-93119375D01*
X129914886Y-93086146D01*
X129799873Y-93048592D01*
X129764692Y-93037130D01*
X129668987Y-93005987D01*
X129585905Y-92979256D01*
X129511179Y-92955928D01*
X129440542Y-92934996D01*
X129369727Y-92915451D01*
X129294466Y-92896286D01*
X129210494Y-92876492D01*
X129113543Y-92855062D01*
X128999345Y-92830988D01*
X128863634Y-92803261D01*
X128702143Y-92770874D01*
X128510605Y-92732818D01*
X128299308Y-92690969D01*
X127990455Y-92630167D01*
X127714925Y-92576963D01*
X127467821Y-92530809D01*
X127244248Y-92491158D01*
X127039308Y-92457462D01*
X126848105Y-92429174D01*
X126665744Y-92405747D01*
X126487328Y-92386633D01*
X126307962Y-92371284D01*
X126122748Y-92359154D01*
X125926790Y-92349694D01*
X125715193Y-92342358D01*
X125483061Y-92336597D01*
X125225496Y-92331865D01*
X125065692Y-92329422D01*
X124738852Y-92323781D01*
X124447296Y-92316795D01*
X124187250Y-92308291D01*
X123954940Y-92298097D01*
X123746589Y-92286039D01*
X123558424Y-92271944D01*
X123386670Y-92255639D01*
X123336538Y-92250150D01*
X122934180Y-92196071D01*
X122561367Y-92127366D01*
X122210666Y-92042043D01*
X121874644Y-91938112D01*
X121545868Y-91813582D01*
X121294769Y-91703239D01*
X121161242Y-91642661D01*
X121045430Y-91594293D01*
X120937352Y-91555017D01*
X120827026Y-91521712D01*
X120704467Y-91491262D01*
X120559695Y-91460546D01*
X120448679Y-91438910D01*
X120288225Y-91407860D01*
X120158651Y-91381490D01*
X120052315Y-91357917D01*
X119961575Y-91335257D01*
X119878788Y-91311629D01*
X119796313Y-91285148D01*
X119725857Y-91260797D01*
X119553944Y-91200061D01*
X119566947Y-91139300D01*
X119578252Y-91094527D01*
X119587609Y-91070262D01*
X119587836Y-91069997D01*
X119608390Y-91067278D01*
X119663948Y-91062979D01*
X119750478Y-91057333D01*
X119863950Y-91050575D01*
X120000334Y-91042942D01*
X120155597Y-91034667D01*
X120325710Y-91025987D01*
X120436581Y-91020518D01*
X120645200Y-91010334D01*
X120818096Y-91001581D01*
X120958574Y-90993718D01*
X121069936Y-90986202D01*
X121155487Y-90978493D01*
X121218532Y-90970049D01*
X121262373Y-90960327D01*
X121290316Y-90948787D01*
X121305664Y-90934886D01*
X121311721Y-90918083D01*
X121311792Y-90897837D01*
X121309600Y-90877402D01*
X121305239Y-90867566D01*
X121292669Y-90854867D01*
X121269688Y-90838202D01*
X121234094Y-90816471D01*
X121183683Y-90788574D01*
X121116256Y-90753411D01*
X121029608Y-90709880D01*
X120921538Y-90656881D01*
X120789845Y-90593313D01*
X120632324Y-90518076D01*
X120446776Y-90430069D01*
X120230997Y-90328191D01*
X119982785Y-90211343D01*
X119884063Y-90164929D01*
X119663449Y-90061163D01*
X119453430Y-89962233D01*
X119256637Y-89869388D01*
X119075703Y-89783878D01*
X118913259Y-89706951D01*
X118771939Y-89639855D01*
X118654375Y-89583841D01*
X118563199Y-89540155D01*
X118501044Y-89510047D01*
X118470541Y-89494766D01*
X118467798Y-89493073D01*
X118486955Y-89487036D01*
X118539187Y-89471953D01*
X118619883Y-89449118D01*
X118724435Y-89419828D01*
X118848232Y-89385375D01*
X118986666Y-89347055D01*
X119047387Y-89330305D01*
X119190723Y-89290645D01*
X119321480Y-89254159D01*
X119435018Y-89222165D01*
X119526696Y-89195982D01*
X119591872Y-89176930D01*
X119625907Y-89166329D01*
X119629784Y-89164729D01*
X119628646Y-89161720D01*
X119621308Y-89154758D01*
X119606115Y-89142711D01*
X119581408Y-89124446D01*
X119545532Y-89098831D01*
X119496829Y-89064735D01*
X119433643Y-89021024D01*
X119354317Y-88966568D01*
X119257193Y-88900234D01*
X119140615Y-88820890D01*
X119002927Y-88727404D01*
X118842471Y-88618644D01*
X118657590Y-88493478D01*
X118446628Y-88350774D01*
X118207927Y-88189399D01*
X117939831Y-88008222D01*
X117699692Y-87845975D01*
X117503465Y-87713343D01*
X117316545Y-87586878D01*
X117141476Y-87468309D01*
X116980802Y-87359365D01*
X116837069Y-87261775D01*
X116712821Y-87177269D01*
X116610602Y-87107575D01*
X116532958Y-87054424D01*
X116482432Y-87019543D01*
X116461570Y-87004663D01*
X116461278Y-87004407D01*
X116475027Y-86994685D01*
X116522078Y-86974567D01*
X116598485Y-86945476D01*
X116700303Y-86908839D01*
X116823589Y-86866080D01*
X116964398Y-86818624D01*
X117091394Y-86776805D01*
X117242379Y-86727267D01*
X117380879Y-86681208D01*
X117502673Y-86640080D01*
X117603540Y-86605335D01*
X117679259Y-86578422D01*
X117725612Y-86560795D01*
X117738769Y-86554181D01*
X117721212Y-86544743D01*
X117671066Y-86522585D01*
X117592116Y-86489266D01*
X117488150Y-86446343D01*
X117362953Y-86395373D01*
X117220312Y-86337913D01*
X117064013Y-86275522D01*
X116986538Y-86244789D01*
X116825100Y-86180566D01*
X116675541Y-86120466D01*
X116541647Y-86066056D01*
X116427205Y-86018901D01*
X116336000Y-85980569D01*
X116271820Y-85952624D01*
X116238449Y-85936634D01*
X116234485Y-85933688D01*
X116250588Y-85915763D01*
X116294525Y-85882589D01*
X116360097Y-85838122D01*
X116441106Y-85786316D01*
X116531353Y-85731126D01*
X116624640Y-85676508D01*
X116714768Y-85626417D01*
X116722769Y-85622129D01*
X117088532Y-85446280D01*
X117481608Y-85293406D01*
X117897441Y-85163867D01*
X118331476Y-85058024D01*
X118779158Y-84976235D01*
X119235932Y-84918863D01*
X119697242Y-84886265D01*
X120158533Y-84878802D01*
X120615251Y-84896834D01*
X121062839Y-84940722D01*
X121496744Y-85010824D01*
X121912409Y-85107501D01*
X122187508Y-85190324D01*
X122287917Y-85226726D01*
X122405322Y-85274231D01*
X122532704Y-85329497D01*
X122663048Y-85389180D01*
X122789336Y-85449939D01*
X122904551Y-85508430D01*
X123001677Y-85561311D01*
X123073696Y-85605237D01*
X123102077Y-85626021D01*
X123160692Y-85674748D01*
X121765320Y-85675451D01*
X121536041Y-85675715D01*
X121318798Y-85676254D01*
X121116656Y-85677043D01*
X120932676Y-85678055D01*
X120769923Y-85679265D01*
X120631460Y-85680648D01*
X120520349Y-85682177D01*
X120439654Y-85683827D01*
X120392439Y-85685572D01*
X120380865Y-85687070D01*
X120408882Y-85700704D01*
X120472112Y-85722227D01*
X120567654Y-85750901D01*
X120692607Y-85785988D01*
X120844070Y-85826750D01*
X121019144Y-85872450D01*
X121214927Y-85922350D01*
X121428518Y-85975712D01*
X121657018Y-86031799D01*
X121897526Y-86089873D01*
X122147140Y-86149196D01*
X122402961Y-86209031D01*
X122662088Y-86268641D01*
X122715376Y-86280771D01*
X122905123Y-86323962D01*
X123093653Y-86367024D01*
X123275288Y-86408649D01*
X123444347Y-86447530D01*
X123595152Y-86482358D01*
X123722023Y-86511828D01*
X123819281Y-86534631D01*
X123854830Y-86543076D01*
X124326639Y-86663783D01*
X124762787Y-86791886D01*
X125166181Y-86928485D01*
X125539728Y-87074684D01*
X125886333Y-87231585D01*
X126208903Y-87400290D01*
X126382958Y-87502054D01*
X126496969Y-87574753D01*
X126626084Y-87662540D01*
X126760731Y-87758440D01*
X126891336Y-87855481D01*
X127008325Y-87946689D01*
X127102127Y-88025091D01*
X127107461Y-88029816D01*
X127150054Y-88069036D01*
X127165017Y-88088087D01*
X127154761Y-88091793D01*
X127136769Y-88088495D01*
X127108645Y-88082172D01*
X127046191Y-88068091D01*
X126953191Y-88047104D01*
X126833430Y-88020069D01*
X126690695Y-87987838D01*
X126528770Y-87951267D01*
X126351439Y-87911210D01*
X126162490Y-87868522D01*
X126101849Y-87854821D01*
X125911801Y-87812014D01*
X125733578Y-87772131D01*
X125570755Y-87735954D01*
X125426903Y-87704262D01*
X125305598Y-87677840D01*
X125210411Y-87657467D01*
X125144917Y-87643925D01*
X125112689Y-87637997D01*
X125109925Y-87637869D01*
X125124376Y-87649018D01*
X125168095Y-87677409D01*
X125236738Y-87720352D01*
X125325963Y-87775156D01*
X125431427Y-87839130D01*
X125539153Y-87903826D01*
X125873176Y-88104345D01*
X126175795Y-88287869D01*
X126449824Y-88456273D01*
X126698077Y-88611432D01*
X126923368Y-88755222D01*
X127128513Y-88889516D01*
X127316325Y-89016191D01*
X127489619Y-89137120D01*
X127651210Y-89254180D01*
X127803911Y-89369244D01*
X127950538Y-89484188D01*
X128093904Y-89600886D01*
X128123461Y-89625459D01*
X128301180Y-89780934D01*
X128486770Y-89956363D01*
X128673350Y-90144427D01*
X128854037Y-90337808D01*
X129021952Y-90529186D01*
X129170212Y-90711242D01*
X129269209Y-90844077D01*
X129320394Y-90917417D01*
X129350221Y-90963184D01*
X129360812Y-90985041D01*
X129354291Y-90986650D01*
X129350687Y-90984599D01*
X129329518Y-90974630D01*
X129275970Y-90950480D01*
X129193452Y-90913661D01*
X129085376Y-90865681D01*
X128955149Y-90808052D01*
X128806182Y-90742283D01*
X128641884Y-90669885D01*
X128465666Y-90592367D01*
X128397545Y-90562435D01*
X127463908Y-90152326D01*
X127428480Y-90195355D01*
X127391754Y-90245640D01*
X127368501Y-90283410D01*
X127355411Y-90317369D01*
X127366105Y-90344194D01*
X127395121Y-90371333D01*
X127426240Y-90397471D01*
X127481432Y-90443881D01*
X127554879Y-90505666D01*
X127640761Y-90577932D01*
X127726261Y-90649892D01*
X127823668Y-90731725D01*
X127942603Y-90831392D01*
X128074537Y-90941761D01*
X128210939Y-91055698D01*
X128343277Y-91166070D01*
X128406769Y-91218949D01*
X128727527Y-91492307D01*
X129015697Y-91751678D01*
X129273967Y-91999890D01*
X129505023Y-92239772D01*
X129711550Y-92474153D01*
X129896235Y-92705862D01*
X130061765Y-92937729D01*
X130114041Y-93016919D01*
X130162987Y-93094006D01*
X130191551Y-93143485D01*
X130201624Y-93169859D01*
X139211461Y-93169859D01*
X139190025Y-93134961D01*
X139130272Y-93038109D01*
X139078900Y-92953764D01*
X139038989Y-92887073D01*
X139013616Y-92843180D01*
X139005861Y-92827232D01*
X139005878Y-92827231D01*
X139029004Y-92835136D01*
X139084463Y-92857911D01*
X139169062Y-92894145D01*
X139279610Y-92942428D01*
X139412915Y-93001349D01*
X139565784Y-93069499D01*
X139735027Y-93145466D01*
X139917451Y-93227840D01*
X140100538Y-93310964D01*
X140421338Y-93455768D01*
X140711105Y-93583778D01*
X140973441Y-93696301D01*
X141211948Y-93794643D01*
X141430225Y-93880109D01*
X141631873Y-93954004D01*
X141820494Y-94017635D01*
X141999689Y-94072307D01*
X142173058Y-94119327D01*
X142344202Y-94159999D01*
X142516723Y-94195630D01*
X142565648Y-94204859D01*
X142752659Y-94234826D01*
X142950960Y-94258340D01*
X143153202Y-94275132D01*
X143352032Y-94284932D01*
X143540099Y-94287471D01*
X143710052Y-94282479D01*
X143854540Y-94269687D01*
X143939846Y-94255239D01*
X144008231Y-94240181D01*
X143920308Y-94217371D01*
X143685605Y-94154278D01*
X143480503Y-94093951D01*
X143295970Y-94033283D01*
X143122973Y-93969172D01*
X142952479Y-93898512D01*
X142821961Y-93839882D01*
X142655266Y-93760657D01*
X142493466Y-93678895D01*
X142333717Y-93592639D01*
X142173174Y-93499935D01*
X142008993Y-93398828D01*
X141838332Y-93287362D01*
X141658344Y-93163581D01*
X141466188Y-93025532D01*
X141259018Y-92871257D01*
X141033990Y-92698803D01*
X140788261Y-92506214D01*
X140518986Y-92291534D01*
X140227538Y-92056230D01*
X140104613Y-91957439D01*
X139956535Y-91840000D01*
X139789436Y-91708686D01*
X139609445Y-91568270D01*
X139422691Y-91423525D01*
X139235304Y-91279222D01*
X139053414Y-91140135D01*
X138951108Y-91062413D01*
X138775342Y-90929256D01*
X138590161Y-90788975D01*
X138401714Y-90646227D01*
X138216149Y-90505669D01*
X138039613Y-90371958D01*
X137878256Y-90249749D01*
X137738225Y-90143701D01*
X137667291Y-90089987D01*
X137268295Y-89790930D01*
X136893921Y-89516896D01*
X136540762Y-89265677D01*
X136205415Y-89035065D01*
X135884474Y-88822853D01*
X135574533Y-88626832D01*
X135272188Y-88444794D01*
X134974034Y-88274531D01*
X134676665Y-88113835D01*
X134405077Y-87974658D01*
X134228946Y-87887712D01*
X134062830Y-87808288D01*
X133901811Y-87734434D01*
X133740969Y-87664201D01*
X133575384Y-87595637D01*
X133400138Y-87526794D01*
X133210310Y-87455719D01*
X133000981Y-87380462D01*
X132767232Y-87299074D01*
X132504143Y-87209604D01*
X132317794Y-87147099D01*
X132143776Y-87088950D01*
X131981517Y-87034681D01*
X131834695Y-86985526D01*
X131706989Y-86942719D01*
X131602079Y-86907493D01*
X131523643Y-86881084D01*
X131475359Y-86864723D01*
X131460733Y-86859620D01*
X131461619Y-86840828D01*
X131469797Y-86799963D01*
X131481532Y-86752441D01*
X131493092Y-86713680D01*
X131499513Y-86699513D01*
X131519980Y-86701523D01*
X131574361Y-86711181D01*
X131658435Y-86727623D01*
X131767975Y-86749984D01*
X131898760Y-86777401D01*
X132046564Y-86809009D01*
X132207165Y-86843945D01*
X132229029Y-86848745D01*
X132504473Y-86908993D01*
X132763359Y-86964968D01*
X133009943Y-87017492D01*
X133248484Y-87067392D01*
X133483240Y-87115491D01*
X133718467Y-87162615D01*
X133958425Y-87209587D01*
X134207370Y-87257232D01*
X134469560Y-87306374D01*
X134749253Y-87357839D01*
X135050707Y-87412450D01*
X135378179Y-87471032D01*
X135735928Y-87534410D01*
X136104923Y-87599324D01*
X136391037Y-87649035D01*
X136679829Y-87698287D01*
X136967628Y-87746507D01*
X137250761Y-87793119D01*
X137525558Y-87837548D01*
X137788345Y-87879219D01*
X138035452Y-87917558D01*
X138263206Y-87951989D01*
X138467935Y-87981938D01*
X138645968Y-88006830D01*
X138793633Y-88026089D01*
X138907257Y-88039142D01*
X138925970Y-88040995D01*
X139043941Y-88048354D01*
X139173226Y-88048393D01*
X139319081Y-88040712D01*
X139486763Y-88024910D01*
X139681531Y-88000585D01*
X139908640Y-87967338D01*
X139924692Y-87964852D01*
X140048641Y-87945454D01*
X140138294Y-87930711D01*
X140197980Y-87919363D01*
X140232030Y-87910148D01*
X140244775Y-87901806D01*
X140240543Y-87893078D01*
X140223666Y-87882701D01*
X140217704Y-87879559D01*
X140185930Y-87864767D01*
X140122823Y-87836927D01*
X140033100Y-87798066D01*
X139921480Y-87750209D01*
X139792683Y-87695382D01*
X139651426Y-87635611D01*
X139553396Y-87594327D01*
X139296517Y-87485952D01*
X139070579Y-87389582D01*
X138870260Y-87302664D01*
X138690238Y-87222643D01*
X138525192Y-87146965D01*
X138369799Y-87073075D01*
X138218738Y-86998420D01*
X138066685Y-86920444D01*
X137908321Y-86836595D01*
X137738321Y-86744318D01*
X137551366Y-86641058D01*
X137453077Y-86586304D01*
X137253143Y-86476704D01*
X137029868Y-86357813D01*
X136790580Y-86233303D01*
X136542606Y-86106847D01*
X136293273Y-85982116D01*
X136049909Y-85862783D01*
X135819842Y-85752520D01*
X135610399Y-85654999D01*
X135460154Y-85587541D01*
X134703129Y-85271429D01*
X133953172Y-84991798D01*
X133208231Y-84748430D01*
X132466251Y-84541104D01*
X131725180Y-84369601D01*
X130982963Y-84233701D01*
X130237547Y-84133186D01*
X129486878Y-84067834D01*
X128728902Y-84037426D01*
X127961567Y-84041744D01*
X127182818Y-84080567D01*
X126390601Y-84153676D01*
X125582864Y-84260851D01*
X124757553Y-84401872D01*
X124619662Y-84428356D01*
X124483608Y-84454662D01*
X124376993Y-84474191D01*
X124290926Y-84487789D01*
X124216521Y-84496302D01*
X124144887Y-84500575D01*
X124067138Y-84501456D01*
X123974383Y-84499790D01*
X123893385Y-84497490D01*
X123774105Y-84492547D01*
X123656208Y-84484482D01*
X123536304Y-84472600D01*
X123411003Y-84456206D01*
X123276915Y-84434605D01*
X123130650Y-84407101D01*
X122968818Y-84373000D01*
X122788028Y-84331607D01*
X122584890Y-84282226D01*
X122356016Y-84224162D01*
X122098013Y-84156720D01*
X121807493Y-84079206D01*
X121661670Y-84039886D01*
X121461590Y-83985473D01*
X121296844Y-83939913D01*
X121164898Y-83902420D01*
X121063217Y-83872212D01*
X120989266Y-83848502D01*
X120940509Y-83830508D01*
X120914411Y-83817444D01*
X120908438Y-83808527D01*
X120909439Y-83807167D01*
X120939271Y-83785909D01*
X120997363Y-83750451D01*
X121077179Y-83704375D01*
X121172181Y-83651260D01*
X121275832Y-83594686D01*
X121381596Y-83538234D01*
X121482934Y-83485483D01*
X121573309Y-83440012D01*
X121626923Y-83414258D01*
X122047850Y-83231051D01*
X122475490Y-83071819D01*
X122912962Y-82936018D01*
X123363386Y-82823107D01*
X123829883Y-82732543D01*
X124315573Y-82663782D01*
X124823577Y-82616283D01*
X125357015Y-82589503D01*
X125919006Y-82582900D01*
X126362211Y-82590894D01*
X126566453Y-82597449D01*
X126767131Y-82604942D01*
X126967431Y-82613599D01*
X127170540Y-82623646D01*
X127379644Y-82635308D01*
X127597930Y-82648812D01*
X127828584Y-82664384D01*
X128074794Y-82682249D01*
X128339745Y-82702634D01*
X128626624Y-82725765D01*
X128938618Y-82751867D01*
X129278914Y-82781167D01*
X129650698Y-82813890D01*
X130057156Y-82850263D01*
X130194538Y-82862662D01*
X130437095Y-82884588D01*
X130671286Y-82905749D01*
X130893759Y-82925841D01*
X131101157Y-82944562D01*
X131290125Y-82961610D01*
X131457309Y-82976682D01*
X131599353Y-82989475D01*
X131712901Y-82999688D01*
X131794599Y-83007016D01*
X131841092Y-83011159D01*
X131843831Y-83011400D01*
X131988662Y-83024109D01*
X131948105Y-82967153D01*
X131918360Y-82931879D01*
X131863771Y-82873628D01*
X131788094Y-82796049D01*
X131695087Y-82702791D01*
X131588507Y-82597501D01*
X131472111Y-82483830D01*
X131349656Y-82365427D01*
X131224898Y-82245939D01*
X131101596Y-82129017D01*
X130983506Y-82018308D01*
X130874385Y-81917463D01*
X130777990Y-81830129D01*
X130770446Y-81823395D01*
X130174705Y-81314207D01*
X129571119Y-80841793D01*
X128960123Y-80406392D01*
X128342149Y-80008244D01*
X127717630Y-79647589D01*
X127086999Y-79324666D01*
X126450688Y-79039714D01*
X125809131Y-78792974D01*
X125162761Y-78584686D01*
X124690529Y-78457647D01*
X124360840Y-78380062D01*
X124048064Y-78314823D01*
X123740109Y-78259889D01*
X123424878Y-78213218D01*
X123090278Y-78172768D01*
X122867615Y-78149900D01*
X122744897Y-78140866D01*
X122590146Y-78133937D01*
X122410348Y-78129076D01*
X122212489Y-78126245D01*
X122003555Y-78125407D01*
X121790530Y-78126522D01*
X121580401Y-78129554D01*
X121380153Y-78134464D01*
X121196772Y-78141215D01*
X121037244Y-78149768D01*
X120908553Y-78160086D01*
X120904000Y-78160550D01*
X120329335Y-78231808D01*
X119768803Y-78326410D01*
X119218290Y-78445673D01*
X118673682Y-78590917D01*
X118130866Y-78763459D01*
X117585728Y-78964619D01*
X117034155Y-79195716D01*
X116472032Y-79458067D01*
X115895247Y-79752993D01*
X115833769Y-79785848D01*
X115668380Y-79875375D01*
X115496005Y-79970312D01*
X115312744Y-80072883D01*
X115114700Y-80185313D01*
X114897973Y-80309824D01*
X114658665Y-80448642D01*
X114392877Y-80603989D01*
X114173000Y-80733164D01*
X113956779Y-80859918D01*
X113769129Y-80968687D01*
X113605358Y-81061995D01*
X113460774Y-81142364D01*
X113330686Y-81212320D01*
X113210402Y-81274386D01*
X113095231Y-81331086D01*
X112980480Y-81384944D01*
X112863923Y-81437395D01*
X112361703Y-81641212D01*
X111860210Y-81807746D01*
X111354567Y-81938384D01*
X110839900Y-82034517D01*
X110695154Y-82055220D01*
X110562505Y-82068971D01*
X110399114Y-82079553D01*
X110213021Y-82086966D01*
X110012265Y-82091210D01*
X109804886Y-82092284D01*
X109598922Y-82090187D01*
X109402413Y-82084920D01*
X109223399Y-82076481D01*
X109069918Y-82064870D01*
X108985538Y-82055338D01*
X108836320Y-82033649D01*
X108679017Y-82007972D01*
X108521122Y-81979774D01*
X108370129Y-81950521D01*
X108233529Y-81921680D01*
X108118816Y-81894718D01*
X108033484Y-81871100D01*
X108017724Y-81865926D01*
X107825203Y-81784816D01*
X107662451Y-81682480D01*
X107523924Y-81554428D01*
X107404079Y-81396173D01*
X107370940Y-81342136D01*
X107163927Y-81010845D01*
X106951720Y-80715971D01*
X106731768Y-80454944D01*
X106501519Y-80225195D01*
X106258420Y-80024153D01*
X105999922Y-79849249D01*
X105753038Y-79712580D01*
X105484014Y-79593825D01*
X105194967Y-79498217D01*
X104880989Y-79424347D01*
X104584849Y-79376809D01*
X104481019Y-79361575D01*
X104404725Y-79345324D01*
X104344494Y-79324746D01*
X104288852Y-79296532D01*
X104272234Y-79286631D01*
X104217723Y-79253205D01*
X104184599Y-79232662D01*
X104127634Y-79232662D01*
X104127591Y-79232733D01*
X104100382Y-79254507D01*
X104044535Y-79284827D01*
X103968532Y-79320036D01*
X103880856Y-79356472D01*
X103789991Y-79390478D01*
X103704419Y-79418393D01*
X103683139Y-79424462D01*
X103528653Y-79460606D01*
X103376730Y-79482038D01*
X103216675Y-79489390D01*
X103037792Y-79483299D01*
X102894423Y-79471254D01*
X102678511Y-79434259D01*
X102452110Y-79367172D01*
X102224333Y-79273709D01*
X102004291Y-79157585D01*
X101810038Y-79029160D01*
X101749961Y-78984079D01*
X101704217Y-78948459D01*
X101680120Y-78928050D01*
X101678154Y-78925539D01*
X101694749Y-78911934D01*
X101740041Y-78885292D01*
X101807286Y-78849039D01*
X101889742Y-78806602D01*
X101980667Y-78761407D01*
X102073316Y-78716882D01*
X102160949Y-78676454D01*
X102214534Y-78652923D01*
X102385975Y-78584099D01*
X102536679Y-78534337D01*
X102678254Y-78500772D01*
X102822309Y-78480543D01*
X102948154Y-78471993D01*
X103147136Y-78474400D01*
X103321700Y-78501774D01*
X103479667Y-78556994D01*
X103628855Y-78642941D01*
X103777086Y-78762496D01*
X103803514Y-78787091D01*
X103869696Y-78854601D01*
X103936904Y-78931348D01*
X104000548Y-79011019D01*
X104056034Y-79087300D01*
X104098771Y-79153877D01*
X104124169Y-79204435D01*
X104127634Y-79232662D01*
X104184599Y-79232662D01*
X104178800Y-79229066D01*
X104165010Y-79220199D01*
X104160561Y-79200496D01*
X104151768Y-79149263D01*
X104139659Y-79073464D01*
X104125260Y-78980066D01*
X104109599Y-78876034D01*
X104093704Y-78768334D01*
X104078601Y-78663930D01*
X104065318Y-78569789D01*
X104054883Y-78492875D01*
X104048323Y-78440155D01*
X104046664Y-78418593D01*
X104046758Y-78418431D01*
X104067206Y-78423063D01*
X104120750Y-78439387D01*
X104203630Y-78466106D01*
X104312090Y-78501923D01*
X104442369Y-78545541D01*
X104590709Y-78595664D01*
X104753350Y-78650994D01*
X104926535Y-78710234D01*
X105106503Y-78772088D01*
X105289497Y-78835259D01*
X105471758Y-78898449D01*
X105649526Y-78960362D01*
X105819042Y-79019701D01*
X105976548Y-79075169D01*
X106118286Y-79125469D01*
X106240495Y-79169305D01*
X106339417Y-79205378D01*
X106411294Y-79232393D01*
X106445538Y-79246076D01*
X106828067Y-79421587D01*
X107180473Y-79611759D01*
X107325820Y-79699761D01*
X107555402Y-79839473D01*
X107764696Y-79957428D01*
X107962534Y-80057928D01*
X108157748Y-80145278D01*
X108359169Y-80223779D01*
X108506846Y-80275189D01*
X108875381Y-80380815D01*
X109247767Y-80452600D01*
X109625687Y-80490408D01*
X110010825Y-80494101D01*
X110404865Y-80463543D01*
X110809489Y-80398595D01*
X111226383Y-80299122D01*
X111657228Y-80164984D01*
X112103710Y-79996046D01*
X112146276Y-79978482D01*
X112216299Y-79948669D01*
X112297162Y-79912821D01*
X112390544Y-79870108D01*
X112498124Y-79819699D01*
X112621582Y-79760764D01*
X112762598Y-79692473D01*
X112922850Y-79613995D01*
X113104019Y-79524499D01*
X113307783Y-79423156D01*
X113535823Y-79309135D01*
X113789817Y-79181606D01*
X114071445Y-79039737D01*
X114382387Y-78882700D01*
X114724322Y-78709663D01*
X115098929Y-78519796D01*
X115194242Y-78471449D01*
X115402920Y-78365289D01*
X115600787Y-78264056D01*
X115785173Y-78169150D01*
X115953407Y-78081974D01*
X116102818Y-78003930D01*
X116207481Y-77948692D01*
X103398526Y-77948692D01*
X103344302Y-77963278D01*
X103313359Y-77969137D01*
X103247821Y-77979719D01*
X103151806Y-77994442D01*
X103029431Y-78012718D01*
X102884815Y-78033964D01*
X102722077Y-78057593D01*
X102545336Y-78083021D01*
X102358709Y-78109662D01*
X102166315Y-78136932D01*
X101972272Y-78164245D01*
X101780700Y-78191015D01*
X101595716Y-78216658D01*
X101421439Y-78240589D01*
X101261987Y-78262222D01*
X101121479Y-78280972D01*
X101004033Y-78296254D01*
X100974769Y-78299967D01*
X100743714Y-78324515D01*
X100531700Y-78337912D01*
X100343057Y-78340137D01*
X100182120Y-78331169D01*
X100053221Y-78310990D01*
X100027154Y-78304371D01*
X99903536Y-78262186D01*
X99798520Y-78206978D01*
X99703232Y-78132246D01*
X99608796Y-78031487D01*
X99545694Y-77951653D01*
X99450300Y-77810122D01*
X99352289Y-77637311D01*
X99254877Y-77440576D01*
X99161279Y-77227277D01*
X99074712Y-77004772D01*
X98998392Y-76780418D01*
X98935535Y-76561573D01*
X98931894Y-76547328D01*
X98879564Y-76325467D01*
X98841977Y-76127239D01*
X98817526Y-75940785D01*
X98804604Y-75754246D01*
X98801489Y-75584538D01*
X98800482Y-75501356D01*
X98798447Y-75427651D01*
X98797188Y-75364469D01*
X98798509Y-75312860D01*
X98804217Y-75273870D01*
X98816114Y-75248549D01*
X98836007Y-75237945D01*
X98865700Y-75243104D01*
X98906997Y-75265076D01*
X98961704Y-75304908D01*
X99031625Y-75363649D01*
X99118565Y-75442346D01*
X99224328Y-75542048D01*
X99350720Y-75663802D01*
X99499544Y-75808656D01*
X99672607Y-75977659D01*
X99871712Y-76171859D01*
X99958834Y-76256618D01*
X100133614Y-76426355D01*
X100300215Y-76587872D01*
X100456530Y-76739142D01*
X100600452Y-76878141D01*
X100729874Y-77002842D01*
X100842691Y-77111220D01*
X100936795Y-77201250D01*
X101010080Y-77270904D01*
X101060440Y-77318159D01*
X101085767Y-77340988D01*
X101088421Y-77342823D01*
X101078976Y-77325972D01*
X101049744Y-77278810D01*
X101002286Y-77203762D01*
X100938158Y-77103250D01*
X100858920Y-76979698D01*
X100766129Y-76835527D01*
X100661344Y-76673162D01*
X100546124Y-76495024D01*
X100422026Y-76303538D01*
X100290610Y-76101126D01*
X100214220Y-75983626D01*
X100079396Y-75776093D01*
X99951072Y-75578063D01*
X99830800Y-75391964D01*
X99720136Y-75220225D01*
X99620634Y-75065275D01*
X99533849Y-74929543D01*
X99461335Y-74815457D01*
X99404647Y-74725446D01*
X99365339Y-74661938D01*
X99344965Y-74627363D01*
X99342406Y-74621542D01*
X99362829Y-74626324D01*
X99412591Y-74647098D01*
X99486643Y-74681305D01*
X99579933Y-74726385D01*
X99687409Y-74779779D01*
X99804020Y-74838926D01*
X99924715Y-74901266D01*
X100044441Y-74964241D01*
X100158148Y-75025290D01*
X100260784Y-75081852D01*
X100339769Y-75126956D01*
X100846984Y-75446055D01*
X101335067Y-75799130D01*
X101803737Y-76185928D01*
X102252715Y-76606195D01*
X102681719Y-77059678D01*
X103090467Y-77546123D01*
X103250829Y-77753308D01*
X103398526Y-77948692D01*
X116207481Y-77948692D01*
X116230736Y-77936419D01*
X116334489Y-77880844D01*
X116411407Y-77838606D01*
X116458819Y-77811107D01*
X116474055Y-77799749D01*
X116474011Y-77799694D01*
X116448269Y-77785443D01*
X116390929Y-77760273D01*
X116307273Y-77726199D01*
X116202579Y-77685233D01*
X116082126Y-77639385D01*
X115951194Y-77590670D01*
X115815062Y-77541099D01*
X115679009Y-77492684D01*
X115562891Y-77452411D01*
X114872671Y-77233897D01*
X114154247Y-77040481D01*
X113409695Y-76872563D01*
X112641092Y-76730541D01*
X111850515Y-76614814D01*
X111040038Y-76525780D01*
X110512829Y-76483059D01*
X110317259Y-76471110D01*
X110096361Y-76460685D01*
X109854296Y-76451784D01*
X109595223Y-76444411D01*
X109323304Y-76438565D01*
X109042699Y-76434251D01*
X108757568Y-76431468D01*
X108472072Y-76430219D01*
X108190372Y-76430506D01*
X107916629Y-76432330D01*
X107655002Y-76435693D01*
X107409653Y-76440596D01*
X107184742Y-76447043D01*
X106984429Y-76455033D01*
X106812876Y-76464570D01*
X106674242Y-76475654D01*
X106621385Y-76481430D01*
X106148314Y-76557217D01*
X105689799Y-76666545D01*
X105247978Y-76808598D01*
X104824989Y-76982564D01*
X104422972Y-77187627D01*
X104044064Y-77422972D01*
X103919777Y-77510544D01*
X103857460Y-77554654D01*
X103806999Y-77588121D01*
X103776732Y-77605496D01*
X103772563Y-77606769D01*
X103755355Y-77592515D01*
X103713795Y-77550979D01*
X103649590Y-77484004D01*
X103564445Y-77393430D01*
X103460063Y-77281100D01*
X103338149Y-77148855D01*
X103200409Y-76998536D01*
X103048547Y-76831984D01*
X102884267Y-76651043D01*
X102732532Y-76483308D01*
X102410582Y-76133982D01*
X102099755Y-75811112D01*
X101801582Y-75516161D01*
X101517589Y-75250590D01*
X101249305Y-75015863D01*
X100998258Y-74813441D01*
X100945461Y-74773366D01*
X100814153Y-74676411D01*
X100683539Y-74583373D01*
X100550122Y-74492145D01*
X100410405Y-74400620D01*
X100260892Y-74306688D01*
X100098087Y-74208245D01*
X99918491Y-74103180D01*
X99718608Y-73989388D01*
X99494942Y-73864760D01*
X99243996Y-73727190D01*
X98962272Y-73574568D01*
X98906878Y-73544719D01*
X98828550Y-73502507D01*
X95491092Y-73502507D01*
X95485144Y-73521614D01*
X95449996Y-73555870D01*
X95390789Y-73601777D01*
X95312663Y-73655838D01*
X95220759Y-73714555D01*
X95120217Y-73774431D01*
X95016179Y-73831967D01*
X94976461Y-73852661D01*
X94805293Y-73935333D01*
X94651603Y-73998114D01*
X94502530Y-74045742D01*
X94358549Y-74080217D01*
X94258891Y-74093917D01*
X94132811Y-74100991D01*
X93992348Y-74101734D01*
X93849540Y-74096438D01*
X93716423Y-74085397D01*
X93605036Y-74068906D01*
X93569692Y-74060960D01*
X93455791Y-74023586D01*
X93323013Y-73967094D01*
X93182577Y-73897292D01*
X93045705Y-73819987D01*
X92923615Y-73740984D01*
X92860584Y-73693954D01*
X92708322Y-73572077D01*
X92759373Y-73531177D01*
X92830105Y-73480601D01*
X92925457Y-73420769D01*
X93034240Y-73358073D01*
X93145265Y-73298903D01*
X93247343Y-73249650D01*
X93268656Y-73240278D01*
X93411102Y-73183112D01*
X93541087Y-73141113D01*
X93670234Y-73111882D01*
X93810166Y-73093022D01*
X93972507Y-73082133D01*
X94048385Y-73079412D01*
X94262817Y-73079263D01*
X94452794Y-73093676D01*
X94630890Y-73124728D01*
X94809679Y-73174497D01*
X94966692Y-73231150D01*
X95053386Y-73267556D01*
X95150061Y-73312149D01*
X95248524Y-73360689D01*
X95340583Y-73408938D01*
X95418047Y-73452656D01*
X95472724Y-73487604D01*
X95491092Y-73502507D01*
X98828550Y-73502507D01*
X98742263Y-73456006D01*
X98582816Y-73369945D01*
X98433024Y-73288964D01*
X98297370Y-73215493D01*
X98180340Y-73151965D01*
X98086419Y-73100808D01*
X98020091Y-73064453D01*
X97997926Y-73052166D01*
X97844390Y-72966385D01*
X97968618Y-72949307D01*
X98041243Y-72942597D01*
X98145916Y-72937377D01*
X98275636Y-72933627D01*
X98423405Y-72931331D01*
X98582221Y-72930469D01*
X98745085Y-72931025D01*
X98904996Y-72932979D01*
X99054956Y-72936314D01*
X99187963Y-72941012D01*
X99297018Y-72947055D01*
X99362846Y-72952906D01*
X99866204Y-73025928D01*
X100373850Y-73129790D01*
X100888786Y-73265331D01*
X101414016Y-73433391D01*
X101952543Y-73634809D01*
X102266817Y-73764957D01*
X102337710Y-73795308D01*
X102374278Y-73703323D01*
X102396318Y-73648263D01*
X102412148Y-73609419D01*
X102416430Y-73599379D01*
X102403008Y-73585553D01*
X102362395Y-73559197D01*
X102302372Y-73525214D01*
X102279661Y-73513177D01*
X102225236Y-73484358D01*
X102142467Y-73439964D01*
X102037280Y-73383201D01*
X101915600Y-73317273D01*
X101783350Y-73245387D01*
X101646457Y-73170746D01*
X101627774Y-73160541D01*
X101373015Y-73022392D01*
X101146517Y-72902050D01*
X100943094Y-72797110D01*
X100757565Y-72705164D01*
X100584747Y-72623806D01*
X100419457Y-72550630D01*
X100256512Y-72483228D01*
X100090728Y-72419195D01*
X99916924Y-72356124D01*
X99829975Y-72325777D01*
X99175731Y-72118657D01*
X98506367Y-71944011D01*
X97819501Y-71801338D01*
X97112749Y-71690136D01*
X96461385Y-71616887D01*
X96311757Y-71605503D01*
X96130158Y-71595635D01*
X95923667Y-71587379D01*
X95699366Y-71580830D01*
X95464333Y-71576084D01*
X95225650Y-71573235D01*
X94990395Y-71572380D01*
X94765648Y-71573614D01*
X94765648Y-71573614D01*
G37*
X94765648Y-71573614D02*
X94558490Y-71577031D01*
X94376001Y-71582728D01*
X94277714Y-71587483D01*
X93659374Y-71633515D01*
X93028255Y-71701071D01*
X92396979Y-71788428D01*
X91778167Y-71893863D01*
X91256076Y-71999766D01*
X90932700Y-72078875D01*
X90644041Y-72167323D01*
X90386491Y-72266824D01*
X90156442Y-72379091D01*
X89950285Y-72505840D01*
X89764413Y-72648783D01*
X89633035Y-72770772D01*
X89461115Y-72964879D01*
X89313785Y-73178142D01*
X89190279Y-73412763D01*
X89089832Y-73670944D01*
X89011679Y-73954890D01*
X88955052Y-74266802D01*
X88919188Y-74608883D01*
X88906211Y-74861615D01*
X88894283Y-75232846D01*
X89058334Y-75076028D01*
X89214667Y-74935268D01*
X89364013Y-74820488D01*
X89518114Y-74723373D01*
X89663090Y-74647789D01*
X89836283Y-74572652D01*
X90001544Y-74520010D01*
X90173017Y-74486415D01*
X90364843Y-74468421D01*
X90407451Y-74466367D01*
X90607163Y-74465351D01*
X90804026Y-74480158D01*
X91002850Y-74512132D01*
X91208448Y-74562615D01*
X91425631Y-74632953D01*
X91659210Y-74724488D01*
X91913999Y-74838563D01*
X92145990Y-74951812D01*
X92624550Y-75210498D01*
X93069620Y-75488130D01*
X93482416Y-75785701D01*
X93864156Y-76104204D01*
X94216058Y-76444632D01*
X94539339Y-76807979D01*
X94746808Y-77073186D01*
X95005016Y-77452842D01*
X95236945Y-77859332D01*
X95441022Y-78289210D01*
X95615673Y-78739033D01*
X95759322Y-79205357D01*
X95807043Y-79392789D01*
X95872257Y-79685884D01*
X95925175Y-79972664D01*
X95966449Y-80260064D01*
X95996734Y-80555020D01*
X96016684Y-80864468D01*
X96026953Y-81195343D01*
X96028196Y-81554581D01*
X96026167Y-81716551D01*
X96006674Y-82266954D01*
X95966115Y-82805756D01*
X95903375Y-83341018D01*
X95817342Y-83880801D01*
X95706903Y-84433167D01*
X95572757Y-84999037D01*
X95551154Y-85083646D01*
X95530109Y-85164828D01*
X95508988Y-85244565D01*
X95487156Y-85324839D01*
X95463978Y-85407630D01*
X95438819Y-85494921D01*
X95411044Y-85588693D01*
X95380018Y-85690928D01*
X95345106Y-85803607D01*
X95305673Y-85928713D01*
X95261084Y-86068225D01*
X95210705Y-86224127D01*
X95153900Y-86398400D01*
X95090034Y-86593025D01*
X95018473Y-86809984D01*
X94938581Y-87051259D01*
X94849723Y-87318831D01*
X94751265Y-87614681D01*
X94642571Y-87940792D01*
X94523007Y-88299145D01*
X94391938Y-88691721D01*
X94332167Y-88870692D01*
X94199303Y-89268511D01*
X94078239Y-89631055D01*
X93968395Y-89960114D01*
X93869191Y-90257478D01*
X93780048Y-90524936D01*
X93700384Y-90764277D01*
X93629622Y-90977291D01*
X93567179Y-91165767D01*
X93512478Y-91331495D01*
X93464937Y-91476265D01*
X93423978Y-91601866D01*
X93389019Y-91710088D01*
X93359481Y-91802720D01*
X93334785Y-91881551D01*
X93314350Y-91948371D01*
X93297597Y-92004970D01*
X93283945Y-92053136D01*
X93272815Y-92094661D01*
X93263627Y-92131332D01*
X93255801Y-92164941D01*
X93248757Y-92197275D01*
X93241915Y-92230125D01*
X93239078Y-92243939D01*
X93192666Y-92528954D01*
X93166924Y-92824116D01*
X93162011Y-93118814D01*
X93178089Y-93402435D01*
X93215320Y-93664367D01*
X93217358Y-93674781D01*
X93306658Y-94025643D01*
X93433905Y-94369641D01*
X93598331Y-94705222D01*
X93799169Y-95030833D01*
X94035651Y-95344923D01*
X94054182Y-95367231D01*
X94242845Y-95578435D01*
X94465392Y-95801923D01*
X94719350Y-96035662D01*
X95002242Y-96277621D01*
X95311596Y-96525767D01*
X95644934Y-96778068D01*
X95999783Y-97032491D01*
X96373668Y-97287005D01*
X96467398Y-97348820D01*
X96627410Y-97459123D01*
X96754194Y-97559955D01*
X96851069Y-97655671D01*
X96921357Y-97750624D01*
X96968378Y-97849171D01*
X96995453Y-97955665D01*
X97005196Y-98054107D01*
X97006429Y-98115332D01*
X97003704Y-98175575D01*
X96995868Y-98242227D01*
X96981770Y-98322680D01*
X96960256Y-98424326D01*
X96930175Y-98554557D01*
X96921427Y-98591415D01*
X96897672Y-98692170D01*
X96866753Y-98824912D01*
X96830079Y-98983507D01*
X96789060Y-99161816D01*
X96745106Y-99353704D01*
X96699626Y-99553034D01*
X96654030Y-99753670D01*
X96627493Y-99870846D01*
X96546022Y-100230184D01*
X96471964Y-100554767D01*
X96404487Y-100848037D01*
X96342756Y-101113436D01*
X96285938Y-101354405D01*
X96233199Y-101574386D01*
X96183706Y-101776820D01*
X96136625Y-101965150D01*
X96091123Y-102142818D01*
X96046365Y-102313264D01*
X96001518Y-102479931D01*
X95955749Y-102646261D01*
X95951863Y-102660227D01*
X95843914Y-103073201D01*
X95757441Y-103462406D01*
X95691364Y-103835980D01*
X95644607Y-104202064D01*
X95616089Y-104568799D01*
X95604734Y-104944324D01*
X95607374Y-105260471D01*
X95616034Y-105519394D01*
X95629647Y-105752941D01*
X95649466Y-105974638D01*
X95676740Y-106198008D01*
X95712723Y-106436579D01*
X95720626Y-106484615D01*
X95803351Y-106908812D01*
X95913290Y-107354896D01*
X96048683Y-107818534D01*
X96207773Y-108295394D01*
X96388798Y-108781141D01*
X96590001Y-109271441D01*
X96809622Y-109761962D01*
X97045902Y-110248369D01*
X97297082Y-110726329D01*
X97561402Y-111191509D01*
X97770919Y-111535308D01*
X97836179Y-111637633D01*
X97913339Y-111756164D01*
X97999261Y-111886298D01*
X98090805Y-112023431D01*
X98184833Y-112162961D01*
X98278206Y-112300283D01*
X98367785Y-112430794D01*
X98450432Y-112549892D01*
X98523007Y-112652973D01*
X98582372Y-112735434D01*
X98625387Y-112792672D01*
X98642448Y-112813449D01*
X98654353Y-112817687D01*
X98659254Y-112793862D01*
X98657115Y-112739070D01*
X98647899Y-112650405D01*
X98639546Y-112584215D01*
X98593473Y-112158932D01*
X98562635Y-111705143D01*
X98547073Y-111230346D01*
X98546828Y-110742036D01*
X98561944Y-110247712D01*
X98592461Y-109754870D01*
X98621955Y-109425154D01*
X98650364Y-109160373D01*
X98682063Y-108897219D01*
X98717593Y-108633160D01*
X98757492Y-108365667D01*
X98802299Y-108092210D01*
X98852554Y-107810257D01*
X98908795Y-107517279D01*
X98971561Y-107210745D01*
X99041392Y-106888124D01*
X99118826Y-106546887D01*
X99204402Y-106184503D01*
X99298660Y-105798442D01*
X99402138Y-105386173D01*
X99515375Y-104945167D01*
X99638911Y-104472891D01*
X99773284Y-103966817D01*
X99828942Y-103759000D01*
X99906115Y-103471475D01*
X99973761Y-103219507D01*
X100032491Y-103000915D01*
X100082918Y-102813517D01*
X100125653Y-102655131D01*
X100161310Y-102523577D01*
X100190500Y-102416673D01*
X100213836Y-102332237D01*
X100231930Y-102268088D01*
X100245394Y-102222045D01*
X100254841Y-102191926D01*
X100260882Y-102175550D01*
X100264130Y-102170735D01*
X100265198Y-102175301D01*
X100264696Y-102187064D01*
X100263239Y-102203845D01*
X100262156Y-102215461D01*
X100256378Y-102283014D01*
X100249341Y-102372032D01*
X100242423Y-102464994D01*
X100241407Y-102479231D01*
X100233157Y-102586145D01*
X100221042Y-102729249D01*
X100205331Y-102905872D01*
X100186292Y-103113347D01*
X100164194Y-103349004D01*
X100139305Y-103610174D01*
X100111895Y-103894188D01*
X100082230Y-104198378D01*
X100050581Y-104520075D01*
X100017216Y-104856610D01*
X99982402Y-105205313D01*
X99946410Y-105563517D01*
X99909507Y-105928551D01*
X99871961Y-106297748D01*
X99834042Y-106668438D01*
X99796018Y-107037953D01*
X99758158Y-107403624D01*
X99720729Y-107762781D01*
X99684002Y-108112756D01*
X99648243Y-108450881D01*
X99613722Y-108774485D01*
X99580708Y-109080900D01*
X99549469Y-109367458D01*
X99535584Y-109493538D01*
X99424381Y-110499769D01*
X99423071Y-111125000D01*
X99423200Y-111324920D01*
X99424661Y-111492110D01*
X99427690Y-111632902D01*
X99432523Y-111753627D01*
X99439398Y-111860617D01*
X99448550Y-111960203D01*
X99457013Y-112033538D01*
X99537537Y-112558445D01*
X99647110Y-113067542D01*
X99787061Y-113564285D01*
X99958718Y-114052126D01*
X100163410Y-114534518D01*
X100402467Y-115014915D01*
X100677216Y-115496769D01*
X100960577Y-115941231D01*
X101288658Y-116420103D01*
X101629346Y-116893655D01*
X101989127Y-117370675D01*
X102374486Y-117859949D01*
X102402774Y-117895117D01*
X102518873Y-118038464D01*
X102612496Y-118152199D01*
X102684919Y-118237740D01*
X102737420Y-118296505D01*
X102771275Y-118329910D01*
X102787761Y-118339374D01*
X102788155Y-118326313D01*
X102786344Y-118320927D01*
X102776593Y-118292089D01*
X102757079Y-118232787D01*
X102730001Y-118149756D01*
X102697556Y-118049733D01*
X102667855Y-117957796D01*
X102505548Y-117399499D01*
X102376115Y-116831829D01*
X102278588Y-116249754D01*
X102211996Y-115648245D01*
X102204238Y-115551060D01*
X102195642Y-115398067D01*
X102190175Y-115213691D01*
X102187692Y-115005485D01*
X102188051Y-114781006D01*
X102191107Y-114547810D01*
X102196715Y-114313450D01*
X102204732Y-114085484D01*
X102215012Y-113871465D01*
X102227413Y-113678950D01*
X102241790Y-113515494D01*
X102243359Y-113500786D01*
X102338845Y-112772176D01*
X102468894Y-112025547D01*
X102633517Y-111260837D01*
X102731459Y-110861231D01*
X102777876Y-110679645D01*
X102815594Y-110533435D01*
X102845389Y-110420067D01*
X102868039Y-110337006D01*
X102884319Y-110281717D01*
X102895007Y-110251666D01*
X102900880Y-110244318D01*
X102902713Y-110257138D01*
X102901284Y-110287593D01*
X102899106Y-110314154D01*
X102868528Y-110692183D01*
X102842793Y-111078800D01*
X102822058Y-111468136D01*
X102806482Y-111854325D01*
X102796222Y-112231498D01*
X102791437Y-112593789D01*
X102792284Y-112935330D01*
X102798922Y-113250254D01*
X102811508Y-113532693D01*
X102812162Y-113543640D01*
X102862291Y-114150112D01*
X102938141Y-114728746D01*
X103040480Y-115281775D01*
X103170073Y-115811433D01*
X103327689Y-116319952D01*
X103514093Y-116809567D01*
X103730053Y-117282510D01*
X103976336Y-117741014D01*
X104253708Y-118187314D01*
X104551355Y-118608231D01*
X104686324Y-118781449D01*
X104846939Y-118976093D01*
X105029280Y-119188035D01*
X105229428Y-119413150D01*
X105443462Y-119647312D01*
X105667463Y-119886394D01*
X105897511Y-120126269D01*
X106129687Y-120362813D01*
X106360070Y-120591899D01*
X106584740Y-120809399D01*
X106799778Y-121011190D01*
X107001265Y-121193143D01*
X107035721Y-121223409D01*
X107546522Y-121652159D01*
X108055259Y-122042980D01*
X108563817Y-122396816D01*
X109074081Y-122714614D01*
X109587936Y-122997321D01*
X110107269Y-123245883D01*
X110633965Y-123461246D01*
X111169910Y-123644357D01*
X111716988Y-123796162D01*
X112277085Y-123917606D01*
X112473427Y-123952590D01*
X112634081Y-123978775D01*
X112758077Y-123996912D01*
X112846965Y-124007144D01*
X112902294Y-124009617D01*
X112925614Y-124004474D01*
X112921561Y-123994341D01*
X112899020Y-123978985D01*
X112849283Y-123947518D01*
X112778694Y-123903881D01*
X112693599Y-123852013D01*
X112649000Y-123825072D01*
X112128577Y-123498482D01*
X111614867Y-123150397D01*
X111116945Y-122787329D01*
X110643886Y-122415791D01*
X110392308Y-122205681D01*
X110299116Y-122123050D01*
X110185837Y-122017839D01*
X110057537Y-121895154D01*
X109919283Y-121760098D01*
X109776139Y-121617775D01*
X109633172Y-121473291D01*
X109495448Y-121331748D01*
X109368033Y-121198251D01*
X109255993Y-121077904D01*
X109164393Y-120975812D01*
X109119770Y-120923538D01*
X108736901Y-120435375D01*
X108391825Y-119939129D01*
X108083774Y-119433037D01*
X107811978Y-118915338D01*
X107575670Y-118384270D01*
X107374080Y-117838070D01*
X107206439Y-117274978D01*
X107071980Y-116693231D01*
X106969932Y-116091067D01*
X106951617Y-115954602D01*
X106938536Y-115848325D01*
X106928088Y-115755395D01*
X106920985Y-115682844D01*
X106917940Y-115637705D01*
X106918378Y-115626635D01*
X106928256Y-115633742D01*
X106948658Y-115669767D01*
X106975533Y-115727370D01*
X106981085Y-115740263D01*
X107006336Y-115796982D01*
X107045470Y-115881577D01*
X107095097Y-115986873D01*
X107151824Y-116105695D01*
X107212261Y-116230869D01*
X107237712Y-116283154D01*
X107554927Y-116891099D01*
X107899566Y-117471227D01*
X108271498Y-118023424D01*
X108670590Y-118547578D01*
X109096710Y-119043577D01*
X109549724Y-119511309D01*
X110029501Y-119950661D01*
X110535908Y-120361520D01*
X111068812Y-120743775D01*
X111628082Y-121097312D01*
X112213584Y-121422020D01*
X112825186Y-121717785D01*
X113462755Y-121984497D01*
X114126160Y-122222041D01*
X114305439Y-122279824D01*
X115052380Y-122496776D01*
X115800612Y-122676977D01*
X116555288Y-122821433D01*
X117321563Y-122931150D01*
X117983000Y-122997614D01*
X118105138Y-123005330D01*
X118259445Y-123011533D01*
X118439045Y-123016223D01*
X118637059Y-123019402D01*
X118846610Y-123021068D01*
X119060819Y-123021223D01*
X119272810Y-123019866D01*
X119475704Y-123016999D01*
X119662624Y-123012621D01*
X119826691Y-123006732D01*
X119961029Y-122999334D01*
X119985692Y-122997520D01*
X120148244Y-122983695D01*
X120323040Y-122966734D01*
X120505511Y-122947258D01*
X120691091Y-122925886D01*
X120875210Y-122903240D01*
X121053302Y-122879939D01*
X121220799Y-122856604D01*
X121373132Y-122833854D01*
X121505734Y-122812310D01*
X121614038Y-122792593D01*
X121693475Y-122775321D01*
X121739477Y-122761116D01*
X121744154Y-122758762D01*
X121758950Y-122744527D01*
X121750131Y-122741209D01*
X121714689Y-122737339D01*
X121646459Y-122727263D01*
X121551062Y-122711969D01*
X121434118Y-122692447D01*
X121301247Y-122669684D01*
X121158071Y-122644669D01*
X121010210Y-122618392D01*
X120863285Y-122591840D01*
X120722916Y-122566003D01*
X120594725Y-122541869D01*
X120484331Y-122520427D01*
X120414617Y-122506294D01*
X119676673Y-122337751D01*
X118964463Y-122145060D01*
X118278528Y-121928611D01*
X117619410Y-121688790D01*
X116987649Y-121425987D01*
X116383786Y-121140592D01*
X115808363Y-120832992D01*
X115261921Y-120503575D01*
X114745000Y-120152732D01*
X114258143Y-119780850D01*
X113801890Y-119388318D01*
X113376783Y-118975525D01*
X112983361Y-118542860D01*
X112622168Y-118090711D01*
X112293743Y-117619466D01*
X111998628Y-117129515D01*
X111737363Y-116621246D01*
X111519152Y-116117077D01*
X111331608Y-115592665D01*
X111178404Y-115055819D01*
X111059018Y-114504126D01*
X110972928Y-113935173D01*
X110919974Y-113352385D01*
X110912889Y-113227027D01*
X110907229Y-113103173D01*
X110903126Y-112986870D01*
X110900714Y-112884170D01*
X110900127Y-112801119D01*
X110901499Y-112743767D01*
X110904964Y-112718163D01*
X110905925Y-112717385D01*
X110925390Y-112723264D01*
X110975476Y-112739495D01*
X111049764Y-112763969D01*
X111141839Y-112794577D01*
X111202483Y-112814852D01*
X111302156Y-112847676D01*
X111388027Y-112874878D01*
X111453656Y-112894503D01*
X111492600Y-112904597D01*
X111500471Y-112905273D01*
X111497125Y-112885269D01*
X111483156Y-112835030D01*
X111460585Y-112761295D01*
X111431432Y-112670804D01*
X111418201Y-112630886D01*
X111308708Y-112269736D01*
X111211685Y-111881720D01*
X111129435Y-111477699D01*
X111064258Y-111068537D01*
X111032931Y-110812385D01*
X111024049Y-110702292D01*
X111017048Y-110559453D01*
X111011897Y-110390153D01*
X111008562Y-110200673D01*
X111007014Y-109997300D01*
X111007219Y-109786316D01*
X111009147Y-109574005D01*
X111012764Y-109366651D01*
X111018041Y-109170539D01*
X111024944Y-108991952D01*
X111033442Y-108837174D01*
X111043503Y-108712488D01*
X111043553Y-108712000D01*
X111063050Y-108525475D01*
X111083618Y-108342935D01*
X111105832Y-108160731D01*
X111130264Y-107975218D01*
X111157490Y-107782748D01*
X111188082Y-107579674D01*
X111222613Y-107362349D01*
X111261659Y-107127126D01*
X111305793Y-106870358D01*
X111355588Y-106588398D01*
X111411617Y-106277599D01*
X111474456Y-105934314D01*
X111515367Y-105712846D01*
X111572763Y-105404399D01*
X111628562Y-105107574D01*
X111683508Y-104818698D01*
X111738347Y-104534096D01*
X111793824Y-104250095D01*
X111850684Y-103963022D01*
X111909671Y-103669202D01*
X111971530Y-103364961D01*
X112037007Y-103046627D01*
X112106845Y-102710524D01*
X112181791Y-102352980D01*
X112262588Y-101970321D01*
X112349982Y-101558872D01*
X112444718Y-101114960D01*
X112499815Y-100857538D01*
X112577653Y-100494092D01*
X112647707Y-100166716D01*
X112710416Y-99873276D01*
X112766217Y-99611641D01*
X112815548Y-99379677D01*
X112858848Y-99175251D01*
X112896554Y-98996232D01*
X112929104Y-98840486D01*
X112956935Y-98705881D01*
X112980487Y-98590283D01*
X113000196Y-98491561D01*
X113010241Y-98439821D01*
X111752202Y-98439821D01*
X111751909Y-98806190D01*
X111742291Y-99187180D01*
X111723399Y-99578138D01*
X111695281Y-99974410D01*
X111657988Y-100371343D01*
X111622152Y-100681692D01*
X111544442Y-101225997D01*
X111445403Y-101792797D01*
X111326781Y-102373052D01*
X111190323Y-102957721D01*
X111155879Y-103094692D01*
X111118789Y-103239617D01*
X111084092Y-103373606D01*
X111050858Y-103499605D01*
X111018160Y-103620563D01*
X110985070Y-103739425D01*
X110950660Y-103859140D01*
X110914002Y-103982654D01*
X110874168Y-104112914D01*
X110830230Y-104252867D01*
X110781260Y-104405460D01*
X110726330Y-104573641D01*
X110664512Y-104760355D01*
X110594878Y-104968551D01*
X110516500Y-105201175D01*
X110428450Y-105461175D01*
X110329799Y-105751497D01*
X110219621Y-106075088D01*
X110189927Y-106162231D01*
X110078566Y-106497837D01*
X109983301Y-106804927D01*
X109902527Y-107089822D01*
X109834639Y-107358844D01*
X109778029Y-107618313D01*
X109731093Y-107874551D01*
X109695974Y-108106308D01*
X109686070Y-108199369D01*
X109677544Y-108320352D01*
X109670509Y-108462066D01*
X109665077Y-108617320D01*
X109661362Y-108778921D01*
X109659475Y-108939679D01*
X109659529Y-109092401D01*
X109661637Y-109229898D01*
X109665911Y-109344976D01*
X109672464Y-109430445D01*
X109674942Y-109449577D01*
X109681849Y-109506558D01*
X109683282Y-109543803D01*
X109680796Y-109552154D01*
X109666536Y-109537312D01*
X109633093Y-109496241D01*
X109584529Y-109434117D01*
X109524911Y-109356120D01*
X109477595Y-109293269D01*
X109240557Y-108955742D01*
X109034898Y-108616917D01*
X108857918Y-108270646D01*
X108706917Y-107910780D01*
X108579194Y-107531168D01*
X108472049Y-107125663D01*
X108420065Y-106885154D01*
X108382380Y-106680581D01*
X108346772Y-106455847D01*
X108315183Y-106225200D01*
X108289554Y-106002889D01*
X108271828Y-105803163D01*
X108270974Y-105791000D01*
X108264293Y-105706562D01*
X108257132Y-105636601D01*
X108250534Y-105590413D01*
X108247088Y-105577625D01*
X108240137Y-105592161D01*
X108224336Y-105640873D01*
X108200714Y-105720128D01*
X108170299Y-105826292D01*
X108134119Y-105955734D01*
X108093201Y-106104821D01*
X108048575Y-106269921D01*
X108006527Y-106427548D01*
X107955831Y-106618719D01*
X107905198Y-106809584D01*
X107856144Y-106994432D01*
X107810187Y-107167553D01*
X107768842Y-107323234D01*
X107733626Y-107455764D01*
X107706055Y-107559432D01*
X107694515Y-107602765D01*
X107612622Y-107910069D01*
X107532196Y-107847657D01*
X107493507Y-107814538D01*
X107433081Y-107759020D01*
X107356625Y-107686523D01*
X107269846Y-107602465D01*
X107178450Y-107512266D01*
X107167433Y-107501276D01*
X106894787Y-107209320D01*
X106658705Y-106913609D01*
X106456672Y-106610222D01*
X106286174Y-106295234D01*
X106144698Y-105964722D01*
X106096612Y-105830077D01*
X106022586Y-105589266D01*
X105965337Y-105350735D01*
X105923850Y-105106780D01*
X105897114Y-104849696D01*
X105884113Y-104571779D01*
X105883836Y-104265324D01*
X105884760Y-104219472D01*
X105895648Y-103933219D01*
X105915876Y-103659895D01*
X105946739Y-103390364D01*
X105989530Y-103115490D01*
X106045543Y-102826136D01*
X106116071Y-102513165D01*
X106140832Y-102410947D01*
X106164343Y-102313503D01*
X106183513Y-102230632D01*
X106196823Y-102169185D01*
X106202751Y-102136016D01*
X106202706Y-102132193D01*
X106186148Y-102142025D01*
X106140412Y-102172219D01*
X106068385Y-102220799D01*
X105972953Y-102285791D01*
X105857001Y-102365219D01*
X105723415Y-102457107D01*
X105575081Y-102559480D01*
X105414886Y-102670363D01*
X105296585Y-102752438D01*
X105129557Y-102868303D01*
X104972202Y-102977209D01*
X104827431Y-103077159D01*
X104698153Y-103166156D01*
X104587278Y-103242205D01*
X104497715Y-103303307D01*
X104432373Y-103347466D01*
X104394162Y-103372685D01*
X104385121Y-103378000D01*
X104378258Y-103359595D01*
X104374804Y-103308578D01*
X104374564Y-103231248D01*
X104377342Y-103133903D01*
X104382942Y-103022843D01*
X104391168Y-102904366D01*
X104401824Y-102784770D01*
X104404346Y-102760160D01*
X104467953Y-102302135D01*
X104559833Y-101870861D01*
X104680131Y-101465968D01*
X104828991Y-101087082D01*
X105006554Y-100733832D01*
X105212965Y-100405847D01*
X105413091Y-100144385D01*
X105672695Y-99861541D01*
X105962305Y-99596989D01*
X106274848Y-99356681D01*
X106587453Y-99155750D01*
X106692302Y-99094513D01*
X106802451Y-99030136D01*
X106905009Y-98970155D01*
X106987084Y-98922109D01*
X106989058Y-98920952D01*
X107265550Y-98739559D01*
X107508497Y-98539308D01*
X107717501Y-98320855D01*
X107892168Y-98084856D01*
X108032101Y-97831968D01*
X108136903Y-97562846D01*
X108206179Y-97278147D01*
X108239532Y-96978526D01*
X108242730Y-96844710D01*
X108242379Y-96772384D01*
X108241249Y-96707021D01*
X108238885Y-96643135D01*
X108234829Y-96575244D01*
X108228626Y-96497862D01*
X108219819Y-96405504D01*
X108207952Y-96292685D01*
X108192570Y-96153922D01*
X108173214Y-95983730D01*
X108165530Y-95916702D01*
X108158970Y-95857067D01*
X105517461Y-95857067D01*
X105333698Y-95845679D01*
X105093917Y-95821460D01*
X104832763Y-95778403D01*
X104561588Y-95719024D01*
X104291747Y-95645838D01*
X104034593Y-95561360D01*
X104010266Y-95552481D01*
X103879894Y-95500450D01*
X103726558Y-95432837D01*
X103560484Y-95354686D01*
X103391896Y-95271040D01*
X103231023Y-95186943D01*
X103088088Y-95107439D01*
X102997000Y-95052720D01*
X102632346Y-94807745D01*
X102282223Y-94539824D01*
X101988968Y-94288867D01*
X101925879Y-94233273D01*
X101873656Y-94189084D01*
X101838981Y-94161850D01*
X101828770Y-94155846D01*
X101810778Y-94169967D01*
X101779469Y-94205506D01*
X101765184Y-94223665D01*
X101713456Y-94291483D01*
X102327522Y-95156626D01*
X102443671Y-95320352D01*
X102553226Y-95474950D01*
X102654058Y-95617404D01*
X102744038Y-95744697D01*
X102821035Y-95853812D01*
X102882920Y-95941734D01*
X102927564Y-96005444D01*
X102952836Y-96041928D01*
X102957659Y-96049211D01*
X102964560Y-96062999D01*
X102960848Y-96066543D01*
X102941581Y-96057210D01*
X102901816Y-96032366D01*
X102836611Y-95989376D01*
X102801615Y-95966054D01*
X102483303Y-95736712D01*
X102164559Y-95474339D01*
X101851067Y-95184501D01*
X101548512Y-94872762D01*
X101262580Y-94544687D01*
X100998954Y-94205841D01*
X100987760Y-94190503D01*
X100738629Y-93825353D01*
X100514173Y-93446948D01*
X100339550Y-93110538D01*
X100243427Y-92909535D01*
X100164237Y-92732959D01*
X100098552Y-92571890D01*
X100042939Y-92417406D01*
X99993967Y-92260585D01*
X99948540Y-92093811D01*
X99903051Y-91902920D01*
X99871549Y-91734274D01*
X99852481Y-91574262D01*
X99844296Y-91409274D01*
X99845441Y-91225701D01*
X99846272Y-91197271D01*
X99851119Y-91073216D01*
X99857622Y-90978033D01*
X99867168Y-90901515D01*
X99881145Y-90833458D01*
X99900941Y-90763657D01*
X99908407Y-90740283D01*
X99933689Y-90668491D01*
X99956434Y-90614422D01*
X99973067Y-90586161D01*
X99977508Y-90583975D01*
X99995932Y-90595880D01*
X100043966Y-90628392D01*
X100119322Y-90679926D01*
X100219712Y-90748892D01*
X100342847Y-90833704D01*
X100486439Y-90932774D01*
X100648199Y-91044515D01*
X100825840Y-91167338D01*
X101017073Y-91299656D01*
X101219610Y-91439882D01*
X101431162Y-91586427D01*
X101649442Y-91737705D01*
X101872160Y-91892128D01*
X102097029Y-92048108D01*
X102321760Y-92204057D01*
X102544065Y-92358388D01*
X102761656Y-92509513D01*
X102972244Y-92655846D01*
X103173542Y-92795797D01*
X103363260Y-92927780D01*
X103539110Y-93050207D01*
X103698805Y-93161490D01*
X103840055Y-93260042D01*
X103960573Y-93344274D01*
X104058071Y-93412601D01*
X104130259Y-93463433D01*
X104174850Y-93495184D01*
X104189567Y-93506259D01*
X104170994Y-93500623D01*
X104118733Y-93482711D01*
X104035818Y-93453607D01*
X103925282Y-93414395D01*
X103790159Y-93366159D01*
X103633483Y-93309984D01*
X103458288Y-93246952D01*
X103267607Y-93178150D01*
X103064474Y-93104661D01*
X102969071Y-93070082D01*
X102761162Y-92994865D01*
X102564197Y-92923961D01*
X102381225Y-92858444D01*
X102215297Y-92799390D01*
X102069459Y-92747873D01*
X101946761Y-92704969D01*
X101850251Y-92671752D01*
X101782979Y-92649296D01*
X101747993Y-92638677D01*
X101743593Y-92638048D01*
X101752268Y-92655627D01*
X101782603Y-92699000D01*
X101831244Y-92763937D01*
X101894837Y-92846210D01*
X101970030Y-92941589D01*
X102053467Y-93045848D01*
X102141796Y-93154755D01*
X102231663Y-93264084D01*
X102319714Y-93369604D01*
X102382424Y-93443563D01*
X102474687Y-93548192D01*
X102588251Y-93671757D01*
X102716991Y-93808019D01*
X102854779Y-93950736D01*
X102995490Y-94093668D01*
X103132996Y-94230575D01*
X103261170Y-94355215D01*
X103373886Y-94461348D01*
X103441553Y-94522382D01*
X103875923Y-94879636D01*
X104326676Y-95202720D01*
X104792319Y-95490656D01*
X105271362Y-95742465D01*
X105380692Y-95793976D01*
X105517461Y-95857067D01*
X108158970Y-95857067D01*
X108152988Y-95802703D01*
X108143010Y-95702595D01*
X108136134Y-95622628D01*
X108132898Y-95569052D01*
X108133790Y-95548158D01*
X108153178Y-95554624D01*
X108193704Y-95584622D01*
X108249910Y-95633057D01*
X108316338Y-95694831D01*
X108387529Y-95764847D01*
X108458024Y-95838010D01*
X108522367Y-95909223D01*
X108530191Y-95918300D01*
X108752796Y-96207035D01*
X108942022Y-96514963D01*
X109099663Y-96845058D01*
X109122420Y-96901000D01*
X109167182Y-97024649D01*
X109213941Y-97172607D01*
X109258932Y-97331279D01*
X109298391Y-97487069D01*
X109328555Y-97626381D01*
X109338085Y-97680019D01*
X109350911Y-97751486D01*
X109362518Y-97792345D01*
X109374355Y-97801104D01*
X109387870Y-97776270D01*
X109404509Y-97716353D01*
X109425722Y-97619861D01*
X109433585Y-97581642D01*
X109480966Y-97280982D01*
X109505344Y-96964693D01*
X109505715Y-96649445D01*
X109497992Y-96515102D01*
X109481787Y-96336501D01*
X109460504Y-96161729D01*
X109433151Y-95987338D01*
X109398735Y-95809880D01*
X109356263Y-95625910D01*
X109304743Y-95431979D01*
X109243181Y-95224642D01*
X109170587Y-95000452D01*
X109085966Y-94755960D01*
X108988326Y-94487722D01*
X108876674Y-94192289D01*
X108750018Y-93866214D01*
X108694760Y-93726000D01*
X108652741Y-93618580D01*
X108616731Y-93524273D01*
X108588849Y-93448815D01*
X108571215Y-93397947D01*
X108565948Y-93377406D01*
X108566012Y-93377308D01*
X108583226Y-93386279D01*
X108626125Y-93417324D01*
X108690664Y-93467153D01*
X108772801Y-93532477D01*
X108868491Y-93610008D01*
X108973690Y-93696456D01*
X109084354Y-93788534D01*
X109196441Y-93882951D01*
X109305905Y-93976420D01*
X109357819Y-94021276D01*
X109553454Y-94193954D01*
X109753568Y-94375984D01*
X109954063Y-94563310D01*
X110150838Y-94751880D01*
X110339793Y-94937639D01*
X110516831Y-95116534D01*
X110677850Y-95284511D01*
X110818752Y-95437516D01*
X110935437Y-95571495D01*
X110978372Y-95623775D01*
X111166918Y-95888887D01*
X111330287Y-96181925D01*
X111467197Y-96499894D01*
X111576365Y-96839800D01*
X111656511Y-97198650D01*
X111659140Y-97213615D01*
X111696640Y-97474970D01*
X111724617Y-97769558D01*
X111743121Y-98092726D01*
X111752202Y-98439821D01*
X113010241Y-98439821D01*
X113016501Y-98407581D01*
X113029840Y-98336211D01*
X113040650Y-98275317D01*
X113049370Y-98222768D01*
X113056436Y-98176431D01*
X113062288Y-98134173D01*
X113067364Y-98093861D01*
X113067486Y-98092846D01*
X113074852Y-98023989D01*
X113083619Y-97930169D01*
X113093103Y-97820160D01*
X113102618Y-97702735D01*
X113111479Y-97586669D01*
X113119002Y-97480737D01*
X113124503Y-97393711D01*
X113127296Y-97334365D01*
X113127499Y-97323902D01*
X113140524Y-97324709D01*
X113177773Y-97351613D01*
X113236798Y-97402155D01*
X113315149Y-97473877D01*
X113410375Y-97564320D01*
X113520027Y-97671024D01*
X113641655Y-97791531D01*
X113772809Y-97923382D01*
X113911040Y-98064119D01*
X114053897Y-98211282D01*
X114198930Y-98362412D01*
X114343690Y-98515051D01*
X114485727Y-98666739D01*
X114622590Y-98815019D01*
X114721476Y-98923736D01*
X115396910Y-99700444D01*
X116046840Y-100506340D01*
X116670683Y-101340514D01*
X117267854Y-102202054D01*
X117837768Y-103090048D01*
X118379842Y-104003585D01*
X118893490Y-104941753D01*
X119378129Y-105903641D01*
X119833175Y-106888337D01*
X119846861Y-106919351D01*
X119909753Y-107062754D01*
X119978293Y-107220188D01*
X120047016Y-107379026D01*
X120110458Y-107526641D01*
X120160346Y-107643765D01*
X120234277Y-107815395D01*
X120307503Y-107978402D01*
X120382030Y-108136277D01*
X120459863Y-108292512D01*
X120543007Y-108450598D01*
X120633468Y-108614027D01*
X120733251Y-108786288D01*
X120844362Y-108970874D01*
X120968805Y-109171276D01*
X121108586Y-109390984D01*
X121265711Y-109633491D01*
X121442184Y-109902287D01*
X121559554Y-110079692D01*
X121704495Y-110296773D01*
X121830586Y-110482345D01*
X121939198Y-110638336D01*
X122031705Y-110766674D01*
X122109481Y-110869287D01*
X122173898Y-110948103D01*
X122196040Y-110973186D01*
X122246909Y-111027620D01*
X122313323Y-111096261D01*
X122390957Y-111174888D01*
X122475486Y-111259279D01*
X122562583Y-111345213D01*
X122647923Y-111428470D01*
X122727182Y-111504828D01*
X122796032Y-111570065D01*
X122850150Y-111619962D01*
X122885209Y-111650296D01*
X122896923Y-111657164D01*
X122892960Y-111637111D01*
X122881506Y-111581924D01*
X122863212Y-111494690D01*
X122838732Y-111378493D01*
X122808718Y-111236420D01*
X122773822Y-111071555D01*
X122734696Y-110886985D01*
X122691993Y-110685794D01*
X122646365Y-110471069D01*
X122612570Y-110312177D01*
X122558380Y-110056710D01*
X122501520Y-109787215D01*
X122443356Y-109510259D01*
X122385256Y-109232409D01*
X122328587Y-108960232D01*
X122274717Y-108700294D01*
X122225013Y-108459163D01*
X122180843Y-108243405D01*
X122145113Y-108067231D01*
X122083833Y-107765250D01*
X122028348Y-107496961D01*
X121977472Y-107257606D01*
X121930019Y-107042427D01*
X121884801Y-106846669D01*
X121840630Y-106665574D01*
X121796320Y-106494386D01*
X121750685Y-106328346D01*
X121702535Y-106162699D01*
X121650686Y-105992688D01*
X121593949Y-105813554D01*
X121545394Y-105664000D01*
X121420974Y-105296502D01*
X121288571Y-104930523D01*
X121146849Y-104563259D01*
X120994470Y-104191906D01*
X120830098Y-103813660D01*
X120652396Y-103425716D01*
X120460028Y-103025270D01*
X120251657Y-102609517D01*
X120025946Y-102175655D01*
X119781559Y-101720878D01*
X119517159Y-101242383D01*
X119231409Y-100737364D01*
X119031161Y-100389355D01*
X118952725Y-100253468D01*
X118881157Y-100128719D01*
X118818668Y-100019027D01*
X118767474Y-99928309D01*
X118729788Y-99860485D01*
X118707823Y-99819470D01*
X118703025Y-99808615D01*
X118723119Y-99810083D01*
X118767212Y-99819919D01*
X118785176Y-99824673D01*
X118839244Y-99848873D01*
X118907253Y-99896906D01*
X118993362Y-99971852D01*
X119028401Y-100004875D01*
X119576024Y-100511116D01*
X120155086Y-101012477D01*
X120757968Y-101502937D01*
X121377050Y-101976471D01*
X122004712Y-102427057D01*
X122594077Y-102823229D01*
X123048138Y-103110330D01*
X123503808Y-103382170D01*
X123971135Y-103644443D01*
X124460167Y-103902842D01*
X124813747Y-104080984D01*
X125530593Y-104420056D01*
X126248750Y-104728007D01*
X126973488Y-105006621D01*
X127710076Y-105257685D01*
X128463783Y-105482982D01*
X129239878Y-105684300D01*
X130043632Y-105863422D01*
X130121456Y-105879317D01*
X130294997Y-105914619D01*
X130446938Y-105946061D01*
X130582047Y-105974995D01*
X130705089Y-106002773D01*
X130820832Y-106030746D01*
X130934043Y-106060266D01*
X131049488Y-106092686D01*
X131171933Y-106129356D01*
X131306146Y-106171628D01*
X131456894Y-106220855D01*
X131628942Y-106278387D01*
X131827058Y-106345577D01*
X132056008Y-106423777D01*
X132126594Y-106447934D01*
X132281602Y-106500653D01*
X132424762Y-106548686D01*
X132551928Y-106590691D01*
X132658956Y-106625329D01*
X132741699Y-106651258D01*
X132796012Y-106667137D01*
X132817751Y-106671626D01*
X132817905Y-106671530D01*
X132807324Y-106655658D01*
X132772645Y-106615689D01*
X132717347Y-106555211D01*
X132644911Y-106477813D01*
X132558817Y-106387082D01*
X132462545Y-106286606D01*
X132359575Y-106179973D01*
X132253388Y-106070770D01*
X132147465Y-105962586D01*
X132045284Y-105859008D01*
X131950327Y-105763624D01*
X131866073Y-105680022D01*
X131796004Y-105611789D01*
X131743598Y-105562514D01*
X131732334Y-105552399D01*
X131621550Y-105458172D01*
X131496108Y-105358599D01*
X131353991Y-105252350D01*
X131193177Y-105138093D01*
X131011649Y-105014498D01*
X130807387Y-104880233D01*
X130578372Y-104733967D01*
X130322585Y-104574369D01*
X130038006Y-104400107D01*
X129722617Y-104209850D01*
X129442308Y-104042585D01*
X129270887Y-103940680D01*
X129085283Y-103830269D01*
X128894196Y-103716535D01*
X128706332Y-103604659D01*
X128530393Y-103499825D01*
X128375083Y-103407214D01*
X128309077Y-103367824D01*
X128204107Y-103305658D01*
X128069602Y-103226799D01*
X127910023Y-103133824D01*
X127729830Y-103029310D01*
X127533485Y-102915832D01*
X127325448Y-102795969D01*
X127110178Y-102672297D01*
X126892138Y-102547393D01*
X126675787Y-102423834D01*
X126619000Y-102391471D01*
X126312175Y-102216527D01*
X126036459Y-102058947D01*
X125788872Y-101916985D01*
X125566435Y-101788898D01*
X125366171Y-101672942D01*
X125185100Y-101567371D01*
X125020244Y-101470441D01*
X124868623Y-101380409D01*
X124727260Y-101295530D01*
X124593175Y-101214059D01*
X124463391Y-101134252D01*
X124334927Y-101054365D01*
X124323231Y-101047051D01*
X123808904Y-100714837D01*
X123296950Y-100363764D01*
X122790695Y-99996694D01*
X122293469Y-99616487D01*
X121808599Y-99226005D01*
X121339412Y-98828110D01*
X120889238Y-98425663D01*
X120461403Y-98021527D01*
X120059235Y-97618561D01*
X119686064Y-97219629D01*
X119345215Y-96827591D01*
X119178768Y-96623533D01*
X118816939Y-96147545D01*
X118489302Y-95670483D01*
X118191415Y-95185424D01*
X117918832Y-94685443D01*
X117858525Y-94566154D01*
X117792249Y-94431377D01*
X117731099Y-94302700D01*
X117672794Y-94174646D01*
X117663699Y-94153709D01*
X115703681Y-94153709D01*
X115702613Y-94439154D01*
X115697000Y-95513769D01*
X115618846Y-95525650D01*
X115545984Y-95535874D01*
X115502642Y-95537779D01*
X115479805Y-95529549D01*
X115468462Y-95509366D01*
X115464352Y-95494502D01*
X115453850Y-95450101D01*
X115436240Y-95372539D01*
X115412169Y-95264808D01*
X115382286Y-95129899D01*
X115347239Y-94970805D01*
X115307676Y-94790515D01*
X115264244Y-94592022D01*
X115217592Y-94378316D01*
X115168366Y-94152390D01*
X115117217Y-93917235D01*
X115064790Y-93675842D01*
X115011734Y-93431202D01*
X114958698Y-93186307D01*
X114906328Y-92944149D01*
X114855273Y-92707718D01*
X114822001Y-92553384D01*
X112108358Y-92553384D01*
X112102012Y-92559991D01*
X112082390Y-92558122D01*
X112044842Y-92546354D01*
X111984721Y-92523268D01*
X111897379Y-92487441D01*
X111795588Y-92444785D01*
X111472489Y-92292323D01*
X111183717Y-92121226D01*
X110929230Y-91931452D01*
X110708986Y-91722960D01*
X110522941Y-91495709D01*
X110371053Y-91249657D01*
X110253281Y-90984763D01*
X110229802Y-90917521D01*
X110203136Y-90827300D01*
X110172568Y-90707605D01*
X110140211Y-90567573D01*
X110108180Y-90416343D01*
X110079440Y-90267692D01*
X110062250Y-90172509D01*
X110040621Y-90050286D01*
X110015139Y-89904495D01*
X109986390Y-89738611D01*
X109954960Y-89556107D01*
X109921433Y-89360457D01*
X109886396Y-89155133D01*
X109850435Y-88943611D01*
X109814136Y-88729363D01*
X109778083Y-88515862D01*
X109742863Y-88306583D01*
X109709061Y-88104999D01*
X109677964Y-87918773D01*
X105688002Y-87918773D01*
X105514809Y-87959393D01*
X105401603Y-87983686D01*
X105269327Y-88008554D01*
X105131487Y-88031753D01*
X105001587Y-88051039D01*
X104893130Y-88064168D01*
X104872692Y-88066077D01*
X104780906Y-88071393D01*
X104660563Y-88074627D01*
X104522123Y-88075859D01*
X104376046Y-88075165D01*
X104232792Y-88072624D01*
X104102821Y-88068314D01*
X103996594Y-88062312D01*
X103961339Y-88059282D01*
X103507851Y-87995207D01*
X103051641Y-87893369D01*
X102594704Y-87754799D01*
X102139035Y-87580526D01*
X101686629Y-87371579D01*
X101239483Y-87128988D01*
X100799591Y-86853781D01*
X100368948Y-86546989D01*
X99949551Y-86209641D01*
X99543393Y-85842765D01*
X99406965Y-85709790D01*
X98987584Y-85267221D01*
X98599359Y-84804354D01*
X98243746Y-84323171D01*
X97922199Y-83825656D01*
X97636174Y-83313794D01*
X97605262Y-83253385D01*
X97375579Y-82766862D01*
X97182358Y-82284272D01*
X97024018Y-81800619D01*
X96898979Y-81310904D01*
X96805659Y-80810131D01*
X96783313Y-80654769D01*
X96775728Y-80585375D01*
X96768157Y-80493001D01*
X96760822Y-80383362D01*
X96753943Y-80262171D01*
X96747742Y-80135141D01*
X96742440Y-80007985D01*
X96738257Y-79886416D01*
X96735415Y-79776148D01*
X96734134Y-79682895D01*
X96734636Y-79612369D01*
X96737142Y-79570283D01*
X96741004Y-79561133D01*
X96750908Y-79581472D01*
X96772804Y-79633207D01*
X96804640Y-79711265D01*
X96844366Y-79810576D01*
X96889931Y-79926068D01*
X96926714Y-80020286D01*
X97015538Y-80247789D01*
X97093562Y-80444823D01*
X97163568Y-80617562D01*
X97228339Y-80772179D01*
X97290658Y-80914847D01*
X97353308Y-81051737D01*
X97419070Y-81189023D01*
X97490727Y-81332878D01*
X97571062Y-81489474D01*
X97662858Y-81664983D01*
X97699053Y-81733621D01*
X97765244Y-81858572D01*
X97825296Y-81971216D01*
X97876869Y-82067224D01*
X97917624Y-82142263D01*
X97945220Y-82192004D01*
X97957318Y-82212115D01*
X97957648Y-82212314D01*
X97953182Y-82193265D01*
X97938995Y-82140419D01*
X97916142Y-82057543D01*
X97885676Y-81948400D01*
X97848653Y-81816757D01*
X97806128Y-81666379D01*
X97759153Y-81501031D01*
X97718756Y-81359368D01*
X97624107Y-81026532D01*
X97540008Y-80727428D01*
X97465526Y-80458436D01*
X97399733Y-80215934D01*
X97341698Y-79996302D01*
X97290490Y-79795919D01*
X97245179Y-79611164D01*
X97204834Y-79438417D01*
X97168525Y-79274057D01*
X97135323Y-79114463D01*
X97113454Y-79003769D01*
X97092185Y-78887152D01*
X97077229Y-78785352D01*
X97067497Y-78686056D01*
X97061898Y-78576953D01*
X97059342Y-78445732D01*
X97058946Y-78388308D01*
X97059762Y-78234727D01*
X97064701Y-78111299D01*
X97075112Y-78009200D01*
X97092343Y-77919605D01*
X97117742Y-77833689D01*
X97152659Y-77742627D01*
X97160456Y-77724072D01*
X97194984Y-77642773D01*
X97436941Y-78166963D01*
X97606132Y-78532494D01*
X97761239Y-78865367D01*
X97903801Y-79168743D01*
X98035357Y-79445783D01*
X98157445Y-79699646D01*
X98271603Y-79933495D01*
X98379371Y-80150489D01*
X98482287Y-80353789D01*
X98581890Y-80546556D01*
X98679718Y-80731950D01*
X98743167Y-80850154D01*
X99047814Y-81394436D01*
X99354093Y-81902157D01*
X99663721Y-82375832D01*
X99978416Y-82817977D01*
X100299896Y-83231108D01*
X100629878Y-83617740D01*
X100642836Y-83632197D01*
X100726070Y-83723595D01*
X100812545Y-83816289D01*
X100898407Y-83906396D01*
X100979801Y-83990037D01*
X101052870Y-84063329D01*
X101113762Y-84122394D01*
X101158621Y-84163348D01*
X101183591Y-84182312D01*
X101187070Y-84180108D01*
X101176831Y-84159255D01*
X101150086Y-84107147D01*
X101108563Y-84027089D01*
X101053988Y-83922387D01*
X100988090Y-83796349D01*
X100912594Y-83652280D01*
X100829229Y-83493486D01*
X100739721Y-83323275D01*
X100706115Y-83259437D01*
X100615071Y-83086360D01*
X100529774Y-82923859D01*
X100451919Y-82775186D01*
X100383201Y-82643594D01*
X100325313Y-82532335D01*
X100279949Y-82444661D01*
X100248804Y-82383823D01*
X100233571Y-82353073D01*
X100232308Y-82349964D01*
X100247495Y-82332440D01*
X100284631Y-82305348D01*
X100331075Y-82276437D01*
X100374189Y-82253456D01*
X100401333Y-82244153D01*
X100403954Y-82244740D01*
X100417646Y-82261031D01*
X100453782Y-82306100D01*
X100510765Y-82377919D01*
X100587002Y-82474456D01*
X100680898Y-82593683D01*
X100790858Y-82733569D01*
X100915287Y-82892083D01*
X101052591Y-83067197D01*
X101201175Y-83256879D01*
X101359444Y-83459100D01*
X101525804Y-83671830D01*
X101678154Y-83866789D01*
X101880468Y-84125697D01*
X102060182Y-84355470D01*
X102218692Y-84557817D01*
X102357393Y-84734444D01*
X102477680Y-84887059D01*
X102580947Y-85017370D01*
X102668591Y-85127086D01*
X102742007Y-85217913D01*
X102802589Y-85291559D01*
X102851733Y-85349732D01*
X102890834Y-85394140D01*
X102921287Y-85426490D01*
X102944488Y-85448490D01*
X102961832Y-85461848D01*
X102974713Y-85468271D01*
X102984527Y-85469467D01*
X102987191Y-85469038D01*
X103025602Y-85459117D01*
X103040783Y-85453268D01*
X103035407Y-85434474D01*
X103018339Y-85381631D01*
X102990562Y-85297652D01*
X102953057Y-85185453D01*
X102906808Y-85047948D01*
X102852797Y-84888052D01*
X102792006Y-84708680D01*
X102725417Y-84512746D01*
X102654014Y-84303164D01*
X102585916Y-84103732D01*
X102510946Y-83883969D01*
X102439925Y-83674944D01*
X102373838Y-83479605D01*
X102313667Y-83300897D01*
X102260395Y-83141766D01*
X102215007Y-83005159D01*
X102178484Y-82894021D01*
X102151810Y-82811298D01*
X102135969Y-82759937D01*
X102131785Y-82742964D01*
X102148424Y-82748379D01*
X102191059Y-82775074D01*
X102255313Y-82819743D01*
X102336806Y-82879082D01*
X102431160Y-82949786D01*
X102533997Y-83028551D01*
X102640938Y-83112072D01*
X102747606Y-83197044D01*
X102849620Y-83280163D01*
X102908102Y-83328887D01*
X103129039Y-83522306D01*
X103357432Y-83736034D01*
X103585454Y-83962059D01*
X103805279Y-84192372D01*
X104009077Y-84418960D01*
X104189024Y-84633813D01*
X104215130Y-84666630D01*
X104499413Y-85053563D01*
X104762880Y-85465930D01*
X105001654Y-85896461D01*
X105211854Y-86337887D01*
X105389600Y-86782939D01*
X105468281Y-87014538D01*
X105504589Y-87133375D01*
X105542287Y-87265277D01*
X105579196Y-87401744D01*
X105613135Y-87534278D01*
X105641922Y-87654379D01*
X105663377Y-87753548D01*
X105674837Y-87819532D01*
X105688002Y-87918773D01*
X109677964Y-87918773D01*
X109677264Y-87914583D01*
X109648056Y-87738810D01*
X109622023Y-87581152D01*
X109599752Y-87445083D01*
X109581828Y-87334077D01*
X109568837Y-87251607D01*
X109561363Y-87201147D01*
X109559809Y-87185986D01*
X109571626Y-87200129D01*
X109602185Y-87243179D01*
X109648937Y-87311273D01*
X109709334Y-87400550D01*
X109780826Y-87507148D01*
X109860866Y-87627206D01*
X109946904Y-87756862D01*
X110036392Y-87892254D01*
X110126782Y-88029521D01*
X110215524Y-88164800D01*
X110300071Y-88294232D01*
X110377873Y-88413953D01*
X110446382Y-88520102D01*
X110503050Y-88608818D01*
X110545327Y-88676238D01*
X110566801Y-88711776D01*
X110681184Y-88916874D01*
X110796124Y-89141363D01*
X110913160Y-89388667D01*
X111033831Y-89662211D01*
X111159677Y-89965421D01*
X111292236Y-90301722D01*
X111353849Y-90463077D01*
X111382036Y-90538354D01*
X111419876Y-90640617D01*
X111465837Y-90765637D01*
X111518389Y-90909188D01*
X111576001Y-91067044D01*
X111637140Y-91234976D01*
X111700276Y-91408757D01*
X111763878Y-91584162D01*
X111826415Y-91756962D01*
X111886355Y-91922930D01*
X111942167Y-92077840D01*
X111992320Y-92217464D01*
X112035283Y-92337575D01*
X112069525Y-92433946D01*
X112093514Y-92502351D01*
X112105719Y-92538561D01*
X112106075Y-92539722D01*
X112108358Y-92553384D01*
X114822001Y-92553384D01*
X114806181Y-92480006D01*
X114759700Y-92264004D01*
X114716477Y-92062705D01*
X114677160Y-91879098D01*
X114642398Y-91716177D01*
X114612839Y-91576931D01*
X114589129Y-91464353D01*
X114571918Y-91381433D01*
X114561852Y-91331164D01*
X114559398Y-91316345D01*
X114574706Y-91321709D01*
X114612327Y-91351642D01*
X114668125Y-91401946D01*
X114737965Y-91468425D01*
X114817711Y-91546881D01*
X114903227Y-91633118D01*
X114990376Y-91722938D01*
X115075025Y-91812144D01*
X115153036Y-91896540D01*
X115220275Y-91971928D01*
X115272605Y-92034110D01*
X115294146Y-92061995D01*
X115391814Y-92208244D01*
X115482705Y-92368938D01*
X115560317Y-92531325D01*
X115618151Y-92682655D01*
X115629477Y-92719769D01*
X115645766Y-92784742D01*
X115659748Y-92859246D01*
X115671550Y-92946242D01*
X115681297Y-93048692D01*
X115689115Y-93169555D01*
X115695130Y-93311794D01*
X115699469Y-93478367D01*
X115702256Y-93672237D01*
X115703618Y-93896364D01*
X115703681Y-94153709D01*
X117663699Y-94153709D01*
X117615053Y-94041738D01*
X117555596Y-93898498D01*
X117492141Y-93739448D01*
X117422408Y-93559110D01*
X117344117Y-93352009D01*
X117268682Y-93149615D01*
X117216099Y-93007940D01*
X117167528Y-92877221D01*
X117124732Y-92762195D01*
X117089476Y-92667599D01*
X117063524Y-92598171D01*
X117048642Y-92558647D01*
X117046109Y-92552085D01*
X117046213Y-92534402D01*
X117067378Y-92520413D01*
X117116217Y-92507163D01*
X117169462Y-92496913D01*
X117305204Y-92472654D01*
X117635041Y-92579911D01*
X118330466Y-92790910D01*
X119039942Y-92975932D01*
X119765617Y-93135284D01*
X120509637Y-93269274D01*
X121274150Y-93378206D01*
X122061302Y-93462388D01*
X122873241Y-93522126D01*
X123712114Y-93557727D01*
X124568327Y-93569495D01*
X124759187Y-93568695D01*
X124969275Y-93566337D01*
X125186945Y-93562652D01*
X125400551Y-93557867D01*
X125598447Y-93552213D01*
X125768986Y-93545917D01*
X125769942Y-93545876D01*
X126026959Y-93536192D01*
X126280090Y-93529188D01*
X126524613Y-93524859D01*
X126755805Y-93523198D01*
X126968944Y-93524202D01*
X127159308Y-93527863D01*
X127322175Y-93534178D01*
X127452822Y-93543140D01*
X127498231Y-93547843D01*
X127969674Y-93619749D01*
X128419813Y-93721894D01*
X128851214Y-93855472D01*
X129266444Y-94021675D01*
X129668069Y-94221697D01*
X130058655Y-94456733D01*
X130440770Y-94727974D01*
X130816979Y-95036616D01*
X130943934Y-95150225D01*
X131191756Y-95390460D01*
X131446240Y-95664531D01*
X131708219Y-95973421D01*
X131978523Y-96318110D01*
X132257984Y-96699579D01*
X132262015Y-96705256D01*
X132381768Y-96871869D01*
X132498792Y-97030737D01*
X132610821Y-97179068D01*
X132715590Y-97314069D01*
X132810833Y-97432948D01*
X132894285Y-97532914D01*
X132963679Y-97611174D01*
X133016750Y-97664937D01*
X133051232Y-97691410D01*
X133063000Y-97692308D01*
X133061931Y-97671571D01*
X133054818Y-97616420D01*
X133042298Y-97530939D01*
X133025010Y-97419216D01*
X133003591Y-97285338D01*
X132978678Y-97133389D01*
X132950911Y-96967457D01*
X132937980Y-96891231D01*
X132908859Y-96719667D01*
X132881893Y-96559658D01*
X132857775Y-96415402D01*
X132837198Y-96291098D01*
X132820856Y-96190944D01*
X132809443Y-96119140D01*
X132803650Y-96079883D01*
X132803061Y-96074106D01*
X132817751Y-96073212D01*
X132859684Y-96094079D01*
X132925447Y-96134233D01*
X133011629Y-96191199D01*
X133114818Y-96262501D01*
X133231602Y-96345666D01*
X133358571Y-96438218D01*
X133492312Y-96537683D01*
X133629414Y-96641586D01*
X133766466Y-96747453D01*
X133900055Y-96852807D01*
X134026771Y-96955176D01*
X134092461Y-97009444D01*
X134665963Y-97511672D01*
X135209328Y-98036857D01*
X135721583Y-98583918D01*
X136201752Y-99151770D01*
X136648861Y-99739331D01*
X136975450Y-100212769D01*
X137117692Y-100431383D01*
X137244146Y-100632893D01*
X137360078Y-100826517D01*
X137470750Y-101021475D01*
X137581427Y-101226984D01*
X137697373Y-101452263D01*
X137795451Y-101648846D01*
X138064804Y-102227546D01*
X138298554Y-102801679D01*
X138498325Y-103376887D01*
X138665741Y-103958818D01*
X138802426Y-104553115D01*
X138910005Y-105165424D01*
X138990037Y-105800769D01*
X139000727Y-105931635D01*
X139009562Y-106094181D01*
X139016506Y-106281298D01*
X139021523Y-106485876D01*
X139024577Y-106700805D01*
X139025631Y-106918978D01*
X139024650Y-107133283D01*
X139021597Y-107336613D01*
X139016436Y-107521857D01*
X139009130Y-107681907D01*
X139000235Y-107803461D01*
X138918572Y-108490277D01*
X138803112Y-109168418D01*
X138653272Y-109839583D01*
X138468469Y-110505475D01*
X138248119Y-111167794D01*
X137991638Y-111828240D01*
X137698445Y-112488515D01*
X137367954Y-113150318D01*
X136999584Y-113815351D01*
X136853434Y-114062798D01*
X136792221Y-114165727D01*
X136739145Y-114256867D01*
X136697088Y-114331105D01*
X136668935Y-114383332D01*
X136657570Y-114408437D01*
X136657619Y-114409824D01*
X136673040Y-114399080D01*
X136711046Y-114364436D01*
X136767176Y-114310195D01*
X136836969Y-114240661D01*
X136907998Y-114168334D01*
X137244496Y-113796726D01*
X137565088Y-113390720D01*
X137869105Y-112951900D01*
X138155879Y-112481852D01*
X138424741Y-111982160D01*
X138675024Y-111454409D01*
X138906059Y-110900185D01*
X139117177Y-110321071D01*
X139307711Y-109718653D01*
X139476993Y-109094516D01*
X139624353Y-108450245D01*
X139749124Y-107787425D01*
X139834675Y-107227077D01*
X139910576Y-106574023D01*
X139963291Y-105897674D01*
X139992734Y-105206252D01*
X139998818Y-104507982D01*
X139981455Y-103811088D01*
X139940558Y-103123793D01*
X139884434Y-102528077D01*
X139786897Y-101789425D01*
X139660788Y-101062914D01*
X139506834Y-100350424D01*
X139325761Y-99653835D01*
X139118292Y-98975025D01*
X138885155Y-98315874D01*
X138627073Y-97678263D01*
X138344772Y-97064070D01*
X138038977Y-96475176D01*
X137710414Y-95913460D01*
X137359807Y-95380801D01*
X136987883Y-94879080D01*
X136882048Y-94746885D01*
X136833543Y-94685829D01*
X136797824Y-94637986D01*
X136779652Y-94609896D01*
X136778966Y-94605231D01*
X136802456Y-94617114D01*
X136850682Y-94650028D01*
X136918461Y-94699869D01*
X137000607Y-94762534D01*
X137091935Y-94833920D01*
X137187262Y-94909923D01*
X137281401Y-94986439D01*
X137369169Y-95059367D01*
X137445381Y-95124601D01*
X137504853Y-95178039D01*
X137515732Y-95188340D01*
X137577308Y-95251398D01*
X137646460Y-95330066D01*
X137724791Y-95426538D01*
X137813904Y-95543004D01*
X137915401Y-95681657D01*
X138030886Y-95844689D01*
X138161962Y-96034291D01*
X138310231Y-96252656D01*
X138477296Y-96501977D01*
X138487536Y-96517343D01*
X138674505Y-96800492D01*
X138844562Y-97063838D01*
X139001741Y-97314284D01*
X139150076Y-97558734D01*
X139293600Y-97804090D01*
X139436346Y-98057255D01*
X139582348Y-98325133D01*
X139735639Y-98614625D01*
X139900253Y-98932635D01*
X139910458Y-98952538D01*
X139998442Y-99123890D01*
X140087191Y-99296113D01*
X140173741Y-99463498D01*
X140255127Y-99620335D01*
X140328385Y-99760912D01*
X140390550Y-99879520D01*
X140438657Y-99970448D01*
X140448081Y-99988077D01*
X140682489Y-100414185D01*
X140910629Y-100805704D01*
X141134962Y-101166136D01*
X141357953Y-101498978D01*
X141582064Y-101807733D01*
X141809758Y-102095900D01*
X142043498Y-102366980D01*
X142285748Y-102624472D01*
X142346005Y-102685213D01*
X142574916Y-102905387D01*
X142790128Y-103094635D01*
X142996340Y-103256510D01*
X143198248Y-103394563D01*
X143400550Y-103512347D01*
X143519769Y-103572702D01*
X143732375Y-103666260D01*
X143930106Y-103733807D01*
X144124561Y-103778075D01*
X144327337Y-103801796D01*
X144517949Y-103807846D01*
X144618880Y-103807489D01*
X144687107Y-103805732D01*
X144729003Y-103801543D01*
X144750938Y-103793892D01*
X144759285Y-103781748D01*
X144760461Y-103768611D01*
X144746466Y-103735914D01*
X144700829Y-103706544D01*
X144677423Y-103696586D01*
X144435851Y-103588716D01*
X144188848Y-103455375D01*
X143945154Y-103302463D01*
X143713512Y-103135882D01*
X143502663Y-102961532D01*
X143321350Y-102785316D01*
X143311120Y-102774290D01*
X143133954Y-102570385D01*
X142969910Y-102356330D01*
X142817371Y-102128793D01*
X142674722Y-101884441D01*
X142540345Y-101619940D01*
X142412625Y-101331958D01*
X142289944Y-101017162D01*
X142170687Y-100672217D01*
X142053236Y-100293793D01*
X141974062Y-100017385D01*
X141860382Y-99611542D01*
X141754242Y-99239127D01*
X141654197Y-98895539D01*
X141558802Y-98576175D01*
X141466614Y-98276434D01*
X141376187Y-97991714D01*
X141286078Y-97717413D01*
X141194841Y-97448929D01*
X141101032Y-97181660D01*
X141003207Y-96911004D01*
X140974394Y-96832615D01*
X140731691Y-96205782D01*
X140467709Y-95582199D01*
X140185730Y-94968670D01*
X139889039Y-94372002D01*
X139580919Y-93798998D01*
X139264654Y-93256462D01*
X139211461Y-93169859D01*
X130201624Y-93169859D01*
X130195094Y-93177628D01*
X130179885Y-93173743D01*
X130154667Y-93165110D01*
X130098170Y-93146342D01*
X130016281Y-93119375D01*
X129914886Y-93086146D01*
X129799873Y-93048592D01*
X129764692Y-93037130D01*
X129668987Y-93005987D01*
X129585905Y-92979256D01*
X129511179Y-92955928D01*
X129440542Y-92934996D01*
X129369727Y-92915451D01*
X129294466Y-92896286D01*
X129210494Y-92876492D01*
X129113543Y-92855062D01*
X128999345Y-92830988D01*
X128863634Y-92803261D01*
X128702143Y-92770874D01*
X128510605Y-92732818D01*
X128299308Y-92690969D01*
X127990455Y-92630167D01*
X127714925Y-92576963D01*
X127467821Y-92530809D01*
X127244248Y-92491158D01*
X127039308Y-92457462D01*
X126848105Y-92429174D01*
X126665744Y-92405747D01*
X126487328Y-92386633D01*
X126307962Y-92371284D01*
X126122748Y-92359154D01*
X125926790Y-92349694D01*
X125715193Y-92342358D01*
X125483061Y-92336597D01*
X125225496Y-92331865D01*
X125065692Y-92329422D01*
X124738852Y-92323781D01*
X124447296Y-92316795D01*
X124187250Y-92308291D01*
X123954940Y-92298097D01*
X123746589Y-92286039D01*
X123558424Y-92271944D01*
X123386670Y-92255639D01*
X123336538Y-92250150D01*
X122934180Y-92196071D01*
X122561367Y-92127366D01*
X122210666Y-92042043D01*
X121874644Y-91938112D01*
X121545868Y-91813582D01*
X121294769Y-91703239D01*
X121161242Y-91642661D01*
X121045430Y-91594293D01*
X120937352Y-91555017D01*
X120827026Y-91521712D01*
X120704467Y-91491262D01*
X120559695Y-91460546D01*
X120448679Y-91438910D01*
X120288225Y-91407860D01*
X120158651Y-91381490D01*
X120052315Y-91357917D01*
X119961575Y-91335257D01*
X119878788Y-91311629D01*
X119796313Y-91285148D01*
X119725857Y-91260797D01*
X119553944Y-91200061D01*
X119566947Y-91139300D01*
X119578252Y-91094527D01*
X119587609Y-91070262D01*
X119587836Y-91069997D01*
X119608390Y-91067278D01*
X119663948Y-91062979D01*
X119750478Y-91057333D01*
X119863950Y-91050575D01*
X120000334Y-91042942D01*
X120155597Y-91034667D01*
X120325710Y-91025987D01*
X120436581Y-91020518D01*
X120645200Y-91010334D01*
X120818096Y-91001581D01*
X120958574Y-90993718D01*
X121069936Y-90986202D01*
X121155487Y-90978493D01*
X121218532Y-90970049D01*
X121262373Y-90960327D01*
X121290316Y-90948787D01*
X121305664Y-90934886D01*
X121311721Y-90918083D01*
X121311792Y-90897837D01*
X121309600Y-90877402D01*
X121305239Y-90867566D01*
X121292669Y-90854867D01*
X121269688Y-90838202D01*
X121234094Y-90816471D01*
X121183683Y-90788574D01*
X121116256Y-90753411D01*
X121029608Y-90709880D01*
X120921538Y-90656881D01*
X120789845Y-90593313D01*
X120632324Y-90518076D01*
X120446776Y-90430069D01*
X120230997Y-90328191D01*
X119982785Y-90211343D01*
X119884063Y-90164929D01*
X119663449Y-90061163D01*
X119453430Y-89962233D01*
X119256637Y-89869388D01*
X119075703Y-89783878D01*
X118913259Y-89706951D01*
X118771939Y-89639855D01*
X118654375Y-89583841D01*
X118563199Y-89540155D01*
X118501044Y-89510047D01*
X118470541Y-89494766D01*
X118467798Y-89493073D01*
X118486955Y-89487036D01*
X118539187Y-89471953D01*
X118619883Y-89449118D01*
X118724435Y-89419828D01*
X118848232Y-89385375D01*
X118986666Y-89347055D01*
X119047387Y-89330305D01*
X119190723Y-89290645D01*
X119321480Y-89254159D01*
X119435018Y-89222165D01*
X119526696Y-89195982D01*
X119591872Y-89176930D01*
X119625907Y-89166329D01*
X119629784Y-89164729D01*
X119628646Y-89161720D01*
X119621308Y-89154758D01*
X119606115Y-89142711D01*
X119581408Y-89124446D01*
X119545532Y-89098831D01*
X119496829Y-89064735D01*
X119433643Y-89021024D01*
X119354317Y-88966568D01*
X119257193Y-88900234D01*
X119140615Y-88820890D01*
X119002927Y-88727404D01*
X118842471Y-88618644D01*
X118657590Y-88493478D01*
X118446628Y-88350774D01*
X118207927Y-88189399D01*
X117939831Y-88008222D01*
X117699692Y-87845975D01*
X117503465Y-87713343D01*
X117316545Y-87586878D01*
X117141476Y-87468309D01*
X116980802Y-87359365D01*
X116837069Y-87261775D01*
X116712821Y-87177269D01*
X116610602Y-87107575D01*
X116532958Y-87054424D01*
X116482432Y-87019543D01*
X116461570Y-87004663D01*
X116461278Y-87004407D01*
X116475027Y-86994685D01*
X116522078Y-86974567D01*
X116598485Y-86945476D01*
X116700303Y-86908839D01*
X116823589Y-86866080D01*
X116964398Y-86818624D01*
X117091394Y-86776805D01*
X117242379Y-86727267D01*
X117380879Y-86681208D01*
X117502673Y-86640080D01*
X117603540Y-86605335D01*
X117679259Y-86578422D01*
X117725612Y-86560795D01*
X117738769Y-86554181D01*
X117721212Y-86544743D01*
X117671066Y-86522585D01*
X117592116Y-86489266D01*
X117488150Y-86446343D01*
X117362953Y-86395373D01*
X117220312Y-86337913D01*
X117064013Y-86275522D01*
X116986538Y-86244789D01*
X116825100Y-86180566D01*
X116675541Y-86120466D01*
X116541647Y-86066056D01*
X116427205Y-86018901D01*
X116336000Y-85980569D01*
X116271820Y-85952624D01*
X116238449Y-85936634D01*
X116234485Y-85933688D01*
X116250588Y-85915763D01*
X116294525Y-85882589D01*
X116360097Y-85838122D01*
X116441106Y-85786316D01*
X116531353Y-85731126D01*
X116624640Y-85676508D01*
X116714768Y-85626417D01*
X116722769Y-85622129D01*
X117088532Y-85446280D01*
X117481608Y-85293406D01*
X117897441Y-85163867D01*
X118331476Y-85058024D01*
X118779158Y-84976235D01*
X119235932Y-84918863D01*
X119697242Y-84886265D01*
X120158533Y-84878802D01*
X120615251Y-84896834D01*
X121062839Y-84940722D01*
X121496744Y-85010824D01*
X121912409Y-85107501D01*
X122187508Y-85190324D01*
X122287917Y-85226726D01*
X122405322Y-85274231D01*
X122532704Y-85329497D01*
X122663048Y-85389180D01*
X122789336Y-85449939D01*
X122904551Y-85508430D01*
X123001677Y-85561311D01*
X123073696Y-85605237D01*
X123102077Y-85626021D01*
X123160692Y-85674748D01*
X121765320Y-85675451D01*
X121536041Y-85675715D01*
X121318798Y-85676254D01*
X121116656Y-85677043D01*
X120932676Y-85678055D01*
X120769923Y-85679265D01*
X120631460Y-85680648D01*
X120520349Y-85682177D01*
X120439654Y-85683827D01*
X120392439Y-85685572D01*
X120380865Y-85687070D01*
X120408882Y-85700704D01*
X120472112Y-85722227D01*
X120567654Y-85750901D01*
X120692607Y-85785988D01*
X120844070Y-85826750D01*
X121019144Y-85872450D01*
X121214927Y-85922350D01*
X121428518Y-85975712D01*
X121657018Y-86031799D01*
X121897526Y-86089873D01*
X122147140Y-86149196D01*
X122402961Y-86209031D01*
X122662088Y-86268641D01*
X122715376Y-86280771D01*
X122905123Y-86323962D01*
X123093653Y-86367024D01*
X123275288Y-86408649D01*
X123444347Y-86447530D01*
X123595152Y-86482358D01*
X123722023Y-86511828D01*
X123819281Y-86534631D01*
X123854830Y-86543076D01*
X124326639Y-86663783D01*
X124762787Y-86791886D01*
X125166181Y-86928485D01*
X125539728Y-87074684D01*
X125886333Y-87231585D01*
X126208903Y-87400290D01*
X126382958Y-87502054D01*
X126496969Y-87574753D01*
X126626084Y-87662540D01*
X126760731Y-87758440D01*
X126891336Y-87855481D01*
X127008325Y-87946689D01*
X127102127Y-88025091D01*
X127107461Y-88029816D01*
X127150054Y-88069036D01*
X127165017Y-88088087D01*
X127154761Y-88091793D01*
X127136769Y-88088495D01*
X127108645Y-88082172D01*
X127046191Y-88068091D01*
X126953191Y-88047104D01*
X126833430Y-88020069D01*
X126690695Y-87987838D01*
X126528770Y-87951267D01*
X126351439Y-87911210D01*
X126162490Y-87868522D01*
X126101849Y-87854821D01*
X125911801Y-87812014D01*
X125733578Y-87772131D01*
X125570755Y-87735954D01*
X125426903Y-87704262D01*
X125305598Y-87677840D01*
X125210411Y-87657467D01*
X125144917Y-87643925D01*
X125112689Y-87637997D01*
X125109925Y-87637869D01*
X125124376Y-87649018D01*
X125168095Y-87677409D01*
X125236738Y-87720352D01*
X125325963Y-87775156D01*
X125431427Y-87839130D01*
X125539153Y-87903826D01*
X125873176Y-88104345D01*
X126175795Y-88287869D01*
X126449824Y-88456273D01*
X126698077Y-88611432D01*
X126923368Y-88755222D01*
X127128513Y-88889516D01*
X127316325Y-89016191D01*
X127489619Y-89137120D01*
X127651210Y-89254180D01*
X127803911Y-89369244D01*
X127950538Y-89484188D01*
X128093904Y-89600886D01*
X128123461Y-89625459D01*
X128301180Y-89780934D01*
X128486770Y-89956363D01*
X128673350Y-90144427D01*
X128854037Y-90337808D01*
X129021952Y-90529186D01*
X129170212Y-90711242D01*
X129269209Y-90844077D01*
X129320394Y-90917417D01*
X129350221Y-90963184D01*
X129360812Y-90985041D01*
X129354291Y-90986650D01*
X129350687Y-90984599D01*
X129329518Y-90974630D01*
X129275970Y-90950480D01*
X129193452Y-90913661D01*
X129085376Y-90865681D01*
X128955149Y-90808052D01*
X128806182Y-90742283D01*
X128641884Y-90669885D01*
X128465666Y-90592367D01*
X128397545Y-90562435D01*
X127463908Y-90152326D01*
X127428480Y-90195355D01*
X127391754Y-90245640D01*
X127368501Y-90283410D01*
X127355411Y-90317369D01*
X127366105Y-90344194D01*
X127395121Y-90371333D01*
X127426240Y-90397471D01*
X127481432Y-90443881D01*
X127554879Y-90505666D01*
X127640761Y-90577932D01*
X127726261Y-90649892D01*
X127823668Y-90731725D01*
X127942603Y-90831392D01*
X128074537Y-90941761D01*
X128210939Y-91055698D01*
X128343277Y-91166070D01*
X128406769Y-91218949D01*
X128727527Y-91492307D01*
X129015697Y-91751678D01*
X129273967Y-91999890D01*
X129505023Y-92239772D01*
X129711550Y-92474153D01*
X129896235Y-92705862D01*
X130061765Y-92937729D01*
X130114041Y-93016919D01*
X130162987Y-93094006D01*
X130191551Y-93143485D01*
X130201624Y-93169859D01*
X139211461Y-93169859D01*
X139190025Y-93134961D01*
X139130272Y-93038109D01*
X139078900Y-92953764D01*
X139038989Y-92887073D01*
X139013616Y-92843180D01*
X139005861Y-92827232D01*
X139005878Y-92827231D01*
X139029004Y-92835136D01*
X139084463Y-92857911D01*
X139169062Y-92894145D01*
X139279610Y-92942428D01*
X139412915Y-93001349D01*
X139565784Y-93069499D01*
X139735027Y-93145466D01*
X139917451Y-93227840D01*
X140100538Y-93310964D01*
X140421338Y-93455768D01*
X140711105Y-93583778D01*
X140973441Y-93696301D01*
X141211948Y-93794643D01*
X141430225Y-93880109D01*
X141631873Y-93954004D01*
X141820494Y-94017635D01*
X141999689Y-94072307D01*
X142173058Y-94119327D01*
X142344202Y-94159999D01*
X142516723Y-94195630D01*
X142565648Y-94204859D01*
X142752659Y-94234826D01*
X142950960Y-94258340D01*
X143153202Y-94275132D01*
X143352032Y-94284932D01*
X143540099Y-94287471D01*
X143710052Y-94282479D01*
X143854540Y-94269687D01*
X143939846Y-94255239D01*
X144008231Y-94240181D01*
X143920308Y-94217371D01*
X143685605Y-94154278D01*
X143480503Y-94093951D01*
X143295970Y-94033283D01*
X143122973Y-93969172D01*
X142952479Y-93898512D01*
X142821961Y-93839882D01*
X142655266Y-93760657D01*
X142493466Y-93678895D01*
X142333717Y-93592639D01*
X142173174Y-93499935D01*
X142008993Y-93398828D01*
X141838332Y-93287362D01*
X141658344Y-93163581D01*
X141466188Y-93025532D01*
X141259018Y-92871257D01*
X141033990Y-92698803D01*
X140788261Y-92506214D01*
X140518986Y-92291534D01*
X140227538Y-92056230D01*
X140104613Y-91957439D01*
X139956535Y-91840000D01*
X139789436Y-91708686D01*
X139609445Y-91568270D01*
X139422691Y-91423525D01*
X139235304Y-91279222D01*
X139053414Y-91140135D01*
X138951108Y-91062413D01*
X138775342Y-90929256D01*
X138590161Y-90788975D01*
X138401714Y-90646227D01*
X138216149Y-90505669D01*
X138039613Y-90371958D01*
X137878256Y-90249749D01*
X137738225Y-90143701D01*
X137667291Y-90089987D01*
X137268295Y-89790930D01*
X136893921Y-89516896D01*
X136540762Y-89265677D01*
X136205415Y-89035065D01*
X135884474Y-88822853D01*
X135574533Y-88626832D01*
X135272188Y-88444794D01*
X134974034Y-88274531D01*
X134676665Y-88113835D01*
X134405077Y-87974658D01*
X134228946Y-87887712D01*
X134062830Y-87808288D01*
X133901811Y-87734434D01*
X133740969Y-87664201D01*
X133575384Y-87595637D01*
X133400138Y-87526794D01*
X133210310Y-87455719D01*
X133000981Y-87380462D01*
X132767232Y-87299074D01*
X132504143Y-87209604D01*
X132317794Y-87147099D01*
X132143776Y-87088950D01*
X131981517Y-87034681D01*
X131834695Y-86985526D01*
X131706989Y-86942719D01*
X131602079Y-86907493D01*
X131523643Y-86881084D01*
X131475359Y-86864723D01*
X131460733Y-86859620D01*
X131461619Y-86840828D01*
X131469797Y-86799963D01*
X131481532Y-86752441D01*
X131493092Y-86713680D01*
X131499513Y-86699513D01*
X131519980Y-86701523D01*
X131574361Y-86711181D01*
X131658435Y-86727623D01*
X131767975Y-86749984D01*
X131898760Y-86777401D01*
X132046564Y-86809009D01*
X132207165Y-86843945D01*
X132229029Y-86848745D01*
X132504473Y-86908993D01*
X132763359Y-86964968D01*
X133009943Y-87017492D01*
X133248484Y-87067392D01*
X133483240Y-87115491D01*
X133718467Y-87162615D01*
X133958425Y-87209587D01*
X134207370Y-87257232D01*
X134469560Y-87306374D01*
X134749253Y-87357839D01*
X135050707Y-87412450D01*
X135378179Y-87471032D01*
X135735928Y-87534410D01*
X136104923Y-87599324D01*
X136391037Y-87649035D01*
X136679829Y-87698287D01*
X136967628Y-87746507D01*
X137250761Y-87793119D01*
X137525558Y-87837548D01*
X137788345Y-87879219D01*
X138035452Y-87917558D01*
X138263206Y-87951989D01*
X138467935Y-87981938D01*
X138645968Y-88006830D01*
X138793633Y-88026089D01*
X138907257Y-88039142D01*
X138925970Y-88040995D01*
X139043941Y-88048354D01*
X139173226Y-88048393D01*
X139319081Y-88040712D01*
X139486763Y-88024910D01*
X139681531Y-88000585D01*
X139908640Y-87967338D01*
X139924692Y-87964852D01*
X140048641Y-87945454D01*
X140138294Y-87930711D01*
X140197980Y-87919363D01*
X140232030Y-87910148D01*
X140244775Y-87901806D01*
X140240543Y-87893078D01*
X140223666Y-87882701D01*
X140217704Y-87879559D01*
X140185930Y-87864767D01*
X140122823Y-87836927D01*
X140033100Y-87798066D01*
X139921480Y-87750209D01*
X139792683Y-87695382D01*
X139651426Y-87635611D01*
X139553396Y-87594327D01*
X139296517Y-87485952D01*
X139070579Y-87389582D01*
X138870260Y-87302664D01*
X138690238Y-87222643D01*
X138525192Y-87146965D01*
X138369799Y-87073075D01*
X138218738Y-86998420D01*
X138066685Y-86920444D01*
X137908321Y-86836595D01*
X137738321Y-86744318D01*
X137551366Y-86641058D01*
X137453077Y-86586304D01*
X137253143Y-86476704D01*
X137029868Y-86357813D01*
X136790580Y-86233303D01*
X136542606Y-86106847D01*
X136293273Y-85982116D01*
X136049909Y-85862783D01*
X135819842Y-85752520D01*
X135610399Y-85654999D01*
X135460154Y-85587541D01*
X134703129Y-85271429D01*
X133953172Y-84991798D01*
X133208231Y-84748430D01*
X132466251Y-84541104D01*
X131725180Y-84369601D01*
X130982963Y-84233701D01*
X130237547Y-84133186D01*
X129486878Y-84067834D01*
X128728902Y-84037426D01*
X127961567Y-84041744D01*
X127182818Y-84080567D01*
X126390601Y-84153676D01*
X125582864Y-84260851D01*
X124757553Y-84401872D01*
X124619662Y-84428356D01*
X124483608Y-84454662D01*
X124376993Y-84474191D01*
X124290926Y-84487789D01*
X124216521Y-84496302D01*
X124144887Y-84500575D01*
X124067138Y-84501456D01*
X123974383Y-84499790D01*
X123893385Y-84497490D01*
X123774105Y-84492547D01*
X123656208Y-84484482D01*
X123536304Y-84472600D01*
X123411003Y-84456206D01*
X123276915Y-84434605D01*
X123130650Y-84407101D01*
X122968818Y-84373000D01*
X122788028Y-84331607D01*
X122584890Y-84282226D01*
X122356016Y-84224162D01*
X122098013Y-84156720D01*
X121807493Y-84079206D01*
X121661670Y-84039886D01*
X121461590Y-83985473D01*
X121296844Y-83939913D01*
X121164898Y-83902420D01*
X121063217Y-83872212D01*
X120989266Y-83848502D01*
X120940509Y-83830508D01*
X120914411Y-83817444D01*
X120908438Y-83808527D01*
X120909439Y-83807167D01*
X120939271Y-83785909D01*
X120997363Y-83750451D01*
X121077179Y-83704375D01*
X121172181Y-83651260D01*
X121275832Y-83594686D01*
X121381596Y-83538234D01*
X121482934Y-83485483D01*
X121573309Y-83440012D01*
X121626923Y-83414258D01*
X122047850Y-83231051D01*
X122475490Y-83071819D01*
X122912962Y-82936018D01*
X123363386Y-82823107D01*
X123829883Y-82732543D01*
X124315573Y-82663782D01*
X124823577Y-82616283D01*
X125357015Y-82589503D01*
X125919006Y-82582900D01*
X126362211Y-82590894D01*
X126566453Y-82597449D01*
X126767131Y-82604942D01*
X126967431Y-82613599D01*
X127170540Y-82623646D01*
X127379644Y-82635308D01*
X127597930Y-82648812D01*
X127828584Y-82664384D01*
X128074794Y-82682249D01*
X128339745Y-82702634D01*
X128626624Y-82725765D01*
X128938618Y-82751867D01*
X129278914Y-82781167D01*
X129650698Y-82813890D01*
X130057156Y-82850263D01*
X130194538Y-82862662D01*
X130437095Y-82884588D01*
X130671286Y-82905749D01*
X130893759Y-82925841D01*
X131101157Y-82944562D01*
X131290125Y-82961610D01*
X131457309Y-82976682D01*
X131599353Y-82989475D01*
X131712901Y-82999688D01*
X131794599Y-83007016D01*
X131841092Y-83011159D01*
X131843831Y-83011400D01*
X131988662Y-83024109D01*
X131948105Y-82967153D01*
X131918360Y-82931879D01*
X131863771Y-82873628D01*
X131788094Y-82796049D01*
X131695087Y-82702791D01*
X131588507Y-82597501D01*
X131472111Y-82483830D01*
X131349656Y-82365427D01*
X131224898Y-82245939D01*
X131101596Y-82129017D01*
X130983506Y-82018308D01*
X130874385Y-81917463D01*
X130777990Y-81830129D01*
X130770446Y-81823395D01*
X130174705Y-81314207D01*
X129571119Y-80841793D01*
X128960123Y-80406392D01*
X128342149Y-80008244D01*
X127717630Y-79647589D01*
X127086999Y-79324666D01*
X126450688Y-79039714D01*
X125809131Y-78792974D01*
X125162761Y-78584686D01*
X124690529Y-78457647D01*
X124360840Y-78380062D01*
X124048064Y-78314823D01*
X123740109Y-78259889D01*
X123424878Y-78213218D01*
X123090278Y-78172768D01*
X122867615Y-78149900D01*
X122744897Y-78140866D01*
X122590146Y-78133937D01*
X122410348Y-78129076D01*
X122212489Y-78126245D01*
X122003555Y-78125407D01*
X121790530Y-78126522D01*
X121580401Y-78129554D01*
X121380153Y-78134464D01*
X121196772Y-78141215D01*
X121037244Y-78149768D01*
X120908553Y-78160086D01*
X120904000Y-78160550D01*
X120329335Y-78231808D01*
X119768803Y-78326410D01*
X119218290Y-78445673D01*
X118673682Y-78590917D01*
X118130866Y-78763459D01*
X117585728Y-78964619D01*
X117034155Y-79195716D01*
X116472032Y-79458067D01*
X115895247Y-79752993D01*
X115833769Y-79785848D01*
X115668380Y-79875375D01*
X115496005Y-79970312D01*
X115312744Y-80072883D01*
X115114700Y-80185313D01*
X114897973Y-80309824D01*
X114658665Y-80448642D01*
X114392877Y-80603989D01*
X114173000Y-80733164D01*
X113956779Y-80859918D01*
X113769129Y-80968687D01*
X113605358Y-81061995D01*
X113460774Y-81142364D01*
X113330686Y-81212320D01*
X113210402Y-81274386D01*
X113095231Y-81331086D01*
X112980480Y-81384944D01*
X112863923Y-81437395D01*
X112361703Y-81641212D01*
X111860210Y-81807746D01*
X111354567Y-81938384D01*
X110839900Y-82034517D01*
X110695154Y-82055220D01*
X110562505Y-82068971D01*
X110399114Y-82079553D01*
X110213021Y-82086966D01*
X110012265Y-82091210D01*
X109804886Y-82092284D01*
X109598922Y-82090187D01*
X109402413Y-82084920D01*
X109223399Y-82076481D01*
X109069918Y-82064870D01*
X108985538Y-82055338D01*
X108836320Y-82033649D01*
X108679017Y-82007972D01*
X108521122Y-81979774D01*
X108370129Y-81950521D01*
X108233529Y-81921680D01*
X108118816Y-81894718D01*
X108033484Y-81871100D01*
X108017724Y-81865926D01*
X107825203Y-81784816D01*
X107662451Y-81682480D01*
X107523924Y-81554428D01*
X107404079Y-81396173D01*
X107370940Y-81342136D01*
X107163927Y-81010845D01*
X106951720Y-80715971D01*
X106731768Y-80454944D01*
X106501519Y-80225195D01*
X106258420Y-80024153D01*
X105999922Y-79849249D01*
X105753038Y-79712580D01*
X105484014Y-79593825D01*
X105194967Y-79498217D01*
X104880989Y-79424347D01*
X104584849Y-79376809D01*
X104481019Y-79361575D01*
X104404725Y-79345324D01*
X104344494Y-79324746D01*
X104288852Y-79296532D01*
X104272234Y-79286631D01*
X104217723Y-79253205D01*
X104184599Y-79232662D01*
X104127634Y-79232662D01*
X104127591Y-79232733D01*
X104100382Y-79254507D01*
X104044535Y-79284827D01*
X103968532Y-79320036D01*
X103880856Y-79356472D01*
X103789991Y-79390478D01*
X103704419Y-79418393D01*
X103683139Y-79424462D01*
X103528653Y-79460606D01*
X103376730Y-79482038D01*
X103216675Y-79489390D01*
X103037792Y-79483299D01*
X102894423Y-79471254D01*
X102678511Y-79434259D01*
X102452110Y-79367172D01*
X102224333Y-79273709D01*
X102004291Y-79157585D01*
X101810038Y-79029160D01*
X101749961Y-78984079D01*
X101704217Y-78948459D01*
X101680120Y-78928050D01*
X101678154Y-78925539D01*
X101694749Y-78911934D01*
X101740041Y-78885292D01*
X101807286Y-78849039D01*
X101889742Y-78806602D01*
X101980667Y-78761407D01*
X102073316Y-78716882D01*
X102160949Y-78676454D01*
X102214534Y-78652923D01*
X102385975Y-78584099D01*
X102536679Y-78534337D01*
X102678254Y-78500772D01*
X102822309Y-78480543D01*
X102948154Y-78471993D01*
X103147136Y-78474400D01*
X103321700Y-78501774D01*
X103479667Y-78556994D01*
X103628855Y-78642941D01*
X103777086Y-78762496D01*
X103803514Y-78787091D01*
X103869696Y-78854601D01*
X103936904Y-78931348D01*
X104000548Y-79011019D01*
X104056034Y-79087300D01*
X104098771Y-79153877D01*
X104124169Y-79204435D01*
X104127634Y-79232662D01*
X104184599Y-79232662D01*
X104178800Y-79229066D01*
X104165010Y-79220199D01*
X104160561Y-79200496D01*
X104151768Y-79149263D01*
X104139659Y-79073464D01*
X104125260Y-78980066D01*
X104109599Y-78876034D01*
X104093704Y-78768334D01*
X104078601Y-78663930D01*
X104065318Y-78569789D01*
X104054883Y-78492875D01*
X104048323Y-78440155D01*
X104046664Y-78418593D01*
X104046758Y-78418431D01*
X104067206Y-78423063D01*
X104120750Y-78439387D01*
X104203630Y-78466106D01*
X104312090Y-78501923D01*
X104442369Y-78545541D01*
X104590709Y-78595664D01*
X104753350Y-78650994D01*
X104926535Y-78710234D01*
X105106503Y-78772088D01*
X105289497Y-78835259D01*
X105471758Y-78898449D01*
X105649526Y-78960362D01*
X105819042Y-79019701D01*
X105976548Y-79075169D01*
X106118286Y-79125469D01*
X106240495Y-79169305D01*
X106339417Y-79205378D01*
X106411294Y-79232393D01*
X106445538Y-79246076D01*
X106828067Y-79421587D01*
X107180473Y-79611759D01*
X107325820Y-79699761D01*
X107555402Y-79839473D01*
X107764696Y-79957428D01*
X107962534Y-80057928D01*
X108157748Y-80145278D01*
X108359169Y-80223779D01*
X108506846Y-80275189D01*
X108875381Y-80380815D01*
X109247767Y-80452600D01*
X109625687Y-80490408D01*
X110010825Y-80494101D01*
X110404865Y-80463543D01*
X110809489Y-80398595D01*
X111226383Y-80299122D01*
X111657228Y-80164984D01*
X112103710Y-79996046D01*
X112146276Y-79978482D01*
X112216299Y-79948669D01*
X112297162Y-79912821D01*
X112390544Y-79870108D01*
X112498124Y-79819699D01*
X112621582Y-79760764D01*
X112762598Y-79692473D01*
X112922850Y-79613995D01*
X113104019Y-79524499D01*
X113307783Y-79423156D01*
X113535823Y-79309135D01*
X113789817Y-79181606D01*
X114071445Y-79039737D01*
X114382387Y-78882700D01*
X114724322Y-78709663D01*
X115098929Y-78519796D01*
X115194242Y-78471449D01*
X115402920Y-78365289D01*
X115600787Y-78264056D01*
X115785173Y-78169150D01*
X115953407Y-78081974D01*
X116102818Y-78003930D01*
X116207481Y-77948692D01*
X103398526Y-77948692D01*
X103344302Y-77963278D01*
X103313359Y-77969137D01*
X103247821Y-77979719D01*
X103151806Y-77994442D01*
X103029431Y-78012718D01*
X102884815Y-78033964D01*
X102722077Y-78057593D01*
X102545336Y-78083021D01*
X102358709Y-78109662D01*
X102166315Y-78136932D01*
X101972272Y-78164245D01*
X101780700Y-78191015D01*
X101595716Y-78216658D01*
X101421439Y-78240589D01*
X101261987Y-78262222D01*
X101121479Y-78280972D01*
X101004033Y-78296254D01*
X100974769Y-78299967D01*
X100743714Y-78324515D01*
X100531700Y-78337912D01*
X100343057Y-78340137D01*
X100182120Y-78331169D01*
X100053221Y-78310990D01*
X100027154Y-78304371D01*
X99903536Y-78262186D01*
X99798520Y-78206978D01*
X99703232Y-78132246D01*
X99608796Y-78031487D01*
X99545694Y-77951653D01*
X99450300Y-77810122D01*
X99352289Y-77637311D01*
X99254877Y-77440576D01*
X99161279Y-77227277D01*
X99074712Y-77004772D01*
X98998392Y-76780418D01*
X98935535Y-76561573D01*
X98931894Y-76547328D01*
X98879564Y-76325467D01*
X98841977Y-76127239D01*
X98817526Y-75940785D01*
X98804604Y-75754246D01*
X98801489Y-75584538D01*
X98800482Y-75501356D01*
X98798447Y-75427651D01*
X98797188Y-75364469D01*
X98798509Y-75312860D01*
X98804217Y-75273870D01*
X98816114Y-75248549D01*
X98836007Y-75237945D01*
X98865700Y-75243104D01*
X98906997Y-75265076D01*
X98961704Y-75304908D01*
X99031625Y-75363649D01*
X99118565Y-75442346D01*
X99224328Y-75542048D01*
X99350720Y-75663802D01*
X99499544Y-75808656D01*
X99672607Y-75977659D01*
X99871712Y-76171859D01*
X99958834Y-76256618D01*
X100133614Y-76426355D01*
X100300215Y-76587872D01*
X100456530Y-76739142D01*
X100600452Y-76878141D01*
X100729874Y-77002842D01*
X100842691Y-77111220D01*
X100936795Y-77201250D01*
X101010080Y-77270904D01*
X101060440Y-77318159D01*
X101085767Y-77340988D01*
X101088421Y-77342823D01*
X101078976Y-77325972D01*
X101049744Y-77278810D01*
X101002286Y-77203762D01*
X100938158Y-77103250D01*
X100858920Y-76979698D01*
X100766129Y-76835527D01*
X100661344Y-76673162D01*
X100546124Y-76495024D01*
X100422026Y-76303538D01*
X100290610Y-76101126D01*
X100214220Y-75983626D01*
X100079396Y-75776093D01*
X99951072Y-75578063D01*
X99830800Y-75391964D01*
X99720136Y-75220225D01*
X99620634Y-75065275D01*
X99533849Y-74929543D01*
X99461335Y-74815457D01*
X99404647Y-74725446D01*
X99365339Y-74661938D01*
X99344965Y-74627363D01*
X99342406Y-74621542D01*
X99362829Y-74626324D01*
X99412591Y-74647098D01*
X99486643Y-74681305D01*
X99579933Y-74726385D01*
X99687409Y-74779779D01*
X99804020Y-74838926D01*
X99924715Y-74901266D01*
X100044441Y-74964241D01*
X100158148Y-75025290D01*
X100260784Y-75081852D01*
X100339769Y-75126956D01*
X100846984Y-75446055D01*
X101335067Y-75799130D01*
X101803737Y-76185928D01*
X102252715Y-76606195D01*
X102681719Y-77059678D01*
X103090467Y-77546123D01*
X103250829Y-77753308D01*
X103398526Y-77948692D01*
X116207481Y-77948692D01*
X116230736Y-77936419D01*
X116334489Y-77880844D01*
X116411407Y-77838606D01*
X116458819Y-77811107D01*
X116474055Y-77799749D01*
X116474011Y-77799694D01*
X116448269Y-77785443D01*
X116390929Y-77760273D01*
X116307273Y-77726199D01*
X116202579Y-77685233D01*
X116082126Y-77639385D01*
X115951194Y-77590670D01*
X115815062Y-77541099D01*
X115679009Y-77492684D01*
X115562891Y-77452411D01*
X114872671Y-77233897D01*
X114154247Y-77040481D01*
X113409695Y-76872563D01*
X112641092Y-76730541D01*
X111850515Y-76614814D01*
X111040038Y-76525780D01*
X110512829Y-76483059D01*
X110317259Y-76471110D01*
X110096361Y-76460685D01*
X109854296Y-76451784D01*
X109595223Y-76444411D01*
X109323304Y-76438565D01*
X109042699Y-76434251D01*
X108757568Y-76431468D01*
X108472072Y-76430219D01*
X108190372Y-76430506D01*
X107916629Y-76432330D01*
X107655002Y-76435693D01*
X107409653Y-76440596D01*
X107184742Y-76447043D01*
X106984429Y-76455033D01*
X106812876Y-76464570D01*
X106674242Y-76475654D01*
X106621385Y-76481430D01*
X106148314Y-76557217D01*
X105689799Y-76666545D01*
X105247978Y-76808598D01*
X104824989Y-76982564D01*
X104422972Y-77187627D01*
X104044064Y-77422972D01*
X103919777Y-77510544D01*
X103857460Y-77554654D01*
X103806999Y-77588121D01*
X103776732Y-77605496D01*
X103772563Y-77606769D01*
X103755355Y-77592515D01*
X103713795Y-77550979D01*
X103649590Y-77484004D01*
X103564445Y-77393430D01*
X103460063Y-77281100D01*
X103338149Y-77148855D01*
X103200409Y-76998536D01*
X103048547Y-76831984D01*
X102884267Y-76651043D01*
X102732532Y-76483308D01*
X102410582Y-76133982D01*
X102099755Y-75811112D01*
X101801582Y-75516161D01*
X101517589Y-75250590D01*
X101249305Y-75015863D01*
X100998258Y-74813441D01*
X100945461Y-74773366D01*
X100814153Y-74676411D01*
X100683539Y-74583373D01*
X100550122Y-74492145D01*
X100410405Y-74400620D01*
X100260892Y-74306688D01*
X100098087Y-74208245D01*
X99918491Y-74103180D01*
X99718608Y-73989388D01*
X99494942Y-73864760D01*
X99243996Y-73727190D01*
X98962272Y-73574568D01*
X98906878Y-73544719D01*
X98828550Y-73502507D01*
X95491092Y-73502507D01*
X95485144Y-73521614D01*
X95449996Y-73555870D01*
X95390789Y-73601777D01*
X95312663Y-73655838D01*
X95220759Y-73714555D01*
X95120217Y-73774431D01*
X95016179Y-73831967D01*
X94976461Y-73852661D01*
X94805293Y-73935333D01*
X94651603Y-73998114D01*
X94502530Y-74045742D01*
X94358549Y-74080217D01*
X94258891Y-74093917D01*
X94132811Y-74100991D01*
X93992348Y-74101734D01*
X93849540Y-74096438D01*
X93716423Y-74085397D01*
X93605036Y-74068906D01*
X93569692Y-74060960D01*
X93455791Y-74023586D01*
X93323013Y-73967094D01*
X93182577Y-73897292D01*
X93045705Y-73819987D01*
X92923615Y-73740984D01*
X92860584Y-73693954D01*
X92708322Y-73572077D01*
X92759373Y-73531177D01*
X92830105Y-73480601D01*
X92925457Y-73420769D01*
X93034240Y-73358073D01*
X93145265Y-73298903D01*
X93247343Y-73249650D01*
X93268656Y-73240278D01*
X93411102Y-73183112D01*
X93541087Y-73141113D01*
X93670234Y-73111882D01*
X93810166Y-73093022D01*
X93972507Y-73082133D01*
X94048385Y-73079412D01*
X94262817Y-73079263D01*
X94452794Y-73093676D01*
X94630890Y-73124728D01*
X94809679Y-73174497D01*
X94966692Y-73231150D01*
X95053386Y-73267556D01*
X95150061Y-73312149D01*
X95248524Y-73360689D01*
X95340583Y-73408938D01*
X95418047Y-73452656D01*
X95472724Y-73487604D01*
X95491092Y-73502507D01*
X98828550Y-73502507D01*
X98742263Y-73456006D01*
X98582816Y-73369945D01*
X98433024Y-73288964D01*
X98297370Y-73215493D01*
X98180340Y-73151965D01*
X98086419Y-73100808D01*
X98020091Y-73064453D01*
X97997926Y-73052166D01*
X97844390Y-72966385D01*
X97968618Y-72949307D01*
X98041243Y-72942597D01*
X98145916Y-72937377D01*
X98275636Y-72933627D01*
X98423405Y-72931331D01*
X98582221Y-72930469D01*
X98745085Y-72931025D01*
X98904996Y-72932979D01*
X99054956Y-72936314D01*
X99187963Y-72941012D01*
X99297018Y-72947055D01*
X99362846Y-72952906D01*
X99866204Y-73025928D01*
X100373850Y-73129790D01*
X100888786Y-73265331D01*
X101414016Y-73433391D01*
X101952543Y-73634809D01*
X102266817Y-73764957D01*
X102337710Y-73795308D01*
X102374278Y-73703323D01*
X102396318Y-73648263D01*
X102412148Y-73609419D01*
X102416430Y-73599379D01*
X102403008Y-73585553D01*
X102362395Y-73559197D01*
X102302372Y-73525214D01*
X102279661Y-73513177D01*
X102225236Y-73484358D01*
X102142467Y-73439964D01*
X102037280Y-73383201D01*
X101915600Y-73317273D01*
X101783350Y-73245387D01*
X101646457Y-73170746D01*
X101627774Y-73160541D01*
X101373015Y-73022392D01*
X101146517Y-72902050D01*
X100943094Y-72797110D01*
X100757565Y-72705164D01*
X100584747Y-72623806D01*
X100419457Y-72550630D01*
X100256512Y-72483228D01*
X100090728Y-72419195D01*
X99916924Y-72356124D01*
X99829975Y-72325777D01*
X99175731Y-72118657D01*
X98506367Y-71944011D01*
X97819501Y-71801338D01*
X97112749Y-71690136D01*
X96461385Y-71616887D01*
X96311757Y-71605503D01*
X96130158Y-71595635D01*
X95923667Y-71587379D01*
X95699366Y-71580830D01*
X95464333Y-71576084D01*
X95225650Y-71573235D01*
X94990395Y-71572380D01*
X94765648Y-71573614D01*
M02*
