G04 #@! TF.GenerationSoftware,KiCad,Pcbnew,5.1.4*
G04 #@! TF.CreationDate,2019-11-22T11:27:49-05:00*
G04 #@! TF.ProjectId,wheel_speed,77686565-6c5f-4737-9065-65642e6b6963,rev?*
G04 #@! TF.SameCoordinates,Original*
G04 #@! TF.FileFunction,Soldermask,Top*
G04 #@! TF.FilePolarity,Negative*
%FSLAX46Y46*%
G04 Gerber Fmt 4.6, Leading zero omitted, Abs format (unit mm)*
G04 Created by KiCad (PCBNEW 5.1.4) date 2019-11-22 11:27:49*
%MOMM*%
%LPD*%
G04 APERTURE LIST*
%ADD10C,0.100000*%
G04 APERTURE END LIST*
D10*
G36*
X114504473Y-124801938D02*
G01*
X114632049Y-124854782D01*
X114746859Y-124931495D01*
X114844505Y-125029141D01*
X114921218Y-125143951D01*
X114974062Y-125271527D01*
X115001000Y-125406956D01*
X115001000Y-125545044D01*
X114974062Y-125680473D01*
X114921218Y-125808049D01*
X114844505Y-125922859D01*
X114746859Y-126020505D01*
X114632049Y-126097218D01*
X114504473Y-126150062D01*
X114369044Y-126177000D01*
X114230956Y-126177000D01*
X114095527Y-126150062D01*
X113967951Y-126097218D01*
X113853141Y-126020505D01*
X113755495Y-125922859D01*
X113678782Y-125808049D01*
X113625938Y-125680473D01*
X113599000Y-125545044D01*
X113599000Y-125406956D01*
X113625938Y-125271527D01*
X113678782Y-125143951D01*
X113755495Y-125029141D01*
X113853141Y-124931495D01*
X113967951Y-124854782D01*
X114095527Y-124801938D01*
X114230956Y-124775000D01*
X114369044Y-124775000D01*
X114504473Y-124801938D01*
X114504473Y-124801938D01*
G37*
G36*
X117044473Y-124801938D02*
G01*
X117172049Y-124854782D01*
X117286859Y-124931495D01*
X117384505Y-125029141D01*
X117461218Y-125143951D01*
X117514062Y-125271527D01*
X117541000Y-125406956D01*
X117541000Y-125545044D01*
X117514062Y-125680473D01*
X117461218Y-125808049D01*
X117384505Y-125922859D01*
X117286859Y-126020505D01*
X117172049Y-126097218D01*
X117044473Y-126150062D01*
X116909044Y-126177000D01*
X116770956Y-126177000D01*
X116635527Y-126150062D01*
X116507951Y-126097218D01*
X116393141Y-126020505D01*
X116295495Y-125922859D01*
X116218782Y-125808049D01*
X116165938Y-125680473D01*
X116139000Y-125545044D01*
X116139000Y-125406956D01*
X116165938Y-125271527D01*
X116218782Y-125143951D01*
X116295495Y-125029141D01*
X116393141Y-124931495D01*
X116507951Y-124854782D01*
X116635527Y-124801938D01*
X116770956Y-124775000D01*
X116909044Y-124775000D01*
X117044473Y-124801938D01*
X117044473Y-124801938D01*
G37*
G36*
X119584473Y-124801938D02*
G01*
X119712049Y-124854782D01*
X119826859Y-124931495D01*
X119924505Y-125029141D01*
X120001218Y-125143951D01*
X120054062Y-125271527D01*
X120081000Y-125406956D01*
X120081000Y-125545044D01*
X120054062Y-125680473D01*
X120001218Y-125808049D01*
X119924505Y-125922859D01*
X119826859Y-126020505D01*
X119712049Y-126097218D01*
X119584473Y-126150062D01*
X119449044Y-126177000D01*
X119310956Y-126177000D01*
X119175527Y-126150062D01*
X119047951Y-126097218D01*
X118933141Y-126020505D01*
X118835495Y-125922859D01*
X118758782Y-125808049D01*
X118705938Y-125680473D01*
X118679000Y-125545044D01*
X118679000Y-125406956D01*
X118705938Y-125271527D01*
X118758782Y-125143951D01*
X118835495Y-125029141D01*
X118933141Y-124931495D01*
X119047951Y-124854782D01*
X119175527Y-124801938D01*
X119310956Y-124775000D01*
X119449044Y-124775000D01*
X119584473Y-124801938D01*
X119584473Y-124801938D01*
G37*
G36*
X111964473Y-124801938D02*
G01*
X112092049Y-124854782D01*
X112206859Y-124931495D01*
X112304505Y-125029141D01*
X112381218Y-125143951D01*
X112434062Y-125271527D01*
X112461000Y-125406956D01*
X112461000Y-125545044D01*
X112434062Y-125680473D01*
X112381218Y-125808049D01*
X112304505Y-125922859D01*
X112206859Y-126020505D01*
X112092049Y-126097218D01*
X111964473Y-126150062D01*
X111829044Y-126177000D01*
X111690956Y-126177000D01*
X111555527Y-126150062D01*
X111427951Y-126097218D01*
X111313141Y-126020505D01*
X111215495Y-125922859D01*
X111138782Y-125808049D01*
X111085938Y-125680473D01*
X111059000Y-125545044D01*
X111059000Y-125406956D01*
X111085938Y-125271527D01*
X111138782Y-125143951D01*
X111215495Y-125029141D01*
X111313141Y-124931495D01*
X111427951Y-124854782D01*
X111555527Y-124801938D01*
X111690956Y-124775000D01*
X111829044Y-124775000D01*
X111964473Y-124801938D01*
X111964473Y-124801938D01*
G37*
G36*
X107991000Y-125376000D02*
G01*
X106639000Y-125376000D01*
X106639000Y-124274000D01*
X107991000Y-124274000D01*
X107991000Y-125376000D01*
X107991000Y-125376000D01*
G37*
G36*
X115774473Y-122261938D02*
G01*
X115902049Y-122314782D01*
X116016859Y-122391495D01*
X116114505Y-122489141D01*
X116191218Y-122603951D01*
X116244062Y-122731527D01*
X116271000Y-122866956D01*
X116271000Y-123005044D01*
X116244062Y-123140473D01*
X116191218Y-123268049D01*
X116114505Y-123382859D01*
X116016859Y-123480505D01*
X115902049Y-123557218D01*
X115774473Y-123610062D01*
X115639044Y-123637000D01*
X115500956Y-123637000D01*
X115365527Y-123610062D01*
X115237951Y-123557218D01*
X115123141Y-123480505D01*
X115025495Y-123382859D01*
X114948782Y-123268049D01*
X114895938Y-123140473D01*
X114869000Y-123005044D01*
X114869000Y-122866956D01*
X114895938Y-122731527D01*
X114948782Y-122603951D01*
X115025495Y-122489141D01*
X115123141Y-122391495D01*
X115237951Y-122314782D01*
X115365527Y-122261938D01*
X115500956Y-122235000D01*
X115639044Y-122235000D01*
X115774473Y-122261938D01*
X115774473Y-122261938D01*
G37*
G36*
X118314473Y-122261938D02*
G01*
X118442049Y-122314782D01*
X118556859Y-122391495D01*
X118654505Y-122489141D01*
X118731218Y-122603951D01*
X118784062Y-122731527D01*
X118811000Y-122866956D01*
X118811000Y-123005044D01*
X118784062Y-123140473D01*
X118731218Y-123268049D01*
X118654505Y-123382859D01*
X118556859Y-123480505D01*
X118442049Y-123557218D01*
X118314473Y-123610062D01*
X118179044Y-123637000D01*
X118040956Y-123637000D01*
X117905527Y-123610062D01*
X117777951Y-123557218D01*
X117663141Y-123480505D01*
X117565495Y-123382859D01*
X117488782Y-123268049D01*
X117435938Y-123140473D01*
X117409000Y-123005044D01*
X117409000Y-122866956D01*
X117435938Y-122731527D01*
X117488782Y-122603951D01*
X117565495Y-122489141D01*
X117663141Y-122391495D01*
X117777951Y-122314782D01*
X117905527Y-122261938D01*
X118040956Y-122235000D01*
X118179044Y-122235000D01*
X118314473Y-122261938D01*
X118314473Y-122261938D01*
G37*
G36*
X120854473Y-122261938D02*
G01*
X120982049Y-122314782D01*
X121096859Y-122391495D01*
X121194505Y-122489141D01*
X121271218Y-122603951D01*
X121324062Y-122731527D01*
X121351000Y-122866956D01*
X121351000Y-123005044D01*
X121324062Y-123140473D01*
X121271218Y-123268049D01*
X121194505Y-123382859D01*
X121096859Y-123480505D01*
X120982049Y-123557218D01*
X120854473Y-123610062D01*
X120719044Y-123637000D01*
X120580956Y-123637000D01*
X120445527Y-123610062D01*
X120317951Y-123557218D01*
X120203141Y-123480505D01*
X120105495Y-123382859D01*
X120028782Y-123268049D01*
X119975938Y-123140473D01*
X119949000Y-123005044D01*
X119949000Y-122866956D01*
X119975938Y-122731527D01*
X120028782Y-122603951D01*
X120105495Y-122489141D01*
X120203141Y-122391495D01*
X120317951Y-122314782D01*
X120445527Y-122261938D01*
X120580956Y-122235000D01*
X120719044Y-122235000D01*
X120854473Y-122261938D01*
X120854473Y-122261938D01*
G37*
G36*
X113234473Y-122261938D02*
G01*
X113362049Y-122314782D01*
X113476859Y-122391495D01*
X113574505Y-122489141D01*
X113651218Y-122603951D01*
X113704062Y-122731527D01*
X113731000Y-122866956D01*
X113731000Y-123005044D01*
X113704062Y-123140473D01*
X113651218Y-123268049D01*
X113574505Y-123382859D01*
X113476859Y-123480505D01*
X113362049Y-123557218D01*
X113234473Y-123610062D01*
X113099044Y-123637000D01*
X112960956Y-123637000D01*
X112825527Y-123610062D01*
X112697951Y-123557218D01*
X112583141Y-123480505D01*
X112485495Y-123382859D01*
X112408782Y-123268049D01*
X112355938Y-123140473D01*
X112329000Y-123005044D01*
X112329000Y-122866956D01*
X112355938Y-122731527D01*
X112408782Y-122603951D01*
X112485495Y-122489141D01*
X112583141Y-122391495D01*
X112697951Y-122314782D01*
X112825527Y-122261938D01*
X112960956Y-122235000D01*
X113099044Y-122235000D01*
X113234473Y-122261938D01*
X113234473Y-122261938D01*
G37*
G36*
X107991000Y-123376000D02*
G01*
X106639000Y-123376000D01*
X106639000Y-122274000D01*
X107991000Y-122274000D01*
X107991000Y-123376000D01*
X107991000Y-123376000D01*
G37*
G36*
X128047000Y-119096000D02*
G01*
X126395000Y-119096000D01*
X126395000Y-118394000D01*
X128047000Y-118394000D01*
X128047000Y-119096000D01*
X128047000Y-119096000D01*
G37*
G36*
X133447000Y-119096000D02*
G01*
X131795000Y-119096000D01*
X131795000Y-118394000D01*
X133447000Y-118394000D01*
X133447000Y-119096000D01*
X133447000Y-119096000D01*
G37*
G36*
X136337000Y-118191000D02*
G01*
X134935000Y-118191000D01*
X134935000Y-117389000D01*
X136337000Y-117389000D01*
X136337000Y-118191000D01*
X136337000Y-118191000D01*
G37*
G36*
X128047000Y-117826000D02*
G01*
X126395000Y-117826000D01*
X126395000Y-117124000D01*
X128047000Y-117124000D01*
X128047000Y-117826000D01*
X128047000Y-117826000D01*
G37*
G36*
X133447000Y-117826000D02*
G01*
X131795000Y-117826000D01*
X131795000Y-117124000D01*
X133447000Y-117124000D01*
X133447000Y-117826000D01*
X133447000Y-117826000D01*
G37*
G36*
X108905000Y-117429000D02*
G01*
X107503000Y-117429000D01*
X107503000Y-116627000D01*
X108905000Y-116627000D01*
X108905000Y-117429000D01*
X108905000Y-117429000D01*
G37*
G36*
X124882000Y-117391000D02*
G01*
X123530000Y-117391000D01*
X123530000Y-116289000D01*
X124882000Y-116289000D01*
X124882000Y-117391000D01*
X124882000Y-117391000D01*
G37*
G36*
X121072000Y-116867000D02*
G01*
X119720000Y-116867000D01*
X119720000Y-115765000D01*
X121072000Y-115765000D01*
X121072000Y-116867000D01*
X121072000Y-116867000D01*
G37*
G36*
X118437000Y-116767000D02*
G01*
X116935000Y-116767000D01*
X116935000Y-115465000D01*
X118437000Y-115465000D01*
X118437000Y-116767000D01*
X118437000Y-116767000D01*
G37*
G36*
X116237000Y-116767000D02*
G01*
X114735000Y-116767000D01*
X114735000Y-115465000D01*
X116237000Y-115465000D01*
X116237000Y-116767000D01*
X116237000Y-116767000D01*
G37*
G36*
X113452000Y-116597000D02*
G01*
X112100000Y-116597000D01*
X112100000Y-115495000D01*
X113452000Y-115495000D01*
X113452000Y-116597000D01*
X113452000Y-116597000D01*
G37*
G36*
X133447000Y-116556000D02*
G01*
X131795000Y-116556000D01*
X131795000Y-115854000D01*
X133447000Y-115854000D01*
X133447000Y-116556000D01*
X133447000Y-116556000D01*
G37*
G36*
X128047000Y-116556000D02*
G01*
X126395000Y-116556000D01*
X126395000Y-115854000D01*
X128047000Y-115854000D01*
X128047000Y-116556000D01*
X128047000Y-116556000D01*
G37*
G36*
X136337000Y-116291000D02*
G01*
X134935000Y-116291000D01*
X134935000Y-115489000D01*
X136337000Y-115489000D01*
X136337000Y-116291000D01*
X136337000Y-116291000D01*
G37*
G36*
X108905000Y-115529000D02*
G01*
X107503000Y-115529000D01*
X107503000Y-114727000D01*
X108905000Y-114727000D01*
X108905000Y-115529000D01*
X108905000Y-115529000D01*
G37*
G36*
X124882000Y-115391000D02*
G01*
X123530000Y-115391000D01*
X123530000Y-114289000D01*
X124882000Y-114289000D01*
X124882000Y-115391000D01*
X124882000Y-115391000D01*
G37*
G36*
X133447000Y-115286000D02*
G01*
X131795000Y-115286000D01*
X131795000Y-114584000D01*
X133447000Y-114584000D01*
X133447000Y-115286000D01*
X133447000Y-115286000D01*
G37*
G36*
X128047000Y-115286000D02*
G01*
X126395000Y-115286000D01*
X126395000Y-114584000D01*
X128047000Y-114584000D01*
X128047000Y-115286000D01*
X128047000Y-115286000D01*
G37*
G36*
X116237000Y-115167000D02*
G01*
X114735000Y-115167000D01*
X114735000Y-113865000D01*
X116237000Y-113865000D01*
X116237000Y-115167000D01*
X116237000Y-115167000D01*
G37*
G36*
X118437000Y-115167000D02*
G01*
X116935000Y-115167000D01*
X116935000Y-113865000D01*
X118437000Y-113865000D01*
X118437000Y-115167000D01*
X118437000Y-115167000D01*
G37*
G36*
X121072000Y-114867000D02*
G01*
X119720000Y-114867000D01*
X119720000Y-113765000D01*
X121072000Y-113765000D01*
X121072000Y-114867000D01*
X121072000Y-114867000D01*
G37*
G36*
X113452000Y-114597000D02*
G01*
X112100000Y-114597000D01*
X112100000Y-113495000D01*
X113452000Y-113495000D01*
X113452000Y-114597000D01*
X113452000Y-114597000D01*
G37*
G36*
X108855000Y-113935000D02*
G01*
X107553000Y-113935000D01*
X107553000Y-112633000D01*
X108855000Y-112633000D01*
X108855000Y-113935000D01*
X108855000Y-113935000D01*
G37*
G36*
X131597000Y-111953000D02*
G01*
X130795000Y-111953000D01*
X130795000Y-110551000D01*
X131597000Y-110551000D01*
X131597000Y-111953000D01*
X131597000Y-111953000D01*
G37*
G36*
X133497000Y-111953000D02*
G01*
X132695000Y-111953000D01*
X132695000Y-110551000D01*
X133497000Y-110551000D01*
X133497000Y-111953000D01*
X133497000Y-111953000D01*
G37*
G36*
X108855000Y-111735000D02*
G01*
X107553000Y-111735000D01*
X107553000Y-110433000D01*
X108855000Y-110433000D01*
X108855000Y-111735000D01*
X108855000Y-111735000D01*
G37*
G36*
X120982000Y-111527000D02*
G01*
X114730000Y-111527000D01*
X114730000Y-109825000D01*
X120982000Y-109825000D01*
X120982000Y-111527000D01*
X120982000Y-111527000D01*
G37*
G36*
X131939999Y-108165737D02*
G01*
X131949608Y-108168652D01*
X131958472Y-108173390D01*
X131966237Y-108179763D01*
X131976448Y-108192206D01*
X131983378Y-108202575D01*
X132000705Y-108219902D01*
X132021080Y-108233515D01*
X132043720Y-108242891D01*
X132067753Y-108247671D01*
X132092257Y-108247670D01*
X132116290Y-108242888D01*
X132138929Y-108233510D01*
X132159302Y-108219895D01*
X132176629Y-108202568D01*
X132183558Y-108192198D01*
X132193763Y-108179763D01*
X132201528Y-108173390D01*
X132210392Y-108168652D01*
X132220001Y-108165737D01*
X132236140Y-108164148D01*
X132723861Y-108164148D01*
X132742199Y-108165954D01*
X132754450Y-108166556D01*
X132772869Y-108166556D01*
X132795149Y-108168750D01*
X132879233Y-108185476D01*
X132900660Y-108191976D01*
X132979858Y-108224780D01*
X132985303Y-108227691D01*
X132985309Y-108227693D01*
X132994169Y-108232429D01*
X132994173Y-108232432D01*
X132999614Y-108235340D01*
X133070899Y-108282971D01*
X133088204Y-108297172D01*
X133148828Y-108357796D01*
X133163029Y-108375101D01*
X133210660Y-108446386D01*
X133213568Y-108451827D01*
X133213571Y-108451831D01*
X133218307Y-108460691D01*
X133218309Y-108460697D01*
X133221220Y-108466142D01*
X133254024Y-108545340D01*
X133260524Y-108566767D01*
X133277250Y-108650851D01*
X133279444Y-108673131D01*
X133279444Y-108691550D01*
X133280046Y-108703801D01*
X133281852Y-108722139D01*
X133281852Y-109209862D01*
X133280046Y-109228199D01*
X133279444Y-109240450D01*
X133279444Y-109258869D01*
X133277250Y-109281149D01*
X133260524Y-109365233D01*
X133254024Y-109386660D01*
X133221220Y-109465858D01*
X133218309Y-109471303D01*
X133218307Y-109471309D01*
X133213571Y-109480169D01*
X133213568Y-109480173D01*
X133210660Y-109485614D01*
X133163029Y-109556899D01*
X133148828Y-109574204D01*
X133088204Y-109634828D01*
X133070899Y-109649029D01*
X132999614Y-109696660D01*
X132994173Y-109699568D01*
X132994169Y-109699571D01*
X132985309Y-109704307D01*
X132985303Y-109704309D01*
X132979858Y-109707220D01*
X132900660Y-109740024D01*
X132879233Y-109746524D01*
X132795149Y-109763250D01*
X132772869Y-109765444D01*
X132754450Y-109765444D01*
X132742199Y-109766046D01*
X132723862Y-109767852D01*
X132236140Y-109767852D01*
X132220001Y-109766263D01*
X132210392Y-109763348D01*
X132201528Y-109758610D01*
X132193763Y-109752237D01*
X132183552Y-109739794D01*
X132176622Y-109729425D01*
X132159295Y-109712098D01*
X132138920Y-109698485D01*
X132116280Y-109689109D01*
X132092247Y-109684329D01*
X132067743Y-109684330D01*
X132043710Y-109689112D01*
X132021071Y-109698490D01*
X132000698Y-109712105D01*
X131983371Y-109729432D01*
X131976442Y-109739802D01*
X131966237Y-109752237D01*
X131958472Y-109758610D01*
X131949608Y-109763348D01*
X131939999Y-109766263D01*
X131923860Y-109767852D01*
X131436138Y-109767852D01*
X131417801Y-109766046D01*
X131405550Y-109765444D01*
X131387131Y-109765444D01*
X131364851Y-109763250D01*
X131280767Y-109746524D01*
X131259340Y-109740024D01*
X131180142Y-109707220D01*
X131174697Y-109704309D01*
X131174691Y-109704307D01*
X131165831Y-109699571D01*
X131165827Y-109699568D01*
X131160386Y-109696660D01*
X131089101Y-109649029D01*
X131071796Y-109634828D01*
X131011172Y-109574204D01*
X130996971Y-109556899D01*
X130949340Y-109485614D01*
X130946432Y-109480173D01*
X130946429Y-109480169D01*
X130941693Y-109471309D01*
X130941691Y-109471303D01*
X130938780Y-109465858D01*
X130905976Y-109386660D01*
X130899476Y-109365233D01*
X130882750Y-109281149D01*
X130880556Y-109258869D01*
X130880556Y-109240450D01*
X130879954Y-109228199D01*
X130878148Y-109209862D01*
X130878148Y-108722139D01*
X130879954Y-108703801D01*
X130880556Y-108691550D01*
X130880556Y-108673131D01*
X130882750Y-108650851D01*
X130899476Y-108566767D01*
X130905976Y-108545340D01*
X130938780Y-108466142D01*
X130941691Y-108460697D01*
X130941693Y-108460691D01*
X130946429Y-108451831D01*
X130946432Y-108451827D01*
X130949340Y-108446386D01*
X130996971Y-108375101D01*
X131011172Y-108357796D01*
X131071796Y-108297172D01*
X131089101Y-108282971D01*
X131160386Y-108235340D01*
X131165827Y-108232432D01*
X131165831Y-108232429D01*
X131174691Y-108227693D01*
X131174697Y-108227691D01*
X131180142Y-108224780D01*
X131259340Y-108191976D01*
X131280767Y-108185476D01*
X131364851Y-108168750D01*
X131387131Y-108166556D01*
X131405550Y-108166556D01*
X131417801Y-108165954D01*
X131436139Y-108164148D01*
X131923860Y-108164148D01*
X131939999Y-108165737D01*
X131939999Y-108165737D01*
G37*
G36*
X114457000Y-109552000D02*
G01*
X112755000Y-109552000D01*
X112755000Y-103300000D01*
X114457000Y-103300000D01*
X114457000Y-109552000D01*
X114457000Y-109552000D01*
G37*
G36*
X122957000Y-109552000D02*
G01*
X121255000Y-109552000D01*
X121255000Y-103300000D01*
X122957000Y-103300000D01*
X122957000Y-109552000D01*
X122957000Y-109552000D01*
G37*
G36*
X110912000Y-108977000D02*
G01*
X109560000Y-108977000D01*
X109560000Y-107875000D01*
X110912000Y-107875000D01*
X110912000Y-108977000D01*
X110912000Y-108977000D01*
G37*
G36*
X125644000Y-108723000D02*
G01*
X124292000Y-108723000D01*
X124292000Y-107621000D01*
X125644000Y-107621000D01*
X125644000Y-108723000D01*
X125644000Y-108723000D01*
G37*
G36*
X128717000Y-108097000D02*
G01*
X127315000Y-108097000D01*
X127315000Y-107295000D01*
X128717000Y-107295000D01*
X128717000Y-108097000D01*
X128717000Y-108097000D01*
G37*
G36*
X110912000Y-106977000D02*
G01*
X109560000Y-106977000D01*
X109560000Y-105875000D01*
X110912000Y-105875000D01*
X110912000Y-106977000D01*
X110912000Y-106977000D01*
G37*
G36*
X131924999Y-105371737D02*
G01*
X131934608Y-105374652D01*
X131943472Y-105379390D01*
X131951237Y-105385763D01*
X131961448Y-105398206D01*
X131968378Y-105408575D01*
X131985705Y-105425902D01*
X132006080Y-105439515D01*
X132028720Y-105448891D01*
X132052753Y-105453671D01*
X132077257Y-105453670D01*
X132101290Y-105448888D01*
X132123929Y-105439510D01*
X132144302Y-105425895D01*
X132161629Y-105408568D01*
X132168558Y-105398198D01*
X132178763Y-105385763D01*
X132186528Y-105379390D01*
X132195392Y-105374652D01*
X132205001Y-105371737D01*
X132221140Y-105370148D01*
X132708861Y-105370148D01*
X132727199Y-105371954D01*
X132739450Y-105372556D01*
X132757869Y-105372556D01*
X132780149Y-105374750D01*
X132864233Y-105391476D01*
X132885660Y-105397976D01*
X132964858Y-105430780D01*
X132970303Y-105433691D01*
X132970309Y-105433693D01*
X132979169Y-105438429D01*
X132979173Y-105438432D01*
X132984614Y-105441340D01*
X133055899Y-105488971D01*
X133073204Y-105503172D01*
X133133828Y-105563796D01*
X133148029Y-105581101D01*
X133195660Y-105652386D01*
X133198568Y-105657827D01*
X133198571Y-105657831D01*
X133203307Y-105666691D01*
X133203309Y-105666697D01*
X133206220Y-105672142D01*
X133239024Y-105751340D01*
X133245524Y-105772767D01*
X133262250Y-105856851D01*
X133264444Y-105879131D01*
X133264444Y-105897550D01*
X133265046Y-105909801D01*
X133266852Y-105928139D01*
X133266852Y-106415862D01*
X133265046Y-106434199D01*
X133264444Y-106446450D01*
X133264444Y-106464869D01*
X133262250Y-106487149D01*
X133245524Y-106571233D01*
X133239024Y-106592660D01*
X133206220Y-106671858D01*
X133203309Y-106677303D01*
X133203307Y-106677309D01*
X133198571Y-106686169D01*
X133198568Y-106686173D01*
X133195660Y-106691614D01*
X133148029Y-106762899D01*
X133133828Y-106780204D01*
X133073204Y-106840828D01*
X133055899Y-106855029D01*
X132984614Y-106902660D01*
X132979173Y-106905568D01*
X132979169Y-106905571D01*
X132970309Y-106910307D01*
X132970303Y-106910309D01*
X132964858Y-106913220D01*
X132885660Y-106946024D01*
X132864233Y-106952524D01*
X132780149Y-106969250D01*
X132757869Y-106971444D01*
X132739450Y-106971444D01*
X132727199Y-106972046D01*
X132708862Y-106973852D01*
X132221140Y-106973852D01*
X132205001Y-106972263D01*
X132195392Y-106969348D01*
X132186528Y-106964610D01*
X132178763Y-106958237D01*
X132168552Y-106945794D01*
X132161622Y-106935425D01*
X132144295Y-106918098D01*
X132123920Y-106904485D01*
X132101280Y-106895109D01*
X132077247Y-106890329D01*
X132052743Y-106890330D01*
X132028710Y-106895112D01*
X132006071Y-106904490D01*
X131985698Y-106918105D01*
X131968371Y-106935432D01*
X131961442Y-106945802D01*
X131951237Y-106958237D01*
X131943472Y-106964610D01*
X131934608Y-106969348D01*
X131924999Y-106972263D01*
X131908860Y-106973852D01*
X131421138Y-106973852D01*
X131402801Y-106972046D01*
X131390550Y-106971444D01*
X131372131Y-106971444D01*
X131349851Y-106969250D01*
X131265767Y-106952524D01*
X131244340Y-106946024D01*
X131165142Y-106913220D01*
X131159697Y-106910309D01*
X131159691Y-106910307D01*
X131150831Y-106905571D01*
X131150827Y-106905568D01*
X131145386Y-106902660D01*
X131074101Y-106855029D01*
X131056796Y-106840828D01*
X130996172Y-106780204D01*
X130981971Y-106762899D01*
X130934340Y-106691614D01*
X130931432Y-106686173D01*
X130931429Y-106686169D01*
X130926693Y-106677309D01*
X130926691Y-106677303D01*
X130923780Y-106671858D01*
X130890976Y-106592660D01*
X130884476Y-106571233D01*
X130867750Y-106487149D01*
X130865556Y-106464869D01*
X130865556Y-106446450D01*
X130864954Y-106434199D01*
X130863148Y-106415862D01*
X130863148Y-105928139D01*
X130864954Y-105909801D01*
X130865556Y-105897550D01*
X130865556Y-105879131D01*
X130867750Y-105856851D01*
X130884476Y-105772767D01*
X130890976Y-105751340D01*
X130923780Y-105672142D01*
X130926691Y-105666697D01*
X130926693Y-105666691D01*
X130931429Y-105657831D01*
X130931432Y-105657827D01*
X130934340Y-105652386D01*
X130981971Y-105581101D01*
X130996172Y-105563796D01*
X131056796Y-105503172D01*
X131074101Y-105488971D01*
X131145386Y-105441340D01*
X131150827Y-105438432D01*
X131150831Y-105438429D01*
X131159691Y-105433693D01*
X131159697Y-105433691D01*
X131165142Y-105430780D01*
X131244340Y-105397976D01*
X131265767Y-105391476D01*
X131349851Y-105374750D01*
X131372131Y-105372556D01*
X131390550Y-105372556D01*
X131402801Y-105371954D01*
X131421139Y-105370148D01*
X131908860Y-105370148D01*
X131924999Y-105371737D01*
X131924999Y-105371737D01*
G37*
G36*
X125644000Y-106723000D02*
G01*
X124292000Y-106723000D01*
X124292000Y-105621000D01*
X125644000Y-105621000D01*
X125644000Y-106723000D01*
X125644000Y-106723000D01*
G37*
G36*
X128717000Y-106197000D02*
G01*
X127315000Y-106197000D01*
X127315000Y-105395000D01*
X128717000Y-105395000D01*
X128717000Y-106197000D01*
X128717000Y-106197000D01*
G37*
G36*
X133497000Y-104333000D02*
G01*
X132695000Y-104333000D01*
X132695000Y-102931000D01*
X133497000Y-102931000D01*
X133497000Y-104333000D01*
X133497000Y-104333000D01*
G37*
G36*
X131597000Y-104333000D02*
G01*
X130795000Y-104333000D01*
X130795000Y-102931000D01*
X131597000Y-102931000D01*
X131597000Y-104333000D01*
X131597000Y-104333000D01*
G37*
G36*
X120982000Y-103027000D02*
G01*
X114730000Y-103027000D01*
X114730000Y-101325000D01*
X120982000Y-101325000D01*
X120982000Y-103027000D01*
X120982000Y-103027000D01*
G37*
G36*
X130191000Y-101827000D02*
G01*
X128889000Y-101827000D01*
X128889000Y-100525000D01*
X130191000Y-100525000D01*
X130191000Y-101827000D01*
X130191000Y-101827000D01*
G37*
G36*
X133239000Y-101827000D02*
G01*
X131937000Y-101827000D01*
X131937000Y-100525000D01*
X133239000Y-100525000D01*
X133239000Y-101827000D01*
X133239000Y-101827000D01*
G37*
G36*
X106137059Y-100115860D02*
G01*
X106273732Y-100172472D01*
X106396735Y-100254660D01*
X106501340Y-100359265D01*
X106583528Y-100482268D01*
X106640140Y-100618941D01*
X106669000Y-100764033D01*
X106669000Y-100911967D01*
X106640140Y-101057059D01*
X106583528Y-101193732D01*
X106501340Y-101316735D01*
X106396735Y-101421340D01*
X106273732Y-101503528D01*
X106273731Y-101503529D01*
X106273730Y-101503529D01*
X106137059Y-101560140D01*
X105991968Y-101589000D01*
X105844032Y-101589000D01*
X105698941Y-101560140D01*
X105562270Y-101503529D01*
X105562269Y-101503529D01*
X105562268Y-101503528D01*
X105439265Y-101421340D01*
X105334660Y-101316735D01*
X105252472Y-101193732D01*
X105195860Y-101057059D01*
X105167000Y-100911967D01*
X105167000Y-100764033D01*
X105195860Y-100618941D01*
X105252472Y-100482268D01*
X105334660Y-100359265D01*
X105439265Y-100254660D01*
X105562268Y-100172472D01*
X105698941Y-100115860D01*
X105844032Y-100087000D01*
X105991968Y-100087000D01*
X106137059Y-100115860D01*
X106137059Y-100115860D01*
G37*
G36*
X108677059Y-100115860D02*
G01*
X108813732Y-100172472D01*
X108936735Y-100254660D01*
X109041340Y-100359265D01*
X109123528Y-100482268D01*
X109180140Y-100618941D01*
X109209000Y-100764033D01*
X109209000Y-100911967D01*
X109180140Y-101057059D01*
X109123528Y-101193732D01*
X109041340Y-101316735D01*
X108936735Y-101421340D01*
X108813732Y-101503528D01*
X108813731Y-101503529D01*
X108813730Y-101503529D01*
X108677059Y-101560140D01*
X108531968Y-101589000D01*
X108384032Y-101589000D01*
X108238941Y-101560140D01*
X108102270Y-101503529D01*
X108102269Y-101503529D01*
X108102268Y-101503528D01*
X107979265Y-101421340D01*
X107874660Y-101316735D01*
X107792472Y-101193732D01*
X107735860Y-101057059D01*
X107707000Y-100911967D01*
X107707000Y-100764033D01*
X107735860Y-100618941D01*
X107792472Y-100482268D01*
X107874660Y-100359265D01*
X107979265Y-100254660D01*
X108102268Y-100172472D01*
X108238941Y-100115860D01*
X108384032Y-100087000D01*
X108531968Y-100087000D01*
X108677059Y-100115860D01*
X108677059Y-100115860D01*
G37*
G36*
X127193000Y-101361000D02*
G01*
X125791000Y-101361000D01*
X125791000Y-100559000D01*
X127193000Y-100559000D01*
X127193000Y-101361000D01*
X127193000Y-101361000D01*
G37*
G36*
X136337000Y-101239000D02*
G01*
X134935000Y-101239000D01*
X134935000Y-100437000D01*
X136337000Y-100437000D01*
X136337000Y-101239000D01*
X136337000Y-101239000D01*
G37*
G36*
X118191000Y-100523000D02*
G01*
X117389000Y-100523000D01*
X117389000Y-99121000D01*
X118191000Y-99121000D01*
X118191000Y-100523000D01*
X118191000Y-100523000D01*
G37*
G36*
X116291000Y-100523000D02*
G01*
X115489000Y-100523000D01*
X115489000Y-99121000D01*
X116291000Y-99121000D01*
X116291000Y-100523000D01*
X116291000Y-100523000D01*
G37*
G36*
X130191000Y-99627000D02*
G01*
X128889000Y-99627000D01*
X128889000Y-98325000D01*
X130191000Y-98325000D01*
X130191000Y-99627000D01*
X130191000Y-99627000D01*
G37*
G36*
X133239000Y-99627000D02*
G01*
X131937000Y-99627000D01*
X131937000Y-98325000D01*
X133239000Y-98325000D01*
X133239000Y-99627000D01*
X133239000Y-99627000D01*
G37*
G36*
X127193000Y-99461000D02*
G01*
X125791000Y-99461000D01*
X125791000Y-98659000D01*
X127193000Y-98659000D01*
X127193000Y-99461000D01*
X127193000Y-99461000D01*
G37*
G36*
X136337000Y-99339000D02*
G01*
X134935000Y-99339000D01*
X134935000Y-98537000D01*
X136337000Y-98537000D01*
X136337000Y-99339000D01*
X136337000Y-99339000D01*
G37*
G36*
X108677059Y-97575860D02*
G01*
X108718439Y-97593000D01*
X108813732Y-97632472D01*
X108936735Y-97714660D01*
X109041340Y-97819265D01*
X109123528Y-97942268D01*
X109180140Y-98078941D01*
X109209000Y-98224033D01*
X109209000Y-98371967D01*
X109180140Y-98517059D01*
X109123528Y-98653732D01*
X109041340Y-98776735D01*
X108936735Y-98881340D01*
X108813732Y-98963528D01*
X108813731Y-98963529D01*
X108813730Y-98963529D01*
X108677059Y-99020140D01*
X108531968Y-99049000D01*
X108384032Y-99049000D01*
X108238941Y-99020140D01*
X108102270Y-98963529D01*
X108102269Y-98963529D01*
X108102268Y-98963528D01*
X107979265Y-98881340D01*
X107874660Y-98776735D01*
X107792472Y-98653732D01*
X107735860Y-98517059D01*
X107707000Y-98371967D01*
X107707000Y-98224033D01*
X107735860Y-98078941D01*
X107792472Y-97942268D01*
X107874660Y-97819265D01*
X107979265Y-97714660D01*
X108102268Y-97632472D01*
X108197562Y-97593000D01*
X108238941Y-97575860D01*
X108384032Y-97547000D01*
X108531968Y-97547000D01*
X108677059Y-97575860D01*
X108677059Y-97575860D01*
G37*
G36*
X106137059Y-97575860D02*
G01*
X106178439Y-97593000D01*
X106273732Y-97632472D01*
X106396735Y-97714660D01*
X106501340Y-97819265D01*
X106583528Y-97942268D01*
X106640140Y-98078941D01*
X106669000Y-98224033D01*
X106669000Y-98371967D01*
X106640140Y-98517059D01*
X106583528Y-98653732D01*
X106501340Y-98776735D01*
X106396735Y-98881340D01*
X106273732Y-98963528D01*
X106273731Y-98963529D01*
X106273730Y-98963529D01*
X106137059Y-99020140D01*
X105991968Y-99049000D01*
X105844032Y-99049000D01*
X105698941Y-99020140D01*
X105562270Y-98963529D01*
X105562269Y-98963529D01*
X105562268Y-98963528D01*
X105439265Y-98881340D01*
X105334660Y-98776735D01*
X105252472Y-98653732D01*
X105195860Y-98517059D01*
X105167000Y-98371967D01*
X105167000Y-98224033D01*
X105195860Y-98078941D01*
X105252472Y-97942268D01*
X105334660Y-97819265D01*
X105439265Y-97714660D01*
X105562268Y-97632472D01*
X105657562Y-97593000D01*
X105698941Y-97575860D01*
X105844032Y-97547000D01*
X105991968Y-97547000D01*
X106137059Y-97575860D01*
X106137059Y-97575860D01*
G37*
G36*
X114062000Y-97593000D02*
G01*
X112760000Y-97593000D01*
X112760000Y-96291000D01*
X114062000Y-96291000D01*
X114062000Y-97593000D01*
X114062000Y-97593000D01*
G37*
G36*
X116017000Y-97363000D02*
G01*
X114615000Y-97363000D01*
X114615000Y-96561000D01*
X116017000Y-96561000D01*
X116017000Y-97363000D01*
X116017000Y-97363000D01*
G37*
G36*
X108677059Y-95035860D02*
G01*
X108813732Y-95092472D01*
X108936735Y-95174660D01*
X109041340Y-95279265D01*
X109123528Y-95402268D01*
X109180140Y-95538941D01*
X109209000Y-95684033D01*
X109209000Y-95831967D01*
X109180140Y-95977059D01*
X109123528Y-96113732D01*
X109041340Y-96236735D01*
X108936735Y-96341340D01*
X108813732Y-96423528D01*
X108813731Y-96423529D01*
X108813730Y-96423529D01*
X108677059Y-96480140D01*
X108531968Y-96509000D01*
X108384032Y-96509000D01*
X108238941Y-96480140D01*
X108102270Y-96423529D01*
X108102269Y-96423529D01*
X108102268Y-96423528D01*
X107979265Y-96341340D01*
X107874660Y-96236735D01*
X107792472Y-96113732D01*
X107735860Y-95977059D01*
X107707000Y-95831967D01*
X107707000Y-95684033D01*
X107735860Y-95538941D01*
X107792472Y-95402268D01*
X107874660Y-95279265D01*
X107979265Y-95174660D01*
X108102268Y-95092472D01*
X108238941Y-95035860D01*
X108384032Y-95007000D01*
X108531968Y-95007000D01*
X108677059Y-95035860D01*
X108677059Y-95035860D01*
G37*
G36*
X106669000Y-96509000D02*
G01*
X105167000Y-96509000D01*
X105167000Y-95007000D01*
X106669000Y-95007000D01*
X106669000Y-96509000D01*
X106669000Y-96509000D01*
G37*
G36*
X128436300Y-95654000D02*
G01*
X126554300Y-95654000D01*
X126554300Y-92052000D01*
X128436300Y-92052000D01*
X128436300Y-95654000D01*
X128436300Y-95654000D01*
G37*
G36*
X133716300Y-95654000D02*
G01*
X131834300Y-95654000D01*
X131834300Y-92052000D01*
X133716300Y-92052000D01*
X133716300Y-95654000D01*
X133716300Y-95654000D01*
G37*
G36*
X119245200Y-95509080D02*
G01*
X118143200Y-95509080D01*
X118143200Y-92207080D01*
X119245200Y-92207080D01*
X119245200Y-95509080D01*
X119245200Y-95509080D01*
G37*
G36*
X125445200Y-95509080D02*
G01*
X124343200Y-95509080D01*
X124343200Y-92207080D01*
X125445200Y-92207080D01*
X125445200Y-95509080D01*
X125445200Y-95509080D01*
G37*
G36*
X116017000Y-95463000D02*
G01*
X114615000Y-95463000D01*
X114615000Y-94661000D01*
X116017000Y-94661000D01*
X116017000Y-95463000D01*
X116017000Y-95463000D01*
G37*
G36*
X114062000Y-95393000D02*
G01*
X112760000Y-95393000D01*
X112760000Y-94091000D01*
X114062000Y-94091000D01*
X114062000Y-95393000D01*
X114062000Y-95393000D01*
G37*
G36*
X108855000Y-91751000D02*
G01*
X107553000Y-91751000D01*
X107553000Y-90449000D01*
X108855000Y-90449000D01*
X108855000Y-91751000D01*
X108855000Y-91751000D01*
G37*
G36*
X118587800Y-91280500D02*
G01*
X117585800Y-91280500D01*
X117585800Y-88678500D01*
X118587800Y-88678500D01*
X118587800Y-91280500D01*
X118587800Y-91280500D01*
G37*
G36*
X115687800Y-91280500D02*
G01*
X114685800Y-91280500D01*
X114685800Y-88678500D01*
X115687800Y-88678500D01*
X115687800Y-91280500D01*
X115687800Y-91280500D01*
G37*
G36*
X126393700Y-90969540D02*
G01*
X125091700Y-90969540D01*
X125091700Y-88867540D01*
X126393700Y-88867540D01*
X126393700Y-90969540D01*
X126393700Y-90969540D01*
G37*
G36*
X123193700Y-90969540D02*
G01*
X121891700Y-90969540D01*
X121891700Y-88867540D01*
X123193700Y-88867540D01*
X123193700Y-90969540D01*
X123193700Y-90969540D01*
G37*
G36*
X112750800Y-90919500D02*
G01*
X110489800Y-90919500D01*
X110489800Y-89039500D01*
X112750800Y-89039500D01*
X112750800Y-90919500D01*
X112750800Y-90919500D01*
G37*
G36*
X130189300Y-90528500D02*
G01*
X129087300Y-90528500D01*
X129087300Y-89176500D01*
X130189300Y-89176500D01*
X130189300Y-90528500D01*
X130189300Y-90528500D01*
G37*
G36*
X128189300Y-90528500D02*
G01*
X127087300Y-90528500D01*
X127087300Y-89176500D01*
X128189300Y-89176500D01*
X128189300Y-90528500D01*
X128189300Y-90528500D01*
G37*
G36*
X108855000Y-89551000D02*
G01*
X107553000Y-89551000D01*
X107553000Y-88249000D01*
X108855000Y-88249000D01*
X108855000Y-89551000D01*
X108855000Y-89551000D01*
G37*
G36*
X127665300Y-88354000D02*
G01*
X126563300Y-88354000D01*
X126563300Y-86652000D01*
X127665300Y-86652000D01*
X127665300Y-88354000D01*
X127665300Y-88354000D01*
G37*
G36*
X130665300Y-88354000D02*
G01*
X129563300Y-88354000D01*
X129563300Y-86652000D01*
X130665300Y-86652000D01*
X130665300Y-88354000D01*
X130665300Y-88354000D01*
G37*
G36*
X122669600Y-87898800D02*
G01*
X120017600Y-87898800D01*
X120017600Y-86736800D01*
X122669600Y-86736800D01*
X122669600Y-87898800D01*
X122669600Y-87898800D01*
G37*
G36*
X125313800Y-87784000D02*
G01*
X123961800Y-87784000D01*
X123961800Y-86682000D01*
X125313800Y-86682000D01*
X125313800Y-87784000D01*
X125313800Y-87784000D01*
G37*
G36*
X117094360Y-87673000D02*
G01*
X115742360Y-87673000D01*
X115742360Y-86571000D01*
X117094360Y-86571000D01*
X117094360Y-87673000D01*
X117094360Y-87673000D01*
G37*
G36*
X118603891Y-86615585D02*
G01*
X118637869Y-86625893D01*
X118669190Y-86642634D01*
X118696639Y-86665161D01*
X118719166Y-86692610D01*
X118735907Y-86723931D01*
X118746215Y-86757909D01*
X118750300Y-86799390D01*
X118750300Y-87400610D01*
X118746215Y-87442091D01*
X118735907Y-87476069D01*
X118719166Y-87507390D01*
X118696639Y-87534839D01*
X118669190Y-87557366D01*
X118637869Y-87574107D01*
X118603891Y-87584415D01*
X118562410Y-87588500D01*
X117886190Y-87588500D01*
X117844709Y-87584415D01*
X117810731Y-87574107D01*
X117779410Y-87557366D01*
X117751961Y-87534839D01*
X117729434Y-87507390D01*
X117712693Y-87476069D01*
X117702385Y-87442091D01*
X117698300Y-87400610D01*
X117698300Y-86799390D01*
X117702385Y-86757909D01*
X117712693Y-86723931D01*
X117729434Y-86692610D01*
X117751961Y-86665161D01*
X117779410Y-86642634D01*
X117810731Y-86625893D01*
X117844709Y-86615585D01*
X117886190Y-86611500D01*
X118562410Y-86611500D01*
X118603891Y-86615585D01*
X118603891Y-86615585D01*
G37*
G36*
X108905000Y-87523000D02*
G01*
X107503000Y-87523000D01*
X107503000Y-86721000D01*
X108905000Y-86721000D01*
X108905000Y-87523000D01*
X108905000Y-87523000D01*
G37*
G36*
X112750800Y-86855500D02*
G01*
X110489800Y-86855500D01*
X110489800Y-84975500D01*
X112750800Y-84975500D01*
X112750800Y-86855500D01*
X112750800Y-86855500D01*
G37*
G36*
X118603891Y-85040585D02*
G01*
X118637869Y-85050893D01*
X118669190Y-85067634D01*
X118696639Y-85090161D01*
X118719166Y-85117610D01*
X118735907Y-85148931D01*
X118746215Y-85182909D01*
X118750300Y-85224390D01*
X118750300Y-85825610D01*
X118746215Y-85867091D01*
X118735907Y-85901069D01*
X118719166Y-85932390D01*
X118696639Y-85959839D01*
X118669190Y-85982366D01*
X118637869Y-85999107D01*
X118603891Y-86009415D01*
X118562410Y-86013500D01*
X117886190Y-86013500D01*
X117844709Y-86009415D01*
X117810731Y-85999107D01*
X117779410Y-85982366D01*
X117751961Y-85959839D01*
X117729434Y-85932390D01*
X117712693Y-85901069D01*
X117702385Y-85867091D01*
X117698300Y-85825610D01*
X117698300Y-85224390D01*
X117702385Y-85182909D01*
X117712693Y-85148931D01*
X117729434Y-85117610D01*
X117751961Y-85090161D01*
X117779410Y-85067634D01*
X117810731Y-85050893D01*
X117844709Y-85040585D01*
X117886190Y-85036500D01*
X118562410Y-85036500D01*
X118603891Y-85040585D01*
X118603891Y-85040585D01*
G37*
G36*
X125313800Y-85784000D02*
G01*
X123961800Y-85784000D01*
X123961800Y-84682000D01*
X125313800Y-84682000D01*
X125313800Y-85784000D01*
X125313800Y-85784000D01*
G37*
G36*
X122669600Y-85698800D02*
G01*
X120017600Y-85698800D01*
X120017600Y-84536800D01*
X122669600Y-84536800D01*
X122669600Y-85698800D01*
X122669600Y-85698800D01*
G37*
G36*
X117094360Y-85673000D02*
G01*
X115742360Y-85673000D01*
X115742360Y-84571000D01*
X117094360Y-84571000D01*
X117094360Y-85673000D01*
X117094360Y-85673000D01*
G37*
G36*
X108905000Y-85623000D02*
G01*
X107503000Y-85623000D01*
X107503000Y-84821000D01*
X108905000Y-84821000D01*
X108905000Y-85623000D01*
X108905000Y-85623000D01*
G37*
G36*
X123461420Y-83931720D02*
G01*
X122659420Y-83931720D01*
X122659420Y-82529720D01*
X123461420Y-82529720D01*
X123461420Y-83931720D01*
X123461420Y-83931720D01*
G37*
G36*
X125361420Y-83931720D02*
G01*
X124559420Y-83931720D01*
X124559420Y-82529720D01*
X125361420Y-82529720D01*
X125361420Y-83931720D01*
X125361420Y-83931720D01*
G37*
G36*
X121475220Y-83916480D02*
G01*
X120673220Y-83916480D01*
X120673220Y-82514480D01*
X121475220Y-82514480D01*
X121475220Y-83916480D01*
X121475220Y-83916480D01*
G37*
G36*
X119575220Y-83916480D02*
G01*
X118773220Y-83916480D01*
X118773220Y-82514480D01*
X119575220Y-82514480D01*
X119575220Y-83916480D01*
X119575220Y-83916480D01*
G37*
M02*
