G04 #@! TF.GenerationSoftware,KiCad,Pcbnew,5.1.4*
G04 #@! TF.CreationDate,2019-11-22T11:27:49-05:00*
G04 #@! TF.ProjectId,wheel_speed,77686565-6c5f-4737-9065-65642e6b6963,rev?*
G04 #@! TF.SameCoordinates,Original*
G04 #@! TF.FileFunction,Legend,Top*
G04 #@! TF.FilePolarity,Positive*
%FSLAX46Y46*%
G04 Gerber Fmt 4.6, Leading zero omitted, Abs format (unit mm)*
G04 Created by KiCad (PCBNEW 5.1.4) date 2019-11-22 11:27:49*
%MOMM*%
%LPD*%
G04 APERTURE LIST*
%ADD10C,0.152400*%
%ADD11C,0.250000*%
%ADD12C,0.254000*%
%ADD13C,0.010000*%
%ADD14C,0.150000*%
%ADD15C,0.120000*%
%ADD16C,0.200000*%
%ADD17C,0.100000*%
%ADD18C,0.500000*%
G04 APERTURE END LIST*
D10*
X134828642Y-119458014D02*
X134828642Y-118696014D01*
X135010071Y-118696014D01*
X135118928Y-118732300D01*
X135191500Y-118804871D01*
X135227785Y-118877442D01*
X135264071Y-119022585D01*
X135264071Y-119131442D01*
X135227785Y-119276585D01*
X135191500Y-119349157D01*
X135118928Y-119421728D01*
X135010071Y-119458014D01*
X134828642Y-119458014D01*
X135735785Y-118696014D02*
X135880928Y-118696014D01*
X135953500Y-118732300D01*
X136026071Y-118804871D01*
X136062357Y-118950014D01*
X136062357Y-119204014D01*
X136026071Y-119349157D01*
X135953500Y-119421728D01*
X135880928Y-119458014D01*
X135735785Y-119458014D01*
X135663214Y-119421728D01*
X135590642Y-119349157D01*
X135554357Y-119204014D01*
X135554357Y-118950014D01*
X135590642Y-118804871D01*
X135663214Y-118732300D01*
X135735785Y-118696014D01*
X136969500Y-119458014D02*
X136969500Y-118696014D01*
X137404928Y-119458014D01*
X137404928Y-118696014D01*
X137912928Y-118696014D02*
X138058071Y-118696014D01*
X138130642Y-118732300D01*
X138203214Y-118804871D01*
X138239500Y-118950014D01*
X138239500Y-119204014D01*
X138203214Y-119349157D01*
X138130642Y-119421728D01*
X138058071Y-119458014D01*
X137912928Y-119458014D01*
X137840357Y-119421728D01*
X137767785Y-119349157D01*
X137731500Y-119204014D01*
X137731500Y-118950014D01*
X137767785Y-118804871D01*
X137840357Y-118732300D01*
X137912928Y-118696014D01*
X138457214Y-118696014D02*
X138892642Y-118696014D01*
X138674928Y-119458014D02*
X138674928Y-118696014D01*
X134447642Y-120753414D02*
X134447642Y-119991414D01*
X134737928Y-119991414D01*
X134810500Y-120027700D01*
X134846785Y-120063985D01*
X134883071Y-120136557D01*
X134883071Y-120245414D01*
X134846785Y-120317985D01*
X134810500Y-120354271D01*
X134737928Y-120390557D01*
X134447642Y-120390557D01*
X135354785Y-119991414D02*
X135499928Y-119991414D01*
X135572500Y-120027700D01*
X135645071Y-120100271D01*
X135681357Y-120245414D01*
X135681357Y-120499414D01*
X135645071Y-120644557D01*
X135572500Y-120717128D01*
X135499928Y-120753414D01*
X135354785Y-120753414D01*
X135282214Y-120717128D01*
X135209642Y-120644557D01*
X135173357Y-120499414D01*
X135173357Y-120245414D01*
X135209642Y-120100271D01*
X135282214Y-120027700D01*
X135354785Y-119991414D01*
X136007928Y-120753414D02*
X136007928Y-119991414D01*
X136298214Y-119991414D01*
X136370785Y-120027700D01*
X136407071Y-120063985D01*
X136443357Y-120136557D01*
X136443357Y-120245414D01*
X136407071Y-120317985D01*
X136370785Y-120354271D01*
X136298214Y-120390557D01*
X136007928Y-120390557D01*
X136769928Y-119991414D02*
X136769928Y-120608271D01*
X136806214Y-120680842D01*
X136842500Y-120717128D01*
X136915071Y-120753414D01*
X137060214Y-120753414D01*
X137132785Y-120717128D01*
X137169071Y-120680842D01*
X137205357Y-120608271D01*
X137205357Y-119991414D01*
X137931071Y-120753414D02*
X137568214Y-120753414D01*
X137568214Y-119991414D01*
X138148785Y-120535700D02*
X138511642Y-120535700D01*
X138076214Y-120753414D02*
X138330214Y-119991414D01*
X138584214Y-120753414D01*
X138729357Y-119991414D02*
X139164785Y-119991414D01*
X138947071Y-120753414D02*
X138947071Y-119991414D01*
X139418785Y-120354271D02*
X139672785Y-120354271D01*
X139781642Y-120753414D02*
X139418785Y-120753414D01*
X139418785Y-119991414D01*
X139781642Y-119991414D01*
D11*
X112839523Y-97891380D02*
X112363333Y-97891380D01*
X112315714Y-98367571D01*
X112363333Y-98319952D01*
X112458571Y-98272333D01*
X112696666Y-98272333D01*
X112791904Y-98319952D01*
X112839523Y-98367571D01*
X112887142Y-98462809D01*
X112887142Y-98700904D01*
X112839523Y-98796142D01*
X112791904Y-98843761D01*
X112696666Y-98891380D01*
X112458571Y-98891380D01*
X112363333Y-98843761D01*
X112315714Y-98796142D01*
X113172857Y-97891380D02*
X113506190Y-98891380D01*
X113839523Y-97891380D01*
X111696666Y-100641380D02*
X111696666Y-99641380D01*
X112077619Y-99641380D01*
X112172857Y-99689000D01*
X112220476Y-99736619D01*
X112268095Y-99831857D01*
X112268095Y-99974714D01*
X112220476Y-100069952D01*
X112172857Y-100117571D01*
X112077619Y-100165190D01*
X111696666Y-100165190D01*
X112601428Y-99641380D02*
X112839523Y-100641380D01*
X113030000Y-99927095D01*
X113220476Y-100641380D01*
X113458571Y-99641380D01*
X114410952Y-100641380D02*
X114077619Y-100165190D01*
X113839523Y-100641380D02*
X113839523Y-99641380D01*
X114220476Y-99641380D01*
X114315714Y-99689000D01*
X114363333Y-99736619D01*
X114410952Y-99831857D01*
X114410952Y-99974714D01*
X114363333Y-100069952D01*
X114315714Y-100117571D01*
X114220476Y-100165190D01*
X113839523Y-100165190D01*
X103717380Y-90789047D02*
X103717380Y-91360476D01*
X103717380Y-91074761D02*
X102717380Y-91074761D01*
X102860238Y-91170000D01*
X102955476Y-91265238D01*
X103003095Y-91360476D01*
X102812619Y-90408095D02*
X102765000Y-90360476D01*
X102717380Y-90265238D01*
X102717380Y-90027142D01*
X102765000Y-89931904D01*
X102812619Y-89884285D01*
X102907857Y-89836666D01*
X103003095Y-89836666D01*
X103145952Y-89884285D01*
X103717380Y-90455714D01*
X103717380Y-89836666D01*
X102717380Y-89550952D02*
X103717380Y-89217619D01*
X102717380Y-88884285D01*
X105467380Y-91503333D02*
X104467380Y-91503333D01*
X104467380Y-91122380D01*
X104515000Y-91027142D01*
X104562619Y-90979523D01*
X104657857Y-90931904D01*
X104800714Y-90931904D01*
X104895952Y-90979523D01*
X104943571Y-91027142D01*
X104991190Y-91122380D01*
X104991190Y-91503333D01*
X104467380Y-90598571D02*
X105467380Y-90360476D01*
X104753095Y-90170000D01*
X105467380Y-89979523D01*
X104467380Y-89741428D01*
X105467380Y-88789047D02*
X104991190Y-89122380D01*
X105467380Y-89360476D02*
X104467380Y-89360476D01*
X104467380Y-88979523D01*
X104515000Y-88884285D01*
X104562619Y-88836666D01*
X104657857Y-88789047D01*
X104800714Y-88789047D01*
X104895952Y-88836666D01*
X104943571Y-88884285D01*
X104991190Y-88979523D01*
X104991190Y-89360476D01*
D10*
X128524000Y-97880714D02*
X128270000Y-97517857D01*
X128088571Y-97880714D02*
X128088571Y-97118714D01*
X128378857Y-97118714D01*
X128451428Y-97155000D01*
X128487714Y-97191285D01*
X128524000Y-97263857D01*
X128524000Y-97372714D01*
X128487714Y-97445285D01*
X128451428Y-97481571D01*
X128378857Y-97517857D01*
X128088571Y-97517857D01*
X128850571Y-97880714D02*
X128850571Y-97118714D01*
X129612571Y-97155000D02*
X129540000Y-97118714D01*
X129431142Y-97118714D01*
X129322285Y-97155000D01*
X129249714Y-97227571D01*
X129213428Y-97300142D01*
X129177142Y-97445285D01*
X129177142Y-97554142D01*
X129213428Y-97699285D01*
X129249714Y-97771857D01*
X129322285Y-97844428D01*
X129431142Y-97880714D01*
X129503714Y-97880714D01*
X129612571Y-97844428D01*
X129648857Y-97808142D01*
X129648857Y-97554142D01*
X129503714Y-97554142D01*
X129975428Y-97880714D02*
X129975428Y-97118714D01*
X129975428Y-97481571D02*
X130410857Y-97481571D01*
X130410857Y-97880714D02*
X130410857Y-97118714D01*
X130664857Y-97118714D02*
X131100285Y-97118714D01*
X130882571Y-97880714D02*
X130882571Y-97118714D01*
X132061857Y-97481571D02*
X132170714Y-97517857D01*
X132207000Y-97554142D01*
X132243285Y-97626714D01*
X132243285Y-97735571D01*
X132207000Y-97808142D01*
X132170714Y-97844428D01*
X132098142Y-97880714D01*
X131807857Y-97880714D01*
X131807857Y-97118714D01*
X132061857Y-97118714D01*
X132134428Y-97155000D01*
X132170714Y-97191285D01*
X132207000Y-97263857D01*
X132207000Y-97336428D01*
X132170714Y-97409000D01*
X132134428Y-97445285D01*
X132061857Y-97481571D01*
X131807857Y-97481571D01*
X132533571Y-97663000D02*
X132896428Y-97663000D01*
X132461000Y-97880714D02*
X132715000Y-97118714D01*
X132969000Y-97880714D01*
X133658428Y-97808142D02*
X133622142Y-97844428D01*
X133513285Y-97880714D01*
X133440714Y-97880714D01*
X133331857Y-97844428D01*
X133259285Y-97771857D01*
X133223000Y-97699285D01*
X133186714Y-97554142D01*
X133186714Y-97445285D01*
X133223000Y-97300142D01*
X133259285Y-97227571D01*
X133331857Y-97155000D01*
X133440714Y-97118714D01*
X133513285Y-97118714D01*
X133622142Y-97155000D01*
X133658428Y-97191285D01*
X133985000Y-97880714D02*
X133985000Y-97118714D01*
X134420428Y-97880714D02*
X134093857Y-97445285D01*
X134420428Y-97118714D02*
X133985000Y-97554142D01*
X134138488Y-108517871D02*
X134247345Y-108554157D01*
X134283631Y-108590442D01*
X134319917Y-108663014D01*
X134319917Y-108771871D01*
X134283631Y-108844442D01*
X134247345Y-108880728D01*
X134174774Y-108917014D01*
X133884488Y-108917014D01*
X133884488Y-108155014D01*
X134138488Y-108155014D01*
X134211060Y-108191300D01*
X134247345Y-108227585D01*
X134283631Y-108300157D01*
X134283631Y-108372728D01*
X134247345Y-108445300D01*
X134211060Y-108481585D01*
X134138488Y-108517871D01*
X133884488Y-108517871D01*
X135081917Y-108917014D02*
X134827917Y-108554157D01*
X134646488Y-108917014D02*
X134646488Y-108155014D01*
X134936774Y-108155014D01*
X135009345Y-108191300D01*
X135045631Y-108227585D01*
X135081917Y-108300157D01*
X135081917Y-108409014D01*
X135045631Y-108481585D01*
X135009345Y-108517871D01*
X134936774Y-108554157D01*
X134646488Y-108554157D01*
X135408488Y-108917014D02*
X135408488Y-108155014D01*
X135771345Y-108917014D02*
X135771345Y-108155014D01*
X135952774Y-108155014D01*
X136061631Y-108191300D01*
X136134202Y-108263871D01*
X136170488Y-108336442D01*
X136206774Y-108481585D01*
X136206774Y-108590442D01*
X136170488Y-108735585D01*
X136134202Y-108808157D01*
X136061631Y-108880728D01*
X135952774Y-108917014D01*
X135771345Y-108917014D01*
X136932488Y-108191300D02*
X136859917Y-108155014D01*
X136751060Y-108155014D01*
X136642202Y-108191300D01*
X136569631Y-108263871D01*
X136533345Y-108336442D01*
X136497060Y-108481585D01*
X136497060Y-108590442D01*
X136533345Y-108735585D01*
X136569631Y-108808157D01*
X136642202Y-108880728D01*
X136751060Y-108917014D01*
X136823631Y-108917014D01*
X136932488Y-108880728D01*
X136968774Y-108844442D01*
X136968774Y-108590442D01*
X136823631Y-108590442D01*
X137295345Y-108517871D02*
X137549345Y-108517871D01*
X137658202Y-108917014D02*
X137295345Y-108917014D01*
X137295345Y-108155014D01*
X137658202Y-108155014D01*
X134138488Y-109813271D02*
X133884488Y-109813271D01*
X133884488Y-110212414D02*
X133884488Y-109450414D01*
X134247345Y-109450414D01*
X134682774Y-109450414D02*
X134827917Y-109450414D01*
X134900488Y-109486700D01*
X134973060Y-109559271D01*
X135009345Y-109704414D01*
X135009345Y-109958414D01*
X134973060Y-110103557D01*
X134900488Y-110176128D01*
X134827917Y-110212414D01*
X134682774Y-110212414D01*
X134610202Y-110176128D01*
X134537631Y-110103557D01*
X134501345Y-109958414D01*
X134501345Y-109704414D01*
X134537631Y-109559271D01*
X134610202Y-109486700D01*
X134682774Y-109450414D01*
X135771345Y-110212414D02*
X135517345Y-109849557D01*
X135335917Y-110212414D02*
X135335917Y-109450414D01*
X135626202Y-109450414D01*
X135698774Y-109486700D01*
X135735060Y-109522985D01*
X135771345Y-109595557D01*
X135771345Y-109704414D01*
X135735060Y-109776985D01*
X135698774Y-109813271D01*
X135626202Y-109849557D01*
X135335917Y-109849557D01*
X137113917Y-110212414D02*
X136859917Y-109849557D01*
X136678488Y-110212414D02*
X136678488Y-109450414D01*
X136968774Y-109450414D01*
X137041345Y-109486700D01*
X137077631Y-109522985D01*
X137113917Y-109595557D01*
X137113917Y-109704414D01*
X137077631Y-109776985D01*
X137041345Y-109813271D01*
X136968774Y-109849557D01*
X136678488Y-109849557D01*
X137440488Y-110212414D02*
X137440488Y-109450414D01*
X138202488Y-109486700D02*
X138129917Y-109450414D01*
X138021060Y-109450414D01*
X137912202Y-109486700D01*
X137839631Y-109559271D01*
X137803345Y-109631842D01*
X137767060Y-109776985D01*
X137767060Y-109885842D01*
X137803345Y-110030985D01*
X137839631Y-110103557D01*
X137912202Y-110176128D01*
X138021060Y-110212414D01*
X138093631Y-110212414D01*
X138202488Y-110176128D01*
X138238774Y-110139842D01*
X138238774Y-109885842D01*
X138093631Y-109885842D01*
X138565345Y-110212414D02*
X138565345Y-109450414D01*
X138565345Y-109813271D02*
X139000774Y-109813271D01*
X139000774Y-110212414D02*
X139000774Y-109450414D01*
X139254774Y-109450414D02*
X139690202Y-109450414D01*
X139472488Y-110212414D02*
X139472488Y-109450414D01*
X134138488Y-105469871D02*
X134247345Y-105506157D01*
X134283631Y-105542442D01*
X134319917Y-105615014D01*
X134319917Y-105723871D01*
X134283631Y-105796442D01*
X134247345Y-105832728D01*
X134174774Y-105869014D01*
X133884488Y-105869014D01*
X133884488Y-105107014D01*
X134138488Y-105107014D01*
X134211060Y-105143300D01*
X134247345Y-105179585D01*
X134283631Y-105252157D01*
X134283631Y-105324728D01*
X134247345Y-105397300D01*
X134211060Y-105433585D01*
X134138488Y-105469871D01*
X133884488Y-105469871D01*
X135081917Y-105869014D02*
X134827917Y-105506157D01*
X134646488Y-105869014D02*
X134646488Y-105107014D01*
X134936774Y-105107014D01*
X135009345Y-105143300D01*
X135045631Y-105179585D01*
X135081917Y-105252157D01*
X135081917Y-105361014D01*
X135045631Y-105433585D01*
X135009345Y-105469871D01*
X134936774Y-105506157D01*
X134646488Y-105506157D01*
X135408488Y-105869014D02*
X135408488Y-105107014D01*
X135771345Y-105869014D02*
X135771345Y-105107014D01*
X135952774Y-105107014D01*
X136061631Y-105143300D01*
X136134202Y-105215871D01*
X136170488Y-105288442D01*
X136206774Y-105433585D01*
X136206774Y-105542442D01*
X136170488Y-105687585D01*
X136134202Y-105760157D01*
X136061631Y-105832728D01*
X135952774Y-105869014D01*
X135771345Y-105869014D01*
X136932488Y-105143300D02*
X136859917Y-105107014D01*
X136751060Y-105107014D01*
X136642202Y-105143300D01*
X136569631Y-105215871D01*
X136533345Y-105288442D01*
X136497060Y-105433585D01*
X136497060Y-105542442D01*
X136533345Y-105687585D01*
X136569631Y-105760157D01*
X136642202Y-105832728D01*
X136751060Y-105869014D01*
X136823631Y-105869014D01*
X136932488Y-105832728D01*
X136968774Y-105796442D01*
X136968774Y-105542442D01*
X136823631Y-105542442D01*
X137295345Y-105469871D02*
X137549345Y-105469871D01*
X137658202Y-105869014D02*
X137295345Y-105869014D01*
X137295345Y-105107014D01*
X137658202Y-105107014D01*
X134138488Y-106765271D02*
X133884488Y-106765271D01*
X133884488Y-107164414D02*
X133884488Y-106402414D01*
X134247345Y-106402414D01*
X134682774Y-106402414D02*
X134827917Y-106402414D01*
X134900488Y-106438700D01*
X134973060Y-106511271D01*
X135009345Y-106656414D01*
X135009345Y-106910414D01*
X134973060Y-107055557D01*
X134900488Y-107128128D01*
X134827917Y-107164414D01*
X134682774Y-107164414D01*
X134610202Y-107128128D01*
X134537631Y-107055557D01*
X134501345Y-106910414D01*
X134501345Y-106656414D01*
X134537631Y-106511271D01*
X134610202Y-106438700D01*
X134682774Y-106402414D01*
X135771345Y-107164414D02*
X135517345Y-106801557D01*
X135335917Y-107164414D02*
X135335917Y-106402414D01*
X135626202Y-106402414D01*
X135698774Y-106438700D01*
X135735060Y-106474985D01*
X135771345Y-106547557D01*
X135771345Y-106656414D01*
X135735060Y-106728985D01*
X135698774Y-106765271D01*
X135626202Y-106801557D01*
X135335917Y-106801557D01*
X136932488Y-106765271D02*
X137041345Y-106801557D01*
X137077631Y-106837842D01*
X137113917Y-106910414D01*
X137113917Y-107019271D01*
X137077631Y-107091842D01*
X137041345Y-107128128D01*
X136968774Y-107164414D01*
X136678488Y-107164414D01*
X136678488Y-106402414D01*
X136932488Y-106402414D01*
X137005060Y-106438700D01*
X137041345Y-106474985D01*
X137077631Y-106547557D01*
X137077631Y-106620128D01*
X137041345Y-106692700D01*
X137005060Y-106728985D01*
X136932488Y-106765271D01*
X136678488Y-106765271D01*
X137404202Y-106946700D02*
X137767060Y-106946700D01*
X137331631Y-107164414D02*
X137585631Y-106402414D01*
X137839631Y-107164414D01*
X138529060Y-107091842D02*
X138492774Y-107128128D01*
X138383917Y-107164414D01*
X138311345Y-107164414D01*
X138202488Y-107128128D01*
X138129917Y-107055557D01*
X138093631Y-106982985D01*
X138057345Y-106837842D01*
X138057345Y-106728985D01*
X138093631Y-106583842D01*
X138129917Y-106511271D01*
X138202488Y-106438700D01*
X138311345Y-106402414D01*
X138383917Y-106402414D01*
X138492774Y-106438700D01*
X138529060Y-106474985D01*
X138855631Y-107164414D02*
X138855631Y-106402414D01*
X139291060Y-107164414D02*
X138964488Y-106728985D01*
X139291060Y-106402414D02*
X138855631Y-106837842D01*
D12*
X110703480Y-73345523D02*
X110703480Y-72075523D01*
X111126814Y-72982666D01*
X111550147Y-72075523D01*
X111550147Y-73345523D01*
X112154909Y-73345523D02*
X112154909Y-72075523D01*
X112880623Y-73345523D02*
X112336338Y-72619809D01*
X112880623Y-72075523D02*
X112154909Y-72801238D01*
X113243480Y-72075523D02*
X113666814Y-73345523D01*
X114090147Y-72075523D01*
X115360147Y-72075523D02*
X115662528Y-73345523D01*
X115904433Y-72438380D01*
X116146338Y-73345523D01*
X116448719Y-72075523D01*
X116932528Y-73345523D02*
X116932528Y-72075523D01*
X117476814Y-73345523D02*
X117476814Y-72680285D01*
X117416338Y-72559333D01*
X117295385Y-72498857D01*
X117113957Y-72498857D01*
X116993004Y-72559333D01*
X116932528Y-72619809D01*
X118565385Y-73285047D02*
X118444433Y-73345523D01*
X118202528Y-73345523D01*
X118081576Y-73285047D01*
X118021100Y-73164095D01*
X118021100Y-72680285D01*
X118081576Y-72559333D01*
X118202528Y-72498857D01*
X118444433Y-72498857D01*
X118565385Y-72559333D01*
X118625861Y-72680285D01*
X118625861Y-72801238D01*
X118021100Y-72922190D01*
X119653957Y-73285047D02*
X119533004Y-73345523D01*
X119291100Y-73345523D01*
X119170147Y-73285047D01*
X119109671Y-73164095D01*
X119109671Y-72680285D01*
X119170147Y-72559333D01*
X119291100Y-72498857D01*
X119533004Y-72498857D01*
X119653957Y-72559333D01*
X119714433Y-72680285D01*
X119714433Y-72801238D01*
X119109671Y-72922190D01*
X120440147Y-73345523D02*
X120319195Y-73285047D01*
X120258719Y-73164095D01*
X120258719Y-72075523D01*
X121831100Y-73285047D02*
X122012528Y-73345523D01*
X122314909Y-73345523D01*
X122435861Y-73285047D01*
X122496338Y-73224571D01*
X122556814Y-73103619D01*
X122556814Y-72982666D01*
X122496338Y-72861714D01*
X122435861Y-72801238D01*
X122314909Y-72740761D01*
X122073004Y-72680285D01*
X121952052Y-72619809D01*
X121891576Y-72559333D01*
X121831100Y-72438380D01*
X121831100Y-72317428D01*
X121891576Y-72196476D01*
X121952052Y-72136000D01*
X122073004Y-72075523D01*
X122375385Y-72075523D01*
X122556814Y-72136000D01*
X123101100Y-72498857D02*
X123101100Y-73768857D01*
X123101100Y-72559333D02*
X123222052Y-72498857D01*
X123463957Y-72498857D01*
X123584909Y-72559333D01*
X123645385Y-72619809D01*
X123705861Y-72740761D01*
X123705861Y-73103619D01*
X123645385Y-73224571D01*
X123584909Y-73285047D01*
X123463957Y-73345523D01*
X123222052Y-73345523D01*
X123101100Y-73285047D01*
X124733957Y-73285047D02*
X124613004Y-73345523D01*
X124371100Y-73345523D01*
X124250147Y-73285047D01*
X124189671Y-73164095D01*
X124189671Y-72680285D01*
X124250147Y-72559333D01*
X124371100Y-72498857D01*
X124613004Y-72498857D01*
X124733957Y-72559333D01*
X124794433Y-72680285D01*
X124794433Y-72801238D01*
X124189671Y-72922190D01*
X125822528Y-73285047D02*
X125701576Y-73345523D01*
X125459671Y-73345523D01*
X125338719Y-73285047D01*
X125278242Y-73164095D01*
X125278242Y-72680285D01*
X125338719Y-72559333D01*
X125459671Y-72498857D01*
X125701576Y-72498857D01*
X125822528Y-72559333D01*
X125883004Y-72680285D01*
X125883004Y-72801238D01*
X125278242Y-72922190D01*
X126971576Y-73345523D02*
X126971576Y-72075523D01*
X126971576Y-73285047D02*
X126850623Y-73345523D01*
X126608719Y-73345523D01*
X126487766Y-73285047D01*
X126427290Y-73224571D01*
X126366814Y-73103619D01*
X126366814Y-72740761D01*
X126427290Y-72619809D01*
X126487766Y-72559333D01*
X126608719Y-72498857D01*
X126850623Y-72498857D01*
X126971576Y-72559333D01*
X128846338Y-73768857D02*
X128846338Y-71954571D01*
X130539671Y-72075523D02*
X130963004Y-73345523D01*
X131386338Y-72075523D01*
X132051576Y-72075523D02*
X132172528Y-72075523D01*
X132293480Y-72136000D01*
X132353957Y-72196476D01*
X132414433Y-72317428D01*
X132474909Y-72559333D01*
X132474909Y-72861714D01*
X132414433Y-73103619D01*
X132353957Y-73224571D01*
X132293480Y-73285047D01*
X132172528Y-73345523D01*
X132051576Y-73345523D01*
X131930623Y-73285047D01*
X131870147Y-73224571D01*
X131809671Y-73103619D01*
X131749195Y-72861714D01*
X131749195Y-72559333D01*
X131809671Y-72317428D01*
X131870147Y-72196476D01*
X131930623Y-72136000D01*
X132051576Y-72075523D01*
X111368719Y-75504523D02*
X110643004Y-75504523D01*
X111005861Y-75504523D02*
X111005861Y-74234523D01*
X110884909Y-74415952D01*
X110763957Y-74536904D01*
X110643004Y-74597380D01*
X112578242Y-75504523D02*
X111852528Y-75504523D01*
X112215385Y-75504523D02*
X112215385Y-74234523D01*
X112094433Y-74415952D01*
X111973480Y-74536904D01*
X111852528Y-74597380D01*
X114029671Y-74174047D02*
X112941100Y-75806904D01*
X114392528Y-74355476D02*
X114453004Y-74295000D01*
X114573957Y-74234523D01*
X114876338Y-74234523D01*
X114997290Y-74295000D01*
X115057766Y-74355476D01*
X115118242Y-74476428D01*
X115118242Y-74597380D01*
X115057766Y-74778809D01*
X114332052Y-75504523D01*
X115118242Y-75504523D01*
X116327766Y-75504523D02*
X115602052Y-75504523D01*
X115964909Y-75504523D02*
X115964909Y-74234523D01*
X115843957Y-74415952D01*
X115723004Y-74536904D01*
X115602052Y-74597380D01*
X117779195Y-74174047D02*
X116690623Y-75806904D01*
X118142052Y-74355476D02*
X118202528Y-74295000D01*
X118323480Y-74234523D01*
X118625861Y-74234523D01*
X118746814Y-74295000D01*
X118807290Y-74355476D01*
X118867766Y-74476428D01*
X118867766Y-74597380D01*
X118807290Y-74778809D01*
X118081576Y-75504523D01*
X118867766Y-75504523D01*
X119653957Y-74234523D02*
X119774909Y-74234523D01*
X119895861Y-74295000D01*
X119956338Y-74355476D01*
X120016814Y-74476428D01*
X120077290Y-74718333D01*
X120077290Y-75020714D01*
X120016814Y-75262619D01*
X119956338Y-75383571D01*
X119895861Y-75444047D01*
X119774909Y-75504523D01*
X119653957Y-75504523D01*
X119533004Y-75444047D01*
X119472528Y-75383571D01*
X119412052Y-75262619D01*
X119351576Y-75020714D01*
X119351576Y-74718333D01*
X119412052Y-74476428D01*
X119472528Y-74355476D01*
X119533004Y-74295000D01*
X119653957Y-74234523D01*
X121286814Y-75504523D02*
X120561100Y-75504523D01*
X120923957Y-75504523D02*
X120923957Y-74234523D01*
X120803004Y-74415952D01*
X120682052Y-74536904D01*
X120561100Y-74597380D01*
X121891576Y-75504523D02*
X122133480Y-75504523D01*
X122254433Y-75444047D01*
X122314909Y-75383571D01*
X122435861Y-75202142D01*
X122496338Y-74960238D01*
X122496338Y-74476428D01*
X122435861Y-74355476D01*
X122375385Y-74295000D01*
X122254433Y-74234523D01*
X122012528Y-74234523D01*
X121891576Y-74295000D01*
X121831100Y-74355476D01*
X121770623Y-74476428D01*
X121770623Y-74778809D01*
X121831100Y-74899761D01*
X121891576Y-74960238D01*
X122012528Y-75020714D01*
X122254433Y-75020714D01*
X122375385Y-74960238D01*
X122435861Y-74899761D01*
X122496338Y-74778809D01*
X110582528Y-76393523D02*
X110884909Y-77663523D01*
X111126814Y-76756380D01*
X111368719Y-77663523D01*
X111671100Y-76393523D01*
X112638719Y-77603047D02*
X112517766Y-77663523D01*
X112275861Y-77663523D01*
X112154909Y-77603047D01*
X112094433Y-77482095D01*
X112094433Y-76998285D01*
X112154909Y-76877333D01*
X112275861Y-76816857D01*
X112517766Y-76816857D01*
X112638719Y-76877333D01*
X112699195Y-76998285D01*
X112699195Y-77119238D01*
X112094433Y-77240190D01*
X113183004Y-77603047D02*
X113303957Y-77663523D01*
X113545861Y-77663523D01*
X113666814Y-77603047D01*
X113727290Y-77482095D01*
X113727290Y-77421619D01*
X113666814Y-77300666D01*
X113545861Y-77240190D01*
X113364433Y-77240190D01*
X113243480Y-77179714D01*
X113183004Y-77058761D01*
X113183004Y-76998285D01*
X113243480Y-76877333D01*
X113364433Y-76816857D01*
X113545861Y-76816857D01*
X113666814Y-76877333D01*
X114453004Y-77663523D02*
X114332052Y-77603047D01*
X114271576Y-77482095D01*
X114271576Y-76393523D01*
X115420623Y-77603047D02*
X115299671Y-77663523D01*
X115057766Y-77663523D01*
X114936814Y-77603047D01*
X114876338Y-77482095D01*
X114876338Y-76998285D01*
X114936814Y-76877333D01*
X115057766Y-76816857D01*
X115299671Y-76816857D01*
X115420623Y-76877333D01*
X115481100Y-76998285D01*
X115481100Y-77119238D01*
X114876338Y-77240190D01*
X115904433Y-76816857D02*
X116206814Y-77663523D01*
X116509195Y-76816857D02*
X116206814Y-77663523D01*
X116085861Y-77965904D01*
X116025385Y-78026380D01*
X115904433Y-78086857D01*
X117900147Y-77603047D02*
X118081576Y-77663523D01*
X118383957Y-77663523D01*
X118504909Y-77603047D01*
X118565385Y-77542571D01*
X118625861Y-77421619D01*
X118625861Y-77300666D01*
X118565385Y-77179714D01*
X118504909Y-77119238D01*
X118383957Y-77058761D01*
X118142052Y-76998285D01*
X118021100Y-76937809D01*
X117960623Y-76877333D01*
X117900147Y-76756380D01*
X117900147Y-76635428D01*
X117960623Y-76514476D01*
X118021100Y-76454000D01*
X118142052Y-76393523D01*
X118444433Y-76393523D01*
X118625861Y-76454000D01*
X119351576Y-77663523D02*
X119230623Y-77603047D01*
X119170147Y-77542571D01*
X119109671Y-77421619D01*
X119109671Y-77058761D01*
X119170147Y-76937809D01*
X119230623Y-76877333D01*
X119351576Y-76816857D01*
X119533004Y-76816857D01*
X119653957Y-76877333D01*
X119714433Y-76937809D01*
X119774909Y-77058761D01*
X119774909Y-77421619D01*
X119714433Y-77542571D01*
X119653957Y-77603047D01*
X119533004Y-77663523D01*
X119351576Y-77663523D01*
X120500623Y-77663523D02*
X120379671Y-77603047D01*
X120319195Y-77542571D01*
X120258719Y-77421619D01*
X120258719Y-77058761D01*
X120319195Y-76937809D01*
X120379671Y-76877333D01*
X120500623Y-76816857D01*
X120682052Y-76816857D01*
X120803004Y-76877333D01*
X120863480Y-76937809D01*
X120923957Y-77058761D01*
X120923957Y-77421619D01*
X120863480Y-77542571D01*
X120803004Y-77603047D01*
X120682052Y-77663523D01*
X120500623Y-77663523D01*
X121468242Y-77179714D02*
X122435861Y-77179714D01*
X123040623Y-77663523D02*
X123040623Y-76393523D01*
X123040623Y-76998285D02*
X123766338Y-76998285D01*
X123766338Y-77663523D02*
X123766338Y-76393523D01*
X124552528Y-77663523D02*
X124431576Y-77603047D01*
X124371100Y-77542571D01*
X124310623Y-77421619D01*
X124310623Y-77058761D01*
X124371100Y-76937809D01*
X124431576Y-76877333D01*
X124552528Y-76816857D01*
X124733957Y-76816857D01*
X124854909Y-76877333D01*
X124915385Y-76937809D01*
X124975861Y-77058761D01*
X124975861Y-77421619D01*
X124915385Y-77542571D01*
X124854909Y-77603047D01*
X124733957Y-77663523D01*
X124552528Y-77663523D01*
X125701576Y-77663523D02*
X125580623Y-77603047D01*
X125520147Y-77542571D01*
X125459671Y-77421619D01*
X125459671Y-77058761D01*
X125520147Y-76937809D01*
X125580623Y-76877333D01*
X125701576Y-76816857D01*
X125883004Y-76816857D01*
X126003957Y-76877333D01*
X126064433Y-76937809D01*
X126124909Y-77058761D01*
X126124909Y-77421619D01*
X126064433Y-77542571D01*
X126003957Y-77603047D01*
X125883004Y-77663523D01*
X125701576Y-77663523D01*
D13*
G36*
X91904868Y-81737925D02*
G01*
X91938299Y-81518681D01*
X92003430Y-81338872D01*
X92100626Y-81197947D01*
X92230251Y-81095356D01*
X92370355Y-81036661D01*
X92491405Y-81014575D01*
X92646671Y-81005518D01*
X92821421Y-81008925D01*
X93000924Y-81024230D01*
X93170448Y-81050867D01*
X93256100Y-81070674D01*
X93433900Y-81117928D01*
X93441581Y-81264598D01*
X93444258Y-81346649D01*
X93439220Y-81388661D01*
X93423449Y-81401181D01*
X93403481Y-81397773D01*
X93223585Y-81348593D01*
X93071954Y-81316993D01*
X92930426Y-81299931D01*
X92786200Y-81294398D01*
X92666853Y-81295177D01*
X92583066Y-81301281D01*
X92519668Y-81315364D01*
X92461489Y-81340078D01*
X92430919Y-81356520D01*
X92324178Y-81436159D01*
X92249348Y-81541016D01*
X92202928Y-81678054D01*
X92181494Y-81852781D01*
X92191411Y-82090766D01*
X92247285Y-82307120D01*
X92349119Y-82501849D01*
X92496918Y-82674959D01*
X92690687Y-82826455D01*
X92930429Y-82956346D01*
X93013013Y-82991790D01*
X93071544Y-83012365D01*
X93173530Y-83044646D01*
X93313393Y-83087067D01*
X93485553Y-83138060D01*
X93684433Y-83196058D01*
X93904452Y-83259494D01*
X94140031Y-83326800D01*
X94385592Y-83396408D01*
X94635555Y-83466752D01*
X94884342Y-83536264D01*
X95126372Y-83603377D01*
X95356068Y-83666523D01*
X95567849Y-83724134D01*
X95756138Y-83774645D01*
X95915354Y-83816486D01*
X96039919Y-83848091D01*
X96124254Y-83867893D01*
X96148761Y-83872737D01*
X96363416Y-83893248D01*
X96544897Y-83875588D01*
X96693776Y-83819560D01*
X96810628Y-83724962D01*
X96883811Y-83616800D01*
X96916765Y-83548809D01*
X96937159Y-83490781D01*
X96947394Y-83427660D01*
X96949872Y-83344388D01*
X96946995Y-83225909D01*
X96946850Y-83221630D01*
X96940890Y-83096530D01*
X96930554Y-83004987D01*
X96912127Y-82929765D01*
X96881893Y-82853626D01*
X96855639Y-82798500D01*
X96738716Y-82617176D01*
X96576279Y-82453165D01*
X96371288Y-82308577D01*
X96126701Y-82185524D01*
X95865950Y-82092159D01*
X95681800Y-82037053D01*
X95681800Y-81899827D01*
X95685664Y-81824092D01*
X95695616Y-81774253D01*
X95704909Y-81762600D01*
X95756067Y-81772144D01*
X95842327Y-81797949D01*
X95952309Y-81835771D01*
X96074636Y-81881370D01*
X96197929Y-81930503D01*
X96310810Y-81978929D01*
X96401900Y-82022406D01*
X96402127Y-82022524D01*
X96554712Y-82116089D01*
X96708743Y-82235982D01*
X96852996Y-82371390D01*
X96976250Y-82511498D01*
X97067282Y-82645493D01*
X97085948Y-82681447D01*
X97167256Y-82899090D01*
X97215581Y-83134083D01*
X97229322Y-83371286D01*
X97206875Y-83595560D01*
X97190335Y-83667600D01*
X97122338Y-83841344D01*
X97020624Y-83977560D01*
X96882841Y-84078681D01*
X96734333Y-84139243D01*
X96608727Y-84163656D01*
X96452211Y-84174030D01*
X96282767Y-84170109D01*
X96118382Y-84151636D01*
X96099214Y-84148314D01*
X96035892Y-84134216D01*
X95929444Y-84107426D01*
X95785494Y-84069539D01*
X95609667Y-84022147D01*
X95407587Y-83966845D01*
X95184877Y-83905227D01*
X94947163Y-83838885D01*
X94700068Y-83769415D01*
X94449217Y-83698409D01*
X94200234Y-83627461D01*
X93958742Y-83558166D01*
X93730367Y-83492117D01*
X93520732Y-83430907D01*
X93335462Y-83376131D01*
X93180181Y-83329382D01*
X93060512Y-83292254D01*
X92982081Y-83266340D01*
X92965995Y-83260440D01*
X92691559Y-83132080D01*
X92454899Y-82974484D01*
X92257797Y-82790208D01*
X92102036Y-82581813D01*
X91989400Y-82351855D01*
X91921671Y-82102894D01*
X91900633Y-81837487D01*
X91904868Y-81737925D01*
X91904868Y-81737925D01*
G37*
X91904868Y-81737925D02*
X91938299Y-81518681D01*
X92003430Y-81338872D01*
X92100626Y-81197947D01*
X92230251Y-81095356D01*
X92370355Y-81036661D01*
X92491405Y-81014575D01*
X92646671Y-81005518D01*
X92821421Y-81008925D01*
X93000924Y-81024230D01*
X93170448Y-81050867D01*
X93256100Y-81070674D01*
X93433900Y-81117928D01*
X93441581Y-81264598D01*
X93444258Y-81346649D01*
X93439220Y-81388661D01*
X93423449Y-81401181D01*
X93403481Y-81397773D01*
X93223585Y-81348593D01*
X93071954Y-81316993D01*
X92930426Y-81299931D01*
X92786200Y-81294398D01*
X92666853Y-81295177D01*
X92583066Y-81301281D01*
X92519668Y-81315364D01*
X92461489Y-81340078D01*
X92430919Y-81356520D01*
X92324178Y-81436159D01*
X92249348Y-81541016D01*
X92202928Y-81678054D01*
X92181494Y-81852781D01*
X92191411Y-82090766D01*
X92247285Y-82307120D01*
X92349119Y-82501849D01*
X92496918Y-82674959D01*
X92690687Y-82826455D01*
X92930429Y-82956346D01*
X93013013Y-82991790D01*
X93071544Y-83012365D01*
X93173530Y-83044646D01*
X93313393Y-83087067D01*
X93485553Y-83138060D01*
X93684433Y-83196058D01*
X93904452Y-83259494D01*
X94140031Y-83326800D01*
X94385592Y-83396408D01*
X94635555Y-83466752D01*
X94884342Y-83536264D01*
X95126372Y-83603377D01*
X95356068Y-83666523D01*
X95567849Y-83724134D01*
X95756138Y-83774645D01*
X95915354Y-83816486D01*
X96039919Y-83848091D01*
X96124254Y-83867893D01*
X96148761Y-83872737D01*
X96363416Y-83893248D01*
X96544897Y-83875588D01*
X96693776Y-83819560D01*
X96810628Y-83724962D01*
X96883811Y-83616800D01*
X96916765Y-83548809D01*
X96937159Y-83490781D01*
X96947394Y-83427660D01*
X96949872Y-83344388D01*
X96946995Y-83225909D01*
X96946850Y-83221630D01*
X96940890Y-83096530D01*
X96930554Y-83004987D01*
X96912127Y-82929765D01*
X96881893Y-82853626D01*
X96855639Y-82798500D01*
X96738716Y-82617176D01*
X96576279Y-82453165D01*
X96371288Y-82308577D01*
X96126701Y-82185524D01*
X95865950Y-82092159D01*
X95681800Y-82037053D01*
X95681800Y-81899827D01*
X95685664Y-81824092D01*
X95695616Y-81774253D01*
X95704909Y-81762600D01*
X95756067Y-81772144D01*
X95842327Y-81797949D01*
X95952309Y-81835771D01*
X96074636Y-81881370D01*
X96197929Y-81930503D01*
X96310810Y-81978929D01*
X96401900Y-82022406D01*
X96402127Y-82022524D01*
X96554712Y-82116089D01*
X96708743Y-82235982D01*
X96852996Y-82371390D01*
X96976250Y-82511498D01*
X97067282Y-82645493D01*
X97085948Y-82681447D01*
X97167256Y-82899090D01*
X97215581Y-83134083D01*
X97229322Y-83371286D01*
X97206875Y-83595560D01*
X97190335Y-83667600D01*
X97122338Y-83841344D01*
X97020624Y-83977560D01*
X96882841Y-84078681D01*
X96734333Y-84139243D01*
X96608727Y-84163656D01*
X96452211Y-84174030D01*
X96282767Y-84170109D01*
X96118382Y-84151636D01*
X96099214Y-84148314D01*
X96035892Y-84134216D01*
X95929444Y-84107426D01*
X95785494Y-84069539D01*
X95609667Y-84022147D01*
X95407587Y-83966845D01*
X95184877Y-83905227D01*
X94947163Y-83838885D01*
X94700068Y-83769415D01*
X94449217Y-83698409D01*
X94200234Y-83627461D01*
X93958742Y-83558166D01*
X93730367Y-83492117D01*
X93520732Y-83430907D01*
X93335462Y-83376131D01*
X93180181Y-83329382D01*
X93060512Y-83292254D01*
X92982081Y-83266340D01*
X92965995Y-83260440D01*
X92691559Y-83132080D01*
X92454899Y-82974484D01*
X92257797Y-82790208D01*
X92102036Y-82581813D01*
X91989400Y-82351855D01*
X91921671Y-82102894D01*
X91900633Y-81837487D01*
X91904868Y-81737925D01*
G36*
X91911223Y-83473856D02*
G01*
X91930443Y-83464400D01*
X91959320Y-83471153D01*
X92033837Y-83490809D01*
X92150747Y-83522467D01*
X92306801Y-83565225D01*
X92498752Y-83618182D01*
X92723351Y-83680436D01*
X92977352Y-83751084D01*
X93257505Y-83829226D01*
X93560563Y-83913959D01*
X93883279Y-84004381D01*
X94222404Y-84099592D01*
X94541620Y-84189378D01*
X94893374Y-84288385D01*
X95232014Y-84383671D01*
X95554255Y-84474312D01*
X95856815Y-84559385D01*
X96136408Y-84637969D01*
X96389750Y-84709141D01*
X96613557Y-84771979D01*
X96804544Y-84825559D01*
X96959427Y-84868961D01*
X97074922Y-84901260D01*
X97147745Y-84921536D01*
X97174050Y-84928731D01*
X97207216Y-84942968D01*
X97224381Y-84973215D01*
X97230605Y-85033120D01*
X97231200Y-85082808D01*
X97229760Y-85162239D01*
X97222079Y-85201870D01*
X97203117Y-85212690D01*
X97174050Y-85207355D01*
X97142261Y-85198531D01*
X97064841Y-85176852D01*
X96945055Y-85143235D01*
X96786168Y-85098600D01*
X96591446Y-85043865D01*
X96364153Y-84979948D01*
X96107556Y-84907767D01*
X95824919Y-84828242D01*
X95519508Y-84742289D01*
X95194589Y-84650829D01*
X94853426Y-84554779D01*
X94513400Y-84459032D01*
X91909900Y-83725862D01*
X91902222Y-83595131D01*
X91901071Y-83514221D01*
X91911223Y-83473856D01*
X91911223Y-83473856D01*
G37*
X91911223Y-83473856D02*
X91930443Y-83464400D01*
X91959320Y-83471153D01*
X92033837Y-83490809D01*
X92150747Y-83522467D01*
X92306801Y-83565225D01*
X92498752Y-83618182D01*
X92723351Y-83680436D01*
X92977352Y-83751084D01*
X93257505Y-83829226D01*
X93560563Y-83913959D01*
X93883279Y-84004381D01*
X94222404Y-84099592D01*
X94541620Y-84189378D01*
X94893374Y-84288385D01*
X95232014Y-84383671D01*
X95554255Y-84474312D01*
X95856815Y-84559385D01*
X96136408Y-84637969D01*
X96389750Y-84709141D01*
X96613557Y-84771979D01*
X96804544Y-84825559D01*
X96959427Y-84868961D01*
X97074922Y-84901260D01*
X97147745Y-84921536D01*
X97174050Y-84928731D01*
X97207216Y-84942968D01*
X97224381Y-84973215D01*
X97230605Y-85033120D01*
X97231200Y-85082808D01*
X97229760Y-85162239D01*
X97222079Y-85201870D01*
X97203117Y-85212690D01*
X97174050Y-85207355D01*
X97142261Y-85198531D01*
X97064841Y-85176852D01*
X96945055Y-85143235D01*
X96786168Y-85098600D01*
X96591446Y-85043865D01*
X96364153Y-84979948D01*
X96107556Y-84907767D01*
X95824919Y-84828242D01*
X95519508Y-84742289D01*
X95194589Y-84650829D01*
X94853426Y-84554779D01*
X94513400Y-84459032D01*
X91909900Y-83725862D01*
X91902222Y-83595131D01*
X91901071Y-83514221D01*
X91911223Y-83473856D01*
G36*
X91901094Y-86065254D02*
G01*
X91903131Y-85885596D01*
X91903157Y-85883750D01*
X91906639Y-85671020D01*
X91910653Y-85502539D01*
X91915642Y-85371760D01*
X91922050Y-85272134D01*
X91930322Y-85197109D01*
X91940901Y-85140139D01*
X91954230Y-85094672D01*
X91957179Y-85086612D01*
X92041344Y-84929579D01*
X92161331Y-84799905D01*
X92307620Y-84707859D01*
X92308845Y-84707313D01*
X92446070Y-84666715D01*
X92618369Y-84647935D01*
X92814993Y-84650857D01*
X93025197Y-84675360D01*
X93223606Y-84717451D01*
X93567695Y-84824310D01*
X93866103Y-84953347D01*
X94118861Y-85104583D01*
X94326002Y-85278036D01*
X94487558Y-85473727D01*
X94533180Y-85547200D01*
X94570865Y-85612900D01*
X94596401Y-85657228D01*
X94602635Y-85667899D01*
X94621431Y-85655390D01*
X94666277Y-85616423D01*
X94717220Y-85569095D01*
X94823092Y-85478727D01*
X94926075Y-85417309D01*
X95039773Y-85380161D01*
X95177793Y-85362602D01*
X95326200Y-85359598D01*
X95402712Y-85360854D01*
X95471347Y-85364086D01*
X95538973Y-85370764D01*
X95612456Y-85382358D01*
X95698663Y-85400336D01*
X95804460Y-85426168D01*
X95936714Y-85461321D01*
X96102293Y-85507267D01*
X96308062Y-85565473D01*
X96367600Y-85582400D01*
X96559109Y-85636906D01*
X96736198Y-85687364D01*
X96892603Y-85731987D01*
X97022064Y-85768987D01*
X97118319Y-85796573D01*
X97175106Y-85812958D01*
X97186750Y-85816394D01*
X97213652Y-85835796D01*
X97227278Y-85880814D01*
X97231194Y-85963611D01*
X97231200Y-85968012D01*
X97229237Y-86044003D01*
X97224182Y-86094121D01*
X97219410Y-86106000D01*
X97192967Y-86099370D01*
X97123599Y-86080581D01*
X97017266Y-86051286D01*
X96879929Y-86013137D01*
X96717548Y-85967789D01*
X96536086Y-85916894D01*
X96440260Y-85889938D01*
X96243440Y-85835098D01*
X96055430Y-85783795D01*
X95883680Y-85737979D01*
X95735643Y-85699603D01*
X95618769Y-85670617D01*
X95540509Y-85652972D01*
X95522799Y-85649704D01*
X95327765Y-85638558D01*
X95156853Y-85671217D01*
X95011544Y-85747005D01*
X94893317Y-85865246D01*
X94831218Y-85965473D01*
X94804659Y-86018650D01*
X94784954Y-86065267D01*
X94770920Y-86114141D01*
X94761377Y-86174087D01*
X94755143Y-86253920D01*
X94751038Y-86362455D01*
X94747881Y-86508509D01*
X94746268Y-86599489D01*
X94737837Y-87083900D01*
X95825768Y-87387106D01*
X96058415Y-87452012D01*
X96281286Y-87514319D01*
X96488465Y-87572363D01*
X96674036Y-87624482D01*
X96832083Y-87669013D01*
X96956689Y-87704292D01*
X97041940Y-87728656D01*
X97072450Y-87737556D01*
X97231200Y-87784801D01*
X97231200Y-87910601D01*
X97226860Y-87990650D01*
X97212109Y-88029288D01*
X97193994Y-88036400D01*
X97164973Y-88029649D01*
X97090285Y-88009990D01*
X96973154Y-87978318D01*
X96816801Y-87935527D01*
X96624451Y-87882512D01*
X96399326Y-87820167D01*
X96144648Y-87749385D01*
X95863641Y-87671062D01*
X95559527Y-87586091D01*
X95235529Y-87495366D01*
X94894870Y-87399782D01*
X94540773Y-87300233D01*
X94539236Y-87299800D01*
X94450432Y-87274820D01*
X94450432Y-86995000D01*
X94454419Y-86970973D01*
X94457858Y-86904382D01*
X94460517Y-86803461D01*
X94462165Y-86676445D01*
X94462600Y-86561865D01*
X94460061Y-86347056D01*
X94452130Y-86175640D01*
X94438333Y-86040444D01*
X94422205Y-85951126D01*
X94353791Y-85748371D01*
X94244987Y-85567596D01*
X94094344Y-85407645D01*
X93900411Y-85267363D01*
X93661739Y-85145594D01*
X93376876Y-85041183D01*
X93225232Y-84997406D01*
X92974396Y-84943828D01*
X92758826Y-84926711D01*
X92578393Y-84946074D01*
X92432972Y-85001935D01*
X92322434Y-85094312D01*
X92292175Y-85134952D01*
X92253776Y-85202001D01*
X92224682Y-85276257D01*
X92203712Y-85365662D01*
X92189682Y-85478163D01*
X92181410Y-85621702D01*
X92177715Y-85804225D01*
X92177220Y-85907439D01*
X92177410Y-86069602D01*
X92178941Y-86188051D01*
X92182485Y-86269867D01*
X92188712Y-86322130D01*
X92198292Y-86351921D01*
X92211897Y-86366322D01*
X92221050Y-86370160D01*
X92265262Y-86383074D01*
X92349921Y-86407254D01*
X92469079Y-86441034D01*
X92616786Y-86482746D01*
X92787091Y-86530722D01*
X92974046Y-86583296D01*
X93171700Y-86638798D01*
X93374104Y-86695562D01*
X93575309Y-86751921D01*
X93769365Y-86806206D01*
X93950322Y-86856751D01*
X94112231Y-86901887D01*
X94249142Y-86939947D01*
X94355105Y-86969264D01*
X94424172Y-86988171D01*
X94450391Y-86994999D01*
X94450432Y-86995000D01*
X94450432Y-87274820D01*
X94185617Y-87200326D01*
X93845799Y-87104804D01*
X93522969Y-87014127D01*
X93220313Y-86929187D01*
X92941016Y-86850875D01*
X92688265Y-86780084D01*
X92465245Y-86717705D01*
X92275143Y-86664630D01*
X92121145Y-86621750D01*
X92006436Y-86589958D01*
X91934204Y-86570144D01*
X91907633Y-86563202D01*
X91907598Y-86563200D01*
X91904216Y-86538901D01*
X91901831Y-86470383D01*
X91900487Y-86364220D01*
X91900227Y-86226986D01*
X91901094Y-86065254D01*
X91901094Y-86065254D01*
G37*
X91901094Y-86065254D02*
X91903131Y-85885596D01*
X91903157Y-85883750D01*
X91906639Y-85671020D01*
X91910653Y-85502539D01*
X91915642Y-85371760D01*
X91922050Y-85272134D01*
X91930322Y-85197109D01*
X91940901Y-85140139D01*
X91954230Y-85094672D01*
X91957179Y-85086612D01*
X92041344Y-84929579D01*
X92161331Y-84799905D01*
X92307620Y-84707859D01*
X92308845Y-84707313D01*
X92446070Y-84666715D01*
X92618369Y-84647935D01*
X92814993Y-84650857D01*
X93025197Y-84675360D01*
X93223606Y-84717451D01*
X93567695Y-84824310D01*
X93866103Y-84953347D01*
X94118861Y-85104583D01*
X94326002Y-85278036D01*
X94487558Y-85473727D01*
X94533180Y-85547200D01*
X94570865Y-85612900D01*
X94596401Y-85657228D01*
X94602635Y-85667899D01*
X94621431Y-85655390D01*
X94666277Y-85616423D01*
X94717220Y-85569095D01*
X94823092Y-85478727D01*
X94926075Y-85417309D01*
X95039773Y-85380161D01*
X95177793Y-85362602D01*
X95326200Y-85359598D01*
X95402712Y-85360854D01*
X95471347Y-85364086D01*
X95538973Y-85370764D01*
X95612456Y-85382358D01*
X95698663Y-85400336D01*
X95804460Y-85426168D01*
X95936714Y-85461321D01*
X96102293Y-85507267D01*
X96308062Y-85565473D01*
X96367600Y-85582400D01*
X96559109Y-85636906D01*
X96736198Y-85687364D01*
X96892603Y-85731987D01*
X97022064Y-85768987D01*
X97118319Y-85796573D01*
X97175106Y-85812958D01*
X97186750Y-85816394D01*
X97213652Y-85835796D01*
X97227278Y-85880814D01*
X97231194Y-85963611D01*
X97231200Y-85968012D01*
X97229237Y-86044003D01*
X97224182Y-86094121D01*
X97219410Y-86106000D01*
X97192967Y-86099370D01*
X97123599Y-86080581D01*
X97017266Y-86051286D01*
X96879929Y-86013137D01*
X96717548Y-85967789D01*
X96536086Y-85916894D01*
X96440260Y-85889938D01*
X96243440Y-85835098D01*
X96055430Y-85783795D01*
X95883680Y-85737979D01*
X95735643Y-85699603D01*
X95618769Y-85670617D01*
X95540509Y-85652972D01*
X95522799Y-85649704D01*
X95327765Y-85638558D01*
X95156853Y-85671217D01*
X95011544Y-85747005D01*
X94893317Y-85865246D01*
X94831218Y-85965473D01*
X94804659Y-86018650D01*
X94784954Y-86065267D01*
X94770920Y-86114141D01*
X94761377Y-86174087D01*
X94755143Y-86253920D01*
X94751038Y-86362455D01*
X94747881Y-86508509D01*
X94746268Y-86599489D01*
X94737837Y-87083900D01*
X95825768Y-87387106D01*
X96058415Y-87452012D01*
X96281286Y-87514319D01*
X96488465Y-87572363D01*
X96674036Y-87624482D01*
X96832083Y-87669013D01*
X96956689Y-87704292D01*
X97041940Y-87728656D01*
X97072450Y-87737556D01*
X97231200Y-87784801D01*
X97231200Y-87910601D01*
X97226860Y-87990650D01*
X97212109Y-88029288D01*
X97193994Y-88036400D01*
X97164973Y-88029649D01*
X97090285Y-88009990D01*
X96973154Y-87978318D01*
X96816801Y-87935527D01*
X96624451Y-87882512D01*
X96399326Y-87820167D01*
X96144648Y-87749385D01*
X95863641Y-87671062D01*
X95559527Y-87586091D01*
X95235529Y-87495366D01*
X94894870Y-87399782D01*
X94540773Y-87300233D01*
X94539236Y-87299800D01*
X94450432Y-87274820D01*
X94450432Y-86995000D01*
X94454419Y-86970973D01*
X94457858Y-86904382D01*
X94460517Y-86803461D01*
X94462165Y-86676445D01*
X94462600Y-86561865D01*
X94460061Y-86347056D01*
X94452130Y-86175640D01*
X94438333Y-86040444D01*
X94422205Y-85951126D01*
X94353791Y-85748371D01*
X94244987Y-85567596D01*
X94094344Y-85407645D01*
X93900411Y-85267363D01*
X93661739Y-85145594D01*
X93376876Y-85041183D01*
X93225232Y-84997406D01*
X92974396Y-84943828D01*
X92758826Y-84926711D01*
X92578393Y-84946074D01*
X92432972Y-85001935D01*
X92322434Y-85094312D01*
X92292175Y-85134952D01*
X92253776Y-85202001D01*
X92224682Y-85276257D01*
X92203712Y-85365662D01*
X92189682Y-85478163D01*
X92181410Y-85621702D01*
X92177715Y-85804225D01*
X92177220Y-85907439D01*
X92177410Y-86069602D01*
X92178941Y-86188051D01*
X92182485Y-86269867D01*
X92188712Y-86322130D01*
X92198292Y-86351921D01*
X92211897Y-86366322D01*
X92221050Y-86370160D01*
X92265262Y-86383074D01*
X92349921Y-86407254D01*
X92469079Y-86441034D01*
X92616786Y-86482746D01*
X92787091Y-86530722D01*
X92974046Y-86583296D01*
X93171700Y-86638798D01*
X93374104Y-86695562D01*
X93575309Y-86751921D01*
X93769365Y-86806206D01*
X93950322Y-86856751D01*
X94112231Y-86901887D01*
X94249142Y-86939947D01*
X94355105Y-86969264D01*
X94424172Y-86988171D01*
X94450391Y-86994999D01*
X94450432Y-86995000D01*
X94450432Y-87274820D01*
X94185617Y-87200326D01*
X93845799Y-87104804D01*
X93522969Y-87014127D01*
X93220313Y-86929187D01*
X92941016Y-86850875D01*
X92688265Y-86780084D01*
X92465245Y-86717705D01*
X92275143Y-86664630D01*
X92121145Y-86621750D01*
X92006436Y-86589958D01*
X91934204Y-86570144D01*
X91907633Y-86563202D01*
X91907598Y-86563200D01*
X91904216Y-86538901D01*
X91901831Y-86470383D01*
X91900487Y-86364220D01*
X91900227Y-86226986D01*
X91901094Y-86065254D01*
G36*
X91897341Y-88090702D02*
G01*
X91897748Y-87844338D01*
X91898394Y-87618395D01*
X91899254Y-87417439D01*
X91900300Y-87246038D01*
X91901507Y-87108756D01*
X91902848Y-87010160D01*
X91904297Y-86954817D01*
X91905289Y-86944200D01*
X91932059Y-86950815D01*
X91992275Y-86967825D01*
X92044555Y-86983156D01*
X92175731Y-87022111D01*
X92182515Y-87660347D01*
X92189300Y-88298583D01*
X94640400Y-88988657D01*
X94983807Y-89085318D01*
X95314287Y-89178299D01*
X95628446Y-89266648D01*
X95922888Y-89349411D01*
X96194221Y-89425637D01*
X96439050Y-89494372D01*
X96653979Y-89554663D01*
X96835616Y-89605559D01*
X96980565Y-89646105D01*
X97085433Y-89675351D01*
X97146825Y-89692342D01*
X97161350Y-89696250D01*
X97201554Y-89710219D01*
X97222379Y-89735496D01*
X97230144Y-89786259D01*
X97231200Y-89852984D01*
X97230152Y-89929293D01*
X97227451Y-89979721D01*
X97224850Y-89991876D01*
X97200051Y-89985095D01*
X97129595Y-89965450D01*
X97016718Y-89933850D01*
X96864659Y-89891206D01*
X96676656Y-89838428D01*
X96455948Y-89776425D01*
X96205774Y-89706108D01*
X95929371Y-89628385D01*
X95629977Y-89544169D01*
X95310832Y-89454367D01*
X94975173Y-89359891D01*
X94703900Y-89283517D01*
X92189300Y-88575483D01*
X92182508Y-89210190D01*
X92180005Y-89408877D01*
X92177026Y-89562077D01*
X92173207Y-89675106D01*
X92168178Y-89753277D01*
X92161574Y-89801904D01*
X92153029Y-89826300D01*
X92142174Y-89831780D01*
X92139647Y-89831055D01*
X92093108Y-89815902D01*
X92021876Y-89795299D01*
X92000388Y-89789428D01*
X91897200Y-89761642D01*
X91897200Y-88352921D01*
X91897341Y-88090702D01*
X91897341Y-88090702D01*
G37*
X91897341Y-88090702D02*
X91897748Y-87844338D01*
X91898394Y-87618395D01*
X91899254Y-87417439D01*
X91900300Y-87246038D01*
X91901507Y-87108756D01*
X91902848Y-87010160D01*
X91904297Y-86954817D01*
X91905289Y-86944200D01*
X91932059Y-86950815D01*
X91992275Y-86967825D01*
X92044555Y-86983156D01*
X92175731Y-87022111D01*
X92182515Y-87660347D01*
X92189300Y-88298583D01*
X94640400Y-88988657D01*
X94983807Y-89085318D01*
X95314287Y-89178299D01*
X95628446Y-89266648D01*
X95922888Y-89349411D01*
X96194221Y-89425637D01*
X96439050Y-89494372D01*
X96653979Y-89554663D01*
X96835616Y-89605559D01*
X96980565Y-89646105D01*
X97085433Y-89675351D01*
X97146825Y-89692342D01*
X97161350Y-89696250D01*
X97201554Y-89710219D01*
X97222379Y-89735496D01*
X97230144Y-89786259D01*
X97231200Y-89852984D01*
X97230152Y-89929293D01*
X97227451Y-89979721D01*
X97224850Y-89991876D01*
X97200051Y-89985095D01*
X97129595Y-89965450D01*
X97016718Y-89933850D01*
X96864659Y-89891206D01*
X96676656Y-89838428D01*
X96455948Y-89776425D01*
X96205774Y-89706108D01*
X95929371Y-89628385D01*
X95629977Y-89544169D01*
X95310832Y-89454367D01*
X94975173Y-89359891D01*
X94703900Y-89283517D01*
X92189300Y-88575483D01*
X92182508Y-89210190D01*
X92180005Y-89408877D01*
X92177026Y-89562077D01*
X92173207Y-89675106D01*
X92168178Y-89753277D01*
X92161574Y-89801904D01*
X92153029Y-89826300D01*
X92142174Y-89831780D01*
X92139647Y-89831055D01*
X92093108Y-89815902D01*
X92021876Y-89795299D01*
X92000388Y-89789428D01*
X91897200Y-89761642D01*
X91897200Y-88352921D01*
X91897341Y-88090702D01*
G36*
X91911181Y-90939976D02*
G01*
X91914466Y-90846076D01*
X91923137Y-90775963D01*
X91939519Y-90716132D01*
X91965935Y-90653080D01*
X91992284Y-90598485D01*
X92090567Y-90448744D01*
X92219979Y-90336440D01*
X92381238Y-90261418D01*
X92575060Y-90223521D01*
X92802164Y-90222595D01*
X93063267Y-90258482D01*
X93300550Y-90314533D01*
X93446600Y-90354495D01*
X93446600Y-90490848D01*
X93444106Y-90566321D01*
X93437687Y-90615837D01*
X93431781Y-90627200D01*
X93401783Y-90621414D01*
X93335497Y-90606066D01*
X93245853Y-90584178D01*
X93222231Y-90578270D01*
X92990946Y-90528953D01*
X92797030Y-90507828D01*
X92635269Y-90515393D01*
X92500446Y-90552143D01*
X92387345Y-90618576D01*
X92337921Y-90662468D01*
X92262086Y-90753196D01*
X92212519Y-90852960D01*
X92186100Y-90972969D01*
X92179710Y-91124434D01*
X92183217Y-91218435D01*
X92193945Y-91346760D01*
X92212690Y-91445668D01*
X92244511Y-91536457D01*
X92273730Y-91599435D01*
X92390874Y-91781252D01*
X92552658Y-91946033D01*
X92754754Y-92090274D01*
X92992837Y-92210472D01*
X93062446Y-92238241D01*
X93119136Y-92257255D01*
X93219109Y-92288144D01*
X93356670Y-92329297D01*
X93526124Y-92379103D01*
X93721777Y-92435950D01*
X93937935Y-92498226D01*
X94168903Y-92564320D01*
X94408986Y-92632622D01*
X94652490Y-92701518D01*
X94893721Y-92769398D01*
X95126984Y-92834650D01*
X95346585Y-92895663D01*
X95546829Y-92950826D01*
X95722021Y-92998526D01*
X95866467Y-93037152D01*
X95974473Y-93065094D01*
X96037400Y-93080115D01*
X96154659Y-93099792D01*
X96280826Y-93112778D01*
X96354900Y-93115818D01*
X96542349Y-93100238D01*
X96692540Y-93051585D01*
X96807024Y-92968209D01*
X96887353Y-92848459D01*
X96935078Y-92690685D01*
X96951752Y-92493235D01*
X96951800Y-92480852D01*
X96929751Y-92250991D01*
X96863299Y-92043159D01*
X96751982Y-91856851D01*
X96595341Y-91691560D01*
X96392915Y-91546779D01*
X96144243Y-91422004D01*
X95910400Y-91335829D01*
X95694500Y-91266508D01*
X95686882Y-91124654D01*
X95684630Y-91047541D01*
X95686743Y-90996022D01*
X95690941Y-90982800D01*
X95718553Y-90990176D01*
X95783429Y-91010031D01*
X95874583Y-91038953D01*
X95939859Y-91060067D01*
X96258775Y-91182857D01*
X96532459Y-91328759D01*
X96760909Y-91497769D01*
X96944121Y-91689886D01*
X97082095Y-91905107D01*
X97174827Y-92143429D01*
X97222316Y-92404850D01*
X97229110Y-92570300D01*
X97224368Y-92685647D01*
X97213152Y-92798050D01*
X97197813Y-92884430D01*
X97196605Y-92889056D01*
X97126037Y-93065971D01*
X97019479Y-93207070D01*
X96877059Y-93312213D01*
X96772255Y-93358767D01*
X96666832Y-93382860D01*
X96526975Y-93395759D01*
X96367809Y-93397414D01*
X96204462Y-93387778D01*
X96052061Y-93366801D01*
X96023892Y-93361170D01*
X95966684Y-93347282D01*
X95866411Y-93321046D01*
X95728850Y-93284079D01*
X95559779Y-93238003D01*
X95364974Y-93184437D01*
X95150213Y-93124999D01*
X94921274Y-93061310D01*
X94683932Y-92994989D01*
X94443966Y-92927656D01*
X94207152Y-92860930D01*
X93979268Y-92796430D01*
X93766091Y-92735776D01*
X93573397Y-92680587D01*
X93406964Y-92632484D01*
X93272569Y-92593085D01*
X93175990Y-92564010D01*
X93141800Y-92553239D01*
X92843460Y-92435977D01*
X92581978Y-92290672D01*
X92359536Y-92119187D01*
X92178315Y-91923382D01*
X92040496Y-91705121D01*
X91977963Y-91559787D01*
X91948321Y-91470368D01*
X91928909Y-91388952D01*
X91917611Y-91300101D01*
X91912309Y-91188377D01*
X91910959Y-91071166D01*
X91911181Y-90939976D01*
X91911181Y-90939976D01*
G37*
X91911181Y-90939976D02*
X91914466Y-90846076D01*
X91923137Y-90775963D01*
X91939519Y-90716132D01*
X91965935Y-90653080D01*
X91992284Y-90598485D01*
X92090567Y-90448744D01*
X92219979Y-90336440D01*
X92381238Y-90261418D01*
X92575060Y-90223521D01*
X92802164Y-90222595D01*
X93063267Y-90258482D01*
X93300550Y-90314533D01*
X93446600Y-90354495D01*
X93446600Y-90490848D01*
X93444106Y-90566321D01*
X93437687Y-90615837D01*
X93431781Y-90627200D01*
X93401783Y-90621414D01*
X93335497Y-90606066D01*
X93245853Y-90584178D01*
X93222231Y-90578270D01*
X92990946Y-90528953D01*
X92797030Y-90507828D01*
X92635269Y-90515393D01*
X92500446Y-90552143D01*
X92387345Y-90618576D01*
X92337921Y-90662468D01*
X92262086Y-90753196D01*
X92212519Y-90852960D01*
X92186100Y-90972969D01*
X92179710Y-91124434D01*
X92183217Y-91218435D01*
X92193945Y-91346760D01*
X92212690Y-91445668D01*
X92244511Y-91536457D01*
X92273730Y-91599435D01*
X92390874Y-91781252D01*
X92552658Y-91946033D01*
X92754754Y-92090274D01*
X92992837Y-92210472D01*
X93062446Y-92238241D01*
X93119136Y-92257255D01*
X93219109Y-92288144D01*
X93356670Y-92329297D01*
X93526124Y-92379103D01*
X93721777Y-92435950D01*
X93937935Y-92498226D01*
X94168903Y-92564320D01*
X94408986Y-92632622D01*
X94652490Y-92701518D01*
X94893721Y-92769398D01*
X95126984Y-92834650D01*
X95346585Y-92895663D01*
X95546829Y-92950826D01*
X95722021Y-92998526D01*
X95866467Y-93037152D01*
X95974473Y-93065094D01*
X96037400Y-93080115D01*
X96154659Y-93099792D01*
X96280826Y-93112778D01*
X96354900Y-93115818D01*
X96542349Y-93100238D01*
X96692540Y-93051585D01*
X96807024Y-92968209D01*
X96887353Y-92848459D01*
X96935078Y-92690685D01*
X96951752Y-92493235D01*
X96951800Y-92480852D01*
X96929751Y-92250991D01*
X96863299Y-92043159D01*
X96751982Y-91856851D01*
X96595341Y-91691560D01*
X96392915Y-91546779D01*
X96144243Y-91422004D01*
X95910400Y-91335829D01*
X95694500Y-91266508D01*
X95686882Y-91124654D01*
X95684630Y-91047541D01*
X95686743Y-90996022D01*
X95690941Y-90982800D01*
X95718553Y-90990176D01*
X95783429Y-91010031D01*
X95874583Y-91038953D01*
X95939859Y-91060067D01*
X96258775Y-91182857D01*
X96532459Y-91328759D01*
X96760909Y-91497769D01*
X96944121Y-91689886D01*
X97082095Y-91905107D01*
X97174827Y-92143429D01*
X97222316Y-92404850D01*
X97229110Y-92570300D01*
X97224368Y-92685647D01*
X97213152Y-92798050D01*
X97197813Y-92884430D01*
X97196605Y-92889056D01*
X97126037Y-93065971D01*
X97019479Y-93207070D01*
X96877059Y-93312213D01*
X96772255Y-93358767D01*
X96666832Y-93382860D01*
X96526975Y-93395759D01*
X96367809Y-93397414D01*
X96204462Y-93387778D01*
X96052061Y-93366801D01*
X96023892Y-93361170D01*
X95966684Y-93347282D01*
X95866411Y-93321046D01*
X95728850Y-93284079D01*
X95559779Y-93238003D01*
X95364974Y-93184437D01*
X95150213Y-93124999D01*
X94921274Y-93061310D01*
X94683932Y-92994989D01*
X94443966Y-92927656D01*
X94207152Y-92860930D01*
X93979268Y-92796430D01*
X93766091Y-92735776D01*
X93573397Y-92680587D01*
X93406964Y-92632484D01*
X93272569Y-92593085D01*
X93175990Y-92564010D01*
X93141800Y-92553239D01*
X92843460Y-92435977D01*
X92581978Y-92290672D01*
X92359536Y-92119187D01*
X92178315Y-91923382D01*
X92040496Y-91705121D01*
X91977963Y-91559787D01*
X91948321Y-91470368D01*
X91928909Y-91388952D01*
X91917611Y-91300101D01*
X91912309Y-91188377D01*
X91910959Y-91071166D01*
X91911181Y-90939976D01*
G36*
X91897809Y-93340275D02*
G01*
X91899659Y-93110515D01*
X91902782Y-92929199D01*
X91907211Y-92795159D01*
X91912979Y-92707224D01*
X91920118Y-92664224D01*
X91924052Y-92659200D01*
X91963443Y-92665029D01*
X92031343Y-92679722D01*
X92063752Y-92687616D01*
X92176599Y-92716031D01*
X92176600Y-93550732D01*
X92176600Y-94385433D01*
X92246450Y-94402905D01*
X92285206Y-94413360D01*
X92367417Y-94436100D01*
X92487650Y-94469603D01*
X92640470Y-94512348D01*
X92820446Y-94562815D01*
X93022143Y-94619482D01*
X93240128Y-94680828D01*
X93370400Y-94717536D01*
X94424500Y-95014695D01*
X94431197Y-94192548D01*
X94433829Y-93944061D01*
X94437343Y-93743799D01*
X94441850Y-93589191D01*
X94447458Y-93477667D01*
X94454279Y-93406658D01*
X94462421Y-93373593D01*
X94466350Y-93370400D01*
X94507457Y-93377260D01*
X94574035Y-93394290D01*
X94593003Y-93399821D01*
X94691200Y-93429242D01*
X94691200Y-95089658D01*
X95218250Y-95237838D01*
X95408776Y-95291412D01*
X95630890Y-95353880D01*
X95867283Y-95420374D01*
X96100643Y-95486024D01*
X96313658Y-95545961D01*
X96342200Y-95553993D01*
X96939100Y-95721968D01*
X96945797Y-94901784D01*
X96948747Y-94639351D01*
X96952901Y-94427550D01*
X96958266Y-94266229D01*
X96964848Y-94155234D01*
X96972654Y-94094412D01*
X96978999Y-94081600D01*
X97018161Y-94087425D01*
X97085906Y-94102110D01*
X97118352Y-94110016D01*
X97231200Y-94138431D01*
X97231200Y-95100616D01*
X97230845Y-95358461D01*
X97229700Y-95569340D01*
X97227637Y-95737082D01*
X97224532Y-95865516D01*
X97220260Y-95958472D01*
X97214696Y-96019779D01*
X97207714Y-96053266D01*
X97199748Y-96062800D01*
X97171529Y-96056054D01*
X97097619Y-96036408D01*
X96981221Y-96004754D01*
X96825538Y-95961980D01*
X96633772Y-95908977D01*
X96409126Y-95846637D01*
X96154803Y-95775847D01*
X95874003Y-95697500D01*
X95569931Y-95612484D01*
X95245789Y-95521691D01*
X94904779Y-95426011D01*
X94550103Y-95326333D01*
X94532748Y-95321451D01*
X91897200Y-94580102D01*
X91897200Y-93619651D01*
X91897809Y-93340275D01*
X91897809Y-93340275D01*
G37*
X91897809Y-93340275D02*
X91899659Y-93110515D01*
X91902782Y-92929199D01*
X91907211Y-92795159D01*
X91912979Y-92707224D01*
X91920118Y-92664224D01*
X91924052Y-92659200D01*
X91963443Y-92665029D01*
X92031343Y-92679722D01*
X92063752Y-92687616D01*
X92176599Y-92716031D01*
X92176600Y-93550732D01*
X92176600Y-94385433D01*
X92246450Y-94402905D01*
X92285206Y-94413360D01*
X92367417Y-94436100D01*
X92487650Y-94469603D01*
X92640470Y-94512348D01*
X92820446Y-94562815D01*
X93022143Y-94619482D01*
X93240128Y-94680828D01*
X93370400Y-94717536D01*
X94424500Y-95014695D01*
X94431197Y-94192548D01*
X94433829Y-93944061D01*
X94437343Y-93743799D01*
X94441850Y-93589191D01*
X94447458Y-93477667D01*
X94454279Y-93406658D01*
X94462421Y-93373593D01*
X94466350Y-93370400D01*
X94507457Y-93377260D01*
X94574035Y-93394290D01*
X94593003Y-93399821D01*
X94691200Y-93429242D01*
X94691200Y-95089658D01*
X95218250Y-95237838D01*
X95408776Y-95291412D01*
X95630890Y-95353880D01*
X95867283Y-95420374D01*
X96100643Y-95486024D01*
X96313658Y-95545961D01*
X96342200Y-95553993D01*
X96939100Y-95721968D01*
X96945797Y-94901784D01*
X96948747Y-94639351D01*
X96952901Y-94427550D01*
X96958266Y-94266229D01*
X96964848Y-94155234D01*
X96972654Y-94094412D01*
X96978999Y-94081600D01*
X97018161Y-94087425D01*
X97085906Y-94102110D01*
X97118352Y-94110016D01*
X97231200Y-94138431D01*
X97231200Y-95100616D01*
X97230845Y-95358461D01*
X97229700Y-95569340D01*
X97227637Y-95737082D01*
X97224532Y-95865516D01*
X97220260Y-95958472D01*
X97214696Y-96019779D01*
X97207714Y-96053266D01*
X97199748Y-96062800D01*
X97171529Y-96056054D01*
X97097619Y-96036408D01*
X96981221Y-96004754D01*
X96825538Y-95961980D01*
X96633772Y-95908977D01*
X96409126Y-95846637D01*
X96154803Y-95775847D01*
X95874003Y-95697500D01*
X95569931Y-95612484D01*
X95245789Y-95521691D01*
X94904779Y-95426011D01*
X94550103Y-95326333D01*
X94532748Y-95321451D01*
X91897200Y-94580102D01*
X91897200Y-93619651D01*
X91897809Y-93340275D01*
G36*
X91900365Y-96734597D02*
G01*
X91908522Y-96684848D01*
X91916250Y-96673265D01*
X91942826Y-96680132D01*
X92015026Y-96699882D01*
X92129579Y-96731600D01*
X92283220Y-96774370D01*
X92472679Y-96827277D01*
X92694689Y-96889406D01*
X92945981Y-96959842D01*
X93223289Y-97037670D01*
X93523344Y-97121975D01*
X93842877Y-97211842D01*
X94178622Y-97306354D01*
X94437200Y-97379201D01*
X96939100Y-98084274D01*
X96952454Y-96312908D01*
X97034677Y-96330790D01*
X97111909Y-96350419D01*
X97174050Y-96370208D01*
X97231200Y-96391743D01*
X97231200Y-97422783D01*
X97231094Y-97678851D01*
X97230645Y-97888625D01*
X97229656Y-98056610D01*
X97227931Y-98187311D01*
X97225272Y-98285235D01*
X97221483Y-98354888D01*
X97216366Y-98400773D01*
X97209724Y-98427398D01*
X97201362Y-98439268D01*
X97191081Y-98440887D01*
X97186750Y-98439790D01*
X97156682Y-98431125D01*
X97080971Y-98409633D01*
X96962879Y-98376232D01*
X96805669Y-98331842D01*
X96612602Y-98277382D01*
X96386939Y-98213772D01*
X96131944Y-98141930D01*
X95850877Y-98062776D01*
X95547002Y-97977229D01*
X95223578Y-97886208D01*
X94883870Y-97790633D01*
X94564200Y-97700721D01*
X94212536Y-97601813D01*
X93874197Y-97506631D01*
X93552445Y-97416094D01*
X93250541Y-97331123D01*
X92971748Y-97252634D01*
X92719328Y-97181547D01*
X92496542Y-97118780D01*
X92306651Y-97065254D01*
X92152919Y-97021885D01*
X92038607Y-96989593D01*
X91966976Y-96969297D01*
X91941650Y-96962031D01*
X91914746Y-96942608D01*
X91901119Y-96897566D01*
X91897205Y-96814741D01*
X91897200Y-96810389D01*
X91900365Y-96734597D01*
X91900365Y-96734597D01*
G37*
X91900365Y-96734597D02*
X91908522Y-96684848D01*
X91916250Y-96673265D01*
X91942826Y-96680132D01*
X92015026Y-96699882D01*
X92129579Y-96731600D01*
X92283220Y-96774370D01*
X92472679Y-96827277D01*
X92694689Y-96889406D01*
X92945981Y-96959842D01*
X93223289Y-97037670D01*
X93523344Y-97121975D01*
X93842877Y-97211842D01*
X94178622Y-97306354D01*
X94437200Y-97379201D01*
X96939100Y-98084274D01*
X96952454Y-96312908D01*
X97034677Y-96330790D01*
X97111909Y-96350419D01*
X97174050Y-96370208D01*
X97231200Y-96391743D01*
X97231200Y-97422783D01*
X97231094Y-97678851D01*
X97230645Y-97888625D01*
X97229656Y-98056610D01*
X97227931Y-98187311D01*
X97225272Y-98285235D01*
X97221483Y-98354888D01*
X97216366Y-98400773D01*
X97209724Y-98427398D01*
X97201362Y-98439268D01*
X97191081Y-98440887D01*
X97186750Y-98439790D01*
X97156682Y-98431125D01*
X97080971Y-98409633D01*
X96962879Y-98376232D01*
X96805669Y-98331842D01*
X96612602Y-98277382D01*
X96386939Y-98213772D01*
X96131944Y-98141930D01*
X95850877Y-98062776D01*
X95547002Y-97977229D01*
X95223578Y-97886208D01*
X94883870Y-97790633D01*
X94564200Y-97700721D01*
X94212536Y-97601813D01*
X93874197Y-97506631D01*
X93552445Y-97416094D01*
X93250541Y-97331123D01*
X92971748Y-97252634D01*
X92719328Y-97181547D01*
X92496542Y-97118780D01*
X92306651Y-97065254D01*
X92152919Y-97021885D01*
X92038607Y-96989593D01*
X91966976Y-96969297D01*
X91941650Y-96962031D01*
X91914746Y-96942608D01*
X91901119Y-96897566D01*
X91897205Y-96814741D01*
X91897200Y-96810389D01*
X91900365Y-96734597D01*
G36*
X91897684Y-98105890D02*
G01*
X91899063Y-97907176D01*
X91901229Y-97730809D01*
X91904071Y-97582306D01*
X91907482Y-97467189D01*
X91911351Y-97390974D01*
X91915569Y-97359183D01*
X91916250Y-97358586D01*
X91950136Y-97365556D01*
X92014072Y-97382760D01*
X92049600Y-97393125D01*
X92163900Y-97427279D01*
X92176600Y-98260399D01*
X92189300Y-99093520D01*
X93294200Y-99405993D01*
X93522131Y-99470359D01*
X93735028Y-99530296D01*
X93927915Y-99584417D01*
X94095812Y-99631334D01*
X94233743Y-99669657D01*
X94336729Y-99698000D01*
X94399794Y-99714974D01*
X94418150Y-99719434D01*
X94422740Y-99695267D01*
X94426932Y-99626255D01*
X94430590Y-99518351D01*
X94433574Y-99377510D01*
X94435748Y-99209684D01*
X94436975Y-99020828D01*
X94437200Y-98894417D01*
X94437200Y-98068433D01*
X94507050Y-98085336D01*
X94582416Y-98106251D01*
X94634050Y-98123291D01*
X94691200Y-98144343D01*
X94691200Y-99794449D01*
X94862650Y-99844978D01*
X94926660Y-99863488D01*
X95032814Y-99893762D01*
X95174331Y-99933885D01*
X95344431Y-99981941D01*
X95536334Y-100036015D01*
X95743259Y-100094191D01*
X95948500Y-100151771D01*
X96156789Y-100210172D01*
X96350784Y-100264617D01*
X96524777Y-100313500D01*
X96673060Y-100355215D01*
X96789924Y-100388156D01*
X96869661Y-100410718D01*
X96906562Y-100421293D01*
X96907350Y-100421530D01*
X96919544Y-100422591D01*
X96929286Y-100414232D01*
X96936849Y-100391440D01*
X96942507Y-100349205D01*
X96946532Y-100282517D01*
X96949200Y-100186365D01*
X96950783Y-100055738D01*
X96951556Y-99885625D01*
X96951792Y-99671016D01*
X96951800Y-99607812D01*
X96952362Y-99408626D01*
X96953956Y-99226707D01*
X96956446Y-99068009D01*
X96959694Y-98938487D01*
X96963563Y-98844096D01*
X96967916Y-98790792D01*
X96970850Y-98780986D01*
X97004735Y-98787957D01*
X97068670Y-98805165D01*
X97104200Y-98815534D01*
X97218500Y-98849696D01*
X97225153Y-99820256D01*
X97226742Y-100067924D01*
X97227652Y-100269439D01*
X97227699Y-100429447D01*
X97226698Y-100552593D01*
X97224462Y-100643523D01*
X97220809Y-100706880D01*
X97215552Y-100747312D01*
X97208507Y-100769462D01*
X97199488Y-100777977D01*
X97188311Y-100777500D01*
X97187053Y-100777133D01*
X97156898Y-100768511D01*
X97081122Y-100747085D01*
X96963014Y-100713779D01*
X96805861Y-100669517D01*
X96612953Y-100615225D01*
X96387577Y-100551828D01*
X96133022Y-100480249D01*
X95852577Y-100401415D01*
X95549530Y-100316251D01*
X95227169Y-100225680D01*
X94888782Y-100130627D01*
X94602300Y-100050171D01*
X94252311Y-99951860D01*
X93915024Y-99857063D01*
X93593790Y-99766724D01*
X93291963Y-99681789D01*
X93012897Y-99603205D01*
X92759946Y-99531915D01*
X92536461Y-99468866D01*
X92345798Y-99415003D01*
X92191309Y-99371272D01*
X92076347Y-99338617D01*
X92004267Y-99317985D01*
X91979750Y-99310777D01*
X91897200Y-99284661D01*
X91897200Y-98321431D01*
X91897684Y-98105890D01*
X91897684Y-98105890D01*
G37*
X91897684Y-98105890D02*
X91899063Y-97907176D01*
X91901229Y-97730809D01*
X91904071Y-97582306D01*
X91907482Y-97467189D01*
X91911351Y-97390974D01*
X91915569Y-97359183D01*
X91916250Y-97358586D01*
X91950136Y-97365556D01*
X92014072Y-97382760D01*
X92049600Y-97393125D01*
X92163900Y-97427279D01*
X92176600Y-98260399D01*
X92189300Y-99093520D01*
X93294200Y-99405993D01*
X93522131Y-99470359D01*
X93735028Y-99530296D01*
X93927915Y-99584417D01*
X94095812Y-99631334D01*
X94233743Y-99669657D01*
X94336729Y-99698000D01*
X94399794Y-99714974D01*
X94418150Y-99719434D01*
X94422740Y-99695267D01*
X94426932Y-99626255D01*
X94430590Y-99518351D01*
X94433574Y-99377510D01*
X94435748Y-99209684D01*
X94436975Y-99020828D01*
X94437200Y-98894417D01*
X94437200Y-98068433D01*
X94507050Y-98085336D01*
X94582416Y-98106251D01*
X94634050Y-98123291D01*
X94691200Y-98144343D01*
X94691200Y-99794449D01*
X94862650Y-99844978D01*
X94926660Y-99863488D01*
X95032814Y-99893762D01*
X95174331Y-99933885D01*
X95344431Y-99981941D01*
X95536334Y-100036015D01*
X95743259Y-100094191D01*
X95948500Y-100151771D01*
X96156789Y-100210172D01*
X96350784Y-100264617D01*
X96524777Y-100313500D01*
X96673060Y-100355215D01*
X96789924Y-100388156D01*
X96869661Y-100410718D01*
X96906562Y-100421293D01*
X96907350Y-100421530D01*
X96919544Y-100422591D01*
X96929286Y-100414232D01*
X96936849Y-100391440D01*
X96942507Y-100349205D01*
X96946532Y-100282517D01*
X96949200Y-100186365D01*
X96950783Y-100055738D01*
X96951556Y-99885625D01*
X96951792Y-99671016D01*
X96951800Y-99607812D01*
X96952362Y-99408626D01*
X96953956Y-99226707D01*
X96956446Y-99068009D01*
X96959694Y-98938487D01*
X96963563Y-98844096D01*
X96967916Y-98790792D01*
X96970850Y-98780986D01*
X97004735Y-98787957D01*
X97068670Y-98805165D01*
X97104200Y-98815534D01*
X97218500Y-98849696D01*
X97225153Y-99820256D01*
X97226742Y-100067924D01*
X97227652Y-100269439D01*
X97227699Y-100429447D01*
X97226698Y-100552593D01*
X97224462Y-100643523D01*
X97220809Y-100706880D01*
X97215552Y-100747312D01*
X97208507Y-100769462D01*
X97199488Y-100777977D01*
X97188311Y-100777500D01*
X97187053Y-100777133D01*
X97156898Y-100768511D01*
X97081122Y-100747085D01*
X96963014Y-100713779D01*
X96805861Y-100669517D01*
X96612953Y-100615225D01*
X96387577Y-100551828D01*
X96133022Y-100480249D01*
X95852577Y-100401415D01*
X95549530Y-100316251D01*
X95227169Y-100225680D01*
X94888782Y-100130627D01*
X94602300Y-100050171D01*
X94252311Y-99951860D01*
X93915024Y-99857063D01*
X93593790Y-99766724D01*
X93291963Y-99681789D01*
X93012897Y-99603205D01*
X92759946Y-99531915D01*
X92536461Y-99468866D01*
X92345798Y-99415003D01*
X92191309Y-99371272D01*
X92076347Y-99338617D01*
X92004267Y-99317985D01*
X91979750Y-99310777D01*
X91897200Y-99284661D01*
X91897200Y-98321431D01*
X91897684Y-98105890D01*
G36*
X91897733Y-101603828D02*
G01*
X91901622Y-101535063D01*
X91908827Y-101485923D01*
X91916250Y-101472499D01*
X91942773Y-101479161D01*
X92015023Y-101498693D01*
X92129822Y-101530212D01*
X92283996Y-101572831D01*
X92474368Y-101625667D01*
X92697761Y-101687834D01*
X92951000Y-101758447D01*
X93230908Y-101836622D01*
X93534311Y-101921474D01*
X93858030Y-102012117D01*
X94198891Y-102107667D01*
X94553718Y-102207240D01*
X94582954Y-102215449D01*
X97230608Y-102958900D01*
X97230904Y-103079550D01*
X97225823Y-103159666D01*
X97208870Y-103196257D01*
X97196204Y-103200200D01*
X97166254Y-103203227D01*
X97089595Y-103212007D01*
X96969938Y-103226093D01*
X96810994Y-103245038D01*
X96616474Y-103268395D01*
X96390090Y-103295714D01*
X96135552Y-103326550D01*
X95856572Y-103360454D01*
X95556860Y-103396978D01*
X95240128Y-103435675D01*
X94985108Y-103466900D01*
X94657852Y-103506983D01*
X94344829Y-103545271D01*
X94049740Y-103581317D01*
X93776286Y-103614670D01*
X93528167Y-103644879D01*
X93309086Y-103671496D01*
X93122742Y-103694071D01*
X92972838Y-103712154D01*
X92863073Y-103725295D01*
X92797149Y-103733044D01*
X92778553Y-103735056D01*
X92797930Y-103741979D01*
X92862852Y-103761675D01*
X92969957Y-103793181D01*
X93115883Y-103835533D01*
X93297266Y-103887769D01*
X93510745Y-103948926D01*
X93752957Y-104018041D01*
X94020540Y-104094150D01*
X94310131Y-104176292D01*
X94618368Y-104263501D01*
X94941888Y-104354817D01*
X94983300Y-104366490D01*
X97218500Y-104996469D01*
X97226181Y-105141869D01*
X97228859Y-105223429D01*
X97223752Y-105264950D01*
X97207807Y-105276970D01*
X97188081Y-105273330D01*
X97157783Y-105264673D01*
X97081866Y-105243209D01*
X96963620Y-105209865D01*
X96806335Y-105165566D01*
X96613303Y-105111237D01*
X96387811Y-105047803D01*
X96133152Y-104976191D01*
X95852614Y-104897324D01*
X95549489Y-104812130D01*
X95227065Y-104721533D01*
X94888634Y-104626459D01*
X94602300Y-104546035D01*
X94252281Y-104447704D01*
X93914940Y-104352880D01*
X93593634Y-104262508D01*
X93291718Y-104177536D01*
X93012547Y-104098909D01*
X92759477Y-104027574D01*
X92535863Y-103964476D01*
X92345062Y-103910563D01*
X92190428Y-103866779D01*
X92075317Y-103834073D01*
X92003086Y-103813389D01*
X91978456Y-103806142D01*
X91927470Y-103786600D01*
X91904225Y-103759688D01*
X91899797Y-103708579D01*
X91902256Y-103662433D01*
X91909900Y-103545260D01*
X94125949Y-103278434D01*
X94454631Y-103238624D01*
X94767884Y-103200226D01*
X95062175Y-103163701D01*
X95333969Y-103129506D01*
X95579731Y-103098103D01*
X95795926Y-103069952D01*
X95979020Y-103045511D01*
X96125478Y-103025242D01*
X96231766Y-103009602D01*
X96294349Y-102999054D01*
X96310349Y-102994272D01*
X96282782Y-102985514D01*
X96210613Y-102964257D01*
X96098087Y-102931700D01*
X95949449Y-102889041D01*
X95768944Y-102837476D01*
X95560817Y-102778206D01*
X95329313Y-102712427D01*
X95078678Y-102641337D01*
X94813156Y-102566135D01*
X94536993Y-102488019D01*
X94254433Y-102408186D01*
X93969721Y-102327835D01*
X93687104Y-102248164D01*
X93410825Y-102170370D01*
X93145130Y-102095653D01*
X92894264Y-102025209D01*
X92662472Y-101960237D01*
X92454000Y-101901935D01*
X92273091Y-101851500D01*
X92123992Y-101810132D01*
X92010947Y-101779028D01*
X91938202Y-101759385D01*
X91910001Y-101752403D01*
X91909927Y-101752400D01*
X91901489Y-101730043D01*
X91897557Y-101674670D01*
X91897733Y-101603828D01*
X91897733Y-101603828D01*
G37*
X91897733Y-101603828D02*
X91901622Y-101535063D01*
X91908827Y-101485923D01*
X91916250Y-101472499D01*
X91942773Y-101479161D01*
X92015023Y-101498693D01*
X92129822Y-101530212D01*
X92283996Y-101572831D01*
X92474368Y-101625667D01*
X92697761Y-101687834D01*
X92951000Y-101758447D01*
X93230908Y-101836622D01*
X93534311Y-101921474D01*
X93858030Y-102012117D01*
X94198891Y-102107667D01*
X94553718Y-102207240D01*
X94582954Y-102215449D01*
X97230608Y-102958900D01*
X97230904Y-103079550D01*
X97225823Y-103159666D01*
X97208870Y-103196257D01*
X97196204Y-103200200D01*
X97166254Y-103203227D01*
X97089595Y-103212007D01*
X96969938Y-103226093D01*
X96810994Y-103245038D01*
X96616474Y-103268395D01*
X96390090Y-103295714D01*
X96135552Y-103326550D01*
X95856572Y-103360454D01*
X95556860Y-103396978D01*
X95240128Y-103435675D01*
X94985108Y-103466900D01*
X94657852Y-103506983D01*
X94344829Y-103545271D01*
X94049740Y-103581317D01*
X93776286Y-103614670D01*
X93528167Y-103644879D01*
X93309086Y-103671496D01*
X93122742Y-103694071D01*
X92972838Y-103712154D01*
X92863073Y-103725295D01*
X92797149Y-103733044D01*
X92778553Y-103735056D01*
X92797930Y-103741979D01*
X92862852Y-103761675D01*
X92969957Y-103793181D01*
X93115883Y-103835533D01*
X93297266Y-103887769D01*
X93510745Y-103948926D01*
X93752957Y-104018041D01*
X94020540Y-104094150D01*
X94310131Y-104176292D01*
X94618368Y-104263501D01*
X94941888Y-104354817D01*
X94983300Y-104366490D01*
X97218500Y-104996469D01*
X97226181Y-105141869D01*
X97228859Y-105223429D01*
X97223752Y-105264950D01*
X97207807Y-105276970D01*
X97188081Y-105273330D01*
X97157783Y-105264673D01*
X97081866Y-105243209D01*
X96963620Y-105209865D01*
X96806335Y-105165566D01*
X96613303Y-105111237D01*
X96387811Y-105047803D01*
X96133152Y-104976191D01*
X95852614Y-104897324D01*
X95549489Y-104812130D01*
X95227065Y-104721533D01*
X94888634Y-104626459D01*
X94602300Y-104546035D01*
X94252281Y-104447704D01*
X93914940Y-104352880D01*
X93593634Y-104262508D01*
X93291718Y-104177536D01*
X93012547Y-104098909D01*
X92759477Y-104027574D01*
X92535863Y-103964476D01*
X92345062Y-103910563D01*
X92190428Y-103866779D01*
X92075317Y-103834073D01*
X92003086Y-103813389D01*
X91978456Y-103806142D01*
X91927470Y-103786600D01*
X91904225Y-103759688D01*
X91899797Y-103708579D01*
X91902256Y-103662433D01*
X91909900Y-103545260D01*
X94125949Y-103278434D01*
X94454631Y-103238624D01*
X94767884Y-103200226D01*
X95062175Y-103163701D01*
X95333969Y-103129506D01*
X95579731Y-103098103D01*
X95795926Y-103069952D01*
X95979020Y-103045511D01*
X96125478Y-103025242D01*
X96231766Y-103009602D01*
X96294349Y-102999054D01*
X96310349Y-102994272D01*
X96282782Y-102985514D01*
X96210613Y-102964257D01*
X96098087Y-102931700D01*
X95949449Y-102889041D01*
X95768944Y-102837476D01*
X95560817Y-102778206D01*
X95329313Y-102712427D01*
X95078678Y-102641337D01*
X94813156Y-102566135D01*
X94536993Y-102488019D01*
X94254433Y-102408186D01*
X93969721Y-102327835D01*
X93687104Y-102248164D01*
X93410825Y-102170370D01*
X93145130Y-102095653D01*
X92894264Y-102025209D01*
X92662472Y-101960237D01*
X92454000Y-101901935D01*
X92273091Y-101851500D01*
X92123992Y-101810132D01*
X92010947Y-101779028D01*
X91938202Y-101759385D01*
X91910001Y-101752403D01*
X91909927Y-101752400D01*
X91901489Y-101730043D01*
X91897557Y-101674670D01*
X91897733Y-101603828D01*
G36*
X91898436Y-104320332D02*
G01*
X91906268Y-104281907D01*
X91927385Y-104271830D01*
X91967049Y-104278593D01*
X92000612Y-104287493D01*
X92079775Y-104309253D01*
X92201243Y-104342951D01*
X92361721Y-104387663D01*
X92557916Y-104442467D01*
X92786531Y-104506441D01*
X93044273Y-104578662D01*
X93327846Y-104658208D01*
X93633956Y-104744155D01*
X93959309Y-104835582D01*
X94300609Y-104931566D01*
X94627700Y-105023621D01*
X97218500Y-105753019D01*
X97226177Y-105886310D01*
X97226968Y-105960842D01*
X97220776Y-106009529D01*
X97213477Y-106020292D01*
X97186773Y-106013653D01*
X97114346Y-105994140D01*
X96999374Y-105962635D01*
X96845036Y-105920025D01*
X96654508Y-105867195D01*
X96430970Y-105805029D01*
X96177598Y-105734411D01*
X95897572Y-105656228D01*
X95594068Y-105571364D01*
X95270265Y-105480704D01*
X94929342Y-105385132D01*
X94574475Y-105285534D01*
X94545304Y-105277342D01*
X91897509Y-104533700D01*
X91897354Y-104398332D01*
X91898436Y-104320332D01*
X91898436Y-104320332D01*
G37*
X91898436Y-104320332D02*
X91906268Y-104281907D01*
X91927385Y-104271830D01*
X91967049Y-104278593D01*
X92000612Y-104287493D01*
X92079775Y-104309253D01*
X92201243Y-104342951D01*
X92361721Y-104387663D01*
X92557916Y-104442467D01*
X92786531Y-104506441D01*
X93044273Y-104578662D01*
X93327846Y-104658208D01*
X93633956Y-104744155D01*
X93959309Y-104835582D01*
X94300609Y-104931566D01*
X94627700Y-105023621D01*
X97218500Y-105753019D01*
X97226177Y-105886310D01*
X97226968Y-105960842D01*
X97220776Y-106009529D01*
X97213477Y-106020292D01*
X97186773Y-106013653D01*
X97114346Y-105994140D01*
X96999374Y-105962635D01*
X96845036Y-105920025D01*
X96654508Y-105867195D01*
X96430970Y-105805029D01*
X96177598Y-105734411D01*
X95897572Y-105656228D01*
X95594068Y-105571364D01*
X95270265Y-105480704D01*
X94929342Y-105385132D01*
X94574475Y-105285534D01*
X94545304Y-105277342D01*
X91897509Y-104533700D01*
X91897354Y-104398332D01*
X91898436Y-104320332D01*
G36*
X91967050Y-106742623D02*
G01*
X92000910Y-106751823D01*
X92080260Y-106773833D01*
X92201691Y-106807698D01*
X92361792Y-106852461D01*
X92557154Y-106907167D01*
X92784368Y-106970859D01*
X93040023Y-107042582D01*
X93320712Y-107121380D01*
X93623023Y-107206296D01*
X93943548Y-107296375D01*
X94278877Y-107390660D01*
X94468072Y-107443877D01*
X94808959Y-107539700D01*
X95136154Y-107631533D01*
X95446329Y-107718449D01*
X95736154Y-107799521D01*
X96002300Y-107873823D01*
X96241437Y-107940428D01*
X96450235Y-107998409D01*
X96625366Y-108046840D01*
X96763499Y-108084795D01*
X96861305Y-108111346D01*
X96915456Y-108125567D01*
X96925522Y-108127800D01*
X96933657Y-108103045D01*
X96940280Y-108028627D01*
X96945399Y-107904321D01*
X96949020Y-107729901D01*
X96951150Y-107505140D01*
X96951800Y-107248747D01*
X96951800Y-106369693D01*
X97018263Y-106386375D01*
X97096208Y-106404576D01*
X97157963Y-106417703D01*
X97231200Y-106432350D01*
X97231200Y-108504886D01*
X97059750Y-108456861D01*
X97011552Y-108443328D01*
X96918008Y-108417032D01*
X96782668Y-108378970D01*
X96609087Y-108330144D01*
X96400815Y-108271553D01*
X96161406Y-108204195D01*
X95894412Y-108129072D01*
X95603386Y-108047181D01*
X95291880Y-107959523D01*
X94963447Y-107867097D01*
X94621639Y-107770903D01*
X94403526Y-107709518D01*
X94059220Y-107612646D01*
X93728843Y-107519749D01*
X93415662Y-107431743D01*
X93122941Y-107349544D01*
X92853947Y-107274067D01*
X92611944Y-107206226D01*
X92400200Y-107146936D01*
X92221978Y-107097114D01*
X92080545Y-107057673D01*
X91979166Y-107029529D01*
X91921107Y-107013597D01*
X91907976Y-107010200D01*
X91902122Y-106987197D01*
X91898209Y-106927756D01*
X91897200Y-106867747D01*
X91897200Y-106725293D01*
X91967050Y-106742623D01*
X91967050Y-106742623D01*
G37*
X91967050Y-106742623D02*
X92000910Y-106751823D01*
X92080260Y-106773833D01*
X92201691Y-106807698D01*
X92361792Y-106852461D01*
X92557154Y-106907167D01*
X92784368Y-106970859D01*
X93040023Y-107042582D01*
X93320712Y-107121380D01*
X93623023Y-107206296D01*
X93943548Y-107296375D01*
X94278877Y-107390660D01*
X94468072Y-107443877D01*
X94808959Y-107539700D01*
X95136154Y-107631533D01*
X95446329Y-107718449D01*
X95736154Y-107799521D01*
X96002300Y-107873823D01*
X96241437Y-107940428D01*
X96450235Y-107998409D01*
X96625366Y-108046840D01*
X96763499Y-108084795D01*
X96861305Y-108111346D01*
X96915456Y-108125567D01*
X96925522Y-108127800D01*
X96933657Y-108103045D01*
X96940280Y-108028627D01*
X96945399Y-107904321D01*
X96949020Y-107729901D01*
X96951150Y-107505140D01*
X96951800Y-107248747D01*
X96951800Y-106369693D01*
X97018263Y-106386375D01*
X97096208Y-106404576D01*
X97157963Y-106417703D01*
X97231200Y-106432350D01*
X97231200Y-108504886D01*
X97059750Y-108456861D01*
X97011552Y-108443328D01*
X96918008Y-108417032D01*
X96782668Y-108378970D01*
X96609087Y-108330144D01*
X96400815Y-108271553D01*
X96161406Y-108204195D01*
X95894412Y-108129072D01*
X95603386Y-108047181D01*
X95291880Y-107959523D01*
X94963447Y-107867097D01*
X94621639Y-107770903D01*
X94403526Y-107709518D01*
X94059220Y-107612646D01*
X93728843Y-107519749D01*
X93415662Y-107431743D01*
X93122941Y-107349544D01*
X92853947Y-107274067D01*
X92611944Y-107206226D01*
X92400200Y-107146936D01*
X92221978Y-107097114D01*
X92080545Y-107057673D01*
X91979166Y-107029529D01*
X91921107Y-107013597D01*
X91907976Y-107010200D01*
X91902122Y-106987197D01*
X91898209Y-106927756D01*
X91897200Y-106867747D01*
X91897200Y-106725293D01*
X91967050Y-106742623D01*
G36*
X91903811Y-108488357D02*
G01*
X91940965Y-108289383D01*
X92010960Y-108116953D01*
X92112190Y-107975768D01*
X92243047Y-107870526D01*
X92314677Y-107834672D01*
X92433677Y-107800979D01*
X92585872Y-107781529D01*
X92755442Y-107777221D01*
X92926566Y-107788953D01*
X92982284Y-107796755D01*
X93051189Y-107810981D01*
X93162828Y-107837925D01*
X93311649Y-107876015D01*
X93492101Y-107923683D01*
X93698633Y-107979360D01*
X93925694Y-108041476D01*
X94167733Y-108108461D01*
X94419198Y-108178748D01*
X94674540Y-108250765D01*
X94928206Y-108322944D01*
X95174646Y-108393716D01*
X95408308Y-108461510D01*
X95623641Y-108524759D01*
X95815095Y-108581892D01*
X95977118Y-108631340D01*
X96104159Y-108671534D01*
X96190667Y-108700905D01*
X96218330Y-108711608D01*
X96483578Y-108846729D01*
X96713016Y-109009861D01*
X96903752Y-109197901D01*
X97052894Y-109407750D01*
X97157551Y-109636306D01*
X97192089Y-109755764D01*
X97215895Y-109900098D01*
X97226956Y-110064435D01*
X97225145Y-110229322D01*
X97210332Y-110375304D01*
X97196605Y-110440456D01*
X97125968Y-110617281D01*
X97019432Y-110758555D01*
X96877872Y-110863306D01*
X96775412Y-110908602D01*
X96683071Y-110929354D01*
X96556166Y-110942166D01*
X96410344Y-110946803D01*
X96302917Y-110944083D01*
X96302917Y-110666577D01*
X96453366Y-110662632D01*
X96582232Y-110644457D01*
X96659700Y-110619793D01*
X96773471Y-110552946D01*
X96855705Y-110468263D01*
X96909616Y-110358686D01*
X96938415Y-110217159D01*
X96945316Y-110036627D01*
X96944335Y-109994700D01*
X96938254Y-109866751D01*
X96927262Y-109772559D01*
X96907970Y-109695104D01*
X96876987Y-109617369D01*
X96863404Y-109588300D01*
X96784262Y-109449621D01*
X96684408Y-109325576D01*
X96559388Y-109213490D01*
X96404749Y-109110686D01*
X96216038Y-109014490D01*
X95988801Y-108922225D01*
X95718585Y-108831217D01*
X95491300Y-108763943D01*
X95063293Y-108643110D01*
X94681839Y-108535787D01*
X94344691Y-108441362D01*
X94049601Y-108359224D01*
X93794325Y-108288762D01*
X93576616Y-108229365D01*
X93394227Y-108180423D01*
X93244913Y-108141323D01*
X93126426Y-108111456D01*
X93036521Y-108090210D01*
X92972952Y-108076973D01*
X92953752Y-108073685D01*
X92744871Y-108058317D01*
X92565480Y-108081016D01*
X92417389Y-108141172D01*
X92302406Y-108238177D01*
X92252527Y-108309460D01*
X92224137Y-108363984D01*
X92205732Y-108417162D01*
X92195198Y-108482015D01*
X92190425Y-108571562D01*
X92189300Y-108698825D01*
X92189300Y-108699300D01*
X92190572Y-108828566D01*
X92195951Y-108921662D01*
X92207784Y-108993189D01*
X92228415Y-109057748D01*
X92257575Y-109124381D01*
X92307357Y-109220800D01*
X92362800Y-109313885D01*
X92396331Y-109362466D01*
X92482071Y-109452242D01*
X92603042Y-109548579D01*
X92746059Y-109642650D01*
X92897938Y-109725632D01*
X93017753Y-109778409D01*
X93074222Y-109797645D01*
X93173981Y-109828866D01*
X93311374Y-109870457D01*
X93480745Y-109920799D01*
X93676441Y-109978275D01*
X93892805Y-110041268D01*
X94124183Y-110108159D01*
X94364919Y-110177333D01*
X94609358Y-110247171D01*
X94851844Y-110316055D01*
X95086724Y-110382369D01*
X95308341Y-110444494D01*
X95511040Y-110500814D01*
X95689166Y-110549710D01*
X95837065Y-110589566D01*
X95949079Y-110618764D01*
X95997911Y-110630777D01*
X96146044Y-110656043D01*
X96302917Y-110666577D01*
X96302917Y-110944083D01*
X96261253Y-110943028D01*
X96124543Y-110930603D01*
X96057700Y-110919467D01*
X96007626Y-110907313D01*
X95914301Y-110882849D01*
X95783338Y-110847642D01*
X95620352Y-110803263D01*
X95430959Y-110751278D01*
X95220773Y-110693256D01*
X94995410Y-110630766D01*
X94760484Y-110565376D01*
X94521611Y-110498655D01*
X94284405Y-110432170D01*
X94054482Y-110367490D01*
X93837456Y-110306184D01*
X93638942Y-110249820D01*
X93464555Y-110199966D01*
X93319911Y-110158191D01*
X93210624Y-110126063D01*
X93142309Y-110105151D01*
X93141800Y-110104987D01*
X92856000Y-109992517D01*
X92601468Y-109850749D01*
X92381526Y-109682870D01*
X92199494Y-109492064D01*
X92058696Y-109281518D01*
X91962454Y-109054419D01*
X91934453Y-108947135D01*
X91901105Y-108709175D01*
X91903811Y-108488357D01*
X91903811Y-108488357D01*
G37*
X91903811Y-108488357D02*
X91940965Y-108289383D01*
X92010960Y-108116953D01*
X92112190Y-107975768D01*
X92243047Y-107870526D01*
X92314677Y-107834672D01*
X92433677Y-107800979D01*
X92585872Y-107781529D01*
X92755442Y-107777221D01*
X92926566Y-107788953D01*
X92982284Y-107796755D01*
X93051189Y-107810981D01*
X93162828Y-107837925D01*
X93311649Y-107876015D01*
X93492101Y-107923683D01*
X93698633Y-107979360D01*
X93925694Y-108041476D01*
X94167733Y-108108461D01*
X94419198Y-108178748D01*
X94674540Y-108250765D01*
X94928206Y-108322944D01*
X95174646Y-108393716D01*
X95408308Y-108461510D01*
X95623641Y-108524759D01*
X95815095Y-108581892D01*
X95977118Y-108631340D01*
X96104159Y-108671534D01*
X96190667Y-108700905D01*
X96218330Y-108711608D01*
X96483578Y-108846729D01*
X96713016Y-109009861D01*
X96903752Y-109197901D01*
X97052894Y-109407750D01*
X97157551Y-109636306D01*
X97192089Y-109755764D01*
X97215895Y-109900098D01*
X97226956Y-110064435D01*
X97225145Y-110229322D01*
X97210332Y-110375304D01*
X97196605Y-110440456D01*
X97125968Y-110617281D01*
X97019432Y-110758555D01*
X96877872Y-110863306D01*
X96775412Y-110908602D01*
X96683071Y-110929354D01*
X96556166Y-110942166D01*
X96410344Y-110946803D01*
X96302917Y-110944083D01*
X96302917Y-110666577D01*
X96453366Y-110662632D01*
X96582232Y-110644457D01*
X96659700Y-110619793D01*
X96773471Y-110552946D01*
X96855705Y-110468263D01*
X96909616Y-110358686D01*
X96938415Y-110217159D01*
X96945316Y-110036627D01*
X96944335Y-109994700D01*
X96938254Y-109866751D01*
X96927262Y-109772559D01*
X96907970Y-109695104D01*
X96876987Y-109617369D01*
X96863404Y-109588300D01*
X96784262Y-109449621D01*
X96684408Y-109325576D01*
X96559388Y-109213490D01*
X96404749Y-109110686D01*
X96216038Y-109014490D01*
X95988801Y-108922225D01*
X95718585Y-108831217D01*
X95491300Y-108763943D01*
X95063293Y-108643110D01*
X94681839Y-108535787D01*
X94344691Y-108441362D01*
X94049601Y-108359224D01*
X93794325Y-108288762D01*
X93576616Y-108229365D01*
X93394227Y-108180423D01*
X93244913Y-108141323D01*
X93126426Y-108111456D01*
X93036521Y-108090210D01*
X92972952Y-108076973D01*
X92953752Y-108073685D01*
X92744871Y-108058317D01*
X92565480Y-108081016D01*
X92417389Y-108141172D01*
X92302406Y-108238177D01*
X92252527Y-108309460D01*
X92224137Y-108363984D01*
X92205732Y-108417162D01*
X92195198Y-108482015D01*
X92190425Y-108571562D01*
X92189300Y-108698825D01*
X92189300Y-108699300D01*
X92190572Y-108828566D01*
X92195951Y-108921662D01*
X92207784Y-108993189D01*
X92228415Y-109057748D01*
X92257575Y-109124381D01*
X92307357Y-109220800D01*
X92362800Y-109313885D01*
X92396331Y-109362466D01*
X92482071Y-109452242D01*
X92603042Y-109548579D01*
X92746059Y-109642650D01*
X92897938Y-109725632D01*
X93017753Y-109778409D01*
X93074222Y-109797645D01*
X93173981Y-109828866D01*
X93311374Y-109870457D01*
X93480745Y-109920799D01*
X93676441Y-109978275D01*
X93892805Y-110041268D01*
X94124183Y-110108159D01*
X94364919Y-110177333D01*
X94609358Y-110247171D01*
X94851844Y-110316055D01*
X95086724Y-110382369D01*
X95308341Y-110444494D01*
X95511040Y-110500814D01*
X95689166Y-110549710D01*
X95837065Y-110589566D01*
X95949079Y-110618764D01*
X95997911Y-110630777D01*
X96146044Y-110656043D01*
X96302917Y-110666577D01*
X96302917Y-110944083D01*
X96261253Y-110943028D01*
X96124543Y-110930603D01*
X96057700Y-110919467D01*
X96007626Y-110907313D01*
X95914301Y-110882849D01*
X95783338Y-110847642D01*
X95620352Y-110803263D01*
X95430959Y-110751278D01*
X95220773Y-110693256D01*
X94995410Y-110630766D01*
X94760484Y-110565376D01*
X94521611Y-110498655D01*
X94284405Y-110432170D01*
X94054482Y-110367490D01*
X93837456Y-110306184D01*
X93638942Y-110249820D01*
X93464555Y-110199966D01*
X93319911Y-110158191D01*
X93210624Y-110126063D01*
X93142309Y-110105151D01*
X93141800Y-110104987D01*
X92856000Y-109992517D01*
X92601468Y-109850749D01*
X92381526Y-109682870D01*
X92199494Y-109492064D01*
X92058696Y-109281518D01*
X91962454Y-109054419D01*
X91934453Y-108947135D01*
X91901105Y-108709175D01*
X91903811Y-108488357D01*
G36*
X91967049Y-111365312D02*
G01*
X92000572Y-111374347D01*
X92079631Y-111396472D01*
X92200940Y-111430748D01*
X92361211Y-111476238D01*
X92557156Y-111532004D01*
X92785487Y-111597107D01*
X93042917Y-111670609D01*
X93326159Y-111751573D01*
X93631924Y-111839061D01*
X93956925Y-111932134D01*
X94297874Y-112029854D01*
X94627700Y-112124459D01*
X97218500Y-112867857D01*
X97225127Y-113941329D01*
X97226646Y-114203031D01*
X97227564Y-114418359D01*
X97227721Y-114591736D01*
X97226958Y-114727588D01*
X97225116Y-114830338D01*
X97222035Y-114904409D01*
X97217558Y-114954226D01*
X97211523Y-114984212D01*
X97203774Y-114998793D01*
X97194150Y-115002391D01*
X97187027Y-115001002D01*
X97156957Y-114992255D01*
X97081305Y-114970459D01*
X96963327Y-114936547D01*
X96806279Y-114891453D01*
X96613416Y-114836110D01*
X96387993Y-114771452D01*
X96133267Y-114698414D01*
X95852493Y-114617928D01*
X95548927Y-114530928D01*
X95225824Y-114438348D01*
X94886441Y-114341121D01*
X94564200Y-114248822D01*
X94212773Y-114148166D01*
X93874650Y-114051309D01*
X93553088Y-113959186D01*
X93251339Y-113872728D01*
X92972661Y-113792869D01*
X92720308Y-113720542D01*
X92497535Y-113656681D01*
X92307597Y-113602217D01*
X92153750Y-113558084D01*
X92039249Y-113525215D01*
X91967349Y-113504544D01*
X91941650Y-113497109D01*
X91930761Y-113491085D01*
X91921805Y-113477131D01*
X91914592Y-113450698D01*
X91908935Y-113407239D01*
X91904649Y-113342208D01*
X91901546Y-113251056D01*
X91899438Y-113129236D01*
X91898138Y-112972201D01*
X91897461Y-112775404D01*
X91897217Y-112534297D01*
X91897200Y-112416671D01*
X91897200Y-111349564D01*
X91967049Y-111365312D01*
X91967049Y-111365312D01*
G37*
X91967049Y-111365312D02*
X92000572Y-111374347D01*
X92079631Y-111396472D01*
X92200940Y-111430748D01*
X92361211Y-111476238D01*
X92557156Y-111532004D01*
X92785487Y-111597107D01*
X93042917Y-111670609D01*
X93326159Y-111751573D01*
X93631924Y-111839061D01*
X93956925Y-111932134D01*
X94297874Y-112029854D01*
X94627700Y-112124459D01*
X97218500Y-112867857D01*
X97225127Y-113941329D01*
X97226646Y-114203031D01*
X97227564Y-114418359D01*
X97227721Y-114591736D01*
X97226958Y-114727588D01*
X97225116Y-114830338D01*
X97222035Y-114904409D01*
X97217558Y-114954226D01*
X97211523Y-114984212D01*
X97203774Y-114998793D01*
X97194150Y-115002391D01*
X97187027Y-115001002D01*
X97156957Y-114992255D01*
X97081305Y-114970459D01*
X96963327Y-114936547D01*
X96806279Y-114891453D01*
X96613416Y-114836110D01*
X96387993Y-114771452D01*
X96133267Y-114698414D01*
X95852493Y-114617928D01*
X95548927Y-114530928D01*
X95225824Y-114438348D01*
X94886441Y-114341121D01*
X94564200Y-114248822D01*
X94212773Y-114148166D01*
X93874650Y-114051309D01*
X93553088Y-113959186D01*
X93251339Y-113872728D01*
X92972661Y-113792869D01*
X92720308Y-113720542D01*
X92497535Y-113656681D01*
X92307597Y-113602217D01*
X92153750Y-113558084D01*
X92039249Y-113525215D01*
X91967349Y-113504544D01*
X91941650Y-113497109D01*
X91930761Y-113491085D01*
X91921805Y-113477131D01*
X91914592Y-113450698D01*
X91908935Y-113407239D01*
X91904649Y-113342208D01*
X91901546Y-113251056D01*
X91899438Y-113129236D01*
X91898138Y-112972201D01*
X91897461Y-112775404D01*
X91897217Y-112534297D01*
X91897200Y-112416671D01*
X91897200Y-111349564D01*
X91967049Y-111365312D01*
G36*
X91897311Y-114631721D02*
G01*
X91897784Y-114427161D01*
X91898828Y-114264219D01*
X91900651Y-114138302D01*
X91903461Y-114044821D01*
X91907467Y-113979183D01*
X91912878Y-113936798D01*
X91919902Y-113913073D01*
X91928748Y-113903419D01*
X91939623Y-113903243D01*
X91941650Y-113903814D01*
X91971681Y-113912538D01*
X92047295Y-113934311D01*
X92165236Y-113968201D01*
X92322249Y-114013273D01*
X92515079Y-114068594D01*
X92740471Y-114133231D01*
X92995169Y-114206251D01*
X93275918Y-114286719D01*
X93579463Y-114373703D01*
X93902548Y-114466270D01*
X94241919Y-114563485D01*
X94564200Y-114655790D01*
X94915627Y-114756442D01*
X95253751Y-114853296D01*
X95575315Y-114945420D01*
X95877064Y-115031879D01*
X96155742Y-115111742D01*
X96408096Y-115184075D01*
X96630869Y-115247945D01*
X96820806Y-115302418D01*
X96974653Y-115346561D01*
X97089153Y-115379442D01*
X97161052Y-115400128D01*
X97186750Y-115407577D01*
X97198013Y-115413827D01*
X97207204Y-115428241D01*
X97214531Y-115455543D01*
X97220204Y-115500455D01*
X97224431Y-115567702D01*
X97227421Y-115662005D01*
X97229384Y-115788089D01*
X97230529Y-115950676D01*
X97231064Y-116154490D01*
X97231199Y-116404254D01*
X97231200Y-116411624D01*
X97231088Y-116662148D01*
X97230614Y-116866466D01*
X97229569Y-117029170D01*
X97227743Y-117154854D01*
X97224928Y-117248111D01*
X97220915Y-117313533D01*
X97215493Y-117355715D01*
X97208455Y-117379248D01*
X97199591Y-117388727D01*
X97188693Y-117388744D01*
X97186750Y-117388176D01*
X97153788Y-117378462D01*
X97076517Y-117356073D01*
X96958779Y-117322110D01*
X96804415Y-117277676D01*
X96617269Y-117223870D01*
X96401181Y-117161793D01*
X96159996Y-117092547D01*
X95897553Y-117017232D01*
X95617697Y-116936950D01*
X95324269Y-116852800D01*
X95021110Y-116765886D01*
X94712064Y-116677306D01*
X94400973Y-116588162D01*
X94091678Y-116499556D01*
X93788023Y-116412588D01*
X93493848Y-116328358D01*
X93212997Y-116247969D01*
X92949311Y-116172520D01*
X92706633Y-116103113D01*
X92488804Y-116040849D01*
X92299668Y-115986829D01*
X92143066Y-115942154D01*
X92022840Y-115907924D01*
X91942833Y-115885241D01*
X91906886Y-115875205D01*
X91905241Y-115874800D01*
X91903467Y-115850307D01*
X91901829Y-115780455D01*
X91900370Y-115670683D01*
X91899135Y-115526434D01*
X91898168Y-115353147D01*
X91897513Y-115156262D01*
X91897214Y-114941222D01*
X91897200Y-114882489D01*
X91897311Y-114631721D01*
X91897311Y-114631721D01*
G37*
X91897311Y-114631721D02*
X91897784Y-114427161D01*
X91898828Y-114264219D01*
X91900651Y-114138302D01*
X91903461Y-114044821D01*
X91907467Y-113979183D01*
X91912878Y-113936798D01*
X91919902Y-113913073D01*
X91928748Y-113903419D01*
X91939623Y-113903243D01*
X91941650Y-113903814D01*
X91971681Y-113912538D01*
X92047295Y-113934311D01*
X92165236Y-113968201D01*
X92322249Y-114013273D01*
X92515079Y-114068594D01*
X92740471Y-114133231D01*
X92995169Y-114206251D01*
X93275918Y-114286719D01*
X93579463Y-114373703D01*
X93902548Y-114466270D01*
X94241919Y-114563485D01*
X94564200Y-114655790D01*
X94915627Y-114756442D01*
X95253751Y-114853296D01*
X95575315Y-114945420D01*
X95877064Y-115031879D01*
X96155742Y-115111742D01*
X96408096Y-115184075D01*
X96630869Y-115247945D01*
X96820806Y-115302418D01*
X96974653Y-115346561D01*
X97089153Y-115379442D01*
X97161052Y-115400128D01*
X97186750Y-115407577D01*
X97198013Y-115413827D01*
X97207204Y-115428241D01*
X97214531Y-115455543D01*
X97220204Y-115500455D01*
X97224431Y-115567702D01*
X97227421Y-115662005D01*
X97229384Y-115788089D01*
X97230529Y-115950676D01*
X97231064Y-116154490D01*
X97231199Y-116404254D01*
X97231200Y-116411624D01*
X97231088Y-116662148D01*
X97230614Y-116866466D01*
X97229569Y-117029170D01*
X97227743Y-117154854D01*
X97224928Y-117248111D01*
X97220915Y-117313533D01*
X97215493Y-117355715D01*
X97208455Y-117379248D01*
X97199591Y-117388727D01*
X97188693Y-117388744D01*
X97186750Y-117388176D01*
X97153788Y-117378462D01*
X97076517Y-117356073D01*
X96958779Y-117322110D01*
X96804415Y-117277676D01*
X96617269Y-117223870D01*
X96401181Y-117161793D01*
X96159996Y-117092547D01*
X95897553Y-117017232D01*
X95617697Y-116936950D01*
X95324269Y-116852800D01*
X95021110Y-116765886D01*
X94712064Y-116677306D01*
X94400973Y-116588162D01*
X94091678Y-116499556D01*
X93788023Y-116412588D01*
X93493848Y-116328358D01*
X93212997Y-116247969D01*
X92949311Y-116172520D01*
X92706633Y-116103113D01*
X92488804Y-116040849D01*
X92299668Y-115986829D01*
X92143066Y-115942154D01*
X92022840Y-115907924D01*
X91942833Y-115885241D01*
X91906886Y-115875205D01*
X91905241Y-115874800D01*
X91903467Y-115850307D01*
X91901829Y-115780455D01*
X91900370Y-115670683D01*
X91899135Y-115526434D01*
X91898168Y-115353147D01*
X91897513Y-115156262D01*
X91897214Y-114941222D01*
X91897200Y-114882489D01*
X91897311Y-114631721D01*
G36*
X91901084Y-116464786D02*
G01*
X91903480Y-116384293D01*
X91907967Y-116332163D01*
X91914878Y-116302788D01*
X91924547Y-116290560D01*
X91937307Y-116289870D01*
X91941217Y-116290902D01*
X91971455Y-116299632D01*
X92047190Y-116321376D01*
X92165080Y-116355177D01*
X92321779Y-116400078D01*
X92513945Y-116455122D01*
X92738234Y-116519350D01*
X92991303Y-116591806D01*
X93269808Y-116671532D01*
X93570406Y-116757571D01*
X93889753Y-116848965D01*
X94224506Y-116944757D01*
X94437200Y-117005615D01*
X94782996Y-117104567D01*
X95117664Y-117200356D01*
X95437627Y-117291958D01*
X95739311Y-117378349D01*
X96019142Y-117458504D01*
X96273544Y-117531398D01*
X96498943Y-117596009D01*
X96691764Y-117651310D01*
X96848432Y-117696278D01*
X96965373Y-117729889D01*
X97039011Y-117751117D01*
X97059750Y-117757140D01*
X97231200Y-117807352D01*
X97231200Y-118453976D01*
X97230651Y-118661237D01*
X97228854Y-118822321D01*
X97225582Y-118941841D01*
X97220608Y-119024410D01*
X97213705Y-119074639D01*
X97204645Y-119097143D01*
X97199450Y-119099451D01*
X97171225Y-119092415D01*
X97097384Y-119072229D01*
X96981126Y-119039804D01*
X96825652Y-118996048D01*
X96634160Y-118941872D01*
X96409850Y-118878184D01*
X96155922Y-118805896D01*
X95875575Y-118725917D01*
X95572009Y-118639156D01*
X95248423Y-118546523D01*
X94908017Y-118448929D01*
X94553991Y-118347282D01*
X94538800Y-118342917D01*
X91909900Y-117587534D01*
X91903117Y-116932518D01*
X91901236Y-116733290D01*
X91900447Y-116579249D01*
X91901084Y-116464786D01*
X91901084Y-116464786D01*
G37*
X91901084Y-116464786D02*
X91903480Y-116384293D01*
X91907967Y-116332163D01*
X91914878Y-116302788D01*
X91924547Y-116290560D01*
X91937307Y-116289870D01*
X91941217Y-116290902D01*
X91971455Y-116299632D01*
X92047190Y-116321376D01*
X92165080Y-116355177D01*
X92321779Y-116400078D01*
X92513945Y-116455122D01*
X92738234Y-116519350D01*
X92991303Y-116591806D01*
X93269808Y-116671532D01*
X93570406Y-116757571D01*
X93889753Y-116848965D01*
X94224506Y-116944757D01*
X94437200Y-117005615D01*
X94782996Y-117104567D01*
X95117664Y-117200356D01*
X95437627Y-117291958D01*
X95739311Y-117378349D01*
X96019142Y-117458504D01*
X96273544Y-117531398D01*
X96498943Y-117596009D01*
X96691764Y-117651310D01*
X96848432Y-117696278D01*
X96965373Y-117729889D01*
X97039011Y-117751117D01*
X97059750Y-117757140D01*
X97231200Y-117807352D01*
X97231200Y-118453976D01*
X97230651Y-118661237D01*
X97228854Y-118822321D01*
X97225582Y-118941841D01*
X97220608Y-119024410D01*
X97213705Y-119074639D01*
X97204645Y-119097143D01*
X97199450Y-119099451D01*
X97171225Y-119092415D01*
X97097384Y-119072229D01*
X96981126Y-119039804D01*
X96825652Y-118996048D01*
X96634160Y-118941872D01*
X96409850Y-118878184D01*
X96155922Y-118805896D01*
X95875575Y-118725917D01*
X95572009Y-118639156D01*
X95248423Y-118546523D01*
X94908017Y-118448929D01*
X94553991Y-118347282D01*
X94538800Y-118342917D01*
X91909900Y-117587534D01*
X91903117Y-116932518D01*
X91901236Y-116733290D01*
X91900447Y-116579249D01*
X91901084Y-116464786D01*
G36*
X91897507Y-118177190D02*
G01*
X91899499Y-118092040D01*
X91904780Y-118041319D01*
X91914956Y-118016842D01*
X91931632Y-118010424D01*
X91954349Y-118013480D01*
X91986091Y-118021846D01*
X92063408Y-118043297D01*
X92183045Y-118076907D01*
X92341748Y-118121751D01*
X92536263Y-118176903D01*
X92763334Y-118241436D01*
X93019708Y-118314426D01*
X93302130Y-118394945D01*
X93607346Y-118482070D01*
X93932100Y-118574873D01*
X94273138Y-118672429D01*
X94621197Y-118772091D01*
X97230895Y-119519700D01*
X97231047Y-119829636D01*
X97231200Y-120139571D01*
X97122984Y-120107003D01*
X97084046Y-120095629D01*
X96999649Y-120071232D01*
X96873169Y-120034782D01*
X96707982Y-119987249D01*
X96507464Y-119929603D01*
X96274990Y-119862812D01*
X96013937Y-119787847D01*
X95727680Y-119705678D01*
X95419596Y-119617274D01*
X95093061Y-119523605D01*
X94751450Y-119425640D01*
X94455984Y-119340932D01*
X91897200Y-118607429D01*
X91897200Y-118304954D01*
X91897507Y-118177190D01*
X91897507Y-118177190D01*
G37*
X91897507Y-118177190D02*
X91899499Y-118092040D01*
X91904780Y-118041319D01*
X91914956Y-118016842D01*
X91931632Y-118010424D01*
X91954349Y-118013480D01*
X91986091Y-118021846D01*
X92063408Y-118043297D01*
X92183045Y-118076907D01*
X92341748Y-118121751D01*
X92536263Y-118176903D01*
X92763334Y-118241436D01*
X93019708Y-118314426D01*
X93302130Y-118394945D01*
X93607346Y-118482070D01*
X93932100Y-118574873D01*
X94273138Y-118672429D01*
X94621197Y-118772091D01*
X97230895Y-119519700D01*
X97231047Y-119829636D01*
X97231200Y-120139571D01*
X97122984Y-120107003D01*
X97084046Y-120095629D01*
X96999649Y-120071232D01*
X96873169Y-120034782D01*
X96707982Y-119987249D01*
X96507464Y-119929603D01*
X96274990Y-119862812D01*
X96013937Y-119787847D01*
X95727680Y-119705678D01*
X95419596Y-119617274D01*
X95093061Y-119523605D01*
X94751450Y-119425640D01*
X94455984Y-119340932D01*
X91897200Y-118607429D01*
X91897200Y-118304954D01*
X91897507Y-118177190D01*
G36*
X98755200Y-85242400D02*
G01*
X98755200Y-85674200D01*
X100101400Y-85674200D01*
X100101400Y-86029800D01*
X98755200Y-86029800D01*
X98755200Y-86436200D01*
X98450400Y-86436200D01*
X98450400Y-85242400D01*
X98755200Y-85242400D01*
X98755200Y-85242400D01*
G37*
X98755200Y-85242400D02*
X98755200Y-85674200D01*
X100101400Y-85674200D01*
X100101400Y-86029800D01*
X98755200Y-86029800D01*
X98755200Y-86436200D01*
X98450400Y-86436200D01*
X98450400Y-85242400D01*
X98755200Y-85242400D01*
G36*
X98450541Y-89655650D02*
G01*
X98453020Y-89469771D01*
X98461403Y-89325491D01*
X98477355Y-89213788D01*
X98502542Y-89125637D01*
X98538629Y-89052017D01*
X98570595Y-89005186D01*
X98667756Y-88915661D01*
X98794705Y-88854611D01*
X98936970Y-88825580D01*
X99080078Y-88832110D01*
X99169951Y-88858447D01*
X99239702Y-88901164D01*
X99312516Y-88965785D01*
X99371102Y-89035298D01*
X99395173Y-89080021D01*
X99420638Y-89080302D01*
X99485607Y-89056717D01*
X99585776Y-89011113D01*
X99716839Y-88945339D01*
X99753202Y-88926341D01*
X100101400Y-88743165D01*
X100101400Y-89157488D01*
X99466400Y-89461242D01*
X99466400Y-89662000D01*
X100101400Y-89662000D01*
X100101400Y-90017600D01*
X98755200Y-90017600D01*
X98755200Y-89662000D01*
X99161600Y-89662000D01*
X99160792Y-89477850D01*
X99155497Y-89367916D01*
X99141919Y-89286126D01*
X99126972Y-89250249D01*
X99053574Y-89190608D01*
X98963896Y-89171152D01*
X98883526Y-89191415D01*
X98814778Y-89252786D01*
X98772445Y-89353434D01*
X98755597Y-89495783D01*
X98755200Y-89526091D01*
X98755200Y-89662000D01*
X98755200Y-90017600D01*
X98450400Y-90017600D01*
X98450541Y-89655650D01*
X98450541Y-89655650D01*
G37*
X98450541Y-89655650D02*
X98453020Y-89469771D01*
X98461403Y-89325491D01*
X98477355Y-89213788D01*
X98502542Y-89125637D01*
X98538629Y-89052017D01*
X98570595Y-89005186D01*
X98667756Y-88915661D01*
X98794705Y-88854611D01*
X98936970Y-88825580D01*
X99080078Y-88832110D01*
X99169951Y-88858447D01*
X99239702Y-88901164D01*
X99312516Y-88965785D01*
X99371102Y-89035298D01*
X99395173Y-89080021D01*
X99420638Y-89080302D01*
X99485607Y-89056717D01*
X99585776Y-89011113D01*
X99716839Y-88945339D01*
X99753202Y-88926341D01*
X100101400Y-88743165D01*
X100101400Y-89157488D01*
X99466400Y-89461242D01*
X99466400Y-89662000D01*
X100101400Y-89662000D01*
X100101400Y-90017600D01*
X98755200Y-90017600D01*
X98755200Y-89662000D01*
X99161600Y-89662000D01*
X99160792Y-89477850D01*
X99155497Y-89367916D01*
X99141919Y-89286126D01*
X99126972Y-89250249D01*
X99053574Y-89190608D01*
X98963896Y-89171152D01*
X98883526Y-89191415D01*
X98814778Y-89252786D01*
X98772445Y-89353434D01*
X98755597Y-89495783D01*
X98755200Y-89526091D01*
X98755200Y-89662000D01*
X98755200Y-90017600D01*
X98450400Y-90017600D01*
X98450541Y-89655650D01*
G36*
X98450541Y-97021650D02*
G01*
X98452570Y-96842921D01*
X98459597Y-96705251D01*
X98473274Y-96599008D01*
X98495252Y-96514563D01*
X98527181Y-96442284D01*
X98558820Y-96390013D01*
X98646927Y-96299712D01*
X98767582Y-96233504D01*
X98906705Y-96195321D01*
X99050216Y-96189096D01*
X99178996Y-96216816D01*
X99306815Y-96290513D01*
X99401168Y-96402385D01*
X99462065Y-96552455D01*
X99489521Y-96740749D01*
X99491242Y-96805750D01*
X99491800Y-97028000D01*
X100101400Y-97028000D01*
X100101400Y-97383600D01*
X98755200Y-97383600D01*
X98755200Y-97028000D01*
X99187000Y-97028000D01*
X99187000Y-96853626D01*
X99183014Y-96746434D01*
X99168887Y-96674173D01*
X99141364Y-96621443D01*
X99136601Y-96615180D01*
X99058316Y-96550055D01*
X98967399Y-96532496D01*
X98884734Y-96556790D01*
X98815675Y-96617633D01*
X98773062Y-96716667D01*
X98755735Y-96856898D01*
X98755200Y-96892091D01*
X98755200Y-97028000D01*
X98755200Y-97383600D01*
X98450400Y-97383600D01*
X98450541Y-97021650D01*
X98450541Y-97021650D01*
G37*
X98450541Y-97021650D02*
X98452570Y-96842921D01*
X98459597Y-96705251D01*
X98473274Y-96599008D01*
X98495252Y-96514563D01*
X98527181Y-96442284D01*
X98558820Y-96390013D01*
X98646927Y-96299712D01*
X98767582Y-96233504D01*
X98906705Y-96195321D01*
X99050216Y-96189096D01*
X99178996Y-96216816D01*
X99306815Y-96290513D01*
X99401168Y-96402385D01*
X99462065Y-96552455D01*
X99489521Y-96740749D01*
X99491242Y-96805750D01*
X99491800Y-97028000D01*
X100101400Y-97028000D01*
X100101400Y-97383600D01*
X98755200Y-97383600D01*
X98755200Y-97028000D01*
X99187000Y-97028000D01*
X99187000Y-96853626D01*
X99183014Y-96746434D01*
X99168887Y-96674173D01*
X99141364Y-96621443D01*
X99136601Y-96615180D01*
X99058316Y-96550055D01*
X98967399Y-96532496D01*
X98884734Y-96556790D01*
X98815675Y-96617633D01*
X98773062Y-96716667D01*
X98755735Y-96856898D01*
X98755200Y-96892091D01*
X98755200Y-97028000D01*
X98755200Y-97383600D01*
X98450400Y-97383600D01*
X98450541Y-97021650D01*
G36*
X98451005Y-104324150D02*
G01*
X98452860Y-104186774D01*
X98457503Y-104059334D01*
X98464268Y-103954703D01*
X98472492Y-103885753D01*
X98474025Y-103878347D01*
X98531459Y-103733982D01*
X98625374Y-103619019D01*
X98747870Y-103538140D01*
X98891050Y-103496022D01*
X99047014Y-103497347D01*
X99099211Y-103507930D01*
X99183980Y-103541591D01*
X99267948Y-103594757D01*
X99338252Y-103656801D01*
X99382023Y-103717097D01*
X99390200Y-103748273D01*
X99405792Y-103756089D01*
X99454563Y-103741815D01*
X99539508Y-103704209D01*
X99663620Y-103642032D01*
X99729215Y-103607727D01*
X99848374Y-103545388D01*
X99951456Y-103492502D01*
X100030236Y-103453207D01*
X100076489Y-103431642D01*
X100084815Y-103428800D01*
X100092580Y-103452174D01*
X100098399Y-103514210D01*
X100101263Y-103602776D01*
X100101400Y-103628320D01*
X100101400Y-103827839D01*
X99784185Y-103977570D01*
X99466971Y-104127300D01*
X99466685Y-104235250D01*
X99466400Y-104343200D01*
X100101400Y-104343200D01*
X100101400Y-104673400D01*
X99161600Y-104673400D01*
X99161600Y-104343200D01*
X99161600Y-104151546D01*
X99159701Y-104049583D01*
X99151591Y-103983601D01*
X99133649Y-103938847D01*
X99102253Y-103900569D01*
X99099254Y-103897546D01*
X99018405Y-103845314D01*
X98932611Y-103843268D01*
X98845074Y-103891452D01*
X98841999Y-103894065D01*
X98806156Y-103930434D01*
X98783902Y-103973115D01*
X98770677Y-104036417D01*
X98761920Y-104134648D01*
X98761042Y-104148065D01*
X98748519Y-104343200D01*
X99161600Y-104343200D01*
X99161600Y-104673400D01*
X98450400Y-104673400D01*
X98451005Y-104324150D01*
X98451005Y-104324150D01*
G37*
X98451005Y-104324150D02*
X98452860Y-104186774D01*
X98457503Y-104059334D01*
X98464268Y-103954703D01*
X98472492Y-103885753D01*
X98474025Y-103878347D01*
X98531459Y-103733982D01*
X98625374Y-103619019D01*
X98747870Y-103538140D01*
X98891050Y-103496022D01*
X99047014Y-103497347D01*
X99099211Y-103507930D01*
X99183980Y-103541591D01*
X99267948Y-103594757D01*
X99338252Y-103656801D01*
X99382023Y-103717097D01*
X99390200Y-103748273D01*
X99405792Y-103756089D01*
X99454563Y-103741815D01*
X99539508Y-103704209D01*
X99663620Y-103642032D01*
X99729215Y-103607727D01*
X99848374Y-103545388D01*
X99951456Y-103492502D01*
X100030236Y-103453207D01*
X100076489Y-103431642D01*
X100084815Y-103428800D01*
X100092580Y-103452174D01*
X100098399Y-103514210D01*
X100101263Y-103602776D01*
X100101400Y-103628320D01*
X100101400Y-103827839D01*
X99784185Y-103977570D01*
X99466971Y-104127300D01*
X99466685Y-104235250D01*
X99466400Y-104343200D01*
X100101400Y-104343200D01*
X100101400Y-104673400D01*
X99161600Y-104673400D01*
X99161600Y-104343200D01*
X99161600Y-104151546D01*
X99159701Y-104049583D01*
X99151591Y-103983601D01*
X99133649Y-103938847D01*
X99102253Y-103900569D01*
X99099254Y-103897546D01*
X99018405Y-103845314D01*
X98932611Y-103843268D01*
X98845074Y-103891452D01*
X98841999Y-103894065D01*
X98806156Y-103930434D01*
X98783902Y-103973115D01*
X98770677Y-104036417D01*
X98761920Y-104134648D01*
X98761042Y-104148065D01*
X98748519Y-104343200D01*
X99161600Y-104343200D01*
X99161600Y-104673400D01*
X98450400Y-104673400D01*
X98451005Y-104324150D01*
G36*
X98755200Y-110794800D02*
G01*
X98755200Y-111226600D01*
X100101400Y-111226600D01*
X100101400Y-111556800D01*
X98755200Y-111556800D01*
X98755200Y-111988600D01*
X98450400Y-111988600D01*
X98450400Y-110794800D01*
X98755200Y-110794800D01*
X98755200Y-110794800D01*
G37*
X98755200Y-110794800D02*
X98755200Y-111226600D01*
X100101400Y-111226600D01*
X100101400Y-111556800D01*
X98755200Y-111556800D01*
X98755200Y-111988600D01*
X98450400Y-111988600D01*
X98450400Y-110794800D01*
X98755200Y-110794800D01*
G36*
X98881475Y-119065754D02*
G01*
X99312550Y-118856532D01*
X98450400Y-118444300D01*
X98450400Y-118110000D01*
X100101400Y-118110000D01*
X100101400Y-118440200D01*
X99199700Y-118443152D01*
X99485450Y-118587206D01*
X99771200Y-118731261D01*
X99771200Y-118987340D01*
X99485450Y-119131395D01*
X99199700Y-119275449D01*
X99650550Y-119276925D01*
X100101400Y-119278400D01*
X100101400Y-119608600D01*
X98450400Y-119608600D01*
X98450400Y-119274977D01*
X98881475Y-119065754D01*
X98881475Y-119065754D01*
G37*
X98881475Y-119065754D02*
X99312550Y-118856532D01*
X98450400Y-118444300D01*
X98450400Y-118110000D01*
X100101400Y-118110000D01*
X100101400Y-118440200D01*
X99199700Y-118443152D01*
X99485450Y-118587206D01*
X99771200Y-118731261D01*
X99771200Y-118987340D01*
X99485450Y-119131395D01*
X99199700Y-119275449D01*
X99650550Y-119276925D01*
X100101400Y-119278400D01*
X100101400Y-119608600D01*
X98450400Y-119608600D01*
X98450400Y-119274977D01*
X98881475Y-119065754D01*
G36*
X98462792Y-82086447D02*
G01*
X98475561Y-82026128D01*
X98509205Y-81941474D01*
X98552408Y-81860855D01*
X98596795Y-81797514D01*
X98633994Y-81764693D01*
X98642095Y-81762774D01*
X98673587Y-81779567D01*
X98725509Y-81822799D01*
X98762714Y-81858890D01*
X98856738Y-81955180D01*
X98805969Y-82054761D01*
X98763830Y-82170858D01*
X98752154Y-82284419D01*
X98768416Y-82385883D01*
X98810090Y-82465688D01*
X98874651Y-82514273D01*
X98930052Y-82524600D01*
X98992913Y-82513143D01*
X99041105Y-82474376D01*
X99078654Y-82401710D01*
X99109584Y-82288552D01*
X99125627Y-82204397D01*
X99161651Y-82040171D01*
X99207998Y-81918581D01*
X99269420Y-81831770D01*
X99350669Y-81771881D01*
X99400864Y-81749328D01*
X99556246Y-81713523D01*
X99707973Y-81721707D01*
X99846946Y-81770636D01*
X99964062Y-81857066D01*
X100050219Y-81977755D01*
X100051986Y-81981364D01*
X100089400Y-82093189D01*
X100112923Y-82234270D01*
X100120932Y-82384565D01*
X100111804Y-82524034D01*
X100100635Y-82582145D01*
X100066691Y-82685261D01*
X100020072Y-82786630D01*
X99969731Y-82868592D01*
X99936953Y-82905058D01*
X99909482Y-82919557D01*
X99877839Y-82911111D01*
X99830920Y-82874230D01*
X99783895Y-82829396D01*
X99671997Y-82719576D01*
X99720086Y-82652041D01*
X99770637Y-82552233D01*
X99804353Y-82429716D01*
X99815557Y-82309375D01*
X99810523Y-82255492D01*
X99778901Y-82169917D01*
X99725051Y-82096995D01*
X99661435Y-82050896D01*
X99622768Y-82042000D01*
X99556067Y-82056252D01*
X99505088Y-82102806D01*
X99466267Y-82187357D01*
X99436039Y-82315604D01*
X99430298Y-82349564D01*
X99394307Y-82523586D01*
X99346782Y-82654177D01*
X99283072Y-82748238D01*
X99198525Y-82812671D01*
X99090372Y-82853879D01*
X98929890Y-82872880D01*
X98780027Y-82844901D01*
X98647991Y-82772582D01*
X98540994Y-82658566D01*
X98535661Y-82650659D01*
X98498765Y-82586558D01*
X98475774Y-82519786D01*
X98462353Y-82433300D01*
X98455426Y-82335344D01*
X98453769Y-82200269D01*
X98462792Y-82086447D01*
X98462792Y-82086447D01*
G37*
X98462792Y-82086447D02*
X98475561Y-82026128D01*
X98509205Y-81941474D01*
X98552408Y-81860855D01*
X98596795Y-81797514D01*
X98633994Y-81764693D01*
X98642095Y-81762774D01*
X98673587Y-81779567D01*
X98725509Y-81822799D01*
X98762714Y-81858890D01*
X98856738Y-81955180D01*
X98805969Y-82054761D01*
X98763830Y-82170858D01*
X98752154Y-82284419D01*
X98768416Y-82385883D01*
X98810090Y-82465688D01*
X98874651Y-82514273D01*
X98930052Y-82524600D01*
X98992913Y-82513143D01*
X99041105Y-82474376D01*
X99078654Y-82401710D01*
X99109584Y-82288552D01*
X99125627Y-82204397D01*
X99161651Y-82040171D01*
X99207998Y-81918581D01*
X99269420Y-81831770D01*
X99350669Y-81771881D01*
X99400864Y-81749328D01*
X99556246Y-81713523D01*
X99707973Y-81721707D01*
X99846946Y-81770636D01*
X99964062Y-81857066D01*
X100050219Y-81977755D01*
X100051986Y-81981364D01*
X100089400Y-82093189D01*
X100112923Y-82234270D01*
X100120932Y-82384565D01*
X100111804Y-82524034D01*
X100100635Y-82582145D01*
X100066691Y-82685261D01*
X100020072Y-82786630D01*
X99969731Y-82868592D01*
X99936953Y-82905058D01*
X99909482Y-82919557D01*
X99877839Y-82911111D01*
X99830920Y-82874230D01*
X99783895Y-82829396D01*
X99671997Y-82719576D01*
X99720086Y-82652041D01*
X99770637Y-82552233D01*
X99804353Y-82429716D01*
X99815557Y-82309375D01*
X99810523Y-82255492D01*
X99778901Y-82169917D01*
X99725051Y-82096995D01*
X99661435Y-82050896D01*
X99622768Y-82042000D01*
X99556067Y-82056252D01*
X99505088Y-82102806D01*
X99466267Y-82187357D01*
X99436039Y-82315604D01*
X99430298Y-82349564D01*
X99394307Y-82523586D01*
X99346782Y-82654177D01*
X99283072Y-82748238D01*
X99198525Y-82812671D01*
X99090372Y-82853879D01*
X98929890Y-82872880D01*
X98780027Y-82844901D01*
X98647991Y-82772582D01*
X98540994Y-82658566D01*
X98535661Y-82650659D01*
X98498765Y-82586558D01*
X98475774Y-82519786D01*
X98462353Y-82433300D01*
X98455426Y-82335344D01*
X98453769Y-82200269D01*
X98462792Y-82086447D01*
G36*
X98471018Y-92969332D02*
G01*
X98529651Y-92816476D01*
X98627600Y-92695626D01*
X98765051Y-92606474D01*
X98790852Y-92595076D01*
X98876229Y-92571501D01*
X98998361Y-92553375D01*
X99143422Y-92541411D01*
X99297588Y-92536322D01*
X99447034Y-92538820D01*
X99577937Y-92549618D01*
X99603094Y-92553213D01*
X99772304Y-92596214D01*
X99904459Y-92668502D01*
X100006886Y-92774645D01*
X100040023Y-92825632D01*
X100091049Y-92950325D01*
X100118151Y-93097625D01*
X100119332Y-93246398D01*
X100092594Y-93375510D01*
X100092115Y-93376802D01*
X100010286Y-93529994D01*
X99893713Y-93648664D01*
X99803640Y-93703832D01*
X99751922Y-93727043D01*
X99700868Y-93743311D01*
X99640126Y-93753869D01*
X99559346Y-93759947D01*
X99448176Y-93762776D01*
X99407830Y-93762997D01*
X99407830Y-93418707D01*
X99541837Y-93410900D01*
X99639912Y-93391857D01*
X99709231Y-93359581D01*
X99756967Y-93312075D01*
X99783732Y-93263401D01*
X99810825Y-93196862D01*
X99817961Y-93151310D01*
X99805269Y-93101574D01*
X99784814Y-93051171D01*
X99748039Y-92987872D01*
X99693720Y-92942415D01*
X99614298Y-92912312D01*
X99502216Y-92895073D01*
X99349916Y-92888212D01*
X99288600Y-92887800D01*
X99121995Y-92892016D01*
X98997668Y-92904398D01*
X98922803Y-92923217D01*
X98825048Y-92986659D01*
X98768848Y-93072201D01*
X98756417Y-93170323D01*
X98789966Y-93271505D01*
X98829300Y-93325550D01*
X98903400Y-93408500D01*
X99230718Y-93417273D01*
X99407830Y-93418707D01*
X99407830Y-93762997D01*
X99301300Y-93763582D01*
X99120495Y-93761806D01*
X98981057Y-93754542D01*
X98873665Y-93739720D01*
X98789001Y-93715272D01*
X98717745Y-93679128D01*
X98650579Y-93629220D01*
X98634734Y-93615580D01*
X98538317Y-93506636D01*
X98479091Y-93377691D01*
X98453321Y-93219349D01*
X98451515Y-93154500D01*
X98471018Y-92969332D01*
X98471018Y-92969332D01*
G37*
X98471018Y-92969332D02*
X98529651Y-92816476D01*
X98627600Y-92695626D01*
X98765051Y-92606474D01*
X98790852Y-92595076D01*
X98876229Y-92571501D01*
X98998361Y-92553375D01*
X99143422Y-92541411D01*
X99297588Y-92536322D01*
X99447034Y-92538820D01*
X99577937Y-92549618D01*
X99603094Y-92553213D01*
X99772304Y-92596214D01*
X99904459Y-92668502D01*
X100006886Y-92774645D01*
X100040023Y-92825632D01*
X100091049Y-92950325D01*
X100118151Y-93097625D01*
X100119332Y-93246398D01*
X100092594Y-93375510D01*
X100092115Y-93376802D01*
X100010286Y-93529994D01*
X99893713Y-93648664D01*
X99803640Y-93703832D01*
X99751922Y-93727043D01*
X99700868Y-93743311D01*
X99640126Y-93753869D01*
X99559346Y-93759947D01*
X99448176Y-93762776D01*
X99407830Y-93762997D01*
X99407830Y-93418707D01*
X99541837Y-93410900D01*
X99639912Y-93391857D01*
X99709231Y-93359581D01*
X99756967Y-93312075D01*
X99783732Y-93263401D01*
X99810825Y-93196862D01*
X99817961Y-93151310D01*
X99805269Y-93101574D01*
X99784814Y-93051171D01*
X99748039Y-92987872D01*
X99693720Y-92942415D01*
X99614298Y-92912312D01*
X99502216Y-92895073D01*
X99349916Y-92888212D01*
X99288600Y-92887800D01*
X99121995Y-92892016D01*
X98997668Y-92904398D01*
X98922803Y-92923217D01*
X98825048Y-92986659D01*
X98768848Y-93072201D01*
X98756417Y-93170323D01*
X98789966Y-93271505D01*
X98829300Y-93325550D01*
X98903400Y-93408500D01*
X99230718Y-93417273D01*
X99407830Y-93418707D01*
X99407830Y-93762997D01*
X99301300Y-93763582D01*
X99120495Y-93761806D01*
X98981057Y-93754542D01*
X98873665Y-93739720D01*
X98789001Y-93715272D01*
X98717745Y-93679128D01*
X98650579Y-93629220D01*
X98634734Y-93615580D01*
X98538317Y-93506636D01*
X98479091Y-93377691D01*
X98453321Y-93219349D01*
X98451515Y-93154500D01*
X98471018Y-92969332D01*
G36*
X98463836Y-100281466D02*
G01*
X98499750Y-100135673D01*
X98555216Y-100018297D01*
X98613024Y-99950940D01*
X98641804Y-99934176D01*
X98672198Y-99940550D01*
X98716376Y-99975567D01*
X98758883Y-100016932D01*
X98861035Y-100119083D01*
X98808117Y-100217815D01*
X98766167Y-100330766D01*
X98752743Y-100449162D01*
X98767510Y-100557599D01*
X98810129Y-100640674D01*
X98817545Y-100648655D01*
X98888302Y-100700503D01*
X98957579Y-100706168D01*
X99007881Y-100686306D01*
X99039172Y-100664218D01*
X99063065Y-100630130D01*
X99083265Y-100574147D01*
X99103475Y-100486373D01*
X99124026Y-100376017D01*
X99162885Y-100206398D01*
X99214254Y-100080224D01*
X99283382Y-99990661D01*
X99375518Y-99930874D01*
X99493920Y-99894438D01*
X99658603Y-99883328D01*
X99806467Y-99919061D01*
X99933026Y-99999510D01*
X100033794Y-100122547D01*
X100054844Y-100160520D01*
X100089626Y-100262199D01*
X100111642Y-100395221D01*
X100119799Y-100541488D01*
X100113003Y-100682903D01*
X100093002Y-100791758D01*
X100059884Y-100878592D01*
X100013306Y-100964469D01*
X99961901Y-101036662D01*
X99914303Y-101082439D01*
X99889362Y-101092000D01*
X99855140Y-101075001D01*
X99800979Y-101031304D01*
X99760333Y-100992279D01*
X99662958Y-100892557D01*
X99714616Y-100826884D01*
X99774910Y-100716092D01*
X99806301Y-100584262D01*
X99807476Y-100448809D01*
X99777121Y-100327146D01*
X99755421Y-100285550D01*
X99701867Y-100243010D01*
X99625996Y-100227597D01*
X99549345Y-100240802D01*
X99506314Y-100268315D01*
X99474818Y-100301553D01*
X99466365Y-100312765D01*
X99459665Y-100373826D01*
X99442666Y-100466496D01*
X99419098Y-100574729D01*
X99392694Y-100682479D01*
X99367186Y-100773700D01*
X99346307Y-100832346D01*
X99344797Y-100835448D01*
X99269755Y-100930954D01*
X99163546Y-100997082D01*
X99037309Y-101032580D01*
X98902181Y-101036197D01*
X98769299Y-101006679D01*
X98649801Y-100942776D01*
X98618647Y-100917094D01*
X98534172Y-100817547D01*
X98480676Y-100696366D01*
X98454834Y-100544167D01*
X98451205Y-100444300D01*
X98463836Y-100281466D01*
X98463836Y-100281466D01*
G37*
X98463836Y-100281466D02*
X98499750Y-100135673D01*
X98555216Y-100018297D01*
X98613024Y-99950940D01*
X98641804Y-99934176D01*
X98672198Y-99940550D01*
X98716376Y-99975567D01*
X98758883Y-100016932D01*
X98861035Y-100119083D01*
X98808117Y-100217815D01*
X98766167Y-100330766D01*
X98752743Y-100449162D01*
X98767510Y-100557599D01*
X98810129Y-100640674D01*
X98817545Y-100648655D01*
X98888302Y-100700503D01*
X98957579Y-100706168D01*
X99007881Y-100686306D01*
X99039172Y-100664218D01*
X99063065Y-100630130D01*
X99083265Y-100574147D01*
X99103475Y-100486373D01*
X99124026Y-100376017D01*
X99162885Y-100206398D01*
X99214254Y-100080224D01*
X99283382Y-99990661D01*
X99375518Y-99930874D01*
X99493920Y-99894438D01*
X99658603Y-99883328D01*
X99806467Y-99919061D01*
X99933026Y-99999510D01*
X100033794Y-100122547D01*
X100054844Y-100160520D01*
X100089626Y-100262199D01*
X100111642Y-100395221D01*
X100119799Y-100541488D01*
X100113003Y-100682903D01*
X100093002Y-100791758D01*
X100059884Y-100878592D01*
X100013306Y-100964469D01*
X99961901Y-101036662D01*
X99914303Y-101082439D01*
X99889362Y-101092000D01*
X99855140Y-101075001D01*
X99800979Y-101031304D01*
X99760333Y-100992279D01*
X99662958Y-100892557D01*
X99714616Y-100826884D01*
X99774910Y-100716092D01*
X99806301Y-100584262D01*
X99807476Y-100448809D01*
X99777121Y-100327146D01*
X99755421Y-100285550D01*
X99701867Y-100243010D01*
X99625996Y-100227597D01*
X99549345Y-100240802D01*
X99506314Y-100268315D01*
X99474818Y-100301553D01*
X99466365Y-100312765D01*
X99459665Y-100373826D01*
X99442666Y-100466496D01*
X99419098Y-100574729D01*
X99392694Y-100682479D01*
X99367186Y-100773700D01*
X99346307Y-100832346D01*
X99344797Y-100835448D01*
X99269755Y-100930954D01*
X99163546Y-100997082D01*
X99037309Y-101032580D01*
X98902181Y-101036197D01*
X98769299Y-101006679D01*
X98649801Y-100942776D01*
X98618647Y-100917094D01*
X98534172Y-100817547D01*
X98480676Y-100696366D01*
X98454834Y-100544167D01*
X98451205Y-100444300D01*
X98463836Y-100281466D01*
G36*
X98467073Y-107654179D02*
G01*
X98523184Y-107509513D01*
X98614603Y-107384357D01*
X98716149Y-107302693D01*
X98766116Y-107272937D01*
X98810752Y-107251857D01*
X98860327Y-107237699D01*
X98925111Y-107228707D01*
X99015375Y-107223128D01*
X99141388Y-107219205D01*
X99214980Y-107217455D01*
X99413864Y-107215752D01*
X99570514Y-107222265D01*
X99693118Y-107239021D01*
X99789864Y-107268046D01*
X99868939Y-107311368D01*
X99938530Y-107371014D01*
X99969376Y-107404221D01*
X100065423Y-107550312D01*
X100116050Y-107716728D01*
X100120472Y-107899544D01*
X100095404Y-108036131D01*
X100048109Y-108138099D01*
X99966996Y-108241253D01*
X99866585Y-108331159D01*
X99761398Y-108393385D01*
X99722237Y-108407028D01*
X99640022Y-108419992D01*
X99513892Y-108427770D01*
X99350496Y-108430075D01*
X99333881Y-108429860D01*
X99333881Y-108087689D01*
X99463899Y-108085571D01*
X99554178Y-108080271D01*
X99615753Y-108070136D01*
X99659663Y-108053515D01*
X99689481Y-108034440D01*
X99773510Y-107947712D01*
X99810709Y-107851602D01*
X99800463Y-107753392D01*
X99742156Y-107660363D01*
X99722724Y-107641230D01*
X99672707Y-107603613D01*
X99613067Y-107579397D01*
X99528066Y-107563531D01*
X99456224Y-107555720D01*
X99290269Y-107548006D01*
X99129084Y-107554590D01*
X98988585Y-107574229D01*
X98900052Y-107599173D01*
X98828293Y-107651235D01*
X98775852Y-107733773D01*
X98755296Y-107826910D01*
X98755294Y-107828089D01*
X98768452Y-107889039D01*
X98800451Y-107960171D01*
X98804883Y-107967672D01*
X98840395Y-108013275D01*
X98888142Y-108046239D01*
X98956010Y-108068353D01*
X99051884Y-108081405D01*
X99183649Y-108087185D01*
X99333881Y-108087689D01*
X99333881Y-108429860D01*
X99224859Y-108428445D01*
X99076704Y-108424808D01*
X98969290Y-108420408D01*
X98892564Y-108413561D01*
X98836475Y-108402587D01*
X98790973Y-108385801D01*
X98746004Y-108361523D01*
X98716145Y-108343308D01*
X98595714Y-108241173D01*
X98510591Y-108111853D01*
X98460777Y-107964688D01*
X98446271Y-107809017D01*
X98467073Y-107654179D01*
X98467073Y-107654179D01*
G37*
X98467073Y-107654179D02*
X98523184Y-107509513D01*
X98614603Y-107384357D01*
X98716149Y-107302693D01*
X98766116Y-107272937D01*
X98810752Y-107251857D01*
X98860327Y-107237699D01*
X98925111Y-107228707D01*
X99015375Y-107223128D01*
X99141388Y-107219205D01*
X99214980Y-107217455D01*
X99413864Y-107215752D01*
X99570514Y-107222265D01*
X99693118Y-107239021D01*
X99789864Y-107268046D01*
X99868939Y-107311368D01*
X99938530Y-107371014D01*
X99969376Y-107404221D01*
X100065423Y-107550312D01*
X100116050Y-107716728D01*
X100120472Y-107899544D01*
X100095404Y-108036131D01*
X100048109Y-108138099D01*
X99966996Y-108241253D01*
X99866585Y-108331159D01*
X99761398Y-108393385D01*
X99722237Y-108407028D01*
X99640022Y-108419992D01*
X99513892Y-108427770D01*
X99350496Y-108430075D01*
X99333881Y-108429860D01*
X99333881Y-108087689D01*
X99463899Y-108085571D01*
X99554178Y-108080271D01*
X99615753Y-108070136D01*
X99659663Y-108053515D01*
X99689481Y-108034440D01*
X99773510Y-107947712D01*
X99810709Y-107851602D01*
X99800463Y-107753392D01*
X99742156Y-107660363D01*
X99722724Y-107641230D01*
X99672707Y-107603613D01*
X99613067Y-107579397D01*
X99528066Y-107563531D01*
X99456224Y-107555720D01*
X99290269Y-107548006D01*
X99129084Y-107554590D01*
X98988585Y-107574229D01*
X98900052Y-107599173D01*
X98828293Y-107651235D01*
X98775852Y-107733773D01*
X98755296Y-107826910D01*
X98755294Y-107828089D01*
X98768452Y-107889039D01*
X98800451Y-107960171D01*
X98804883Y-107967672D01*
X98840395Y-108013275D01*
X98888142Y-108046239D01*
X98956010Y-108068353D01*
X99051884Y-108081405D01*
X99183649Y-108087185D01*
X99333881Y-108087689D01*
X99333881Y-108429860D01*
X99224859Y-108428445D01*
X99076704Y-108424808D01*
X98969290Y-108420408D01*
X98892564Y-108413561D01*
X98836475Y-108402587D01*
X98790973Y-108385801D01*
X98746004Y-108361523D01*
X98716145Y-108343308D01*
X98595714Y-108241173D01*
X98510591Y-108111853D01*
X98460777Y-107964688D01*
X98446271Y-107809017D01*
X98467073Y-107654179D01*
G36*
X98457555Y-114853056D02*
G01*
X98489693Y-114714943D01*
X98556457Y-114596867D01*
X98638981Y-114507681D01*
X98718125Y-114446089D01*
X98807727Y-114401602D01*
X98916260Y-114372451D01*
X99052195Y-114356863D01*
X99224004Y-114353069D01*
X99363486Y-114356246D01*
X99559255Y-114368625D01*
X99712772Y-114392786D01*
X99831915Y-114432274D01*
X99924561Y-114490633D01*
X99998587Y-114571410D01*
X100056877Y-114668300D01*
X100090725Y-114765424D01*
X100112438Y-114889424D01*
X100120093Y-115018865D01*
X100111766Y-115132313D01*
X100102143Y-115172906D01*
X100030998Y-115315498D01*
X99920694Y-115435260D01*
X99807694Y-115508399D01*
X99756477Y-115532516D01*
X99710571Y-115549706D01*
X99660500Y-115560933D01*
X99596784Y-115567164D01*
X99509948Y-115569362D01*
X99390514Y-115568493D01*
X99243871Y-115565818D01*
X99237681Y-115565684D01*
X99237681Y-115239022D01*
X99365568Y-115235176D01*
X99488673Y-115226237D01*
X99593797Y-115213013D01*
X99667740Y-115196314D01*
X99688361Y-115187252D01*
X99741247Y-115136297D01*
X99789255Y-115062327D01*
X99818288Y-114988838D01*
X99821421Y-114965489D01*
X99810811Y-114921138D01*
X99784394Y-114859766D01*
X99783470Y-114857969D01*
X99746133Y-114799857D01*
X99698102Y-114758120D01*
X99631354Y-114730563D01*
X99537867Y-114714989D01*
X99409618Y-114709202D01*
X99245896Y-114710828D01*
X98903305Y-114719100D01*
X98829252Y-114802051D01*
X98769293Y-114899535D01*
X98755789Y-114997551D01*
X98785125Y-115088042D01*
X98853690Y-115162951D01*
X98957868Y-115214217D01*
X99020354Y-115228196D01*
X99118210Y-115236965D01*
X99237681Y-115239022D01*
X99237681Y-115565684D01*
X99086384Y-115562405D01*
X98970726Y-115558488D01*
X98887928Y-115552752D01*
X98829027Y-115543877D01*
X98785056Y-115530548D01*
X98747049Y-115511446D01*
X98709026Y-115487234D01*
X98590722Y-115388937D01*
X98512271Y-115272890D01*
X98468222Y-115129096D01*
X98455881Y-115022917D01*
X98457555Y-114853056D01*
X98457555Y-114853056D01*
G37*
X98457555Y-114853056D02*
X98489693Y-114714943D01*
X98556457Y-114596867D01*
X98638981Y-114507681D01*
X98718125Y-114446089D01*
X98807727Y-114401602D01*
X98916260Y-114372451D01*
X99052195Y-114356863D01*
X99224004Y-114353069D01*
X99363486Y-114356246D01*
X99559255Y-114368625D01*
X99712772Y-114392786D01*
X99831915Y-114432274D01*
X99924561Y-114490633D01*
X99998587Y-114571410D01*
X100056877Y-114668300D01*
X100090725Y-114765424D01*
X100112438Y-114889424D01*
X100120093Y-115018865D01*
X100111766Y-115132313D01*
X100102143Y-115172906D01*
X100030998Y-115315498D01*
X99920694Y-115435260D01*
X99807694Y-115508399D01*
X99756477Y-115532516D01*
X99710571Y-115549706D01*
X99660500Y-115560933D01*
X99596784Y-115567164D01*
X99509948Y-115569362D01*
X99390514Y-115568493D01*
X99243871Y-115565818D01*
X99237681Y-115565684D01*
X99237681Y-115239022D01*
X99365568Y-115235176D01*
X99488673Y-115226237D01*
X99593797Y-115213013D01*
X99667740Y-115196314D01*
X99688361Y-115187252D01*
X99741247Y-115136297D01*
X99789255Y-115062327D01*
X99818288Y-114988838D01*
X99821421Y-114965489D01*
X99810811Y-114921138D01*
X99784394Y-114859766D01*
X99783470Y-114857969D01*
X99746133Y-114799857D01*
X99698102Y-114758120D01*
X99631354Y-114730563D01*
X99537867Y-114714989D01*
X99409618Y-114709202D01*
X99245896Y-114710828D01*
X98903305Y-114719100D01*
X98829252Y-114802051D01*
X98769293Y-114899535D01*
X98755789Y-114997551D01*
X98785125Y-115088042D01*
X98853690Y-115162951D01*
X98957868Y-115214217D01*
X99020354Y-115228196D01*
X99118210Y-115236965D01*
X99237681Y-115239022D01*
X99237681Y-115565684D01*
X99086384Y-115562405D01*
X98970726Y-115558488D01*
X98887928Y-115552752D01*
X98829027Y-115543877D01*
X98785056Y-115530548D01*
X98747049Y-115511446D01*
X98709026Y-115487234D01*
X98590722Y-115388937D01*
X98512271Y-115272890D01*
X98468222Y-115129096D01*
X98455881Y-115022917D01*
X98457555Y-114853056D01*
D14*
X125995300Y-96353000D02*
X125995300Y-91353000D01*
X134495300Y-96353000D02*
X125995300Y-96353000D01*
X134495300Y-91353000D02*
X134495300Y-96353000D01*
X125995300Y-91353000D02*
X134495300Y-91353000D01*
D15*
X123787800Y-85733000D02*
X123787800Y-86733000D01*
X125487800Y-86733000D02*
X125487800Y-85733000D01*
X117636800Y-91459500D02*
X115636800Y-91459500D01*
X115636800Y-88499500D02*
X117636800Y-88499500D01*
X123410420Y-82350720D02*
X124610420Y-82350720D01*
X124610420Y-84110720D02*
X123410420Y-84110720D01*
X120724220Y-84095480D02*
X119524220Y-84095480D01*
X119524220Y-82335480D02*
X120724220Y-82335480D01*
X114436000Y-96612000D02*
X114436000Y-95412000D01*
X116196000Y-95412000D02*
X116196000Y-96612000D01*
X119194200Y-92038080D02*
X124394200Y-92038080D01*
X124394200Y-95678080D02*
X119194200Y-95678080D01*
X119733600Y-85317800D02*
X119733600Y-87117800D01*
X122953600Y-87117800D02*
X122953600Y-84667800D01*
X129614300Y-86483000D02*
X127614300Y-86483000D01*
X127614300Y-88523000D02*
X129614300Y-88523000D01*
X129138300Y-89002500D02*
X128138300Y-89002500D01*
X128138300Y-90702500D02*
X129138300Y-90702500D01*
D16*
X112620300Y-87347500D02*
X111720300Y-88447500D01*
X110920300Y-87347500D02*
X112620300Y-87347500D01*
X111720300Y-88447500D02*
X110920300Y-87347500D01*
X110920300Y-88447500D02*
X112620300Y-88447500D01*
D15*
X110286800Y-91122500D02*
X112953800Y-91122500D01*
X112953800Y-91122500D02*
X112953800Y-87947500D01*
X110286800Y-91122500D02*
X110286800Y-87947500D01*
D17*
X113061000Y-95642000D02*
X113411000Y-95642000D01*
X113411000Y-95642000D02*
X113761000Y-95642000D01*
X113061000Y-95992000D02*
X113411000Y-95642000D01*
X113111000Y-95992000D02*
X113061000Y-95992000D01*
X113061000Y-95992000D02*
X113111000Y-95992000D01*
X113761000Y-95992000D02*
X113111000Y-95992000D01*
X113711000Y-95942000D02*
X113761000Y-95992000D01*
X113411000Y-95642000D02*
X113711000Y-95942000D01*
D15*
X114111000Y-94042000D02*
X112711000Y-94042000D01*
X112711000Y-94042000D02*
X112711000Y-96842000D01*
X114111000Y-94042000D02*
X114111000Y-96842000D01*
D17*
X108554000Y-90200000D02*
X108204000Y-90200000D01*
X108204000Y-90200000D02*
X107854000Y-90200000D01*
X108554000Y-89850000D02*
X108204000Y-90200000D01*
X108504000Y-89850000D02*
X108554000Y-89850000D01*
X108554000Y-89850000D02*
X108504000Y-89850000D01*
X107854000Y-89850000D02*
X108504000Y-89850000D01*
X107904000Y-89900000D02*
X107854000Y-89850000D01*
X108204000Y-90200000D02*
X107904000Y-89900000D01*
D15*
X107504000Y-91800000D02*
X108904000Y-91800000D01*
X108904000Y-91800000D02*
X108904000Y-89000000D01*
X107504000Y-91800000D02*
X107504000Y-89000000D01*
X107324000Y-86772000D02*
X107324000Y-85572000D01*
X109084000Y-85572000D02*
X109084000Y-86772000D01*
X117268360Y-86622000D02*
X117268360Y-85622000D01*
X115568360Y-85622000D02*
X115568360Y-86622000D01*
X117714300Y-86475279D02*
X117714300Y-86149721D01*
X118734300Y-86475279D02*
X118734300Y-86149721D01*
X123356000Y-115340000D02*
X123356000Y-116340000D01*
X125056000Y-116340000D02*
X125056000Y-115340000D01*
X109386000Y-106926000D02*
X109386000Y-107926000D01*
X111086000Y-107926000D02*
X111086000Y-106926000D01*
X124118000Y-106672000D02*
X124118000Y-107672000D01*
X125818000Y-107672000D02*
X125818000Y-106672000D01*
X121246000Y-115816000D02*
X121246000Y-114816000D01*
X119546000Y-114816000D02*
X119546000Y-115816000D01*
X113626000Y-115546000D02*
X113626000Y-114546000D01*
X111926000Y-114546000D02*
X111926000Y-115546000D01*
D14*
X104648000Y-97028000D02*
X104648000Y-102108000D01*
X104368000Y-94208000D02*
X105918000Y-94208000D01*
X107188000Y-94488000D02*
X107188000Y-97028000D01*
X107188000Y-97028000D02*
X104648000Y-97028000D01*
X104648000Y-102108000D02*
X109728000Y-102108000D01*
X109728000Y-102108000D02*
X109728000Y-97028000D01*
X104368000Y-94208000D02*
X104368000Y-95758000D01*
X109728000Y-94488000D02*
X107188000Y-94488000D01*
X109728000Y-97028000D02*
X109728000Y-94488000D01*
X108820000Y-121556000D02*
X108820000Y-126856000D01*
X123590000Y-121556000D02*
X123590000Y-126856000D01*
X108820000Y-121556000D02*
X123590000Y-121556000D01*
X108820000Y-126856000D02*
X123590000Y-126856000D01*
D15*
X128896000Y-106146000D02*
X128896000Y-107346000D01*
X127136000Y-107346000D02*
X127136000Y-106146000D01*
X136516000Y-116240000D02*
X136516000Y-117440000D01*
X134756000Y-117440000D02*
X134756000Y-116240000D01*
X116240000Y-98942000D02*
X117440000Y-98942000D01*
X117440000Y-100702000D02*
X116240000Y-100702000D01*
X132746000Y-104512000D02*
X131546000Y-104512000D01*
X131546000Y-102752000D02*
X132746000Y-102752000D01*
X132746000Y-112132000D02*
X131546000Y-112132000D01*
X131546000Y-110372000D02*
X132746000Y-110372000D01*
D14*
X127846000Y-114265000D02*
X127846000Y-114315000D01*
X131996000Y-114265000D02*
X131996000Y-114410000D01*
X131996000Y-119415000D02*
X131996000Y-119270000D01*
X127846000Y-119415000D02*
X127846000Y-119270000D01*
X127846000Y-114265000D02*
X131996000Y-114265000D01*
X127846000Y-119415000D02*
X131996000Y-119415000D01*
X127846000Y-114315000D02*
X126446000Y-114315000D01*
D18*
X115239800Y-103784400D02*
G75*
G03X115239800Y-103784400I-50800J0D01*
G01*
X113690400Y-102031800D02*
G75*
G03X113690400Y-102031800I-50800J0D01*
G01*
D14*
X114231000Y-102801000D02*
X114231000Y-103026000D01*
X121481000Y-102801000D02*
X121481000Y-103126000D01*
X121481000Y-110051000D02*
X121481000Y-109726000D01*
X114231000Y-110051000D02*
X114231000Y-109726000D01*
X114231000Y-102801000D02*
X114556000Y-102801000D01*
X114231000Y-110051000D02*
X114556000Y-110051000D01*
X121481000Y-110051000D02*
X121156000Y-110051000D01*
X121481000Y-102801000D02*
X121156000Y-102801000D01*
X114231000Y-103026000D02*
X112806000Y-103026000D01*
D17*
X118586000Y-116916000D02*
X116586000Y-116916000D01*
X118586000Y-116916000D02*
X118586000Y-115316000D01*
X108554000Y-112384000D02*
X108204000Y-112384000D01*
X108204000Y-112384000D02*
X107854000Y-112384000D01*
X108554000Y-112034000D02*
X108204000Y-112384000D01*
X108504000Y-112034000D02*
X108554000Y-112034000D01*
X108554000Y-112034000D02*
X108504000Y-112034000D01*
X107854000Y-112034000D02*
X108504000Y-112034000D01*
X107904000Y-112084000D02*
X107854000Y-112034000D01*
X108204000Y-112384000D02*
X107904000Y-112084000D01*
D15*
X107504000Y-113984000D02*
X108904000Y-113984000D01*
X108904000Y-113984000D02*
X108904000Y-111184000D01*
X107504000Y-113984000D02*
X107504000Y-111184000D01*
X107324000Y-116678000D02*
X107324000Y-115478000D01*
X109084000Y-115478000D02*
X109084000Y-116678000D01*
D17*
X132238000Y-99876000D02*
X132588000Y-99876000D01*
X132588000Y-99876000D02*
X132938000Y-99876000D01*
X132238000Y-100226000D02*
X132588000Y-99876000D01*
X132288000Y-100226000D02*
X132238000Y-100226000D01*
X132238000Y-100226000D02*
X132288000Y-100226000D01*
X132938000Y-100226000D02*
X132288000Y-100226000D01*
X132888000Y-100176000D02*
X132938000Y-100226000D01*
X132588000Y-99876000D02*
X132888000Y-100176000D01*
D15*
X133288000Y-98276000D02*
X131888000Y-98276000D01*
X131888000Y-98276000D02*
X131888000Y-101076000D01*
X133288000Y-98276000D02*
X133288000Y-101076000D01*
X130240000Y-98276000D02*
X130240000Y-101076000D01*
X128840000Y-98276000D02*
X128840000Y-101076000D01*
X130240000Y-98276000D02*
X128840000Y-98276000D01*
D17*
X129540000Y-99876000D02*
X129840000Y-100176000D01*
X129840000Y-100176000D02*
X129890000Y-100226000D01*
X129890000Y-100226000D02*
X129240000Y-100226000D01*
X129190000Y-100226000D02*
X129240000Y-100226000D01*
X129240000Y-100226000D02*
X129190000Y-100226000D01*
X129190000Y-100226000D02*
X129540000Y-99876000D01*
X129540000Y-99876000D02*
X129890000Y-99876000D01*
X129190000Y-99876000D02*
X129540000Y-99876000D01*
D15*
X136516000Y-99288000D02*
X136516000Y-100488000D01*
X134756000Y-100488000D02*
X134756000Y-99288000D01*
X125612000Y-100610000D02*
X125612000Y-99410000D01*
X127372000Y-99410000D02*
X127372000Y-100610000D01*
X106465000Y-123325000D02*
X106465000Y-124325000D01*
X108165000Y-124325000D02*
X108165000Y-123325000D01*
X132765000Y-105172000D02*
G75*
G02X133465000Y-105872000I0J-700000D01*
G01*
X133465000Y-106472000D02*
G75*
G02X132765000Y-107172000I-700000J0D01*
G01*
X131365000Y-107172000D02*
G75*
G02X130665000Y-106472000I0J700000D01*
G01*
X130665000Y-105872000D02*
G75*
G02X131365000Y-105172000I700000J0D01*
G01*
X130665000Y-106472000D02*
X130665000Y-105872000D01*
X132765000Y-107172000D02*
X131365000Y-107172000D01*
X133465000Y-105872000D02*
X133465000Y-106472000D01*
X131365000Y-105172000D02*
X132765000Y-105172000D01*
X131380000Y-107966000D02*
X132780000Y-107966000D01*
X133480000Y-108666000D02*
X133480000Y-109266000D01*
X132780000Y-109966000D02*
X131380000Y-109966000D01*
X130680000Y-109266000D02*
X130680000Y-108666000D01*
X130680000Y-108666000D02*
G75*
G02X131380000Y-107966000I700000J0D01*
G01*
X131380000Y-109966000D02*
G75*
G02X130680000Y-109266000I0J700000D01*
G01*
X133480000Y-109266000D02*
G75*
G02X132780000Y-109966000I-700000J0D01*
G01*
X132780000Y-107966000D02*
G75*
G02X133480000Y-108666000I0J-700000D01*
G01*
D14*
X121668380Y-91021047D02*
X121668380Y-91497238D01*
X120668380Y-91497238D01*
X121668380Y-90163904D02*
X121668380Y-90735333D01*
X121668380Y-90449619D02*
X120668380Y-90449619D01*
X120811238Y-90544857D01*
X120906476Y-90640095D01*
X120954095Y-90735333D01*
X120668380Y-89544857D02*
X120668380Y-89449619D01*
X120716000Y-89354380D01*
X120763619Y-89306761D01*
X120858857Y-89259142D01*
X121049333Y-89211523D01*
X121287428Y-89211523D01*
X121477904Y-89259142D01*
X121573142Y-89306761D01*
X121620761Y-89354380D01*
X121668380Y-89449619D01*
X121668380Y-89544857D01*
X121620761Y-89640095D01*
X121573142Y-89687714D01*
X121477904Y-89735333D01*
X121287428Y-89782952D01*
X121049333Y-89782952D01*
X120858857Y-89735333D01*
X120763619Y-89687714D01*
X120716000Y-89640095D01*
X120668380Y-89544857D01*
X121668380Y-88259142D02*
X121668380Y-88830571D01*
X121668380Y-88544857D02*
X120668380Y-88544857D01*
X120811238Y-88640095D01*
X120906476Y-88735333D01*
X120954095Y-88830571D01*
X135993142Y-96273619D02*
X136040761Y-96321238D01*
X136088380Y-96464095D01*
X136088380Y-96559333D01*
X136040761Y-96702190D01*
X135945523Y-96797428D01*
X135850285Y-96845047D01*
X135659809Y-96892666D01*
X135516952Y-96892666D01*
X135326476Y-96845047D01*
X135231238Y-96797428D01*
X135136000Y-96702190D01*
X135088380Y-96559333D01*
X135088380Y-96464095D01*
X135136000Y-96321238D01*
X135183619Y-96273619D01*
X135088380Y-95654571D02*
X135088380Y-95464095D01*
X135136000Y-95368857D01*
X135231238Y-95273619D01*
X135421714Y-95226000D01*
X135755047Y-95226000D01*
X135945523Y-95273619D01*
X136040761Y-95368857D01*
X136088380Y-95464095D01*
X136088380Y-95654571D01*
X136040761Y-95749809D01*
X135945523Y-95845047D01*
X135755047Y-95892666D01*
X135421714Y-95892666D01*
X135231238Y-95845047D01*
X135136000Y-95749809D01*
X135088380Y-95654571D01*
X135088380Y-94797428D02*
X135897904Y-94797428D01*
X135993142Y-94749809D01*
X136040761Y-94702190D01*
X136088380Y-94606952D01*
X136088380Y-94416476D01*
X136040761Y-94321238D01*
X135993142Y-94273619D01*
X135897904Y-94226000D01*
X135088380Y-94226000D01*
X135088380Y-93892666D02*
X135088380Y-93321238D01*
X136088380Y-93606952D02*
X135088380Y-93606952D01*
X136088380Y-92464095D02*
X136088380Y-93035523D01*
X136088380Y-92749809D02*
X135088380Y-92749809D01*
X135231238Y-92845047D01*
X135326476Y-92940285D01*
X135374095Y-93035523D01*
X135088380Y-91845047D02*
X135088380Y-91749809D01*
X135136000Y-91654571D01*
X135183619Y-91606952D01*
X135278857Y-91559333D01*
X135469333Y-91511714D01*
X135707428Y-91511714D01*
X135897904Y-91559333D01*
X135993142Y-91606952D01*
X136040761Y-91654571D01*
X136088380Y-91749809D01*
X136088380Y-91845047D01*
X136040761Y-91940285D01*
X135993142Y-91987904D01*
X135897904Y-92035523D01*
X135707428Y-92083142D01*
X135469333Y-92083142D01*
X135278857Y-92035523D01*
X135183619Y-91987904D01*
X135136000Y-91940285D01*
X135088380Y-91845047D01*
X135183619Y-91130761D02*
X135136000Y-91083142D01*
X135088380Y-90987904D01*
X135088380Y-90749809D01*
X135136000Y-90654571D01*
X135183619Y-90606952D01*
X135278857Y-90559333D01*
X135374095Y-90559333D01*
X135516952Y-90606952D01*
X136088380Y-91178380D01*
X136088380Y-90559333D01*
X123963171Y-88606285D02*
X123934600Y-88634857D01*
X123848885Y-88663428D01*
X123791742Y-88663428D01*
X123706028Y-88634857D01*
X123648885Y-88577714D01*
X123620314Y-88520571D01*
X123591742Y-88406285D01*
X123591742Y-88320571D01*
X123620314Y-88206285D01*
X123648885Y-88149142D01*
X123706028Y-88092000D01*
X123791742Y-88063428D01*
X123848885Y-88063428D01*
X123934600Y-88092000D01*
X123963171Y-88120571D01*
X124534600Y-88663428D02*
X124191742Y-88663428D01*
X124363171Y-88663428D02*
X124363171Y-88063428D01*
X124306028Y-88149142D01*
X124248885Y-88206285D01*
X124191742Y-88234857D01*
X124906028Y-88063428D02*
X124963171Y-88063428D01*
X125020314Y-88092000D01*
X125048885Y-88120571D01*
X125077457Y-88177714D01*
X125106028Y-88292000D01*
X125106028Y-88434857D01*
X125077457Y-88549142D01*
X125048885Y-88606285D01*
X125020314Y-88634857D01*
X124963171Y-88663428D01*
X124906028Y-88663428D01*
X124848885Y-88634857D01*
X124820314Y-88606285D01*
X124791742Y-88549142D01*
X124763171Y-88434857D01*
X124763171Y-88292000D01*
X124791742Y-88177714D01*
X124820314Y-88120571D01*
X124848885Y-88092000D01*
X124906028Y-88063428D01*
X125306028Y-88063428D02*
X125677457Y-88063428D01*
X125477457Y-88292000D01*
X125563171Y-88292000D01*
X125620314Y-88320571D01*
X125648885Y-88349142D01*
X125677457Y-88406285D01*
X125677457Y-88549142D01*
X125648885Y-88606285D01*
X125620314Y-88634857D01*
X125563171Y-88663428D01*
X125391742Y-88663428D01*
X125334600Y-88634857D01*
X125306028Y-88606285D01*
X114755285Y-92280571D02*
X114421952Y-92280571D01*
X114421952Y-92804380D02*
X114421952Y-91804380D01*
X114898142Y-91804380D01*
X115802904Y-92804380D02*
X115231476Y-92804380D01*
X115517190Y-92804380D02*
X115517190Y-91804380D01*
X115421952Y-91947238D01*
X115326714Y-92042476D01*
X115231476Y-92090095D01*
X116421952Y-91804380D02*
X116517190Y-91804380D01*
X116612428Y-91852000D01*
X116660047Y-91899619D01*
X116707666Y-91994857D01*
X116755285Y-92185333D01*
X116755285Y-92423428D01*
X116707666Y-92613904D01*
X116660047Y-92709142D01*
X116612428Y-92756761D01*
X116517190Y-92804380D01*
X116421952Y-92804380D01*
X116326714Y-92756761D01*
X116279095Y-92709142D01*
X116231476Y-92613904D01*
X116183857Y-92423428D01*
X116183857Y-92185333D01*
X116231476Y-91994857D01*
X116279095Y-91899619D01*
X116326714Y-91852000D01*
X116421952Y-91804380D01*
X117707666Y-92804380D02*
X117136238Y-92804380D01*
X117421952Y-92804380D02*
X117421952Y-91804380D01*
X117326714Y-91947238D01*
X117231476Y-92042476D01*
X117136238Y-92090095D01*
X123340952Y-81986380D02*
X123007619Y-81510190D01*
X122769523Y-81986380D02*
X122769523Y-80986380D01*
X123150476Y-80986380D01*
X123245714Y-81034000D01*
X123293333Y-81081619D01*
X123340952Y-81176857D01*
X123340952Y-81319714D01*
X123293333Y-81414952D01*
X123245714Y-81462571D01*
X123150476Y-81510190D01*
X122769523Y-81510190D01*
X124293333Y-81986380D02*
X123721904Y-81986380D01*
X124007619Y-81986380D02*
X124007619Y-80986380D01*
X123912380Y-81129238D01*
X123817142Y-81224476D01*
X123721904Y-81272095D01*
X124912380Y-80986380D02*
X125007619Y-80986380D01*
X125102857Y-81034000D01*
X125150476Y-81081619D01*
X125198095Y-81176857D01*
X125245714Y-81367333D01*
X125245714Y-81605428D01*
X125198095Y-81795904D01*
X125150476Y-81891142D01*
X125102857Y-81938761D01*
X125007619Y-81986380D01*
X124912380Y-81986380D01*
X124817142Y-81938761D01*
X124769523Y-81891142D01*
X124721904Y-81795904D01*
X124674285Y-81605428D01*
X124674285Y-81367333D01*
X124721904Y-81176857D01*
X124769523Y-81081619D01*
X124817142Y-81034000D01*
X124912380Y-80986380D01*
X125579047Y-80986380D02*
X126198095Y-80986380D01*
X125864761Y-81367333D01*
X126007619Y-81367333D01*
X126102857Y-81414952D01*
X126150476Y-81462571D01*
X126198095Y-81557809D01*
X126198095Y-81795904D01*
X126150476Y-81891142D01*
X126102857Y-81938761D01*
X126007619Y-81986380D01*
X125721904Y-81986380D01*
X125626666Y-81938761D01*
X125579047Y-81891142D01*
X119530952Y-81986380D02*
X119197619Y-81510190D01*
X118959523Y-81986380D02*
X118959523Y-80986380D01*
X119340476Y-80986380D01*
X119435714Y-81034000D01*
X119483333Y-81081619D01*
X119530952Y-81176857D01*
X119530952Y-81319714D01*
X119483333Y-81414952D01*
X119435714Y-81462571D01*
X119340476Y-81510190D01*
X118959523Y-81510190D01*
X120483333Y-81986380D02*
X119911904Y-81986380D01*
X120197619Y-81986380D02*
X120197619Y-80986380D01*
X120102380Y-81129238D01*
X120007142Y-81224476D01*
X119911904Y-81272095D01*
X121102380Y-80986380D02*
X121197619Y-80986380D01*
X121292857Y-81034000D01*
X121340476Y-81081619D01*
X121388095Y-81176857D01*
X121435714Y-81367333D01*
X121435714Y-81605428D01*
X121388095Y-81795904D01*
X121340476Y-81891142D01*
X121292857Y-81938761D01*
X121197619Y-81986380D01*
X121102380Y-81986380D01*
X121007142Y-81938761D01*
X120959523Y-81891142D01*
X120911904Y-81795904D01*
X120864285Y-81605428D01*
X120864285Y-81367333D01*
X120911904Y-81176857D01*
X120959523Y-81081619D01*
X121007142Y-81034000D01*
X121102380Y-80986380D01*
X121816666Y-81081619D02*
X121864285Y-81034000D01*
X121959523Y-80986380D01*
X122197619Y-80986380D01*
X122292857Y-81034000D01*
X122340476Y-81081619D01*
X122388095Y-81176857D01*
X122388095Y-81272095D01*
X122340476Y-81414952D01*
X121769047Y-81986380D01*
X122388095Y-81986380D01*
X117546380Y-96811047D02*
X117070190Y-97144380D01*
X117546380Y-97382476D02*
X116546380Y-97382476D01*
X116546380Y-97001523D01*
X116594000Y-96906285D01*
X116641619Y-96858666D01*
X116736857Y-96811047D01*
X116879714Y-96811047D01*
X116974952Y-96858666D01*
X117022571Y-96906285D01*
X117070190Y-97001523D01*
X117070190Y-97382476D01*
X117546380Y-95858666D02*
X117546380Y-96430095D01*
X117546380Y-96144380D02*
X116546380Y-96144380D01*
X116689238Y-96239619D01*
X116784476Y-96334857D01*
X116832095Y-96430095D01*
X116546380Y-95239619D02*
X116546380Y-95144380D01*
X116594000Y-95049142D01*
X116641619Y-95001523D01*
X116736857Y-94953904D01*
X116927333Y-94906285D01*
X117165428Y-94906285D01*
X117355904Y-94953904D01*
X117451142Y-95001523D01*
X117498761Y-95049142D01*
X117546380Y-95144380D01*
X117546380Y-95239619D01*
X117498761Y-95334857D01*
X117451142Y-95382476D01*
X117355904Y-95430095D01*
X117165428Y-95477714D01*
X116927333Y-95477714D01*
X116736857Y-95430095D01*
X116641619Y-95382476D01*
X116594000Y-95334857D01*
X116546380Y-95239619D01*
X116546380Y-94001523D02*
X116546380Y-94477714D01*
X117022571Y-94525333D01*
X116974952Y-94477714D01*
X116927333Y-94382476D01*
X116927333Y-94144380D01*
X116974952Y-94049142D01*
X117022571Y-94001523D01*
X117117809Y-93953904D01*
X117355904Y-93953904D01*
X117451142Y-94001523D01*
X117498761Y-94049142D01*
X117546380Y-94144380D01*
X117546380Y-94382476D01*
X117498761Y-94477714D01*
X117451142Y-94525333D01*
X120546952Y-97099380D02*
X120213619Y-96623190D01*
X119975523Y-97099380D02*
X119975523Y-96099380D01*
X120356476Y-96099380D01*
X120451714Y-96147000D01*
X120499333Y-96194619D01*
X120546952Y-96289857D01*
X120546952Y-96432714D01*
X120499333Y-96527952D01*
X120451714Y-96575571D01*
X120356476Y-96623190D01*
X119975523Y-96623190D01*
X121499333Y-97099380D02*
X120927904Y-97099380D01*
X121213619Y-97099380D02*
X121213619Y-96099380D01*
X121118380Y-96242238D01*
X121023142Y-96337476D01*
X120927904Y-96385095D01*
X122118380Y-96099380D02*
X122213619Y-96099380D01*
X122308857Y-96147000D01*
X122356476Y-96194619D01*
X122404095Y-96289857D01*
X122451714Y-96480333D01*
X122451714Y-96718428D01*
X122404095Y-96908904D01*
X122356476Y-97004142D01*
X122308857Y-97051761D01*
X122213619Y-97099380D01*
X122118380Y-97099380D01*
X122023142Y-97051761D01*
X121975523Y-97004142D01*
X121927904Y-96908904D01*
X121880285Y-96718428D01*
X121880285Y-96480333D01*
X121927904Y-96289857D01*
X121975523Y-96194619D01*
X122023142Y-96147000D01*
X122118380Y-96099380D01*
X123308857Y-96432714D02*
X123308857Y-97099380D01*
X123070761Y-96051761D02*
X122832666Y-96766047D01*
X123451714Y-96766047D01*
X119243380Y-91741285D02*
X120052904Y-91741285D01*
X120148142Y-91693666D01*
X120195761Y-91646047D01*
X120243380Y-91550809D01*
X120243380Y-91360333D01*
X120195761Y-91265095D01*
X120148142Y-91217476D01*
X120052904Y-91169857D01*
X119243380Y-91169857D01*
X120243380Y-90169857D02*
X120243380Y-90741285D01*
X120243380Y-90455571D02*
X119243380Y-90455571D01*
X119386238Y-90550809D01*
X119481476Y-90646047D01*
X119529095Y-90741285D01*
X119243380Y-89550809D02*
X119243380Y-89455571D01*
X119291000Y-89360333D01*
X119338619Y-89312714D01*
X119433857Y-89265095D01*
X119624333Y-89217476D01*
X119862428Y-89217476D01*
X120052904Y-89265095D01*
X120148142Y-89312714D01*
X120195761Y-89360333D01*
X120243380Y-89455571D01*
X120243380Y-89550809D01*
X120195761Y-89646047D01*
X120148142Y-89693666D01*
X120052904Y-89741285D01*
X119862428Y-89788904D01*
X119624333Y-89788904D01*
X119433857Y-89741285D01*
X119338619Y-89693666D01*
X119291000Y-89646047D01*
X119243380Y-89550809D01*
X120243380Y-88265095D02*
X120243380Y-88836523D01*
X120243380Y-88550809D02*
X119243380Y-88550809D01*
X119386238Y-88646047D01*
X119481476Y-88741285D01*
X119529095Y-88836523D01*
X128008380Y-85955142D02*
X127960761Y-86002761D01*
X127817904Y-86050380D01*
X127722666Y-86050380D01*
X127579809Y-86002761D01*
X127484571Y-85907523D01*
X127436952Y-85812285D01*
X127389333Y-85621809D01*
X127389333Y-85478952D01*
X127436952Y-85288476D01*
X127484571Y-85193238D01*
X127579809Y-85098000D01*
X127722666Y-85050380D01*
X127817904Y-85050380D01*
X127960761Y-85098000D01*
X128008380Y-85145619D01*
X128627428Y-85050380D02*
X128817904Y-85050380D01*
X128913142Y-85098000D01*
X129008380Y-85193238D01*
X129056000Y-85383714D01*
X129056000Y-85717047D01*
X129008380Y-85907523D01*
X128913142Y-86002761D01*
X128817904Y-86050380D01*
X128627428Y-86050380D01*
X128532190Y-86002761D01*
X128436952Y-85907523D01*
X128389333Y-85717047D01*
X128389333Y-85383714D01*
X128436952Y-85193238D01*
X128532190Y-85098000D01*
X128627428Y-85050380D01*
X129484571Y-85050380D02*
X129484571Y-85859904D01*
X129532190Y-85955142D01*
X129579809Y-86002761D01*
X129675047Y-86050380D01*
X129865523Y-86050380D01*
X129960761Y-86002761D01*
X130008380Y-85955142D01*
X130056000Y-85859904D01*
X130056000Y-85050380D01*
X130389333Y-85050380D02*
X130960761Y-85050380D01*
X130675047Y-86050380D02*
X130675047Y-85050380D01*
X131817904Y-86050380D02*
X131246476Y-86050380D01*
X131532190Y-86050380D02*
X131532190Y-85050380D01*
X131436952Y-85193238D01*
X131341714Y-85288476D01*
X131246476Y-85336095D01*
X132436952Y-85050380D02*
X132532190Y-85050380D01*
X132627428Y-85098000D01*
X132675047Y-85145619D01*
X132722666Y-85240857D01*
X132770285Y-85431333D01*
X132770285Y-85669428D01*
X132722666Y-85859904D01*
X132675047Y-85955142D01*
X132627428Y-86002761D01*
X132532190Y-86050380D01*
X132436952Y-86050380D01*
X132341714Y-86002761D01*
X132294095Y-85955142D01*
X132246476Y-85859904D01*
X132198857Y-85669428D01*
X132198857Y-85431333D01*
X132246476Y-85240857D01*
X132294095Y-85145619D01*
X132341714Y-85098000D01*
X132436952Y-85050380D01*
X133722666Y-86050380D02*
X133151238Y-86050380D01*
X133436952Y-86050380D02*
X133436952Y-85050380D01*
X133341714Y-85193238D01*
X133246476Y-85288476D01*
X133151238Y-85336095D01*
X131310380Y-89765142D02*
X131262761Y-89812761D01*
X131119904Y-89860380D01*
X131024666Y-89860380D01*
X130881809Y-89812761D01*
X130786571Y-89717523D01*
X130738952Y-89622285D01*
X130691333Y-89431809D01*
X130691333Y-89288952D01*
X130738952Y-89098476D01*
X130786571Y-89003238D01*
X130881809Y-88908000D01*
X131024666Y-88860380D01*
X131119904Y-88860380D01*
X131262761Y-88908000D01*
X131310380Y-88955619D01*
X131929428Y-88860380D02*
X132119904Y-88860380D01*
X132215142Y-88908000D01*
X132310380Y-89003238D01*
X132358000Y-89193714D01*
X132358000Y-89527047D01*
X132310380Y-89717523D01*
X132215142Y-89812761D01*
X132119904Y-89860380D01*
X131929428Y-89860380D01*
X131834190Y-89812761D01*
X131738952Y-89717523D01*
X131691333Y-89527047D01*
X131691333Y-89193714D01*
X131738952Y-89003238D01*
X131834190Y-88908000D01*
X131929428Y-88860380D01*
X132786571Y-88860380D02*
X132786571Y-89669904D01*
X132834190Y-89765142D01*
X132881809Y-89812761D01*
X132977047Y-89860380D01*
X133167523Y-89860380D01*
X133262761Y-89812761D01*
X133310380Y-89765142D01*
X133358000Y-89669904D01*
X133358000Y-88860380D01*
X133691333Y-88860380D02*
X134262761Y-88860380D01*
X133977047Y-89860380D02*
X133977047Y-88860380D01*
X135119904Y-89860380D02*
X134548476Y-89860380D01*
X134834190Y-89860380D02*
X134834190Y-88860380D01*
X134738952Y-89003238D01*
X134643714Y-89098476D01*
X134548476Y-89146095D01*
X135738952Y-88860380D02*
X135834190Y-88860380D01*
X135929428Y-88908000D01*
X135977047Y-88955619D01*
X136024666Y-89050857D01*
X136072285Y-89241333D01*
X136072285Y-89479428D01*
X136024666Y-89669904D01*
X135977047Y-89765142D01*
X135929428Y-89812761D01*
X135834190Y-89860380D01*
X135738952Y-89860380D01*
X135643714Y-89812761D01*
X135596095Y-89765142D01*
X135548476Y-89669904D01*
X135500857Y-89479428D01*
X135500857Y-89241333D01*
X135548476Y-89050857D01*
X135596095Y-88955619D01*
X135643714Y-88908000D01*
X135738952Y-88860380D01*
X136405619Y-88860380D02*
X137024666Y-88860380D01*
X136691333Y-89241333D01*
X136834190Y-89241333D01*
X136929428Y-89288952D01*
X136977047Y-89336571D01*
X137024666Y-89431809D01*
X137024666Y-89669904D01*
X136977047Y-89765142D01*
X136929428Y-89812761D01*
X136834190Y-89860380D01*
X136548476Y-89860380D01*
X136453238Y-89812761D01*
X136405619Y-89765142D01*
X112193380Y-83917476D02*
X111193380Y-83917476D01*
X111193380Y-83679380D01*
X111241000Y-83536523D01*
X111336238Y-83441285D01*
X111431476Y-83393666D01*
X111621952Y-83346047D01*
X111764809Y-83346047D01*
X111955285Y-83393666D01*
X112050523Y-83441285D01*
X112145761Y-83536523D01*
X112193380Y-83679380D01*
X112193380Y-83917476D01*
X112193380Y-82393666D02*
X112193380Y-82965095D01*
X112193380Y-82679380D02*
X111193380Y-82679380D01*
X111336238Y-82774619D01*
X111431476Y-82869857D01*
X111479095Y-82965095D01*
X111193380Y-81774619D02*
X111193380Y-81679380D01*
X111241000Y-81584142D01*
X111288619Y-81536523D01*
X111383857Y-81488904D01*
X111574333Y-81441285D01*
X111812428Y-81441285D01*
X112002904Y-81488904D01*
X112098142Y-81536523D01*
X112145761Y-81584142D01*
X112193380Y-81679380D01*
X112193380Y-81774619D01*
X112145761Y-81869857D01*
X112098142Y-81917476D01*
X112002904Y-81965095D01*
X111812428Y-82012714D01*
X111574333Y-82012714D01*
X111383857Y-81965095D01*
X111288619Y-81917476D01*
X111241000Y-81869857D01*
X111193380Y-81774619D01*
X112193380Y-80488904D02*
X112193380Y-81060333D01*
X112193380Y-80774619D02*
X111193380Y-80774619D01*
X111336238Y-80869857D01*
X111431476Y-80965095D01*
X111479095Y-81060333D01*
X112593380Y-97582476D02*
X111593380Y-97582476D01*
X111593380Y-97344380D01*
X111641000Y-97201523D01*
X111736238Y-97106285D01*
X111831476Y-97058666D01*
X112021952Y-97011047D01*
X112164809Y-97011047D01*
X112355285Y-97058666D01*
X112450523Y-97106285D01*
X112545761Y-97201523D01*
X112593380Y-97344380D01*
X112593380Y-97582476D01*
X112593380Y-96058666D02*
X112593380Y-96630095D01*
X112593380Y-96344380D02*
X111593380Y-96344380D01*
X111736238Y-96439619D01*
X111831476Y-96534857D01*
X111879095Y-96630095D01*
X111593380Y-95439619D02*
X111593380Y-95344380D01*
X111641000Y-95249142D01*
X111688619Y-95201523D01*
X111783857Y-95153904D01*
X111974333Y-95106285D01*
X112212428Y-95106285D01*
X112402904Y-95153904D01*
X112498142Y-95201523D01*
X112545761Y-95249142D01*
X112593380Y-95344380D01*
X112593380Y-95439619D01*
X112545761Y-95534857D01*
X112498142Y-95582476D01*
X112402904Y-95630095D01*
X112212428Y-95677714D01*
X111974333Y-95677714D01*
X111783857Y-95630095D01*
X111688619Y-95582476D01*
X111641000Y-95534857D01*
X111593380Y-95439619D01*
X111593380Y-94772952D02*
X111593380Y-94153904D01*
X111974333Y-94487238D01*
X111974333Y-94344380D01*
X112021952Y-94249142D01*
X112069571Y-94201523D01*
X112164809Y-94153904D01*
X112402904Y-94153904D01*
X112498142Y-94201523D01*
X112545761Y-94249142D01*
X112593380Y-94344380D01*
X112593380Y-94630095D01*
X112545761Y-94725333D01*
X112498142Y-94772952D01*
X107132380Y-91860476D02*
X106132380Y-91860476D01*
X106132380Y-91622380D01*
X106180000Y-91479523D01*
X106275238Y-91384285D01*
X106370476Y-91336666D01*
X106560952Y-91289047D01*
X106703809Y-91289047D01*
X106894285Y-91336666D01*
X106989523Y-91384285D01*
X107084761Y-91479523D01*
X107132380Y-91622380D01*
X107132380Y-91860476D01*
X107132380Y-90336666D02*
X107132380Y-90908095D01*
X107132380Y-90622380D02*
X106132380Y-90622380D01*
X106275238Y-90717619D01*
X106370476Y-90812857D01*
X106418095Y-90908095D01*
X106132380Y-89717619D02*
X106132380Y-89622380D01*
X106180000Y-89527142D01*
X106227619Y-89479523D01*
X106322857Y-89431904D01*
X106513333Y-89384285D01*
X106751428Y-89384285D01*
X106941904Y-89431904D01*
X107037142Y-89479523D01*
X107084761Y-89527142D01*
X107132380Y-89622380D01*
X107132380Y-89717619D01*
X107084761Y-89812857D01*
X107037142Y-89860476D01*
X106941904Y-89908095D01*
X106751428Y-89955714D01*
X106513333Y-89955714D01*
X106322857Y-89908095D01*
X106227619Y-89860476D01*
X106180000Y-89812857D01*
X106132380Y-89717619D01*
X106227619Y-89003333D02*
X106180000Y-88955714D01*
X106132380Y-88860476D01*
X106132380Y-88622380D01*
X106180000Y-88527142D01*
X106227619Y-88479523D01*
X106322857Y-88431904D01*
X106418095Y-88431904D01*
X106560952Y-88479523D01*
X107132380Y-89050952D01*
X107132380Y-88431904D01*
X107132380Y-87291047D02*
X106656190Y-87624380D01*
X107132380Y-87862476D02*
X106132380Y-87862476D01*
X106132380Y-87481523D01*
X106180000Y-87386285D01*
X106227619Y-87338666D01*
X106322857Y-87291047D01*
X106465714Y-87291047D01*
X106560952Y-87338666D01*
X106608571Y-87386285D01*
X106656190Y-87481523D01*
X106656190Y-87862476D01*
X107132380Y-86338666D02*
X107132380Y-86910095D01*
X107132380Y-86624380D02*
X106132380Y-86624380D01*
X106275238Y-86719619D01*
X106370476Y-86814857D01*
X106418095Y-86910095D01*
X106132380Y-85719619D02*
X106132380Y-85624380D01*
X106180000Y-85529142D01*
X106227619Y-85481523D01*
X106322857Y-85433904D01*
X106513333Y-85386285D01*
X106751428Y-85386285D01*
X106941904Y-85433904D01*
X107037142Y-85481523D01*
X107084761Y-85529142D01*
X107132380Y-85624380D01*
X107132380Y-85719619D01*
X107084761Y-85814857D01*
X107037142Y-85862476D01*
X106941904Y-85910095D01*
X106751428Y-85957714D01*
X106513333Y-85957714D01*
X106322857Y-85910095D01*
X106227619Y-85862476D01*
X106180000Y-85814857D01*
X106132380Y-85719619D01*
X107132380Y-84433904D02*
X107132380Y-85005333D01*
X107132380Y-84719619D02*
X106132380Y-84719619D01*
X106275238Y-84814857D01*
X106370476Y-84910095D01*
X106418095Y-85005333D01*
X116689142Y-83177047D02*
X116736761Y-83224666D01*
X116784380Y-83367523D01*
X116784380Y-83462761D01*
X116736761Y-83605619D01*
X116641523Y-83700857D01*
X116546285Y-83748476D01*
X116355809Y-83796095D01*
X116212952Y-83796095D01*
X116022476Y-83748476D01*
X115927238Y-83700857D01*
X115832000Y-83605619D01*
X115784380Y-83462761D01*
X115784380Y-83367523D01*
X115832000Y-83224666D01*
X115879619Y-83177047D01*
X116784380Y-82224666D02*
X116784380Y-82796095D01*
X116784380Y-82510380D02*
X115784380Y-82510380D01*
X115927238Y-82605619D01*
X116022476Y-82700857D01*
X116070095Y-82796095D01*
X115784380Y-81605619D02*
X115784380Y-81510380D01*
X115832000Y-81415142D01*
X115879619Y-81367523D01*
X115974857Y-81319904D01*
X116165333Y-81272285D01*
X116403428Y-81272285D01*
X116593904Y-81319904D01*
X116689142Y-81367523D01*
X116736761Y-81415142D01*
X116784380Y-81510380D01*
X116784380Y-81605619D01*
X116736761Y-81700857D01*
X116689142Y-81748476D01*
X116593904Y-81796095D01*
X116403428Y-81843714D01*
X116165333Y-81843714D01*
X115974857Y-81796095D01*
X115879619Y-81748476D01*
X115832000Y-81700857D01*
X115784380Y-81605619D01*
X116784380Y-80319904D02*
X116784380Y-80891333D01*
X116784380Y-80605619D02*
X115784380Y-80605619D01*
X115927238Y-80700857D01*
X116022476Y-80796095D01*
X116070095Y-80891333D01*
X118467142Y-83923047D02*
X118514761Y-83970666D01*
X118562380Y-84113523D01*
X118562380Y-84208761D01*
X118514761Y-84351619D01*
X118419523Y-84446857D01*
X118324285Y-84494476D01*
X118133809Y-84542095D01*
X117990952Y-84542095D01*
X117800476Y-84494476D01*
X117705238Y-84446857D01*
X117610000Y-84351619D01*
X117562380Y-84208761D01*
X117562380Y-84113523D01*
X117610000Y-83970666D01*
X117657619Y-83923047D01*
X118562380Y-82970666D02*
X118562380Y-83542095D01*
X118562380Y-83256380D02*
X117562380Y-83256380D01*
X117705238Y-83351619D01*
X117800476Y-83446857D01*
X117848095Y-83542095D01*
X117562380Y-82351619D02*
X117562380Y-82256380D01*
X117610000Y-82161142D01*
X117657619Y-82113523D01*
X117752857Y-82065904D01*
X117943333Y-82018285D01*
X118181428Y-82018285D01*
X118371904Y-82065904D01*
X118467142Y-82113523D01*
X118514761Y-82161142D01*
X118562380Y-82256380D01*
X118562380Y-82351619D01*
X118514761Y-82446857D01*
X118467142Y-82494476D01*
X118371904Y-82542095D01*
X118181428Y-82589714D01*
X117943333Y-82589714D01*
X117752857Y-82542095D01*
X117657619Y-82494476D01*
X117610000Y-82446857D01*
X117562380Y-82351619D01*
X117657619Y-81637333D02*
X117610000Y-81589714D01*
X117562380Y-81494476D01*
X117562380Y-81256380D01*
X117610000Y-81161142D01*
X117657619Y-81113523D01*
X117752857Y-81065904D01*
X117848095Y-81065904D01*
X117990952Y-81113523D01*
X118562380Y-81684952D01*
X118562380Y-81065904D01*
X124039333Y-118467142D02*
X123991714Y-118514761D01*
X123848857Y-118562380D01*
X123753619Y-118562380D01*
X123610761Y-118514761D01*
X123515523Y-118419523D01*
X123467904Y-118324285D01*
X123420285Y-118133809D01*
X123420285Y-117990952D01*
X123467904Y-117800476D01*
X123515523Y-117705238D01*
X123610761Y-117610000D01*
X123753619Y-117562380D01*
X123848857Y-117562380D01*
X123991714Y-117610000D01*
X124039333Y-117657619D01*
X124991714Y-118562380D02*
X124420285Y-118562380D01*
X124706000Y-118562380D02*
X124706000Y-117562380D01*
X124610761Y-117705238D01*
X124515523Y-117800476D01*
X124420285Y-117848095D01*
X110069333Y-110053142D02*
X110021714Y-110100761D01*
X109878857Y-110148380D01*
X109783619Y-110148380D01*
X109640761Y-110100761D01*
X109545523Y-110005523D01*
X109497904Y-109910285D01*
X109450285Y-109719809D01*
X109450285Y-109576952D01*
X109497904Y-109386476D01*
X109545523Y-109291238D01*
X109640761Y-109196000D01*
X109783619Y-109148380D01*
X109878857Y-109148380D01*
X110021714Y-109196000D01*
X110069333Y-109243619D01*
X110450285Y-109243619D02*
X110497904Y-109196000D01*
X110593142Y-109148380D01*
X110831238Y-109148380D01*
X110926476Y-109196000D01*
X110974095Y-109243619D01*
X111021714Y-109338857D01*
X111021714Y-109434095D01*
X110974095Y-109576952D01*
X110402666Y-110148380D01*
X111021714Y-110148380D01*
X124801333Y-105243142D02*
X124753714Y-105290761D01*
X124610857Y-105338380D01*
X124515619Y-105338380D01*
X124372761Y-105290761D01*
X124277523Y-105195523D01*
X124229904Y-105100285D01*
X124182285Y-104909809D01*
X124182285Y-104766952D01*
X124229904Y-104576476D01*
X124277523Y-104481238D01*
X124372761Y-104386000D01*
X124515619Y-104338380D01*
X124610857Y-104338380D01*
X124753714Y-104386000D01*
X124801333Y-104433619D01*
X125134666Y-104338380D02*
X125753714Y-104338380D01*
X125420380Y-104719333D01*
X125563238Y-104719333D01*
X125658476Y-104766952D01*
X125706095Y-104814571D01*
X125753714Y-104909809D01*
X125753714Y-105147904D01*
X125706095Y-105243142D01*
X125658476Y-105290761D01*
X125563238Y-105338380D01*
X125277523Y-105338380D01*
X125182285Y-105290761D01*
X125134666Y-105243142D01*
X122253142Y-115482666D02*
X122300761Y-115530285D01*
X122348380Y-115673142D01*
X122348380Y-115768380D01*
X122300761Y-115911238D01*
X122205523Y-116006476D01*
X122110285Y-116054095D01*
X121919809Y-116101714D01*
X121776952Y-116101714D01*
X121586476Y-116054095D01*
X121491238Y-116006476D01*
X121396000Y-115911238D01*
X121348380Y-115768380D01*
X121348380Y-115673142D01*
X121396000Y-115530285D01*
X121443619Y-115482666D01*
X121681714Y-114625523D02*
X122348380Y-114625523D01*
X121300761Y-114863619D02*
X122015047Y-115101714D01*
X122015047Y-114482666D01*
X111633142Y-115212666D02*
X111680761Y-115260285D01*
X111728380Y-115403142D01*
X111728380Y-115498380D01*
X111680761Y-115641238D01*
X111585523Y-115736476D01*
X111490285Y-115784095D01*
X111299809Y-115831714D01*
X111156952Y-115831714D01*
X110966476Y-115784095D01*
X110871238Y-115736476D01*
X110776000Y-115641238D01*
X110728380Y-115498380D01*
X110728380Y-115403142D01*
X110776000Y-115260285D01*
X110823619Y-115212666D01*
X110728380Y-114307904D02*
X110728380Y-114784095D01*
X111204571Y-114831714D01*
X111156952Y-114784095D01*
X111109333Y-114688857D01*
X111109333Y-114450761D01*
X111156952Y-114355523D01*
X111204571Y-114307904D01*
X111299809Y-114260285D01*
X111537904Y-114260285D01*
X111633142Y-114307904D01*
X111680761Y-114355523D01*
X111728380Y-114450761D01*
X111728380Y-114688857D01*
X111680761Y-114784095D01*
X111633142Y-114831714D01*
X107362666Y-92670380D02*
X107362666Y-93384666D01*
X107315047Y-93527523D01*
X107219809Y-93622761D01*
X107076952Y-93670380D01*
X106981714Y-93670380D01*
X108362666Y-93670380D02*
X107791238Y-93670380D01*
X108076952Y-93670380D02*
X108076952Y-92670380D01*
X107981714Y-92813238D01*
X107886476Y-92908476D01*
X107791238Y-92956095D01*
X122348666Y-126960380D02*
X122348666Y-127674666D01*
X122301047Y-127817523D01*
X122205809Y-127912761D01*
X122062952Y-127960380D01*
X121967714Y-127960380D01*
X122777238Y-127055619D02*
X122824857Y-127008000D01*
X122920095Y-126960380D01*
X123158190Y-126960380D01*
X123253428Y-127008000D01*
X123301047Y-127055619D01*
X123348666Y-127150857D01*
X123348666Y-127246095D01*
X123301047Y-127388952D01*
X122729619Y-127960380D01*
X123348666Y-127960380D01*
X111386952Y-127476238D02*
X111339333Y-127571476D01*
X111291714Y-127619095D01*
X111196476Y-127666714D01*
X111148857Y-127666714D01*
X111053619Y-127619095D01*
X111006000Y-127571476D01*
X110958380Y-127476238D01*
X110958380Y-127285761D01*
X111006000Y-127190523D01*
X111053619Y-127142904D01*
X111148857Y-127095285D01*
X111196476Y-127095285D01*
X111291714Y-127142904D01*
X111339333Y-127190523D01*
X111386952Y-127285761D01*
X111386952Y-127476238D01*
X111434571Y-127571476D01*
X111482190Y-127619095D01*
X111577428Y-127666714D01*
X111767904Y-127666714D01*
X111863142Y-127619095D01*
X111910761Y-127571476D01*
X111958380Y-127476238D01*
X111958380Y-127285761D01*
X111910761Y-127190523D01*
X111863142Y-127142904D01*
X111767904Y-127095285D01*
X111577428Y-127095285D01*
X111482190Y-127142904D01*
X111434571Y-127190523D01*
X111386952Y-127285761D01*
X124658380Y-121634285D02*
X124658380Y-122205714D01*
X124658380Y-121920000D02*
X123658380Y-121920000D01*
X123801238Y-122015238D01*
X123896476Y-122110476D01*
X123944095Y-122205714D01*
X127849333Y-105100380D02*
X127516000Y-104624190D01*
X127277904Y-105100380D02*
X127277904Y-104100380D01*
X127658857Y-104100380D01*
X127754095Y-104148000D01*
X127801714Y-104195619D01*
X127849333Y-104290857D01*
X127849333Y-104433714D01*
X127801714Y-104528952D01*
X127754095Y-104576571D01*
X127658857Y-104624190D01*
X127277904Y-104624190D01*
X128801714Y-105100380D02*
X128230285Y-105100380D01*
X128516000Y-105100380D02*
X128516000Y-104100380D01*
X128420761Y-104243238D01*
X128325523Y-104338476D01*
X128230285Y-104386095D01*
X137738380Y-117006666D02*
X137262190Y-117340000D01*
X137738380Y-117578095D02*
X136738380Y-117578095D01*
X136738380Y-117197142D01*
X136786000Y-117101904D01*
X136833619Y-117054285D01*
X136928857Y-117006666D01*
X137071714Y-117006666D01*
X137166952Y-117054285D01*
X137214571Y-117101904D01*
X137262190Y-117197142D01*
X137262190Y-117578095D01*
X136833619Y-116625714D02*
X136786000Y-116578095D01*
X136738380Y-116482857D01*
X136738380Y-116244761D01*
X136786000Y-116149523D01*
X136833619Y-116101904D01*
X136928857Y-116054285D01*
X137024095Y-116054285D01*
X137166952Y-116101904D01*
X137738380Y-116673333D01*
X137738380Y-116054285D01*
X116673333Y-98750380D02*
X116340000Y-98274190D01*
X116101904Y-98750380D02*
X116101904Y-97750380D01*
X116482857Y-97750380D01*
X116578095Y-97798000D01*
X116625714Y-97845619D01*
X116673333Y-97940857D01*
X116673333Y-98083714D01*
X116625714Y-98178952D01*
X116578095Y-98226571D01*
X116482857Y-98274190D01*
X116101904Y-98274190D01*
X117006666Y-97750380D02*
X117625714Y-97750380D01*
X117292380Y-98131333D01*
X117435238Y-98131333D01*
X117530476Y-98178952D01*
X117578095Y-98226571D01*
X117625714Y-98321809D01*
X117625714Y-98559904D01*
X117578095Y-98655142D01*
X117530476Y-98702761D01*
X117435238Y-98750380D01*
X117149523Y-98750380D01*
X117054285Y-98702761D01*
X117006666Y-98655142D01*
X130500380Y-103798666D02*
X130024190Y-104132000D01*
X130500380Y-104370095D02*
X129500380Y-104370095D01*
X129500380Y-103989142D01*
X129548000Y-103893904D01*
X129595619Y-103846285D01*
X129690857Y-103798666D01*
X129833714Y-103798666D01*
X129928952Y-103846285D01*
X129976571Y-103893904D01*
X130024190Y-103989142D01*
X130024190Y-104370095D01*
X129833714Y-102941523D02*
X130500380Y-102941523D01*
X129452761Y-103179619D02*
X130167047Y-103417714D01*
X130167047Y-102798666D01*
X130500380Y-111418666D02*
X130024190Y-111752000D01*
X130500380Y-111990095D02*
X129500380Y-111990095D01*
X129500380Y-111609142D01*
X129548000Y-111513904D01*
X129595619Y-111466285D01*
X129690857Y-111418666D01*
X129833714Y-111418666D01*
X129928952Y-111466285D01*
X129976571Y-111513904D01*
X130024190Y-111609142D01*
X130024190Y-111990095D01*
X129500380Y-110513904D02*
X129500380Y-110990095D01*
X129976571Y-111037714D01*
X129928952Y-110990095D01*
X129881333Y-110894857D01*
X129881333Y-110656761D01*
X129928952Y-110561523D01*
X129976571Y-110513904D01*
X130071809Y-110466285D01*
X130309904Y-110466285D01*
X130405142Y-110513904D01*
X130452761Y-110561523D01*
X130500380Y-110656761D01*
X130500380Y-110894857D01*
X130452761Y-110990095D01*
X130405142Y-111037714D01*
X129159095Y-112792380D02*
X129159095Y-113601904D01*
X129206714Y-113697142D01*
X129254333Y-113744761D01*
X129349571Y-113792380D01*
X129540047Y-113792380D01*
X129635285Y-113744761D01*
X129682904Y-113697142D01*
X129730523Y-113601904D01*
X129730523Y-112792380D01*
X130730523Y-113792380D02*
X130159095Y-113792380D01*
X130444809Y-113792380D02*
X130444809Y-112792380D01*
X130349571Y-112935238D01*
X130254333Y-113030476D01*
X130159095Y-113078095D01*
X111466380Y-103123904D02*
X112275904Y-103123904D01*
X112371142Y-103076285D01*
X112418761Y-103028666D01*
X112466380Y-102933428D01*
X112466380Y-102742952D01*
X112418761Y-102647714D01*
X112371142Y-102600095D01*
X112275904Y-102552476D01*
X111466380Y-102552476D01*
X111561619Y-102123904D02*
X111514000Y-102076285D01*
X111466380Y-101981047D01*
X111466380Y-101742952D01*
X111514000Y-101647714D01*
X111561619Y-101600095D01*
X111656857Y-101552476D01*
X111752095Y-101552476D01*
X111894952Y-101600095D01*
X112466380Y-102171523D01*
X112466380Y-101552476D01*
X116785449Y-117954110D02*
X116785449Y-118430300D01*
X116452116Y-117430300D02*
X116785449Y-117954110D01*
X117118782Y-117430300D01*
X117975925Y-118430300D02*
X117404497Y-118430300D01*
X117690211Y-118430300D02*
X117690211Y-117430300D01*
X117594973Y-117573158D01*
X117499735Y-117668396D01*
X117404497Y-117716015D01*
X110293381Y-112922095D02*
X109293381Y-112922095D01*
X109293381Y-112684000D01*
X109341001Y-112541142D01*
X109436239Y-112445904D01*
X109531477Y-112398285D01*
X109721953Y-112350666D01*
X109864810Y-112350666D01*
X110055286Y-112398285D01*
X110150524Y-112445904D01*
X110245762Y-112541142D01*
X110293381Y-112684000D01*
X110293381Y-112922095D01*
X110293381Y-111398285D02*
X110293381Y-111969714D01*
X110293381Y-111684000D02*
X109293381Y-111684000D01*
X109436239Y-111779238D01*
X109531477Y-111874476D01*
X109579096Y-111969714D01*
X110306380Y-116244666D02*
X109830190Y-116578000D01*
X110306380Y-116816095D02*
X109306380Y-116816095D01*
X109306380Y-116435142D01*
X109354000Y-116339904D01*
X109401619Y-116292285D01*
X109496857Y-116244666D01*
X109639714Y-116244666D01*
X109734952Y-116292285D01*
X109782571Y-116339904D01*
X109830190Y-116435142D01*
X109830190Y-116816095D01*
X109306380Y-115387523D02*
X109306380Y-115578000D01*
X109354000Y-115673238D01*
X109401619Y-115720857D01*
X109544476Y-115816095D01*
X109734952Y-115863714D01*
X110115904Y-115863714D01*
X110211142Y-115816095D01*
X110258761Y-115768476D01*
X110306380Y-115673238D01*
X110306380Y-115482761D01*
X110258761Y-115387523D01*
X110211142Y-115339904D01*
X110115904Y-115292285D01*
X109877809Y-115292285D01*
X109782571Y-115339904D01*
X109734952Y-115387523D01*
X109687333Y-115482761D01*
X109687333Y-115673238D01*
X109734952Y-115768476D01*
X109782571Y-115816095D01*
X109877809Y-115863714D01*
X134490380Y-100814095D02*
X133490380Y-100814095D01*
X133490380Y-100576000D01*
X133538000Y-100433142D01*
X133633238Y-100337904D01*
X133728476Y-100290285D01*
X133918952Y-100242666D01*
X134061809Y-100242666D01*
X134252285Y-100290285D01*
X134347523Y-100337904D01*
X134442761Y-100433142D01*
X134490380Y-100576000D01*
X134490380Y-100814095D01*
X133585619Y-99861714D02*
X133538000Y-99814095D01*
X133490380Y-99718857D01*
X133490380Y-99480761D01*
X133538000Y-99385523D01*
X133585619Y-99337904D01*
X133680857Y-99290285D01*
X133776095Y-99290285D01*
X133918952Y-99337904D01*
X134490380Y-99909333D01*
X134490380Y-99290285D01*
X131442380Y-100814095D02*
X130442380Y-100814095D01*
X130442380Y-100576000D01*
X130490000Y-100433142D01*
X130585238Y-100337904D01*
X130680476Y-100290285D01*
X130870952Y-100242666D01*
X131013809Y-100242666D01*
X131204285Y-100290285D01*
X131299523Y-100337904D01*
X131394761Y-100433142D01*
X131442380Y-100576000D01*
X131442380Y-100814095D01*
X130442380Y-99909333D02*
X130442380Y-99290285D01*
X130823333Y-99623619D01*
X130823333Y-99480761D01*
X130870952Y-99385523D01*
X130918571Y-99337904D01*
X131013809Y-99290285D01*
X131251904Y-99290285D01*
X131347142Y-99337904D01*
X131394761Y-99385523D01*
X131442380Y-99480761D01*
X131442380Y-99766476D01*
X131394761Y-99861714D01*
X131347142Y-99909333D01*
X137738380Y-100054666D02*
X137262190Y-100388000D01*
X137738380Y-100626095D02*
X136738380Y-100626095D01*
X136738380Y-100245142D01*
X136786000Y-100149904D01*
X136833619Y-100102285D01*
X136928857Y-100054666D01*
X137071714Y-100054666D01*
X137166952Y-100102285D01*
X137214571Y-100149904D01*
X137262190Y-100245142D01*
X137262190Y-100626095D01*
X136738380Y-99721333D02*
X136738380Y-99054666D01*
X137738380Y-99483238D01*
X128594380Y-100176666D02*
X128118190Y-100510000D01*
X128594380Y-100748095D02*
X127594380Y-100748095D01*
X127594380Y-100367142D01*
X127642000Y-100271904D01*
X127689619Y-100224285D01*
X127784857Y-100176666D01*
X127927714Y-100176666D01*
X128022952Y-100224285D01*
X128070571Y-100271904D01*
X128118190Y-100367142D01*
X128118190Y-100748095D01*
X128022952Y-99605238D02*
X127975333Y-99700476D01*
X127927714Y-99748095D01*
X127832476Y-99795714D01*
X127784857Y-99795714D01*
X127689619Y-99748095D01*
X127642000Y-99700476D01*
X127594380Y-99605238D01*
X127594380Y-99414761D01*
X127642000Y-99319523D01*
X127689619Y-99271904D01*
X127784857Y-99224285D01*
X127832476Y-99224285D01*
X127927714Y-99271904D01*
X127975333Y-99319523D01*
X128022952Y-99414761D01*
X128022952Y-99605238D01*
X128070571Y-99700476D01*
X128118190Y-99748095D01*
X128213428Y-99795714D01*
X128403904Y-99795714D01*
X128499142Y-99748095D01*
X128546761Y-99700476D01*
X128594380Y-99605238D01*
X128594380Y-99414761D01*
X128546761Y-99319523D01*
X128499142Y-99271904D01*
X128403904Y-99224285D01*
X128213428Y-99224285D01*
X128118190Y-99271904D01*
X128070571Y-99319523D01*
X128022952Y-99414761D01*
X106148142Y-123991666D02*
X106195761Y-124039285D01*
X106243380Y-124182142D01*
X106243380Y-124277380D01*
X106195761Y-124420238D01*
X106100523Y-124515476D01*
X106005285Y-124563095D01*
X105814809Y-124610714D01*
X105671952Y-124610714D01*
X105481476Y-124563095D01*
X105386238Y-124515476D01*
X105291000Y-124420238D01*
X105243380Y-124277380D01*
X105243380Y-124182142D01*
X105291000Y-124039285D01*
X105338619Y-123991666D01*
X105243380Y-123134523D02*
X105243380Y-123325000D01*
X105291000Y-123420238D01*
X105338619Y-123467857D01*
X105481476Y-123563095D01*
X105671952Y-123610714D01*
X106052904Y-123610714D01*
X106148142Y-123563095D01*
X106195761Y-123515476D01*
X106243380Y-123420238D01*
X106243380Y-123229761D01*
X106195761Y-123134523D01*
X106148142Y-123086904D01*
X106052904Y-123039285D01*
X105814809Y-123039285D01*
X105719571Y-123086904D01*
X105671952Y-123134523D01*
X105624333Y-123229761D01*
X105624333Y-123420238D01*
X105671952Y-123515476D01*
X105719571Y-123563095D01*
X105814809Y-123610714D01*
X129246380Y-107005333D02*
X129960666Y-107005333D01*
X130103523Y-107052952D01*
X130198761Y-107148190D01*
X130246380Y-107291047D01*
X130246380Y-107386285D01*
X130246380Y-106529142D02*
X129246380Y-106529142D01*
X129246380Y-106148190D01*
X129294000Y-106052952D01*
X129341619Y-106005333D01*
X129436857Y-105957714D01*
X129579714Y-105957714D01*
X129674952Y-106005333D01*
X129722571Y-106052952D01*
X129770190Y-106148190D01*
X129770190Y-106529142D01*
X130246380Y-105005333D02*
X130246380Y-105576761D01*
X130246380Y-105291047D02*
X129246380Y-105291047D01*
X129389238Y-105386285D01*
X129484476Y-105481523D01*
X129532095Y-105576761D01*
X129246380Y-109799333D02*
X129960666Y-109799333D01*
X130103523Y-109846952D01*
X130198761Y-109942190D01*
X130246380Y-110085047D01*
X130246380Y-110180285D01*
X130246380Y-109323142D02*
X129246380Y-109323142D01*
X129246380Y-108942190D01*
X129294000Y-108846952D01*
X129341619Y-108799333D01*
X129436857Y-108751714D01*
X129579714Y-108751714D01*
X129674952Y-108799333D01*
X129722571Y-108846952D01*
X129770190Y-108942190D01*
X129770190Y-109323142D01*
X129341619Y-108370761D02*
X129294000Y-108323142D01*
X129246380Y-108227904D01*
X129246380Y-107989809D01*
X129294000Y-107894571D01*
X129341619Y-107846952D01*
X129436857Y-107799333D01*
X129532095Y-107799333D01*
X129674952Y-107846952D01*
X130246380Y-108418380D01*
X130246380Y-107799333D01*
M02*
