G04 #@! TF.GenerationSoftware,KiCad,Pcbnew,(5.1.4-0-10_14)*
G04 #@! TF.CreationDate,2020-01-14T22:34:08-05:00*
G04 #@! TF.ProjectId,Charging_LCD_Display,43686172-6769-46e6-975f-4c43445f4469,rev?*
G04 #@! TF.SameCoordinates,Original*
G04 #@! TF.FileFunction,Soldermask,Top*
G04 #@! TF.FilePolarity,Negative*
%FSLAX46Y46*%
G04 Gerber Fmt 4.6, Leading zero omitted, Abs format (unit mm)*
G04 Created by KiCad (PCBNEW (5.1.4-0-10_14)) date 2020-01-14 22:34:08*
%MOMM*%
%LPD*%
G04 APERTURE LIST*
%ADD10C,0.100000*%
G04 APERTURE END LIST*
D10*
G36*
X156020721Y-135236174D02*
G01*
X156120995Y-135277709D01*
X156120996Y-135277710D01*
X156211242Y-135338010D01*
X156287990Y-135414758D01*
X156287991Y-135414760D01*
X156348291Y-135505005D01*
X156389826Y-135605279D01*
X156411000Y-135711730D01*
X156411000Y-135820270D01*
X156389826Y-135926721D01*
X156348291Y-136026995D01*
X156348290Y-136026996D01*
X156287990Y-136117242D01*
X156211242Y-136193990D01*
X156165812Y-136224345D01*
X156120995Y-136254291D01*
X156020721Y-136295826D01*
X155914270Y-136317000D01*
X155805730Y-136317000D01*
X155699279Y-136295826D01*
X155599005Y-136254291D01*
X155554188Y-136224345D01*
X155508758Y-136193990D01*
X155432010Y-136117242D01*
X155371710Y-136026996D01*
X155371709Y-136026995D01*
X155330174Y-135926721D01*
X155309000Y-135820270D01*
X155309000Y-135711730D01*
X155330174Y-135605279D01*
X155371709Y-135505005D01*
X155432009Y-135414760D01*
X155432010Y-135414758D01*
X155508758Y-135338010D01*
X155599004Y-135277710D01*
X155599005Y-135277709D01*
X155699279Y-135236174D01*
X155805730Y-135215000D01*
X155914270Y-135215000D01*
X156020721Y-135236174D01*
X156020721Y-135236174D01*
G37*
G36*
X147020721Y-135236174D02*
G01*
X147120995Y-135277709D01*
X147120996Y-135277710D01*
X147211242Y-135338010D01*
X147287990Y-135414758D01*
X147287991Y-135414760D01*
X147348291Y-135505005D01*
X147389826Y-135605279D01*
X147411000Y-135711730D01*
X147411000Y-135820270D01*
X147389826Y-135926721D01*
X147348291Y-136026995D01*
X147348290Y-136026996D01*
X147287990Y-136117242D01*
X147211242Y-136193990D01*
X147165812Y-136224345D01*
X147120995Y-136254291D01*
X147020721Y-136295826D01*
X146914270Y-136317000D01*
X146805730Y-136317000D01*
X146699279Y-136295826D01*
X146599005Y-136254291D01*
X146554188Y-136224345D01*
X146508758Y-136193990D01*
X146432010Y-136117242D01*
X146371710Y-136026996D01*
X146371709Y-136026995D01*
X146330174Y-135926721D01*
X146309000Y-135820270D01*
X146309000Y-135711730D01*
X146330174Y-135605279D01*
X146371709Y-135505005D01*
X146432009Y-135414760D01*
X146432010Y-135414758D01*
X146508758Y-135338010D01*
X146599004Y-135277710D01*
X146599005Y-135277709D01*
X146699279Y-135236174D01*
X146805730Y-135215000D01*
X146914270Y-135215000D01*
X147020721Y-135236174D01*
X147020721Y-135236174D01*
G37*
G36*
X153093642Y-134055781D02*
G01*
X153239414Y-134116162D01*
X153239416Y-134116163D01*
X153370608Y-134203822D01*
X153482178Y-134315392D01*
X153526576Y-134381839D01*
X153569838Y-134446586D01*
X153630219Y-134592358D01*
X153661000Y-134747107D01*
X153661000Y-134904893D01*
X153630219Y-135059642D01*
X153621579Y-135080500D01*
X153569837Y-135205416D01*
X153482178Y-135336608D01*
X153370608Y-135448178D01*
X153239416Y-135535837D01*
X153239415Y-135535838D01*
X153239414Y-135535838D01*
X153093642Y-135596219D01*
X152938893Y-135627000D01*
X152781107Y-135627000D01*
X152626358Y-135596219D01*
X152480586Y-135535838D01*
X152480585Y-135535838D01*
X152480584Y-135535837D01*
X152349392Y-135448178D01*
X152237822Y-135336608D01*
X152150163Y-135205416D01*
X152098421Y-135080500D01*
X152089781Y-135059642D01*
X152059000Y-134904893D01*
X152059000Y-134747107D01*
X152089781Y-134592358D01*
X152150162Y-134446586D01*
X152193424Y-134381839D01*
X152237822Y-134315392D01*
X152349392Y-134203822D01*
X152480584Y-134116163D01*
X152480586Y-134116162D01*
X152626358Y-134055781D01*
X152781107Y-134025000D01*
X152938893Y-134025000D01*
X153093642Y-134055781D01*
X153093642Y-134055781D01*
G37*
G36*
X150093642Y-134055781D02*
G01*
X150239414Y-134116162D01*
X150239416Y-134116163D01*
X150370608Y-134203822D01*
X150482178Y-134315392D01*
X150526576Y-134381839D01*
X150569838Y-134446586D01*
X150630219Y-134592358D01*
X150661000Y-134747107D01*
X150661000Y-134904893D01*
X150630219Y-135059642D01*
X150621579Y-135080500D01*
X150569837Y-135205416D01*
X150482178Y-135336608D01*
X150370608Y-135448178D01*
X150239416Y-135535837D01*
X150239415Y-135535838D01*
X150239414Y-135535838D01*
X150093642Y-135596219D01*
X149938893Y-135627000D01*
X149781107Y-135627000D01*
X149626358Y-135596219D01*
X149480586Y-135535838D01*
X149480585Y-135535838D01*
X149480584Y-135535837D01*
X149349392Y-135448178D01*
X149237822Y-135336608D01*
X149150163Y-135205416D01*
X149098421Y-135080500D01*
X149089781Y-135059642D01*
X149059000Y-134904893D01*
X149059000Y-134747107D01*
X149089781Y-134592358D01*
X149150162Y-134446586D01*
X149193424Y-134381839D01*
X149237822Y-134315392D01*
X149349392Y-134203822D01*
X149480584Y-134116163D01*
X149480586Y-134116162D01*
X149626358Y-134055781D01*
X149781107Y-134025000D01*
X149938893Y-134025000D01*
X150093642Y-134055781D01*
X150093642Y-134055781D01*
G37*
G36*
X109548600Y-135080500D02*
G01*
X108246600Y-135080500D01*
X108246600Y-133778500D01*
X109548600Y-133778500D01*
X109548600Y-135080500D01*
X109548600Y-135080500D01*
G37*
G36*
X107348600Y-135080500D02*
G01*
X106046600Y-135080500D01*
X106046600Y-133778500D01*
X107348600Y-133778500D01*
X107348600Y-135080500D01*
X107348600Y-135080500D01*
G37*
G36*
X115204600Y-134710500D02*
G01*
X113852600Y-134710500D01*
X113852600Y-133608500D01*
X115204600Y-133608500D01*
X115204600Y-134710500D01*
X115204600Y-134710500D01*
G37*
G36*
X113299600Y-134710500D02*
G01*
X111947600Y-134710500D01*
X111947600Y-133608500D01*
X113299600Y-133608500D01*
X113299600Y-134710500D01*
X113299600Y-134710500D01*
G37*
G36*
X111098191Y-133462585D02*
G01*
X111132169Y-133472893D01*
X111163490Y-133489634D01*
X111190939Y-133512161D01*
X111213466Y-133539610D01*
X111230207Y-133570931D01*
X111240515Y-133604909D01*
X111244600Y-133646390D01*
X111244600Y-134247610D01*
X111240515Y-134289091D01*
X111230207Y-134323069D01*
X111213466Y-134354390D01*
X111190939Y-134381839D01*
X111163490Y-134404366D01*
X111132169Y-134421107D01*
X111098191Y-134431415D01*
X111056710Y-134435500D01*
X110380490Y-134435500D01*
X110339009Y-134431415D01*
X110305031Y-134421107D01*
X110273710Y-134404366D01*
X110246261Y-134381839D01*
X110223734Y-134354390D01*
X110206993Y-134323069D01*
X110196685Y-134289091D01*
X110192600Y-134247610D01*
X110192600Y-133646390D01*
X110196685Y-133604909D01*
X110206993Y-133570931D01*
X110223734Y-133539610D01*
X110246261Y-133512161D01*
X110273710Y-133489634D01*
X110305031Y-133472893D01*
X110339009Y-133462585D01*
X110380490Y-133458500D01*
X111056710Y-133458500D01*
X111098191Y-133462585D01*
X111098191Y-133462585D01*
G37*
G36*
X123444200Y-133286700D02*
G01*
X121361000Y-133286700D01*
X121361000Y-130492300D01*
X123444200Y-130492300D01*
X123444200Y-133286700D01*
X123444200Y-133286700D01*
G37*
G36*
X119380200Y-133286700D02*
G01*
X117297000Y-133286700D01*
X117297000Y-130492300D01*
X119380200Y-130492300D01*
X119380200Y-133286700D01*
X119380200Y-133286700D01*
G37*
G36*
X107629600Y-133098500D02*
G01*
X106827600Y-133098500D01*
X106827600Y-131696500D01*
X107629600Y-131696500D01*
X107629600Y-133098500D01*
X107629600Y-133098500D01*
G37*
G36*
X109529600Y-133098500D02*
G01*
X108727600Y-133098500D01*
X108727600Y-131696500D01*
X109529600Y-131696500D01*
X109529600Y-133098500D01*
X109529600Y-133098500D01*
G37*
G36*
X111098191Y-131887585D02*
G01*
X111132169Y-131897893D01*
X111163490Y-131914634D01*
X111190939Y-131937161D01*
X111213466Y-131964610D01*
X111230207Y-131995931D01*
X111240515Y-132029909D01*
X111244600Y-132071390D01*
X111244600Y-132672610D01*
X111240515Y-132714091D01*
X111230207Y-132748069D01*
X111213466Y-132779390D01*
X111190939Y-132806839D01*
X111163490Y-132829366D01*
X111132169Y-132846107D01*
X111098191Y-132856415D01*
X111056710Y-132860500D01*
X110380490Y-132860500D01*
X110339009Y-132856415D01*
X110305031Y-132846107D01*
X110273710Y-132829366D01*
X110246261Y-132806839D01*
X110223734Y-132779390D01*
X110206993Y-132748069D01*
X110196685Y-132714091D01*
X110192600Y-132672610D01*
X110192600Y-132071390D01*
X110196685Y-132029909D01*
X110206993Y-131995931D01*
X110223734Y-131964610D01*
X110246261Y-131937161D01*
X110273710Y-131914634D01*
X110305031Y-131897893D01*
X110339009Y-131887585D01*
X110380490Y-131883500D01*
X111056710Y-131883500D01*
X111098191Y-131887585D01*
X111098191Y-131887585D01*
G37*
G36*
X113299600Y-132710500D02*
G01*
X111947600Y-132710500D01*
X111947600Y-131608500D01*
X113299600Y-131608500D01*
X113299600Y-132710500D01*
X113299600Y-132710500D01*
G37*
G36*
X115204600Y-132710500D02*
G01*
X113852600Y-132710500D01*
X113852600Y-131608500D01*
X115204600Y-131608500D01*
X115204600Y-132710500D01*
X115204600Y-132710500D01*
G37*
G36*
X150513048Y-131029122D02*
G01*
X150547387Y-131039539D01*
X150579036Y-131056456D01*
X150606778Y-131079222D01*
X150629544Y-131106964D01*
X150646461Y-131138613D01*
X150656878Y-131172952D01*
X150661000Y-131214807D01*
X150661000Y-132437193D01*
X150656878Y-132479048D01*
X150646461Y-132513387D01*
X150629544Y-132545036D01*
X150606778Y-132572778D01*
X150579036Y-132595544D01*
X150547387Y-132612461D01*
X150513048Y-132622878D01*
X150471193Y-132627000D01*
X149248807Y-132627000D01*
X149206952Y-132622878D01*
X149172613Y-132612461D01*
X149140964Y-132595544D01*
X149113222Y-132572778D01*
X149090456Y-132545036D01*
X149073539Y-132513387D01*
X149063122Y-132479048D01*
X149059000Y-132437193D01*
X149059000Y-131214807D01*
X149063122Y-131172952D01*
X149073539Y-131138613D01*
X149090456Y-131106964D01*
X149113222Y-131079222D01*
X149140964Y-131056456D01*
X149172613Y-131039539D01*
X149206952Y-131029122D01*
X149248807Y-131025000D01*
X150471193Y-131025000D01*
X150513048Y-131029122D01*
X150513048Y-131029122D01*
G37*
G36*
X153093642Y-131055781D02*
G01*
X153217208Y-131106964D01*
X153239416Y-131116163D01*
X153370608Y-131203822D01*
X153482178Y-131315392D01*
X153569837Y-131446584D01*
X153569838Y-131446586D01*
X153630219Y-131592358D01*
X153661000Y-131747107D01*
X153661000Y-131904893D01*
X153630219Y-132059642D01*
X153569838Y-132205414D01*
X153569837Y-132205416D01*
X153482178Y-132336608D01*
X153370608Y-132448178D01*
X153239416Y-132535837D01*
X153239415Y-132535838D01*
X153239414Y-132535838D01*
X153093642Y-132596219D01*
X152938893Y-132627000D01*
X152781107Y-132627000D01*
X152626358Y-132596219D01*
X152480586Y-132535838D01*
X152480585Y-132535838D01*
X152480584Y-132535837D01*
X152349392Y-132448178D01*
X152237822Y-132336608D01*
X152150163Y-132205416D01*
X152150162Y-132205414D01*
X152089781Y-132059642D01*
X152059000Y-131904893D01*
X152059000Y-131747107D01*
X152089781Y-131592358D01*
X152150162Y-131446586D01*
X152150163Y-131446584D01*
X152237822Y-131315392D01*
X152349392Y-131203822D01*
X152480584Y-131116163D01*
X152502792Y-131106964D01*
X152626358Y-131055781D01*
X152781107Y-131025000D01*
X152938893Y-131025000D01*
X153093642Y-131055781D01*
X153093642Y-131055781D01*
G37*
G36*
X128271600Y-132057500D02*
G01*
X127169600Y-132057500D01*
X127169600Y-130705500D01*
X128271600Y-130705500D01*
X128271600Y-132057500D01*
X128271600Y-132057500D01*
G37*
G36*
X126271600Y-132057500D02*
G01*
X125169600Y-132057500D01*
X125169600Y-130705500D01*
X126271600Y-130705500D01*
X126271600Y-132057500D01*
X126271600Y-132057500D01*
G37*
G36*
X113708407Y-127348998D02*
G01*
X113746418Y-127360529D01*
X113781442Y-127379249D01*
X113812149Y-127404451D01*
X113837351Y-127435158D01*
X113856071Y-127470182D01*
X113867602Y-127508193D01*
X113872100Y-127553863D01*
X113872100Y-130637137D01*
X113867602Y-130682807D01*
X113856071Y-130720818D01*
X113837351Y-130755842D01*
X113812149Y-130786549D01*
X113781442Y-130811751D01*
X113746418Y-130830471D01*
X113708407Y-130842002D01*
X113662737Y-130846500D01*
X112854463Y-130846500D01*
X112808793Y-130842002D01*
X112770782Y-130830471D01*
X112735758Y-130811751D01*
X112705051Y-130786549D01*
X112679849Y-130755842D01*
X112661129Y-130720818D01*
X112649598Y-130682807D01*
X112645100Y-130637137D01*
X112645100Y-127553863D01*
X112649598Y-127508193D01*
X112661129Y-127470182D01*
X112679849Y-127435158D01*
X112705051Y-127404451D01*
X112735758Y-127379249D01*
X112770782Y-127360529D01*
X112808793Y-127348998D01*
X112854463Y-127344500D01*
X113662737Y-127344500D01*
X113708407Y-127348998D01*
X113708407Y-127348998D01*
G37*
G36*
X109433407Y-127348998D02*
G01*
X109471418Y-127360529D01*
X109506442Y-127379249D01*
X109537149Y-127404451D01*
X109562351Y-127435158D01*
X109581071Y-127470182D01*
X109592602Y-127508193D01*
X109597100Y-127553863D01*
X109597100Y-130637137D01*
X109592602Y-130682807D01*
X109581071Y-130720818D01*
X109562351Y-130755842D01*
X109537149Y-130786549D01*
X109506442Y-130811751D01*
X109471418Y-130830471D01*
X109433407Y-130842002D01*
X109387737Y-130846500D01*
X108579463Y-130846500D01*
X108533793Y-130842002D01*
X108495782Y-130830471D01*
X108460758Y-130811751D01*
X108430051Y-130786549D01*
X108404849Y-130755842D01*
X108386129Y-130720818D01*
X108374598Y-130682807D01*
X108370100Y-130637137D01*
X108370100Y-127553863D01*
X108374598Y-127508193D01*
X108386129Y-127470182D01*
X108404849Y-127435158D01*
X108430051Y-127404451D01*
X108460758Y-127379249D01*
X108495782Y-127360529D01*
X108533793Y-127348998D01*
X108579463Y-127344500D01*
X109387737Y-127344500D01*
X109433407Y-127348998D01*
X109433407Y-127348998D01*
G37*
G36*
X125287600Y-129946500D02*
G01*
X124185600Y-129946500D01*
X124185600Y-128244500D01*
X125287600Y-128244500D01*
X125287600Y-129946500D01*
X125287600Y-129946500D01*
G37*
G36*
X128287600Y-129946500D02*
G01*
X127185600Y-129946500D01*
X127185600Y-128244500D01*
X128287600Y-128244500D01*
X128287600Y-129946500D01*
X128287600Y-129946500D01*
G37*
G36*
X143062600Y-129910800D02*
G01*
X142260600Y-129910800D01*
X142260600Y-128508800D01*
X143062600Y-128508800D01*
X143062600Y-129910800D01*
X143062600Y-129910800D01*
G37*
G36*
X144962600Y-129910800D02*
G01*
X144160600Y-129910800D01*
X144160600Y-128508800D01*
X144962600Y-128508800D01*
X144962600Y-129910800D01*
X144962600Y-129910800D01*
G37*
G36*
X118210191Y-127112585D02*
G01*
X118244169Y-127122893D01*
X118275490Y-127139634D01*
X118302939Y-127162161D01*
X118325466Y-127189610D01*
X118342207Y-127220931D01*
X118352515Y-127254909D01*
X118356600Y-127296390D01*
X118356600Y-127897610D01*
X118352515Y-127939091D01*
X118342207Y-127973069D01*
X118325466Y-128004390D01*
X118302939Y-128031839D01*
X118275490Y-128054366D01*
X118244169Y-128071107D01*
X118210191Y-128081415D01*
X118168710Y-128085500D01*
X117492490Y-128085500D01*
X117451009Y-128081415D01*
X117417031Y-128071107D01*
X117385710Y-128054366D01*
X117358261Y-128031839D01*
X117335734Y-128004390D01*
X117318993Y-127973069D01*
X117308685Y-127939091D01*
X117304600Y-127897610D01*
X117304600Y-127296390D01*
X117308685Y-127254909D01*
X117318993Y-127220931D01*
X117335734Y-127189610D01*
X117358261Y-127162161D01*
X117385710Y-127139634D01*
X117417031Y-127122893D01*
X117451009Y-127112585D01*
X117492490Y-127108500D01*
X118168710Y-127108500D01*
X118210191Y-127112585D01*
X118210191Y-127112585D01*
G37*
G36*
X116449600Y-128036700D02*
G01*
X115147600Y-128036700D01*
X115147600Y-127234700D01*
X116449600Y-127234700D01*
X116449600Y-128036700D01*
X116449600Y-128036700D01*
G37*
G36*
X107658100Y-127749500D02*
G01*
X105397100Y-127749500D01*
X105397100Y-125869500D01*
X107658100Y-125869500D01*
X107658100Y-127749500D01*
X107658100Y-127749500D01*
G37*
G36*
X123762907Y-124046998D02*
G01*
X123800918Y-124058529D01*
X123835942Y-124077249D01*
X123866649Y-124102451D01*
X123891851Y-124133158D01*
X123910571Y-124168182D01*
X123922102Y-124206193D01*
X123926600Y-124251863D01*
X123926600Y-127335137D01*
X123922102Y-127380807D01*
X123910571Y-127418818D01*
X123891851Y-127453842D01*
X123866649Y-127484549D01*
X123835942Y-127509751D01*
X123800918Y-127528471D01*
X123762907Y-127540002D01*
X123717237Y-127544500D01*
X122908963Y-127544500D01*
X122863293Y-127540002D01*
X122825282Y-127528471D01*
X122790258Y-127509751D01*
X122759551Y-127484549D01*
X122734349Y-127453842D01*
X122715629Y-127418818D01*
X122704098Y-127380807D01*
X122699600Y-127335137D01*
X122699600Y-124251863D01*
X122704098Y-124206193D01*
X122715629Y-124168182D01*
X122734349Y-124133158D01*
X122759551Y-124102451D01*
X122790258Y-124077249D01*
X122825282Y-124058529D01*
X122863293Y-124046998D01*
X122908963Y-124042500D01*
X123717237Y-124042500D01*
X123762907Y-124046998D01*
X123762907Y-124046998D01*
G37*
G36*
X128037907Y-124046998D02*
G01*
X128075918Y-124058529D01*
X128110942Y-124077249D01*
X128141649Y-124102451D01*
X128166851Y-124133158D01*
X128185571Y-124168182D01*
X128197102Y-124206193D01*
X128201600Y-124251863D01*
X128201600Y-127335137D01*
X128197102Y-127380807D01*
X128185571Y-127418818D01*
X128166851Y-127453842D01*
X128141649Y-127484549D01*
X128110942Y-127509751D01*
X128075918Y-127528471D01*
X128037907Y-127540002D01*
X127992237Y-127544500D01*
X127183963Y-127544500D01*
X127138293Y-127540002D01*
X127100282Y-127528471D01*
X127065258Y-127509751D01*
X127034551Y-127484549D01*
X127009349Y-127453842D01*
X126990629Y-127418818D01*
X126979098Y-127380807D01*
X126974600Y-127335137D01*
X126974600Y-124251863D01*
X126979098Y-124206193D01*
X126990629Y-124168182D01*
X127009349Y-124133158D01*
X127034551Y-124102451D01*
X127065258Y-124077249D01*
X127100282Y-124058529D01*
X127138293Y-124046998D01*
X127183963Y-124042500D01*
X127992237Y-124042500D01*
X128037907Y-124046998D01*
X128037907Y-124046998D01*
G37*
G36*
X136711000Y-127422000D02*
G01*
X135609000Y-127422000D01*
X135609000Y-126070000D01*
X136711000Y-126070000D01*
X136711000Y-127422000D01*
X136711000Y-127422000D01*
G37*
G36*
X138711000Y-127422000D02*
G01*
X137609000Y-127422000D01*
X137609000Y-126070000D01*
X138711000Y-126070000D01*
X138711000Y-127422000D01*
X138711000Y-127422000D01*
G37*
G36*
X149071000Y-127077000D02*
G01*
X140069000Y-127077000D01*
X140069000Y-125225000D01*
X149071000Y-125225000D01*
X149071000Y-127077000D01*
X149071000Y-127077000D01*
G37*
G36*
X116449600Y-126536700D02*
G01*
X115147600Y-126536700D01*
X115147600Y-125734700D01*
X116449600Y-125734700D01*
X116449600Y-126536700D01*
X116449600Y-126536700D01*
G37*
G36*
X118210191Y-125537585D02*
G01*
X118244169Y-125547893D01*
X118275490Y-125564634D01*
X118302939Y-125587161D01*
X118325466Y-125614610D01*
X118342207Y-125645931D01*
X118352515Y-125679909D01*
X118356600Y-125721390D01*
X118356600Y-126322610D01*
X118352515Y-126364091D01*
X118342207Y-126398069D01*
X118325466Y-126429390D01*
X118302939Y-126456839D01*
X118275490Y-126479366D01*
X118244169Y-126496107D01*
X118210191Y-126506415D01*
X118168710Y-126510500D01*
X117492490Y-126510500D01*
X117451009Y-126506415D01*
X117417031Y-126496107D01*
X117385710Y-126479366D01*
X117358261Y-126456839D01*
X117335734Y-126429390D01*
X117318993Y-126398069D01*
X117308685Y-126364091D01*
X117304600Y-126322610D01*
X117304600Y-125721390D01*
X117308685Y-125679909D01*
X117318993Y-125645931D01*
X117335734Y-125614610D01*
X117358261Y-125587161D01*
X117385710Y-125564634D01*
X117417031Y-125547893D01*
X117451009Y-125537585D01*
X117492490Y-125533500D01*
X118168710Y-125533500D01*
X118210191Y-125537585D01*
X118210191Y-125537585D01*
G37*
G36*
X113847600Y-125986500D02*
G01*
X113045600Y-125986500D01*
X113045600Y-124584500D01*
X113847600Y-124584500D01*
X113847600Y-125986500D01*
X113847600Y-125986500D01*
G37*
G36*
X111947600Y-125986500D02*
G01*
X111145600Y-125986500D01*
X111145600Y-124584500D01*
X111947600Y-124584500D01*
X111947600Y-125986500D01*
X111947600Y-125986500D01*
G37*
G36*
X151951000Y-124882000D02*
G01*
X150849000Y-124882000D01*
X150849000Y-123530000D01*
X151951000Y-123530000D01*
X151951000Y-124882000D01*
X151951000Y-124882000D01*
G37*
G36*
X136711000Y-124882000D02*
G01*
X135609000Y-124882000D01*
X135609000Y-123530000D01*
X136711000Y-123530000D01*
X136711000Y-124882000D01*
X136711000Y-124882000D01*
G37*
G36*
X138711000Y-124882000D02*
G01*
X137609000Y-124882000D01*
X137609000Y-123530000D01*
X138711000Y-123530000D01*
X138711000Y-124882000D01*
X138711000Y-124882000D01*
G37*
G36*
X153951000Y-124882000D02*
G01*
X152849000Y-124882000D01*
X152849000Y-123530000D01*
X153951000Y-123530000D01*
X153951000Y-124882000D01*
X153951000Y-124882000D01*
G37*
G36*
X114099300Y-123880600D02*
G01*
X112697300Y-123880600D01*
X112697300Y-123078600D01*
X114099300Y-123078600D01*
X114099300Y-123880600D01*
X114099300Y-123880600D01*
G37*
G36*
X107658100Y-123685500D02*
G01*
X105397100Y-123685500D01*
X105397100Y-121805500D01*
X107658100Y-121805500D01*
X107658100Y-123685500D01*
X107658100Y-123685500D01*
G37*
G36*
X125577600Y-123348500D02*
G01*
X122275600Y-123348500D01*
X122275600Y-122246500D01*
X125577600Y-122246500D01*
X125577600Y-123348500D01*
X125577600Y-123348500D01*
G37*
G36*
X152051000Y-123117000D02*
G01*
X150549000Y-123117000D01*
X150549000Y-121815000D01*
X152051000Y-121815000D01*
X152051000Y-123117000D01*
X152051000Y-123117000D01*
G37*
G36*
X154251000Y-123117000D02*
G01*
X152749000Y-123117000D01*
X152749000Y-121815000D01*
X154251000Y-121815000D01*
X154251000Y-123117000D01*
X154251000Y-123117000D01*
G37*
G36*
X127866900Y-122845500D02*
G01*
X126564900Y-122845500D01*
X126564900Y-121543500D01*
X127866900Y-121543500D01*
X127866900Y-122845500D01*
X127866900Y-122845500D01*
G37*
G36*
X117657600Y-122684500D02*
G01*
X116855600Y-122684500D01*
X116855600Y-121282500D01*
X117657600Y-121282500D01*
X117657600Y-122684500D01*
X117657600Y-122684500D01*
G37*
G36*
X115757600Y-122684500D02*
G01*
X114955600Y-122684500D01*
X114955600Y-121282500D01*
X115757600Y-121282500D01*
X115757600Y-122684500D01*
X115757600Y-122684500D01*
G37*
G36*
X138711000Y-122342000D02*
G01*
X137609000Y-122342000D01*
X137609000Y-120990000D01*
X138711000Y-120990000D01*
X138711000Y-122342000D01*
X138711000Y-122342000D01*
G37*
G36*
X136711000Y-122342000D02*
G01*
X135609000Y-122342000D01*
X135609000Y-120990000D01*
X136711000Y-120990000D01*
X136711000Y-122342000D01*
X136711000Y-122342000D01*
G37*
G36*
X114099300Y-121980600D02*
G01*
X112697300Y-121980600D01*
X112697300Y-121178600D01*
X114099300Y-121178600D01*
X114099300Y-121980600D01*
X114099300Y-121980600D01*
G37*
G36*
X152051000Y-121517000D02*
G01*
X150549000Y-121517000D01*
X150549000Y-120215000D01*
X152051000Y-120215000D01*
X152051000Y-121517000D01*
X152051000Y-121517000D01*
G37*
G36*
X154251000Y-121517000D02*
G01*
X152749000Y-121517000D01*
X152749000Y-120215000D01*
X154251000Y-120215000D01*
X154251000Y-121517000D01*
X154251000Y-121517000D01*
G37*
G36*
X127866900Y-120645500D02*
G01*
X126564900Y-120645500D01*
X126564900Y-119343500D01*
X127866900Y-119343500D01*
X127866900Y-120645500D01*
X127866900Y-120645500D01*
G37*
G36*
X149071000Y-119877000D02*
G01*
X140069000Y-119877000D01*
X140069000Y-118025000D01*
X149071000Y-118025000D01*
X149071000Y-119877000D01*
X149071000Y-119877000D01*
G37*
G36*
X134858400Y-119573000D02*
G01*
X134056400Y-119573000D01*
X134056400Y-118171000D01*
X134858400Y-118171000D01*
X134858400Y-119573000D01*
X134858400Y-119573000D01*
G37*
G36*
X136758400Y-119573000D02*
G01*
X135956400Y-119573000D01*
X135956400Y-118171000D01*
X136758400Y-118171000D01*
X136758400Y-119573000D01*
X136758400Y-119573000D01*
G37*
G36*
X151806000Y-119407000D02*
G01*
X150454000Y-119407000D01*
X150454000Y-118305000D01*
X151806000Y-118305000D01*
X151806000Y-119407000D01*
X151806000Y-119407000D01*
G37*
G36*
X117283691Y-117651585D02*
G01*
X117317669Y-117661893D01*
X117348990Y-117678634D01*
X117376439Y-117701161D01*
X117398966Y-117728610D01*
X117415707Y-117759931D01*
X117426015Y-117793909D01*
X117430100Y-117835390D01*
X117430100Y-118511610D01*
X117426015Y-118553091D01*
X117415707Y-118587069D01*
X117398966Y-118618390D01*
X117376439Y-118645839D01*
X117348990Y-118668366D01*
X117317669Y-118685107D01*
X117283691Y-118695415D01*
X117242210Y-118699500D01*
X116640990Y-118699500D01*
X116599509Y-118695415D01*
X116565531Y-118685107D01*
X116534210Y-118668366D01*
X116506761Y-118645839D01*
X116484234Y-118618390D01*
X116467493Y-118587069D01*
X116457185Y-118553091D01*
X116453100Y-118511610D01*
X116453100Y-117835390D01*
X116457185Y-117793909D01*
X116467493Y-117759931D01*
X116484234Y-117728610D01*
X116506761Y-117701161D01*
X116534210Y-117678634D01*
X116565531Y-117661893D01*
X116599509Y-117651585D01*
X116640990Y-117647500D01*
X117242210Y-117647500D01*
X117283691Y-117651585D01*
X117283691Y-117651585D01*
G37*
G36*
X115708691Y-117651585D02*
G01*
X115742669Y-117661893D01*
X115773990Y-117678634D01*
X115801439Y-117701161D01*
X115823966Y-117728610D01*
X115840707Y-117759931D01*
X115851015Y-117793909D01*
X115855100Y-117835390D01*
X115855100Y-118511610D01*
X115851015Y-118553091D01*
X115840707Y-118587069D01*
X115823966Y-118618390D01*
X115801439Y-118645839D01*
X115773990Y-118668366D01*
X115742669Y-118685107D01*
X115708691Y-118695415D01*
X115667210Y-118699500D01*
X115065990Y-118699500D01*
X115024509Y-118695415D01*
X114990531Y-118685107D01*
X114959210Y-118668366D01*
X114931761Y-118645839D01*
X114909234Y-118618390D01*
X114892493Y-118587069D01*
X114882185Y-118553091D01*
X114878100Y-118511610D01*
X114878100Y-117835390D01*
X114882185Y-117793909D01*
X114892493Y-117759931D01*
X114909234Y-117728610D01*
X114931761Y-117701161D01*
X114959210Y-117678634D01*
X114990531Y-117661893D01*
X115024509Y-117651585D01*
X115065990Y-117647500D01*
X115667210Y-117647500D01*
X115708691Y-117651585D01*
X115708691Y-117651585D01*
G37*
G36*
X114134191Y-117651585D02*
G01*
X114168169Y-117661893D01*
X114199490Y-117678634D01*
X114226939Y-117701161D01*
X114249466Y-117728610D01*
X114266207Y-117759931D01*
X114276515Y-117793909D01*
X114280600Y-117835390D01*
X114280600Y-118511610D01*
X114276515Y-118553091D01*
X114266207Y-118587069D01*
X114249466Y-118618390D01*
X114226939Y-118645839D01*
X114199490Y-118668366D01*
X114168169Y-118685107D01*
X114134191Y-118695415D01*
X114092710Y-118699500D01*
X113491490Y-118699500D01*
X113450009Y-118695415D01*
X113416031Y-118685107D01*
X113384710Y-118668366D01*
X113357261Y-118645839D01*
X113334734Y-118618390D01*
X113317993Y-118587069D01*
X113307685Y-118553091D01*
X113303600Y-118511610D01*
X113303600Y-117835390D01*
X113307685Y-117793909D01*
X113317993Y-117759931D01*
X113334734Y-117728610D01*
X113357261Y-117701161D01*
X113384710Y-117678634D01*
X113416031Y-117661893D01*
X113450009Y-117651585D01*
X113491490Y-117647500D01*
X114092710Y-117647500D01*
X114134191Y-117651585D01*
X114134191Y-117651585D01*
G37*
G36*
X112559191Y-117651585D02*
G01*
X112593169Y-117661893D01*
X112624490Y-117678634D01*
X112651939Y-117701161D01*
X112674466Y-117728610D01*
X112691207Y-117759931D01*
X112701515Y-117793909D01*
X112705600Y-117835390D01*
X112705600Y-118511610D01*
X112701515Y-118553091D01*
X112691207Y-118587069D01*
X112674466Y-118618390D01*
X112651939Y-118645839D01*
X112624490Y-118668366D01*
X112593169Y-118685107D01*
X112559191Y-118695415D01*
X112517710Y-118699500D01*
X111916490Y-118699500D01*
X111875009Y-118695415D01*
X111841031Y-118685107D01*
X111809710Y-118668366D01*
X111782261Y-118645839D01*
X111759734Y-118618390D01*
X111742993Y-118587069D01*
X111732685Y-118553091D01*
X111728600Y-118511610D01*
X111728600Y-117835390D01*
X111732685Y-117793909D01*
X111742993Y-117759931D01*
X111759734Y-117728610D01*
X111782261Y-117701161D01*
X111809710Y-117678634D01*
X111841031Y-117661893D01*
X111875009Y-117651585D01*
X111916490Y-117647500D01*
X112517710Y-117647500D01*
X112559191Y-117651585D01*
X112559191Y-117651585D01*
G37*
G36*
X129087600Y-118620500D02*
G01*
X128285600Y-118620500D01*
X128285600Y-117218500D01*
X129087600Y-117218500D01*
X129087600Y-118620500D01*
X129087600Y-118620500D01*
G37*
G36*
X127187600Y-118620500D02*
G01*
X126385600Y-118620500D01*
X126385600Y-117218500D01*
X127187600Y-117218500D01*
X127187600Y-118620500D01*
X127187600Y-118620500D01*
G37*
G36*
X151806000Y-117407000D02*
G01*
X150454000Y-117407000D01*
X150454000Y-116305000D01*
X151806000Y-116305000D01*
X151806000Y-117407000D01*
X151806000Y-117407000D01*
G37*
G36*
X125577600Y-117148500D02*
G01*
X122275600Y-117148500D01*
X122275600Y-116046500D01*
X125577600Y-116046500D01*
X125577600Y-117148500D01*
X125577600Y-117148500D01*
G37*
G36*
X139810442Y-113151518D02*
G01*
X139876627Y-113158037D01*
X140046466Y-113209557D01*
X140202991Y-113293222D01*
X140238729Y-113322552D01*
X140340186Y-113405814D01*
X140423448Y-113507271D01*
X140452778Y-113543009D01*
X140536443Y-113699534D01*
X140587963Y-113869373D01*
X140605359Y-114046000D01*
X140587963Y-114222627D01*
X140536443Y-114392466D01*
X140452778Y-114548991D01*
X140423448Y-114584729D01*
X140340186Y-114686186D01*
X140238729Y-114769448D01*
X140202991Y-114798778D01*
X140046466Y-114882443D01*
X139876627Y-114933963D01*
X139810442Y-114940482D01*
X139744260Y-114947000D01*
X139655740Y-114947000D01*
X139589558Y-114940482D01*
X139523373Y-114933963D01*
X139353534Y-114882443D01*
X139197009Y-114798778D01*
X139161271Y-114769448D01*
X139059814Y-114686186D01*
X138976552Y-114584729D01*
X138947222Y-114548991D01*
X138863557Y-114392466D01*
X138812037Y-114222627D01*
X138794641Y-114046000D01*
X138812037Y-113869373D01*
X138863557Y-113699534D01*
X138947222Y-113543009D01*
X138976552Y-113507271D01*
X139059814Y-113405814D01*
X139161271Y-113322552D01*
X139197009Y-113293222D01*
X139353534Y-113209557D01*
X139523373Y-113158037D01*
X139589558Y-113151518D01*
X139655740Y-113145000D01*
X139744260Y-113145000D01*
X139810442Y-113151518D01*
X139810442Y-113151518D01*
G37*
G36*
X155050442Y-113151518D02*
G01*
X155116627Y-113158037D01*
X155286466Y-113209557D01*
X155442991Y-113293222D01*
X155478729Y-113322552D01*
X155580186Y-113405814D01*
X155663448Y-113507271D01*
X155692778Y-113543009D01*
X155776443Y-113699534D01*
X155827963Y-113869373D01*
X155845359Y-114046000D01*
X155827963Y-114222627D01*
X155776443Y-114392466D01*
X155692778Y-114548991D01*
X155663448Y-114584729D01*
X155580186Y-114686186D01*
X155478729Y-114769448D01*
X155442991Y-114798778D01*
X155286466Y-114882443D01*
X155116627Y-114933963D01*
X155050442Y-114940482D01*
X154984260Y-114947000D01*
X154895740Y-114947000D01*
X154829558Y-114940482D01*
X154763373Y-114933963D01*
X154593534Y-114882443D01*
X154437009Y-114798778D01*
X154401271Y-114769448D01*
X154299814Y-114686186D01*
X154216552Y-114584729D01*
X154187222Y-114548991D01*
X154103557Y-114392466D01*
X154052037Y-114222627D01*
X154034641Y-114046000D01*
X154052037Y-113869373D01*
X154103557Y-113699534D01*
X154187222Y-113543009D01*
X154216552Y-113507271D01*
X154299814Y-113405814D01*
X154401271Y-113322552D01*
X154437009Y-113293222D01*
X154593534Y-113209557D01*
X154763373Y-113158037D01*
X154829558Y-113151518D01*
X154895740Y-113145000D01*
X154984260Y-113145000D01*
X155050442Y-113151518D01*
X155050442Y-113151518D01*
G37*
G36*
X152510442Y-113151518D02*
G01*
X152576627Y-113158037D01*
X152746466Y-113209557D01*
X152902991Y-113293222D01*
X152938729Y-113322552D01*
X153040186Y-113405814D01*
X153123448Y-113507271D01*
X153152778Y-113543009D01*
X153236443Y-113699534D01*
X153287963Y-113869373D01*
X153305359Y-114046000D01*
X153287963Y-114222627D01*
X153236443Y-114392466D01*
X153152778Y-114548991D01*
X153123448Y-114584729D01*
X153040186Y-114686186D01*
X152938729Y-114769448D01*
X152902991Y-114798778D01*
X152746466Y-114882443D01*
X152576627Y-114933963D01*
X152510442Y-114940482D01*
X152444260Y-114947000D01*
X152355740Y-114947000D01*
X152289558Y-114940482D01*
X152223373Y-114933963D01*
X152053534Y-114882443D01*
X151897009Y-114798778D01*
X151861271Y-114769448D01*
X151759814Y-114686186D01*
X151676552Y-114584729D01*
X151647222Y-114548991D01*
X151563557Y-114392466D01*
X151512037Y-114222627D01*
X151494641Y-114046000D01*
X151512037Y-113869373D01*
X151563557Y-113699534D01*
X151647222Y-113543009D01*
X151676552Y-113507271D01*
X151759814Y-113405814D01*
X151861271Y-113322552D01*
X151897009Y-113293222D01*
X152053534Y-113209557D01*
X152223373Y-113158037D01*
X152289558Y-113151518D01*
X152355740Y-113145000D01*
X152444260Y-113145000D01*
X152510442Y-113151518D01*
X152510442Y-113151518D01*
G37*
G36*
X149970442Y-113151518D02*
G01*
X150036627Y-113158037D01*
X150206466Y-113209557D01*
X150362991Y-113293222D01*
X150398729Y-113322552D01*
X150500186Y-113405814D01*
X150583448Y-113507271D01*
X150612778Y-113543009D01*
X150696443Y-113699534D01*
X150747963Y-113869373D01*
X150765359Y-114046000D01*
X150747963Y-114222627D01*
X150696443Y-114392466D01*
X150612778Y-114548991D01*
X150583448Y-114584729D01*
X150500186Y-114686186D01*
X150398729Y-114769448D01*
X150362991Y-114798778D01*
X150206466Y-114882443D01*
X150036627Y-114933963D01*
X149970442Y-114940482D01*
X149904260Y-114947000D01*
X149815740Y-114947000D01*
X149749558Y-114940482D01*
X149683373Y-114933963D01*
X149513534Y-114882443D01*
X149357009Y-114798778D01*
X149321271Y-114769448D01*
X149219814Y-114686186D01*
X149136552Y-114584729D01*
X149107222Y-114548991D01*
X149023557Y-114392466D01*
X148972037Y-114222627D01*
X148954641Y-114046000D01*
X148972037Y-113869373D01*
X149023557Y-113699534D01*
X149107222Y-113543009D01*
X149136552Y-113507271D01*
X149219814Y-113405814D01*
X149321271Y-113322552D01*
X149357009Y-113293222D01*
X149513534Y-113209557D01*
X149683373Y-113158037D01*
X149749558Y-113151518D01*
X149815740Y-113145000D01*
X149904260Y-113145000D01*
X149970442Y-113151518D01*
X149970442Y-113151518D01*
G37*
G36*
X147430442Y-113151518D02*
G01*
X147496627Y-113158037D01*
X147666466Y-113209557D01*
X147822991Y-113293222D01*
X147858729Y-113322552D01*
X147960186Y-113405814D01*
X148043448Y-113507271D01*
X148072778Y-113543009D01*
X148156443Y-113699534D01*
X148207963Y-113869373D01*
X148225359Y-114046000D01*
X148207963Y-114222627D01*
X148156443Y-114392466D01*
X148072778Y-114548991D01*
X148043448Y-114584729D01*
X147960186Y-114686186D01*
X147858729Y-114769448D01*
X147822991Y-114798778D01*
X147666466Y-114882443D01*
X147496627Y-114933963D01*
X147430442Y-114940482D01*
X147364260Y-114947000D01*
X147275740Y-114947000D01*
X147209558Y-114940482D01*
X147143373Y-114933963D01*
X146973534Y-114882443D01*
X146817009Y-114798778D01*
X146781271Y-114769448D01*
X146679814Y-114686186D01*
X146596552Y-114584729D01*
X146567222Y-114548991D01*
X146483557Y-114392466D01*
X146432037Y-114222627D01*
X146414641Y-114046000D01*
X146432037Y-113869373D01*
X146483557Y-113699534D01*
X146567222Y-113543009D01*
X146596552Y-113507271D01*
X146679814Y-113405814D01*
X146781271Y-113322552D01*
X146817009Y-113293222D01*
X146973534Y-113209557D01*
X147143373Y-113158037D01*
X147209558Y-113151518D01*
X147275740Y-113145000D01*
X147364260Y-113145000D01*
X147430442Y-113151518D01*
X147430442Y-113151518D01*
G37*
G36*
X144890442Y-113151518D02*
G01*
X144956627Y-113158037D01*
X145126466Y-113209557D01*
X145282991Y-113293222D01*
X145318729Y-113322552D01*
X145420186Y-113405814D01*
X145503448Y-113507271D01*
X145532778Y-113543009D01*
X145616443Y-113699534D01*
X145667963Y-113869373D01*
X145685359Y-114046000D01*
X145667963Y-114222627D01*
X145616443Y-114392466D01*
X145532778Y-114548991D01*
X145503448Y-114584729D01*
X145420186Y-114686186D01*
X145318729Y-114769448D01*
X145282991Y-114798778D01*
X145126466Y-114882443D01*
X144956627Y-114933963D01*
X144890442Y-114940482D01*
X144824260Y-114947000D01*
X144735740Y-114947000D01*
X144669558Y-114940482D01*
X144603373Y-114933963D01*
X144433534Y-114882443D01*
X144277009Y-114798778D01*
X144241271Y-114769448D01*
X144139814Y-114686186D01*
X144056552Y-114584729D01*
X144027222Y-114548991D01*
X143943557Y-114392466D01*
X143892037Y-114222627D01*
X143874641Y-114046000D01*
X143892037Y-113869373D01*
X143943557Y-113699534D01*
X144027222Y-113543009D01*
X144056552Y-113507271D01*
X144139814Y-113405814D01*
X144241271Y-113322552D01*
X144277009Y-113293222D01*
X144433534Y-113209557D01*
X144603373Y-113158037D01*
X144669558Y-113151518D01*
X144735740Y-113145000D01*
X144824260Y-113145000D01*
X144890442Y-113151518D01*
X144890442Y-113151518D01*
G37*
G36*
X142350442Y-113151518D02*
G01*
X142416627Y-113158037D01*
X142586466Y-113209557D01*
X142742991Y-113293222D01*
X142778729Y-113322552D01*
X142880186Y-113405814D01*
X142963448Y-113507271D01*
X142992778Y-113543009D01*
X143076443Y-113699534D01*
X143127963Y-113869373D01*
X143145359Y-114046000D01*
X143127963Y-114222627D01*
X143076443Y-114392466D01*
X142992778Y-114548991D01*
X142963448Y-114584729D01*
X142880186Y-114686186D01*
X142778729Y-114769448D01*
X142742991Y-114798778D01*
X142586466Y-114882443D01*
X142416627Y-114933963D01*
X142350442Y-114940482D01*
X142284260Y-114947000D01*
X142195740Y-114947000D01*
X142129558Y-114940482D01*
X142063373Y-114933963D01*
X141893534Y-114882443D01*
X141737009Y-114798778D01*
X141701271Y-114769448D01*
X141599814Y-114686186D01*
X141516552Y-114584729D01*
X141487222Y-114548991D01*
X141403557Y-114392466D01*
X141352037Y-114222627D01*
X141334641Y-114046000D01*
X141352037Y-113869373D01*
X141403557Y-113699534D01*
X141487222Y-113543009D01*
X141516552Y-113507271D01*
X141599814Y-113405814D01*
X141701271Y-113322552D01*
X141737009Y-113293222D01*
X141893534Y-113209557D01*
X142063373Y-113158037D01*
X142129558Y-113151518D01*
X142195740Y-113145000D01*
X142284260Y-113145000D01*
X142350442Y-113151518D01*
X142350442Y-113151518D01*
G37*
G36*
X137270442Y-113151518D02*
G01*
X137336627Y-113158037D01*
X137506466Y-113209557D01*
X137662991Y-113293222D01*
X137698729Y-113322552D01*
X137800186Y-113405814D01*
X137883448Y-113507271D01*
X137912778Y-113543009D01*
X137996443Y-113699534D01*
X138047963Y-113869373D01*
X138065359Y-114046000D01*
X138047963Y-114222627D01*
X137996443Y-114392466D01*
X137912778Y-114548991D01*
X137883448Y-114584729D01*
X137800186Y-114686186D01*
X137698729Y-114769448D01*
X137662991Y-114798778D01*
X137506466Y-114882443D01*
X137336627Y-114933963D01*
X137270442Y-114940482D01*
X137204260Y-114947000D01*
X137115740Y-114947000D01*
X137049558Y-114940482D01*
X136983373Y-114933963D01*
X136813534Y-114882443D01*
X136657009Y-114798778D01*
X136621271Y-114769448D01*
X136519814Y-114686186D01*
X136436552Y-114584729D01*
X136407222Y-114548991D01*
X136323557Y-114392466D01*
X136272037Y-114222627D01*
X136254641Y-114046000D01*
X136272037Y-113869373D01*
X136323557Y-113699534D01*
X136407222Y-113543009D01*
X136436552Y-113507271D01*
X136519814Y-113405814D01*
X136621271Y-113322552D01*
X136657009Y-113293222D01*
X136813534Y-113209557D01*
X136983373Y-113158037D01*
X137049558Y-113151518D01*
X137115740Y-113145000D01*
X137204260Y-113145000D01*
X137270442Y-113151518D01*
X137270442Y-113151518D01*
G37*
G36*
X134730442Y-113151518D02*
G01*
X134796627Y-113158037D01*
X134966466Y-113209557D01*
X135122991Y-113293222D01*
X135158729Y-113322552D01*
X135260186Y-113405814D01*
X135343448Y-113507271D01*
X135372778Y-113543009D01*
X135456443Y-113699534D01*
X135507963Y-113869373D01*
X135525359Y-114046000D01*
X135507963Y-114222627D01*
X135456443Y-114392466D01*
X135372778Y-114548991D01*
X135343448Y-114584729D01*
X135260186Y-114686186D01*
X135158729Y-114769448D01*
X135122991Y-114798778D01*
X134966466Y-114882443D01*
X134796627Y-114933963D01*
X134730442Y-114940482D01*
X134664260Y-114947000D01*
X134575740Y-114947000D01*
X134509558Y-114940482D01*
X134443373Y-114933963D01*
X134273534Y-114882443D01*
X134117009Y-114798778D01*
X134081271Y-114769448D01*
X133979814Y-114686186D01*
X133896552Y-114584729D01*
X133867222Y-114548991D01*
X133783557Y-114392466D01*
X133732037Y-114222627D01*
X133714641Y-114046000D01*
X133732037Y-113869373D01*
X133783557Y-113699534D01*
X133867222Y-113543009D01*
X133896552Y-113507271D01*
X133979814Y-113405814D01*
X134081271Y-113322552D01*
X134117009Y-113293222D01*
X134273534Y-113209557D01*
X134443373Y-113158037D01*
X134509558Y-113151518D01*
X134575740Y-113145000D01*
X134664260Y-113145000D01*
X134730442Y-113151518D01*
X134730442Y-113151518D01*
G37*
G36*
X132190442Y-113151518D02*
G01*
X132256627Y-113158037D01*
X132426466Y-113209557D01*
X132582991Y-113293222D01*
X132618729Y-113322552D01*
X132720186Y-113405814D01*
X132803448Y-113507271D01*
X132832778Y-113543009D01*
X132916443Y-113699534D01*
X132967963Y-113869373D01*
X132985359Y-114046000D01*
X132967963Y-114222627D01*
X132916443Y-114392466D01*
X132832778Y-114548991D01*
X132803448Y-114584729D01*
X132720186Y-114686186D01*
X132618729Y-114769448D01*
X132582991Y-114798778D01*
X132426466Y-114882443D01*
X132256627Y-114933963D01*
X132190442Y-114940482D01*
X132124260Y-114947000D01*
X132035740Y-114947000D01*
X131969558Y-114940482D01*
X131903373Y-114933963D01*
X131733534Y-114882443D01*
X131577009Y-114798778D01*
X131541271Y-114769448D01*
X131439814Y-114686186D01*
X131356552Y-114584729D01*
X131327222Y-114548991D01*
X131243557Y-114392466D01*
X131192037Y-114222627D01*
X131174641Y-114046000D01*
X131192037Y-113869373D01*
X131243557Y-113699534D01*
X131327222Y-113543009D01*
X131356552Y-113507271D01*
X131439814Y-113405814D01*
X131541271Y-113322552D01*
X131577009Y-113293222D01*
X131733534Y-113209557D01*
X131903373Y-113158037D01*
X131969558Y-113151518D01*
X132035740Y-113145000D01*
X132124260Y-113145000D01*
X132190442Y-113151518D01*
X132190442Y-113151518D01*
G37*
G36*
X129650442Y-113151518D02*
G01*
X129716627Y-113158037D01*
X129886466Y-113209557D01*
X130042991Y-113293222D01*
X130078729Y-113322552D01*
X130180186Y-113405814D01*
X130263448Y-113507271D01*
X130292778Y-113543009D01*
X130376443Y-113699534D01*
X130427963Y-113869373D01*
X130445359Y-114046000D01*
X130427963Y-114222627D01*
X130376443Y-114392466D01*
X130292778Y-114548991D01*
X130263448Y-114584729D01*
X130180186Y-114686186D01*
X130078729Y-114769448D01*
X130042991Y-114798778D01*
X129886466Y-114882443D01*
X129716627Y-114933963D01*
X129650442Y-114940482D01*
X129584260Y-114947000D01*
X129495740Y-114947000D01*
X129429558Y-114940482D01*
X129363373Y-114933963D01*
X129193534Y-114882443D01*
X129037009Y-114798778D01*
X129001271Y-114769448D01*
X128899814Y-114686186D01*
X128816552Y-114584729D01*
X128787222Y-114548991D01*
X128703557Y-114392466D01*
X128652037Y-114222627D01*
X128634641Y-114046000D01*
X128652037Y-113869373D01*
X128703557Y-113699534D01*
X128787222Y-113543009D01*
X128816552Y-113507271D01*
X128899814Y-113405814D01*
X129001271Y-113322552D01*
X129037009Y-113293222D01*
X129193534Y-113209557D01*
X129363373Y-113158037D01*
X129429558Y-113151518D01*
X129495740Y-113145000D01*
X129584260Y-113145000D01*
X129650442Y-113151518D01*
X129650442Y-113151518D01*
G37*
G36*
X127110442Y-113151518D02*
G01*
X127176627Y-113158037D01*
X127346466Y-113209557D01*
X127502991Y-113293222D01*
X127538729Y-113322552D01*
X127640186Y-113405814D01*
X127723448Y-113507271D01*
X127752778Y-113543009D01*
X127836443Y-113699534D01*
X127887963Y-113869373D01*
X127905359Y-114046000D01*
X127887963Y-114222627D01*
X127836443Y-114392466D01*
X127752778Y-114548991D01*
X127723448Y-114584729D01*
X127640186Y-114686186D01*
X127538729Y-114769448D01*
X127502991Y-114798778D01*
X127346466Y-114882443D01*
X127176627Y-114933963D01*
X127110442Y-114940482D01*
X127044260Y-114947000D01*
X126955740Y-114947000D01*
X126889558Y-114940482D01*
X126823373Y-114933963D01*
X126653534Y-114882443D01*
X126497009Y-114798778D01*
X126461271Y-114769448D01*
X126359814Y-114686186D01*
X126276552Y-114584729D01*
X126247222Y-114548991D01*
X126163557Y-114392466D01*
X126112037Y-114222627D01*
X126094641Y-114046000D01*
X126112037Y-113869373D01*
X126163557Y-113699534D01*
X126247222Y-113543009D01*
X126276552Y-113507271D01*
X126359814Y-113405814D01*
X126461271Y-113322552D01*
X126497009Y-113293222D01*
X126653534Y-113209557D01*
X126823373Y-113158037D01*
X126889558Y-113151518D01*
X126955740Y-113145000D01*
X127044260Y-113145000D01*
X127110442Y-113151518D01*
X127110442Y-113151518D01*
G37*
G36*
X124570442Y-113151518D02*
G01*
X124636627Y-113158037D01*
X124806466Y-113209557D01*
X124962991Y-113293222D01*
X124998729Y-113322552D01*
X125100186Y-113405814D01*
X125183448Y-113507271D01*
X125212778Y-113543009D01*
X125296443Y-113699534D01*
X125347963Y-113869373D01*
X125365359Y-114046000D01*
X125347963Y-114222627D01*
X125296443Y-114392466D01*
X125212778Y-114548991D01*
X125183448Y-114584729D01*
X125100186Y-114686186D01*
X124998729Y-114769448D01*
X124962991Y-114798778D01*
X124806466Y-114882443D01*
X124636627Y-114933963D01*
X124570442Y-114940482D01*
X124504260Y-114947000D01*
X124415740Y-114947000D01*
X124349558Y-114940482D01*
X124283373Y-114933963D01*
X124113534Y-114882443D01*
X123957009Y-114798778D01*
X123921271Y-114769448D01*
X123819814Y-114686186D01*
X123736552Y-114584729D01*
X123707222Y-114548991D01*
X123623557Y-114392466D01*
X123572037Y-114222627D01*
X123554641Y-114046000D01*
X123572037Y-113869373D01*
X123623557Y-113699534D01*
X123707222Y-113543009D01*
X123736552Y-113507271D01*
X123819814Y-113405814D01*
X123921271Y-113322552D01*
X123957009Y-113293222D01*
X124113534Y-113209557D01*
X124283373Y-113158037D01*
X124349558Y-113151518D01*
X124415740Y-113145000D01*
X124504260Y-113145000D01*
X124570442Y-113151518D01*
X124570442Y-113151518D01*
G37*
G36*
X122030442Y-113151518D02*
G01*
X122096627Y-113158037D01*
X122266466Y-113209557D01*
X122422991Y-113293222D01*
X122458729Y-113322552D01*
X122560186Y-113405814D01*
X122643448Y-113507271D01*
X122672778Y-113543009D01*
X122756443Y-113699534D01*
X122807963Y-113869373D01*
X122825359Y-114046000D01*
X122807963Y-114222627D01*
X122756443Y-114392466D01*
X122672778Y-114548991D01*
X122643448Y-114584729D01*
X122560186Y-114686186D01*
X122458729Y-114769448D01*
X122422991Y-114798778D01*
X122266466Y-114882443D01*
X122096627Y-114933963D01*
X122030442Y-114940482D01*
X121964260Y-114947000D01*
X121875740Y-114947000D01*
X121809558Y-114940482D01*
X121743373Y-114933963D01*
X121573534Y-114882443D01*
X121417009Y-114798778D01*
X121381271Y-114769448D01*
X121279814Y-114686186D01*
X121196552Y-114584729D01*
X121167222Y-114548991D01*
X121083557Y-114392466D01*
X121032037Y-114222627D01*
X121014641Y-114046000D01*
X121032037Y-113869373D01*
X121083557Y-113699534D01*
X121167222Y-113543009D01*
X121196552Y-113507271D01*
X121279814Y-113405814D01*
X121381271Y-113322552D01*
X121417009Y-113293222D01*
X121573534Y-113209557D01*
X121743373Y-113158037D01*
X121809558Y-113151518D01*
X121875740Y-113145000D01*
X121964260Y-113145000D01*
X122030442Y-113151518D01*
X122030442Y-113151518D01*
G37*
G36*
X119490442Y-113151518D02*
G01*
X119556627Y-113158037D01*
X119726466Y-113209557D01*
X119882991Y-113293222D01*
X119918729Y-113322552D01*
X120020186Y-113405814D01*
X120103448Y-113507271D01*
X120132778Y-113543009D01*
X120216443Y-113699534D01*
X120267963Y-113869373D01*
X120285359Y-114046000D01*
X120267963Y-114222627D01*
X120216443Y-114392466D01*
X120132778Y-114548991D01*
X120103448Y-114584729D01*
X120020186Y-114686186D01*
X119918729Y-114769448D01*
X119882991Y-114798778D01*
X119726466Y-114882443D01*
X119556627Y-114933963D01*
X119490442Y-114940482D01*
X119424260Y-114947000D01*
X119335740Y-114947000D01*
X119269558Y-114940482D01*
X119203373Y-114933963D01*
X119033534Y-114882443D01*
X118877009Y-114798778D01*
X118841271Y-114769448D01*
X118739814Y-114686186D01*
X118656552Y-114584729D01*
X118627222Y-114548991D01*
X118543557Y-114392466D01*
X118492037Y-114222627D01*
X118474641Y-114046000D01*
X118492037Y-113869373D01*
X118543557Y-113699534D01*
X118627222Y-113543009D01*
X118656552Y-113507271D01*
X118739814Y-113405814D01*
X118841271Y-113322552D01*
X118877009Y-113293222D01*
X119033534Y-113209557D01*
X119203373Y-113158037D01*
X119269558Y-113151518D01*
X119335740Y-113145000D01*
X119424260Y-113145000D01*
X119490442Y-113151518D01*
X119490442Y-113151518D01*
G37*
G36*
X116950442Y-113151518D02*
G01*
X117016627Y-113158037D01*
X117186466Y-113209557D01*
X117342991Y-113293222D01*
X117378729Y-113322552D01*
X117480186Y-113405814D01*
X117563448Y-113507271D01*
X117592778Y-113543009D01*
X117676443Y-113699534D01*
X117727963Y-113869373D01*
X117745359Y-114046000D01*
X117727963Y-114222627D01*
X117676443Y-114392466D01*
X117592778Y-114548991D01*
X117563448Y-114584729D01*
X117480186Y-114686186D01*
X117378729Y-114769448D01*
X117342991Y-114798778D01*
X117186466Y-114882443D01*
X117016627Y-114933963D01*
X116950442Y-114940482D01*
X116884260Y-114947000D01*
X116795740Y-114947000D01*
X116729558Y-114940482D01*
X116663373Y-114933963D01*
X116493534Y-114882443D01*
X116337009Y-114798778D01*
X116301271Y-114769448D01*
X116199814Y-114686186D01*
X116116552Y-114584729D01*
X116087222Y-114548991D01*
X116003557Y-114392466D01*
X115952037Y-114222627D01*
X115934641Y-114046000D01*
X115952037Y-113869373D01*
X116003557Y-113699534D01*
X116087222Y-113543009D01*
X116116552Y-113507271D01*
X116199814Y-113405814D01*
X116301271Y-113322552D01*
X116337009Y-113293222D01*
X116493534Y-113209557D01*
X116663373Y-113158037D01*
X116729558Y-113151518D01*
X116795740Y-113145000D01*
X116884260Y-113145000D01*
X116950442Y-113151518D01*
X116950442Y-113151518D01*
G37*
G36*
X114410442Y-113151518D02*
G01*
X114476627Y-113158037D01*
X114646466Y-113209557D01*
X114802991Y-113293222D01*
X114838729Y-113322552D01*
X114940186Y-113405814D01*
X115023448Y-113507271D01*
X115052778Y-113543009D01*
X115136443Y-113699534D01*
X115187963Y-113869373D01*
X115205359Y-114046000D01*
X115187963Y-114222627D01*
X115136443Y-114392466D01*
X115052778Y-114548991D01*
X115023448Y-114584729D01*
X114940186Y-114686186D01*
X114838729Y-114769448D01*
X114802991Y-114798778D01*
X114646466Y-114882443D01*
X114476627Y-114933963D01*
X114410442Y-114940482D01*
X114344260Y-114947000D01*
X114255740Y-114947000D01*
X114189558Y-114940482D01*
X114123373Y-114933963D01*
X113953534Y-114882443D01*
X113797009Y-114798778D01*
X113761271Y-114769448D01*
X113659814Y-114686186D01*
X113576552Y-114584729D01*
X113547222Y-114548991D01*
X113463557Y-114392466D01*
X113412037Y-114222627D01*
X113394641Y-114046000D01*
X113412037Y-113869373D01*
X113463557Y-113699534D01*
X113547222Y-113543009D01*
X113576552Y-113507271D01*
X113659814Y-113405814D01*
X113761271Y-113322552D01*
X113797009Y-113293222D01*
X113953534Y-113209557D01*
X114123373Y-113158037D01*
X114189558Y-113151518D01*
X114255740Y-113145000D01*
X114344260Y-113145000D01*
X114410442Y-113151518D01*
X114410442Y-113151518D01*
G37*
G36*
X111870442Y-113151518D02*
G01*
X111936627Y-113158037D01*
X112106466Y-113209557D01*
X112262991Y-113293222D01*
X112298729Y-113322552D01*
X112400186Y-113405814D01*
X112483448Y-113507271D01*
X112512778Y-113543009D01*
X112596443Y-113699534D01*
X112647963Y-113869373D01*
X112665359Y-114046000D01*
X112647963Y-114222627D01*
X112596443Y-114392466D01*
X112512778Y-114548991D01*
X112483448Y-114584729D01*
X112400186Y-114686186D01*
X112298729Y-114769448D01*
X112262991Y-114798778D01*
X112106466Y-114882443D01*
X111936627Y-114933963D01*
X111870442Y-114940482D01*
X111804260Y-114947000D01*
X111715740Y-114947000D01*
X111649558Y-114940482D01*
X111583373Y-114933963D01*
X111413534Y-114882443D01*
X111257009Y-114798778D01*
X111221271Y-114769448D01*
X111119814Y-114686186D01*
X111036552Y-114584729D01*
X111007222Y-114548991D01*
X110923557Y-114392466D01*
X110872037Y-114222627D01*
X110854641Y-114046000D01*
X110872037Y-113869373D01*
X110923557Y-113699534D01*
X111007222Y-113543009D01*
X111036552Y-113507271D01*
X111119814Y-113405814D01*
X111221271Y-113322552D01*
X111257009Y-113293222D01*
X111413534Y-113209557D01*
X111583373Y-113158037D01*
X111649558Y-113151518D01*
X111715740Y-113145000D01*
X111804260Y-113145000D01*
X111870442Y-113151518D01*
X111870442Y-113151518D01*
G37*
G36*
X109330442Y-113151518D02*
G01*
X109396627Y-113158037D01*
X109566466Y-113209557D01*
X109722991Y-113293222D01*
X109758729Y-113322552D01*
X109860186Y-113405814D01*
X109943448Y-113507271D01*
X109972778Y-113543009D01*
X110056443Y-113699534D01*
X110107963Y-113869373D01*
X110125359Y-114046000D01*
X110107963Y-114222627D01*
X110056443Y-114392466D01*
X109972778Y-114548991D01*
X109943448Y-114584729D01*
X109860186Y-114686186D01*
X109758729Y-114769448D01*
X109722991Y-114798778D01*
X109566466Y-114882443D01*
X109396627Y-114933963D01*
X109330442Y-114940482D01*
X109264260Y-114947000D01*
X109175740Y-114947000D01*
X109109558Y-114940482D01*
X109043373Y-114933963D01*
X108873534Y-114882443D01*
X108717009Y-114798778D01*
X108681271Y-114769448D01*
X108579814Y-114686186D01*
X108496552Y-114584729D01*
X108467222Y-114548991D01*
X108383557Y-114392466D01*
X108332037Y-114222627D01*
X108314641Y-114046000D01*
X108332037Y-113869373D01*
X108383557Y-113699534D01*
X108467222Y-113543009D01*
X108496552Y-113507271D01*
X108579814Y-113405814D01*
X108681271Y-113322552D01*
X108717009Y-113293222D01*
X108873534Y-113209557D01*
X109043373Y-113158037D01*
X109109558Y-113151518D01*
X109175740Y-113145000D01*
X109264260Y-113145000D01*
X109330442Y-113151518D01*
X109330442Y-113151518D01*
G37*
G36*
X107581000Y-114947000D02*
G01*
X105779000Y-114947000D01*
X105779000Y-113145000D01*
X107581000Y-113145000D01*
X107581000Y-114947000D01*
X107581000Y-114947000D01*
G37*
G36*
X109330443Y-110611519D02*
G01*
X109396627Y-110618037D01*
X109566466Y-110669557D01*
X109722991Y-110753222D01*
X109758729Y-110782552D01*
X109860186Y-110865814D01*
X109943448Y-110967271D01*
X109972778Y-111003009D01*
X110056443Y-111159534D01*
X110107963Y-111329373D01*
X110125359Y-111506000D01*
X110107963Y-111682627D01*
X110056443Y-111852466D01*
X109972778Y-112008991D01*
X109943448Y-112044729D01*
X109860186Y-112146186D01*
X109758729Y-112229448D01*
X109722991Y-112258778D01*
X109566466Y-112342443D01*
X109396627Y-112393963D01*
X109330443Y-112400481D01*
X109264260Y-112407000D01*
X109175740Y-112407000D01*
X109109557Y-112400481D01*
X109043373Y-112393963D01*
X108873534Y-112342443D01*
X108717009Y-112258778D01*
X108681271Y-112229448D01*
X108579814Y-112146186D01*
X108496552Y-112044729D01*
X108467222Y-112008991D01*
X108383557Y-111852466D01*
X108332037Y-111682627D01*
X108314641Y-111506000D01*
X108332037Y-111329373D01*
X108383557Y-111159534D01*
X108467222Y-111003009D01*
X108496552Y-110967271D01*
X108579814Y-110865814D01*
X108681271Y-110782552D01*
X108717009Y-110753222D01*
X108873534Y-110669557D01*
X109043373Y-110618037D01*
X109109557Y-110611519D01*
X109175740Y-110605000D01*
X109264260Y-110605000D01*
X109330443Y-110611519D01*
X109330443Y-110611519D01*
G37*
G36*
X111870443Y-110611519D02*
G01*
X111936627Y-110618037D01*
X112106466Y-110669557D01*
X112262991Y-110753222D01*
X112298729Y-110782552D01*
X112400186Y-110865814D01*
X112483448Y-110967271D01*
X112512778Y-111003009D01*
X112596443Y-111159534D01*
X112647963Y-111329373D01*
X112665359Y-111506000D01*
X112647963Y-111682627D01*
X112596443Y-111852466D01*
X112512778Y-112008991D01*
X112483448Y-112044729D01*
X112400186Y-112146186D01*
X112298729Y-112229448D01*
X112262991Y-112258778D01*
X112106466Y-112342443D01*
X111936627Y-112393963D01*
X111870443Y-112400481D01*
X111804260Y-112407000D01*
X111715740Y-112407000D01*
X111649557Y-112400481D01*
X111583373Y-112393963D01*
X111413534Y-112342443D01*
X111257009Y-112258778D01*
X111221271Y-112229448D01*
X111119814Y-112146186D01*
X111036552Y-112044729D01*
X111007222Y-112008991D01*
X110923557Y-111852466D01*
X110872037Y-111682627D01*
X110854641Y-111506000D01*
X110872037Y-111329373D01*
X110923557Y-111159534D01*
X111007222Y-111003009D01*
X111036552Y-110967271D01*
X111119814Y-110865814D01*
X111221271Y-110782552D01*
X111257009Y-110753222D01*
X111413534Y-110669557D01*
X111583373Y-110618037D01*
X111649557Y-110611519D01*
X111715740Y-110605000D01*
X111804260Y-110605000D01*
X111870443Y-110611519D01*
X111870443Y-110611519D01*
G37*
G36*
X114410443Y-110611519D02*
G01*
X114476627Y-110618037D01*
X114646466Y-110669557D01*
X114802991Y-110753222D01*
X114838729Y-110782552D01*
X114940186Y-110865814D01*
X115023448Y-110967271D01*
X115052778Y-111003009D01*
X115136443Y-111159534D01*
X115187963Y-111329373D01*
X115205359Y-111506000D01*
X115187963Y-111682627D01*
X115136443Y-111852466D01*
X115052778Y-112008991D01*
X115023448Y-112044729D01*
X114940186Y-112146186D01*
X114838729Y-112229448D01*
X114802991Y-112258778D01*
X114646466Y-112342443D01*
X114476627Y-112393963D01*
X114410443Y-112400481D01*
X114344260Y-112407000D01*
X114255740Y-112407000D01*
X114189557Y-112400481D01*
X114123373Y-112393963D01*
X113953534Y-112342443D01*
X113797009Y-112258778D01*
X113761271Y-112229448D01*
X113659814Y-112146186D01*
X113576552Y-112044729D01*
X113547222Y-112008991D01*
X113463557Y-111852466D01*
X113412037Y-111682627D01*
X113394641Y-111506000D01*
X113412037Y-111329373D01*
X113463557Y-111159534D01*
X113547222Y-111003009D01*
X113576552Y-110967271D01*
X113659814Y-110865814D01*
X113761271Y-110782552D01*
X113797009Y-110753222D01*
X113953534Y-110669557D01*
X114123373Y-110618037D01*
X114189557Y-110611519D01*
X114255740Y-110605000D01*
X114344260Y-110605000D01*
X114410443Y-110611519D01*
X114410443Y-110611519D01*
G37*
G36*
X116950443Y-110611519D02*
G01*
X117016627Y-110618037D01*
X117186466Y-110669557D01*
X117342991Y-110753222D01*
X117378729Y-110782552D01*
X117480186Y-110865814D01*
X117563448Y-110967271D01*
X117592778Y-111003009D01*
X117676443Y-111159534D01*
X117727963Y-111329373D01*
X117745359Y-111506000D01*
X117727963Y-111682627D01*
X117676443Y-111852466D01*
X117592778Y-112008991D01*
X117563448Y-112044729D01*
X117480186Y-112146186D01*
X117378729Y-112229448D01*
X117342991Y-112258778D01*
X117186466Y-112342443D01*
X117016627Y-112393963D01*
X116950443Y-112400481D01*
X116884260Y-112407000D01*
X116795740Y-112407000D01*
X116729557Y-112400481D01*
X116663373Y-112393963D01*
X116493534Y-112342443D01*
X116337009Y-112258778D01*
X116301271Y-112229448D01*
X116199814Y-112146186D01*
X116116552Y-112044729D01*
X116087222Y-112008991D01*
X116003557Y-111852466D01*
X115952037Y-111682627D01*
X115934641Y-111506000D01*
X115952037Y-111329373D01*
X116003557Y-111159534D01*
X116087222Y-111003009D01*
X116116552Y-110967271D01*
X116199814Y-110865814D01*
X116301271Y-110782552D01*
X116337009Y-110753222D01*
X116493534Y-110669557D01*
X116663373Y-110618037D01*
X116729557Y-110611519D01*
X116795740Y-110605000D01*
X116884260Y-110605000D01*
X116950443Y-110611519D01*
X116950443Y-110611519D01*
G37*
G36*
X119490443Y-110611519D02*
G01*
X119556627Y-110618037D01*
X119726466Y-110669557D01*
X119882991Y-110753222D01*
X119918729Y-110782552D01*
X120020186Y-110865814D01*
X120103448Y-110967271D01*
X120132778Y-111003009D01*
X120216443Y-111159534D01*
X120267963Y-111329373D01*
X120285359Y-111506000D01*
X120267963Y-111682627D01*
X120216443Y-111852466D01*
X120132778Y-112008991D01*
X120103448Y-112044729D01*
X120020186Y-112146186D01*
X119918729Y-112229448D01*
X119882991Y-112258778D01*
X119726466Y-112342443D01*
X119556627Y-112393963D01*
X119490443Y-112400481D01*
X119424260Y-112407000D01*
X119335740Y-112407000D01*
X119269557Y-112400481D01*
X119203373Y-112393963D01*
X119033534Y-112342443D01*
X118877009Y-112258778D01*
X118841271Y-112229448D01*
X118739814Y-112146186D01*
X118656552Y-112044729D01*
X118627222Y-112008991D01*
X118543557Y-111852466D01*
X118492037Y-111682627D01*
X118474641Y-111506000D01*
X118492037Y-111329373D01*
X118543557Y-111159534D01*
X118627222Y-111003009D01*
X118656552Y-110967271D01*
X118739814Y-110865814D01*
X118841271Y-110782552D01*
X118877009Y-110753222D01*
X119033534Y-110669557D01*
X119203373Y-110618037D01*
X119269557Y-110611519D01*
X119335740Y-110605000D01*
X119424260Y-110605000D01*
X119490443Y-110611519D01*
X119490443Y-110611519D01*
G37*
G36*
X122030443Y-110611519D02*
G01*
X122096627Y-110618037D01*
X122266466Y-110669557D01*
X122422991Y-110753222D01*
X122458729Y-110782552D01*
X122560186Y-110865814D01*
X122643448Y-110967271D01*
X122672778Y-111003009D01*
X122756443Y-111159534D01*
X122807963Y-111329373D01*
X122825359Y-111506000D01*
X122807963Y-111682627D01*
X122756443Y-111852466D01*
X122672778Y-112008991D01*
X122643448Y-112044729D01*
X122560186Y-112146186D01*
X122458729Y-112229448D01*
X122422991Y-112258778D01*
X122266466Y-112342443D01*
X122096627Y-112393963D01*
X122030443Y-112400481D01*
X121964260Y-112407000D01*
X121875740Y-112407000D01*
X121809557Y-112400481D01*
X121743373Y-112393963D01*
X121573534Y-112342443D01*
X121417009Y-112258778D01*
X121381271Y-112229448D01*
X121279814Y-112146186D01*
X121196552Y-112044729D01*
X121167222Y-112008991D01*
X121083557Y-111852466D01*
X121032037Y-111682627D01*
X121014641Y-111506000D01*
X121032037Y-111329373D01*
X121083557Y-111159534D01*
X121167222Y-111003009D01*
X121196552Y-110967271D01*
X121279814Y-110865814D01*
X121381271Y-110782552D01*
X121417009Y-110753222D01*
X121573534Y-110669557D01*
X121743373Y-110618037D01*
X121809557Y-110611519D01*
X121875740Y-110605000D01*
X121964260Y-110605000D01*
X122030443Y-110611519D01*
X122030443Y-110611519D01*
G37*
G36*
X124570443Y-110611519D02*
G01*
X124636627Y-110618037D01*
X124806466Y-110669557D01*
X124962991Y-110753222D01*
X124998729Y-110782552D01*
X125100186Y-110865814D01*
X125183448Y-110967271D01*
X125212778Y-111003009D01*
X125296443Y-111159534D01*
X125347963Y-111329373D01*
X125365359Y-111506000D01*
X125347963Y-111682627D01*
X125296443Y-111852466D01*
X125212778Y-112008991D01*
X125183448Y-112044729D01*
X125100186Y-112146186D01*
X124998729Y-112229448D01*
X124962991Y-112258778D01*
X124806466Y-112342443D01*
X124636627Y-112393963D01*
X124570443Y-112400481D01*
X124504260Y-112407000D01*
X124415740Y-112407000D01*
X124349557Y-112400481D01*
X124283373Y-112393963D01*
X124113534Y-112342443D01*
X123957009Y-112258778D01*
X123921271Y-112229448D01*
X123819814Y-112146186D01*
X123736552Y-112044729D01*
X123707222Y-112008991D01*
X123623557Y-111852466D01*
X123572037Y-111682627D01*
X123554641Y-111506000D01*
X123572037Y-111329373D01*
X123623557Y-111159534D01*
X123707222Y-111003009D01*
X123736552Y-110967271D01*
X123819814Y-110865814D01*
X123921271Y-110782552D01*
X123957009Y-110753222D01*
X124113534Y-110669557D01*
X124283373Y-110618037D01*
X124349557Y-110611519D01*
X124415740Y-110605000D01*
X124504260Y-110605000D01*
X124570443Y-110611519D01*
X124570443Y-110611519D01*
G37*
G36*
X127110443Y-110611519D02*
G01*
X127176627Y-110618037D01*
X127346466Y-110669557D01*
X127502991Y-110753222D01*
X127538729Y-110782552D01*
X127640186Y-110865814D01*
X127723448Y-110967271D01*
X127752778Y-111003009D01*
X127836443Y-111159534D01*
X127887963Y-111329373D01*
X127905359Y-111506000D01*
X127887963Y-111682627D01*
X127836443Y-111852466D01*
X127752778Y-112008991D01*
X127723448Y-112044729D01*
X127640186Y-112146186D01*
X127538729Y-112229448D01*
X127502991Y-112258778D01*
X127346466Y-112342443D01*
X127176627Y-112393963D01*
X127110443Y-112400481D01*
X127044260Y-112407000D01*
X126955740Y-112407000D01*
X126889557Y-112400481D01*
X126823373Y-112393963D01*
X126653534Y-112342443D01*
X126497009Y-112258778D01*
X126461271Y-112229448D01*
X126359814Y-112146186D01*
X126276552Y-112044729D01*
X126247222Y-112008991D01*
X126163557Y-111852466D01*
X126112037Y-111682627D01*
X126094641Y-111506000D01*
X126112037Y-111329373D01*
X126163557Y-111159534D01*
X126247222Y-111003009D01*
X126276552Y-110967271D01*
X126359814Y-110865814D01*
X126461271Y-110782552D01*
X126497009Y-110753222D01*
X126653534Y-110669557D01*
X126823373Y-110618037D01*
X126889557Y-110611519D01*
X126955740Y-110605000D01*
X127044260Y-110605000D01*
X127110443Y-110611519D01*
X127110443Y-110611519D01*
G37*
G36*
X129650443Y-110611519D02*
G01*
X129716627Y-110618037D01*
X129886466Y-110669557D01*
X130042991Y-110753222D01*
X130078729Y-110782552D01*
X130180186Y-110865814D01*
X130263448Y-110967271D01*
X130292778Y-111003009D01*
X130376443Y-111159534D01*
X130427963Y-111329373D01*
X130445359Y-111506000D01*
X130427963Y-111682627D01*
X130376443Y-111852466D01*
X130292778Y-112008991D01*
X130263448Y-112044729D01*
X130180186Y-112146186D01*
X130078729Y-112229448D01*
X130042991Y-112258778D01*
X129886466Y-112342443D01*
X129716627Y-112393963D01*
X129650443Y-112400481D01*
X129584260Y-112407000D01*
X129495740Y-112407000D01*
X129429557Y-112400481D01*
X129363373Y-112393963D01*
X129193534Y-112342443D01*
X129037009Y-112258778D01*
X129001271Y-112229448D01*
X128899814Y-112146186D01*
X128816552Y-112044729D01*
X128787222Y-112008991D01*
X128703557Y-111852466D01*
X128652037Y-111682627D01*
X128634641Y-111506000D01*
X128652037Y-111329373D01*
X128703557Y-111159534D01*
X128787222Y-111003009D01*
X128816552Y-110967271D01*
X128899814Y-110865814D01*
X129001271Y-110782552D01*
X129037009Y-110753222D01*
X129193534Y-110669557D01*
X129363373Y-110618037D01*
X129429557Y-110611519D01*
X129495740Y-110605000D01*
X129584260Y-110605000D01*
X129650443Y-110611519D01*
X129650443Y-110611519D01*
G37*
G36*
X132190443Y-110611519D02*
G01*
X132256627Y-110618037D01*
X132426466Y-110669557D01*
X132582991Y-110753222D01*
X132618729Y-110782552D01*
X132720186Y-110865814D01*
X132803448Y-110967271D01*
X132832778Y-111003009D01*
X132916443Y-111159534D01*
X132967963Y-111329373D01*
X132985359Y-111506000D01*
X132967963Y-111682627D01*
X132916443Y-111852466D01*
X132832778Y-112008991D01*
X132803448Y-112044729D01*
X132720186Y-112146186D01*
X132618729Y-112229448D01*
X132582991Y-112258778D01*
X132426466Y-112342443D01*
X132256627Y-112393963D01*
X132190443Y-112400481D01*
X132124260Y-112407000D01*
X132035740Y-112407000D01*
X131969557Y-112400481D01*
X131903373Y-112393963D01*
X131733534Y-112342443D01*
X131577009Y-112258778D01*
X131541271Y-112229448D01*
X131439814Y-112146186D01*
X131356552Y-112044729D01*
X131327222Y-112008991D01*
X131243557Y-111852466D01*
X131192037Y-111682627D01*
X131174641Y-111506000D01*
X131192037Y-111329373D01*
X131243557Y-111159534D01*
X131327222Y-111003009D01*
X131356552Y-110967271D01*
X131439814Y-110865814D01*
X131541271Y-110782552D01*
X131577009Y-110753222D01*
X131733534Y-110669557D01*
X131903373Y-110618037D01*
X131969557Y-110611519D01*
X132035740Y-110605000D01*
X132124260Y-110605000D01*
X132190443Y-110611519D01*
X132190443Y-110611519D01*
G37*
G36*
X134730443Y-110611519D02*
G01*
X134796627Y-110618037D01*
X134966466Y-110669557D01*
X135122991Y-110753222D01*
X135158729Y-110782552D01*
X135260186Y-110865814D01*
X135343448Y-110967271D01*
X135372778Y-111003009D01*
X135456443Y-111159534D01*
X135507963Y-111329373D01*
X135525359Y-111506000D01*
X135507963Y-111682627D01*
X135456443Y-111852466D01*
X135372778Y-112008991D01*
X135343448Y-112044729D01*
X135260186Y-112146186D01*
X135158729Y-112229448D01*
X135122991Y-112258778D01*
X134966466Y-112342443D01*
X134796627Y-112393963D01*
X134730443Y-112400481D01*
X134664260Y-112407000D01*
X134575740Y-112407000D01*
X134509557Y-112400481D01*
X134443373Y-112393963D01*
X134273534Y-112342443D01*
X134117009Y-112258778D01*
X134081271Y-112229448D01*
X133979814Y-112146186D01*
X133896552Y-112044729D01*
X133867222Y-112008991D01*
X133783557Y-111852466D01*
X133732037Y-111682627D01*
X133714641Y-111506000D01*
X133732037Y-111329373D01*
X133783557Y-111159534D01*
X133867222Y-111003009D01*
X133896552Y-110967271D01*
X133979814Y-110865814D01*
X134081271Y-110782552D01*
X134117009Y-110753222D01*
X134273534Y-110669557D01*
X134443373Y-110618037D01*
X134509557Y-110611519D01*
X134575740Y-110605000D01*
X134664260Y-110605000D01*
X134730443Y-110611519D01*
X134730443Y-110611519D01*
G37*
G36*
X137270443Y-110611519D02*
G01*
X137336627Y-110618037D01*
X137506466Y-110669557D01*
X137662991Y-110753222D01*
X137698729Y-110782552D01*
X137800186Y-110865814D01*
X137883448Y-110967271D01*
X137912778Y-111003009D01*
X137996443Y-111159534D01*
X138047963Y-111329373D01*
X138065359Y-111506000D01*
X138047963Y-111682627D01*
X137996443Y-111852466D01*
X137912778Y-112008991D01*
X137883448Y-112044729D01*
X137800186Y-112146186D01*
X137698729Y-112229448D01*
X137662991Y-112258778D01*
X137506466Y-112342443D01*
X137336627Y-112393963D01*
X137270443Y-112400481D01*
X137204260Y-112407000D01*
X137115740Y-112407000D01*
X137049557Y-112400481D01*
X136983373Y-112393963D01*
X136813534Y-112342443D01*
X136657009Y-112258778D01*
X136621271Y-112229448D01*
X136519814Y-112146186D01*
X136436552Y-112044729D01*
X136407222Y-112008991D01*
X136323557Y-111852466D01*
X136272037Y-111682627D01*
X136254641Y-111506000D01*
X136272037Y-111329373D01*
X136323557Y-111159534D01*
X136407222Y-111003009D01*
X136436552Y-110967271D01*
X136519814Y-110865814D01*
X136621271Y-110782552D01*
X136657009Y-110753222D01*
X136813534Y-110669557D01*
X136983373Y-110618037D01*
X137049557Y-110611519D01*
X137115740Y-110605000D01*
X137204260Y-110605000D01*
X137270443Y-110611519D01*
X137270443Y-110611519D01*
G37*
G36*
X139810443Y-110611519D02*
G01*
X139876627Y-110618037D01*
X140046466Y-110669557D01*
X140202991Y-110753222D01*
X140238729Y-110782552D01*
X140340186Y-110865814D01*
X140423448Y-110967271D01*
X140452778Y-111003009D01*
X140536443Y-111159534D01*
X140587963Y-111329373D01*
X140605359Y-111506000D01*
X140587963Y-111682627D01*
X140536443Y-111852466D01*
X140452778Y-112008991D01*
X140423448Y-112044729D01*
X140340186Y-112146186D01*
X140238729Y-112229448D01*
X140202991Y-112258778D01*
X140046466Y-112342443D01*
X139876627Y-112393963D01*
X139810443Y-112400481D01*
X139744260Y-112407000D01*
X139655740Y-112407000D01*
X139589557Y-112400481D01*
X139523373Y-112393963D01*
X139353534Y-112342443D01*
X139197009Y-112258778D01*
X139161271Y-112229448D01*
X139059814Y-112146186D01*
X138976552Y-112044729D01*
X138947222Y-112008991D01*
X138863557Y-111852466D01*
X138812037Y-111682627D01*
X138794641Y-111506000D01*
X138812037Y-111329373D01*
X138863557Y-111159534D01*
X138947222Y-111003009D01*
X138976552Y-110967271D01*
X139059814Y-110865814D01*
X139161271Y-110782552D01*
X139197009Y-110753222D01*
X139353534Y-110669557D01*
X139523373Y-110618037D01*
X139589557Y-110611519D01*
X139655740Y-110605000D01*
X139744260Y-110605000D01*
X139810443Y-110611519D01*
X139810443Y-110611519D01*
G37*
G36*
X142350443Y-110611519D02*
G01*
X142416627Y-110618037D01*
X142586466Y-110669557D01*
X142742991Y-110753222D01*
X142778729Y-110782552D01*
X142880186Y-110865814D01*
X142963448Y-110967271D01*
X142992778Y-111003009D01*
X143076443Y-111159534D01*
X143127963Y-111329373D01*
X143145359Y-111506000D01*
X143127963Y-111682627D01*
X143076443Y-111852466D01*
X142992778Y-112008991D01*
X142963448Y-112044729D01*
X142880186Y-112146186D01*
X142778729Y-112229448D01*
X142742991Y-112258778D01*
X142586466Y-112342443D01*
X142416627Y-112393963D01*
X142350443Y-112400481D01*
X142284260Y-112407000D01*
X142195740Y-112407000D01*
X142129557Y-112400481D01*
X142063373Y-112393963D01*
X141893534Y-112342443D01*
X141737009Y-112258778D01*
X141701271Y-112229448D01*
X141599814Y-112146186D01*
X141516552Y-112044729D01*
X141487222Y-112008991D01*
X141403557Y-111852466D01*
X141352037Y-111682627D01*
X141334641Y-111506000D01*
X141352037Y-111329373D01*
X141403557Y-111159534D01*
X141487222Y-111003009D01*
X141516552Y-110967271D01*
X141599814Y-110865814D01*
X141701271Y-110782552D01*
X141737009Y-110753222D01*
X141893534Y-110669557D01*
X142063373Y-110618037D01*
X142129557Y-110611519D01*
X142195740Y-110605000D01*
X142284260Y-110605000D01*
X142350443Y-110611519D01*
X142350443Y-110611519D01*
G37*
G36*
X144890443Y-110611519D02*
G01*
X144956627Y-110618037D01*
X145126466Y-110669557D01*
X145282991Y-110753222D01*
X145318729Y-110782552D01*
X145420186Y-110865814D01*
X145503448Y-110967271D01*
X145532778Y-111003009D01*
X145616443Y-111159534D01*
X145667963Y-111329373D01*
X145685359Y-111506000D01*
X145667963Y-111682627D01*
X145616443Y-111852466D01*
X145532778Y-112008991D01*
X145503448Y-112044729D01*
X145420186Y-112146186D01*
X145318729Y-112229448D01*
X145282991Y-112258778D01*
X145126466Y-112342443D01*
X144956627Y-112393963D01*
X144890443Y-112400481D01*
X144824260Y-112407000D01*
X144735740Y-112407000D01*
X144669557Y-112400481D01*
X144603373Y-112393963D01*
X144433534Y-112342443D01*
X144277009Y-112258778D01*
X144241271Y-112229448D01*
X144139814Y-112146186D01*
X144056552Y-112044729D01*
X144027222Y-112008991D01*
X143943557Y-111852466D01*
X143892037Y-111682627D01*
X143874641Y-111506000D01*
X143892037Y-111329373D01*
X143943557Y-111159534D01*
X144027222Y-111003009D01*
X144056552Y-110967271D01*
X144139814Y-110865814D01*
X144241271Y-110782552D01*
X144277009Y-110753222D01*
X144433534Y-110669557D01*
X144603373Y-110618037D01*
X144669557Y-110611519D01*
X144735740Y-110605000D01*
X144824260Y-110605000D01*
X144890443Y-110611519D01*
X144890443Y-110611519D01*
G37*
G36*
X147430443Y-110611519D02*
G01*
X147496627Y-110618037D01*
X147666466Y-110669557D01*
X147822991Y-110753222D01*
X147858729Y-110782552D01*
X147960186Y-110865814D01*
X148043448Y-110967271D01*
X148072778Y-111003009D01*
X148156443Y-111159534D01*
X148207963Y-111329373D01*
X148225359Y-111506000D01*
X148207963Y-111682627D01*
X148156443Y-111852466D01*
X148072778Y-112008991D01*
X148043448Y-112044729D01*
X147960186Y-112146186D01*
X147858729Y-112229448D01*
X147822991Y-112258778D01*
X147666466Y-112342443D01*
X147496627Y-112393963D01*
X147430443Y-112400481D01*
X147364260Y-112407000D01*
X147275740Y-112407000D01*
X147209557Y-112400481D01*
X147143373Y-112393963D01*
X146973534Y-112342443D01*
X146817009Y-112258778D01*
X146781271Y-112229448D01*
X146679814Y-112146186D01*
X146596552Y-112044729D01*
X146567222Y-112008991D01*
X146483557Y-111852466D01*
X146432037Y-111682627D01*
X146414641Y-111506000D01*
X146432037Y-111329373D01*
X146483557Y-111159534D01*
X146567222Y-111003009D01*
X146596552Y-110967271D01*
X146679814Y-110865814D01*
X146781271Y-110782552D01*
X146817009Y-110753222D01*
X146973534Y-110669557D01*
X147143373Y-110618037D01*
X147209557Y-110611519D01*
X147275740Y-110605000D01*
X147364260Y-110605000D01*
X147430443Y-110611519D01*
X147430443Y-110611519D01*
G37*
G36*
X149970443Y-110611519D02*
G01*
X150036627Y-110618037D01*
X150206466Y-110669557D01*
X150362991Y-110753222D01*
X150398729Y-110782552D01*
X150500186Y-110865814D01*
X150583448Y-110967271D01*
X150612778Y-111003009D01*
X150696443Y-111159534D01*
X150747963Y-111329373D01*
X150765359Y-111506000D01*
X150747963Y-111682627D01*
X150696443Y-111852466D01*
X150612778Y-112008991D01*
X150583448Y-112044729D01*
X150500186Y-112146186D01*
X150398729Y-112229448D01*
X150362991Y-112258778D01*
X150206466Y-112342443D01*
X150036627Y-112393963D01*
X149970443Y-112400481D01*
X149904260Y-112407000D01*
X149815740Y-112407000D01*
X149749557Y-112400481D01*
X149683373Y-112393963D01*
X149513534Y-112342443D01*
X149357009Y-112258778D01*
X149321271Y-112229448D01*
X149219814Y-112146186D01*
X149136552Y-112044729D01*
X149107222Y-112008991D01*
X149023557Y-111852466D01*
X148972037Y-111682627D01*
X148954641Y-111506000D01*
X148972037Y-111329373D01*
X149023557Y-111159534D01*
X149107222Y-111003009D01*
X149136552Y-110967271D01*
X149219814Y-110865814D01*
X149321271Y-110782552D01*
X149357009Y-110753222D01*
X149513534Y-110669557D01*
X149683373Y-110618037D01*
X149749557Y-110611519D01*
X149815740Y-110605000D01*
X149904260Y-110605000D01*
X149970443Y-110611519D01*
X149970443Y-110611519D01*
G37*
G36*
X152510443Y-110611519D02*
G01*
X152576627Y-110618037D01*
X152746466Y-110669557D01*
X152902991Y-110753222D01*
X152938729Y-110782552D01*
X153040186Y-110865814D01*
X153123448Y-110967271D01*
X153152778Y-111003009D01*
X153236443Y-111159534D01*
X153287963Y-111329373D01*
X153305359Y-111506000D01*
X153287963Y-111682627D01*
X153236443Y-111852466D01*
X153152778Y-112008991D01*
X153123448Y-112044729D01*
X153040186Y-112146186D01*
X152938729Y-112229448D01*
X152902991Y-112258778D01*
X152746466Y-112342443D01*
X152576627Y-112393963D01*
X152510443Y-112400481D01*
X152444260Y-112407000D01*
X152355740Y-112407000D01*
X152289557Y-112400481D01*
X152223373Y-112393963D01*
X152053534Y-112342443D01*
X151897009Y-112258778D01*
X151861271Y-112229448D01*
X151759814Y-112146186D01*
X151676552Y-112044729D01*
X151647222Y-112008991D01*
X151563557Y-111852466D01*
X151512037Y-111682627D01*
X151494641Y-111506000D01*
X151512037Y-111329373D01*
X151563557Y-111159534D01*
X151647222Y-111003009D01*
X151676552Y-110967271D01*
X151759814Y-110865814D01*
X151861271Y-110782552D01*
X151897009Y-110753222D01*
X152053534Y-110669557D01*
X152223373Y-110618037D01*
X152289557Y-110611519D01*
X152355740Y-110605000D01*
X152444260Y-110605000D01*
X152510443Y-110611519D01*
X152510443Y-110611519D01*
G37*
G36*
X155050443Y-110611519D02*
G01*
X155116627Y-110618037D01*
X155286466Y-110669557D01*
X155442991Y-110753222D01*
X155478729Y-110782552D01*
X155580186Y-110865814D01*
X155663448Y-110967271D01*
X155692778Y-111003009D01*
X155776443Y-111159534D01*
X155827963Y-111329373D01*
X155845359Y-111506000D01*
X155827963Y-111682627D01*
X155776443Y-111852466D01*
X155692778Y-112008991D01*
X155663448Y-112044729D01*
X155580186Y-112146186D01*
X155478729Y-112229448D01*
X155442991Y-112258778D01*
X155286466Y-112342443D01*
X155116627Y-112393963D01*
X155050443Y-112400481D01*
X154984260Y-112407000D01*
X154895740Y-112407000D01*
X154829557Y-112400481D01*
X154763373Y-112393963D01*
X154593534Y-112342443D01*
X154437009Y-112258778D01*
X154401271Y-112229448D01*
X154299814Y-112146186D01*
X154216552Y-112044729D01*
X154187222Y-112008991D01*
X154103557Y-111852466D01*
X154052037Y-111682627D01*
X154034641Y-111506000D01*
X154052037Y-111329373D01*
X154103557Y-111159534D01*
X154187222Y-111003009D01*
X154216552Y-110967271D01*
X154299814Y-110865814D01*
X154401271Y-110782552D01*
X154437009Y-110753222D01*
X154593534Y-110669557D01*
X154763373Y-110618037D01*
X154829557Y-110611519D01*
X154895740Y-110605000D01*
X154984260Y-110605000D01*
X155050443Y-110611519D01*
X155050443Y-110611519D01*
G37*
G36*
X106790443Y-110611519D02*
G01*
X106856627Y-110618037D01*
X107026466Y-110669557D01*
X107182991Y-110753222D01*
X107218729Y-110782552D01*
X107320186Y-110865814D01*
X107403448Y-110967271D01*
X107432778Y-111003009D01*
X107516443Y-111159534D01*
X107567963Y-111329373D01*
X107585359Y-111506000D01*
X107567963Y-111682627D01*
X107516443Y-111852466D01*
X107432778Y-112008991D01*
X107403448Y-112044729D01*
X107320186Y-112146186D01*
X107218729Y-112229448D01*
X107182991Y-112258778D01*
X107026466Y-112342443D01*
X106856627Y-112393963D01*
X106790443Y-112400481D01*
X106724260Y-112407000D01*
X106635740Y-112407000D01*
X106569557Y-112400481D01*
X106503373Y-112393963D01*
X106333534Y-112342443D01*
X106177009Y-112258778D01*
X106141271Y-112229448D01*
X106039814Y-112146186D01*
X105956552Y-112044729D01*
X105927222Y-112008991D01*
X105843557Y-111852466D01*
X105792037Y-111682627D01*
X105774641Y-111506000D01*
X105792037Y-111329373D01*
X105843557Y-111159534D01*
X105927222Y-111003009D01*
X105956552Y-110967271D01*
X106039814Y-110865814D01*
X106141271Y-110782552D01*
X106177009Y-110753222D01*
X106333534Y-110669557D01*
X106503373Y-110618037D01*
X106569557Y-110611519D01*
X106635740Y-110605000D01*
X106724260Y-110605000D01*
X106790443Y-110611519D01*
X106790443Y-110611519D01*
G37*
M02*
