G04 #@! TF.GenerationSoftware,KiCad,Pcbnew,(5.1.4-0-10_14)*
G04 #@! TF.CreationDate,2020-01-14T22:34:08-05:00*
G04 #@! TF.ProjectId,Charging_LCD_Display,43686172-6769-46e6-975f-4c43445f4469,rev?*
G04 #@! TF.SameCoordinates,Original*
G04 #@! TF.FileFunction,Legend,Top*
G04 #@! TF.FilePolarity,Positive*
%FSLAX46Y46*%
G04 Gerber Fmt 4.6, Leading zero omitted, Abs format (unit mm)*
G04 Created by KiCad (PCBNEW (5.1.4-0-10_14)) date 2020-01-14 22:34:08*
%MOMM*%
%LPD*%
G04 APERTURE LIST*
%ADD10C,0.120000*%
%ADD11C,0.100000*%
%ADD12C,0.200000*%
%ADD13C,0.152400*%
%ADD14C,0.150000*%
G04 APERTURE END LIST*
D10*
X156270000Y-115376000D02*
X156270000Y-110176000D01*
X107950000Y-115376000D02*
X156270000Y-115376000D01*
X105350000Y-110176000D02*
X156270000Y-110176000D01*
X107950000Y-115376000D02*
X107950000Y-112776000D01*
X107950000Y-112776000D02*
X105350000Y-112776000D01*
X105350000Y-112776000D02*
X105350000Y-110176000D01*
X106680000Y-115376000D02*
X105350000Y-115376000D01*
X105350000Y-115376000D02*
X105350000Y-114046000D01*
X146425000Y-136526000D02*
X146425000Y-136836000D01*
X146425000Y-136836000D02*
X156295000Y-136836000D01*
X156295000Y-136836000D02*
X156295000Y-136526000D01*
X146425000Y-135006000D02*
X146425000Y-129246000D01*
X146425000Y-129246000D02*
X147845000Y-129246000D01*
X147845000Y-129246000D02*
X147845000Y-129746000D01*
X147845000Y-129746000D02*
X154875000Y-129746000D01*
X154875000Y-129746000D02*
X154875000Y-129246000D01*
X154875000Y-129246000D02*
X156295000Y-129246000D01*
X156295000Y-129246000D02*
X156295000Y-135006000D01*
X110208600Y-132996721D02*
X110208600Y-133322279D01*
X111228600Y-132996721D02*
X111228600Y-133322279D01*
X128336600Y-118799500D02*
X127136600Y-118799500D01*
X127136600Y-117039500D02*
X128336600Y-117039500D01*
X109597600Y-135129500D02*
X106797600Y-135129500D01*
X109597600Y-133729500D02*
X106797600Y-133729500D01*
X109597600Y-135129500D02*
X109597600Y-133729500D01*
D11*
X107997600Y-134429500D02*
X107697600Y-134729500D01*
X107697600Y-134729500D02*
X107647600Y-134779500D01*
X107647600Y-134779500D02*
X107647600Y-134129500D01*
X107647600Y-134079500D02*
X107647600Y-134129500D01*
X107647600Y-134129500D02*
X107647600Y-134079500D01*
X107647600Y-134079500D02*
X107997600Y-134429500D01*
X107997600Y-134429500D02*
X107997600Y-134779500D01*
X107997600Y-134079500D02*
X107997600Y-134429500D01*
D10*
X116698600Y-125985700D02*
X116698600Y-127535700D01*
X114898600Y-127535700D02*
X114898600Y-126235700D01*
X125746600Y-117097500D02*
X125746600Y-122297500D01*
X122106600Y-122297500D02*
X122106600Y-117097500D01*
X115991321Y-118683500D02*
X116316879Y-118683500D01*
X115991321Y-117663500D02*
X116316879Y-117663500D01*
X105194100Y-127952500D02*
X105194100Y-124777500D01*
X107861100Y-127952500D02*
X107861100Y-124777500D01*
X105194100Y-127952500D02*
X107861100Y-127952500D01*
D12*
X105827600Y-125277500D02*
X107527600Y-125277500D01*
X106627600Y-125277500D02*
X105827600Y-124177500D01*
X105827600Y-124177500D02*
X107527600Y-124177500D01*
X107527600Y-124177500D02*
X106627600Y-125277500D01*
D13*
X124587000Y-131889500D02*
G75*
G03X124587000Y-131889500I-76200J0D01*
G01*
X117373400Y-133568440D02*
X117373400Y-134734300D01*
X123367800Y-130210560D02*
X123367800Y-129044700D01*
X123367800Y-134734300D02*
X123367800Y-133568440D01*
X117373400Y-134734300D02*
X123367800Y-134734300D01*
X117373400Y-129044700D02*
X117373400Y-130210560D01*
X123367800Y-129044700D02*
X117373400Y-129044700D01*
D10*
X117320600Y-126972279D02*
X117320600Y-126646721D01*
X118340600Y-126972279D02*
X118340600Y-126646721D01*
D14*
X139820000Y-125426000D02*
X139820000Y-127026000D01*
X149895000Y-125426000D02*
X149895000Y-119676000D01*
X139245000Y-125426000D02*
X139245000Y-119676000D01*
X149895000Y-125426000D02*
X149245000Y-125426000D01*
X149895000Y-119676000D02*
X149245000Y-119676000D01*
X139245000Y-119676000D02*
X139895000Y-119676000D01*
X139245000Y-125426000D02*
X139820000Y-125426000D01*
D10*
X150280000Y-117356000D02*
X150280000Y-118356000D01*
X151980000Y-118356000D02*
X151980000Y-117356000D01*
X137660000Y-125896000D02*
X136660000Y-125896000D01*
X136660000Y-127596000D02*
X137660000Y-127596000D01*
X137660000Y-120816000D02*
X136660000Y-120816000D01*
X136660000Y-122516000D02*
X137660000Y-122516000D01*
X152900000Y-123356000D02*
X151900000Y-123356000D01*
X151900000Y-125056000D02*
X152900000Y-125056000D01*
X136660000Y-125056000D02*
X137660000Y-125056000D01*
X137660000Y-123356000D02*
X136660000Y-123356000D01*
X134807400Y-117992000D02*
X136007400Y-117992000D01*
X136007400Y-119752000D02*
X134807400Y-119752000D01*
X144211600Y-130089800D02*
X143011600Y-130089800D01*
X143011600Y-128329800D02*
X144211600Y-128329800D01*
D11*
X154400000Y-123266000D02*
X154400000Y-121666000D01*
X154400000Y-123266000D02*
X152400000Y-123266000D01*
D10*
X113473600Y-133659500D02*
X113473600Y-132659500D01*
X111773600Y-132659500D02*
X111773600Y-133659500D01*
X115378600Y-133659500D02*
X115378600Y-132659500D01*
X113678600Y-132659500D02*
X113678600Y-133659500D01*
X126220600Y-132231500D02*
X127220600Y-132231500D01*
X127220600Y-130531500D02*
X126220600Y-130531500D01*
X127236600Y-128075500D02*
X125236600Y-128075500D01*
X125236600Y-130115500D02*
X127236600Y-130115500D01*
X124064348Y-124083500D02*
X126836852Y-124083500D01*
X124064348Y-127503500D02*
X126836852Y-127503500D01*
X112841821Y-117663500D02*
X113167379Y-117663500D01*
X112841821Y-118683500D02*
X113167379Y-118683500D01*
D11*
X127565900Y-121294500D02*
X127215900Y-121294500D01*
X127215900Y-121294500D02*
X126865900Y-121294500D01*
X127565900Y-120944500D02*
X127215900Y-121294500D01*
X127515900Y-120944500D02*
X127565900Y-120944500D01*
X127565900Y-120944500D02*
X127515900Y-120944500D01*
X126865900Y-120944500D02*
X127515900Y-120944500D01*
X126915900Y-120994500D02*
X126865900Y-120944500D01*
X127215900Y-121294500D02*
X126915900Y-120994500D01*
D10*
X126515900Y-122894500D02*
X127915900Y-122894500D01*
X127915900Y-122894500D02*
X127915900Y-120094500D01*
X126515900Y-122894500D02*
X126515900Y-120094500D01*
X112507352Y-130805500D02*
X109734848Y-130805500D01*
X112507352Y-127385500D02*
X109734848Y-127385500D01*
X111896600Y-124405500D02*
X113096600Y-124405500D01*
X113096600Y-126165500D02*
X111896600Y-126165500D01*
X112518300Y-123129600D02*
X112518300Y-121929600D01*
X114278300Y-121929600D02*
X114278300Y-123129600D01*
X116906600Y-122863500D02*
X115706600Y-122863500D01*
X115706600Y-121103500D02*
X116906600Y-121103500D01*
X107578600Y-131517500D02*
X108778600Y-131517500D01*
X108778600Y-133277500D02*
X107578600Y-133277500D01*
D14*
X103802380Y-113537904D02*
X104611904Y-113537904D01*
X104707142Y-113490285D01*
X104754761Y-113442666D01*
X104802380Y-113347428D01*
X104802380Y-113156952D01*
X104754761Y-113061714D01*
X104707142Y-113014095D01*
X104611904Y-112966476D01*
X103802380Y-112966476D01*
X103897619Y-112537904D02*
X103850000Y-112490285D01*
X103802380Y-112395047D01*
X103802380Y-112156952D01*
X103850000Y-112061714D01*
X103897619Y-112014095D01*
X103992857Y-111966476D01*
X104088095Y-111966476D01*
X104230952Y-112014095D01*
X104802380Y-112585523D01*
X104802380Y-111966476D01*
X151026666Y-127608380D02*
X151026666Y-128322666D01*
X150979047Y-128465523D01*
X150883809Y-128560761D01*
X150740952Y-128608380D01*
X150645714Y-128608380D01*
X152026666Y-128608380D02*
X151455238Y-128608380D01*
X151740952Y-128608380D02*
X151740952Y-127608380D01*
X151645714Y-127751238D01*
X151550476Y-127846476D01*
X151455238Y-127894095D01*
X111075742Y-136501166D02*
X111123361Y-136548785D01*
X111170980Y-136691642D01*
X111170980Y-136786880D01*
X111123361Y-136929738D01*
X111028123Y-137024976D01*
X110932885Y-137072595D01*
X110742409Y-137120214D01*
X110599552Y-137120214D01*
X110409076Y-137072595D01*
X110313838Y-137024976D01*
X110218600Y-136929738D01*
X110170980Y-136786880D01*
X110170980Y-136691642D01*
X110218600Y-136548785D01*
X110266219Y-136501166D01*
X111170980Y-135548785D02*
X111170980Y-136120214D01*
X111170980Y-135834500D02*
X110170980Y-135834500D01*
X110313838Y-135929738D01*
X110409076Y-136024976D01*
X110456695Y-136120214D01*
X127569933Y-116721880D02*
X127236600Y-116245690D01*
X126998504Y-116721880D02*
X126998504Y-115721880D01*
X127379457Y-115721880D01*
X127474695Y-115769500D01*
X127522314Y-115817119D01*
X127569933Y-115912357D01*
X127569933Y-116055214D01*
X127522314Y-116150452D01*
X127474695Y-116198071D01*
X127379457Y-116245690D01*
X126998504Y-116245690D01*
X128427076Y-115721880D02*
X128236600Y-115721880D01*
X128141361Y-115769500D01*
X128093742Y-115817119D01*
X127998504Y-115959976D01*
X127950885Y-116150452D01*
X127950885Y-116531404D01*
X127998504Y-116626642D01*
X128046123Y-116674261D01*
X128141361Y-116721880D01*
X128331838Y-116721880D01*
X128427076Y-116674261D01*
X128474695Y-116626642D01*
X128522314Y-116531404D01*
X128522314Y-116293309D01*
X128474695Y-116198071D01*
X128427076Y-116150452D01*
X128331838Y-116102833D01*
X128141361Y-116102833D01*
X128046123Y-116150452D01*
X127998504Y-116198071D01*
X127950885Y-116293309D01*
X103973404Y-135008880D02*
X103973404Y-134008880D01*
X104211500Y-134008880D01*
X104354357Y-134056500D01*
X104449595Y-134151738D01*
X104497214Y-134246976D01*
X104544833Y-134437452D01*
X104544833Y-134580309D01*
X104497214Y-134770785D01*
X104449595Y-134866023D01*
X104354357Y-134961261D01*
X104211500Y-135008880D01*
X103973404Y-135008880D01*
X104925785Y-134104119D02*
X104973404Y-134056500D01*
X105068642Y-134008880D01*
X105306738Y-134008880D01*
X105401976Y-134056500D01*
X105449595Y-134104119D01*
X105497214Y-134199357D01*
X105497214Y-134294595D01*
X105449595Y-134437452D01*
X104878166Y-135008880D01*
X105497214Y-135008880D01*
X115023995Y-124394980D02*
X115023995Y-125204504D01*
X115071614Y-125299742D01*
X115119233Y-125347361D01*
X115214471Y-125394980D01*
X115404947Y-125394980D01*
X115500185Y-125347361D01*
X115547804Y-125299742D01*
X115595423Y-125204504D01*
X115595423Y-124394980D01*
X116595423Y-125394980D02*
X116023995Y-125394980D01*
X116309709Y-125394980D02*
X116309709Y-124394980D01*
X116214471Y-124537838D01*
X116119233Y-124633076D01*
X116023995Y-124680695D01*
X120826233Y-123401080D02*
X120492900Y-122924890D01*
X120254804Y-123401080D02*
X120254804Y-122401080D01*
X120635757Y-122401080D01*
X120730995Y-122448700D01*
X120778614Y-122496319D01*
X120826233Y-122591557D01*
X120826233Y-122734414D01*
X120778614Y-122829652D01*
X120730995Y-122877271D01*
X120635757Y-122924890D01*
X120254804Y-122924890D01*
X121730995Y-122401080D02*
X121254804Y-122401080D01*
X121207185Y-122877271D01*
X121254804Y-122829652D01*
X121350042Y-122782033D01*
X121588138Y-122782033D01*
X121683376Y-122829652D01*
X121730995Y-122877271D01*
X121778614Y-122972509D01*
X121778614Y-123210604D01*
X121730995Y-123305842D01*
X121683376Y-123353461D01*
X121588138Y-123401080D01*
X121350042Y-123401080D01*
X121254804Y-123353461D01*
X121207185Y-123305842D01*
X115987433Y-117195880D02*
X115654100Y-116719690D01*
X115416004Y-117195880D02*
X115416004Y-116195880D01*
X115796957Y-116195880D01*
X115892195Y-116243500D01*
X115939814Y-116291119D01*
X115987433Y-116386357D01*
X115987433Y-116529214D01*
X115939814Y-116624452D01*
X115892195Y-116672071D01*
X115796957Y-116719690D01*
X115416004Y-116719690D01*
X116320766Y-116195880D02*
X116987433Y-116195880D01*
X116558861Y-117195880D01*
X104729980Y-125215595D02*
X103729980Y-125215595D01*
X103729980Y-124977500D01*
X103777600Y-124834642D01*
X103872838Y-124739404D01*
X103968076Y-124691785D01*
X104158552Y-124644166D01*
X104301409Y-124644166D01*
X104491885Y-124691785D01*
X104587123Y-124739404D01*
X104682361Y-124834642D01*
X104729980Y-124977500D01*
X104729980Y-125215595D01*
X104729980Y-123691785D02*
X104729980Y-124263214D01*
X104729980Y-123977500D02*
X103729980Y-123977500D01*
X103872838Y-124072738D01*
X103968076Y-124167976D01*
X104015695Y-124263214D01*
X120330933Y-136304280D02*
X119854742Y-136304280D01*
X119854742Y-135304280D01*
X121188076Y-136304280D02*
X120616647Y-136304280D01*
X120902361Y-136304280D02*
X120902361Y-135304280D01*
X120807123Y-135447138D01*
X120711885Y-135542376D01*
X120616647Y-135589995D01*
X120370600Y-131341880D02*
X120370600Y-131579976D01*
X120132504Y-131484738D02*
X120370600Y-131579976D01*
X120608695Y-131484738D01*
X120227742Y-131770452D02*
X120370600Y-131579976D01*
X120513457Y-131770452D01*
X119454633Y-127992142D02*
X119407014Y-128039761D01*
X119264157Y-128087380D01*
X119168919Y-128087380D01*
X119026061Y-128039761D01*
X118930823Y-127944523D01*
X118883204Y-127849285D01*
X118835585Y-127658809D01*
X118835585Y-127515952D01*
X118883204Y-127325476D01*
X118930823Y-127230238D01*
X119026061Y-127135000D01*
X119168919Y-127087380D01*
X119264157Y-127087380D01*
X119407014Y-127135000D01*
X119454633Y-127182619D01*
X120311776Y-127420714D02*
X120311776Y-128087380D01*
X120073680Y-127039761D02*
X119835585Y-127754047D01*
X120454633Y-127754047D01*
X137772380Y-123312904D02*
X138581904Y-123312904D01*
X138677142Y-123265285D01*
X138724761Y-123217666D01*
X138772380Y-123122428D01*
X138772380Y-122931952D01*
X138724761Y-122836714D01*
X138677142Y-122789095D01*
X138581904Y-122741476D01*
X137772380Y-122741476D01*
X137772380Y-122360523D02*
X137772380Y-121741476D01*
X138153333Y-122074809D01*
X138153333Y-121931952D01*
X138200952Y-121836714D01*
X138248571Y-121789095D01*
X138343809Y-121741476D01*
X138581904Y-121741476D01*
X138677142Y-121789095D01*
X138724761Y-121836714D01*
X138772380Y-121931952D01*
X138772380Y-122217666D01*
X138724761Y-122312904D01*
X138677142Y-122360523D01*
X152987142Y-118498857D02*
X153034761Y-118546476D01*
X153082380Y-118689333D01*
X153082380Y-118784571D01*
X153034761Y-118927428D01*
X152939523Y-119022666D01*
X152844285Y-119070285D01*
X152653809Y-119117904D01*
X152510952Y-119117904D01*
X152320476Y-119070285D01*
X152225238Y-119022666D01*
X152130000Y-118927428D01*
X152082380Y-118784571D01*
X152082380Y-118689333D01*
X152130000Y-118546476D01*
X152177619Y-118498857D01*
X153082380Y-117546476D02*
X153082380Y-118117904D01*
X153082380Y-117832190D02*
X152082380Y-117832190D01*
X152225238Y-117927428D01*
X152320476Y-118022666D01*
X152368095Y-118117904D01*
X152082380Y-116927428D02*
X152082380Y-116832190D01*
X152130000Y-116736952D01*
X152177619Y-116689333D01*
X152272857Y-116641714D01*
X152463333Y-116594095D01*
X152701428Y-116594095D01*
X152891904Y-116641714D01*
X152987142Y-116689333D01*
X153034761Y-116736952D01*
X153082380Y-116832190D01*
X153082380Y-116927428D01*
X153034761Y-117022666D01*
X152987142Y-117070285D01*
X152891904Y-117117904D01*
X152701428Y-117165523D01*
X152463333Y-117165523D01*
X152272857Y-117117904D01*
X152177619Y-117070285D01*
X152130000Y-117022666D01*
X152082380Y-116927428D01*
X134046933Y-127204742D02*
X133999314Y-127252361D01*
X133856457Y-127299980D01*
X133761219Y-127299980D01*
X133618361Y-127252361D01*
X133523123Y-127157123D01*
X133475504Y-127061885D01*
X133427885Y-126871409D01*
X133427885Y-126728552D01*
X133475504Y-126538076D01*
X133523123Y-126442838D01*
X133618361Y-126347600D01*
X133761219Y-126299980D01*
X133856457Y-126299980D01*
X133999314Y-126347600D01*
X134046933Y-126395219D01*
X134523123Y-127299980D02*
X134713600Y-127299980D01*
X134808838Y-127252361D01*
X134856457Y-127204742D01*
X134951695Y-127061885D01*
X134999314Y-126871409D01*
X134999314Y-126490457D01*
X134951695Y-126395219D01*
X134904076Y-126347600D01*
X134808838Y-126299980D01*
X134618361Y-126299980D01*
X134523123Y-126347600D01*
X134475504Y-126395219D01*
X134427885Y-126490457D01*
X134427885Y-126728552D01*
X134475504Y-126823790D01*
X134523123Y-126871409D01*
X134618361Y-126919028D01*
X134808838Y-126919028D01*
X134904076Y-126871409D01*
X134951695Y-126823790D01*
X134999314Y-126728552D01*
X133418342Y-122073942D02*
X133370723Y-122121561D01*
X133227866Y-122169180D01*
X133132628Y-122169180D01*
X132989771Y-122121561D01*
X132894533Y-122026323D01*
X132846914Y-121931085D01*
X132799295Y-121740609D01*
X132799295Y-121597752D01*
X132846914Y-121407276D01*
X132894533Y-121312038D01*
X132989771Y-121216800D01*
X133132628Y-121169180D01*
X133227866Y-121169180D01*
X133370723Y-121216800D01*
X133418342Y-121264419D01*
X134370723Y-122169180D02*
X133799295Y-122169180D01*
X134085009Y-122169180D02*
X134085009Y-121169180D01*
X133989771Y-121312038D01*
X133894533Y-121407276D01*
X133799295Y-121454895D01*
X135323104Y-122169180D02*
X134751676Y-122169180D01*
X135037390Y-122169180D02*
X135037390Y-121169180D01*
X134942152Y-121312038D01*
X134846914Y-121407276D01*
X134751676Y-121454895D01*
X155033742Y-124664742D02*
X154986123Y-124712361D01*
X154843266Y-124759980D01*
X154748028Y-124759980D01*
X154605171Y-124712361D01*
X154509933Y-124617123D01*
X154462314Y-124521885D01*
X154414695Y-124331409D01*
X154414695Y-124188552D01*
X154462314Y-123998076D01*
X154509933Y-123902838D01*
X154605171Y-123807600D01*
X154748028Y-123759980D01*
X154843266Y-123759980D01*
X154986123Y-123807600D01*
X155033742Y-123855219D01*
X155986123Y-124759980D02*
X155414695Y-124759980D01*
X155700409Y-124759980D02*
X155700409Y-123759980D01*
X155605171Y-123902838D01*
X155509933Y-123998076D01*
X155414695Y-124045695D01*
X156367076Y-123855219D02*
X156414695Y-123807600D01*
X156509933Y-123759980D01*
X156748028Y-123759980D01*
X156843266Y-123807600D01*
X156890885Y-123855219D01*
X156938504Y-123950457D01*
X156938504Y-124045695D01*
X156890885Y-124188552D01*
X156319457Y-124759980D01*
X156938504Y-124759980D01*
X133138942Y-124588542D02*
X133091323Y-124636161D01*
X132948466Y-124683780D01*
X132853228Y-124683780D01*
X132710371Y-124636161D01*
X132615133Y-124540923D01*
X132567514Y-124445685D01*
X132519895Y-124255209D01*
X132519895Y-124112352D01*
X132567514Y-123921876D01*
X132615133Y-123826638D01*
X132710371Y-123731400D01*
X132853228Y-123683780D01*
X132948466Y-123683780D01*
X133091323Y-123731400D01*
X133138942Y-123779019D01*
X134091323Y-124683780D02*
X133519895Y-124683780D01*
X133805609Y-124683780D02*
X133805609Y-123683780D01*
X133710371Y-123826638D01*
X133615133Y-123921876D01*
X133519895Y-123969495D01*
X134424657Y-123683780D02*
X135043704Y-123683780D01*
X134710371Y-124064733D01*
X134853228Y-124064733D01*
X134948466Y-124112352D01*
X134996085Y-124159971D01*
X135043704Y-124255209D01*
X135043704Y-124493304D01*
X134996085Y-124588542D01*
X134948466Y-124636161D01*
X134853228Y-124683780D01*
X134567514Y-124683780D01*
X134472276Y-124636161D01*
X134424657Y-124588542D01*
X132675333Y-119400580D02*
X132342000Y-118924390D01*
X132103904Y-119400580D02*
X132103904Y-118400580D01*
X132484857Y-118400580D01*
X132580095Y-118448200D01*
X132627714Y-118495819D01*
X132675333Y-118591057D01*
X132675333Y-118733914D01*
X132627714Y-118829152D01*
X132580095Y-118876771D01*
X132484857Y-118924390D01*
X132103904Y-118924390D01*
X133246761Y-118829152D02*
X133151523Y-118781533D01*
X133103904Y-118733914D01*
X133056285Y-118638676D01*
X133056285Y-118591057D01*
X133103904Y-118495819D01*
X133151523Y-118448200D01*
X133246761Y-118400580D01*
X133437238Y-118400580D01*
X133532476Y-118448200D01*
X133580095Y-118495819D01*
X133627714Y-118591057D01*
X133627714Y-118638676D01*
X133580095Y-118733914D01*
X133532476Y-118781533D01*
X133437238Y-118829152D01*
X133246761Y-118829152D01*
X133151523Y-118876771D01*
X133103904Y-118924390D01*
X133056285Y-119019628D01*
X133056285Y-119210104D01*
X133103904Y-119305342D01*
X133151523Y-119352961D01*
X133246761Y-119400580D01*
X133437238Y-119400580D01*
X133532476Y-119352961D01*
X133580095Y-119305342D01*
X133627714Y-119210104D01*
X133627714Y-119019628D01*
X133580095Y-118924390D01*
X133532476Y-118876771D01*
X133437238Y-118829152D01*
X140803333Y-129687580D02*
X140470000Y-129211390D01*
X140231904Y-129687580D02*
X140231904Y-128687580D01*
X140612857Y-128687580D01*
X140708095Y-128735200D01*
X140755714Y-128782819D01*
X140803333Y-128878057D01*
X140803333Y-129020914D01*
X140755714Y-129116152D01*
X140708095Y-129163771D01*
X140612857Y-129211390D01*
X140231904Y-129211390D01*
X141279523Y-129687580D02*
X141470000Y-129687580D01*
X141565238Y-129639961D01*
X141612857Y-129592342D01*
X141708095Y-129449485D01*
X141755714Y-129259009D01*
X141755714Y-128878057D01*
X141708095Y-128782819D01*
X141660476Y-128735200D01*
X141565238Y-128687580D01*
X141374761Y-128687580D01*
X141279523Y-128735200D01*
X141231904Y-128782819D01*
X141184285Y-128878057D01*
X141184285Y-129116152D01*
X141231904Y-129211390D01*
X141279523Y-129259009D01*
X141374761Y-129306628D01*
X141565238Y-129306628D01*
X141660476Y-129259009D01*
X141708095Y-129211390D01*
X141755714Y-129116152D01*
X155098809Y-122556590D02*
X155098809Y-123032780D01*
X154765476Y-122032780D02*
X155098809Y-122556590D01*
X155432142Y-122032780D01*
X156289285Y-123032780D02*
X155717857Y-123032780D01*
X156003571Y-123032780D02*
X156003571Y-122032780D01*
X155908333Y-122175638D01*
X155813095Y-122270876D01*
X155717857Y-122318495D01*
X113107742Y-136501166D02*
X113155361Y-136548785D01*
X113202980Y-136691642D01*
X113202980Y-136786880D01*
X113155361Y-136929738D01*
X113060123Y-137024976D01*
X112964885Y-137072595D01*
X112774409Y-137120214D01*
X112631552Y-137120214D01*
X112441076Y-137072595D01*
X112345838Y-137024976D01*
X112250600Y-136929738D01*
X112202980Y-136786880D01*
X112202980Y-136691642D01*
X112250600Y-136548785D01*
X112298219Y-136501166D01*
X112298219Y-136120214D02*
X112250600Y-136072595D01*
X112202980Y-135977357D01*
X112202980Y-135739261D01*
X112250600Y-135644023D01*
X112298219Y-135596404D01*
X112393457Y-135548785D01*
X112488695Y-135548785D01*
X112631552Y-135596404D01*
X113202980Y-136167833D01*
X113202980Y-135548785D01*
X116385742Y-133326166D02*
X116433361Y-133373785D01*
X116480980Y-133516642D01*
X116480980Y-133611880D01*
X116433361Y-133754738D01*
X116338123Y-133849976D01*
X116242885Y-133897595D01*
X116052409Y-133945214D01*
X115909552Y-133945214D01*
X115719076Y-133897595D01*
X115623838Y-133849976D01*
X115528600Y-133754738D01*
X115480980Y-133611880D01*
X115480980Y-133516642D01*
X115528600Y-133373785D01*
X115576219Y-133326166D01*
X115480980Y-132992833D02*
X115480980Y-132373785D01*
X115861933Y-132707119D01*
X115861933Y-132564261D01*
X115909552Y-132469023D01*
X115957171Y-132421404D01*
X116052409Y-132373785D01*
X116290504Y-132373785D01*
X116385742Y-132421404D01*
X116433361Y-132469023D01*
X116480980Y-132564261D01*
X116480980Y-132849976D01*
X116433361Y-132945214D01*
X116385742Y-132992833D01*
X129347933Y-132030742D02*
X129300314Y-132078361D01*
X129157457Y-132125980D01*
X129062219Y-132125980D01*
X128919361Y-132078361D01*
X128824123Y-131983123D01*
X128776504Y-131887885D01*
X128728885Y-131697409D01*
X128728885Y-131554552D01*
X128776504Y-131364076D01*
X128824123Y-131268838D01*
X128919361Y-131173600D01*
X129062219Y-131125980D01*
X129157457Y-131125980D01*
X129300314Y-131173600D01*
X129347933Y-131221219D01*
X130252695Y-131125980D02*
X129776504Y-131125980D01*
X129728885Y-131602171D01*
X129776504Y-131554552D01*
X129871742Y-131506933D01*
X130109838Y-131506933D01*
X130205076Y-131554552D01*
X130252695Y-131602171D01*
X130300314Y-131697409D01*
X130300314Y-131935504D01*
X130252695Y-132030742D01*
X130205076Y-132078361D01*
X130109838Y-132125980D01*
X129871742Y-132125980D01*
X129776504Y-132078361D01*
X129728885Y-132030742D01*
X129347933Y-129617742D02*
X129300314Y-129665361D01*
X129157457Y-129712980D01*
X129062219Y-129712980D01*
X128919361Y-129665361D01*
X128824123Y-129570123D01*
X128776504Y-129474885D01*
X128728885Y-129284409D01*
X128728885Y-129141552D01*
X128776504Y-128951076D01*
X128824123Y-128855838D01*
X128919361Y-128760600D01*
X129062219Y-128712980D01*
X129157457Y-128712980D01*
X129300314Y-128760600D01*
X129347933Y-128808219D01*
X130205076Y-128712980D02*
X130014600Y-128712980D01*
X129919361Y-128760600D01*
X129871742Y-128808219D01*
X129776504Y-128951076D01*
X129728885Y-129141552D01*
X129728885Y-129522504D01*
X129776504Y-129617742D01*
X129824123Y-129665361D01*
X129919361Y-129712980D01*
X130109838Y-129712980D01*
X130205076Y-129665361D01*
X130252695Y-129617742D01*
X130300314Y-129522504D01*
X130300314Y-129284409D01*
X130252695Y-129189171D01*
X130205076Y-129141552D01*
X130109838Y-129093933D01*
X129919361Y-129093933D01*
X129824123Y-129141552D01*
X129776504Y-129189171D01*
X129728885Y-129284409D01*
X129297133Y-126303042D02*
X129249514Y-126350661D01*
X129106657Y-126398280D01*
X129011419Y-126398280D01*
X128868561Y-126350661D01*
X128773323Y-126255423D01*
X128725704Y-126160185D01*
X128678085Y-125969709D01*
X128678085Y-125826852D01*
X128725704Y-125636376D01*
X128773323Y-125541138D01*
X128868561Y-125445900D01*
X129011419Y-125398280D01*
X129106657Y-125398280D01*
X129249514Y-125445900D01*
X129297133Y-125493519D01*
X129630466Y-125398280D02*
X130297133Y-125398280D01*
X129868561Y-126398280D01*
X112837933Y-117100642D02*
X112790314Y-117148261D01*
X112647457Y-117195880D01*
X112552219Y-117195880D01*
X112409361Y-117148261D01*
X112314123Y-117053023D01*
X112266504Y-116957785D01*
X112218885Y-116767309D01*
X112218885Y-116624452D01*
X112266504Y-116433976D01*
X112314123Y-116338738D01*
X112409361Y-116243500D01*
X112552219Y-116195880D01*
X112647457Y-116195880D01*
X112790314Y-116243500D01*
X112837933Y-116291119D01*
X113409361Y-116624452D02*
X113314123Y-116576833D01*
X113266504Y-116529214D01*
X113218885Y-116433976D01*
X113218885Y-116386357D01*
X113266504Y-116291119D01*
X113314123Y-116243500D01*
X113409361Y-116195880D01*
X113599838Y-116195880D01*
X113695076Y-116243500D01*
X113742695Y-116291119D01*
X113790314Y-116386357D01*
X113790314Y-116433976D01*
X113742695Y-116529214D01*
X113695076Y-116576833D01*
X113599838Y-116624452D01*
X113409361Y-116624452D01*
X113314123Y-116672071D01*
X113266504Y-116719690D01*
X113218885Y-116814928D01*
X113218885Y-117005404D01*
X113266504Y-117100642D01*
X113314123Y-117148261D01*
X113409361Y-117195880D01*
X113599838Y-117195880D01*
X113695076Y-117148261D01*
X113742695Y-117100642D01*
X113790314Y-117005404D01*
X113790314Y-116814928D01*
X113742695Y-116719690D01*
X113695076Y-116672071D01*
X113599838Y-116624452D01*
X128586004Y-120391180D02*
X128586004Y-119391180D01*
X128824100Y-119391180D01*
X128966957Y-119438800D01*
X129062195Y-119534038D01*
X129109814Y-119629276D01*
X129157433Y-119819752D01*
X129157433Y-119962609D01*
X129109814Y-120153085D01*
X129062195Y-120248323D01*
X128966957Y-120343561D01*
X128824100Y-120391180D01*
X128586004Y-120391180D01*
X129490766Y-119391180D02*
X130109814Y-119391180D01*
X129776480Y-119772133D01*
X129919338Y-119772133D01*
X130014576Y-119819752D01*
X130062195Y-119867371D01*
X130109814Y-119962609D01*
X130109814Y-120200704D01*
X130062195Y-120295942D01*
X130014576Y-120343561D01*
X129919338Y-120391180D01*
X129633623Y-120391180D01*
X129538385Y-120343561D01*
X129490766Y-120295942D01*
X106930866Y-130344871D02*
X106597533Y-130344871D01*
X106597533Y-130868680D02*
X106597533Y-129868680D01*
X107073723Y-129868680D01*
X107978485Y-130868680D02*
X107407057Y-130868680D01*
X107692771Y-130868680D02*
X107692771Y-129868680D01*
X107597533Y-130011538D01*
X107502295Y-130106776D01*
X107407057Y-130154395D01*
X109637533Y-125737880D02*
X109304200Y-125261690D01*
X109066104Y-125737880D02*
X109066104Y-124737880D01*
X109447057Y-124737880D01*
X109542295Y-124785500D01*
X109589914Y-124833119D01*
X109637533Y-124928357D01*
X109637533Y-125071214D01*
X109589914Y-125166452D01*
X109542295Y-125214071D01*
X109447057Y-125261690D01*
X109066104Y-125261690D01*
X110018485Y-124833119D02*
X110066104Y-124785500D01*
X110161342Y-124737880D01*
X110399438Y-124737880D01*
X110494676Y-124785500D01*
X110542295Y-124833119D01*
X110589914Y-124928357D01*
X110589914Y-125023595D01*
X110542295Y-125166452D01*
X109970866Y-125737880D01*
X110589914Y-125737880D01*
X111161533Y-123807480D02*
X110828200Y-123331290D01*
X110590104Y-123807480D02*
X110590104Y-122807480D01*
X110971057Y-122807480D01*
X111066295Y-122855100D01*
X111113914Y-122902719D01*
X111161533Y-122997957D01*
X111161533Y-123140814D01*
X111113914Y-123236052D01*
X111066295Y-123283671D01*
X110971057Y-123331290D01*
X110590104Y-123331290D01*
X111494866Y-122807480D02*
X112113914Y-122807480D01*
X111780580Y-123188433D01*
X111923438Y-123188433D01*
X112018676Y-123236052D01*
X112066295Y-123283671D01*
X112113914Y-123378909D01*
X112113914Y-123617004D01*
X112066295Y-123712242D01*
X112018676Y-123759861D01*
X111923438Y-123807480D01*
X111637723Y-123807480D01*
X111542485Y-123759861D01*
X111494866Y-123712242D01*
X116101833Y-120772180D02*
X115768500Y-120295990D01*
X115530404Y-120772180D02*
X115530404Y-119772180D01*
X115911357Y-119772180D01*
X116006595Y-119819800D01*
X116054214Y-119867419D01*
X116101833Y-119962657D01*
X116101833Y-120105514D01*
X116054214Y-120200752D01*
X116006595Y-120248371D01*
X115911357Y-120295990D01*
X115530404Y-120295990D01*
X116958976Y-120105514D02*
X116958976Y-120772180D01*
X116720880Y-119724561D02*
X116482785Y-120438847D01*
X117101833Y-120438847D01*
X105243333Y-132900680D02*
X104910000Y-132424490D01*
X104671904Y-132900680D02*
X104671904Y-131900680D01*
X105052857Y-131900680D01*
X105148095Y-131948300D01*
X105195714Y-131995919D01*
X105243333Y-132091157D01*
X105243333Y-132234014D01*
X105195714Y-132329252D01*
X105148095Y-132376871D01*
X105052857Y-132424490D01*
X104671904Y-132424490D01*
X106195714Y-132900680D02*
X105624285Y-132900680D01*
X105910000Y-132900680D02*
X105910000Y-131900680D01*
X105814761Y-132043538D01*
X105719523Y-132138776D01*
X105624285Y-132186395D01*
M02*
