M48
INCH,TZ
T1C0.0120
T2C0.0394
T3C0.0394
%
G90
G05
T1
X42880Y-53735
X43010Y-48675
X43015Y-48320
X43030Y-47945
X43480Y-53755
X44060Y-53745
X44620Y-53725
X45220Y-53735
X45790Y-48725
X45815Y-53755
X46140Y-48725
X46485Y-53775
X46490Y-48725
X46840Y-48725
X47130Y-53800
X47190Y-48725
X47190Y-49075
X47190Y-49425
X47190Y-49775
X47835Y-53780
X48495Y-53730
X49235Y-53735
X49855Y-53735
X50545Y-53795
X50555Y-52845
X50560Y-52355
X50815Y-53470
X50980Y-50105
X50980Y-53045
X50990Y-48825
X50990Y-49225
X50990Y-49625
X50990Y-50500
X50990Y-51325
X50990Y-52115
X50995Y-50920
X50995Y-51710
X51015Y-52585
X54001Y-47440
X54200Y-46830
X54395Y-50415
X61250Y-48210
T2
X42000Y-43900
X42000Y-44900
X43000Y-43900
X43000Y-44900
X44000Y-43900
X44000Y-44900
X45000Y-43900
X45000Y-44900
X46000Y-43900
X46000Y-44900
X47000Y-43900
X47000Y-44900
X48000Y-43900
X48000Y-44900
X49000Y-43900
X49000Y-44900
X50000Y-43900
X50000Y-44900
X51000Y-43900
X51000Y-44900
X52000Y-43900
X52000Y-44900
X53000Y-43900
X53000Y-44900
X54000Y-43900
X54000Y-44900
X55000Y-43900
X55000Y-44900
X56000Y-43900
X56000Y-44900
X57000Y-43900
X57000Y-44900
X58000Y-43900
X58000Y-44900
X59000Y-43900
X59000Y-44900
X60000Y-43900
X60000Y-44900
X61000Y-43900
X61000Y-44900
X59000Y-51900
X59000Y-53081
X60181Y-51900
X60181Y-53081
T3
X57819Y-53451
X61362Y-53451
T0
M30
