G04 #@! TF.GenerationSoftware,KiCad,Pcbnew,(5.1.4-0-10_14)*
G04 #@! TF.CreationDate,2020-01-14T22:34:08-05:00*
G04 #@! TF.ProjectId,Charging_LCD_Display,43686172-6769-46e6-975f-4c43445f4469,rev?*
G04 #@! TF.SameCoordinates,Original*
G04 #@! TF.FileFunction,Copper,L1,Top*
G04 #@! TF.FilePolarity,Positive*
%FSLAX46Y46*%
G04 Gerber Fmt 4.6, Leading zero omitted, Abs format (unit mm)*
G04 Created by KiCad (PCBNEW (5.1.4-0-10_14)) date 2020-01-14 22:34:08*
%MOMM*%
%LPD*%
G04 APERTURE LIST*
%ADD10R,1.700000X1.700000*%
%ADD11O,1.700000X1.700000*%
%ADD12C,0.100000*%
%ADD13C,1.500000*%
%ADD14C,0.875000*%
%ADD15R,0.700000X1.300000*%
%ADD16R,1.200000X1.200000*%
%ADD17R,0.200000X0.700000*%
%ADD18R,3.200000X1.000000*%
%ADD19R,2.159000X1.778000*%
%ADD20R,1.981200X2.692400*%
%ADD21R,0.450000X1.750000*%
%ADD22R,1.250000X1.000000*%
%ADD23R,1.000000X1.250000*%
%ADD24R,1.400000X1.200000*%
%ADD25R,1.000000X1.600000*%
%ADD26C,1.125000*%
%ADD27R,1.300000X0.700000*%
%ADD28C,0.609600*%
%ADD29C,0.152400*%
%ADD30C,0.381000*%
%ADD31C,0.254000*%
%ADD32C,1.300000*%
%ADD33C,0.700000*%
G04 APERTURE END LIST*
D10*
X106680000Y-114046000D03*
D11*
X106680000Y-111506000D03*
X109220000Y-114046000D03*
X109220000Y-111506000D03*
X111760000Y-114046000D03*
X111760000Y-111506000D03*
X114300000Y-114046000D03*
X114300000Y-111506000D03*
X116840000Y-114046000D03*
X116840000Y-111506000D03*
X119380000Y-114046000D03*
X119380000Y-111506000D03*
X121920000Y-114046000D03*
X121920000Y-111506000D03*
X124460000Y-114046000D03*
X124460000Y-111506000D03*
X127000000Y-114046000D03*
X127000000Y-111506000D03*
X129540000Y-114046000D03*
X129540000Y-111506000D03*
X132080000Y-114046000D03*
X132080000Y-111506000D03*
X134620000Y-114046000D03*
X134620000Y-111506000D03*
X137160000Y-114046000D03*
X137160000Y-111506000D03*
X139700000Y-114046000D03*
X139700000Y-111506000D03*
X142240000Y-114046000D03*
X142240000Y-111506000D03*
X144780000Y-114046000D03*
X144780000Y-111506000D03*
X147320000Y-114046000D03*
X147320000Y-111506000D03*
X149860000Y-114046000D03*
X149860000Y-111506000D03*
X152400000Y-114046000D03*
X152400000Y-111506000D03*
X154940000Y-114046000D03*
X154940000Y-111506000D03*
D12*
G36*
X150384504Y-131077204D02*
G01*
X150408773Y-131080804D01*
X150432571Y-131086765D01*
X150455671Y-131095030D01*
X150477849Y-131105520D01*
X150498893Y-131118133D01*
X150518598Y-131132747D01*
X150536777Y-131149223D01*
X150553253Y-131167402D01*
X150567867Y-131187107D01*
X150580480Y-131208151D01*
X150590970Y-131230329D01*
X150599235Y-131253429D01*
X150605196Y-131277227D01*
X150608796Y-131301496D01*
X150610000Y-131326000D01*
X150610000Y-132326000D01*
X150608796Y-132350504D01*
X150605196Y-132374773D01*
X150599235Y-132398571D01*
X150590970Y-132421671D01*
X150580480Y-132443849D01*
X150567867Y-132464893D01*
X150553253Y-132484598D01*
X150536777Y-132502777D01*
X150518598Y-132519253D01*
X150498893Y-132533867D01*
X150477849Y-132546480D01*
X150455671Y-132556970D01*
X150432571Y-132565235D01*
X150408773Y-132571196D01*
X150384504Y-132574796D01*
X150360000Y-132576000D01*
X149360000Y-132576000D01*
X149335496Y-132574796D01*
X149311227Y-132571196D01*
X149287429Y-132565235D01*
X149264329Y-132556970D01*
X149242151Y-132546480D01*
X149221107Y-132533867D01*
X149201402Y-132519253D01*
X149183223Y-132502777D01*
X149166747Y-132484598D01*
X149152133Y-132464893D01*
X149139520Y-132443849D01*
X149129030Y-132421671D01*
X149120765Y-132398571D01*
X149114804Y-132374773D01*
X149111204Y-132350504D01*
X149110000Y-132326000D01*
X149110000Y-131326000D01*
X149111204Y-131301496D01*
X149114804Y-131277227D01*
X149120765Y-131253429D01*
X149129030Y-131230329D01*
X149139520Y-131208151D01*
X149152133Y-131187107D01*
X149166747Y-131167402D01*
X149183223Y-131149223D01*
X149201402Y-131132747D01*
X149221107Y-131118133D01*
X149242151Y-131105520D01*
X149264329Y-131095030D01*
X149287429Y-131086765D01*
X149311227Y-131080804D01*
X149335496Y-131077204D01*
X149360000Y-131076000D01*
X150360000Y-131076000D01*
X150384504Y-131077204D01*
X150384504Y-131077204D01*
G37*
D13*
X149860000Y-131826000D03*
X152860000Y-131826000D03*
X149860000Y-134826000D03*
X152860000Y-134826000D03*
D12*
G36*
X110996291Y-133510553D02*
G01*
X111017526Y-133513703D01*
X111038350Y-133518919D01*
X111058562Y-133526151D01*
X111077968Y-133535330D01*
X111096381Y-133546366D01*
X111113624Y-133559154D01*
X111129530Y-133573570D01*
X111143946Y-133589476D01*
X111156734Y-133606719D01*
X111167770Y-133625132D01*
X111176949Y-133644538D01*
X111184181Y-133664750D01*
X111189397Y-133685574D01*
X111192547Y-133706809D01*
X111193600Y-133728250D01*
X111193600Y-134165750D01*
X111192547Y-134187191D01*
X111189397Y-134208426D01*
X111184181Y-134229250D01*
X111176949Y-134249462D01*
X111167770Y-134268868D01*
X111156734Y-134287281D01*
X111143946Y-134304524D01*
X111129530Y-134320430D01*
X111113624Y-134334846D01*
X111096381Y-134347634D01*
X111077968Y-134358670D01*
X111058562Y-134367849D01*
X111038350Y-134375081D01*
X111017526Y-134380297D01*
X110996291Y-134383447D01*
X110974850Y-134384500D01*
X110462350Y-134384500D01*
X110440909Y-134383447D01*
X110419674Y-134380297D01*
X110398850Y-134375081D01*
X110378638Y-134367849D01*
X110359232Y-134358670D01*
X110340819Y-134347634D01*
X110323576Y-134334846D01*
X110307670Y-134320430D01*
X110293254Y-134304524D01*
X110280466Y-134287281D01*
X110269430Y-134268868D01*
X110260251Y-134249462D01*
X110253019Y-134229250D01*
X110247803Y-134208426D01*
X110244653Y-134187191D01*
X110243600Y-134165750D01*
X110243600Y-133728250D01*
X110244653Y-133706809D01*
X110247803Y-133685574D01*
X110253019Y-133664750D01*
X110260251Y-133644538D01*
X110269430Y-133625132D01*
X110280466Y-133606719D01*
X110293254Y-133589476D01*
X110307670Y-133573570D01*
X110323576Y-133559154D01*
X110340819Y-133546366D01*
X110359232Y-133535330D01*
X110378638Y-133526151D01*
X110398850Y-133518919D01*
X110419674Y-133513703D01*
X110440909Y-133510553D01*
X110462350Y-133509500D01*
X110974850Y-133509500D01*
X110996291Y-133510553D01*
X110996291Y-133510553D01*
G37*
D14*
X110718600Y-133947000D03*
D12*
G36*
X110996291Y-131935553D02*
G01*
X111017526Y-131938703D01*
X111038350Y-131943919D01*
X111058562Y-131951151D01*
X111077968Y-131960330D01*
X111096381Y-131971366D01*
X111113624Y-131984154D01*
X111129530Y-131998570D01*
X111143946Y-132014476D01*
X111156734Y-132031719D01*
X111167770Y-132050132D01*
X111176949Y-132069538D01*
X111184181Y-132089750D01*
X111189397Y-132110574D01*
X111192547Y-132131809D01*
X111193600Y-132153250D01*
X111193600Y-132590750D01*
X111192547Y-132612191D01*
X111189397Y-132633426D01*
X111184181Y-132654250D01*
X111176949Y-132674462D01*
X111167770Y-132693868D01*
X111156734Y-132712281D01*
X111143946Y-132729524D01*
X111129530Y-132745430D01*
X111113624Y-132759846D01*
X111096381Y-132772634D01*
X111077968Y-132783670D01*
X111058562Y-132792849D01*
X111038350Y-132800081D01*
X111017526Y-132805297D01*
X110996291Y-132808447D01*
X110974850Y-132809500D01*
X110462350Y-132809500D01*
X110440909Y-132808447D01*
X110419674Y-132805297D01*
X110398850Y-132800081D01*
X110378638Y-132792849D01*
X110359232Y-132783670D01*
X110340819Y-132772634D01*
X110323576Y-132759846D01*
X110307670Y-132745430D01*
X110293254Y-132729524D01*
X110280466Y-132712281D01*
X110269430Y-132693868D01*
X110260251Y-132674462D01*
X110253019Y-132654250D01*
X110247803Y-132633426D01*
X110244653Y-132612191D01*
X110243600Y-132590750D01*
X110243600Y-132153250D01*
X110244653Y-132131809D01*
X110247803Y-132110574D01*
X110253019Y-132089750D01*
X110260251Y-132069538D01*
X110269430Y-132050132D01*
X110280466Y-132031719D01*
X110293254Y-132014476D01*
X110307670Y-131998570D01*
X110323576Y-131984154D01*
X110340819Y-131971366D01*
X110359232Y-131960330D01*
X110378638Y-131951151D01*
X110398850Y-131943919D01*
X110419674Y-131938703D01*
X110440909Y-131935553D01*
X110462350Y-131934500D01*
X110974850Y-131934500D01*
X110996291Y-131935553D01*
X110996291Y-131935553D01*
G37*
D14*
X110718600Y-132372000D03*
D15*
X126786600Y-117919500D03*
X128686600Y-117919500D03*
D16*
X108897600Y-134429500D03*
X106697600Y-134429500D03*
D17*
X115798600Y-127635700D03*
X115298600Y-127635700D03*
X115798600Y-126135700D03*
X116298600Y-127635700D03*
X115298600Y-126135700D03*
X116298600Y-126135700D03*
D18*
X123926600Y-122797500D03*
X123926600Y-116597500D03*
D12*
G36*
X117181791Y-117699553D02*
G01*
X117203026Y-117702703D01*
X117223850Y-117707919D01*
X117244062Y-117715151D01*
X117263468Y-117724330D01*
X117281881Y-117735366D01*
X117299124Y-117748154D01*
X117315030Y-117762570D01*
X117329446Y-117778476D01*
X117342234Y-117795719D01*
X117353270Y-117814132D01*
X117362449Y-117833538D01*
X117369681Y-117853750D01*
X117374897Y-117874574D01*
X117378047Y-117895809D01*
X117379100Y-117917250D01*
X117379100Y-118429750D01*
X117378047Y-118451191D01*
X117374897Y-118472426D01*
X117369681Y-118493250D01*
X117362449Y-118513462D01*
X117353270Y-118532868D01*
X117342234Y-118551281D01*
X117329446Y-118568524D01*
X117315030Y-118584430D01*
X117299124Y-118598846D01*
X117281881Y-118611634D01*
X117263468Y-118622670D01*
X117244062Y-118631849D01*
X117223850Y-118639081D01*
X117203026Y-118644297D01*
X117181791Y-118647447D01*
X117160350Y-118648500D01*
X116722850Y-118648500D01*
X116701409Y-118647447D01*
X116680174Y-118644297D01*
X116659350Y-118639081D01*
X116639138Y-118631849D01*
X116619732Y-118622670D01*
X116601319Y-118611634D01*
X116584076Y-118598846D01*
X116568170Y-118584430D01*
X116553754Y-118568524D01*
X116540966Y-118551281D01*
X116529930Y-118532868D01*
X116520751Y-118513462D01*
X116513519Y-118493250D01*
X116508303Y-118472426D01*
X116505153Y-118451191D01*
X116504100Y-118429750D01*
X116504100Y-117917250D01*
X116505153Y-117895809D01*
X116508303Y-117874574D01*
X116513519Y-117853750D01*
X116520751Y-117833538D01*
X116529930Y-117814132D01*
X116540966Y-117795719D01*
X116553754Y-117778476D01*
X116568170Y-117762570D01*
X116584076Y-117748154D01*
X116601319Y-117735366D01*
X116619732Y-117724330D01*
X116639138Y-117715151D01*
X116659350Y-117707919D01*
X116680174Y-117702703D01*
X116701409Y-117699553D01*
X116722850Y-117698500D01*
X117160350Y-117698500D01*
X117181791Y-117699553D01*
X117181791Y-117699553D01*
G37*
D14*
X116941600Y-118173500D03*
D12*
G36*
X115606791Y-117699553D02*
G01*
X115628026Y-117702703D01*
X115648850Y-117707919D01*
X115669062Y-117715151D01*
X115688468Y-117724330D01*
X115706881Y-117735366D01*
X115724124Y-117748154D01*
X115740030Y-117762570D01*
X115754446Y-117778476D01*
X115767234Y-117795719D01*
X115778270Y-117814132D01*
X115787449Y-117833538D01*
X115794681Y-117853750D01*
X115799897Y-117874574D01*
X115803047Y-117895809D01*
X115804100Y-117917250D01*
X115804100Y-118429750D01*
X115803047Y-118451191D01*
X115799897Y-118472426D01*
X115794681Y-118493250D01*
X115787449Y-118513462D01*
X115778270Y-118532868D01*
X115767234Y-118551281D01*
X115754446Y-118568524D01*
X115740030Y-118584430D01*
X115724124Y-118598846D01*
X115706881Y-118611634D01*
X115688468Y-118622670D01*
X115669062Y-118631849D01*
X115648850Y-118639081D01*
X115628026Y-118644297D01*
X115606791Y-118647447D01*
X115585350Y-118648500D01*
X115147850Y-118648500D01*
X115126409Y-118647447D01*
X115105174Y-118644297D01*
X115084350Y-118639081D01*
X115064138Y-118631849D01*
X115044732Y-118622670D01*
X115026319Y-118611634D01*
X115009076Y-118598846D01*
X114993170Y-118584430D01*
X114978754Y-118568524D01*
X114965966Y-118551281D01*
X114954930Y-118532868D01*
X114945751Y-118513462D01*
X114938519Y-118493250D01*
X114933303Y-118472426D01*
X114930153Y-118451191D01*
X114929100Y-118429750D01*
X114929100Y-117917250D01*
X114930153Y-117895809D01*
X114933303Y-117874574D01*
X114938519Y-117853750D01*
X114945751Y-117833538D01*
X114954930Y-117814132D01*
X114965966Y-117795719D01*
X114978754Y-117778476D01*
X114993170Y-117762570D01*
X115009076Y-117748154D01*
X115026319Y-117735366D01*
X115044732Y-117724330D01*
X115064138Y-117715151D01*
X115084350Y-117707919D01*
X115105174Y-117702703D01*
X115126409Y-117699553D01*
X115147850Y-117698500D01*
X115585350Y-117698500D01*
X115606791Y-117699553D01*
X115606791Y-117699553D01*
G37*
D14*
X115366600Y-118173500D03*
D19*
X106527600Y-126809500D03*
X106527600Y-122745500D03*
D20*
X118338600Y-131889500D03*
X122402600Y-131889500D03*
D12*
G36*
X118108291Y-127160553D02*
G01*
X118129526Y-127163703D01*
X118150350Y-127168919D01*
X118170562Y-127176151D01*
X118189968Y-127185330D01*
X118208381Y-127196366D01*
X118225624Y-127209154D01*
X118241530Y-127223570D01*
X118255946Y-127239476D01*
X118268734Y-127256719D01*
X118279770Y-127275132D01*
X118288949Y-127294538D01*
X118296181Y-127314750D01*
X118301397Y-127335574D01*
X118304547Y-127356809D01*
X118305600Y-127378250D01*
X118305600Y-127815750D01*
X118304547Y-127837191D01*
X118301397Y-127858426D01*
X118296181Y-127879250D01*
X118288949Y-127899462D01*
X118279770Y-127918868D01*
X118268734Y-127937281D01*
X118255946Y-127954524D01*
X118241530Y-127970430D01*
X118225624Y-127984846D01*
X118208381Y-127997634D01*
X118189968Y-128008670D01*
X118170562Y-128017849D01*
X118150350Y-128025081D01*
X118129526Y-128030297D01*
X118108291Y-128033447D01*
X118086850Y-128034500D01*
X117574350Y-128034500D01*
X117552909Y-128033447D01*
X117531674Y-128030297D01*
X117510850Y-128025081D01*
X117490638Y-128017849D01*
X117471232Y-128008670D01*
X117452819Y-127997634D01*
X117435576Y-127984846D01*
X117419670Y-127970430D01*
X117405254Y-127954524D01*
X117392466Y-127937281D01*
X117381430Y-127918868D01*
X117372251Y-127899462D01*
X117365019Y-127879250D01*
X117359803Y-127858426D01*
X117356653Y-127837191D01*
X117355600Y-127815750D01*
X117355600Y-127378250D01*
X117356653Y-127356809D01*
X117359803Y-127335574D01*
X117365019Y-127314750D01*
X117372251Y-127294538D01*
X117381430Y-127275132D01*
X117392466Y-127256719D01*
X117405254Y-127239476D01*
X117419670Y-127223570D01*
X117435576Y-127209154D01*
X117452819Y-127196366D01*
X117471232Y-127185330D01*
X117490638Y-127176151D01*
X117510850Y-127168919D01*
X117531674Y-127163703D01*
X117552909Y-127160553D01*
X117574350Y-127159500D01*
X118086850Y-127159500D01*
X118108291Y-127160553D01*
X118108291Y-127160553D01*
G37*
D14*
X117830600Y-127597000D03*
D12*
G36*
X118108291Y-125585553D02*
G01*
X118129526Y-125588703D01*
X118150350Y-125593919D01*
X118170562Y-125601151D01*
X118189968Y-125610330D01*
X118208381Y-125621366D01*
X118225624Y-125634154D01*
X118241530Y-125648570D01*
X118255946Y-125664476D01*
X118268734Y-125681719D01*
X118279770Y-125700132D01*
X118288949Y-125719538D01*
X118296181Y-125739750D01*
X118301397Y-125760574D01*
X118304547Y-125781809D01*
X118305600Y-125803250D01*
X118305600Y-126240750D01*
X118304547Y-126262191D01*
X118301397Y-126283426D01*
X118296181Y-126304250D01*
X118288949Y-126324462D01*
X118279770Y-126343868D01*
X118268734Y-126362281D01*
X118255946Y-126379524D01*
X118241530Y-126395430D01*
X118225624Y-126409846D01*
X118208381Y-126422634D01*
X118189968Y-126433670D01*
X118170562Y-126442849D01*
X118150350Y-126450081D01*
X118129526Y-126455297D01*
X118108291Y-126458447D01*
X118086850Y-126459500D01*
X117574350Y-126459500D01*
X117552909Y-126458447D01*
X117531674Y-126455297D01*
X117510850Y-126450081D01*
X117490638Y-126442849D01*
X117471232Y-126433670D01*
X117452819Y-126422634D01*
X117435576Y-126409846D01*
X117419670Y-126395430D01*
X117405254Y-126379524D01*
X117392466Y-126362281D01*
X117381430Y-126343868D01*
X117372251Y-126324462D01*
X117365019Y-126304250D01*
X117359803Y-126283426D01*
X117356653Y-126262191D01*
X117355600Y-126240750D01*
X117355600Y-125803250D01*
X117356653Y-125781809D01*
X117359803Y-125760574D01*
X117365019Y-125739750D01*
X117372251Y-125719538D01*
X117381430Y-125700132D01*
X117392466Y-125681719D01*
X117405254Y-125664476D01*
X117419670Y-125648570D01*
X117435576Y-125634154D01*
X117452819Y-125621366D01*
X117471232Y-125610330D01*
X117490638Y-125601151D01*
X117510850Y-125593919D01*
X117531674Y-125588703D01*
X117552909Y-125585553D01*
X117574350Y-125584500D01*
X118086850Y-125584500D01*
X118108291Y-125585553D01*
X118108291Y-125585553D01*
G37*
D14*
X117830600Y-126022000D03*
D21*
X140345000Y-118951000D03*
X140995000Y-118951000D03*
X141645000Y-118951000D03*
X142295000Y-118951000D03*
X142945000Y-118951000D03*
X143595000Y-118951000D03*
X144245000Y-118951000D03*
X144895000Y-118951000D03*
X145545000Y-118951000D03*
X146195000Y-118951000D03*
X146845000Y-118951000D03*
X147495000Y-118951000D03*
X148145000Y-118951000D03*
X148795000Y-118951000D03*
X148795000Y-126151000D03*
X148145000Y-126151000D03*
X147495000Y-126151000D03*
X146845000Y-126151000D03*
X146195000Y-126151000D03*
X145545000Y-126151000D03*
X144895000Y-126151000D03*
X144245000Y-126151000D03*
X143595000Y-126151000D03*
X142945000Y-126151000D03*
X142295000Y-126151000D03*
X141645000Y-126151000D03*
X140995000Y-126151000D03*
X140345000Y-126151000D03*
D22*
X151130000Y-118856000D03*
X151130000Y-116856000D03*
D23*
X136160000Y-126746000D03*
X138160000Y-126746000D03*
X136160000Y-121666000D03*
X138160000Y-121666000D03*
X151400000Y-124206000D03*
X153400000Y-124206000D03*
X138160000Y-124206000D03*
X136160000Y-124206000D03*
D15*
X136357400Y-118872000D03*
X134457400Y-118872000D03*
X142661600Y-129209800D03*
X144561600Y-129209800D03*
D24*
X153500000Y-122466000D03*
X151300000Y-122466000D03*
X151300000Y-120866000D03*
X153500000Y-120866000D03*
D22*
X112623600Y-132159500D03*
X112623600Y-134159500D03*
X114528600Y-132159500D03*
X114528600Y-134159500D03*
D23*
X127720600Y-131381500D03*
X125720600Y-131381500D03*
D25*
X124736600Y-129095500D03*
X127736600Y-129095500D03*
D12*
G36*
X123650105Y-124094704D02*
G01*
X123674373Y-124098304D01*
X123698172Y-124104265D01*
X123721271Y-124112530D01*
X123743450Y-124123020D01*
X123764493Y-124135632D01*
X123784199Y-124150247D01*
X123802377Y-124166723D01*
X123818853Y-124184901D01*
X123833468Y-124204607D01*
X123846080Y-124225650D01*
X123856570Y-124247829D01*
X123864835Y-124270928D01*
X123870796Y-124294727D01*
X123874396Y-124318995D01*
X123875600Y-124343499D01*
X123875600Y-127243501D01*
X123874396Y-127268005D01*
X123870796Y-127292273D01*
X123864835Y-127316072D01*
X123856570Y-127339171D01*
X123846080Y-127361350D01*
X123833468Y-127382393D01*
X123818853Y-127402099D01*
X123802377Y-127420277D01*
X123784199Y-127436753D01*
X123764493Y-127451368D01*
X123743450Y-127463980D01*
X123721271Y-127474470D01*
X123698172Y-127482735D01*
X123674373Y-127488696D01*
X123650105Y-127492296D01*
X123625601Y-127493500D01*
X123000599Y-127493500D01*
X122976095Y-127492296D01*
X122951827Y-127488696D01*
X122928028Y-127482735D01*
X122904929Y-127474470D01*
X122882750Y-127463980D01*
X122861707Y-127451368D01*
X122842001Y-127436753D01*
X122823823Y-127420277D01*
X122807347Y-127402099D01*
X122792732Y-127382393D01*
X122780120Y-127361350D01*
X122769630Y-127339171D01*
X122761365Y-127316072D01*
X122755404Y-127292273D01*
X122751804Y-127268005D01*
X122750600Y-127243501D01*
X122750600Y-124343499D01*
X122751804Y-124318995D01*
X122755404Y-124294727D01*
X122761365Y-124270928D01*
X122769630Y-124247829D01*
X122780120Y-124225650D01*
X122792732Y-124204607D01*
X122807347Y-124184901D01*
X122823823Y-124166723D01*
X122842001Y-124150247D01*
X122861707Y-124135632D01*
X122882750Y-124123020D01*
X122904929Y-124112530D01*
X122928028Y-124104265D01*
X122951827Y-124098304D01*
X122976095Y-124094704D01*
X123000599Y-124093500D01*
X123625601Y-124093500D01*
X123650105Y-124094704D01*
X123650105Y-124094704D01*
G37*
D26*
X123313100Y-125793500D03*
D12*
G36*
X127925105Y-124094704D02*
G01*
X127949373Y-124098304D01*
X127973172Y-124104265D01*
X127996271Y-124112530D01*
X128018450Y-124123020D01*
X128039493Y-124135632D01*
X128059199Y-124150247D01*
X128077377Y-124166723D01*
X128093853Y-124184901D01*
X128108468Y-124204607D01*
X128121080Y-124225650D01*
X128131570Y-124247829D01*
X128139835Y-124270928D01*
X128145796Y-124294727D01*
X128149396Y-124318995D01*
X128150600Y-124343499D01*
X128150600Y-127243501D01*
X128149396Y-127268005D01*
X128145796Y-127292273D01*
X128139835Y-127316072D01*
X128131570Y-127339171D01*
X128121080Y-127361350D01*
X128108468Y-127382393D01*
X128093853Y-127402099D01*
X128077377Y-127420277D01*
X128059199Y-127436753D01*
X128039493Y-127451368D01*
X128018450Y-127463980D01*
X127996271Y-127474470D01*
X127973172Y-127482735D01*
X127949373Y-127488696D01*
X127925105Y-127492296D01*
X127900601Y-127493500D01*
X127275599Y-127493500D01*
X127251095Y-127492296D01*
X127226827Y-127488696D01*
X127203028Y-127482735D01*
X127179929Y-127474470D01*
X127157750Y-127463980D01*
X127136707Y-127451368D01*
X127117001Y-127436753D01*
X127098823Y-127420277D01*
X127082347Y-127402099D01*
X127067732Y-127382393D01*
X127055120Y-127361350D01*
X127044630Y-127339171D01*
X127036365Y-127316072D01*
X127030404Y-127292273D01*
X127026804Y-127268005D01*
X127025600Y-127243501D01*
X127025600Y-124343499D01*
X127026804Y-124318995D01*
X127030404Y-124294727D01*
X127036365Y-124270928D01*
X127044630Y-124247829D01*
X127055120Y-124225650D01*
X127067732Y-124204607D01*
X127082347Y-124184901D01*
X127098823Y-124166723D01*
X127117001Y-124150247D01*
X127136707Y-124135632D01*
X127157750Y-124123020D01*
X127179929Y-124112530D01*
X127203028Y-124104265D01*
X127226827Y-124098304D01*
X127251095Y-124094704D01*
X127275599Y-124093500D01*
X127900601Y-124093500D01*
X127925105Y-124094704D01*
X127925105Y-124094704D01*
G37*
D26*
X127588100Y-125793500D03*
D12*
G36*
X112457291Y-117699553D02*
G01*
X112478526Y-117702703D01*
X112499350Y-117707919D01*
X112519562Y-117715151D01*
X112538968Y-117724330D01*
X112557381Y-117735366D01*
X112574624Y-117748154D01*
X112590530Y-117762570D01*
X112604946Y-117778476D01*
X112617734Y-117795719D01*
X112628770Y-117814132D01*
X112637949Y-117833538D01*
X112645181Y-117853750D01*
X112650397Y-117874574D01*
X112653547Y-117895809D01*
X112654600Y-117917250D01*
X112654600Y-118429750D01*
X112653547Y-118451191D01*
X112650397Y-118472426D01*
X112645181Y-118493250D01*
X112637949Y-118513462D01*
X112628770Y-118532868D01*
X112617734Y-118551281D01*
X112604946Y-118568524D01*
X112590530Y-118584430D01*
X112574624Y-118598846D01*
X112557381Y-118611634D01*
X112538968Y-118622670D01*
X112519562Y-118631849D01*
X112499350Y-118639081D01*
X112478526Y-118644297D01*
X112457291Y-118647447D01*
X112435850Y-118648500D01*
X111998350Y-118648500D01*
X111976909Y-118647447D01*
X111955674Y-118644297D01*
X111934850Y-118639081D01*
X111914638Y-118631849D01*
X111895232Y-118622670D01*
X111876819Y-118611634D01*
X111859576Y-118598846D01*
X111843670Y-118584430D01*
X111829254Y-118568524D01*
X111816466Y-118551281D01*
X111805430Y-118532868D01*
X111796251Y-118513462D01*
X111789019Y-118493250D01*
X111783803Y-118472426D01*
X111780653Y-118451191D01*
X111779600Y-118429750D01*
X111779600Y-117917250D01*
X111780653Y-117895809D01*
X111783803Y-117874574D01*
X111789019Y-117853750D01*
X111796251Y-117833538D01*
X111805430Y-117814132D01*
X111816466Y-117795719D01*
X111829254Y-117778476D01*
X111843670Y-117762570D01*
X111859576Y-117748154D01*
X111876819Y-117735366D01*
X111895232Y-117724330D01*
X111914638Y-117715151D01*
X111934850Y-117707919D01*
X111955674Y-117702703D01*
X111976909Y-117699553D01*
X111998350Y-117698500D01*
X112435850Y-117698500D01*
X112457291Y-117699553D01*
X112457291Y-117699553D01*
G37*
D14*
X112217100Y-118173500D03*
D12*
G36*
X114032291Y-117699553D02*
G01*
X114053526Y-117702703D01*
X114074350Y-117707919D01*
X114094562Y-117715151D01*
X114113968Y-117724330D01*
X114132381Y-117735366D01*
X114149624Y-117748154D01*
X114165530Y-117762570D01*
X114179946Y-117778476D01*
X114192734Y-117795719D01*
X114203770Y-117814132D01*
X114212949Y-117833538D01*
X114220181Y-117853750D01*
X114225397Y-117874574D01*
X114228547Y-117895809D01*
X114229600Y-117917250D01*
X114229600Y-118429750D01*
X114228547Y-118451191D01*
X114225397Y-118472426D01*
X114220181Y-118493250D01*
X114212949Y-118513462D01*
X114203770Y-118532868D01*
X114192734Y-118551281D01*
X114179946Y-118568524D01*
X114165530Y-118584430D01*
X114149624Y-118598846D01*
X114132381Y-118611634D01*
X114113968Y-118622670D01*
X114094562Y-118631849D01*
X114074350Y-118639081D01*
X114053526Y-118644297D01*
X114032291Y-118647447D01*
X114010850Y-118648500D01*
X113573350Y-118648500D01*
X113551909Y-118647447D01*
X113530674Y-118644297D01*
X113509850Y-118639081D01*
X113489638Y-118631849D01*
X113470232Y-118622670D01*
X113451819Y-118611634D01*
X113434576Y-118598846D01*
X113418670Y-118584430D01*
X113404254Y-118568524D01*
X113391466Y-118551281D01*
X113380430Y-118532868D01*
X113371251Y-118513462D01*
X113364019Y-118493250D01*
X113358803Y-118472426D01*
X113355653Y-118451191D01*
X113354600Y-118429750D01*
X113354600Y-117917250D01*
X113355653Y-117895809D01*
X113358803Y-117874574D01*
X113364019Y-117853750D01*
X113371251Y-117833538D01*
X113380430Y-117814132D01*
X113391466Y-117795719D01*
X113404254Y-117778476D01*
X113418670Y-117762570D01*
X113434576Y-117748154D01*
X113451819Y-117735366D01*
X113470232Y-117724330D01*
X113489638Y-117715151D01*
X113509850Y-117707919D01*
X113530674Y-117702703D01*
X113551909Y-117699553D01*
X113573350Y-117698500D01*
X114010850Y-117698500D01*
X114032291Y-117699553D01*
X114032291Y-117699553D01*
G37*
D14*
X113792100Y-118173500D03*
D16*
X127215900Y-119994500D03*
X127215900Y-122194500D03*
D12*
G36*
X113595605Y-127396704D02*
G01*
X113619873Y-127400304D01*
X113643672Y-127406265D01*
X113666771Y-127414530D01*
X113688950Y-127425020D01*
X113709993Y-127437632D01*
X113729699Y-127452247D01*
X113747877Y-127468723D01*
X113764353Y-127486901D01*
X113778968Y-127506607D01*
X113791580Y-127527650D01*
X113802070Y-127549829D01*
X113810335Y-127572928D01*
X113816296Y-127596727D01*
X113819896Y-127620995D01*
X113821100Y-127645499D01*
X113821100Y-130545501D01*
X113819896Y-130570005D01*
X113816296Y-130594273D01*
X113810335Y-130618072D01*
X113802070Y-130641171D01*
X113791580Y-130663350D01*
X113778968Y-130684393D01*
X113764353Y-130704099D01*
X113747877Y-130722277D01*
X113729699Y-130738753D01*
X113709993Y-130753368D01*
X113688950Y-130765980D01*
X113666771Y-130776470D01*
X113643672Y-130784735D01*
X113619873Y-130790696D01*
X113595605Y-130794296D01*
X113571101Y-130795500D01*
X112946099Y-130795500D01*
X112921595Y-130794296D01*
X112897327Y-130790696D01*
X112873528Y-130784735D01*
X112850429Y-130776470D01*
X112828250Y-130765980D01*
X112807207Y-130753368D01*
X112787501Y-130738753D01*
X112769323Y-130722277D01*
X112752847Y-130704099D01*
X112738232Y-130684393D01*
X112725620Y-130663350D01*
X112715130Y-130641171D01*
X112706865Y-130618072D01*
X112700904Y-130594273D01*
X112697304Y-130570005D01*
X112696100Y-130545501D01*
X112696100Y-127645499D01*
X112697304Y-127620995D01*
X112700904Y-127596727D01*
X112706865Y-127572928D01*
X112715130Y-127549829D01*
X112725620Y-127527650D01*
X112738232Y-127506607D01*
X112752847Y-127486901D01*
X112769323Y-127468723D01*
X112787501Y-127452247D01*
X112807207Y-127437632D01*
X112828250Y-127425020D01*
X112850429Y-127414530D01*
X112873528Y-127406265D01*
X112897327Y-127400304D01*
X112921595Y-127396704D01*
X112946099Y-127395500D01*
X113571101Y-127395500D01*
X113595605Y-127396704D01*
X113595605Y-127396704D01*
G37*
D26*
X113258600Y-129095500D03*
D12*
G36*
X109320605Y-127396704D02*
G01*
X109344873Y-127400304D01*
X109368672Y-127406265D01*
X109391771Y-127414530D01*
X109413950Y-127425020D01*
X109434993Y-127437632D01*
X109454699Y-127452247D01*
X109472877Y-127468723D01*
X109489353Y-127486901D01*
X109503968Y-127506607D01*
X109516580Y-127527650D01*
X109527070Y-127549829D01*
X109535335Y-127572928D01*
X109541296Y-127596727D01*
X109544896Y-127620995D01*
X109546100Y-127645499D01*
X109546100Y-130545501D01*
X109544896Y-130570005D01*
X109541296Y-130594273D01*
X109535335Y-130618072D01*
X109527070Y-130641171D01*
X109516580Y-130663350D01*
X109503968Y-130684393D01*
X109489353Y-130704099D01*
X109472877Y-130722277D01*
X109454699Y-130738753D01*
X109434993Y-130753368D01*
X109413950Y-130765980D01*
X109391771Y-130776470D01*
X109368672Y-130784735D01*
X109344873Y-130790696D01*
X109320605Y-130794296D01*
X109296101Y-130795500D01*
X108671099Y-130795500D01*
X108646595Y-130794296D01*
X108622327Y-130790696D01*
X108598528Y-130784735D01*
X108575429Y-130776470D01*
X108553250Y-130765980D01*
X108532207Y-130753368D01*
X108512501Y-130738753D01*
X108494323Y-130722277D01*
X108477847Y-130704099D01*
X108463232Y-130684393D01*
X108450620Y-130663350D01*
X108440130Y-130641171D01*
X108431865Y-130618072D01*
X108425904Y-130594273D01*
X108422304Y-130570005D01*
X108421100Y-130545501D01*
X108421100Y-127645499D01*
X108422304Y-127620995D01*
X108425904Y-127596727D01*
X108431865Y-127572928D01*
X108440130Y-127549829D01*
X108450620Y-127527650D01*
X108463232Y-127506607D01*
X108477847Y-127486901D01*
X108494323Y-127468723D01*
X108512501Y-127452247D01*
X108532207Y-127437632D01*
X108553250Y-127425020D01*
X108575429Y-127414530D01*
X108598528Y-127406265D01*
X108622327Y-127400304D01*
X108646595Y-127396704D01*
X108671099Y-127395500D01*
X109296101Y-127395500D01*
X109320605Y-127396704D01*
X109320605Y-127396704D01*
G37*
D26*
X108983600Y-129095500D03*
D15*
X113446600Y-125285500D03*
X111546600Y-125285500D03*
D27*
X113398300Y-121579600D03*
X113398300Y-123479600D03*
D15*
X115356600Y-121983500D03*
X117256600Y-121983500D03*
X109128600Y-132397500D03*
X107228600Y-132397500D03*
D28*
X129527300Y-129336800D03*
X129514600Y-130365500D03*
X129527300Y-131343400D03*
X129514600Y-132372100D03*
X129578100Y-133565900D03*
X123177300Y-136474200D03*
X125056900Y-136486900D03*
X128409700Y-134226300D03*
X119862600Y-123761500D03*
X119862600Y-124650500D03*
X119862600Y-126428500D03*
X118973600Y-123761500D03*
X118084600Y-123761500D03*
X117195600Y-123761500D03*
X118071900Y-136588500D03*
X119710200Y-136652000D03*
X121500900Y-136601200D03*
X129070100Y-135813800D03*
X126631700Y-136486900D03*
X110439200Y-136537700D03*
X111912400Y-136512300D03*
X113334800Y-136461500D03*
X114858800Y-136486900D03*
X129489200Y-134734300D03*
X128384300Y-136639300D03*
X116306600Y-123761500D03*
X128422400Y-132981700D03*
X108915200Y-136486900D03*
X129514600Y-124015500D03*
X129514600Y-125031500D03*
X129514600Y-126047500D03*
X129489200Y-127266700D03*
X129514600Y-128270000D03*
X116370100Y-136537700D03*
X119862600Y-125539500D03*
X137163292Y-120497621D03*
X137668000Y-118948200D03*
X155575000Y-122453400D03*
X138163300Y-128054100D03*
X109245400Y-123634500D03*
X109258100Y-122732800D03*
X109296200Y-121780300D03*
D29*
X129514600Y-125285500D02*
X129514600Y-125031500D01*
X117322600Y-123761500D02*
X117195600Y-123761500D01*
X118211600Y-123761500D02*
X118084600Y-123761500D01*
X151130000Y-120696000D02*
X151300000Y-120866000D01*
X151130000Y-118856000D02*
X151130000Y-120696000D01*
X153400000Y-122566000D02*
X153500000Y-122466000D01*
X153400000Y-124206000D02*
X153400000Y-122566000D01*
X151400000Y-120866000D02*
X151300000Y-120866000D01*
X152228601Y-120037399D02*
X151400000Y-120866000D01*
X154382881Y-120037399D02*
X152228601Y-120037399D01*
X154428601Y-120083119D02*
X154382881Y-120037399D01*
X154428601Y-121637399D02*
X154428601Y-120083119D01*
X153600000Y-122466000D02*
X154428601Y-121637399D01*
X138160000Y-124206000D02*
X138160000Y-124081000D01*
X138160000Y-124206000D02*
X138160000Y-121666000D01*
X138160000Y-126871000D02*
X138543601Y-127254601D01*
X151130000Y-118856000D02*
X151005000Y-118856000D01*
X151255000Y-118856000D02*
X151130000Y-118856000D01*
X153600000Y-122466000D02*
X153500000Y-122466000D01*
X138160000Y-126746000D02*
X138160000Y-126871000D01*
X151130000Y-118856000D02*
X151130000Y-119508400D01*
D30*
X111546600Y-125285500D02*
X111546600Y-124985500D01*
D29*
X149606000Y-125222000D02*
X152509000Y-125222000D01*
X146223600Y-125048400D02*
X146329400Y-124942600D01*
X146329400Y-124942600D02*
X149326600Y-124942600D01*
X153400000Y-124331000D02*
X153400000Y-124206000D01*
X152509000Y-125222000D02*
X153400000Y-124331000D01*
X146195000Y-125123600D02*
X146223600Y-125095000D01*
X149326600Y-124942600D02*
X149606000Y-125222000D01*
X146223600Y-125095000D02*
X146223600Y-125048400D01*
X146195000Y-126151000D02*
X146195000Y-125123600D01*
X137163292Y-120544292D02*
X137163292Y-120497621D01*
X138160000Y-121666000D02*
X138160000Y-121541000D01*
X138160000Y-121541000D02*
X137163292Y-120544292D01*
X138379201Y-118948200D02*
X137668000Y-118948200D01*
X141227401Y-120395999D02*
X139827000Y-120395999D01*
X139827000Y-120395999D02*
X138379201Y-118948200D01*
X141645000Y-119978400D02*
X141227401Y-120395999D01*
X141645000Y-118951000D02*
X141645000Y-119978400D01*
X153612600Y-122453400D02*
X155575000Y-122453400D01*
X153600000Y-122466000D02*
X153612600Y-122453400D01*
D31*
X138160000Y-128050800D02*
X138163300Y-128054100D01*
X138160000Y-126746000D02*
X138160000Y-128050800D01*
X115798600Y-124269500D02*
X116306600Y-123761500D01*
X115798600Y-126135700D02*
X115798600Y-124269500D01*
D29*
X136210000Y-121616000D02*
X136160000Y-121666000D01*
D31*
X123926600Y-117351500D02*
X123926600Y-116597500D01*
X124494600Y-117919500D02*
X123926600Y-117351500D01*
X126786600Y-117919500D02*
X124494600Y-117919500D01*
X122072600Y-116597500D02*
X123926600Y-116597500D01*
D29*
X140995000Y-118951000D02*
X140995000Y-119978400D01*
X140995000Y-119978400D02*
X140882210Y-120091190D01*
X140882210Y-120091190D02*
X139953257Y-120091190D01*
X137855466Y-117993399D02*
X135838401Y-117993399D01*
X135838401Y-117993399D02*
X134959800Y-118872000D01*
X134457400Y-118872000D02*
X134959800Y-118872000D01*
X139036093Y-121005611D02*
X148682937Y-121005611D01*
X148682937Y-121005611D02*
X150013601Y-119674947D01*
X137994693Y-119964211D02*
X139036093Y-121005611D01*
X150013601Y-119674947D02*
X150013601Y-118337399D01*
X136052011Y-119964211D02*
X137994693Y-119964211D01*
X151130000Y-117221000D02*
X151130000Y-116856000D01*
X150013601Y-118337399D02*
X151130000Y-117221000D01*
X134959800Y-118872000D02*
X136052011Y-119964211D01*
D31*
X125780600Y-116597500D02*
X123926600Y-116597500D01*
D29*
X139086311Y-117542589D02*
X138245484Y-118383416D01*
X145648071Y-117542589D02*
X139086311Y-117542589D01*
X146195000Y-118089518D02*
X145648071Y-117542589D01*
X146195000Y-118951000D02*
X146195000Y-118089518D01*
X139953257Y-120091190D02*
X138245484Y-118383416D01*
X138245484Y-118383416D02*
X137855466Y-117993399D01*
D32*
X106087178Y-116597500D02*
X104902000Y-115412322D01*
X123926600Y-116597500D02*
X106087178Y-116597500D01*
X105027599Y-110770801D02*
X105027599Y-110712847D01*
X104902000Y-110896400D02*
X105027599Y-110770801D01*
X104902000Y-115412322D02*
X104902000Y-110896400D01*
X105027599Y-110712847D02*
X105448036Y-110292410D01*
X109220000Y-111506000D02*
X108006410Y-110292410D01*
X108006410Y-110292410D02*
X107911964Y-110292410D01*
X134457400Y-118872000D02*
X134457400Y-119963400D01*
X136160000Y-126621000D02*
X136160000Y-126746000D01*
X134360000Y-121938700D02*
X134360000Y-124821000D01*
X135396350Y-120902350D02*
X134360000Y-121938700D01*
X135396350Y-120902350D02*
X136160000Y-121666000D01*
X134457400Y-119963400D02*
X135396350Y-120902350D01*
X139967599Y-126098300D02*
X139967599Y-126151000D01*
X139967599Y-127888459D02*
X139967599Y-126098300D01*
X137631843Y-129161301D02*
X138694757Y-129161301D01*
X134360000Y-124821000D02*
X135655700Y-126116700D01*
X138694757Y-129161301D02*
X139967599Y-127888459D01*
X135655700Y-127185158D02*
X137631843Y-129161301D01*
X135655700Y-126116700D02*
X135655700Y-127185158D01*
X135655700Y-126116700D02*
X136160000Y-126621000D01*
D33*
X105586847Y-110153599D02*
X105448036Y-110292410D01*
X107867599Y-110153599D02*
X105586847Y-110153599D01*
X108006410Y-110292410D02*
X107867599Y-110153599D01*
X132103100Y-116217700D02*
X134457400Y-118572000D01*
X134457400Y-118572000D02*
X134457400Y-118872000D01*
X124306400Y-116217700D02*
X132103100Y-116217700D01*
X123926600Y-116597500D02*
X124306400Y-116217700D01*
D29*
X117793100Y-127559500D02*
X117830600Y-127597000D01*
D31*
X117791900Y-127635700D02*
X117830600Y-127597000D01*
X116298600Y-127635700D02*
X117791900Y-127635700D01*
D30*
X108000800Y-126809500D02*
X106527600Y-126809500D01*
X108321100Y-129095500D02*
X108983600Y-129095500D01*
X106527600Y-128079500D02*
X107543600Y-129095500D01*
X107543600Y-129095500D02*
X108321100Y-129095500D01*
X106527600Y-126809500D02*
X106527600Y-128079500D01*
D33*
X106527600Y-126809500D02*
X106527600Y-128398500D01*
D32*
X150607487Y-131078513D02*
X149860000Y-131826000D01*
X151412401Y-130273599D02*
X150607487Y-131078513D01*
X153605153Y-130273599D02*
X151412401Y-130273599D01*
X154412401Y-131080847D02*
X153605153Y-130273599D01*
X154412401Y-136849399D02*
X154412401Y-131080847D01*
X153502599Y-137759201D02*
X154412401Y-136849399D01*
X107382979Y-137759201D02*
X153502599Y-137759201D01*
X104148100Y-134524322D02*
X107382979Y-137759201D01*
X104148100Y-128998500D02*
X104148100Y-134524322D01*
X106337100Y-126809500D02*
X104148100Y-128998500D01*
X106527600Y-126809500D02*
X106337100Y-126809500D01*
D29*
X142295000Y-127178400D02*
X142295000Y-126151000D01*
X142295000Y-127178400D02*
X142295000Y-127261000D01*
X145502500Y-130468500D02*
X145420000Y-130386000D01*
X149860000Y-134826000D02*
X145502500Y-130468500D01*
X144561600Y-129524800D02*
X145502500Y-130465700D01*
X145502500Y-130465700D02*
X145502500Y-130468500D01*
X144561600Y-129209800D02*
X144561600Y-129524800D01*
X144246600Y-129209800D02*
X144561600Y-129209800D01*
X142295000Y-127258200D02*
X144246600Y-129209800D01*
X142295000Y-127178400D02*
X142295000Y-127258200D01*
X141645000Y-127421000D02*
X141645000Y-126151000D01*
X142235056Y-128011056D02*
X141645000Y-127421000D01*
X149390271Y-135804601D02*
X148412200Y-134826530D01*
X151881399Y-135804601D02*
X149390271Y-135804601D01*
X142240000Y-128016000D02*
X142244944Y-128011056D01*
X152860000Y-134826000D02*
X151881399Y-135804601D01*
X148412200Y-134823200D02*
X148412200Y-134826530D01*
X142798800Y-129209800D02*
X148412200Y-134823200D01*
X142661600Y-129209800D02*
X142798800Y-129209800D01*
X142244944Y-128020944D02*
X142661600Y-128437600D01*
X142661600Y-128437600D02*
X142661600Y-129209800D01*
X142244944Y-128011056D02*
X142244944Y-128020944D01*
X139319000Y-120700800D02*
X146122600Y-120700800D01*
X138277600Y-119659400D02*
X139319000Y-120700800D01*
X146845000Y-119978400D02*
X146845000Y-118951000D01*
X146122600Y-120700800D02*
X146845000Y-119978400D01*
X136372600Y-118872000D02*
X137160000Y-119659400D01*
X137160000Y-119659400D02*
X138277600Y-119659400D01*
X136357400Y-118872000D02*
X136372600Y-118872000D01*
X130618601Y-112967399D02*
X130389999Y-113196001D01*
X130389999Y-113196001D02*
X129540000Y-114046000D01*
X133158601Y-113528271D02*
X132597729Y-112967399D01*
X148795000Y-118951000D02*
X148795000Y-117578400D01*
X148795000Y-117578400D02*
X148107410Y-116890810D01*
X133158601Y-114667401D02*
X133158601Y-113528271D01*
X148107410Y-116890810D02*
X135382010Y-116890810D01*
X132597729Y-112967399D02*
X130618601Y-112967399D01*
X135382010Y-116890810D02*
X133158601Y-114667401D01*
X148145000Y-117487200D02*
X148145000Y-117923600D01*
X148145000Y-117923600D02*
X148145000Y-118951000D01*
X147853420Y-117195620D02*
X148145000Y-117487200D01*
X135229620Y-117195620D02*
X147853420Y-117195620D01*
X132080000Y-114046000D02*
X135229620Y-117195620D01*
X148795000Y-125681000D02*
X148598601Y-125484601D01*
X148795000Y-126151000D02*
X148795000Y-125681000D01*
X133541399Y-112967399D02*
X133770001Y-113196001D01*
X133541399Y-110988271D02*
X133541399Y-112967399D01*
X133770001Y-113196001D02*
X134620000Y-114046000D01*
X134102271Y-110427399D02*
X133541399Y-110988271D01*
X155457729Y-110427399D02*
X134102271Y-110427399D01*
X156591000Y-111560670D02*
X155457729Y-110427399D01*
X156591000Y-124079000D02*
X156591000Y-111560670D01*
X154519000Y-126151000D02*
X156591000Y-124079000D01*
X148795000Y-126151000D02*
X154519000Y-126151000D01*
X138009999Y-112355999D02*
X137160000Y-111506000D01*
X138238601Y-112584601D02*
X138009999Y-112355999D01*
X140778601Y-114563729D02*
X140778601Y-113528271D01*
X139834931Y-112584601D02*
X138238601Y-112584601D01*
X148463000Y-116586000D02*
X142800872Y-116586000D01*
X142800872Y-116586000D02*
X140778601Y-114563729D01*
X147495000Y-118951000D02*
X147495000Y-119978400D01*
X140778601Y-113528271D02*
X139834931Y-112584601D01*
X149248601Y-117371601D02*
X148463000Y-116586000D01*
X149248601Y-120008881D02*
X149248601Y-117371601D01*
X149202881Y-120054601D02*
X149248601Y-120008881D01*
X147571201Y-120054601D02*
X149202881Y-120054601D01*
X147495000Y-119978400D02*
X147571201Y-120054601D01*
D30*
X110693100Y-132397500D02*
X110718600Y-132372000D01*
X109128600Y-132397500D02*
X110693100Y-132397500D01*
X112411100Y-132372000D02*
X112623600Y-132159500D01*
X110718600Y-132372000D02*
X112411100Y-132372000D01*
X112623600Y-132159500D02*
X114528600Y-132159500D01*
X114528600Y-132159500D02*
X113922300Y-132159500D01*
X112623600Y-132159500D02*
X112760000Y-132159500D01*
X113258600Y-131660900D02*
X113258600Y-129095500D01*
X112760000Y-132159500D02*
X113258600Y-131660900D01*
D31*
X114088800Y-129095500D02*
X113921100Y-129095500D01*
X115298600Y-127885700D02*
X114088800Y-129095500D01*
X115298600Y-127635700D02*
X115298600Y-127885700D01*
X113921100Y-129095500D02*
X113258600Y-129095500D01*
X114088800Y-129095500D02*
X115252500Y-129095500D01*
X115798600Y-128549400D02*
X115798600Y-127635700D01*
X115252500Y-129095500D02*
X115798600Y-128549400D01*
D29*
X117793100Y-126059500D02*
X117830600Y-126022000D01*
D31*
X117716900Y-126135700D02*
X117830600Y-126022000D01*
X116298600Y-126135700D02*
X117716900Y-126135700D01*
X115298600Y-125953900D02*
X115298600Y-126135700D01*
X115023900Y-125679200D02*
X115298600Y-125953900D01*
X113840300Y-125679200D02*
X115023900Y-125679200D01*
X113446600Y-125285500D02*
X113840300Y-125679200D01*
D29*
X152228601Y-123252399D02*
X151400000Y-124081000D01*
X153400000Y-120866000D02*
X152228601Y-122037399D01*
X151400000Y-124081000D02*
X151400000Y-124206000D01*
X152228601Y-122037399D02*
X152228601Y-123252399D01*
X153500000Y-120866000D02*
X153400000Y-120866000D01*
X145545000Y-125123600D02*
X145545000Y-126151000D01*
X146056200Y-124612400D02*
X145545000Y-125123600D01*
X150993600Y-124612400D02*
X146056200Y-124612400D01*
X151400000Y-124206000D02*
X150993600Y-124612400D01*
X144895000Y-125123600D02*
X144895000Y-126151000D01*
X144818799Y-125047399D02*
X144895000Y-125123600D01*
X138855083Y-125047399D02*
X144818799Y-125047399D01*
X138842881Y-125059601D02*
X138855083Y-125047399D01*
X136888601Y-125059601D02*
X138842881Y-125059601D01*
X136160000Y-124331000D02*
X136888601Y-125059601D01*
X136160000Y-124206000D02*
X136160000Y-124331000D01*
X144903800Y-125123600D02*
X144895000Y-125123600D01*
X145821400Y-124206000D02*
X144903800Y-125123600D01*
X148971000Y-124206000D02*
X145821400Y-124206000D01*
X150711000Y-122466000D02*
X148971000Y-124206000D01*
X151300000Y-122466000D02*
X150711000Y-122466000D01*
X140345000Y-117923600D02*
X140345000Y-118951000D01*
X140421201Y-117847399D02*
X140345000Y-117923600D01*
X144818799Y-117847399D02*
X140421201Y-117847399D01*
X144895000Y-117923600D02*
X144818799Y-117847399D01*
X144895000Y-118951000D02*
X144895000Y-117923600D01*
X145468799Y-120054601D02*
X145545000Y-119978400D01*
X142945000Y-119978400D02*
X143021201Y-120054601D01*
X145545000Y-119978400D02*
X145545000Y-118951000D01*
X143021201Y-120054601D02*
X145468799Y-120054601D01*
X142945000Y-118951000D02*
X142945000Y-119978400D01*
X142945000Y-126151000D02*
X142945000Y-126181000D01*
D31*
G36*
X126343019Y-116089808D02*
G01*
X126518518Y-116108298D01*
X126681125Y-116158672D01*
X126830856Y-116239666D01*
X126962005Y-116348195D01*
X127069582Y-116480128D01*
X127149488Y-116630440D01*
X127198683Y-116793408D01*
X127215900Y-116969039D01*
X127215900Y-118080620D01*
X127196002Y-118256823D01*
X127139688Y-118417362D01*
X127048990Y-118561300D01*
X126928477Y-118681384D01*
X126784215Y-118771568D01*
X126623480Y-118827305D01*
X126447202Y-118846575D01*
X125973782Y-118844885D01*
X125953280Y-118846476D01*
X125829477Y-118866268D01*
X125805397Y-118872589D01*
X125790572Y-118879189D01*
X125679524Y-118937389D01*
X125658711Y-118951052D01*
X125646762Y-118962029D01*
X125560038Y-119052572D01*
X125544662Y-119072152D01*
X125536831Y-119086366D01*
X125483469Y-119199819D01*
X125475132Y-119223278D01*
X125472237Y-119239243D01*
X125457795Y-119363784D01*
X125457790Y-119363829D01*
X125445752Y-119467964D01*
X125410038Y-119544107D01*
X125351971Y-119604949D01*
X125277575Y-119644176D01*
X125184276Y-119659400D01*
X122215034Y-119659400D01*
X122038611Y-119642024D01*
X121874950Y-119592378D01*
X121724128Y-119511762D01*
X121591930Y-119403270D01*
X121483438Y-119271072D01*
X121402822Y-119120250D01*
X121353176Y-118956589D01*
X121335800Y-118780166D01*
X121335800Y-116939142D01*
X121353338Y-116761903D01*
X121403431Y-116597569D01*
X121484762Y-116446235D01*
X121594171Y-116313779D01*
X121727425Y-116205325D01*
X121879340Y-116125096D01*
X122044034Y-116076193D01*
X122221389Y-116059941D01*
X126343019Y-116089808D01*
X126343019Y-116089808D01*
G37*
X126343019Y-116089808D02*
X126518518Y-116108298D01*
X126681125Y-116158672D01*
X126830856Y-116239666D01*
X126962005Y-116348195D01*
X127069582Y-116480128D01*
X127149488Y-116630440D01*
X127198683Y-116793408D01*
X127215900Y-116969039D01*
X127215900Y-118080620D01*
X127196002Y-118256823D01*
X127139688Y-118417362D01*
X127048990Y-118561300D01*
X126928477Y-118681384D01*
X126784215Y-118771568D01*
X126623480Y-118827305D01*
X126447202Y-118846575D01*
X125973782Y-118844885D01*
X125953280Y-118846476D01*
X125829477Y-118866268D01*
X125805397Y-118872589D01*
X125790572Y-118879189D01*
X125679524Y-118937389D01*
X125658711Y-118951052D01*
X125646762Y-118962029D01*
X125560038Y-119052572D01*
X125544662Y-119072152D01*
X125536831Y-119086366D01*
X125483469Y-119199819D01*
X125475132Y-119223278D01*
X125472237Y-119239243D01*
X125457795Y-119363784D01*
X125457790Y-119363829D01*
X125445752Y-119467964D01*
X125410038Y-119544107D01*
X125351971Y-119604949D01*
X125277575Y-119644176D01*
X125184276Y-119659400D01*
X122215034Y-119659400D01*
X122038611Y-119642024D01*
X121874950Y-119592378D01*
X121724128Y-119511762D01*
X121591930Y-119403270D01*
X121483438Y-119271072D01*
X121402822Y-119120250D01*
X121353176Y-118956589D01*
X121335800Y-118780166D01*
X121335800Y-116939142D01*
X121353338Y-116761903D01*
X121403431Y-116597569D01*
X121484762Y-116446235D01*
X121594171Y-116313779D01*
X121727425Y-116205325D01*
X121879340Y-116125096D01*
X122044034Y-116076193D01*
X122221389Y-116059941D01*
X126343019Y-116089808D01*
G36*
X129205489Y-116920876D02*
G01*
X129369150Y-116970522D01*
X129519972Y-117051138D01*
X129652170Y-117159630D01*
X129760662Y-117291828D01*
X129841278Y-117442650D01*
X129890924Y-117606311D01*
X129908300Y-117782734D01*
X129908300Y-119745366D01*
X129890924Y-119921789D01*
X129841278Y-120085450D01*
X129760662Y-120236272D01*
X129652170Y-120368470D01*
X129519972Y-120476962D01*
X129369150Y-120557578D01*
X129205489Y-120607224D01*
X129029066Y-120624600D01*
X126708679Y-120624600D01*
X126553363Y-120607100D01*
X126412608Y-120557848D01*
X126286342Y-120478510D01*
X126180890Y-120373058D01*
X126101552Y-120246792D01*
X126052300Y-120106037D01*
X126035580Y-119957644D01*
X126052179Y-119805841D01*
X126101256Y-119661019D01*
X126180470Y-119530227D01*
X126286083Y-119419640D01*
X126413093Y-119334492D01*
X126555506Y-119278803D01*
X126713466Y-119254132D01*
X126890046Y-119246000D01*
X126902092Y-119244868D01*
X127090503Y-119218063D01*
X127113998Y-119212397D01*
X127293920Y-119150384D01*
X127315917Y-119140370D01*
X127480832Y-119045395D01*
X127500534Y-119031395D01*
X127644471Y-118906897D01*
X127661163Y-118889418D01*
X127778907Y-118739907D01*
X127791986Y-118719583D01*
X127879274Y-118550473D01*
X127888266Y-118528038D01*
X127941936Y-118345454D01*
X127946515Y-118321723D01*
X127964624Y-118132278D01*
X127965200Y-118120193D01*
X127965200Y-117782734D01*
X127982576Y-117606311D01*
X128032222Y-117442650D01*
X128112838Y-117291828D01*
X128221330Y-117159630D01*
X128353528Y-117051138D01*
X128504350Y-116970522D01*
X128668011Y-116920876D01*
X128844434Y-116903500D01*
X129029066Y-116903500D01*
X129205489Y-116920876D01*
X129205489Y-116920876D01*
G37*
X129205489Y-116920876D02*
X129369150Y-116970522D01*
X129519972Y-117051138D01*
X129652170Y-117159630D01*
X129760662Y-117291828D01*
X129841278Y-117442650D01*
X129890924Y-117606311D01*
X129908300Y-117782734D01*
X129908300Y-119745366D01*
X129890924Y-119921789D01*
X129841278Y-120085450D01*
X129760662Y-120236272D01*
X129652170Y-120368470D01*
X129519972Y-120476962D01*
X129369150Y-120557578D01*
X129205489Y-120607224D01*
X129029066Y-120624600D01*
X126708679Y-120624600D01*
X126553363Y-120607100D01*
X126412608Y-120557848D01*
X126286342Y-120478510D01*
X126180890Y-120373058D01*
X126101552Y-120246792D01*
X126052300Y-120106037D01*
X126035580Y-119957644D01*
X126052179Y-119805841D01*
X126101256Y-119661019D01*
X126180470Y-119530227D01*
X126286083Y-119419640D01*
X126413093Y-119334492D01*
X126555506Y-119278803D01*
X126713466Y-119254132D01*
X126890046Y-119246000D01*
X126902092Y-119244868D01*
X127090503Y-119218063D01*
X127113998Y-119212397D01*
X127293920Y-119150384D01*
X127315917Y-119140370D01*
X127480832Y-119045395D01*
X127500534Y-119031395D01*
X127644471Y-118906897D01*
X127661163Y-118889418D01*
X127778907Y-118739907D01*
X127791986Y-118719583D01*
X127879274Y-118550473D01*
X127888266Y-118528038D01*
X127941936Y-118345454D01*
X127946515Y-118321723D01*
X127964624Y-118132278D01*
X127965200Y-118120193D01*
X127965200Y-117782734D01*
X127982576Y-117606311D01*
X128032222Y-117442650D01*
X128112838Y-117291828D01*
X128221330Y-117159630D01*
X128353528Y-117051138D01*
X128504350Y-116970522D01*
X128668011Y-116920876D01*
X128844434Y-116903500D01*
X129029066Y-116903500D01*
X129205489Y-116920876D01*
G36*
X119655019Y-127224325D02*
G01*
X119830062Y-127242194D01*
X119992384Y-127291804D01*
X120142035Y-127371911D01*
X120273337Y-127479477D01*
X120381325Y-127610433D01*
X120461909Y-127759820D01*
X120512041Y-127921986D01*
X120530475Y-128096979D01*
X120572432Y-133682069D01*
X120555927Y-133860988D01*
X120506199Y-134027024D01*
X120424629Y-134179952D01*
X120314440Y-134313729D01*
X120179968Y-134423090D01*
X120026537Y-134503706D01*
X119860199Y-134552396D01*
X119681185Y-134567785D01*
X117993095Y-134544581D01*
X117819841Y-134525400D01*
X117659371Y-134475179D01*
X117511511Y-134395105D01*
X117381769Y-134288159D01*
X117274945Y-134158300D01*
X117195018Y-134010361D01*
X117144959Y-133849843D01*
X117125951Y-133676572D01*
X117060426Y-128535406D01*
X117058540Y-128515162D01*
X117039596Y-128406762D01*
X117032927Y-128382775D01*
X117026336Y-128368459D01*
X116974203Y-128271548D01*
X116960316Y-128250884D01*
X116949550Y-128239374D01*
X116869539Y-128163825D01*
X116849849Y-128148589D01*
X116836003Y-128141056D01*
X116736263Y-128094565D01*
X116712775Y-128086309D01*
X116697264Y-128083522D01*
X116587956Y-128070823D01*
X116499914Y-128060481D01*
X116438288Y-128031468D01*
X116389061Y-127984390D01*
X116357330Y-127924122D01*
X116344700Y-127846618D01*
X116344700Y-127656050D01*
X116360693Y-127534907D01*
X116404342Y-127429849D01*
X116473761Y-127339715D01*
X116564192Y-127270685D01*
X116669443Y-127227485D01*
X116790646Y-127212014D01*
X119655019Y-127224325D01*
X119655019Y-127224325D01*
G37*
X119655019Y-127224325D02*
X119830062Y-127242194D01*
X119992384Y-127291804D01*
X120142035Y-127371911D01*
X120273337Y-127479477D01*
X120381325Y-127610433D01*
X120461909Y-127759820D01*
X120512041Y-127921986D01*
X120530475Y-128096979D01*
X120572432Y-133682069D01*
X120555927Y-133860988D01*
X120506199Y-134027024D01*
X120424629Y-134179952D01*
X120314440Y-134313729D01*
X120179968Y-134423090D01*
X120026537Y-134503706D01*
X119860199Y-134552396D01*
X119681185Y-134567785D01*
X117993095Y-134544581D01*
X117819841Y-134525400D01*
X117659371Y-134475179D01*
X117511511Y-134395105D01*
X117381769Y-134288159D01*
X117274945Y-134158300D01*
X117195018Y-134010361D01*
X117144959Y-133849843D01*
X117125951Y-133676572D01*
X117060426Y-128535406D01*
X117058540Y-128515162D01*
X117039596Y-128406762D01*
X117032927Y-128382775D01*
X117026336Y-128368459D01*
X116974203Y-128271548D01*
X116960316Y-128250884D01*
X116949550Y-128239374D01*
X116869539Y-128163825D01*
X116849849Y-128148589D01*
X116836003Y-128141056D01*
X116736263Y-128094565D01*
X116712775Y-128086309D01*
X116697264Y-128083522D01*
X116587956Y-128070823D01*
X116499914Y-128060481D01*
X116438288Y-128031468D01*
X116389061Y-127984390D01*
X116357330Y-127924122D01*
X116344700Y-127846618D01*
X116344700Y-127656050D01*
X116360693Y-127534907D01*
X116404342Y-127429849D01*
X116473761Y-127339715D01*
X116564192Y-127270685D01*
X116669443Y-127227485D01*
X116790646Y-127212014D01*
X119655019Y-127224325D01*
G36*
X119922386Y-117532830D02*
G01*
X120054406Y-117640694D01*
X120162923Y-117772170D01*
X120243801Y-117922241D01*
X120293947Y-118085175D01*
X120312092Y-118260975D01*
X120321182Y-120085068D01*
X120321853Y-120097492D01*
X120341974Y-120292163D01*
X120346936Y-120316517D01*
X120404587Y-120503540D01*
X120414198Y-120526462D01*
X120507172Y-120698675D01*
X120521063Y-120719286D01*
X120645798Y-120870093D01*
X120663437Y-120887603D01*
X120815155Y-121011228D01*
X120835868Y-121024968D01*
X121008759Y-121116674D01*
X121031750Y-121126116D01*
X121219191Y-121182394D01*
X121243582Y-121187177D01*
X121438395Y-121205868D01*
X121450823Y-121206449D01*
X124824309Y-121198498D01*
X125001968Y-121215693D01*
X125166762Y-121265623D01*
X125318532Y-121346944D01*
X125451374Y-121456489D01*
X125560116Y-121589999D01*
X125640513Y-121742258D01*
X125689440Y-121907349D01*
X125705559Y-122085122D01*
X125696646Y-123142791D01*
X125700560Y-123175169D01*
X125724504Y-123269300D01*
X125732977Y-123292710D01*
X125745854Y-123314018D01*
X125755890Y-123325861D01*
X125823091Y-123395988D01*
X125841995Y-123412189D01*
X125863697Y-123424390D01*
X125878265Y-123429755D01*
X125971292Y-123457686D01*
X125971496Y-123457747D01*
X126033080Y-123476125D01*
X126054674Y-123498434D01*
X126066880Y-123544787D01*
X126083951Y-134026464D01*
X126066717Y-134203656D01*
X126016933Y-134368007D01*
X125935918Y-134519423D01*
X125826811Y-134652035D01*
X125693838Y-134760705D01*
X125542156Y-134841221D01*
X125377636Y-134890464D01*
X125200396Y-134907113D01*
X122058849Y-134891637D01*
X121882990Y-134873490D01*
X121719997Y-134823316D01*
X121569876Y-134742387D01*
X121438375Y-134633806D01*
X121330508Y-134501709D01*
X121250401Y-134351151D01*
X121201116Y-134187887D01*
X121183929Y-134011938D01*
X121189218Y-124005496D01*
X121188608Y-123993001D01*
X121169353Y-123797176D01*
X121164473Y-123772667D01*
X121107244Y-123584403D01*
X121097659Y-123561325D01*
X121004674Y-123387913D01*
X120990755Y-123367158D01*
X120865613Y-123215310D01*
X120847900Y-123197683D01*
X120695446Y-123073279D01*
X120674624Y-123059461D01*
X120500762Y-122967319D01*
X120477637Y-122957846D01*
X120289097Y-122901532D01*
X120264566Y-122896771D01*
X120068650Y-122878466D01*
X120056151Y-122877917D01*
X117344609Y-122892516D01*
X117168703Y-122876208D01*
X117005323Y-122827794D01*
X116854461Y-122748537D01*
X116721898Y-122641474D01*
X116612666Y-122510673D01*
X116530949Y-122361133D01*
X116479862Y-122198570D01*
X116460672Y-122022951D01*
X116419395Y-118274998D01*
X116435059Y-118097159D01*
X116483572Y-117931926D01*
X116563600Y-117779438D01*
X116672024Y-117645642D01*
X116804616Y-117535753D01*
X116821043Y-117526900D01*
X119911250Y-117526900D01*
X119922386Y-117532830D01*
X119922386Y-117532830D01*
G37*
X119922386Y-117532830D02*
X120054406Y-117640694D01*
X120162923Y-117772170D01*
X120243801Y-117922241D01*
X120293947Y-118085175D01*
X120312092Y-118260975D01*
X120321182Y-120085068D01*
X120321853Y-120097492D01*
X120341974Y-120292163D01*
X120346936Y-120316517D01*
X120404587Y-120503540D01*
X120414198Y-120526462D01*
X120507172Y-120698675D01*
X120521063Y-120719286D01*
X120645798Y-120870093D01*
X120663437Y-120887603D01*
X120815155Y-121011228D01*
X120835868Y-121024968D01*
X121008759Y-121116674D01*
X121031750Y-121126116D01*
X121219191Y-121182394D01*
X121243582Y-121187177D01*
X121438395Y-121205868D01*
X121450823Y-121206449D01*
X124824309Y-121198498D01*
X125001968Y-121215693D01*
X125166762Y-121265623D01*
X125318532Y-121346944D01*
X125451374Y-121456489D01*
X125560116Y-121589999D01*
X125640513Y-121742258D01*
X125689440Y-121907349D01*
X125705559Y-122085122D01*
X125696646Y-123142791D01*
X125700560Y-123175169D01*
X125724504Y-123269300D01*
X125732977Y-123292710D01*
X125745854Y-123314018D01*
X125755890Y-123325861D01*
X125823091Y-123395988D01*
X125841995Y-123412189D01*
X125863697Y-123424390D01*
X125878265Y-123429755D01*
X125971292Y-123457686D01*
X125971496Y-123457747D01*
X126033080Y-123476125D01*
X126054674Y-123498434D01*
X126066880Y-123544787D01*
X126083951Y-134026464D01*
X126066717Y-134203656D01*
X126016933Y-134368007D01*
X125935918Y-134519423D01*
X125826811Y-134652035D01*
X125693838Y-134760705D01*
X125542156Y-134841221D01*
X125377636Y-134890464D01*
X125200396Y-134907113D01*
X122058849Y-134891637D01*
X121882990Y-134873490D01*
X121719997Y-134823316D01*
X121569876Y-134742387D01*
X121438375Y-134633806D01*
X121330508Y-134501709D01*
X121250401Y-134351151D01*
X121201116Y-134187887D01*
X121183929Y-134011938D01*
X121189218Y-124005496D01*
X121188608Y-123993001D01*
X121169353Y-123797176D01*
X121164473Y-123772667D01*
X121107244Y-123584403D01*
X121097659Y-123561325D01*
X121004674Y-123387913D01*
X120990755Y-123367158D01*
X120865613Y-123215310D01*
X120847900Y-123197683D01*
X120695446Y-123073279D01*
X120674624Y-123059461D01*
X120500762Y-122967319D01*
X120477637Y-122957846D01*
X120289097Y-122901532D01*
X120264566Y-122896771D01*
X120068650Y-122878466D01*
X120056151Y-122877917D01*
X117344609Y-122892516D01*
X117168703Y-122876208D01*
X117005323Y-122827794D01*
X116854461Y-122748537D01*
X116721898Y-122641474D01*
X116612666Y-122510673D01*
X116530949Y-122361133D01*
X116479862Y-122198570D01*
X116460672Y-122022951D01*
X116419395Y-118274998D01*
X116435059Y-118097159D01*
X116483572Y-117931926D01*
X116563600Y-117779438D01*
X116672024Y-117645642D01*
X116804616Y-117535753D01*
X116821043Y-117526900D01*
X119911250Y-117526900D01*
X119922386Y-117532830D01*
G36*
X117851089Y-125367137D02*
G01*
X117997213Y-125418267D01*
X118128295Y-125500632D01*
X118237768Y-125610105D01*
X118320133Y-125741187D01*
X118371263Y-125887311D01*
X118388597Y-126041150D01*
X118371263Y-126194989D01*
X118320133Y-126341113D01*
X118237768Y-126472195D01*
X118128295Y-126581668D01*
X117997213Y-126664033D01*
X117851089Y-126715163D01*
X117690121Y-126733300D01*
X117031279Y-126733300D01*
X116870311Y-126715163D01*
X116724187Y-126664033D01*
X116593105Y-126581668D01*
X116483632Y-126472195D01*
X116401267Y-126341113D01*
X116350137Y-126194989D01*
X116332803Y-126041150D01*
X116350137Y-125887311D01*
X116401267Y-125741187D01*
X116483632Y-125610105D01*
X116593105Y-125500632D01*
X116724187Y-125418267D01*
X116870311Y-125367137D01*
X117031279Y-125349000D01*
X117690121Y-125349000D01*
X117851089Y-125367137D01*
X117851089Y-125367137D01*
G37*
X117851089Y-125367137D02*
X117997213Y-125418267D01*
X118128295Y-125500632D01*
X118237768Y-125610105D01*
X118320133Y-125741187D01*
X118371263Y-125887311D01*
X118388597Y-126041150D01*
X118371263Y-126194989D01*
X118320133Y-126341113D01*
X118237768Y-126472195D01*
X118128295Y-126581668D01*
X117997213Y-126664033D01*
X117851089Y-126715163D01*
X117690121Y-126733300D01*
X117031279Y-126733300D01*
X116870311Y-126715163D01*
X116724187Y-126664033D01*
X116593105Y-126581668D01*
X116483632Y-126472195D01*
X116401267Y-126341113D01*
X116350137Y-126194989D01*
X116332803Y-126041150D01*
X116350137Y-125887311D01*
X116401267Y-125741187D01*
X116483632Y-125610105D01*
X116593105Y-125500632D01*
X116724187Y-125418267D01*
X116870311Y-125367137D01*
X117031279Y-125349000D01*
X117690121Y-125349000D01*
X117851089Y-125367137D01*
G36*
X115296266Y-120984630D02*
G01*
X115458861Y-121033579D01*
X115608889Y-121113095D01*
X115740672Y-121220167D01*
X115849221Y-121350743D01*
X115930418Y-121499868D01*
X115981191Y-121661903D01*
X116000288Y-121836883D01*
X116005224Y-122276246D01*
X115988860Y-122436489D01*
X115939330Y-122582149D01*
X115858421Y-122713004D01*
X115750248Y-122822400D01*
X115620310Y-122904774D01*
X115475217Y-122955936D01*
X115315166Y-122974100D01*
X114862444Y-122974100D01*
X114784261Y-122961717D01*
X114722747Y-122930374D01*
X114673926Y-122881553D01*
X114642583Y-122820039D01*
X114611542Y-122624058D01*
X114605256Y-122599969D01*
X114599264Y-122586270D01*
X114549657Y-122488910D01*
X114536235Y-122467941D01*
X114526302Y-122456763D01*
X114449037Y-122379498D01*
X114429791Y-122363704D01*
X114416890Y-122356143D01*
X114319530Y-122306536D01*
X114296347Y-122297462D01*
X114281742Y-122294258D01*
X114173818Y-122277164D01*
X114153950Y-122275600D01*
X113068879Y-122275600D01*
X112916389Y-122258418D01*
X112778318Y-122210106D01*
X112654460Y-122132280D01*
X112551020Y-122028840D01*
X112473194Y-121904982D01*
X112424882Y-121766911D01*
X112408503Y-121621550D01*
X112424882Y-121476189D01*
X112473194Y-121338118D01*
X112551020Y-121214260D01*
X112654460Y-121110820D01*
X112778318Y-121032994D01*
X112916389Y-120984682D01*
X113068879Y-120967500D01*
X115121080Y-120967500D01*
X115296266Y-120984630D01*
X115296266Y-120984630D01*
G37*
X115296266Y-120984630D02*
X115458861Y-121033579D01*
X115608889Y-121113095D01*
X115740672Y-121220167D01*
X115849221Y-121350743D01*
X115930418Y-121499868D01*
X115981191Y-121661903D01*
X116000288Y-121836883D01*
X116005224Y-122276246D01*
X115988860Y-122436489D01*
X115939330Y-122582149D01*
X115858421Y-122713004D01*
X115750248Y-122822400D01*
X115620310Y-122904774D01*
X115475217Y-122955936D01*
X115315166Y-122974100D01*
X114862444Y-122974100D01*
X114784261Y-122961717D01*
X114722747Y-122930374D01*
X114673926Y-122881553D01*
X114642583Y-122820039D01*
X114611542Y-122624058D01*
X114605256Y-122599969D01*
X114599264Y-122586270D01*
X114549657Y-122488910D01*
X114536235Y-122467941D01*
X114526302Y-122456763D01*
X114449037Y-122379498D01*
X114429791Y-122363704D01*
X114416890Y-122356143D01*
X114319530Y-122306536D01*
X114296347Y-122297462D01*
X114281742Y-122294258D01*
X114173818Y-122277164D01*
X114153950Y-122275600D01*
X113068879Y-122275600D01*
X112916389Y-122258418D01*
X112778318Y-122210106D01*
X112654460Y-122132280D01*
X112551020Y-122028840D01*
X112473194Y-121904982D01*
X112424882Y-121766911D01*
X112408503Y-121621550D01*
X112424882Y-121476189D01*
X112473194Y-121338118D01*
X112551020Y-121214260D01*
X112654460Y-121110820D01*
X112778318Y-121032994D01*
X112916389Y-120984682D01*
X113068879Y-120967500D01*
X115121080Y-120967500D01*
X115296266Y-120984630D01*
G36*
X112671288Y-117604266D02*
G01*
X112743030Y-117714175D01*
X112788989Y-117837112D01*
X112807905Y-117974123D01*
X112863917Y-120054587D01*
X112852873Y-120158170D01*
X112818067Y-120247244D01*
X112761047Y-120324018D01*
X112685839Y-120383080D01*
X112597733Y-120420271D01*
X112486374Y-120435186D01*
X112356537Y-120452279D01*
X112324512Y-120460860D01*
X112203524Y-120510975D01*
X112174812Y-120527552D01*
X112070917Y-120607274D01*
X112047474Y-120630717D01*
X111967752Y-120734612D01*
X111951175Y-120763324D01*
X111901060Y-120884312D01*
X111892479Y-120916337D01*
X111875386Y-121046174D01*
X111874300Y-121062750D01*
X111874300Y-121580400D01*
X111874912Y-121592848D01*
X111894127Y-121787938D01*
X111898983Y-121812356D01*
X111955888Y-121999949D01*
X111965416Y-122022950D01*
X112057826Y-122195837D01*
X112071658Y-122216538D01*
X112196021Y-122368075D01*
X112213625Y-122385679D01*
X112365162Y-122510042D01*
X112385863Y-122523874D01*
X112558750Y-122616284D01*
X112581751Y-122625812D01*
X112769344Y-122682717D01*
X112793762Y-122687573D01*
X112988852Y-122706788D01*
X113001300Y-122707400D01*
X113259939Y-122707400D01*
X113435904Y-122724684D01*
X113599150Y-122774061D01*
X113749675Y-122854260D01*
X113881715Y-122962209D01*
X113990234Y-123093795D01*
X114071072Y-123243968D01*
X114121147Y-123407006D01*
X114139183Y-123582894D01*
X114144996Y-124943115D01*
X114146133Y-124959533D01*
X114167501Y-125118100D01*
X114176059Y-125149810D01*
X114237376Y-125297593D01*
X114253781Y-125326048D01*
X114350948Y-125453164D01*
X114374102Y-125476461D01*
X114500619Y-125574407D01*
X114528973Y-125590986D01*
X114676377Y-125653211D01*
X114708035Y-125661965D01*
X114866467Y-125684306D01*
X114882877Y-125685543D01*
X114976261Y-125686516D01*
X115084260Y-125701670D01*
X115177192Y-125740675D01*
X115257097Y-125802098D01*
X115318686Y-125881873D01*
X115357884Y-125974722D01*
X115372069Y-126074312D01*
X115360332Y-126172107D01*
X115323567Y-126263275D01*
X115264293Y-126341700D01*
X115186612Y-126401952D01*
X115095912Y-126439853D01*
X114990071Y-126453900D01*
X113756834Y-126453900D01*
X113580411Y-126436524D01*
X113416750Y-126386878D01*
X113265928Y-126306262D01*
X113133730Y-126197770D01*
X113025238Y-126065572D01*
X112944622Y-125914750D01*
X112894976Y-125751089D01*
X112877600Y-125574666D01*
X112877600Y-124777500D01*
X112876513Y-124760923D01*
X112855741Y-124603147D01*
X112847161Y-124571123D01*
X112786262Y-124424099D01*
X112769685Y-124395387D01*
X112672808Y-124269135D01*
X112649365Y-124245692D01*
X112523113Y-124148815D01*
X112494401Y-124132238D01*
X112347377Y-124071339D01*
X112315353Y-124062759D01*
X112157577Y-124041987D01*
X112157538Y-124041981D01*
X112016079Y-124023402D01*
X111899636Y-123975295D01*
X111799565Y-123898751D01*
X111722649Y-123798956D01*
X111674115Y-123682692D01*
X111656127Y-123549531D01*
X111635616Y-117970627D01*
X111650397Y-117835302D01*
X111692631Y-117713475D01*
X111760970Y-117604141D01*
X111837927Y-117526900D01*
X112591810Y-117526900D01*
X112671288Y-117604266D01*
X112671288Y-117604266D01*
G37*
X112671288Y-117604266D02*
X112743030Y-117714175D01*
X112788989Y-117837112D01*
X112807905Y-117974123D01*
X112863917Y-120054587D01*
X112852873Y-120158170D01*
X112818067Y-120247244D01*
X112761047Y-120324018D01*
X112685839Y-120383080D01*
X112597733Y-120420271D01*
X112486374Y-120435186D01*
X112356537Y-120452279D01*
X112324512Y-120460860D01*
X112203524Y-120510975D01*
X112174812Y-120527552D01*
X112070917Y-120607274D01*
X112047474Y-120630717D01*
X111967752Y-120734612D01*
X111951175Y-120763324D01*
X111901060Y-120884312D01*
X111892479Y-120916337D01*
X111875386Y-121046174D01*
X111874300Y-121062750D01*
X111874300Y-121580400D01*
X111874912Y-121592848D01*
X111894127Y-121787938D01*
X111898983Y-121812356D01*
X111955888Y-121999949D01*
X111965416Y-122022950D01*
X112057826Y-122195837D01*
X112071658Y-122216538D01*
X112196021Y-122368075D01*
X112213625Y-122385679D01*
X112365162Y-122510042D01*
X112385863Y-122523874D01*
X112558750Y-122616284D01*
X112581751Y-122625812D01*
X112769344Y-122682717D01*
X112793762Y-122687573D01*
X112988852Y-122706788D01*
X113001300Y-122707400D01*
X113259939Y-122707400D01*
X113435904Y-122724684D01*
X113599150Y-122774061D01*
X113749675Y-122854260D01*
X113881715Y-122962209D01*
X113990234Y-123093795D01*
X114071072Y-123243968D01*
X114121147Y-123407006D01*
X114139183Y-123582894D01*
X114144996Y-124943115D01*
X114146133Y-124959533D01*
X114167501Y-125118100D01*
X114176059Y-125149810D01*
X114237376Y-125297593D01*
X114253781Y-125326048D01*
X114350948Y-125453164D01*
X114374102Y-125476461D01*
X114500619Y-125574407D01*
X114528973Y-125590986D01*
X114676377Y-125653211D01*
X114708035Y-125661965D01*
X114866467Y-125684306D01*
X114882877Y-125685543D01*
X114976261Y-125686516D01*
X115084260Y-125701670D01*
X115177192Y-125740675D01*
X115257097Y-125802098D01*
X115318686Y-125881873D01*
X115357884Y-125974722D01*
X115372069Y-126074312D01*
X115360332Y-126172107D01*
X115323567Y-126263275D01*
X115264293Y-126341700D01*
X115186612Y-126401952D01*
X115095912Y-126439853D01*
X114990071Y-126453900D01*
X113756834Y-126453900D01*
X113580411Y-126436524D01*
X113416750Y-126386878D01*
X113265928Y-126306262D01*
X113133730Y-126197770D01*
X113025238Y-126065572D01*
X112944622Y-125914750D01*
X112894976Y-125751089D01*
X112877600Y-125574666D01*
X112877600Y-124777500D01*
X112876513Y-124760923D01*
X112855741Y-124603147D01*
X112847161Y-124571123D01*
X112786262Y-124424099D01*
X112769685Y-124395387D01*
X112672808Y-124269135D01*
X112649365Y-124245692D01*
X112523113Y-124148815D01*
X112494401Y-124132238D01*
X112347377Y-124071339D01*
X112315353Y-124062759D01*
X112157577Y-124041987D01*
X112157538Y-124041981D01*
X112016079Y-124023402D01*
X111899636Y-123975295D01*
X111799565Y-123898751D01*
X111722649Y-123798956D01*
X111674115Y-123682692D01*
X111656127Y-123549531D01*
X111635616Y-117970627D01*
X111650397Y-117835302D01*
X111692631Y-117713475D01*
X111760970Y-117604141D01*
X111837927Y-117526900D01*
X112591810Y-117526900D01*
X112671288Y-117604266D01*
G36*
X119769721Y-123528116D02*
G01*
X119933592Y-123577139D01*
X120084744Y-123657192D01*
X120217377Y-123765206D01*
X120326383Y-123897021D01*
X120407571Y-124047567D01*
X120457826Y-124211070D01*
X120475848Y-124387465D01*
X120481890Y-126055077D01*
X120464200Y-126216564D01*
X120413223Y-126363195D01*
X120330761Y-126494711D01*
X120220979Y-126604468D01*
X120089435Y-126686906D01*
X119942800Y-126737845D01*
X119788413Y-126754722D01*
X119633039Y-126736688D01*
X119485451Y-126684658D01*
X119353059Y-126601226D01*
X119242443Y-126490540D01*
X119159093Y-126358094D01*
X119107157Y-126210479D01*
X119088393Y-126047926D01*
X119087899Y-125894690D01*
X119087259Y-125882352D01*
X119067795Y-125689427D01*
X119062943Y-125665228D01*
X119006532Y-125479710D01*
X118997091Y-125456906D01*
X118905862Y-125285803D01*
X118892189Y-125265256D01*
X118769589Y-125115028D01*
X118752200Y-125097513D01*
X118602858Y-124973836D01*
X118582410Y-124960016D01*
X118411967Y-124867559D01*
X118389231Y-124857954D01*
X118204124Y-124800210D01*
X118179960Y-124795184D01*
X117987179Y-124774334D01*
X117974846Y-124773605D01*
X116787306Y-124761235D01*
X116772952Y-124761898D01*
X116578766Y-124781928D01*
X116550741Y-124788077D01*
X116366007Y-124851186D01*
X116340077Y-124863470D01*
X116174224Y-124966437D01*
X116151713Y-124984227D01*
X116013206Y-125121796D01*
X115995263Y-125144186D01*
X115891172Y-125309336D01*
X115878713Y-125335181D01*
X115836700Y-125455484D01*
X115836700Y-124401880D01*
X115853991Y-124225884D01*
X115903392Y-124062601D01*
X115983629Y-123912049D01*
X116091629Y-123779991D01*
X116223262Y-123671479D01*
X116373497Y-123590659D01*
X116536590Y-123540621D01*
X116712521Y-123522644D01*
X119593187Y-123511420D01*
X119769721Y-123528116D01*
X119769721Y-123528116D01*
G37*
X119769721Y-123528116D02*
X119933592Y-123577139D01*
X120084744Y-123657192D01*
X120217377Y-123765206D01*
X120326383Y-123897021D01*
X120407571Y-124047567D01*
X120457826Y-124211070D01*
X120475848Y-124387465D01*
X120481890Y-126055077D01*
X120464200Y-126216564D01*
X120413223Y-126363195D01*
X120330761Y-126494711D01*
X120220979Y-126604468D01*
X120089435Y-126686906D01*
X119942800Y-126737845D01*
X119788413Y-126754722D01*
X119633039Y-126736688D01*
X119485451Y-126684658D01*
X119353059Y-126601226D01*
X119242443Y-126490540D01*
X119159093Y-126358094D01*
X119107157Y-126210479D01*
X119088393Y-126047926D01*
X119087899Y-125894690D01*
X119087259Y-125882352D01*
X119067795Y-125689427D01*
X119062943Y-125665228D01*
X119006532Y-125479710D01*
X118997091Y-125456906D01*
X118905862Y-125285803D01*
X118892189Y-125265256D01*
X118769589Y-125115028D01*
X118752200Y-125097513D01*
X118602858Y-124973836D01*
X118582410Y-124960016D01*
X118411967Y-124867559D01*
X118389231Y-124857954D01*
X118204124Y-124800210D01*
X118179960Y-124795184D01*
X117987179Y-124774334D01*
X117974846Y-124773605D01*
X116787306Y-124761235D01*
X116772952Y-124761898D01*
X116578766Y-124781928D01*
X116550741Y-124788077D01*
X116366007Y-124851186D01*
X116340077Y-124863470D01*
X116174224Y-124966437D01*
X116151713Y-124984227D01*
X116013206Y-125121796D01*
X115995263Y-125144186D01*
X115891172Y-125309336D01*
X115878713Y-125335181D01*
X115836700Y-125455484D01*
X115836700Y-124401880D01*
X115853991Y-124225884D01*
X115903392Y-124062601D01*
X115983629Y-123912049D01*
X116091629Y-123779991D01*
X116223262Y-123671479D01*
X116373497Y-123590659D01*
X116536590Y-123540621D01*
X116712521Y-123522644D01*
X119593187Y-123511420D01*
X119769721Y-123528116D01*
G36*
X107222071Y-131820189D02*
G01*
X107348298Y-131865067D01*
X107461343Y-131936954D01*
X107555520Y-132032235D01*
X107626082Y-132146110D01*
X107669484Y-132272851D01*
X107684294Y-132413228D01*
X107678023Y-133272338D01*
X107673196Y-133290206D01*
X107672091Y-133291331D01*
X107638679Y-133300971D01*
X107573003Y-133319856D01*
X107549865Y-133329048D01*
X107528966Y-133342577D01*
X107517775Y-133352632D01*
X107469736Y-133401234D01*
X107454054Y-133420571D01*
X107442446Y-133442596D01*
X107437605Y-133456839D01*
X107419486Y-133522730D01*
X107414951Y-133554785D01*
X107402503Y-134532013D01*
X107380671Y-134707872D01*
X107323127Y-134867966D01*
X107231812Y-135011499D01*
X107111188Y-135131459D01*
X106967147Y-135221984D01*
X106806742Y-135278643D01*
X106637953Y-135298652D01*
X106471576Y-135280968D01*
X106313544Y-135226463D01*
X106171773Y-135137904D01*
X106053472Y-135019796D01*
X105964680Y-134878167D01*
X105909918Y-134720226D01*
X105891201Y-134546839D01*
X105897264Y-133461592D01*
X105912322Y-133387781D01*
X105947297Y-133335829D01*
X105999442Y-133301145D01*
X106085564Y-133284077D01*
X106196458Y-133262142D01*
X106220290Y-133254941D01*
X106242034Y-133243378D01*
X106336266Y-133180850D01*
X106355561Y-133165118D01*
X106371265Y-133146149D01*
X106434596Y-133052455D01*
X106446449Y-133030561D01*
X106453749Y-133007041D01*
X106476640Y-132896293D01*
X106479264Y-132871672D01*
X106483220Y-132408858D01*
X106500244Y-132268202D01*
X106545645Y-132141572D01*
X106618015Y-132028178D01*
X106713750Y-131933671D01*
X106828069Y-131862771D01*
X106955273Y-131819010D01*
X107088983Y-131804576D01*
X107222071Y-131820189D01*
X107222071Y-131820189D01*
G37*
X107222071Y-131820189D02*
X107348298Y-131865067D01*
X107461343Y-131936954D01*
X107555520Y-132032235D01*
X107626082Y-132146110D01*
X107669484Y-132272851D01*
X107684294Y-132413228D01*
X107678023Y-133272338D01*
X107673196Y-133290206D01*
X107672091Y-133291331D01*
X107638679Y-133300971D01*
X107573003Y-133319856D01*
X107549865Y-133329048D01*
X107528966Y-133342577D01*
X107517775Y-133352632D01*
X107469736Y-133401234D01*
X107454054Y-133420571D01*
X107442446Y-133442596D01*
X107437605Y-133456839D01*
X107419486Y-133522730D01*
X107414951Y-133554785D01*
X107402503Y-134532013D01*
X107380671Y-134707872D01*
X107323127Y-134867966D01*
X107231812Y-135011499D01*
X107111188Y-135131459D01*
X106967147Y-135221984D01*
X106806742Y-135278643D01*
X106637953Y-135298652D01*
X106471576Y-135280968D01*
X106313544Y-135226463D01*
X106171773Y-135137904D01*
X106053472Y-135019796D01*
X105964680Y-134878167D01*
X105909918Y-134720226D01*
X105891201Y-134546839D01*
X105897264Y-133461592D01*
X105912322Y-133387781D01*
X105947297Y-133335829D01*
X105999442Y-133301145D01*
X106085564Y-133284077D01*
X106196458Y-133262142D01*
X106220290Y-133254941D01*
X106242034Y-133243378D01*
X106336266Y-133180850D01*
X106355561Y-133165118D01*
X106371265Y-133146149D01*
X106434596Y-133052455D01*
X106446449Y-133030561D01*
X106453749Y-133007041D01*
X106476640Y-132896293D01*
X106479264Y-132871672D01*
X106483220Y-132408858D01*
X106500244Y-132268202D01*
X106545645Y-132141572D01*
X106618015Y-132028178D01*
X106713750Y-131933671D01*
X106828069Y-131862771D01*
X106955273Y-131819010D01*
X107088983Y-131804576D01*
X107222071Y-131820189D01*
G36*
X115432285Y-117553071D02*
G01*
X115580223Y-117646027D01*
X115703773Y-117769577D01*
X115796729Y-117917515D01*
X115854434Y-118082429D01*
X115873997Y-118256050D01*
X115854434Y-118429671D01*
X115796729Y-118594585D01*
X115703773Y-118742523D01*
X115580223Y-118866073D01*
X115432285Y-118959029D01*
X115267371Y-119016734D01*
X115086621Y-119037100D01*
X114237276Y-119037100D01*
X114055892Y-119016755D01*
X113890274Y-118959082D01*
X113741551Y-118866148D01*
X113617111Y-118742576D01*
X113523140Y-118594505D01*
X113464309Y-118429292D01*
X113443551Y-118255222D01*
X113461924Y-118082054D01*
X113518514Y-117917435D01*
X113610464Y-117769625D01*
X113733121Y-117646107D01*
X113880283Y-117553126D01*
X113954874Y-117526900D01*
X115357491Y-117526900D01*
X115432285Y-117553071D01*
X115432285Y-117553071D01*
G37*
X115432285Y-117553071D02*
X115580223Y-117646027D01*
X115703773Y-117769577D01*
X115796729Y-117917515D01*
X115854434Y-118082429D01*
X115873997Y-118256050D01*
X115854434Y-118429671D01*
X115796729Y-118594585D01*
X115703773Y-118742523D01*
X115580223Y-118866073D01*
X115432285Y-118959029D01*
X115267371Y-119016734D01*
X115086621Y-119037100D01*
X114237276Y-119037100D01*
X114055892Y-119016755D01*
X113890274Y-118959082D01*
X113741551Y-118866148D01*
X113617111Y-118742576D01*
X113523140Y-118594505D01*
X113464309Y-118429292D01*
X113443551Y-118255222D01*
X113461924Y-118082054D01*
X113518514Y-117917435D01*
X113610464Y-117769625D01*
X113733121Y-117646107D01*
X113880283Y-117553126D01*
X113954874Y-117526900D01*
X115357491Y-117526900D01*
X115432285Y-117553071D01*
G36*
X129550107Y-121485703D02*
G01*
X129715013Y-121535237D01*
X129866983Y-121616199D01*
X130000088Y-121725431D01*
X130109149Y-121858685D01*
X130189908Y-122010755D01*
X130239226Y-122175727D01*
X130255765Y-122353464D01*
X130172754Y-136047696D01*
X130154409Y-136223516D01*
X130104056Y-136386442D01*
X130022968Y-136536464D01*
X129914249Y-136667837D01*
X129782044Y-136775555D01*
X129679827Y-136829801D01*
X108160594Y-136829801D01*
X108146933Y-136811365D01*
X108130851Y-136752127D01*
X108116033Y-136564432D01*
X108113129Y-136490751D01*
X108113129Y-135658236D01*
X108113481Y-135632543D01*
X108143377Y-134543041D01*
X108164905Y-134370166D01*
X108217257Y-134210485D01*
X108299254Y-134063803D01*
X108407849Y-133935566D01*
X108539021Y-133830525D01*
X108687897Y-133752583D01*
X108848949Y-133704632D01*
X109022351Y-133687853D01*
X115257818Y-133687853D01*
X115436599Y-133705700D01*
X115602254Y-133756672D01*
X115754557Y-133839382D01*
X115887508Y-133950573D01*
X115995850Y-134085846D01*
X116075313Y-134239872D01*
X116122760Y-134406571D01*
X116136812Y-134585693D01*
X116135846Y-134631221D01*
X116136207Y-134643856D01*
X116151772Y-134842068D01*
X116156241Y-134866920D01*
X116210712Y-135058135D01*
X116220010Y-135081612D01*
X116311235Y-135258272D01*
X116324993Y-135279444D01*
X116449363Y-135434564D01*
X116467039Y-135452597D01*
X116619641Y-135580045D01*
X116640534Y-135594224D01*
X116815333Y-135688964D01*
X116838619Y-135698729D01*
X117028706Y-135757014D01*
X117053463Y-135761980D01*
X117251324Y-135781507D01*
X117263950Y-135782121D01*
X126693382Y-135770760D01*
X126718156Y-135768290D01*
X126741935Y-135761049D01*
X126804803Y-135734942D01*
X126826749Y-135723186D01*
X126845980Y-135707375D01*
X126861757Y-135688115D01*
X126873444Y-135666219D01*
X126899476Y-135603319D01*
X126906696Y-135579492D01*
X126909129Y-135554753D01*
X126909129Y-123261153D01*
X126906689Y-123236376D01*
X126891221Y-123158615D01*
X126883993Y-123134791D01*
X126872258Y-123112835D01*
X126828210Y-123046912D01*
X126812416Y-123027667D01*
X126793170Y-123011872D01*
X126727247Y-122967824D01*
X126705290Y-122956088D01*
X126681467Y-122948861D01*
X126550720Y-122922853D01*
X126526807Y-122906875D01*
X126510829Y-122882962D01*
X126502729Y-122842242D01*
X126502729Y-122214162D01*
X126521649Y-122045729D01*
X126575111Y-121892443D01*
X126661248Y-121754839D01*
X126775766Y-121639777D01*
X126912959Y-121552987D01*
X127065987Y-121498800D01*
X127234333Y-121479079D01*
X129372399Y-121468930D01*
X129550107Y-121485703D01*
X129550107Y-121485703D01*
G37*
X129550107Y-121485703D02*
X129715013Y-121535237D01*
X129866983Y-121616199D01*
X130000088Y-121725431D01*
X130109149Y-121858685D01*
X130189908Y-122010755D01*
X130239226Y-122175727D01*
X130255765Y-122353464D01*
X130172754Y-136047696D01*
X130154409Y-136223516D01*
X130104056Y-136386442D01*
X130022968Y-136536464D01*
X129914249Y-136667837D01*
X129782044Y-136775555D01*
X129679827Y-136829801D01*
X108160594Y-136829801D01*
X108146933Y-136811365D01*
X108130851Y-136752127D01*
X108116033Y-136564432D01*
X108113129Y-136490751D01*
X108113129Y-135658236D01*
X108113481Y-135632543D01*
X108143377Y-134543041D01*
X108164905Y-134370166D01*
X108217257Y-134210485D01*
X108299254Y-134063803D01*
X108407849Y-133935566D01*
X108539021Y-133830525D01*
X108687897Y-133752583D01*
X108848949Y-133704632D01*
X109022351Y-133687853D01*
X115257818Y-133687853D01*
X115436599Y-133705700D01*
X115602254Y-133756672D01*
X115754557Y-133839382D01*
X115887508Y-133950573D01*
X115995850Y-134085846D01*
X116075313Y-134239872D01*
X116122760Y-134406571D01*
X116136812Y-134585693D01*
X116135846Y-134631221D01*
X116136207Y-134643856D01*
X116151772Y-134842068D01*
X116156241Y-134866920D01*
X116210712Y-135058135D01*
X116220010Y-135081612D01*
X116311235Y-135258272D01*
X116324993Y-135279444D01*
X116449363Y-135434564D01*
X116467039Y-135452597D01*
X116619641Y-135580045D01*
X116640534Y-135594224D01*
X116815333Y-135688964D01*
X116838619Y-135698729D01*
X117028706Y-135757014D01*
X117053463Y-135761980D01*
X117251324Y-135781507D01*
X117263950Y-135782121D01*
X126693382Y-135770760D01*
X126718156Y-135768290D01*
X126741935Y-135761049D01*
X126804803Y-135734942D01*
X126826749Y-135723186D01*
X126845980Y-135707375D01*
X126861757Y-135688115D01*
X126873444Y-135666219D01*
X126899476Y-135603319D01*
X126906696Y-135579492D01*
X126909129Y-135554753D01*
X126909129Y-123261153D01*
X126906689Y-123236376D01*
X126891221Y-123158615D01*
X126883993Y-123134791D01*
X126872258Y-123112835D01*
X126828210Y-123046912D01*
X126812416Y-123027667D01*
X126793170Y-123011872D01*
X126727247Y-122967824D01*
X126705290Y-122956088D01*
X126681467Y-122948861D01*
X126550720Y-122922853D01*
X126526807Y-122906875D01*
X126510829Y-122882962D01*
X126502729Y-122842242D01*
X126502729Y-122214162D01*
X126521649Y-122045729D01*
X126575111Y-121892443D01*
X126661248Y-121754839D01*
X126775766Y-121639777D01*
X126912959Y-121552987D01*
X127065987Y-121498800D01*
X127234333Y-121479079D01*
X129372399Y-121468930D01*
X129550107Y-121485703D01*
G36*
X109024805Y-121250955D02*
G01*
X109185761Y-121298844D01*
X109334568Y-121376691D01*
X109465701Y-121481605D01*
X109574297Y-121609694D01*
X109656345Y-121756228D01*
X109708793Y-121915756D01*
X109730471Y-122088492D01*
X109765316Y-123313047D01*
X109766418Y-123326513D01*
X109794988Y-123537045D01*
X109801437Y-123563246D01*
X109873839Y-123762990D01*
X109885676Y-123787236D01*
X109998641Y-123967177D01*
X110015335Y-123988377D01*
X110163765Y-124140391D01*
X110184559Y-124157585D01*
X110361753Y-124274812D01*
X110385711Y-124287225D01*
X110583671Y-124364371D01*
X110609710Y-124371442D01*
X110819500Y-124405027D01*
X110832936Y-124406450D01*
X111438646Y-124438163D01*
X111624422Y-124467473D01*
X111793898Y-124532201D01*
X111946321Y-124630586D01*
X112075099Y-124758371D01*
X112174656Y-124910026D01*
X112240693Y-125078998D01*
X112271439Y-125264549D01*
X112291096Y-125591568D01*
X112282902Y-125778759D01*
X112237963Y-125953811D01*
X112157915Y-126115843D01*
X112046190Y-126257909D01*
X111907595Y-126373896D01*
X111748067Y-126458836D01*
X111574462Y-126509080D01*
X111387613Y-126522962D01*
X109984546Y-126481390D01*
X109794574Y-126455425D01*
X109620723Y-126392305D01*
X109464094Y-126293955D01*
X109331719Y-126164790D01*
X109229551Y-126010616D01*
X109162186Y-125838372D01*
X109131568Y-125649098D01*
X109116838Y-125377427D01*
X109115405Y-125364086D01*
X109081815Y-125155765D01*
X109074781Y-125129906D01*
X108998225Y-124933271D01*
X108985922Y-124909464D01*
X108869811Y-124733270D01*
X108852786Y-124712574D01*
X108702287Y-124564668D01*
X108681299Y-124548005D01*
X108503115Y-124434971D01*
X108479098Y-124423084D01*
X108281163Y-124349955D01*
X108255184Y-124343371D01*
X108046311Y-124313405D01*
X108032948Y-124312204D01*
X105766751Y-124228785D01*
X105595996Y-124206083D01*
X105438414Y-124153349D01*
X105293684Y-124071688D01*
X105167069Y-123964073D01*
X105063155Y-123834401D01*
X104985711Y-123687377D01*
X104937549Y-123528336D01*
X104919789Y-123356995D01*
X104910014Y-122120369D01*
X104926162Y-121942932D01*
X104974998Y-121778140D01*
X105055195Y-121626119D01*
X105163637Y-121492779D01*
X105296119Y-121383284D01*
X105447498Y-121301889D01*
X105611902Y-121251751D01*
X105789204Y-121234200D01*
X108851530Y-121234200D01*
X109024805Y-121250955D01*
X109024805Y-121250955D01*
G37*
X109024805Y-121250955D02*
X109185761Y-121298844D01*
X109334568Y-121376691D01*
X109465701Y-121481605D01*
X109574297Y-121609694D01*
X109656345Y-121756228D01*
X109708793Y-121915756D01*
X109730471Y-122088492D01*
X109765316Y-123313047D01*
X109766418Y-123326513D01*
X109794988Y-123537045D01*
X109801437Y-123563246D01*
X109873839Y-123762990D01*
X109885676Y-123787236D01*
X109998641Y-123967177D01*
X110015335Y-123988377D01*
X110163765Y-124140391D01*
X110184559Y-124157585D01*
X110361753Y-124274812D01*
X110385711Y-124287225D01*
X110583671Y-124364371D01*
X110609710Y-124371442D01*
X110819500Y-124405027D01*
X110832936Y-124406450D01*
X111438646Y-124438163D01*
X111624422Y-124467473D01*
X111793898Y-124532201D01*
X111946321Y-124630586D01*
X112075099Y-124758371D01*
X112174656Y-124910026D01*
X112240693Y-125078998D01*
X112271439Y-125264549D01*
X112291096Y-125591568D01*
X112282902Y-125778759D01*
X112237963Y-125953811D01*
X112157915Y-126115843D01*
X112046190Y-126257909D01*
X111907595Y-126373896D01*
X111748067Y-126458836D01*
X111574462Y-126509080D01*
X111387613Y-126522962D01*
X109984546Y-126481390D01*
X109794574Y-126455425D01*
X109620723Y-126392305D01*
X109464094Y-126293955D01*
X109331719Y-126164790D01*
X109229551Y-126010616D01*
X109162186Y-125838372D01*
X109131568Y-125649098D01*
X109116838Y-125377427D01*
X109115405Y-125364086D01*
X109081815Y-125155765D01*
X109074781Y-125129906D01*
X108998225Y-124933271D01*
X108985922Y-124909464D01*
X108869811Y-124733270D01*
X108852786Y-124712574D01*
X108702287Y-124564668D01*
X108681299Y-124548005D01*
X108503115Y-124434971D01*
X108479098Y-124423084D01*
X108281163Y-124349955D01*
X108255184Y-124343371D01*
X108046311Y-124313405D01*
X108032948Y-124312204D01*
X105766751Y-124228785D01*
X105595996Y-124206083D01*
X105438414Y-124153349D01*
X105293684Y-124071688D01*
X105167069Y-123964073D01*
X105063155Y-123834401D01*
X104985711Y-123687377D01*
X104937549Y-123528336D01*
X104919789Y-123356995D01*
X104910014Y-122120369D01*
X104926162Y-121942932D01*
X104974998Y-121778140D01*
X105055195Y-121626119D01*
X105163637Y-121492779D01*
X105296119Y-121383284D01*
X105447498Y-121301889D01*
X105611902Y-121251751D01*
X105789204Y-121234200D01*
X108851530Y-121234200D01*
X109024805Y-121250955D01*
G36*
X115124976Y-127245883D02*
G01*
X115288233Y-127295265D01*
X115438752Y-127375463D01*
X115570800Y-127483422D01*
X115679313Y-127615003D01*
X115760153Y-127765189D01*
X115810225Y-127928224D01*
X115828255Y-128104115D01*
X115845125Y-132076860D01*
X115828481Y-132253450D01*
X115779487Y-132417382D01*
X115699438Y-132568601D01*
X115591413Y-132701287D01*
X115459572Y-132810334D01*
X115308975Y-132891554D01*
X115145432Y-132941816D01*
X114968968Y-132959828D01*
X109525182Y-132978895D01*
X109368783Y-132961969D01*
X109226723Y-132913243D01*
X109098924Y-132834356D01*
X108991693Y-132729196D01*
X108910331Y-132602965D01*
X108858841Y-132461874D01*
X108839789Y-132313024D01*
X108854158Y-132165522D01*
X108901208Y-132025117D01*
X108978549Y-131898843D01*
X109082248Y-131793129D01*
X109207009Y-131713372D01*
X109346483Y-131663630D01*
X109500750Y-131645599D01*
X111625983Y-131638698D01*
X111638312Y-131638058D01*
X111831528Y-131618575D01*
X111855711Y-131613730D01*
X112041519Y-131557269D01*
X112064309Y-131547841D01*
X112235700Y-131456532D01*
X112256238Y-131442877D01*
X112406749Y-131320164D01*
X112424260Y-131302797D01*
X112548216Y-131153306D01*
X112562041Y-131132882D01*
X112654765Y-130962253D01*
X112664381Y-130939542D01*
X112722379Y-130754209D01*
X112727424Y-130730068D01*
X112748507Y-130537019D01*
X112749250Y-130524695D01*
X112777226Y-128097730D01*
X112796368Y-127922783D01*
X112847168Y-127760792D01*
X112928379Y-127611712D01*
X113036930Y-127481178D01*
X113168702Y-127374142D01*
X113318710Y-127294655D01*
X113481280Y-127245723D01*
X113656428Y-127228600D01*
X114949013Y-127228600D01*
X115124976Y-127245883D01*
X115124976Y-127245883D01*
G37*
X115124976Y-127245883D02*
X115288233Y-127295265D01*
X115438752Y-127375463D01*
X115570800Y-127483422D01*
X115679313Y-127615003D01*
X115760153Y-127765189D01*
X115810225Y-127928224D01*
X115828255Y-128104115D01*
X115845125Y-132076860D01*
X115828481Y-132253450D01*
X115779487Y-132417382D01*
X115699438Y-132568601D01*
X115591413Y-132701287D01*
X115459572Y-132810334D01*
X115308975Y-132891554D01*
X115145432Y-132941816D01*
X114968968Y-132959828D01*
X109525182Y-132978895D01*
X109368783Y-132961969D01*
X109226723Y-132913243D01*
X109098924Y-132834356D01*
X108991693Y-132729196D01*
X108910331Y-132602965D01*
X108858841Y-132461874D01*
X108839789Y-132313024D01*
X108854158Y-132165522D01*
X108901208Y-132025117D01*
X108978549Y-131898843D01*
X109082248Y-131793129D01*
X109207009Y-131713372D01*
X109346483Y-131663630D01*
X109500750Y-131645599D01*
X111625983Y-131638698D01*
X111638312Y-131638058D01*
X111831528Y-131618575D01*
X111855711Y-131613730D01*
X112041519Y-131557269D01*
X112064309Y-131547841D01*
X112235700Y-131456532D01*
X112256238Y-131442877D01*
X112406749Y-131320164D01*
X112424260Y-131302797D01*
X112548216Y-131153306D01*
X112562041Y-131132882D01*
X112654765Y-130962253D01*
X112664381Y-130939542D01*
X112722379Y-130754209D01*
X112727424Y-130730068D01*
X112748507Y-130537019D01*
X112749250Y-130524695D01*
X112777226Y-128097730D01*
X112796368Y-127922783D01*
X112847168Y-127760792D01*
X112928379Y-127611712D01*
X113036930Y-127481178D01*
X113168702Y-127374142D01*
X113318710Y-127294655D01*
X113481280Y-127245723D01*
X113656428Y-127228600D01*
X114949013Y-127228600D01*
X115124976Y-127245883D01*
G36*
X107110497Y-124873420D02*
G01*
X107283522Y-124892296D01*
X107443849Y-124942140D01*
X107591653Y-125021769D01*
X107721472Y-125128241D01*
X107828489Y-125257604D01*
X107908747Y-125405076D01*
X107959269Y-125565191D01*
X107978875Y-125738117D01*
X107984972Y-126106971D01*
X107985752Y-126119075D01*
X108007090Y-126308674D01*
X108012084Y-126332385D01*
X108069043Y-126514481D01*
X108078450Y-126536811D01*
X108168957Y-126704774D01*
X108182435Y-126724912D01*
X108303196Y-126872628D01*
X108320251Y-126889839D01*
X108466868Y-127011931D01*
X108486883Y-127025590D01*
X108654020Y-127117613D01*
X108676265Y-127127222D01*
X108857838Y-127185827D01*
X108881503Y-127191036D01*
X109070901Y-127214088D01*
X109082997Y-127214976D01*
X109881246Y-127235397D01*
X110053593Y-127256479D01*
X110212898Y-127308214D01*
X110359381Y-127389438D01*
X110487639Y-127497158D01*
X110592953Y-127627409D01*
X110671430Y-127775377D01*
X110720185Y-127935621D01*
X110738050Y-128108331D01*
X110749586Y-129773874D01*
X110732983Y-129952743D01*
X110683176Y-130118723D01*
X110601547Y-130271578D01*
X110491312Y-130405286D01*
X110356825Y-130514566D01*
X110203391Y-130595107D01*
X110037063Y-130643732D01*
X109858066Y-130659064D01*
X105995444Y-130604838D01*
X105821044Y-130585363D01*
X105659619Y-130534448D01*
X105511065Y-130453319D01*
X105380966Y-130345024D01*
X105274239Y-130213655D01*
X105194883Y-130064138D01*
X105145896Y-129902119D01*
X105128503Y-129727509D01*
X105120061Y-125740894D01*
X105137381Y-125562824D01*
X105187575Y-125397707D01*
X105269291Y-125245699D01*
X105379331Y-125112753D01*
X105513388Y-125004073D01*
X105666219Y-124923908D01*
X105831844Y-124875397D01*
X106010078Y-124859890D01*
X107110497Y-124873420D01*
X107110497Y-124873420D01*
G37*
X107110497Y-124873420D02*
X107283522Y-124892296D01*
X107443849Y-124942140D01*
X107591653Y-125021769D01*
X107721472Y-125128241D01*
X107828489Y-125257604D01*
X107908747Y-125405076D01*
X107959269Y-125565191D01*
X107978875Y-125738117D01*
X107984972Y-126106971D01*
X107985752Y-126119075D01*
X108007090Y-126308674D01*
X108012084Y-126332385D01*
X108069043Y-126514481D01*
X108078450Y-126536811D01*
X108168957Y-126704774D01*
X108182435Y-126724912D01*
X108303196Y-126872628D01*
X108320251Y-126889839D01*
X108466868Y-127011931D01*
X108486883Y-127025590D01*
X108654020Y-127117613D01*
X108676265Y-127127222D01*
X108857838Y-127185827D01*
X108881503Y-127191036D01*
X109070901Y-127214088D01*
X109082997Y-127214976D01*
X109881246Y-127235397D01*
X110053593Y-127256479D01*
X110212898Y-127308214D01*
X110359381Y-127389438D01*
X110487639Y-127497158D01*
X110592953Y-127627409D01*
X110671430Y-127775377D01*
X110720185Y-127935621D01*
X110738050Y-128108331D01*
X110749586Y-129773874D01*
X110732983Y-129952743D01*
X110683176Y-130118723D01*
X110601547Y-130271578D01*
X110491312Y-130405286D01*
X110356825Y-130514566D01*
X110203391Y-130595107D01*
X110037063Y-130643732D01*
X109858066Y-130659064D01*
X105995444Y-130604838D01*
X105821044Y-130585363D01*
X105659619Y-130534448D01*
X105511065Y-130453319D01*
X105380966Y-130345024D01*
X105274239Y-130213655D01*
X105194883Y-130064138D01*
X105145896Y-129902119D01*
X105128503Y-129727509D01*
X105120061Y-125740894D01*
X105137381Y-125562824D01*
X105187575Y-125397707D01*
X105269291Y-125245699D01*
X105379331Y-125112753D01*
X105513388Y-125004073D01*
X105666219Y-124923908D01*
X105831844Y-124875397D01*
X106010078Y-124859890D01*
X107110497Y-124873420D01*
M02*
