M48
INCH,TZ
T1C0.0120
T2C0.0315
T3C0.0374
T4C0.0472
T5C0.0591
T6C0.0689
T7C0.0858
T8C0.0512
T9C0.0787
T10C0.1122
%
G90
G05
T1
X22900Y-21950
X23200Y-22040
X28750Y-22900
X29400Y-23650
X32750Y-26450
X33200Y-29310
X33400Y-28890
X39250Y-28900
X39300Y-28550
X40600Y-29100
X40700Y-28800
T2
X46050Y-24450
X46050Y-25450
X46050Y-26450
X46050Y-27450
X46050Y-28450
X47050Y-24950
X47050Y-25950
X47050Y-26950
X47050Y-27950
X47050Y-28950
X24950Y-28150
X25450Y-27150
X25950Y-28150
X26450Y-27150
X26950Y-28150
X27450Y-27150
X27950Y-28150
X28450Y-27150
X28950Y-28150
X29450Y-27150
X29950Y-28150
X30450Y-27150
X30950Y-28150
X31450Y-27150
X31950Y-28150
X32450Y-27150
X32950Y-28150
X33450Y-27150
X33950Y-28150
X34450Y-27150
X31650Y-20200
X31650Y-21200
X32650Y-20700
X32650Y-21700
T3
X39250Y-24350
X40077Y-26960
X40250Y-24350
X40577Y-27960
X41077Y-26960
X41577Y-27960
X42077Y-26960
X42577Y-27960
X43077Y-26960
X43407Y-24350
X43577Y-27960
X44407Y-24350
T4
X36439Y-16528
X36439Y-17512
X37424Y-16528
X37424Y-17512
X38408Y-16528
X38408Y-17512
X39392Y-16528
X39392Y-17512
X40376Y-16528
X40376Y-17512
X41361Y-16528
X41361Y-17512
T5
X46759Y-23899
X24399Y-27441
X32059Y-22251
T6
X19317Y-17778
X19317Y-20928
X20105Y-19353
X20892Y-17778
X20892Y-20928
X21680Y-19353
X22467Y-17778
X22467Y-20928
X23254Y-19353
X24042Y-17778
X24042Y-20928
X24829Y-19353
X25617Y-17778
X25617Y-20928
X26404Y-19353
X27191Y-17778
X27191Y-20928
X27979Y-19353
X28766Y-17778
X28766Y-20928
X29554Y-19353
X30341Y-17778
X30341Y-20928
T7
X39093Y-26220
X44565Y-26220
T8
X38900Y-16000
T9
X14908Y-22227
X15498Y-15101
X34160Y-15101
X34750Y-22227
T10
X16758Y-19550
X32900Y-19550
T0
M30
