G04 #@! TF.GenerationSoftware,KiCad,Pcbnew,5.1.4*
G04 #@! TF.CreationDate,2019-12-12T21:33:50-05:00*
G04 #@! TF.ProjectId,Suspension_Travel,53757370-656e-4736-996f-6e5f54726176,rev?*
G04 #@! TF.SameCoordinates,Original*
G04 #@! TF.FileFunction,Copper,L1,Top*
G04 #@! TF.FilePolarity,Positive*
%FSLAX46Y46*%
G04 Gerber Fmt 4.6, Leading zero omitted, Abs format (unit mm)*
G04 Created by KiCad (PCBNEW 5.1.4) date 2019-12-12 21:33:50*
%MOMM*%
%LPD*%
G04 APERTURE LIST*
%ADD10C,1.300000*%
%ADD11R,1.780000X3.500000*%
%ADD12R,1.250000X1.000000*%
%ADD13R,0.900000X2.500000*%
%ADD14R,1.200000X2.000000*%
%ADD15R,0.700000X1.300000*%
%ADD16R,1.000000X3.200000*%
%ADD17R,0.650000X1.060000*%
%ADD18R,1.000000X1.600000*%
%ADD19R,1.000000X1.250000*%
%ADD20R,2.159000X1.778000*%
%ADD21R,1.200000X1.200000*%
%ADD22C,0.100000*%
%ADD23C,0.875000*%
%ADD24R,1.600000X1.000000*%
%ADD25R,1.400000X1.400000*%
%ADD26C,1.400000*%
%ADD27R,1.300000X0.700000*%
%ADD28R,1.550000X0.600000*%
%ADD29C,0.550000*%
%ADD30R,1.400000X1.200000*%
%ADD31C,0.800000*%
%ADD32C,0.609600*%
%ADD33C,0.250000*%
%ADD34C,0.381000*%
%ADD35C,0.152400*%
%ADD36C,0.254000*%
G04 APERTURE END LIST*
D10*
X128701800Y-82016600D03*
X126161800Y-82016600D03*
X123621800Y-82016600D03*
X131241800Y-82016600D03*
X124891800Y-79476600D03*
X127431800Y-79476600D03*
X129971800Y-79476600D03*
X132511800Y-79476600D03*
D11*
X113550700Y-88519000D03*
X108270700Y-88519000D03*
D12*
X116408200Y-95139000D03*
X116408200Y-97139000D03*
D13*
X125859200Y-92392500D03*
X122959200Y-92392500D03*
D14*
X118503300Y-92453460D03*
X115303300Y-92453460D03*
D15*
X116085580Y-99141280D03*
X117985580Y-99141280D03*
X121871780Y-99156520D03*
X119971780Y-99156520D03*
X121600000Y-85090000D03*
X119700000Y-85090000D03*
D16*
X116151800Y-88513920D03*
X122351800Y-88513920D03*
D17*
X118752400Y-97254200D03*
X119702400Y-97254200D03*
X120652400Y-97254200D03*
X120652400Y-95054200D03*
X118752400Y-95054200D03*
X119702400Y-95054200D03*
D18*
X113931700Y-94869000D03*
X110931700Y-94869000D03*
D19*
X113407700Y-92519500D03*
X111407700Y-92519500D03*
D20*
X129425700Y-96456500D03*
X129425700Y-92392500D03*
D21*
X117940000Y-85090000D03*
X115740000Y-85090000D03*
X134480000Y-97420000D03*
X134480000Y-99620000D03*
D12*
X124627640Y-97250000D03*
X124627640Y-95250000D03*
D22*
G36*
X123099391Y-94835553D02*
G01*
X123120626Y-94838703D01*
X123141450Y-94843919D01*
X123161662Y-94851151D01*
X123181068Y-94860330D01*
X123199481Y-94871366D01*
X123216724Y-94884154D01*
X123232630Y-94898570D01*
X123247046Y-94914476D01*
X123259834Y-94931719D01*
X123270870Y-94950132D01*
X123280049Y-94969538D01*
X123287281Y-94989750D01*
X123292497Y-95010574D01*
X123295647Y-95031809D01*
X123296700Y-95053250D01*
X123296700Y-95490750D01*
X123295647Y-95512191D01*
X123292497Y-95533426D01*
X123287281Y-95554250D01*
X123280049Y-95574462D01*
X123270870Y-95593868D01*
X123259834Y-95612281D01*
X123247046Y-95629524D01*
X123232630Y-95645430D01*
X123216724Y-95659846D01*
X123199481Y-95672634D01*
X123181068Y-95683670D01*
X123161662Y-95692849D01*
X123141450Y-95700081D01*
X123120626Y-95705297D01*
X123099391Y-95708447D01*
X123077950Y-95709500D01*
X122565450Y-95709500D01*
X122544009Y-95708447D01*
X122522774Y-95705297D01*
X122501950Y-95700081D01*
X122481738Y-95692849D01*
X122462332Y-95683670D01*
X122443919Y-95672634D01*
X122426676Y-95659846D01*
X122410770Y-95645430D01*
X122396354Y-95629524D01*
X122383566Y-95612281D01*
X122372530Y-95593868D01*
X122363351Y-95574462D01*
X122356119Y-95554250D01*
X122350903Y-95533426D01*
X122347753Y-95512191D01*
X122346700Y-95490750D01*
X122346700Y-95053250D01*
X122347753Y-95031809D01*
X122350903Y-95010574D01*
X122356119Y-94989750D01*
X122363351Y-94969538D01*
X122372530Y-94950132D01*
X122383566Y-94931719D01*
X122396354Y-94914476D01*
X122410770Y-94898570D01*
X122426676Y-94884154D01*
X122443919Y-94871366D01*
X122462332Y-94860330D01*
X122481738Y-94851151D01*
X122501950Y-94843919D01*
X122522774Y-94838703D01*
X122544009Y-94835553D01*
X122565450Y-94834500D01*
X123077950Y-94834500D01*
X123099391Y-94835553D01*
X123099391Y-94835553D01*
G37*
D23*
X122821700Y-95272000D03*
D22*
G36*
X123099391Y-96410553D02*
G01*
X123120626Y-96413703D01*
X123141450Y-96418919D01*
X123161662Y-96426151D01*
X123181068Y-96435330D01*
X123199481Y-96446366D01*
X123216724Y-96459154D01*
X123232630Y-96473570D01*
X123247046Y-96489476D01*
X123259834Y-96506719D01*
X123270870Y-96525132D01*
X123280049Y-96544538D01*
X123287281Y-96564750D01*
X123292497Y-96585574D01*
X123295647Y-96606809D01*
X123296700Y-96628250D01*
X123296700Y-97065750D01*
X123295647Y-97087191D01*
X123292497Y-97108426D01*
X123287281Y-97129250D01*
X123280049Y-97149462D01*
X123270870Y-97168868D01*
X123259834Y-97187281D01*
X123247046Y-97204524D01*
X123232630Y-97220430D01*
X123216724Y-97234846D01*
X123199481Y-97247634D01*
X123181068Y-97258670D01*
X123161662Y-97267849D01*
X123141450Y-97275081D01*
X123120626Y-97280297D01*
X123099391Y-97283447D01*
X123077950Y-97284500D01*
X122565450Y-97284500D01*
X122544009Y-97283447D01*
X122522774Y-97280297D01*
X122501950Y-97275081D01*
X122481738Y-97267849D01*
X122462332Y-97258670D01*
X122443919Y-97247634D01*
X122426676Y-97234846D01*
X122410770Y-97220430D01*
X122396354Y-97204524D01*
X122383566Y-97187281D01*
X122372530Y-97168868D01*
X122363351Y-97149462D01*
X122356119Y-97129250D01*
X122350903Y-97108426D01*
X122347753Y-97087191D01*
X122346700Y-97065750D01*
X122346700Y-96628250D01*
X122347753Y-96606809D01*
X122350903Y-96585574D01*
X122356119Y-96564750D01*
X122363351Y-96544538D01*
X122372530Y-96525132D01*
X122383566Y-96506719D01*
X122396354Y-96489476D01*
X122410770Y-96473570D01*
X122426676Y-96459154D01*
X122443919Y-96446366D01*
X122462332Y-96435330D01*
X122481738Y-96426151D01*
X122501950Y-96418919D01*
X122522774Y-96413703D01*
X122544009Y-96410553D01*
X122565450Y-96409500D01*
X123077950Y-96409500D01*
X123099391Y-96410553D01*
X123099391Y-96410553D01*
G37*
D23*
X122821700Y-96847000D03*
D19*
X124730000Y-87630000D03*
X126730000Y-87630000D03*
X125460000Y-85090000D03*
X123460000Y-85090000D03*
D12*
X142240000Y-106172000D03*
X142240000Y-104172000D03*
X139192000Y-92472000D03*
X139192000Y-94472000D03*
D19*
X143240000Y-90678000D03*
X141240000Y-90678000D03*
D24*
X138430000Y-99060000D03*
X138430000Y-102060000D03*
D21*
X146024600Y-116212800D03*
X146024600Y-114012800D03*
X148945600Y-114012800D03*
X148945600Y-116212800D03*
X151384000Y-114216000D03*
X151384000Y-116416000D03*
D25*
X154432000Y-91948000D03*
D26*
X151892000Y-91948000D03*
X154432000Y-89408000D03*
X151892000Y-89408000D03*
X154432000Y-86868000D03*
X151892000Y-86868000D03*
D27*
X140208000Y-104018000D03*
X140208000Y-105918000D03*
X131064000Y-85664000D03*
X131064000Y-87564000D03*
D15*
X140086000Y-107950000D03*
X141986000Y-107950000D03*
D27*
X136906000Y-83312000D03*
X136906000Y-81412000D03*
X146050000Y-110622000D03*
X146050000Y-112522000D03*
X148844000Y-110556000D03*
X148844000Y-112456000D03*
X151384000Y-112456000D03*
X151384000Y-110556000D03*
D28*
X138496000Y-88544400D03*
X138496000Y-87274400D03*
X138496000Y-86004400D03*
X138496000Y-84734400D03*
X133096000Y-84734400D03*
X133096000Y-86004400D03*
X133096000Y-87274400D03*
X133096000Y-88544400D03*
D29*
X152305103Y-99050695D03*
D22*
G36*
X152676334Y-98290555D02*
G01*
X153065243Y-98679464D01*
X151933872Y-99810835D01*
X151544963Y-99421926D01*
X152676334Y-98290555D01*
X152676334Y-98290555D01*
G37*
D29*
X151739417Y-98485010D03*
D22*
G36*
X152110648Y-97724870D02*
G01*
X152499557Y-98113779D01*
X151368186Y-99245150D01*
X150979277Y-98856241D01*
X152110648Y-97724870D01*
X152110648Y-97724870D01*
G37*
D29*
X151173732Y-97919324D03*
D22*
G36*
X151544963Y-97159184D02*
G01*
X151933872Y-97548093D01*
X150802501Y-98679464D01*
X150413592Y-98290555D01*
X151544963Y-97159184D01*
X151544963Y-97159184D01*
G37*
D29*
X150608047Y-97353639D03*
D22*
G36*
X150979278Y-96593499D02*
G01*
X151368187Y-96982408D01*
X150236816Y-98113779D01*
X149847907Y-97724870D01*
X150979278Y-96593499D01*
X150979278Y-96593499D01*
G37*
D29*
X150042361Y-96787953D03*
D22*
G36*
X150413592Y-96027813D02*
G01*
X150802501Y-96416722D01*
X149671130Y-97548093D01*
X149282221Y-97159184D01*
X150413592Y-96027813D01*
X150413592Y-96027813D01*
G37*
D29*
X149476676Y-96222268D03*
D22*
G36*
X149847907Y-95462128D02*
G01*
X150236816Y-95851037D01*
X149105445Y-96982408D01*
X148716536Y-96593499D01*
X149847907Y-95462128D01*
X149847907Y-95462128D01*
G37*
D29*
X148910990Y-95656583D03*
D22*
G36*
X149282221Y-94896443D02*
G01*
X149671130Y-95285352D01*
X148539759Y-96416723D01*
X148150850Y-96027814D01*
X149282221Y-94896443D01*
X149282221Y-94896443D01*
G37*
D29*
X148345305Y-95090897D03*
D22*
G36*
X148716536Y-94330757D02*
G01*
X149105445Y-94719666D01*
X147974074Y-95851037D01*
X147585165Y-95462128D01*
X148716536Y-94330757D01*
X148716536Y-94330757D01*
G37*
D29*
X146294695Y-95090897D03*
D22*
G36*
X145534555Y-94719666D02*
G01*
X145923464Y-94330757D01*
X147054835Y-95462128D01*
X146665926Y-95851037D01*
X145534555Y-94719666D01*
X145534555Y-94719666D01*
G37*
D29*
X145729010Y-95656583D03*
D22*
G36*
X144968870Y-95285352D02*
G01*
X145357779Y-94896443D01*
X146489150Y-96027814D01*
X146100241Y-96416723D01*
X144968870Y-95285352D01*
X144968870Y-95285352D01*
G37*
D29*
X145163324Y-96222268D03*
D22*
G36*
X144403184Y-95851037D02*
G01*
X144792093Y-95462128D01*
X145923464Y-96593499D01*
X145534555Y-96982408D01*
X144403184Y-95851037D01*
X144403184Y-95851037D01*
G37*
D29*
X144597639Y-96787953D03*
D22*
G36*
X143837499Y-96416722D02*
G01*
X144226408Y-96027813D01*
X145357779Y-97159184D01*
X144968870Y-97548093D01*
X143837499Y-96416722D01*
X143837499Y-96416722D01*
G37*
D29*
X144031953Y-97353639D03*
D22*
G36*
X143271813Y-96982408D02*
G01*
X143660722Y-96593499D01*
X144792093Y-97724870D01*
X144403184Y-98113779D01*
X143271813Y-96982408D01*
X143271813Y-96982408D01*
G37*
D29*
X143466268Y-97919324D03*
D22*
G36*
X142706128Y-97548093D02*
G01*
X143095037Y-97159184D01*
X144226408Y-98290555D01*
X143837499Y-98679464D01*
X142706128Y-97548093D01*
X142706128Y-97548093D01*
G37*
D29*
X142900583Y-98485010D03*
D22*
G36*
X142140443Y-98113779D02*
G01*
X142529352Y-97724870D01*
X143660723Y-98856241D01*
X143271814Y-99245150D01*
X142140443Y-98113779D01*
X142140443Y-98113779D01*
G37*
D29*
X142334897Y-99050695D03*
D22*
G36*
X141574757Y-98679464D02*
G01*
X141963666Y-98290555D01*
X143095037Y-99421926D01*
X142706128Y-99810835D01*
X141574757Y-98679464D01*
X141574757Y-98679464D01*
G37*
D29*
X142334897Y-101101305D03*
D22*
G36*
X142706128Y-100341165D02*
G01*
X143095037Y-100730074D01*
X141963666Y-101861445D01*
X141574757Y-101472536D01*
X142706128Y-100341165D01*
X142706128Y-100341165D01*
G37*
D29*
X142900583Y-101666990D03*
D22*
G36*
X143271814Y-100906850D02*
G01*
X143660723Y-101295759D01*
X142529352Y-102427130D01*
X142140443Y-102038221D01*
X143271814Y-100906850D01*
X143271814Y-100906850D01*
G37*
D29*
X143466268Y-102232676D03*
D22*
G36*
X143837499Y-101472536D02*
G01*
X144226408Y-101861445D01*
X143095037Y-102992816D01*
X142706128Y-102603907D01*
X143837499Y-101472536D01*
X143837499Y-101472536D01*
G37*
D29*
X144031953Y-102798361D03*
D22*
G36*
X144403184Y-102038221D02*
G01*
X144792093Y-102427130D01*
X143660722Y-103558501D01*
X143271813Y-103169592D01*
X144403184Y-102038221D01*
X144403184Y-102038221D01*
G37*
D29*
X144597639Y-103364047D03*
D22*
G36*
X144968870Y-102603907D02*
G01*
X145357779Y-102992816D01*
X144226408Y-104124187D01*
X143837499Y-103735278D01*
X144968870Y-102603907D01*
X144968870Y-102603907D01*
G37*
D29*
X145163324Y-103929732D03*
D22*
G36*
X145534555Y-103169592D02*
G01*
X145923464Y-103558501D01*
X144792093Y-104689872D01*
X144403184Y-104300963D01*
X145534555Y-103169592D01*
X145534555Y-103169592D01*
G37*
D29*
X145729010Y-104495417D03*
D22*
G36*
X146100241Y-103735277D02*
G01*
X146489150Y-104124186D01*
X145357779Y-105255557D01*
X144968870Y-104866648D01*
X146100241Y-103735277D01*
X146100241Y-103735277D01*
G37*
D29*
X146294695Y-105061103D03*
D22*
G36*
X146665926Y-104300963D02*
G01*
X147054835Y-104689872D01*
X145923464Y-105821243D01*
X145534555Y-105432334D01*
X146665926Y-104300963D01*
X146665926Y-104300963D01*
G37*
D29*
X148345305Y-105061103D03*
D22*
G36*
X147585165Y-104689872D02*
G01*
X147974074Y-104300963D01*
X149105445Y-105432334D01*
X148716536Y-105821243D01*
X147585165Y-104689872D01*
X147585165Y-104689872D01*
G37*
D29*
X148910990Y-104495417D03*
D22*
G36*
X148150850Y-104124186D02*
G01*
X148539759Y-103735277D01*
X149671130Y-104866648D01*
X149282221Y-105255557D01*
X148150850Y-104124186D01*
X148150850Y-104124186D01*
G37*
D29*
X149476676Y-103929732D03*
D22*
G36*
X148716536Y-103558501D02*
G01*
X149105445Y-103169592D01*
X150236816Y-104300963D01*
X149847907Y-104689872D01*
X148716536Y-103558501D01*
X148716536Y-103558501D01*
G37*
D29*
X150042361Y-103364047D03*
D22*
G36*
X149282221Y-102992816D02*
G01*
X149671130Y-102603907D01*
X150802501Y-103735278D01*
X150413592Y-104124187D01*
X149282221Y-102992816D01*
X149282221Y-102992816D01*
G37*
D29*
X150608047Y-102798361D03*
D22*
G36*
X149847907Y-102427130D02*
G01*
X150236816Y-102038221D01*
X151368187Y-103169592D01*
X150979278Y-103558501D01*
X149847907Y-102427130D01*
X149847907Y-102427130D01*
G37*
D29*
X151173732Y-102232676D03*
D22*
G36*
X150413592Y-101861445D02*
G01*
X150802501Y-101472536D01*
X151933872Y-102603907D01*
X151544963Y-102992816D01*
X150413592Y-101861445D01*
X150413592Y-101861445D01*
G37*
D29*
X151739417Y-101666990D03*
D22*
G36*
X150979277Y-101295759D02*
G01*
X151368186Y-100906850D01*
X152499557Y-102038221D01*
X152110648Y-102427130D01*
X150979277Y-101295759D01*
X150979277Y-101295759D01*
G37*
D29*
X152305103Y-101101305D03*
D22*
G36*
X151544963Y-100730074D02*
G01*
X151933872Y-100341165D01*
X153065243Y-101472536D01*
X152676334Y-101861445D01*
X151544963Y-100730074D01*
X151544963Y-100730074D01*
G37*
D30*
X141394000Y-94272000D03*
X143594000Y-94272000D03*
X143594000Y-92672000D03*
X141394000Y-92672000D03*
D27*
X134366000Y-93792000D03*
X134366000Y-95692000D03*
D31*
X103360220Y-89720420D03*
X103395780Y-93055440D03*
X103360220Y-84884260D03*
X103360220Y-86984840D03*
X122674380Y-101914960D03*
X125503940Y-101927660D03*
X128473200Y-101889560D03*
X131627880Y-101889560D03*
X131691380Y-100091240D03*
X131704080Y-97210880D03*
X106225340Y-83820000D03*
D32*
X139192000Y-90678000D03*
X139954000Y-88646000D03*
X144272000Y-116332000D03*
X143256000Y-104648000D03*
X125730000Y-88900000D03*
X149225000Y-97536000D03*
X134213600Y-88544400D03*
X139954000Y-102108000D03*
X114554000Y-85090000D03*
X124206000Y-83566000D03*
X127635000Y-83312000D03*
X138049000Y-83947000D03*
X135890000Y-83947000D03*
X130896599Y-83068612D03*
X129540000Y-83058000D03*
X130073400Y-89408000D03*
X128778000Y-89408000D03*
X151384000Y-108712000D03*
X147066000Y-108712000D03*
D33*
X103360220Y-84884260D02*
X103258620Y-84782660D01*
D34*
X128435100Y-101927660D02*
X128473200Y-101889560D01*
X131627880Y-100154740D02*
X131691380Y-100091240D01*
X130180080Y-97210880D02*
X129425700Y-96456500D01*
D35*
X129616200Y-96456500D02*
X129425700Y-96456500D01*
D36*
X104561640Y-88519000D02*
X103360220Y-89720420D01*
X108270700Y-88519000D02*
X104561640Y-88519000D01*
X123124880Y-96756320D02*
X122821700Y-97059500D01*
X124627640Y-96756320D02*
X123124880Y-96756320D01*
X122696700Y-97059500D02*
X122821700Y-97059500D01*
X121871780Y-97884420D02*
X122696700Y-97059500D01*
X121871780Y-99156520D02*
X121871780Y-97884420D01*
X121871780Y-101112360D02*
X122674380Y-101914960D01*
X121871780Y-99156520D02*
X121871780Y-101112360D01*
X132162620Y-99620000D02*
X131691380Y-100091240D01*
X134480000Y-99620000D02*
X132162620Y-99620000D01*
X110931700Y-92995500D02*
X111407700Y-92519500D01*
X110931700Y-94869000D02*
X110931700Y-92995500D01*
X108270700Y-89257500D02*
X108270700Y-88519000D01*
X111407700Y-92394500D02*
X108270700Y-89257500D01*
X111407700Y-92519500D02*
X111407700Y-92394500D01*
X119702400Y-96470200D02*
X119702400Y-97254200D01*
X119727801Y-96444799D02*
X119702400Y-96470200D01*
X121327999Y-96444799D02*
X119727801Y-96444799D01*
X121942700Y-97059500D02*
X121327999Y-96444799D01*
X122821700Y-97059500D02*
X121942700Y-97059500D01*
X130949700Y-96456500D02*
X131704080Y-97210880D01*
X129425700Y-96456500D02*
X130949700Y-96456500D01*
D35*
X139192000Y-92472000D02*
X139192000Y-90678000D01*
X141394000Y-90832000D02*
X141240000Y-90678000D01*
X141394000Y-92672000D02*
X141394000Y-90832000D01*
D36*
X143094000Y-94272000D02*
X141494000Y-92672000D01*
X141494000Y-92672000D02*
X141394000Y-92672000D01*
X143594000Y-94272000D02*
X143094000Y-94272000D01*
X139954000Y-88424478D02*
X139954000Y-88646000D01*
X139954000Y-88257400D02*
X139954000Y-88424478D01*
X138496000Y-87274400D02*
X138971000Y-87274400D01*
X138971000Y-87274400D02*
X139954000Y-88257400D01*
X132994400Y-88646000D02*
X133096000Y-88544400D01*
X151442600Y-116357400D02*
X151384000Y-116416000D01*
X149148800Y-116416000D02*
X148945600Y-116212800D01*
X151384000Y-116416000D02*
X149148800Y-116416000D01*
X148945600Y-116212800D02*
X146024600Y-116212800D01*
X146024600Y-116212800D02*
X144391200Y-116212800D01*
X144391200Y-116212800D02*
X144272000Y-116332000D01*
X142658314Y-104172000D02*
X142240000Y-104172000D01*
X144031953Y-102798361D02*
X142658314Y-104172000D01*
X142240000Y-104172000D02*
X142780000Y-104172000D01*
X142780000Y-104172000D02*
X143256000Y-104648000D01*
X125976000Y-86751000D02*
X126730000Y-87505000D01*
X125851000Y-86751000D02*
X125976000Y-86751000D01*
X126730000Y-87505000D02*
X126730000Y-87630000D01*
X125460000Y-86360000D02*
X125851000Y-86751000D01*
X125460000Y-85090000D02*
X125460000Y-86360000D01*
X126730000Y-87630000D02*
X126730000Y-87900000D01*
X126730000Y-87900000D02*
X125730000Y-88900000D01*
X141240000Y-90678000D02*
X139192000Y-90678000D01*
X150042361Y-96787953D02*
X149973047Y-96787953D01*
X149973047Y-96787953D02*
X149225000Y-97536000D01*
X133096000Y-88544400D02*
X134213600Y-88544400D01*
X138430000Y-102060000D02*
X139906000Y-102060000D01*
X139906000Y-102060000D02*
X139954000Y-102108000D01*
X115740000Y-85090000D02*
X114554000Y-85090000D01*
D34*
X129473340Y-92344860D02*
X129425700Y-92392500D01*
X129593340Y-92224860D02*
X129425700Y-92392500D01*
X129425700Y-92392500D02*
X125859200Y-92392500D01*
X124891800Y-82779578D02*
X124384778Y-82779578D01*
X129425700Y-92392500D02*
X129425700Y-87313478D01*
X124384778Y-82779578D02*
X123621800Y-82016600D01*
X129425700Y-87313478D02*
X124891800Y-82779578D01*
D36*
X140208000Y-107828000D02*
X140086000Y-107950000D01*
X140208000Y-105918000D02*
X140208000Y-107828000D01*
X138971000Y-86004400D02*
X138496000Y-86004400D01*
X123971080Y-88513920D02*
X124730000Y-87755000D01*
X124730000Y-87755000D02*
X124730000Y-87630000D01*
X122351800Y-88513920D02*
X123971080Y-88513920D01*
X123460000Y-87114000D02*
X123976000Y-87630000D01*
X123976000Y-87630000D02*
X124730000Y-87630000D01*
X123460000Y-85090000D02*
X123460000Y-87114000D01*
X121600000Y-85090000D02*
X123460000Y-85090000D01*
X123460000Y-85090000D02*
X123460000Y-84312000D01*
X123460000Y-84312000D02*
X124206000Y-83566000D01*
X127635000Y-83083400D02*
X128701800Y-82016600D01*
X127635000Y-83312000D02*
X127635000Y-83083400D01*
X151192001Y-91248001D02*
X151892000Y-91948000D01*
X144098999Y-84154999D02*
X151192001Y-91248001D01*
X137565923Y-84154999D02*
X144098999Y-84154999D01*
X137414000Y-85397400D02*
X137414000Y-84306922D01*
X138021000Y-86004400D02*
X137414000Y-85397400D01*
X138496000Y-86004400D02*
X138021000Y-86004400D01*
X137414000Y-84306922D02*
X137773922Y-83947000D01*
X137773922Y-83947000D02*
X138049000Y-83947000D01*
X135890000Y-83947000D02*
X131774987Y-83947000D01*
X131774987Y-83947000D02*
X130896599Y-83068612D01*
X129540000Y-82854800D02*
X128701800Y-82016600D01*
X129540000Y-83058000D02*
X129540000Y-82854800D01*
X151892000Y-96069686D02*
X150608047Y-97353639D01*
X151892000Y-91948000D02*
X151892000Y-96069686D01*
X140086000Y-107650000D02*
X135890000Y-103454000D01*
X140086000Y-107950000D02*
X140086000Y-107650000D01*
X135890000Y-103454000D02*
X135890000Y-91186000D01*
X135851901Y-91224099D02*
X131864099Y-91224099D01*
X135890000Y-91186000D02*
X135851901Y-91224099D01*
X131864099Y-91224099D02*
X130073400Y-89433400D01*
X130073400Y-89433400D02*
X130073400Y-89408000D01*
X124730000Y-88764618D02*
X124730000Y-88509000D01*
X125678181Y-89712799D02*
X124730000Y-88764618D01*
X128473201Y-89712799D02*
X125678181Y-89712799D01*
X124730000Y-88509000D02*
X124730000Y-87630000D01*
X128778000Y-89408000D02*
X128473201Y-89712799D01*
D34*
X120652400Y-95054200D02*
X119702400Y-95054200D01*
D36*
X122943520Y-95181320D02*
X122821700Y-95059500D01*
X124627640Y-95181320D02*
X122943520Y-95181320D01*
X120657700Y-95059500D02*
X120652400Y-95054200D01*
X122821700Y-95059500D02*
X120657700Y-95059500D01*
X122959200Y-94922000D02*
X122821700Y-95059500D01*
X122959200Y-92392500D02*
X122959200Y-94922000D01*
X134480000Y-93770000D02*
X134180000Y-93770000D01*
X125202640Y-95181320D02*
X124627640Y-95181320D01*
X134180000Y-93770000D02*
X132768680Y-95181320D01*
X132768680Y-95181320D02*
X125202640Y-95181320D01*
D33*
X118752400Y-92702560D02*
X118503300Y-92453460D01*
D36*
X116493000Y-95054200D02*
X116408200Y-95139000D01*
X118752400Y-95054200D02*
X116493000Y-95054200D01*
X118503300Y-92453460D02*
X118503300Y-94805100D01*
X118503300Y-94805100D02*
X118752400Y-95054200D01*
X116523400Y-97254200D02*
X116408200Y-97139000D01*
X118752400Y-97254200D02*
X116523400Y-97254200D01*
D33*
X116085580Y-99141280D02*
X116085580Y-99441280D01*
X116146720Y-88519000D02*
X116151800Y-88513920D01*
X113497360Y-92453460D02*
X113408460Y-92542360D01*
X113408460Y-88661240D02*
X113550700Y-88519000D01*
D36*
X113555780Y-88513920D02*
X113550700Y-88519000D01*
X116151800Y-88513920D02*
X113555780Y-88513920D01*
X113407700Y-88662000D02*
X113550700Y-88519000D01*
X113407700Y-92519500D02*
X113407700Y-88662000D01*
X113473740Y-92453460D02*
X113407700Y-92519500D01*
X115303300Y-92453460D02*
X113473740Y-92453460D01*
X113931700Y-93043500D02*
X113407700Y-92519500D01*
X113931700Y-94869000D02*
X113931700Y-93043500D01*
X115481580Y-99141280D02*
X116085580Y-99141280D01*
X113931700Y-94869000D02*
X113931700Y-97591400D01*
X134480000Y-97420000D02*
X134480000Y-95670000D01*
X119700000Y-85090000D02*
X117940000Y-85090000D01*
X118000820Y-99156520D02*
X117985580Y-99141280D01*
X119971780Y-99156520D02*
X118000820Y-99156520D01*
X120652400Y-98475900D02*
X120652400Y-97254200D01*
X119971780Y-99156520D02*
X120652400Y-98475900D01*
X142240000Y-105750000D02*
X142240000Y-106172000D01*
X140508000Y-104018000D02*
X142240000Y-105750000D01*
X140508000Y-104018000D02*
X140208000Y-104018000D01*
X141656000Y-102870000D02*
X140508000Y-104018000D01*
X142828944Y-102870000D02*
X141656000Y-102870000D01*
X143466268Y-102232676D02*
X142828944Y-102870000D01*
X141494000Y-94272000D02*
X141394000Y-94272000D01*
X142807873Y-95585873D02*
X141494000Y-94272000D01*
X144526929Y-95585873D02*
X142807873Y-95585873D01*
X145163324Y-96222268D02*
X144526929Y-95585873D01*
X139392000Y-94272000D02*
X139192000Y-94472000D01*
X141394000Y-94272000D02*
X139392000Y-94272000D01*
X145092615Y-94070615D02*
X143694000Y-92672000D01*
X143694000Y-92672000D02*
X143594000Y-92672000D01*
X145092615Y-95020188D02*
X145092615Y-94070615D01*
X145729010Y-95656583D02*
X145092615Y-95020188D01*
X143594000Y-91032000D02*
X143240000Y-90678000D01*
X143594000Y-92672000D02*
X143594000Y-91032000D01*
X136906000Y-83916000D02*
X136906000Y-83312000D01*
X136906000Y-96782000D02*
X136906000Y-83916000D01*
X138430000Y-98306000D02*
X136906000Y-96782000D01*
X138430000Y-99060000D02*
X138430000Y-98306000D01*
X140293592Y-99060000D02*
X142334897Y-101101305D01*
X138430000Y-99060000D02*
X140293592Y-99060000D01*
X146024600Y-112547400D02*
X146050000Y-112522000D01*
X146024600Y-114012800D02*
X146024600Y-112547400D01*
X148945600Y-112557600D02*
X148844000Y-112456000D01*
X148945600Y-114012800D02*
X148945600Y-112557600D01*
X151384000Y-114216000D02*
X151384000Y-112456000D01*
X154432000Y-96923798D02*
X152305103Y-99050695D01*
X154432000Y-91948000D02*
X154432000Y-96923798D01*
D35*
X145234034Y-97424348D02*
X144597639Y-96787953D01*
X147849131Y-100039445D02*
X145234034Y-97424348D01*
X152101677Y-100039445D02*
X147849131Y-100039445D01*
X155360601Y-96780521D02*
X152101677Y-100039445D01*
X155360601Y-90336601D02*
X155360601Y-96780521D01*
X154432000Y-89408000D02*
X155360601Y-90336601D01*
D36*
X152375812Y-97848615D02*
X151739417Y-98485010D01*
X152871401Y-97353026D02*
X152375812Y-97848615D01*
X152871401Y-91477887D02*
X152871401Y-97353026D01*
X151892000Y-90498486D02*
X152871401Y-91477887D01*
X151892000Y-89408000D02*
X151892000Y-90498486D01*
X152375812Y-102303385D02*
X151739417Y-101666990D01*
X152629541Y-102303385D02*
X152375812Y-102303385D01*
X155831107Y-99101819D02*
X152629541Y-102303385D01*
X155831107Y-88267107D02*
X155831107Y-99101819D01*
X154432000Y-86868000D02*
X155831107Y-88267107D01*
X152629541Y-102303385D02*
X152629541Y-107466459D01*
X152629541Y-107466459D02*
X151384000Y-108712000D01*
X142590000Y-108854000D02*
X141986000Y-108250000D01*
X142606000Y-108854000D02*
X142590000Y-108854000D01*
X142748000Y-108712000D02*
X142606000Y-108854000D01*
X141986000Y-108250000D02*
X141986000Y-107950000D01*
X147066000Y-108712000D02*
X142748000Y-108712000D01*
X132806400Y-87564000D02*
X133096000Y-87274400D01*
X131064000Y-87564000D02*
X132806400Y-87564000D01*
X130134599Y-86934599D02*
X130764000Y-87564000D01*
X130764000Y-87564000D02*
X131064000Y-87564000D01*
X126161800Y-82016600D02*
X126811799Y-82666599D01*
X126811799Y-83611799D02*
X130764000Y-87564000D01*
X126811799Y-82666599D02*
X126811799Y-83611799D01*
X131404400Y-86004400D02*
X131064000Y-85664000D01*
X133096000Y-86004400D02*
X131404400Y-86004400D01*
X130312399Y-84308399D02*
X131064000Y-85060000D01*
X130312399Y-82052399D02*
X130312399Y-84308399D01*
X128386599Y-80126599D02*
X130312399Y-82052399D01*
X128081799Y-80126599D02*
X128386599Y-80126599D01*
X131064000Y-85060000D02*
X131064000Y-85664000D01*
X127431800Y-79476600D02*
X128081799Y-80126599D01*
X135108000Y-80518000D02*
X136002000Y-81412000D01*
X131013200Y-80518000D02*
X135108000Y-80518000D01*
X136002000Y-81412000D02*
X136906000Y-81412000D01*
X129971800Y-79476600D02*
X131013200Y-80518000D01*
X149547385Y-105131812D02*
X149547385Y-107424615D01*
X146350000Y-110622000D02*
X146050000Y-110622000D01*
X149547385Y-107424615D02*
X146350000Y-110622000D01*
X148910990Y-104495417D02*
X149547385Y-105131812D01*
X150113071Y-108682929D02*
X148844000Y-109952000D01*
X150113071Y-104566127D02*
X150113071Y-108682929D01*
X148844000Y-109952000D02*
X148844000Y-110556000D01*
X149476676Y-103929732D02*
X150113071Y-104566127D01*
X151384000Y-109952000D02*
X151384000Y-110556000D01*
X150678756Y-109246756D02*
X151384000Y-109952000D01*
X150678756Y-104000442D02*
X150678756Y-109246756D01*
X150042361Y-103364047D02*
X150678756Y-104000442D01*
D35*
X148840281Y-96858663D02*
X149476676Y-96222268D01*
X148696345Y-97002599D02*
X148840281Y-96858663D01*
X147902165Y-97002599D02*
X148696345Y-97002599D01*
X147283445Y-94649963D02*
X147283445Y-96383879D01*
X147283445Y-96383879D02*
X147902165Y-97002599D01*
X143968601Y-91335119D02*
X147283445Y-94649963D01*
X143968601Y-89870119D02*
X143968601Y-91335119D01*
X143922881Y-89824399D02*
X143968601Y-89870119D01*
X140250999Y-89824399D02*
X143922881Y-89824399D01*
X138971000Y-88544400D02*
X140250999Y-89824399D01*
X138496000Y-88544400D02*
X138971000Y-88544400D01*
X139423400Y-84734400D02*
X138496000Y-84734400D01*
X139443484Y-84734400D02*
X139423400Y-84734400D01*
X149547385Y-95020188D02*
X149547385Y-94838301D01*
X149547385Y-94838301D02*
X139443484Y-84734400D01*
X148910990Y-95656583D02*
X149547385Y-95020188D01*
G36*
X118753800Y-87501564D02*
G01*
X118753800Y-90088436D01*
X118123436Y-90718800D01*
X117355000Y-90718800D01*
X117340134Y-90720264D01*
X117325840Y-90724600D01*
X117312666Y-90731642D01*
X117301118Y-90741118D01*
X116901118Y-91141118D01*
X116891642Y-91152666D01*
X116884600Y-91165840D01*
X116880264Y-91180134D01*
X116878800Y-91195000D01*
X116878800Y-93538436D01*
X116573436Y-93843800D01*
X115205000Y-93843800D01*
X115190134Y-93845264D01*
X115175840Y-93849600D01*
X115162666Y-93856642D01*
X115151118Y-93866118D01*
X114901118Y-94116118D01*
X114891642Y-94127666D01*
X114884600Y-94140840D01*
X114880264Y-94155134D01*
X114878800Y-94170000D01*
X114878800Y-97920000D01*
X114880264Y-97934866D01*
X114884600Y-97949160D01*
X114891642Y-97962334D01*
X114901118Y-97973882D01*
X115101118Y-98173882D01*
X115112666Y-98183358D01*
X115125840Y-98190400D01*
X115140134Y-98194736D01*
X115155000Y-98196200D01*
X116648436Y-98196200D01*
X117028800Y-98576564D01*
X117028800Y-100038436D01*
X116623436Y-100443800D01*
X113311564Y-100443800D01*
X112831200Y-99963436D01*
X112831200Y-91220000D01*
X112829736Y-91205134D01*
X112825400Y-91190840D01*
X112818358Y-91177666D01*
X112808882Y-91166118D01*
X112081200Y-90438436D01*
X112081200Y-86821200D01*
X114405000Y-86821200D01*
X114419866Y-86819736D01*
X114434160Y-86815400D01*
X114447268Y-86808402D01*
X114503071Y-86771200D01*
X118023436Y-86771200D01*
X118753800Y-87501564D01*
X118753800Y-87501564D01*
G37*
X118753800Y-87501564D02*
X118753800Y-90088436D01*
X118123436Y-90718800D01*
X117355000Y-90718800D01*
X117340134Y-90720264D01*
X117325840Y-90724600D01*
X117312666Y-90731642D01*
X117301118Y-90741118D01*
X116901118Y-91141118D01*
X116891642Y-91152666D01*
X116884600Y-91165840D01*
X116880264Y-91180134D01*
X116878800Y-91195000D01*
X116878800Y-93538436D01*
X116573436Y-93843800D01*
X115205000Y-93843800D01*
X115190134Y-93845264D01*
X115175840Y-93849600D01*
X115162666Y-93856642D01*
X115151118Y-93866118D01*
X114901118Y-94116118D01*
X114891642Y-94127666D01*
X114884600Y-94140840D01*
X114880264Y-94155134D01*
X114878800Y-94170000D01*
X114878800Y-97920000D01*
X114880264Y-97934866D01*
X114884600Y-97949160D01*
X114891642Y-97962334D01*
X114901118Y-97973882D01*
X115101118Y-98173882D01*
X115112666Y-98183358D01*
X115125840Y-98190400D01*
X115140134Y-98194736D01*
X115155000Y-98196200D01*
X116648436Y-98196200D01*
X117028800Y-98576564D01*
X117028800Y-100038436D01*
X116623436Y-100443800D01*
X113311564Y-100443800D01*
X112831200Y-99963436D01*
X112831200Y-91220000D01*
X112829736Y-91205134D01*
X112825400Y-91190840D01*
X112818358Y-91177666D01*
X112808882Y-91166118D01*
X112081200Y-90438436D01*
X112081200Y-86821200D01*
X114405000Y-86821200D01*
X114419866Y-86819736D01*
X114434160Y-86815400D01*
X114447268Y-86808402D01*
X114503071Y-86771200D01*
X118023436Y-86771200D01*
X118753800Y-87501564D01*
G36*
X110203800Y-83551564D02*
G01*
X110203800Y-89520000D01*
X110205264Y-89534866D01*
X110209600Y-89549160D01*
X110216642Y-89562334D01*
X110226118Y-89573882D01*
X112353800Y-91701564D01*
X112353800Y-95643800D01*
X102586564Y-95643800D01*
X100581200Y-93638436D01*
X100581200Y-83851564D01*
X102411564Y-82021200D01*
X108673436Y-82021200D01*
X110203800Y-83551564D01*
X110203800Y-83551564D01*
G37*
X110203800Y-83551564D02*
X110203800Y-89520000D01*
X110205264Y-89534866D01*
X110209600Y-89549160D01*
X110216642Y-89562334D01*
X110226118Y-89573882D01*
X112353800Y-91701564D01*
X112353800Y-95643800D01*
X102586564Y-95643800D01*
X100581200Y-93638436D01*
X100581200Y-83851564D01*
X102411564Y-82021200D01*
X108673436Y-82021200D01*
X110203800Y-83551564D01*
G36*
X132603800Y-95726564D02*
G01*
X132603800Y-102613436D01*
X131898436Y-103318800D01*
X122361564Y-103318800D01*
X121331200Y-102288436D01*
X121331200Y-96570000D01*
X121329736Y-96555134D01*
X121325400Y-96540840D01*
X121318358Y-96527666D01*
X121308882Y-96516118D01*
X120888964Y-96096200D01*
X126405000Y-96096200D01*
X126419866Y-96094736D01*
X126434160Y-96090400D01*
X126447334Y-96083358D01*
X126458882Y-96073882D01*
X126995844Y-95536920D01*
X132414156Y-95536920D01*
X132603800Y-95726564D01*
X132603800Y-95726564D01*
G37*
X132603800Y-95726564D02*
X132603800Y-102613436D01*
X131898436Y-103318800D01*
X122361564Y-103318800D01*
X121331200Y-102288436D01*
X121331200Y-96570000D01*
X121329736Y-96555134D01*
X121325400Y-96540840D01*
X121318358Y-96527666D01*
X121308882Y-96516118D01*
X120888964Y-96096200D01*
X126405000Y-96096200D01*
X126419866Y-96094736D01*
X126434160Y-96090400D01*
X126447334Y-96083358D01*
X126458882Y-96073882D01*
X126995844Y-95536920D01*
X132414156Y-95536920D01*
X132603800Y-95726564D01*
G36*
X120003800Y-97768800D02*
G01*
X119406200Y-97768800D01*
X119406200Y-96251564D01*
X119561564Y-96096200D01*
X120003800Y-96096200D01*
X120003800Y-97768800D01*
X120003800Y-97768800D01*
G37*
X120003800Y-97768800D02*
X119406200Y-97768800D01*
X119406200Y-96251564D01*
X119561564Y-96096200D01*
X120003800Y-96096200D01*
X120003800Y-97768800D01*
G36*
X120953800Y-96176564D02*
G01*
X120953800Y-96243800D01*
X120156200Y-96243800D01*
X120156200Y-96120000D01*
X120154736Y-96105134D01*
X120152026Y-96096200D01*
X120873436Y-96096200D01*
X120953800Y-96176564D01*
X120953800Y-96176564D01*
G37*
X120953800Y-96176564D02*
X120953800Y-96243800D01*
X120156200Y-96243800D01*
X120156200Y-96120000D01*
X120154736Y-96105134D01*
X120152026Y-96096200D01*
X120873436Y-96096200D01*
X120953800Y-96176564D01*
G36*
X120953800Y-96318800D02*
G01*
X120061564Y-96318800D01*
X119937764Y-96195000D01*
X120036564Y-96096200D01*
X120953800Y-96096200D01*
X120953800Y-96318800D01*
X120953800Y-96318800D01*
G37*
X120953800Y-96318800D02*
X120061564Y-96318800D01*
X119937764Y-96195000D01*
X120036564Y-96096200D01*
X120953800Y-96096200D01*
X120953800Y-96318800D01*
G36*
X119053800Y-96551564D02*
G01*
X119053800Y-97768800D01*
X115461564Y-97768800D01*
X115331200Y-97638436D01*
X115331200Y-96601564D01*
X115486564Y-96446200D01*
X118948436Y-96446200D01*
X119053800Y-96551564D01*
X119053800Y-96551564D01*
G37*
X119053800Y-96551564D02*
X119053800Y-97768800D01*
X115461564Y-97768800D01*
X115331200Y-97638436D01*
X115331200Y-96601564D01*
X115486564Y-96446200D01*
X118948436Y-96446200D01*
X119053800Y-96551564D01*
D36*
G36*
X119053000Y-91462333D02*
G01*
X119053000Y-95518000D01*
X115557000Y-95518000D01*
X115557000Y-94472606D01*
X115732606Y-94297000D01*
X117230000Y-94297000D01*
X117254776Y-94294560D01*
X117278601Y-94287333D01*
X117300557Y-94275597D01*
X117319803Y-94259803D01*
X117644803Y-93934803D01*
X117660597Y-93915557D01*
X117672333Y-93893601D01*
X117679560Y-93869776D01*
X117682000Y-93845000D01*
X117682000Y-91572606D01*
X117807606Y-91447000D01*
X119041500Y-91447000D01*
X119053000Y-91462333D01*
X119053000Y-91462333D01*
G37*
X119053000Y-91462333D02*
X119053000Y-95518000D01*
X115557000Y-95518000D01*
X115557000Y-94472606D01*
X115732606Y-94297000D01*
X117230000Y-94297000D01*
X117254776Y-94294560D01*
X117278601Y-94287333D01*
X117300557Y-94275597D01*
X117319803Y-94259803D01*
X117644803Y-93934803D01*
X117660597Y-93915557D01*
X117672333Y-93893601D01*
X117679560Y-93869776D01*
X117682000Y-93845000D01*
X117682000Y-91572606D01*
X117807606Y-91447000D01*
X119041500Y-91447000D01*
X119053000Y-91462333D01*
M02*
