G04 #@! TF.GenerationSoftware,KiCad,Pcbnew,5.1.4*
G04 #@! TF.CreationDate,2019-12-12T21:33:50-05:00*
G04 #@! TF.ProjectId,Suspension_Travel,53757370-656e-4736-996f-6e5f54726176,rev?*
G04 #@! TF.SameCoordinates,Original*
G04 #@! TF.FileFunction,Paste,Top*
G04 #@! TF.FilePolarity,Positive*
%FSLAX46Y46*%
G04 Gerber Fmt 4.6, Leading zero omitted, Abs format (unit mm)*
G04 Created by KiCad (PCBNEW 5.1.4) date 2019-12-12 21:33:50*
%MOMM*%
%LPD*%
G04 APERTURE LIST*
%ADD10R,1.780000X3.500000*%
%ADD11R,1.250000X1.000000*%
%ADD12R,0.900000X2.500000*%
%ADD13R,1.200000X2.000000*%
%ADD14R,0.700000X1.300000*%
%ADD15R,1.000000X3.200000*%
%ADD16R,0.650000X1.060000*%
%ADD17R,1.000000X1.600000*%
%ADD18R,1.000000X1.250000*%
%ADD19R,2.159000X1.778000*%
%ADD20R,1.200000X1.200000*%
%ADD21C,0.100000*%
%ADD22C,0.875000*%
%ADD23R,1.600000X1.000000*%
%ADD24R,1.300000X0.700000*%
%ADD25R,1.550000X0.600000*%
%ADD26C,0.550000*%
G04 APERTURE END LIST*
D10*
X113550700Y-88519000D03*
X108270700Y-88519000D03*
D11*
X116408200Y-95139000D03*
X116408200Y-97139000D03*
D12*
X125859200Y-92392500D03*
X122959200Y-92392500D03*
D13*
X118503300Y-92453460D03*
X115303300Y-92453460D03*
D14*
X116085580Y-99141280D03*
X117985580Y-99141280D03*
X121871780Y-99156520D03*
X119971780Y-99156520D03*
X121600000Y-85090000D03*
X119700000Y-85090000D03*
D15*
X116151800Y-88513920D03*
X122351800Y-88513920D03*
D16*
X118752400Y-97254200D03*
X119702400Y-97254200D03*
X120652400Y-97254200D03*
X120652400Y-95054200D03*
X118752400Y-95054200D03*
X119702400Y-95054200D03*
D17*
X113931700Y-94869000D03*
X110931700Y-94869000D03*
D18*
X113407700Y-92519500D03*
X111407700Y-92519500D03*
D19*
X129425700Y-96456500D03*
X129425700Y-92392500D03*
D20*
X117940000Y-85090000D03*
X115740000Y-85090000D03*
X134480000Y-97420000D03*
X134480000Y-99620000D03*
D11*
X124627640Y-97250000D03*
X124627640Y-95250000D03*
D21*
G36*
X123099391Y-94835553D02*
G01*
X123120626Y-94838703D01*
X123141450Y-94843919D01*
X123161662Y-94851151D01*
X123181068Y-94860330D01*
X123199481Y-94871366D01*
X123216724Y-94884154D01*
X123232630Y-94898570D01*
X123247046Y-94914476D01*
X123259834Y-94931719D01*
X123270870Y-94950132D01*
X123280049Y-94969538D01*
X123287281Y-94989750D01*
X123292497Y-95010574D01*
X123295647Y-95031809D01*
X123296700Y-95053250D01*
X123296700Y-95490750D01*
X123295647Y-95512191D01*
X123292497Y-95533426D01*
X123287281Y-95554250D01*
X123280049Y-95574462D01*
X123270870Y-95593868D01*
X123259834Y-95612281D01*
X123247046Y-95629524D01*
X123232630Y-95645430D01*
X123216724Y-95659846D01*
X123199481Y-95672634D01*
X123181068Y-95683670D01*
X123161662Y-95692849D01*
X123141450Y-95700081D01*
X123120626Y-95705297D01*
X123099391Y-95708447D01*
X123077950Y-95709500D01*
X122565450Y-95709500D01*
X122544009Y-95708447D01*
X122522774Y-95705297D01*
X122501950Y-95700081D01*
X122481738Y-95692849D01*
X122462332Y-95683670D01*
X122443919Y-95672634D01*
X122426676Y-95659846D01*
X122410770Y-95645430D01*
X122396354Y-95629524D01*
X122383566Y-95612281D01*
X122372530Y-95593868D01*
X122363351Y-95574462D01*
X122356119Y-95554250D01*
X122350903Y-95533426D01*
X122347753Y-95512191D01*
X122346700Y-95490750D01*
X122346700Y-95053250D01*
X122347753Y-95031809D01*
X122350903Y-95010574D01*
X122356119Y-94989750D01*
X122363351Y-94969538D01*
X122372530Y-94950132D01*
X122383566Y-94931719D01*
X122396354Y-94914476D01*
X122410770Y-94898570D01*
X122426676Y-94884154D01*
X122443919Y-94871366D01*
X122462332Y-94860330D01*
X122481738Y-94851151D01*
X122501950Y-94843919D01*
X122522774Y-94838703D01*
X122544009Y-94835553D01*
X122565450Y-94834500D01*
X123077950Y-94834500D01*
X123099391Y-94835553D01*
X123099391Y-94835553D01*
G37*
D22*
X122821700Y-95272000D03*
D21*
G36*
X123099391Y-96410553D02*
G01*
X123120626Y-96413703D01*
X123141450Y-96418919D01*
X123161662Y-96426151D01*
X123181068Y-96435330D01*
X123199481Y-96446366D01*
X123216724Y-96459154D01*
X123232630Y-96473570D01*
X123247046Y-96489476D01*
X123259834Y-96506719D01*
X123270870Y-96525132D01*
X123280049Y-96544538D01*
X123287281Y-96564750D01*
X123292497Y-96585574D01*
X123295647Y-96606809D01*
X123296700Y-96628250D01*
X123296700Y-97065750D01*
X123295647Y-97087191D01*
X123292497Y-97108426D01*
X123287281Y-97129250D01*
X123280049Y-97149462D01*
X123270870Y-97168868D01*
X123259834Y-97187281D01*
X123247046Y-97204524D01*
X123232630Y-97220430D01*
X123216724Y-97234846D01*
X123199481Y-97247634D01*
X123181068Y-97258670D01*
X123161662Y-97267849D01*
X123141450Y-97275081D01*
X123120626Y-97280297D01*
X123099391Y-97283447D01*
X123077950Y-97284500D01*
X122565450Y-97284500D01*
X122544009Y-97283447D01*
X122522774Y-97280297D01*
X122501950Y-97275081D01*
X122481738Y-97267849D01*
X122462332Y-97258670D01*
X122443919Y-97247634D01*
X122426676Y-97234846D01*
X122410770Y-97220430D01*
X122396354Y-97204524D01*
X122383566Y-97187281D01*
X122372530Y-97168868D01*
X122363351Y-97149462D01*
X122356119Y-97129250D01*
X122350903Y-97108426D01*
X122347753Y-97087191D01*
X122346700Y-97065750D01*
X122346700Y-96628250D01*
X122347753Y-96606809D01*
X122350903Y-96585574D01*
X122356119Y-96564750D01*
X122363351Y-96544538D01*
X122372530Y-96525132D01*
X122383566Y-96506719D01*
X122396354Y-96489476D01*
X122410770Y-96473570D01*
X122426676Y-96459154D01*
X122443919Y-96446366D01*
X122462332Y-96435330D01*
X122481738Y-96426151D01*
X122501950Y-96418919D01*
X122522774Y-96413703D01*
X122544009Y-96410553D01*
X122565450Y-96409500D01*
X123077950Y-96409500D01*
X123099391Y-96410553D01*
X123099391Y-96410553D01*
G37*
D22*
X122821700Y-96847000D03*
D18*
X124730000Y-87630000D03*
X126730000Y-87630000D03*
X125460000Y-85090000D03*
X123460000Y-85090000D03*
D11*
X142240000Y-106172000D03*
X142240000Y-104172000D03*
X139192000Y-92472000D03*
X139192000Y-94472000D03*
D18*
X143240000Y-90678000D03*
X141240000Y-90678000D03*
D23*
X138430000Y-99060000D03*
X138430000Y-102060000D03*
D20*
X146024600Y-116212800D03*
X146024600Y-114012800D03*
X148945600Y-114012800D03*
X148945600Y-116212800D03*
X151384000Y-114216000D03*
X151384000Y-116416000D03*
D24*
X140208000Y-104018000D03*
X140208000Y-105918000D03*
X131064000Y-85664000D03*
X131064000Y-87564000D03*
D14*
X140086000Y-107950000D03*
X141986000Y-107950000D03*
D24*
X136906000Y-83312000D03*
X136906000Y-81412000D03*
X146050000Y-110622000D03*
X146050000Y-112522000D03*
X148844000Y-110556000D03*
X148844000Y-112456000D03*
X151384000Y-112456000D03*
X151384000Y-110556000D03*
D25*
X138496000Y-88544400D03*
X138496000Y-87274400D03*
X138496000Y-86004400D03*
X138496000Y-84734400D03*
X133096000Y-84734400D03*
X133096000Y-86004400D03*
X133096000Y-87274400D03*
X133096000Y-88544400D03*
D26*
X152305103Y-99050695D03*
D21*
G36*
X152676334Y-98290555D02*
G01*
X153065243Y-98679464D01*
X151933872Y-99810835D01*
X151544963Y-99421926D01*
X152676334Y-98290555D01*
X152676334Y-98290555D01*
G37*
D26*
X151739417Y-98485010D03*
D21*
G36*
X152110648Y-97724870D02*
G01*
X152499557Y-98113779D01*
X151368186Y-99245150D01*
X150979277Y-98856241D01*
X152110648Y-97724870D01*
X152110648Y-97724870D01*
G37*
D26*
X151173732Y-97919324D03*
D21*
G36*
X151544963Y-97159184D02*
G01*
X151933872Y-97548093D01*
X150802501Y-98679464D01*
X150413592Y-98290555D01*
X151544963Y-97159184D01*
X151544963Y-97159184D01*
G37*
D26*
X150608047Y-97353639D03*
D21*
G36*
X150979278Y-96593499D02*
G01*
X151368187Y-96982408D01*
X150236816Y-98113779D01*
X149847907Y-97724870D01*
X150979278Y-96593499D01*
X150979278Y-96593499D01*
G37*
D26*
X150042361Y-96787953D03*
D21*
G36*
X150413592Y-96027813D02*
G01*
X150802501Y-96416722D01*
X149671130Y-97548093D01*
X149282221Y-97159184D01*
X150413592Y-96027813D01*
X150413592Y-96027813D01*
G37*
D26*
X149476676Y-96222268D03*
D21*
G36*
X149847907Y-95462128D02*
G01*
X150236816Y-95851037D01*
X149105445Y-96982408D01*
X148716536Y-96593499D01*
X149847907Y-95462128D01*
X149847907Y-95462128D01*
G37*
D26*
X148910990Y-95656583D03*
D21*
G36*
X149282221Y-94896443D02*
G01*
X149671130Y-95285352D01*
X148539759Y-96416723D01*
X148150850Y-96027814D01*
X149282221Y-94896443D01*
X149282221Y-94896443D01*
G37*
D26*
X148345305Y-95090897D03*
D21*
G36*
X148716536Y-94330757D02*
G01*
X149105445Y-94719666D01*
X147974074Y-95851037D01*
X147585165Y-95462128D01*
X148716536Y-94330757D01*
X148716536Y-94330757D01*
G37*
D26*
X146294695Y-95090897D03*
D21*
G36*
X145534555Y-94719666D02*
G01*
X145923464Y-94330757D01*
X147054835Y-95462128D01*
X146665926Y-95851037D01*
X145534555Y-94719666D01*
X145534555Y-94719666D01*
G37*
D26*
X145729010Y-95656583D03*
D21*
G36*
X144968870Y-95285352D02*
G01*
X145357779Y-94896443D01*
X146489150Y-96027814D01*
X146100241Y-96416723D01*
X144968870Y-95285352D01*
X144968870Y-95285352D01*
G37*
D26*
X145163324Y-96222268D03*
D21*
G36*
X144403184Y-95851037D02*
G01*
X144792093Y-95462128D01*
X145923464Y-96593499D01*
X145534555Y-96982408D01*
X144403184Y-95851037D01*
X144403184Y-95851037D01*
G37*
D26*
X144597639Y-96787953D03*
D21*
G36*
X143837499Y-96416722D02*
G01*
X144226408Y-96027813D01*
X145357779Y-97159184D01*
X144968870Y-97548093D01*
X143837499Y-96416722D01*
X143837499Y-96416722D01*
G37*
D26*
X144031953Y-97353639D03*
D21*
G36*
X143271813Y-96982408D02*
G01*
X143660722Y-96593499D01*
X144792093Y-97724870D01*
X144403184Y-98113779D01*
X143271813Y-96982408D01*
X143271813Y-96982408D01*
G37*
D26*
X143466268Y-97919324D03*
D21*
G36*
X142706128Y-97548093D02*
G01*
X143095037Y-97159184D01*
X144226408Y-98290555D01*
X143837499Y-98679464D01*
X142706128Y-97548093D01*
X142706128Y-97548093D01*
G37*
D26*
X142900583Y-98485010D03*
D21*
G36*
X142140443Y-98113779D02*
G01*
X142529352Y-97724870D01*
X143660723Y-98856241D01*
X143271814Y-99245150D01*
X142140443Y-98113779D01*
X142140443Y-98113779D01*
G37*
D26*
X142334897Y-99050695D03*
D21*
G36*
X141574757Y-98679464D02*
G01*
X141963666Y-98290555D01*
X143095037Y-99421926D01*
X142706128Y-99810835D01*
X141574757Y-98679464D01*
X141574757Y-98679464D01*
G37*
D26*
X142334897Y-101101305D03*
D21*
G36*
X142706128Y-100341165D02*
G01*
X143095037Y-100730074D01*
X141963666Y-101861445D01*
X141574757Y-101472536D01*
X142706128Y-100341165D01*
X142706128Y-100341165D01*
G37*
D26*
X142900583Y-101666990D03*
D21*
G36*
X143271814Y-100906850D02*
G01*
X143660723Y-101295759D01*
X142529352Y-102427130D01*
X142140443Y-102038221D01*
X143271814Y-100906850D01*
X143271814Y-100906850D01*
G37*
D26*
X143466268Y-102232676D03*
D21*
G36*
X143837499Y-101472536D02*
G01*
X144226408Y-101861445D01*
X143095037Y-102992816D01*
X142706128Y-102603907D01*
X143837499Y-101472536D01*
X143837499Y-101472536D01*
G37*
D26*
X144031953Y-102798361D03*
D21*
G36*
X144403184Y-102038221D02*
G01*
X144792093Y-102427130D01*
X143660722Y-103558501D01*
X143271813Y-103169592D01*
X144403184Y-102038221D01*
X144403184Y-102038221D01*
G37*
D26*
X144597639Y-103364047D03*
D21*
G36*
X144968870Y-102603907D02*
G01*
X145357779Y-102992816D01*
X144226408Y-104124187D01*
X143837499Y-103735278D01*
X144968870Y-102603907D01*
X144968870Y-102603907D01*
G37*
D26*
X145163324Y-103929732D03*
D21*
G36*
X145534555Y-103169592D02*
G01*
X145923464Y-103558501D01*
X144792093Y-104689872D01*
X144403184Y-104300963D01*
X145534555Y-103169592D01*
X145534555Y-103169592D01*
G37*
D26*
X145729010Y-104495417D03*
D21*
G36*
X146100241Y-103735277D02*
G01*
X146489150Y-104124186D01*
X145357779Y-105255557D01*
X144968870Y-104866648D01*
X146100241Y-103735277D01*
X146100241Y-103735277D01*
G37*
D26*
X146294695Y-105061103D03*
D21*
G36*
X146665926Y-104300963D02*
G01*
X147054835Y-104689872D01*
X145923464Y-105821243D01*
X145534555Y-105432334D01*
X146665926Y-104300963D01*
X146665926Y-104300963D01*
G37*
D26*
X148345305Y-105061103D03*
D21*
G36*
X147585165Y-104689872D02*
G01*
X147974074Y-104300963D01*
X149105445Y-105432334D01*
X148716536Y-105821243D01*
X147585165Y-104689872D01*
X147585165Y-104689872D01*
G37*
D26*
X148910990Y-104495417D03*
D21*
G36*
X148150850Y-104124186D02*
G01*
X148539759Y-103735277D01*
X149671130Y-104866648D01*
X149282221Y-105255557D01*
X148150850Y-104124186D01*
X148150850Y-104124186D01*
G37*
D26*
X149476676Y-103929732D03*
D21*
G36*
X148716536Y-103558501D02*
G01*
X149105445Y-103169592D01*
X150236816Y-104300963D01*
X149847907Y-104689872D01*
X148716536Y-103558501D01*
X148716536Y-103558501D01*
G37*
D26*
X150042361Y-103364047D03*
D21*
G36*
X149282221Y-102992816D02*
G01*
X149671130Y-102603907D01*
X150802501Y-103735278D01*
X150413592Y-104124187D01*
X149282221Y-102992816D01*
X149282221Y-102992816D01*
G37*
D26*
X150608047Y-102798361D03*
D21*
G36*
X149847907Y-102427130D02*
G01*
X150236816Y-102038221D01*
X151368187Y-103169592D01*
X150979278Y-103558501D01*
X149847907Y-102427130D01*
X149847907Y-102427130D01*
G37*
D26*
X151173732Y-102232676D03*
D21*
G36*
X150413592Y-101861445D02*
G01*
X150802501Y-101472536D01*
X151933872Y-102603907D01*
X151544963Y-102992816D01*
X150413592Y-101861445D01*
X150413592Y-101861445D01*
G37*
D26*
X151739417Y-101666990D03*
D21*
G36*
X150979277Y-101295759D02*
G01*
X151368186Y-100906850D01*
X152499557Y-102038221D01*
X152110648Y-102427130D01*
X150979277Y-101295759D01*
X150979277Y-101295759D01*
G37*
D26*
X152305103Y-101101305D03*
D21*
G36*
X151544963Y-100730074D02*
G01*
X151933872Y-100341165D01*
X153065243Y-101472536D01*
X152676334Y-101861445D01*
X151544963Y-100730074D01*
X151544963Y-100730074D01*
G37*
D24*
X134366000Y-93792000D03*
X134366000Y-95692000D03*
M02*
