G04 #@! TF.GenerationSoftware,KiCad,Pcbnew,5.1.4*
G04 #@! TF.CreationDate,2019-12-12T21:33:50-05:00*
G04 #@! TF.ProjectId,Suspension_Travel,53757370-656e-4736-996f-6e5f54726176,rev?*
G04 #@! TF.SameCoordinates,Original*
G04 #@! TF.FileFunction,Soldermask,Bot*
G04 #@! TF.FilePolarity,Negative*
%FSLAX46Y46*%
G04 Gerber Fmt 4.6, Leading zero omitted, Abs format (unit mm)*
G04 Created by KiCad (PCBNEW 5.1.4) date 2019-12-12 21:33:50*
%MOMM*%
%LPD*%
G04 APERTURE LIST*
%ADD10C,0.100000*%
G04 APERTURE END LIST*
D10*
G36*
X152111059Y-91225860D02*
G01*
X152247732Y-91282472D01*
X152370735Y-91364660D01*
X152475340Y-91469265D01*
X152557528Y-91592268D01*
X152614140Y-91728941D01*
X152643000Y-91874033D01*
X152643000Y-92021967D01*
X152614140Y-92167059D01*
X152557528Y-92303732D01*
X152475340Y-92426735D01*
X152370735Y-92531340D01*
X152247732Y-92613528D01*
X152247731Y-92613529D01*
X152247730Y-92613529D01*
X152111059Y-92670140D01*
X151965968Y-92699000D01*
X151818032Y-92699000D01*
X151672941Y-92670140D01*
X151536270Y-92613529D01*
X151536269Y-92613529D01*
X151536268Y-92613528D01*
X151413265Y-92531340D01*
X151308660Y-92426735D01*
X151226472Y-92303732D01*
X151169860Y-92167059D01*
X151141000Y-92021967D01*
X151141000Y-91874033D01*
X151169860Y-91728941D01*
X151226472Y-91592268D01*
X151308660Y-91469265D01*
X151413265Y-91364660D01*
X151536268Y-91282472D01*
X151672941Y-91225860D01*
X151818032Y-91197000D01*
X151965968Y-91197000D01*
X152111059Y-91225860D01*
X152111059Y-91225860D01*
G37*
G36*
X155183000Y-92699000D02*
G01*
X153681000Y-92699000D01*
X153681000Y-91197000D01*
X155183000Y-91197000D01*
X155183000Y-92699000D01*
X155183000Y-92699000D01*
G37*
G36*
X154651059Y-88685860D02*
G01*
X154787732Y-88742472D01*
X154910735Y-88824660D01*
X155015340Y-88929265D01*
X155097528Y-89052268D01*
X155154140Y-89188941D01*
X155183000Y-89334033D01*
X155183000Y-89481967D01*
X155154140Y-89627059D01*
X155097528Y-89763732D01*
X155015340Y-89886735D01*
X154910735Y-89991340D01*
X154787732Y-90073528D01*
X154787731Y-90073529D01*
X154787730Y-90073529D01*
X154651059Y-90130140D01*
X154505968Y-90159000D01*
X154358032Y-90159000D01*
X154212941Y-90130140D01*
X154076270Y-90073529D01*
X154076269Y-90073529D01*
X154076268Y-90073528D01*
X153953265Y-89991340D01*
X153848660Y-89886735D01*
X153766472Y-89763732D01*
X153709860Y-89627059D01*
X153681000Y-89481967D01*
X153681000Y-89334033D01*
X153709860Y-89188941D01*
X153766472Y-89052268D01*
X153848660Y-88929265D01*
X153953265Y-88824660D01*
X154076268Y-88742472D01*
X154212941Y-88685860D01*
X154358032Y-88657000D01*
X154505968Y-88657000D01*
X154651059Y-88685860D01*
X154651059Y-88685860D01*
G37*
G36*
X152111059Y-88685860D02*
G01*
X152247732Y-88742472D01*
X152370735Y-88824660D01*
X152475340Y-88929265D01*
X152557528Y-89052268D01*
X152614140Y-89188941D01*
X152643000Y-89334033D01*
X152643000Y-89481967D01*
X152614140Y-89627059D01*
X152557528Y-89763732D01*
X152475340Y-89886735D01*
X152370735Y-89991340D01*
X152247732Y-90073528D01*
X152247731Y-90073529D01*
X152247730Y-90073529D01*
X152111059Y-90130140D01*
X151965968Y-90159000D01*
X151818032Y-90159000D01*
X151672941Y-90130140D01*
X151536270Y-90073529D01*
X151536269Y-90073529D01*
X151536268Y-90073528D01*
X151413265Y-89991340D01*
X151308660Y-89886735D01*
X151226472Y-89763732D01*
X151169860Y-89627059D01*
X151141000Y-89481967D01*
X151141000Y-89334033D01*
X151169860Y-89188941D01*
X151226472Y-89052268D01*
X151308660Y-88929265D01*
X151413265Y-88824660D01*
X151536268Y-88742472D01*
X151672941Y-88685860D01*
X151818032Y-88657000D01*
X151965968Y-88657000D01*
X152111059Y-88685860D01*
X152111059Y-88685860D01*
G37*
G36*
X152111059Y-86145860D02*
G01*
X152247732Y-86202472D01*
X152370735Y-86284660D01*
X152475340Y-86389265D01*
X152557528Y-86512268D01*
X152614140Y-86648941D01*
X152643000Y-86794033D01*
X152643000Y-86941967D01*
X152614140Y-87087059D01*
X152557528Y-87223732D01*
X152475340Y-87346735D01*
X152370735Y-87451340D01*
X152247732Y-87533528D01*
X152247731Y-87533529D01*
X152247730Y-87533529D01*
X152111059Y-87590140D01*
X151965968Y-87619000D01*
X151818032Y-87619000D01*
X151672941Y-87590140D01*
X151536270Y-87533529D01*
X151536269Y-87533529D01*
X151536268Y-87533528D01*
X151413265Y-87451340D01*
X151308660Y-87346735D01*
X151226472Y-87223732D01*
X151169860Y-87087059D01*
X151141000Y-86941967D01*
X151141000Y-86794033D01*
X151169860Y-86648941D01*
X151226472Y-86512268D01*
X151308660Y-86389265D01*
X151413265Y-86284660D01*
X151536268Y-86202472D01*
X151672941Y-86145860D01*
X151818032Y-86117000D01*
X151965968Y-86117000D01*
X152111059Y-86145860D01*
X152111059Y-86145860D01*
G37*
G36*
X154651059Y-86145860D02*
G01*
X154787732Y-86202472D01*
X154910735Y-86284660D01*
X155015340Y-86389265D01*
X155097528Y-86512268D01*
X155154140Y-86648941D01*
X155183000Y-86794033D01*
X155183000Y-86941967D01*
X155154140Y-87087059D01*
X155097528Y-87223732D01*
X155015340Y-87346735D01*
X154910735Y-87451340D01*
X154787732Y-87533528D01*
X154787731Y-87533529D01*
X154787730Y-87533529D01*
X154651059Y-87590140D01*
X154505968Y-87619000D01*
X154358032Y-87619000D01*
X154212941Y-87590140D01*
X154076270Y-87533529D01*
X154076269Y-87533529D01*
X154076268Y-87533528D01*
X153953265Y-87451340D01*
X153848660Y-87346735D01*
X153766472Y-87223732D01*
X153709860Y-87087059D01*
X153681000Y-86941967D01*
X153681000Y-86794033D01*
X153709860Y-86648941D01*
X153766472Y-86512268D01*
X153848660Y-86389265D01*
X153953265Y-86284660D01*
X154076268Y-86202472D01*
X154212941Y-86145860D01*
X154358032Y-86117000D01*
X154505968Y-86117000D01*
X154651059Y-86145860D01*
X154651059Y-86145860D01*
G37*
G36*
X131446273Y-81342538D02*
G01*
X131573849Y-81395382D01*
X131688659Y-81472095D01*
X131786305Y-81569741D01*
X131863018Y-81684551D01*
X131915862Y-81812127D01*
X131942800Y-81947556D01*
X131942800Y-82085644D01*
X131915862Y-82221073D01*
X131863018Y-82348649D01*
X131786305Y-82463459D01*
X131688659Y-82561105D01*
X131573849Y-82637818D01*
X131446273Y-82690662D01*
X131310844Y-82717600D01*
X131172756Y-82717600D01*
X131037327Y-82690662D01*
X130909751Y-82637818D01*
X130794941Y-82561105D01*
X130697295Y-82463459D01*
X130620582Y-82348649D01*
X130567738Y-82221073D01*
X130540800Y-82085644D01*
X130540800Y-81947556D01*
X130567738Y-81812127D01*
X130620582Y-81684551D01*
X130697295Y-81569741D01*
X130794941Y-81472095D01*
X130909751Y-81395382D01*
X131037327Y-81342538D01*
X131172756Y-81315600D01*
X131310844Y-81315600D01*
X131446273Y-81342538D01*
X131446273Y-81342538D01*
G37*
G36*
X128906273Y-81342538D02*
G01*
X129033849Y-81395382D01*
X129148659Y-81472095D01*
X129246305Y-81569741D01*
X129323018Y-81684551D01*
X129375862Y-81812127D01*
X129402800Y-81947556D01*
X129402800Y-82085644D01*
X129375862Y-82221073D01*
X129323018Y-82348649D01*
X129246305Y-82463459D01*
X129148659Y-82561105D01*
X129033849Y-82637818D01*
X128906273Y-82690662D01*
X128770844Y-82717600D01*
X128632756Y-82717600D01*
X128497327Y-82690662D01*
X128369751Y-82637818D01*
X128254941Y-82561105D01*
X128157295Y-82463459D01*
X128080582Y-82348649D01*
X128027738Y-82221073D01*
X128000800Y-82085644D01*
X128000800Y-81947556D01*
X128027738Y-81812127D01*
X128080582Y-81684551D01*
X128157295Y-81569741D01*
X128254941Y-81472095D01*
X128369751Y-81395382D01*
X128497327Y-81342538D01*
X128632756Y-81315600D01*
X128770844Y-81315600D01*
X128906273Y-81342538D01*
X128906273Y-81342538D01*
G37*
G36*
X126366273Y-81342538D02*
G01*
X126493849Y-81395382D01*
X126608659Y-81472095D01*
X126706305Y-81569741D01*
X126783018Y-81684551D01*
X126835862Y-81812127D01*
X126862800Y-81947556D01*
X126862800Y-82085644D01*
X126835862Y-82221073D01*
X126783018Y-82348649D01*
X126706305Y-82463459D01*
X126608659Y-82561105D01*
X126493849Y-82637818D01*
X126366273Y-82690662D01*
X126230844Y-82717600D01*
X126092756Y-82717600D01*
X125957327Y-82690662D01*
X125829751Y-82637818D01*
X125714941Y-82561105D01*
X125617295Y-82463459D01*
X125540582Y-82348649D01*
X125487738Y-82221073D01*
X125460800Y-82085644D01*
X125460800Y-81947556D01*
X125487738Y-81812127D01*
X125540582Y-81684551D01*
X125617295Y-81569741D01*
X125714941Y-81472095D01*
X125829751Y-81395382D01*
X125957327Y-81342538D01*
X126092756Y-81315600D01*
X126230844Y-81315600D01*
X126366273Y-81342538D01*
X126366273Y-81342538D01*
G37*
G36*
X123826273Y-81342538D02*
G01*
X123953849Y-81395382D01*
X124068659Y-81472095D01*
X124166305Y-81569741D01*
X124243018Y-81684551D01*
X124295862Y-81812127D01*
X124322800Y-81947556D01*
X124322800Y-82085644D01*
X124295862Y-82221073D01*
X124243018Y-82348649D01*
X124166305Y-82463459D01*
X124068659Y-82561105D01*
X123953849Y-82637818D01*
X123826273Y-82690662D01*
X123690844Y-82717600D01*
X123552756Y-82717600D01*
X123417327Y-82690662D01*
X123289751Y-82637818D01*
X123174941Y-82561105D01*
X123077295Y-82463459D01*
X123000582Y-82348649D01*
X122947738Y-82221073D01*
X122920800Y-82085644D01*
X122920800Y-81947556D01*
X122947738Y-81812127D01*
X123000582Y-81684551D01*
X123077295Y-81569741D01*
X123174941Y-81472095D01*
X123289751Y-81395382D01*
X123417327Y-81342538D01*
X123552756Y-81315600D01*
X123690844Y-81315600D01*
X123826273Y-81342538D01*
X123826273Y-81342538D01*
G37*
G36*
X127636273Y-78802538D02*
G01*
X127763849Y-78855382D01*
X127878659Y-78932095D01*
X127976305Y-79029741D01*
X128053018Y-79144551D01*
X128105862Y-79272127D01*
X128132800Y-79407556D01*
X128132800Y-79545644D01*
X128105862Y-79681073D01*
X128053018Y-79808649D01*
X127976305Y-79923459D01*
X127878659Y-80021105D01*
X127763849Y-80097818D01*
X127636273Y-80150662D01*
X127500844Y-80177600D01*
X127362756Y-80177600D01*
X127227327Y-80150662D01*
X127099751Y-80097818D01*
X126984941Y-80021105D01*
X126887295Y-79923459D01*
X126810582Y-79808649D01*
X126757738Y-79681073D01*
X126730800Y-79545644D01*
X126730800Y-79407556D01*
X126757738Y-79272127D01*
X126810582Y-79144551D01*
X126887295Y-79029741D01*
X126984941Y-78932095D01*
X127099751Y-78855382D01*
X127227327Y-78802538D01*
X127362756Y-78775600D01*
X127500844Y-78775600D01*
X127636273Y-78802538D01*
X127636273Y-78802538D01*
G37*
G36*
X132716273Y-78802538D02*
G01*
X132843849Y-78855382D01*
X132958659Y-78932095D01*
X133056305Y-79029741D01*
X133133018Y-79144551D01*
X133185862Y-79272127D01*
X133212800Y-79407556D01*
X133212800Y-79545644D01*
X133185862Y-79681073D01*
X133133018Y-79808649D01*
X133056305Y-79923459D01*
X132958659Y-80021105D01*
X132843849Y-80097818D01*
X132716273Y-80150662D01*
X132580844Y-80177600D01*
X132442756Y-80177600D01*
X132307327Y-80150662D01*
X132179751Y-80097818D01*
X132064941Y-80021105D01*
X131967295Y-79923459D01*
X131890582Y-79808649D01*
X131837738Y-79681073D01*
X131810800Y-79545644D01*
X131810800Y-79407556D01*
X131837738Y-79272127D01*
X131890582Y-79144551D01*
X131967295Y-79029741D01*
X132064941Y-78932095D01*
X132179751Y-78855382D01*
X132307327Y-78802538D01*
X132442756Y-78775600D01*
X132580844Y-78775600D01*
X132716273Y-78802538D01*
X132716273Y-78802538D01*
G37*
G36*
X130176273Y-78802538D02*
G01*
X130303849Y-78855382D01*
X130418659Y-78932095D01*
X130516305Y-79029741D01*
X130593018Y-79144551D01*
X130645862Y-79272127D01*
X130672800Y-79407556D01*
X130672800Y-79545644D01*
X130645862Y-79681073D01*
X130593018Y-79808649D01*
X130516305Y-79923459D01*
X130418659Y-80021105D01*
X130303849Y-80097818D01*
X130176273Y-80150662D01*
X130040844Y-80177600D01*
X129902756Y-80177600D01*
X129767327Y-80150662D01*
X129639751Y-80097818D01*
X129524941Y-80021105D01*
X129427295Y-79923459D01*
X129350582Y-79808649D01*
X129297738Y-79681073D01*
X129270800Y-79545644D01*
X129270800Y-79407556D01*
X129297738Y-79272127D01*
X129350582Y-79144551D01*
X129427295Y-79029741D01*
X129524941Y-78932095D01*
X129639751Y-78855382D01*
X129767327Y-78802538D01*
X129902756Y-78775600D01*
X130040844Y-78775600D01*
X130176273Y-78802538D01*
X130176273Y-78802538D01*
G37*
G36*
X125096273Y-78802538D02*
G01*
X125223849Y-78855382D01*
X125338659Y-78932095D01*
X125436305Y-79029741D01*
X125513018Y-79144551D01*
X125565862Y-79272127D01*
X125592800Y-79407556D01*
X125592800Y-79545644D01*
X125565862Y-79681073D01*
X125513018Y-79808649D01*
X125436305Y-79923459D01*
X125338659Y-80021105D01*
X125223849Y-80097818D01*
X125096273Y-80150662D01*
X124960844Y-80177600D01*
X124822756Y-80177600D01*
X124687327Y-80150662D01*
X124559751Y-80097818D01*
X124444941Y-80021105D01*
X124347295Y-79923459D01*
X124270582Y-79808649D01*
X124217738Y-79681073D01*
X124190800Y-79545644D01*
X124190800Y-79407556D01*
X124217738Y-79272127D01*
X124270582Y-79144551D01*
X124347295Y-79029741D01*
X124444941Y-78932095D01*
X124559751Y-78855382D01*
X124687327Y-78802538D01*
X124822756Y-78775600D01*
X124960844Y-78775600D01*
X125096273Y-78802538D01*
X125096273Y-78802538D01*
G37*
M02*
