M48
; DRILL file {KiCad 5.1.4} date Thu 12 Dec 2019 09:34:03 PM EST
; FORMAT={-:-/ absolute / inch / decimal}
; #@! TF.CreationDate,2019-12-12T21:34:03-05:00
; #@! TF.GenerationSoftware,Kicad,Pcbnew,5.1.4
FMAT,2
INCH
T1C0.0120
T2C0.0157
T3C0.0315
T4C0.0400
%
G90
G05
T1
X4.51Y-3.35
X4.89Y-3.29
X4.95Y-3.5
X5.025Y-3.28
X5.07Y-3.52
X5.1Y-3.27
X5.121Y-3.52
X5.1534Y-3.2704
X5.284Y-3.486
X5.35Y-3.305
X5.435Y-3.305
X5.48Y-3.57
X5.51Y-3.49
X5.51Y-4.02
X5.64Y-4.12
X5.68Y-4.58
X5.79Y-4.28
X5.875Y-3.84
X5.96Y-4.28
T2
X4.0693Y-3.3419
X4.0693Y-3.4246
X4.0693Y-3.5323
X4.0707Y-3.6636
X4.1821Y-3.3
X4.8297Y-4.0124
X4.9411Y-4.0129
X5.058Y-4.0114
X5.1822Y-4.0114
X5.1847Y-3.9406
X5.1852Y-3.8272
T3
X4.867Y-3.229
X4.917Y-3.129
X4.967Y-3.229
X5.017Y-3.129
X5.067Y-3.229
X5.117Y-3.129
X5.167Y-3.229
X5.217Y-3.129
T4
X5.98Y-3.42
X5.98Y-3.52
X5.98Y-3.62
X6.08Y-3.42
X6.08Y-3.52
X6.08Y-3.62
T0
M30
