G04 #@! TF.GenerationSoftware,KiCad,Pcbnew,5.1.4*
G04 #@! TF.CreationDate,2019-12-12T21:33:50-05:00*
G04 #@! TF.ProjectId,Suspension_Travel,53757370-656e-4736-996f-6e5f54726176,rev?*
G04 #@! TF.SameCoordinates,Original*
G04 #@! TF.FileFunction,Legend,Top*
G04 #@! TF.FilePolarity,Positive*
%FSLAX46Y46*%
G04 Gerber Fmt 4.6, Leading zero omitted, Abs format (unit mm)*
G04 Created by KiCad (PCBNEW 5.1.4) date 2019-12-12 21:33:50*
%MOMM*%
%LPD*%
G04 APERTURE LIST*
%ADD10C,0.150000*%
%ADD11C,0.120000*%
%ADD12C,0.200000*%
%ADD13C,0.100000*%
%ADD14C,0.500000*%
G04 APERTURE END LIST*
D10*
X121650952Y-121643666D02*
X122127142Y-121643666D01*
X121555714Y-121929380D02*
X121889047Y-120929380D01*
X122222380Y-121929380D01*
X122555714Y-121262714D02*
X122555714Y-121929380D01*
X122555714Y-121357952D02*
X122603333Y-121310333D01*
X122698571Y-121262714D01*
X122841428Y-121262714D01*
X122936666Y-121310333D01*
X122984285Y-121405571D01*
X122984285Y-121929380D01*
X123889047Y-121929380D02*
X123889047Y-120929380D01*
X123889047Y-121881761D02*
X123793809Y-121929380D01*
X123603333Y-121929380D01*
X123508095Y-121881761D01*
X123460476Y-121834142D01*
X123412857Y-121738904D01*
X123412857Y-121453190D01*
X123460476Y-121357952D01*
X123508095Y-121310333D01*
X123603333Y-121262714D01*
X123793809Y-121262714D01*
X123889047Y-121310333D01*
X124365238Y-121929380D02*
X124365238Y-121262714D01*
X124365238Y-121453190D02*
X124412857Y-121357952D01*
X124460476Y-121310333D01*
X124555714Y-121262714D01*
X124650952Y-121262714D01*
X125365238Y-121881761D02*
X125270000Y-121929380D01*
X125079523Y-121929380D01*
X124984285Y-121881761D01*
X124936666Y-121786523D01*
X124936666Y-121405571D01*
X124984285Y-121310333D01*
X125079523Y-121262714D01*
X125270000Y-121262714D01*
X125365238Y-121310333D01*
X125412857Y-121405571D01*
X125412857Y-121500809D01*
X124936666Y-121596047D01*
X125746190Y-121262714D02*
X125936666Y-121929380D01*
X126127142Y-121453190D01*
X126317619Y-121929380D01*
X126508095Y-121262714D01*
X127650952Y-121929380D02*
X127650952Y-120929380D01*
X127984285Y-121643666D01*
X128317619Y-120929380D01*
X128317619Y-121929380D01*
X129222380Y-121929380D02*
X129222380Y-121405571D01*
X129174761Y-121310333D01*
X129079523Y-121262714D01*
X128889047Y-121262714D01*
X128793809Y-121310333D01*
X129222380Y-121881761D02*
X129127142Y-121929380D01*
X128889047Y-121929380D01*
X128793809Y-121881761D01*
X128746190Y-121786523D01*
X128746190Y-121691285D01*
X128793809Y-121596047D01*
X128889047Y-121548428D01*
X129127142Y-121548428D01*
X129222380Y-121500809D01*
X129650952Y-121881761D02*
X129746190Y-121929380D01*
X129936666Y-121929380D01*
X130031904Y-121881761D01*
X130079523Y-121786523D01*
X130079523Y-121738904D01*
X130031904Y-121643666D01*
X129936666Y-121596047D01*
X129793809Y-121596047D01*
X129698571Y-121548428D01*
X129650952Y-121453190D01*
X129650952Y-121405571D01*
X129698571Y-121310333D01*
X129793809Y-121262714D01*
X129936666Y-121262714D01*
X130031904Y-121310333D01*
X130936666Y-121881761D02*
X130841428Y-121929380D01*
X130650952Y-121929380D01*
X130555714Y-121881761D01*
X130508095Y-121834142D01*
X130460476Y-121738904D01*
X130460476Y-121453190D01*
X130508095Y-121357952D01*
X130555714Y-121310333D01*
X130650952Y-121262714D01*
X130841428Y-121262714D01*
X130936666Y-121310333D01*
X131365238Y-121929380D02*
X131365238Y-121262714D01*
X131365238Y-120929380D02*
X131317619Y-120977000D01*
X131365238Y-121024619D01*
X131412857Y-120977000D01*
X131365238Y-120929380D01*
X131365238Y-121024619D01*
X131984285Y-121929380D02*
X131889047Y-121881761D01*
X131841428Y-121786523D01*
X131841428Y-120929380D01*
X132508095Y-121929380D02*
X132412857Y-121881761D01*
X132365238Y-121786523D01*
X132365238Y-120929380D01*
X133317619Y-121929380D02*
X133317619Y-121405571D01*
X133270000Y-121310333D01*
X133174761Y-121262714D01*
X132984285Y-121262714D01*
X132889047Y-121310333D01*
X133317619Y-121881761D02*
X133222380Y-121929380D01*
X132984285Y-121929380D01*
X132889047Y-121881761D01*
X132841428Y-121786523D01*
X132841428Y-121691285D01*
X132889047Y-121596047D01*
X132984285Y-121548428D01*
X133222380Y-121548428D01*
X133317619Y-121500809D01*
X133793809Y-121929380D02*
X133793809Y-121262714D01*
X133793809Y-121453190D02*
X133841428Y-121357952D01*
X133889047Y-121310333D01*
X133984285Y-121262714D01*
X134079523Y-121262714D01*
X134555714Y-121929380D02*
X134460476Y-121881761D01*
X134412857Y-121834142D01*
X134365238Y-121738904D01*
X134365238Y-121453190D01*
X134412857Y-121357952D01*
X134460476Y-121310333D01*
X134555714Y-121262714D01*
X134698571Y-121262714D01*
X134793809Y-121310333D01*
X134841428Y-121357952D01*
X134889047Y-121453190D01*
X134889047Y-121738904D01*
X134841428Y-121834142D01*
X134793809Y-121881761D01*
X134698571Y-121929380D01*
X134555714Y-121929380D01*
X127008095Y-123579380D02*
X127008095Y-122579380D01*
X127341428Y-123293666D01*
X127674761Y-122579380D01*
X127674761Y-123579380D01*
X128150952Y-123579380D02*
X128150952Y-122579380D01*
X128722380Y-123579380D02*
X128293809Y-123007952D01*
X128722380Y-122579380D02*
X128150952Y-123150809D01*
X129008095Y-122579380D02*
X129341428Y-123579380D01*
X129674761Y-122579380D01*
X121770000Y-125229380D02*
X121198571Y-125229380D01*
X121484285Y-125229380D02*
X121484285Y-124229380D01*
X121389047Y-124372238D01*
X121293809Y-124467476D01*
X121198571Y-124515095D01*
X122150952Y-124324619D02*
X122198571Y-124277000D01*
X122293809Y-124229380D01*
X122531904Y-124229380D01*
X122627142Y-124277000D01*
X122674761Y-124324619D01*
X122722380Y-124419857D01*
X122722380Y-124515095D01*
X122674761Y-124657952D01*
X122103333Y-125229380D01*
X122722380Y-125229380D01*
X123912857Y-125229380D02*
X123912857Y-124229380D01*
X124150952Y-124229380D01*
X124293809Y-124277000D01*
X124389047Y-124372238D01*
X124436666Y-124467476D01*
X124484285Y-124657952D01*
X124484285Y-124800809D01*
X124436666Y-124991285D01*
X124389047Y-125086523D01*
X124293809Y-125181761D01*
X124150952Y-125229380D01*
X123912857Y-125229380D01*
X125293809Y-125181761D02*
X125198571Y-125229380D01*
X125008095Y-125229380D01*
X124912857Y-125181761D01*
X124865238Y-125086523D01*
X124865238Y-124705571D01*
X124912857Y-124610333D01*
X125008095Y-124562714D01*
X125198571Y-124562714D01*
X125293809Y-124610333D01*
X125341428Y-124705571D01*
X125341428Y-124800809D01*
X124865238Y-124896047D01*
X126198571Y-125181761D02*
X126103333Y-125229380D01*
X125912857Y-125229380D01*
X125817619Y-125181761D01*
X125770000Y-125134142D01*
X125722380Y-125038904D01*
X125722380Y-124753190D01*
X125770000Y-124657952D01*
X125817619Y-124610333D01*
X125912857Y-124562714D01*
X126103333Y-124562714D01*
X126198571Y-124610333D01*
X127008095Y-125181761D02*
X126912857Y-125229380D01*
X126722380Y-125229380D01*
X126627142Y-125181761D01*
X126579523Y-125086523D01*
X126579523Y-124705571D01*
X126627142Y-124610333D01*
X126722380Y-124562714D01*
X126912857Y-124562714D01*
X127008095Y-124610333D01*
X127055714Y-124705571D01*
X127055714Y-124800809D01*
X126579523Y-124896047D01*
X127484285Y-125229380D02*
X127484285Y-124562714D01*
X127484285Y-124657952D02*
X127531904Y-124610333D01*
X127627142Y-124562714D01*
X127770000Y-124562714D01*
X127865238Y-124610333D01*
X127912857Y-124705571D01*
X127912857Y-125229380D01*
X127912857Y-124705571D02*
X127960476Y-124610333D01*
X128055714Y-124562714D01*
X128198571Y-124562714D01*
X128293809Y-124610333D01*
X128341428Y-124705571D01*
X128341428Y-125229380D01*
X128817619Y-125229380D02*
X128817619Y-124229380D01*
X128817619Y-124610333D02*
X128912857Y-124562714D01*
X129103333Y-124562714D01*
X129198571Y-124610333D01*
X129246190Y-124657952D01*
X129293809Y-124753190D01*
X129293809Y-125038904D01*
X129246190Y-125134142D01*
X129198571Y-125181761D01*
X129103333Y-125229380D01*
X128912857Y-125229380D01*
X128817619Y-125181761D01*
X130103333Y-125181761D02*
X130008095Y-125229380D01*
X129817619Y-125229380D01*
X129722380Y-125181761D01*
X129674761Y-125086523D01*
X129674761Y-124705571D01*
X129722380Y-124610333D01*
X129817619Y-124562714D01*
X130008095Y-124562714D01*
X130103333Y-124610333D01*
X130150952Y-124705571D01*
X130150952Y-124800809D01*
X129674761Y-124896047D01*
X130579523Y-125229380D02*
X130579523Y-124562714D01*
X130579523Y-124753190D02*
X130627142Y-124657952D01*
X130674761Y-124610333D01*
X130770000Y-124562714D01*
X130865238Y-124562714D01*
X131912857Y-124324619D02*
X131960476Y-124277000D01*
X132055714Y-124229380D01*
X132293809Y-124229380D01*
X132389047Y-124277000D01*
X132436666Y-124324619D01*
X132484285Y-124419857D01*
X132484285Y-124515095D01*
X132436666Y-124657952D01*
X131865238Y-125229380D01*
X132484285Y-125229380D01*
X133103333Y-124229380D02*
X133198571Y-124229380D01*
X133293809Y-124277000D01*
X133341428Y-124324619D01*
X133389047Y-124419857D01*
X133436666Y-124610333D01*
X133436666Y-124848428D01*
X133389047Y-125038904D01*
X133341428Y-125134142D01*
X133293809Y-125181761D01*
X133198571Y-125229380D01*
X133103333Y-125229380D01*
X133008095Y-125181761D01*
X132960476Y-125134142D01*
X132912857Y-125038904D01*
X132865238Y-124848428D01*
X132865238Y-124610333D01*
X132912857Y-124419857D01*
X132960476Y-124324619D01*
X133008095Y-124277000D01*
X133103333Y-124229380D01*
X134389047Y-125229380D02*
X133817619Y-125229380D01*
X134103333Y-125229380D02*
X134103333Y-124229380D01*
X134008095Y-124372238D01*
X133912857Y-124467476D01*
X133817619Y-124515095D01*
X134865238Y-125229380D02*
X135055714Y-125229380D01*
X135150952Y-125181761D01*
X135198571Y-125134142D01*
X135293809Y-124991285D01*
X135341428Y-124800809D01*
X135341428Y-124419857D01*
X135293809Y-124324619D01*
X135246190Y-124277000D01*
X135150952Y-124229380D01*
X134960476Y-124229380D01*
X134865238Y-124277000D01*
X134817619Y-124324619D01*
X134770000Y-124419857D01*
X134770000Y-124657952D01*
X134817619Y-124753190D01*
X134865238Y-124800809D01*
X134960476Y-124848428D01*
X135150952Y-124848428D01*
X135246190Y-124800809D01*
X135293809Y-124753190D01*
X135341428Y-124657952D01*
X120365238Y-126831761D02*
X120508095Y-126879380D01*
X120746190Y-126879380D01*
X120841428Y-126831761D01*
X120889047Y-126784142D01*
X120936666Y-126688904D01*
X120936666Y-126593666D01*
X120889047Y-126498428D01*
X120841428Y-126450809D01*
X120746190Y-126403190D01*
X120555714Y-126355571D01*
X120460476Y-126307952D01*
X120412857Y-126260333D01*
X120365238Y-126165095D01*
X120365238Y-126069857D01*
X120412857Y-125974619D01*
X120460476Y-125927000D01*
X120555714Y-125879380D01*
X120793809Y-125879380D01*
X120936666Y-125927000D01*
X121793809Y-126212714D02*
X121793809Y-126879380D01*
X121365238Y-126212714D02*
X121365238Y-126736523D01*
X121412857Y-126831761D01*
X121508095Y-126879380D01*
X121650952Y-126879380D01*
X121746190Y-126831761D01*
X121793809Y-126784142D01*
X122222380Y-126831761D02*
X122317619Y-126879380D01*
X122508095Y-126879380D01*
X122603333Y-126831761D01*
X122650952Y-126736523D01*
X122650952Y-126688904D01*
X122603333Y-126593666D01*
X122508095Y-126546047D01*
X122365238Y-126546047D01*
X122270000Y-126498428D01*
X122222380Y-126403190D01*
X122222380Y-126355571D01*
X122270000Y-126260333D01*
X122365238Y-126212714D01*
X122508095Y-126212714D01*
X122603333Y-126260333D01*
X123079523Y-126212714D02*
X123079523Y-127212714D01*
X123079523Y-126260333D02*
X123174761Y-126212714D01*
X123365238Y-126212714D01*
X123460476Y-126260333D01*
X123508095Y-126307952D01*
X123555714Y-126403190D01*
X123555714Y-126688904D01*
X123508095Y-126784142D01*
X123460476Y-126831761D01*
X123365238Y-126879380D01*
X123174761Y-126879380D01*
X123079523Y-126831761D01*
X124365238Y-126831761D02*
X124270000Y-126879380D01*
X124079523Y-126879380D01*
X123984285Y-126831761D01*
X123936666Y-126736523D01*
X123936666Y-126355571D01*
X123984285Y-126260333D01*
X124079523Y-126212714D01*
X124270000Y-126212714D01*
X124365238Y-126260333D01*
X124412857Y-126355571D01*
X124412857Y-126450809D01*
X123936666Y-126546047D01*
X124841428Y-126212714D02*
X124841428Y-126879380D01*
X124841428Y-126307952D02*
X124889047Y-126260333D01*
X124984285Y-126212714D01*
X125127142Y-126212714D01*
X125222380Y-126260333D01*
X125270000Y-126355571D01*
X125270000Y-126879380D01*
X125698571Y-126831761D02*
X125793809Y-126879380D01*
X125984285Y-126879380D01*
X126079523Y-126831761D01*
X126127142Y-126736523D01*
X126127142Y-126688904D01*
X126079523Y-126593666D01*
X125984285Y-126546047D01*
X125841428Y-126546047D01*
X125746190Y-126498428D01*
X125698571Y-126403190D01*
X125698571Y-126355571D01*
X125746190Y-126260333D01*
X125841428Y-126212714D01*
X125984285Y-126212714D01*
X126079523Y-126260333D01*
X126555714Y-126879380D02*
X126555714Y-126212714D01*
X126555714Y-125879380D02*
X126508095Y-125927000D01*
X126555714Y-125974619D01*
X126603333Y-125927000D01*
X126555714Y-125879380D01*
X126555714Y-125974619D01*
X127174761Y-126879380D02*
X127079523Y-126831761D01*
X127031904Y-126784142D01*
X126984285Y-126688904D01*
X126984285Y-126403190D01*
X127031904Y-126307952D01*
X127079523Y-126260333D01*
X127174761Y-126212714D01*
X127317619Y-126212714D01*
X127412857Y-126260333D01*
X127460476Y-126307952D01*
X127508095Y-126403190D01*
X127508095Y-126688904D01*
X127460476Y-126784142D01*
X127412857Y-126831761D01*
X127317619Y-126879380D01*
X127174761Y-126879380D01*
X127936666Y-126212714D02*
X127936666Y-126879380D01*
X127936666Y-126307952D02*
X127984285Y-126260333D01*
X128079523Y-126212714D01*
X128222380Y-126212714D01*
X128317619Y-126260333D01*
X128365238Y-126355571D01*
X128365238Y-126879380D01*
X129460476Y-125879380D02*
X130031904Y-125879380D01*
X129746190Y-126879380D02*
X129746190Y-125879380D01*
X130365238Y-126879380D02*
X130365238Y-126212714D01*
X130365238Y-126403190D02*
X130412857Y-126307952D01*
X130460476Y-126260333D01*
X130555714Y-126212714D01*
X130650952Y-126212714D01*
X131412857Y-126879380D02*
X131412857Y-126355571D01*
X131365238Y-126260333D01*
X131270000Y-126212714D01*
X131079523Y-126212714D01*
X130984285Y-126260333D01*
X131412857Y-126831761D02*
X131317619Y-126879380D01*
X131079523Y-126879380D01*
X130984285Y-126831761D01*
X130936666Y-126736523D01*
X130936666Y-126641285D01*
X130984285Y-126546047D01*
X131079523Y-126498428D01*
X131317619Y-126498428D01*
X131412857Y-126450809D01*
X131793809Y-126212714D02*
X132031904Y-126879380D01*
X132270000Y-126212714D01*
X133031904Y-126831761D02*
X132936666Y-126879380D01*
X132746190Y-126879380D01*
X132650952Y-126831761D01*
X132603333Y-126736523D01*
X132603333Y-126355571D01*
X132650952Y-126260333D01*
X132746190Y-126212714D01*
X132936666Y-126212714D01*
X133031904Y-126260333D01*
X133079523Y-126355571D01*
X133079523Y-126450809D01*
X132603333Y-126546047D01*
X133650952Y-126879380D02*
X133555714Y-126831761D01*
X133508095Y-126736523D01*
X133508095Y-125879380D01*
X134650952Y-125879380D02*
X134984285Y-126879380D01*
X135317619Y-125879380D01*
X135841428Y-125879380D02*
X135936666Y-125879380D01*
X136031904Y-125927000D01*
X136079523Y-125974619D01*
X136127142Y-126069857D01*
X136174761Y-126260333D01*
X136174761Y-126498428D01*
X136127142Y-126688904D01*
X136079523Y-126784142D01*
X136031904Y-126831761D01*
X135936666Y-126879380D01*
X135841428Y-126879380D01*
X135746190Y-126831761D01*
X135698571Y-126784142D01*
X135650952Y-126688904D01*
X135603333Y-126498428D01*
X135603333Y-126260333D01*
X135650952Y-126069857D01*
X135698571Y-125974619D01*
X135746190Y-125927000D01*
X135841428Y-125879380D01*
X151836380Y-122142095D02*
X150836380Y-122142095D01*
X150836380Y-121761142D01*
X150884000Y-121665904D01*
X150931619Y-121618285D01*
X151026857Y-121570666D01*
X151169714Y-121570666D01*
X151264952Y-121618285D01*
X151312571Y-121665904D01*
X151360190Y-121761142D01*
X151360190Y-122142095D01*
X151312571Y-120808761D02*
X151360190Y-120665904D01*
X151407809Y-120618285D01*
X151503047Y-120570666D01*
X151645904Y-120570666D01*
X151741142Y-120618285D01*
X151788761Y-120665904D01*
X151836380Y-120761142D01*
X151836380Y-121142095D01*
X150836380Y-121142095D01*
X150836380Y-120808761D01*
X150884000Y-120713523D01*
X150931619Y-120665904D01*
X151026857Y-120618285D01*
X151122095Y-120618285D01*
X151217333Y-120665904D01*
X151264952Y-120713523D01*
X151312571Y-120808761D01*
X151312571Y-121142095D01*
X150836380Y-120237333D02*
X150836380Y-119570666D01*
X151836380Y-119999238D01*
X149296380Y-122142095D02*
X148296380Y-122142095D01*
X148296380Y-121761142D01*
X148344000Y-121665904D01*
X148391619Y-121618285D01*
X148486857Y-121570666D01*
X148629714Y-121570666D01*
X148724952Y-121618285D01*
X148772571Y-121665904D01*
X148820190Y-121761142D01*
X148820190Y-122142095D01*
X148772571Y-120808761D02*
X148820190Y-120665904D01*
X148867809Y-120618285D01*
X148963047Y-120570666D01*
X149105904Y-120570666D01*
X149201142Y-120618285D01*
X149248761Y-120665904D01*
X149296380Y-120761142D01*
X149296380Y-121142095D01*
X148296380Y-121142095D01*
X148296380Y-120808761D01*
X148344000Y-120713523D01*
X148391619Y-120665904D01*
X148486857Y-120618285D01*
X148582095Y-120618285D01*
X148677333Y-120665904D01*
X148724952Y-120713523D01*
X148772571Y-120808761D01*
X148772571Y-121142095D01*
X148296380Y-119713523D02*
X148296380Y-119904000D01*
X148344000Y-119999238D01*
X148391619Y-120046857D01*
X148534476Y-120142095D01*
X148724952Y-120189714D01*
X149105904Y-120189714D01*
X149201142Y-120142095D01*
X149248761Y-120094476D01*
X149296380Y-119999238D01*
X149296380Y-119808761D01*
X149248761Y-119713523D01*
X149201142Y-119665904D01*
X149105904Y-119618285D01*
X148867809Y-119618285D01*
X148772571Y-119665904D01*
X148724952Y-119713523D01*
X148677333Y-119808761D01*
X148677333Y-119999238D01*
X148724952Y-120094476D01*
X148772571Y-120142095D01*
X148867809Y-120189714D01*
X146502380Y-122142095D02*
X145502380Y-122142095D01*
X145502380Y-121761142D01*
X145550000Y-121665904D01*
X145597619Y-121618285D01*
X145692857Y-121570666D01*
X145835714Y-121570666D01*
X145930952Y-121618285D01*
X145978571Y-121665904D01*
X146026190Y-121761142D01*
X146026190Y-122142095D01*
X145978571Y-120808761D02*
X146026190Y-120665904D01*
X146073809Y-120618285D01*
X146169047Y-120570666D01*
X146311904Y-120570666D01*
X146407142Y-120618285D01*
X146454761Y-120665904D01*
X146502380Y-120761142D01*
X146502380Y-121142095D01*
X145502380Y-121142095D01*
X145502380Y-120808761D01*
X145550000Y-120713523D01*
X145597619Y-120665904D01*
X145692857Y-120618285D01*
X145788095Y-120618285D01*
X145883333Y-120665904D01*
X145930952Y-120713523D01*
X145978571Y-120808761D01*
X145978571Y-121142095D01*
X145502380Y-119665904D02*
X145502380Y-120142095D01*
X145978571Y-120189714D01*
X145930952Y-120142095D01*
X145883333Y-120046857D01*
X145883333Y-119808761D01*
X145930952Y-119713523D01*
X145978571Y-119665904D01*
X146073809Y-119618285D01*
X146311904Y-119618285D01*
X146407142Y-119665904D01*
X146454761Y-119713523D01*
X146502380Y-119808761D01*
X146502380Y-120046857D01*
X146454761Y-120142095D01*
X146407142Y-120189714D01*
X136032952Y-97988380D02*
X135461523Y-97988380D01*
X135747238Y-97988380D02*
X135747238Y-96988380D01*
X135652000Y-97131238D01*
X135556761Y-97226476D01*
X135461523Y-97274095D01*
X136413904Y-97083619D02*
X136461523Y-97036000D01*
X136556761Y-96988380D01*
X136794857Y-96988380D01*
X136890095Y-97036000D01*
X136937714Y-97083619D01*
X136985333Y-97178857D01*
X136985333Y-97274095D01*
X136937714Y-97416952D01*
X136366285Y-97988380D01*
X136985333Y-97988380D01*
X137271047Y-96988380D02*
X137604380Y-97988380D01*
X137937714Y-96988380D01*
X113093523Y-84542380D02*
X112617333Y-84542380D01*
X112569714Y-85018571D01*
X112617333Y-84970952D01*
X112712571Y-84923333D01*
X112950666Y-84923333D01*
X113045904Y-84970952D01*
X113093523Y-85018571D01*
X113141142Y-85113809D01*
X113141142Y-85351904D01*
X113093523Y-85447142D01*
X113045904Y-85494761D01*
X112950666Y-85542380D01*
X112712571Y-85542380D01*
X112617333Y-85494761D01*
X112569714Y-85447142D01*
X113426857Y-84542380D02*
X113760190Y-85542380D01*
X114093523Y-84542380D01*
X135451800Y-83396600D02*
X135451800Y-78096600D01*
X120681800Y-83396600D02*
X120681800Y-78096600D01*
X135451800Y-83396600D02*
X120681800Y-83396600D01*
X135451800Y-78096600D02*
X120681800Y-78096600D01*
X115050700Y-86019000D02*
X115050700Y-91019000D01*
X106550700Y-86019000D02*
X115050700Y-86019000D01*
X106550700Y-91019000D02*
X106550700Y-86019000D01*
X115050700Y-91019000D02*
X106550700Y-91019000D01*
D11*
X117258200Y-96639000D02*
X117258200Y-95639000D01*
X115558200Y-95639000D02*
X115558200Y-96639000D01*
X123409200Y-90912500D02*
X125409200Y-90912500D01*
X125409200Y-93872500D02*
X123409200Y-93872500D01*
X117635580Y-100021280D02*
X116435580Y-100021280D01*
X116435580Y-98261280D02*
X117635580Y-98261280D01*
X120321780Y-98276520D02*
X121521780Y-98276520D01*
X121521780Y-100036520D02*
X120321780Y-100036520D01*
X120050000Y-84210000D02*
X121250000Y-84210000D01*
X121250000Y-85970000D02*
X120050000Y-85970000D01*
X121851800Y-90333920D02*
X116651800Y-90333920D01*
X116651800Y-86693920D02*
X121851800Y-86693920D01*
X121312400Y-97054200D02*
X121312400Y-95254200D01*
X118092400Y-95254200D02*
X118092400Y-97704200D01*
X111431700Y-95889000D02*
X113431700Y-95889000D01*
X113431700Y-93849000D02*
X111431700Y-93849000D01*
X111907700Y-93369500D02*
X112907700Y-93369500D01*
X112907700Y-91669500D02*
X111907700Y-91669500D01*
D12*
X128425700Y-95024500D02*
X129325700Y-93924500D01*
X130125700Y-95024500D02*
X128425700Y-95024500D01*
X129325700Y-93924500D02*
X130125700Y-95024500D01*
X130125700Y-93924500D02*
X128425700Y-93924500D01*
D11*
X130759200Y-91249500D02*
X128092200Y-91249500D01*
X128092200Y-91249500D02*
X128092200Y-94424500D01*
X130759200Y-91249500D02*
X130759200Y-94424500D01*
D13*
X116640000Y-85440000D02*
X116640000Y-85090000D01*
X116640000Y-85090000D02*
X116640000Y-84740000D01*
X116990000Y-85440000D02*
X116640000Y-85090000D01*
X116990000Y-85390000D02*
X116990000Y-85440000D01*
X116990000Y-85440000D02*
X116990000Y-85390000D01*
X116990000Y-84740000D02*
X116990000Y-85390000D01*
X116940000Y-84790000D02*
X116990000Y-84740000D01*
X116640000Y-85090000D02*
X116940000Y-84790000D01*
D11*
X115040000Y-84390000D02*
X115040000Y-85790000D01*
X115040000Y-85790000D02*
X117840000Y-85790000D01*
X115040000Y-84390000D02*
X117840000Y-84390000D01*
D13*
X134830000Y-98720000D02*
X134480000Y-98720000D01*
X134480000Y-98720000D02*
X134130000Y-98720000D01*
X134830000Y-98370000D02*
X134480000Y-98720000D01*
X134780000Y-98370000D02*
X134830000Y-98370000D01*
X134830000Y-98370000D02*
X134780000Y-98370000D01*
X134130000Y-98370000D02*
X134780000Y-98370000D01*
X134180000Y-98420000D02*
X134130000Y-98370000D01*
X134480000Y-98720000D02*
X134180000Y-98420000D01*
D11*
X133780000Y-100320000D02*
X135180000Y-100320000D01*
X135180000Y-100320000D02*
X135180000Y-97520000D01*
X133780000Y-100320000D02*
X133780000Y-97520000D01*
X123777640Y-95750000D02*
X123777640Y-96750000D01*
X125477640Y-96750000D02*
X125477640Y-95750000D01*
X123331700Y-95896721D02*
X123331700Y-96222279D01*
X122311700Y-95896721D02*
X122311700Y-96222279D01*
X126230000Y-86780000D02*
X125230000Y-86780000D01*
X125230000Y-88480000D02*
X126230000Y-88480000D01*
X123960000Y-85940000D02*
X124960000Y-85940000D01*
X124960000Y-84240000D02*
X123960000Y-84240000D01*
X141390000Y-104672000D02*
X141390000Y-105672000D01*
X143090000Y-105672000D02*
X143090000Y-104672000D01*
X140042000Y-93972000D02*
X140042000Y-92972000D01*
X138342000Y-92972000D02*
X138342000Y-93972000D01*
X141740000Y-91528000D02*
X142740000Y-91528000D01*
X142740000Y-89828000D02*
X141740000Y-89828000D01*
X139450000Y-101560000D02*
X139450000Y-99560000D01*
X137410000Y-99560000D02*
X137410000Y-101560000D01*
X145324600Y-116912800D02*
X145324600Y-114112800D01*
X146724600Y-116912800D02*
X146724600Y-114112800D01*
X145324600Y-116912800D02*
X146724600Y-116912800D01*
D13*
X146024600Y-115312800D02*
X145724600Y-115012800D01*
X145724600Y-115012800D02*
X145674600Y-114962800D01*
X145674600Y-114962800D02*
X146324600Y-114962800D01*
X146374600Y-114962800D02*
X146324600Y-114962800D01*
X146324600Y-114962800D02*
X146374600Y-114962800D01*
X146374600Y-114962800D02*
X146024600Y-115312800D01*
X146024600Y-115312800D02*
X145674600Y-115312800D01*
X146374600Y-115312800D02*
X146024600Y-115312800D01*
X149295600Y-115312800D02*
X148945600Y-115312800D01*
X148945600Y-115312800D02*
X148595600Y-115312800D01*
X149295600Y-114962800D02*
X148945600Y-115312800D01*
X149245600Y-114962800D02*
X149295600Y-114962800D01*
X149295600Y-114962800D02*
X149245600Y-114962800D01*
X148595600Y-114962800D02*
X149245600Y-114962800D01*
X148645600Y-115012800D02*
X148595600Y-114962800D01*
X148945600Y-115312800D02*
X148645600Y-115012800D01*
D11*
X148245600Y-116912800D02*
X149645600Y-116912800D01*
X149645600Y-116912800D02*
X149645600Y-114112800D01*
X148245600Y-116912800D02*
X148245600Y-114112800D01*
D13*
X151734000Y-115516000D02*
X151384000Y-115516000D01*
X151384000Y-115516000D02*
X151034000Y-115516000D01*
X151734000Y-115166000D02*
X151384000Y-115516000D01*
X151684000Y-115166000D02*
X151734000Y-115166000D01*
X151734000Y-115166000D02*
X151684000Y-115166000D01*
X151034000Y-115166000D02*
X151684000Y-115166000D01*
X151084000Y-115216000D02*
X151034000Y-115166000D01*
X151384000Y-115516000D02*
X151084000Y-115216000D01*
D11*
X150684000Y-117116000D02*
X152084000Y-117116000D01*
X152084000Y-117116000D02*
X152084000Y-114316000D01*
X150684000Y-117116000D02*
X150684000Y-114316000D01*
D10*
X155702000Y-90678000D02*
X155702000Y-85598000D01*
X155982000Y-93498000D02*
X154432000Y-93498000D01*
X153162000Y-93218000D02*
X153162000Y-90678000D01*
X153162000Y-90678000D02*
X155702000Y-90678000D01*
X155702000Y-85598000D02*
X150622000Y-85598000D01*
X150622000Y-85598000D02*
X150622000Y-90678000D01*
X155982000Y-93498000D02*
X155982000Y-91948000D01*
X150622000Y-93218000D02*
X153162000Y-93218000D01*
X150622000Y-90678000D02*
X150622000Y-93218000D01*
D11*
X139328000Y-105568000D02*
X139328000Y-104368000D01*
X141088000Y-104368000D02*
X141088000Y-105568000D01*
X130184000Y-87214000D02*
X130184000Y-86014000D01*
X131944000Y-86014000D02*
X131944000Y-87214000D01*
X141636000Y-108830000D02*
X140436000Y-108830000D01*
X140436000Y-107070000D02*
X141636000Y-107070000D01*
X137786000Y-81762000D02*
X137786000Y-82962000D01*
X136026000Y-82962000D02*
X136026000Y-81762000D01*
X145170000Y-112172000D02*
X145170000Y-110972000D01*
X146930000Y-110972000D02*
X146930000Y-112172000D01*
X147964000Y-112106000D02*
X147964000Y-110906000D01*
X149724000Y-110906000D02*
X149724000Y-112106000D01*
X152264000Y-110906000D02*
X152264000Y-112106000D01*
X150504000Y-112106000D02*
X150504000Y-110906000D01*
D10*
X137871000Y-89214400D02*
X137871000Y-89164400D01*
X133721000Y-89214400D02*
X133721000Y-89069400D01*
X133721000Y-84064400D02*
X133721000Y-84209400D01*
X137871000Y-84064400D02*
X137871000Y-84209400D01*
X137871000Y-89214400D02*
X133721000Y-89214400D01*
X137871000Y-84064400D02*
X133721000Y-84064400D01*
X137871000Y-89164400D02*
X139271000Y-89164400D01*
D14*
X151124548Y-100058039D02*
G75*
G03X151124548Y-100058039I-50801J0D01*
G01*
X153459414Y-100201724D02*
G75*
G03X153459414Y-100201724I-50800J0D01*
G01*
D10*
X152446524Y-100076000D02*
X152287425Y-99916901D01*
X147320000Y-105202524D02*
X147090190Y-104972714D01*
X142193476Y-100076000D02*
X142423286Y-100305810D01*
X147320000Y-94949476D02*
X147549810Y-95179286D01*
X152446524Y-100076000D02*
X152216714Y-100305810D01*
X147320000Y-94949476D02*
X147090190Y-95179286D01*
X142193476Y-100076000D02*
X142423286Y-99846190D01*
X147320000Y-105202524D02*
X147549810Y-104972714D01*
X152287425Y-99916901D02*
X153295052Y-98909274D01*
D13*
X140494000Y-91872000D02*
X142494000Y-91872000D01*
X140494000Y-91872000D02*
X140494000Y-93472000D01*
D11*
X133486000Y-95342000D02*
X133486000Y-94142000D01*
X135246000Y-94142000D02*
X135246000Y-95342000D01*
D10*
X119300666Y-78446380D02*
X119300666Y-79160666D01*
X119253047Y-79303523D01*
X119157809Y-79398761D01*
X119014952Y-79446380D01*
X118919714Y-79446380D01*
X119729238Y-78541619D02*
X119776857Y-78494000D01*
X119872095Y-78446380D01*
X120110190Y-78446380D01*
X120205428Y-78494000D01*
X120253047Y-78541619D01*
X120300666Y-78636857D01*
X120300666Y-78732095D01*
X120253047Y-78874952D01*
X119681619Y-79446380D01*
X120300666Y-79446380D01*
X136202752Y-79571838D02*
X136155133Y-79667076D01*
X136107514Y-79714695D01*
X136012276Y-79762314D01*
X135964657Y-79762314D01*
X135869419Y-79714695D01*
X135821800Y-79667076D01*
X135774180Y-79571838D01*
X135774180Y-79381361D01*
X135821800Y-79286123D01*
X135869419Y-79238504D01*
X135964657Y-79190885D01*
X136012276Y-79190885D01*
X136107514Y-79238504D01*
X136155133Y-79286123D01*
X136202752Y-79381361D01*
X136202752Y-79571838D01*
X136250371Y-79667076D01*
X136297990Y-79714695D01*
X136393228Y-79762314D01*
X136583704Y-79762314D01*
X136678942Y-79714695D01*
X136726561Y-79667076D01*
X136774180Y-79571838D01*
X136774180Y-79381361D01*
X136726561Y-79286123D01*
X136678942Y-79238504D01*
X136583704Y-79190885D01*
X136393228Y-79190885D01*
X136297990Y-79238504D01*
X136250371Y-79286123D01*
X136202752Y-79381361D01*
X120264180Y-81730885D02*
X120264180Y-82302314D01*
X120264180Y-82016600D02*
X119264180Y-82016600D01*
X119407038Y-82111838D01*
X119502276Y-82207076D01*
X119549895Y-82302314D01*
X100007380Y-88827142D02*
X99959761Y-88874761D01*
X99816904Y-88922380D01*
X99721666Y-88922380D01*
X99578809Y-88874761D01*
X99483571Y-88779523D01*
X99435952Y-88684285D01*
X99388333Y-88493809D01*
X99388333Y-88350952D01*
X99435952Y-88160476D01*
X99483571Y-88065238D01*
X99578809Y-87970000D01*
X99721666Y-87922380D01*
X99816904Y-87922380D01*
X99959761Y-87970000D01*
X100007380Y-88017619D01*
X100626428Y-87922380D02*
X100816904Y-87922380D01*
X100912142Y-87970000D01*
X101007380Y-88065238D01*
X101055000Y-88255714D01*
X101055000Y-88589047D01*
X101007380Y-88779523D01*
X100912142Y-88874761D01*
X100816904Y-88922380D01*
X100626428Y-88922380D01*
X100531190Y-88874761D01*
X100435952Y-88779523D01*
X100388333Y-88589047D01*
X100388333Y-88255714D01*
X100435952Y-88065238D01*
X100531190Y-87970000D01*
X100626428Y-87922380D01*
X101483571Y-87922380D02*
X101483571Y-88731904D01*
X101531190Y-88827142D01*
X101578809Y-88874761D01*
X101674047Y-88922380D01*
X101864523Y-88922380D01*
X101959761Y-88874761D01*
X102007380Y-88827142D01*
X102055000Y-88731904D01*
X102055000Y-87922380D01*
X102388333Y-87922380D02*
X102959761Y-87922380D01*
X102674047Y-88922380D02*
X102674047Y-87922380D01*
X103816904Y-88922380D02*
X103245476Y-88922380D01*
X103531190Y-88922380D02*
X103531190Y-87922380D01*
X103435952Y-88065238D01*
X103340714Y-88160476D01*
X103245476Y-88208095D01*
X104435952Y-87922380D02*
X104531190Y-87922380D01*
X104626428Y-87970000D01*
X104674047Y-88017619D01*
X104721666Y-88112857D01*
X104769285Y-88303333D01*
X104769285Y-88541428D01*
X104721666Y-88731904D01*
X104674047Y-88827142D01*
X104626428Y-88874761D01*
X104531190Y-88922380D01*
X104435952Y-88922380D01*
X104340714Y-88874761D01*
X104293095Y-88827142D01*
X104245476Y-88731904D01*
X104197857Y-88541428D01*
X104197857Y-88303333D01*
X104245476Y-88112857D01*
X104293095Y-88017619D01*
X104340714Y-87970000D01*
X104435952Y-87922380D01*
X105150238Y-88017619D02*
X105197857Y-87970000D01*
X105293095Y-87922380D01*
X105531190Y-87922380D01*
X105626428Y-87970000D01*
X105674047Y-88017619D01*
X105721666Y-88112857D01*
X105721666Y-88208095D01*
X105674047Y-88350952D01*
X105102619Y-88922380D01*
X105721666Y-88922380D01*
X115739971Y-94194285D02*
X115711400Y-94222857D01*
X115625685Y-94251428D01*
X115568542Y-94251428D01*
X115482828Y-94222857D01*
X115425685Y-94165714D01*
X115397114Y-94108571D01*
X115368542Y-93994285D01*
X115368542Y-93908571D01*
X115397114Y-93794285D01*
X115425685Y-93737142D01*
X115482828Y-93680000D01*
X115568542Y-93651428D01*
X115625685Y-93651428D01*
X115711400Y-93680000D01*
X115739971Y-93708571D01*
X116311400Y-94251428D02*
X115968542Y-94251428D01*
X116139971Y-94251428D02*
X116139971Y-93651428D01*
X116082828Y-93737142D01*
X116025685Y-93794285D01*
X115968542Y-93822857D01*
X116682828Y-93651428D02*
X116739971Y-93651428D01*
X116797114Y-93680000D01*
X116825685Y-93708571D01*
X116854257Y-93765714D01*
X116882828Y-93880000D01*
X116882828Y-94022857D01*
X116854257Y-94137142D01*
X116825685Y-94194285D01*
X116797114Y-94222857D01*
X116739971Y-94251428D01*
X116682828Y-94251428D01*
X116625685Y-94222857D01*
X116597114Y-94194285D01*
X116568542Y-94137142D01*
X116539971Y-94022857D01*
X116539971Y-93880000D01*
X116568542Y-93765714D01*
X116597114Y-93708571D01*
X116625685Y-93680000D01*
X116682828Y-93651428D01*
X117082828Y-93651428D02*
X117454257Y-93651428D01*
X117254257Y-93880000D01*
X117339971Y-93880000D01*
X117397114Y-93908571D01*
X117425685Y-93937142D01*
X117454257Y-93994285D01*
X117454257Y-94137142D01*
X117425685Y-94194285D01*
X117397114Y-94222857D01*
X117339971Y-94251428D01*
X117168542Y-94251428D01*
X117111400Y-94222857D01*
X117082828Y-94194285D01*
X127238285Y-90352571D02*
X126904952Y-90352571D01*
X126904952Y-90876380D02*
X126904952Y-89876380D01*
X127381142Y-89876380D01*
X128285904Y-90876380D02*
X127714476Y-90876380D01*
X128000190Y-90876380D02*
X128000190Y-89876380D01*
X127904952Y-90019238D01*
X127809714Y-90114476D01*
X127714476Y-90162095D01*
X128904952Y-89876380D02*
X129000190Y-89876380D01*
X129095428Y-89924000D01*
X129143047Y-89971619D01*
X129190666Y-90066857D01*
X129238285Y-90257333D01*
X129238285Y-90495428D01*
X129190666Y-90685904D01*
X129143047Y-90781142D01*
X129095428Y-90828761D01*
X129000190Y-90876380D01*
X128904952Y-90876380D01*
X128809714Y-90828761D01*
X128762095Y-90781142D01*
X128714476Y-90685904D01*
X128666857Y-90495428D01*
X128666857Y-90257333D01*
X128714476Y-90066857D01*
X128762095Y-89971619D01*
X128809714Y-89924000D01*
X128904952Y-89876380D01*
X130190666Y-90876380D02*
X129619238Y-90876380D01*
X129904952Y-90876380D02*
X129904952Y-89876380D01*
X129809714Y-90019238D01*
X129714476Y-90114476D01*
X129619238Y-90162095D01*
X120282380Y-93589047D02*
X120282380Y-94065238D01*
X119282380Y-94065238D01*
X120282380Y-92731904D02*
X120282380Y-93303333D01*
X120282380Y-93017619D02*
X119282380Y-93017619D01*
X119425238Y-93112857D01*
X119520476Y-93208095D01*
X119568095Y-93303333D01*
X119282380Y-92112857D02*
X119282380Y-92017619D01*
X119330000Y-91922380D01*
X119377619Y-91874761D01*
X119472857Y-91827142D01*
X119663333Y-91779523D01*
X119901428Y-91779523D01*
X120091904Y-91827142D01*
X120187142Y-91874761D01*
X120234761Y-91922380D01*
X120282380Y-92017619D01*
X120282380Y-92112857D01*
X120234761Y-92208095D01*
X120187142Y-92255714D01*
X120091904Y-92303333D01*
X119901428Y-92350952D01*
X119663333Y-92350952D01*
X119472857Y-92303333D01*
X119377619Y-92255714D01*
X119330000Y-92208095D01*
X119282380Y-92112857D01*
X120282380Y-90827142D02*
X120282380Y-91398571D01*
X120282380Y-91112857D02*
X119282380Y-91112857D01*
X119425238Y-91208095D01*
X119520476Y-91303333D01*
X119568095Y-91398571D01*
X117457380Y-103639047D02*
X116981190Y-103972380D01*
X117457380Y-104210476D02*
X116457380Y-104210476D01*
X116457380Y-103829523D01*
X116505000Y-103734285D01*
X116552619Y-103686666D01*
X116647857Y-103639047D01*
X116790714Y-103639047D01*
X116885952Y-103686666D01*
X116933571Y-103734285D01*
X116981190Y-103829523D01*
X116981190Y-104210476D01*
X117457380Y-102686666D02*
X117457380Y-103258095D01*
X117457380Y-102972380D02*
X116457380Y-102972380D01*
X116600238Y-103067619D01*
X116695476Y-103162857D01*
X116743095Y-103258095D01*
X116457380Y-102067619D02*
X116457380Y-101972380D01*
X116505000Y-101877142D01*
X116552619Y-101829523D01*
X116647857Y-101781904D01*
X116838333Y-101734285D01*
X117076428Y-101734285D01*
X117266904Y-101781904D01*
X117362142Y-101829523D01*
X117409761Y-101877142D01*
X117457380Y-101972380D01*
X117457380Y-102067619D01*
X117409761Y-102162857D01*
X117362142Y-102210476D01*
X117266904Y-102258095D01*
X117076428Y-102305714D01*
X116838333Y-102305714D01*
X116647857Y-102258095D01*
X116552619Y-102210476D01*
X116505000Y-102162857D01*
X116457380Y-102067619D01*
X116457380Y-101400952D02*
X116457380Y-100781904D01*
X116838333Y-101115238D01*
X116838333Y-100972380D01*
X116885952Y-100877142D01*
X116933571Y-100829523D01*
X117028809Y-100781904D01*
X117266904Y-100781904D01*
X117362142Y-100829523D01*
X117409761Y-100877142D01*
X117457380Y-100972380D01*
X117457380Y-101258095D01*
X117409761Y-101353333D01*
X117362142Y-101400952D01*
X121307380Y-103589047D02*
X120831190Y-103922380D01*
X121307380Y-104160476D02*
X120307380Y-104160476D01*
X120307380Y-103779523D01*
X120355000Y-103684285D01*
X120402619Y-103636666D01*
X120497857Y-103589047D01*
X120640714Y-103589047D01*
X120735952Y-103636666D01*
X120783571Y-103684285D01*
X120831190Y-103779523D01*
X120831190Y-104160476D01*
X121307380Y-102636666D02*
X121307380Y-103208095D01*
X121307380Y-102922380D02*
X120307380Y-102922380D01*
X120450238Y-103017619D01*
X120545476Y-103112857D01*
X120593095Y-103208095D01*
X120307380Y-102017619D02*
X120307380Y-101922380D01*
X120355000Y-101827142D01*
X120402619Y-101779523D01*
X120497857Y-101731904D01*
X120688333Y-101684285D01*
X120926428Y-101684285D01*
X121116904Y-101731904D01*
X121212142Y-101779523D01*
X121259761Y-101827142D01*
X121307380Y-101922380D01*
X121307380Y-102017619D01*
X121259761Y-102112857D01*
X121212142Y-102160476D01*
X121116904Y-102208095D01*
X120926428Y-102255714D01*
X120688333Y-102255714D01*
X120497857Y-102208095D01*
X120402619Y-102160476D01*
X120355000Y-102112857D01*
X120307380Y-102017619D01*
X120402619Y-101303333D02*
X120355000Y-101255714D01*
X120307380Y-101160476D01*
X120307380Y-100922380D01*
X120355000Y-100827142D01*
X120402619Y-100779523D01*
X120497857Y-100731904D01*
X120593095Y-100731904D01*
X120735952Y-100779523D01*
X121307380Y-101350952D01*
X121307380Y-100731904D01*
X117498952Y-83764380D02*
X117165619Y-83288190D01*
X116927523Y-83764380D02*
X116927523Y-82764380D01*
X117308476Y-82764380D01*
X117403714Y-82812000D01*
X117451333Y-82859619D01*
X117498952Y-82954857D01*
X117498952Y-83097714D01*
X117451333Y-83192952D01*
X117403714Y-83240571D01*
X117308476Y-83288190D01*
X116927523Y-83288190D01*
X118451333Y-83764380D02*
X117879904Y-83764380D01*
X118165619Y-83764380D02*
X118165619Y-82764380D01*
X118070380Y-82907238D01*
X117975142Y-83002476D01*
X117879904Y-83050095D01*
X119070380Y-82764380D02*
X119165619Y-82764380D01*
X119260857Y-82812000D01*
X119308476Y-82859619D01*
X119356095Y-82954857D01*
X119403714Y-83145333D01*
X119403714Y-83383428D01*
X119356095Y-83573904D01*
X119308476Y-83669142D01*
X119260857Y-83716761D01*
X119165619Y-83764380D01*
X119070380Y-83764380D01*
X118975142Y-83716761D01*
X118927523Y-83669142D01*
X118879904Y-83573904D01*
X118832285Y-83383428D01*
X118832285Y-83145333D01*
X118879904Y-82954857D01*
X118927523Y-82859619D01*
X118975142Y-82812000D01*
X119070380Y-82764380D01*
X120308476Y-82764380D02*
X119832285Y-82764380D01*
X119784666Y-83240571D01*
X119832285Y-83192952D01*
X119927523Y-83145333D01*
X120165619Y-83145333D01*
X120260857Y-83192952D01*
X120308476Y-83240571D01*
X120356095Y-83335809D01*
X120356095Y-83573904D01*
X120308476Y-83669142D01*
X120260857Y-83716761D01*
X120165619Y-83764380D01*
X119927523Y-83764380D01*
X119832285Y-83716761D01*
X119784666Y-83669142D01*
X123848952Y-89860380D02*
X123515619Y-89384190D01*
X123277523Y-89860380D02*
X123277523Y-88860380D01*
X123658476Y-88860380D01*
X123753714Y-88908000D01*
X123801333Y-88955619D01*
X123848952Y-89050857D01*
X123848952Y-89193714D01*
X123801333Y-89288952D01*
X123753714Y-89336571D01*
X123658476Y-89384190D01*
X123277523Y-89384190D01*
X124801333Y-89860380D02*
X124229904Y-89860380D01*
X124515619Y-89860380D02*
X124515619Y-88860380D01*
X124420380Y-89003238D01*
X124325142Y-89098476D01*
X124229904Y-89146095D01*
X125420380Y-88860380D02*
X125515619Y-88860380D01*
X125610857Y-88908000D01*
X125658476Y-88955619D01*
X125706095Y-89050857D01*
X125753714Y-89241333D01*
X125753714Y-89479428D01*
X125706095Y-89669904D01*
X125658476Y-89765142D01*
X125610857Y-89812761D01*
X125515619Y-89860380D01*
X125420380Y-89860380D01*
X125325142Y-89812761D01*
X125277523Y-89765142D01*
X125229904Y-89669904D01*
X125182285Y-89479428D01*
X125182285Y-89241333D01*
X125229904Y-89050857D01*
X125277523Y-88955619D01*
X125325142Y-88908000D01*
X125420380Y-88860380D01*
X126610857Y-89193714D02*
X126610857Y-89860380D01*
X126372761Y-88812761D02*
X126134666Y-89527047D01*
X126753714Y-89527047D01*
X120707380Y-94059285D02*
X121516904Y-94059285D01*
X121612142Y-94011666D01*
X121659761Y-93964047D01*
X121707380Y-93868809D01*
X121707380Y-93678333D01*
X121659761Y-93583095D01*
X121612142Y-93535476D01*
X121516904Y-93487857D01*
X120707380Y-93487857D01*
X121707380Y-92487857D02*
X121707380Y-93059285D01*
X121707380Y-92773571D02*
X120707380Y-92773571D01*
X120850238Y-92868809D01*
X120945476Y-92964047D01*
X120993095Y-93059285D01*
X120707380Y-91868809D02*
X120707380Y-91773571D01*
X120755000Y-91678333D01*
X120802619Y-91630714D01*
X120897857Y-91583095D01*
X121088333Y-91535476D01*
X121326428Y-91535476D01*
X121516904Y-91583095D01*
X121612142Y-91630714D01*
X121659761Y-91678333D01*
X121707380Y-91773571D01*
X121707380Y-91868809D01*
X121659761Y-91964047D01*
X121612142Y-92011666D01*
X121516904Y-92059285D01*
X121326428Y-92106904D01*
X121088333Y-92106904D01*
X120897857Y-92059285D01*
X120802619Y-92011666D01*
X120755000Y-91964047D01*
X120707380Y-91868809D01*
X121707380Y-90583095D02*
X121707380Y-91154523D01*
X121707380Y-90868809D02*
X120707380Y-90868809D01*
X120850238Y-90964047D01*
X120945476Y-91059285D01*
X120993095Y-91154523D01*
X103757380Y-95227142D02*
X103709761Y-95274761D01*
X103566904Y-95322380D01*
X103471666Y-95322380D01*
X103328809Y-95274761D01*
X103233571Y-95179523D01*
X103185952Y-95084285D01*
X103138333Y-94893809D01*
X103138333Y-94750952D01*
X103185952Y-94560476D01*
X103233571Y-94465238D01*
X103328809Y-94370000D01*
X103471666Y-94322380D01*
X103566904Y-94322380D01*
X103709761Y-94370000D01*
X103757380Y-94417619D01*
X104376428Y-94322380D02*
X104566904Y-94322380D01*
X104662142Y-94370000D01*
X104757380Y-94465238D01*
X104805000Y-94655714D01*
X104805000Y-94989047D01*
X104757380Y-95179523D01*
X104662142Y-95274761D01*
X104566904Y-95322380D01*
X104376428Y-95322380D01*
X104281190Y-95274761D01*
X104185952Y-95179523D01*
X104138333Y-94989047D01*
X104138333Y-94655714D01*
X104185952Y-94465238D01*
X104281190Y-94370000D01*
X104376428Y-94322380D01*
X105233571Y-94322380D02*
X105233571Y-95131904D01*
X105281190Y-95227142D01*
X105328809Y-95274761D01*
X105424047Y-95322380D01*
X105614523Y-95322380D01*
X105709761Y-95274761D01*
X105757380Y-95227142D01*
X105805000Y-95131904D01*
X105805000Y-94322380D01*
X106138333Y-94322380D02*
X106709761Y-94322380D01*
X106424047Y-95322380D02*
X106424047Y-94322380D01*
X107566904Y-95322380D02*
X106995476Y-95322380D01*
X107281190Y-95322380D02*
X107281190Y-94322380D01*
X107185952Y-94465238D01*
X107090714Y-94560476D01*
X106995476Y-94608095D01*
X108185952Y-94322380D02*
X108281190Y-94322380D01*
X108376428Y-94370000D01*
X108424047Y-94417619D01*
X108471666Y-94512857D01*
X108519285Y-94703333D01*
X108519285Y-94941428D01*
X108471666Y-95131904D01*
X108424047Y-95227142D01*
X108376428Y-95274761D01*
X108281190Y-95322380D01*
X108185952Y-95322380D01*
X108090714Y-95274761D01*
X108043095Y-95227142D01*
X107995476Y-95131904D01*
X107947857Y-94941428D01*
X107947857Y-94703333D01*
X107995476Y-94512857D01*
X108043095Y-94417619D01*
X108090714Y-94370000D01*
X108185952Y-94322380D01*
X109471666Y-95322380D02*
X108900238Y-95322380D01*
X109185952Y-95322380D02*
X109185952Y-94322380D01*
X109090714Y-94465238D01*
X108995476Y-94560476D01*
X108900238Y-94608095D01*
X103982380Y-92877142D02*
X103934761Y-92924761D01*
X103791904Y-92972380D01*
X103696666Y-92972380D01*
X103553809Y-92924761D01*
X103458571Y-92829523D01*
X103410952Y-92734285D01*
X103363333Y-92543809D01*
X103363333Y-92400952D01*
X103410952Y-92210476D01*
X103458571Y-92115238D01*
X103553809Y-92020000D01*
X103696666Y-91972380D01*
X103791904Y-91972380D01*
X103934761Y-92020000D01*
X103982380Y-92067619D01*
X104601428Y-91972380D02*
X104791904Y-91972380D01*
X104887142Y-92020000D01*
X104982380Y-92115238D01*
X105030000Y-92305714D01*
X105030000Y-92639047D01*
X104982380Y-92829523D01*
X104887142Y-92924761D01*
X104791904Y-92972380D01*
X104601428Y-92972380D01*
X104506190Y-92924761D01*
X104410952Y-92829523D01*
X104363333Y-92639047D01*
X104363333Y-92305714D01*
X104410952Y-92115238D01*
X104506190Y-92020000D01*
X104601428Y-91972380D01*
X105458571Y-91972380D02*
X105458571Y-92781904D01*
X105506190Y-92877142D01*
X105553809Y-92924761D01*
X105649047Y-92972380D01*
X105839523Y-92972380D01*
X105934761Y-92924761D01*
X105982380Y-92877142D01*
X106030000Y-92781904D01*
X106030000Y-91972380D01*
X106363333Y-91972380D02*
X106934761Y-91972380D01*
X106649047Y-92972380D02*
X106649047Y-91972380D01*
X107791904Y-92972380D02*
X107220476Y-92972380D01*
X107506190Y-92972380D02*
X107506190Y-91972380D01*
X107410952Y-92115238D01*
X107315714Y-92210476D01*
X107220476Y-92258095D01*
X108410952Y-91972380D02*
X108506190Y-91972380D01*
X108601428Y-92020000D01*
X108649047Y-92067619D01*
X108696666Y-92162857D01*
X108744285Y-92353333D01*
X108744285Y-92591428D01*
X108696666Y-92781904D01*
X108649047Y-92877142D01*
X108601428Y-92924761D01*
X108506190Y-92972380D01*
X108410952Y-92972380D01*
X108315714Y-92924761D01*
X108268095Y-92877142D01*
X108220476Y-92781904D01*
X108172857Y-92591428D01*
X108172857Y-92353333D01*
X108220476Y-92162857D01*
X108268095Y-92067619D01*
X108315714Y-92020000D01*
X108410952Y-91972380D01*
X109077619Y-91972380D02*
X109696666Y-91972380D01*
X109363333Y-92353333D01*
X109506190Y-92353333D01*
X109601428Y-92400952D01*
X109649047Y-92448571D01*
X109696666Y-92543809D01*
X109696666Y-92781904D01*
X109649047Y-92877142D01*
X109601428Y-92924761D01*
X109506190Y-92972380D01*
X109220476Y-92972380D01*
X109125238Y-92924761D01*
X109077619Y-92877142D01*
X129757380Y-101835476D02*
X128757380Y-101835476D01*
X128757380Y-101597380D01*
X128805000Y-101454523D01*
X128900238Y-101359285D01*
X128995476Y-101311666D01*
X129185952Y-101264047D01*
X129328809Y-101264047D01*
X129519285Y-101311666D01*
X129614523Y-101359285D01*
X129709761Y-101454523D01*
X129757380Y-101597380D01*
X129757380Y-101835476D01*
X129757380Y-100311666D02*
X129757380Y-100883095D01*
X129757380Y-100597380D02*
X128757380Y-100597380D01*
X128900238Y-100692619D01*
X128995476Y-100787857D01*
X129043095Y-100883095D01*
X128757380Y-99692619D02*
X128757380Y-99597380D01*
X128805000Y-99502142D01*
X128852619Y-99454523D01*
X128947857Y-99406904D01*
X129138333Y-99359285D01*
X129376428Y-99359285D01*
X129566904Y-99406904D01*
X129662142Y-99454523D01*
X129709761Y-99502142D01*
X129757380Y-99597380D01*
X129757380Y-99692619D01*
X129709761Y-99787857D01*
X129662142Y-99835476D01*
X129566904Y-99883095D01*
X129376428Y-99930714D01*
X129138333Y-99930714D01*
X128947857Y-99883095D01*
X128852619Y-99835476D01*
X128805000Y-99787857D01*
X128757380Y-99692619D01*
X129757380Y-98406904D02*
X129757380Y-98978333D01*
X129757380Y-98692619D02*
X128757380Y-98692619D01*
X128900238Y-98787857D01*
X128995476Y-98883095D01*
X129043095Y-98978333D01*
X111085523Y-84018380D02*
X111085523Y-83018380D01*
X111323619Y-83018380D01*
X111466476Y-83066000D01*
X111561714Y-83161238D01*
X111609333Y-83256476D01*
X111656952Y-83446952D01*
X111656952Y-83589809D01*
X111609333Y-83780285D01*
X111561714Y-83875523D01*
X111466476Y-83970761D01*
X111323619Y-84018380D01*
X111085523Y-84018380D01*
X112609333Y-84018380D02*
X112037904Y-84018380D01*
X112323619Y-84018380D02*
X112323619Y-83018380D01*
X112228380Y-83161238D01*
X112133142Y-83256476D01*
X112037904Y-83304095D01*
X113228380Y-83018380D02*
X113323619Y-83018380D01*
X113418857Y-83066000D01*
X113466476Y-83113619D01*
X113514095Y-83208857D01*
X113561714Y-83399333D01*
X113561714Y-83637428D01*
X113514095Y-83827904D01*
X113466476Y-83923142D01*
X113418857Y-83970761D01*
X113323619Y-84018380D01*
X113228380Y-84018380D01*
X113133142Y-83970761D01*
X113085523Y-83923142D01*
X113037904Y-83827904D01*
X112990285Y-83637428D01*
X112990285Y-83399333D01*
X113037904Y-83208857D01*
X113085523Y-83113619D01*
X113133142Y-83066000D01*
X113228380Y-83018380D01*
X113895047Y-83018380D02*
X114514095Y-83018380D01*
X114180761Y-83399333D01*
X114323619Y-83399333D01*
X114418857Y-83446952D01*
X114466476Y-83494571D01*
X114514095Y-83589809D01*
X114514095Y-83827904D01*
X114466476Y-83923142D01*
X114418857Y-83970761D01*
X114323619Y-84018380D01*
X114037904Y-84018380D01*
X113942666Y-83970761D01*
X113895047Y-83923142D01*
X134882380Y-104485476D02*
X133882380Y-104485476D01*
X133882380Y-104247380D01*
X133930000Y-104104523D01*
X134025238Y-104009285D01*
X134120476Y-103961666D01*
X134310952Y-103914047D01*
X134453809Y-103914047D01*
X134644285Y-103961666D01*
X134739523Y-104009285D01*
X134834761Y-104104523D01*
X134882380Y-104247380D01*
X134882380Y-104485476D01*
X134882380Y-102961666D02*
X134882380Y-103533095D01*
X134882380Y-103247380D02*
X133882380Y-103247380D01*
X134025238Y-103342619D01*
X134120476Y-103437857D01*
X134168095Y-103533095D01*
X133882380Y-102342619D02*
X133882380Y-102247380D01*
X133930000Y-102152142D01*
X133977619Y-102104523D01*
X134072857Y-102056904D01*
X134263333Y-102009285D01*
X134501428Y-102009285D01*
X134691904Y-102056904D01*
X134787142Y-102104523D01*
X134834761Y-102152142D01*
X134882380Y-102247380D01*
X134882380Y-102342619D01*
X134834761Y-102437857D01*
X134787142Y-102485476D01*
X134691904Y-102533095D01*
X134501428Y-102580714D01*
X134263333Y-102580714D01*
X134072857Y-102533095D01*
X133977619Y-102485476D01*
X133930000Y-102437857D01*
X133882380Y-102342619D01*
X133977619Y-101628333D02*
X133930000Y-101580714D01*
X133882380Y-101485476D01*
X133882380Y-101247380D01*
X133930000Y-101152142D01*
X133977619Y-101104523D01*
X134072857Y-101056904D01*
X134168095Y-101056904D01*
X134310952Y-101104523D01*
X134882380Y-101675952D01*
X134882380Y-101056904D01*
X125071142Y-101433047D02*
X125118761Y-101480666D01*
X125166380Y-101623523D01*
X125166380Y-101718761D01*
X125118761Y-101861619D01*
X125023523Y-101956857D01*
X124928285Y-102004476D01*
X124737809Y-102052095D01*
X124594952Y-102052095D01*
X124404476Y-102004476D01*
X124309238Y-101956857D01*
X124214000Y-101861619D01*
X124166380Y-101718761D01*
X124166380Y-101623523D01*
X124214000Y-101480666D01*
X124261619Y-101433047D01*
X125166380Y-100480666D02*
X125166380Y-101052095D01*
X125166380Y-100766380D02*
X124166380Y-100766380D01*
X124309238Y-100861619D01*
X124404476Y-100956857D01*
X124452095Y-101052095D01*
X124166380Y-99861619D02*
X124166380Y-99766380D01*
X124214000Y-99671142D01*
X124261619Y-99623523D01*
X124356857Y-99575904D01*
X124547333Y-99528285D01*
X124785428Y-99528285D01*
X124975904Y-99575904D01*
X125071142Y-99623523D01*
X125118761Y-99671142D01*
X125166380Y-99766380D01*
X125166380Y-99861619D01*
X125118761Y-99956857D01*
X125071142Y-100004476D01*
X124975904Y-100052095D01*
X124785428Y-100099714D01*
X124547333Y-100099714D01*
X124356857Y-100052095D01*
X124261619Y-100004476D01*
X124214000Y-99956857D01*
X124166380Y-99861619D01*
X125166380Y-98575904D02*
X125166380Y-99147333D01*
X125166380Y-98861619D02*
X124166380Y-98861619D01*
X124309238Y-98956857D01*
X124404476Y-99052095D01*
X124452095Y-99147333D01*
X123293142Y-100687047D02*
X123340761Y-100734666D01*
X123388380Y-100877523D01*
X123388380Y-100972761D01*
X123340761Y-101115619D01*
X123245523Y-101210857D01*
X123150285Y-101258476D01*
X122959809Y-101306095D01*
X122816952Y-101306095D01*
X122626476Y-101258476D01*
X122531238Y-101210857D01*
X122436000Y-101115619D01*
X122388380Y-100972761D01*
X122388380Y-100877523D01*
X122436000Y-100734666D01*
X122483619Y-100687047D01*
X123388380Y-99734666D02*
X123388380Y-100306095D01*
X123388380Y-100020380D02*
X122388380Y-100020380D01*
X122531238Y-100115619D01*
X122626476Y-100210857D01*
X122674095Y-100306095D01*
X122388380Y-99115619D02*
X122388380Y-99020380D01*
X122436000Y-98925142D01*
X122483619Y-98877523D01*
X122578857Y-98829904D01*
X122769333Y-98782285D01*
X123007428Y-98782285D01*
X123197904Y-98829904D01*
X123293142Y-98877523D01*
X123340761Y-98925142D01*
X123388380Y-99020380D01*
X123388380Y-99115619D01*
X123340761Y-99210857D01*
X123293142Y-99258476D01*
X123197904Y-99306095D01*
X123007428Y-99353714D01*
X122769333Y-99353714D01*
X122578857Y-99306095D01*
X122483619Y-99258476D01*
X122436000Y-99210857D01*
X122388380Y-99115619D01*
X122483619Y-98401333D02*
X122436000Y-98353714D01*
X122388380Y-98258476D01*
X122388380Y-98020380D01*
X122436000Y-97925142D01*
X122483619Y-97877523D01*
X122578857Y-97829904D01*
X122674095Y-97829904D01*
X122816952Y-97877523D01*
X123388380Y-98448952D01*
X123388380Y-97829904D01*
X127087333Y-86209142D02*
X127039714Y-86256761D01*
X126896857Y-86304380D01*
X126801619Y-86304380D01*
X126658761Y-86256761D01*
X126563523Y-86161523D01*
X126515904Y-86066285D01*
X126468285Y-85875809D01*
X126468285Y-85732952D01*
X126515904Y-85542476D01*
X126563523Y-85447238D01*
X126658761Y-85352000D01*
X126801619Y-85304380D01*
X126896857Y-85304380D01*
X127039714Y-85352000D01*
X127087333Y-85399619D01*
X128039714Y-86304380D02*
X127468285Y-86304380D01*
X127754000Y-86304380D02*
X127754000Y-85304380D01*
X127658761Y-85447238D01*
X127563523Y-85542476D01*
X127468285Y-85590095D01*
X127087333Y-84685142D02*
X127039714Y-84732761D01*
X126896857Y-84780380D01*
X126801619Y-84780380D01*
X126658761Y-84732761D01*
X126563523Y-84637523D01*
X126515904Y-84542285D01*
X126468285Y-84351809D01*
X126468285Y-84208952D01*
X126515904Y-84018476D01*
X126563523Y-83923238D01*
X126658761Y-83828000D01*
X126801619Y-83780380D01*
X126896857Y-83780380D01*
X127039714Y-83828000D01*
X127087333Y-83875619D01*
X127468285Y-83875619D02*
X127515904Y-83828000D01*
X127611142Y-83780380D01*
X127849238Y-83780380D01*
X127944476Y-83828000D01*
X127992095Y-83875619D01*
X128039714Y-83970857D01*
X128039714Y-84066095D01*
X127992095Y-84208952D01*
X127420666Y-84780380D01*
X128039714Y-84780380D01*
X144375142Y-106084666D02*
X144422761Y-106132285D01*
X144470380Y-106275142D01*
X144470380Y-106370380D01*
X144422761Y-106513238D01*
X144327523Y-106608476D01*
X144232285Y-106656095D01*
X144041809Y-106703714D01*
X143898952Y-106703714D01*
X143708476Y-106656095D01*
X143613238Y-106608476D01*
X143518000Y-106513238D01*
X143470380Y-106370380D01*
X143470380Y-106275142D01*
X143518000Y-106132285D01*
X143565619Y-106084666D01*
X143470380Y-105751333D02*
X143470380Y-105132285D01*
X143851333Y-105465619D01*
X143851333Y-105322761D01*
X143898952Y-105227523D01*
X143946571Y-105179904D01*
X144041809Y-105132285D01*
X144279904Y-105132285D01*
X144375142Y-105179904D01*
X144422761Y-105227523D01*
X144470380Y-105322761D01*
X144470380Y-105608476D01*
X144422761Y-105703714D01*
X144375142Y-105751333D01*
X138049142Y-93638666D02*
X138096761Y-93686285D01*
X138144380Y-93829142D01*
X138144380Y-93924380D01*
X138096761Y-94067238D01*
X138001523Y-94162476D01*
X137906285Y-94210095D01*
X137715809Y-94257714D01*
X137572952Y-94257714D01*
X137382476Y-94210095D01*
X137287238Y-94162476D01*
X137192000Y-94067238D01*
X137144380Y-93924380D01*
X137144380Y-93829142D01*
X137192000Y-93686285D01*
X137239619Y-93638666D01*
X137477714Y-92781523D02*
X138144380Y-92781523D01*
X137096761Y-93019619D02*
X137811047Y-93257714D01*
X137811047Y-92638666D01*
X139279333Y-91035142D02*
X139231714Y-91082761D01*
X139088857Y-91130380D01*
X138993619Y-91130380D01*
X138850761Y-91082761D01*
X138755523Y-90987523D01*
X138707904Y-90892285D01*
X138660285Y-90701809D01*
X138660285Y-90558952D01*
X138707904Y-90368476D01*
X138755523Y-90273238D01*
X138850761Y-90178000D01*
X138993619Y-90130380D01*
X139088857Y-90130380D01*
X139231714Y-90178000D01*
X139279333Y-90225619D01*
X140184095Y-90130380D02*
X139707904Y-90130380D01*
X139660285Y-90606571D01*
X139707904Y-90558952D01*
X139803142Y-90511333D01*
X140041238Y-90511333D01*
X140136476Y-90558952D01*
X140184095Y-90606571D01*
X140231714Y-90701809D01*
X140231714Y-90939904D01*
X140184095Y-91035142D01*
X140136476Y-91082761D01*
X140041238Y-91130380D01*
X139803142Y-91130380D01*
X139707904Y-91082761D01*
X139660285Y-91035142D01*
X140537142Y-100726666D02*
X140584761Y-100774285D01*
X140632380Y-100917142D01*
X140632380Y-101012380D01*
X140584761Y-101155238D01*
X140489523Y-101250476D01*
X140394285Y-101298095D01*
X140203809Y-101345714D01*
X140060952Y-101345714D01*
X139870476Y-101298095D01*
X139775238Y-101250476D01*
X139680000Y-101155238D01*
X139632380Y-101012380D01*
X139632380Y-100917142D01*
X139680000Y-100774285D01*
X139727619Y-100726666D01*
X139632380Y-99869523D02*
X139632380Y-100060000D01*
X139680000Y-100155238D01*
X139727619Y-100202857D01*
X139870476Y-100298095D01*
X140060952Y-100345714D01*
X140441904Y-100345714D01*
X140537142Y-100298095D01*
X140584761Y-100250476D01*
X140632380Y-100155238D01*
X140632380Y-99964761D01*
X140584761Y-99869523D01*
X140537142Y-99821904D01*
X140441904Y-99774285D01*
X140203809Y-99774285D01*
X140108571Y-99821904D01*
X140060952Y-99869523D01*
X140013333Y-99964761D01*
X140013333Y-100155238D01*
X140060952Y-100250476D01*
X140108571Y-100298095D01*
X140203809Y-100345714D01*
X146502380Y-118848095D02*
X145502380Y-118848095D01*
X145502380Y-118610000D01*
X145550000Y-118467142D01*
X145645238Y-118371904D01*
X145740476Y-118324285D01*
X145930952Y-118276666D01*
X146073809Y-118276666D01*
X146264285Y-118324285D01*
X146359523Y-118371904D01*
X146454761Y-118467142D01*
X146502380Y-118610000D01*
X146502380Y-118848095D01*
X146502380Y-117324285D02*
X146502380Y-117895714D01*
X146502380Y-117610000D02*
X145502380Y-117610000D01*
X145645238Y-117705238D01*
X145740476Y-117800476D01*
X145788095Y-117895714D01*
X149296380Y-118848095D02*
X148296380Y-118848095D01*
X148296380Y-118610000D01*
X148344000Y-118467142D01*
X148439238Y-118371904D01*
X148534476Y-118324285D01*
X148724952Y-118276666D01*
X148867809Y-118276666D01*
X149058285Y-118324285D01*
X149153523Y-118371904D01*
X149248761Y-118467142D01*
X149296380Y-118610000D01*
X149296380Y-118848095D01*
X148391619Y-117895714D02*
X148344000Y-117848095D01*
X148296380Y-117752857D01*
X148296380Y-117514761D01*
X148344000Y-117419523D01*
X148391619Y-117371904D01*
X148486857Y-117324285D01*
X148582095Y-117324285D01*
X148724952Y-117371904D01*
X149296380Y-117943333D01*
X149296380Y-117324285D01*
X151836380Y-119102095D02*
X150836380Y-119102095D01*
X150836380Y-118864000D01*
X150884000Y-118721142D01*
X150979238Y-118625904D01*
X151074476Y-118578285D01*
X151264952Y-118530666D01*
X151407809Y-118530666D01*
X151598285Y-118578285D01*
X151693523Y-118625904D01*
X151788761Y-118721142D01*
X151836380Y-118864000D01*
X151836380Y-119102095D01*
X150836380Y-118197333D02*
X150836380Y-117578285D01*
X151217333Y-117911619D01*
X151217333Y-117768761D01*
X151264952Y-117673523D01*
X151312571Y-117625904D01*
X151407809Y-117578285D01*
X151645904Y-117578285D01*
X151741142Y-117625904D01*
X151788761Y-117673523D01*
X151836380Y-117768761D01*
X151836380Y-118054476D01*
X151788761Y-118149714D01*
X151741142Y-118197333D01*
X152320666Y-93940380D02*
X152320666Y-94654666D01*
X152273047Y-94797523D01*
X152177809Y-94892761D01*
X152034952Y-94940380D01*
X151939714Y-94940380D01*
X153320666Y-94940380D02*
X152749238Y-94940380D01*
X153034952Y-94940380D02*
X153034952Y-93940380D01*
X152939714Y-94083238D01*
X152844476Y-94178476D01*
X152749238Y-94226095D01*
X139010380Y-105134666D02*
X138534190Y-105468000D01*
X139010380Y-105706095D02*
X138010380Y-105706095D01*
X138010380Y-105325142D01*
X138058000Y-105229904D01*
X138105619Y-105182285D01*
X138200857Y-105134666D01*
X138343714Y-105134666D01*
X138438952Y-105182285D01*
X138486571Y-105229904D01*
X138534190Y-105325142D01*
X138534190Y-105706095D01*
X139010380Y-104182285D02*
X139010380Y-104753714D01*
X139010380Y-104468000D02*
X138010380Y-104468000D01*
X138153238Y-104563238D01*
X138248476Y-104658476D01*
X138296095Y-104753714D01*
X129866380Y-87899714D02*
X128866380Y-87899714D01*
X128866380Y-87661619D01*
X128914000Y-87518761D01*
X129009238Y-87423523D01*
X129104476Y-87375904D01*
X129294952Y-87328285D01*
X129437809Y-87328285D01*
X129628285Y-87375904D01*
X129723523Y-87423523D01*
X129818761Y-87518761D01*
X129866380Y-87661619D01*
X129866380Y-87899714D01*
X129866380Y-86899714D02*
X128866380Y-86899714D01*
X129866380Y-86328285D01*
X128866380Y-86328285D01*
X129866380Y-85852095D02*
X128866380Y-85852095D01*
X128866380Y-85471142D01*
X128914000Y-85375904D01*
X128961619Y-85328285D01*
X129056857Y-85280666D01*
X129199714Y-85280666D01*
X129294952Y-85328285D01*
X129342571Y-85375904D01*
X129390190Y-85471142D01*
X129390190Y-85852095D01*
X140803333Y-110180380D02*
X140470000Y-109704190D01*
X140231904Y-110180380D02*
X140231904Y-109180380D01*
X140612857Y-109180380D01*
X140708095Y-109228000D01*
X140755714Y-109275619D01*
X140803333Y-109370857D01*
X140803333Y-109513714D01*
X140755714Y-109608952D01*
X140708095Y-109656571D01*
X140612857Y-109704190D01*
X140231904Y-109704190D01*
X141136666Y-109180380D02*
X141755714Y-109180380D01*
X141422380Y-109561333D01*
X141565238Y-109561333D01*
X141660476Y-109608952D01*
X141708095Y-109656571D01*
X141755714Y-109751809D01*
X141755714Y-109989904D01*
X141708095Y-110085142D01*
X141660476Y-110132761D01*
X141565238Y-110180380D01*
X141279523Y-110180380D01*
X141184285Y-110132761D01*
X141136666Y-110085142D01*
X139008380Y-82528666D02*
X138532190Y-82862000D01*
X139008380Y-83100095D02*
X138008380Y-83100095D01*
X138008380Y-82719142D01*
X138056000Y-82623904D01*
X138103619Y-82576285D01*
X138198857Y-82528666D01*
X138341714Y-82528666D01*
X138436952Y-82576285D01*
X138484571Y-82623904D01*
X138532190Y-82719142D01*
X138532190Y-83100095D01*
X138341714Y-81671523D02*
X139008380Y-81671523D01*
X137960761Y-81909619D02*
X138675047Y-82147714D01*
X138675047Y-81528666D01*
X146756380Y-109132666D02*
X146280190Y-109466000D01*
X146756380Y-109704095D02*
X145756380Y-109704095D01*
X145756380Y-109323142D01*
X145804000Y-109227904D01*
X145851619Y-109180285D01*
X145946857Y-109132666D01*
X146089714Y-109132666D01*
X146184952Y-109180285D01*
X146232571Y-109227904D01*
X146280190Y-109323142D01*
X146280190Y-109704095D01*
X145756380Y-108275523D02*
X145756380Y-108466000D01*
X145804000Y-108561238D01*
X145851619Y-108608857D01*
X145994476Y-108704095D01*
X146184952Y-108751714D01*
X146565904Y-108751714D01*
X146661142Y-108704095D01*
X146708761Y-108656476D01*
X146756380Y-108561238D01*
X146756380Y-108370761D01*
X146708761Y-108275523D01*
X146661142Y-108227904D01*
X146565904Y-108180285D01*
X146327809Y-108180285D01*
X146232571Y-108227904D01*
X146184952Y-108275523D01*
X146137333Y-108370761D01*
X146137333Y-108561238D01*
X146184952Y-108656476D01*
X146232571Y-108704095D01*
X146327809Y-108751714D01*
X149550380Y-109132666D02*
X149074190Y-109466000D01*
X149550380Y-109704095D02*
X148550380Y-109704095D01*
X148550380Y-109323142D01*
X148598000Y-109227904D01*
X148645619Y-109180285D01*
X148740857Y-109132666D01*
X148883714Y-109132666D01*
X148978952Y-109180285D01*
X149026571Y-109227904D01*
X149074190Y-109323142D01*
X149074190Y-109704095D01*
X148550380Y-108799333D02*
X148550380Y-108132666D01*
X149550380Y-108561238D01*
X152090380Y-109132666D02*
X151614190Y-109466000D01*
X152090380Y-109704095D02*
X151090380Y-109704095D01*
X151090380Y-109323142D01*
X151138000Y-109227904D01*
X151185619Y-109180285D01*
X151280857Y-109132666D01*
X151423714Y-109132666D01*
X151518952Y-109180285D01*
X151566571Y-109227904D01*
X151614190Y-109323142D01*
X151614190Y-109704095D01*
X151518952Y-108561238D02*
X151471333Y-108656476D01*
X151423714Y-108704095D01*
X151328476Y-108751714D01*
X151280857Y-108751714D01*
X151185619Y-108704095D01*
X151138000Y-108656476D01*
X151090380Y-108561238D01*
X151090380Y-108370761D01*
X151138000Y-108275523D01*
X151185619Y-108227904D01*
X151280857Y-108180285D01*
X151328476Y-108180285D01*
X151423714Y-108227904D01*
X151471333Y-108275523D01*
X151518952Y-108370761D01*
X151518952Y-108561238D01*
X151566571Y-108656476D01*
X151614190Y-108704095D01*
X151709428Y-108751714D01*
X151899904Y-108751714D01*
X151995142Y-108704095D01*
X152042761Y-108656476D01*
X152090380Y-108561238D01*
X152090380Y-108370761D01*
X152042761Y-108275523D01*
X151995142Y-108227904D01*
X151899904Y-108180285D01*
X151709428Y-108180285D01*
X151614190Y-108227904D01*
X151566571Y-108275523D01*
X151518952Y-108370761D01*
X135034095Y-89591780D02*
X135034095Y-90401304D01*
X135081714Y-90496542D01*
X135129333Y-90544161D01*
X135224571Y-90591780D01*
X135415047Y-90591780D01*
X135510285Y-90544161D01*
X135557904Y-90496542D01*
X135605523Y-90401304D01*
X135605523Y-89591780D01*
X136605523Y-90591780D02*
X136034095Y-90591780D01*
X136319809Y-90591780D02*
X136319809Y-89591780D01*
X136224571Y-89734638D01*
X136129333Y-89829876D01*
X136034095Y-89877495D01*
X150672022Y-104505518D02*
X151244442Y-105077938D01*
X151345457Y-105111610D01*
X151412801Y-105111610D01*
X151513816Y-105077938D01*
X151648503Y-104943251D01*
X151682175Y-104842236D01*
X151682175Y-104774892D01*
X151648503Y-104673877D01*
X151076083Y-104101457D01*
X151446473Y-103865755D02*
X151446473Y-103798412D01*
X151480144Y-103697396D01*
X151648503Y-103529038D01*
X151749518Y-103495366D01*
X151816862Y-103495366D01*
X151917877Y-103529038D01*
X151985221Y-103596381D01*
X152052564Y-103731068D01*
X152052564Y-104539190D01*
X152490297Y-104101457D01*
X141255809Y-95988190D02*
X141255809Y-96464380D01*
X140922476Y-95464380D02*
X141255809Y-95988190D01*
X141589142Y-95464380D01*
X142446285Y-96464380D02*
X141874857Y-96464380D01*
X142160571Y-96464380D02*
X142160571Y-95464380D01*
X142065333Y-95607238D01*
X141970095Y-95702476D01*
X141874857Y-95750095D01*
X134564380Y-92305047D02*
X134088190Y-92638380D01*
X134564380Y-92876476D02*
X133564380Y-92876476D01*
X133564380Y-92495523D01*
X133612000Y-92400285D01*
X133659619Y-92352666D01*
X133754857Y-92305047D01*
X133897714Y-92305047D01*
X133992952Y-92352666D01*
X134040571Y-92400285D01*
X134088190Y-92495523D01*
X134088190Y-92876476D01*
X134564380Y-91352666D02*
X134564380Y-91924095D01*
X134564380Y-91638380D02*
X133564380Y-91638380D01*
X133707238Y-91733619D01*
X133802476Y-91828857D01*
X133850095Y-91924095D01*
X133564380Y-90733619D02*
X133564380Y-90638380D01*
X133612000Y-90543142D01*
X133659619Y-90495523D01*
X133754857Y-90447904D01*
X133945333Y-90400285D01*
X134183428Y-90400285D01*
X134373904Y-90447904D01*
X134469142Y-90495523D01*
X134516761Y-90543142D01*
X134564380Y-90638380D01*
X134564380Y-90733619D01*
X134516761Y-90828857D01*
X134469142Y-90876476D01*
X134373904Y-90924095D01*
X134183428Y-90971714D01*
X133945333Y-90971714D01*
X133754857Y-90924095D01*
X133659619Y-90876476D01*
X133612000Y-90828857D01*
X133564380Y-90733619D01*
X134564380Y-89447904D02*
X134564380Y-90019333D01*
X134564380Y-89733619D02*
X133564380Y-89733619D01*
X133707238Y-89828857D01*
X133802476Y-89924095D01*
X133850095Y-90019333D01*
M02*
