G04 #@! TF.GenerationSoftware,KiCad,Pcbnew,5.1.4*
G04 #@! TF.CreationDate,2019-12-12T21:33:50-05:00*
G04 #@! TF.ProjectId,Suspension_Travel,53757370-656e-4736-996f-6e5f54726176,rev?*
G04 #@! TF.SameCoordinates,Original*
G04 #@! TF.FileFunction,Soldermask,Top*
G04 #@! TF.FilePolarity,Negative*
%FSLAX46Y46*%
G04 Gerber Fmt 4.6, Leading zero omitted, Abs format (unit mm)*
G04 Created by KiCad (PCBNEW 5.1.4) date 2019-12-12 21:33:50*
%MOMM*%
%LPD*%
G04 APERTURE LIST*
%ADD10C,0.100000*%
G04 APERTURE END LIST*
D10*
G36*
X152035000Y-117067000D02*
G01*
X150733000Y-117067000D01*
X150733000Y-115765000D01*
X152035000Y-115765000D01*
X152035000Y-117067000D01*
X152035000Y-117067000D01*
G37*
G36*
X149596600Y-116863800D02*
G01*
X148294600Y-116863800D01*
X148294600Y-115561800D01*
X149596600Y-115561800D01*
X149596600Y-116863800D01*
X149596600Y-116863800D01*
G37*
G36*
X146675600Y-116863800D02*
G01*
X145373600Y-116863800D01*
X145373600Y-115561800D01*
X146675600Y-115561800D01*
X146675600Y-116863800D01*
X146675600Y-116863800D01*
G37*
G36*
X152035000Y-114867000D02*
G01*
X150733000Y-114867000D01*
X150733000Y-113565000D01*
X152035000Y-113565000D01*
X152035000Y-114867000D01*
X152035000Y-114867000D01*
G37*
G36*
X146675600Y-114663800D02*
G01*
X145373600Y-114663800D01*
X145373600Y-113361800D01*
X146675600Y-113361800D01*
X146675600Y-114663800D01*
X146675600Y-114663800D01*
G37*
G36*
X149596600Y-114663800D02*
G01*
X148294600Y-114663800D01*
X148294600Y-113361800D01*
X149596600Y-113361800D01*
X149596600Y-114663800D01*
X149596600Y-114663800D01*
G37*
G36*
X146751000Y-112923000D02*
G01*
X145349000Y-112923000D01*
X145349000Y-112121000D01*
X146751000Y-112121000D01*
X146751000Y-112923000D01*
X146751000Y-112923000D01*
G37*
G36*
X152085000Y-112857000D02*
G01*
X150683000Y-112857000D01*
X150683000Y-112055000D01*
X152085000Y-112055000D01*
X152085000Y-112857000D01*
X152085000Y-112857000D01*
G37*
G36*
X149545000Y-112857000D02*
G01*
X148143000Y-112857000D01*
X148143000Y-112055000D01*
X149545000Y-112055000D01*
X149545000Y-112857000D01*
X149545000Y-112857000D01*
G37*
G36*
X146751000Y-111023000D02*
G01*
X145349000Y-111023000D01*
X145349000Y-110221000D01*
X146751000Y-110221000D01*
X146751000Y-111023000D01*
X146751000Y-111023000D01*
G37*
G36*
X152085000Y-110957000D02*
G01*
X150683000Y-110957000D01*
X150683000Y-110155000D01*
X152085000Y-110155000D01*
X152085000Y-110957000D01*
X152085000Y-110957000D01*
G37*
G36*
X149545000Y-110957000D02*
G01*
X148143000Y-110957000D01*
X148143000Y-110155000D01*
X149545000Y-110155000D01*
X149545000Y-110957000D01*
X149545000Y-110957000D01*
G37*
G36*
X140487000Y-108651000D02*
G01*
X139685000Y-108651000D01*
X139685000Y-107249000D01*
X140487000Y-107249000D01*
X140487000Y-108651000D01*
X140487000Y-108651000D01*
G37*
G36*
X142387000Y-108651000D02*
G01*
X141585000Y-108651000D01*
X141585000Y-107249000D01*
X142387000Y-107249000D01*
X142387000Y-108651000D01*
X142387000Y-108651000D01*
G37*
G36*
X142916000Y-106723000D02*
G01*
X141564000Y-106723000D01*
X141564000Y-105621000D01*
X142916000Y-105621000D01*
X142916000Y-106723000D01*
X142916000Y-106723000D01*
G37*
G36*
X140909000Y-106319000D02*
G01*
X139507000Y-106319000D01*
X139507000Y-105517000D01*
X140909000Y-105517000D01*
X140909000Y-106319000D01*
X140909000Y-106319000D01*
G37*
G36*
X153137368Y-101472536D02*
G01*
X152676334Y-101933570D01*
X152571682Y-102038221D01*
X152110648Y-102499255D01*
X152005997Y-102603907D01*
X149847907Y-104761997D01*
X149743255Y-104866648D01*
X149282221Y-105327682D01*
X149177570Y-105432334D01*
X148716536Y-105893368D01*
X147513040Y-104689872D01*
X147974074Y-104228838D01*
X147974075Y-104228839D01*
X147990339Y-104212575D01*
X147990348Y-104212564D01*
X148078726Y-104124187D01*
X148078725Y-104124186D01*
X148539759Y-103663152D01*
X148539760Y-103663153D01*
X148628137Y-103574775D01*
X148628148Y-103574766D01*
X148644412Y-103558502D01*
X148644411Y-103558501D01*
X149105445Y-103097467D01*
X149105446Y-103097468D01*
X149193833Y-103009080D01*
X149210097Y-102992817D01*
X149210096Y-102992816D01*
X149671130Y-102531782D01*
X149671131Y-102531783D01*
X149775783Y-102427131D01*
X149775782Y-102427130D01*
X150236816Y-101966096D01*
X150236817Y-101966097D01*
X150325204Y-101877709D01*
X150341468Y-101861446D01*
X150341467Y-101861445D01*
X150802501Y-101400411D01*
X150802502Y-101400412D01*
X150818766Y-101384148D01*
X150818775Y-101384137D01*
X150907153Y-101295760D01*
X150907152Y-101295759D01*
X151368186Y-100834725D01*
X151368187Y-100834726D01*
X151456564Y-100746348D01*
X151456575Y-100746339D01*
X151472839Y-100730075D01*
X151472838Y-100730074D01*
X151933872Y-100269040D01*
X153137368Y-101472536D01*
X153137368Y-101472536D01*
G37*
G36*
X143167162Y-100730074D02*
G01*
X143167162Y-100730075D01*
X143183426Y-100746339D01*
X143183432Y-100746344D01*
X143271814Y-100834726D01*
X143271814Y-100834725D01*
X143732848Y-101295759D01*
X143732848Y-101295760D01*
X143821230Y-101384142D01*
X143821235Y-101384148D01*
X143837499Y-101400412D01*
X143837499Y-101400411D01*
X144298533Y-101861445D01*
X144298533Y-101861446D01*
X144403184Y-101966097D01*
X144403184Y-101966096D01*
X144864218Y-102427130D01*
X144864218Y-102427131D01*
X144968870Y-102531783D01*
X144968870Y-102531782D01*
X145429904Y-102992816D01*
X145429904Y-102992817D01*
X145534555Y-103097468D01*
X145534555Y-103097467D01*
X145995589Y-103558501D01*
X145995589Y-103558502D01*
X146011853Y-103574766D01*
X146011859Y-103574771D01*
X146100241Y-103663153D01*
X146100241Y-103663152D01*
X146561275Y-104124186D01*
X146561275Y-104124187D01*
X146649657Y-104212569D01*
X146649662Y-104212575D01*
X146665926Y-104228839D01*
X146665926Y-104228838D01*
X147126960Y-104689872D01*
X145923464Y-105893368D01*
X145462430Y-105432334D01*
X145462431Y-105432334D01*
X145374049Y-105343952D01*
X145374044Y-105343946D01*
X145357780Y-105327682D01*
X145357779Y-105327682D01*
X144896745Y-104866648D01*
X144896746Y-104866648D01*
X144880482Y-104850384D01*
X144880476Y-104850379D01*
X144792094Y-104761997D01*
X144792093Y-104761997D01*
X144331059Y-104300963D01*
X144331060Y-104300963D01*
X144226409Y-104196312D01*
X144226408Y-104196312D01*
X143765374Y-103735278D01*
X143765375Y-103735278D01*
X143660723Y-103630626D01*
X143660722Y-103630626D01*
X143199688Y-103169592D01*
X143199689Y-103169592D01*
X143095038Y-103064941D01*
X143095037Y-103064941D01*
X142634003Y-102603907D01*
X142634004Y-102603907D01*
X142545622Y-102515525D01*
X142545617Y-102515519D01*
X142529353Y-102499255D01*
X142529352Y-102499255D01*
X142068318Y-102038221D01*
X142068319Y-102038221D01*
X142052055Y-102021957D01*
X142052049Y-102021952D01*
X141963667Y-101933570D01*
X141963666Y-101933570D01*
X141502632Y-101472536D01*
X142706128Y-100269040D01*
X143167162Y-100730074D01*
X143167162Y-100730074D01*
G37*
G36*
X142916000Y-104723000D02*
G01*
X141564000Y-104723000D01*
X141564000Y-103621000D01*
X142916000Y-103621000D01*
X142916000Y-104723000D01*
X142916000Y-104723000D01*
G37*
G36*
X140909000Y-104419000D02*
G01*
X139507000Y-104419000D01*
X139507000Y-103617000D01*
X140909000Y-103617000D01*
X140909000Y-104419000D01*
X140909000Y-104419000D01*
G37*
G36*
X139281000Y-102611000D02*
G01*
X137579000Y-102611000D01*
X137579000Y-101509000D01*
X139281000Y-101509000D01*
X139281000Y-102611000D01*
X139281000Y-102611000D01*
G37*
G36*
X135131000Y-100271000D02*
G01*
X133829000Y-100271000D01*
X133829000Y-98969000D01*
X135131000Y-98969000D01*
X135131000Y-100271000D01*
X135131000Y-100271000D01*
G37*
G36*
X147126960Y-95462128D02*
G01*
X146649662Y-95939426D01*
X146561275Y-96027814D01*
X146100241Y-96488848D01*
X146011853Y-96577235D01*
X145534555Y-97054533D01*
X145446167Y-97142920D01*
X145429904Y-97159184D01*
X144403184Y-98185904D01*
X144314796Y-98274291D01*
X144298533Y-98290555D01*
X143821235Y-98767853D01*
X143732848Y-98856241D01*
X143271814Y-99317275D01*
X143183426Y-99405662D01*
X142706128Y-99882960D01*
X141502632Y-98679464D01*
X141963666Y-98218430D01*
X141963667Y-98218431D01*
X142052044Y-98130053D01*
X142052055Y-98130044D01*
X142068319Y-98113780D01*
X142068318Y-98113779D01*
X142529352Y-97652745D01*
X142529353Y-97652746D01*
X142545617Y-97636482D01*
X142545626Y-97636471D01*
X142634004Y-97548094D01*
X142634003Y-97548093D01*
X143095037Y-97087059D01*
X143095038Y-97087060D01*
X143199689Y-96982409D01*
X143199688Y-96982408D01*
X143660722Y-96521374D01*
X143660723Y-96521375D01*
X143765375Y-96416723D01*
X143765374Y-96416722D01*
X144226408Y-95955688D01*
X144226409Y-95955689D01*
X144331060Y-95851038D01*
X144331059Y-95851037D01*
X144792093Y-95390003D01*
X144792094Y-95390004D01*
X144880471Y-95301626D01*
X144880482Y-95301617D01*
X144896746Y-95285353D01*
X144896745Y-95285352D01*
X145357779Y-94824318D01*
X145357780Y-94824319D01*
X145374044Y-94808055D01*
X145374053Y-94808044D01*
X145462431Y-94719667D01*
X145462430Y-94719666D01*
X145923464Y-94258632D01*
X147126960Y-95462128D01*
X147126960Y-95462128D01*
G37*
G36*
X149177570Y-94719666D02*
G01*
X149177570Y-94719667D01*
X149265952Y-94808049D01*
X149265957Y-94808055D01*
X149282221Y-94824319D01*
X149282221Y-94824318D01*
X149743255Y-95285352D01*
X149743255Y-95285353D01*
X149759519Y-95301617D01*
X149759525Y-95301622D01*
X149847907Y-95390004D01*
X149847907Y-95390003D01*
X150308941Y-95851037D01*
X150308941Y-95851038D01*
X150413592Y-95955689D01*
X150413592Y-95955688D01*
X150874626Y-96416722D01*
X150874626Y-96416723D01*
X150979278Y-96521375D01*
X150979278Y-96521374D01*
X151440312Y-96982408D01*
X151440312Y-96982409D01*
X151544963Y-97087060D01*
X151544963Y-97087059D01*
X152005997Y-97548093D01*
X152005997Y-97548094D01*
X152094379Y-97636476D01*
X152094384Y-97636482D01*
X152110648Y-97652746D01*
X152110648Y-97652745D01*
X152571682Y-98113779D01*
X152571682Y-98113780D01*
X152587946Y-98130044D01*
X152587952Y-98130049D01*
X152676334Y-98218431D01*
X152676334Y-98218430D01*
X153137368Y-98679464D01*
X151933872Y-99882960D01*
X151472838Y-99421926D01*
X151472839Y-99421926D01*
X151456575Y-99405662D01*
X151456569Y-99405657D01*
X151368187Y-99317275D01*
X151368186Y-99317275D01*
X150907152Y-98856241D01*
X150907153Y-98856241D01*
X150818771Y-98767859D01*
X150818766Y-98767853D01*
X150802502Y-98751589D01*
X150802501Y-98751589D01*
X150341467Y-98290555D01*
X150341468Y-98290555D01*
X150236817Y-98185904D01*
X150236816Y-98185904D01*
X149775782Y-97724870D01*
X149775783Y-97724870D01*
X149671131Y-97620218D01*
X149671130Y-97620218D01*
X149210096Y-97159184D01*
X149210097Y-97159184D01*
X149105446Y-97054533D01*
X149105445Y-97054533D01*
X148644411Y-96593499D01*
X148644412Y-96593499D01*
X148628148Y-96577235D01*
X148628142Y-96577230D01*
X148539760Y-96488848D01*
X148539759Y-96488848D01*
X148078725Y-96027814D01*
X148078726Y-96027814D01*
X147990344Y-95939432D01*
X147990339Y-95939426D01*
X147974075Y-95923162D01*
X147974074Y-95923162D01*
X147513040Y-95462128D01*
X148716536Y-94258632D01*
X149177570Y-94719666D01*
X149177570Y-94719666D01*
G37*
G36*
X120372780Y-99857520D02*
G01*
X119570780Y-99857520D01*
X119570780Y-98455520D01*
X120372780Y-98455520D01*
X120372780Y-99857520D01*
X120372780Y-99857520D01*
G37*
G36*
X122272780Y-99857520D02*
G01*
X121470780Y-99857520D01*
X121470780Y-98455520D01*
X122272780Y-98455520D01*
X122272780Y-99857520D01*
X122272780Y-99857520D01*
G37*
G36*
X116486580Y-99842280D02*
G01*
X115684580Y-99842280D01*
X115684580Y-98440280D01*
X116486580Y-98440280D01*
X116486580Y-99842280D01*
X116486580Y-99842280D01*
G37*
G36*
X118386580Y-99842280D02*
G01*
X117584580Y-99842280D01*
X117584580Y-98440280D01*
X118386580Y-98440280D01*
X118386580Y-99842280D01*
X118386580Y-99842280D01*
G37*
G36*
X139281000Y-99611000D02*
G01*
X137579000Y-99611000D01*
X137579000Y-98509000D01*
X139281000Y-98509000D01*
X139281000Y-99611000D01*
X139281000Y-99611000D01*
G37*
G36*
X135131000Y-98071000D02*
G01*
X133829000Y-98071000D01*
X133829000Y-96769000D01*
X135131000Y-96769000D01*
X135131000Y-98071000D01*
X135131000Y-98071000D01*
G37*
G36*
X121028400Y-97835200D02*
G01*
X118376400Y-97835200D01*
X118376400Y-96673200D01*
X121028400Y-96673200D01*
X121028400Y-97835200D01*
X121028400Y-97835200D01*
G37*
G36*
X125303640Y-97801000D02*
G01*
X123951640Y-97801000D01*
X123951640Y-96699000D01*
X125303640Y-96699000D01*
X125303640Y-97801000D01*
X125303640Y-97801000D01*
G37*
G36*
X117084200Y-97690000D02*
G01*
X115732200Y-97690000D01*
X115732200Y-96588000D01*
X117084200Y-96588000D01*
X117084200Y-97690000D01*
X117084200Y-97690000D01*
G37*
G36*
X130556200Y-97396500D02*
G01*
X128295200Y-97396500D01*
X128295200Y-95516500D01*
X130556200Y-95516500D01*
X130556200Y-97396500D01*
X130556200Y-97396500D01*
G37*
G36*
X123201291Y-96362585D02*
G01*
X123235269Y-96372893D01*
X123266590Y-96389634D01*
X123294039Y-96412161D01*
X123316566Y-96439610D01*
X123333307Y-96470931D01*
X123343615Y-96504909D01*
X123347700Y-96546390D01*
X123347700Y-97147610D01*
X123343615Y-97189091D01*
X123333307Y-97223069D01*
X123316566Y-97254390D01*
X123294039Y-97281839D01*
X123266590Y-97304366D01*
X123235269Y-97321107D01*
X123201291Y-97331415D01*
X123159810Y-97335500D01*
X122483590Y-97335500D01*
X122442109Y-97331415D01*
X122408131Y-97321107D01*
X122376810Y-97304366D01*
X122349361Y-97281839D01*
X122326834Y-97254390D01*
X122310093Y-97223069D01*
X122299785Y-97189091D01*
X122295700Y-97147610D01*
X122295700Y-96546390D01*
X122299785Y-96504909D01*
X122310093Y-96470931D01*
X122326834Y-96439610D01*
X122349361Y-96412161D01*
X122376810Y-96389634D01*
X122408131Y-96372893D01*
X122442109Y-96362585D01*
X122483590Y-96358500D01*
X123159810Y-96358500D01*
X123201291Y-96362585D01*
X123201291Y-96362585D01*
G37*
G36*
X135067000Y-96093000D02*
G01*
X133665000Y-96093000D01*
X133665000Y-95291000D01*
X135067000Y-95291000D01*
X135067000Y-96093000D01*
X135067000Y-96093000D01*
G37*
G36*
X125303640Y-95801000D02*
G01*
X123951640Y-95801000D01*
X123951640Y-94699000D01*
X125303640Y-94699000D01*
X125303640Y-95801000D01*
X125303640Y-95801000D01*
G37*
G36*
X123201291Y-94787585D02*
G01*
X123235269Y-94797893D01*
X123266590Y-94814634D01*
X123294039Y-94837161D01*
X123316566Y-94864610D01*
X123333307Y-94895931D01*
X123343615Y-94929909D01*
X123347700Y-94971390D01*
X123347700Y-95572610D01*
X123343615Y-95614091D01*
X123333307Y-95648069D01*
X123316566Y-95679390D01*
X123294039Y-95706839D01*
X123266590Y-95729366D01*
X123235269Y-95746107D01*
X123201291Y-95756415D01*
X123159810Y-95760500D01*
X122483590Y-95760500D01*
X122442109Y-95756415D01*
X122408131Y-95746107D01*
X122376810Y-95729366D01*
X122349361Y-95706839D01*
X122326834Y-95679390D01*
X122310093Y-95648069D01*
X122299785Y-95614091D01*
X122295700Y-95572610D01*
X122295700Y-94971390D01*
X122299785Y-94929909D01*
X122310093Y-94895931D01*
X122326834Y-94864610D01*
X122349361Y-94837161D01*
X122376810Y-94814634D01*
X122408131Y-94797893D01*
X122442109Y-94787585D01*
X122483590Y-94783500D01*
X123159810Y-94783500D01*
X123201291Y-94787585D01*
X123201291Y-94787585D01*
G37*
G36*
X111482700Y-95720000D02*
G01*
X110380700Y-95720000D01*
X110380700Y-94018000D01*
X111482700Y-94018000D01*
X111482700Y-95720000D01*
X111482700Y-95720000D01*
G37*
G36*
X114482700Y-95720000D02*
G01*
X113380700Y-95720000D01*
X113380700Y-94018000D01*
X114482700Y-94018000D01*
X114482700Y-95720000D01*
X114482700Y-95720000D01*
G37*
G36*
X117084200Y-95690000D02*
G01*
X115732200Y-95690000D01*
X115732200Y-94588000D01*
X117084200Y-94588000D01*
X117084200Y-95690000D01*
X117084200Y-95690000D01*
G37*
G36*
X121028400Y-95635200D02*
G01*
X118376400Y-95635200D01*
X118376400Y-94473200D01*
X121028400Y-94473200D01*
X121028400Y-95635200D01*
X121028400Y-95635200D01*
G37*
G36*
X139868000Y-95023000D02*
G01*
X138516000Y-95023000D01*
X138516000Y-93921000D01*
X139868000Y-93921000D01*
X139868000Y-95023000D01*
X139868000Y-95023000D01*
G37*
G36*
X142145000Y-94923000D02*
G01*
X140643000Y-94923000D01*
X140643000Y-93621000D01*
X142145000Y-93621000D01*
X142145000Y-94923000D01*
X142145000Y-94923000D01*
G37*
G36*
X144345000Y-94923000D02*
G01*
X142843000Y-94923000D01*
X142843000Y-93621000D01*
X144345000Y-93621000D01*
X144345000Y-94923000D01*
X144345000Y-94923000D01*
G37*
G36*
X135067000Y-94193000D02*
G01*
X133665000Y-94193000D01*
X133665000Y-93391000D01*
X135067000Y-93391000D01*
X135067000Y-94193000D01*
X135067000Y-94193000D01*
G37*
G36*
X123460200Y-93693500D02*
G01*
X122458200Y-93693500D01*
X122458200Y-91091500D01*
X123460200Y-91091500D01*
X123460200Y-93693500D01*
X123460200Y-93693500D01*
G37*
G36*
X126360200Y-93693500D02*
G01*
X125358200Y-93693500D01*
X125358200Y-91091500D01*
X126360200Y-91091500D01*
X126360200Y-93693500D01*
X126360200Y-93693500D01*
G37*
G36*
X119154300Y-93504460D02*
G01*
X117852300Y-93504460D01*
X117852300Y-91402460D01*
X119154300Y-91402460D01*
X119154300Y-93504460D01*
X119154300Y-93504460D01*
G37*
G36*
X115954300Y-93504460D02*
G01*
X114652300Y-93504460D01*
X114652300Y-91402460D01*
X115954300Y-91402460D01*
X115954300Y-93504460D01*
X115954300Y-93504460D01*
G37*
G36*
X130556200Y-93332500D02*
G01*
X128295200Y-93332500D01*
X128295200Y-91452500D01*
X130556200Y-91452500D01*
X130556200Y-93332500D01*
X130556200Y-93332500D01*
G37*
G36*
X142145000Y-93323000D02*
G01*
X140643000Y-93323000D01*
X140643000Y-92021000D01*
X142145000Y-92021000D01*
X142145000Y-93323000D01*
X142145000Y-93323000D01*
G37*
G36*
X144345000Y-93323000D02*
G01*
X142843000Y-93323000D01*
X142843000Y-92021000D01*
X144345000Y-92021000D01*
X144345000Y-93323000D01*
X144345000Y-93323000D01*
G37*
G36*
X113958700Y-93195500D02*
G01*
X112856700Y-93195500D01*
X112856700Y-91843500D01*
X113958700Y-91843500D01*
X113958700Y-93195500D01*
X113958700Y-93195500D01*
G37*
G36*
X111958700Y-93195500D02*
G01*
X110856700Y-93195500D01*
X110856700Y-91843500D01*
X111958700Y-91843500D01*
X111958700Y-93195500D01*
X111958700Y-93195500D01*
G37*
G36*
X139868000Y-93023000D02*
G01*
X138516000Y-93023000D01*
X138516000Y-91921000D01*
X139868000Y-91921000D01*
X139868000Y-93023000D01*
X139868000Y-93023000D01*
G37*
G36*
X152111059Y-91225860D02*
G01*
X152247732Y-91282472D01*
X152370735Y-91364660D01*
X152475340Y-91469265D01*
X152557528Y-91592268D01*
X152614140Y-91728941D01*
X152643000Y-91874033D01*
X152643000Y-92021967D01*
X152614140Y-92167059D01*
X152557528Y-92303732D01*
X152475340Y-92426735D01*
X152370735Y-92531340D01*
X152247732Y-92613528D01*
X152247731Y-92613529D01*
X152247730Y-92613529D01*
X152111059Y-92670140D01*
X151965968Y-92699000D01*
X151818032Y-92699000D01*
X151672941Y-92670140D01*
X151536270Y-92613529D01*
X151536269Y-92613529D01*
X151536268Y-92613528D01*
X151413265Y-92531340D01*
X151308660Y-92426735D01*
X151226472Y-92303732D01*
X151169860Y-92167059D01*
X151141000Y-92021967D01*
X151141000Y-91874033D01*
X151169860Y-91728941D01*
X151226472Y-91592268D01*
X151308660Y-91469265D01*
X151413265Y-91364660D01*
X151536268Y-91282472D01*
X151672941Y-91225860D01*
X151818032Y-91197000D01*
X151965968Y-91197000D01*
X152111059Y-91225860D01*
X152111059Y-91225860D01*
G37*
G36*
X155183000Y-92699000D02*
G01*
X153681000Y-92699000D01*
X153681000Y-91197000D01*
X155183000Y-91197000D01*
X155183000Y-92699000D01*
X155183000Y-92699000D01*
G37*
G36*
X143791000Y-91354000D02*
G01*
X142689000Y-91354000D01*
X142689000Y-90002000D01*
X143791000Y-90002000D01*
X143791000Y-91354000D01*
X143791000Y-91354000D01*
G37*
G36*
X141791000Y-91354000D02*
G01*
X140689000Y-91354000D01*
X140689000Y-90002000D01*
X141791000Y-90002000D01*
X141791000Y-91354000D01*
X141791000Y-91354000D01*
G37*
G36*
X109211700Y-90320000D02*
G01*
X107329700Y-90320000D01*
X107329700Y-86718000D01*
X109211700Y-86718000D01*
X109211700Y-90320000D01*
X109211700Y-90320000D01*
G37*
G36*
X114491700Y-90320000D02*
G01*
X112609700Y-90320000D01*
X112609700Y-86718000D01*
X114491700Y-86718000D01*
X114491700Y-90320000D01*
X114491700Y-90320000D01*
G37*
G36*
X122902800Y-90164920D02*
G01*
X121800800Y-90164920D01*
X121800800Y-86862920D01*
X122902800Y-86862920D01*
X122902800Y-90164920D01*
X122902800Y-90164920D01*
G37*
G36*
X116702800Y-90164920D02*
G01*
X115600800Y-90164920D01*
X115600800Y-86862920D01*
X116702800Y-86862920D01*
X116702800Y-90164920D01*
X116702800Y-90164920D01*
G37*
G36*
X154651059Y-88685860D02*
G01*
X154787732Y-88742472D01*
X154910735Y-88824660D01*
X155015340Y-88929265D01*
X155097528Y-89052268D01*
X155154140Y-89188941D01*
X155183000Y-89334033D01*
X155183000Y-89481967D01*
X155154140Y-89627059D01*
X155097528Y-89763732D01*
X155015340Y-89886735D01*
X154910735Y-89991340D01*
X154787732Y-90073528D01*
X154787731Y-90073529D01*
X154787730Y-90073529D01*
X154651059Y-90130140D01*
X154505968Y-90159000D01*
X154358032Y-90159000D01*
X154212941Y-90130140D01*
X154076270Y-90073529D01*
X154076269Y-90073529D01*
X154076268Y-90073528D01*
X153953265Y-89991340D01*
X153848660Y-89886735D01*
X153766472Y-89763732D01*
X153709860Y-89627059D01*
X153681000Y-89481967D01*
X153681000Y-89334033D01*
X153709860Y-89188941D01*
X153766472Y-89052268D01*
X153848660Y-88929265D01*
X153953265Y-88824660D01*
X154076268Y-88742472D01*
X154212941Y-88685860D01*
X154358032Y-88657000D01*
X154505968Y-88657000D01*
X154651059Y-88685860D01*
X154651059Y-88685860D01*
G37*
G36*
X152111059Y-88685860D02*
G01*
X152247732Y-88742472D01*
X152370735Y-88824660D01*
X152475340Y-88929265D01*
X152557528Y-89052268D01*
X152614140Y-89188941D01*
X152643000Y-89334033D01*
X152643000Y-89481967D01*
X152614140Y-89627059D01*
X152557528Y-89763732D01*
X152475340Y-89886735D01*
X152370735Y-89991340D01*
X152247732Y-90073528D01*
X152247731Y-90073529D01*
X152247730Y-90073529D01*
X152111059Y-90130140D01*
X151965968Y-90159000D01*
X151818032Y-90159000D01*
X151672941Y-90130140D01*
X151536270Y-90073529D01*
X151536269Y-90073529D01*
X151536268Y-90073528D01*
X151413265Y-89991340D01*
X151308660Y-89886735D01*
X151226472Y-89763732D01*
X151169860Y-89627059D01*
X151141000Y-89481967D01*
X151141000Y-89334033D01*
X151169860Y-89188941D01*
X151226472Y-89052268D01*
X151308660Y-88929265D01*
X151413265Y-88824660D01*
X151536268Y-88742472D01*
X151672941Y-88685860D01*
X151818032Y-88657000D01*
X151965968Y-88657000D01*
X152111059Y-88685860D01*
X152111059Y-88685860D01*
G37*
G36*
X133922000Y-88895400D02*
G01*
X132270000Y-88895400D01*
X132270000Y-88193400D01*
X133922000Y-88193400D01*
X133922000Y-88895400D01*
X133922000Y-88895400D01*
G37*
G36*
X139322000Y-88895400D02*
G01*
X137670000Y-88895400D01*
X137670000Y-88193400D01*
X139322000Y-88193400D01*
X139322000Y-88895400D01*
X139322000Y-88895400D01*
G37*
G36*
X125281000Y-88306000D02*
G01*
X124179000Y-88306000D01*
X124179000Y-86954000D01*
X125281000Y-86954000D01*
X125281000Y-88306000D01*
X125281000Y-88306000D01*
G37*
G36*
X127281000Y-88306000D02*
G01*
X126179000Y-88306000D01*
X126179000Y-86954000D01*
X127281000Y-86954000D01*
X127281000Y-88306000D01*
X127281000Y-88306000D01*
G37*
G36*
X131765000Y-87965000D02*
G01*
X130363000Y-87965000D01*
X130363000Y-87163000D01*
X131765000Y-87163000D01*
X131765000Y-87965000D01*
X131765000Y-87965000D01*
G37*
G36*
X139322000Y-87625400D02*
G01*
X137670000Y-87625400D01*
X137670000Y-86923400D01*
X139322000Y-86923400D01*
X139322000Y-87625400D01*
X139322000Y-87625400D01*
G37*
G36*
X133922000Y-87625400D02*
G01*
X132270000Y-87625400D01*
X132270000Y-86923400D01*
X133922000Y-86923400D01*
X133922000Y-87625400D01*
X133922000Y-87625400D01*
G37*
G36*
X154651059Y-86145860D02*
G01*
X154787732Y-86202472D01*
X154910735Y-86284660D01*
X155015340Y-86389265D01*
X155015341Y-86389267D01*
X155097529Y-86512270D01*
X155154140Y-86648941D01*
X155167877Y-86718000D01*
X155183000Y-86794033D01*
X155183000Y-86941967D01*
X155154140Y-87087059D01*
X155097528Y-87223732D01*
X155015340Y-87346735D01*
X154910735Y-87451340D01*
X154787732Y-87533528D01*
X154787731Y-87533529D01*
X154787730Y-87533529D01*
X154651059Y-87590140D01*
X154505968Y-87619000D01*
X154358032Y-87619000D01*
X154212941Y-87590140D01*
X154076270Y-87533529D01*
X154076269Y-87533529D01*
X154076268Y-87533528D01*
X153953265Y-87451340D01*
X153848660Y-87346735D01*
X153766472Y-87223732D01*
X153709860Y-87087059D01*
X153681000Y-86941967D01*
X153681000Y-86794033D01*
X153696124Y-86718000D01*
X153709860Y-86648941D01*
X153766471Y-86512270D01*
X153848659Y-86389267D01*
X153848660Y-86389265D01*
X153953265Y-86284660D01*
X154076268Y-86202472D01*
X154212941Y-86145860D01*
X154358032Y-86117000D01*
X154505968Y-86117000D01*
X154651059Y-86145860D01*
X154651059Y-86145860D01*
G37*
G36*
X152111059Y-86145860D02*
G01*
X152247732Y-86202472D01*
X152370735Y-86284660D01*
X152475340Y-86389265D01*
X152475341Y-86389267D01*
X152557529Y-86512270D01*
X152614140Y-86648941D01*
X152627877Y-86718000D01*
X152643000Y-86794033D01*
X152643000Y-86941967D01*
X152614140Y-87087059D01*
X152557528Y-87223732D01*
X152475340Y-87346735D01*
X152370735Y-87451340D01*
X152247732Y-87533528D01*
X152247731Y-87533529D01*
X152247730Y-87533529D01*
X152111059Y-87590140D01*
X151965968Y-87619000D01*
X151818032Y-87619000D01*
X151672941Y-87590140D01*
X151536270Y-87533529D01*
X151536269Y-87533529D01*
X151536268Y-87533528D01*
X151413265Y-87451340D01*
X151308660Y-87346735D01*
X151226472Y-87223732D01*
X151169860Y-87087059D01*
X151141000Y-86941967D01*
X151141000Y-86794033D01*
X151156124Y-86718000D01*
X151169860Y-86648941D01*
X151226471Y-86512270D01*
X151308659Y-86389267D01*
X151308660Y-86389265D01*
X151413265Y-86284660D01*
X151536268Y-86202472D01*
X151672941Y-86145860D01*
X151818032Y-86117000D01*
X151965968Y-86117000D01*
X152111059Y-86145860D01*
X152111059Y-86145860D01*
G37*
G36*
X139322000Y-86355400D02*
G01*
X137670000Y-86355400D01*
X137670000Y-85653400D01*
X139322000Y-85653400D01*
X139322000Y-86355400D01*
X139322000Y-86355400D01*
G37*
G36*
X133922000Y-86355400D02*
G01*
X132270000Y-86355400D01*
X132270000Y-85653400D01*
X133922000Y-85653400D01*
X133922000Y-86355400D01*
X133922000Y-86355400D01*
G37*
G36*
X131765000Y-86065000D02*
G01*
X130363000Y-86065000D01*
X130363000Y-85263000D01*
X131765000Y-85263000D01*
X131765000Y-86065000D01*
X131765000Y-86065000D01*
G37*
G36*
X120101000Y-85791000D02*
G01*
X119299000Y-85791000D01*
X119299000Y-84389000D01*
X120101000Y-84389000D01*
X120101000Y-85791000D01*
X120101000Y-85791000D01*
G37*
G36*
X122001000Y-85791000D02*
G01*
X121199000Y-85791000D01*
X121199000Y-84389000D01*
X122001000Y-84389000D01*
X122001000Y-85791000D01*
X122001000Y-85791000D01*
G37*
G36*
X124011000Y-85766000D02*
G01*
X122909000Y-85766000D01*
X122909000Y-84414000D01*
X124011000Y-84414000D01*
X124011000Y-85766000D01*
X124011000Y-85766000D01*
G37*
G36*
X126011000Y-85766000D02*
G01*
X124909000Y-85766000D01*
X124909000Y-84414000D01*
X126011000Y-84414000D01*
X126011000Y-85766000D01*
X126011000Y-85766000D01*
G37*
G36*
X118591000Y-85741000D02*
G01*
X117289000Y-85741000D01*
X117289000Y-84439000D01*
X118591000Y-84439000D01*
X118591000Y-85741000D01*
X118591000Y-85741000D01*
G37*
G36*
X116391000Y-85741000D02*
G01*
X115089000Y-85741000D01*
X115089000Y-84439000D01*
X116391000Y-84439000D01*
X116391000Y-85741000D01*
X116391000Y-85741000D01*
G37*
G36*
X133922000Y-85085400D02*
G01*
X132270000Y-85085400D01*
X132270000Y-84383400D01*
X133922000Y-84383400D01*
X133922000Y-85085400D01*
X133922000Y-85085400D01*
G37*
G36*
X139322000Y-85085400D02*
G01*
X137670000Y-85085400D01*
X137670000Y-84383400D01*
X139322000Y-84383400D01*
X139322000Y-85085400D01*
X139322000Y-85085400D01*
G37*
G36*
X137607000Y-83713000D02*
G01*
X136205000Y-83713000D01*
X136205000Y-82911000D01*
X137607000Y-82911000D01*
X137607000Y-83713000D01*
X137607000Y-83713000D01*
G37*
G36*
X128906273Y-81342538D02*
G01*
X129033849Y-81395382D01*
X129148659Y-81472095D01*
X129246305Y-81569741D01*
X129323018Y-81684551D01*
X129375862Y-81812127D01*
X129402800Y-81947556D01*
X129402800Y-82085644D01*
X129375862Y-82221073D01*
X129323018Y-82348649D01*
X129246305Y-82463459D01*
X129148659Y-82561105D01*
X129033849Y-82637818D01*
X128906273Y-82690662D01*
X128770844Y-82717600D01*
X128632756Y-82717600D01*
X128497327Y-82690662D01*
X128369751Y-82637818D01*
X128254941Y-82561105D01*
X128157295Y-82463459D01*
X128080582Y-82348649D01*
X128027738Y-82221073D01*
X128000800Y-82085644D01*
X128000800Y-81947556D01*
X128027738Y-81812127D01*
X128080582Y-81684551D01*
X128157295Y-81569741D01*
X128254941Y-81472095D01*
X128369751Y-81395382D01*
X128497327Y-81342538D01*
X128632756Y-81315600D01*
X128770844Y-81315600D01*
X128906273Y-81342538D01*
X128906273Y-81342538D01*
G37*
G36*
X126366273Y-81342538D02*
G01*
X126493849Y-81395382D01*
X126608659Y-81472095D01*
X126706305Y-81569741D01*
X126783018Y-81684551D01*
X126835862Y-81812127D01*
X126862800Y-81947556D01*
X126862800Y-82085644D01*
X126835862Y-82221073D01*
X126783018Y-82348649D01*
X126706305Y-82463459D01*
X126608659Y-82561105D01*
X126493849Y-82637818D01*
X126366273Y-82690662D01*
X126230844Y-82717600D01*
X126092756Y-82717600D01*
X125957327Y-82690662D01*
X125829751Y-82637818D01*
X125714941Y-82561105D01*
X125617295Y-82463459D01*
X125540582Y-82348649D01*
X125487738Y-82221073D01*
X125460800Y-82085644D01*
X125460800Y-81947556D01*
X125487738Y-81812127D01*
X125540582Y-81684551D01*
X125617295Y-81569741D01*
X125714941Y-81472095D01*
X125829751Y-81395382D01*
X125957327Y-81342538D01*
X126092756Y-81315600D01*
X126230844Y-81315600D01*
X126366273Y-81342538D01*
X126366273Y-81342538D01*
G37*
G36*
X123826273Y-81342538D02*
G01*
X123953849Y-81395382D01*
X124068659Y-81472095D01*
X124166305Y-81569741D01*
X124243018Y-81684551D01*
X124295862Y-81812127D01*
X124322800Y-81947556D01*
X124322800Y-82085644D01*
X124295862Y-82221073D01*
X124243018Y-82348649D01*
X124166305Y-82463459D01*
X124068659Y-82561105D01*
X123953849Y-82637818D01*
X123826273Y-82690662D01*
X123690844Y-82717600D01*
X123552756Y-82717600D01*
X123417327Y-82690662D01*
X123289751Y-82637818D01*
X123174941Y-82561105D01*
X123077295Y-82463459D01*
X123000582Y-82348649D01*
X122947738Y-82221073D01*
X122920800Y-82085644D01*
X122920800Y-81947556D01*
X122947738Y-81812127D01*
X123000582Y-81684551D01*
X123077295Y-81569741D01*
X123174941Y-81472095D01*
X123289751Y-81395382D01*
X123417327Y-81342538D01*
X123552756Y-81315600D01*
X123690844Y-81315600D01*
X123826273Y-81342538D01*
X123826273Y-81342538D01*
G37*
G36*
X131446273Y-81342538D02*
G01*
X131573849Y-81395382D01*
X131688659Y-81472095D01*
X131786305Y-81569741D01*
X131863018Y-81684551D01*
X131915862Y-81812127D01*
X131942800Y-81947556D01*
X131942800Y-82085644D01*
X131915862Y-82221073D01*
X131863018Y-82348649D01*
X131786305Y-82463459D01*
X131688659Y-82561105D01*
X131573849Y-82637818D01*
X131446273Y-82690662D01*
X131310844Y-82717600D01*
X131172756Y-82717600D01*
X131037327Y-82690662D01*
X130909751Y-82637818D01*
X130794941Y-82561105D01*
X130697295Y-82463459D01*
X130620582Y-82348649D01*
X130567738Y-82221073D01*
X130540800Y-82085644D01*
X130540800Y-81947556D01*
X130567738Y-81812127D01*
X130620582Y-81684551D01*
X130697295Y-81569741D01*
X130794941Y-81472095D01*
X130909751Y-81395382D01*
X131037327Y-81342538D01*
X131172756Y-81315600D01*
X131310844Y-81315600D01*
X131446273Y-81342538D01*
X131446273Y-81342538D01*
G37*
G36*
X137607000Y-81813000D02*
G01*
X136205000Y-81813000D01*
X136205000Y-81011000D01*
X137607000Y-81011000D01*
X137607000Y-81813000D01*
X137607000Y-81813000D01*
G37*
G36*
X132716273Y-78802538D02*
G01*
X132843849Y-78855382D01*
X132958659Y-78932095D01*
X133056305Y-79029741D01*
X133133018Y-79144551D01*
X133185862Y-79272127D01*
X133212800Y-79407556D01*
X133212800Y-79545644D01*
X133185862Y-79681073D01*
X133133018Y-79808649D01*
X133056305Y-79923459D01*
X132958659Y-80021105D01*
X132843849Y-80097818D01*
X132716273Y-80150662D01*
X132580844Y-80177600D01*
X132442756Y-80177600D01*
X132307327Y-80150662D01*
X132179751Y-80097818D01*
X132064941Y-80021105D01*
X131967295Y-79923459D01*
X131890582Y-79808649D01*
X131837738Y-79681073D01*
X131810800Y-79545644D01*
X131810800Y-79407556D01*
X131837738Y-79272127D01*
X131890582Y-79144551D01*
X131967295Y-79029741D01*
X132064941Y-78932095D01*
X132179751Y-78855382D01*
X132307327Y-78802538D01*
X132442756Y-78775600D01*
X132580844Y-78775600D01*
X132716273Y-78802538D01*
X132716273Y-78802538D01*
G37*
G36*
X130176273Y-78802538D02*
G01*
X130303849Y-78855382D01*
X130418659Y-78932095D01*
X130516305Y-79029741D01*
X130593018Y-79144551D01*
X130645862Y-79272127D01*
X130672800Y-79407556D01*
X130672800Y-79545644D01*
X130645862Y-79681073D01*
X130593018Y-79808649D01*
X130516305Y-79923459D01*
X130418659Y-80021105D01*
X130303849Y-80097818D01*
X130176273Y-80150662D01*
X130040844Y-80177600D01*
X129902756Y-80177600D01*
X129767327Y-80150662D01*
X129639751Y-80097818D01*
X129524941Y-80021105D01*
X129427295Y-79923459D01*
X129350582Y-79808649D01*
X129297738Y-79681073D01*
X129270800Y-79545644D01*
X129270800Y-79407556D01*
X129297738Y-79272127D01*
X129350582Y-79144551D01*
X129427295Y-79029741D01*
X129524941Y-78932095D01*
X129639751Y-78855382D01*
X129767327Y-78802538D01*
X129902756Y-78775600D01*
X130040844Y-78775600D01*
X130176273Y-78802538D01*
X130176273Y-78802538D01*
G37*
G36*
X127636273Y-78802538D02*
G01*
X127763849Y-78855382D01*
X127878659Y-78932095D01*
X127976305Y-79029741D01*
X128053018Y-79144551D01*
X128105862Y-79272127D01*
X128132800Y-79407556D01*
X128132800Y-79545644D01*
X128105862Y-79681073D01*
X128053018Y-79808649D01*
X127976305Y-79923459D01*
X127878659Y-80021105D01*
X127763849Y-80097818D01*
X127636273Y-80150662D01*
X127500844Y-80177600D01*
X127362756Y-80177600D01*
X127227327Y-80150662D01*
X127099751Y-80097818D01*
X126984941Y-80021105D01*
X126887295Y-79923459D01*
X126810582Y-79808649D01*
X126757738Y-79681073D01*
X126730800Y-79545644D01*
X126730800Y-79407556D01*
X126757738Y-79272127D01*
X126810582Y-79144551D01*
X126887295Y-79029741D01*
X126984941Y-78932095D01*
X127099751Y-78855382D01*
X127227327Y-78802538D01*
X127362756Y-78775600D01*
X127500844Y-78775600D01*
X127636273Y-78802538D01*
X127636273Y-78802538D01*
G37*
G36*
X125096273Y-78802538D02*
G01*
X125223849Y-78855382D01*
X125338659Y-78932095D01*
X125436305Y-79029741D01*
X125513018Y-79144551D01*
X125565862Y-79272127D01*
X125592800Y-79407556D01*
X125592800Y-79545644D01*
X125565862Y-79681073D01*
X125513018Y-79808649D01*
X125436305Y-79923459D01*
X125338659Y-80021105D01*
X125223849Y-80097818D01*
X125096273Y-80150662D01*
X124960844Y-80177600D01*
X124822756Y-80177600D01*
X124687327Y-80150662D01*
X124559751Y-80097818D01*
X124444941Y-80021105D01*
X124347295Y-79923459D01*
X124270582Y-79808649D01*
X124217738Y-79681073D01*
X124190800Y-79545644D01*
X124190800Y-79407556D01*
X124217738Y-79272127D01*
X124270582Y-79144551D01*
X124347295Y-79029741D01*
X124444941Y-78932095D01*
X124559751Y-78855382D01*
X124687327Y-78802538D01*
X124822756Y-78775600D01*
X124960844Y-78775600D01*
X125096273Y-78802538D01*
X125096273Y-78802538D01*
G37*
M02*
