G04 #@! TF.GenerationSoftware,KiCad,Pcbnew,(5.1.4-0-10_14)*
G04 #@! TF.CreationDate,2020-01-14T22:21:16-05:00*
G04 #@! TF.ProjectId,LCD_Screen,4c43445f-5363-4726-9565-6e2e6b696361,rev?*
G04 #@! TF.SameCoordinates,Original*
G04 #@! TF.FileFunction,Legend,Bot*
G04 #@! TF.FilePolarity,Positive*
%FSLAX46Y46*%
G04 Gerber Fmt 4.6, Leading zero omitted, Abs format (unit mm)*
G04 Created by KiCad (PCBNEW (5.1.4-0-10_14)) date 2020-01-14 22:21:16*
%MOMM*%
%LPD*%
G04 APERTURE LIST*
%ADD10C,0.150000*%
%ADD11C,0.250000*%
%ADD12C,0.010000*%
G04 APERTURE END LIST*
D10*
X255570523Y-26106380D02*
X255903857Y-25630190D01*
X256141952Y-26106380D02*
X256141952Y-25106380D01*
X255761000Y-25106380D01*
X255665761Y-25154000D01*
X255618142Y-25201619D01*
X255570523Y-25296857D01*
X255570523Y-25439714D01*
X255618142Y-25534952D01*
X255665761Y-25582571D01*
X255761000Y-25630190D01*
X256141952Y-25630190D01*
X254713380Y-26106380D02*
X254713380Y-25582571D01*
X254761000Y-25487333D01*
X254856238Y-25439714D01*
X255046714Y-25439714D01*
X255141952Y-25487333D01*
X254713380Y-26058761D02*
X254808619Y-26106380D01*
X255046714Y-26106380D01*
X255141952Y-26058761D01*
X255189571Y-25963523D01*
X255189571Y-25868285D01*
X255141952Y-25773047D01*
X255046714Y-25725428D01*
X254808619Y-25725428D01*
X254713380Y-25677809D01*
X254284809Y-26058761D02*
X254189571Y-26106380D01*
X253999095Y-26106380D01*
X253903857Y-26058761D01*
X253856238Y-25963523D01*
X253856238Y-25915904D01*
X253903857Y-25820666D01*
X253999095Y-25773047D01*
X254141952Y-25773047D01*
X254237190Y-25725428D01*
X254284809Y-25630190D01*
X254284809Y-25582571D01*
X254237190Y-25487333D01*
X254141952Y-25439714D01*
X253999095Y-25439714D01*
X253903857Y-25487333D01*
X253427666Y-25439714D02*
X253427666Y-26439714D01*
X253427666Y-25487333D02*
X253332428Y-25439714D01*
X253141952Y-25439714D01*
X253046714Y-25487333D01*
X252999095Y-25534952D01*
X252951476Y-25630190D01*
X252951476Y-25915904D01*
X252999095Y-26011142D01*
X253046714Y-26058761D01*
X253141952Y-26106380D01*
X253332428Y-26106380D01*
X253427666Y-26058761D01*
X252522904Y-26106380D02*
X252522904Y-25106380D01*
X252141952Y-25106380D01*
X252046714Y-25154000D01*
X251999095Y-25201619D01*
X251951476Y-25296857D01*
X251951476Y-25439714D01*
X251999095Y-25534952D01*
X252046714Y-25582571D01*
X252141952Y-25630190D01*
X252522904Y-25630190D01*
X251522904Y-26106380D02*
X251522904Y-25439714D01*
X251522904Y-25106380D02*
X251570523Y-25154000D01*
X251522904Y-25201619D01*
X251475285Y-25154000D01*
X251522904Y-25106380D01*
X251522904Y-25201619D01*
X249856238Y-25439714D02*
X249856238Y-26249238D01*
X249903857Y-26344476D01*
X249951476Y-26392095D01*
X250046714Y-26439714D01*
X250189571Y-26439714D01*
X250284809Y-26392095D01*
X249856238Y-26058761D02*
X249951476Y-26106380D01*
X250141952Y-26106380D01*
X250237190Y-26058761D01*
X250284809Y-26011142D01*
X250332428Y-25915904D01*
X250332428Y-25630190D01*
X250284809Y-25534952D01*
X250237190Y-25487333D01*
X250141952Y-25439714D01*
X249951476Y-25439714D01*
X249856238Y-25487333D01*
X249237190Y-26106380D02*
X249332428Y-26058761D01*
X249380047Y-26011142D01*
X249427666Y-25915904D01*
X249427666Y-25630190D01*
X249380047Y-25534952D01*
X249332428Y-25487333D01*
X249237190Y-25439714D01*
X249094333Y-25439714D01*
X248999095Y-25487333D01*
X248951476Y-25534952D01*
X248903857Y-25630190D01*
X248903857Y-25915904D01*
X248951476Y-26011142D01*
X248999095Y-26058761D01*
X249094333Y-26106380D01*
X249237190Y-26106380D01*
X248094333Y-26058761D02*
X248189571Y-26106380D01*
X248380047Y-26106380D01*
X248475285Y-26058761D01*
X248522904Y-25963523D01*
X248522904Y-25582571D01*
X248475285Y-25487333D01*
X248380047Y-25439714D01*
X248189571Y-25439714D01*
X248094333Y-25487333D01*
X248046714Y-25582571D01*
X248046714Y-25677809D01*
X248522904Y-25773047D01*
X247665761Y-26058761D02*
X247570523Y-26106380D01*
X247380047Y-26106380D01*
X247284809Y-26058761D01*
X247237190Y-25963523D01*
X247237190Y-25915904D01*
X247284809Y-25820666D01*
X247380047Y-25773047D01*
X247522904Y-25773047D01*
X247618142Y-25725428D01*
X247665761Y-25630190D01*
X247665761Y-25582571D01*
X247618142Y-25487333D01*
X247522904Y-25439714D01*
X247380047Y-25439714D01*
X247284809Y-25487333D01*
X245903857Y-26106380D02*
X245999095Y-26058761D01*
X246046714Y-26011142D01*
X246094333Y-25915904D01*
X246094333Y-25630190D01*
X246046714Y-25534952D01*
X245999095Y-25487333D01*
X245903857Y-25439714D01*
X245761000Y-25439714D01*
X245665761Y-25487333D01*
X245618142Y-25534952D01*
X245570523Y-25630190D01*
X245570523Y-25915904D01*
X245618142Y-26011142D01*
X245665761Y-26058761D01*
X245761000Y-26106380D01*
X245903857Y-26106380D01*
X245141952Y-25439714D02*
X245141952Y-26106380D01*
X245141952Y-25534952D02*
X245094333Y-25487333D01*
X244999095Y-25439714D01*
X244856238Y-25439714D01*
X244761000Y-25487333D01*
X244713380Y-25582571D01*
X244713380Y-26106380D01*
X243618142Y-25439714D02*
X243237190Y-25439714D01*
X243475285Y-25106380D02*
X243475285Y-25963523D01*
X243427666Y-26058761D01*
X243332428Y-26106380D01*
X243237190Y-26106380D01*
X242903857Y-26106380D02*
X242903857Y-25106380D01*
X242475285Y-26106380D02*
X242475285Y-25582571D01*
X242522904Y-25487333D01*
X242618142Y-25439714D01*
X242761000Y-25439714D01*
X242856238Y-25487333D01*
X242903857Y-25534952D01*
X241999095Y-26106380D02*
X241999095Y-25439714D01*
X241999095Y-25106380D02*
X242046714Y-25154000D01*
X241999095Y-25201619D01*
X241951476Y-25154000D01*
X241999095Y-25106380D01*
X241999095Y-25201619D01*
X241570523Y-26058761D02*
X241475285Y-26106380D01*
X241284809Y-26106380D01*
X241189571Y-26058761D01*
X241141952Y-25963523D01*
X241141952Y-25915904D01*
X241189571Y-25820666D01*
X241284809Y-25773047D01*
X241427666Y-25773047D01*
X241522904Y-25725428D01*
X241570523Y-25630190D01*
X241570523Y-25582571D01*
X241522904Y-25487333D01*
X241427666Y-25439714D01*
X241284809Y-25439714D01*
X241189571Y-25487333D01*
X239999095Y-26058761D02*
X239903857Y-26106380D01*
X239713380Y-26106380D01*
X239618142Y-26058761D01*
X239570523Y-25963523D01*
X239570523Y-25915904D01*
X239618142Y-25820666D01*
X239713380Y-25773047D01*
X239856238Y-25773047D01*
X239951476Y-25725428D01*
X239999095Y-25630190D01*
X239999095Y-25582571D01*
X239951476Y-25487333D01*
X239856238Y-25439714D01*
X239713380Y-25439714D01*
X239618142Y-25487333D01*
X239141952Y-26106380D02*
X239141952Y-25439714D01*
X239141952Y-25106380D02*
X239189571Y-25154000D01*
X239141952Y-25201619D01*
X239094333Y-25154000D01*
X239141952Y-25106380D01*
X239141952Y-25201619D01*
X238237190Y-26106380D02*
X238237190Y-25106380D01*
X238237190Y-26058761D02*
X238332428Y-26106380D01*
X238522904Y-26106380D01*
X238618142Y-26058761D01*
X238665761Y-26011142D01*
X238713380Y-25915904D01*
X238713380Y-25630190D01*
X238665761Y-25534952D01*
X238618142Y-25487333D01*
X238522904Y-25439714D01*
X238332428Y-25439714D01*
X238237190Y-25487333D01*
X237380047Y-26058761D02*
X237475285Y-26106380D01*
X237665761Y-26106380D01*
X237761000Y-26058761D01*
X237808619Y-25963523D01*
X237808619Y-25582571D01*
X237761000Y-25487333D01*
X237665761Y-25439714D01*
X237475285Y-25439714D01*
X237380047Y-25487333D01*
X237332428Y-25582571D01*
X237332428Y-25677809D01*
X237808619Y-25773047D01*
D11*
X211822847Y-42463980D02*
X212394276Y-42463980D01*
X212108561Y-42463980D02*
X212108561Y-41463980D01*
X212203800Y-41606838D01*
X212299038Y-41702076D01*
X212394276Y-41749695D01*
X210679990Y-41416361D02*
X211537133Y-42702076D01*
X209822847Y-42463980D02*
X210394276Y-42463980D01*
X210108561Y-42463980D02*
X210108561Y-41463980D01*
X210203800Y-41606838D01*
X210299038Y-41702076D01*
X210394276Y-41749695D01*
X208870466Y-42463980D02*
X209441895Y-42463980D01*
X209156180Y-42463980D02*
X209156180Y-41463980D01*
X209251419Y-41606838D01*
X209346657Y-41702076D01*
X209441895Y-41749695D01*
X207727609Y-41416361D02*
X208584752Y-42702076D01*
X207441895Y-41559219D02*
X207394276Y-41511600D01*
X207299038Y-41463980D01*
X207060942Y-41463980D01*
X206965704Y-41511600D01*
X206918085Y-41559219D01*
X206870466Y-41654457D01*
X206870466Y-41749695D01*
X206918085Y-41892552D01*
X207489514Y-42463980D01*
X206870466Y-42463980D01*
X206251419Y-41463980D02*
X206156180Y-41463980D01*
X206060942Y-41511600D01*
X206013323Y-41559219D01*
X205965704Y-41654457D01*
X205918085Y-41844933D01*
X205918085Y-42083028D01*
X205965704Y-42273504D01*
X206013323Y-42368742D01*
X206060942Y-42416361D01*
X206156180Y-42463980D01*
X206251419Y-42463980D01*
X206346657Y-42416361D01*
X206394276Y-42368742D01*
X206441895Y-42273504D01*
X206489514Y-42083028D01*
X206489514Y-41844933D01*
X206441895Y-41654457D01*
X206394276Y-41559219D01*
X206346657Y-41511600D01*
X206251419Y-41463980D01*
X205537133Y-41559219D02*
X205489514Y-41511600D01*
X205394276Y-41463980D01*
X205156180Y-41463980D01*
X205060942Y-41511600D01*
X205013323Y-41559219D01*
X204965704Y-41654457D01*
X204965704Y-41749695D01*
X205013323Y-41892552D01*
X205584752Y-42463980D01*
X204965704Y-42463980D01*
X204346657Y-41463980D02*
X204251419Y-41463980D01*
X204156180Y-41511600D01*
X204108561Y-41559219D01*
X204060942Y-41654457D01*
X204013323Y-41844933D01*
X204013323Y-42083028D01*
X204060942Y-42273504D01*
X204108561Y-42368742D01*
X204156180Y-42416361D01*
X204251419Y-42463980D01*
X204346657Y-42463980D01*
X204441895Y-42416361D01*
X204489514Y-42368742D01*
X204537133Y-42273504D01*
X204584752Y-42083028D01*
X204584752Y-41844933D01*
X204537133Y-41654457D01*
X204489514Y-41559219D01*
X204441895Y-41511600D01*
X204346657Y-41463980D01*
X216097714Y-46426380D02*
X216573904Y-46426380D01*
X216573904Y-45426380D01*
X215192952Y-46331142D02*
X215240571Y-46378761D01*
X215383428Y-46426380D01*
X215478666Y-46426380D01*
X215621523Y-46378761D01*
X215716761Y-46283523D01*
X215764380Y-46188285D01*
X215812000Y-45997809D01*
X215812000Y-45854952D01*
X215764380Y-45664476D01*
X215716761Y-45569238D01*
X215621523Y-45474000D01*
X215478666Y-45426380D01*
X215383428Y-45426380D01*
X215240571Y-45474000D01*
X215192952Y-45521619D01*
X214764380Y-46426380D02*
X214764380Y-45426380D01*
X214526285Y-45426380D01*
X214383428Y-45474000D01*
X214288190Y-45569238D01*
X214240571Y-45664476D01*
X214192952Y-45854952D01*
X214192952Y-45997809D01*
X214240571Y-46188285D01*
X214288190Y-46283523D01*
X214383428Y-46378761D01*
X214526285Y-46426380D01*
X214764380Y-46426380D01*
X212669142Y-45902571D02*
X212526285Y-45950190D01*
X212478666Y-45997809D01*
X212431047Y-46093047D01*
X212431047Y-46235904D01*
X212478666Y-46331142D01*
X212526285Y-46378761D01*
X212621523Y-46426380D01*
X213002476Y-46426380D01*
X213002476Y-45426380D01*
X212669142Y-45426380D01*
X212573904Y-45474000D01*
X212526285Y-45521619D01*
X212478666Y-45616857D01*
X212478666Y-45712095D01*
X212526285Y-45807333D01*
X212573904Y-45854952D01*
X212669142Y-45902571D01*
X213002476Y-45902571D01*
X211859619Y-46426380D02*
X211954857Y-46378761D01*
X212002476Y-46331142D01*
X212050095Y-46235904D01*
X212050095Y-45950190D01*
X212002476Y-45854952D01*
X211954857Y-45807333D01*
X211859619Y-45759714D01*
X211716761Y-45759714D01*
X211621523Y-45807333D01*
X211573904Y-45854952D01*
X211526285Y-45950190D01*
X211526285Y-46235904D01*
X211573904Y-46331142D01*
X211621523Y-46378761D01*
X211716761Y-46426380D01*
X211859619Y-46426380D01*
X210669142Y-46426380D02*
X210669142Y-45902571D01*
X210716761Y-45807333D01*
X210812000Y-45759714D01*
X211002476Y-45759714D01*
X211097714Y-45807333D01*
X210669142Y-46378761D02*
X210764380Y-46426380D01*
X211002476Y-46426380D01*
X211097714Y-46378761D01*
X211145333Y-46283523D01*
X211145333Y-46188285D01*
X211097714Y-46093047D01*
X211002476Y-46045428D01*
X210764380Y-46045428D01*
X210669142Y-45997809D01*
X210192952Y-46426380D02*
X210192952Y-45759714D01*
X210192952Y-45950190D02*
X210145333Y-45854952D01*
X210097714Y-45807333D01*
X210002476Y-45759714D01*
X209907238Y-45759714D01*
X209145333Y-46426380D02*
X209145333Y-45426380D01*
X209145333Y-46378761D02*
X209240571Y-46426380D01*
X209431047Y-46426380D01*
X209526285Y-46378761D01*
X209573904Y-46331142D01*
X209621523Y-46235904D01*
X209621523Y-45950190D01*
X209573904Y-45854952D01*
X209526285Y-45807333D01*
X209431047Y-45759714D01*
X209240571Y-45759714D01*
X209145333Y-45807333D01*
X207335809Y-46426380D02*
X207669142Y-45950190D01*
X207907238Y-46426380D02*
X207907238Y-45426380D01*
X207526285Y-45426380D01*
X207431047Y-45474000D01*
X207383428Y-45521619D01*
X207335809Y-45616857D01*
X207335809Y-45759714D01*
X207383428Y-45854952D01*
X207431047Y-45902571D01*
X207526285Y-45950190D01*
X207907238Y-45950190D01*
X206526285Y-46378761D02*
X206621523Y-46426380D01*
X206812000Y-46426380D01*
X206907238Y-46378761D01*
X206954857Y-46283523D01*
X206954857Y-45902571D01*
X206907238Y-45807333D01*
X206812000Y-45759714D01*
X206621523Y-45759714D01*
X206526285Y-45807333D01*
X206478666Y-45902571D01*
X206478666Y-45997809D01*
X206954857Y-46093047D01*
X206145333Y-45759714D02*
X205907238Y-46426380D01*
X205669142Y-45759714D01*
X204002476Y-46426380D02*
X204573904Y-46426380D01*
X204288190Y-46426380D02*
X204288190Y-45426380D01*
X204383428Y-45569238D01*
X204478666Y-45664476D01*
X204573904Y-45712095D01*
X212263110Y-43394380D02*
X212352395Y-44108666D01*
X212417872Y-44251523D01*
X212525014Y-44346761D01*
X212673824Y-44394380D01*
X212769062Y-44394380D01*
X211483348Y-44394380D02*
X211417872Y-43870571D01*
X211453586Y-43775333D01*
X211542872Y-43727714D01*
X211733348Y-43727714D01*
X211834538Y-43775333D01*
X211477395Y-44346761D02*
X211578586Y-44394380D01*
X211816681Y-44394380D01*
X211905967Y-44346761D01*
X211941681Y-44251523D01*
X211929776Y-44156285D01*
X211870252Y-44061047D01*
X211769062Y-44013428D01*
X211530967Y-44013428D01*
X211429776Y-43965809D01*
X210572633Y-44346761D02*
X210673824Y-44394380D01*
X210864300Y-44394380D01*
X210953586Y-44346761D01*
X210995252Y-44299142D01*
X211030967Y-44203904D01*
X210995252Y-43918190D01*
X210935729Y-43822952D01*
X210882157Y-43775333D01*
X210780967Y-43727714D01*
X210590491Y-43727714D01*
X210501205Y-43775333D01*
X210150014Y-44394380D02*
X210025014Y-43394380D01*
X210007157Y-44013428D02*
X209769062Y-44394380D01*
X209685729Y-43727714D02*
X210114300Y-44108666D01*
X209340491Y-44394380D02*
X209257157Y-43727714D01*
X209215491Y-43394380D02*
X209269062Y-43442000D01*
X209227395Y-43489619D01*
X209173824Y-43442000D01*
X209215491Y-43394380D01*
X209227395Y-43489619D01*
X208477395Y-44346761D02*
X208578586Y-44394380D01*
X208769062Y-44394380D01*
X208858348Y-44346761D01*
X208894062Y-44251523D01*
X208846443Y-43870571D01*
X208786919Y-43775333D01*
X208685729Y-43727714D01*
X208495252Y-43727714D01*
X208405967Y-43775333D01*
X208370252Y-43870571D01*
X208382157Y-43965809D01*
X208870252Y-44061047D01*
X207215491Y-43394380D02*
X206548824Y-43394380D01*
X207340491Y-44394380D01*
X206673824Y-44394380D01*
X205905967Y-44346761D02*
X206007157Y-44394380D01*
X206197633Y-44394380D01*
X206286919Y-44346761D01*
X206322633Y-44251523D01*
X206275014Y-43870571D01*
X206215491Y-43775333D01*
X206114300Y-43727714D01*
X205923824Y-43727714D01*
X205834538Y-43775333D01*
X205798824Y-43870571D01*
X205810729Y-43965809D01*
X206298824Y-44061047D01*
X205352395Y-43727714D02*
X205435729Y-44394380D01*
X205364300Y-43822952D02*
X205310729Y-43775333D01*
X205209538Y-43727714D01*
X205066681Y-43727714D01*
X204977395Y-43775333D01*
X204941681Y-43870571D01*
X205007157Y-44394380D01*
X204019062Y-43727714D02*
X204120252Y-44537238D01*
X204179776Y-44632476D01*
X204233348Y-44680095D01*
X204334538Y-44727714D01*
X204477395Y-44727714D01*
X204566681Y-44680095D01*
X204096443Y-44346761D02*
X204197633Y-44394380D01*
X204388110Y-44394380D01*
X204477395Y-44346761D01*
X204519062Y-44299142D01*
X204554776Y-44203904D01*
X204519062Y-43918190D01*
X204459538Y-43822952D01*
X204405967Y-43775333D01*
X204304776Y-43727714D01*
X204114300Y-43727714D01*
X204025014Y-43775333D01*
D12*
G36*
X212039925Y-29166868D02*
G01*
X211820681Y-29200299D01*
X211640872Y-29265430D01*
X211499947Y-29362626D01*
X211397356Y-29492251D01*
X211338661Y-29632355D01*
X211316575Y-29753405D01*
X211307518Y-29908671D01*
X211310925Y-30083421D01*
X211326230Y-30262924D01*
X211352867Y-30432448D01*
X211372674Y-30518100D01*
X211419928Y-30695900D01*
X211566598Y-30703581D01*
X211648649Y-30706258D01*
X211690661Y-30701220D01*
X211703181Y-30685449D01*
X211699773Y-30665481D01*
X211650593Y-30485585D01*
X211618993Y-30333954D01*
X211601931Y-30192426D01*
X211596398Y-30048200D01*
X211597177Y-29928853D01*
X211603281Y-29845066D01*
X211617364Y-29781668D01*
X211642078Y-29723489D01*
X211658520Y-29692919D01*
X211738159Y-29586178D01*
X211843016Y-29511348D01*
X211980054Y-29464928D01*
X212154781Y-29443494D01*
X212392766Y-29453411D01*
X212609120Y-29509285D01*
X212803849Y-29611119D01*
X212976959Y-29758918D01*
X213128455Y-29952687D01*
X213258346Y-30192429D01*
X213293790Y-30275013D01*
X213314365Y-30333544D01*
X213346646Y-30435530D01*
X213389067Y-30575393D01*
X213440060Y-30747553D01*
X213498058Y-30946433D01*
X213561494Y-31166452D01*
X213628800Y-31402031D01*
X213698408Y-31647592D01*
X213768752Y-31897555D01*
X213838264Y-32146342D01*
X213905377Y-32388372D01*
X213968523Y-32618068D01*
X214026134Y-32829849D01*
X214076645Y-33018138D01*
X214118486Y-33177354D01*
X214150091Y-33301919D01*
X214169893Y-33386254D01*
X214174737Y-33410761D01*
X214195248Y-33625416D01*
X214177588Y-33806897D01*
X214121560Y-33955776D01*
X214026962Y-34072628D01*
X213918800Y-34145811D01*
X213850809Y-34178765D01*
X213792781Y-34199159D01*
X213729660Y-34209394D01*
X213646388Y-34211872D01*
X213527909Y-34208995D01*
X213523630Y-34208850D01*
X213398530Y-34202890D01*
X213306987Y-34192554D01*
X213231765Y-34174127D01*
X213155626Y-34143893D01*
X213100500Y-34117639D01*
X212919176Y-34000716D01*
X212755165Y-33838279D01*
X212610577Y-33633288D01*
X212487524Y-33388701D01*
X212394159Y-33127950D01*
X212339053Y-32943800D01*
X212201827Y-32943800D01*
X212126092Y-32947664D01*
X212076253Y-32957616D01*
X212064600Y-32966909D01*
X212074144Y-33018067D01*
X212099949Y-33104327D01*
X212137771Y-33214309D01*
X212183370Y-33336636D01*
X212232503Y-33459929D01*
X212280929Y-33572810D01*
X212324406Y-33663900D01*
X212324524Y-33664127D01*
X212418089Y-33816712D01*
X212537982Y-33970743D01*
X212673390Y-34114996D01*
X212813498Y-34238250D01*
X212947493Y-34329282D01*
X212983447Y-34347948D01*
X213201090Y-34429256D01*
X213436083Y-34477581D01*
X213673286Y-34491322D01*
X213897560Y-34468875D01*
X213969600Y-34452335D01*
X214143344Y-34384338D01*
X214279560Y-34282624D01*
X214380681Y-34144841D01*
X214441243Y-33996333D01*
X214465656Y-33870727D01*
X214476030Y-33714211D01*
X214472109Y-33544767D01*
X214453636Y-33380382D01*
X214450314Y-33361214D01*
X214436216Y-33297892D01*
X214409426Y-33191444D01*
X214371539Y-33047494D01*
X214324147Y-32871667D01*
X214268845Y-32669587D01*
X214207227Y-32446877D01*
X214140885Y-32209163D01*
X214071415Y-31962068D01*
X214000409Y-31711217D01*
X213929461Y-31462234D01*
X213860166Y-31220742D01*
X213794117Y-30992367D01*
X213732907Y-30782732D01*
X213678131Y-30597462D01*
X213631382Y-30442181D01*
X213594254Y-30322512D01*
X213568340Y-30244081D01*
X213562440Y-30227995D01*
X213434080Y-29953559D01*
X213276484Y-29716899D01*
X213092208Y-29519797D01*
X212883813Y-29364036D01*
X212653855Y-29251400D01*
X212404894Y-29183671D01*
X212139487Y-29162633D01*
X212039925Y-29166868D01*
X212039925Y-29166868D01*
G37*
X212039925Y-29166868D02*
X211820681Y-29200299D01*
X211640872Y-29265430D01*
X211499947Y-29362626D01*
X211397356Y-29492251D01*
X211338661Y-29632355D01*
X211316575Y-29753405D01*
X211307518Y-29908671D01*
X211310925Y-30083421D01*
X211326230Y-30262924D01*
X211352867Y-30432448D01*
X211372674Y-30518100D01*
X211419928Y-30695900D01*
X211566598Y-30703581D01*
X211648649Y-30706258D01*
X211690661Y-30701220D01*
X211703181Y-30685449D01*
X211699773Y-30665481D01*
X211650593Y-30485585D01*
X211618993Y-30333954D01*
X211601931Y-30192426D01*
X211596398Y-30048200D01*
X211597177Y-29928853D01*
X211603281Y-29845066D01*
X211617364Y-29781668D01*
X211642078Y-29723489D01*
X211658520Y-29692919D01*
X211738159Y-29586178D01*
X211843016Y-29511348D01*
X211980054Y-29464928D01*
X212154781Y-29443494D01*
X212392766Y-29453411D01*
X212609120Y-29509285D01*
X212803849Y-29611119D01*
X212976959Y-29758918D01*
X213128455Y-29952687D01*
X213258346Y-30192429D01*
X213293790Y-30275013D01*
X213314365Y-30333544D01*
X213346646Y-30435530D01*
X213389067Y-30575393D01*
X213440060Y-30747553D01*
X213498058Y-30946433D01*
X213561494Y-31166452D01*
X213628800Y-31402031D01*
X213698408Y-31647592D01*
X213768752Y-31897555D01*
X213838264Y-32146342D01*
X213905377Y-32388372D01*
X213968523Y-32618068D01*
X214026134Y-32829849D01*
X214076645Y-33018138D01*
X214118486Y-33177354D01*
X214150091Y-33301919D01*
X214169893Y-33386254D01*
X214174737Y-33410761D01*
X214195248Y-33625416D01*
X214177588Y-33806897D01*
X214121560Y-33955776D01*
X214026962Y-34072628D01*
X213918800Y-34145811D01*
X213850809Y-34178765D01*
X213792781Y-34199159D01*
X213729660Y-34209394D01*
X213646388Y-34211872D01*
X213527909Y-34208995D01*
X213523630Y-34208850D01*
X213398530Y-34202890D01*
X213306987Y-34192554D01*
X213231765Y-34174127D01*
X213155626Y-34143893D01*
X213100500Y-34117639D01*
X212919176Y-34000716D01*
X212755165Y-33838279D01*
X212610577Y-33633288D01*
X212487524Y-33388701D01*
X212394159Y-33127950D01*
X212339053Y-32943800D01*
X212201827Y-32943800D01*
X212126092Y-32947664D01*
X212076253Y-32957616D01*
X212064600Y-32966909D01*
X212074144Y-33018067D01*
X212099949Y-33104327D01*
X212137771Y-33214309D01*
X212183370Y-33336636D01*
X212232503Y-33459929D01*
X212280929Y-33572810D01*
X212324406Y-33663900D01*
X212324524Y-33664127D01*
X212418089Y-33816712D01*
X212537982Y-33970743D01*
X212673390Y-34114996D01*
X212813498Y-34238250D01*
X212947493Y-34329282D01*
X212983447Y-34347948D01*
X213201090Y-34429256D01*
X213436083Y-34477581D01*
X213673286Y-34491322D01*
X213897560Y-34468875D01*
X213969600Y-34452335D01*
X214143344Y-34384338D01*
X214279560Y-34282624D01*
X214380681Y-34144841D01*
X214441243Y-33996333D01*
X214465656Y-33870727D01*
X214476030Y-33714211D01*
X214472109Y-33544767D01*
X214453636Y-33380382D01*
X214450314Y-33361214D01*
X214436216Y-33297892D01*
X214409426Y-33191444D01*
X214371539Y-33047494D01*
X214324147Y-32871667D01*
X214268845Y-32669587D01*
X214207227Y-32446877D01*
X214140885Y-32209163D01*
X214071415Y-31962068D01*
X214000409Y-31711217D01*
X213929461Y-31462234D01*
X213860166Y-31220742D01*
X213794117Y-30992367D01*
X213732907Y-30782732D01*
X213678131Y-30597462D01*
X213631382Y-30442181D01*
X213594254Y-30322512D01*
X213568340Y-30244081D01*
X213562440Y-30227995D01*
X213434080Y-29953559D01*
X213276484Y-29716899D01*
X213092208Y-29519797D01*
X212883813Y-29364036D01*
X212653855Y-29251400D01*
X212404894Y-29183671D01*
X212139487Y-29162633D01*
X212039925Y-29166868D01*
G36*
X213775856Y-29173223D02*
G01*
X213766400Y-29192443D01*
X213773153Y-29221320D01*
X213792809Y-29295837D01*
X213824467Y-29412747D01*
X213867225Y-29568801D01*
X213920182Y-29760752D01*
X213982436Y-29985351D01*
X214053084Y-30239352D01*
X214131226Y-30519505D01*
X214215959Y-30822563D01*
X214306381Y-31145279D01*
X214401592Y-31484404D01*
X214491378Y-31803620D01*
X214590385Y-32155374D01*
X214685671Y-32494014D01*
X214776312Y-32816255D01*
X214861385Y-33118815D01*
X214939969Y-33398408D01*
X215011141Y-33651750D01*
X215073979Y-33875557D01*
X215127559Y-34066544D01*
X215170961Y-34221427D01*
X215203260Y-34336922D01*
X215223536Y-34409745D01*
X215230731Y-34436050D01*
X215244968Y-34469216D01*
X215275215Y-34486381D01*
X215335120Y-34492605D01*
X215384808Y-34493200D01*
X215464239Y-34491760D01*
X215503870Y-34484079D01*
X215514690Y-34465117D01*
X215509355Y-34436050D01*
X215500531Y-34404261D01*
X215478852Y-34326841D01*
X215445235Y-34207055D01*
X215400600Y-34048168D01*
X215345865Y-33853446D01*
X215281948Y-33626153D01*
X215209767Y-33369556D01*
X215130242Y-33086919D01*
X215044289Y-32781508D01*
X214952829Y-32456589D01*
X214856779Y-32115426D01*
X214761032Y-31775400D01*
X214027862Y-29171900D01*
X213897131Y-29164222D01*
X213816221Y-29163071D01*
X213775856Y-29173223D01*
X213775856Y-29173223D01*
G37*
X213775856Y-29173223D02*
X213766400Y-29192443D01*
X213773153Y-29221320D01*
X213792809Y-29295837D01*
X213824467Y-29412747D01*
X213867225Y-29568801D01*
X213920182Y-29760752D01*
X213982436Y-29985351D01*
X214053084Y-30239352D01*
X214131226Y-30519505D01*
X214215959Y-30822563D01*
X214306381Y-31145279D01*
X214401592Y-31484404D01*
X214491378Y-31803620D01*
X214590385Y-32155374D01*
X214685671Y-32494014D01*
X214776312Y-32816255D01*
X214861385Y-33118815D01*
X214939969Y-33398408D01*
X215011141Y-33651750D01*
X215073979Y-33875557D01*
X215127559Y-34066544D01*
X215170961Y-34221427D01*
X215203260Y-34336922D01*
X215223536Y-34409745D01*
X215230731Y-34436050D01*
X215244968Y-34469216D01*
X215275215Y-34486381D01*
X215335120Y-34492605D01*
X215384808Y-34493200D01*
X215464239Y-34491760D01*
X215503870Y-34484079D01*
X215514690Y-34465117D01*
X215509355Y-34436050D01*
X215500531Y-34404261D01*
X215478852Y-34326841D01*
X215445235Y-34207055D01*
X215400600Y-34048168D01*
X215345865Y-33853446D01*
X215281948Y-33626153D01*
X215209767Y-33369556D01*
X215130242Y-33086919D01*
X215044289Y-32781508D01*
X214952829Y-32456589D01*
X214856779Y-32115426D01*
X214761032Y-31775400D01*
X214027862Y-29171900D01*
X213897131Y-29164222D01*
X213816221Y-29163071D01*
X213775856Y-29173223D01*
G36*
X216367254Y-29163094D02*
G01*
X216187596Y-29165131D01*
X216185750Y-29165157D01*
X215973020Y-29168639D01*
X215804539Y-29172653D01*
X215673760Y-29177642D01*
X215574134Y-29184050D01*
X215499109Y-29192322D01*
X215442139Y-29202901D01*
X215396672Y-29216230D01*
X215388612Y-29219179D01*
X215231579Y-29303344D01*
X215101905Y-29423331D01*
X215009859Y-29569620D01*
X215009313Y-29570845D01*
X214968715Y-29708070D01*
X214949935Y-29880369D01*
X214952857Y-30076993D01*
X214977360Y-30287197D01*
X215019451Y-30485606D01*
X215126310Y-30829695D01*
X215255347Y-31128103D01*
X215406583Y-31380861D01*
X215580036Y-31588002D01*
X215775727Y-31749558D01*
X215849200Y-31795180D01*
X215914900Y-31832865D01*
X215959228Y-31858401D01*
X215969899Y-31864635D01*
X215957390Y-31883431D01*
X215918423Y-31928277D01*
X215871095Y-31979220D01*
X215780727Y-32085092D01*
X215719309Y-32188075D01*
X215682161Y-32301773D01*
X215664602Y-32439793D01*
X215661598Y-32588200D01*
X215662854Y-32664712D01*
X215666086Y-32733347D01*
X215672764Y-32800973D01*
X215684358Y-32874456D01*
X215702336Y-32960663D01*
X215728168Y-33066460D01*
X215763321Y-33198714D01*
X215809267Y-33364293D01*
X215867473Y-33570062D01*
X215884400Y-33629600D01*
X215938906Y-33821109D01*
X215989364Y-33998198D01*
X216033987Y-34154603D01*
X216070987Y-34284064D01*
X216098573Y-34380319D01*
X216114958Y-34437106D01*
X216118394Y-34448750D01*
X216137796Y-34475652D01*
X216182814Y-34489278D01*
X216265611Y-34493194D01*
X216270012Y-34493200D01*
X216346003Y-34491237D01*
X216396121Y-34486182D01*
X216408000Y-34481410D01*
X216401370Y-34454967D01*
X216382581Y-34385599D01*
X216353286Y-34279266D01*
X216315137Y-34141929D01*
X216269789Y-33979548D01*
X216218894Y-33798086D01*
X216191938Y-33702260D01*
X216137098Y-33505440D01*
X216085795Y-33317430D01*
X216039979Y-33145680D01*
X216001603Y-32997643D01*
X215972617Y-32880769D01*
X215954972Y-32802509D01*
X215951704Y-32784799D01*
X215940558Y-32589765D01*
X215973217Y-32418853D01*
X216049005Y-32273544D01*
X216167246Y-32155317D01*
X216267473Y-32093218D01*
X216320650Y-32066659D01*
X216367267Y-32046954D01*
X216416141Y-32032920D01*
X216476087Y-32023377D01*
X216555920Y-32017143D01*
X216664455Y-32013038D01*
X216810509Y-32009881D01*
X216901489Y-32008268D01*
X217385900Y-31999837D01*
X217689106Y-33087768D01*
X217754012Y-33320415D01*
X217816319Y-33543286D01*
X217874363Y-33750465D01*
X217926482Y-33936036D01*
X217971013Y-34094083D01*
X218006292Y-34218689D01*
X218030656Y-34303940D01*
X218039556Y-34334450D01*
X218086801Y-34493200D01*
X218212601Y-34493200D01*
X218292650Y-34488860D01*
X218331288Y-34474109D01*
X218338400Y-34455994D01*
X218331649Y-34426973D01*
X218311990Y-34352285D01*
X218280318Y-34235154D01*
X218237527Y-34078801D01*
X218184512Y-33886451D01*
X218122167Y-33661326D01*
X218051385Y-33406648D01*
X217973062Y-33125641D01*
X217888091Y-32821527D01*
X217797366Y-32497529D01*
X217701782Y-32156870D01*
X217602233Y-31802773D01*
X217601800Y-31801236D01*
X217576820Y-31712432D01*
X217297000Y-31712432D01*
X217272973Y-31716419D01*
X217206382Y-31719858D01*
X217105461Y-31722517D01*
X216978445Y-31724165D01*
X216863865Y-31724600D01*
X216649056Y-31722061D01*
X216477640Y-31714130D01*
X216342444Y-31700333D01*
X216253126Y-31684205D01*
X216050371Y-31615791D01*
X215869596Y-31506987D01*
X215709645Y-31356344D01*
X215569363Y-31162411D01*
X215447594Y-30923739D01*
X215343183Y-30638876D01*
X215299406Y-30487232D01*
X215245828Y-30236396D01*
X215228711Y-30020826D01*
X215248074Y-29840393D01*
X215303935Y-29694972D01*
X215396312Y-29584434D01*
X215436952Y-29554175D01*
X215504001Y-29515776D01*
X215578257Y-29486682D01*
X215667662Y-29465712D01*
X215780163Y-29451682D01*
X215923702Y-29443410D01*
X216106225Y-29439715D01*
X216209439Y-29439220D01*
X216371602Y-29439410D01*
X216490051Y-29440941D01*
X216571867Y-29444485D01*
X216624130Y-29450712D01*
X216653921Y-29460292D01*
X216668322Y-29473897D01*
X216672160Y-29483050D01*
X216685074Y-29527262D01*
X216709254Y-29611921D01*
X216743034Y-29731079D01*
X216784746Y-29878786D01*
X216832722Y-30049091D01*
X216885296Y-30236046D01*
X216940798Y-30433700D01*
X216997562Y-30636104D01*
X217053921Y-30837309D01*
X217108206Y-31031365D01*
X217158751Y-31212322D01*
X217203887Y-31374231D01*
X217241947Y-31511142D01*
X217271264Y-31617105D01*
X217290171Y-31686172D01*
X217296999Y-31712391D01*
X217297000Y-31712432D01*
X217576820Y-31712432D01*
X217502326Y-31447617D01*
X217406804Y-31107799D01*
X217316127Y-30784969D01*
X217231187Y-30482313D01*
X217152875Y-30203016D01*
X217082084Y-29950265D01*
X217019705Y-29727245D01*
X216966630Y-29537143D01*
X216923750Y-29383145D01*
X216891958Y-29268436D01*
X216872144Y-29196204D01*
X216865202Y-29169633D01*
X216865200Y-29169598D01*
X216840901Y-29166216D01*
X216772383Y-29163831D01*
X216666220Y-29162487D01*
X216528986Y-29162227D01*
X216367254Y-29163094D01*
X216367254Y-29163094D01*
G37*
X216367254Y-29163094D02*
X216187596Y-29165131D01*
X216185750Y-29165157D01*
X215973020Y-29168639D01*
X215804539Y-29172653D01*
X215673760Y-29177642D01*
X215574134Y-29184050D01*
X215499109Y-29192322D01*
X215442139Y-29202901D01*
X215396672Y-29216230D01*
X215388612Y-29219179D01*
X215231579Y-29303344D01*
X215101905Y-29423331D01*
X215009859Y-29569620D01*
X215009313Y-29570845D01*
X214968715Y-29708070D01*
X214949935Y-29880369D01*
X214952857Y-30076993D01*
X214977360Y-30287197D01*
X215019451Y-30485606D01*
X215126310Y-30829695D01*
X215255347Y-31128103D01*
X215406583Y-31380861D01*
X215580036Y-31588002D01*
X215775727Y-31749558D01*
X215849200Y-31795180D01*
X215914900Y-31832865D01*
X215959228Y-31858401D01*
X215969899Y-31864635D01*
X215957390Y-31883431D01*
X215918423Y-31928277D01*
X215871095Y-31979220D01*
X215780727Y-32085092D01*
X215719309Y-32188075D01*
X215682161Y-32301773D01*
X215664602Y-32439793D01*
X215661598Y-32588200D01*
X215662854Y-32664712D01*
X215666086Y-32733347D01*
X215672764Y-32800973D01*
X215684358Y-32874456D01*
X215702336Y-32960663D01*
X215728168Y-33066460D01*
X215763321Y-33198714D01*
X215809267Y-33364293D01*
X215867473Y-33570062D01*
X215884400Y-33629600D01*
X215938906Y-33821109D01*
X215989364Y-33998198D01*
X216033987Y-34154603D01*
X216070987Y-34284064D01*
X216098573Y-34380319D01*
X216114958Y-34437106D01*
X216118394Y-34448750D01*
X216137796Y-34475652D01*
X216182814Y-34489278D01*
X216265611Y-34493194D01*
X216270012Y-34493200D01*
X216346003Y-34491237D01*
X216396121Y-34486182D01*
X216408000Y-34481410D01*
X216401370Y-34454967D01*
X216382581Y-34385599D01*
X216353286Y-34279266D01*
X216315137Y-34141929D01*
X216269789Y-33979548D01*
X216218894Y-33798086D01*
X216191938Y-33702260D01*
X216137098Y-33505440D01*
X216085795Y-33317430D01*
X216039979Y-33145680D01*
X216001603Y-32997643D01*
X215972617Y-32880769D01*
X215954972Y-32802509D01*
X215951704Y-32784799D01*
X215940558Y-32589765D01*
X215973217Y-32418853D01*
X216049005Y-32273544D01*
X216167246Y-32155317D01*
X216267473Y-32093218D01*
X216320650Y-32066659D01*
X216367267Y-32046954D01*
X216416141Y-32032920D01*
X216476087Y-32023377D01*
X216555920Y-32017143D01*
X216664455Y-32013038D01*
X216810509Y-32009881D01*
X216901489Y-32008268D01*
X217385900Y-31999837D01*
X217689106Y-33087768D01*
X217754012Y-33320415D01*
X217816319Y-33543286D01*
X217874363Y-33750465D01*
X217926482Y-33936036D01*
X217971013Y-34094083D01*
X218006292Y-34218689D01*
X218030656Y-34303940D01*
X218039556Y-34334450D01*
X218086801Y-34493200D01*
X218212601Y-34493200D01*
X218292650Y-34488860D01*
X218331288Y-34474109D01*
X218338400Y-34455994D01*
X218331649Y-34426973D01*
X218311990Y-34352285D01*
X218280318Y-34235154D01*
X218237527Y-34078801D01*
X218184512Y-33886451D01*
X218122167Y-33661326D01*
X218051385Y-33406648D01*
X217973062Y-33125641D01*
X217888091Y-32821527D01*
X217797366Y-32497529D01*
X217701782Y-32156870D01*
X217602233Y-31802773D01*
X217601800Y-31801236D01*
X217576820Y-31712432D01*
X217297000Y-31712432D01*
X217272973Y-31716419D01*
X217206382Y-31719858D01*
X217105461Y-31722517D01*
X216978445Y-31724165D01*
X216863865Y-31724600D01*
X216649056Y-31722061D01*
X216477640Y-31714130D01*
X216342444Y-31700333D01*
X216253126Y-31684205D01*
X216050371Y-31615791D01*
X215869596Y-31506987D01*
X215709645Y-31356344D01*
X215569363Y-31162411D01*
X215447594Y-30923739D01*
X215343183Y-30638876D01*
X215299406Y-30487232D01*
X215245828Y-30236396D01*
X215228711Y-30020826D01*
X215248074Y-29840393D01*
X215303935Y-29694972D01*
X215396312Y-29584434D01*
X215436952Y-29554175D01*
X215504001Y-29515776D01*
X215578257Y-29486682D01*
X215667662Y-29465712D01*
X215780163Y-29451682D01*
X215923702Y-29443410D01*
X216106225Y-29439715D01*
X216209439Y-29439220D01*
X216371602Y-29439410D01*
X216490051Y-29440941D01*
X216571867Y-29444485D01*
X216624130Y-29450712D01*
X216653921Y-29460292D01*
X216668322Y-29473897D01*
X216672160Y-29483050D01*
X216685074Y-29527262D01*
X216709254Y-29611921D01*
X216743034Y-29731079D01*
X216784746Y-29878786D01*
X216832722Y-30049091D01*
X216885296Y-30236046D01*
X216940798Y-30433700D01*
X216997562Y-30636104D01*
X217053921Y-30837309D01*
X217108206Y-31031365D01*
X217158751Y-31212322D01*
X217203887Y-31374231D01*
X217241947Y-31511142D01*
X217271264Y-31617105D01*
X217290171Y-31686172D01*
X217296999Y-31712391D01*
X217297000Y-31712432D01*
X217576820Y-31712432D01*
X217502326Y-31447617D01*
X217406804Y-31107799D01*
X217316127Y-30784969D01*
X217231187Y-30482313D01*
X217152875Y-30203016D01*
X217082084Y-29950265D01*
X217019705Y-29727245D01*
X216966630Y-29537143D01*
X216923750Y-29383145D01*
X216891958Y-29268436D01*
X216872144Y-29196204D01*
X216865202Y-29169633D01*
X216865200Y-29169598D01*
X216840901Y-29166216D01*
X216772383Y-29163831D01*
X216666220Y-29162487D01*
X216528986Y-29162227D01*
X216367254Y-29163094D01*
G36*
X218392702Y-29159341D02*
G01*
X218146338Y-29159748D01*
X217920395Y-29160394D01*
X217719439Y-29161254D01*
X217548038Y-29162300D01*
X217410756Y-29163507D01*
X217312160Y-29164848D01*
X217256817Y-29166297D01*
X217246200Y-29167289D01*
X217252815Y-29194059D01*
X217269825Y-29254275D01*
X217285156Y-29306555D01*
X217324111Y-29437731D01*
X217962347Y-29444515D01*
X218600583Y-29451300D01*
X219290657Y-31902400D01*
X219387318Y-32245807D01*
X219480299Y-32576287D01*
X219568648Y-32890446D01*
X219651411Y-33184888D01*
X219727637Y-33456221D01*
X219796372Y-33701050D01*
X219856663Y-33915979D01*
X219907559Y-34097616D01*
X219948105Y-34242565D01*
X219977351Y-34347433D01*
X219994342Y-34408825D01*
X219998250Y-34423350D01*
X220012219Y-34463554D01*
X220037496Y-34484379D01*
X220088259Y-34492144D01*
X220154984Y-34493200D01*
X220231293Y-34492152D01*
X220281721Y-34489451D01*
X220293876Y-34486850D01*
X220287095Y-34462051D01*
X220267450Y-34391595D01*
X220235850Y-34278718D01*
X220193206Y-34126659D01*
X220140428Y-33938656D01*
X220078425Y-33717948D01*
X220008108Y-33467774D01*
X219930385Y-33191371D01*
X219846169Y-32891977D01*
X219756367Y-32572832D01*
X219661891Y-32237173D01*
X219585517Y-31965900D01*
X218877483Y-29451300D01*
X219512190Y-29444508D01*
X219710877Y-29442005D01*
X219864077Y-29439026D01*
X219977106Y-29435207D01*
X220055277Y-29430178D01*
X220103904Y-29423574D01*
X220128300Y-29415029D01*
X220133780Y-29404174D01*
X220133055Y-29401647D01*
X220117902Y-29355108D01*
X220097299Y-29283876D01*
X220091428Y-29262388D01*
X220063642Y-29159200D01*
X218654921Y-29159200D01*
X218392702Y-29159341D01*
X218392702Y-29159341D01*
G37*
X218392702Y-29159341D02*
X218146338Y-29159748D01*
X217920395Y-29160394D01*
X217719439Y-29161254D01*
X217548038Y-29162300D01*
X217410756Y-29163507D01*
X217312160Y-29164848D01*
X217256817Y-29166297D01*
X217246200Y-29167289D01*
X217252815Y-29194059D01*
X217269825Y-29254275D01*
X217285156Y-29306555D01*
X217324111Y-29437731D01*
X217962347Y-29444515D01*
X218600583Y-29451300D01*
X219290657Y-31902400D01*
X219387318Y-32245807D01*
X219480299Y-32576287D01*
X219568648Y-32890446D01*
X219651411Y-33184888D01*
X219727637Y-33456221D01*
X219796372Y-33701050D01*
X219856663Y-33915979D01*
X219907559Y-34097616D01*
X219948105Y-34242565D01*
X219977351Y-34347433D01*
X219994342Y-34408825D01*
X219998250Y-34423350D01*
X220012219Y-34463554D01*
X220037496Y-34484379D01*
X220088259Y-34492144D01*
X220154984Y-34493200D01*
X220231293Y-34492152D01*
X220281721Y-34489451D01*
X220293876Y-34486850D01*
X220287095Y-34462051D01*
X220267450Y-34391595D01*
X220235850Y-34278718D01*
X220193206Y-34126659D01*
X220140428Y-33938656D01*
X220078425Y-33717948D01*
X220008108Y-33467774D01*
X219930385Y-33191371D01*
X219846169Y-32891977D01*
X219756367Y-32572832D01*
X219661891Y-32237173D01*
X219585517Y-31965900D01*
X218877483Y-29451300D01*
X219512190Y-29444508D01*
X219710877Y-29442005D01*
X219864077Y-29439026D01*
X219977106Y-29435207D01*
X220055277Y-29430178D01*
X220103904Y-29423574D01*
X220128300Y-29415029D01*
X220133780Y-29404174D01*
X220133055Y-29401647D01*
X220117902Y-29355108D01*
X220097299Y-29283876D01*
X220091428Y-29262388D01*
X220063642Y-29159200D01*
X218654921Y-29159200D01*
X218392702Y-29159341D01*
G36*
X221241976Y-29173181D02*
G01*
X221148076Y-29176466D01*
X221077963Y-29185137D01*
X221018132Y-29201519D01*
X220955080Y-29227935D01*
X220900485Y-29254284D01*
X220750744Y-29352567D01*
X220638440Y-29481979D01*
X220563418Y-29643238D01*
X220525521Y-29837060D01*
X220524595Y-30064164D01*
X220560482Y-30325267D01*
X220616533Y-30562550D01*
X220656495Y-30708600D01*
X220792848Y-30708600D01*
X220868321Y-30706106D01*
X220917837Y-30699687D01*
X220929200Y-30693781D01*
X220923414Y-30663783D01*
X220908066Y-30597497D01*
X220886178Y-30507853D01*
X220880270Y-30484231D01*
X220830953Y-30252946D01*
X220809828Y-30059030D01*
X220817393Y-29897269D01*
X220854143Y-29762446D01*
X220920576Y-29649345D01*
X220964468Y-29599921D01*
X221055196Y-29524086D01*
X221154960Y-29474519D01*
X221274969Y-29448100D01*
X221426434Y-29441710D01*
X221520435Y-29445217D01*
X221648760Y-29455945D01*
X221747668Y-29474690D01*
X221838457Y-29506511D01*
X221901435Y-29535730D01*
X222083252Y-29652874D01*
X222248033Y-29814658D01*
X222392274Y-30016754D01*
X222512472Y-30254837D01*
X222540241Y-30324446D01*
X222559255Y-30381136D01*
X222590144Y-30481109D01*
X222631297Y-30618670D01*
X222681103Y-30788124D01*
X222737950Y-30983777D01*
X222800226Y-31199935D01*
X222866320Y-31430903D01*
X222934622Y-31670986D01*
X223003518Y-31914490D01*
X223071398Y-32155721D01*
X223136650Y-32388984D01*
X223197663Y-32608585D01*
X223252826Y-32808829D01*
X223300526Y-32984021D01*
X223339152Y-33128467D01*
X223367094Y-33236473D01*
X223382115Y-33299400D01*
X223401792Y-33416659D01*
X223414778Y-33542826D01*
X223417818Y-33616900D01*
X223402238Y-33804349D01*
X223353585Y-33954540D01*
X223270209Y-34069024D01*
X223150459Y-34149353D01*
X222992685Y-34197078D01*
X222795235Y-34213752D01*
X222782852Y-34213800D01*
X222552991Y-34191751D01*
X222345159Y-34125299D01*
X222158851Y-34013982D01*
X221993560Y-33857341D01*
X221848779Y-33654915D01*
X221724004Y-33406243D01*
X221637829Y-33172400D01*
X221568508Y-32956500D01*
X221426654Y-32948882D01*
X221349541Y-32946630D01*
X221298022Y-32948743D01*
X221284800Y-32952941D01*
X221292176Y-32980553D01*
X221312031Y-33045429D01*
X221340953Y-33136583D01*
X221362067Y-33201859D01*
X221484857Y-33520775D01*
X221630759Y-33794459D01*
X221799769Y-34022909D01*
X221991886Y-34206121D01*
X222207107Y-34344095D01*
X222445429Y-34436827D01*
X222706850Y-34484316D01*
X222872300Y-34491110D01*
X222987647Y-34486368D01*
X223100050Y-34475152D01*
X223186430Y-34459813D01*
X223191056Y-34458605D01*
X223367971Y-34388037D01*
X223509070Y-34281479D01*
X223614213Y-34139059D01*
X223660767Y-34034255D01*
X223684860Y-33928832D01*
X223697759Y-33788975D01*
X223699414Y-33629809D01*
X223689778Y-33466462D01*
X223668801Y-33314061D01*
X223663170Y-33285892D01*
X223649282Y-33228684D01*
X223623046Y-33128411D01*
X223586079Y-32990850D01*
X223540003Y-32821779D01*
X223486437Y-32626974D01*
X223426999Y-32412213D01*
X223363310Y-32183274D01*
X223296989Y-31945932D01*
X223229656Y-31705966D01*
X223162930Y-31469152D01*
X223098430Y-31241268D01*
X223037776Y-31028091D01*
X222982587Y-30835397D01*
X222934484Y-30668964D01*
X222895085Y-30534569D01*
X222866010Y-30437990D01*
X222855239Y-30403800D01*
X222737977Y-30105460D01*
X222592672Y-29843978D01*
X222421187Y-29621536D01*
X222225382Y-29440315D01*
X222007121Y-29302496D01*
X221861787Y-29239963D01*
X221772368Y-29210321D01*
X221690952Y-29190909D01*
X221602101Y-29179611D01*
X221490377Y-29174309D01*
X221373166Y-29172959D01*
X221241976Y-29173181D01*
X221241976Y-29173181D01*
G37*
X221241976Y-29173181D02*
X221148076Y-29176466D01*
X221077963Y-29185137D01*
X221018132Y-29201519D01*
X220955080Y-29227935D01*
X220900485Y-29254284D01*
X220750744Y-29352567D01*
X220638440Y-29481979D01*
X220563418Y-29643238D01*
X220525521Y-29837060D01*
X220524595Y-30064164D01*
X220560482Y-30325267D01*
X220616533Y-30562550D01*
X220656495Y-30708600D01*
X220792848Y-30708600D01*
X220868321Y-30706106D01*
X220917837Y-30699687D01*
X220929200Y-30693781D01*
X220923414Y-30663783D01*
X220908066Y-30597497D01*
X220886178Y-30507853D01*
X220880270Y-30484231D01*
X220830953Y-30252946D01*
X220809828Y-30059030D01*
X220817393Y-29897269D01*
X220854143Y-29762446D01*
X220920576Y-29649345D01*
X220964468Y-29599921D01*
X221055196Y-29524086D01*
X221154960Y-29474519D01*
X221274969Y-29448100D01*
X221426434Y-29441710D01*
X221520435Y-29445217D01*
X221648760Y-29455945D01*
X221747668Y-29474690D01*
X221838457Y-29506511D01*
X221901435Y-29535730D01*
X222083252Y-29652874D01*
X222248033Y-29814658D01*
X222392274Y-30016754D01*
X222512472Y-30254837D01*
X222540241Y-30324446D01*
X222559255Y-30381136D01*
X222590144Y-30481109D01*
X222631297Y-30618670D01*
X222681103Y-30788124D01*
X222737950Y-30983777D01*
X222800226Y-31199935D01*
X222866320Y-31430903D01*
X222934622Y-31670986D01*
X223003518Y-31914490D01*
X223071398Y-32155721D01*
X223136650Y-32388984D01*
X223197663Y-32608585D01*
X223252826Y-32808829D01*
X223300526Y-32984021D01*
X223339152Y-33128467D01*
X223367094Y-33236473D01*
X223382115Y-33299400D01*
X223401792Y-33416659D01*
X223414778Y-33542826D01*
X223417818Y-33616900D01*
X223402238Y-33804349D01*
X223353585Y-33954540D01*
X223270209Y-34069024D01*
X223150459Y-34149353D01*
X222992685Y-34197078D01*
X222795235Y-34213752D01*
X222782852Y-34213800D01*
X222552991Y-34191751D01*
X222345159Y-34125299D01*
X222158851Y-34013982D01*
X221993560Y-33857341D01*
X221848779Y-33654915D01*
X221724004Y-33406243D01*
X221637829Y-33172400D01*
X221568508Y-32956500D01*
X221426654Y-32948882D01*
X221349541Y-32946630D01*
X221298022Y-32948743D01*
X221284800Y-32952941D01*
X221292176Y-32980553D01*
X221312031Y-33045429D01*
X221340953Y-33136583D01*
X221362067Y-33201859D01*
X221484857Y-33520775D01*
X221630759Y-33794459D01*
X221799769Y-34022909D01*
X221991886Y-34206121D01*
X222207107Y-34344095D01*
X222445429Y-34436827D01*
X222706850Y-34484316D01*
X222872300Y-34491110D01*
X222987647Y-34486368D01*
X223100050Y-34475152D01*
X223186430Y-34459813D01*
X223191056Y-34458605D01*
X223367971Y-34388037D01*
X223509070Y-34281479D01*
X223614213Y-34139059D01*
X223660767Y-34034255D01*
X223684860Y-33928832D01*
X223697759Y-33788975D01*
X223699414Y-33629809D01*
X223689778Y-33466462D01*
X223668801Y-33314061D01*
X223663170Y-33285892D01*
X223649282Y-33228684D01*
X223623046Y-33128411D01*
X223586079Y-32990850D01*
X223540003Y-32821779D01*
X223486437Y-32626974D01*
X223426999Y-32412213D01*
X223363310Y-32183274D01*
X223296989Y-31945932D01*
X223229656Y-31705966D01*
X223162930Y-31469152D01*
X223098430Y-31241268D01*
X223037776Y-31028091D01*
X222982587Y-30835397D01*
X222934484Y-30668964D01*
X222895085Y-30534569D01*
X222866010Y-30437990D01*
X222855239Y-30403800D01*
X222737977Y-30105460D01*
X222592672Y-29843978D01*
X222421187Y-29621536D01*
X222225382Y-29440315D01*
X222007121Y-29302496D01*
X221861787Y-29239963D01*
X221772368Y-29210321D01*
X221690952Y-29190909D01*
X221602101Y-29179611D01*
X221490377Y-29174309D01*
X221373166Y-29172959D01*
X221241976Y-29173181D01*
G36*
X223642275Y-29159809D02*
G01*
X223412515Y-29161659D01*
X223231199Y-29164782D01*
X223097159Y-29169211D01*
X223009224Y-29174979D01*
X222966224Y-29182118D01*
X222961200Y-29186052D01*
X222967029Y-29225443D01*
X222981722Y-29293343D01*
X222989616Y-29325752D01*
X223018031Y-29438599D01*
X223852732Y-29438600D01*
X224687433Y-29438600D01*
X224704905Y-29508450D01*
X224715360Y-29547206D01*
X224738100Y-29629417D01*
X224771603Y-29749650D01*
X224814348Y-29902470D01*
X224864815Y-30082446D01*
X224921482Y-30284143D01*
X224982828Y-30502128D01*
X225019536Y-30632400D01*
X225316695Y-31686500D01*
X224494548Y-31693197D01*
X224246061Y-31695829D01*
X224045799Y-31699343D01*
X223891191Y-31703850D01*
X223779667Y-31709458D01*
X223708658Y-31716279D01*
X223675593Y-31724421D01*
X223672400Y-31728350D01*
X223679260Y-31769457D01*
X223696290Y-31836035D01*
X223701821Y-31855003D01*
X223731242Y-31953200D01*
X225391658Y-31953200D01*
X225539838Y-32480250D01*
X225593412Y-32670776D01*
X225655880Y-32892890D01*
X225722374Y-33129283D01*
X225788024Y-33362643D01*
X225847961Y-33575658D01*
X225855993Y-33604200D01*
X226023968Y-34201100D01*
X225203784Y-34207797D01*
X224941351Y-34210747D01*
X224729550Y-34214901D01*
X224568229Y-34220266D01*
X224457234Y-34226848D01*
X224396412Y-34234654D01*
X224383600Y-34240999D01*
X224389425Y-34280161D01*
X224404110Y-34347906D01*
X224412016Y-34380352D01*
X224440431Y-34493200D01*
X225402616Y-34493200D01*
X225660461Y-34492845D01*
X225871340Y-34491700D01*
X226039082Y-34489637D01*
X226167516Y-34486532D01*
X226260472Y-34482260D01*
X226321779Y-34476696D01*
X226355266Y-34469714D01*
X226364800Y-34461748D01*
X226358054Y-34433529D01*
X226338408Y-34359619D01*
X226306754Y-34243221D01*
X226263980Y-34087538D01*
X226210977Y-33895772D01*
X226148637Y-33671126D01*
X226077847Y-33416803D01*
X225999500Y-33136003D01*
X225914484Y-32831931D01*
X225823691Y-32507789D01*
X225728011Y-32166779D01*
X225628333Y-31812103D01*
X225623451Y-31794748D01*
X224882102Y-29159200D01*
X223921651Y-29159200D01*
X223642275Y-29159809D01*
X223642275Y-29159809D01*
G37*
X223642275Y-29159809D02*
X223412515Y-29161659D01*
X223231199Y-29164782D01*
X223097159Y-29169211D01*
X223009224Y-29174979D01*
X222966224Y-29182118D01*
X222961200Y-29186052D01*
X222967029Y-29225443D01*
X222981722Y-29293343D01*
X222989616Y-29325752D01*
X223018031Y-29438599D01*
X223852732Y-29438600D01*
X224687433Y-29438600D01*
X224704905Y-29508450D01*
X224715360Y-29547206D01*
X224738100Y-29629417D01*
X224771603Y-29749650D01*
X224814348Y-29902470D01*
X224864815Y-30082446D01*
X224921482Y-30284143D01*
X224982828Y-30502128D01*
X225019536Y-30632400D01*
X225316695Y-31686500D01*
X224494548Y-31693197D01*
X224246061Y-31695829D01*
X224045799Y-31699343D01*
X223891191Y-31703850D01*
X223779667Y-31709458D01*
X223708658Y-31716279D01*
X223675593Y-31724421D01*
X223672400Y-31728350D01*
X223679260Y-31769457D01*
X223696290Y-31836035D01*
X223701821Y-31855003D01*
X223731242Y-31953200D01*
X225391658Y-31953200D01*
X225539838Y-32480250D01*
X225593412Y-32670776D01*
X225655880Y-32892890D01*
X225722374Y-33129283D01*
X225788024Y-33362643D01*
X225847961Y-33575658D01*
X225855993Y-33604200D01*
X226023968Y-34201100D01*
X225203784Y-34207797D01*
X224941351Y-34210747D01*
X224729550Y-34214901D01*
X224568229Y-34220266D01*
X224457234Y-34226848D01*
X224396412Y-34234654D01*
X224383600Y-34240999D01*
X224389425Y-34280161D01*
X224404110Y-34347906D01*
X224412016Y-34380352D01*
X224440431Y-34493200D01*
X225402616Y-34493200D01*
X225660461Y-34492845D01*
X225871340Y-34491700D01*
X226039082Y-34489637D01*
X226167516Y-34486532D01*
X226260472Y-34482260D01*
X226321779Y-34476696D01*
X226355266Y-34469714D01*
X226364800Y-34461748D01*
X226358054Y-34433529D01*
X226338408Y-34359619D01*
X226306754Y-34243221D01*
X226263980Y-34087538D01*
X226210977Y-33895772D01*
X226148637Y-33671126D01*
X226077847Y-33416803D01*
X225999500Y-33136003D01*
X225914484Y-32831931D01*
X225823691Y-32507789D01*
X225728011Y-32166779D01*
X225628333Y-31812103D01*
X225623451Y-31794748D01*
X224882102Y-29159200D01*
X223921651Y-29159200D01*
X223642275Y-29159809D01*
G36*
X227036597Y-29162365D02*
G01*
X226986848Y-29170522D01*
X226975265Y-29178250D01*
X226982132Y-29204826D01*
X227001882Y-29277026D01*
X227033600Y-29391579D01*
X227076370Y-29545220D01*
X227129277Y-29734679D01*
X227191406Y-29956689D01*
X227261842Y-30207981D01*
X227339670Y-30485289D01*
X227423975Y-30785344D01*
X227513842Y-31104877D01*
X227608354Y-31440622D01*
X227681201Y-31699200D01*
X228386274Y-34201100D01*
X226614908Y-34214454D01*
X226632790Y-34296677D01*
X226652419Y-34373909D01*
X226672208Y-34436050D01*
X226693743Y-34493200D01*
X227724783Y-34493200D01*
X227980851Y-34493094D01*
X228190625Y-34492645D01*
X228358610Y-34491656D01*
X228489311Y-34489931D01*
X228587235Y-34487272D01*
X228656888Y-34483483D01*
X228702773Y-34478366D01*
X228729398Y-34471724D01*
X228741268Y-34463362D01*
X228742887Y-34453081D01*
X228741790Y-34448750D01*
X228733125Y-34418682D01*
X228711633Y-34342971D01*
X228678232Y-34224879D01*
X228633842Y-34067669D01*
X228579382Y-33874602D01*
X228515772Y-33648939D01*
X228443930Y-33393944D01*
X228364776Y-33112877D01*
X228279229Y-32809002D01*
X228188208Y-32485578D01*
X228092633Y-32145870D01*
X228002721Y-31826200D01*
X227903813Y-31474536D01*
X227808631Y-31136197D01*
X227718094Y-30814445D01*
X227633123Y-30512541D01*
X227554634Y-30233748D01*
X227483547Y-29981328D01*
X227420780Y-29758542D01*
X227367254Y-29568651D01*
X227323885Y-29414919D01*
X227291593Y-29300607D01*
X227271297Y-29228976D01*
X227264031Y-29203650D01*
X227244608Y-29176746D01*
X227199566Y-29163119D01*
X227116741Y-29159205D01*
X227112389Y-29159200D01*
X227036597Y-29162365D01*
X227036597Y-29162365D01*
G37*
X227036597Y-29162365D02*
X226986848Y-29170522D01*
X226975265Y-29178250D01*
X226982132Y-29204826D01*
X227001882Y-29277026D01*
X227033600Y-29391579D01*
X227076370Y-29545220D01*
X227129277Y-29734679D01*
X227191406Y-29956689D01*
X227261842Y-30207981D01*
X227339670Y-30485289D01*
X227423975Y-30785344D01*
X227513842Y-31104877D01*
X227608354Y-31440622D01*
X227681201Y-31699200D01*
X228386274Y-34201100D01*
X226614908Y-34214454D01*
X226632790Y-34296677D01*
X226652419Y-34373909D01*
X226672208Y-34436050D01*
X226693743Y-34493200D01*
X227724783Y-34493200D01*
X227980851Y-34493094D01*
X228190625Y-34492645D01*
X228358610Y-34491656D01*
X228489311Y-34489931D01*
X228587235Y-34487272D01*
X228656888Y-34483483D01*
X228702773Y-34478366D01*
X228729398Y-34471724D01*
X228741268Y-34463362D01*
X228742887Y-34453081D01*
X228741790Y-34448750D01*
X228733125Y-34418682D01*
X228711633Y-34342971D01*
X228678232Y-34224879D01*
X228633842Y-34067669D01*
X228579382Y-33874602D01*
X228515772Y-33648939D01*
X228443930Y-33393944D01*
X228364776Y-33112877D01*
X228279229Y-32809002D01*
X228188208Y-32485578D01*
X228092633Y-32145870D01*
X228002721Y-31826200D01*
X227903813Y-31474536D01*
X227808631Y-31136197D01*
X227718094Y-30814445D01*
X227633123Y-30512541D01*
X227554634Y-30233748D01*
X227483547Y-29981328D01*
X227420780Y-29758542D01*
X227367254Y-29568651D01*
X227323885Y-29414919D01*
X227291593Y-29300607D01*
X227271297Y-29228976D01*
X227264031Y-29203650D01*
X227244608Y-29176746D01*
X227199566Y-29163119D01*
X227116741Y-29159205D01*
X227112389Y-29159200D01*
X227036597Y-29162365D01*
G36*
X228407890Y-29159684D02*
G01*
X228209176Y-29161063D01*
X228032809Y-29163229D01*
X227884306Y-29166071D01*
X227769189Y-29169482D01*
X227692974Y-29173351D01*
X227661183Y-29177569D01*
X227660586Y-29178250D01*
X227667556Y-29212136D01*
X227684760Y-29276072D01*
X227695125Y-29311600D01*
X227729279Y-29425900D01*
X228562399Y-29438600D01*
X229395520Y-29451300D01*
X229707993Y-30556200D01*
X229772359Y-30784131D01*
X229832296Y-30997028D01*
X229886417Y-31189915D01*
X229933334Y-31357812D01*
X229971657Y-31495743D01*
X230000000Y-31598729D01*
X230016974Y-31661794D01*
X230021434Y-31680150D01*
X229997267Y-31684740D01*
X229928255Y-31688932D01*
X229820351Y-31692590D01*
X229679510Y-31695574D01*
X229511684Y-31697748D01*
X229322828Y-31698975D01*
X229196417Y-31699200D01*
X228370433Y-31699200D01*
X228387336Y-31769050D01*
X228408251Y-31844416D01*
X228425291Y-31896050D01*
X228446343Y-31953200D01*
X230096449Y-31953200D01*
X230146978Y-32124650D01*
X230165488Y-32188660D01*
X230195762Y-32294814D01*
X230235885Y-32436331D01*
X230283941Y-32606431D01*
X230338015Y-32798334D01*
X230396191Y-33005259D01*
X230453771Y-33210500D01*
X230512172Y-33418789D01*
X230566617Y-33612784D01*
X230615500Y-33786777D01*
X230657215Y-33935060D01*
X230690156Y-34051924D01*
X230712718Y-34131661D01*
X230723293Y-34168562D01*
X230723530Y-34169350D01*
X230724591Y-34181544D01*
X230716232Y-34191286D01*
X230693440Y-34198849D01*
X230651205Y-34204507D01*
X230584517Y-34208532D01*
X230488365Y-34211200D01*
X230357738Y-34212783D01*
X230187625Y-34213556D01*
X229973016Y-34213792D01*
X229909812Y-34213800D01*
X229710626Y-34214362D01*
X229528707Y-34215956D01*
X229370009Y-34218446D01*
X229240487Y-34221694D01*
X229146096Y-34225563D01*
X229092792Y-34229916D01*
X229082986Y-34232850D01*
X229089957Y-34266735D01*
X229107165Y-34330670D01*
X229117534Y-34366200D01*
X229151696Y-34480500D01*
X230122256Y-34487153D01*
X230369924Y-34488742D01*
X230571439Y-34489652D01*
X230731447Y-34489699D01*
X230854593Y-34488698D01*
X230945523Y-34486462D01*
X231008880Y-34482809D01*
X231049312Y-34477552D01*
X231071462Y-34470507D01*
X231079977Y-34461488D01*
X231079500Y-34450311D01*
X231079133Y-34449053D01*
X231070511Y-34418898D01*
X231049085Y-34343122D01*
X231015779Y-34225014D01*
X230971517Y-34067861D01*
X230917225Y-33874953D01*
X230853828Y-33649577D01*
X230782249Y-33395022D01*
X230703415Y-33114577D01*
X230618251Y-32811530D01*
X230527680Y-32489169D01*
X230432627Y-32150782D01*
X230352171Y-31864300D01*
X230253860Y-31514311D01*
X230159063Y-31177024D01*
X230068724Y-30855790D01*
X229983789Y-30553963D01*
X229905205Y-30274897D01*
X229833915Y-30021946D01*
X229770866Y-29798461D01*
X229717003Y-29607798D01*
X229673272Y-29453309D01*
X229640617Y-29338347D01*
X229619985Y-29266267D01*
X229612777Y-29241750D01*
X229586661Y-29159200D01*
X228623431Y-29159200D01*
X228407890Y-29159684D01*
X228407890Y-29159684D01*
G37*
X228407890Y-29159684D02*
X228209176Y-29161063D01*
X228032809Y-29163229D01*
X227884306Y-29166071D01*
X227769189Y-29169482D01*
X227692974Y-29173351D01*
X227661183Y-29177569D01*
X227660586Y-29178250D01*
X227667556Y-29212136D01*
X227684760Y-29276072D01*
X227695125Y-29311600D01*
X227729279Y-29425900D01*
X228562399Y-29438600D01*
X229395520Y-29451300D01*
X229707993Y-30556200D01*
X229772359Y-30784131D01*
X229832296Y-30997028D01*
X229886417Y-31189915D01*
X229933334Y-31357812D01*
X229971657Y-31495743D01*
X230000000Y-31598729D01*
X230016974Y-31661794D01*
X230021434Y-31680150D01*
X229997267Y-31684740D01*
X229928255Y-31688932D01*
X229820351Y-31692590D01*
X229679510Y-31695574D01*
X229511684Y-31697748D01*
X229322828Y-31698975D01*
X229196417Y-31699200D01*
X228370433Y-31699200D01*
X228387336Y-31769050D01*
X228408251Y-31844416D01*
X228425291Y-31896050D01*
X228446343Y-31953200D01*
X230096449Y-31953200D01*
X230146978Y-32124650D01*
X230165488Y-32188660D01*
X230195762Y-32294814D01*
X230235885Y-32436331D01*
X230283941Y-32606431D01*
X230338015Y-32798334D01*
X230396191Y-33005259D01*
X230453771Y-33210500D01*
X230512172Y-33418789D01*
X230566617Y-33612784D01*
X230615500Y-33786777D01*
X230657215Y-33935060D01*
X230690156Y-34051924D01*
X230712718Y-34131661D01*
X230723293Y-34168562D01*
X230723530Y-34169350D01*
X230724591Y-34181544D01*
X230716232Y-34191286D01*
X230693440Y-34198849D01*
X230651205Y-34204507D01*
X230584517Y-34208532D01*
X230488365Y-34211200D01*
X230357738Y-34212783D01*
X230187625Y-34213556D01*
X229973016Y-34213792D01*
X229909812Y-34213800D01*
X229710626Y-34214362D01*
X229528707Y-34215956D01*
X229370009Y-34218446D01*
X229240487Y-34221694D01*
X229146096Y-34225563D01*
X229092792Y-34229916D01*
X229082986Y-34232850D01*
X229089957Y-34266735D01*
X229107165Y-34330670D01*
X229117534Y-34366200D01*
X229151696Y-34480500D01*
X230122256Y-34487153D01*
X230369924Y-34488742D01*
X230571439Y-34489652D01*
X230731447Y-34489699D01*
X230854593Y-34488698D01*
X230945523Y-34486462D01*
X231008880Y-34482809D01*
X231049312Y-34477552D01*
X231071462Y-34470507D01*
X231079977Y-34461488D01*
X231079500Y-34450311D01*
X231079133Y-34449053D01*
X231070511Y-34418898D01*
X231049085Y-34343122D01*
X231015779Y-34225014D01*
X230971517Y-34067861D01*
X230917225Y-33874953D01*
X230853828Y-33649577D01*
X230782249Y-33395022D01*
X230703415Y-33114577D01*
X230618251Y-32811530D01*
X230527680Y-32489169D01*
X230432627Y-32150782D01*
X230352171Y-31864300D01*
X230253860Y-31514311D01*
X230159063Y-31177024D01*
X230068724Y-30855790D01*
X229983789Y-30553963D01*
X229905205Y-30274897D01*
X229833915Y-30021946D01*
X229770866Y-29798461D01*
X229717003Y-29607798D01*
X229673272Y-29453309D01*
X229640617Y-29338347D01*
X229619985Y-29266267D01*
X229612777Y-29241750D01*
X229586661Y-29159200D01*
X228623431Y-29159200D01*
X228407890Y-29159684D01*
G36*
X231905828Y-29159733D02*
G01*
X231837063Y-29163622D01*
X231787923Y-29170827D01*
X231774499Y-29178250D01*
X231781161Y-29204773D01*
X231800693Y-29277023D01*
X231832212Y-29391822D01*
X231874831Y-29545996D01*
X231927667Y-29736368D01*
X231989834Y-29959761D01*
X232060447Y-30213000D01*
X232138622Y-30492908D01*
X232223474Y-30796311D01*
X232314117Y-31120030D01*
X232409667Y-31460891D01*
X232509240Y-31815718D01*
X232517449Y-31844954D01*
X233260900Y-34492608D01*
X233381550Y-34492904D01*
X233461666Y-34487823D01*
X233498257Y-34470870D01*
X233502200Y-34458204D01*
X233505227Y-34428254D01*
X233514007Y-34351595D01*
X233528093Y-34231938D01*
X233547038Y-34072994D01*
X233570395Y-33878474D01*
X233597714Y-33652090D01*
X233628550Y-33397552D01*
X233662454Y-33118572D01*
X233698978Y-32818860D01*
X233737675Y-32502128D01*
X233768900Y-32247108D01*
X233808983Y-31919852D01*
X233847271Y-31606829D01*
X233883317Y-31311740D01*
X233916670Y-31038286D01*
X233946879Y-30790167D01*
X233973496Y-30571086D01*
X233996071Y-30384742D01*
X234014154Y-30234838D01*
X234027295Y-30125073D01*
X234035044Y-30059149D01*
X234037056Y-30040553D01*
X234043979Y-30059930D01*
X234063675Y-30124852D01*
X234095181Y-30231957D01*
X234137533Y-30377883D01*
X234189769Y-30559266D01*
X234250926Y-30772745D01*
X234320041Y-31014957D01*
X234396150Y-31282540D01*
X234478292Y-31572131D01*
X234565501Y-31880368D01*
X234656817Y-32203888D01*
X234668490Y-32245300D01*
X235298469Y-34480500D01*
X235443869Y-34488181D01*
X235525429Y-34490859D01*
X235566950Y-34485752D01*
X235578970Y-34469807D01*
X235575330Y-34450081D01*
X235566673Y-34419783D01*
X235545209Y-34343866D01*
X235511865Y-34225620D01*
X235467566Y-34068335D01*
X235413237Y-33875303D01*
X235349803Y-33649811D01*
X235278191Y-33395152D01*
X235199324Y-33114614D01*
X235114130Y-32811489D01*
X235023533Y-32489065D01*
X234928459Y-32150634D01*
X234848035Y-31864300D01*
X234749704Y-31514281D01*
X234654880Y-31176940D01*
X234564508Y-30855634D01*
X234479536Y-30553718D01*
X234400909Y-30274547D01*
X234329574Y-30021477D01*
X234266476Y-29797863D01*
X234212563Y-29607062D01*
X234168779Y-29452428D01*
X234136073Y-29337317D01*
X234115389Y-29265086D01*
X234108142Y-29240456D01*
X234088600Y-29189470D01*
X234061688Y-29166225D01*
X234010579Y-29161797D01*
X233964433Y-29164256D01*
X233847260Y-29171900D01*
X233580434Y-31387949D01*
X233540624Y-31716631D01*
X233502226Y-32029884D01*
X233465701Y-32324175D01*
X233431506Y-32595969D01*
X233400103Y-32841731D01*
X233371952Y-33057926D01*
X233347511Y-33241020D01*
X233327242Y-33387478D01*
X233311602Y-33493766D01*
X233301054Y-33556349D01*
X233296272Y-33572349D01*
X233287514Y-33544782D01*
X233266257Y-33472613D01*
X233233700Y-33360087D01*
X233191041Y-33211449D01*
X233139476Y-33030944D01*
X233080206Y-32822817D01*
X233014427Y-32591313D01*
X232943337Y-32340678D01*
X232868135Y-32075156D01*
X232790019Y-31798993D01*
X232710186Y-31516433D01*
X232629835Y-31231721D01*
X232550164Y-30949104D01*
X232472370Y-30672825D01*
X232397653Y-30407130D01*
X232327209Y-30156264D01*
X232262237Y-29924472D01*
X232203935Y-29716000D01*
X232153500Y-29535091D01*
X232112132Y-29385992D01*
X232081028Y-29272947D01*
X232061385Y-29200202D01*
X232054403Y-29172001D01*
X232054400Y-29171927D01*
X232032043Y-29163489D01*
X231976670Y-29159557D01*
X231905828Y-29159733D01*
X231905828Y-29159733D01*
G37*
X231905828Y-29159733D02*
X231837063Y-29163622D01*
X231787923Y-29170827D01*
X231774499Y-29178250D01*
X231781161Y-29204773D01*
X231800693Y-29277023D01*
X231832212Y-29391822D01*
X231874831Y-29545996D01*
X231927667Y-29736368D01*
X231989834Y-29959761D01*
X232060447Y-30213000D01*
X232138622Y-30492908D01*
X232223474Y-30796311D01*
X232314117Y-31120030D01*
X232409667Y-31460891D01*
X232509240Y-31815718D01*
X232517449Y-31844954D01*
X233260900Y-34492608D01*
X233381550Y-34492904D01*
X233461666Y-34487823D01*
X233498257Y-34470870D01*
X233502200Y-34458204D01*
X233505227Y-34428254D01*
X233514007Y-34351595D01*
X233528093Y-34231938D01*
X233547038Y-34072994D01*
X233570395Y-33878474D01*
X233597714Y-33652090D01*
X233628550Y-33397552D01*
X233662454Y-33118572D01*
X233698978Y-32818860D01*
X233737675Y-32502128D01*
X233768900Y-32247108D01*
X233808983Y-31919852D01*
X233847271Y-31606829D01*
X233883317Y-31311740D01*
X233916670Y-31038286D01*
X233946879Y-30790167D01*
X233973496Y-30571086D01*
X233996071Y-30384742D01*
X234014154Y-30234838D01*
X234027295Y-30125073D01*
X234035044Y-30059149D01*
X234037056Y-30040553D01*
X234043979Y-30059930D01*
X234063675Y-30124852D01*
X234095181Y-30231957D01*
X234137533Y-30377883D01*
X234189769Y-30559266D01*
X234250926Y-30772745D01*
X234320041Y-31014957D01*
X234396150Y-31282540D01*
X234478292Y-31572131D01*
X234565501Y-31880368D01*
X234656817Y-32203888D01*
X234668490Y-32245300D01*
X235298469Y-34480500D01*
X235443869Y-34488181D01*
X235525429Y-34490859D01*
X235566950Y-34485752D01*
X235578970Y-34469807D01*
X235575330Y-34450081D01*
X235566673Y-34419783D01*
X235545209Y-34343866D01*
X235511865Y-34225620D01*
X235467566Y-34068335D01*
X235413237Y-33875303D01*
X235349803Y-33649811D01*
X235278191Y-33395152D01*
X235199324Y-33114614D01*
X235114130Y-32811489D01*
X235023533Y-32489065D01*
X234928459Y-32150634D01*
X234848035Y-31864300D01*
X234749704Y-31514281D01*
X234654880Y-31176940D01*
X234564508Y-30855634D01*
X234479536Y-30553718D01*
X234400909Y-30274547D01*
X234329574Y-30021477D01*
X234266476Y-29797863D01*
X234212563Y-29607062D01*
X234168779Y-29452428D01*
X234136073Y-29337317D01*
X234115389Y-29265086D01*
X234108142Y-29240456D01*
X234088600Y-29189470D01*
X234061688Y-29166225D01*
X234010579Y-29161797D01*
X233964433Y-29164256D01*
X233847260Y-29171900D01*
X233580434Y-31387949D01*
X233540624Y-31716631D01*
X233502226Y-32029884D01*
X233465701Y-32324175D01*
X233431506Y-32595969D01*
X233400103Y-32841731D01*
X233371952Y-33057926D01*
X233347511Y-33241020D01*
X233327242Y-33387478D01*
X233311602Y-33493766D01*
X233301054Y-33556349D01*
X233296272Y-33572349D01*
X233287514Y-33544782D01*
X233266257Y-33472613D01*
X233233700Y-33360087D01*
X233191041Y-33211449D01*
X233139476Y-33030944D01*
X233080206Y-32822817D01*
X233014427Y-32591313D01*
X232943337Y-32340678D01*
X232868135Y-32075156D01*
X232790019Y-31798993D01*
X232710186Y-31516433D01*
X232629835Y-31231721D01*
X232550164Y-30949104D01*
X232472370Y-30672825D01*
X232397653Y-30407130D01*
X232327209Y-30156264D01*
X232262237Y-29924472D01*
X232203935Y-29716000D01*
X232153500Y-29535091D01*
X232112132Y-29385992D01*
X232081028Y-29272947D01*
X232061385Y-29200202D01*
X232054403Y-29172001D01*
X232054400Y-29171927D01*
X232032043Y-29163489D01*
X231976670Y-29159557D01*
X231905828Y-29159733D01*
G36*
X234622332Y-29160436D02*
G01*
X234583907Y-29168268D01*
X234573830Y-29189385D01*
X234580593Y-29229049D01*
X234589493Y-29262612D01*
X234611253Y-29341775D01*
X234644951Y-29463243D01*
X234689663Y-29623721D01*
X234744467Y-29819916D01*
X234808441Y-30048531D01*
X234880662Y-30306273D01*
X234960208Y-30589846D01*
X235046155Y-30895956D01*
X235137582Y-31221309D01*
X235233566Y-31562609D01*
X235325621Y-31889700D01*
X236055019Y-34480500D01*
X236188310Y-34488177D01*
X236262842Y-34488968D01*
X236311529Y-34482776D01*
X236322292Y-34475477D01*
X236315653Y-34448773D01*
X236296140Y-34376346D01*
X236264635Y-34261374D01*
X236222025Y-34107036D01*
X236169195Y-33916508D01*
X236107029Y-33692970D01*
X236036411Y-33439598D01*
X235958228Y-33159572D01*
X235873364Y-32856068D01*
X235782704Y-32532265D01*
X235687132Y-32191342D01*
X235587534Y-31836475D01*
X235579342Y-31807304D01*
X234835700Y-29159509D01*
X234700332Y-29159354D01*
X234622332Y-29160436D01*
X234622332Y-29160436D01*
G37*
X234622332Y-29160436D02*
X234583907Y-29168268D01*
X234573830Y-29189385D01*
X234580593Y-29229049D01*
X234589493Y-29262612D01*
X234611253Y-29341775D01*
X234644951Y-29463243D01*
X234689663Y-29623721D01*
X234744467Y-29819916D01*
X234808441Y-30048531D01*
X234880662Y-30306273D01*
X234960208Y-30589846D01*
X235046155Y-30895956D01*
X235137582Y-31221309D01*
X235233566Y-31562609D01*
X235325621Y-31889700D01*
X236055019Y-34480500D01*
X236188310Y-34488177D01*
X236262842Y-34488968D01*
X236311529Y-34482776D01*
X236322292Y-34475477D01*
X236315653Y-34448773D01*
X236296140Y-34376346D01*
X236264635Y-34261374D01*
X236222025Y-34107036D01*
X236169195Y-33916508D01*
X236107029Y-33692970D01*
X236036411Y-33439598D01*
X235958228Y-33159572D01*
X235873364Y-32856068D01*
X235782704Y-32532265D01*
X235687132Y-32191342D01*
X235587534Y-31836475D01*
X235579342Y-31807304D01*
X234835700Y-29159509D01*
X234700332Y-29159354D01*
X234622332Y-29160436D01*
G36*
X237044623Y-29229050D02*
G01*
X237053823Y-29262910D01*
X237075833Y-29342260D01*
X237109698Y-29463691D01*
X237154461Y-29623792D01*
X237209167Y-29819154D01*
X237272859Y-30046368D01*
X237344582Y-30302023D01*
X237423380Y-30582712D01*
X237508296Y-30885023D01*
X237598375Y-31205548D01*
X237692660Y-31540877D01*
X237745877Y-31730072D01*
X237841700Y-32070959D01*
X237933533Y-32398154D01*
X238020449Y-32708329D01*
X238101521Y-32998154D01*
X238175823Y-33264300D01*
X238242428Y-33503437D01*
X238300409Y-33712235D01*
X238348840Y-33887366D01*
X238386795Y-34025499D01*
X238413346Y-34123305D01*
X238427567Y-34177456D01*
X238429800Y-34187522D01*
X238405045Y-34195657D01*
X238330627Y-34202280D01*
X238206321Y-34207399D01*
X238031901Y-34211020D01*
X237807140Y-34213150D01*
X237550747Y-34213800D01*
X236671693Y-34213800D01*
X236688375Y-34280263D01*
X236706576Y-34358208D01*
X236719703Y-34419963D01*
X236734350Y-34493200D01*
X238806886Y-34493200D01*
X238758861Y-34321750D01*
X238745328Y-34273552D01*
X238719032Y-34180008D01*
X238680970Y-34044668D01*
X238632144Y-33871087D01*
X238573553Y-33662815D01*
X238506195Y-33423406D01*
X238431072Y-33156412D01*
X238349181Y-32865386D01*
X238261523Y-32553880D01*
X238169097Y-32225447D01*
X238072903Y-31883639D01*
X238011518Y-31665526D01*
X237914646Y-31321220D01*
X237821749Y-30990843D01*
X237733743Y-30677662D01*
X237651544Y-30384941D01*
X237576067Y-30115947D01*
X237508226Y-29873944D01*
X237448936Y-29662200D01*
X237399114Y-29483978D01*
X237359673Y-29342545D01*
X237331529Y-29241166D01*
X237315597Y-29183107D01*
X237312200Y-29169976D01*
X237289197Y-29164122D01*
X237229756Y-29160209D01*
X237169747Y-29159200D01*
X237027293Y-29159200D01*
X237044623Y-29229050D01*
X237044623Y-29229050D01*
G37*
X237044623Y-29229050D02*
X237053823Y-29262910D01*
X237075833Y-29342260D01*
X237109698Y-29463691D01*
X237154461Y-29623792D01*
X237209167Y-29819154D01*
X237272859Y-30046368D01*
X237344582Y-30302023D01*
X237423380Y-30582712D01*
X237508296Y-30885023D01*
X237598375Y-31205548D01*
X237692660Y-31540877D01*
X237745877Y-31730072D01*
X237841700Y-32070959D01*
X237933533Y-32398154D01*
X238020449Y-32708329D01*
X238101521Y-32998154D01*
X238175823Y-33264300D01*
X238242428Y-33503437D01*
X238300409Y-33712235D01*
X238348840Y-33887366D01*
X238386795Y-34025499D01*
X238413346Y-34123305D01*
X238427567Y-34177456D01*
X238429800Y-34187522D01*
X238405045Y-34195657D01*
X238330627Y-34202280D01*
X238206321Y-34207399D01*
X238031901Y-34211020D01*
X237807140Y-34213150D01*
X237550747Y-34213800D01*
X236671693Y-34213800D01*
X236688375Y-34280263D01*
X236706576Y-34358208D01*
X236719703Y-34419963D01*
X236734350Y-34493200D01*
X238806886Y-34493200D01*
X238758861Y-34321750D01*
X238745328Y-34273552D01*
X238719032Y-34180008D01*
X238680970Y-34044668D01*
X238632144Y-33871087D01*
X238573553Y-33662815D01*
X238506195Y-33423406D01*
X238431072Y-33156412D01*
X238349181Y-32865386D01*
X238261523Y-32553880D01*
X238169097Y-32225447D01*
X238072903Y-31883639D01*
X238011518Y-31665526D01*
X237914646Y-31321220D01*
X237821749Y-30990843D01*
X237733743Y-30677662D01*
X237651544Y-30384941D01*
X237576067Y-30115947D01*
X237508226Y-29873944D01*
X237448936Y-29662200D01*
X237399114Y-29483978D01*
X237359673Y-29342545D01*
X237331529Y-29241166D01*
X237315597Y-29183107D01*
X237312200Y-29169976D01*
X237289197Y-29164122D01*
X237229756Y-29160209D01*
X237169747Y-29159200D01*
X237027293Y-29159200D01*
X237044623Y-29229050D01*
G36*
X238790357Y-29165811D02*
G01*
X238591383Y-29202965D01*
X238418953Y-29272960D01*
X238277768Y-29374190D01*
X238172526Y-29505047D01*
X238136672Y-29576677D01*
X238102979Y-29695677D01*
X238083529Y-29847872D01*
X238079221Y-30017442D01*
X238090953Y-30188566D01*
X238098755Y-30244284D01*
X238112981Y-30313189D01*
X238139925Y-30424828D01*
X238178015Y-30573649D01*
X238225683Y-30754101D01*
X238281360Y-30960633D01*
X238343476Y-31187694D01*
X238410461Y-31429733D01*
X238480748Y-31681198D01*
X238552765Y-31936540D01*
X238624944Y-32190206D01*
X238695716Y-32436646D01*
X238763510Y-32670308D01*
X238826759Y-32885641D01*
X238883892Y-33077095D01*
X238933340Y-33239118D01*
X238973534Y-33366159D01*
X239002905Y-33452667D01*
X239013608Y-33480330D01*
X239148729Y-33745578D01*
X239311861Y-33975016D01*
X239499901Y-34165752D01*
X239709750Y-34314894D01*
X239938306Y-34419551D01*
X240057764Y-34454089D01*
X240202098Y-34477895D01*
X240366435Y-34488956D01*
X240531322Y-34487145D01*
X240677304Y-34472332D01*
X240742456Y-34458605D01*
X240919281Y-34387968D01*
X241060555Y-34281432D01*
X241165306Y-34139872D01*
X241210602Y-34037412D01*
X241231354Y-33945071D01*
X241244166Y-33818166D01*
X241248803Y-33672344D01*
X241246083Y-33564917D01*
X240968577Y-33564917D01*
X240964632Y-33715366D01*
X240946457Y-33844232D01*
X240921793Y-33921700D01*
X240854946Y-34035471D01*
X240770263Y-34117705D01*
X240660686Y-34171616D01*
X240519159Y-34200415D01*
X240338627Y-34207316D01*
X240296700Y-34206335D01*
X240168751Y-34200254D01*
X240074559Y-34189262D01*
X239997104Y-34169970D01*
X239919369Y-34138987D01*
X239890300Y-34125404D01*
X239751621Y-34046262D01*
X239627576Y-33946408D01*
X239515490Y-33821388D01*
X239412686Y-33666749D01*
X239316490Y-33478038D01*
X239224225Y-33250801D01*
X239133217Y-32980585D01*
X239065943Y-32753300D01*
X238945110Y-32325293D01*
X238837787Y-31943839D01*
X238743362Y-31606691D01*
X238661224Y-31311601D01*
X238590762Y-31056325D01*
X238531365Y-30838616D01*
X238482423Y-30656227D01*
X238443323Y-30506913D01*
X238413456Y-30388426D01*
X238392210Y-30298521D01*
X238378973Y-30234952D01*
X238375685Y-30215752D01*
X238360317Y-30006871D01*
X238383016Y-29827480D01*
X238443172Y-29679389D01*
X238540177Y-29564406D01*
X238611460Y-29514527D01*
X238665984Y-29486137D01*
X238719162Y-29467732D01*
X238784015Y-29457198D01*
X238873562Y-29452425D01*
X239000825Y-29451300D01*
X239001300Y-29451300D01*
X239130566Y-29452572D01*
X239223662Y-29457951D01*
X239295189Y-29469784D01*
X239359748Y-29490415D01*
X239426381Y-29519575D01*
X239522800Y-29569357D01*
X239615885Y-29624800D01*
X239664466Y-29658331D01*
X239754242Y-29744071D01*
X239850579Y-29865042D01*
X239944650Y-30008059D01*
X240027632Y-30159938D01*
X240080409Y-30279753D01*
X240099645Y-30336222D01*
X240130866Y-30435981D01*
X240172457Y-30573374D01*
X240222799Y-30742745D01*
X240280275Y-30938441D01*
X240343268Y-31154805D01*
X240410159Y-31386183D01*
X240479333Y-31626919D01*
X240549171Y-31871358D01*
X240618055Y-32113844D01*
X240684369Y-32348724D01*
X240746494Y-32570341D01*
X240802814Y-32773040D01*
X240851710Y-32951166D01*
X240891566Y-33099065D01*
X240920764Y-33211079D01*
X240932777Y-33259911D01*
X240958043Y-33408044D01*
X240968577Y-33564917D01*
X241246083Y-33564917D01*
X241245028Y-33523253D01*
X241232603Y-33386543D01*
X241221467Y-33319700D01*
X241209313Y-33269626D01*
X241184849Y-33176301D01*
X241149642Y-33045338D01*
X241105263Y-32882352D01*
X241053278Y-32692959D01*
X240995256Y-32482773D01*
X240932766Y-32257410D01*
X240867376Y-32022484D01*
X240800655Y-31783611D01*
X240734170Y-31546405D01*
X240669490Y-31316482D01*
X240608184Y-31099456D01*
X240551820Y-30900942D01*
X240501966Y-30726555D01*
X240460191Y-30581911D01*
X240428063Y-30472624D01*
X240407151Y-30404309D01*
X240406987Y-30403800D01*
X240294517Y-30118000D01*
X240152749Y-29863468D01*
X239984870Y-29643526D01*
X239794064Y-29461494D01*
X239583518Y-29320696D01*
X239356419Y-29224454D01*
X239249135Y-29196453D01*
X239011175Y-29163105D01*
X238790357Y-29165811D01*
X238790357Y-29165811D01*
G37*
X238790357Y-29165811D02*
X238591383Y-29202965D01*
X238418953Y-29272960D01*
X238277768Y-29374190D01*
X238172526Y-29505047D01*
X238136672Y-29576677D01*
X238102979Y-29695677D01*
X238083529Y-29847872D01*
X238079221Y-30017442D01*
X238090953Y-30188566D01*
X238098755Y-30244284D01*
X238112981Y-30313189D01*
X238139925Y-30424828D01*
X238178015Y-30573649D01*
X238225683Y-30754101D01*
X238281360Y-30960633D01*
X238343476Y-31187694D01*
X238410461Y-31429733D01*
X238480748Y-31681198D01*
X238552765Y-31936540D01*
X238624944Y-32190206D01*
X238695716Y-32436646D01*
X238763510Y-32670308D01*
X238826759Y-32885641D01*
X238883892Y-33077095D01*
X238933340Y-33239118D01*
X238973534Y-33366159D01*
X239002905Y-33452667D01*
X239013608Y-33480330D01*
X239148729Y-33745578D01*
X239311861Y-33975016D01*
X239499901Y-34165752D01*
X239709750Y-34314894D01*
X239938306Y-34419551D01*
X240057764Y-34454089D01*
X240202098Y-34477895D01*
X240366435Y-34488956D01*
X240531322Y-34487145D01*
X240677304Y-34472332D01*
X240742456Y-34458605D01*
X240919281Y-34387968D01*
X241060555Y-34281432D01*
X241165306Y-34139872D01*
X241210602Y-34037412D01*
X241231354Y-33945071D01*
X241244166Y-33818166D01*
X241248803Y-33672344D01*
X241246083Y-33564917D01*
X240968577Y-33564917D01*
X240964632Y-33715366D01*
X240946457Y-33844232D01*
X240921793Y-33921700D01*
X240854946Y-34035471D01*
X240770263Y-34117705D01*
X240660686Y-34171616D01*
X240519159Y-34200415D01*
X240338627Y-34207316D01*
X240296700Y-34206335D01*
X240168751Y-34200254D01*
X240074559Y-34189262D01*
X239997104Y-34169970D01*
X239919369Y-34138987D01*
X239890300Y-34125404D01*
X239751621Y-34046262D01*
X239627576Y-33946408D01*
X239515490Y-33821388D01*
X239412686Y-33666749D01*
X239316490Y-33478038D01*
X239224225Y-33250801D01*
X239133217Y-32980585D01*
X239065943Y-32753300D01*
X238945110Y-32325293D01*
X238837787Y-31943839D01*
X238743362Y-31606691D01*
X238661224Y-31311601D01*
X238590762Y-31056325D01*
X238531365Y-30838616D01*
X238482423Y-30656227D01*
X238443323Y-30506913D01*
X238413456Y-30388426D01*
X238392210Y-30298521D01*
X238378973Y-30234952D01*
X238375685Y-30215752D01*
X238360317Y-30006871D01*
X238383016Y-29827480D01*
X238443172Y-29679389D01*
X238540177Y-29564406D01*
X238611460Y-29514527D01*
X238665984Y-29486137D01*
X238719162Y-29467732D01*
X238784015Y-29457198D01*
X238873562Y-29452425D01*
X239000825Y-29451300D01*
X239001300Y-29451300D01*
X239130566Y-29452572D01*
X239223662Y-29457951D01*
X239295189Y-29469784D01*
X239359748Y-29490415D01*
X239426381Y-29519575D01*
X239522800Y-29569357D01*
X239615885Y-29624800D01*
X239664466Y-29658331D01*
X239754242Y-29744071D01*
X239850579Y-29865042D01*
X239944650Y-30008059D01*
X240027632Y-30159938D01*
X240080409Y-30279753D01*
X240099645Y-30336222D01*
X240130866Y-30435981D01*
X240172457Y-30573374D01*
X240222799Y-30742745D01*
X240280275Y-30938441D01*
X240343268Y-31154805D01*
X240410159Y-31386183D01*
X240479333Y-31626919D01*
X240549171Y-31871358D01*
X240618055Y-32113844D01*
X240684369Y-32348724D01*
X240746494Y-32570341D01*
X240802814Y-32773040D01*
X240851710Y-32951166D01*
X240891566Y-33099065D01*
X240920764Y-33211079D01*
X240932777Y-33259911D01*
X240958043Y-33408044D01*
X240968577Y-33564917D01*
X241246083Y-33564917D01*
X241245028Y-33523253D01*
X241232603Y-33386543D01*
X241221467Y-33319700D01*
X241209313Y-33269626D01*
X241184849Y-33176301D01*
X241149642Y-33045338D01*
X241105263Y-32882352D01*
X241053278Y-32692959D01*
X240995256Y-32482773D01*
X240932766Y-32257410D01*
X240867376Y-32022484D01*
X240800655Y-31783611D01*
X240734170Y-31546405D01*
X240669490Y-31316482D01*
X240608184Y-31099456D01*
X240551820Y-30900942D01*
X240501966Y-30726555D01*
X240460191Y-30581911D01*
X240428063Y-30472624D01*
X240407151Y-30404309D01*
X240406987Y-30403800D01*
X240294517Y-30118000D01*
X240152749Y-29863468D01*
X239984870Y-29643526D01*
X239794064Y-29461494D01*
X239583518Y-29320696D01*
X239356419Y-29224454D01*
X239249135Y-29196453D01*
X239011175Y-29163105D01*
X238790357Y-29165811D01*
G36*
X241667312Y-29229049D02*
G01*
X241676347Y-29262572D01*
X241698472Y-29341631D01*
X241732748Y-29462940D01*
X241778238Y-29623211D01*
X241834004Y-29819156D01*
X241899107Y-30047487D01*
X241972609Y-30304917D01*
X242053573Y-30588159D01*
X242141061Y-30893924D01*
X242234134Y-31218925D01*
X242331854Y-31559874D01*
X242426459Y-31889700D01*
X243169857Y-34480500D01*
X244243329Y-34487127D01*
X244505031Y-34488646D01*
X244720359Y-34489564D01*
X244893736Y-34489721D01*
X245029588Y-34488958D01*
X245132338Y-34487116D01*
X245206409Y-34484035D01*
X245256226Y-34479558D01*
X245286212Y-34473523D01*
X245300793Y-34465774D01*
X245304391Y-34456150D01*
X245303002Y-34449027D01*
X245294255Y-34418957D01*
X245272459Y-34343305D01*
X245238547Y-34225327D01*
X245193453Y-34068279D01*
X245138110Y-33875416D01*
X245073452Y-33649993D01*
X245000414Y-33395267D01*
X244919928Y-33114493D01*
X244832928Y-32810927D01*
X244740348Y-32487824D01*
X244643121Y-32148441D01*
X244550822Y-31826200D01*
X244450166Y-31474773D01*
X244353309Y-31136650D01*
X244261186Y-30815088D01*
X244174728Y-30513339D01*
X244094869Y-30234661D01*
X244022542Y-29982308D01*
X243958681Y-29759535D01*
X243904217Y-29569597D01*
X243860084Y-29415750D01*
X243827215Y-29301249D01*
X243806544Y-29229349D01*
X243799109Y-29203650D01*
X243793085Y-29192761D01*
X243779131Y-29183805D01*
X243752698Y-29176592D01*
X243709239Y-29170935D01*
X243644208Y-29166649D01*
X243553056Y-29163546D01*
X243431236Y-29161438D01*
X243274201Y-29160138D01*
X243077404Y-29159461D01*
X242836297Y-29159217D01*
X242718671Y-29159200D01*
X241651564Y-29159200D01*
X241667312Y-29229049D01*
X241667312Y-29229049D01*
G37*
X241667312Y-29229049D02*
X241676347Y-29262572D01*
X241698472Y-29341631D01*
X241732748Y-29462940D01*
X241778238Y-29623211D01*
X241834004Y-29819156D01*
X241899107Y-30047487D01*
X241972609Y-30304917D01*
X242053573Y-30588159D01*
X242141061Y-30893924D01*
X242234134Y-31218925D01*
X242331854Y-31559874D01*
X242426459Y-31889700D01*
X243169857Y-34480500D01*
X244243329Y-34487127D01*
X244505031Y-34488646D01*
X244720359Y-34489564D01*
X244893736Y-34489721D01*
X245029588Y-34488958D01*
X245132338Y-34487116D01*
X245206409Y-34484035D01*
X245256226Y-34479558D01*
X245286212Y-34473523D01*
X245300793Y-34465774D01*
X245304391Y-34456150D01*
X245303002Y-34449027D01*
X245294255Y-34418957D01*
X245272459Y-34343305D01*
X245238547Y-34225327D01*
X245193453Y-34068279D01*
X245138110Y-33875416D01*
X245073452Y-33649993D01*
X245000414Y-33395267D01*
X244919928Y-33114493D01*
X244832928Y-32810927D01*
X244740348Y-32487824D01*
X244643121Y-32148441D01*
X244550822Y-31826200D01*
X244450166Y-31474773D01*
X244353309Y-31136650D01*
X244261186Y-30815088D01*
X244174728Y-30513339D01*
X244094869Y-30234661D01*
X244022542Y-29982308D01*
X243958681Y-29759535D01*
X243904217Y-29569597D01*
X243860084Y-29415750D01*
X243827215Y-29301249D01*
X243806544Y-29229349D01*
X243799109Y-29203650D01*
X243793085Y-29192761D01*
X243779131Y-29183805D01*
X243752698Y-29176592D01*
X243709239Y-29170935D01*
X243644208Y-29166649D01*
X243553056Y-29163546D01*
X243431236Y-29161438D01*
X243274201Y-29160138D01*
X243077404Y-29159461D01*
X242836297Y-29159217D01*
X242718671Y-29159200D01*
X241651564Y-29159200D01*
X241667312Y-29229049D01*
G36*
X244933721Y-29159311D02*
G01*
X244729161Y-29159784D01*
X244566219Y-29160828D01*
X244440302Y-29162651D01*
X244346821Y-29165461D01*
X244281183Y-29169467D01*
X244238798Y-29174878D01*
X244215073Y-29181902D01*
X244205419Y-29190748D01*
X244205243Y-29201623D01*
X244205814Y-29203650D01*
X244214538Y-29233681D01*
X244236311Y-29309295D01*
X244270201Y-29427236D01*
X244315273Y-29584249D01*
X244370594Y-29777079D01*
X244435231Y-30002471D01*
X244508251Y-30257169D01*
X244588719Y-30537918D01*
X244675703Y-30841463D01*
X244768270Y-31164548D01*
X244865485Y-31503919D01*
X244957790Y-31826200D01*
X245058442Y-32177627D01*
X245155296Y-32515751D01*
X245247420Y-32837315D01*
X245333879Y-33139064D01*
X245413742Y-33417742D01*
X245486075Y-33670096D01*
X245549945Y-33892869D01*
X245604418Y-34082806D01*
X245648561Y-34236653D01*
X245681442Y-34351153D01*
X245702128Y-34423052D01*
X245709577Y-34448750D01*
X245715827Y-34460013D01*
X245730241Y-34469204D01*
X245757543Y-34476531D01*
X245802455Y-34482204D01*
X245869702Y-34486431D01*
X245964005Y-34489421D01*
X246090089Y-34491384D01*
X246252676Y-34492529D01*
X246456490Y-34493064D01*
X246706254Y-34493199D01*
X246713624Y-34493200D01*
X246964148Y-34493088D01*
X247168466Y-34492614D01*
X247331170Y-34491569D01*
X247456854Y-34489743D01*
X247550111Y-34486928D01*
X247615533Y-34482915D01*
X247657715Y-34477493D01*
X247681248Y-34470455D01*
X247690727Y-34461591D01*
X247690744Y-34450693D01*
X247690176Y-34448750D01*
X247680462Y-34415788D01*
X247658073Y-34338517D01*
X247624110Y-34220779D01*
X247579676Y-34066415D01*
X247525870Y-33879269D01*
X247463793Y-33663181D01*
X247394547Y-33421996D01*
X247319232Y-33159553D01*
X247238950Y-32879697D01*
X247154800Y-32586269D01*
X247067886Y-32283110D01*
X246979306Y-31974064D01*
X246890162Y-31662973D01*
X246801556Y-31353678D01*
X246714588Y-31050023D01*
X246630358Y-30755848D01*
X246549969Y-30474997D01*
X246474520Y-30211311D01*
X246405113Y-29968633D01*
X246342849Y-29750804D01*
X246288829Y-29561668D01*
X246244154Y-29405066D01*
X246209924Y-29284840D01*
X246187241Y-29204833D01*
X246177205Y-29168886D01*
X246176800Y-29167241D01*
X246152307Y-29165467D01*
X246082455Y-29163829D01*
X245972683Y-29162370D01*
X245828434Y-29161135D01*
X245655147Y-29160168D01*
X245458262Y-29159513D01*
X245243222Y-29159214D01*
X245184489Y-29159200D01*
X244933721Y-29159311D01*
X244933721Y-29159311D01*
G37*
X244933721Y-29159311D02*
X244729161Y-29159784D01*
X244566219Y-29160828D01*
X244440302Y-29162651D01*
X244346821Y-29165461D01*
X244281183Y-29169467D01*
X244238798Y-29174878D01*
X244215073Y-29181902D01*
X244205419Y-29190748D01*
X244205243Y-29201623D01*
X244205814Y-29203650D01*
X244214538Y-29233681D01*
X244236311Y-29309295D01*
X244270201Y-29427236D01*
X244315273Y-29584249D01*
X244370594Y-29777079D01*
X244435231Y-30002471D01*
X244508251Y-30257169D01*
X244588719Y-30537918D01*
X244675703Y-30841463D01*
X244768270Y-31164548D01*
X244865485Y-31503919D01*
X244957790Y-31826200D01*
X245058442Y-32177627D01*
X245155296Y-32515751D01*
X245247420Y-32837315D01*
X245333879Y-33139064D01*
X245413742Y-33417742D01*
X245486075Y-33670096D01*
X245549945Y-33892869D01*
X245604418Y-34082806D01*
X245648561Y-34236653D01*
X245681442Y-34351153D01*
X245702128Y-34423052D01*
X245709577Y-34448750D01*
X245715827Y-34460013D01*
X245730241Y-34469204D01*
X245757543Y-34476531D01*
X245802455Y-34482204D01*
X245869702Y-34486431D01*
X245964005Y-34489421D01*
X246090089Y-34491384D01*
X246252676Y-34492529D01*
X246456490Y-34493064D01*
X246706254Y-34493199D01*
X246713624Y-34493200D01*
X246964148Y-34493088D01*
X247168466Y-34492614D01*
X247331170Y-34491569D01*
X247456854Y-34489743D01*
X247550111Y-34486928D01*
X247615533Y-34482915D01*
X247657715Y-34477493D01*
X247681248Y-34470455D01*
X247690727Y-34461591D01*
X247690744Y-34450693D01*
X247690176Y-34448750D01*
X247680462Y-34415788D01*
X247658073Y-34338517D01*
X247624110Y-34220779D01*
X247579676Y-34066415D01*
X247525870Y-33879269D01*
X247463793Y-33663181D01*
X247394547Y-33421996D01*
X247319232Y-33159553D01*
X247238950Y-32879697D01*
X247154800Y-32586269D01*
X247067886Y-32283110D01*
X246979306Y-31974064D01*
X246890162Y-31662973D01*
X246801556Y-31353678D01*
X246714588Y-31050023D01*
X246630358Y-30755848D01*
X246549969Y-30474997D01*
X246474520Y-30211311D01*
X246405113Y-29968633D01*
X246342849Y-29750804D01*
X246288829Y-29561668D01*
X246244154Y-29405066D01*
X246209924Y-29284840D01*
X246187241Y-29204833D01*
X246177205Y-29168886D01*
X246176800Y-29167241D01*
X246152307Y-29165467D01*
X246082455Y-29163829D01*
X245972683Y-29162370D01*
X245828434Y-29161135D01*
X245655147Y-29160168D01*
X245458262Y-29159513D01*
X245243222Y-29159214D01*
X245184489Y-29159200D01*
X244933721Y-29159311D01*
G36*
X246766786Y-29163084D02*
G01*
X246686293Y-29165480D01*
X246634163Y-29169967D01*
X246604788Y-29176878D01*
X246592560Y-29186547D01*
X246591870Y-29199307D01*
X246592902Y-29203217D01*
X246601632Y-29233455D01*
X246623376Y-29309190D01*
X246657177Y-29427080D01*
X246702078Y-29583779D01*
X246757122Y-29775945D01*
X246821350Y-30000234D01*
X246893806Y-30253303D01*
X246973532Y-30531808D01*
X247059571Y-30832406D01*
X247150965Y-31151753D01*
X247246757Y-31486506D01*
X247307615Y-31699200D01*
X247406567Y-32044996D01*
X247502356Y-32379664D01*
X247593958Y-32699627D01*
X247680349Y-33001311D01*
X247760504Y-33281142D01*
X247833398Y-33535544D01*
X247898009Y-33760943D01*
X247953310Y-33953764D01*
X247998278Y-34110432D01*
X248031889Y-34227373D01*
X248053117Y-34301011D01*
X248059140Y-34321750D01*
X248109352Y-34493200D01*
X248755976Y-34493200D01*
X248963237Y-34492651D01*
X249124321Y-34490854D01*
X249243841Y-34487582D01*
X249326410Y-34482608D01*
X249376639Y-34475705D01*
X249399143Y-34466645D01*
X249401451Y-34461450D01*
X249394415Y-34433225D01*
X249374229Y-34359384D01*
X249341804Y-34243126D01*
X249298048Y-34087652D01*
X249243872Y-33896160D01*
X249180184Y-33671850D01*
X249107896Y-33417922D01*
X249027917Y-33137575D01*
X248941156Y-32834009D01*
X248848523Y-32510423D01*
X248750929Y-32170017D01*
X248649282Y-31815991D01*
X248644917Y-31800800D01*
X247889534Y-29171900D01*
X247234518Y-29165117D01*
X247035290Y-29163236D01*
X246881249Y-29162447D01*
X246766786Y-29163084D01*
X246766786Y-29163084D01*
G37*
X246766786Y-29163084D02*
X246686293Y-29165480D01*
X246634163Y-29169967D01*
X246604788Y-29176878D01*
X246592560Y-29186547D01*
X246591870Y-29199307D01*
X246592902Y-29203217D01*
X246601632Y-29233455D01*
X246623376Y-29309190D01*
X246657177Y-29427080D01*
X246702078Y-29583779D01*
X246757122Y-29775945D01*
X246821350Y-30000234D01*
X246893806Y-30253303D01*
X246973532Y-30531808D01*
X247059571Y-30832406D01*
X247150965Y-31151753D01*
X247246757Y-31486506D01*
X247307615Y-31699200D01*
X247406567Y-32044996D01*
X247502356Y-32379664D01*
X247593958Y-32699627D01*
X247680349Y-33001311D01*
X247760504Y-33281142D01*
X247833398Y-33535544D01*
X247898009Y-33760943D01*
X247953310Y-33953764D01*
X247998278Y-34110432D01*
X248031889Y-34227373D01*
X248053117Y-34301011D01*
X248059140Y-34321750D01*
X248109352Y-34493200D01*
X248755976Y-34493200D01*
X248963237Y-34492651D01*
X249124321Y-34490854D01*
X249243841Y-34487582D01*
X249326410Y-34482608D01*
X249376639Y-34475705D01*
X249399143Y-34466645D01*
X249401451Y-34461450D01*
X249394415Y-34433225D01*
X249374229Y-34359384D01*
X249341804Y-34243126D01*
X249298048Y-34087652D01*
X249243872Y-33896160D01*
X249180184Y-33671850D01*
X249107896Y-33417922D01*
X249027917Y-33137575D01*
X248941156Y-32834009D01*
X248848523Y-32510423D01*
X248750929Y-32170017D01*
X248649282Y-31815991D01*
X248644917Y-31800800D01*
X247889534Y-29171900D01*
X247234518Y-29165117D01*
X247035290Y-29163236D01*
X246881249Y-29162447D01*
X246766786Y-29163084D01*
G36*
X248479190Y-29159507D02*
G01*
X248394040Y-29161499D01*
X248343319Y-29166780D01*
X248318842Y-29176956D01*
X248312424Y-29193632D01*
X248315480Y-29216349D01*
X248323846Y-29248091D01*
X248345297Y-29325408D01*
X248378907Y-29445045D01*
X248423751Y-29603748D01*
X248478903Y-29798263D01*
X248543436Y-30025334D01*
X248616426Y-30281708D01*
X248696945Y-30564130D01*
X248784070Y-30869346D01*
X248876873Y-31194100D01*
X248974429Y-31535138D01*
X249074091Y-31883197D01*
X249821700Y-34492895D01*
X250131636Y-34493047D01*
X250441571Y-34493200D01*
X250409003Y-34384984D01*
X250397629Y-34346046D01*
X250373232Y-34261649D01*
X250336782Y-34135169D01*
X250289249Y-33969982D01*
X250231603Y-33769464D01*
X250164812Y-33536990D01*
X250089847Y-33275937D01*
X250007678Y-32989680D01*
X249919274Y-32681596D01*
X249825605Y-32355061D01*
X249727640Y-32013450D01*
X249642932Y-31717984D01*
X248909429Y-29159200D01*
X248606954Y-29159200D01*
X248479190Y-29159507D01*
X248479190Y-29159507D01*
G37*
X248479190Y-29159507D02*
X248394040Y-29161499D01*
X248343319Y-29166780D01*
X248318842Y-29176956D01*
X248312424Y-29193632D01*
X248315480Y-29216349D01*
X248323846Y-29248091D01*
X248345297Y-29325408D01*
X248378907Y-29445045D01*
X248423751Y-29603748D01*
X248478903Y-29798263D01*
X248543436Y-30025334D01*
X248616426Y-30281708D01*
X248696945Y-30564130D01*
X248784070Y-30869346D01*
X248876873Y-31194100D01*
X248974429Y-31535138D01*
X249074091Y-31883197D01*
X249821700Y-34492895D01*
X250131636Y-34493047D01*
X250441571Y-34493200D01*
X250409003Y-34384984D01*
X250397629Y-34346046D01*
X250373232Y-34261649D01*
X250336782Y-34135169D01*
X250289249Y-33969982D01*
X250231603Y-33769464D01*
X250164812Y-33536990D01*
X250089847Y-33275937D01*
X250007678Y-32989680D01*
X249919274Y-32681596D01*
X249825605Y-32355061D01*
X249727640Y-32013450D01*
X249642932Y-31717984D01*
X248909429Y-29159200D01*
X248606954Y-29159200D01*
X248479190Y-29159507D01*
G36*
X215544400Y-36017200D02*
G01*
X215976200Y-36017200D01*
X215976200Y-37363400D01*
X216331800Y-37363400D01*
X216331800Y-36017200D01*
X216738200Y-36017200D01*
X216738200Y-35712400D01*
X215544400Y-35712400D01*
X215544400Y-36017200D01*
X215544400Y-36017200D01*
G37*
X215544400Y-36017200D02*
X215976200Y-36017200D01*
X215976200Y-37363400D01*
X216331800Y-37363400D01*
X216331800Y-36017200D01*
X216738200Y-36017200D01*
X216738200Y-35712400D01*
X215544400Y-35712400D01*
X215544400Y-36017200D01*
G36*
X219957650Y-35712541D02*
G01*
X219771771Y-35715020D01*
X219627491Y-35723403D01*
X219515788Y-35739355D01*
X219427637Y-35764542D01*
X219354017Y-35800629D01*
X219307186Y-35832595D01*
X219217661Y-35929756D01*
X219156611Y-36056705D01*
X219127580Y-36198970D01*
X219134110Y-36342078D01*
X219160447Y-36431951D01*
X219203164Y-36501702D01*
X219267785Y-36574516D01*
X219337298Y-36633102D01*
X219382021Y-36657173D01*
X219382302Y-36682638D01*
X219358717Y-36747607D01*
X219313113Y-36847776D01*
X219247339Y-36978839D01*
X219228341Y-37015202D01*
X219045165Y-37363400D01*
X219459488Y-37363400D01*
X219763242Y-36728400D01*
X219964000Y-36728400D01*
X219964000Y-37363400D01*
X220319600Y-37363400D01*
X220319600Y-36017200D01*
X219964000Y-36017200D01*
X219964000Y-36423600D01*
X219779850Y-36422792D01*
X219669916Y-36417497D01*
X219588126Y-36403919D01*
X219552249Y-36388972D01*
X219492608Y-36315574D01*
X219473152Y-36225896D01*
X219493415Y-36145526D01*
X219554786Y-36076778D01*
X219655434Y-36034445D01*
X219797783Y-36017597D01*
X219828091Y-36017200D01*
X219964000Y-36017200D01*
X220319600Y-36017200D01*
X220319600Y-35712400D01*
X219957650Y-35712541D01*
X219957650Y-35712541D01*
G37*
X219957650Y-35712541D02*
X219771771Y-35715020D01*
X219627491Y-35723403D01*
X219515788Y-35739355D01*
X219427637Y-35764542D01*
X219354017Y-35800629D01*
X219307186Y-35832595D01*
X219217661Y-35929756D01*
X219156611Y-36056705D01*
X219127580Y-36198970D01*
X219134110Y-36342078D01*
X219160447Y-36431951D01*
X219203164Y-36501702D01*
X219267785Y-36574516D01*
X219337298Y-36633102D01*
X219382021Y-36657173D01*
X219382302Y-36682638D01*
X219358717Y-36747607D01*
X219313113Y-36847776D01*
X219247339Y-36978839D01*
X219228341Y-37015202D01*
X219045165Y-37363400D01*
X219459488Y-37363400D01*
X219763242Y-36728400D01*
X219964000Y-36728400D01*
X219964000Y-37363400D01*
X220319600Y-37363400D01*
X220319600Y-36017200D01*
X219964000Y-36017200D01*
X219964000Y-36423600D01*
X219779850Y-36422792D01*
X219669916Y-36417497D01*
X219588126Y-36403919D01*
X219552249Y-36388972D01*
X219492608Y-36315574D01*
X219473152Y-36225896D01*
X219493415Y-36145526D01*
X219554786Y-36076778D01*
X219655434Y-36034445D01*
X219797783Y-36017597D01*
X219828091Y-36017200D01*
X219964000Y-36017200D01*
X220319600Y-36017200D01*
X220319600Y-35712400D01*
X219957650Y-35712541D01*
G36*
X227323650Y-35712541D02*
G01*
X227144921Y-35714570D01*
X227007251Y-35721597D01*
X226901008Y-35735274D01*
X226816563Y-35757252D01*
X226744284Y-35789181D01*
X226692013Y-35820820D01*
X226601712Y-35908927D01*
X226535504Y-36029582D01*
X226497321Y-36168705D01*
X226491096Y-36312216D01*
X226518816Y-36440996D01*
X226592513Y-36568815D01*
X226704385Y-36663168D01*
X226854455Y-36724065D01*
X227042749Y-36751521D01*
X227107750Y-36753242D01*
X227330000Y-36753800D01*
X227330000Y-37363400D01*
X227685600Y-37363400D01*
X227685600Y-36017200D01*
X227330000Y-36017200D01*
X227330000Y-36449000D01*
X227155626Y-36449000D01*
X227048434Y-36445014D01*
X226976173Y-36430887D01*
X226923443Y-36403364D01*
X226917180Y-36398601D01*
X226852055Y-36320316D01*
X226834496Y-36229399D01*
X226858790Y-36146734D01*
X226919633Y-36077675D01*
X227018667Y-36035062D01*
X227158898Y-36017735D01*
X227194091Y-36017200D01*
X227330000Y-36017200D01*
X227685600Y-36017200D01*
X227685600Y-35712400D01*
X227323650Y-35712541D01*
X227323650Y-35712541D01*
G37*
X227323650Y-35712541D02*
X227144921Y-35714570D01*
X227007251Y-35721597D01*
X226901008Y-35735274D01*
X226816563Y-35757252D01*
X226744284Y-35789181D01*
X226692013Y-35820820D01*
X226601712Y-35908927D01*
X226535504Y-36029582D01*
X226497321Y-36168705D01*
X226491096Y-36312216D01*
X226518816Y-36440996D01*
X226592513Y-36568815D01*
X226704385Y-36663168D01*
X226854455Y-36724065D01*
X227042749Y-36751521D01*
X227107750Y-36753242D01*
X227330000Y-36753800D01*
X227330000Y-37363400D01*
X227685600Y-37363400D01*
X227685600Y-36017200D01*
X227330000Y-36017200D01*
X227330000Y-36449000D01*
X227155626Y-36449000D01*
X227048434Y-36445014D01*
X226976173Y-36430887D01*
X226923443Y-36403364D01*
X226917180Y-36398601D01*
X226852055Y-36320316D01*
X226834496Y-36229399D01*
X226858790Y-36146734D01*
X226919633Y-36077675D01*
X227018667Y-36035062D01*
X227158898Y-36017735D01*
X227194091Y-36017200D01*
X227330000Y-36017200D01*
X227685600Y-36017200D01*
X227685600Y-35712400D01*
X227323650Y-35712541D01*
G36*
X234626150Y-35713005D02*
G01*
X234488774Y-35714860D01*
X234361334Y-35719503D01*
X234256703Y-35726268D01*
X234187753Y-35734492D01*
X234180347Y-35736025D01*
X234035982Y-35793459D01*
X233921019Y-35887374D01*
X233840140Y-36009870D01*
X233798022Y-36153050D01*
X233799347Y-36309014D01*
X233809930Y-36361211D01*
X233843591Y-36445980D01*
X233896757Y-36529948D01*
X233958801Y-36600252D01*
X234019097Y-36644023D01*
X234050273Y-36652200D01*
X234058089Y-36667792D01*
X234043815Y-36716563D01*
X234006209Y-36801508D01*
X233944032Y-36925620D01*
X233909727Y-36991215D01*
X233847388Y-37110374D01*
X233794502Y-37213456D01*
X233755207Y-37292236D01*
X233733642Y-37338489D01*
X233730800Y-37346815D01*
X233754174Y-37354580D01*
X233816210Y-37360399D01*
X233904776Y-37363263D01*
X233930320Y-37363400D01*
X234129839Y-37363400D01*
X234279570Y-37046185D01*
X234429300Y-36728971D01*
X234537250Y-36728685D01*
X234645200Y-36728400D01*
X234645200Y-37363400D01*
X234975400Y-37363400D01*
X234975400Y-36423600D01*
X234645200Y-36423600D01*
X234453546Y-36423600D01*
X234351583Y-36421701D01*
X234285601Y-36413591D01*
X234240847Y-36395649D01*
X234202569Y-36364253D01*
X234199546Y-36361254D01*
X234147314Y-36280405D01*
X234145268Y-36194611D01*
X234193452Y-36107074D01*
X234196065Y-36103999D01*
X234232434Y-36068156D01*
X234275115Y-36045902D01*
X234338417Y-36032677D01*
X234436648Y-36023920D01*
X234450065Y-36023042D01*
X234645200Y-36010519D01*
X234645200Y-36423600D01*
X234975400Y-36423600D01*
X234975400Y-35712400D01*
X234626150Y-35713005D01*
X234626150Y-35713005D01*
G37*
X234626150Y-35713005D02*
X234488774Y-35714860D01*
X234361334Y-35719503D01*
X234256703Y-35726268D01*
X234187753Y-35734492D01*
X234180347Y-35736025D01*
X234035982Y-35793459D01*
X233921019Y-35887374D01*
X233840140Y-36009870D01*
X233798022Y-36153050D01*
X233799347Y-36309014D01*
X233809930Y-36361211D01*
X233843591Y-36445980D01*
X233896757Y-36529948D01*
X233958801Y-36600252D01*
X234019097Y-36644023D01*
X234050273Y-36652200D01*
X234058089Y-36667792D01*
X234043815Y-36716563D01*
X234006209Y-36801508D01*
X233944032Y-36925620D01*
X233909727Y-36991215D01*
X233847388Y-37110374D01*
X233794502Y-37213456D01*
X233755207Y-37292236D01*
X233733642Y-37338489D01*
X233730800Y-37346815D01*
X233754174Y-37354580D01*
X233816210Y-37360399D01*
X233904776Y-37363263D01*
X233930320Y-37363400D01*
X234129839Y-37363400D01*
X234279570Y-37046185D01*
X234429300Y-36728971D01*
X234537250Y-36728685D01*
X234645200Y-36728400D01*
X234645200Y-37363400D01*
X234975400Y-37363400D01*
X234975400Y-36423600D01*
X234645200Y-36423600D01*
X234453546Y-36423600D01*
X234351583Y-36421701D01*
X234285601Y-36413591D01*
X234240847Y-36395649D01*
X234202569Y-36364253D01*
X234199546Y-36361254D01*
X234147314Y-36280405D01*
X234145268Y-36194611D01*
X234193452Y-36107074D01*
X234196065Y-36103999D01*
X234232434Y-36068156D01*
X234275115Y-36045902D01*
X234338417Y-36032677D01*
X234436648Y-36023920D01*
X234450065Y-36023042D01*
X234645200Y-36010519D01*
X234645200Y-36423600D01*
X234975400Y-36423600D01*
X234975400Y-35712400D01*
X234626150Y-35713005D01*
G36*
X241096800Y-36017200D02*
G01*
X241528600Y-36017200D01*
X241528600Y-37363400D01*
X241858800Y-37363400D01*
X241858800Y-36017200D01*
X242290600Y-36017200D01*
X242290600Y-35712400D01*
X241096800Y-35712400D01*
X241096800Y-36017200D01*
X241096800Y-36017200D01*
G37*
X241096800Y-36017200D02*
X241528600Y-36017200D01*
X241528600Y-37363400D01*
X241858800Y-37363400D01*
X241858800Y-36017200D01*
X242290600Y-36017200D01*
X242290600Y-35712400D01*
X241096800Y-35712400D01*
X241096800Y-36017200D01*
G36*
X249367754Y-36143475D02*
G01*
X249158532Y-36574550D01*
X248746300Y-35712400D01*
X248412000Y-35712400D01*
X248412000Y-37363400D01*
X248742200Y-37363400D01*
X248745152Y-36461700D01*
X248889206Y-36747450D01*
X249033261Y-37033200D01*
X249289340Y-37033200D01*
X249433395Y-36747450D01*
X249577449Y-36461700D01*
X249578925Y-36912550D01*
X249580400Y-37363400D01*
X249910600Y-37363400D01*
X249910600Y-35712400D01*
X249576977Y-35712400D01*
X249367754Y-36143475D01*
X249367754Y-36143475D01*
G37*
X249367754Y-36143475D02*
X249158532Y-36574550D01*
X248746300Y-35712400D01*
X248412000Y-35712400D01*
X248412000Y-37363400D01*
X248742200Y-37363400D01*
X248745152Y-36461700D01*
X248889206Y-36747450D01*
X249033261Y-37033200D01*
X249289340Y-37033200D01*
X249433395Y-36747450D01*
X249577449Y-36461700D01*
X249578925Y-36912550D01*
X249580400Y-37363400D01*
X249910600Y-37363400D01*
X249910600Y-35712400D01*
X249576977Y-35712400D01*
X249367754Y-36143475D01*
G36*
X212388447Y-35724792D02*
G01*
X212328128Y-35737561D01*
X212243474Y-35771205D01*
X212162855Y-35814408D01*
X212099514Y-35858795D01*
X212066693Y-35895994D01*
X212064774Y-35904095D01*
X212081567Y-35935587D01*
X212124799Y-35987509D01*
X212160890Y-36024714D01*
X212257180Y-36118738D01*
X212356761Y-36067969D01*
X212472858Y-36025830D01*
X212586419Y-36014154D01*
X212687883Y-36030416D01*
X212767688Y-36072090D01*
X212816273Y-36136651D01*
X212826600Y-36192052D01*
X212815143Y-36254913D01*
X212776376Y-36303105D01*
X212703710Y-36340654D01*
X212590552Y-36371584D01*
X212506397Y-36387627D01*
X212342171Y-36423651D01*
X212220581Y-36469998D01*
X212133770Y-36531420D01*
X212073881Y-36612669D01*
X212051328Y-36662864D01*
X212015523Y-36818246D01*
X212023707Y-36969973D01*
X212072636Y-37108946D01*
X212159066Y-37226062D01*
X212279755Y-37312219D01*
X212283364Y-37313986D01*
X212395189Y-37351400D01*
X212536270Y-37374923D01*
X212686565Y-37382932D01*
X212826034Y-37373804D01*
X212884145Y-37362635D01*
X212987261Y-37328691D01*
X213088630Y-37282072D01*
X213170592Y-37231731D01*
X213207058Y-37198953D01*
X213221557Y-37171482D01*
X213213111Y-37139839D01*
X213176230Y-37092920D01*
X213131396Y-37045895D01*
X213021576Y-36933997D01*
X212954041Y-36982086D01*
X212854233Y-37032637D01*
X212731716Y-37066353D01*
X212611375Y-37077557D01*
X212557492Y-37072523D01*
X212471917Y-37040901D01*
X212398995Y-36987051D01*
X212352896Y-36923435D01*
X212344000Y-36884768D01*
X212358252Y-36818067D01*
X212404806Y-36767088D01*
X212489357Y-36728267D01*
X212617604Y-36698039D01*
X212651564Y-36692298D01*
X212825586Y-36656307D01*
X212956177Y-36608782D01*
X213050238Y-36545072D01*
X213114671Y-36460525D01*
X213155879Y-36352372D01*
X213174880Y-36191890D01*
X213146901Y-36042027D01*
X213074582Y-35909991D01*
X212960566Y-35802994D01*
X212952659Y-35797661D01*
X212888558Y-35760765D01*
X212821786Y-35737774D01*
X212735300Y-35724353D01*
X212637344Y-35717426D01*
X212502269Y-35715769D01*
X212388447Y-35724792D01*
X212388447Y-35724792D01*
G37*
X212388447Y-35724792D02*
X212328128Y-35737561D01*
X212243474Y-35771205D01*
X212162855Y-35814408D01*
X212099514Y-35858795D01*
X212066693Y-35895994D01*
X212064774Y-35904095D01*
X212081567Y-35935587D01*
X212124799Y-35987509D01*
X212160890Y-36024714D01*
X212257180Y-36118738D01*
X212356761Y-36067969D01*
X212472858Y-36025830D01*
X212586419Y-36014154D01*
X212687883Y-36030416D01*
X212767688Y-36072090D01*
X212816273Y-36136651D01*
X212826600Y-36192052D01*
X212815143Y-36254913D01*
X212776376Y-36303105D01*
X212703710Y-36340654D01*
X212590552Y-36371584D01*
X212506397Y-36387627D01*
X212342171Y-36423651D01*
X212220581Y-36469998D01*
X212133770Y-36531420D01*
X212073881Y-36612669D01*
X212051328Y-36662864D01*
X212015523Y-36818246D01*
X212023707Y-36969973D01*
X212072636Y-37108946D01*
X212159066Y-37226062D01*
X212279755Y-37312219D01*
X212283364Y-37313986D01*
X212395189Y-37351400D01*
X212536270Y-37374923D01*
X212686565Y-37382932D01*
X212826034Y-37373804D01*
X212884145Y-37362635D01*
X212987261Y-37328691D01*
X213088630Y-37282072D01*
X213170592Y-37231731D01*
X213207058Y-37198953D01*
X213221557Y-37171482D01*
X213213111Y-37139839D01*
X213176230Y-37092920D01*
X213131396Y-37045895D01*
X213021576Y-36933997D01*
X212954041Y-36982086D01*
X212854233Y-37032637D01*
X212731716Y-37066353D01*
X212611375Y-37077557D01*
X212557492Y-37072523D01*
X212471917Y-37040901D01*
X212398995Y-36987051D01*
X212352896Y-36923435D01*
X212344000Y-36884768D01*
X212358252Y-36818067D01*
X212404806Y-36767088D01*
X212489357Y-36728267D01*
X212617604Y-36698039D01*
X212651564Y-36692298D01*
X212825586Y-36656307D01*
X212956177Y-36608782D01*
X213050238Y-36545072D01*
X213114671Y-36460525D01*
X213155879Y-36352372D01*
X213174880Y-36191890D01*
X213146901Y-36042027D01*
X213074582Y-35909991D01*
X212960566Y-35802994D01*
X212952659Y-35797661D01*
X212888558Y-35760765D01*
X212821786Y-35737774D01*
X212735300Y-35724353D01*
X212637344Y-35717426D01*
X212502269Y-35715769D01*
X212388447Y-35724792D01*
G36*
X223271332Y-35733018D02*
G01*
X223118476Y-35791651D01*
X222997626Y-35889600D01*
X222908474Y-36027051D01*
X222897076Y-36052852D01*
X222873501Y-36138229D01*
X222855375Y-36260361D01*
X222843411Y-36405422D01*
X222838322Y-36559588D01*
X222840820Y-36709034D01*
X222851618Y-36839937D01*
X222855213Y-36865094D01*
X222898214Y-37034304D01*
X222970502Y-37166459D01*
X223076645Y-37268886D01*
X223127632Y-37302023D01*
X223252325Y-37353049D01*
X223399625Y-37380151D01*
X223548398Y-37381332D01*
X223677510Y-37354594D01*
X223678802Y-37354115D01*
X223831994Y-37272286D01*
X223950664Y-37155713D01*
X224005832Y-37065640D01*
X224029043Y-37013922D01*
X224045311Y-36962868D01*
X224055869Y-36902126D01*
X224061947Y-36821346D01*
X224064776Y-36710176D01*
X224064997Y-36669830D01*
X223720707Y-36669830D01*
X223712900Y-36803837D01*
X223693857Y-36901912D01*
X223661581Y-36971231D01*
X223614075Y-37018967D01*
X223565401Y-37045732D01*
X223498862Y-37072825D01*
X223453310Y-37079961D01*
X223403574Y-37067269D01*
X223353171Y-37046814D01*
X223289872Y-37010039D01*
X223244415Y-36955720D01*
X223214312Y-36876298D01*
X223197073Y-36764216D01*
X223190212Y-36611916D01*
X223189800Y-36550600D01*
X223194016Y-36383995D01*
X223206398Y-36259668D01*
X223225217Y-36184803D01*
X223288659Y-36087048D01*
X223374201Y-36030848D01*
X223472323Y-36018417D01*
X223573505Y-36051966D01*
X223627550Y-36091300D01*
X223710500Y-36165400D01*
X223719273Y-36492718D01*
X223720707Y-36669830D01*
X224064997Y-36669830D01*
X224065582Y-36563300D01*
X224063806Y-36382495D01*
X224056542Y-36243057D01*
X224041720Y-36135665D01*
X224017272Y-36051001D01*
X223981128Y-35979745D01*
X223931220Y-35912579D01*
X223917580Y-35896734D01*
X223808636Y-35800317D01*
X223679691Y-35741091D01*
X223521349Y-35715321D01*
X223456500Y-35713515D01*
X223271332Y-35733018D01*
X223271332Y-35733018D01*
G37*
X223271332Y-35733018D02*
X223118476Y-35791651D01*
X222997626Y-35889600D01*
X222908474Y-36027051D01*
X222897076Y-36052852D01*
X222873501Y-36138229D01*
X222855375Y-36260361D01*
X222843411Y-36405422D01*
X222838322Y-36559588D01*
X222840820Y-36709034D01*
X222851618Y-36839937D01*
X222855213Y-36865094D01*
X222898214Y-37034304D01*
X222970502Y-37166459D01*
X223076645Y-37268886D01*
X223127632Y-37302023D01*
X223252325Y-37353049D01*
X223399625Y-37380151D01*
X223548398Y-37381332D01*
X223677510Y-37354594D01*
X223678802Y-37354115D01*
X223831994Y-37272286D01*
X223950664Y-37155713D01*
X224005832Y-37065640D01*
X224029043Y-37013922D01*
X224045311Y-36962868D01*
X224055869Y-36902126D01*
X224061947Y-36821346D01*
X224064776Y-36710176D01*
X224064997Y-36669830D01*
X223720707Y-36669830D01*
X223712900Y-36803837D01*
X223693857Y-36901912D01*
X223661581Y-36971231D01*
X223614075Y-37018967D01*
X223565401Y-37045732D01*
X223498862Y-37072825D01*
X223453310Y-37079961D01*
X223403574Y-37067269D01*
X223353171Y-37046814D01*
X223289872Y-37010039D01*
X223244415Y-36955720D01*
X223214312Y-36876298D01*
X223197073Y-36764216D01*
X223190212Y-36611916D01*
X223189800Y-36550600D01*
X223194016Y-36383995D01*
X223206398Y-36259668D01*
X223225217Y-36184803D01*
X223288659Y-36087048D01*
X223374201Y-36030848D01*
X223472323Y-36018417D01*
X223573505Y-36051966D01*
X223627550Y-36091300D01*
X223710500Y-36165400D01*
X223719273Y-36492718D01*
X223720707Y-36669830D01*
X224064997Y-36669830D01*
X224065582Y-36563300D01*
X224063806Y-36382495D01*
X224056542Y-36243057D01*
X224041720Y-36135665D01*
X224017272Y-36051001D01*
X223981128Y-35979745D01*
X223931220Y-35912579D01*
X223917580Y-35896734D01*
X223808636Y-35800317D01*
X223679691Y-35741091D01*
X223521349Y-35715321D01*
X223456500Y-35713515D01*
X223271332Y-35733018D01*
G36*
X230583466Y-35725836D02*
G01*
X230437673Y-35761750D01*
X230320297Y-35817216D01*
X230252940Y-35875024D01*
X230236176Y-35903804D01*
X230242550Y-35934198D01*
X230277567Y-35978376D01*
X230318932Y-36020883D01*
X230421083Y-36123035D01*
X230519815Y-36070117D01*
X230632766Y-36028167D01*
X230751162Y-36014743D01*
X230859599Y-36029510D01*
X230942674Y-36072129D01*
X230950655Y-36079545D01*
X231002503Y-36150302D01*
X231008168Y-36219579D01*
X230988306Y-36269881D01*
X230966218Y-36301172D01*
X230932130Y-36325065D01*
X230876147Y-36345265D01*
X230788373Y-36365475D01*
X230678017Y-36386026D01*
X230508398Y-36424885D01*
X230382224Y-36476254D01*
X230292661Y-36545382D01*
X230232874Y-36637518D01*
X230196438Y-36755920D01*
X230185328Y-36920603D01*
X230221061Y-37068467D01*
X230301510Y-37195026D01*
X230424547Y-37295794D01*
X230462520Y-37316844D01*
X230564199Y-37351626D01*
X230697221Y-37373642D01*
X230843488Y-37381799D01*
X230984903Y-37375003D01*
X231093758Y-37355002D01*
X231180592Y-37321884D01*
X231266469Y-37275306D01*
X231338662Y-37223901D01*
X231384439Y-37176303D01*
X231394000Y-37151362D01*
X231377001Y-37117140D01*
X231333304Y-37062979D01*
X231294279Y-37022333D01*
X231194557Y-36924958D01*
X231128884Y-36976616D01*
X231018092Y-37036910D01*
X230886262Y-37068301D01*
X230750809Y-37069476D01*
X230629146Y-37039121D01*
X230587550Y-37017421D01*
X230545010Y-36963867D01*
X230529597Y-36887996D01*
X230542802Y-36811345D01*
X230570315Y-36768314D01*
X230603553Y-36736818D01*
X230614765Y-36728365D01*
X230675826Y-36721665D01*
X230768496Y-36704666D01*
X230876729Y-36681098D01*
X230984479Y-36654694D01*
X231075700Y-36629186D01*
X231134346Y-36608307D01*
X231137448Y-36606797D01*
X231232954Y-36531755D01*
X231299082Y-36425546D01*
X231334580Y-36299309D01*
X231338197Y-36164181D01*
X231308679Y-36031299D01*
X231244776Y-35911801D01*
X231219094Y-35880647D01*
X231119547Y-35796172D01*
X230998366Y-35742676D01*
X230846167Y-35716834D01*
X230746300Y-35713205D01*
X230583466Y-35725836D01*
X230583466Y-35725836D01*
G37*
X230583466Y-35725836D02*
X230437673Y-35761750D01*
X230320297Y-35817216D01*
X230252940Y-35875024D01*
X230236176Y-35903804D01*
X230242550Y-35934198D01*
X230277567Y-35978376D01*
X230318932Y-36020883D01*
X230421083Y-36123035D01*
X230519815Y-36070117D01*
X230632766Y-36028167D01*
X230751162Y-36014743D01*
X230859599Y-36029510D01*
X230942674Y-36072129D01*
X230950655Y-36079545D01*
X231002503Y-36150302D01*
X231008168Y-36219579D01*
X230988306Y-36269881D01*
X230966218Y-36301172D01*
X230932130Y-36325065D01*
X230876147Y-36345265D01*
X230788373Y-36365475D01*
X230678017Y-36386026D01*
X230508398Y-36424885D01*
X230382224Y-36476254D01*
X230292661Y-36545382D01*
X230232874Y-36637518D01*
X230196438Y-36755920D01*
X230185328Y-36920603D01*
X230221061Y-37068467D01*
X230301510Y-37195026D01*
X230424547Y-37295794D01*
X230462520Y-37316844D01*
X230564199Y-37351626D01*
X230697221Y-37373642D01*
X230843488Y-37381799D01*
X230984903Y-37375003D01*
X231093758Y-37355002D01*
X231180592Y-37321884D01*
X231266469Y-37275306D01*
X231338662Y-37223901D01*
X231384439Y-37176303D01*
X231394000Y-37151362D01*
X231377001Y-37117140D01*
X231333304Y-37062979D01*
X231294279Y-37022333D01*
X231194557Y-36924958D01*
X231128884Y-36976616D01*
X231018092Y-37036910D01*
X230886262Y-37068301D01*
X230750809Y-37069476D01*
X230629146Y-37039121D01*
X230587550Y-37017421D01*
X230545010Y-36963867D01*
X230529597Y-36887996D01*
X230542802Y-36811345D01*
X230570315Y-36768314D01*
X230603553Y-36736818D01*
X230614765Y-36728365D01*
X230675826Y-36721665D01*
X230768496Y-36704666D01*
X230876729Y-36681098D01*
X230984479Y-36654694D01*
X231075700Y-36629186D01*
X231134346Y-36608307D01*
X231137448Y-36606797D01*
X231232954Y-36531755D01*
X231299082Y-36425546D01*
X231334580Y-36299309D01*
X231338197Y-36164181D01*
X231308679Y-36031299D01*
X231244776Y-35911801D01*
X231219094Y-35880647D01*
X231119547Y-35796172D01*
X230998366Y-35742676D01*
X230846167Y-35716834D01*
X230746300Y-35713205D01*
X230583466Y-35725836D01*
G36*
X237956179Y-35729073D02*
G01*
X237811513Y-35785184D01*
X237686357Y-35876603D01*
X237604693Y-35978149D01*
X237574937Y-36028116D01*
X237553857Y-36072752D01*
X237539699Y-36122327D01*
X237530707Y-36187111D01*
X237525128Y-36277375D01*
X237521205Y-36403388D01*
X237519455Y-36476980D01*
X237517752Y-36675864D01*
X237524265Y-36832514D01*
X237541021Y-36955118D01*
X237570046Y-37051864D01*
X237613368Y-37130939D01*
X237673014Y-37200530D01*
X237706221Y-37231376D01*
X237852312Y-37327423D01*
X238018728Y-37378050D01*
X238201544Y-37382472D01*
X238338131Y-37357404D01*
X238440099Y-37310109D01*
X238543253Y-37228996D01*
X238633159Y-37128585D01*
X238695385Y-37023398D01*
X238709028Y-36984237D01*
X238721992Y-36902022D01*
X238729770Y-36775892D01*
X238732075Y-36612496D01*
X238731860Y-36595881D01*
X238389689Y-36595881D01*
X238387571Y-36725899D01*
X238382271Y-36816178D01*
X238372136Y-36877753D01*
X238355515Y-36921663D01*
X238336440Y-36951481D01*
X238249712Y-37035510D01*
X238153602Y-37072709D01*
X238055392Y-37062463D01*
X237962363Y-37004156D01*
X237943230Y-36984724D01*
X237905613Y-36934707D01*
X237881397Y-36875067D01*
X237865531Y-36790066D01*
X237857720Y-36718224D01*
X237850006Y-36552269D01*
X237856590Y-36391084D01*
X237876229Y-36250585D01*
X237901173Y-36162052D01*
X237953235Y-36090293D01*
X238035773Y-36037852D01*
X238128910Y-36017296D01*
X238130089Y-36017294D01*
X238191039Y-36030452D01*
X238262171Y-36062451D01*
X238269672Y-36066883D01*
X238315275Y-36102395D01*
X238348239Y-36150142D01*
X238370353Y-36218010D01*
X238383405Y-36313884D01*
X238389185Y-36445649D01*
X238389689Y-36595881D01*
X238731860Y-36595881D01*
X238730445Y-36486859D01*
X238726808Y-36338704D01*
X238722408Y-36231290D01*
X238715561Y-36154564D01*
X238704587Y-36098475D01*
X238687801Y-36052973D01*
X238663523Y-36008004D01*
X238645308Y-35978145D01*
X238543173Y-35857714D01*
X238413853Y-35772591D01*
X238266688Y-35722777D01*
X238111017Y-35708271D01*
X237956179Y-35729073D01*
X237956179Y-35729073D01*
G37*
X237956179Y-35729073D02*
X237811513Y-35785184D01*
X237686357Y-35876603D01*
X237604693Y-35978149D01*
X237574937Y-36028116D01*
X237553857Y-36072752D01*
X237539699Y-36122327D01*
X237530707Y-36187111D01*
X237525128Y-36277375D01*
X237521205Y-36403388D01*
X237519455Y-36476980D01*
X237517752Y-36675864D01*
X237524265Y-36832514D01*
X237541021Y-36955118D01*
X237570046Y-37051864D01*
X237613368Y-37130939D01*
X237673014Y-37200530D01*
X237706221Y-37231376D01*
X237852312Y-37327423D01*
X238018728Y-37378050D01*
X238201544Y-37382472D01*
X238338131Y-37357404D01*
X238440099Y-37310109D01*
X238543253Y-37228996D01*
X238633159Y-37128585D01*
X238695385Y-37023398D01*
X238709028Y-36984237D01*
X238721992Y-36902022D01*
X238729770Y-36775892D01*
X238732075Y-36612496D01*
X238731860Y-36595881D01*
X238389689Y-36595881D01*
X238387571Y-36725899D01*
X238382271Y-36816178D01*
X238372136Y-36877753D01*
X238355515Y-36921663D01*
X238336440Y-36951481D01*
X238249712Y-37035510D01*
X238153602Y-37072709D01*
X238055392Y-37062463D01*
X237962363Y-37004156D01*
X237943230Y-36984724D01*
X237905613Y-36934707D01*
X237881397Y-36875067D01*
X237865531Y-36790066D01*
X237857720Y-36718224D01*
X237850006Y-36552269D01*
X237856590Y-36391084D01*
X237876229Y-36250585D01*
X237901173Y-36162052D01*
X237953235Y-36090293D01*
X238035773Y-36037852D01*
X238128910Y-36017296D01*
X238130089Y-36017294D01*
X238191039Y-36030452D01*
X238262171Y-36062451D01*
X238269672Y-36066883D01*
X238315275Y-36102395D01*
X238348239Y-36150142D01*
X238370353Y-36218010D01*
X238383405Y-36313884D01*
X238389185Y-36445649D01*
X238389689Y-36595881D01*
X238731860Y-36595881D01*
X238730445Y-36486859D01*
X238726808Y-36338704D01*
X238722408Y-36231290D01*
X238715561Y-36154564D01*
X238704587Y-36098475D01*
X238687801Y-36052973D01*
X238663523Y-36008004D01*
X238645308Y-35978145D01*
X238543173Y-35857714D01*
X238413853Y-35772591D01*
X238266688Y-35722777D01*
X238111017Y-35708271D01*
X237956179Y-35729073D01*
G36*
X245155056Y-35719555D02*
G01*
X245016943Y-35751693D01*
X244898867Y-35818457D01*
X244809681Y-35900981D01*
X244748089Y-35980125D01*
X244703602Y-36069727D01*
X244674451Y-36178260D01*
X244658863Y-36314195D01*
X244655069Y-36486004D01*
X244658246Y-36625486D01*
X244670625Y-36821255D01*
X244694786Y-36974772D01*
X244734274Y-37093915D01*
X244792633Y-37186561D01*
X244873410Y-37260587D01*
X244970300Y-37318877D01*
X245067424Y-37352725D01*
X245191424Y-37374438D01*
X245320865Y-37382093D01*
X245434313Y-37373766D01*
X245474906Y-37364143D01*
X245617498Y-37292998D01*
X245737260Y-37182694D01*
X245810399Y-37069694D01*
X245834516Y-37018477D01*
X245851706Y-36972571D01*
X245862933Y-36922500D01*
X245869164Y-36858784D01*
X245871362Y-36771948D01*
X245870493Y-36652514D01*
X245867818Y-36505871D01*
X245867684Y-36499681D01*
X245541022Y-36499681D01*
X245537176Y-36627568D01*
X245528237Y-36750673D01*
X245515013Y-36855797D01*
X245498314Y-36929740D01*
X245489252Y-36950361D01*
X245438297Y-37003247D01*
X245364327Y-37051255D01*
X245290838Y-37080288D01*
X245267489Y-37083421D01*
X245223138Y-37072811D01*
X245161766Y-37046394D01*
X245159969Y-37045470D01*
X245101857Y-37008133D01*
X245060120Y-36960102D01*
X245032563Y-36893354D01*
X245016989Y-36799867D01*
X245011202Y-36671618D01*
X245012828Y-36507896D01*
X245021100Y-36165305D01*
X245104051Y-36091252D01*
X245201535Y-36031293D01*
X245299551Y-36017789D01*
X245390042Y-36047125D01*
X245464951Y-36115690D01*
X245516217Y-36219868D01*
X245530196Y-36282354D01*
X245538965Y-36380210D01*
X245541022Y-36499681D01*
X245867684Y-36499681D01*
X245864405Y-36348384D01*
X245860488Y-36232726D01*
X245854752Y-36149928D01*
X245845877Y-36091027D01*
X245832548Y-36047056D01*
X245813446Y-36009049D01*
X245789234Y-35971026D01*
X245690937Y-35852722D01*
X245574890Y-35774271D01*
X245431096Y-35730222D01*
X245324917Y-35717881D01*
X245155056Y-35719555D01*
X245155056Y-35719555D01*
G37*
X245155056Y-35719555D02*
X245016943Y-35751693D01*
X244898867Y-35818457D01*
X244809681Y-35900981D01*
X244748089Y-35980125D01*
X244703602Y-36069727D01*
X244674451Y-36178260D01*
X244658863Y-36314195D01*
X244655069Y-36486004D01*
X244658246Y-36625486D01*
X244670625Y-36821255D01*
X244694786Y-36974772D01*
X244734274Y-37093915D01*
X244792633Y-37186561D01*
X244873410Y-37260587D01*
X244970300Y-37318877D01*
X245067424Y-37352725D01*
X245191424Y-37374438D01*
X245320865Y-37382093D01*
X245434313Y-37373766D01*
X245474906Y-37364143D01*
X245617498Y-37292998D01*
X245737260Y-37182694D01*
X245810399Y-37069694D01*
X245834516Y-37018477D01*
X245851706Y-36972571D01*
X245862933Y-36922500D01*
X245869164Y-36858784D01*
X245871362Y-36771948D01*
X245870493Y-36652514D01*
X245867818Y-36505871D01*
X245867684Y-36499681D01*
X245541022Y-36499681D01*
X245537176Y-36627568D01*
X245528237Y-36750673D01*
X245515013Y-36855797D01*
X245498314Y-36929740D01*
X245489252Y-36950361D01*
X245438297Y-37003247D01*
X245364327Y-37051255D01*
X245290838Y-37080288D01*
X245267489Y-37083421D01*
X245223138Y-37072811D01*
X245161766Y-37046394D01*
X245159969Y-37045470D01*
X245101857Y-37008133D01*
X245060120Y-36960102D01*
X245032563Y-36893354D01*
X245016989Y-36799867D01*
X245011202Y-36671618D01*
X245012828Y-36507896D01*
X245021100Y-36165305D01*
X245104051Y-36091252D01*
X245201535Y-36031293D01*
X245299551Y-36017789D01*
X245390042Y-36047125D01*
X245464951Y-36115690D01*
X245516217Y-36219868D01*
X245530196Y-36282354D01*
X245538965Y-36380210D01*
X245541022Y-36499681D01*
X245867684Y-36499681D01*
X245864405Y-36348384D01*
X245860488Y-36232726D01*
X245854752Y-36149928D01*
X245845877Y-36091027D01*
X245832548Y-36047056D01*
X245813446Y-36009049D01*
X245789234Y-35971026D01*
X245690937Y-35852722D01*
X245574890Y-35774271D01*
X245431096Y-35730222D01*
X245324917Y-35717881D01*
X245155056Y-35719555D01*
M02*
