M48
INCH,TZ
T1C0.0120
T2C0.0394
T3C0.0394
%
G90
G05
T1
X81835Y-18065
X81965Y-13005
X81970Y-12650
X81985Y-12275
X82435Y-18085
X83015Y-18075
X83575Y-18055
X84175Y-18065
X84745Y-13055
X84770Y-18085
X85095Y-13055
X85440Y-18105
X85445Y-13055
X85795Y-13055
X86085Y-18130
X86145Y-13055
X86145Y-13405
X86145Y-13755
X86145Y-14105
X86790Y-18110
X87450Y-18060
X88190Y-18065
X88810Y-18065
X89500Y-18125
X89510Y-17175
X89515Y-16685
X89770Y-17800
X89935Y-14435
X89935Y-17375
X89945Y-13155
X89945Y-13555
X89945Y-13955
X89945Y-14830
X89945Y-15655
X89945Y-16445
X89950Y-15250
X89950Y-16040
X89970Y-16915
X94800Y-13800
X96600Y-12000
X97800Y-12400
X97800Y-13300
T2
X81300Y-8100
X81300Y-9100
X82300Y-8100
X82300Y-9100
X83300Y-8100
X83300Y-9100
X84300Y-8100
X84300Y-9100
X97819Y-16619
X97819Y-17800
X99000Y-16619
X85300Y-8100
X85300Y-9100
X86300Y-8100
X86300Y-9100
X87300Y-8100
X87300Y-9100
X88300Y-8100
X88300Y-9100
X89300Y-8100
X89300Y-9100
X90300Y-8100
X90300Y-9100
X91300Y-8100
X91300Y-9100
X92300Y-8100
X92300Y-9100
X93300Y-8100
X93300Y-9100
X94300Y-8100
X94300Y-9100
X95300Y-8100
X95300Y-9100
X96300Y-8100
X96300Y-9100
X97300Y-8100
X97300Y-9100
X98300Y-8100
X98300Y-9100
X99300Y-8100
X99300Y-9100
X100300Y-8100
X99000Y-17800
X100300Y-9100
T3
X96638Y-16249
X100181Y-16249
T0
M30
