G04 #@! TF.GenerationSoftware,KiCad,Pcbnew,(5.1.4-0-10_14)*
G04 #@! TF.CreationDate,2020-01-14T22:21:16-05:00*
G04 #@! TF.ProjectId,LCD_Screen,4c43445f-5363-4726-9565-6e2e6b696361,rev?*
G04 #@! TF.SameCoordinates,Original*
G04 #@! TF.FileFunction,Soldermask,Top*
G04 #@! TF.FilePolarity,Negative*
%FSLAX46Y46*%
G04 Gerber Fmt 4.6, Leading zero omitted, Abs format (unit mm)*
G04 Created by KiCad (PCBNEW (5.1.4-0-10_14)) date 2020-01-14 22:21:16*
%MOMM*%
%LPD*%
G04 APERTURE LIST*
%ADD10C,0.100000*%
G04 APERTURE END LIST*
D10*
G36*
X252113048Y-44415122D02*
G01*
X252147387Y-44425539D01*
X252179036Y-44442456D01*
X252206778Y-44465222D01*
X252229544Y-44492964D01*
X252246461Y-44524613D01*
X252256878Y-44558952D01*
X252261000Y-44600807D01*
X252261000Y-45823193D01*
X252256878Y-45865048D01*
X252246461Y-45899387D01*
X252229544Y-45931036D01*
X252206778Y-45958778D01*
X252179036Y-45981544D01*
X252147387Y-45998461D01*
X252113048Y-46008878D01*
X252071193Y-46013000D01*
X250848807Y-46013000D01*
X250806952Y-46008878D01*
X250772613Y-45998461D01*
X250740964Y-45981544D01*
X250713222Y-45958778D01*
X250690456Y-45931036D01*
X250673539Y-45899387D01*
X250663122Y-45865048D01*
X250659000Y-45823193D01*
X250659000Y-44600807D01*
X250663122Y-44558952D01*
X250673539Y-44524613D01*
X250690456Y-44492964D01*
X250713222Y-44465222D01*
X250740964Y-44442456D01*
X250772613Y-44425539D01*
X250806952Y-44415122D01*
X250848807Y-44411000D01*
X252071193Y-44411000D01*
X252113048Y-44415122D01*
X252113048Y-44415122D01*
G37*
G36*
X248693642Y-44441781D02*
G01*
X248817208Y-44492964D01*
X248839416Y-44502163D01*
X248970608Y-44589822D01*
X249082178Y-44701392D01*
X249169837Y-44832584D01*
X249169838Y-44832586D01*
X249230219Y-44978358D01*
X249261000Y-45133107D01*
X249261000Y-45290893D01*
X249230219Y-45445642D01*
X249169838Y-45591414D01*
X249169837Y-45591416D01*
X249082178Y-45722608D01*
X248970608Y-45834178D01*
X248839416Y-45921837D01*
X248839415Y-45921838D01*
X248839414Y-45921838D01*
X248693642Y-45982219D01*
X248538893Y-46013000D01*
X248381107Y-46013000D01*
X248226358Y-45982219D01*
X248080586Y-45921838D01*
X248080585Y-45921838D01*
X248080584Y-45921837D01*
X247949392Y-45834178D01*
X247837822Y-45722608D01*
X247750163Y-45591416D01*
X247750162Y-45591414D01*
X247689781Y-45445642D01*
X247659000Y-45290893D01*
X247659000Y-45133107D01*
X247689781Y-44978358D01*
X247750162Y-44832586D01*
X247750163Y-44832584D01*
X247837822Y-44701392D01*
X247949392Y-44589822D01*
X248080584Y-44502163D01*
X248102792Y-44492964D01*
X248226358Y-44441781D01*
X248381107Y-44411000D01*
X248538893Y-44411000D01*
X248693642Y-44441781D01*
X248693642Y-44441781D01*
G37*
G36*
X208494300Y-44478700D02*
G01*
X207192300Y-44478700D01*
X207192300Y-43176700D01*
X208494300Y-43176700D01*
X208494300Y-44478700D01*
X208494300Y-44478700D01*
G37*
G36*
X206294300Y-44478700D02*
G01*
X204992300Y-44478700D01*
X204992300Y-43176700D01*
X206294300Y-43176700D01*
X206294300Y-44478700D01*
X206294300Y-44478700D01*
G37*
G36*
X214150300Y-44108700D02*
G01*
X212798300Y-44108700D01*
X212798300Y-43006700D01*
X214150300Y-43006700D01*
X214150300Y-44108700D01*
X214150300Y-44108700D01*
G37*
G36*
X212245300Y-44108700D02*
G01*
X210893300Y-44108700D01*
X210893300Y-43006700D01*
X212245300Y-43006700D01*
X212245300Y-44108700D01*
X212245300Y-44108700D01*
G37*
G36*
X210043891Y-42860785D02*
G01*
X210077869Y-42871093D01*
X210109190Y-42887834D01*
X210136639Y-42910361D01*
X210159166Y-42937810D01*
X210175907Y-42969131D01*
X210186215Y-43003109D01*
X210190300Y-43044590D01*
X210190300Y-43645810D01*
X210186215Y-43687291D01*
X210175907Y-43721269D01*
X210159166Y-43752590D01*
X210136639Y-43780039D01*
X210109190Y-43802566D01*
X210077869Y-43819307D01*
X210043891Y-43829615D01*
X210002410Y-43833700D01*
X209326190Y-43833700D01*
X209284709Y-43829615D01*
X209250731Y-43819307D01*
X209219410Y-43802566D01*
X209191961Y-43780039D01*
X209169434Y-43752590D01*
X209152693Y-43721269D01*
X209142385Y-43687291D01*
X209138300Y-43645810D01*
X209138300Y-43044590D01*
X209142385Y-43003109D01*
X209152693Y-42969131D01*
X209169434Y-42937810D01*
X209191961Y-42910361D01*
X209219410Y-42887834D01*
X209250731Y-42871093D01*
X209284709Y-42860785D01*
X209326190Y-42856700D01*
X210002410Y-42856700D01*
X210043891Y-42860785D01*
X210043891Y-42860785D01*
G37*
G36*
X251693642Y-41441781D02*
G01*
X251839414Y-41502162D01*
X251839416Y-41502163D01*
X251970608Y-41589822D01*
X252082178Y-41701392D01*
X252149285Y-41801826D01*
X252169838Y-41832586D01*
X252230219Y-41978358D01*
X252261000Y-42133107D01*
X252261000Y-42290893D01*
X252230219Y-42445642D01*
X252209070Y-42496700D01*
X252169837Y-42591416D01*
X252082178Y-42722608D01*
X251970608Y-42834178D01*
X251839416Y-42921837D01*
X251839415Y-42921838D01*
X251839414Y-42921838D01*
X251693642Y-42982219D01*
X251538893Y-43013000D01*
X251381107Y-43013000D01*
X251226358Y-42982219D01*
X251080586Y-42921838D01*
X251080585Y-42921838D01*
X251080584Y-42921837D01*
X250949392Y-42834178D01*
X250837822Y-42722608D01*
X250750163Y-42591416D01*
X250710930Y-42496700D01*
X250689781Y-42445642D01*
X250659000Y-42290893D01*
X250659000Y-42133107D01*
X250689781Y-41978358D01*
X250750162Y-41832586D01*
X250770715Y-41801826D01*
X250837822Y-41701392D01*
X250949392Y-41589822D01*
X251080584Y-41502163D01*
X251080586Y-41502162D01*
X251226358Y-41441781D01*
X251381107Y-41411000D01*
X251538893Y-41411000D01*
X251693642Y-41441781D01*
X251693642Y-41441781D01*
G37*
G36*
X248693642Y-41441781D02*
G01*
X248839414Y-41502162D01*
X248839416Y-41502163D01*
X248970608Y-41589822D01*
X249082178Y-41701392D01*
X249149285Y-41801826D01*
X249169838Y-41832586D01*
X249230219Y-41978358D01*
X249261000Y-42133107D01*
X249261000Y-42290893D01*
X249230219Y-42445642D01*
X249209070Y-42496700D01*
X249169837Y-42591416D01*
X249082178Y-42722608D01*
X248970608Y-42834178D01*
X248839416Y-42921837D01*
X248839415Y-42921838D01*
X248839414Y-42921838D01*
X248693642Y-42982219D01*
X248538893Y-43013000D01*
X248381107Y-43013000D01*
X248226358Y-42982219D01*
X248080586Y-42921838D01*
X248080585Y-42921838D01*
X248080584Y-42921837D01*
X247949392Y-42834178D01*
X247837822Y-42722608D01*
X247750163Y-42591416D01*
X247710930Y-42496700D01*
X247689781Y-42445642D01*
X247659000Y-42290893D01*
X247659000Y-42133107D01*
X247689781Y-41978358D01*
X247750162Y-41832586D01*
X247770715Y-41801826D01*
X247837822Y-41701392D01*
X247949392Y-41589822D01*
X248080584Y-41502163D01*
X248080586Y-41502162D01*
X248226358Y-41441781D01*
X248381107Y-41411000D01*
X248538893Y-41411000D01*
X248693642Y-41441781D01*
X248693642Y-41441781D01*
G37*
G36*
X222389900Y-42684900D02*
G01*
X220306700Y-42684900D01*
X220306700Y-39890500D01*
X222389900Y-39890500D01*
X222389900Y-42684900D01*
X222389900Y-42684900D01*
G37*
G36*
X218325900Y-42684900D02*
G01*
X216242700Y-42684900D01*
X216242700Y-39890500D01*
X218325900Y-39890500D01*
X218325900Y-42684900D01*
X218325900Y-42684900D01*
G37*
G36*
X208475300Y-42496700D02*
G01*
X207673300Y-42496700D01*
X207673300Y-41094700D01*
X208475300Y-41094700D01*
X208475300Y-42496700D01*
X208475300Y-42496700D01*
G37*
G36*
X206575300Y-42496700D02*
G01*
X205773300Y-42496700D01*
X205773300Y-41094700D01*
X206575300Y-41094700D01*
X206575300Y-42496700D01*
X206575300Y-42496700D01*
G37*
G36*
X210043891Y-41285785D02*
G01*
X210077869Y-41296093D01*
X210109190Y-41312834D01*
X210136639Y-41335361D01*
X210159166Y-41362810D01*
X210175907Y-41394131D01*
X210186215Y-41428109D01*
X210190300Y-41469590D01*
X210190300Y-42070810D01*
X210186215Y-42112291D01*
X210175907Y-42146269D01*
X210159166Y-42177590D01*
X210136639Y-42205039D01*
X210109190Y-42227566D01*
X210077869Y-42244307D01*
X210043891Y-42254615D01*
X210002410Y-42258700D01*
X209326190Y-42258700D01*
X209284709Y-42254615D01*
X209250731Y-42244307D01*
X209219410Y-42227566D01*
X209191961Y-42205039D01*
X209169434Y-42177590D01*
X209152693Y-42146269D01*
X209142385Y-42112291D01*
X209138300Y-42070810D01*
X209138300Y-41469590D01*
X209142385Y-41428109D01*
X209152693Y-41394131D01*
X209169434Y-41362810D01*
X209191961Y-41335361D01*
X209219410Y-41312834D01*
X209250731Y-41296093D01*
X209284709Y-41285785D01*
X209326190Y-41281700D01*
X210002410Y-41281700D01*
X210043891Y-41285785D01*
X210043891Y-41285785D01*
G37*
G36*
X212245300Y-42108700D02*
G01*
X210893300Y-42108700D01*
X210893300Y-41006700D01*
X212245300Y-41006700D01*
X212245300Y-42108700D01*
X212245300Y-42108700D01*
G37*
G36*
X214150300Y-42108700D02*
G01*
X212798300Y-42108700D01*
X212798300Y-41006700D01*
X214150300Y-41006700D01*
X214150300Y-42108700D01*
X214150300Y-42108700D01*
G37*
G36*
X254620721Y-40742174D02*
G01*
X254720995Y-40783709D01*
X254720996Y-40783710D01*
X254811242Y-40844010D01*
X254887990Y-40920758D01*
X254887991Y-40920760D01*
X254948291Y-41011005D01*
X254989826Y-41111279D01*
X255011000Y-41217730D01*
X255011000Y-41326270D01*
X254989826Y-41432721D01*
X254948291Y-41532995D01*
X254948290Y-41532996D01*
X254887990Y-41623242D01*
X254811242Y-41699990D01*
X254809142Y-41701393D01*
X254720995Y-41760291D01*
X254620721Y-41801826D01*
X254514270Y-41823000D01*
X254405730Y-41823000D01*
X254299279Y-41801826D01*
X254199005Y-41760291D01*
X254110858Y-41701393D01*
X254108758Y-41699990D01*
X254032010Y-41623242D01*
X253971710Y-41532996D01*
X253971709Y-41532995D01*
X253930174Y-41432721D01*
X253909000Y-41326270D01*
X253909000Y-41217730D01*
X253930174Y-41111279D01*
X253971709Y-41011005D01*
X254032009Y-40920760D01*
X254032010Y-40920758D01*
X254108758Y-40844010D01*
X254199004Y-40783710D01*
X254199005Y-40783709D01*
X254299279Y-40742174D01*
X254405730Y-40721000D01*
X254514270Y-40721000D01*
X254620721Y-40742174D01*
X254620721Y-40742174D01*
G37*
G36*
X245620721Y-40742174D02*
G01*
X245720995Y-40783709D01*
X245720996Y-40783710D01*
X245811242Y-40844010D01*
X245887990Y-40920758D01*
X245887991Y-40920760D01*
X245948291Y-41011005D01*
X245989826Y-41111279D01*
X246011000Y-41217730D01*
X246011000Y-41326270D01*
X245989826Y-41432721D01*
X245948291Y-41532995D01*
X245948290Y-41532996D01*
X245887990Y-41623242D01*
X245811242Y-41699990D01*
X245809142Y-41701393D01*
X245720995Y-41760291D01*
X245620721Y-41801826D01*
X245514270Y-41823000D01*
X245405730Y-41823000D01*
X245299279Y-41801826D01*
X245199005Y-41760291D01*
X245110858Y-41701393D01*
X245108758Y-41699990D01*
X245032010Y-41623242D01*
X244971710Y-41532996D01*
X244971709Y-41532995D01*
X244930174Y-41432721D01*
X244909000Y-41326270D01*
X244909000Y-41217730D01*
X244930174Y-41111279D01*
X244971709Y-41011005D01*
X245032009Y-40920760D01*
X245032010Y-40920758D01*
X245108758Y-40844010D01*
X245199004Y-40783710D01*
X245199005Y-40783709D01*
X245299279Y-40742174D01*
X245405730Y-40721000D01*
X245514270Y-40721000D01*
X245620721Y-40742174D01*
X245620721Y-40742174D01*
G37*
G36*
X225217300Y-41455700D02*
G01*
X224115300Y-41455700D01*
X224115300Y-40103700D01*
X225217300Y-40103700D01*
X225217300Y-41455700D01*
X225217300Y-41455700D01*
G37*
G36*
X227217300Y-41455700D02*
G01*
X226115300Y-41455700D01*
X226115300Y-40103700D01*
X227217300Y-40103700D01*
X227217300Y-41455700D01*
X227217300Y-41455700D01*
G37*
G36*
X208379107Y-36747198D02*
G01*
X208417118Y-36758729D01*
X208452142Y-36777449D01*
X208482849Y-36802651D01*
X208508051Y-36833358D01*
X208526771Y-36868382D01*
X208538302Y-36906393D01*
X208542800Y-36952063D01*
X208542800Y-40035337D01*
X208538302Y-40081007D01*
X208526771Y-40119018D01*
X208508051Y-40154042D01*
X208482849Y-40184749D01*
X208452142Y-40209951D01*
X208417118Y-40228671D01*
X208379107Y-40240202D01*
X208333437Y-40244700D01*
X207525163Y-40244700D01*
X207479493Y-40240202D01*
X207441482Y-40228671D01*
X207406458Y-40209951D01*
X207375751Y-40184749D01*
X207350549Y-40154042D01*
X207331829Y-40119018D01*
X207320298Y-40081007D01*
X207315800Y-40035337D01*
X207315800Y-36952063D01*
X207320298Y-36906393D01*
X207331829Y-36868382D01*
X207350549Y-36833358D01*
X207375751Y-36802651D01*
X207406458Y-36777449D01*
X207441482Y-36758729D01*
X207479493Y-36747198D01*
X207525163Y-36742700D01*
X208333437Y-36742700D01*
X208379107Y-36747198D01*
X208379107Y-36747198D01*
G37*
G36*
X212654107Y-36747198D02*
G01*
X212692118Y-36758729D01*
X212727142Y-36777449D01*
X212757849Y-36802651D01*
X212783051Y-36833358D01*
X212801771Y-36868382D01*
X212813302Y-36906393D01*
X212817800Y-36952063D01*
X212817800Y-40035337D01*
X212813302Y-40081007D01*
X212801771Y-40119018D01*
X212783051Y-40154042D01*
X212757849Y-40184749D01*
X212727142Y-40209951D01*
X212692118Y-40228671D01*
X212654107Y-40240202D01*
X212608437Y-40244700D01*
X211800163Y-40244700D01*
X211754493Y-40240202D01*
X211716482Y-40228671D01*
X211681458Y-40209951D01*
X211650751Y-40184749D01*
X211625549Y-40154042D01*
X211606829Y-40119018D01*
X211595298Y-40081007D01*
X211590800Y-40035337D01*
X211590800Y-36952063D01*
X211595298Y-36906393D01*
X211606829Y-36868382D01*
X211625549Y-36833358D01*
X211650751Y-36802651D01*
X211681458Y-36777449D01*
X211716482Y-36758729D01*
X211754493Y-36747198D01*
X211800163Y-36742700D01*
X212608437Y-36742700D01*
X212654107Y-36747198D01*
X212654107Y-36747198D01*
G37*
G36*
X227233300Y-39344700D02*
G01*
X226131300Y-39344700D01*
X226131300Y-37642700D01*
X227233300Y-37642700D01*
X227233300Y-39344700D01*
X227233300Y-39344700D01*
G37*
G36*
X224233300Y-39344700D02*
G01*
X223131300Y-39344700D01*
X223131300Y-37642700D01*
X224233300Y-37642700D01*
X224233300Y-39344700D01*
X224233300Y-39344700D01*
G37*
G36*
X217155891Y-36510785D02*
G01*
X217189869Y-36521093D01*
X217221190Y-36537834D01*
X217248639Y-36560361D01*
X217271166Y-36587810D01*
X217287907Y-36619131D01*
X217298215Y-36653109D01*
X217302300Y-36694590D01*
X217302300Y-37295810D01*
X217298215Y-37337291D01*
X217287907Y-37371269D01*
X217271166Y-37402590D01*
X217248639Y-37430039D01*
X217221190Y-37452566D01*
X217189869Y-37469307D01*
X217155891Y-37479615D01*
X217114410Y-37483700D01*
X216438190Y-37483700D01*
X216396709Y-37479615D01*
X216362731Y-37469307D01*
X216331410Y-37452566D01*
X216303961Y-37430039D01*
X216281434Y-37402590D01*
X216264693Y-37371269D01*
X216254385Y-37337291D01*
X216250300Y-37295810D01*
X216250300Y-36694590D01*
X216254385Y-36653109D01*
X216264693Y-36619131D01*
X216281434Y-36587810D01*
X216303961Y-36560361D01*
X216331410Y-36537834D01*
X216362731Y-36521093D01*
X216396709Y-36510785D01*
X216438190Y-36506700D01*
X217114410Y-36506700D01*
X217155891Y-36510785D01*
X217155891Y-36510785D01*
G37*
G36*
X215395300Y-37434900D02*
G01*
X214093300Y-37434900D01*
X214093300Y-36632900D01*
X215395300Y-36632900D01*
X215395300Y-37434900D01*
X215395300Y-37434900D01*
G37*
G36*
X237404000Y-37381000D02*
G01*
X236052000Y-37381000D01*
X236052000Y-36279000D01*
X237404000Y-36279000D01*
X237404000Y-37381000D01*
X237404000Y-37381000D01*
G37*
G36*
X206603800Y-37147700D02*
G01*
X204342800Y-37147700D01*
X204342800Y-35267700D01*
X206603800Y-35267700D01*
X206603800Y-37147700D01*
X206603800Y-37147700D01*
G37*
G36*
X252049000Y-37023000D02*
G01*
X251247000Y-37023000D01*
X251247000Y-35621000D01*
X252049000Y-35621000D01*
X252049000Y-37023000D01*
X252049000Y-37023000D01*
G37*
G36*
X250149000Y-37023000D02*
G01*
X249347000Y-37023000D01*
X249347000Y-35621000D01*
X250149000Y-35621000D01*
X250149000Y-37023000D01*
X250149000Y-37023000D01*
G37*
G36*
X222708607Y-33445198D02*
G01*
X222746618Y-33456729D01*
X222781642Y-33475449D01*
X222812349Y-33500651D01*
X222837551Y-33531358D01*
X222856271Y-33566382D01*
X222867802Y-33604393D01*
X222872300Y-33650063D01*
X222872300Y-36733337D01*
X222867802Y-36779007D01*
X222856271Y-36817018D01*
X222837551Y-36852042D01*
X222812349Y-36882749D01*
X222781642Y-36907951D01*
X222746618Y-36926671D01*
X222708607Y-36938202D01*
X222662937Y-36942700D01*
X221854663Y-36942700D01*
X221808993Y-36938202D01*
X221770982Y-36926671D01*
X221735958Y-36907951D01*
X221705251Y-36882749D01*
X221680049Y-36852042D01*
X221661329Y-36817018D01*
X221649798Y-36779007D01*
X221645300Y-36733337D01*
X221645300Y-33650063D01*
X221649798Y-33604393D01*
X221661329Y-33566382D01*
X221680049Y-33531358D01*
X221705251Y-33500651D01*
X221735958Y-33475449D01*
X221770982Y-33456729D01*
X221808993Y-33445198D01*
X221854663Y-33440700D01*
X222662937Y-33440700D01*
X222708607Y-33445198D01*
X222708607Y-33445198D01*
G37*
G36*
X226983607Y-33445198D02*
G01*
X227021618Y-33456729D01*
X227056642Y-33475449D01*
X227087349Y-33500651D01*
X227112551Y-33531358D01*
X227131271Y-33566382D01*
X227142802Y-33604393D01*
X227147300Y-33650063D01*
X227147300Y-36733337D01*
X227142802Y-36779007D01*
X227131271Y-36817018D01*
X227112551Y-36852042D01*
X227087349Y-36882749D01*
X227056642Y-36907951D01*
X227021618Y-36926671D01*
X226983607Y-36938202D01*
X226937937Y-36942700D01*
X226129663Y-36942700D01*
X226083993Y-36938202D01*
X226045982Y-36926671D01*
X226010958Y-36907951D01*
X225980251Y-36882749D01*
X225955049Y-36852042D01*
X225936329Y-36817018D01*
X225924798Y-36779007D01*
X225920300Y-36733337D01*
X225920300Y-33650063D01*
X225924798Y-33604393D01*
X225936329Y-33566382D01*
X225955049Y-33531358D01*
X225980251Y-33500651D01*
X226010958Y-33475449D01*
X226045982Y-33456729D01*
X226083993Y-33445198D01*
X226129663Y-33440700D01*
X226937937Y-33440700D01*
X226983607Y-33445198D01*
X226983607Y-33445198D01*
G37*
G36*
X240404000Y-36505000D02*
G01*
X238552000Y-36505000D01*
X238552000Y-27503000D01*
X240404000Y-27503000D01*
X240404000Y-36505000D01*
X240404000Y-36505000D01*
G37*
G36*
X247604000Y-36505000D02*
G01*
X245752000Y-36505000D01*
X245752000Y-27503000D01*
X247604000Y-27503000D01*
X247604000Y-36505000D01*
X247604000Y-36505000D01*
G37*
G36*
X215395300Y-35934900D02*
G01*
X214093300Y-35934900D01*
X214093300Y-35132900D01*
X215395300Y-35132900D01*
X215395300Y-35934900D01*
X215395300Y-35934900D01*
G37*
G36*
X217155891Y-34935785D02*
G01*
X217189869Y-34946093D01*
X217221190Y-34962834D01*
X217248639Y-34985361D01*
X217271166Y-35012810D01*
X217287907Y-35044131D01*
X217298215Y-35078109D01*
X217302300Y-35119590D01*
X217302300Y-35720810D01*
X217298215Y-35762291D01*
X217287907Y-35796269D01*
X217271166Y-35827590D01*
X217248639Y-35855039D01*
X217221190Y-35877566D01*
X217189869Y-35894307D01*
X217155891Y-35904615D01*
X217114410Y-35908700D01*
X216438190Y-35908700D01*
X216396709Y-35904615D01*
X216362731Y-35894307D01*
X216331410Y-35877566D01*
X216303961Y-35855039D01*
X216281434Y-35827590D01*
X216264693Y-35796269D01*
X216254385Y-35762291D01*
X216250300Y-35720810D01*
X216250300Y-35119590D01*
X216254385Y-35078109D01*
X216264693Y-35044131D01*
X216281434Y-35012810D01*
X216303961Y-34985361D01*
X216331410Y-34962834D01*
X216362731Y-34946093D01*
X216396709Y-34935785D01*
X216438190Y-34931700D01*
X217114410Y-34931700D01*
X217155891Y-34935785D01*
X217155891Y-34935785D01*
G37*
G36*
X212793300Y-35384700D02*
G01*
X211991300Y-35384700D01*
X211991300Y-33982700D01*
X212793300Y-33982700D01*
X212793300Y-35384700D01*
X212793300Y-35384700D01*
G37*
G36*
X210893300Y-35384700D02*
G01*
X210091300Y-35384700D01*
X210091300Y-33982700D01*
X210893300Y-33982700D01*
X210893300Y-35384700D01*
X210893300Y-35384700D01*
G37*
G36*
X237404000Y-35381000D02*
G01*
X236052000Y-35381000D01*
X236052000Y-34279000D01*
X237404000Y-34279000D01*
X237404000Y-35381000D01*
X237404000Y-35381000D01*
G37*
G36*
X252249000Y-34458000D02*
G01*
X251147000Y-34458000D01*
X251147000Y-33106000D01*
X252249000Y-33106000D01*
X252249000Y-34458000D01*
X252249000Y-34458000D01*
G37*
G36*
X250249000Y-34458000D02*
G01*
X249147000Y-34458000D01*
X249147000Y-33106000D01*
X250249000Y-33106000D01*
X250249000Y-34458000D01*
X250249000Y-34458000D01*
G37*
G36*
X237404000Y-33555000D02*
G01*
X236052000Y-33555000D01*
X236052000Y-32453000D01*
X237404000Y-32453000D01*
X237404000Y-33555000D01*
X237404000Y-33555000D01*
G37*
G36*
X213045000Y-33278800D02*
G01*
X211643000Y-33278800D01*
X211643000Y-32476800D01*
X213045000Y-32476800D01*
X213045000Y-33278800D01*
X213045000Y-33278800D01*
G37*
G36*
X206603800Y-33083700D02*
G01*
X204342800Y-33083700D01*
X204342800Y-31203700D01*
X206603800Y-31203700D01*
X206603800Y-33083700D01*
X206603800Y-33083700D01*
G37*
G36*
X224523300Y-32746700D02*
G01*
X221221300Y-32746700D01*
X221221300Y-31644700D01*
X224523300Y-31644700D01*
X224523300Y-32746700D01*
X224523300Y-32746700D01*
G37*
G36*
X226812600Y-32243700D02*
G01*
X225510600Y-32243700D01*
X225510600Y-30941700D01*
X226812600Y-30941700D01*
X226812600Y-32243700D01*
X226812600Y-32243700D01*
G37*
G36*
X252060000Y-32120000D02*
G01*
X250758000Y-32120000D01*
X250758000Y-30618000D01*
X252060000Y-30618000D01*
X252060000Y-32120000D01*
X252060000Y-32120000D01*
G37*
G36*
X250460000Y-32120000D02*
G01*
X249158000Y-32120000D01*
X249158000Y-30618000D01*
X250460000Y-30618000D01*
X250460000Y-32120000D01*
X250460000Y-32120000D01*
G37*
G36*
X214703300Y-32082700D02*
G01*
X213901300Y-32082700D01*
X213901300Y-30680700D01*
X214703300Y-30680700D01*
X214703300Y-32082700D01*
X214703300Y-32082700D01*
G37*
G36*
X216603300Y-32082700D02*
G01*
X215801300Y-32082700D01*
X215801300Y-30680700D01*
X216603300Y-30680700D01*
X216603300Y-32082700D01*
X216603300Y-32082700D01*
G37*
G36*
X237404000Y-31555000D02*
G01*
X236052000Y-31555000D01*
X236052000Y-30453000D01*
X237404000Y-30453000D01*
X237404000Y-31555000D01*
X237404000Y-31555000D01*
G37*
G36*
X213045000Y-31378800D02*
G01*
X211643000Y-31378800D01*
X211643000Y-30576800D01*
X213045000Y-30576800D01*
X213045000Y-31378800D01*
X213045000Y-31378800D01*
G37*
G36*
X226812600Y-30043700D02*
G01*
X225510600Y-30043700D01*
X225510600Y-28741700D01*
X226812600Y-28741700D01*
X226812600Y-30043700D01*
X226812600Y-30043700D01*
G37*
G36*
X250460000Y-29920000D02*
G01*
X249158000Y-29920000D01*
X249158000Y-28418000D01*
X250460000Y-28418000D01*
X250460000Y-29920000D01*
X250460000Y-29920000D01*
G37*
G36*
X252060000Y-29920000D02*
G01*
X250758000Y-29920000D01*
X250758000Y-28418000D01*
X252060000Y-28418000D01*
X252060000Y-29920000D01*
X252060000Y-29920000D01*
G37*
G36*
X237429000Y-29611000D02*
G01*
X236027000Y-29611000D01*
X236027000Y-28809000D01*
X237429000Y-28809000D01*
X237429000Y-29611000D01*
X237429000Y-29611000D01*
G37*
G36*
X216229391Y-27049785D02*
G01*
X216263369Y-27060093D01*
X216294690Y-27076834D01*
X216322139Y-27099361D01*
X216344666Y-27126810D01*
X216361407Y-27158131D01*
X216371715Y-27192109D01*
X216375800Y-27233590D01*
X216375800Y-27909810D01*
X216371715Y-27951291D01*
X216361407Y-27985269D01*
X216344666Y-28016590D01*
X216322139Y-28044039D01*
X216294690Y-28066566D01*
X216263369Y-28083307D01*
X216229391Y-28093615D01*
X216187910Y-28097700D01*
X215586690Y-28097700D01*
X215545209Y-28093615D01*
X215511231Y-28083307D01*
X215479910Y-28066566D01*
X215452461Y-28044039D01*
X215429934Y-28016590D01*
X215413193Y-27985269D01*
X215402885Y-27951291D01*
X215398800Y-27909810D01*
X215398800Y-27233590D01*
X215402885Y-27192109D01*
X215413193Y-27158131D01*
X215429934Y-27126810D01*
X215452461Y-27099361D01*
X215479910Y-27076834D01*
X215511231Y-27060093D01*
X215545209Y-27049785D01*
X215586690Y-27045700D01*
X216187910Y-27045700D01*
X216229391Y-27049785D01*
X216229391Y-27049785D01*
G37*
G36*
X214654391Y-27049785D02*
G01*
X214688369Y-27060093D01*
X214719690Y-27076834D01*
X214747139Y-27099361D01*
X214769666Y-27126810D01*
X214786407Y-27158131D01*
X214796715Y-27192109D01*
X214800800Y-27233590D01*
X214800800Y-27909810D01*
X214796715Y-27951291D01*
X214786407Y-27985269D01*
X214769666Y-28016590D01*
X214747139Y-28044039D01*
X214719690Y-28066566D01*
X214688369Y-28083307D01*
X214654391Y-28093615D01*
X214612910Y-28097700D01*
X214011690Y-28097700D01*
X213970209Y-28093615D01*
X213936231Y-28083307D01*
X213904910Y-28066566D01*
X213877461Y-28044039D01*
X213854934Y-28016590D01*
X213838193Y-27985269D01*
X213827885Y-27951291D01*
X213823800Y-27909810D01*
X213823800Y-27233590D01*
X213827885Y-27192109D01*
X213838193Y-27158131D01*
X213854934Y-27126810D01*
X213877461Y-27099361D01*
X213904910Y-27076834D01*
X213936231Y-27060093D01*
X213970209Y-27049785D01*
X214011690Y-27045700D01*
X214612910Y-27045700D01*
X214654391Y-27049785D01*
X214654391Y-27049785D01*
G37*
G36*
X213079891Y-27049785D02*
G01*
X213113869Y-27060093D01*
X213145190Y-27076834D01*
X213172639Y-27099361D01*
X213195166Y-27126810D01*
X213211907Y-27158131D01*
X213222215Y-27192109D01*
X213226300Y-27233590D01*
X213226300Y-27909810D01*
X213222215Y-27951291D01*
X213211907Y-27985269D01*
X213195166Y-28016590D01*
X213172639Y-28044039D01*
X213145190Y-28066566D01*
X213113869Y-28083307D01*
X213079891Y-28093615D01*
X213038410Y-28097700D01*
X212437190Y-28097700D01*
X212395709Y-28093615D01*
X212361731Y-28083307D01*
X212330410Y-28066566D01*
X212302961Y-28044039D01*
X212280434Y-28016590D01*
X212263693Y-27985269D01*
X212253385Y-27951291D01*
X212249300Y-27909810D01*
X212249300Y-27233590D01*
X212253385Y-27192109D01*
X212263693Y-27158131D01*
X212280434Y-27126810D01*
X212302961Y-27099361D01*
X212330410Y-27076834D01*
X212361731Y-27060093D01*
X212395709Y-27049785D01*
X212437190Y-27045700D01*
X213038410Y-27045700D01*
X213079891Y-27049785D01*
X213079891Y-27049785D01*
G37*
G36*
X211504891Y-27049785D02*
G01*
X211538869Y-27060093D01*
X211570190Y-27076834D01*
X211597639Y-27099361D01*
X211620166Y-27126810D01*
X211636907Y-27158131D01*
X211647215Y-27192109D01*
X211651300Y-27233590D01*
X211651300Y-27909810D01*
X211647215Y-27951291D01*
X211636907Y-27985269D01*
X211620166Y-28016590D01*
X211597639Y-28044039D01*
X211570190Y-28066566D01*
X211538869Y-28083307D01*
X211504891Y-28093615D01*
X211463410Y-28097700D01*
X210862190Y-28097700D01*
X210820709Y-28093615D01*
X210786731Y-28083307D01*
X210755410Y-28066566D01*
X210727961Y-28044039D01*
X210705434Y-28016590D01*
X210688693Y-27985269D01*
X210678385Y-27951291D01*
X210674300Y-27909810D01*
X210674300Y-27233590D01*
X210678385Y-27192109D01*
X210688693Y-27158131D01*
X210705434Y-27126810D01*
X210727961Y-27099361D01*
X210755410Y-27076834D01*
X210786731Y-27060093D01*
X210820709Y-27049785D01*
X210862190Y-27045700D01*
X211463410Y-27045700D01*
X211504891Y-27049785D01*
X211504891Y-27049785D01*
G37*
G36*
X226133300Y-28018700D02*
G01*
X225331300Y-28018700D01*
X225331300Y-26616700D01*
X226133300Y-26616700D01*
X226133300Y-28018700D01*
X226133300Y-28018700D01*
G37*
G36*
X228033300Y-28018700D02*
G01*
X227231300Y-28018700D01*
X227231300Y-26616700D01*
X228033300Y-26616700D01*
X228033300Y-28018700D01*
X228033300Y-28018700D01*
G37*
G36*
X237429000Y-27711000D02*
G01*
X236027000Y-27711000D01*
X236027000Y-26909000D01*
X237429000Y-26909000D01*
X237429000Y-27711000D01*
X237429000Y-27711000D01*
G37*
G36*
X252233000Y-27600000D02*
G01*
X251131000Y-27600000D01*
X251131000Y-26248000D01*
X252233000Y-26248000D01*
X252233000Y-27600000D01*
X252233000Y-27600000D01*
G37*
G36*
X250233000Y-27600000D02*
G01*
X249131000Y-27600000D01*
X249131000Y-26248000D01*
X250233000Y-26248000D01*
X250233000Y-27600000D01*
X250233000Y-27600000D01*
G37*
G36*
X224523300Y-26546700D02*
G01*
X221221300Y-26546700D01*
X221221300Y-25444700D01*
X224523300Y-25444700D01*
X224523300Y-26546700D01*
X224523300Y-26546700D01*
G37*
G36*
X242172442Y-22219518D02*
G01*
X242238627Y-22226037D01*
X242408466Y-22277557D01*
X242564991Y-22361222D01*
X242600729Y-22390552D01*
X242702186Y-22473814D01*
X242785448Y-22575271D01*
X242814778Y-22611009D01*
X242898443Y-22767534D01*
X242949963Y-22937373D01*
X242967359Y-23114000D01*
X242949963Y-23290627D01*
X242898443Y-23460466D01*
X242814778Y-23616991D01*
X242785448Y-23652729D01*
X242702186Y-23754186D01*
X242600729Y-23837448D01*
X242564991Y-23866778D01*
X242408466Y-23950443D01*
X242238627Y-24001963D01*
X242172443Y-24008481D01*
X242106260Y-24015000D01*
X242017740Y-24015000D01*
X241951557Y-24008481D01*
X241885373Y-24001963D01*
X241715534Y-23950443D01*
X241559009Y-23866778D01*
X241523271Y-23837448D01*
X241421814Y-23754186D01*
X241338552Y-23652729D01*
X241309222Y-23616991D01*
X241225557Y-23460466D01*
X241174037Y-23290627D01*
X241156641Y-23114000D01*
X241174037Y-22937373D01*
X241225557Y-22767534D01*
X241309222Y-22611009D01*
X241338552Y-22575271D01*
X241421814Y-22473814D01*
X241523271Y-22390552D01*
X241559009Y-22361222D01*
X241715534Y-22277557D01*
X241885373Y-22226037D01*
X241951557Y-22219519D01*
X242017740Y-22213000D01*
X242106260Y-22213000D01*
X242172442Y-22219518D01*
X242172442Y-22219518D01*
G37*
G36*
X244712442Y-22219518D02*
G01*
X244778627Y-22226037D01*
X244948466Y-22277557D01*
X245104991Y-22361222D01*
X245140729Y-22390552D01*
X245242186Y-22473814D01*
X245325448Y-22575271D01*
X245354778Y-22611009D01*
X245438443Y-22767534D01*
X245489963Y-22937373D01*
X245507359Y-23114000D01*
X245489963Y-23290627D01*
X245438443Y-23460466D01*
X245354778Y-23616991D01*
X245325448Y-23652729D01*
X245242186Y-23754186D01*
X245140729Y-23837448D01*
X245104991Y-23866778D01*
X244948466Y-23950443D01*
X244778627Y-24001963D01*
X244712443Y-24008481D01*
X244646260Y-24015000D01*
X244557740Y-24015000D01*
X244491557Y-24008481D01*
X244425373Y-24001963D01*
X244255534Y-23950443D01*
X244099009Y-23866778D01*
X244063271Y-23837448D01*
X243961814Y-23754186D01*
X243878552Y-23652729D01*
X243849222Y-23616991D01*
X243765557Y-23460466D01*
X243714037Y-23290627D01*
X243696641Y-23114000D01*
X243714037Y-22937373D01*
X243765557Y-22767534D01*
X243849222Y-22611009D01*
X243878552Y-22575271D01*
X243961814Y-22473814D01*
X244063271Y-22390552D01*
X244099009Y-22361222D01*
X244255534Y-22277557D01*
X244425373Y-22226037D01*
X244491557Y-22219519D01*
X244557740Y-22213000D01*
X244646260Y-22213000D01*
X244712442Y-22219518D01*
X244712442Y-22219518D01*
G37*
G36*
X254872442Y-22219518D02*
G01*
X254938627Y-22226037D01*
X255108466Y-22277557D01*
X255264991Y-22361222D01*
X255300729Y-22390552D01*
X255402186Y-22473814D01*
X255485448Y-22575271D01*
X255514778Y-22611009D01*
X255598443Y-22767534D01*
X255649963Y-22937373D01*
X255667359Y-23114000D01*
X255649963Y-23290627D01*
X255598443Y-23460466D01*
X255514778Y-23616991D01*
X255485448Y-23652729D01*
X255402186Y-23754186D01*
X255300729Y-23837448D01*
X255264991Y-23866778D01*
X255108466Y-23950443D01*
X254938627Y-24001963D01*
X254872443Y-24008481D01*
X254806260Y-24015000D01*
X254717740Y-24015000D01*
X254651557Y-24008481D01*
X254585373Y-24001963D01*
X254415534Y-23950443D01*
X254259009Y-23866778D01*
X254223271Y-23837448D01*
X254121814Y-23754186D01*
X254038552Y-23652729D01*
X254009222Y-23616991D01*
X253925557Y-23460466D01*
X253874037Y-23290627D01*
X253856641Y-23114000D01*
X253874037Y-22937373D01*
X253925557Y-22767534D01*
X254009222Y-22611009D01*
X254038552Y-22575271D01*
X254121814Y-22473814D01*
X254223271Y-22390552D01*
X254259009Y-22361222D01*
X254415534Y-22277557D01*
X254585373Y-22226037D01*
X254651557Y-22219519D01*
X254717740Y-22213000D01*
X254806260Y-22213000D01*
X254872442Y-22219518D01*
X254872442Y-22219518D01*
G37*
G36*
X252332442Y-22219518D02*
G01*
X252398627Y-22226037D01*
X252568466Y-22277557D01*
X252724991Y-22361222D01*
X252760729Y-22390552D01*
X252862186Y-22473814D01*
X252945448Y-22575271D01*
X252974778Y-22611009D01*
X253058443Y-22767534D01*
X253109963Y-22937373D01*
X253127359Y-23114000D01*
X253109963Y-23290627D01*
X253058443Y-23460466D01*
X252974778Y-23616991D01*
X252945448Y-23652729D01*
X252862186Y-23754186D01*
X252760729Y-23837448D01*
X252724991Y-23866778D01*
X252568466Y-23950443D01*
X252398627Y-24001963D01*
X252332443Y-24008481D01*
X252266260Y-24015000D01*
X252177740Y-24015000D01*
X252111557Y-24008481D01*
X252045373Y-24001963D01*
X251875534Y-23950443D01*
X251719009Y-23866778D01*
X251683271Y-23837448D01*
X251581814Y-23754186D01*
X251498552Y-23652729D01*
X251469222Y-23616991D01*
X251385557Y-23460466D01*
X251334037Y-23290627D01*
X251316641Y-23114000D01*
X251334037Y-22937373D01*
X251385557Y-22767534D01*
X251469222Y-22611009D01*
X251498552Y-22575271D01*
X251581814Y-22473814D01*
X251683271Y-22390552D01*
X251719009Y-22361222D01*
X251875534Y-22277557D01*
X252045373Y-22226037D01*
X252111557Y-22219519D01*
X252177740Y-22213000D01*
X252266260Y-22213000D01*
X252332442Y-22219518D01*
X252332442Y-22219518D01*
G37*
G36*
X249792442Y-22219518D02*
G01*
X249858627Y-22226037D01*
X250028466Y-22277557D01*
X250184991Y-22361222D01*
X250220729Y-22390552D01*
X250322186Y-22473814D01*
X250405448Y-22575271D01*
X250434778Y-22611009D01*
X250518443Y-22767534D01*
X250569963Y-22937373D01*
X250587359Y-23114000D01*
X250569963Y-23290627D01*
X250518443Y-23460466D01*
X250434778Y-23616991D01*
X250405448Y-23652729D01*
X250322186Y-23754186D01*
X250220729Y-23837448D01*
X250184991Y-23866778D01*
X250028466Y-23950443D01*
X249858627Y-24001963D01*
X249792443Y-24008481D01*
X249726260Y-24015000D01*
X249637740Y-24015000D01*
X249571557Y-24008481D01*
X249505373Y-24001963D01*
X249335534Y-23950443D01*
X249179009Y-23866778D01*
X249143271Y-23837448D01*
X249041814Y-23754186D01*
X248958552Y-23652729D01*
X248929222Y-23616991D01*
X248845557Y-23460466D01*
X248794037Y-23290627D01*
X248776641Y-23114000D01*
X248794037Y-22937373D01*
X248845557Y-22767534D01*
X248929222Y-22611009D01*
X248958552Y-22575271D01*
X249041814Y-22473814D01*
X249143271Y-22390552D01*
X249179009Y-22361222D01*
X249335534Y-22277557D01*
X249505373Y-22226037D01*
X249571557Y-22219519D01*
X249637740Y-22213000D01*
X249726260Y-22213000D01*
X249792442Y-22219518D01*
X249792442Y-22219518D01*
G37*
G36*
X247252442Y-22219518D02*
G01*
X247318627Y-22226037D01*
X247488466Y-22277557D01*
X247644991Y-22361222D01*
X247680729Y-22390552D01*
X247782186Y-22473814D01*
X247865448Y-22575271D01*
X247894778Y-22611009D01*
X247978443Y-22767534D01*
X248029963Y-22937373D01*
X248047359Y-23114000D01*
X248029963Y-23290627D01*
X247978443Y-23460466D01*
X247894778Y-23616991D01*
X247865448Y-23652729D01*
X247782186Y-23754186D01*
X247680729Y-23837448D01*
X247644991Y-23866778D01*
X247488466Y-23950443D01*
X247318627Y-24001963D01*
X247252443Y-24008481D01*
X247186260Y-24015000D01*
X247097740Y-24015000D01*
X247031557Y-24008481D01*
X246965373Y-24001963D01*
X246795534Y-23950443D01*
X246639009Y-23866778D01*
X246603271Y-23837448D01*
X246501814Y-23754186D01*
X246418552Y-23652729D01*
X246389222Y-23616991D01*
X246305557Y-23460466D01*
X246254037Y-23290627D01*
X246236641Y-23114000D01*
X246254037Y-22937373D01*
X246305557Y-22767534D01*
X246389222Y-22611009D01*
X246418552Y-22575271D01*
X246501814Y-22473814D01*
X246603271Y-22390552D01*
X246639009Y-22361222D01*
X246795534Y-22277557D01*
X246965373Y-22226037D01*
X247031557Y-22219519D01*
X247097740Y-22213000D01*
X247186260Y-22213000D01*
X247252442Y-22219518D01*
X247252442Y-22219518D01*
G37*
G36*
X239632442Y-22219518D02*
G01*
X239698627Y-22226037D01*
X239868466Y-22277557D01*
X240024991Y-22361222D01*
X240060729Y-22390552D01*
X240162186Y-22473814D01*
X240245448Y-22575271D01*
X240274778Y-22611009D01*
X240358443Y-22767534D01*
X240409963Y-22937373D01*
X240427359Y-23114000D01*
X240409963Y-23290627D01*
X240358443Y-23460466D01*
X240274778Y-23616991D01*
X240245448Y-23652729D01*
X240162186Y-23754186D01*
X240060729Y-23837448D01*
X240024991Y-23866778D01*
X239868466Y-23950443D01*
X239698627Y-24001963D01*
X239632443Y-24008481D01*
X239566260Y-24015000D01*
X239477740Y-24015000D01*
X239411557Y-24008481D01*
X239345373Y-24001963D01*
X239175534Y-23950443D01*
X239019009Y-23866778D01*
X238983271Y-23837448D01*
X238881814Y-23754186D01*
X238798552Y-23652729D01*
X238769222Y-23616991D01*
X238685557Y-23460466D01*
X238634037Y-23290627D01*
X238616641Y-23114000D01*
X238634037Y-22937373D01*
X238685557Y-22767534D01*
X238769222Y-22611009D01*
X238798552Y-22575271D01*
X238881814Y-22473814D01*
X238983271Y-22390552D01*
X239019009Y-22361222D01*
X239175534Y-22277557D01*
X239345373Y-22226037D01*
X239411557Y-22219519D01*
X239477740Y-22213000D01*
X239566260Y-22213000D01*
X239632442Y-22219518D01*
X239632442Y-22219518D01*
G37*
G36*
X237092442Y-22219518D02*
G01*
X237158627Y-22226037D01*
X237328466Y-22277557D01*
X237484991Y-22361222D01*
X237520729Y-22390552D01*
X237622186Y-22473814D01*
X237705448Y-22575271D01*
X237734778Y-22611009D01*
X237818443Y-22767534D01*
X237869963Y-22937373D01*
X237887359Y-23114000D01*
X237869963Y-23290627D01*
X237818443Y-23460466D01*
X237734778Y-23616991D01*
X237705448Y-23652729D01*
X237622186Y-23754186D01*
X237520729Y-23837448D01*
X237484991Y-23866778D01*
X237328466Y-23950443D01*
X237158627Y-24001963D01*
X237092443Y-24008481D01*
X237026260Y-24015000D01*
X236937740Y-24015000D01*
X236871557Y-24008481D01*
X236805373Y-24001963D01*
X236635534Y-23950443D01*
X236479009Y-23866778D01*
X236443271Y-23837448D01*
X236341814Y-23754186D01*
X236258552Y-23652729D01*
X236229222Y-23616991D01*
X236145557Y-23460466D01*
X236094037Y-23290627D01*
X236076641Y-23114000D01*
X236094037Y-22937373D01*
X236145557Y-22767534D01*
X236229222Y-22611009D01*
X236258552Y-22575271D01*
X236341814Y-22473814D01*
X236443271Y-22390552D01*
X236479009Y-22361222D01*
X236635534Y-22277557D01*
X236805373Y-22226037D01*
X236871557Y-22219519D01*
X236937740Y-22213000D01*
X237026260Y-22213000D01*
X237092442Y-22219518D01*
X237092442Y-22219518D01*
G37*
G36*
X234552442Y-22219518D02*
G01*
X234618627Y-22226037D01*
X234788466Y-22277557D01*
X234944991Y-22361222D01*
X234980729Y-22390552D01*
X235082186Y-22473814D01*
X235165448Y-22575271D01*
X235194778Y-22611009D01*
X235278443Y-22767534D01*
X235329963Y-22937373D01*
X235347359Y-23114000D01*
X235329963Y-23290627D01*
X235278443Y-23460466D01*
X235194778Y-23616991D01*
X235165448Y-23652729D01*
X235082186Y-23754186D01*
X234980729Y-23837448D01*
X234944991Y-23866778D01*
X234788466Y-23950443D01*
X234618627Y-24001963D01*
X234552443Y-24008481D01*
X234486260Y-24015000D01*
X234397740Y-24015000D01*
X234331557Y-24008481D01*
X234265373Y-24001963D01*
X234095534Y-23950443D01*
X233939009Y-23866778D01*
X233903271Y-23837448D01*
X233801814Y-23754186D01*
X233718552Y-23652729D01*
X233689222Y-23616991D01*
X233605557Y-23460466D01*
X233554037Y-23290627D01*
X233536641Y-23114000D01*
X233554037Y-22937373D01*
X233605557Y-22767534D01*
X233689222Y-22611009D01*
X233718552Y-22575271D01*
X233801814Y-22473814D01*
X233903271Y-22390552D01*
X233939009Y-22361222D01*
X234095534Y-22277557D01*
X234265373Y-22226037D01*
X234331557Y-22219519D01*
X234397740Y-22213000D01*
X234486260Y-22213000D01*
X234552442Y-22219518D01*
X234552442Y-22219518D01*
G37*
G36*
X232012442Y-22219518D02*
G01*
X232078627Y-22226037D01*
X232248466Y-22277557D01*
X232404991Y-22361222D01*
X232440729Y-22390552D01*
X232542186Y-22473814D01*
X232625448Y-22575271D01*
X232654778Y-22611009D01*
X232738443Y-22767534D01*
X232789963Y-22937373D01*
X232807359Y-23114000D01*
X232789963Y-23290627D01*
X232738443Y-23460466D01*
X232654778Y-23616991D01*
X232625448Y-23652729D01*
X232542186Y-23754186D01*
X232440729Y-23837448D01*
X232404991Y-23866778D01*
X232248466Y-23950443D01*
X232078627Y-24001963D01*
X232012443Y-24008481D01*
X231946260Y-24015000D01*
X231857740Y-24015000D01*
X231791557Y-24008481D01*
X231725373Y-24001963D01*
X231555534Y-23950443D01*
X231399009Y-23866778D01*
X231363271Y-23837448D01*
X231261814Y-23754186D01*
X231178552Y-23652729D01*
X231149222Y-23616991D01*
X231065557Y-23460466D01*
X231014037Y-23290627D01*
X230996641Y-23114000D01*
X231014037Y-22937373D01*
X231065557Y-22767534D01*
X231149222Y-22611009D01*
X231178552Y-22575271D01*
X231261814Y-22473814D01*
X231363271Y-22390552D01*
X231399009Y-22361222D01*
X231555534Y-22277557D01*
X231725373Y-22226037D01*
X231791557Y-22219519D01*
X231857740Y-22213000D01*
X231946260Y-22213000D01*
X232012442Y-22219518D01*
X232012442Y-22219518D01*
G37*
G36*
X229472442Y-22219518D02*
G01*
X229538627Y-22226037D01*
X229708466Y-22277557D01*
X229864991Y-22361222D01*
X229900729Y-22390552D01*
X230002186Y-22473814D01*
X230085448Y-22575271D01*
X230114778Y-22611009D01*
X230198443Y-22767534D01*
X230249963Y-22937373D01*
X230267359Y-23114000D01*
X230249963Y-23290627D01*
X230198443Y-23460466D01*
X230114778Y-23616991D01*
X230085448Y-23652729D01*
X230002186Y-23754186D01*
X229900729Y-23837448D01*
X229864991Y-23866778D01*
X229708466Y-23950443D01*
X229538627Y-24001963D01*
X229472443Y-24008481D01*
X229406260Y-24015000D01*
X229317740Y-24015000D01*
X229251557Y-24008481D01*
X229185373Y-24001963D01*
X229015534Y-23950443D01*
X228859009Y-23866778D01*
X228823271Y-23837448D01*
X228721814Y-23754186D01*
X228638552Y-23652729D01*
X228609222Y-23616991D01*
X228525557Y-23460466D01*
X228474037Y-23290627D01*
X228456641Y-23114000D01*
X228474037Y-22937373D01*
X228525557Y-22767534D01*
X228609222Y-22611009D01*
X228638552Y-22575271D01*
X228721814Y-22473814D01*
X228823271Y-22390552D01*
X228859009Y-22361222D01*
X229015534Y-22277557D01*
X229185373Y-22226037D01*
X229251557Y-22219519D01*
X229317740Y-22213000D01*
X229406260Y-22213000D01*
X229472442Y-22219518D01*
X229472442Y-22219518D01*
G37*
G36*
X226932442Y-22219518D02*
G01*
X226998627Y-22226037D01*
X227168466Y-22277557D01*
X227324991Y-22361222D01*
X227360729Y-22390552D01*
X227462186Y-22473814D01*
X227545448Y-22575271D01*
X227574778Y-22611009D01*
X227658443Y-22767534D01*
X227709963Y-22937373D01*
X227727359Y-23114000D01*
X227709963Y-23290627D01*
X227658443Y-23460466D01*
X227574778Y-23616991D01*
X227545448Y-23652729D01*
X227462186Y-23754186D01*
X227360729Y-23837448D01*
X227324991Y-23866778D01*
X227168466Y-23950443D01*
X226998627Y-24001963D01*
X226932443Y-24008481D01*
X226866260Y-24015000D01*
X226777740Y-24015000D01*
X226711557Y-24008481D01*
X226645373Y-24001963D01*
X226475534Y-23950443D01*
X226319009Y-23866778D01*
X226283271Y-23837448D01*
X226181814Y-23754186D01*
X226098552Y-23652729D01*
X226069222Y-23616991D01*
X225985557Y-23460466D01*
X225934037Y-23290627D01*
X225916641Y-23114000D01*
X225934037Y-22937373D01*
X225985557Y-22767534D01*
X226069222Y-22611009D01*
X226098552Y-22575271D01*
X226181814Y-22473814D01*
X226283271Y-22390552D01*
X226319009Y-22361222D01*
X226475534Y-22277557D01*
X226645373Y-22226037D01*
X226711557Y-22219519D01*
X226777740Y-22213000D01*
X226866260Y-22213000D01*
X226932442Y-22219518D01*
X226932442Y-22219518D01*
G37*
G36*
X224392442Y-22219518D02*
G01*
X224458627Y-22226037D01*
X224628466Y-22277557D01*
X224784991Y-22361222D01*
X224820729Y-22390552D01*
X224922186Y-22473814D01*
X225005448Y-22575271D01*
X225034778Y-22611009D01*
X225118443Y-22767534D01*
X225169963Y-22937373D01*
X225187359Y-23114000D01*
X225169963Y-23290627D01*
X225118443Y-23460466D01*
X225034778Y-23616991D01*
X225005448Y-23652729D01*
X224922186Y-23754186D01*
X224820729Y-23837448D01*
X224784991Y-23866778D01*
X224628466Y-23950443D01*
X224458627Y-24001963D01*
X224392443Y-24008481D01*
X224326260Y-24015000D01*
X224237740Y-24015000D01*
X224171557Y-24008481D01*
X224105373Y-24001963D01*
X223935534Y-23950443D01*
X223779009Y-23866778D01*
X223743271Y-23837448D01*
X223641814Y-23754186D01*
X223558552Y-23652729D01*
X223529222Y-23616991D01*
X223445557Y-23460466D01*
X223394037Y-23290627D01*
X223376641Y-23114000D01*
X223394037Y-22937373D01*
X223445557Y-22767534D01*
X223529222Y-22611009D01*
X223558552Y-22575271D01*
X223641814Y-22473814D01*
X223743271Y-22390552D01*
X223779009Y-22361222D01*
X223935534Y-22277557D01*
X224105373Y-22226037D01*
X224171557Y-22219519D01*
X224237740Y-22213000D01*
X224326260Y-22213000D01*
X224392442Y-22219518D01*
X224392442Y-22219518D01*
G37*
G36*
X221852442Y-22219518D02*
G01*
X221918627Y-22226037D01*
X222088466Y-22277557D01*
X222244991Y-22361222D01*
X222280729Y-22390552D01*
X222382186Y-22473814D01*
X222465448Y-22575271D01*
X222494778Y-22611009D01*
X222578443Y-22767534D01*
X222629963Y-22937373D01*
X222647359Y-23114000D01*
X222629963Y-23290627D01*
X222578443Y-23460466D01*
X222494778Y-23616991D01*
X222465448Y-23652729D01*
X222382186Y-23754186D01*
X222280729Y-23837448D01*
X222244991Y-23866778D01*
X222088466Y-23950443D01*
X221918627Y-24001963D01*
X221852443Y-24008481D01*
X221786260Y-24015000D01*
X221697740Y-24015000D01*
X221631557Y-24008481D01*
X221565373Y-24001963D01*
X221395534Y-23950443D01*
X221239009Y-23866778D01*
X221203271Y-23837448D01*
X221101814Y-23754186D01*
X221018552Y-23652729D01*
X220989222Y-23616991D01*
X220905557Y-23460466D01*
X220854037Y-23290627D01*
X220836641Y-23114000D01*
X220854037Y-22937373D01*
X220905557Y-22767534D01*
X220989222Y-22611009D01*
X221018552Y-22575271D01*
X221101814Y-22473814D01*
X221203271Y-22390552D01*
X221239009Y-22361222D01*
X221395534Y-22277557D01*
X221565373Y-22226037D01*
X221631557Y-22219519D01*
X221697740Y-22213000D01*
X221786260Y-22213000D01*
X221852442Y-22219518D01*
X221852442Y-22219518D01*
G37*
G36*
X219312442Y-22219518D02*
G01*
X219378627Y-22226037D01*
X219548466Y-22277557D01*
X219704991Y-22361222D01*
X219740729Y-22390552D01*
X219842186Y-22473814D01*
X219925448Y-22575271D01*
X219954778Y-22611009D01*
X220038443Y-22767534D01*
X220089963Y-22937373D01*
X220107359Y-23114000D01*
X220089963Y-23290627D01*
X220038443Y-23460466D01*
X219954778Y-23616991D01*
X219925448Y-23652729D01*
X219842186Y-23754186D01*
X219740729Y-23837448D01*
X219704991Y-23866778D01*
X219548466Y-23950443D01*
X219378627Y-24001963D01*
X219312443Y-24008481D01*
X219246260Y-24015000D01*
X219157740Y-24015000D01*
X219091557Y-24008481D01*
X219025373Y-24001963D01*
X218855534Y-23950443D01*
X218699009Y-23866778D01*
X218663271Y-23837448D01*
X218561814Y-23754186D01*
X218478552Y-23652729D01*
X218449222Y-23616991D01*
X218365557Y-23460466D01*
X218314037Y-23290627D01*
X218296641Y-23114000D01*
X218314037Y-22937373D01*
X218365557Y-22767534D01*
X218449222Y-22611009D01*
X218478552Y-22575271D01*
X218561814Y-22473814D01*
X218663271Y-22390552D01*
X218699009Y-22361222D01*
X218855534Y-22277557D01*
X219025373Y-22226037D01*
X219091557Y-22219519D01*
X219157740Y-22213000D01*
X219246260Y-22213000D01*
X219312442Y-22219518D01*
X219312442Y-22219518D01*
G37*
G36*
X216772442Y-22219518D02*
G01*
X216838627Y-22226037D01*
X217008466Y-22277557D01*
X217164991Y-22361222D01*
X217200729Y-22390552D01*
X217302186Y-22473814D01*
X217385448Y-22575271D01*
X217414778Y-22611009D01*
X217498443Y-22767534D01*
X217549963Y-22937373D01*
X217567359Y-23114000D01*
X217549963Y-23290627D01*
X217498443Y-23460466D01*
X217414778Y-23616991D01*
X217385448Y-23652729D01*
X217302186Y-23754186D01*
X217200729Y-23837448D01*
X217164991Y-23866778D01*
X217008466Y-23950443D01*
X216838627Y-24001963D01*
X216772443Y-24008481D01*
X216706260Y-24015000D01*
X216617740Y-24015000D01*
X216551557Y-24008481D01*
X216485373Y-24001963D01*
X216315534Y-23950443D01*
X216159009Y-23866778D01*
X216123271Y-23837448D01*
X216021814Y-23754186D01*
X215938552Y-23652729D01*
X215909222Y-23616991D01*
X215825557Y-23460466D01*
X215774037Y-23290627D01*
X215756641Y-23114000D01*
X215774037Y-22937373D01*
X215825557Y-22767534D01*
X215909222Y-22611009D01*
X215938552Y-22575271D01*
X216021814Y-22473814D01*
X216123271Y-22390552D01*
X216159009Y-22361222D01*
X216315534Y-22277557D01*
X216485373Y-22226037D01*
X216551557Y-22219519D01*
X216617740Y-22213000D01*
X216706260Y-22213000D01*
X216772442Y-22219518D01*
X216772442Y-22219518D01*
G37*
G36*
X214232442Y-22219518D02*
G01*
X214298627Y-22226037D01*
X214468466Y-22277557D01*
X214624991Y-22361222D01*
X214660729Y-22390552D01*
X214762186Y-22473814D01*
X214845448Y-22575271D01*
X214874778Y-22611009D01*
X214958443Y-22767534D01*
X215009963Y-22937373D01*
X215027359Y-23114000D01*
X215009963Y-23290627D01*
X214958443Y-23460466D01*
X214874778Y-23616991D01*
X214845448Y-23652729D01*
X214762186Y-23754186D01*
X214660729Y-23837448D01*
X214624991Y-23866778D01*
X214468466Y-23950443D01*
X214298627Y-24001963D01*
X214232443Y-24008481D01*
X214166260Y-24015000D01*
X214077740Y-24015000D01*
X214011557Y-24008481D01*
X213945373Y-24001963D01*
X213775534Y-23950443D01*
X213619009Y-23866778D01*
X213583271Y-23837448D01*
X213481814Y-23754186D01*
X213398552Y-23652729D01*
X213369222Y-23616991D01*
X213285557Y-23460466D01*
X213234037Y-23290627D01*
X213216641Y-23114000D01*
X213234037Y-22937373D01*
X213285557Y-22767534D01*
X213369222Y-22611009D01*
X213398552Y-22575271D01*
X213481814Y-22473814D01*
X213583271Y-22390552D01*
X213619009Y-22361222D01*
X213775534Y-22277557D01*
X213945373Y-22226037D01*
X214011557Y-22219519D01*
X214077740Y-22213000D01*
X214166260Y-22213000D01*
X214232442Y-22219518D01*
X214232442Y-22219518D01*
G37*
G36*
X211692442Y-22219518D02*
G01*
X211758627Y-22226037D01*
X211928466Y-22277557D01*
X212084991Y-22361222D01*
X212120729Y-22390552D01*
X212222186Y-22473814D01*
X212305448Y-22575271D01*
X212334778Y-22611009D01*
X212418443Y-22767534D01*
X212469963Y-22937373D01*
X212487359Y-23114000D01*
X212469963Y-23290627D01*
X212418443Y-23460466D01*
X212334778Y-23616991D01*
X212305448Y-23652729D01*
X212222186Y-23754186D01*
X212120729Y-23837448D01*
X212084991Y-23866778D01*
X211928466Y-23950443D01*
X211758627Y-24001963D01*
X211692443Y-24008481D01*
X211626260Y-24015000D01*
X211537740Y-24015000D01*
X211471557Y-24008481D01*
X211405373Y-24001963D01*
X211235534Y-23950443D01*
X211079009Y-23866778D01*
X211043271Y-23837448D01*
X210941814Y-23754186D01*
X210858552Y-23652729D01*
X210829222Y-23616991D01*
X210745557Y-23460466D01*
X210694037Y-23290627D01*
X210676641Y-23114000D01*
X210694037Y-22937373D01*
X210745557Y-22767534D01*
X210829222Y-22611009D01*
X210858552Y-22575271D01*
X210941814Y-22473814D01*
X211043271Y-22390552D01*
X211079009Y-22361222D01*
X211235534Y-22277557D01*
X211405373Y-22226037D01*
X211471557Y-22219519D01*
X211537740Y-22213000D01*
X211626260Y-22213000D01*
X211692442Y-22219518D01*
X211692442Y-22219518D01*
G37*
G36*
X209152442Y-22219518D02*
G01*
X209218627Y-22226037D01*
X209388466Y-22277557D01*
X209544991Y-22361222D01*
X209580729Y-22390552D01*
X209682186Y-22473814D01*
X209765448Y-22575271D01*
X209794778Y-22611009D01*
X209878443Y-22767534D01*
X209929963Y-22937373D01*
X209947359Y-23114000D01*
X209929963Y-23290627D01*
X209878443Y-23460466D01*
X209794778Y-23616991D01*
X209765448Y-23652729D01*
X209682186Y-23754186D01*
X209580729Y-23837448D01*
X209544991Y-23866778D01*
X209388466Y-23950443D01*
X209218627Y-24001963D01*
X209152443Y-24008481D01*
X209086260Y-24015000D01*
X208997740Y-24015000D01*
X208931557Y-24008481D01*
X208865373Y-24001963D01*
X208695534Y-23950443D01*
X208539009Y-23866778D01*
X208503271Y-23837448D01*
X208401814Y-23754186D01*
X208318552Y-23652729D01*
X208289222Y-23616991D01*
X208205557Y-23460466D01*
X208154037Y-23290627D01*
X208136641Y-23114000D01*
X208154037Y-22937373D01*
X208205557Y-22767534D01*
X208289222Y-22611009D01*
X208318552Y-22575271D01*
X208401814Y-22473814D01*
X208503271Y-22390552D01*
X208539009Y-22361222D01*
X208695534Y-22277557D01*
X208865373Y-22226037D01*
X208931557Y-22219519D01*
X208997740Y-22213000D01*
X209086260Y-22213000D01*
X209152442Y-22219518D01*
X209152442Y-22219518D01*
G37*
G36*
X207403000Y-24015000D02*
G01*
X205601000Y-24015000D01*
X205601000Y-22213000D01*
X207403000Y-22213000D01*
X207403000Y-24015000D01*
X207403000Y-24015000D01*
G37*
G36*
X254872442Y-19679518D02*
G01*
X254938627Y-19686037D01*
X255108466Y-19737557D01*
X255264991Y-19821222D01*
X255300729Y-19850552D01*
X255402186Y-19933814D01*
X255485448Y-20035271D01*
X255514778Y-20071009D01*
X255598443Y-20227534D01*
X255649963Y-20397373D01*
X255667359Y-20574000D01*
X255649963Y-20750627D01*
X255598443Y-20920466D01*
X255514778Y-21076991D01*
X255485448Y-21112729D01*
X255402186Y-21214186D01*
X255300729Y-21297448D01*
X255264991Y-21326778D01*
X255108466Y-21410443D01*
X254938627Y-21461963D01*
X254872442Y-21468482D01*
X254806260Y-21475000D01*
X254717740Y-21475000D01*
X254651557Y-21468481D01*
X254585373Y-21461963D01*
X254415534Y-21410443D01*
X254259009Y-21326778D01*
X254223271Y-21297448D01*
X254121814Y-21214186D01*
X254038552Y-21112729D01*
X254009222Y-21076991D01*
X253925557Y-20920466D01*
X253874037Y-20750627D01*
X253856641Y-20574000D01*
X253874037Y-20397373D01*
X253925557Y-20227534D01*
X254009222Y-20071009D01*
X254038552Y-20035271D01*
X254121814Y-19933814D01*
X254223271Y-19850552D01*
X254259009Y-19821222D01*
X254415534Y-19737557D01*
X254585373Y-19686037D01*
X254651558Y-19679518D01*
X254717740Y-19673000D01*
X254806260Y-19673000D01*
X254872442Y-19679518D01*
X254872442Y-19679518D01*
G37*
G36*
X206612442Y-19679518D02*
G01*
X206678627Y-19686037D01*
X206848466Y-19737557D01*
X207004991Y-19821222D01*
X207040729Y-19850552D01*
X207142186Y-19933814D01*
X207225448Y-20035271D01*
X207254778Y-20071009D01*
X207338443Y-20227534D01*
X207389963Y-20397373D01*
X207407359Y-20574000D01*
X207389963Y-20750627D01*
X207338443Y-20920466D01*
X207254778Y-21076991D01*
X207225448Y-21112729D01*
X207142186Y-21214186D01*
X207040729Y-21297448D01*
X207004991Y-21326778D01*
X206848466Y-21410443D01*
X206678627Y-21461963D01*
X206612442Y-21468482D01*
X206546260Y-21475000D01*
X206457740Y-21475000D01*
X206391557Y-21468481D01*
X206325373Y-21461963D01*
X206155534Y-21410443D01*
X205999009Y-21326778D01*
X205963271Y-21297448D01*
X205861814Y-21214186D01*
X205778552Y-21112729D01*
X205749222Y-21076991D01*
X205665557Y-20920466D01*
X205614037Y-20750627D01*
X205596641Y-20574000D01*
X205614037Y-20397373D01*
X205665557Y-20227534D01*
X205749222Y-20071009D01*
X205778552Y-20035271D01*
X205861814Y-19933814D01*
X205963271Y-19850552D01*
X205999009Y-19821222D01*
X206155534Y-19737557D01*
X206325373Y-19686037D01*
X206391558Y-19679518D01*
X206457740Y-19673000D01*
X206546260Y-19673000D01*
X206612442Y-19679518D01*
X206612442Y-19679518D01*
G37*
G36*
X252332442Y-19679518D02*
G01*
X252398627Y-19686037D01*
X252568466Y-19737557D01*
X252724991Y-19821222D01*
X252760729Y-19850552D01*
X252862186Y-19933814D01*
X252945448Y-20035271D01*
X252974778Y-20071009D01*
X253058443Y-20227534D01*
X253109963Y-20397373D01*
X253127359Y-20574000D01*
X253109963Y-20750627D01*
X253058443Y-20920466D01*
X252974778Y-21076991D01*
X252945448Y-21112729D01*
X252862186Y-21214186D01*
X252760729Y-21297448D01*
X252724991Y-21326778D01*
X252568466Y-21410443D01*
X252398627Y-21461963D01*
X252332442Y-21468482D01*
X252266260Y-21475000D01*
X252177740Y-21475000D01*
X252111557Y-21468481D01*
X252045373Y-21461963D01*
X251875534Y-21410443D01*
X251719009Y-21326778D01*
X251683271Y-21297448D01*
X251581814Y-21214186D01*
X251498552Y-21112729D01*
X251469222Y-21076991D01*
X251385557Y-20920466D01*
X251334037Y-20750627D01*
X251316641Y-20574000D01*
X251334037Y-20397373D01*
X251385557Y-20227534D01*
X251469222Y-20071009D01*
X251498552Y-20035271D01*
X251581814Y-19933814D01*
X251683271Y-19850552D01*
X251719009Y-19821222D01*
X251875534Y-19737557D01*
X252045373Y-19686037D01*
X252111558Y-19679518D01*
X252177740Y-19673000D01*
X252266260Y-19673000D01*
X252332442Y-19679518D01*
X252332442Y-19679518D01*
G37*
G36*
X209152442Y-19679518D02*
G01*
X209218627Y-19686037D01*
X209388466Y-19737557D01*
X209544991Y-19821222D01*
X209580729Y-19850552D01*
X209682186Y-19933814D01*
X209765448Y-20035271D01*
X209794778Y-20071009D01*
X209878443Y-20227534D01*
X209929963Y-20397373D01*
X209947359Y-20574000D01*
X209929963Y-20750627D01*
X209878443Y-20920466D01*
X209794778Y-21076991D01*
X209765448Y-21112729D01*
X209682186Y-21214186D01*
X209580729Y-21297448D01*
X209544991Y-21326778D01*
X209388466Y-21410443D01*
X209218627Y-21461963D01*
X209152442Y-21468482D01*
X209086260Y-21475000D01*
X208997740Y-21475000D01*
X208931557Y-21468481D01*
X208865373Y-21461963D01*
X208695534Y-21410443D01*
X208539009Y-21326778D01*
X208503271Y-21297448D01*
X208401814Y-21214186D01*
X208318552Y-21112729D01*
X208289222Y-21076991D01*
X208205557Y-20920466D01*
X208154037Y-20750627D01*
X208136641Y-20574000D01*
X208154037Y-20397373D01*
X208205557Y-20227534D01*
X208289222Y-20071009D01*
X208318552Y-20035271D01*
X208401814Y-19933814D01*
X208503271Y-19850552D01*
X208539009Y-19821222D01*
X208695534Y-19737557D01*
X208865373Y-19686037D01*
X208931558Y-19679518D01*
X208997740Y-19673000D01*
X209086260Y-19673000D01*
X209152442Y-19679518D01*
X209152442Y-19679518D01*
G37*
G36*
X249792442Y-19679518D02*
G01*
X249858627Y-19686037D01*
X250028466Y-19737557D01*
X250184991Y-19821222D01*
X250220729Y-19850552D01*
X250322186Y-19933814D01*
X250405448Y-20035271D01*
X250434778Y-20071009D01*
X250518443Y-20227534D01*
X250569963Y-20397373D01*
X250587359Y-20574000D01*
X250569963Y-20750627D01*
X250518443Y-20920466D01*
X250434778Y-21076991D01*
X250405448Y-21112729D01*
X250322186Y-21214186D01*
X250220729Y-21297448D01*
X250184991Y-21326778D01*
X250028466Y-21410443D01*
X249858627Y-21461963D01*
X249792442Y-21468482D01*
X249726260Y-21475000D01*
X249637740Y-21475000D01*
X249571557Y-21468481D01*
X249505373Y-21461963D01*
X249335534Y-21410443D01*
X249179009Y-21326778D01*
X249143271Y-21297448D01*
X249041814Y-21214186D01*
X248958552Y-21112729D01*
X248929222Y-21076991D01*
X248845557Y-20920466D01*
X248794037Y-20750627D01*
X248776641Y-20574000D01*
X248794037Y-20397373D01*
X248845557Y-20227534D01*
X248929222Y-20071009D01*
X248958552Y-20035271D01*
X249041814Y-19933814D01*
X249143271Y-19850552D01*
X249179009Y-19821222D01*
X249335534Y-19737557D01*
X249505373Y-19686037D01*
X249571558Y-19679518D01*
X249637740Y-19673000D01*
X249726260Y-19673000D01*
X249792442Y-19679518D01*
X249792442Y-19679518D01*
G37*
G36*
X211692442Y-19679518D02*
G01*
X211758627Y-19686037D01*
X211928466Y-19737557D01*
X212084991Y-19821222D01*
X212120729Y-19850552D01*
X212222186Y-19933814D01*
X212305448Y-20035271D01*
X212334778Y-20071009D01*
X212418443Y-20227534D01*
X212469963Y-20397373D01*
X212487359Y-20574000D01*
X212469963Y-20750627D01*
X212418443Y-20920466D01*
X212334778Y-21076991D01*
X212305448Y-21112729D01*
X212222186Y-21214186D01*
X212120729Y-21297448D01*
X212084991Y-21326778D01*
X211928466Y-21410443D01*
X211758627Y-21461963D01*
X211692442Y-21468482D01*
X211626260Y-21475000D01*
X211537740Y-21475000D01*
X211471557Y-21468481D01*
X211405373Y-21461963D01*
X211235534Y-21410443D01*
X211079009Y-21326778D01*
X211043271Y-21297448D01*
X210941814Y-21214186D01*
X210858552Y-21112729D01*
X210829222Y-21076991D01*
X210745557Y-20920466D01*
X210694037Y-20750627D01*
X210676641Y-20574000D01*
X210694037Y-20397373D01*
X210745557Y-20227534D01*
X210829222Y-20071009D01*
X210858552Y-20035271D01*
X210941814Y-19933814D01*
X211043271Y-19850552D01*
X211079009Y-19821222D01*
X211235534Y-19737557D01*
X211405373Y-19686037D01*
X211471558Y-19679518D01*
X211537740Y-19673000D01*
X211626260Y-19673000D01*
X211692442Y-19679518D01*
X211692442Y-19679518D01*
G37*
G36*
X247252442Y-19679518D02*
G01*
X247318627Y-19686037D01*
X247488466Y-19737557D01*
X247644991Y-19821222D01*
X247680729Y-19850552D01*
X247782186Y-19933814D01*
X247865448Y-20035271D01*
X247894778Y-20071009D01*
X247978443Y-20227534D01*
X248029963Y-20397373D01*
X248047359Y-20574000D01*
X248029963Y-20750627D01*
X247978443Y-20920466D01*
X247894778Y-21076991D01*
X247865448Y-21112729D01*
X247782186Y-21214186D01*
X247680729Y-21297448D01*
X247644991Y-21326778D01*
X247488466Y-21410443D01*
X247318627Y-21461963D01*
X247252442Y-21468482D01*
X247186260Y-21475000D01*
X247097740Y-21475000D01*
X247031557Y-21468481D01*
X246965373Y-21461963D01*
X246795534Y-21410443D01*
X246639009Y-21326778D01*
X246603271Y-21297448D01*
X246501814Y-21214186D01*
X246418552Y-21112729D01*
X246389222Y-21076991D01*
X246305557Y-20920466D01*
X246254037Y-20750627D01*
X246236641Y-20574000D01*
X246254037Y-20397373D01*
X246305557Y-20227534D01*
X246389222Y-20071009D01*
X246418552Y-20035271D01*
X246501814Y-19933814D01*
X246603271Y-19850552D01*
X246639009Y-19821222D01*
X246795534Y-19737557D01*
X246965373Y-19686037D01*
X247031558Y-19679518D01*
X247097740Y-19673000D01*
X247186260Y-19673000D01*
X247252442Y-19679518D01*
X247252442Y-19679518D01*
G37*
G36*
X214232442Y-19679518D02*
G01*
X214298627Y-19686037D01*
X214468466Y-19737557D01*
X214624991Y-19821222D01*
X214660729Y-19850552D01*
X214762186Y-19933814D01*
X214845448Y-20035271D01*
X214874778Y-20071009D01*
X214958443Y-20227534D01*
X215009963Y-20397373D01*
X215027359Y-20574000D01*
X215009963Y-20750627D01*
X214958443Y-20920466D01*
X214874778Y-21076991D01*
X214845448Y-21112729D01*
X214762186Y-21214186D01*
X214660729Y-21297448D01*
X214624991Y-21326778D01*
X214468466Y-21410443D01*
X214298627Y-21461963D01*
X214232442Y-21468482D01*
X214166260Y-21475000D01*
X214077740Y-21475000D01*
X214011557Y-21468481D01*
X213945373Y-21461963D01*
X213775534Y-21410443D01*
X213619009Y-21326778D01*
X213583271Y-21297448D01*
X213481814Y-21214186D01*
X213398552Y-21112729D01*
X213369222Y-21076991D01*
X213285557Y-20920466D01*
X213234037Y-20750627D01*
X213216641Y-20574000D01*
X213234037Y-20397373D01*
X213285557Y-20227534D01*
X213369222Y-20071009D01*
X213398552Y-20035271D01*
X213481814Y-19933814D01*
X213583271Y-19850552D01*
X213619009Y-19821222D01*
X213775534Y-19737557D01*
X213945373Y-19686037D01*
X214011558Y-19679518D01*
X214077740Y-19673000D01*
X214166260Y-19673000D01*
X214232442Y-19679518D01*
X214232442Y-19679518D01*
G37*
G36*
X244712442Y-19679518D02*
G01*
X244778627Y-19686037D01*
X244948466Y-19737557D01*
X245104991Y-19821222D01*
X245140729Y-19850552D01*
X245242186Y-19933814D01*
X245325448Y-20035271D01*
X245354778Y-20071009D01*
X245438443Y-20227534D01*
X245489963Y-20397373D01*
X245507359Y-20574000D01*
X245489963Y-20750627D01*
X245438443Y-20920466D01*
X245354778Y-21076991D01*
X245325448Y-21112729D01*
X245242186Y-21214186D01*
X245140729Y-21297448D01*
X245104991Y-21326778D01*
X244948466Y-21410443D01*
X244778627Y-21461963D01*
X244712442Y-21468482D01*
X244646260Y-21475000D01*
X244557740Y-21475000D01*
X244491557Y-21468481D01*
X244425373Y-21461963D01*
X244255534Y-21410443D01*
X244099009Y-21326778D01*
X244063271Y-21297448D01*
X243961814Y-21214186D01*
X243878552Y-21112729D01*
X243849222Y-21076991D01*
X243765557Y-20920466D01*
X243714037Y-20750627D01*
X243696641Y-20574000D01*
X243714037Y-20397373D01*
X243765557Y-20227534D01*
X243849222Y-20071009D01*
X243878552Y-20035271D01*
X243961814Y-19933814D01*
X244063271Y-19850552D01*
X244099009Y-19821222D01*
X244255534Y-19737557D01*
X244425373Y-19686037D01*
X244491558Y-19679518D01*
X244557740Y-19673000D01*
X244646260Y-19673000D01*
X244712442Y-19679518D01*
X244712442Y-19679518D01*
G37*
G36*
X216772442Y-19679518D02*
G01*
X216838627Y-19686037D01*
X217008466Y-19737557D01*
X217164991Y-19821222D01*
X217200729Y-19850552D01*
X217302186Y-19933814D01*
X217385448Y-20035271D01*
X217414778Y-20071009D01*
X217498443Y-20227534D01*
X217549963Y-20397373D01*
X217567359Y-20574000D01*
X217549963Y-20750627D01*
X217498443Y-20920466D01*
X217414778Y-21076991D01*
X217385448Y-21112729D01*
X217302186Y-21214186D01*
X217200729Y-21297448D01*
X217164991Y-21326778D01*
X217008466Y-21410443D01*
X216838627Y-21461963D01*
X216772442Y-21468482D01*
X216706260Y-21475000D01*
X216617740Y-21475000D01*
X216551557Y-21468481D01*
X216485373Y-21461963D01*
X216315534Y-21410443D01*
X216159009Y-21326778D01*
X216123271Y-21297448D01*
X216021814Y-21214186D01*
X215938552Y-21112729D01*
X215909222Y-21076991D01*
X215825557Y-20920466D01*
X215774037Y-20750627D01*
X215756641Y-20574000D01*
X215774037Y-20397373D01*
X215825557Y-20227534D01*
X215909222Y-20071009D01*
X215938552Y-20035271D01*
X216021814Y-19933814D01*
X216123271Y-19850552D01*
X216159009Y-19821222D01*
X216315534Y-19737557D01*
X216485373Y-19686037D01*
X216551558Y-19679518D01*
X216617740Y-19673000D01*
X216706260Y-19673000D01*
X216772442Y-19679518D01*
X216772442Y-19679518D01*
G37*
G36*
X242172442Y-19679518D02*
G01*
X242238627Y-19686037D01*
X242408466Y-19737557D01*
X242564991Y-19821222D01*
X242600729Y-19850552D01*
X242702186Y-19933814D01*
X242785448Y-20035271D01*
X242814778Y-20071009D01*
X242898443Y-20227534D01*
X242949963Y-20397373D01*
X242967359Y-20574000D01*
X242949963Y-20750627D01*
X242898443Y-20920466D01*
X242814778Y-21076991D01*
X242785448Y-21112729D01*
X242702186Y-21214186D01*
X242600729Y-21297448D01*
X242564991Y-21326778D01*
X242408466Y-21410443D01*
X242238627Y-21461963D01*
X242172442Y-21468482D01*
X242106260Y-21475000D01*
X242017740Y-21475000D01*
X241951557Y-21468481D01*
X241885373Y-21461963D01*
X241715534Y-21410443D01*
X241559009Y-21326778D01*
X241523271Y-21297448D01*
X241421814Y-21214186D01*
X241338552Y-21112729D01*
X241309222Y-21076991D01*
X241225557Y-20920466D01*
X241174037Y-20750627D01*
X241156641Y-20574000D01*
X241174037Y-20397373D01*
X241225557Y-20227534D01*
X241309222Y-20071009D01*
X241338552Y-20035271D01*
X241421814Y-19933814D01*
X241523271Y-19850552D01*
X241559009Y-19821222D01*
X241715534Y-19737557D01*
X241885373Y-19686037D01*
X241951558Y-19679518D01*
X242017740Y-19673000D01*
X242106260Y-19673000D01*
X242172442Y-19679518D01*
X242172442Y-19679518D01*
G37*
G36*
X219312442Y-19679518D02*
G01*
X219378627Y-19686037D01*
X219548466Y-19737557D01*
X219704991Y-19821222D01*
X219740729Y-19850552D01*
X219842186Y-19933814D01*
X219925448Y-20035271D01*
X219954778Y-20071009D01*
X220038443Y-20227534D01*
X220089963Y-20397373D01*
X220107359Y-20574000D01*
X220089963Y-20750627D01*
X220038443Y-20920466D01*
X219954778Y-21076991D01*
X219925448Y-21112729D01*
X219842186Y-21214186D01*
X219740729Y-21297448D01*
X219704991Y-21326778D01*
X219548466Y-21410443D01*
X219378627Y-21461963D01*
X219312442Y-21468482D01*
X219246260Y-21475000D01*
X219157740Y-21475000D01*
X219091557Y-21468481D01*
X219025373Y-21461963D01*
X218855534Y-21410443D01*
X218699009Y-21326778D01*
X218663271Y-21297448D01*
X218561814Y-21214186D01*
X218478552Y-21112729D01*
X218449222Y-21076991D01*
X218365557Y-20920466D01*
X218314037Y-20750627D01*
X218296641Y-20574000D01*
X218314037Y-20397373D01*
X218365557Y-20227534D01*
X218449222Y-20071009D01*
X218478552Y-20035271D01*
X218561814Y-19933814D01*
X218663271Y-19850552D01*
X218699009Y-19821222D01*
X218855534Y-19737557D01*
X219025373Y-19686037D01*
X219091558Y-19679518D01*
X219157740Y-19673000D01*
X219246260Y-19673000D01*
X219312442Y-19679518D01*
X219312442Y-19679518D01*
G37*
G36*
X239632442Y-19679518D02*
G01*
X239698627Y-19686037D01*
X239868466Y-19737557D01*
X240024991Y-19821222D01*
X240060729Y-19850552D01*
X240162186Y-19933814D01*
X240245448Y-20035271D01*
X240274778Y-20071009D01*
X240358443Y-20227534D01*
X240409963Y-20397373D01*
X240427359Y-20574000D01*
X240409963Y-20750627D01*
X240358443Y-20920466D01*
X240274778Y-21076991D01*
X240245448Y-21112729D01*
X240162186Y-21214186D01*
X240060729Y-21297448D01*
X240024991Y-21326778D01*
X239868466Y-21410443D01*
X239698627Y-21461963D01*
X239632442Y-21468482D01*
X239566260Y-21475000D01*
X239477740Y-21475000D01*
X239411557Y-21468481D01*
X239345373Y-21461963D01*
X239175534Y-21410443D01*
X239019009Y-21326778D01*
X238983271Y-21297448D01*
X238881814Y-21214186D01*
X238798552Y-21112729D01*
X238769222Y-21076991D01*
X238685557Y-20920466D01*
X238634037Y-20750627D01*
X238616641Y-20574000D01*
X238634037Y-20397373D01*
X238685557Y-20227534D01*
X238769222Y-20071009D01*
X238798552Y-20035271D01*
X238881814Y-19933814D01*
X238983271Y-19850552D01*
X239019009Y-19821222D01*
X239175534Y-19737557D01*
X239345373Y-19686037D01*
X239411558Y-19679518D01*
X239477740Y-19673000D01*
X239566260Y-19673000D01*
X239632442Y-19679518D01*
X239632442Y-19679518D01*
G37*
G36*
X221852442Y-19679518D02*
G01*
X221918627Y-19686037D01*
X222088466Y-19737557D01*
X222244991Y-19821222D01*
X222280729Y-19850552D01*
X222382186Y-19933814D01*
X222465448Y-20035271D01*
X222494778Y-20071009D01*
X222578443Y-20227534D01*
X222629963Y-20397373D01*
X222647359Y-20574000D01*
X222629963Y-20750627D01*
X222578443Y-20920466D01*
X222494778Y-21076991D01*
X222465448Y-21112729D01*
X222382186Y-21214186D01*
X222280729Y-21297448D01*
X222244991Y-21326778D01*
X222088466Y-21410443D01*
X221918627Y-21461963D01*
X221852442Y-21468482D01*
X221786260Y-21475000D01*
X221697740Y-21475000D01*
X221631557Y-21468481D01*
X221565373Y-21461963D01*
X221395534Y-21410443D01*
X221239009Y-21326778D01*
X221203271Y-21297448D01*
X221101814Y-21214186D01*
X221018552Y-21112729D01*
X220989222Y-21076991D01*
X220905557Y-20920466D01*
X220854037Y-20750627D01*
X220836641Y-20574000D01*
X220854037Y-20397373D01*
X220905557Y-20227534D01*
X220989222Y-20071009D01*
X221018552Y-20035271D01*
X221101814Y-19933814D01*
X221203271Y-19850552D01*
X221239009Y-19821222D01*
X221395534Y-19737557D01*
X221565373Y-19686037D01*
X221631558Y-19679518D01*
X221697740Y-19673000D01*
X221786260Y-19673000D01*
X221852442Y-19679518D01*
X221852442Y-19679518D01*
G37*
G36*
X237092442Y-19679518D02*
G01*
X237158627Y-19686037D01*
X237328466Y-19737557D01*
X237484991Y-19821222D01*
X237520729Y-19850552D01*
X237622186Y-19933814D01*
X237705448Y-20035271D01*
X237734778Y-20071009D01*
X237818443Y-20227534D01*
X237869963Y-20397373D01*
X237887359Y-20574000D01*
X237869963Y-20750627D01*
X237818443Y-20920466D01*
X237734778Y-21076991D01*
X237705448Y-21112729D01*
X237622186Y-21214186D01*
X237520729Y-21297448D01*
X237484991Y-21326778D01*
X237328466Y-21410443D01*
X237158627Y-21461963D01*
X237092442Y-21468482D01*
X237026260Y-21475000D01*
X236937740Y-21475000D01*
X236871557Y-21468481D01*
X236805373Y-21461963D01*
X236635534Y-21410443D01*
X236479009Y-21326778D01*
X236443271Y-21297448D01*
X236341814Y-21214186D01*
X236258552Y-21112729D01*
X236229222Y-21076991D01*
X236145557Y-20920466D01*
X236094037Y-20750627D01*
X236076641Y-20574000D01*
X236094037Y-20397373D01*
X236145557Y-20227534D01*
X236229222Y-20071009D01*
X236258552Y-20035271D01*
X236341814Y-19933814D01*
X236443271Y-19850552D01*
X236479009Y-19821222D01*
X236635534Y-19737557D01*
X236805373Y-19686037D01*
X236871558Y-19679518D01*
X236937740Y-19673000D01*
X237026260Y-19673000D01*
X237092442Y-19679518D01*
X237092442Y-19679518D01*
G37*
G36*
X224392442Y-19679518D02*
G01*
X224458627Y-19686037D01*
X224628466Y-19737557D01*
X224784991Y-19821222D01*
X224820729Y-19850552D01*
X224922186Y-19933814D01*
X225005448Y-20035271D01*
X225034778Y-20071009D01*
X225118443Y-20227534D01*
X225169963Y-20397373D01*
X225187359Y-20574000D01*
X225169963Y-20750627D01*
X225118443Y-20920466D01*
X225034778Y-21076991D01*
X225005448Y-21112729D01*
X224922186Y-21214186D01*
X224820729Y-21297448D01*
X224784991Y-21326778D01*
X224628466Y-21410443D01*
X224458627Y-21461963D01*
X224392442Y-21468482D01*
X224326260Y-21475000D01*
X224237740Y-21475000D01*
X224171557Y-21468481D01*
X224105373Y-21461963D01*
X223935534Y-21410443D01*
X223779009Y-21326778D01*
X223743271Y-21297448D01*
X223641814Y-21214186D01*
X223558552Y-21112729D01*
X223529222Y-21076991D01*
X223445557Y-20920466D01*
X223394037Y-20750627D01*
X223376641Y-20574000D01*
X223394037Y-20397373D01*
X223445557Y-20227534D01*
X223529222Y-20071009D01*
X223558552Y-20035271D01*
X223641814Y-19933814D01*
X223743271Y-19850552D01*
X223779009Y-19821222D01*
X223935534Y-19737557D01*
X224105373Y-19686037D01*
X224171558Y-19679518D01*
X224237740Y-19673000D01*
X224326260Y-19673000D01*
X224392442Y-19679518D01*
X224392442Y-19679518D01*
G37*
G36*
X234552442Y-19679518D02*
G01*
X234618627Y-19686037D01*
X234788466Y-19737557D01*
X234944991Y-19821222D01*
X234980729Y-19850552D01*
X235082186Y-19933814D01*
X235165448Y-20035271D01*
X235194778Y-20071009D01*
X235278443Y-20227534D01*
X235329963Y-20397373D01*
X235347359Y-20574000D01*
X235329963Y-20750627D01*
X235278443Y-20920466D01*
X235194778Y-21076991D01*
X235165448Y-21112729D01*
X235082186Y-21214186D01*
X234980729Y-21297448D01*
X234944991Y-21326778D01*
X234788466Y-21410443D01*
X234618627Y-21461963D01*
X234552442Y-21468482D01*
X234486260Y-21475000D01*
X234397740Y-21475000D01*
X234331557Y-21468481D01*
X234265373Y-21461963D01*
X234095534Y-21410443D01*
X233939009Y-21326778D01*
X233903271Y-21297448D01*
X233801814Y-21214186D01*
X233718552Y-21112729D01*
X233689222Y-21076991D01*
X233605557Y-20920466D01*
X233554037Y-20750627D01*
X233536641Y-20574000D01*
X233554037Y-20397373D01*
X233605557Y-20227534D01*
X233689222Y-20071009D01*
X233718552Y-20035271D01*
X233801814Y-19933814D01*
X233903271Y-19850552D01*
X233939009Y-19821222D01*
X234095534Y-19737557D01*
X234265373Y-19686037D01*
X234331558Y-19679518D01*
X234397740Y-19673000D01*
X234486260Y-19673000D01*
X234552442Y-19679518D01*
X234552442Y-19679518D01*
G37*
G36*
X226932442Y-19679518D02*
G01*
X226998627Y-19686037D01*
X227168466Y-19737557D01*
X227324991Y-19821222D01*
X227360729Y-19850552D01*
X227462186Y-19933814D01*
X227545448Y-20035271D01*
X227574778Y-20071009D01*
X227658443Y-20227534D01*
X227709963Y-20397373D01*
X227727359Y-20574000D01*
X227709963Y-20750627D01*
X227658443Y-20920466D01*
X227574778Y-21076991D01*
X227545448Y-21112729D01*
X227462186Y-21214186D01*
X227360729Y-21297448D01*
X227324991Y-21326778D01*
X227168466Y-21410443D01*
X226998627Y-21461963D01*
X226932442Y-21468482D01*
X226866260Y-21475000D01*
X226777740Y-21475000D01*
X226711557Y-21468481D01*
X226645373Y-21461963D01*
X226475534Y-21410443D01*
X226319009Y-21326778D01*
X226283271Y-21297448D01*
X226181814Y-21214186D01*
X226098552Y-21112729D01*
X226069222Y-21076991D01*
X225985557Y-20920466D01*
X225934037Y-20750627D01*
X225916641Y-20574000D01*
X225934037Y-20397373D01*
X225985557Y-20227534D01*
X226069222Y-20071009D01*
X226098552Y-20035271D01*
X226181814Y-19933814D01*
X226283271Y-19850552D01*
X226319009Y-19821222D01*
X226475534Y-19737557D01*
X226645373Y-19686037D01*
X226711558Y-19679518D01*
X226777740Y-19673000D01*
X226866260Y-19673000D01*
X226932442Y-19679518D01*
X226932442Y-19679518D01*
G37*
G36*
X232012442Y-19679518D02*
G01*
X232078627Y-19686037D01*
X232248466Y-19737557D01*
X232404991Y-19821222D01*
X232440729Y-19850552D01*
X232542186Y-19933814D01*
X232625448Y-20035271D01*
X232654778Y-20071009D01*
X232738443Y-20227534D01*
X232789963Y-20397373D01*
X232807359Y-20574000D01*
X232789963Y-20750627D01*
X232738443Y-20920466D01*
X232654778Y-21076991D01*
X232625448Y-21112729D01*
X232542186Y-21214186D01*
X232440729Y-21297448D01*
X232404991Y-21326778D01*
X232248466Y-21410443D01*
X232078627Y-21461963D01*
X232012442Y-21468482D01*
X231946260Y-21475000D01*
X231857740Y-21475000D01*
X231791557Y-21468481D01*
X231725373Y-21461963D01*
X231555534Y-21410443D01*
X231399009Y-21326778D01*
X231363271Y-21297448D01*
X231261814Y-21214186D01*
X231178552Y-21112729D01*
X231149222Y-21076991D01*
X231065557Y-20920466D01*
X231014037Y-20750627D01*
X230996641Y-20574000D01*
X231014037Y-20397373D01*
X231065557Y-20227534D01*
X231149222Y-20071009D01*
X231178552Y-20035271D01*
X231261814Y-19933814D01*
X231363271Y-19850552D01*
X231399009Y-19821222D01*
X231555534Y-19737557D01*
X231725373Y-19686037D01*
X231791558Y-19679518D01*
X231857740Y-19673000D01*
X231946260Y-19673000D01*
X232012442Y-19679518D01*
X232012442Y-19679518D01*
G37*
G36*
X229472442Y-19679518D02*
G01*
X229538627Y-19686037D01*
X229708466Y-19737557D01*
X229864991Y-19821222D01*
X229900729Y-19850552D01*
X230002186Y-19933814D01*
X230085448Y-20035271D01*
X230114778Y-20071009D01*
X230198443Y-20227534D01*
X230249963Y-20397373D01*
X230267359Y-20574000D01*
X230249963Y-20750627D01*
X230198443Y-20920466D01*
X230114778Y-21076991D01*
X230085448Y-21112729D01*
X230002186Y-21214186D01*
X229900729Y-21297448D01*
X229864991Y-21326778D01*
X229708466Y-21410443D01*
X229538627Y-21461963D01*
X229472442Y-21468482D01*
X229406260Y-21475000D01*
X229317740Y-21475000D01*
X229251557Y-21468481D01*
X229185373Y-21461963D01*
X229015534Y-21410443D01*
X228859009Y-21326778D01*
X228823271Y-21297448D01*
X228721814Y-21214186D01*
X228638552Y-21112729D01*
X228609222Y-21076991D01*
X228525557Y-20920466D01*
X228474037Y-20750627D01*
X228456641Y-20574000D01*
X228474037Y-20397373D01*
X228525557Y-20227534D01*
X228609222Y-20071009D01*
X228638552Y-20035271D01*
X228721814Y-19933814D01*
X228823271Y-19850552D01*
X228859009Y-19821222D01*
X229015534Y-19737557D01*
X229185373Y-19686037D01*
X229251558Y-19679518D01*
X229317740Y-19673000D01*
X229406260Y-19673000D01*
X229472442Y-19679518D01*
X229472442Y-19679518D01*
G37*
M02*
