M48
INCH,TZ
T1C0.0157
T2C0.0315
T3C0.0591
%
G90
G05
T1
X-5990Y-51330
X-2780Y-51520
X-2500Y-48890
X-760Y-50810
X2980Y-52570
X3550Y-54040
X5310Y-53120
X7640Y-53100
X9355Y-55185
X9520Y-52670
X12880Y-52610
X12950Y-49570
X14500Y-50840
X26535Y-53720
X30275Y-52730
X30450Y-49440
X31905Y-51025
X36390Y-51345
X38165Y-54930
X39854Y-53116
X42054Y-53126
X44060Y-53720
X44060Y-55180
X47205Y-52645
X47400Y-49625
X49000Y-50970
X61045Y-53770
X64540Y-49765
X64590Y-52965
X66115Y-50910
X71835Y-52200
X72480Y-55090
X74230Y-53095
X76595Y-53120
X78485Y-55170
X78575Y-53690
X81585Y-49640
X81845Y-52675
X83370Y-51006
X95000Y-53800
X98960Y-52840
X98980Y-49835
X100745Y-51140
X106590Y-53345
X107195Y-55030
X108830Y-53355
X111140Y-53370
X113095Y-53735
X116335Y-49755
X116638Y-52868
X118129Y-51125
T2
X-4090Y-37870
X-4090Y-38870
X-4090Y-39870
X-4090Y-40870
X-4090Y-41870
X-3090Y-38370
X-3090Y-39370
X-3090Y-40370
X-3090Y-41370
X-3090Y-42370
X-580Y-37860
X-580Y-38860
X-580Y-39860
X-580Y-40860
X-580Y-41860
X-580Y-42860
X420Y-38360
X420Y-39360
X420Y-40360
X420Y-41360
X420Y-42360
X420Y-43360
X3075Y-37855
X3075Y-38855
X3075Y-39855
X3075Y-40855
X3075Y-41855
X3075Y-42855
X4075Y-38355
X4075Y-39355
X4075Y-40355
X4075Y-41355
X4075Y-42355
X4075Y-43355
X6475Y-37875
X6475Y-38875
X6475Y-39875
X6475Y-40875
X6475Y-41875
X6475Y-42875
X7475Y-38375
X7475Y-39375
X7475Y-40375
X7475Y-41375
X7475Y-42375
X7475Y-43375
T3
X-3381Y-37319
X129Y-37309
X3784Y-37304
X7184Y-37324
T0
M30
