G04 #@! TF.GenerationSoftware,KiCad,Pcbnew,5.1.5-52549c5~84~ubuntu18.04.1*
G04 #@! TF.CreationDate,2019-12-02T20:47:02-05:00*
G04 #@! TF.ProjectId,Brakelight_Shutdown_BSPD,4272616b-656c-4696-9768-745f53687574,rev?*
G04 #@! TF.SameCoordinates,Original*
G04 #@! TF.FileFunction,Copper,L2,Bot*
G04 #@! TF.FilePolarity,Positive*
%FSLAX46Y46*%
G04 Gerber Fmt 4.6, Leading zero omitted, Abs format (unit mm)*
G04 Created by KiCad (PCBNEW 5.1.5-52549c5~84~ubuntu18.04.1) date 2019-12-02 20:47:02*
%MOMM*%
%LPD*%
G04 APERTURE LIST*
%ADD10R,1.400000X1.400000*%
%ADD11C,1.400000*%
%ADD12C,1.300000*%
%ADD13C,0.609600*%
%ADD14C,0.800000*%
%ADD15C,0.250000*%
%ADD16C,0.381000*%
%ADD17C,0.254000*%
%ADD18C,0.152400*%
G04 APERTURE END LIST*
D10*
X183134000Y-99060000D03*
D11*
X183134000Y-96520000D03*
X185674000Y-99060000D03*
X185674000Y-96520000D03*
X188214000Y-99060000D03*
X188214000Y-96520000D03*
D12*
X155194000Y-42934000D03*
X157734000Y-42934000D03*
X160274000Y-42934000D03*
X152654000Y-42934000D03*
X159004000Y-45474000D03*
X156464000Y-45474000D03*
X153924000Y-45474000D03*
X151384000Y-45474000D03*
X150114000Y-42934000D03*
X148844000Y-45474000D03*
X147574000Y-42934000D03*
X146304000Y-45474000D03*
X145034000Y-42934000D03*
X143764000Y-45474000D03*
X142494000Y-42934000D03*
X141224000Y-45474000D03*
X139954000Y-42934000D03*
X138684000Y-45474000D03*
X137414000Y-42934000D03*
X136144000Y-45474000D03*
D13*
X180468000Y-91166000D03*
X181484000Y-83038000D03*
X189358000Y-83546000D03*
X189104000Y-88372000D03*
X185040000Y-77196000D03*
X175134000Y-86340000D03*
X175388000Y-74910000D03*
X130358000Y-92296000D03*
X130866000Y-93566000D03*
D14*
X165950920Y-77734280D03*
X173441380Y-49390420D03*
X178145460Y-58420120D03*
X178120060Y-52621300D03*
D13*
X158526500Y-70604500D03*
D14*
X159760940Y-74869160D03*
X178120060Y-49466620D03*
D13*
X154780000Y-60381000D03*
D14*
X163215340Y-77734280D03*
X178158160Y-55590560D03*
X161114760Y-77734280D03*
X169285940Y-77698720D03*
X176321740Y-49403120D03*
D13*
X162052000Y-42934000D03*
X146304000Y-47244000D03*
X134874000Y-70612000D03*
X149352000Y-51308000D03*
X138684000Y-52324000D03*
X144526000Y-58928000D03*
X120396000Y-74422000D03*
X136144000Y-47498000D03*
X132842000Y-53848000D03*
X136398000Y-67564000D03*
X160274000Y-87122000D03*
X158242000Y-86106000D03*
X165354000Y-86106000D03*
X163322000Y-95758000D03*
X141986000Y-83058000D03*
X151130000Y-82550000D03*
X152400000Y-91440000D03*
X153670000Y-95758000D03*
X146812000Y-94234000D03*
X144018000Y-92964000D03*
X140716000Y-90932000D03*
X137414000Y-98044000D03*
X134874000Y-52578000D03*
X173736000Y-79502000D03*
X152400000Y-99060000D03*
X188200000Y-95000000D03*
X138112500Y-57086500D03*
X126238000Y-63678506D03*
X126238000Y-66218544D03*
X127457200Y-68834000D03*
X131064000Y-68834000D03*
X141224000Y-50534915D03*
X137922000Y-51601715D03*
X134963597Y-51691312D03*
X129794000Y-51689000D03*
X128524000Y-51752500D03*
X127063470Y-51752500D03*
X148706789Y-59996605D03*
X147828000Y-60960000D03*
X150622000Y-95504000D03*
X148590000Y-94234000D03*
X146558000Y-60887974D03*
X147828000Y-59690000D03*
X149573908Y-62516092D03*
X150400092Y-61689908D03*
X153242868Y-56214868D03*
X153127355Y-54067355D03*
X152908000Y-47498000D03*
X178816000Y-80772000D03*
X177546000Y-80772000D03*
X130729237Y-64689237D03*
X130358029Y-62196962D03*
X130235046Y-56027921D03*
X147685201Y-75946000D03*
X148752001Y-75946000D03*
X154178000Y-81203801D03*
X153924000Y-82296000D03*
X161526588Y-84564588D03*
X163068000Y-84607400D03*
X130044895Y-53844895D03*
X189230000Y-91440000D03*
X187960000Y-90678000D03*
X132588003Y-75107790D03*
X132588000Y-77012800D03*
X191700000Y-79000000D03*
X191200000Y-77700000D03*
X191200000Y-45300000D03*
X193100000Y-43400000D03*
X117767090Y-78994000D03*
X120675410Y-78994006D03*
X131826000Y-75107790D03*
X131826000Y-76479400D03*
X147685201Y-81280000D03*
X148752001Y-81280000D03*
X153162000Y-81203801D03*
X155194000Y-82804000D03*
X147685201Y-82042000D03*
X148752001Y-82042000D03*
X118440179Y-84836000D03*
X120675410Y-84779851D03*
X130139832Y-65278643D03*
X129701646Y-62584012D03*
X139217400Y-49022000D03*
X136880600Y-49022000D03*
X119024389Y-85598000D03*
X120675410Y-85541862D03*
X177326783Y-84108783D03*
X176500599Y-83282599D03*
X148082000Y-64770000D03*
X147450829Y-63884829D03*
X129616210Y-65832237D03*
X129162829Y-63122829D03*
D15*
X161680445Y-77734280D02*
X161682985Y-77736820D01*
D16*
X173454080Y-49403120D02*
X173441380Y-49390420D01*
D17*
X158526500Y-70604500D02*
X158831299Y-70909299D01*
D16*
X178145460Y-55603260D02*
X178158160Y-55590560D01*
X178145460Y-58420120D02*
X178145460Y-55603260D01*
D17*
X158831299Y-73134339D02*
X159760940Y-74063980D01*
D15*
X161682985Y-77736820D02*
X163212800Y-77736820D01*
X159760940Y-74063980D02*
X159760940Y-74869160D01*
X165986480Y-77698720D02*
X165950920Y-77734280D01*
D16*
X176321740Y-49403120D02*
X173454080Y-49403120D01*
D15*
X169285940Y-77698720D02*
X165986480Y-77698720D01*
D16*
X178120060Y-52621300D02*
X178120060Y-52055615D01*
D17*
X158831299Y-70909299D02*
X158831299Y-73134339D01*
D15*
X163212800Y-77736820D02*
X163215340Y-77734280D01*
D16*
X178120060Y-52055615D02*
X178120060Y-49466620D01*
D15*
X161114760Y-77734280D02*
X161680445Y-77734280D01*
D17*
X127457200Y-68834000D02*
X131064000Y-68834000D01*
X141224000Y-50534915D02*
X138988800Y-50534915D01*
X138988800Y-50534915D02*
X137922000Y-51601715D01*
X134963597Y-51691312D02*
X130617938Y-51691312D01*
X126238000Y-63678506D02*
X126238000Y-66218544D01*
X128524000Y-51752500D02*
X127063470Y-51752500D01*
X130227364Y-51691312D02*
X130617938Y-51691312D01*
X130225052Y-51689000D02*
X130227364Y-51691312D01*
X129794000Y-51689000D02*
X130225052Y-51689000D01*
D18*
X148706789Y-59996605D02*
X148706789Y-60081211D01*
X148706789Y-60081211D02*
X147828000Y-60960000D01*
X150622000Y-95504000D02*
X149352000Y-94234000D01*
X149352000Y-94234000D02*
X148590000Y-94234000D01*
X146558000Y-60887974D02*
X147755974Y-59690000D01*
X147755974Y-59690000D02*
X147828000Y-59690000D01*
X149573908Y-62516092D02*
X150400092Y-61689908D01*
X153242868Y-56214868D02*
X153242868Y-54182868D01*
X153242868Y-54182868D02*
X153127355Y-54067355D01*
X152654000Y-42934000D02*
X152654000Y-47244000D01*
X152654000Y-47244000D02*
X152908000Y-47498000D01*
X178816000Y-80772000D02*
X177546000Y-80772000D01*
X130729237Y-64689237D02*
X130358029Y-64318029D01*
X130358029Y-64318029D02*
X130358029Y-62196962D01*
X147685201Y-75946000D02*
X148752001Y-75946000D01*
X154178000Y-81203801D02*
X154178000Y-82042000D01*
X154178000Y-82042000D02*
X153924000Y-82296000D01*
X161526588Y-84564588D02*
X163025188Y-84564588D01*
X163025188Y-84564588D02*
X163068000Y-84607400D01*
X130235046Y-56027921D02*
X130235046Y-54035046D01*
X130235046Y-54035046D02*
X130044895Y-53844895D01*
X189230000Y-91440000D02*
X188722000Y-91440000D01*
X188722000Y-91440000D02*
X187960000Y-90678000D01*
X132588003Y-75107790D02*
X132588003Y-77012797D01*
X132588003Y-77012797D02*
X132588000Y-77012800D01*
X191700000Y-79000000D02*
X191700000Y-78200000D01*
X191700000Y-78200000D02*
X191200000Y-77700000D01*
X191200000Y-45300000D02*
X193100000Y-43400000D01*
X117767090Y-78994000D02*
X120675404Y-78994000D01*
X120675404Y-78994000D02*
X120675410Y-78994006D01*
X131826000Y-75107790D02*
X131826000Y-76479400D01*
X147685201Y-81280000D02*
X148752001Y-81280000D01*
X155168599Y-82829401D02*
X155194000Y-82804000D01*
X153667967Y-82829401D02*
X155168599Y-82829401D01*
X153162000Y-81203801D02*
X153162000Y-82323434D01*
X153162000Y-82323434D02*
X153667967Y-82829401D01*
X147685201Y-82042000D02*
X148752001Y-82042000D01*
X118440179Y-84836000D02*
X120619261Y-84836000D01*
X120619261Y-84836000D02*
X120675410Y-84779851D01*
X130139832Y-65278643D02*
X129701646Y-64840457D01*
X129701646Y-64840457D02*
X129701646Y-63346012D01*
X129701646Y-63346012D02*
X129701646Y-62584012D01*
D17*
X119024389Y-85598000D02*
X120339872Y-85598000D01*
D18*
X120339872Y-85598000D02*
X120396000Y-85541872D01*
D17*
X139217400Y-49022000D02*
X136880600Y-49022000D01*
D18*
X177326783Y-84108783D02*
X176500599Y-83282599D01*
X148082000Y-64770000D02*
X148082000Y-64516000D01*
X148082000Y-64516000D02*
X147450829Y-63884829D01*
X129162829Y-65378856D02*
X129616210Y-65832237D01*
X129162829Y-63122829D02*
X129162829Y-65378856D01*
M02*
