G04 #@! TF.GenerationSoftware,KiCad,Pcbnew,5.1.5-52549c5~84~ubuntu18.04.1*
G04 #@! TF.CreationDate,2019-12-02T20:47:02-05:00*
G04 #@! TF.ProjectId,Brakelight_Shutdown_BSPD,4272616b-656c-4696-9768-745f53687574,rev?*
G04 #@! TF.SameCoordinates,Original*
G04 #@! TF.FileFunction,Legend,Top*
G04 #@! TF.FilePolarity,Positive*
%FSLAX46Y46*%
G04 Gerber Fmt 4.6, Leading zero omitted, Abs format (unit mm)*
G04 Created by KiCad (PCBNEW 5.1.5-52549c5~84~ubuntu18.04.1) date 2019-12-02 20:47:02*
%MOMM*%
%LPD*%
G04 APERTURE LIST*
%ADD10C,0.200000*%
%ADD11C,0.150000*%
%ADD12C,0.100000*%
%ADD13C,0.250000*%
%ADD14C,0.300000*%
%ADD15C,0.120000*%
%ADD16C,0.500000*%
G04 APERTURE END LIST*
D10*
X119178571Y-80685714D02*
X117678571Y-80685714D01*
X117678571Y-80328571D01*
X117750000Y-80114285D01*
X117892857Y-79971428D01*
X118035714Y-79900000D01*
X118321428Y-79828571D01*
X118535714Y-79828571D01*
X118821428Y-79900000D01*
X118964285Y-79971428D01*
X119107142Y-80114285D01*
X119178571Y-80328571D01*
X119178571Y-80685714D01*
X119107142Y-78614285D02*
X119178571Y-78757142D01*
X119178571Y-79042857D01*
X119107142Y-79185714D01*
X118964285Y-79257142D01*
X118392857Y-79257142D01*
X118250000Y-79185714D01*
X118178571Y-79042857D01*
X118178571Y-78757142D01*
X118250000Y-78614285D01*
X118392857Y-78542857D01*
X118535714Y-78542857D01*
X118678571Y-79257142D01*
X119178571Y-77900000D02*
X117678571Y-77900000D01*
X118250000Y-77900000D02*
X118178571Y-77757142D01*
X118178571Y-77471428D01*
X118250000Y-77328571D01*
X118321428Y-77257142D01*
X118464285Y-77185714D01*
X118892857Y-77185714D01*
X119035714Y-77257142D01*
X119107142Y-77328571D01*
X119178571Y-77471428D01*
X119178571Y-77757142D01*
X119107142Y-77900000D01*
X118178571Y-75900000D02*
X119178571Y-75900000D01*
X118178571Y-76542857D02*
X118964285Y-76542857D01*
X119107142Y-76471428D01*
X119178571Y-76328571D01*
X119178571Y-76114285D01*
X119107142Y-75971428D01*
X119035714Y-75900000D01*
X118178571Y-74542857D02*
X119392857Y-74542857D01*
X119535714Y-74614285D01*
X119607142Y-74685714D01*
X119678571Y-74828571D01*
X119678571Y-75042857D01*
X119607142Y-75185714D01*
X119107142Y-74542857D02*
X119178571Y-74685714D01*
X119178571Y-74971428D01*
X119107142Y-75114285D01*
X119035714Y-75185714D01*
X118892857Y-75257142D01*
X118464285Y-75257142D01*
X118321428Y-75185714D01*
X118250000Y-75114285D01*
X118178571Y-74971428D01*
X118178571Y-74685714D01*
X118250000Y-74542857D01*
X119178571Y-71971428D02*
X119178571Y-72685714D01*
X117678571Y-72685714D01*
X118392857Y-71471428D02*
X118392857Y-70971428D01*
X119178571Y-70757142D02*
X119178571Y-71471428D01*
X117678571Y-71471428D01*
X117678571Y-70757142D01*
X119178571Y-70114285D02*
X117678571Y-70114285D01*
X117678571Y-69757142D01*
X117750000Y-69542857D01*
X117892857Y-69400000D01*
X118035714Y-69328571D01*
X118321428Y-69257142D01*
X118535714Y-69257142D01*
X118821428Y-69328571D01*
X118964285Y-69400000D01*
X119107142Y-69542857D01*
X119178571Y-69757142D01*
X119178571Y-70114285D01*
X119107142Y-68685714D02*
X119178571Y-68542857D01*
X119178571Y-68257142D01*
X119107142Y-68114285D01*
X118964285Y-68042857D01*
X118892857Y-68042857D01*
X118750000Y-68114285D01*
X118678571Y-68257142D01*
X118678571Y-68471428D01*
X118607142Y-68614285D01*
X118464285Y-68685714D01*
X118392857Y-68685714D01*
X118250000Y-68614285D01*
X118178571Y-68471428D01*
X118178571Y-68257142D01*
X118250000Y-68114285D01*
D11*
X171400000Y-94200000D02*
X171800000Y-94200000D01*
X171400000Y-80600000D02*
X171400000Y-94200000D01*
X172600000Y-79400000D02*
X171400000Y-80600000D01*
X172600000Y-76100000D02*
X172600000Y-79400000D01*
X177600000Y-71100000D02*
X172600000Y-76100000D01*
X191100000Y-71100000D02*
X177600000Y-71100000D01*
X191100000Y-94200000D02*
X191100000Y-71100000D01*
X171800000Y-94200000D02*
X191100000Y-94200000D01*
X165100000Y-47600000D02*
X165100000Y-43794000D01*
X154200000Y-58500000D02*
X165100000Y-47600000D01*
X154000000Y-79400000D02*
X154200000Y-58500000D01*
X155000000Y-79400000D02*
X154000000Y-79400000D01*
X158000000Y-79400000D02*
X155000000Y-79400000D01*
X159800000Y-81200000D02*
X158000000Y-79400000D01*
X170168000Y-81200000D02*
X159800000Y-81200000D01*
X172368000Y-79000000D02*
X170168000Y-81200000D01*
X172368000Y-76000000D02*
X172368000Y-79000000D01*
X183368000Y-65000000D02*
X172368000Y-76000000D01*
X183368000Y-43794000D02*
X183368000Y-65000000D01*
X132600000Y-80400000D02*
X132600000Y-80518000D01*
X150600000Y-80400000D02*
X132600000Y-80400000D01*
X153800000Y-83600000D02*
X150600000Y-80400000D01*
X167132000Y-83600000D02*
X153800000Y-83600000D01*
X167132000Y-100584000D02*
X167132000Y-83600000D01*
D12*
X155830428Y-57331904D02*
X155449476Y-57331904D01*
X155411380Y-57712857D01*
X155449476Y-57674761D01*
X155525666Y-57636666D01*
X155716142Y-57636666D01*
X155792333Y-57674761D01*
X155830428Y-57712857D01*
X155868523Y-57789047D01*
X155868523Y-57979523D01*
X155830428Y-58055714D01*
X155792333Y-58093809D01*
X155716142Y-58131904D01*
X155525666Y-58131904D01*
X155449476Y-58093809D01*
X155411380Y-58055714D01*
X156097095Y-57331904D02*
X156363761Y-58131904D01*
X156630428Y-57331904D01*
X155449476Y-59431904D02*
X155449476Y-58631904D01*
X155830428Y-58898571D02*
X155830428Y-59431904D01*
X155830428Y-58974761D02*
X155868523Y-58936666D01*
X155944714Y-58898571D01*
X156059000Y-58898571D01*
X156135190Y-58936666D01*
X156173285Y-59012857D01*
X156173285Y-59431904D01*
X156897095Y-59431904D02*
X156897095Y-58631904D01*
X156897095Y-59393809D02*
X156820904Y-59431904D01*
X156668523Y-59431904D01*
X156592333Y-59393809D01*
X156554238Y-59355714D01*
X156516142Y-59279523D01*
X156516142Y-59050952D01*
X156554238Y-58974761D01*
X156592333Y-58936666D01*
X156668523Y-58898571D01*
X156820904Y-58898571D01*
X156897095Y-58936666D01*
X157278047Y-59431904D02*
X157278047Y-58898571D01*
X157278047Y-58631904D02*
X157239952Y-58670000D01*
X157278047Y-58708095D01*
X157316142Y-58670000D01*
X157278047Y-58631904D01*
X157278047Y-58708095D01*
X158001857Y-59393809D02*
X157925666Y-59431904D01*
X157773285Y-59431904D01*
X157697095Y-59393809D01*
X157659000Y-59355714D01*
X157620904Y-59279523D01*
X157620904Y-59050952D01*
X157659000Y-58974761D01*
X157697095Y-58936666D01*
X157773285Y-58898571D01*
X157925666Y-58898571D01*
X158001857Y-58936666D01*
X158687571Y-59431904D02*
X158687571Y-59012857D01*
X158649476Y-58936666D01*
X158573285Y-58898571D01*
X158420904Y-58898571D01*
X158344714Y-58936666D01*
X158687571Y-59393809D02*
X158611380Y-59431904D01*
X158420904Y-59431904D01*
X158344714Y-59393809D01*
X158306619Y-59317619D01*
X158306619Y-59241428D01*
X158344714Y-59165238D01*
X158420904Y-59127142D01*
X158611380Y-59127142D01*
X158687571Y-59089047D01*
X158954238Y-58898571D02*
X159259000Y-58898571D01*
X159068523Y-58631904D02*
X159068523Y-59317619D01*
X159106619Y-59393809D01*
X159182809Y-59431904D01*
X159259000Y-59431904D01*
X159639952Y-59431904D02*
X159563761Y-59393809D01*
X159525666Y-59355714D01*
X159487571Y-59279523D01*
X159487571Y-59050952D01*
X159525666Y-58974761D01*
X159563761Y-58936666D01*
X159639952Y-58898571D01*
X159754238Y-58898571D01*
X159830428Y-58936666D01*
X159868523Y-58974761D01*
X159906619Y-59050952D01*
X159906619Y-59279523D01*
X159868523Y-59355714D01*
X159830428Y-59393809D01*
X159754238Y-59431904D01*
X159639952Y-59431904D01*
X160249476Y-59431904D02*
X160249476Y-58898571D01*
X160249476Y-59050952D02*
X160287571Y-58974761D01*
X160325666Y-58936666D01*
X160401857Y-58898571D01*
X160478047Y-58898571D01*
X177966523Y-46447904D02*
X177509380Y-46447904D01*
X177737952Y-46447904D02*
X177737952Y-45647904D01*
X177661761Y-45762190D01*
X177585571Y-45838380D01*
X177509380Y-45876476D01*
X178271285Y-45724095D02*
X178309380Y-45686000D01*
X178385571Y-45647904D01*
X178576047Y-45647904D01*
X178652238Y-45686000D01*
X178690333Y-45724095D01*
X178728428Y-45800285D01*
X178728428Y-45876476D01*
X178690333Y-45990761D01*
X178233190Y-46447904D01*
X178728428Y-46447904D01*
X178957000Y-45647904D02*
X179223666Y-46447904D01*
X179490333Y-45647904D01*
X177547476Y-47747904D02*
X177547476Y-46947904D01*
X177928428Y-47214571D02*
X177928428Y-47747904D01*
X177928428Y-47290761D02*
X177966523Y-47252666D01*
X178042714Y-47214571D01*
X178157000Y-47214571D01*
X178233190Y-47252666D01*
X178271285Y-47328857D01*
X178271285Y-47747904D01*
X178995095Y-47747904D02*
X178995095Y-46947904D01*
X178995095Y-47709809D02*
X178918904Y-47747904D01*
X178766523Y-47747904D01*
X178690333Y-47709809D01*
X178652238Y-47671714D01*
X178614142Y-47595523D01*
X178614142Y-47366952D01*
X178652238Y-47290761D01*
X178690333Y-47252666D01*
X178766523Y-47214571D01*
X178918904Y-47214571D01*
X178995095Y-47252666D01*
X179376047Y-47747904D02*
X179376047Y-47214571D01*
X179376047Y-46947904D02*
X179337952Y-46986000D01*
X179376047Y-47024095D01*
X179414142Y-46986000D01*
X179376047Y-46947904D01*
X179376047Y-47024095D01*
X180099857Y-47709809D02*
X180023666Y-47747904D01*
X179871285Y-47747904D01*
X179795095Y-47709809D01*
X179757000Y-47671714D01*
X179718904Y-47595523D01*
X179718904Y-47366952D01*
X179757000Y-47290761D01*
X179795095Y-47252666D01*
X179871285Y-47214571D01*
X180023666Y-47214571D01*
X180099857Y-47252666D01*
X180785571Y-47747904D02*
X180785571Y-47328857D01*
X180747476Y-47252666D01*
X180671285Y-47214571D01*
X180518904Y-47214571D01*
X180442714Y-47252666D01*
X180785571Y-47709809D02*
X180709380Y-47747904D01*
X180518904Y-47747904D01*
X180442714Y-47709809D01*
X180404619Y-47633619D01*
X180404619Y-47557428D01*
X180442714Y-47481238D01*
X180518904Y-47443142D01*
X180709380Y-47443142D01*
X180785571Y-47405047D01*
X181052238Y-47214571D02*
X181357000Y-47214571D01*
X181166523Y-46947904D02*
X181166523Y-47633619D01*
X181204619Y-47709809D01*
X181280809Y-47747904D01*
X181357000Y-47747904D01*
X181737952Y-47747904D02*
X181661761Y-47709809D01*
X181623666Y-47671714D01*
X181585571Y-47595523D01*
X181585571Y-47366952D01*
X181623666Y-47290761D01*
X181661761Y-47252666D01*
X181737952Y-47214571D01*
X181852238Y-47214571D01*
X181928428Y-47252666D01*
X181966523Y-47290761D01*
X182004619Y-47366952D01*
X182004619Y-47595523D01*
X181966523Y-47671714D01*
X181928428Y-47709809D01*
X181852238Y-47747904D01*
X181737952Y-47747904D01*
X182347476Y-47747904D02*
X182347476Y-47214571D01*
X182347476Y-47366952D02*
X182385571Y-47290761D01*
X182423666Y-47252666D01*
X182499857Y-47214571D01*
X182576047Y-47214571D01*
D11*
X132588000Y-80518000D02*
X132588000Y-100584000D01*
X132588000Y-100584000D02*
X167132000Y-100584000D01*
D13*
X154122380Y-54625714D02*
X153122380Y-54625714D01*
X153122380Y-54387619D01*
X153170000Y-54244761D01*
X153265238Y-54149523D01*
X153360476Y-54101904D01*
X153550952Y-54054285D01*
X153693809Y-54054285D01*
X153884285Y-54101904D01*
X153979523Y-54149523D01*
X154074761Y-54244761D01*
X154122380Y-54387619D01*
X154122380Y-54625714D01*
X154122380Y-53625714D02*
X153122380Y-53625714D01*
X154122380Y-53054285D01*
X153122380Y-53054285D01*
X154122380Y-52578095D02*
X153122380Y-52578095D01*
X153122380Y-52197142D01*
X153170000Y-52101904D01*
X153217619Y-52054285D01*
X153312857Y-52006666D01*
X153455714Y-52006666D01*
X153550952Y-52054285D01*
X153598571Y-52101904D01*
X153646190Y-52197142D01*
X153646190Y-52578095D01*
D11*
X183368000Y-43794000D02*
X165080000Y-43794000D01*
D14*
X166102928Y-46053928D02*
X166102928Y-45196785D01*
X166102928Y-45625357D02*
X167602928Y-45625357D01*
X167388642Y-45482500D01*
X167245785Y-45339642D01*
X167174357Y-45196785D01*
X167460071Y-46625357D02*
X167531500Y-46696785D01*
X167602928Y-46839642D01*
X167602928Y-47196785D01*
X167531500Y-47339642D01*
X167460071Y-47411071D01*
X167317214Y-47482500D01*
X167174357Y-47482500D01*
X166960071Y-47411071D01*
X166102928Y-46553928D01*
X166102928Y-47482500D01*
X167602928Y-47911071D02*
X166102928Y-48411071D01*
X167602928Y-48911071D01*
X182106000Y-50927142D02*
X182177428Y-50784285D01*
X182177428Y-50570000D01*
X182106000Y-50355714D01*
X181963142Y-50212857D01*
X181820285Y-50141428D01*
X181534571Y-50070000D01*
X181320285Y-50070000D01*
X181034571Y-50141428D01*
X180891714Y-50212857D01*
X180748857Y-50355714D01*
X180677428Y-50570000D01*
X180677428Y-50712857D01*
X180748857Y-50927142D01*
X180820285Y-50998571D01*
X181320285Y-50998571D01*
X181320285Y-50712857D01*
X180677428Y-51641428D02*
X182177428Y-51641428D01*
X180677428Y-52498571D01*
X182177428Y-52498571D01*
X180677428Y-53212857D02*
X182177428Y-53212857D01*
X182177428Y-53570000D01*
X182106000Y-53784285D01*
X181963142Y-53927142D01*
X181820285Y-53998571D01*
X181534571Y-54070000D01*
X181320285Y-54070000D01*
X181034571Y-53998571D01*
X180891714Y-53927142D01*
X180748857Y-53784285D01*
X180677428Y-53570000D01*
X180677428Y-53212857D01*
X164808928Y-51903785D02*
X164808928Y-51189500D01*
X164094642Y-51118071D01*
X164166071Y-51189500D01*
X164237500Y-51332357D01*
X164237500Y-51689500D01*
X164166071Y-51832357D01*
X164094642Y-51903785D01*
X163951785Y-51975214D01*
X163594642Y-51975214D01*
X163451785Y-51903785D01*
X163380357Y-51832357D01*
X163308928Y-51689500D01*
X163308928Y-51332357D01*
X163380357Y-51189500D01*
X163451785Y-51118071D01*
X164808928Y-52403785D02*
X163308928Y-52903785D01*
X164808928Y-53403785D01*
D11*
X156900571Y-78294857D02*
X156948190Y-78152000D01*
X156995809Y-78104380D01*
X157091047Y-78056761D01*
X157233904Y-78056761D01*
X157329142Y-78104380D01*
X157376761Y-78152000D01*
X157424380Y-78247238D01*
X157424380Y-78628190D01*
X156424380Y-78628190D01*
X156424380Y-78294857D01*
X156472000Y-78199619D01*
X156519619Y-78152000D01*
X156614857Y-78104380D01*
X156710095Y-78104380D01*
X156805333Y-78152000D01*
X156852952Y-78199619D01*
X156900571Y-78294857D01*
X156900571Y-78628190D01*
X156757714Y-77199619D02*
X157424380Y-77199619D01*
X156757714Y-77628190D02*
X157281523Y-77628190D01*
X157376761Y-77580571D01*
X157424380Y-77485333D01*
X157424380Y-77342476D01*
X157376761Y-77247238D01*
X157329142Y-77199619D01*
X157376761Y-76294857D02*
X157424380Y-76390095D01*
X157424380Y-76580571D01*
X157376761Y-76675809D01*
X157329142Y-76723428D01*
X157233904Y-76771047D01*
X156948190Y-76771047D01*
X156852952Y-76723428D01*
X156805333Y-76675809D01*
X156757714Y-76580571D01*
X156757714Y-76390095D01*
X156805333Y-76294857D01*
X157424380Y-75866285D02*
X156424380Y-75866285D01*
X157043428Y-75771047D02*
X157424380Y-75485333D01*
X156757714Y-75485333D02*
X157138666Y-75866285D01*
X157329142Y-73723428D02*
X157376761Y-73771047D01*
X157424380Y-73913904D01*
X157424380Y-74009142D01*
X157376761Y-74152000D01*
X157281523Y-74247238D01*
X157186285Y-74294857D01*
X156995809Y-74342476D01*
X156852952Y-74342476D01*
X156662476Y-74294857D01*
X156567238Y-74247238D01*
X156472000Y-74152000D01*
X156424380Y-74009142D01*
X156424380Y-73913904D01*
X156472000Y-73771047D01*
X156519619Y-73723428D01*
X157424380Y-73152000D02*
X157376761Y-73247238D01*
X157329142Y-73294857D01*
X157233904Y-73342476D01*
X156948190Y-73342476D01*
X156852952Y-73294857D01*
X156805333Y-73247238D01*
X156757714Y-73152000D01*
X156757714Y-73009142D01*
X156805333Y-72913904D01*
X156852952Y-72866285D01*
X156948190Y-72818666D01*
X157233904Y-72818666D01*
X157329142Y-72866285D01*
X157376761Y-72913904D01*
X157424380Y-73009142D01*
X157424380Y-73152000D01*
X156757714Y-72390095D02*
X157424380Y-72390095D01*
X156852952Y-72390095D02*
X156805333Y-72342476D01*
X156757714Y-72247238D01*
X156757714Y-72104380D01*
X156805333Y-72009142D01*
X156900571Y-71961523D01*
X157424380Y-71961523D01*
X156757714Y-71580571D02*
X157424380Y-71342476D01*
X156757714Y-71104380D01*
X157376761Y-70342476D02*
X157424380Y-70437714D01*
X157424380Y-70628190D01*
X157376761Y-70723428D01*
X157281523Y-70771047D01*
X156900571Y-70771047D01*
X156805333Y-70723428D01*
X156757714Y-70628190D01*
X156757714Y-70437714D01*
X156805333Y-70342476D01*
X156900571Y-70294857D01*
X156995809Y-70294857D01*
X157091047Y-70771047D01*
X157424380Y-69866285D02*
X156757714Y-69866285D01*
X156948190Y-69866285D02*
X156852952Y-69818666D01*
X156805333Y-69771047D01*
X156757714Y-69675809D01*
X156757714Y-69580571D01*
X156757714Y-69390095D02*
X156757714Y-69009142D01*
X156424380Y-69247238D02*
X157281523Y-69247238D01*
X157376761Y-69199619D01*
X157424380Y-69104380D01*
X157424380Y-69009142D01*
X157376761Y-68294857D02*
X157424380Y-68390095D01*
X157424380Y-68580571D01*
X157376761Y-68675809D01*
X157281523Y-68723428D01*
X156900571Y-68723428D01*
X156805333Y-68675809D01*
X156757714Y-68580571D01*
X156757714Y-68390095D01*
X156805333Y-68294857D01*
X156900571Y-68247238D01*
X156995809Y-68247238D01*
X157091047Y-68723428D01*
X157424380Y-67818666D02*
X156757714Y-67818666D01*
X156948190Y-67818666D02*
X156852952Y-67771047D01*
X156805333Y-67723428D01*
X156757714Y-67628190D01*
X156757714Y-67532952D01*
X121161000Y-88783000D02*
X121288000Y-88783000D01*
X121650952Y-100066761D02*
X121793809Y-100114380D01*
X122031904Y-100114380D01*
X122127142Y-100066761D01*
X122174761Y-100019142D01*
X122222380Y-99923904D01*
X122222380Y-99828666D01*
X122174761Y-99733428D01*
X122127142Y-99685809D01*
X122031904Y-99638190D01*
X121841428Y-99590571D01*
X121746190Y-99542952D01*
X121698571Y-99495333D01*
X121650952Y-99400095D01*
X121650952Y-99304857D01*
X121698571Y-99209619D01*
X121746190Y-99162000D01*
X121841428Y-99114380D01*
X122079523Y-99114380D01*
X122222380Y-99162000D01*
X122603333Y-100066761D02*
X122746190Y-100114380D01*
X122984285Y-100114380D01*
X123079523Y-100066761D01*
X123127142Y-100019142D01*
X123174761Y-99923904D01*
X123174761Y-99828666D01*
X123127142Y-99733428D01*
X123079523Y-99685809D01*
X122984285Y-99638190D01*
X122793809Y-99590571D01*
X122698571Y-99542952D01*
X122650952Y-99495333D01*
X122603333Y-99400095D01*
X122603333Y-99304857D01*
X122650952Y-99209619D01*
X122698571Y-99162000D01*
X122793809Y-99114380D01*
X123031904Y-99114380D01*
X123174761Y-99162000D01*
X124698571Y-99590571D02*
X124841428Y-99638190D01*
X124889047Y-99685809D01*
X124936666Y-99781047D01*
X124936666Y-99923904D01*
X124889047Y-100019142D01*
X124841428Y-100066761D01*
X124746190Y-100114380D01*
X124365238Y-100114380D01*
X124365238Y-99114380D01*
X124698571Y-99114380D01*
X124793809Y-99162000D01*
X124841428Y-99209619D01*
X124889047Y-99304857D01*
X124889047Y-99400095D01*
X124841428Y-99495333D01*
X124793809Y-99542952D01*
X124698571Y-99590571D01*
X124365238Y-99590571D01*
X125317619Y-100066761D02*
X125460476Y-100114380D01*
X125698571Y-100114380D01*
X125793809Y-100066761D01*
X125841428Y-100019142D01*
X125889047Y-99923904D01*
X125889047Y-99828666D01*
X125841428Y-99733428D01*
X125793809Y-99685809D01*
X125698571Y-99638190D01*
X125508095Y-99590571D01*
X125412857Y-99542952D01*
X125365238Y-99495333D01*
X125317619Y-99400095D01*
X125317619Y-99304857D01*
X125365238Y-99209619D01*
X125412857Y-99162000D01*
X125508095Y-99114380D01*
X125746190Y-99114380D01*
X125889047Y-99162000D01*
X126317619Y-100114380D02*
X126317619Y-99114380D01*
X126698571Y-99114380D01*
X126793809Y-99162000D01*
X126841428Y-99209619D01*
X126889047Y-99304857D01*
X126889047Y-99447714D01*
X126841428Y-99542952D01*
X126793809Y-99590571D01*
X126698571Y-99638190D01*
X126317619Y-99638190D01*
X127317619Y-100114380D02*
X127317619Y-99114380D01*
X127555714Y-99114380D01*
X127698571Y-99162000D01*
X127793809Y-99257238D01*
X127841428Y-99352476D01*
X127889047Y-99542952D01*
X127889047Y-99685809D01*
X127841428Y-99876285D01*
X127793809Y-99971523D01*
X127698571Y-100066761D01*
X127555714Y-100114380D01*
X127317619Y-100114380D01*
X132337000Y-88783000D02*
X132337000Y-100467000D01*
X121288000Y-88783000D02*
X132337000Y-88783000D01*
X121161000Y-100467000D02*
X121161000Y-88783000D01*
X132337000Y-100467000D02*
X121161000Y-100467000D01*
X133723238Y-99242571D02*
X133866095Y-99290190D01*
X133913714Y-99337809D01*
X133961333Y-99433047D01*
X133961333Y-99575904D01*
X133913714Y-99671142D01*
X133866095Y-99718761D01*
X133770857Y-99766380D01*
X133389904Y-99766380D01*
X133389904Y-98766380D01*
X133723238Y-98766380D01*
X133818476Y-98814000D01*
X133866095Y-98861619D01*
X133913714Y-98956857D01*
X133913714Y-99052095D01*
X133866095Y-99147333D01*
X133818476Y-99194952D01*
X133723238Y-99242571D01*
X133389904Y-99242571D01*
X134342285Y-99718761D02*
X134485142Y-99766380D01*
X134723238Y-99766380D01*
X134818476Y-99718761D01*
X134866095Y-99671142D01*
X134913714Y-99575904D01*
X134913714Y-99480666D01*
X134866095Y-99385428D01*
X134818476Y-99337809D01*
X134723238Y-99290190D01*
X134532761Y-99242571D01*
X134437523Y-99194952D01*
X134389904Y-99147333D01*
X134342285Y-99052095D01*
X134342285Y-98956857D01*
X134389904Y-98861619D01*
X134437523Y-98814000D01*
X134532761Y-98766380D01*
X134770857Y-98766380D01*
X134913714Y-98814000D01*
X135342285Y-99766380D02*
X135342285Y-98766380D01*
X135723238Y-98766380D01*
X135818476Y-98814000D01*
X135866095Y-98861619D01*
X135913714Y-98956857D01*
X135913714Y-99099714D01*
X135866095Y-99194952D01*
X135818476Y-99242571D01*
X135723238Y-99290190D01*
X135342285Y-99290190D01*
X136342285Y-99766380D02*
X136342285Y-98766380D01*
X136580380Y-98766380D01*
X136723238Y-98814000D01*
X136818476Y-98909238D01*
X136866095Y-99004476D01*
X136913714Y-99194952D01*
X136913714Y-99337809D01*
X136866095Y-99528285D01*
X136818476Y-99623523D01*
X136723238Y-99718761D01*
X136580380Y-99766380D01*
X136342285Y-99766380D01*
D10*
X107387428Y-43001571D02*
X107387428Y-44073000D01*
X107316000Y-44287285D01*
X107173142Y-44430142D01*
X106958857Y-44501571D01*
X106816000Y-44501571D01*
X108744571Y-44501571D02*
X108744571Y-43715857D01*
X108673142Y-43573000D01*
X108530285Y-43501571D01*
X108244571Y-43501571D01*
X108101714Y-43573000D01*
X108744571Y-44430142D02*
X108601714Y-44501571D01*
X108244571Y-44501571D01*
X108101714Y-44430142D01*
X108030285Y-44287285D01*
X108030285Y-44144428D01*
X108101714Y-44001571D01*
X108244571Y-43930142D01*
X108601714Y-43930142D01*
X108744571Y-43858714D01*
X110101714Y-44430142D02*
X109958857Y-44501571D01*
X109673142Y-44501571D01*
X109530285Y-44430142D01*
X109458857Y-44358714D01*
X109387428Y-44215857D01*
X109387428Y-43787285D01*
X109458857Y-43644428D01*
X109530285Y-43573000D01*
X109673142Y-43501571D01*
X109958857Y-43501571D01*
X110101714Y-43573000D01*
X110744571Y-44501571D02*
X110744571Y-43001571D01*
X110887428Y-43930142D02*
X111316000Y-44501571D01*
X111316000Y-43501571D02*
X110744571Y-44073000D01*
X113887428Y-43073000D02*
X113744571Y-43001571D01*
X113530285Y-43001571D01*
X113316000Y-43073000D01*
X113173142Y-43215857D01*
X113101714Y-43358714D01*
X113030285Y-43644428D01*
X113030285Y-43858714D01*
X113101714Y-44144428D01*
X113173142Y-44287285D01*
X113316000Y-44430142D01*
X113530285Y-44501571D01*
X113673142Y-44501571D01*
X113887428Y-44430142D01*
X113958857Y-44358714D01*
X113958857Y-43858714D01*
X113673142Y-43858714D01*
X114601714Y-44501571D02*
X114601714Y-43501571D01*
X114601714Y-43787285D02*
X114673142Y-43644428D01*
X114744571Y-43573000D01*
X114887428Y-43501571D01*
X115030285Y-43501571D01*
X116101714Y-44430142D02*
X115958857Y-44501571D01*
X115673142Y-44501571D01*
X115530285Y-44430142D01*
X115458857Y-44287285D01*
X115458857Y-43715857D01*
X115530285Y-43573000D01*
X115673142Y-43501571D01*
X115958857Y-43501571D01*
X116101714Y-43573000D01*
X116173142Y-43715857D01*
X116173142Y-43858714D01*
X115458857Y-44001571D01*
X117387428Y-44430142D02*
X117244571Y-44501571D01*
X116958857Y-44501571D01*
X116816000Y-44430142D01*
X116744571Y-44287285D01*
X116744571Y-43715857D01*
X116816000Y-43573000D01*
X116958857Y-43501571D01*
X117244571Y-43501571D01*
X117387428Y-43573000D01*
X117458857Y-43715857D01*
X117458857Y-43858714D01*
X116744571Y-44001571D01*
X118101714Y-43501571D02*
X118101714Y-44501571D01*
X118101714Y-43644428D02*
X118173142Y-43573000D01*
X118316000Y-43501571D01*
X118530285Y-43501571D01*
X118673142Y-43573000D01*
X118744571Y-43715857D01*
X118744571Y-44501571D01*
X119458857Y-44501571D02*
X119458857Y-43001571D01*
X119458857Y-43573000D02*
X119601714Y-43501571D01*
X119887428Y-43501571D01*
X120030285Y-43573000D01*
X120101714Y-43644428D01*
X120173142Y-43787285D01*
X120173142Y-44215857D01*
X120101714Y-44358714D01*
X120030285Y-44430142D01*
X119887428Y-44501571D01*
X119601714Y-44501571D01*
X119458857Y-44430142D01*
X121387428Y-44430142D02*
X121244571Y-44501571D01*
X120958857Y-44501571D01*
X120816000Y-44430142D01*
X120744571Y-44287285D01*
X120744571Y-43715857D01*
X120816000Y-43573000D01*
X120958857Y-43501571D01*
X121244571Y-43501571D01*
X121387428Y-43573000D01*
X121458857Y-43715857D01*
X121458857Y-43858714D01*
X120744571Y-44001571D01*
X122101714Y-44501571D02*
X122101714Y-43501571D01*
X122101714Y-43787285D02*
X122173142Y-43644428D01*
X122244571Y-43573000D01*
X122387428Y-43501571D01*
X122530285Y-43501571D01*
X123673142Y-43501571D02*
X123673142Y-44715857D01*
X123601714Y-44858714D01*
X123530285Y-44930142D01*
X123387428Y-45001571D01*
X123173142Y-45001571D01*
X123030285Y-44930142D01*
X123673142Y-44430142D02*
X123530285Y-44501571D01*
X123244571Y-44501571D01*
X123101714Y-44430142D01*
X123030285Y-44358714D01*
X122958857Y-44215857D01*
X122958857Y-43787285D01*
X123030285Y-43644428D01*
X123101714Y-43573000D01*
X123244571Y-43501571D01*
X123530285Y-43501571D01*
X123673142Y-43573000D01*
X106744571Y-46165857D02*
X106958857Y-46237285D01*
X107030285Y-46308714D01*
X107101714Y-46451571D01*
X107101714Y-46665857D01*
X107030285Y-46808714D01*
X106958857Y-46880142D01*
X106816000Y-46951571D01*
X106244571Y-46951571D01*
X106244571Y-45451571D01*
X106744571Y-45451571D01*
X106887428Y-45523000D01*
X106958857Y-45594428D01*
X107030285Y-45737285D01*
X107030285Y-45880142D01*
X106958857Y-46023000D01*
X106887428Y-46094428D01*
X106744571Y-46165857D01*
X106244571Y-46165857D01*
X107673142Y-46880142D02*
X107887428Y-46951571D01*
X108244571Y-46951571D01*
X108387428Y-46880142D01*
X108458857Y-46808714D01*
X108530285Y-46665857D01*
X108530285Y-46523000D01*
X108458857Y-46380142D01*
X108387428Y-46308714D01*
X108244571Y-46237285D01*
X107958857Y-46165857D01*
X107816000Y-46094428D01*
X107744571Y-46023000D01*
X107673142Y-45880142D01*
X107673142Y-45737285D01*
X107744571Y-45594428D01*
X107816000Y-45523000D01*
X107958857Y-45451571D01*
X108316000Y-45451571D01*
X108530285Y-45523000D01*
X109173142Y-46951571D02*
X109173142Y-45451571D01*
X109744571Y-45451571D01*
X109887428Y-45523000D01*
X109958857Y-45594428D01*
X110030285Y-45737285D01*
X110030285Y-45951571D01*
X109958857Y-46094428D01*
X109887428Y-46165857D01*
X109744571Y-46237285D01*
X109173142Y-46237285D01*
X110673142Y-46951571D02*
X110673142Y-45451571D01*
X111030285Y-45451571D01*
X111244571Y-45523000D01*
X111387428Y-45665857D01*
X111458857Y-45808714D01*
X111530285Y-46094428D01*
X111530285Y-46308714D01*
X111458857Y-46594428D01*
X111387428Y-46737285D01*
X111244571Y-46880142D01*
X111030285Y-46951571D01*
X110673142Y-46951571D01*
X113244571Y-45380142D02*
X111958857Y-47308714D01*
X114244571Y-46165857D02*
X114458857Y-46237285D01*
X114530285Y-46308714D01*
X114601714Y-46451571D01*
X114601714Y-46665857D01*
X114530285Y-46808714D01*
X114458857Y-46880142D01*
X114316000Y-46951571D01*
X113744571Y-46951571D01*
X113744571Y-45451571D01*
X114244571Y-45451571D01*
X114387428Y-45523000D01*
X114458857Y-45594428D01*
X114530285Y-45737285D01*
X114530285Y-45880142D01*
X114458857Y-46023000D01*
X114387428Y-46094428D01*
X114244571Y-46165857D01*
X113744571Y-46165857D01*
X115244571Y-46951571D02*
X115244571Y-45951571D01*
X115244571Y-46237285D02*
X115316000Y-46094428D01*
X115387428Y-46023000D01*
X115530285Y-45951571D01*
X115673142Y-45951571D01*
X116816000Y-46951571D02*
X116816000Y-46165857D01*
X116744571Y-46023000D01*
X116601714Y-45951571D01*
X116316000Y-45951571D01*
X116173142Y-46023000D01*
X116816000Y-46880142D02*
X116673142Y-46951571D01*
X116316000Y-46951571D01*
X116173142Y-46880142D01*
X116101714Y-46737285D01*
X116101714Y-46594428D01*
X116173142Y-46451571D01*
X116316000Y-46380142D01*
X116673142Y-46380142D01*
X116816000Y-46308714D01*
X117530285Y-46951571D02*
X117530285Y-45451571D01*
X117673142Y-46380142D02*
X118101714Y-46951571D01*
X118101714Y-45951571D02*
X117530285Y-46523000D01*
X119316000Y-46880142D02*
X119173142Y-46951571D01*
X118887428Y-46951571D01*
X118744571Y-46880142D01*
X118673142Y-46737285D01*
X118673142Y-46165857D01*
X118744571Y-46023000D01*
X118887428Y-45951571D01*
X119173142Y-45951571D01*
X119316000Y-46023000D01*
X119387428Y-46165857D01*
X119387428Y-46308714D01*
X118673142Y-46451571D01*
X120244571Y-46951571D02*
X120101714Y-46880142D01*
X120030285Y-46737285D01*
X120030285Y-45451571D01*
X120816000Y-46951571D02*
X120816000Y-45951571D01*
X120816000Y-45451571D02*
X120744571Y-45523000D01*
X120816000Y-45594428D01*
X120887428Y-45523000D01*
X120816000Y-45451571D01*
X120816000Y-45594428D01*
X122173142Y-45951571D02*
X122173142Y-47165857D01*
X122101714Y-47308714D01*
X122030285Y-47380142D01*
X121887428Y-47451571D01*
X121673142Y-47451571D01*
X121530285Y-47380142D01*
X122173142Y-46880142D02*
X122030285Y-46951571D01*
X121744571Y-46951571D01*
X121601714Y-46880142D01*
X121530285Y-46808714D01*
X121458857Y-46665857D01*
X121458857Y-46237285D01*
X121530285Y-46094428D01*
X121601714Y-46023000D01*
X121744571Y-45951571D01*
X122030285Y-45951571D01*
X122173142Y-46023000D01*
X122887428Y-46951571D02*
X122887428Y-45451571D01*
X123530285Y-46951571D02*
X123530285Y-46165857D01*
X123458857Y-46023000D01*
X123316000Y-45951571D01*
X123101714Y-45951571D01*
X122958857Y-46023000D01*
X122887428Y-46094428D01*
X124030285Y-45951571D02*
X124601714Y-45951571D01*
X124244571Y-45451571D02*
X124244571Y-46737285D01*
X124316000Y-46880142D01*
X124458857Y-46951571D01*
X124601714Y-46951571D01*
X105566000Y-49401571D02*
X105066000Y-48687285D01*
X104708857Y-49401571D02*
X104708857Y-47901571D01*
X105280285Y-47901571D01*
X105423142Y-47973000D01*
X105494571Y-48044428D01*
X105566000Y-48187285D01*
X105566000Y-48401571D01*
X105494571Y-48544428D01*
X105423142Y-48615857D01*
X105280285Y-48687285D01*
X104708857Y-48687285D01*
X106780285Y-49330142D02*
X106637428Y-49401571D01*
X106351714Y-49401571D01*
X106208857Y-49330142D01*
X106137428Y-49187285D01*
X106137428Y-48615857D01*
X106208857Y-48473000D01*
X106351714Y-48401571D01*
X106637428Y-48401571D01*
X106780285Y-48473000D01*
X106851714Y-48615857D01*
X106851714Y-48758714D01*
X106137428Y-48901571D01*
X107351714Y-48401571D02*
X107708857Y-49401571D01*
X108066000Y-48401571D01*
X110566000Y-49401571D02*
X109708857Y-49401571D01*
X110137428Y-49401571D02*
X110137428Y-47901571D01*
X109994571Y-48115857D01*
X109851714Y-48258714D01*
X109708857Y-48330142D01*
X112708857Y-49901571D02*
X112708857Y-47758714D01*
X115708857Y-49401571D02*
X114851714Y-49401571D01*
X115280285Y-49401571D02*
X115280285Y-47901571D01*
X115137428Y-48115857D01*
X114994571Y-48258714D01*
X114851714Y-48330142D01*
X116280285Y-48044428D02*
X116351714Y-47973000D01*
X116494571Y-47901571D01*
X116851714Y-47901571D01*
X116994571Y-47973000D01*
X117066000Y-48044428D01*
X117137428Y-48187285D01*
X117137428Y-48330142D01*
X117066000Y-48544428D01*
X116208857Y-49401571D01*
X117137428Y-49401571D01*
X118851714Y-47830142D02*
X117566000Y-49758714D01*
X119637428Y-47901571D02*
X119780285Y-47901571D01*
X119923142Y-47973000D01*
X119994571Y-48044428D01*
X120066000Y-48187285D01*
X120137428Y-48473000D01*
X120137428Y-48830142D01*
X120066000Y-49115857D01*
X119994571Y-49258714D01*
X119923142Y-49330142D01*
X119780285Y-49401571D01*
X119637428Y-49401571D01*
X119494571Y-49330142D01*
X119423142Y-49258714D01*
X119351714Y-49115857D01*
X119280285Y-48830142D01*
X119280285Y-48473000D01*
X119351714Y-48187285D01*
X119423142Y-48044428D01*
X119494571Y-47973000D01*
X119637428Y-47901571D01*
X120708857Y-48044428D02*
X120780285Y-47973000D01*
X120923142Y-47901571D01*
X121280285Y-47901571D01*
X121423142Y-47973000D01*
X121494571Y-48044428D01*
X121566000Y-48187285D01*
X121566000Y-48330142D01*
X121494571Y-48544428D01*
X120637428Y-49401571D01*
X121566000Y-49401571D01*
X123280285Y-47830142D02*
X121994571Y-49758714D01*
X124566000Y-49401571D02*
X123708857Y-49401571D01*
X124137428Y-49401571D02*
X124137428Y-47901571D01*
X123994571Y-48115857D01*
X123851714Y-48258714D01*
X123708857Y-48330142D01*
X125280285Y-49401571D02*
X125566000Y-49401571D01*
X125708857Y-49330142D01*
X125780285Y-49258714D01*
X125923142Y-49044428D01*
X125994571Y-48758714D01*
X125994571Y-48187285D01*
X125923142Y-48044428D01*
X125851714Y-47973000D01*
X125708857Y-47901571D01*
X125423142Y-47901571D01*
X125280285Y-47973000D01*
X125208857Y-48044428D01*
X125137428Y-48187285D01*
X125137428Y-48544428D01*
X125208857Y-48687285D01*
X125280285Y-48758714D01*
X125423142Y-48830142D01*
X125708857Y-48830142D01*
X125851714Y-48758714D01*
X125923142Y-48687285D01*
X125994571Y-48544428D01*
X109316000Y-50351571D02*
X109601714Y-50351571D01*
X109744571Y-50423000D01*
X109887428Y-50565857D01*
X109958857Y-50851571D01*
X109958857Y-51351571D01*
X109887428Y-51637285D01*
X109744571Y-51780142D01*
X109601714Y-51851571D01*
X109316000Y-51851571D01*
X109173142Y-51780142D01*
X109030285Y-51637285D01*
X108958857Y-51351571D01*
X108958857Y-50851571D01*
X109030285Y-50565857D01*
X109173142Y-50423000D01*
X109316000Y-50351571D01*
X110601714Y-51065857D02*
X111101714Y-51065857D01*
X111316000Y-51851571D02*
X110601714Y-51851571D01*
X110601714Y-50351571D01*
X111316000Y-50351571D01*
X111958857Y-51851571D02*
X111958857Y-50351571D01*
X112458857Y-51423000D01*
X112958857Y-50351571D01*
X112958857Y-51851571D01*
X114816000Y-51280142D02*
X115958857Y-51280142D01*
X117815999Y-51851571D02*
X117815999Y-50351571D01*
X118315999Y-51423000D01*
X118815999Y-50351571D01*
X118815999Y-51851571D01*
X119530285Y-51851571D02*
X119530285Y-50351571D01*
X120387428Y-51851571D02*
X119744571Y-50994428D01*
X120387428Y-50351571D02*
X119530285Y-51208714D01*
X120816000Y-50351571D02*
X121316000Y-51851571D01*
X121816000Y-50351571D01*
D11*
X172919428Y-86427714D02*
X172871809Y-86570571D01*
X172824190Y-86618190D01*
X172728952Y-86665809D01*
X172586095Y-86665809D01*
X172490857Y-86618190D01*
X172443238Y-86570571D01*
X172395619Y-86475333D01*
X172395619Y-86094380D01*
X173395619Y-86094380D01*
X173395619Y-86427714D01*
X173348000Y-86522952D01*
X173300380Y-86570571D01*
X173205142Y-86618190D01*
X173109904Y-86618190D01*
X173014666Y-86570571D01*
X172967047Y-86522952D01*
X172919428Y-86427714D01*
X172919428Y-86094380D01*
X172395619Y-87094380D02*
X173062285Y-87094380D01*
X172871809Y-87094380D02*
X172967047Y-87142000D01*
X173014666Y-87189619D01*
X173062285Y-87284857D01*
X173062285Y-87380095D01*
X172395619Y-88142000D02*
X172919428Y-88142000D01*
X173014666Y-88094380D01*
X173062285Y-87999142D01*
X173062285Y-87808666D01*
X173014666Y-87713428D01*
X172443238Y-88142000D02*
X172395619Y-88046761D01*
X172395619Y-87808666D01*
X172443238Y-87713428D01*
X172538476Y-87665809D01*
X172633714Y-87665809D01*
X172728952Y-87713428D01*
X172776571Y-87808666D01*
X172776571Y-88046761D01*
X172824190Y-88142000D01*
X172395619Y-88618190D02*
X173395619Y-88618190D01*
X172776571Y-88713428D02*
X172395619Y-88999142D01*
X173062285Y-88999142D02*
X172681333Y-88618190D01*
X172443238Y-89808666D02*
X172395619Y-89713428D01*
X172395619Y-89522952D01*
X172443238Y-89427714D01*
X172538476Y-89380095D01*
X172919428Y-89380095D01*
X173014666Y-89427714D01*
X173062285Y-89522952D01*
X173062285Y-89713428D01*
X173014666Y-89808666D01*
X172919428Y-89856285D01*
X172824190Y-89856285D01*
X172728952Y-89380095D01*
X172395619Y-90427714D02*
X172443238Y-90332476D01*
X172538476Y-90284857D01*
X173395619Y-90284857D01*
X172395619Y-90808666D02*
X173062285Y-90808666D01*
X173395619Y-90808666D02*
X173348000Y-90761047D01*
X173300380Y-90808666D01*
X173348000Y-90856285D01*
X173395619Y-90808666D01*
X173300380Y-90808666D01*
X173062285Y-91713428D02*
X172252761Y-91713428D01*
X172157523Y-91665809D01*
X172109904Y-91618190D01*
X172062285Y-91522952D01*
X172062285Y-91380095D01*
X172109904Y-91284857D01*
X172443238Y-91713428D02*
X172395619Y-91618190D01*
X172395619Y-91427714D01*
X172443238Y-91332476D01*
X172490857Y-91284857D01*
X172586095Y-91237238D01*
X172871809Y-91237238D01*
X172967047Y-91284857D01*
X173014666Y-91332476D01*
X173062285Y-91427714D01*
X173062285Y-91618190D01*
X173014666Y-91713428D01*
X172395619Y-92189619D02*
X173395619Y-92189619D01*
X172395619Y-92618190D02*
X172919428Y-92618190D01*
X173014666Y-92570571D01*
X173062285Y-92475333D01*
X173062285Y-92332476D01*
X173014666Y-92237238D01*
X172967047Y-92189619D01*
X173062285Y-92951523D02*
X173062285Y-93332476D01*
X173395619Y-93094380D02*
X172538476Y-93094380D01*
X172443238Y-93142000D01*
X172395619Y-93237238D01*
X172395619Y-93332476D01*
D15*
X127602500Y-78743900D02*
X126402500Y-78743900D01*
X126402500Y-76983900D02*
X127602500Y-76983900D01*
X126453300Y-73625000D02*
X127653300Y-73625000D01*
X127653300Y-75385000D02*
X126453300Y-75385000D01*
X121240100Y-70491500D02*
X124040100Y-70491500D01*
X121240100Y-71891500D02*
X124040100Y-71891500D01*
X121240100Y-70491500D02*
X121240100Y-71891500D01*
D12*
X122840100Y-71191500D02*
X123140100Y-70891500D01*
X123140100Y-70891500D02*
X123190100Y-70841500D01*
X123190100Y-70841500D02*
X123190100Y-71491500D01*
X123190100Y-71541500D02*
X123190100Y-71491500D01*
X123190100Y-71491500D02*
X123190100Y-71541500D01*
X123190100Y-71541500D02*
X122840100Y-71191500D01*
X122840100Y-71191500D02*
X122840100Y-70841500D01*
X122840100Y-71541500D02*
X122840100Y-71191500D01*
D15*
X127640600Y-72071500D02*
X126440600Y-72071500D01*
X126440600Y-70311500D02*
X127640600Y-70311500D01*
X121202000Y-77163900D02*
X124002000Y-77163900D01*
X121202000Y-78563900D02*
X124002000Y-78563900D01*
X121202000Y-77163900D02*
X121202000Y-78563900D01*
D12*
X122802000Y-77863900D02*
X123102000Y-77563900D01*
X123102000Y-77563900D02*
X123152000Y-77513900D01*
X123152000Y-77513900D02*
X123152000Y-78163900D01*
X123152000Y-78213900D02*
X123152000Y-78163900D01*
X123152000Y-78163900D02*
X123152000Y-78213900D01*
X123152000Y-78213900D02*
X122802000Y-77863900D01*
X122802000Y-77863900D02*
X122802000Y-77513900D01*
X122802000Y-78213900D02*
X122802000Y-77863900D01*
X122852800Y-74855000D02*
X122852800Y-74505000D01*
X122852800Y-74505000D02*
X122852800Y-74155000D01*
X123202800Y-74855000D02*
X122852800Y-74505000D01*
X123202800Y-74805000D02*
X123202800Y-74855000D01*
X123202800Y-74855000D02*
X123202800Y-74805000D01*
X123202800Y-74155000D02*
X123202800Y-74805000D01*
X123152800Y-74205000D02*
X123202800Y-74155000D01*
X122852800Y-74505000D02*
X123152800Y-74205000D01*
D15*
X121252800Y-73805000D02*
X121252800Y-75205000D01*
X121252800Y-75205000D02*
X124052800Y-75205000D01*
X121252800Y-73805000D02*
X124052800Y-73805000D01*
X151248000Y-52806000D02*
X151248000Y-54006000D01*
X149488000Y-54006000D02*
X149488000Y-52806000D01*
D11*
X143175784Y-50926916D02*
X143175784Y-50976916D01*
X147325784Y-50926916D02*
X147325784Y-51071916D01*
X147325784Y-56076916D02*
X147325784Y-55931916D01*
X143175784Y-56076916D02*
X143175784Y-55931916D01*
X143175784Y-50926916D02*
X147325784Y-50926916D01*
X143175784Y-56076916D02*
X147325784Y-56076916D01*
X143175784Y-50976916D02*
X141775784Y-50976916D01*
D15*
X139372000Y-52954000D02*
X139372000Y-53954000D01*
X141072000Y-53954000D02*
X141072000Y-52954000D01*
D16*
X144520548Y-63482039D02*
G75*
G03X144520548Y-63482039I-50801J0D01*
G01*
X146855414Y-63625724D02*
G75*
G03X146855414Y-63625724I-50800J0D01*
G01*
D11*
X145842524Y-63500000D02*
X145683425Y-63340901D01*
X140716000Y-68626524D02*
X140486190Y-68396714D01*
X135589476Y-63500000D02*
X135819286Y-63729810D01*
X140716000Y-58373476D02*
X140945810Y-58603286D01*
X145842524Y-63500000D02*
X145612714Y-63729810D01*
X140716000Y-58373476D02*
X140486190Y-58603286D01*
X135589476Y-63500000D02*
X135819286Y-63270190D01*
X140716000Y-68626524D02*
X140945810Y-68396714D01*
X145683425Y-63340901D02*
X146691052Y-62333274D01*
D15*
X133888000Y-67961000D02*
X133888000Y-68961000D01*
X135588000Y-68961000D02*
X135588000Y-67961000D01*
X132458934Y-69602717D02*
X131458934Y-69602717D01*
X131458934Y-71302717D02*
X132458934Y-71302717D01*
X147990000Y-65160000D02*
X149190000Y-65160000D01*
X149190000Y-66920000D02*
X147990000Y-66920000D01*
X133539600Y-56888000D02*
X133539600Y-55888000D01*
X131839600Y-55888000D02*
X131839600Y-56888000D01*
X131250434Y-66588217D02*
X132450434Y-66588217D01*
X132450434Y-68348217D02*
X131250434Y-68348217D01*
X137920116Y-72684932D02*
X137920116Y-73884932D01*
X136160116Y-73884932D02*
X136160116Y-72684932D01*
D12*
X133775143Y-55020161D02*
X135775143Y-55020161D01*
X133775143Y-55020161D02*
X133775143Y-56620161D01*
D15*
X135240343Y-54701561D02*
X136240343Y-54701561D01*
X136240343Y-53001561D02*
X135240343Y-53001561D01*
X138180674Y-73877860D02*
X138180674Y-72677860D01*
X139940674Y-72677860D02*
X139940674Y-73877860D01*
D11*
X184404000Y-100330000D02*
X189484000Y-100330000D01*
X181584000Y-100610000D02*
X181584000Y-99060000D01*
X181864000Y-97790000D02*
X184404000Y-97790000D01*
X184404000Y-97790000D02*
X184404000Y-100330000D01*
X189484000Y-100330000D02*
X189484000Y-95250000D01*
X189484000Y-95250000D02*
X184404000Y-95250000D01*
X181584000Y-100610000D02*
X183134000Y-100610000D01*
X181864000Y-95250000D02*
X181864000Y-97790000D01*
X184404000Y-95250000D02*
X181864000Y-95250000D01*
D12*
X174950500Y-46264500D02*
X174950500Y-46614500D01*
X174950500Y-46614500D02*
X174950500Y-46964500D01*
X174600500Y-46264500D02*
X174950500Y-46614500D01*
X174600500Y-46314500D02*
X174600500Y-46264500D01*
X174600500Y-46264500D02*
X174600500Y-46314500D01*
X174600500Y-46964500D02*
X174600500Y-46314500D01*
X174650500Y-46914500D02*
X174600500Y-46964500D01*
X174950500Y-46614500D02*
X174650500Y-46914500D01*
D15*
X176550500Y-47314500D02*
X176550500Y-45914500D01*
X176550500Y-45914500D02*
X173750500Y-45914500D01*
X176550500Y-47314500D02*
X173750500Y-47314500D01*
X171869500Y-65536300D02*
X172869500Y-65536300D01*
X172869500Y-63836300D02*
X171869500Y-63836300D01*
X171940000Y-57672800D02*
X172640000Y-57672800D01*
X172640000Y-58872800D02*
X171940000Y-58872800D01*
X173284700Y-59782100D02*
X171484700Y-59782100D01*
X171484700Y-63002100D02*
X173934700Y-63002100D01*
D11*
X162249500Y-66043800D02*
X167249500Y-66043800D01*
X162249500Y-74543800D02*
X162249500Y-66043800D01*
X167249500Y-74543800D02*
X162249500Y-74543800D01*
X167249500Y-66043800D02*
X167249500Y-74543800D01*
D15*
X172119500Y-69662800D02*
X172119500Y-67662800D01*
X170079500Y-67662800D02*
X170079500Y-69662800D01*
X166564420Y-59242700D02*
X166564420Y-64442700D01*
X162924420Y-64442700D02*
X162924420Y-59242700D01*
X176251780Y-63458920D02*
X176251780Y-64658920D01*
X174491780Y-64658920D02*
X174491780Y-63458920D01*
X160400500Y-59534500D02*
X161600500Y-59534500D01*
X161600500Y-61294500D02*
X160400500Y-61294500D01*
X169600000Y-69186800D02*
X169600000Y-68186800D01*
X167900000Y-68186800D02*
X167900000Y-69186800D01*
X171550500Y-47494500D02*
X170350500Y-47494500D01*
X170350500Y-45734500D02*
X171550500Y-45734500D01*
D12*
X157000500Y-60764500D02*
X157000500Y-60414500D01*
X157000500Y-60414500D02*
X157000500Y-60064500D01*
X157350500Y-60764500D02*
X157000500Y-60414500D01*
X157350500Y-60714500D02*
X157350500Y-60764500D01*
X157350500Y-60764500D02*
X157350500Y-60714500D01*
X157350500Y-60064500D02*
X157350500Y-60714500D01*
X157300500Y-60114500D02*
X157350500Y-60064500D01*
X157000500Y-60414500D02*
X157300500Y-60114500D01*
D15*
X155400500Y-59714500D02*
X155400500Y-61114500D01*
X155400500Y-61114500D02*
X158200500Y-61114500D01*
X155400500Y-59714500D02*
X158200500Y-59714500D01*
X174507020Y-60772720D02*
X174507020Y-59572720D01*
X176267020Y-59572720D02*
X176267020Y-60772720D01*
D10*
X171255000Y-52668800D02*
X170155000Y-51768800D01*
X171255000Y-50968800D02*
X171255000Y-52668800D01*
X170155000Y-51768800D02*
X171255000Y-50968800D01*
X170155000Y-50968800D02*
X170155000Y-52668800D01*
D15*
X167480000Y-50335300D02*
X167480000Y-53002300D01*
X167480000Y-53002300D02*
X170655000Y-53002300D01*
X167480000Y-50335300D02*
X170655000Y-50335300D01*
X172699320Y-55616860D02*
X171699320Y-55616860D01*
X171699320Y-57316860D02*
X172699320Y-57316860D01*
X167143000Y-57685300D02*
X167143000Y-55685300D01*
X170103000Y-55685300D02*
X170103000Y-57685300D01*
X128730000Y-95513000D02*
X127530000Y-95513000D01*
X127530000Y-93753000D02*
X128730000Y-93753000D01*
X129837000Y-90317000D02*
X129837000Y-91777000D01*
X126677000Y-90317000D02*
X126677000Y-92477000D01*
X126677000Y-90317000D02*
X127607000Y-90317000D01*
X129837000Y-90317000D02*
X128907000Y-90317000D01*
X131624000Y-94230000D02*
X131624000Y-97030000D01*
X130224000Y-94230000D02*
X130224000Y-97030000D01*
X131624000Y-94230000D02*
X130224000Y-94230000D01*
D12*
X130924000Y-95830000D02*
X131224000Y-96130000D01*
X131224000Y-96130000D02*
X131274000Y-96180000D01*
X131274000Y-96180000D02*
X130624000Y-96180000D01*
X130574000Y-96180000D02*
X130624000Y-96180000D01*
X130624000Y-96180000D02*
X130574000Y-96180000D01*
X130574000Y-96180000D02*
X130924000Y-95830000D01*
X130924000Y-95830000D02*
X131274000Y-95830000D01*
X130574000Y-95830000D02*
X130924000Y-95830000D01*
D15*
X127530000Y-96547000D02*
X128730000Y-96547000D01*
X128730000Y-98307000D02*
X127530000Y-98307000D01*
X124202000Y-91738000D02*
X124202000Y-90538000D01*
X125962000Y-90538000D02*
X125962000Y-91738000D01*
X156188500Y-95278500D02*
X156188500Y-94078500D01*
X157948500Y-94078500D02*
X157948500Y-95278500D01*
X149280500Y-97610500D02*
X149280500Y-95160500D01*
X146060500Y-95810500D02*
X146060500Y-97610500D01*
X141990500Y-90179000D02*
X143190500Y-90179000D01*
X143190500Y-91939000D02*
X141990500Y-91939000D01*
X162381500Y-96458000D02*
X159581500Y-96458000D01*
X162381500Y-95058000D02*
X159581500Y-95058000D01*
X162381500Y-96458000D02*
X162381500Y-95058000D01*
D12*
X160781500Y-95758000D02*
X160481500Y-96058000D01*
X160481500Y-96058000D02*
X160431500Y-96108000D01*
X160431500Y-96108000D02*
X160431500Y-95458000D01*
X160431500Y-95408000D02*
X160431500Y-95458000D01*
X160431500Y-95458000D02*
X160431500Y-95408000D01*
X160431500Y-95408000D02*
X160781500Y-95758000D01*
X160781500Y-95758000D02*
X160781500Y-96108000D01*
X160781500Y-95408000D02*
X160781500Y-95758000D01*
D15*
X152013000Y-98417000D02*
X152013000Y-97417000D01*
X150313000Y-97417000D02*
X150313000Y-98417000D01*
X141640000Y-84716500D02*
X143100000Y-84716500D01*
X141640000Y-87876500D02*
X143800000Y-87876500D01*
X141640000Y-87876500D02*
X141640000Y-86946500D01*
X141640000Y-84716500D02*
X141640000Y-85646500D01*
D12*
X144359000Y-83217500D02*
X144359000Y-82867500D01*
X144359000Y-82867500D02*
X144359000Y-82517500D01*
X144709000Y-83217500D02*
X144359000Y-82867500D01*
X144709000Y-83167500D02*
X144709000Y-83217500D01*
X144709000Y-83217500D02*
X144709000Y-83167500D01*
X144709000Y-82517500D02*
X144709000Y-83167500D01*
X144659000Y-82567500D02*
X144709000Y-82517500D01*
X144359000Y-82867500D02*
X144659000Y-82567500D01*
D15*
X142759000Y-82167500D02*
X142759000Y-83567500D01*
X142759000Y-83567500D02*
X145559000Y-83567500D01*
X142759000Y-82167500D02*
X145559000Y-82167500D01*
X163764500Y-86922500D02*
X162564500Y-86922500D01*
X162564500Y-85162500D02*
X163764500Y-85162500D01*
X156713500Y-91240500D02*
X155513500Y-91240500D01*
X155513500Y-89480500D02*
X156713500Y-89480500D01*
X155477900Y-87194500D02*
X156677900Y-87194500D01*
X156677900Y-88954500D02*
X155477900Y-88954500D01*
X152068400Y-92846600D02*
X152068400Y-94046600D01*
X150308400Y-94046600D02*
X150308400Y-92846600D01*
X136186000Y-90262000D02*
X136186000Y-89062000D01*
X137946000Y-89062000D02*
X137946000Y-90262000D01*
X156675400Y-86795500D02*
X155475400Y-86795500D01*
X155475400Y-85035500D02*
X156675400Y-85035500D01*
X162767900Y-90346100D02*
X162767900Y-87896100D01*
X159547900Y-88546100D02*
X159547900Y-90346100D01*
X139057900Y-97439600D02*
X139057900Y-96509600D01*
X139057900Y-94279600D02*
X139057900Y-95209600D01*
X139057900Y-94279600D02*
X136897900Y-94279600D01*
X139057900Y-97439600D02*
X137597900Y-97439600D01*
X145521000Y-93560500D02*
X147321000Y-93560500D01*
X147321000Y-90340500D02*
X144871000Y-90340500D01*
X152076500Y-85225000D02*
X152076500Y-84225000D01*
X150376500Y-84225000D02*
X150376500Y-85225000D01*
X155823000Y-95115000D02*
X155823000Y-94115000D01*
X154123000Y-94115000D02*
X154123000Y-95115000D01*
X135613500Y-93433000D02*
X136613500Y-93433000D01*
X136613500Y-91733000D02*
X135613500Y-91733000D01*
X150657900Y-88165100D02*
X150657900Y-90615100D01*
X153877900Y-89965100D02*
X153877900Y-88165100D01*
X146645500Y-85762500D02*
X146645500Y-86962500D01*
X144885500Y-86962500D02*
X144885500Y-85762500D01*
X138408500Y-92294000D02*
X138408500Y-91094000D01*
X140168500Y-91094000D02*
X140168500Y-92294000D01*
D11*
X133204000Y-41554000D02*
X133204000Y-46854000D01*
X163214000Y-41554000D02*
X163214000Y-46854000D01*
X133204000Y-41554000D02*
X163214000Y-41554000D01*
X133204000Y-46854000D02*
X163214000Y-46854000D01*
D15*
X175042000Y-81052000D02*
X176242000Y-81052000D01*
X176242000Y-82812000D02*
X175042000Y-82812000D01*
X177412000Y-75584000D02*
X176412000Y-75584000D01*
X176412000Y-77284000D02*
X177412000Y-77284000D01*
X178952000Y-83888000D02*
X179952000Y-83888000D01*
X179952000Y-82188000D02*
X178952000Y-82188000D01*
X187810000Y-82696000D02*
X186810000Y-82696000D01*
X186810000Y-84396000D02*
X187810000Y-84396000D01*
X185918721Y-92184000D02*
X186244279Y-92184000D01*
X185918721Y-91164000D02*
X186244279Y-91164000D01*
X176774000Y-87950000D02*
X178574000Y-87950000D01*
X178574000Y-84730000D02*
X176124000Y-84730000D01*
X176396000Y-78582000D02*
X175396000Y-78582000D01*
X175396000Y-80282000D02*
X176396000Y-80282000D01*
X186567400Y-87611300D02*
X187767400Y-87611300D01*
X187767400Y-89371300D02*
X186567400Y-89371300D01*
X182393900Y-87950000D02*
X184193900Y-87950000D01*
X184193900Y-84730000D02*
X181743900Y-84730000D01*
X185210000Y-79520000D02*
X186210000Y-79520000D01*
X186210000Y-77820000D02*
X185210000Y-77820000D01*
X186726000Y-85134800D02*
X187926000Y-85134800D01*
X187926000Y-86894800D02*
X186726000Y-86894800D01*
X182466000Y-74769221D02*
X182466000Y-75094779D01*
X181446000Y-74769221D02*
X181446000Y-75094779D01*
X186916000Y-76512000D02*
X186916000Y-75582000D01*
X186916000Y-73352000D02*
X186916000Y-74282000D01*
X186916000Y-73352000D02*
X184756000Y-73352000D01*
X186916000Y-76512000D02*
X185456000Y-76512000D01*
X175781800Y-90847600D02*
X175781800Y-89647600D01*
X177541800Y-89647600D02*
X177541800Y-90847600D01*
X179346000Y-78650500D02*
X179346000Y-81100500D01*
X182566000Y-80450500D02*
X182566000Y-78650500D01*
X178056000Y-74774000D02*
X176856000Y-74774000D01*
X176856000Y-73014000D02*
X178056000Y-73014000D01*
X182326000Y-91512000D02*
X182326000Y-90312000D01*
X184086000Y-90312000D02*
X184086000Y-91512000D01*
X186402000Y-81886000D02*
X185202000Y-81886000D01*
X185202000Y-80126000D02*
X186402000Y-80126000D01*
X178258300Y-90850100D02*
X178258300Y-89650100D01*
X180018300Y-89650100D02*
X180018300Y-90850100D01*
D11*
X126359642Y-76638780D02*
X126026309Y-76162590D01*
X125788214Y-76638780D02*
X125788214Y-75638780D01*
X126169166Y-75638780D01*
X126264404Y-75686400D01*
X126312023Y-75734019D01*
X126359642Y-75829257D01*
X126359642Y-75972114D01*
X126312023Y-76067352D01*
X126264404Y-76114971D01*
X126169166Y-76162590D01*
X125788214Y-76162590D01*
X127216785Y-75972114D02*
X127216785Y-76638780D01*
X126978690Y-75591161D02*
X126740595Y-76305447D01*
X127359642Y-76305447D01*
X128169166Y-75972114D02*
X128169166Y-76638780D01*
X127931071Y-75591161D02*
X127692976Y-76305447D01*
X128312023Y-76305447D01*
X126410442Y-73369680D02*
X126077109Y-72893490D01*
X125839014Y-73369680D02*
X125839014Y-72369680D01*
X126219966Y-72369680D01*
X126315204Y-72417300D01*
X126362823Y-72464919D01*
X126410442Y-72560157D01*
X126410442Y-72703014D01*
X126362823Y-72798252D01*
X126315204Y-72845871D01*
X126219966Y-72893490D01*
X125839014Y-72893490D01*
X127267585Y-72703014D02*
X127267585Y-73369680D01*
X127029490Y-72322061D02*
X126791395Y-73036347D01*
X127410442Y-73036347D01*
X128267585Y-72369680D02*
X127791395Y-72369680D01*
X127743776Y-72845871D01*
X127791395Y-72798252D01*
X127886633Y-72750633D01*
X128124728Y-72750633D01*
X128219966Y-72798252D01*
X128267585Y-72845871D01*
X128315204Y-72941109D01*
X128315204Y-73179204D01*
X128267585Y-73274442D01*
X128219966Y-73322061D01*
X128124728Y-73369680D01*
X127886633Y-73369680D01*
X127791395Y-73322061D01*
X127743776Y-73274442D01*
X121802004Y-70048380D02*
X121802004Y-69048380D01*
X122182957Y-69048380D01*
X122278195Y-69096000D01*
X122325814Y-69143619D01*
X122373433Y-69238857D01*
X122373433Y-69381714D01*
X122325814Y-69476952D01*
X122278195Y-69524571D01*
X122182957Y-69572190D01*
X121802004Y-69572190D01*
X122802004Y-70048380D02*
X122802004Y-69048380D01*
X123040100Y-69048380D01*
X123182957Y-69096000D01*
X123278195Y-69191238D01*
X123325814Y-69286476D01*
X123373433Y-69476952D01*
X123373433Y-69619809D01*
X123325814Y-69810285D01*
X123278195Y-69905523D01*
X123182957Y-70000761D01*
X123040100Y-70048380D01*
X122802004Y-70048380D01*
X124230576Y-69048380D02*
X124040100Y-69048380D01*
X123944861Y-69096000D01*
X123897242Y-69143619D01*
X123802004Y-69286476D01*
X123754385Y-69476952D01*
X123754385Y-69857904D01*
X123802004Y-69953142D01*
X123849623Y-70000761D01*
X123944861Y-70048380D01*
X124135338Y-70048380D01*
X124230576Y-70000761D01*
X124278195Y-69953142D01*
X124325814Y-69857904D01*
X124325814Y-69619809D01*
X124278195Y-69524571D01*
X124230576Y-69476952D01*
X124135338Y-69429333D01*
X123944861Y-69429333D01*
X123849623Y-69476952D01*
X123802004Y-69524571D01*
X123754385Y-69619809D01*
X126397742Y-70104580D02*
X126064409Y-69628390D01*
X125826314Y-70104580D02*
X125826314Y-69104580D01*
X126207266Y-69104580D01*
X126302504Y-69152200D01*
X126350123Y-69199819D01*
X126397742Y-69295057D01*
X126397742Y-69437914D01*
X126350123Y-69533152D01*
X126302504Y-69580771D01*
X126207266Y-69628390D01*
X125826314Y-69628390D01*
X127254885Y-69437914D02*
X127254885Y-70104580D01*
X127016790Y-69056961D02*
X126778695Y-69771247D01*
X127397742Y-69771247D01*
X128207266Y-69104580D02*
X128016790Y-69104580D01*
X127921552Y-69152200D01*
X127873933Y-69199819D01*
X127778695Y-69342676D01*
X127731076Y-69533152D01*
X127731076Y-69914104D01*
X127778695Y-70009342D01*
X127826314Y-70056961D01*
X127921552Y-70104580D01*
X128112028Y-70104580D01*
X128207266Y-70056961D01*
X128254885Y-70009342D01*
X128302504Y-69914104D01*
X128302504Y-69676009D01*
X128254885Y-69580771D01*
X128207266Y-69533152D01*
X128112028Y-69485533D01*
X127921552Y-69485533D01*
X127826314Y-69533152D01*
X127778695Y-69580771D01*
X127731076Y-69676009D01*
X121763904Y-76652380D02*
X121763904Y-75652380D01*
X122144857Y-75652380D01*
X122240095Y-75700000D01*
X122287714Y-75747619D01*
X122335333Y-75842857D01*
X122335333Y-75985714D01*
X122287714Y-76080952D01*
X122240095Y-76128571D01*
X122144857Y-76176190D01*
X121763904Y-76176190D01*
X123097238Y-76128571D02*
X123240095Y-76176190D01*
X123287714Y-76223809D01*
X123335333Y-76319047D01*
X123335333Y-76461904D01*
X123287714Y-76557142D01*
X123240095Y-76604761D01*
X123144857Y-76652380D01*
X122763904Y-76652380D01*
X122763904Y-75652380D01*
X123097238Y-75652380D01*
X123192476Y-75700000D01*
X123240095Y-75747619D01*
X123287714Y-75842857D01*
X123287714Y-75938095D01*
X123240095Y-76033333D01*
X123192476Y-76080952D01*
X123097238Y-76128571D01*
X122763904Y-76128571D01*
X123716285Y-75747619D02*
X123763904Y-75700000D01*
X123859142Y-75652380D01*
X124097238Y-75652380D01*
X124192476Y-75700000D01*
X124240095Y-75747619D01*
X124287714Y-75842857D01*
X124287714Y-75938095D01*
X124240095Y-76080952D01*
X123668666Y-76652380D01*
X124287714Y-76652380D01*
X121814704Y-73350380D02*
X121814704Y-72350380D01*
X122195657Y-72350380D01*
X122290895Y-72398000D01*
X122338514Y-72445619D01*
X122386133Y-72540857D01*
X122386133Y-72683714D01*
X122338514Y-72778952D01*
X122290895Y-72826571D01*
X122195657Y-72874190D01*
X121814704Y-72874190D01*
X122814704Y-73350380D02*
X122814704Y-72350380D01*
X123052800Y-72350380D01*
X123195657Y-72398000D01*
X123290895Y-72493238D01*
X123338514Y-72588476D01*
X123386133Y-72778952D01*
X123386133Y-72921809D01*
X123338514Y-73112285D01*
X123290895Y-73207523D01*
X123195657Y-73302761D01*
X123052800Y-73350380D01*
X122814704Y-73350380D01*
X123719466Y-72350380D02*
X124386133Y-72350380D01*
X123957561Y-73350380D01*
X152470380Y-54048857D02*
X151994190Y-54382190D01*
X152470380Y-54620285D02*
X151470380Y-54620285D01*
X151470380Y-54239333D01*
X151518000Y-54144095D01*
X151565619Y-54096476D01*
X151660857Y-54048857D01*
X151803714Y-54048857D01*
X151898952Y-54096476D01*
X151946571Y-54144095D01*
X151994190Y-54239333D01*
X151994190Y-54620285D01*
X151565619Y-53667904D02*
X151518000Y-53620285D01*
X151470380Y-53525047D01*
X151470380Y-53286952D01*
X151518000Y-53191714D01*
X151565619Y-53144095D01*
X151660857Y-53096476D01*
X151756095Y-53096476D01*
X151898952Y-53144095D01*
X152470380Y-53715523D01*
X152470380Y-53096476D01*
X151803714Y-52239333D02*
X152470380Y-52239333D01*
X151422761Y-52477428D02*
X152137047Y-52715523D01*
X152137047Y-52096476D01*
X144488879Y-49454296D02*
X144488879Y-50263820D01*
X144536498Y-50359058D01*
X144584117Y-50406677D01*
X144679355Y-50454296D01*
X144869831Y-50454296D01*
X144965069Y-50406677D01*
X145012688Y-50359058D01*
X145060307Y-50263820D01*
X145060307Y-49454296D01*
X145441260Y-49454296D02*
X146060307Y-49454296D01*
X145726974Y-49835249D01*
X145869831Y-49835249D01*
X145965069Y-49882868D01*
X146012688Y-49930487D01*
X146060307Y-50025725D01*
X146060307Y-50263820D01*
X146012688Y-50359058D01*
X145965069Y-50406677D01*
X145869831Y-50454296D01*
X145584117Y-50454296D01*
X145488879Y-50406677D01*
X145441260Y-50359058D01*
X140579142Y-50810666D02*
X140626761Y-50858285D01*
X140674380Y-51001142D01*
X140674380Y-51096380D01*
X140626761Y-51239238D01*
X140531523Y-51334476D01*
X140436285Y-51382095D01*
X140245809Y-51429714D01*
X140102952Y-51429714D01*
X139912476Y-51382095D01*
X139817238Y-51334476D01*
X139722000Y-51239238D01*
X139674380Y-51096380D01*
X139674380Y-51001142D01*
X139722000Y-50858285D01*
X139769619Y-50810666D01*
X140674380Y-50334476D02*
X140674380Y-50144000D01*
X140626761Y-50048761D01*
X140579142Y-50001142D01*
X140436285Y-49905904D01*
X140245809Y-49858285D01*
X139864857Y-49858285D01*
X139769619Y-49905904D01*
X139722000Y-49953523D01*
X139674380Y-50048761D01*
X139674380Y-50239238D01*
X139722000Y-50334476D01*
X139769619Y-50382095D01*
X139864857Y-50429714D01*
X140102952Y-50429714D01*
X140198190Y-50382095D01*
X140245809Y-50334476D01*
X140293428Y-50239238D01*
X140293428Y-50048761D01*
X140245809Y-49953523D01*
X140198190Y-49905904D01*
X140102952Y-49858285D01*
X139901110Y-71317352D02*
X139194003Y-70610245D01*
X140574545Y-70509230D02*
X140574545Y-70576574D01*
X140507202Y-70711261D01*
X140439858Y-70778604D01*
X140305171Y-70845948D01*
X140170484Y-70845948D01*
X140069469Y-70812276D01*
X139901110Y-70711261D01*
X139800095Y-70610245D01*
X139699080Y-70441887D01*
X139665408Y-70340871D01*
X139665408Y-70206184D01*
X139732751Y-70071497D01*
X139800095Y-70004154D01*
X139934782Y-69936810D01*
X140002125Y-69936810D01*
X141315324Y-69903138D02*
X140911263Y-70307200D01*
X141113293Y-70105169D02*
X140406187Y-69398062D01*
X140439858Y-69566421D01*
X140439858Y-69701108D01*
X140406187Y-69802123D01*
X136595142Y-68627666D02*
X136642761Y-68675285D01*
X136690380Y-68818142D01*
X136690380Y-68913380D01*
X136642761Y-69056238D01*
X136547523Y-69151476D01*
X136452285Y-69199095D01*
X136261809Y-69246714D01*
X136118952Y-69246714D01*
X135928476Y-69199095D01*
X135833238Y-69151476D01*
X135738000Y-69056238D01*
X135690380Y-68913380D01*
X135690380Y-68818142D01*
X135738000Y-68675285D01*
X135785619Y-68627666D01*
X135785619Y-68246714D02*
X135738000Y-68199095D01*
X135690380Y-68103857D01*
X135690380Y-67865761D01*
X135738000Y-67770523D01*
X135785619Y-67722904D01*
X135880857Y-67675285D01*
X135976095Y-67675285D01*
X136118952Y-67722904D01*
X136690380Y-68294333D01*
X136690380Y-67675285D01*
X131792267Y-69309859D02*
X131744648Y-69357478D01*
X131601791Y-69405097D01*
X131506553Y-69405097D01*
X131363695Y-69357478D01*
X131268457Y-69262240D01*
X131220838Y-69167002D01*
X131173219Y-68976526D01*
X131173219Y-68833669D01*
X131220838Y-68643193D01*
X131268457Y-68547955D01*
X131363695Y-68452717D01*
X131506553Y-68405097D01*
X131601791Y-68405097D01*
X131744648Y-68452717D01*
X131792267Y-68500336D01*
X132744648Y-69405097D02*
X132173219Y-69405097D01*
X132458934Y-69405097D02*
X132458934Y-68405097D01*
X132363695Y-68547955D01*
X132268457Y-68643193D01*
X132173219Y-68690812D01*
X151328380Y-66206666D02*
X150852190Y-66540000D01*
X151328380Y-66778095D02*
X150328380Y-66778095D01*
X150328380Y-66397142D01*
X150376000Y-66301904D01*
X150423619Y-66254285D01*
X150518857Y-66206666D01*
X150661714Y-66206666D01*
X150756952Y-66254285D01*
X150804571Y-66301904D01*
X150852190Y-66397142D01*
X150852190Y-66778095D01*
X150328380Y-65873333D02*
X150328380Y-65254285D01*
X150709333Y-65587619D01*
X150709333Y-65444761D01*
X150756952Y-65349523D01*
X150804571Y-65301904D01*
X150899809Y-65254285D01*
X151137904Y-65254285D01*
X151233142Y-65301904D01*
X151280761Y-65349523D01*
X151328380Y-65444761D01*
X151328380Y-65730476D01*
X151280761Y-65825714D01*
X151233142Y-65873333D01*
X132675333Y-59031142D02*
X132627714Y-59078761D01*
X132484857Y-59126380D01*
X132389619Y-59126380D01*
X132246761Y-59078761D01*
X132151523Y-58983523D01*
X132103904Y-58888285D01*
X132056285Y-58697809D01*
X132056285Y-58554952D01*
X132103904Y-58364476D01*
X132151523Y-58269238D01*
X132246761Y-58174000D01*
X132389619Y-58126380D01*
X132484857Y-58126380D01*
X132627714Y-58174000D01*
X132675333Y-58221619D01*
X133008666Y-58126380D02*
X133627714Y-58126380D01*
X133294380Y-58507333D01*
X133437238Y-58507333D01*
X133532476Y-58554952D01*
X133580095Y-58602571D01*
X133627714Y-58697809D01*
X133627714Y-58935904D01*
X133580095Y-59031142D01*
X133532476Y-59078761D01*
X133437238Y-59126380D01*
X133151523Y-59126380D01*
X133056285Y-59078761D01*
X133008666Y-59031142D01*
X131683767Y-66270597D02*
X131350434Y-65794407D01*
X131112338Y-66270597D02*
X131112338Y-65270597D01*
X131493291Y-65270597D01*
X131588529Y-65318217D01*
X131636148Y-65365836D01*
X131683767Y-65461074D01*
X131683767Y-65603931D01*
X131636148Y-65699169D01*
X131588529Y-65746788D01*
X131493291Y-65794407D01*
X131112338Y-65794407D01*
X132636148Y-66270597D02*
X132064719Y-66270597D01*
X132350434Y-66270597D02*
X132350434Y-65270597D01*
X132255195Y-65413455D01*
X132159957Y-65508693D01*
X132064719Y-65556312D01*
X135842496Y-73927789D02*
X135366306Y-74261122D01*
X135842496Y-74499217D02*
X134842496Y-74499217D01*
X134842496Y-74118265D01*
X134890116Y-74023027D01*
X134937735Y-73975408D01*
X135032973Y-73927789D01*
X135175830Y-73927789D01*
X135271068Y-73975408D01*
X135318687Y-74023027D01*
X135366306Y-74118265D01*
X135366306Y-74499217D01*
X135175830Y-73070646D02*
X135842496Y-73070646D01*
X134794877Y-73308741D02*
X135509163Y-73546836D01*
X135509163Y-72927789D01*
X135842496Y-72023027D02*
X135842496Y-72594455D01*
X135842496Y-72308741D02*
X134842496Y-72308741D01*
X134985354Y-72403979D01*
X135080592Y-72499217D01*
X135128211Y-72594455D01*
X138207809Y-55602190D02*
X138207809Y-56078380D01*
X137874476Y-55078380D02*
X138207809Y-55602190D01*
X138541142Y-55078380D01*
X139398285Y-56078380D02*
X138826857Y-56078380D01*
X139112571Y-56078380D02*
X139112571Y-55078380D01*
X139017333Y-55221238D01*
X138922095Y-55316476D01*
X138826857Y-55364095D01*
X135977333Y-52583103D02*
X135929714Y-52630722D01*
X135786857Y-52678341D01*
X135691619Y-52678341D01*
X135548761Y-52630722D01*
X135453523Y-52535484D01*
X135405904Y-52440246D01*
X135358285Y-52249770D01*
X135358285Y-52106913D01*
X135405904Y-51916437D01*
X135453523Y-51821199D01*
X135548761Y-51725961D01*
X135691619Y-51678341D01*
X135786857Y-51678341D01*
X135929714Y-51725961D01*
X135977333Y-51773580D01*
X136834476Y-52011675D02*
X136834476Y-52678341D01*
X136596380Y-51630722D02*
X136358285Y-52345008D01*
X136977333Y-52345008D01*
X141163054Y-73920717D02*
X140686864Y-74254050D01*
X141163054Y-74492145D02*
X140163054Y-74492145D01*
X140163054Y-74111193D01*
X140210674Y-74015955D01*
X140258293Y-73968336D01*
X140353531Y-73920717D01*
X140496388Y-73920717D01*
X140591626Y-73968336D01*
X140639245Y-74015955D01*
X140686864Y-74111193D01*
X140686864Y-74492145D01*
X140496388Y-73063574D02*
X141163054Y-73063574D01*
X140115435Y-73301669D02*
X140829721Y-73539764D01*
X140829721Y-72920717D01*
X140258293Y-72587383D02*
X140210674Y-72539764D01*
X140163054Y-72444526D01*
X140163054Y-72206431D01*
X140210674Y-72111193D01*
X140258293Y-72063574D01*
X140353531Y-72015955D01*
X140448769Y-72015955D01*
X140591626Y-72063574D01*
X141163054Y-72635002D01*
X141163054Y-72015955D01*
X180046380Y-97615333D02*
X180760666Y-97615333D01*
X180903523Y-97662952D01*
X180998761Y-97758190D01*
X181046380Y-97901047D01*
X181046380Y-97996285D01*
X180046380Y-97234380D02*
X180046380Y-96615333D01*
X180427333Y-96948666D01*
X180427333Y-96805809D01*
X180474952Y-96710571D01*
X180522571Y-96662952D01*
X180617809Y-96615333D01*
X180855904Y-96615333D01*
X180951142Y-96662952D01*
X180998761Y-96710571D01*
X181046380Y-96805809D01*
X181046380Y-97091523D01*
X180998761Y-97186761D01*
X180951142Y-97234380D01*
X173569523Y-45410380D02*
X173569523Y-44410380D01*
X173807619Y-44410380D01*
X173950476Y-44458000D01*
X174045714Y-44553238D01*
X174093333Y-44648476D01*
X174140952Y-44838952D01*
X174140952Y-44981809D01*
X174093333Y-45172285D01*
X174045714Y-45267523D01*
X173950476Y-45362761D01*
X173807619Y-45410380D01*
X173569523Y-45410380D01*
X175093333Y-45410380D02*
X174521904Y-45410380D01*
X174807619Y-45410380D02*
X174807619Y-44410380D01*
X174712380Y-44553238D01*
X174617142Y-44648476D01*
X174521904Y-44696095D01*
X175712380Y-44410380D02*
X175807619Y-44410380D01*
X175902857Y-44458000D01*
X175950476Y-44505619D01*
X175998095Y-44600857D01*
X176045714Y-44791333D01*
X176045714Y-45029428D01*
X175998095Y-45219904D01*
X175950476Y-45315142D01*
X175902857Y-45362761D01*
X175807619Y-45410380D01*
X175712380Y-45410380D01*
X175617142Y-45362761D01*
X175569523Y-45315142D01*
X175521904Y-45219904D01*
X175474285Y-45029428D01*
X175474285Y-44791333D01*
X175521904Y-44600857D01*
X175569523Y-44505619D01*
X175617142Y-44458000D01*
X175712380Y-44410380D01*
X176426666Y-44505619D02*
X176474285Y-44458000D01*
X176569523Y-44410380D01*
X176807619Y-44410380D01*
X176902857Y-44458000D01*
X176950476Y-44505619D01*
X176998095Y-44600857D01*
X176998095Y-44696095D01*
X176950476Y-44838952D01*
X176379047Y-45410380D01*
X176998095Y-45410380D01*
X170339785Y-65360928D02*
X170368357Y-65389500D01*
X170396928Y-65475214D01*
X170396928Y-65532357D01*
X170368357Y-65618071D01*
X170311214Y-65675214D01*
X170254071Y-65703785D01*
X170139785Y-65732357D01*
X170054071Y-65732357D01*
X169939785Y-65703785D01*
X169882642Y-65675214D01*
X169825500Y-65618071D01*
X169796928Y-65532357D01*
X169796928Y-65475214D01*
X169825500Y-65389500D01*
X169854071Y-65360928D01*
X170396928Y-64789500D02*
X170396928Y-65132357D01*
X170396928Y-64960928D02*
X169796928Y-64960928D01*
X169882642Y-65018071D01*
X169939785Y-65075214D01*
X169968357Y-65132357D01*
X169796928Y-64418071D02*
X169796928Y-64360928D01*
X169825500Y-64303785D01*
X169854071Y-64275214D01*
X169911214Y-64246642D01*
X170025500Y-64218071D01*
X170168357Y-64218071D01*
X170282642Y-64246642D01*
X170339785Y-64275214D01*
X170368357Y-64303785D01*
X170396928Y-64360928D01*
X170396928Y-64418071D01*
X170368357Y-64475214D01*
X170339785Y-64503785D01*
X170282642Y-64532357D01*
X170168357Y-64560928D01*
X170025500Y-64560928D01*
X169911214Y-64532357D01*
X169854071Y-64503785D01*
X169825500Y-64475214D01*
X169796928Y-64418071D01*
X169796928Y-64018071D02*
X169796928Y-63646642D01*
X170025500Y-63846642D01*
X170025500Y-63760928D01*
X170054071Y-63703785D01*
X170082642Y-63675214D01*
X170139785Y-63646642D01*
X170282642Y-63646642D01*
X170339785Y-63675214D01*
X170368357Y-63703785D01*
X170396928Y-63760928D01*
X170396928Y-63932357D01*
X170368357Y-63989500D01*
X170339785Y-64018071D01*
X171170952Y-57129942D02*
X171123333Y-57177561D01*
X170980476Y-57225180D01*
X170885238Y-57225180D01*
X170742380Y-57177561D01*
X170647142Y-57082323D01*
X170599523Y-56987085D01*
X170551904Y-56796609D01*
X170551904Y-56653752D01*
X170599523Y-56463276D01*
X170647142Y-56368038D01*
X170742380Y-56272800D01*
X170885238Y-56225180D01*
X170980476Y-56225180D01*
X171123333Y-56272800D01*
X171170952Y-56320419D01*
X172123333Y-57225180D02*
X171551904Y-57225180D01*
X171837619Y-57225180D02*
X171837619Y-56225180D01*
X171742380Y-56368038D01*
X171647142Y-56463276D01*
X171551904Y-56510895D01*
X172742380Y-56225180D02*
X172837619Y-56225180D01*
X172932857Y-56272800D01*
X172980476Y-56320419D01*
X173028095Y-56415657D01*
X173075714Y-56606133D01*
X173075714Y-56844228D01*
X173028095Y-57034704D01*
X172980476Y-57129942D01*
X172932857Y-57177561D01*
X172837619Y-57225180D01*
X172742380Y-57225180D01*
X172647142Y-57177561D01*
X172599523Y-57129942D01*
X172551904Y-57034704D01*
X172504285Y-56844228D01*
X172504285Y-56606133D01*
X172551904Y-56415657D01*
X172599523Y-56320419D01*
X172647142Y-56272800D01*
X172742380Y-56225180D01*
X173456666Y-56320419D02*
X173504285Y-56272800D01*
X173599523Y-56225180D01*
X173837619Y-56225180D01*
X173932857Y-56272800D01*
X173980476Y-56320419D01*
X174028095Y-56415657D01*
X174028095Y-56510895D01*
X173980476Y-56653752D01*
X173409047Y-57225180D01*
X174028095Y-57225180D01*
X166861214Y-59291880D02*
X166861214Y-60101404D01*
X166908833Y-60196642D01*
X166956452Y-60244261D01*
X167051690Y-60291880D01*
X167242166Y-60291880D01*
X167337404Y-60244261D01*
X167385023Y-60196642D01*
X167432642Y-60101404D01*
X167432642Y-59291880D01*
X168432642Y-60291880D02*
X167861214Y-60291880D01*
X168146928Y-60291880D02*
X168146928Y-59291880D01*
X168051690Y-59434738D01*
X167956452Y-59529976D01*
X167861214Y-59577595D01*
X169051690Y-59291880D02*
X169146928Y-59291880D01*
X169242166Y-59339500D01*
X169289785Y-59387119D01*
X169337404Y-59482357D01*
X169385023Y-59672833D01*
X169385023Y-59910928D01*
X169337404Y-60101404D01*
X169289785Y-60196642D01*
X169242166Y-60244261D01*
X169146928Y-60291880D01*
X169051690Y-60291880D01*
X168956452Y-60244261D01*
X168908833Y-60196642D01*
X168861214Y-60101404D01*
X168813595Y-59910928D01*
X168813595Y-59672833D01*
X168861214Y-59482357D01*
X168908833Y-59387119D01*
X168956452Y-59339500D01*
X169051690Y-59291880D01*
X170337404Y-60291880D02*
X169765976Y-60291880D01*
X170051690Y-60291880D02*
X170051690Y-59291880D01*
X169956452Y-59434738D01*
X169861214Y-59529976D01*
X169765976Y-59577595D01*
X165057642Y-81087119D02*
X165105261Y-81134738D01*
X165152880Y-81277595D01*
X165152880Y-81372833D01*
X165105261Y-81515690D01*
X165010023Y-81610928D01*
X164914785Y-81658547D01*
X164724309Y-81706166D01*
X164581452Y-81706166D01*
X164390976Y-81658547D01*
X164295738Y-81610928D01*
X164200500Y-81515690D01*
X164152880Y-81372833D01*
X164152880Y-81277595D01*
X164200500Y-81134738D01*
X164248119Y-81087119D01*
X164152880Y-80468071D02*
X164152880Y-80277595D01*
X164200500Y-80182357D01*
X164295738Y-80087119D01*
X164486214Y-80039500D01*
X164819547Y-80039500D01*
X165010023Y-80087119D01*
X165105261Y-80182357D01*
X165152880Y-80277595D01*
X165152880Y-80468071D01*
X165105261Y-80563309D01*
X165010023Y-80658547D01*
X164819547Y-80706166D01*
X164486214Y-80706166D01*
X164295738Y-80658547D01*
X164200500Y-80563309D01*
X164152880Y-80468071D01*
X164152880Y-79610928D02*
X164962404Y-79610928D01*
X165057642Y-79563309D01*
X165105261Y-79515690D01*
X165152880Y-79420452D01*
X165152880Y-79229976D01*
X165105261Y-79134738D01*
X165057642Y-79087119D01*
X164962404Y-79039500D01*
X164152880Y-79039500D01*
X164152880Y-78706166D02*
X164152880Y-78134738D01*
X165152880Y-78420452D02*
X164152880Y-78420452D01*
X165152880Y-77277595D02*
X165152880Y-77849023D01*
X165152880Y-77563309D02*
X164152880Y-77563309D01*
X164295738Y-77658547D01*
X164390976Y-77753785D01*
X164438595Y-77849023D01*
X164152880Y-76658547D02*
X164152880Y-76563309D01*
X164200500Y-76468071D01*
X164248119Y-76420452D01*
X164343357Y-76372833D01*
X164533833Y-76325214D01*
X164771928Y-76325214D01*
X164962404Y-76372833D01*
X165057642Y-76420452D01*
X165105261Y-76468071D01*
X165152880Y-76563309D01*
X165152880Y-76658547D01*
X165105261Y-76753785D01*
X165057642Y-76801404D01*
X164962404Y-76849023D01*
X164771928Y-76896642D01*
X164533833Y-76896642D01*
X164343357Y-76849023D01*
X164248119Y-76801404D01*
X164200500Y-76753785D01*
X164152880Y-76658547D01*
X164248119Y-75944261D02*
X164200500Y-75896642D01*
X164152880Y-75801404D01*
X164152880Y-75563309D01*
X164200500Y-75468071D01*
X164248119Y-75420452D01*
X164343357Y-75372833D01*
X164438595Y-75372833D01*
X164581452Y-75420452D01*
X165152880Y-75991880D01*
X165152880Y-75372833D01*
X167581452Y-61716880D02*
X167105261Y-61716880D01*
X167105261Y-60716880D01*
X168438595Y-61716880D02*
X167867166Y-61716880D01*
X168152880Y-61716880D02*
X168152880Y-60716880D01*
X168057642Y-60859738D01*
X167962404Y-60954976D01*
X167867166Y-61002595D01*
X169057642Y-60716880D02*
X169152880Y-60716880D01*
X169248119Y-60764500D01*
X169295738Y-60812119D01*
X169343357Y-60907357D01*
X169390976Y-61097833D01*
X169390976Y-61335928D01*
X169343357Y-61526404D01*
X169295738Y-61621642D01*
X169248119Y-61669261D01*
X169152880Y-61716880D01*
X169057642Y-61716880D01*
X168962404Y-61669261D01*
X168914785Y-61621642D01*
X168867166Y-61526404D01*
X168819547Y-61335928D01*
X168819547Y-61097833D01*
X168867166Y-60907357D01*
X168914785Y-60812119D01*
X168962404Y-60764500D01*
X169057642Y-60716880D01*
X170343357Y-61716880D02*
X169771928Y-61716880D01*
X170057642Y-61716880D02*
X170057642Y-60716880D01*
X169962404Y-60859738D01*
X169867166Y-60954976D01*
X169771928Y-61002595D01*
X171457642Y-77337119D02*
X171505261Y-77384738D01*
X171552880Y-77527595D01*
X171552880Y-77622833D01*
X171505261Y-77765690D01*
X171410023Y-77860928D01*
X171314785Y-77908547D01*
X171124309Y-77956166D01*
X170981452Y-77956166D01*
X170790976Y-77908547D01*
X170695738Y-77860928D01*
X170600500Y-77765690D01*
X170552880Y-77622833D01*
X170552880Y-77527595D01*
X170600500Y-77384738D01*
X170648119Y-77337119D01*
X170552880Y-76718071D02*
X170552880Y-76527595D01*
X170600500Y-76432357D01*
X170695738Y-76337119D01*
X170886214Y-76289500D01*
X171219547Y-76289500D01*
X171410023Y-76337119D01*
X171505261Y-76432357D01*
X171552880Y-76527595D01*
X171552880Y-76718071D01*
X171505261Y-76813309D01*
X171410023Y-76908547D01*
X171219547Y-76956166D01*
X170886214Y-76956166D01*
X170695738Y-76908547D01*
X170600500Y-76813309D01*
X170552880Y-76718071D01*
X170552880Y-75860928D02*
X171362404Y-75860928D01*
X171457642Y-75813309D01*
X171505261Y-75765690D01*
X171552880Y-75670452D01*
X171552880Y-75479976D01*
X171505261Y-75384738D01*
X171457642Y-75337119D01*
X171362404Y-75289500D01*
X170552880Y-75289500D01*
X170552880Y-74956166D02*
X170552880Y-74384738D01*
X171552880Y-74670452D02*
X170552880Y-74670452D01*
X171552880Y-73527595D02*
X171552880Y-74099023D01*
X171552880Y-73813309D02*
X170552880Y-73813309D01*
X170695738Y-73908547D01*
X170790976Y-74003785D01*
X170838595Y-74099023D01*
X170552880Y-72908547D02*
X170552880Y-72813309D01*
X170600500Y-72718071D01*
X170648119Y-72670452D01*
X170743357Y-72622833D01*
X170933833Y-72575214D01*
X171171928Y-72575214D01*
X171362404Y-72622833D01*
X171457642Y-72670452D01*
X171505261Y-72718071D01*
X171552880Y-72813309D01*
X171552880Y-72908547D01*
X171505261Y-73003785D01*
X171457642Y-73051404D01*
X171362404Y-73099023D01*
X171171928Y-73146642D01*
X170933833Y-73146642D01*
X170743357Y-73099023D01*
X170648119Y-73051404D01*
X170600500Y-73003785D01*
X170552880Y-72908547D01*
X171552880Y-71622833D02*
X171552880Y-72194261D01*
X171552880Y-71908547D02*
X170552880Y-71908547D01*
X170695738Y-72003785D01*
X170790976Y-72099023D01*
X170838595Y-72194261D01*
X164185880Y-56991547D02*
X163709690Y-57324880D01*
X164185880Y-57562976D02*
X163185880Y-57562976D01*
X163185880Y-57182023D01*
X163233500Y-57086785D01*
X163281119Y-57039166D01*
X163376357Y-56991547D01*
X163519214Y-56991547D01*
X163614452Y-57039166D01*
X163662071Y-57086785D01*
X163709690Y-57182023D01*
X163709690Y-57562976D01*
X164185880Y-56039166D02*
X164185880Y-56610595D01*
X164185880Y-56324880D02*
X163185880Y-56324880D01*
X163328738Y-56420119D01*
X163423976Y-56515357D01*
X163471595Y-56610595D01*
X163185880Y-55420119D02*
X163185880Y-55324880D01*
X163233500Y-55229642D01*
X163281119Y-55182023D01*
X163376357Y-55134404D01*
X163566833Y-55086785D01*
X163804928Y-55086785D01*
X163995404Y-55134404D01*
X164090642Y-55182023D01*
X164138261Y-55229642D01*
X164185880Y-55324880D01*
X164185880Y-55420119D01*
X164138261Y-55515357D01*
X164090642Y-55562976D01*
X163995404Y-55610595D01*
X163804928Y-55658214D01*
X163566833Y-55658214D01*
X163376357Y-55610595D01*
X163281119Y-55562976D01*
X163233500Y-55515357D01*
X163185880Y-55420119D01*
X163519214Y-54229642D02*
X164185880Y-54229642D01*
X163138261Y-54467738D02*
X163852547Y-54705833D01*
X163852547Y-54086785D01*
X177631452Y-64541880D02*
X177298119Y-64065690D01*
X177060023Y-64541880D02*
X177060023Y-63541880D01*
X177440976Y-63541880D01*
X177536214Y-63589500D01*
X177583833Y-63637119D01*
X177631452Y-63732357D01*
X177631452Y-63875214D01*
X177583833Y-63970452D01*
X177536214Y-64018071D01*
X177440976Y-64065690D01*
X177060023Y-64065690D01*
X178583833Y-64541880D02*
X178012404Y-64541880D01*
X178298119Y-64541880D02*
X178298119Y-63541880D01*
X178202880Y-63684738D01*
X178107642Y-63779976D01*
X178012404Y-63827595D01*
X179202880Y-63541880D02*
X179298119Y-63541880D01*
X179393357Y-63589500D01*
X179440976Y-63637119D01*
X179488595Y-63732357D01*
X179536214Y-63922833D01*
X179536214Y-64160928D01*
X179488595Y-64351404D01*
X179440976Y-64446642D01*
X179393357Y-64494261D01*
X179298119Y-64541880D01*
X179202880Y-64541880D01*
X179107642Y-64494261D01*
X179060023Y-64446642D01*
X179012404Y-64351404D01*
X178964785Y-64160928D01*
X178964785Y-63922833D01*
X179012404Y-63732357D01*
X179060023Y-63637119D01*
X179107642Y-63589500D01*
X179202880Y-63541880D01*
X179869547Y-63541880D02*
X180488595Y-63541880D01*
X180155261Y-63922833D01*
X180298119Y-63922833D01*
X180393357Y-63970452D01*
X180440976Y-64018071D01*
X180488595Y-64113309D01*
X180488595Y-64351404D01*
X180440976Y-64446642D01*
X180393357Y-64494261D01*
X180298119Y-64541880D01*
X180012404Y-64541880D01*
X179917166Y-64494261D01*
X179869547Y-64446642D01*
X161452880Y-64908547D02*
X160976690Y-65241880D01*
X161452880Y-65479976D02*
X160452880Y-65479976D01*
X160452880Y-65099023D01*
X160500500Y-65003785D01*
X160548119Y-64956166D01*
X160643357Y-64908547D01*
X160786214Y-64908547D01*
X160881452Y-64956166D01*
X160929071Y-65003785D01*
X160976690Y-65099023D01*
X160976690Y-65479976D01*
X161452880Y-63956166D02*
X161452880Y-64527595D01*
X161452880Y-64241880D02*
X160452880Y-64241880D01*
X160595738Y-64337119D01*
X160690976Y-64432357D01*
X160738595Y-64527595D01*
X160452880Y-63337119D02*
X160452880Y-63241880D01*
X160500500Y-63146642D01*
X160548119Y-63099023D01*
X160643357Y-63051404D01*
X160833833Y-63003785D01*
X161071928Y-63003785D01*
X161262404Y-63051404D01*
X161357642Y-63099023D01*
X161405261Y-63146642D01*
X161452880Y-63241880D01*
X161452880Y-63337119D01*
X161405261Y-63432357D01*
X161357642Y-63479976D01*
X161262404Y-63527595D01*
X161071928Y-63575214D01*
X160833833Y-63575214D01*
X160643357Y-63527595D01*
X160548119Y-63479976D01*
X160500500Y-63432357D01*
X160452880Y-63337119D01*
X160452880Y-62099023D02*
X160452880Y-62575214D01*
X160929071Y-62622833D01*
X160881452Y-62575214D01*
X160833833Y-62479976D01*
X160833833Y-62241880D01*
X160881452Y-62146642D01*
X160929071Y-62099023D01*
X161024309Y-62051404D01*
X161262404Y-62051404D01*
X161357642Y-62099023D01*
X161405261Y-62146642D01*
X161452880Y-62241880D01*
X161452880Y-62479976D01*
X161405261Y-62575214D01*
X161357642Y-62622833D01*
X169107642Y-77112119D02*
X169155261Y-77159738D01*
X169202880Y-77302595D01*
X169202880Y-77397833D01*
X169155261Y-77540690D01*
X169060023Y-77635928D01*
X168964785Y-77683547D01*
X168774309Y-77731166D01*
X168631452Y-77731166D01*
X168440976Y-77683547D01*
X168345738Y-77635928D01*
X168250500Y-77540690D01*
X168202880Y-77397833D01*
X168202880Y-77302595D01*
X168250500Y-77159738D01*
X168298119Y-77112119D01*
X168202880Y-76493071D02*
X168202880Y-76302595D01*
X168250500Y-76207357D01*
X168345738Y-76112119D01*
X168536214Y-76064500D01*
X168869547Y-76064500D01*
X169060023Y-76112119D01*
X169155261Y-76207357D01*
X169202880Y-76302595D01*
X169202880Y-76493071D01*
X169155261Y-76588309D01*
X169060023Y-76683547D01*
X168869547Y-76731166D01*
X168536214Y-76731166D01*
X168345738Y-76683547D01*
X168250500Y-76588309D01*
X168202880Y-76493071D01*
X168202880Y-75635928D02*
X169012404Y-75635928D01*
X169107642Y-75588309D01*
X169155261Y-75540690D01*
X169202880Y-75445452D01*
X169202880Y-75254976D01*
X169155261Y-75159738D01*
X169107642Y-75112119D01*
X169012404Y-75064500D01*
X168202880Y-75064500D01*
X168202880Y-74731166D02*
X168202880Y-74159738D01*
X169202880Y-74445452D02*
X168202880Y-74445452D01*
X169202880Y-73302595D02*
X169202880Y-73874023D01*
X169202880Y-73588309D02*
X168202880Y-73588309D01*
X168345738Y-73683547D01*
X168440976Y-73778785D01*
X168488595Y-73874023D01*
X168202880Y-72683547D02*
X168202880Y-72588309D01*
X168250500Y-72493071D01*
X168298119Y-72445452D01*
X168393357Y-72397833D01*
X168583833Y-72350214D01*
X168821928Y-72350214D01*
X169012404Y-72397833D01*
X169107642Y-72445452D01*
X169155261Y-72493071D01*
X169202880Y-72588309D01*
X169202880Y-72683547D01*
X169155261Y-72778785D01*
X169107642Y-72826404D01*
X169012404Y-72874023D01*
X168821928Y-72921642D01*
X168583833Y-72921642D01*
X168393357Y-72874023D01*
X168298119Y-72826404D01*
X168250500Y-72778785D01*
X168202880Y-72683547D01*
X168202880Y-72016880D02*
X168202880Y-71397833D01*
X168583833Y-71731166D01*
X168583833Y-71588309D01*
X168631452Y-71493071D01*
X168679071Y-71445452D01*
X168774309Y-71397833D01*
X169012404Y-71397833D01*
X169107642Y-71445452D01*
X169155261Y-71493071D01*
X169202880Y-71588309D01*
X169202880Y-71874023D01*
X169155261Y-71969261D01*
X169107642Y-72016880D01*
X169853452Y-45402880D02*
X169520119Y-44926690D01*
X169282023Y-45402880D02*
X169282023Y-44402880D01*
X169662976Y-44402880D01*
X169758214Y-44450500D01*
X169805833Y-44498119D01*
X169853452Y-44593357D01*
X169853452Y-44736214D01*
X169805833Y-44831452D01*
X169758214Y-44879071D01*
X169662976Y-44926690D01*
X169282023Y-44926690D01*
X170805833Y-45402880D02*
X170234404Y-45402880D01*
X170520119Y-45402880D02*
X170520119Y-44402880D01*
X170424880Y-44545738D01*
X170329642Y-44640976D01*
X170234404Y-44688595D01*
X171424880Y-44402880D02*
X171520119Y-44402880D01*
X171615357Y-44450500D01*
X171662976Y-44498119D01*
X171710595Y-44593357D01*
X171758214Y-44783833D01*
X171758214Y-45021928D01*
X171710595Y-45212404D01*
X171662976Y-45307642D01*
X171615357Y-45355261D01*
X171520119Y-45402880D01*
X171424880Y-45402880D01*
X171329642Y-45355261D01*
X171282023Y-45307642D01*
X171234404Y-45212404D01*
X171186785Y-45021928D01*
X171186785Y-44783833D01*
X171234404Y-44593357D01*
X171282023Y-44498119D01*
X171329642Y-44450500D01*
X171424880Y-44402880D01*
X172710595Y-45402880D02*
X172139166Y-45402880D01*
X172424880Y-45402880D02*
X172424880Y-44402880D01*
X172329642Y-44545738D01*
X172234404Y-44640976D01*
X172139166Y-44688595D01*
X157702880Y-65204976D02*
X156702880Y-65204976D01*
X156702880Y-64966880D01*
X156750500Y-64824023D01*
X156845738Y-64728785D01*
X156940976Y-64681166D01*
X157131452Y-64633547D01*
X157274309Y-64633547D01*
X157464785Y-64681166D01*
X157560023Y-64728785D01*
X157655261Y-64824023D01*
X157702880Y-64966880D01*
X157702880Y-65204976D01*
X157702880Y-63681166D02*
X157702880Y-64252595D01*
X157702880Y-63966880D02*
X156702880Y-63966880D01*
X156845738Y-64062119D01*
X156940976Y-64157357D01*
X156988595Y-64252595D01*
X156702880Y-63062119D02*
X156702880Y-62966880D01*
X156750500Y-62871642D01*
X156798119Y-62824023D01*
X156893357Y-62776404D01*
X157083833Y-62728785D01*
X157321928Y-62728785D01*
X157512404Y-62776404D01*
X157607642Y-62824023D01*
X157655261Y-62871642D01*
X157702880Y-62966880D01*
X157702880Y-63062119D01*
X157655261Y-63157357D01*
X157607642Y-63204976D01*
X157512404Y-63252595D01*
X157321928Y-63300214D01*
X157083833Y-63300214D01*
X156893357Y-63252595D01*
X156798119Y-63204976D01*
X156750500Y-63157357D01*
X156702880Y-63062119D01*
X156702880Y-62395452D02*
X156702880Y-61776404D01*
X157083833Y-62109738D01*
X157083833Y-61966880D01*
X157131452Y-61871642D01*
X157179071Y-61824023D01*
X157274309Y-61776404D01*
X157512404Y-61776404D01*
X157607642Y-61824023D01*
X157655261Y-61871642D01*
X157702880Y-61966880D01*
X157702880Y-62252595D01*
X157655261Y-62347833D01*
X157607642Y-62395452D01*
X177581452Y-60691880D02*
X177248119Y-60215690D01*
X177010023Y-60691880D02*
X177010023Y-59691880D01*
X177390976Y-59691880D01*
X177486214Y-59739500D01*
X177533833Y-59787119D01*
X177581452Y-59882357D01*
X177581452Y-60025214D01*
X177533833Y-60120452D01*
X177486214Y-60168071D01*
X177390976Y-60215690D01*
X177010023Y-60215690D01*
X178533833Y-60691880D02*
X177962404Y-60691880D01*
X178248119Y-60691880D02*
X178248119Y-59691880D01*
X178152880Y-59834738D01*
X178057642Y-59929976D01*
X177962404Y-59977595D01*
X179152880Y-59691880D02*
X179248119Y-59691880D01*
X179343357Y-59739500D01*
X179390976Y-59787119D01*
X179438595Y-59882357D01*
X179486214Y-60072833D01*
X179486214Y-60310928D01*
X179438595Y-60501404D01*
X179390976Y-60596642D01*
X179343357Y-60644261D01*
X179248119Y-60691880D01*
X179152880Y-60691880D01*
X179057642Y-60644261D01*
X179010023Y-60596642D01*
X178962404Y-60501404D01*
X178914785Y-60310928D01*
X178914785Y-60072833D01*
X178962404Y-59882357D01*
X179010023Y-59787119D01*
X179057642Y-59739500D01*
X179152880Y-59691880D01*
X179867166Y-59787119D02*
X179914785Y-59739500D01*
X180010023Y-59691880D01*
X180248119Y-59691880D01*
X180343357Y-59739500D01*
X180390976Y-59787119D01*
X180438595Y-59882357D01*
X180438595Y-59977595D01*
X180390976Y-60120452D01*
X179819547Y-60691880D01*
X180438595Y-60691880D01*
X174685023Y-52241880D02*
X174685023Y-51241880D01*
X174923119Y-51241880D01*
X175065976Y-51289500D01*
X175161214Y-51384738D01*
X175208833Y-51479976D01*
X175256452Y-51670452D01*
X175256452Y-51813309D01*
X175208833Y-52003785D01*
X175161214Y-52099023D01*
X175065976Y-52194261D01*
X174923119Y-52241880D01*
X174685023Y-52241880D01*
X176208833Y-52241880D02*
X175637404Y-52241880D01*
X175923119Y-52241880D02*
X175923119Y-51241880D01*
X175827880Y-51384738D01*
X175732642Y-51479976D01*
X175637404Y-51527595D01*
X176827880Y-51241880D02*
X176923119Y-51241880D01*
X177018357Y-51289500D01*
X177065976Y-51337119D01*
X177113595Y-51432357D01*
X177161214Y-51622833D01*
X177161214Y-51860928D01*
X177113595Y-52051404D01*
X177065976Y-52146642D01*
X177018357Y-52194261D01*
X176923119Y-52241880D01*
X176827880Y-52241880D01*
X176732642Y-52194261D01*
X176685023Y-52146642D01*
X176637404Y-52051404D01*
X176589785Y-51860928D01*
X176589785Y-51622833D01*
X176637404Y-51432357D01*
X176685023Y-51337119D01*
X176732642Y-51289500D01*
X176827880Y-51241880D01*
X178113595Y-52241880D02*
X177542166Y-52241880D01*
X177827880Y-52241880D02*
X177827880Y-51241880D01*
X177732642Y-51384738D01*
X177637404Y-51479976D01*
X177542166Y-51527595D01*
X171080272Y-55324002D02*
X171032653Y-55371621D01*
X170889796Y-55419240D01*
X170794558Y-55419240D01*
X170651700Y-55371621D01*
X170556462Y-55276383D01*
X170508843Y-55181145D01*
X170461224Y-54990669D01*
X170461224Y-54847812D01*
X170508843Y-54657336D01*
X170556462Y-54562098D01*
X170651700Y-54466860D01*
X170794558Y-54419240D01*
X170889796Y-54419240D01*
X171032653Y-54466860D01*
X171080272Y-54514479D01*
X172032653Y-55419240D02*
X171461224Y-55419240D01*
X171746939Y-55419240D02*
X171746939Y-54419240D01*
X171651700Y-54562098D01*
X171556462Y-54657336D01*
X171461224Y-54704955D01*
X172651700Y-54419240D02*
X172746939Y-54419240D01*
X172842177Y-54466860D01*
X172889796Y-54514479D01*
X172937415Y-54609717D01*
X172985034Y-54800193D01*
X172985034Y-55038288D01*
X172937415Y-55228764D01*
X172889796Y-55324002D01*
X172842177Y-55371621D01*
X172746939Y-55419240D01*
X172651700Y-55419240D01*
X172556462Y-55371621D01*
X172508843Y-55324002D01*
X172461224Y-55228764D01*
X172413605Y-55038288D01*
X172413605Y-54800193D01*
X172461224Y-54609717D01*
X172508843Y-54514479D01*
X172556462Y-54466860D01*
X172651700Y-54419240D01*
X173937415Y-55419240D02*
X173365986Y-55419240D01*
X173651700Y-55419240D02*
X173651700Y-54419240D01*
X173556462Y-54562098D01*
X173461224Y-54657336D01*
X173365986Y-54704955D01*
X166179071Y-57375214D02*
X166179071Y-57708547D01*
X166702880Y-57708547D02*
X165702880Y-57708547D01*
X165702880Y-57232357D01*
X166702880Y-56327595D02*
X166702880Y-56899023D01*
X166702880Y-56613309D02*
X165702880Y-56613309D01*
X165845738Y-56708547D01*
X165940976Y-56803785D01*
X165988595Y-56899023D01*
X165702880Y-55708547D02*
X165702880Y-55613309D01*
X165750500Y-55518071D01*
X165798119Y-55470452D01*
X165893357Y-55422833D01*
X166083833Y-55375214D01*
X166321928Y-55375214D01*
X166512404Y-55422833D01*
X166607642Y-55470452D01*
X166655261Y-55518071D01*
X166702880Y-55613309D01*
X166702880Y-55708547D01*
X166655261Y-55803785D01*
X166607642Y-55851404D01*
X166512404Y-55899023D01*
X166321928Y-55946642D01*
X166083833Y-55946642D01*
X165893357Y-55899023D01*
X165798119Y-55851404D01*
X165750500Y-55803785D01*
X165702880Y-55708547D01*
X166702880Y-54422833D02*
X166702880Y-54994261D01*
X166702880Y-54708547D02*
X165702880Y-54708547D01*
X165845738Y-54803785D01*
X165940976Y-54899023D01*
X165988595Y-54994261D01*
X126205904Y-95147285D02*
X125824952Y-95413952D01*
X126205904Y-95604428D02*
X125405904Y-95604428D01*
X125405904Y-95299666D01*
X125444000Y-95223476D01*
X125482095Y-95185380D01*
X125558285Y-95147285D01*
X125672571Y-95147285D01*
X125748761Y-95185380D01*
X125786857Y-95223476D01*
X125824952Y-95299666D01*
X125824952Y-95604428D01*
X125482095Y-94842523D02*
X125444000Y-94804428D01*
X125405904Y-94728238D01*
X125405904Y-94537761D01*
X125444000Y-94461571D01*
X125482095Y-94423476D01*
X125558285Y-94385380D01*
X125634476Y-94385380D01*
X125748761Y-94423476D01*
X126205904Y-94880619D01*
X126205904Y-94385380D01*
X125482095Y-94080619D02*
X125444000Y-94042523D01*
X125405904Y-93966333D01*
X125405904Y-93775857D01*
X125444000Y-93699666D01*
X125482095Y-93661571D01*
X125558285Y-93623476D01*
X125634476Y-93623476D01*
X125748761Y-93661571D01*
X126205904Y-94118714D01*
X126205904Y-93623476D01*
X131471619Y-91172238D02*
X131424000Y-91267476D01*
X131328761Y-91362714D01*
X131185904Y-91505571D01*
X131138285Y-91600809D01*
X131138285Y-91696047D01*
X131376380Y-91648428D02*
X131328761Y-91743666D01*
X131233523Y-91838904D01*
X131043047Y-91886523D01*
X130709714Y-91886523D01*
X130519238Y-91838904D01*
X130424000Y-91743666D01*
X130376380Y-91648428D01*
X130376380Y-91457952D01*
X130424000Y-91362714D01*
X130519238Y-91267476D01*
X130709714Y-91219857D01*
X131043047Y-91219857D01*
X131233523Y-91267476D01*
X131328761Y-91362714D01*
X131376380Y-91457952D01*
X131376380Y-91648428D01*
X130376380Y-90886523D02*
X130376380Y-90267476D01*
X130757333Y-90600809D01*
X130757333Y-90457952D01*
X130804952Y-90362714D01*
X130852571Y-90315095D01*
X130947809Y-90267476D01*
X131185904Y-90267476D01*
X131281142Y-90315095D01*
X131328761Y-90362714D01*
X131376380Y-90457952D01*
X131376380Y-90743666D01*
X131328761Y-90838904D01*
X131281142Y-90886523D01*
X131270380Y-100146095D02*
X130270380Y-100146095D01*
X130270380Y-99908000D01*
X130318000Y-99765142D01*
X130413238Y-99669904D01*
X130508476Y-99622285D01*
X130698952Y-99574666D01*
X130841809Y-99574666D01*
X131032285Y-99622285D01*
X131127523Y-99669904D01*
X131222761Y-99765142D01*
X131270380Y-99908000D01*
X131270380Y-100146095D01*
X130365619Y-99193714D02*
X130318000Y-99146095D01*
X130270380Y-99050857D01*
X130270380Y-98812761D01*
X130318000Y-98717523D01*
X130365619Y-98669904D01*
X130460857Y-98622285D01*
X130556095Y-98622285D01*
X130698952Y-98669904D01*
X131270380Y-99241333D01*
X131270380Y-98622285D01*
X126144904Y-97941285D02*
X125763952Y-98207952D01*
X126144904Y-98398428D02*
X125344904Y-98398428D01*
X125344904Y-98093666D01*
X125383000Y-98017476D01*
X125421095Y-97979380D01*
X125497285Y-97941285D01*
X125611571Y-97941285D01*
X125687761Y-97979380D01*
X125725857Y-98017476D01*
X125763952Y-98093666D01*
X125763952Y-98398428D01*
X125421095Y-97636523D02*
X125383000Y-97598428D01*
X125344904Y-97522238D01*
X125344904Y-97331761D01*
X125383000Y-97255571D01*
X125421095Y-97217476D01*
X125497285Y-97179380D01*
X125573476Y-97179380D01*
X125687761Y-97217476D01*
X126144904Y-97674619D01*
X126144904Y-97179380D01*
X126144904Y-96417476D02*
X126144904Y-96874619D01*
X126144904Y-96646047D02*
X125344904Y-96646047D01*
X125459190Y-96722238D01*
X125535380Y-96798428D01*
X125573476Y-96874619D01*
X123884380Y-91780857D02*
X123408190Y-92114190D01*
X123884380Y-92352285D02*
X122884380Y-92352285D01*
X122884380Y-91971333D01*
X122932000Y-91876095D01*
X122979619Y-91828476D01*
X123074857Y-91780857D01*
X123217714Y-91780857D01*
X123312952Y-91828476D01*
X123360571Y-91876095D01*
X123408190Y-91971333D01*
X123408190Y-92352285D01*
X122979619Y-91399904D02*
X122932000Y-91352285D01*
X122884380Y-91257047D01*
X122884380Y-91018952D01*
X122932000Y-90923714D01*
X122979619Y-90876095D01*
X123074857Y-90828476D01*
X123170095Y-90828476D01*
X123312952Y-90876095D01*
X123884380Y-91447523D01*
X123884380Y-90828476D01*
X122884380Y-90495142D02*
X122884380Y-89876095D01*
X123265333Y-90209428D01*
X123265333Y-90066571D01*
X123312952Y-89971333D01*
X123360571Y-89923714D01*
X123455809Y-89876095D01*
X123693904Y-89876095D01*
X123789142Y-89923714D01*
X123836761Y-89971333D01*
X123884380Y-90066571D01*
X123884380Y-90352285D01*
X123836761Y-90447523D01*
X123789142Y-90495142D01*
X157520880Y-97702666D02*
X157044690Y-98036000D01*
X157520880Y-98274095D02*
X156520880Y-98274095D01*
X156520880Y-97893142D01*
X156568500Y-97797904D01*
X156616119Y-97750285D01*
X156711357Y-97702666D01*
X156854214Y-97702666D01*
X156949452Y-97750285D01*
X156997071Y-97797904D01*
X157044690Y-97893142D01*
X157044690Y-98274095D01*
X156520880Y-96797904D02*
X156520880Y-97274095D01*
X156997071Y-97321714D01*
X156949452Y-97274095D01*
X156901833Y-97178857D01*
X156901833Y-96940761D01*
X156949452Y-96845523D01*
X156997071Y-96797904D01*
X157092309Y-96750285D01*
X157330404Y-96750285D01*
X157425642Y-96797904D01*
X157473261Y-96845523D01*
X157520880Y-96940761D01*
X157520880Y-97178857D01*
X157473261Y-97274095D01*
X157425642Y-97321714D01*
X144455880Y-96456404D02*
X145265404Y-96456404D01*
X145360642Y-96408785D01*
X145408261Y-96361166D01*
X145455880Y-96265928D01*
X145455880Y-96075452D01*
X145408261Y-95980214D01*
X145360642Y-95932595D01*
X145265404Y-95884976D01*
X144455880Y-95884976D01*
X144455880Y-94980214D02*
X144455880Y-95170690D01*
X144503500Y-95265928D01*
X144551119Y-95313547D01*
X144693976Y-95408785D01*
X144884452Y-95456404D01*
X145265404Y-95456404D01*
X145360642Y-95408785D01*
X145408261Y-95361166D01*
X145455880Y-95265928D01*
X145455880Y-95075452D01*
X145408261Y-94980214D01*
X145360642Y-94932595D01*
X145265404Y-94884976D01*
X145027309Y-94884976D01*
X144932071Y-94932595D01*
X144884452Y-94980214D01*
X144836833Y-95075452D01*
X144836833Y-95265928D01*
X144884452Y-95361166D01*
X144932071Y-95408785D01*
X145027309Y-95456404D01*
X141947642Y-89733380D02*
X141614309Y-89257190D01*
X141376214Y-89733380D02*
X141376214Y-88733380D01*
X141757166Y-88733380D01*
X141852404Y-88781000D01*
X141900023Y-88828619D01*
X141947642Y-88923857D01*
X141947642Y-89066714D01*
X141900023Y-89161952D01*
X141852404Y-89209571D01*
X141757166Y-89257190D01*
X141376214Y-89257190D01*
X142900023Y-89733380D02*
X142328595Y-89733380D01*
X142614309Y-89733380D02*
X142614309Y-88733380D01*
X142519071Y-88876238D01*
X142423833Y-88971476D01*
X142328595Y-89019095D01*
X143471452Y-89161952D02*
X143376214Y-89114333D01*
X143328595Y-89066714D01*
X143280976Y-88971476D01*
X143280976Y-88923857D01*
X143328595Y-88828619D01*
X143376214Y-88781000D01*
X143471452Y-88733380D01*
X143661928Y-88733380D01*
X143757166Y-88781000D01*
X143804785Y-88828619D01*
X143852404Y-88923857D01*
X143852404Y-88971476D01*
X143804785Y-89066714D01*
X143757166Y-89114333D01*
X143661928Y-89161952D01*
X143471452Y-89161952D01*
X143376214Y-89209571D01*
X143328595Y-89257190D01*
X143280976Y-89352428D01*
X143280976Y-89542904D01*
X143328595Y-89638142D01*
X143376214Y-89685761D01*
X143471452Y-89733380D01*
X143661928Y-89733380D01*
X143757166Y-89685761D01*
X143804785Y-89638142D01*
X143852404Y-89542904D01*
X143852404Y-89352428D01*
X143804785Y-89257190D01*
X143757166Y-89209571D01*
X143661928Y-89161952D01*
X159843404Y-97660380D02*
X159843404Y-96660380D01*
X160081500Y-96660380D01*
X160224357Y-96708000D01*
X160319595Y-96803238D01*
X160367214Y-96898476D01*
X160414833Y-97088952D01*
X160414833Y-97231809D01*
X160367214Y-97422285D01*
X160319595Y-97517523D01*
X160224357Y-97612761D01*
X160081500Y-97660380D01*
X159843404Y-97660380D01*
X161367214Y-97660380D02*
X160795785Y-97660380D01*
X161081500Y-97660380D02*
X161081500Y-96660380D01*
X160986261Y-96803238D01*
X160891023Y-96898476D01*
X160795785Y-96946095D01*
X153020142Y-98559857D02*
X153067761Y-98607476D01*
X153115380Y-98750333D01*
X153115380Y-98845571D01*
X153067761Y-98988428D01*
X152972523Y-99083666D01*
X152877285Y-99131285D01*
X152686809Y-99178904D01*
X152543952Y-99178904D01*
X152353476Y-99131285D01*
X152258238Y-99083666D01*
X152163000Y-98988428D01*
X152115380Y-98845571D01*
X152115380Y-98750333D01*
X152163000Y-98607476D01*
X152210619Y-98559857D01*
X153115380Y-97607476D02*
X153115380Y-98178904D01*
X153115380Y-97893190D02*
X152115380Y-97893190D01*
X152258238Y-97988428D01*
X152353476Y-98083666D01*
X152401095Y-98178904D01*
X152115380Y-96988428D02*
X152115380Y-96893190D01*
X152163000Y-96797952D01*
X152210619Y-96750333D01*
X152305857Y-96702714D01*
X152496333Y-96655095D01*
X152734428Y-96655095D01*
X152924904Y-96702714D01*
X153020142Y-96750333D01*
X153067761Y-96797952D01*
X153115380Y-96893190D01*
X153115380Y-96988428D01*
X153067761Y-97083666D01*
X153020142Y-97131285D01*
X152924904Y-97178904D01*
X152734428Y-97226523D01*
X152496333Y-97226523D01*
X152305857Y-97178904D01*
X152210619Y-97131285D01*
X152163000Y-97083666D01*
X152115380Y-96988428D01*
X140344119Y-86328238D02*
X140296500Y-86423476D01*
X140201261Y-86518714D01*
X140058404Y-86661571D01*
X140010785Y-86756809D01*
X140010785Y-86852047D01*
X140248880Y-86804428D02*
X140201261Y-86899666D01*
X140106023Y-86994904D01*
X139915547Y-87042523D01*
X139582214Y-87042523D01*
X139391738Y-86994904D01*
X139296500Y-86899666D01*
X139248880Y-86804428D01*
X139248880Y-86613952D01*
X139296500Y-86518714D01*
X139391738Y-86423476D01*
X139582214Y-86375857D01*
X139915547Y-86375857D01*
X140106023Y-86423476D01*
X140201261Y-86518714D01*
X140248880Y-86613952D01*
X140248880Y-86804428D01*
X139344119Y-85994904D02*
X139296500Y-85947285D01*
X139248880Y-85852047D01*
X139248880Y-85613952D01*
X139296500Y-85518714D01*
X139344119Y-85471095D01*
X139439357Y-85423476D01*
X139534595Y-85423476D01*
X139677452Y-85471095D01*
X140248880Y-86042523D01*
X140248880Y-85423476D01*
X143820904Y-81869880D02*
X143820904Y-80869880D01*
X144059000Y-80869880D01*
X144201857Y-80917500D01*
X144297095Y-81012738D01*
X144344714Y-81107976D01*
X144392333Y-81298452D01*
X144392333Y-81441309D01*
X144344714Y-81631785D01*
X144297095Y-81727023D01*
X144201857Y-81822261D01*
X144059000Y-81869880D01*
X143820904Y-81869880D01*
X145249476Y-81203214D02*
X145249476Y-81869880D01*
X145011380Y-80822261D02*
X144773285Y-81536547D01*
X145392333Y-81536547D01*
X166568380Y-86272666D02*
X166092190Y-86606000D01*
X166568380Y-86844095D02*
X165568380Y-86844095D01*
X165568380Y-86463142D01*
X165616000Y-86367904D01*
X165663619Y-86320285D01*
X165758857Y-86272666D01*
X165901714Y-86272666D01*
X165996952Y-86320285D01*
X166044571Y-86367904D01*
X166092190Y-86463142D01*
X166092190Y-86844095D01*
X165901714Y-85415523D02*
X166568380Y-85415523D01*
X165520761Y-85653619D02*
X166235047Y-85891714D01*
X166235047Y-85272666D01*
X155946833Y-92462880D02*
X155613500Y-91986690D01*
X155375404Y-92462880D02*
X155375404Y-91462880D01*
X155756357Y-91462880D01*
X155851595Y-91510500D01*
X155899214Y-91558119D01*
X155946833Y-91653357D01*
X155946833Y-91796214D01*
X155899214Y-91891452D01*
X155851595Y-91939071D01*
X155756357Y-91986690D01*
X155375404Y-91986690D01*
X156280166Y-91462880D02*
X156946833Y-91462880D01*
X156518261Y-92462880D01*
X158700404Y-88207833D02*
X158319452Y-88474500D01*
X158700404Y-88664976D02*
X157900404Y-88664976D01*
X157900404Y-88360214D01*
X157938500Y-88284023D01*
X157976595Y-88245928D01*
X158052785Y-88207833D01*
X158167071Y-88207833D01*
X158243261Y-88245928D01*
X158281357Y-88284023D01*
X158319452Y-88360214D01*
X158319452Y-88664976D01*
X158243261Y-87750690D02*
X158205166Y-87826880D01*
X158167071Y-87864976D01*
X158090880Y-87903071D01*
X158052785Y-87903071D01*
X157976595Y-87864976D01*
X157938500Y-87826880D01*
X157900404Y-87750690D01*
X157900404Y-87598309D01*
X157938500Y-87522119D01*
X157976595Y-87484023D01*
X158052785Y-87445928D01*
X158090880Y-87445928D01*
X158167071Y-87484023D01*
X158205166Y-87522119D01*
X158243261Y-87598309D01*
X158243261Y-87750690D01*
X158281357Y-87826880D01*
X158319452Y-87864976D01*
X158395642Y-87903071D01*
X158548023Y-87903071D01*
X158624214Y-87864976D01*
X158662309Y-87826880D01*
X158700404Y-87750690D01*
X158700404Y-87598309D01*
X158662309Y-87522119D01*
X158624214Y-87484023D01*
X158548023Y-87445928D01*
X158395642Y-87445928D01*
X158319452Y-87484023D01*
X158281357Y-87522119D01*
X158243261Y-87598309D01*
X153291780Y-94089457D02*
X152815590Y-94422790D01*
X153291780Y-94660885D02*
X152291780Y-94660885D01*
X152291780Y-94279933D01*
X152339400Y-94184695D01*
X152387019Y-94137076D01*
X152482257Y-94089457D01*
X152625114Y-94089457D01*
X152720352Y-94137076D01*
X152767971Y-94184695D01*
X152815590Y-94279933D01*
X152815590Y-94660885D01*
X153291780Y-93137076D02*
X153291780Y-93708504D01*
X153291780Y-93422790D02*
X152291780Y-93422790D01*
X152434638Y-93518028D01*
X152529876Y-93613266D01*
X152577495Y-93708504D01*
X152291780Y-92803742D02*
X152291780Y-92184695D01*
X152672733Y-92518028D01*
X152672733Y-92375171D01*
X152720352Y-92279933D01*
X152767971Y-92232314D01*
X152863209Y-92184695D01*
X153101304Y-92184695D01*
X153196542Y-92232314D01*
X153244161Y-92279933D01*
X153291780Y-92375171D01*
X153291780Y-92660885D01*
X153244161Y-92756123D01*
X153196542Y-92803742D01*
X135765780Y-89828666D02*
X135289590Y-90162000D01*
X135765780Y-90400095D02*
X134765780Y-90400095D01*
X134765780Y-90019142D01*
X134813400Y-89923904D01*
X134861019Y-89876285D01*
X134956257Y-89828666D01*
X135099114Y-89828666D01*
X135194352Y-89876285D01*
X135241971Y-89923904D01*
X135289590Y-90019142D01*
X135289590Y-90400095D01*
X134765780Y-88971523D02*
X134765780Y-89162000D01*
X134813400Y-89257238D01*
X134861019Y-89304857D01*
X135003876Y-89400095D01*
X135194352Y-89447714D01*
X135575304Y-89447714D01*
X135670542Y-89400095D01*
X135718161Y-89352476D01*
X135765780Y-89257238D01*
X135765780Y-89066761D01*
X135718161Y-88971523D01*
X135670542Y-88923904D01*
X135575304Y-88876285D01*
X135337209Y-88876285D01*
X135241971Y-88923904D01*
X135194352Y-88971523D01*
X135146733Y-89066761D01*
X135146733Y-89257238D01*
X135194352Y-89352476D01*
X135241971Y-89400095D01*
X135337209Y-89447714D01*
X154285904Y-86366285D02*
X153904952Y-86632952D01*
X154285904Y-86823428D02*
X153485904Y-86823428D01*
X153485904Y-86518666D01*
X153524000Y-86442476D01*
X153562095Y-86404380D01*
X153638285Y-86366285D01*
X153752571Y-86366285D01*
X153828761Y-86404380D01*
X153866857Y-86442476D01*
X153904952Y-86518666D01*
X153904952Y-86823428D01*
X154285904Y-85604380D02*
X154285904Y-86061523D01*
X154285904Y-85832952D02*
X153485904Y-85832952D01*
X153600190Y-85909142D01*
X153676380Y-85985333D01*
X153714476Y-86061523D01*
X154285904Y-84842476D02*
X154285904Y-85299619D01*
X154285904Y-85071047D02*
X153485904Y-85071047D01*
X153600190Y-85147238D01*
X153676380Y-85223428D01*
X153714476Y-85299619D01*
X163510280Y-90208004D02*
X164319804Y-90208004D01*
X164415042Y-90160385D01*
X164462661Y-90112766D01*
X164510280Y-90017528D01*
X164510280Y-89827052D01*
X164462661Y-89731814D01*
X164415042Y-89684195D01*
X164319804Y-89636576D01*
X163510280Y-89636576D01*
X164510280Y-88636576D02*
X164510280Y-89208004D01*
X164510280Y-88922290D02*
X163510280Y-88922290D01*
X163653138Y-89017528D01*
X163748376Y-89112766D01*
X163795995Y-89208004D01*
X136407119Y-95980238D02*
X136359500Y-96075476D01*
X136264261Y-96170714D01*
X136121404Y-96313571D01*
X136073785Y-96408809D01*
X136073785Y-96504047D01*
X136311880Y-96456428D02*
X136264261Y-96551666D01*
X136169023Y-96646904D01*
X135978547Y-96694523D01*
X135645214Y-96694523D01*
X135454738Y-96646904D01*
X135359500Y-96551666D01*
X135311880Y-96456428D01*
X135311880Y-96265952D01*
X135359500Y-96170714D01*
X135454738Y-96075476D01*
X135645214Y-96027857D01*
X135978547Y-96027857D01*
X136169023Y-96075476D01*
X136264261Y-96170714D01*
X136311880Y-96265952D01*
X136311880Y-96456428D01*
X136311880Y-95075476D02*
X136311880Y-95646904D01*
X136311880Y-95361190D02*
X135311880Y-95361190D01*
X135454738Y-95456428D01*
X135549976Y-95551666D01*
X135597595Y-95646904D01*
X145659095Y-88502880D02*
X145659095Y-89312404D01*
X145706714Y-89407642D01*
X145754333Y-89455261D01*
X145849571Y-89502880D01*
X146040047Y-89502880D01*
X146135285Y-89455261D01*
X146182904Y-89407642D01*
X146230523Y-89312404D01*
X146230523Y-88502880D01*
X147182904Y-88502880D02*
X146706714Y-88502880D01*
X146659095Y-88979071D01*
X146706714Y-88931452D01*
X146801952Y-88883833D01*
X147040047Y-88883833D01*
X147135285Y-88931452D01*
X147182904Y-88979071D01*
X147230523Y-89074309D01*
X147230523Y-89312404D01*
X147182904Y-89407642D01*
X147135285Y-89455261D01*
X147040047Y-89502880D01*
X146801952Y-89502880D01*
X146706714Y-89455261D01*
X146659095Y-89407642D01*
X150083642Y-84891666D02*
X150131261Y-84939285D01*
X150178880Y-85082142D01*
X150178880Y-85177380D01*
X150131261Y-85320238D01*
X150036023Y-85415476D01*
X149940785Y-85463095D01*
X149750309Y-85510714D01*
X149607452Y-85510714D01*
X149416976Y-85463095D01*
X149321738Y-85415476D01*
X149226500Y-85320238D01*
X149178880Y-85177380D01*
X149178880Y-85082142D01*
X149226500Y-84939285D01*
X149274119Y-84891666D01*
X149607452Y-84320238D02*
X149559833Y-84415476D01*
X149512214Y-84463095D01*
X149416976Y-84510714D01*
X149369357Y-84510714D01*
X149274119Y-84463095D01*
X149226500Y-84415476D01*
X149178880Y-84320238D01*
X149178880Y-84129761D01*
X149226500Y-84034523D01*
X149274119Y-83986904D01*
X149369357Y-83939285D01*
X149416976Y-83939285D01*
X149512214Y-83986904D01*
X149559833Y-84034523D01*
X149607452Y-84129761D01*
X149607452Y-84320238D01*
X149655071Y-84415476D01*
X149702690Y-84463095D01*
X149797928Y-84510714D01*
X149988404Y-84510714D01*
X150083642Y-84463095D01*
X150131261Y-84415476D01*
X150178880Y-84320238D01*
X150178880Y-84129761D01*
X150131261Y-84034523D01*
X150083642Y-83986904D01*
X149988404Y-83939285D01*
X149797928Y-83939285D01*
X149702690Y-83986904D01*
X149655071Y-84034523D01*
X149607452Y-84129761D01*
X155330142Y-97575666D02*
X155377761Y-97623285D01*
X155425380Y-97766142D01*
X155425380Y-97861380D01*
X155377761Y-98004238D01*
X155282523Y-98099476D01*
X155187285Y-98147095D01*
X154996809Y-98194714D01*
X154853952Y-98194714D01*
X154663476Y-98147095D01*
X154568238Y-98099476D01*
X154473000Y-98004238D01*
X154425380Y-97861380D01*
X154425380Y-97766142D01*
X154473000Y-97623285D01*
X154520619Y-97575666D01*
X154425380Y-96670904D02*
X154425380Y-97147095D01*
X154901571Y-97194714D01*
X154853952Y-97147095D01*
X154806333Y-97051857D01*
X154806333Y-96813761D01*
X154853952Y-96718523D01*
X154901571Y-96670904D01*
X154996809Y-96623285D01*
X155234904Y-96623285D01*
X155330142Y-96670904D01*
X155377761Y-96718523D01*
X155425380Y-96813761D01*
X155425380Y-97051857D01*
X155377761Y-97147095D01*
X155330142Y-97194714D01*
X133930642Y-92749666D02*
X133978261Y-92797285D01*
X134025880Y-92940142D01*
X134025880Y-93035380D01*
X133978261Y-93178238D01*
X133883023Y-93273476D01*
X133787785Y-93321095D01*
X133597309Y-93368714D01*
X133454452Y-93368714D01*
X133263976Y-93321095D01*
X133168738Y-93273476D01*
X133073500Y-93178238D01*
X133025880Y-93035380D01*
X133025880Y-92940142D01*
X133073500Y-92797285D01*
X133121119Y-92749666D01*
X133025880Y-91892523D02*
X133025880Y-92083000D01*
X133073500Y-92178238D01*
X133121119Y-92225857D01*
X133263976Y-92321095D01*
X133454452Y-92368714D01*
X133835404Y-92368714D01*
X133930642Y-92321095D01*
X133978261Y-92273476D01*
X134025880Y-92178238D01*
X134025880Y-91987761D01*
X133978261Y-91892523D01*
X133930642Y-91844904D01*
X133835404Y-91797285D01*
X133597309Y-91797285D01*
X133502071Y-91844904D01*
X133454452Y-91892523D01*
X133406833Y-91987761D01*
X133406833Y-92178238D01*
X133454452Y-92273476D01*
X133502071Y-92321095D01*
X133597309Y-92368714D01*
X148820280Y-89827004D02*
X149629804Y-89827004D01*
X149725042Y-89779385D01*
X149772661Y-89731766D01*
X149820280Y-89636528D01*
X149820280Y-89446052D01*
X149772661Y-89350814D01*
X149725042Y-89303195D01*
X149629804Y-89255576D01*
X148820280Y-89255576D01*
X148915519Y-88827004D02*
X148867900Y-88779385D01*
X148820280Y-88684147D01*
X148820280Y-88446052D01*
X148867900Y-88350814D01*
X148915519Y-88303195D01*
X149010757Y-88255576D01*
X149105995Y-88255576D01*
X149248852Y-88303195D01*
X149820280Y-88874623D01*
X149820280Y-88255576D01*
X147995880Y-87002857D02*
X147519690Y-87336190D01*
X147995880Y-87574285D02*
X146995880Y-87574285D01*
X146995880Y-87193333D01*
X147043500Y-87098095D01*
X147091119Y-87050476D01*
X147186357Y-87002857D01*
X147329214Y-87002857D01*
X147424452Y-87050476D01*
X147472071Y-87098095D01*
X147519690Y-87193333D01*
X147519690Y-87574285D01*
X147995880Y-86050476D02*
X147995880Y-86621904D01*
X147995880Y-86336190D02*
X146995880Y-86336190D01*
X147138738Y-86431428D01*
X147233976Y-86526666D01*
X147281595Y-86621904D01*
X146995880Y-85717142D02*
X146995880Y-85050476D01*
X147995880Y-85479047D01*
X141493480Y-91860666D02*
X141017290Y-92194000D01*
X141493480Y-92432095D02*
X140493480Y-92432095D01*
X140493480Y-92051142D01*
X140541100Y-91955904D01*
X140588719Y-91908285D01*
X140683957Y-91860666D01*
X140826814Y-91860666D01*
X140922052Y-91908285D01*
X140969671Y-91955904D01*
X141017290Y-92051142D01*
X141017290Y-92432095D01*
X141493480Y-91384476D02*
X141493480Y-91194000D01*
X141445861Y-91098761D01*
X141398242Y-91051142D01*
X141255385Y-90955904D01*
X141064909Y-90908285D01*
X140683957Y-90908285D01*
X140588719Y-90955904D01*
X140541100Y-91003523D01*
X140493480Y-91098761D01*
X140493480Y-91289238D01*
X140541100Y-91384476D01*
X140588719Y-91432095D01*
X140683957Y-91479714D01*
X140922052Y-91479714D01*
X141017290Y-91432095D01*
X141064909Y-91384476D01*
X141112528Y-91289238D01*
X141112528Y-91098761D01*
X141064909Y-91003523D01*
X141017290Y-90955904D01*
X140922052Y-90908285D01*
X163599880Y-46124833D02*
X164314166Y-46124833D01*
X164457023Y-46172452D01*
X164552261Y-46267690D01*
X164599880Y-46410547D01*
X164599880Y-46505785D01*
X163695119Y-45696261D02*
X163647500Y-45648642D01*
X163599880Y-45553404D01*
X163599880Y-45315309D01*
X163647500Y-45220071D01*
X163695119Y-45172452D01*
X163790357Y-45124833D01*
X163885595Y-45124833D01*
X164028452Y-45172452D01*
X164599880Y-45743880D01*
X164599880Y-45124833D01*
X131881619Y-46235904D02*
X131834000Y-46188285D01*
X131786380Y-46093047D01*
X131786380Y-45854952D01*
X131834000Y-45759714D01*
X131881619Y-45712095D01*
X131976857Y-45664476D01*
X132072095Y-45664476D01*
X132214952Y-45712095D01*
X132786380Y-46283523D01*
X132786380Y-45664476D01*
X131786380Y-45045428D02*
X131786380Y-44950190D01*
X131834000Y-44854952D01*
X131881619Y-44807333D01*
X131976857Y-44759714D01*
X132167333Y-44712095D01*
X132405428Y-44712095D01*
X132595904Y-44759714D01*
X132691142Y-44807333D01*
X132738761Y-44854952D01*
X132786380Y-44950190D01*
X132786380Y-45045428D01*
X132738761Y-45140666D01*
X132691142Y-45188285D01*
X132595904Y-45235904D01*
X132405428Y-45283523D01*
X132167333Y-45283523D01*
X131976857Y-45235904D01*
X131881619Y-45188285D01*
X131834000Y-45140666D01*
X131786380Y-45045428D01*
X164536380Y-42648285D02*
X164536380Y-43219714D01*
X164536380Y-42934000D02*
X163536380Y-42934000D01*
X163679238Y-43029238D01*
X163774476Y-43124476D01*
X163822095Y-43219714D01*
X174725333Y-84134380D02*
X174392000Y-83658190D01*
X174153904Y-84134380D02*
X174153904Y-83134380D01*
X174534857Y-83134380D01*
X174630095Y-83182000D01*
X174677714Y-83229619D01*
X174725333Y-83324857D01*
X174725333Y-83467714D01*
X174677714Y-83562952D01*
X174630095Y-83610571D01*
X174534857Y-83658190D01*
X174153904Y-83658190D01*
X175106285Y-83229619D02*
X175153904Y-83182000D01*
X175249142Y-83134380D01*
X175487238Y-83134380D01*
X175582476Y-83182000D01*
X175630095Y-83229619D01*
X175677714Y-83324857D01*
X175677714Y-83420095D01*
X175630095Y-83562952D01*
X175058666Y-84134380D01*
X175677714Y-84134380D01*
X174638000Y-76884000D02*
X174671333Y-76917333D01*
X174704666Y-77017333D01*
X174704666Y-77084000D01*
X174671333Y-77184000D01*
X174604666Y-77250666D01*
X174538000Y-77284000D01*
X174404666Y-77317333D01*
X174304666Y-77317333D01*
X174171333Y-77284000D01*
X174104666Y-77250666D01*
X174038000Y-77184000D01*
X174004666Y-77084000D01*
X174004666Y-77017333D01*
X174038000Y-76917333D01*
X174071333Y-76884000D01*
X174704666Y-76217333D02*
X174704666Y-76617333D01*
X174704666Y-76417333D02*
X174004666Y-76417333D01*
X174104666Y-76484000D01*
X174171333Y-76550666D01*
X174204666Y-76617333D01*
X174238000Y-75617333D02*
X174704666Y-75617333D01*
X173971333Y-75784000D02*
X174471333Y-75950666D01*
X174471333Y-75517333D01*
X181952285Y-83423714D02*
X181980857Y-83452285D01*
X182009428Y-83538000D01*
X182009428Y-83595142D01*
X181980857Y-83680857D01*
X181923714Y-83738000D01*
X181866571Y-83766571D01*
X181752285Y-83795142D01*
X181666571Y-83795142D01*
X181552285Y-83766571D01*
X181495142Y-83738000D01*
X181438000Y-83680857D01*
X181409428Y-83595142D01*
X181409428Y-83538000D01*
X181438000Y-83452285D01*
X181466571Y-83423714D01*
X182009428Y-82852285D02*
X182009428Y-83195142D01*
X182009428Y-83023714D02*
X181409428Y-83023714D01*
X181495142Y-83080857D01*
X181552285Y-83138000D01*
X181580857Y-83195142D01*
X181409428Y-82652285D02*
X181409428Y-82280857D01*
X181638000Y-82480857D01*
X181638000Y-82395142D01*
X181666571Y-82338000D01*
X181695142Y-82309428D01*
X181752285Y-82280857D01*
X181895142Y-82280857D01*
X181952285Y-82309428D01*
X181980857Y-82338000D01*
X182009428Y-82395142D01*
X182009428Y-82566571D01*
X181980857Y-82623714D01*
X181952285Y-82652285D01*
X190477142Y-83934857D02*
X190524761Y-83982476D01*
X190572380Y-84125333D01*
X190572380Y-84220571D01*
X190524761Y-84363428D01*
X190429523Y-84458666D01*
X190334285Y-84506285D01*
X190143809Y-84553904D01*
X190000952Y-84553904D01*
X189810476Y-84506285D01*
X189715238Y-84458666D01*
X189620000Y-84363428D01*
X189572380Y-84220571D01*
X189572380Y-84125333D01*
X189620000Y-83982476D01*
X189667619Y-83934857D01*
X190572380Y-82982476D02*
X190572380Y-83553904D01*
X190572380Y-83268190D02*
X189572380Y-83268190D01*
X189715238Y-83363428D01*
X189810476Y-83458666D01*
X189858095Y-83553904D01*
X189667619Y-82601523D02*
X189620000Y-82553904D01*
X189572380Y-82458666D01*
X189572380Y-82220571D01*
X189620000Y-82125333D01*
X189667619Y-82077714D01*
X189762857Y-82030095D01*
X189858095Y-82030095D01*
X190000952Y-82077714D01*
X190572380Y-82649142D01*
X190572380Y-82030095D01*
X186175142Y-93904380D02*
X185841809Y-93428190D01*
X185603714Y-93904380D02*
X185603714Y-92904380D01*
X185984666Y-92904380D01*
X186079904Y-92952000D01*
X186127523Y-92999619D01*
X186175142Y-93094857D01*
X186175142Y-93237714D01*
X186127523Y-93332952D01*
X186079904Y-93380571D01*
X185984666Y-93428190D01*
X185603714Y-93428190D01*
X187127523Y-93904380D02*
X186556095Y-93904380D01*
X186841809Y-93904380D02*
X186841809Y-92904380D01*
X186746571Y-93047238D01*
X186651333Y-93142476D01*
X186556095Y-93190095D01*
X187984666Y-93237714D02*
X187984666Y-93904380D01*
X187746571Y-92856761D02*
X187508476Y-93571047D01*
X188127523Y-93571047D01*
X174427480Y-87101904D02*
X175237004Y-87101904D01*
X175332242Y-87054285D01*
X175379861Y-87006666D01*
X175427480Y-86911428D01*
X175427480Y-86720952D01*
X175379861Y-86625714D01*
X175332242Y-86578095D01*
X175237004Y-86530476D01*
X174427480Y-86530476D01*
X174760814Y-85625714D02*
X175427480Y-85625714D01*
X174379861Y-85863809D02*
X175094147Y-86101904D01*
X175094147Y-85482857D01*
X175977333Y-78462000D02*
X175944000Y-78495333D01*
X175844000Y-78528666D01*
X175777333Y-78528666D01*
X175677333Y-78495333D01*
X175610666Y-78428666D01*
X175577333Y-78362000D01*
X175544000Y-78228666D01*
X175544000Y-78128666D01*
X175577333Y-77995333D01*
X175610666Y-77928666D01*
X175677333Y-77862000D01*
X175777333Y-77828666D01*
X175844000Y-77828666D01*
X175944000Y-77862000D01*
X175977333Y-77895333D01*
X176210666Y-77828666D02*
X176677333Y-77828666D01*
X176377333Y-78528666D01*
X186557714Y-90503204D02*
X186291047Y-90122252D01*
X186100571Y-90503204D02*
X186100571Y-89703204D01*
X186405333Y-89703204D01*
X186481523Y-89741300D01*
X186519619Y-89779395D01*
X186557714Y-89855585D01*
X186557714Y-89969871D01*
X186519619Y-90046061D01*
X186481523Y-90084157D01*
X186405333Y-90122252D01*
X186100571Y-90122252D01*
X187319619Y-90503204D02*
X186862476Y-90503204D01*
X187091047Y-90503204D02*
X187091047Y-89703204D01*
X187014857Y-89817490D01*
X186938666Y-89893680D01*
X186862476Y-89931776D01*
X187700571Y-90503204D02*
X187852952Y-90503204D01*
X187929142Y-90465109D01*
X187967238Y-90427014D01*
X188043428Y-90312728D01*
X188081523Y-90160347D01*
X188081523Y-89855585D01*
X188043428Y-89779395D01*
X188005333Y-89741300D01*
X187929142Y-89703204D01*
X187776761Y-89703204D01*
X187700571Y-89741300D01*
X187662476Y-89779395D01*
X187624380Y-89855585D01*
X187624380Y-90046061D01*
X187662476Y-90122252D01*
X187700571Y-90160347D01*
X187776761Y-90198442D01*
X187929142Y-90198442D01*
X188005333Y-90160347D01*
X188043428Y-90122252D01*
X188081523Y-90046061D01*
X180338666Y-86873333D02*
X180905333Y-86873333D01*
X180972000Y-86840000D01*
X181005333Y-86806666D01*
X181038666Y-86740000D01*
X181038666Y-86606666D01*
X181005333Y-86540000D01*
X180972000Y-86506666D01*
X180905333Y-86473333D01*
X180338666Y-86473333D01*
X180338666Y-86206666D02*
X180338666Y-85740000D01*
X181038666Y-86040000D01*
X188338000Y-79170000D02*
X188371333Y-79203333D01*
X188404666Y-79303333D01*
X188404666Y-79370000D01*
X188371333Y-79470000D01*
X188304666Y-79536666D01*
X188238000Y-79570000D01*
X188104666Y-79603333D01*
X188004666Y-79603333D01*
X187871333Y-79570000D01*
X187804666Y-79536666D01*
X187738000Y-79470000D01*
X187704666Y-79370000D01*
X187704666Y-79303333D01*
X187738000Y-79203333D01*
X187771333Y-79170000D01*
X188404666Y-78503333D02*
X188404666Y-78903333D01*
X188404666Y-78703333D02*
X187704666Y-78703333D01*
X187804666Y-78770000D01*
X187871333Y-78836666D01*
X187904666Y-78903333D01*
X188404666Y-77836666D02*
X188404666Y-78236666D01*
X188404666Y-78036666D02*
X187704666Y-78036666D01*
X187804666Y-78103333D01*
X187871333Y-78170000D01*
X187904666Y-78236666D01*
X190476980Y-86982857D02*
X190000790Y-87316190D01*
X190476980Y-87554285D02*
X189476980Y-87554285D01*
X189476980Y-87173333D01*
X189524600Y-87078095D01*
X189572219Y-87030476D01*
X189667457Y-86982857D01*
X189810314Y-86982857D01*
X189905552Y-87030476D01*
X189953171Y-87078095D01*
X190000790Y-87173333D01*
X190000790Y-87554285D01*
X190476980Y-86030476D02*
X190476980Y-86601904D01*
X190476980Y-86316190D02*
X189476980Y-86316190D01*
X189619838Y-86411428D01*
X189715076Y-86506666D01*
X189762695Y-86601904D01*
X189572219Y-85649523D02*
X189524600Y-85601904D01*
X189476980Y-85506666D01*
X189476980Y-85268571D01*
X189524600Y-85173333D01*
X189572219Y-85125714D01*
X189667457Y-85078095D01*
X189762695Y-85078095D01*
X189905552Y-85125714D01*
X190476980Y-85697142D01*
X190476980Y-85078095D01*
X181313142Y-73134380D02*
X180979809Y-72658190D01*
X180741714Y-73134380D02*
X180741714Y-72134380D01*
X181122666Y-72134380D01*
X181217904Y-72182000D01*
X181265523Y-72229619D01*
X181313142Y-72324857D01*
X181313142Y-72467714D01*
X181265523Y-72562952D01*
X181217904Y-72610571D01*
X181122666Y-72658190D01*
X180741714Y-72658190D01*
X181646476Y-72134380D02*
X182265523Y-72134380D01*
X181932190Y-72515333D01*
X182075047Y-72515333D01*
X182170285Y-72562952D01*
X182217904Y-72610571D01*
X182265523Y-72705809D01*
X182265523Y-72943904D01*
X182217904Y-73039142D01*
X182170285Y-73086761D01*
X182075047Y-73134380D01*
X181789333Y-73134380D01*
X181694095Y-73086761D01*
X181646476Y-73039142D01*
X182598857Y-72134380D02*
X183217904Y-72134380D01*
X182884571Y-72515333D01*
X183027428Y-72515333D01*
X183122666Y-72562952D01*
X183170285Y-72610571D01*
X183217904Y-72705809D01*
X183217904Y-72943904D01*
X183170285Y-73039142D01*
X183122666Y-73086761D01*
X183027428Y-73134380D01*
X182741714Y-73134380D01*
X182646476Y-73086761D01*
X182598857Y-73039142D01*
X186060761Y-72979619D02*
X185965523Y-72932000D01*
X185870285Y-72836761D01*
X185727428Y-72693904D01*
X185632190Y-72646285D01*
X185536952Y-72646285D01*
X185584571Y-72884380D02*
X185489333Y-72836761D01*
X185394095Y-72741523D01*
X185346476Y-72551047D01*
X185346476Y-72217714D01*
X185394095Y-72027238D01*
X185489333Y-71932000D01*
X185584571Y-71884380D01*
X185775047Y-71884380D01*
X185870285Y-71932000D01*
X185965523Y-72027238D01*
X186013142Y-72217714D01*
X186013142Y-72551047D01*
X185965523Y-72741523D01*
X185870285Y-72836761D01*
X185775047Y-72884380D01*
X185584571Y-72884380D01*
X186870285Y-71884380D02*
X186679809Y-71884380D01*
X186584571Y-71932000D01*
X186536952Y-71979619D01*
X186441714Y-72122476D01*
X186394095Y-72312952D01*
X186394095Y-72693904D01*
X186441714Y-72789142D01*
X186489333Y-72836761D01*
X186584571Y-72884380D01*
X186775047Y-72884380D01*
X186870285Y-72836761D01*
X186917904Y-72789142D01*
X186965523Y-72693904D01*
X186965523Y-72455809D01*
X186917904Y-72360571D01*
X186870285Y-72312952D01*
X186775047Y-72265333D01*
X186584571Y-72265333D01*
X186489333Y-72312952D01*
X186441714Y-72360571D01*
X186394095Y-72455809D01*
X175464180Y-90890457D02*
X174987990Y-91223790D01*
X175464180Y-91461885D02*
X174464180Y-91461885D01*
X174464180Y-91080933D01*
X174511800Y-90985695D01*
X174559419Y-90938076D01*
X174654657Y-90890457D01*
X174797514Y-90890457D01*
X174892752Y-90938076D01*
X174940371Y-90985695D01*
X174987990Y-91080933D01*
X174987990Y-91461885D01*
X175464180Y-89938076D02*
X175464180Y-90509504D01*
X175464180Y-90223790D02*
X174464180Y-90223790D01*
X174607038Y-90319028D01*
X174702276Y-90414266D01*
X174749895Y-90509504D01*
X174464180Y-89033314D02*
X174464180Y-89509504D01*
X174940371Y-89557123D01*
X174892752Y-89509504D01*
X174845133Y-89414266D01*
X174845133Y-89176171D01*
X174892752Y-89080933D01*
X174940371Y-89033314D01*
X175035609Y-88985695D01*
X175273704Y-88985695D01*
X175368942Y-89033314D01*
X175416561Y-89080933D01*
X175464180Y-89176171D01*
X175464180Y-89414266D01*
X175416561Y-89509504D01*
X175368942Y-89557123D01*
X179408380Y-77443904D02*
X180217904Y-77443904D01*
X180313142Y-77396285D01*
X180360761Y-77348666D01*
X180408380Y-77253428D01*
X180408380Y-77062952D01*
X180360761Y-76967714D01*
X180313142Y-76920095D01*
X180217904Y-76872476D01*
X179408380Y-76872476D01*
X179836952Y-76253428D02*
X179789333Y-76348666D01*
X179741714Y-76396285D01*
X179646476Y-76443904D01*
X179598857Y-76443904D01*
X179503619Y-76396285D01*
X179456000Y-76348666D01*
X179408380Y-76253428D01*
X179408380Y-76062952D01*
X179456000Y-75967714D01*
X179503619Y-75920095D01*
X179598857Y-75872476D01*
X179646476Y-75872476D01*
X179741714Y-75920095D01*
X179789333Y-75967714D01*
X179836952Y-76062952D01*
X179836952Y-76253428D01*
X179884571Y-76348666D01*
X179932190Y-76396285D01*
X180027428Y-76443904D01*
X180217904Y-76443904D01*
X180313142Y-76396285D01*
X180360761Y-76348666D01*
X180408380Y-76253428D01*
X180408380Y-76062952D01*
X180360761Y-75967714D01*
X180313142Y-75920095D01*
X180217904Y-75872476D01*
X180027428Y-75872476D01*
X179932190Y-75920095D01*
X179884571Y-75967714D01*
X179836952Y-76062952D01*
X177919142Y-72788380D02*
X177585809Y-72312190D01*
X177347714Y-72788380D02*
X177347714Y-71788380D01*
X177728666Y-71788380D01*
X177823904Y-71836000D01*
X177871523Y-71883619D01*
X177919142Y-71978857D01*
X177919142Y-72121714D01*
X177871523Y-72216952D01*
X177823904Y-72264571D01*
X177728666Y-72312190D01*
X177347714Y-72312190D01*
X178252476Y-71788380D02*
X178871523Y-71788380D01*
X178538190Y-72169333D01*
X178681047Y-72169333D01*
X178776285Y-72216952D01*
X178823904Y-72264571D01*
X178871523Y-72359809D01*
X178871523Y-72597904D01*
X178823904Y-72693142D01*
X178776285Y-72740761D01*
X178681047Y-72788380D01*
X178395333Y-72788380D01*
X178300095Y-72740761D01*
X178252476Y-72693142D01*
X179728666Y-72121714D02*
X179728666Y-72788380D01*
X179490571Y-71740761D02*
X179252476Y-72455047D01*
X179871523Y-72455047D01*
X182619142Y-93904380D02*
X182285809Y-93428190D01*
X182047714Y-93904380D02*
X182047714Y-92904380D01*
X182428666Y-92904380D01*
X182523904Y-92952000D01*
X182571523Y-92999619D01*
X182619142Y-93094857D01*
X182619142Y-93237714D01*
X182571523Y-93332952D01*
X182523904Y-93380571D01*
X182428666Y-93428190D01*
X182047714Y-93428190D01*
X183571523Y-93904380D02*
X183000095Y-93904380D01*
X183285809Y-93904380D02*
X183285809Y-92904380D01*
X183190571Y-93047238D01*
X183095333Y-93142476D01*
X183000095Y-93190095D01*
X184190571Y-92904380D02*
X184285809Y-92904380D01*
X184381047Y-92952000D01*
X184428666Y-92999619D01*
X184476285Y-93094857D01*
X184523904Y-93285333D01*
X184523904Y-93523428D01*
X184476285Y-93713904D01*
X184428666Y-93809142D01*
X184381047Y-93856761D01*
X184285809Y-93904380D01*
X184190571Y-93904380D01*
X184095333Y-93856761D01*
X184047714Y-93809142D01*
X184000095Y-93713904D01*
X183952476Y-93523428D01*
X183952476Y-93285333D01*
X184000095Y-93094857D01*
X184047714Y-92999619D01*
X184095333Y-92952000D01*
X184190571Y-92904380D01*
X188216666Y-81456000D02*
X187883333Y-81689333D01*
X188216666Y-81856000D02*
X187516666Y-81856000D01*
X187516666Y-81589333D01*
X187550000Y-81522666D01*
X187583333Y-81489333D01*
X187650000Y-81456000D01*
X187750000Y-81456000D01*
X187816666Y-81489333D01*
X187850000Y-81522666D01*
X187883333Y-81589333D01*
X187883333Y-81856000D01*
X187583333Y-81189333D02*
X187550000Y-81156000D01*
X187516666Y-81089333D01*
X187516666Y-80922666D01*
X187550000Y-80856000D01*
X187583333Y-80822666D01*
X187650000Y-80789333D01*
X187716666Y-80789333D01*
X187816666Y-80822666D01*
X188216666Y-81222666D01*
X188216666Y-80789333D01*
X187516666Y-80356000D02*
X187516666Y-80289333D01*
X187550000Y-80222666D01*
X187583333Y-80189333D01*
X187650000Y-80156000D01*
X187783333Y-80122666D01*
X187950000Y-80122666D01*
X188083333Y-80156000D01*
X188150000Y-80189333D01*
X188183333Y-80222666D01*
X188216666Y-80289333D01*
X188216666Y-80356000D01*
X188183333Y-80422666D01*
X188150000Y-80456000D01*
X188083333Y-80489333D01*
X187950000Y-80522666D01*
X187783333Y-80522666D01*
X187650000Y-80489333D01*
X187583333Y-80456000D01*
X187550000Y-80422666D01*
X187516666Y-80356000D01*
X178555142Y-93142380D02*
X178221809Y-92666190D01*
X177983714Y-93142380D02*
X177983714Y-92142380D01*
X178364666Y-92142380D01*
X178459904Y-92190000D01*
X178507523Y-92237619D01*
X178555142Y-92332857D01*
X178555142Y-92475714D01*
X178507523Y-92570952D01*
X178459904Y-92618571D01*
X178364666Y-92666190D01*
X177983714Y-92666190D01*
X179507523Y-93142380D02*
X178936095Y-93142380D01*
X179221809Y-93142380D02*
X179221809Y-92142380D01*
X179126571Y-92285238D01*
X179031333Y-92380476D01*
X178936095Y-92428095D01*
X180364666Y-92142380D02*
X180174190Y-92142380D01*
X180078952Y-92190000D01*
X180031333Y-92237619D01*
X179936095Y-92380476D01*
X179888476Y-92570952D01*
X179888476Y-92951904D01*
X179936095Y-93047142D01*
X179983714Y-93094761D01*
X180078952Y-93142380D01*
X180269428Y-93142380D01*
X180364666Y-93094761D01*
X180412285Y-93047142D01*
X180459904Y-92951904D01*
X180459904Y-92713809D01*
X180412285Y-92618571D01*
X180364666Y-92570952D01*
X180269428Y-92523333D01*
X180078952Y-92523333D01*
X179983714Y-92570952D01*
X179936095Y-92618571D01*
X179888476Y-92713809D01*
M02*
