G04 #@! TF.GenerationSoftware,KiCad,Pcbnew,5.1.5-52549c5~84~ubuntu18.04.1*
G04 #@! TF.CreationDate,2019-12-02T20:47:02-05:00*
G04 #@! TF.ProjectId,Brakelight_Shutdown_BSPD,4272616b-656c-4696-9768-745f53687574,rev?*
G04 #@! TF.SameCoordinates,Original*
G04 #@! TF.FileFunction,Soldermask,Top*
G04 #@! TF.FilePolarity,Negative*
%FSLAX46Y46*%
G04 Gerber Fmt 4.6, Leading zero omitted, Abs format (unit mm)*
G04 Created by KiCad (PCBNEW 5.1.5-52549c5~84~ubuntu18.04.1) date 2019-12-02 20:47:02*
%MOMM*%
%LPD*%
G04 APERTURE LIST*
%ADD10C,0.100000*%
G04 APERTURE END LIST*
D10*
G36*
X183885000Y-99811000D02*
G01*
X182383000Y-99811000D01*
X182383000Y-98309000D01*
X183885000Y-98309000D01*
X183885000Y-99811000D01*
G37*
G36*
X185893059Y-98337860D02*
G01*
X186029732Y-98394472D01*
X186152735Y-98476660D01*
X186257340Y-98581265D01*
X186339528Y-98704268D01*
X186396140Y-98840941D01*
X186425000Y-98986033D01*
X186425000Y-99133967D01*
X186396140Y-99279059D01*
X186339528Y-99415732D01*
X186257340Y-99538735D01*
X186152735Y-99643340D01*
X186029732Y-99725528D01*
X186029731Y-99725529D01*
X186029730Y-99725529D01*
X185893059Y-99782140D01*
X185747968Y-99811000D01*
X185600032Y-99811000D01*
X185454941Y-99782140D01*
X185318270Y-99725529D01*
X185318269Y-99725529D01*
X185318268Y-99725528D01*
X185195265Y-99643340D01*
X185090660Y-99538735D01*
X185008472Y-99415732D01*
X184951860Y-99279059D01*
X184923000Y-99133967D01*
X184923000Y-98986033D01*
X184951860Y-98840941D01*
X185008472Y-98704268D01*
X185090660Y-98581265D01*
X185195265Y-98476660D01*
X185318268Y-98394472D01*
X185454941Y-98337860D01*
X185600032Y-98309000D01*
X185747968Y-98309000D01*
X185893059Y-98337860D01*
G37*
G36*
X188433059Y-98337860D02*
G01*
X188569732Y-98394472D01*
X188692735Y-98476660D01*
X188797340Y-98581265D01*
X188879528Y-98704268D01*
X188936140Y-98840941D01*
X188965000Y-98986033D01*
X188965000Y-99133967D01*
X188936140Y-99279059D01*
X188879528Y-99415732D01*
X188797340Y-99538735D01*
X188692735Y-99643340D01*
X188569732Y-99725528D01*
X188569731Y-99725529D01*
X188569730Y-99725529D01*
X188433059Y-99782140D01*
X188287968Y-99811000D01*
X188140032Y-99811000D01*
X187994941Y-99782140D01*
X187858270Y-99725529D01*
X187858269Y-99725529D01*
X187858268Y-99725528D01*
X187735265Y-99643340D01*
X187630660Y-99538735D01*
X187548472Y-99415732D01*
X187491860Y-99279059D01*
X187463000Y-99133967D01*
X187463000Y-98986033D01*
X187491860Y-98840941D01*
X187548472Y-98704268D01*
X187630660Y-98581265D01*
X187735265Y-98476660D01*
X187858268Y-98394472D01*
X187994941Y-98337860D01*
X188140032Y-98309000D01*
X188287968Y-98309000D01*
X188433059Y-98337860D01*
G37*
G36*
X151839000Y-99468000D02*
G01*
X150487000Y-99468000D01*
X150487000Y-98366000D01*
X151839000Y-98366000D01*
X151839000Y-99468000D01*
G37*
G36*
X147096500Y-98391500D02*
G01*
X146344500Y-98391500D01*
X146344500Y-97229500D01*
X147096500Y-97229500D01*
X147096500Y-98391500D01*
G37*
G36*
X148996500Y-98391500D02*
G01*
X148244500Y-98391500D01*
X148244500Y-97229500D01*
X148996500Y-97229500D01*
X148996500Y-98391500D01*
G37*
G36*
X127581000Y-98128000D02*
G01*
X126779000Y-98128000D01*
X126779000Y-96726000D01*
X127581000Y-96726000D01*
X127581000Y-98128000D01*
G37*
G36*
X129481000Y-98128000D02*
G01*
X128679000Y-98128000D01*
X128679000Y-96726000D01*
X129481000Y-96726000D01*
X129481000Y-98128000D01*
G37*
G36*
X131575000Y-97781000D02*
G01*
X130273000Y-97781000D01*
X130273000Y-96479000D01*
X131575000Y-96479000D01*
X131575000Y-97781000D01*
G37*
G36*
X151839000Y-97468000D02*
G01*
X150487000Y-97468000D01*
X150487000Y-96366000D01*
X151839000Y-96366000D01*
X151839000Y-97468000D01*
G37*
G36*
X185893059Y-95797860D02*
G01*
X186029732Y-95854472D01*
X186152735Y-95936660D01*
X186257340Y-96041265D01*
X186257341Y-96041267D01*
X186339529Y-96164270D01*
X186350808Y-96191500D01*
X186396140Y-96300941D01*
X186425000Y-96446033D01*
X186425000Y-96593967D01*
X186396140Y-96739059D01*
X186339528Y-96875732D01*
X186257340Y-96998735D01*
X186152735Y-97103340D01*
X186029732Y-97185528D01*
X186029731Y-97185529D01*
X186029730Y-97185529D01*
X185893059Y-97242140D01*
X185747968Y-97271000D01*
X185600032Y-97271000D01*
X185454941Y-97242140D01*
X185318270Y-97185529D01*
X185318269Y-97185529D01*
X185318268Y-97185528D01*
X185195265Y-97103340D01*
X185090660Y-96998735D01*
X185008472Y-96875732D01*
X184951860Y-96739059D01*
X184923000Y-96593967D01*
X184923000Y-96446033D01*
X184951860Y-96300941D01*
X184997192Y-96191500D01*
X185008471Y-96164270D01*
X185090659Y-96041267D01*
X185090660Y-96041265D01*
X185195265Y-95936660D01*
X185318268Y-95854472D01*
X185454941Y-95797860D01*
X185600032Y-95769000D01*
X185747968Y-95769000D01*
X185893059Y-95797860D01*
G37*
G36*
X188433059Y-95797860D02*
G01*
X188569732Y-95854472D01*
X188692735Y-95936660D01*
X188797340Y-96041265D01*
X188797341Y-96041267D01*
X188879529Y-96164270D01*
X188890808Y-96191500D01*
X188936140Y-96300941D01*
X188965000Y-96446033D01*
X188965000Y-96593967D01*
X188936140Y-96739059D01*
X188879528Y-96875732D01*
X188797340Y-96998735D01*
X188692735Y-97103340D01*
X188569732Y-97185528D01*
X188569731Y-97185529D01*
X188569730Y-97185529D01*
X188433059Y-97242140D01*
X188287968Y-97271000D01*
X188140032Y-97271000D01*
X187994941Y-97242140D01*
X187858270Y-97185529D01*
X187858269Y-97185529D01*
X187858268Y-97185528D01*
X187735265Y-97103340D01*
X187630660Y-96998735D01*
X187548472Y-96875732D01*
X187491860Y-96739059D01*
X187463000Y-96593967D01*
X187463000Y-96446033D01*
X187491860Y-96300941D01*
X187537192Y-96191500D01*
X187548471Y-96164270D01*
X187630659Y-96041267D01*
X187630660Y-96041265D01*
X187735265Y-95936660D01*
X187858268Y-95854472D01*
X187994941Y-95797860D01*
X188140032Y-95769000D01*
X188287968Y-95769000D01*
X188433059Y-95797860D01*
G37*
G36*
X183353059Y-95797860D02*
G01*
X183489732Y-95854472D01*
X183612735Y-95936660D01*
X183717340Y-96041265D01*
X183717341Y-96041267D01*
X183799529Y-96164270D01*
X183810808Y-96191500D01*
X183856140Y-96300941D01*
X183885000Y-96446033D01*
X183885000Y-96593967D01*
X183856140Y-96739059D01*
X183799528Y-96875732D01*
X183717340Y-96998735D01*
X183612735Y-97103340D01*
X183489732Y-97185528D01*
X183489731Y-97185529D01*
X183489730Y-97185529D01*
X183353059Y-97242140D01*
X183207968Y-97271000D01*
X183060032Y-97271000D01*
X182914941Y-97242140D01*
X182778270Y-97185529D01*
X182778269Y-97185529D01*
X182778268Y-97185528D01*
X182655265Y-97103340D01*
X182550660Y-96998735D01*
X182468472Y-96875732D01*
X182411860Y-96739059D01*
X182383000Y-96593967D01*
X182383000Y-96446033D01*
X182411860Y-96300941D01*
X182457192Y-96191500D01*
X182468471Y-96164270D01*
X182550659Y-96041267D01*
X182550660Y-96041265D01*
X182655265Y-95936660D01*
X182778268Y-95854472D01*
X182914941Y-95797860D01*
X183060032Y-95769000D01*
X183207968Y-95769000D01*
X183353059Y-95797860D01*
G37*
G36*
X137748900Y-97260600D02*
G01*
X136746900Y-97260600D01*
X136746900Y-96358600D01*
X137748900Y-96358600D01*
X137748900Y-97260600D01*
G37*
G36*
X160132500Y-96409000D02*
G01*
X158830500Y-96409000D01*
X158830500Y-95107000D01*
X160132500Y-95107000D01*
X160132500Y-96409000D01*
G37*
G36*
X162332500Y-96409000D02*
G01*
X161030500Y-96409000D01*
X161030500Y-95107000D01*
X162332500Y-95107000D01*
X162332500Y-96409000D01*
G37*
G36*
X139848900Y-96310600D02*
G01*
X138846900Y-96310600D01*
X138846900Y-95408600D01*
X139848900Y-95408600D01*
X139848900Y-96310600D01*
G37*
G36*
X148996500Y-96191500D02*
G01*
X146344500Y-96191500D01*
X146344500Y-95029500D01*
X148996500Y-95029500D01*
X148996500Y-96191500D01*
G37*
G36*
X155649000Y-96166000D02*
G01*
X154297000Y-96166000D01*
X154297000Y-95064000D01*
X155649000Y-95064000D01*
X155649000Y-96166000D01*
G37*
G36*
X157769500Y-96029500D02*
G01*
X156367500Y-96029500D01*
X156367500Y-95227500D01*
X157769500Y-95227500D01*
X157769500Y-96029500D01*
G37*
G36*
X131575000Y-95581000D02*
G01*
X130273000Y-95581000D01*
X130273000Y-94279000D01*
X131575000Y-94279000D01*
X131575000Y-95581000D01*
G37*
G36*
X137748900Y-95360600D02*
G01*
X136746900Y-95360600D01*
X136746900Y-94458600D01*
X137748900Y-94458600D01*
X137748900Y-95360600D01*
G37*
G36*
X129481000Y-95334000D02*
G01*
X128679000Y-95334000D01*
X128679000Y-93932000D01*
X129481000Y-93932000D01*
X129481000Y-95334000D01*
G37*
G36*
X127581000Y-95334000D02*
G01*
X126779000Y-95334000D01*
X126779000Y-93932000D01*
X127581000Y-93932000D01*
X127581000Y-95334000D01*
G37*
G36*
X151889400Y-94797600D02*
G01*
X150487400Y-94797600D01*
X150487400Y-93995600D01*
X151889400Y-93995600D01*
X151889400Y-94797600D01*
G37*
G36*
X155649000Y-94166000D02*
G01*
X154297000Y-94166000D01*
X154297000Y-93064000D01*
X155649000Y-93064000D01*
X155649000Y-94166000D01*
G37*
G36*
X157769500Y-94129500D02*
G01*
X156367500Y-94129500D01*
X156367500Y-93327500D01*
X157769500Y-93327500D01*
X157769500Y-94129500D01*
G37*
G36*
X145902000Y-93276500D02*
G01*
X144740000Y-93276500D01*
X144740000Y-90624500D01*
X145902000Y-90624500D01*
X145902000Y-93276500D01*
G37*
G36*
X148102000Y-93276500D02*
G01*
X146940000Y-93276500D01*
X146940000Y-92524500D01*
X148102000Y-92524500D01*
X148102000Y-93276500D01*
G37*
G36*
X135664500Y-93259000D02*
G01*
X134562500Y-93259000D01*
X134562500Y-91907000D01*
X135664500Y-91907000D01*
X135664500Y-93259000D01*
G37*
G36*
X137664500Y-93259000D02*
G01*
X136562500Y-93259000D01*
X136562500Y-91907000D01*
X137664500Y-91907000D01*
X137664500Y-93259000D01*
G37*
G36*
X139989500Y-93045000D02*
G01*
X138587500Y-93045000D01*
X138587500Y-92243000D01*
X139989500Y-92243000D01*
X139989500Y-93045000D01*
G37*
G36*
X151889400Y-92897600D02*
G01*
X150487400Y-92897600D01*
X150487400Y-92095600D01*
X151889400Y-92095600D01*
X151889400Y-92897600D01*
G37*
G36*
X127758000Y-92628000D02*
G01*
X126856000Y-92628000D01*
X126856000Y-91626000D01*
X127758000Y-91626000D01*
X127758000Y-92628000D01*
G37*
G36*
X129658000Y-92628000D02*
G01*
X128756000Y-92628000D01*
X128756000Y-91626000D01*
X129658000Y-91626000D01*
X129658000Y-92628000D01*
G37*
G36*
X125783000Y-92489000D02*
G01*
X124381000Y-92489000D01*
X124381000Y-91687000D01*
X125783000Y-91687000D01*
X125783000Y-92489000D01*
G37*
G36*
X183907000Y-92263000D02*
G01*
X182505000Y-92263000D01*
X182505000Y-91461000D01*
X183907000Y-91461000D01*
X183907000Y-92263000D01*
G37*
G36*
X187211091Y-91152085D02*
G01*
X187245069Y-91162393D01*
X187276390Y-91179134D01*
X187303839Y-91201661D01*
X187326366Y-91229110D01*
X187343107Y-91260431D01*
X187353415Y-91294409D01*
X187357500Y-91335890D01*
X187357500Y-92012110D01*
X187353415Y-92053591D01*
X187343107Y-92087569D01*
X187326366Y-92118890D01*
X187303839Y-92146339D01*
X187276390Y-92168866D01*
X187245069Y-92185607D01*
X187211091Y-92195915D01*
X187169610Y-92200000D01*
X186568390Y-92200000D01*
X186526909Y-92195915D01*
X186492931Y-92185607D01*
X186461610Y-92168866D01*
X186434161Y-92146339D01*
X186411634Y-92118890D01*
X186394893Y-92087569D01*
X186384585Y-92053591D01*
X186380500Y-92012110D01*
X186380500Y-91335890D01*
X186384585Y-91294409D01*
X186394893Y-91260431D01*
X186411634Y-91229110D01*
X186434161Y-91201661D01*
X186461610Y-91179134D01*
X186492931Y-91162393D01*
X186526909Y-91152085D01*
X186568390Y-91148000D01*
X187169610Y-91148000D01*
X187211091Y-91152085D01*
G37*
G36*
X185636091Y-91152085D02*
G01*
X185670069Y-91162393D01*
X185701390Y-91179134D01*
X185728839Y-91201661D01*
X185751366Y-91229110D01*
X185768107Y-91260431D01*
X185778415Y-91294409D01*
X185782500Y-91335890D01*
X185782500Y-92012110D01*
X185778415Y-92053591D01*
X185768107Y-92087569D01*
X185751366Y-92118890D01*
X185728839Y-92146339D01*
X185701390Y-92168866D01*
X185670069Y-92185607D01*
X185636091Y-92195915D01*
X185594610Y-92200000D01*
X184993390Y-92200000D01*
X184951909Y-92195915D01*
X184917931Y-92185607D01*
X184886610Y-92168866D01*
X184859161Y-92146339D01*
X184836634Y-92118890D01*
X184819893Y-92087569D01*
X184809585Y-92053591D01*
X184805500Y-92012110D01*
X184805500Y-91335890D01*
X184809585Y-91294409D01*
X184819893Y-91260431D01*
X184836634Y-91229110D01*
X184859161Y-91201661D01*
X184886610Y-91179134D01*
X184917931Y-91162393D01*
X184951909Y-91152085D01*
X184993390Y-91148000D01*
X185594610Y-91148000D01*
X185636091Y-91152085D01*
G37*
G36*
X142041500Y-91760000D02*
G01*
X141239500Y-91760000D01*
X141239500Y-90358000D01*
X142041500Y-90358000D01*
X142041500Y-91760000D01*
G37*
G36*
X143941500Y-91760000D02*
G01*
X143139500Y-91760000D01*
X143139500Y-90358000D01*
X143941500Y-90358000D01*
X143941500Y-91760000D01*
G37*
G36*
X179839300Y-91601100D02*
G01*
X178437300Y-91601100D01*
X178437300Y-90799100D01*
X179839300Y-90799100D01*
X179839300Y-91601100D01*
G37*
G36*
X177362800Y-91598600D02*
G01*
X175960800Y-91598600D01*
X175960800Y-90796600D01*
X177362800Y-90796600D01*
X177362800Y-91598600D01*
G37*
G36*
X148102000Y-91376500D02*
G01*
X146940000Y-91376500D01*
X146940000Y-90624500D01*
X148102000Y-90624500D01*
X148102000Y-91376500D01*
G37*
G36*
X139989500Y-91145000D02*
G01*
X138587500Y-91145000D01*
X138587500Y-90343000D01*
X139989500Y-90343000D01*
X139989500Y-91145000D01*
G37*
G36*
X160583900Y-91127100D02*
G01*
X159831900Y-91127100D01*
X159831900Y-89965100D01*
X160583900Y-89965100D01*
X160583900Y-91127100D01*
G37*
G36*
X162483900Y-91127100D02*
G01*
X161731900Y-91127100D01*
X161731900Y-89965100D01*
X162483900Y-89965100D01*
X162483900Y-91127100D01*
G37*
G36*
X155564500Y-91061500D02*
G01*
X154762500Y-91061500D01*
X154762500Y-89659500D01*
X155564500Y-89659500D01*
X155564500Y-91061500D01*
G37*
G36*
X157464500Y-91061500D02*
G01*
X156662500Y-91061500D01*
X156662500Y-89659500D01*
X157464500Y-89659500D01*
X157464500Y-91061500D01*
G37*
G36*
X137767000Y-91013000D02*
G01*
X136365000Y-91013000D01*
X136365000Y-90211000D01*
X137767000Y-90211000D01*
X137767000Y-91013000D01*
G37*
G36*
X153593900Y-90746100D02*
G01*
X150941900Y-90746100D01*
X150941900Y-89584100D01*
X153593900Y-89584100D01*
X153593900Y-90746100D01*
G37*
G36*
X125783000Y-90589000D02*
G01*
X124381000Y-90589000D01*
X124381000Y-89787000D01*
X125783000Y-89787000D01*
X125783000Y-90589000D01*
G37*
G36*
X128708000Y-90528000D02*
G01*
X127806000Y-90528000D01*
X127806000Y-89526000D01*
X128708000Y-89526000D01*
X128708000Y-90528000D01*
G37*
G36*
X183907000Y-90363000D02*
G01*
X182505000Y-90363000D01*
X182505000Y-89561000D01*
X183907000Y-89561000D01*
X183907000Y-90363000D01*
G37*
G36*
X179839300Y-89701100D02*
G01*
X178437300Y-89701100D01*
X178437300Y-88899100D01*
X179839300Y-88899100D01*
X179839300Y-89701100D01*
G37*
G36*
X177362800Y-89698600D02*
G01*
X175960800Y-89698600D01*
X175960800Y-88896600D01*
X177362800Y-88896600D01*
X177362800Y-89698600D01*
G37*
G36*
X186618400Y-89192300D02*
G01*
X185816400Y-89192300D01*
X185816400Y-87790300D01*
X186618400Y-87790300D01*
X186618400Y-89192300D01*
G37*
G36*
X188518400Y-89192300D02*
G01*
X187716400Y-89192300D01*
X187716400Y-87790300D01*
X188518400Y-87790300D01*
X188518400Y-89192300D01*
G37*
G36*
X137767000Y-89113000D02*
G01*
X136365000Y-89113000D01*
X136365000Y-88311000D01*
X137767000Y-88311000D01*
X137767000Y-89113000D01*
G37*
G36*
X162483900Y-88927100D02*
G01*
X159831900Y-88927100D01*
X159831900Y-87765100D01*
X162483900Y-87765100D01*
X162483900Y-88927100D01*
G37*
G36*
X155528900Y-88775500D02*
G01*
X154726900Y-88775500D01*
X154726900Y-87373500D01*
X155528900Y-87373500D01*
X155528900Y-88775500D01*
G37*
G36*
X157428900Y-88775500D02*
G01*
X156626900Y-88775500D01*
X156626900Y-87373500D01*
X157428900Y-87373500D01*
X157428900Y-88775500D01*
G37*
G36*
X151693900Y-88546100D02*
G01*
X150941900Y-88546100D01*
X150941900Y-87384100D01*
X151693900Y-87384100D01*
X151693900Y-88546100D01*
G37*
G36*
X153593900Y-88546100D02*
G01*
X152841900Y-88546100D01*
X152841900Y-87384100D01*
X153593900Y-87384100D01*
X153593900Y-88546100D01*
G37*
G36*
X146466500Y-87713500D02*
G01*
X145064500Y-87713500D01*
X145064500Y-86911500D01*
X146466500Y-86911500D01*
X146466500Y-87713500D01*
G37*
G36*
X143951000Y-87697500D02*
G01*
X142949000Y-87697500D01*
X142949000Y-86795500D01*
X143951000Y-86795500D01*
X143951000Y-87697500D01*
G37*
G36*
X184974900Y-87666000D02*
G01*
X183812900Y-87666000D01*
X183812900Y-86914000D01*
X184974900Y-86914000D01*
X184974900Y-87666000D01*
G37*
G36*
X182774900Y-87666000D02*
G01*
X181612900Y-87666000D01*
X181612900Y-85014000D01*
X182774900Y-85014000D01*
X182774900Y-87666000D01*
G37*
G36*
X179355000Y-87666000D02*
G01*
X178193000Y-87666000D01*
X178193000Y-86914000D01*
X179355000Y-86914000D01*
X179355000Y-87666000D01*
G37*
G36*
X177155000Y-87666000D02*
G01*
X175993000Y-87666000D01*
X175993000Y-85014000D01*
X177155000Y-85014000D01*
X177155000Y-87666000D01*
G37*
G36*
X141851000Y-86747500D02*
G01*
X140849000Y-86747500D01*
X140849000Y-85845500D01*
X141851000Y-85845500D01*
X141851000Y-86747500D01*
G37*
G36*
X164515500Y-86743500D02*
G01*
X163713500Y-86743500D01*
X163713500Y-85341500D01*
X164515500Y-85341500D01*
X164515500Y-86743500D01*
G37*
G36*
X162615500Y-86743500D02*
G01*
X161813500Y-86743500D01*
X161813500Y-85341500D01*
X162615500Y-85341500D01*
X162615500Y-86743500D01*
G37*
G36*
X188677000Y-86715800D02*
G01*
X187875000Y-86715800D01*
X187875000Y-85313800D01*
X188677000Y-85313800D01*
X188677000Y-86715800D01*
G37*
G36*
X186777000Y-86715800D02*
G01*
X185975000Y-86715800D01*
X185975000Y-85313800D01*
X186777000Y-85313800D01*
X186777000Y-86715800D01*
G37*
G36*
X157426400Y-86616500D02*
G01*
X156624400Y-86616500D01*
X156624400Y-85214500D01*
X157426400Y-85214500D01*
X157426400Y-86616500D01*
G37*
G36*
X155526400Y-86616500D02*
G01*
X154724400Y-86616500D01*
X154724400Y-85214500D01*
X155526400Y-85214500D01*
X155526400Y-86616500D01*
G37*
G36*
X151902500Y-86276000D02*
G01*
X150550500Y-86276000D01*
X150550500Y-85174000D01*
X151902500Y-85174000D01*
X151902500Y-86276000D01*
G37*
G36*
X146466500Y-85813500D02*
G01*
X145064500Y-85813500D01*
X145064500Y-85011500D01*
X146466500Y-85011500D01*
X146466500Y-85813500D01*
G37*
G36*
X143951000Y-85797500D02*
G01*
X142949000Y-85797500D01*
X142949000Y-84895500D01*
X143951000Y-84895500D01*
X143951000Y-85797500D01*
G37*
G36*
X184974900Y-85766000D02*
G01*
X183812900Y-85766000D01*
X183812900Y-85014000D01*
X184974900Y-85014000D01*
X184974900Y-85766000D01*
G37*
G36*
X179355000Y-85766000D02*
G01*
X178193000Y-85766000D01*
X178193000Y-85014000D01*
X179355000Y-85014000D01*
X179355000Y-85766000D01*
G37*
G36*
X151902500Y-84276000D02*
G01*
X150550500Y-84276000D01*
X150550500Y-83174000D01*
X151902500Y-83174000D01*
X151902500Y-84276000D01*
G37*
G36*
X188861000Y-84222000D02*
G01*
X187759000Y-84222000D01*
X187759000Y-82870000D01*
X188861000Y-82870000D01*
X188861000Y-84222000D01*
G37*
G36*
X186861000Y-84222000D02*
G01*
X185759000Y-84222000D01*
X185759000Y-82870000D01*
X186861000Y-82870000D01*
X186861000Y-84222000D01*
G37*
G36*
X181003000Y-83714000D02*
G01*
X179901000Y-83714000D01*
X179901000Y-82362000D01*
X181003000Y-82362000D01*
X181003000Y-83714000D01*
G37*
G36*
X179003000Y-83714000D02*
G01*
X177901000Y-83714000D01*
X177901000Y-82362000D01*
X179003000Y-82362000D01*
X179003000Y-83714000D01*
G37*
G36*
X146310000Y-83518500D02*
G01*
X145008000Y-83518500D01*
X145008000Y-82216500D01*
X146310000Y-82216500D01*
X146310000Y-83518500D01*
G37*
G36*
X144110000Y-83518500D02*
G01*
X142808000Y-83518500D01*
X142808000Y-82216500D01*
X144110000Y-82216500D01*
X144110000Y-83518500D01*
G37*
G36*
X175093000Y-82633000D02*
G01*
X174291000Y-82633000D01*
X174291000Y-81231000D01*
X175093000Y-81231000D01*
X175093000Y-82633000D01*
G37*
G36*
X176993000Y-82633000D02*
G01*
X176191000Y-82633000D01*
X176191000Y-81231000D01*
X176993000Y-81231000D01*
X176993000Y-82633000D01*
G37*
G36*
X187153000Y-81707000D02*
G01*
X186351000Y-81707000D01*
X186351000Y-80305000D01*
X187153000Y-80305000D01*
X187153000Y-81707000D01*
G37*
G36*
X185253000Y-81707000D02*
G01*
X184451000Y-81707000D01*
X184451000Y-80305000D01*
X185253000Y-80305000D01*
X185253000Y-81707000D01*
G37*
G36*
X182282000Y-81231500D02*
G01*
X179630000Y-81231500D01*
X179630000Y-80069500D01*
X182282000Y-80069500D01*
X182282000Y-81231500D01*
G37*
G36*
X175447000Y-80108000D02*
G01*
X174345000Y-80108000D01*
X174345000Y-78756000D01*
X175447000Y-78756000D01*
X175447000Y-80108000D01*
G37*
G36*
X177447000Y-80108000D02*
G01*
X176345000Y-80108000D01*
X176345000Y-78756000D01*
X177447000Y-78756000D01*
X177447000Y-80108000D01*
G37*
G36*
X187261000Y-79346000D02*
G01*
X186159000Y-79346000D01*
X186159000Y-77994000D01*
X187261000Y-77994000D01*
X187261000Y-79346000D01*
G37*
G36*
X185261000Y-79346000D02*
G01*
X184159000Y-79346000D01*
X184159000Y-77994000D01*
X185261000Y-77994000D01*
X185261000Y-79346000D01*
G37*
G36*
X182282000Y-79031500D02*
G01*
X181530000Y-79031500D01*
X181530000Y-77869500D01*
X182282000Y-77869500D01*
X182282000Y-79031500D01*
G37*
G36*
X180382000Y-79031500D02*
G01*
X179630000Y-79031500D01*
X179630000Y-77869500D01*
X180382000Y-77869500D01*
X180382000Y-79031500D01*
G37*
G36*
X126453500Y-78564900D02*
G01*
X125651500Y-78564900D01*
X125651500Y-77162900D01*
X126453500Y-77162900D01*
X126453500Y-78564900D01*
G37*
G36*
X128353500Y-78564900D02*
G01*
X127551500Y-78564900D01*
X127551500Y-77162900D01*
X128353500Y-77162900D01*
X128353500Y-78564900D01*
G37*
G36*
X124753000Y-78514900D02*
G01*
X123451000Y-78514900D01*
X123451000Y-77212900D01*
X124753000Y-77212900D01*
X124753000Y-78514900D01*
G37*
G36*
X122553000Y-78514900D02*
G01*
X121251000Y-78514900D01*
X121251000Y-77212900D01*
X122553000Y-77212900D01*
X122553000Y-78514900D01*
G37*
G36*
X178463000Y-77110000D02*
G01*
X177361000Y-77110000D01*
X177361000Y-75758000D01*
X178463000Y-75758000D01*
X178463000Y-77110000D01*
G37*
G36*
X176463000Y-77110000D02*
G01*
X175361000Y-77110000D01*
X175361000Y-75758000D01*
X176463000Y-75758000D01*
X176463000Y-77110000D01*
G37*
G36*
X185607000Y-76333000D02*
G01*
X184605000Y-76333000D01*
X184605000Y-75431000D01*
X185607000Y-75431000D01*
X185607000Y-76333000D01*
G37*
G36*
X182335591Y-75235085D02*
G01*
X182369569Y-75245393D01*
X182400890Y-75262134D01*
X182428339Y-75284661D01*
X182450866Y-75312110D01*
X182467607Y-75343431D01*
X182477915Y-75377409D01*
X182482000Y-75418890D01*
X182482000Y-76020110D01*
X182477915Y-76061591D01*
X182467607Y-76095569D01*
X182450866Y-76126890D01*
X182428339Y-76154339D01*
X182400890Y-76176866D01*
X182369569Y-76193607D01*
X182335591Y-76203915D01*
X182294110Y-76208000D01*
X181617890Y-76208000D01*
X181576409Y-76203915D01*
X181542431Y-76193607D01*
X181511110Y-76176866D01*
X181483661Y-76154339D01*
X181461134Y-76126890D01*
X181444393Y-76095569D01*
X181434085Y-76061591D01*
X181430000Y-76020110D01*
X181430000Y-75418890D01*
X181434085Y-75377409D01*
X181444393Y-75343431D01*
X181461134Y-75312110D01*
X181483661Y-75284661D01*
X181511110Y-75262134D01*
X181542431Y-75245393D01*
X181576409Y-75235085D01*
X181617890Y-75231000D01*
X182294110Y-75231000D01*
X182335591Y-75235085D01*
G37*
G36*
X187707000Y-75383000D02*
G01*
X186705000Y-75383000D01*
X186705000Y-74481000D01*
X187707000Y-74481000D01*
X187707000Y-75383000D01*
G37*
G36*
X126504300Y-75206000D02*
G01*
X125702300Y-75206000D01*
X125702300Y-73804000D01*
X126504300Y-73804000D01*
X126504300Y-75206000D01*
G37*
G36*
X128404300Y-75206000D02*
G01*
X127602300Y-75206000D01*
X127602300Y-73804000D01*
X128404300Y-73804000D01*
X128404300Y-75206000D01*
G37*
G36*
X124803800Y-75156000D02*
G01*
X123501800Y-75156000D01*
X123501800Y-73854000D01*
X124803800Y-73854000D01*
X124803800Y-75156000D01*
G37*
G36*
X122603800Y-75156000D02*
G01*
X121301800Y-75156000D01*
X121301800Y-73854000D01*
X122603800Y-73854000D01*
X122603800Y-75156000D01*
G37*
G36*
X137741116Y-74635932D02*
G01*
X136339116Y-74635932D01*
X136339116Y-73833932D01*
X137741116Y-73833932D01*
X137741116Y-74635932D01*
G37*
G36*
X182335591Y-73660085D02*
G01*
X182369569Y-73670393D01*
X182400890Y-73687134D01*
X182428339Y-73709661D01*
X182450866Y-73737110D01*
X182467607Y-73768431D01*
X182477915Y-73802409D01*
X182482000Y-73843890D01*
X182482000Y-74445110D01*
X182477915Y-74486591D01*
X182467607Y-74520569D01*
X182450866Y-74551890D01*
X182428339Y-74579339D01*
X182400890Y-74601866D01*
X182369569Y-74618607D01*
X182335591Y-74628915D01*
X182294110Y-74633000D01*
X181617890Y-74633000D01*
X181576409Y-74628915D01*
X181542431Y-74618607D01*
X181511110Y-74601866D01*
X181483661Y-74579339D01*
X181461134Y-74551890D01*
X181444393Y-74520569D01*
X181434085Y-74486591D01*
X181430000Y-74445110D01*
X181430000Y-73843890D01*
X181434085Y-73802409D01*
X181444393Y-73768431D01*
X181461134Y-73737110D01*
X181483661Y-73709661D01*
X181511110Y-73687134D01*
X181542431Y-73670393D01*
X181576409Y-73660085D01*
X181617890Y-73656000D01*
X182294110Y-73656000D01*
X182335591Y-73660085D01*
G37*
G36*
X139761674Y-74628860D02*
G01*
X138359674Y-74628860D01*
X138359674Y-73826860D01*
X139761674Y-73826860D01*
X139761674Y-74628860D01*
G37*
G36*
X178807000Y-74595000D02*
G01*
X178005000Y-74595000D01*
X178005000Y-73193000D01*
X178807000Y-73193000D01*
X178807000Y-74595000D01*
G37*
G36*
X176907000Y-74595000D02*
G01*
X176105000Y-74595000D01*
X176105000Y-73193000D01*
X176907000Y-73193000D01*
X176907000Y-74595000D01*
G37*
G36*
X185607000Y-74433000D02*
G01*
X184605000Y-74433000D01*
X184605000Y-73531000D01*
X185607000Y-73531000D01*
X185607000Y-74433000D01*
G37*
G36*
X166550500Y-73764800D02*
G01*
X162948500Y-73764800D01*
X162948500Y-71882800D01*
X166550500Y-71882800D01*
X166550500Y-73764800D01*
G37*
G36*
X137741116Y-72735932D02*
G01*
X136339116Y-72735932D01*
X136339116Y-71933932D01*
X137741116Y-71933932D01*
X137741116Y-72735932D01*
G37*
G36*
X139761674Y-72728860D02*
G01*
X138359674Y-72728860D01*
X138359674Y-71926860D01*
X139761674Y-71926860D01*
X139761674Y-72728860D01*
G37*
G36*
X128391600Y-71892500D02*
G01*
X127589600Y-71892500D01*
X127589600Y-70490500D01*
X128391600Y-70490500D01*
X128391600Y-71892500D01*
G37*
G36*
X126491600Y-71892500D02*
G01*
X125689600Y-71892500D01*
X125689600Y-70490500D01*
X126491600Y-70490500D01*
X126491600Y-71892500D01*
G37*
G36*
X124791100Y-71842500D02*
G01*
X123489100Y-71842500D01*
X123489100Y-70540500D01*
X124791100Y-70540500D01*
X124791100Y-71842500D01*
G37*
G36*
X122591100Y-71842500D02*
G01*
X121289100Y-71842500D01*
X121289100Y-70540500D01*
X122591100Y-70540500D01*
X122591100Y-71842500D01*
G37*
G36*
X133509934Y-71128717D02*
G01*
X132407934Y-71128717D01*
X132407934Y-69776717D01*
X133509934Y-69776717D01*
X133509934Y-71128717D01*
G37*
G36*
X131509934Y-71128717D02*
G01*
X130407934Y-71128717D01*
X130407934Y-69776717D01*
X131509934Y-69776717D01*
X131509934Y-71128717D01*
G37*
G36*
X171950500Y-70713800D02*
G01*
X170248500Y-70713800D01*
X170248500Y-69611800D01*
X171950500Y-69611800D01*
X171950500Y-70713800D01*
G37*
G36*
X169426000Y-70237800D02*
G01*
X168074000Y-70237800D01*
X168074000Y-69135800D01*
X169426000Y-69135800D01*
X169426000Y-70237800D01*
G37*
G36*
X135414000Y-70012000D02*
G01*
X134062000Y-70012000D01*
X134062000Y-68910000D01*
X135414000Y-68910000D01*
X135414000Y-70012000D01*
G37*
G36*
X146533368Y-64896536D02*
G01*
X146072334Y-65357570D01*
X145967682Y-65462221D01*
X145506648Y-65923255D01*
X145401997Y-66027907D01*
X143243907Y-68185997D01*
X143139255Y-68290648D01*
X142678221Y-68751682D01*
X142573570Y-68856334D01*
X142112536Y-69317368D01*
X140909040Y-68113872D01*
X141370074Y-67652838D01*
X141370075Y-67652839D01*
X141386339Y-67636575D01*
X141386348Y-67636564D01*
X141474726Y-67548187D01*
X141474725Y-67548186D01*
X141935759Y-67087152D01*
X141935760Y-67087153D01*
X142024137Y-66998775D01*
X142024148Y-66998766D01*
X142040412Y-66982502D01*
X142040411Y-66982501D01*
X142501445Y-66521467D01*
X142501446Y-66521468D01*
X142589833Y-66433080D01*
X142606097Y-66416817D01*
X142606096Y-66416816D01*
X143067130Y-65955782D01*
X143067131Y-65955783D01*
X143171783Y-65851131D01*
X143171782Y-65851130D01*
X143632816Y-65390096D01*
X143632817Y-65390097D01*
X143721204Y-65301709D01*
X143737468Y-65285446D01*
X143737467Y-65285445D01*
X144198501Y-64824411D01*
X144198502Y-64824412D01*
X144214766Y-64808148D01*
X144214775Y-64808137D01*
X144303153Y-64719760D01*
X144303152Y-64719759D01*
X144764186Y-64258725D01*
X144764187Y-64258726D01*
X144852564Y-64170348D01*
X144852575Y-64170339D01*
X144868839Y-64154075D01*
X144868838Y-64154074D01*
X145329872Y-63693040D01*
X146533368Y-64896536D01*
G37*
G36*
X136563162Y-64154074D02*
G01*
X136563162Y-64154075D01*
X136579426Y-64170339D01*
X136579432Y-64170344D01*
X136667814Y-64258726D01*
X136667814Y-64258725D01*
X137128848Y-64719759D01*
X137128848Y-64719760D01*
X137217230Y-64808142D01*
X137217235Y-64808148D01*
X137233499Y-64824412D01*
X137233499Y-64824411D01*
X137694533Y-65285445D01*
X137694533Y-65285446D01*
X137799184Y-65390097D01*
X137799184Y-65390096D01*
X138260218Y-65851130D01*
X138260218Y-65851131D01*
X138364870Y-65955783D01*
X138364870Y-65955782D01*
X138825904Y-66416816D01*
X138825904Y-66416817D01*
X138930555Y-66521468D01*
X138930555Y-66521467D01*
X139391589Y-66982501D01*
X139391589Y-66982502D01*
X139407853Y-66998766D01*
X139407859Y-66998771D01*
X139496241Y-67087153D01*
X139496241Y-67087152D01*
X139957275Y-67548186D01*
X139957275Y-67548187D01*
X140045657Y-67636569D01*
X140045662Y-67636575D01*
X140061926Y-67652839D01*
X140061926Y-67652838D01*
X140522960Y-68113872D01*
X139319464Y-69317368D01*
X138858430Y-68856334D01*
X138858431Y-68856334D01*
X138770049Y-68767952D01*
X138770044Y-68767946D01*
X138753780Y-68751682D01*
X138753779Y-68751682D01*
X138292745Y-68290648D01*
X138292746Y-68290648D01*
X138276482Y-68274384D01*
X138276476Y-68274379D01*
X138188094Y-68185997D01*
X138188093Y-68185997D01*
X137727059Y-67724963D01*
X137727060Y-67724963D01*
X137622409Y-67620312D01*
X137622408Y-67620312D01*
X137161374Y-67159278D01*
X137161375Y-67159278D01*
X137056723Y-67054626D01*
X137056722Y-67054626D01*
X136595688Y-66593592D01*
X136595689Y-66593592D01*
X136491038Y-66488941D01*
X136491037Y-66488941D01*
X136030003Y-66027907D01*
X136030004Y-66027907D01*
X135941622Y-65939525D01*
X135941617Y-65939519D01*
X135925353Y-65923255D01*
X135925352Y-65923255D01*
X135464318Y-65462221D01*
X135464319Y-65462221D01*
X135448055Y-65445957D01*
X135448049Y-65445952D01*
X135359667Y-65357570D01*
X135359666Y-65357570D01*
X134898632Y-64896536D01*
X136102128Y-63693040D01*
X136563162Y-64154074D01*
G37*
G36*
X166550500Y-68484800D02*
G01*
X162948500Y-68484800D01*
X162948500Y-66602800D01*
X166550500Y-66602800D01*
X166550500Y-68484800D01*
G37*
G36*
X169426000Y-68237800D02*
G01*
X168074000Y-68237800D01*
X168074000Y-67135800D01*
X169426000Y-67135800D01*
X169426000Y-68237800D01*
G37*
G36*
X133201434Y-68169217D02*
G01*
X132399434Y-68169217D01*
X132399434Y-66767217D01*
X133201434Y-66767217D01*
X133201434Y-68169217D01*
G37*
G36*
X131301434Y-68169217D02*
G01*
X130499434Y-68169217D01*
X130499434Y-66767217D01*
X131301434Y-66767217D01*
X131301434Y-68169217D01*
G37*
G36*
X135414000Y-68012000D02*
G01*
X134062000Y-68012000D01*
X134062000Y-66910000D01*
X135414000Y-66910000D01*
X135414000Y-68012000D01*
G37*
G36*
X171950500Y-67713800D02*
G01*
X170248500Y-67713800D01*
X170248500Y-66611800D01*
X171950500Y-66611800D01*
X171950500Y-67713800D01*
G37*
G36*
X148041000Y-66741000D02*
G01*
X147239000Y-66741000D01*
X147239000Y-65339000D01*
X148041000Y-65339000D01*
X148041000Y-66741000D01*
G37*
G36*
X149941000Y-66741000D02*
G01*
X149139000Y-66741000D01*
X149139000Y-65339000D01*
X149941000Y-65339000D01*
X149941000Y-66741000D01*
G37*
G36*
X169734960Y-66442200D02*
G01*
X167632960Y-66442200D01*
X167632960Y-65140200D01*
X169734960Y-65140200D01*
X169734960Y-66442200D01*
G37*
G36*
X166395420Y-65493700D02*
G01*
X163093420Y-65493700D01*
X163093420Y-64391700D01*
X166395420Y-64391700D01*
X166395420Y-65493700D01*
G37*
G36*
X176072780Y-65409920D02*
G01*
X174670780Y-65409920D01*
X174670780Y-64607920D01*
X176072780Y-64607920D01*
X176072780Y-65409920D01*
G37*
G36*
X171920500Y-65362300D02*
G01*
X170818500Y-65362300D01*
X170818500Y-64010300D01*
X171920500Y-64010300D01*
X171920500Y-65362300D01*
G37*
G36*
X173920500Y-65362300D02*
G01*
X172818500Y-65362300D01*
X172818500Y-64010300D01*
X173920500Y-64010300D01*
X173920500Y-65362300D01*
G37*
G36*
X176072780Y-63509920D02*
G01*
X174670780Y-63509920D01*
X174670780Y-62707920D01*
X176072780Y-62707920D01*
X176072780Y-63509920D01*
G37*
G36*
X140522960Y-58886128D02*
G01*
X140045662Y-59363426D01*
X139957275Y-59451814D01*
X139496241Y-59912848D01*
X139407853Y-60001235D01*
X138930555Y-60478533D01*
X138842167Y-60566920D01*
X138825904Y-60583184D01*
X137799184Y-61609904D01*
X137710796Y-61698291D01*
X137694533Y-61714555D01*
X137217235Y-62191853D01*
X137128848Y-62280241D01*
X136667814Y-62741275D01*
X136579426Y-62829662D01*
X136102128Y-63306960D01*
X134898632Y-62103464D01*
X135359666Y-61642430D01*
X135359667Y-61642431D01*
X135448044Y-61554053D01*
X135448055Y-61554044D01*
X135464319Y-61537780D01*
X135464318Y-61537779D01*
X135925352Y-61076745D01*
X135925353Y-61076746D01*
X135941617Y-61060482D01*
X135941626Y-61060471D01*
X136030004Y-60972094D01*
X136030003Y-60972093D01*
X136491037Y-60511059D01*
X136491038Y-60511060D01*
X136595689Y-60406409D01*
X136595688Y-60406408D01*
X137056722Y-59945374D01*
X137056723Y-59945375D01*
X137161375Y-59840723D01*
X137161374Y-59840722D01*
X137622408Y-59379688D01*
X137622409Y-59379689D01*
X137727060Y-59275038D01*
X137727059Y-59275037D01*
X138188093Y-58814003D01*
X138188094Y-58814004D01*
X138276471Y-58725626D01*
X138276482Y-58725617D01*
X138292746Y-58709353D01*
X138292745Y-58709352D01*
X138753779Y-58248318D01*
X138753780Y-58248319D01*
X138770044Y-58232055D01*
X138770053Y-58232044D01*
X138858431Y-58143667D01*
X138858430Y-58143666D01*
X139319464Y-57682632D01*
X140522960Y-58886128D01*
G37*
G36*
X142573570Y-58143666D02*
G01*
X142573570Y-58143667D01*
X142661952Y-58232049D01*
X142661957Y-58232055D01*
X142678221Y-58248319D01*
X142678221Y-58248318D01*
X143139255Y-58709352D01*
X143139255Y-58709353D01*
X143155519Y-58725617D01*
X143155525Y-58725622D01*
X143243907Y-58814004D01*
X143243907Y-58814003D01*
X143704941Y-59275037D01*
X143704941Y-59275038D01*
X143809592Y-59379689D01*
X143809592Y-59379688D01*
X144270626Y-59840722D01*
X144270626Y-59840723D01*
X144375278Y-59945375D01*
X144375278Y-59945374D01*
X144836312Y-60406408D01*
X144836312Y-60406409D01*
X144940963Y-60511060D01*
X144940963Y-60511059D01*
X145401997Y-60972093D01*
X145401997Y-60972094D01*
X145490379Y-61060476D01*
X145490384Y-61060482D01*
X145506648Y-61076746D01*
X145506648Y-61076745D01*
X145967682Y-61537779D01*
X145967682Y-61537780D01*
X145983946Y-61554044D01*
X145983952Y-61554049D01*
X146072334Y-61642431D01*
X146072334Y-61642430D01*
X146533368Y-62103464D01*
X145329872Y-63306960D01*
X144868838Y-62845926D01*
X144868839Y-62845926D01*
X144852575Y-62829662D01*
X144852569Y-62829657D01*
X144764187Y-62741275D01*
X144764186Y-62741275D01*
X144303152Y-62280241D01*
X144303153Y-62280241D01*
X144214771Y-62191859D01*
X144214766Y-62191853D01*
X144198502Y-62175589D01*
X144198501Y-62175589D01*
X143737467Y-61714555D01*
X143737468Y-61714555D01*
X143632817Y-61609904D01*
X143632816Y-61609904D01*
X143171782Y-61148870D01*
X143171783Y-61148870D01*
X143067131Y-61044218D01*
X143067130Y-61044218D01*
X142606096Y-60583184D01*
X142606097Y-60583184D01*
X142501446Y-60478533D01*
X142501445Y-60478533D01*
X142040411Y-60017499D01*
X142040412Y-60017499D01*
X142024148Y-60001235D01*
X142024142Y-60001230D01*
X141935760Y-59912848D01*
X141935759Y-59912848D01*
X141474725Y-59451814D01*
X141474726Y-59451814D01*
X141386344Y-59363432D01*
X141386339Y-59363426D01*
X141370075Y-59347162D01*
X141370074Y-59347162D01*
X140909040Y-58886128D01*
X142112536Y-57682632D01*
X142573570Y-58143666D01*
G37*
G36*
X169734960Y-63242200D02*
G01*
X167632960Y-63242200D01*
X167632960Y-61940200D01*
X169734960Y-61940200D01*
X169734960Y-63242200D01*
G37*
G36*
X171865700Y-62718100D02*
G01*
X170703700Y-62718100D01*
X170703700Y-60066100D01*
X171865700Y-60066100D01*
X171865700Y-62718100D01*
G37*
G36*
X174065700Y-62718100D02*
G01*
X172903700Y-62718100D01*
X172903700Y-60066100D01*
X174065700Y-60066100D01*
X174065700Y-62718100D01*
G37*
G36*
X176088020Y-61523720D02*
G01*
X174686020Y-61523720D01*
X174686020Y-60721720D01*
X176088020Y-60721720D01*
X176088020Y-61523720D01*
G37*
G36*
X160451500Y-61115500D02*
G01*
X159649500Y-61115500D01*
X159649500Y-59713500D01*
X160451500Y-59713500D01*
X160451500Y-61115500D01*
G37*
G36*
X162351500Y-61115500D02*
G01*
X161549500Y-61115500D01*
X161549500Y-59713500D01*
X162351500Y-59713500D01*
X162351500Y-61115500D01*
G37*
G36*
X156751500Y-61065500D02*
G01*
X155449500Y-61065500D01*
X155449500Y-59763500D01*
X156751500Y-59763500D01*
X156751500Y-61065500D01*
G37*
G36*
X158951500Y-61065500D02*
G01*
X157649500Y-61065500D01*
X157649500Y-59763500D01*
X158951500Y-59763500D01*
X158951500Y-61065500D01*
G37*
G36*
X176088020Y-59623720D02*
G01*
X174686020Y-59623720D01*
X174686020Y-58821720D01*
X176088020Y-58821720D01*
X176088020Y-59623720D01*
G37*
G36*
X166395420Y-59293700D02*
G01*
X163093420Y-59293700D01*
X163093420Y-58191700D01*
X166395420Y-58191700D01*
X166395420Y-59293700D01*
G37*
G36*
X171991000Y-58698800D02*
G01*
X171089000Y-58698800D01*
X171089000Y-57846800D01*
X171991000Y-57846800D01*
X171991000Y-58698800D01*
G37*
G36*
X173491000Y-58698800D02*
G01*
X172589000Y-58698800D01*
X172589000Y-57846800D01*
X173491000Y-57846800D01*
X173491000Y-58698800D01*
G37*
G36*
X169924000Y-58636300D02*
G01*
X167322000Y-58636300D01*
X167322000Y-57634300D01*
X169924000Y-57634300D01*
X169924000Y-58636300D01*
G37*
G36*
X135426143Y-58071161D02*
G01*
X133924143Y-58071161D01*
X133924143Y-56769161D01*
X135426143Y-56769161D01*
X135426143Y-58071161D01*
G37*
G36*
X137626143Y-58071161D02*
G01*
X136124143Y-58071161D01*
X136124143Y-56769161D01*
X137626143Y-56769161D01*
X137626143Y-58071161D01*
G37*
G36*
X133365600Y-57939000D02*
G01*
X132013600Y-57939000D01*
X132013600Y-56837000D01*
X133365600Y-56837000D01*
X133365600Y-57939000D01*
G37*
G36*
X173750320Y-57142860D02*
G01*
X172648320Y-57142860D01*
X172648320Y-55790860D01*
X173750320Y-55790860D01*
X173750320Y-57142860D01*
G37*
G36*
X171750320Y-57142860D02*
G01*
X170648320Y-57142860D01*
X170648320Y-55790860D01*
X171750320Y-55790860D01*
X171750320Y-57142860D01*
G37*
G36*
X137626143Y-56471161D02*
G01*
X136124143Y-56471161D01*
X136124143Y-55169161D01*
X137626143Y-55169161D01*
X137626143Y-56471161D01*
G37*
G36*
X135426143Y-56471161D02*
G01*
X133924143Y-56471161D01*
X133924143Y-55169161D01*
X135426143Y-55169161D01*
X135426143Y-56471161D01*
G37*
G36*
X133365600Y-55939000D02*
G01*
X132013600Y-55939000D01*
X132013600Y-54837000D01*
X133365600Y-54837000D01*
X133365600Y-55939000D01*
G37*
G36*
X148776784Y-55757916D02*
G01*
X147124784Y-55757916D01*
X147124784Y-55055916D01*
X148776784Y-55055916D01*
X148776784Y-55757916D01*
G37*
G36*
X143376784Y-55757916D02*
G01*
X141724784Y-55757916D01*
X141724784Y-55055916D01*
X143376784Y-55055916D01*
X143376784Y-55757916D01*
G37*
G36*
X169924000Y-55736300D02*
G01*
X167322000Y-55736300D01*
X167322000Y-54734300D01*
X169924000Y-54734300D01*
X169924000Y-55736300D01*
G37*
G36*
X140898000Y-55005000D02*
G01*
X139546000Y-55005000D01*
X139546000Y-53903000D01*
X140898000Y-53903000D01*
X140898000Y-55005000D01*
G37*
G36*
X151069000Y-54757000D02*
G01*
X149667000Y-54757000D01*
X149667000Y-53955000D01*
X151069000Y-53955000D01*
X151069000Y-54757000D01*
G37*
G36*
X137291343Y-54527561D02*
G01*
X136189343Y-54527561D01*
X136189343Y-53175561D01*
X137291343Y-53175561D01*
X137291343Y-54527561D01*
G37*
G36*
X135291343Y-54527561D02*
G01*
X134189343Y-54527561D01*
X134189343Y-53175561D01*
X135291343Y-53175561D01*
X135291343Y-54527561D01*
G37*
G36*
X148776784Y-54487916D02*
G01*
X147124784Y-54487916D01*
X147124784Y-53785916D01*
X148776784Y-53785916D01*
X148776784Y-54487916D01*
G37*
G36*
X143376784Y-54487916D02*
G01*
X141724784Y-54487916D01*
X141724784Y-53785916D01*
X143376784Y-53785916D01*
X143376784Y-54487916D01*
G37*
G36*
X148776784Y-53217916D02*
G01*
X147124784Y-53217916D01*
X147124784Y-52515916D01*
X148776784Y-52515916D01*
X148776784Y-53217916D01*
G37*
G36*
X143376784Y-53217916D02*
G01*
X141724784Y-53217916D01*
X141724784Y-52515916D01*
X143376784Y-52515916D01*
X143376784Y-53217916D01*
G37*
G36*
X140898000Y-53005000D02*
G01*
X139546000Y-53005000D01*
X139546000Y-51903000D01*
X140898000Y-51903000D01*
X140898000Y-53005000D01*
G37*
G36*
X151069000Y-52857000D02*
G01*
X149667000Y-52857000D01*
X149667000Y-52055000D01*
X151069000Y-52055000D01*
X151069000Y-52857000D01*
G37*
G36*
X173627000Y-52799300D02*
G01*
X171747000Y-52799300D01*
X171747000Y-50538300D01*
X173627000Y-50538300D01*
X173627000Y-52799300D01*
G37*
G36*
X169563000Y-52799300D02*
G01*
X167683000Y-52799300D01*
X167683000Y-50538300D01*
X169563000Y-50538300D01*
X169563000Y-52799300D01*
G37*
G36*
X148776784Y-51947916D02*
G01*
X147124784Y-51947916D01*
X147124784Y-51245916D01*
X148776784Y-51245916D01*
X148776784Y-51947916D01*
G37*
G36*
X143376784Y-51947916D02*
G01*
X141724784Y-51947916D01*
X141724784Y-51245916D01*
X143376784Y-51245916D01*
X143376784Y-51947916D01*
G37*
G36*
X170401500Y-47315500D02*
G01*
X169599500Y-47315500D01*
X169599500Y-45913500D01*
X170401500Y-45913500D01*
X170401500Y-47315500D01*
G37*
G36*
X172301500Y-47315500D02*
G01*
X171499500Y-47315500D01*
X171499500Y-45913500D01*
X172301500Y-45913500D01*
X172301500Y-47315500D01*
G37*
G36*
X174301500Y-47265500D02*
G01*
X172999500Y-47265500D01*
X172999500Y-45963500D01*
X174301500Y-45963500D01*
X174301500Y-47265500D01*
G37*
G36*
X176501500Y-47265500D02*
G01*
X175199500Y-47265500D01*
X175199500Y-45963500D01*
X176501500Y-45963500D01*
X176501500Y-47265500D01*
G37*
G36*
X149048473Y-44799938D02*
G01*
X149176049Y-44852782D01*
X149290859Y-44929495D01*
X149388505Y-45027141D01*
X149465218Y-45141951D01*
X149518062Y-45269527D01*
X149545000Y-45404956D01*
X149545000Y-45543044D01*
X149518062Y-45678473D01*
X149465218Y-45806049D01*
X149388505Y-45920859D01*
X149290859Y-46018505D01*
X149176049Y-46095218D01*
X149048473Y-46148062D01*
X148913044Y-46175000D01*
X148774956Y-46175000D01*
X148639527Y-46148062D01*
X148511951Y-46095218D01*
X148397141Y-46018505D01*
X148299495Y-45920859D01*
X148222782Y-45806049D01*
X148169938Y-45678473D01*
X148143000Y-45543044D01*
X148143000Y-45404956D01*
X148169938Y-45269527D01*
X148222782Y-45141951D01*
X148299495Y-45027141D01*
X148397141Y-44929495D01*
X148511951Y-44852782D01*
X148639527Y-44799938D01*
X148774956Y-44773000D01*
X148913044Y-44773000D01*
X149048473Y-44799938D01*
G37*
G36*
X151588473Y-44799938D02*
G01*
X151716049Y-44852782D01*
X151830859Y-44929495D01*
X151928505Y-45027141D01*
X152005218Y-45141951D01*
X152058062Y-45269527D01*
X152085000Y-45404956D01*
X152085000Y-45543044D01*
X152058062Y-45678473D01*
X152005218Y-45806049D01*
X151928505Y-45920859D01*
X151830859Y-46018505D01*
X151716049Y-46095218D01*
X151588473Y-46148062D01*
X151453044Y-46175000D01*
X151314956Y-46175000D01*
X151179527Y-46148062D01*
X151051951Y-46095218D01*
X150937141Y-46018505D01*
X150839495Y-45920859D01*
X150762782Y-45806049D01*
X150709938Y-45678473D01*
X150683000Y-45543044D01*
X150683000Y-45404956D01*
X150709938Y-45269527D01*
X150762782Y-45141951D01*
X150839495Y-45027141D01*
X150937141Y-44929495D01*
X151051951Y-44852782D01*
X151179527Y-44799938D01*
X151314956Y-44773000D01*
X151453044Y-44773000D01*
X151588473Y-44799938D01*
G37*
G36*
X138888473Y-44799938D02*
G01*
X139016049Y-44852782D01*
X139130859Y-44929495D01*
X139228505Y-45027141D01*
X139305218Y-45141951D01*
X139358062Y-45269527D01*
X139385000Y-45404956D01*
X139385000Y-45543044D01*
X139358062Y-45678473D01*
X139305218Y-45806049D01*
X139228505Y-45920859D01*
X139130859Y-46018505D01*
X139016049Y-46095218D01*
X138888473Y-46148062D01*
X138753044Y-46175000D01*
X138614956Y-46175000D01*
X138479527Y-46148062D01*
X138351951Y-46095218D01*
X138237141Y-46018505D01*
X138139495Y-45920859D01*
X138062782Y-45806049D01*
X138009938Y-45678473D01*
X137983000Y-45543044D01*
X137983000Y-45404956D01*
X138009938Y-45269527D01*
X138062782Y-45141951D01*
X138139495Y-45027141D01*
X138237141Y-44929495D01*
X138351951Y-44852782D01*
X138479527Y-44799938D01*
X138614956Y-44773000D01*
X138753044Y-44773000D01*
X138888473Y-44799938D01*
G37*
G36*
X156668473Y-44799938D02*
G01*
X156796049Y-44852782D01*
X156910859Y-44929495D01*
X157008505Y-45027141D01*
X157085218Y-45141951D01*
X157138062Y-45269527D01*
X157165000Y-45404956D01*
X157165000Y-45543044D01*
X157138062Y-45678473D01*
X157085218Y-45806049D01*
X157008505Y-45920859D01*
X156910859Y-46018505D01*
X156796049Y-46095218D01*
X156668473Y-46148062D01*
X156533044Y-46175000D01*
X156394956Y-46175000D01*
X156259527Y-46148062D01*
X156131951Y-46095218D01*
X156017141Y-46018505D01*
X155919495Y-45920859D01*
X155842782Y-45806049D01*
X155789938Y-45678473D01*
X155763000Y-45543044D01*
X155763000Y-45404956D01*
X155789938Y-45269527D01*
X155842782Y-45141951D01*
X155919495Y-45027141D01*
X156017141Y-44929495D01*
X156131951Y-44852782D01*
X156259527Y-44799938D01*
X156394956Y-44773000D01*
X156533044Y-44773000D01*
X156668473Y-44799938D01*
G37*
G36*
X159208473Y-44799938D02*
G01*
X159336049Y-44852782D01*
X159450859Y-44929495D01*
X159548505Y-45027141D01*
X159625218Y-45141951D01*
X159678062Y-45269527D01*
X159705000Y-45404956D01*
X159705000Y-45543044D01*
X159678062Y-45678473D01*
X159625218Y-45806049D01*
X159548505Y-45920859D01*
X159450859Y-46018505D01*
X159336049Y-46095218D01*
X159208473Y-46148062D01*
X159073044Y-46175000D01*
X158934956Y-46175000D01*
X158799527Y-46148062D01*
X158671951Y-46095218D01*
X158557141Y-46018505D01*
X158459495Y-45920859D01*
X158382782Y-45806049D01*
X158329938Y-45678473D01*
X158303000Y-45543044D01*
X158303000Y-45404956D01*
X158329938Y-45269527D01*
X158382782Y-45141951D01*
X158459495Y-45027141D01*
X158557141Y-44929495D01*
X158671951Y-44852782D01*
X158799527Y-44799938D01*
X158934956Y-44773000D01*
X159073044Y-44773000D01*
X159208473Y-44799938D01*
G37*
G36*
X146508473Y-44799938D02*
G01*
X146636049Y-44852782D01*
X146750859Y-44929495D01*
X146848505Y-45027141D01*
X146925218Y-45141951D01*
X146978062Y-45269527D01*
X147005000Y-45404956D01*
X147005000Y-45543044D01*
X146978062Y-45678473D01*
X146925218Y-45806049D01*
X146848505Y-45920859D01*
X146750859Y-46018505D01*
X146636049Y-46095218D01*
X146508473Y-46148062D01*
X146373044Y-46175000D01*
X146234956Y-46175000D01*
X146099527Y-46148062D01*
X145971951Y-46095218D01*
X145857141Y-46018505D01*
X145759495Y-45920859D01*
X145682782Y-45806049D01*
X145629938Y-45678473D01*
X145603000Y-45543044D01*
X145603000Y-45404956D01*
X145629938Y-45269527D01*
X145682782Y-45141951D01*
X145759495Y-45027141D01*
X145857141Y-44929495D01*
X145971951Y-44852782D01*
X146099527Y-44799938D01*
X146234956Y-44773000D01*
X146373044Y-44773000D01*
X146508473Y-44799938D01*
G37*
G36*
X143968473Y-44799938D02*
G01*
X144096049Y-44852782D01*
X144210859Y-44929495D01*
X144308505Y-45027141D01*
X144385218Y-45141951D01*
X144438062Y-45269527D01*
X144465000Y-45404956D01*
X144465000Y-45543044D01*
X144438062Y-45678473D01*
X144385218Y-45806049D01*
X144308505Y-45920859D01*
X144210859Y-46018505D01*
X144096049Y-46095218D01*
X143968473Y-46148062D01*
X143833044Y-46175000D01*
X143694956Y-46175000D01*
X143559527Y-46148062D01*
X143431951Y-46095218D01*
X143317141Y-46018505D01*
X143219495Y-45920859D01*
X143142782Y-45806049D01*
X143089938Y-45678473D01*
X143063000Y-45543044D01*
X143063000Y-45404956D01*
X143089938Y-45269527D01*
X143142782Y-45141951D01*
X143219495Y-45027141D01*
X143317141Y-44929495D01*
X143431951Y-44852782D01*
X143559527Y-44799938D01*
X143694956Y-44773000D01*
X143833044Y-44773000D01*
X143968473Y-44799938D01*
G37*
G36*
X141428473Y-44799938D02*
G01*
X141556049Y-44852782D01*
X141670859Y-44929495D01*
X141768505Y-45027141D01*
X141845218Y-45141951D01*
X141898062Y-45269527D01*
X141925000Y-45404956D01*
X141925000Y-45543044D01*
X141898062Y-45678473D01*
X141845218Y-45806049D01*
X141768505Y-45920859D01*
X141670859Y-46018505D01*
X141556049Y-46095218D01*
X141428473Y-46148062D01*
X141293044Y-46175000D01*
X141154956Y-46175000D01*
X141019527Y-46148062D01*
X140891951Y-46095218D01*
X140777141Y-46018505D01*
X140679495Y-45920859D01*
X140602782Y-45806049D01*
X140549938Y-45678473D01*
X140523000Y-45543044D01*
X140523000Y-45404956D01*
X140549938Y-45269527D01*
X140602782Y-45141951D01*
X140679495Y-45027141D01*
X140777141Y-44929495D01*
X140891951Y-44852782D01*
X141019527Y-44799938D01*
X141154956Y-44773000D01*
X141293044Y-44773000D01*
X141428473Y-44799938D01*
G37*
G36*
X136348473Y-44799938D02*
G01*
X136476049Y-44852782D01*
X136590859Y-44929495D01*
X136688505Y-45027141D01*
X136765218Y-45141951D01*
X136818062Y-45269527D01*
X136845000Y-45404956D01*
X136845000Y-45543044D01*
X136818062Y-45678473D01*
X136765218Y-45806049D01*
X136688505Y-45920859D01*
X136590859Y-46018505D01*
X136476049Y-46095218D01*
X136348473Y-46148062D01*
X136213044Y-46175000D01*
X136074956Y-46175000D01*
X135939527Y-46148062D01*
X135811951Y-46095218D01*
X135697141Y-46018505D01*
X135599495Y-45920859D01*
X135522782Y-45806049D01*
X135469938Y-45678473D01*
X135443000Y-45543044D01*
X135443000Y-45404956D01*
X135469938Y-45269527D01*
X135522782Y-45141951D01*
X135599495Y-45027141D01*
X135697141Y-44929495D01*
X135811951Y-44852782D01*
X135939527Y-44799938D01*
X136074956Y-44773000D01*
X136213044Y-44773000D01*
X136348473Y-44799938D01*
G37*
G36*
X154128473Y-44799938D02*
G01*
X154256049Y-44852782D01*
X154370859Y-44929495D01*
X154468505Y-45027141D01*
X154545218Y-45141951D01*
X154598062Y-45269527D01*
X154625000Y-45404956D01*
X154625000Y-45543044D01*
X154598062Y-45678473D01*
X154545218Y-45806049D01*
X154468505Y-45920859D01*
X154370859Y-46018505D01*
X154256049Y-46095218D01*
X154128473Y-46148062D01*
X153993044Y-46175000D01*
X153854956Y-46175000D01*
X153719527Y-46148062D01*
X153591951Y-46095218D01*
X153477141Y-46018505D01*
X153379495Y-45920859D01*
X153302782Y-45806049D01*
X153249938Y-45678473D01*
X153223000Y-45543044D01*
X153223000Y-45404956D01*
X153249938Y-45269527D01*
X153302782Y-45141951D01*
X153379495Y-45027141D01*
X153477141Y-44929495D01*
X153591951Y-44852782D01*
X153719527Y-44799938D01*
X153854956Y-44773000D01*
X153993044Y-44773000D01*
X154128473Y-44799938D01*
G37*
G36*
X137618473Y-42259938D02*
G01*
X137746049Y-42312782D01*
X137860859Y-42389495D01*
X137958505Y-42487141D01*
X138035218Y-42601951D01*
X138088062Y-42729527D01*
X138115000Y-42864956D01*
X138115000Y-43003044D01*
X138088062Y-43138473D01*
X138035218Y-43266049D01*
X137958505Y-43380859D01*
X137860859Y-43478505D01*
X137746049Y-43555218D01*
X137618473Y-43608062D01*
X137483044Y-43635000D01*
X137344956Y-43635000D01*
X137209527Y-43608062D01*
X137081951Y-43555218D01*
X136967141Y-43478505D01*
X136869495Y-43380859D01*
X136792782Y-43266049D01*
X136739938Y-43138473D01*
X136713000Y-43003044D01*
X136713000Y-42864956D01*
X136739938Y-42729527D01*
X136792782Y-42601951D01*
X136869495Y-42487141D01*
X136967141Y-42389495D01*
X137081951Y-42312782D01*
X137209527Y-42259938D01*
X137344956Y-42233000D01*
X137483044Y-42233000D01*
X137618473Y-42259938D01*
G37*
G36*
X160478473Y-42259938D02*
G01*
X160606049Y-42312782D01*
X160720859Y-42389495D01*
X160818505Y-42487141D01*
X160895218Y-42601951D01*
X160948062Y-42729527D01*
X160975000Y-42864956D01*
X160975000Y-43003044D01*
X160948062Y-43138473D01*
X160895218Y-43266049D01*
X160818505Y-43380859D01*
X160720859Y-43478505D01*
X160606049Y-43555218D01*
X160478473Y-43608062D01*
X160343044Y-43635000D01*
X160204956Y-43635000D01*
X160069527Y-43608062D01*
X159941951Y-43555218D01*
X159827141Y-43478505D01*
X159729495Y-43380859D01*
X159652782Y-43266049D01*
X159599938Y-43138473D01*
X159573000Y-43003044D01*
X159573000Y-42864956D01*
X159599938Y-42729527D01*
X159652782Y-42601951D01*
X159729495Y-42487141D01*
X159827141Y-42389495D01*
X159941951Y-42312782D01*
X160069527Y-42259938D01*
X160204956Y-42233000D01*
X160343044Y-42233000D01*
X160478473Y-42259938D01*
G37*
G36*
X157938473Y-42259938D02*
G01*
X158066049Y-42312782D01*
X158180859Y-42389495D01*
X158278505Y-42487141D01*
X158355218Y-42601951D01*
X158408062Y-42729527D01*
X158435000Y-42864956D01*
X158435000Y-43003044D01*
X158408062Y-43138473D01*
X158355218Y-43266049D01*
X158278505Y-43380859D01*
X158180859Y-43478505D01*
X158066049Y-43555218D01*
X157938473Y-43608062D01*
X157803044Y-43635000D01*
X157664956Y-43635000D01*
X157529527Y-43608062D01*
X157401951Y-43555218D01*
X157287141Y-43478505D01*
X157189495Y-43380859D01*
X157112782Y-43266049D01*
X157059938Y-43138473D01*
X157033000Y-43003044D01*
X157033000Y-42864956D01*
X157059938Y-42729527D01*
X157112782Y-42601951D01*
X157189495Y-42487141D01*
X157287141Y-42389495D01*
X157401951Y-42312782D01*
X157529527Y-42259938D01*
X157664956Y-42233000D01*
X157803044Y-42233000D01*
X157938473Y-42259938D01*
G37*
G36*
X155398473Y-42259938D02*
G01*
X155526049Y-42312782D01*
X155640859Y-42389495D01*
X155738505Y-42487141D01*
X155815218Y-42601951D01*
X155868062Y-42729527D01*
X155895000Y-42864956D01*
X155895000Y-43003044D01*
X155868062Y-43138473D01*
X155815218Y-43266049D01*
X155738505Y-43380859D01*
X155640859Y-43478505D01*
X155526049Y-43555218D01*
X155398473Y-43608062D01*
X155263044Y-43635000D01*
X155124956Y-43635000D01*
X154989527Y-43608062D01*
X154861951Y-43555218D01*
X154747141Y-43478505D01*
X154649495Y-43380859D01*
X154572782Y-43266049D01*
X154519938Y-43138473D01*
X154493000Y-43003044D01*
X154493000Y-42864956D01*
X154519938Y-42729527D01*
X154572782Y-42601951D01*
X154649495Y-42487141D01*
X154747141Y-42389495D01*
X154861951Y-42312782D01*
X154989527Y-42259938D01*
X155124956Y-42233000D01*
X155263044Y-42233000D01*
X155398473Y-42259938D01*
G37*
G36*
X152858473Y-42259938D02*
G01*
X152986049Y-42312782D01*
X153100859Y-42389495D01*
X153198505Y-42487141D01*
X153275218Y-42601951D01*
X153328062Y-42729527D01*
X153355000Y-42864956D01*
X153355000Y-43003044D01*
X153328062Y-43138473D01*
X153275218Y-43266049D01*
X153198505Y-43380859D01*
X153100859Y-43478505D01*
X152986049Y-43555218D01*
X152858473Y-43608062D01*
X152723044Y-43635000D01*
X152584956Y-43635000D01*
X152449527Y-43608062D01*
X152321951Y-43555218D01*
X152207141Y-43478505D01*
X152109495Y-43380859D01*
X152032782Y-43266049D01*
X151979938Y-43138473D01*
X151953000Y-43003044D01*
X151953000Y-42864956D01*
X151979938Y-42729527D01*
X152032782Y-42601951D01*
X152109495Y-42487141D01*
X152207141Y-42389495D01*
X152321951Y-42312782D01*
X152449527Y-42259938D01*
X152584956Y-42233000D01*
X152723044Y-42233000D01*
X152858473Y-42259938D01*
G37*
G36*
X150318473Y-42259938D02*
G01*
X150446049Y-42312782D01*
X150560859Y-42389495D01*
X150658505Y-42487141D01*
X150735218Y-42601951D01*
X150788062Y-42729527D01*
X150815000Y-42864956D01*
X150815000Y-43003044D01*
X150788062Y-43138473D01*
X150735218Y-43266049D01*
X150658505Y-43380859D01*
X150560859Y-43478505D01*
X150446049Y-43555218D01*
X150318473Y-43608062D01*
X150183044Y-43635000D01*
X150044956Y-43635000D01*
X149909527Y-43608062D01*
X149781951Y-43555218D01*
X149667141Y-43478505D01*
X149569495Y-43380859D01*
X149492782Y-43266049D01*
X149439938Y-43138473D01*
X149413000Y-43003044D01*
X149413000Y-42864956D01*
X149439938Y-42729527D01*
X149492782Y-42601951D01*
X149569495Y-42487141D01*
X149667141Y-42389495D01*
X149781951Y-42312782D01*
X149909527Y-42259938D01*
X150044956Y-42233000D01*
X150183044Y-42233000D01*
X150318473Y-42259938D01*
G37*
G36*
X147778473Y-42259938D02*
G01*
X147906049Y-42312782D01*
X148020859Y-42389495D01*
X148118505Y-42487141D01*
X148195218Y-42601951D01*
X148248062Y-42729527D01*
X148275000Y-42864956D01*
X148275000Y-43003044D01*
X148248062Y-43138473D01*
X148195218Y-43266049D01*
X148118505Y-43380859D01*
X148020859Y-43478505D01*
X147906049Y-43555218D01*
X147778473Y-43608062D01*
X147643044Y-43635000D01*
X147504956Y-43635000D01*
X147369527Y-43608062D01*
X147241951Y-43555218D01*
X147127141Y-43478505D01*
X147029495Y-43380859D01*
X146952782Y-43266049D01*
X146899938Y-43138473D01*
X146873000Y-43003044D01*
X146873000Y-42864956D01*
X146899938Y-42729527D01*
X146952782Y-42601951D01*
X147029495Y-42487141D01*
X147127141Y-42389495D01*
X147241951Y-42312782D01*
X147369527Y-42259938D01*
X147504956Y-42233000D01*
X147643044Y-42233000D01*
X147778473Y-42259938D01*
G37*
G36*
X145238473Y-42259938D02*
G01*
X145366049Y-42312782D01*
X145480859Y-42389495D01*
X145578505Y-42487141D01*
X145655218Y-42601951D01*
X145708062Y-42729527D01*
X145735000Y-42864956D01*
X145735000Y-43003044D01*
X145708062Y-43138473D01*
X145655218Y-43266049D01*
X145578505Y-43380859D01*
X145480859Y-43478505D01*
X145366049Y-43555218D01*
X145238473Y-43608062D01*
X145103044Y-43635000D01*
X144964956Y-43635000D01*
X144829527Y-43608062D01*
X144701951Y-43555218D01*
X144587141Y-43478505D01*
X144489495Y-43380859D01*
X144412782Y-43266049D01*
X144359938Y-43138473D01*
X144333000Y-43003044D01*
X144333000Y-42864956D01*
X144359938Y-42729527D01*
X144412782Y-42601951D01*
X144489495Y-42487141D01*
X144587141Y-42389495D01*
X144701951Y-42312782D01*
X144829527Y-42259938D01*
X144964956Y-42233000D01*
X145103044Y-42233000D01*
X145238473Y-42259938D01*
G37*
G36*
X142698473Y-42259938D02*
G01*
X142826049Y-42312782D01*
X142940859Y-42389495D01*
X143038505Y-42487141D01*
X143115218Y-42601951D01*
X143168062Y-42729527D01*
X143195000Y-42864956D01*
X143195000Y-43003044D01*
X143168062Y-43138473D01*
X143115218Y-43266049D01*
X143038505Y-43380859D01*
X142940859Y-43478505D01*
X142826049Y-43555218D01*
X142698473Y-43608062D01*
X142563044Y-43635000D01*
X142424956Y-43635000D01*
X142289527Y-43608062D01*
X142161951Y-43555218D01*
X142047141Y-43478505D01*
X141949495Y-43380859D01*
X141872782Y-43266049D01*
X141819938Y-43138473D01*
X141793000Y-43003044D01*
X141793000Y-42864956D01*
X141819938Y-42729527D01*
X141872782Y-42601951D01*
X141949495Y-42487141D01*
X142047141Y-42389495D01*
X142161951Y-42312782D01*
X142289527Y-42259938D01*
X142424956Y-42233000D01*
X142563044Y-42233000D01*
X142698473Y-42259938D01*
G37*
G36*
X140158473Y-42259938D02*
G01*
X140286049Y-42312782D01*
X140400859Y-42389495D01*
X140498505Y-42487141D01*
X140575218Y-42601951D01*
X140628062Y-42729527D01*
X140655000Y-42864956D01*
X140655000Y-43003044D01*
X140628062Y-43138473D01*
X140575218Y-43266049D01*
X140498505Y-43380859D01*
X140400859Y-43478505D01*
X140286049Y-43555218D01*
X140158473Y-43608062D01*
X140023044Y-43635000D01*
X139884956Y-43635000D01*
X139749527Y-43608062D01*
X139621951Y-43555218D01*
X139507141Y-43478505D01*
X139409495Y-43380859D01*
X139332782Y-43266049D01*
X139279938Y-43138473D01*
X139253000Y-43003044D01*
X139253000Y-42864956D01*
X139279938Y-42729527D01*
X139332782Y-42601951D01*
X139409495Y-42487141D01*
X139507141Y-42389495D01*
X139621951Y-42312782D01*
X139749527Y-42259938D01*
X139884956Y-42233000D01*
X140023044Y-42233000D01*
X140158473Y-42259938D01*
G37*
M02*
