G04 #@! TF.GenerationSoftware,KiCad,Pcbnew,5.1.5-52549c5~84~ubuntu18.04.1*
G04 #@! TF.CreationDate,2019-12-02T20:47:02-05:00*
G04 #@! TF.ProjectId,Brakelight_Shutdown_BSPD,4272616b-656c-4696-9768-745f53687574,rev?*
G04 #@! TF.SameCoordinates,Original*
G04 #@! TF.FileFunction,Copper,L1,Top*
G04 #@! TF.FilePolarity,Positive*
%FSLAX46Y46*%
G04 Gerber Fmt 4.6, Leading zero omitted, Abs format (unit mm)*
G04 Created by KiCad (PCBNEW 5.1.5-52549c5~84~ubuntu18.04.1) date 2019-12-02 20:47:02*
%MOMM*%
%LPD*%
G04 APERTURE LIST*
%ADD10R,0.700000X1.300000*%
%ADD11R,1.200000X1.200000*%
%ADD12R,1.300000X0.700000*%
%ADD13R,1.550000X0.600000*%
%ADD14R,1.250000X1.000000*%
%ADD15C,0.100000*%
%ADD16R,1.000000X1.250000*%
%ADD17R,1.400000X1.200000*%
%ADD18R,1.400000X1.400000*%
%ADD19C,1.400000*%
%ADD20R,0.800000X0.750000*%
%ADD21R,1.060000X0.650000*%
%ADD22R,3.500000X1.780000*%
%ADD23R,2.000000X1.200000*%
%ADD24R,1.600000X1.000000*%
%ADD25R,3.200000X1.000000*%
%ADD26R,1.778000X2.159000*%
%ADD27R,2.500000X0.900000*%
%ADD28R,0.800000X0.900000*%
%ADD29R,0.650000X1.060000*%
%ADD30R,0.900000X0.800000*%
%ADD31C,1.300000*%
%ADD32C,0.609600*%
%ADD33C,0.800000*%
%ADD34C,0.152400*%
%ADD35C,0.254000*%
%ADD36C,0.381000*%
%ADD37C,0.250000*%
%ADD38C,0.800000*%
G04 APERTURE END LIST*
D10*
X126052500Y-77863900D03*
X127952500Y-77863900D03*
X128003300Y-74505000D03*
X126103300Y-74505000D03*
D11*
X121940100Y-71191500D03*
X124140100Y-71191500D03*
D10*
X126090600Y-71191500D03*
X127990600Y-71191500D03*
D11*
X121902000Y-77863900D03*
X124102000Y-77863900D03*
X124152800Y-74505000D03*
X121952800Y-74505000D03*
D12*
X150368000Y-54356000D03*
X150368000Y-52456000D03*
D13*
X142550784Y-51596916D03*
X142550784Y-52866916D03*
X142550784Y-54136916D03*
X142550784Y-55406916D03*
X147950784Y-55406916D03*
X147950784Y-54136916D03*
X147950784Y-52866916D03*
X147950784Y-51596916D03*
D14*
X140222000Y-54454000D03*
X140222000Y-52454000D03*
G04 #@! TA.AperFunction,SMDPad,CuDef*
D15*
G36*
X146072334Y-61714555D02*
G01*
X146461243Y-62103464D01*
X145329872Y-63234835D01*
X144940963Y-62845926D01*
X146072334Y-61714555D01*
G37*
G04 #@! TD.AperFunction*
G04 #@! TA.AperFunction,SMDPad,CuDef*
G36*
X145506648Y-61148870D02*
G01*
X145895557Y-61537779D01*
X144764186Y-62669150D01*
X144375277Y-62280241D01*
X145506648Y-61148870D01*
G37*
G04 #@! TD.AperFunction*
G04 #@! TA.AperFunction,SMDPad,CuDef*
G36*
X144940963Y-60583184D02*
G01*
X145329872Y-60972093D01*
X144198501Y-62103464D01*
X143809592Y-61714555D01*
X144940963Y-60583184D01*
G37*
G04 #@! TD.AperFunction*
G04 #@! TA.AperFunction,SMDPad,CuDef*
G36*
X144375278Y-60017499D02*
G01*
X144764187Y-60406408D01*
X143632816Y-61537779D01*
X143243907Y-61148870D01*
X144375278Y-60017499D01*
G37*
G04 #@! TD.AperFunction*
G04 #@! TA.AperFunction,SMDPad,CuDef*
G36*
X143809592Y-59451813D02*
G01*
X144198501Y-59840722D01*
X143067130Y-60972093D01*
X142678221Y-60583184D01*
X143809592Y-59451813D01*
G37*
G04 #@! TD.AperFunction*
G04 #@! TA.AperFunction,SMDPad,CuDef*
G36*
X143243907Y-58886128D02*
G01*
X143632816Y-59275037D01*
X142501445Y-60406408D01*
X142112536Y-60017499D01*
X143243907Y-58886128D01*
G37*
G04 #@! TD.AperFunction*
G04 #@! TA.AperFunction,SMDPad,CuDef*
G36*
X142678221Y-58320443D02*
G01*
X143067130Y-58709352D01*
X141935759Y-59840723D01*
X141546850Y-59451814D01*
X142678221Y-58320443D01*
G37*
G04 #@! TD.AperFunction*
G04 #@! TA.AperFunction,SMDPad,CuDef*
G36*
X142112536Y-57754757D02*
G01*
X142501445Y-58143666D01*
X141370074Y-59275037D01*
X140981165Y-58886128D01*
X142112536Y-57754757D01*
G37*
G04 #@! TD.AperFunction*
G04 #@! TA.AperFunction,SMDPad,CuDef*
G36*
X138930555Y-58143666D02*
G01*
X139319464Y-57754757D01*
X140450835Y-58886128D01*
X140061926Y-59275037D01*
X138930555Y-58143666D01*
G37*
G04 #@! TD.AperFunction*
G04 #@! TA.AperFunction,SMDPad,CuDef*
G36*
X138364870Y-58709352D02*
G01*
X138753779Y-58320443D01*
X139885150Y-59451814D01*
X139496241Y-59840723D01*
X138364870Y-58709352D01*
G37*
G04 #@! TD.AperFunction*
G04 #@! TA.AperFunction,SMDPad,CuDef*
G36*
X137799184Y-59275037D02*
G01*
X138188093Y-58886128D01*
X139319464Y-60017499D01*
X138930555Y-60406408D01*
X137799184Y-59275037D01*
G37*
G04 #@! TD.AperFunction*
G04 #@! TA.AperFunction,SMDPad,CuDef*
G36*
X137233499Y-59840722D02*
G01*
X137622408Y-59451813D01*
X138753779Y-60583184D01*
X138364870Y-60972093D01*
X137233499Y-59840722D01*
G37*
G04 #@! TD.AperFunction*
G04 #@! TA.AperFunction,SMDPad,CuDef*
G36*
X136667813Y-60406408D02*
G01*
X137056722Y-60017499D01*
X138188093Y-61148870D01*
X137799184Y-61537779D01*
X136667813Y-60406408D01*
G37*
G04 #@! TD.AperFunction*
G04 #@! TA.AperFunction,SMDPad,CuDef*
G36*
X136102128Y-60972093D02*
G01*
X136491037Y-60583184D01*
X137622408Y-61714555D01*
X137233499Y-62103464D01*
X136102128Y-60972093D01*
G37*
G04 #@! TD.AperFunction*
G04 #@! TA.AperFunction,SMDPad,CuDef*
G36*
X135536443Y-61537779D02*
G01*
X135925352Y-61148870D01*
X137056723Y-62280241D01*
X136667814Y-62669150D01*
X135536443Y-61537779D01*
G37*
G04 #@! TD.AperFunction*
G04 #@! TA.AperFunction,SMDPad,CuDef*
G36*
X134970757Y-62103464D02*
G01*
X135359666Y-61714555D01*
X136491037Y-62845926D01*
X136102128Y-63234835D01*
X134970757Y-62103464D01*
G37*
G04 #@! TD.AperFunction*
G04 #@! TA.AperFunction,SMDPad,CuDef*
G36*
X136102128Y-63765165D02*
G01*
X136491037Y-64154074D01*
X135359666Y-65285445D01*
X134970757Y-64896536D01*
X136102128Y-63765165D01*
G37*
G04 #@! TD.AperFunction*
G04 #@! TA.AperFunction,SMDPad,CuDef*
G36*
X136667814Y-64330850D02*
G01*
X137056723Y-64719759D01*
X135925352Y-65851130D01*
X135536443Y-65462221D01*
X136667814Y-64330850D01*
G37*
G04 #@! TD.AperFunction*
G04 #@! TA.AperFunction,SMDPad,CuDef*
G36*
X137233499Y-64896536D02*
G01*
X137622408Y-65285445D01*
X136491037Y-66416816D01*
X136102128Y-66027907D01*
X137233499Y-64896536D01*
G37*
G04 #@! TD.AperFunction*
G04 #@! TA.AperFunction,SMDPad,CuDef*
G36*
X137799184Y-65462221D02*
G01*
X138188093Y-65851130D01*
X137056722Y-66982501D01*
X136667813Y-66593592D01*
X137799184Y-65462221D01*
G37*
G04 #@! TD.AperFunction*
G04 #@! TA.AperFunction,SMDPad,CuDef*
G36*
X138364870Y-66027907D02*
G01*
X138753779Y-66416816D01*
X137622408Y-67548187D01*
X137233499Y-67159278D01*
X138364870Y-66027907D01*
G37*
G04 #@! TD.AperFunction*
G04 #@! TA.AperFunction,SMDPad,CuDef*
G36*
X138930555Y-66593592D02*
G01*
X139319464Y-66982501D01*
X138188093Y-68113872D01*
X137799184Y-67724963D01*
X138930555Y-66593592D01*
G37*
G04 #@! TD.AperFunction*
G04 #@! TA.AperFunction,SMDPad,CuDef*
G36*
X139496241Y-67159277D02*
G01*
X139885150Y-67548186D01*
X138753779Y-68679557D01*
X138364870Y-68290648D01*
X139496241Y-67159277D01*
G37*
G04 #@! TD.AperFunction*
G04 #@! TA.AperFunction,SMDPad,CuDef*
G36*
X140061926Y-67724963D02*
G01*
X140450835Y-68113872D01*
X139319464Y-69245243D01*
X138930555Y-68856334D01*
X140061926Y-67724963D01*
G37*
G04 #@! TD.AperFunction*
G04 #@! TA.AperFunction,SMDPad,CuDef*
G36*
X140981165Y-68113872D02*
G01*
X141370074Y-67724963D01*
X142501445Y-68856334D01*
X142112536Y-69245243D01*
X140981165Y-68113872D01*
G37*
G04 #@! TD.AperFunction*
G04 #@! TA.AperFunction,SMDPad,CuDef*
G36*
X141546850Y-67548186D02*
G01*
X141935759Y-67159277D01*
X143067130Y-68290648D01*
X142678221Y-68679557D01*
X141546850Y-67548186D01*
G37*
G04 #@! TD.AperFunction*
G04 #@! TA.AperFunction,SMDPad,CuDef*
G36*
X142112536Y-66982501D02*
G01*
X142501445Y-66593592D01*
X143632816Y-67724963D01*
X143243907Y-68113872D01*
X142112536Y-66982501D01*
G37*
G04 #@! TD.AperFunction*
G04 #@! TA.AperFunction,SMDPad,CuDef*
G36*
X142678221Y-66416816D02*
G01*
X143067130Y-66027907D01*
X144198501Y-67159278D01*
X143809592Y-67548187D01*
X142678221Y-66416816D01*
G37*
G04 #@! TD.AperFunction*
G04 #@! TA.AperFunction,SMDPad,CuDef*
G36*
X143243907Y-65851130D02*
G01*
X143632816Y-65462221D01*
X144764187Y-66593592D01*
X144375278Y-66982501D01*
X143243907Y-65851130D01*
G37*
G04 #@! TD.AperFunction*
G04 #@! TA.AperFunction,SMDPad,CuDef*
G36*
X143809592Y-65285445D02*
G01*
X144198501Y-64896536D01*
X145329872Y-66027907D01*
X144940963Y-66416816D01*
X143809592Y-65285445D01*
G37*
G04 #@! TD.AperFunction*
G04 #@! TA.AperFunction,SMDPad,CuDef*
G36*
X144375277Y-64719759D02*
G01*
X144764186Y-64330850D01*
X145895557Y-65462221D01*
X145506648Y-65851130D01*
X144375277Y-64719759D01*
G37*
G04 #@! TD.AperFunction*
G04 #@! TA.AperFunction,SMDPad,CuDef*
G36*
X144940963Y-64154074D02*
G01*
X145329872Y-63765165D01*
X146461243Y-64896536D01*
X146072334Y-65285445D01*
X144940963Y-64154074D01*
G37*
G04 #@! TD.AperFunction*
D14*
X134738000Y-69461000D03*
X134738000Y-67461000D03*
D16*
X130958934Y-70452717D03*
X132958934Y-70452717D03*
D10*
X149540000Y-66040000D03*
X147640000Y-66040000D03*
D14*
X132689600Y-55388000D03*
X132689600Y-57388000D03*
D10*
X132800434Y-67468217D03*
X130900434Y-67468217D03*
D12*
X137040116Y-74234932D03*
X137040116Y-72334932D03*
D17*
X134675143Y-57420161D03*
X136875143Y-57420161D03*
X136875143Y-55820161D03*
X134675143Y-55820161D03*
D16*
X136740343Y-53851561D03*
X134740343Y-53851561D03*
D12*
X139060674Y-72327860D03*
X139060674Y-74227860D03*
D18*
X183134000Y-99060000D03*
D19*
X183134000Y-96520000D03*
X185674000Y-99060000D03*
X185674000Y-96520000D03*
X188214000Y-99060000D03*
X188214000Y-96520000D03*
D11*
X173650500Y-46614500D03*
X175850500Y-46614500D03*
D16*
X173369500Y-64686300D03*
X171369500Y-64686300D03*
D20*
X171540000Y-58272800D03*
X173040000Y-58272800D03*
D21*
X173484700Y-62342100D03*
X173484700Y-61392100D03*
X173484700Y-60442100D03*
X171284700Y-60442100D03*
X171284700Y-62342100D03*
X171284700Y-61392100D03*
D22*
X164749500Y-67543800D03*
X164749500Y-72823800D03*
D23*
X168683960Y-62591200D03*
X168683960Y-65791200D03*
D24*
X171099500Y-67162800D03*
X171099500Y-70162800D03*
D25*
X164744420Y-64942700D03*
X164744420Y-58742700D03*
D12*
X175371780Y-65008920D03*
X175371780Y-63108920D03*
D10*
X161950500Y-60414500D03*
X160050500Y-60414500D03*
D14*
X168750000Y-67686800D03*
X168750000Y-69686800D03*
D10*
X170000500Y-46614500D03*
X171900500Y-46614500D03*
D11*
X158300500Y-60414500D03*
X156100500Y-60414500D03*
D12*
X175387020Y-59222720D03*
X175387020Y-61122720D03*
D26*
X172687000Y-51668800D03*
X168623000Y-51668800D03*
D16*
X171199320Y-56466860D03*
X173199320Y-56466860D03*
D27*
X168623000Y-55235300D03*
X168623000Y-58135300D03*
D10*
X127180000Y-94633000D03*
X129080000Y-94633000D03*
D28*
X128257000Y-90027000D03*
X129207000Y-92127000D03*
X127307000Y-92127000D03*
D11*
X130924000Y-94930000D03*
X130924000Y-97130000D03*
D10*
X129080000Y-97427000D03*
X127180000Y-97427000D03*
D12*
X125082000Y-90188000D03*
X125082000Y-92088000D03*
X157068500Y-93728500D03*
X157068500Y-95628500D03*
D29*
X148620500Y-97810500D03*
X146720500Y-97810500D03*
X146720500Y-95610500D03*
X147670500Y-95610500D03*
X148620500Y-95610500D03*
D10*
X143540500Y-91059000D03*
X141640500Y-91059000D03*
D11*
X161681500Y-95758000D03*
X159481500Y-95758000D03*
D14*
X151163000Y-96917000D03*
X151163000Y-98917000D03*
D30*
X141350000Y-86296500D03*
X143450000Y-85346500D03*
X143450000Y-87246500D03*
D11*
X145659000Y-82867500D03*
X143459000Y-82867500D03*
D10*
X162214500Y-86042500D03*
X164114500Y-86042500D03*
X155163500Y-90360500D03*
X157063500Y-90360500D03*
X157027900Y-88074500D03*
X155127900Y-88074500D03*
D12*
X151188400Y-94396600D03*
X151188400Y-92496600D03*
X137066000Y-88712000D03*
X137066000Y-90612000D03*
D10*
X155125400Y-85915500D03*
X157025400Y-85915500D03*
D29*
X162107900Y-90546100D03*
X160207900Y-90546100D03*
X160207900Y-88346100D03*
X161157900Y-88346100D03*
X162107900Y-88346100D03*
D30*
X137247900Y-94909600D03*
X137247900Y-96809600D03*
X139347900Y-95859600D03*
D21*
X145321000Y-91000500D03*
X145321000Y-91950500D03*
X145321000Y-92900500D03*
X147521000Y-92900500D03*
X147521000Y-91000500D03*
D14*
X151226500Y-83725000D03*
X151226500Y-85725000D03*
X154973000Y-93615000D03*
X154973000Y-95615000D03*
D16*
X137113500Y-92583000D03*
X135113500Y-92583000D03*
D29*
X151317900Y-87965100D03*
X153217900Y-87965100D03*
X153217900Y-90165100D03*
X152267900Y-90165100D03*
X151317900Y-90165100D03*
D12*
X145765500Y-87312500D03*
X145765500Y-85412500D03*
X139288500Y-90744000D03*
X139288500Y-92644000D03*
D31*
X155194000Y-42934000D03*
X157734000Y-42934000D03*
X160274000Y-42934000D03*
X152654000Y-42934000D03*
X159004000Y-45474000D03*
X156464000Y-45474000D03*
X153924000Y-45474000D03*
X151384000Y-45474000D03*
X150114000Y-42934000D03*
X148844000Y-45474000D03*
X147574000Y-42934000D03*
X146304000Y-45474000D03*
X145034000Y-42934000D03*
X143764000Y-45474000D03*
X142494000Y-42934000D03*
X141224000Y-45474000D03*
X139954000Y-42934000D03*
X138684000Y-45474000D03*
X137414000Y-42934000D03*
X136144000Y-45474000D03*
D10*
X176592000Y-81932000D03*
X174692000Y-81932000D03*
D16*
X175912000Y-76434000D03*
X177912000Y-76434000D03*
X180452000Y-83038000D03*
X178452000Y-83038000D03*
X186310000Y-83546000D03*
X188310000Y-83546000D03*
G04 #@! TA.AperFunction,SMDPad,CuDef*
D15*
G36*
X187109191Y-91200053D02*
G01*
X187130426Y-91203203D01*
X187151250Y-91208419D01*
X187171462Y-91215651D01*
X187190868Y-91224830D01*
X187209281Y-91235866D01*
X187226524Y-91248654D01*
X187242430Y-91263070D01*
X187256846Y-91278976D01*
X187269634Y-91296219D01*
X187280670Y-91314632D01*
X187289849Y-91334038D01*
X187297081Y-91354250D01*
X187302297Y-91375074D01*
X187305447Y-91396309D01*
X187306500Y-91417750D01*
X187306500Y-91930250D01*
X187305447Y-91951691D01*
X187302297Y-91972926D01*
X187297081Y-91993750D01*
X187289849Y-92013962D01*
X187280670Y-92033368D01*
X187269634Y-92051781D01*
X187256846Y-92069024D01*
X187242430Y-92084930D01*
X187226524Y-92099346D01*
X187209281Y-92112134D01*
X187190868Y-92123170D01*
X187171462Y-92132349D01*
X187151250Y-92139581D01*
X187130426Y-92144797D01*
X187109191Y-92147947D01*
X187087750Y-92149000D01*
X186650250Y-92149000D01*
X186628809Y-92147947D01*
X186607574Y-92144797D01*
X186586750Y-92139581D01*
X186566538Y-92132349D01*
X186547132Y-92123170D01*
X186528719Y-92112134D01*
X186511476Y-92099346D01*
X186495570Y-92084930D01*
X186481154Y-92069024D01*
X186468366Y-92051781D01*
X186457330Y-92033368D01*
X186448151Y-92013962D01*
X186440919Y-91993750D01*
X186435703Y-91972926D01*
X186432553Y-91951691D01*
X186431500Y-91930250D01*
X186431500Y-91417750D01*
X186432553Y-91396309D01*
X186435703Y-91375074D01*
X186440919Y-91354250D01*
X186448151Y-91334038D01*
X186457330Y-91314632D01*
X186468366Y-91296219D01*
X186481154Y-91278976D01*
X186495570Y-91263070D01*
X186511476Y-91248654D01*
X186528719Y-91235866D01*
X186547132Y-91224830D01*
X186566538Y-91215651D01*
X186586750Y-91208419D01*
X186607574Y-91203203D01*
X186628809Y-91200053D01*
X186650250Y-91199000D01*
X187087750Y-91199000D01*
X187109191Y-91200053D01*
G37*
G04 #@! TD.AperFunction*
G04 #@! TA.AperFunction,SMDPad,CuDef*
G36*
X185534191Y-91200053D02*
G01*
X185555426Y-91203203D01*
X185576250Y-91208419D01*
X185596462Y-91215651D01*
X185615868Y-91224830D01*
X185634281Y-91235866D01*
X185651524Y-91248654D01*
X185667430Y-91263070D01*
X185681846Y-91278976D01*
X185694634Y-91296219D01*
X185705670Y-91314632D01*
X185714849Y-91334038D01*
X185722081Y-91354250D01*
X185727297Y-91375074D01*
X185730447Y-91396309D01*
X185731500Y-91417750D01*
X185731500Y-91930250D01*
X185730447Y-91951691D01*
X185727297Y-91972926D01*
X185722081Y-91993750D01*
X185714849Y-92013962D01*
X185705670Y-92033368D01*
X185694634Y-92051781D01*
X185681846Y-92069024D01*
X185667430Y-92084930D01*
X185651524Y-92099346D01*
X185634281Y-92112134D01*
X185615868Y-92123170D01*
X185596462Y-92132349D01*
X185576250Y-92139581D01*
X185555426Y-92144797D01*
X185534191Y-92147947D01*
X185512750Y-92149000D01*
X185075250Y-92149000D01*
X185053809Y-92147947D01*
X185032574Y-92144797D01*
X185011750Y-92139581D01*
X184991538Y-92132349D01*
X184972132Y-92123170D01*
X184953719Y-92112134D01*
X184936476Y-92099346D01*
X184920570Y-92084930D01*
X184906154Y-92069024D01*
X184893366Y-92051781D01*
X184882330Y-92033368D01*
X184873151Y-92013962D01*
X184865919Y-91993750D01*
X184860703Y-91972926D01*
X184857553Y-91951691D01*
X184856500Y-91930250D01*
X184856500Y-91417750D01*
X184857553Y-91396309D01*
X184860703Y-91375074D01*
X184865919Y-91354250D01*
X184873151Y-91334038D01*
X184882330Y-91314632D01*
X184893366Y-91296219D01*
X184906154Y-91278976D01*
X184920570Y-91263070D01*
X184936476Y-91248654D01*
X184953719Y-91235866D01*
X184972132Y-91224830D01*
X184991538Y-91215651D01*
X185011750Y-91208419D01*
X185032574Y-91203203D01*
X185053809Y-91200053D01*
X185075250Y-91199000D01*
X185512750Y-91199000D01*
X185534191Y-91200053D01*
G37*
G04 #@! TD.AperFunction*
D21*
X176574000Y-85390000D03*
X176574000Y-86340000D03*
X176574000Y-87290000D03*
X178774000Y-87290000D03*
X178774000Y-85390000D03*
D16*
X174896000Y-79432000D03*
X176896000Y-79432000D03*
D10*
X188117400Y-88491300D03*
X186217400Y-88491300D03*
D21*
X182193900Y-85390000D03*
X182193900Y-86340000D03*
X182193900Y-87290000D03*
X184393900Y-87290000D03*
X184393900Y-85390000D03*
D16*
X186710000Y-78670000D03*
X184710000Y-78670000D03*
D10*
X188276000Y-86014800D03*
X186376000Y-86014800D03*
G04 #@! TA.AperFunction,SMDPad,CuDef*
D15*
G36*
X182233691Y-73708053D02*
G01*
X182254926Y-73711203D01*
X182275750Y-73716419D01*
X182295962Y-73723651D01*
X182315368Y-73732830D01*
X182333781Y-73743866D01*
X182351024Y-73756654D01*
X182366930Y-73771070D01*
X182381346Y-73786976D01*
X182394134Y-73804219D01*
X182405170Y-73822632D01*
X182414349Y-73842038D01*
X182421581Y-73862250D01*
X182426797Y-73883074D01*
X182429947Y-73904309D01*
X182431000Y-73925750D01*
X182431000Y-74363250D01*
X182429947Y-74384691D01*
X182426797Y-74405926D01*
X182421581Y-74426750D01*
X182414349Y-74446962D01*
X182405170Y-74466368D01*
X182394134Y-74484781D01*
X182381346Y-74502024D01*
X182366930Y-74517930D01*
X182351024Y-74532346D01*
X182333781Y-74545134D01*
X182315368Y-74556170D01*
X182295962Y-74565349D01*
X182275750Y-74572581D01*
X182254926Y-74577797D01*
X182233691Y-74580947D01*
X182212250Y-74582000D01*
X181699750Y-74582000D01*
X181678309Y-74580947D01*
X181657074Y-74577797D01*
X181636250Y-74572581D01*
X181616038Y-74565349D01*
X181596632Y-74556170D01*
X181578219Y-74545134D01*
X181560976Y-74532346D01*
X181545070Y-74517930D01*
X181530654Y-74502024D01*
X181517866Y-74484781D01*
X181506830Y-74466368D01*
X181497651Y-74446962D01*
X181490419Y-74426750D01*
X181485203Y-74405926D01*
X181482053Y-74384691D01*
X181481000Y-74363250D01*
X181481000Y-73925750D01*
X181482053Y-73904309D01*
X181485203Y-73883074D01*
X181490419Y-73862250D01*
X181497651Y-73842038D01*
X181506830Y-73822632D01*
X181517866Y-73804219D01*
X181530654Y-73786976D01*
X181545070Y-73771070D01*
X181560976Y-73756654D01*
X181578219Y-73743866D01*
X181596632Y-73732830D01*
X181616038Y-73723651D01*
X181636250Y-73716419D01*
X181657074Y-73711203D01*
X181678309Y-73708053D01*
X181699750Y-73707000D01*
X182212250Y-73707000D01*
X182233691Y-73708053D01*
G37*
G04 #@! TD.AperFunction*
G04 #@! TA.AperFunction,SMDPad,CuDef*
G36*
X182233691Y-75283053D02*
G01*
X182254926Y-75286203D01*
X182275750Y-75291419D01*
X182295962Y-75298651D01*
X182315368Y-75307830D01*
X182333781Y-75318866D01*
X182351024Y-75331654D01*
X182366930Y-75346070D01*
X182381346Y-75361976D01*
X182394134Y-75379219D01*
X182405170Y-75397632D01*
X182414349Y-75417038D01*
X182421581Y-75437250D01*
X182426797Y-75458074D01*
X182429947Y-75479309D01*
X182431000Y-75500750D01*
X182431000Y-75938250D01*
X182429947Y-75959691D01*
X182426797Y-75980926D01*
X182421581Y-76001750D01*
X182414349Y-76021962D01*
X182405170Y-76041368D01*
X182394134Y-76059781D01*
X182381346Y-76077024D01*
X182366930Y-76092930D01*
X182351024Y-76107346D01*
X182333781Y-76120134D01*
X182315368Y-76131170D01*
X182295962Y-76140349D01*
X182275750Y-76147581D01*
X182254926Y-76152797D01*
X182233691Y-76155947D01*
X182212250Y-76157000D01*
X181699750Y-76157000D01*
X181678309Y-76155947D01*
X181657074Y-76152797D01*
X181636250Y-76147581D01*
X181616038Y-76140349D01*
X181596632Y-76131170D01*
X181578219Y-76120134D01*
X181560976Y-76107346D01*
X181545070Y-76092930D01*
X181530654Y-76077024D01*
X181517866Y-76059781D01*
X181506830Y-76041368D01*
X181497651Y-76021962D01*
X181490419Y-76001750D01*
X181485203Y-75980926D01*
X181482053Y-75959691D01*
X181481000Y-75938250D01*
X181481000Y-75500750D01*
X181482053Y-75479309D01*
X181485203Y-75458074D01*
X181490419Y-75437250D01*
X181497651Y-75417038D01*
X181506830Y-75397632D01*
X181517866Y-75379219D01*
X181530654Y-75361976D01*
X181545070Y-75346070D01*
X181560976Y-75331654D01*
X181578219Y-75318866D01*
X181596632Y-75307830D01*
X181616038Y-75298651D01*
X181636250Y-75291419D01*
X181657074Y-75286203D01*
X181678309Y-75283053D01*
X181699750Y-75282000D01*
X182212250Y-75282000D01*
X182233691Y-75283053D01*
G37*
G04 #@! TD.AperFunction*
D30*
X185106000Y-73982000D03*
X185106000Y-75882000D03*
X187206000Y-74932000D03*
D12*
X176661800Y-89297600D03*
X176661800Y-91197600D03*
D29*
X180006000Y-78450500D03*
X181906000Y-78450500D03*
X181906000Y-80650500D03*
X180956000Y-80650500D03*
X180006000Y-80650500D03*
D10*
X176506000Y-73894000D03*
X178406000Y-73894000D03*
D12*
X183206000Y-89962000D03*
X183206000Y-91862000D03*
D10*
X184852000Y-81006000D03*
X186752000Y-81006000D03*
D12*
X179138300Y-89300100D03*
X179138300Y-91200100D03*
D32*
X180468000Y-91166000D03*
X181484000Y-83038000D03*
X189358000Y-83546000D03*
X189104000Y-88372000D03*
X185040000Y-77196000D03*
X175134000Y-86340000D03*
X175388000Y-74910000D03*
X130358000Y-92296000D03*
X130866000Y-93566000D03*
D33*
X165950920Y-77734280D03*
X173441380Y-49390420D03*
X178145460Y-58420120D03*
X178120060Y-52621300D03*
D32*
X158526500Y-70604500D03*
D33*
X159760940Y-74869160D03*
X178120060Y-49466620D03*
D32*
X154780000Y-60381000D03*
D33*
X163215340Y-77734280D03*
X178158160Y-55590560D03*
X161114760Y-77734280D03*
X169285940Y-77698720D03*
X176321740Y-49403120D03*
D32*
X162052000Y-42934000D03*
X146304000Y-47244000D03*
X134874000Y-70612000D03*
X149352000Y-51308000D03*
X138684000Y-52324000D03*
X144526000Y-58928000D03*
X120396000Y-74422000D03*
X136144000Y-47498000D03*
X132842000Y-53848000D03*
X136398000Y-67564000D03*
X160274000Y-87122000D03*
X158242000Y-86106000D03*
X165354000Y-86106000D03*
X163322000Y-95758000D03*
X141986000Y-83058000D03*
X151130000Y-82550000D03*
X152400000Y-91440000D03*
X153670000Y-95758000D03*
X146812000Y-94234000D03*
X144018000Y-92964000D03*
X140716000Y-90932000D03*
X137414000Y-98044000D03*
X134874000Y-52578000D03*
X173736000Y-79502000D03*
X152400000Y-99060000D03*
X188200000Y-95000000D03*
X138112500Y-57086500D03*
X126238000Y-63678506D03*
X126238000Y-66218544D03*
X127457200Y-68834000D03*
X131064000Y-68834000D03*
X141224000Y-50534915D03*
X137922000Y-51601715D03*
X134963597Y-51691312D03*
X129794000Y-51689000D03*
X128524000Y-51752500D03*
X127063470Y-51752500D03*
X148706789Y-59996605D03*
X147828000Y-60960000D03*
X150622000Y-95504000D03*
X148590000Y-94234000D03*
X146558000Y-60887974D03*
X147828000Y-59690000D03*
X149573908Y-62516092D03*
X150400092Y-61689908D03*
X153242868Y-56214868D03*
X153127355Y-54067355D03*
X152908000Y-47498000D03*
X178816000Y-80772000D03*
X177546000Y-80772000D03*
X130729237Y-64689237D03*
X130358029Y-62196962D03*
X130235046Y-56027921D03*
X147685201Y-75946000D03*
X148752001Y-75946000D03*
X154178000Y-81203801D03*
X153924000Y-82296000D03*
X161526588Y-84564588D03*
X163068000Y-84607400D03*
X130044895Y-53844895D03*
X189230000Y-91440000D03*
X187960000Y-90678000D03*
X132588003Y-75107790D03*
X132588000Y-77012800D03*
X191700000Y-79000000D03*
X191200000Y-77700000D03*
X191200000Y-45300000D03*
X193100000Y-43400000D03*
X117767090Y-78994000D03*
X120675410Y-78994006D03*
X131826000Y-75107790D03*
X131826000Y-76479400D03*
X147685201Y-81280000D03*
X148752001Y-81280000D03*
X153162000Y-81203801D03*
X155194000Y-82804000D03*
X147685201Y-82042000D03*
X148752001Y-82042000D03*
X118440179Y-84836000D03*
X120675410Y-84779851D03*
X130139832Y-65278643D03*
X129701646Y-62584012D03*
X139217400Y-49022000D03*
X136880600Y-49022000D03*
X119024389Y-85598000D03*
X120675410Y-85541862D03*
X177326783Y-84108783D03*
X176500599Y-83282599D03*
X148082000Y-64770000D03*
X147450829Y-63884829D03*
X129616210Y-65832237D03*
X129162829Y-63122829D03*
D34*
X179138300Y-91200100D02*
X180433900Y-91200100D01*
X180433900Y-91200100D02*
X180468000Y-91166000D01*
X180452000Y-83038000D02*
X181484000Y-83038000D01*
X188310000Y-83546000D02*
X189358000Y-83546000D01*
X188117400Y-88491300D02*
X188984700Y-88491300D01*
X188984700Y-88491300D02*
X189104000Y-88372000D01*
X181906000Y-82616000D02*
X181484000Y-83038000D01*
X181906000Y-80650500D02*
X181906000Y-82616000D01*
X180452000Y-83815400D02*
X180452000Y-83038000D01*
X181511500Y-86340000D02*
X180452000Y-85280500D01*
X180452000Y-85280500D02*
X180452000Y-83815400D01*
X182193900Y-86340000D02*
X181511500Y-86340000D01*
X186710000Y-77892600D02*
X186710000Y-78670000D01*
X186710000Y-76883600D02*
X186710000Y-77892600D01*
X185708400Y-75882000D02*
X186710000Y-76883600D01*
X185106000Y-75882000D02*
X185708400Y-75882000D01*
X185106000Y-75882000D02*
X185106000Y-77130000D01*
X185106000Y-77130000D02*
X185040000Y-77196000D01*
X176574000Y-86340000D02*
X175134000Y-86340000D01*
X175259600Y-76434000D02*
X175912000Y-76434000D01*
X174896000Y-76797600D02*
X175259600Y-76434000D01*
X174896000Y-79432000D02*
X174896000Y-76797600D01*
X176003600Y-73894000D02*
X176506000Y-73894000D01*
X175912000Y-73985600D02*
X176003600Y-73894000D01*
X175912000Y-76434000D02*
X175912000Y-73985600D01*
X175912000Y-76434000D02*
X175912000Y-75434000D01*
X175912000Y-75434000D02*
X175388000Y-74910000D01*
X130627000Y-94633000D02*
X130924000Y-94930000D01*
X129080000Y-94633000D02*
X130627000Y-94633000D01*
X129080000Y-92254000D02*
X129207000Y-92127000D01*
X129080000Y-94633000D02*
X129080000Y-92254000D01*
X129207000Y-92127000D02*
X130189000Y-92127000D01*
X130189000Y-92127000D02*
X130358000Y-92296000D01*
X130924000Y-94930000D02*
X130924000Y-93624000D01*
X130924000Y-93624000D02*
X130866000Y-93566000D01*
X156337500Y-60414500D02*
X156304000Y-60381000D01*
D35*
X169226000Y-70162800D02*
X168750000Y-69686800D01*
D36*
X173441380Y-50914420D02*
X172687000Y-51668800D01*
D35*
X175387020Y-59222720D02*
X174114920Y-59222720D01*
X172986820Y-56466860D02*
X172986820Y-57969620D01*
X174114920Y-59222720D02*
X173290000Y-58397800D01*
X177342860Y-59222720D02*
X178145460Y-58420120D01*
D34*
X172687000Y-51478300D02*
X172687000Y-51668800D01*
D35*
X165488000Y-72823800D02*
X164749500Y-72823800D01*
X172675299Y-61366699D02*
X172700700Y-61392100D01*
X175387020Y-59222720D02*
X177342860Y-59222720D01*
X168750000Y-69686800D02*
X168625000Y-69686800D01*
X172687000Y-51668800D02*
X172687000Y-50144800D01*
X168625000Y-69686800D02*
X165488000Y-72823800D01*
D37*
X161114760Y-77734280D02*
X161013160Y-77835880D01*
D35*
X172986820Y-57969620D02*
X173290000Y-58272800D01*
X172687000Y-50144800D02*
X173441380Y-49390420D01*
X172675299Y-59766501D02*
X172675299Y-61366699D01*
X173290000Y-59151800D02*
X172675299Y-59766501D01*
X156100500Y-60414500D02*
X156100500Y-63083860D01*
X156100500Y-68178500D02*
X158526500Y-70604500D01*
D34*
X156100500Y-60414500D02*
X154813500Y-60414500D01*
D35*
X156100500Y-63083860D02*
X156100500Y-68178500D01*
X173290000Y-58397800D02*
X173290000Y-58272800D01*
X164749500Y-72823800D02*
X164749500Y-76532860D01*
X173290000Y-58272800D02*
X173290000Y-59151800D01*
X164749500Y-76532860D02*
X165950920Y-77734280D01*
D36*
X176385240Y-49466620D02*
X176321740Y-49403120D01*
D35*
X172700700Y-61392100D02*
X173484700Y-61392100D01*
X175850500Y-48931880D02*
X176321740Y-49403120D01*
X171099500Y-70162800D02*
X169226000Y-70162800D01*
X175850500Y-46614500D02*
X175850500Y-48931880D01*
D36*
X178158160Y-52659400D02*
X178120060Y-52621300D01*
D34*
X160274000Y-42934000D02*
X162052000Y-42934000D01*
X146304000Y-45474000D02*
X146304000Y-47244000D01*
X134775143Y-55820161D02*
X134675143Y-55820161D01*
X136875143Y-57420161D02*
X136375143Y-57420161D01*
X133121761Y-55820161D02*
X132689600Y-55388000D01*
X134675143Y-55820161D02*
X133121761Y-55820161D01*
X134675143Y-53916761D02*
X134740343Y-53851561D01*
X134675143Y-55820161D02*
X134675143Y-53916761D01*
X133173251Y-69461000D02*
X133960600Y-69461000D01*
X132958934Y-69675317D02*
X133173251Y-69461000D01*
X133960600Y-69461000D02*
X134738000Y-69461000D01*
X132958934Y-70452717D02*
X132958934Y-69675317D01*
X134738000Y-69461000D02*
X134738000Y-70476000D01*
X134738000Y-70476000D02*
X134874000Y-70612000D01*
X140634916Y-52866916D02*
X140222000Y-52454000D01*
X147950784Y-51596916D02*
X149063084Y-51596916D01*
X140222000Y-52454000D02*
X138814000Y-52454000D01*
X142550784Y-52866916D02*
X140634916Y-52866916D01*
X149063084Y-51596916D02*
X149352000Y-51308000D01*
X138814000Y-52454000D02*
X138684000Y-52324000D01*
X143438361Y-60211953D02*
X143827270Y-60211953D01*
X144526000Y-59513223D02*
X144526000Y-58928000D01*
X143827270Y-60211953D02*
X144526000Y-59513223D01*
X121902000Y-74555800D02*
X121952800Y-74505000D01*
X121902000Y-77863900D02*
X121902000Y-74555800D01*
X121952800Y-71204200D02*
X121940100Y-71191500D01*
X121952800Y-74505000D02*
X121952800Y-71204200D01*
X121952800Y-74505000D02*
X120479000Y-74505000D01*
X136144000Y-45474000D02*
X136144000Y-47498000D01*
X132689600Y-55388000D02*
X132689600Y-54000400D01*
X132689600Y-54000400D02*
X132842000Y-53848000D01*
X160207900Y-88346100D02*
X160207900Y-87188100D01*
X160207900Y-87188100D02*
X160274000Y-87122000D01*
X157025400Y-85915500D02*
X158051500Y-85915500D01*
X158051500Y-85915500D02*
X158242000Y-86106000D01*
X164114500Y-86042500D02*
X165290500Y-86042500D01*
X165290500Y-86042500D02*
X165354000Y-86106000D01*
X161681500Y-95758000D02*
X163322000Y-95758000D01*
X143459000Y-85337500D02*
X143450000Y-85346500D01*
X143459000Y-82867500D02*
X143459000Y-85337500D01*
X143459000Y-82867500D02*
X142176500Y-82867500D01*
X142176500Y-82867500D02*
X141986000Y-83058000D01*
X151226500Y-83725000D02*
X151226500Y-82646500D01*
X151226500Y-82646500D02*
X151130000Y-82550000D01*
X152267900Y-90165100D02*
X152267900Y-91307900D01*
X152267900Y-91307900D02*
X152400000Y-91440000D01*
X154973000Y-95615000D02*
X153813000Y-95615000D01*
X153813000Y-95615000D02*
X153670000Y-95758000D01*
X146720500Y-95610500D02*
X146720500Y-94325500D01*
X146720500Y-94325500D02*
X146812000Y-94234000D01*
X145321000Y-92900500D02*
X144081500Y-92900500D01*
X144081500Y-92900500D02*
X144018000Y-92964000D01*
X141640500Y-91059000D02*
X140843000Y-91059000D01*
X140843000Y-91059000D02*
X140716000Y-90932000D01*
X135113500Y-93360400D02*
X135113500Y-92583000D01*
X135113500Y-95277600D02*
X135113500Y-93360400D01*
X136645500Y-96809600D02*
X135113500Y-95277600D01*
X137247900Y-96809600D02*
X136645500Y-96809600D01*
X137247900Y-96809600D02*
X137247900Y-97877900D01*
X137247900Y-97877900D02*
X137414000Y-98044000D01*
X134740343Y-53851561D02*
X134740343Y-52711657D01*
X134740343Y-52711657D02*
X134874000Y-52578000D01*
X174896000Y-79432000D02*
X173806000Y-79432000D01*
X173806000Y-79432000D02*
X173736000Y-79502000D01*
X151163000Y-98917000D02*
X152257000Y-98917000D01*
X152257000Y-98917000D02*
X152400000Y-99060000D01*
X188214000Y-96520000D02*
X188214000Y-95014000D01*
X188214000Y-95014000D02*
X188200000Y-95000000D01*
X136398000Y-67252314D02*
X136398000Y-67564000D01*
X137427953Y-66222361D02*
X136398000Y-67252314D01*
X137778839Y-57420161D02*
X138112500Y-57086500D01*
X136875143Y-57420161D02*
X137778839Y-57420161D01*
D35*
X178194500Y-76434000D02*
X177912000Y-76434000D01*
X180006000Y-78245500D02*
X178194500Y-76434000D01*
X180006000Y-78450500D02*
X180006000Y-78245500D01*
X178452000Y-85068000D02*
X178774000Y-85390000D01*
X178452000Y-83038000D02*
X178452000Y-85068000D01*
X186310000Y-83678900D02*
X186310000Y-83546000D01*
X184598900Y-85390000D02*
X186310000Y-83678900D01*
X184393900Y-85390000D02*
X184598900Y-85390000D01*
X188276000Y-85637000D02*
X188276000Y-86014800D01*
X186310000Y-83671000D02*
X188276000Y-85637000D01*
X186310000Y-83546000D02*
X186310000Y-83671000D01*
X176722200Y-91862000D02*
X176661800Y-91801600D01*
X176661800Y-91801600D02*
X176661800Y-91197600D01*
X183206000Y-91862000D02*
X176722200Y-91862000D01*
X164744420Y-58742700D02*
X164744420Y-59496700D01*
X164744420Y-59496700D02*
X163826620Y-60414500D01*
X163826620Y-60414500D02*
X162554500Y-60414500D01*
X161950500Y-60114500D02*
X161950500Y-60414500D01*
X162554500Y-60414500D02*
X161950500Y-60414500D01*
X130958934Y-67526717D02*
X130900434Y-67468217D01*
X142515868Y-54102000D02*
X142550784Y-54136916D01*
X140539084Y-54136916D02*
X140222000Y-54454000D01*
X142550784Y-54136916D02*
X140539084Y-54136916D01*
X137970000Y-88712000D02*
X137066000Y-88712000D01*
X139288500Y-90030500D02*
X137970000Y-88712000D01*
X139288500Y-90744000D02*
X139288500Y-90030500D01*
X150738900Y-87965100D02*
X151317900Y-87965100D01*
X149977400Y-87965100D02*
X150738900Y-87965100D01*
X147521000Y-90421500D02*
X149977400Y-87965100D01*
X147521000Y-91000500D02*
X147521000Y-90421500D01*
X151226500Y-87873700D02*
X151317900Y-87965100D01*
X151226500Y-85725000D02*
X151226500Y-87873700D01*
X152105500Y-85725000D02*
X151226500Y-85725000D01*
X152844401Y-84986099D02*
X152105500Y-85725000D01*
X157986717Y-84986099D02*
X152844401Y-84986099D01*
X158826201Y-85825583D02*
X157986717Y-84986099D01*
X158826201Y-86880199D02*
X158826201Y-85825583D01*
X157631900Y-88074500D02*
X158826201Y-86880199D01*
X157027900Y-88074500D02*
X157631900Y-88074500D01*
X162107900Y-90546100D02*
X162107900Y-91330100D01*
X162107900Y-91330100D02*
X166801400Y-96023600D01*
X189688201Y-86823001D02*
X188880000Y-86014800D01*
X189688201Y-90034305D02*
X189688201Y-86823001D01*
X184676410Y-92428410D02*
X187294096Y-92428410D01*
X187294096Y-92428410D02*
X189688201Y-90034305D01*
X184110000Y-91862000D02*
X184676410Y-92428410D01*
X188880000Y-86014800D02*
X188276000Y-86014800D01*
X183206000Y-91862000D02*
X184110000Y-91862000D01*
X164744420Y-54762420D02*
X164744420Y-58742700D01*
X157734000Y-42934000D02*
X157734000Y-46228000D01*
X149540000Y-65136000D02*
X149540000Y-66040000D01*
X164744420Y-58742700D02*
X154409300Y-58742700D01*
X179427000Y-78450500D02*
X180006000Y-78450500D01*
X178130201Y-81837201D02*
X178130201Y-79747299D01*
X178452000Y-82159000D02*
X178130201Y-81837201D01*
X178130201Y-79747299D02*
X179427000Y-78450500D01*
X178452000Y-83038000D02*
X178452000Y-82159000D01*
X177571382Y-83038000D02*
X173990000Y-86619382D01*
X178452000Y-83038000D02*
X177571382Y-83038000D01*
X163128599Y-99696401D02*
X166801400Y-96023600D01*
X149722401Y-99696401D02*
X163128599Y-99696401D01*
X148620500Y-98594500D02*
X149722401Y-99696401D01*
X148620500Y-97810500D02*
X148620500Y-98594500D01*
X125082000Y-96831922D02*
X127946479Y-99696401D01*
X125082000Y-92088000D02*
X125082000Y-96831922D01*
X149199500Y-97810500D02*
X149860000Y-97150000D01*
X148620500Y-97810500D02*
X149199500Y-97810500D01*
X148305000Y-91000500D02*
X147521000Y-91000500D01*
X149860000Y-92555500D02*
X148305000Y-91000500D01*
X149860000Y-97150000D02*
X149860000Y-92555500D01*
X132588000Y-92286000D02*
X132588000Y-99568000D01*
X137066000Y-88712000D02*
X136162000Y-88712000D01*
X136162000Y-88712000D02*
X132588000Y-92286000D01*
X127946479Y-99696401D02*
X132588000Y-99568000D01*
X132588000Y-99568000D02*
X149722401Y-99696401D01*
X151280000Y-63396000D02*
X149540000Y-65136000D01*
X126238000Y-66218544D02*
X126238000Y-67614800D01*
X126238000Y-67614800D02*
X127457200Y-68834000D01*
X130958934Y-68939066D02*
X131064000Y-68834000D01*
X130958934Y-70452717D02*
X130958934Y-68939066D01*
X131064000Y-67631783D02*
X130900434Y-67468217D01*
X131064000Y-68834000D02*
X131064000Y-67631783D01*
X144580507Y-50534915D02*
X141224000Y-50534915D01*
X148194001Y-46921421D02*
X144580507Y-50534915D01*
X148844000Y-45474000D02*
X148194001Y-46123999D01*
X148194001Y-46123999D02*
X148194001Y-46921421D01*
X139343000Y-54454000D02*
X140222000Y-54454000D01*
X137922000Y-53033000D02*
X139343000Y-54454000D01*
X137922000Y-51601715D02*
X137922000Y-53033000D01*
X137922000Y-51601715D02*
X135053194Y-51601715D01*
X135053194Y-51601715D02*
X134963597Y-51691312D01*
X173990000Y-91186000D02*
X176661800Y-91197600D01*
X173990000Y-86619382D02*
X173990000Y-91186000D01*
X151280000Y-61872000D02*
X154409300Y-58742700D01*
X151280000Y-63396000D02*
X151280000Y-61872000D01*
X157734000Y-47752000D02*
X157734000Y-46228000D01*
X164744420Y-54762420D02*
X157734000Y-47752000D01*
X169152400Y-96023600D02*
X173990000Y-91186000D01*
X166801400Y-96023600D02*
X169152400Y-96023600D01*
X169648800Y-96520000D02*
X169152400Y-96023600D01*
X183134000Y-96520000D02*
X169648800Y-96520000D01*
X186310000Y-83421000D02*
X186310000Y-83546000D01*
X191800000Y-77931000D02*
X186310000Y-83421000D01*
X191800000Y-45000000D02*
X191800000Y-77931000D01*
X190663401Y-43863401D02*
X191800000Y-45000000D01*
X157734000Y-42934000D02*
X158663401Y-43863401D01*
X158663401Y-43863401D02*
X190663401Y-43863401D01*
X148187774Y-60303774D02*
X151280000Y-63396000D01*
X144004047Y-60777639D02*
X144477912Y-60303774D01*
X144477912Y-60303774D02*
X148187774Y-60303774D01*
X126809500Y-51752500D02*
X127063470Y-51752500D01*
X126238000Y-63678506D02*
X126238000Y-52324000D01*
X126238000Y-52324000D02*
X126809500Y-51752500D01*
X128556125Y-51784625D02*
X128524000Y-51752500D01*
X129730500Y-51752500D02*
X129794000Y-51689000D01*
X128524000Y-51752500D02*
X129730500Y-51752500D01*
X117246399Y-85156399D02*
X117246399Y-85115399D01*
X125082000Y-92088000D02*
X124178000Y-92088000D01*
X124178000Y-92088000D02*
X117246399Y-85156399D01*
X125360440Y-63678506D02*
X125806948Y-63678506D01*
X117246399Y-79337929D02*
X117182888Y-79274418D01*
X125806948Y-63678506D02*
X126238000Y-63678506D01*
X117246399Y-85156399D02*
X117246399Y-79337929D01*
X117182888Y-79274418D02*
X117182888Y-78713582D01*
X117182888Y-78713582D02*
X117246399Y-78650071D01*
X117246399Y-78650071D02*
X117246399Y-71792547D01*
X117246399Y-71792547D02*
X125360440Y-63678506D01*
D34*
X156464000Y-52100707D02*
X156464000Y-45474000D01*
X156464000Y-52100707D02*
X156464000Y-52239394D01*
X156464000Y-52239394D02*
X148706789Y-59996605D01*
X184400000Y-96419670D02*
X184400000Y-98646400D01*
X187398438Y-93421232D02*
X184400000Y-96419670D01*
X156464000Y-45474000D02*
X156464000Y-42136000D01*
X184400000Y-98646400D02*
X183986400Y-99060000D01*
X156464000Y-42136000D02*
X156666149Y-41933851D01*
X156666149Y-41933851D02*
X189358424Y-41933851D01*
X183986400Y-99060000D02*
X183134000Y-99060000D01*
X189358424Y-41933851D02*
X192285570Y-44860997D01*
X192285570Y-44860997D02*
X192285570Y-93421232D01*
X192285570Y-93421232D02*
X187398438Y-93421232D01*
X146313305Y-62474695D02*
X145701103Y-62474695D01*
X147828000Y-60960000D02*
X146313305Y-62474695D01*
X143478184Y-55859316D02*
X143025784Y-55406916D01*
X143478184Y-57921816D02*
X143478184Y-55859316D01*
X142306990Y-59080583D02*
X142319417Y-59080583D01*
X143025784Y-55406916D02*
X142550784Y-55406916D01*
X142319417Y-59080583D02*
X143478184Y-57921816D01*
X153924000Y-42903670D02*
X153924000Y-45474000D01*
X154694835Y-41324231D02*
X153924000Y-42095066D01*
X185674000Y-99060000D02*
X186934000Y-97800000D01*
X192495190Y-97800000D02*
X192895190Y-97400000D01*
X186934000Y-97800000D02*
X192495190Y-97800000D01*
X189610936Y-41324231D02*
X154694835Y-41324231D01*
X153924000Y-42095066D02*
X153924000Y-42903670D01*
X192895190Y-97400000D02*
X192895190Y-44608485D01*
X192895190Y-44608485D02*
X189610936Y-41324231D01*
X149692271Y-42055399D02*
X150505399Y-42055399D01*
X149235399Y-42512271D02*
X149692271Y-42055399D01*
X149235399Y-44595399D02*
X149235399Y-42512271D01*
X136709686Y-58928000D02*
X132693118Y-58928000D01*
X150505399Y-42055399D02*
X153924000Y-45474000D01*
X132693118Y-58928000D02*
X131835999Y-58070881D01*
X137993639Y-60211953D02*
X136709686Y-58928000D01*
X131835999Y-58070881D02*
X131835999Y-54064567D01*
X149722601Y-45082601D02*
X149235399Y-44595399D01*
X131835999Y-54064567D02*
X134832251Y-51068315D01*
X149722601Y-45895729D02*
X149722601Y-45082601D01*
X144550015Y-51068315D02*
X149722601Y-45895729D01*
X134832251Y-51068315D02*
X144550015Y-51068315D01*
X154973000Y-90551000D02*
X155163500Y-90360500D01*
X154973000Y-93615000D02*
X154973000Y-90551000D01*
X153413300Y-90360500D02*
X153217900Y-90165100D01*
X155163500Y-90360500D02*
X153413300Y-90360500D01*
X157198000Y-95758000D02*
X157068500Y-95628500D01*
X159481500Y-95758000D02*
X157198000Y-95758000D01*
D36*
X168575360Y-51621160D02*
X168623000Y-51668800D01*
X168623000Y-51668800D02*
X168623000Y-55235300D01*
X168455360Y-51501160D02*
X168623000Y-51668800D01*
D38*
X168636000Y-51655800D02*
X168623000Y-51668800D01*
X159004000Y-45474000D02*
X165198800Y-51668800D01*
X165198800Y-51668800D02*
X168623000Y-51668800D01*
D34*
X132807651Y-67461000D02*
X132800434Y-67468217D01*
X134738000Y-67461000D02*
X132807651Y-67461000D01*
X136844824Y-65656676D02*
X136862268Y-65656676D01*
X134738000Y-67461000D02*
X135040500Y-67461000D01*
X135040500Y-67461000D02*
X136844824Y-65656676D01*
X132721761Y-57420161D02*
X132689600Y-57388000D01*
X134675143Y-57420161D02*
X132721761Y-57420161D01*
X134675143Y-58172561D02*
X134675143Y-57420161D01*
X134751344Y-58248762D02*
X134675143Y-58172561D01*
X137148762Y-58248762D02*
X134751344Y-58248762D01*
X138559324Y-59646268D02*
X138546268Y-59646268D01*
X138546268Y-59646268D02*
X137148762Y-58248762D01*
X136875143Y-53986361D02*
X136740343Y-53851561D01*
X136875143Y-55820161D02*
X136875143Y-53986361D01*
X138645902Y-58601475D02*
X139125010Y-59080583D01*
X138645902Y-56738520D02*
X138645902Y-58601475D01*
X136875143Y-55820161D02*
X137727543Y-55820161D01*
X137727543Y-55820161D02*
X138645902Y-56738520D01*
X137247900Y-92717400D02*
X137113500Y-92583000D01*
X137247900Y-94909600D02*
X137247900Y-92717400D01*
X137113500Y-90659500D02*
X137066000Y-90612000D01*
X137113500Y-92583000D02*
X137113500Y-90659500D01*
X151188400Y-94899000D02*
X151188400Y-94396600D01*
X151188400Y-96891600D02*
X151163000Y-96917000D01*
X151188400Y-94396600D02*
X151188400Y-96891600D01*
X151188400Y-94396600D02*
X151188400Y-94937600D01*
X151188400Y-94937600D02*
X150622000Y-95504000D01*
X148590000Y-95580000D02*
X148620500Y-95610500D01*
X148590000Y-94234000D02*
X148590000Y-95580000D01*
X145765500Y-82974000D02*
X145659000Y-82867500D01*
X145765500Y-85412500D02*
X145765500Y-82974000D01*
X125550100Y-77863900D02*
X124102000Y-77863900D01*
X126052500Y-77863900D02*
X125550100Y-77863900D01*
X126103300Y-74505000D02*
X124152800Y-74505000D01*
X125588200Y-71191500D02*
X124140100Y-71191500D01*
X126090600Y-71191500D02*
X125588200Y-71191500D01*
X155194000Y-42934000D02*
X155194000Y-52239336D01*
X155194000Y-52755052D02*
X155194000Y-52239336D01*
X148259052Y-59690000D02*
X155194000Y-52755052D01*
X147828000Y-59690000D02*
X148259052Y-59690000D01*
X155194000Y-42934000D02*
X156498959Y-41629041D01*
X156498959Y-41629041D02*
X188800000Y-41629041D01*
X189484680Y-41629041D02*
X189716533Y-41860894D01*
X188800000Y-41629041D02*
X189484680Y-41629041D01*
X189716533Y-41860894D02*
X190553922Y-42698283D01*
X190553922Y-42698283D02*
X192590380Y-44734741D01*
X192590380Y-44734741D02*
X192590380Y-46000000D01*
X192590380Y-46000000D02*
X192590380Y-93547488D01*
X186373999Y-95820001D02*
X186379999Y-95820001D01*
X185674000Y-96520000D02*
X186373999Y-95820001D01*
X188390380Y-93809620D02*
X192590380Y-93809620D01*
X186379999Y-95820001D02*
X188390380Y-93809620D01*
X192590380Y-93547488D02*
X192590380Y-93809620D01*
X146156453Y-60887974D02*
X146558000Y-60887974D01*
X145135417Y-61909010D02*
X146156453Y-60887974D01*
X143478184Y-51596916D02*
X142550784Y-51596916D01*
X143782994Y-51901726D02*
X143478184Y-51596916D01*
X142872676Y-59646268D02*
X143782994Y-58735950D01*
X143782994Y-58735950D02*
X143782994Y-51901726D01*
X137040116Y-71832532D02*
X137040116Y-72334932D01*
X139125010Y-67919417D02*
X137040116Y-70004311D01*
X137040116Y-70004311D02*
X137040116Y-71832532D01*
X139060674Y-69115124D02*
X139690695Y-68485103D01*
X139060674Y-72327860D02*
X139060674Y-69115124D01*
X146304000Y-65786000D02*
X149573908Y-62516092D01*
X150400092Y-61689908D02*
X153242868Y-58847132D01*
X153242868Y-58847132D02*
X153242868Y-56214868D01*
X189203949Y-99060000D02*
X188214000Y-99060000D01*
X152654000Y-42934000D02*
X154568579Y-41019421D01*
X154568579Y-41019421D02*
X189737192Y-41019421D01*
X189737192Y-41019421D02*
X193200000Y-44482229D01*
X193200000Y-44482229D02*
X193199999Y-97526257D01*
X193199999Y-97526257D02*
X191666256Y-99060000D01*
X191666256Y-99060000D02*
X189203949Y-99060000D01*
X146558000Y-66040000D02*
X147640000Y-66040000D01*
X146304000Y-65786000D02*
X146558000Y-66040000D01*
X145830427Y-65786000D02*
X146304000Y-65786000D01*
X145135417Y-65090990D02*
X145830427Y-65786000D01*
X153127355Y-47717355D02*
X152908000Y-47498000D01*
X153127355Y-54067355D02*
X153127355Y-47717355D01*
X139347900Y-92703400D02*
X139288500Y-92644000D01*
X139347900Y-95859600D02*
X139347900Y-92703400D01*
X140784400Y-91950500D02*
X144638600Y-91950500D01*
X140090900Y-92644000D02*
X140784400Y-91950500D01*
X144638600Y-91950500D02*
X145321000Y-91950500D01*
X139288500Y-92644000D02*
X140090900Y-92644000D01*
X157068500Y-90365500D02*
X157063500Y-90360500D01*
X157068500Y-93728500D02*
X157068500Y-90365500D01*
X160022300Y-90360500D02*
X160207900Y-90546100D01*
X157063500Y-90360500D02*
X160022300Y-90360500D01*
X155127900Y-85918000D02*
X155125400Y-85915500D01*
X155127900Y-88074500D02*
X155127900Y-85918000D01*
X155018500Y-87965100D02*
X155127900Y-88074500D01*
X153217900Y-87965100D02*
X155018500Y-87965100D01*
X151317900Y-92367100D02*
X151188400Y-92496600D01*
X151317900Y-90165100D02*
X151317900Y-92367100D01*
X147521000Y-95461000D02*
X147670500Y-95610500D01*
X147521000Y-92900500D02*
X147521000Y-95461000D01*
D35*
X171152500Y-58135300D02*
X171290000Y-58272800D01*
X171411820Y-48325820D02*
X171411820Y-55891860D01*
X168623000Y-58135300D02*
X171152500Y-58135300D01*
X171411820Y-58150980D02*
X171290000Y-58272800D01*
D36*
X171284700Y-60442100D02*
X171284700Y-61392100D01*
D35*
X171290000Y-58272800D02*
X171290000Y-60436800D01*
X171411820Y-56466860D02*
X171411820Y-58150980D01*
D37*
X171290000Y-56588680D02*
X171411820Y-56466860D01*
D35*
X170000500Y-46914500D02*
X171411820Y-48325820D01*
X171411820Y-55891860D02*
X171411820Y-56466860D01*
X171290000Y-60436800D02*
X171284700Y-60442100D01*
X173484700Y-64571100D02*
X173369500Y-64686300D01*
X173484700Y-62342100D02*
X173484700Y-64571100D01*
X171284700Y-62342100D02*
X171284700Y-64601500D01*
X168683960Y-62591200D02*
X171035600Y-62591200D01*
X171284700Y-64601500D02*
X171369500Y-64686300D01*
X171035600Y-62591200D02*
X171284700Y-62342100D01*
D37*
X168933060Y-62342100D02*
X168683960Y-62591200D01*
D35*
X168750000Y-67686800D02*
X164892500Y-67686800D01*
D37*
X164891740Y-67686040D02*
X164749500Y-67543800D01*
X168683960Y-67597140D02*
X168772860Y-67686040D01*
D35*
X173821900Y-67162800D02*
X175371780Y-65612920D01*
D37*
X175371780Y-65008920D02*
X175671780Y-65008920D01*
D35*
X168683960Y-67620760D02*
X168750000Y-67686800D01*
X164892500Y-67686800D02*
X164749500Y-67543800D01*
X168683960Y-65791200D02*
X168683960Y-67620760D01*
X164744420Y-67538720D02*
X164749500Y-67543800D01*
X164744420Y-64942700D02*
X164744420Y-67538720D01*
X171099500Y-67162800D02*
X169274000Y-67162800D01*
D37*
X164749500Y-64947780D02*
X164744420Y-64942700D01*
D35*
X169274000Y-67162800D02*
X168750000Y-67686800D01*
X175371780Y-65612920D02*
X175371780Y-65008920D01*
X171099500Y-67162800D02*
X173821900Y-67162800D01*
X173650500Y-46614500D02*
X171900500Y-46614500D01*
X160050500Y-60414500D02*
X158300500Y-60414500D01*
X175387020Y-61122720D02*
X174706400Y-60442100D01*
X175387020Y-63093680D02*
X175371780Y-63108920D01*
X175387020Y-61122720D02*
X175387020Y-63093680D01*
X174706400Y-60442100D02*
X173484700Y-60442100D01*
D34*
X186376000Y-88332700D02*
X186217400Y-88491300D01*
X186376000Y-86014800D02*
X186376000Y-88332700D01*
X184393900Y-87767400D02*
X184393900Y-87290000D01*
X185117800Y-88491300D02*
X184393900Y-87767400D01*
X186217400Y-88491300D02*
X185117800Y-88491300D01*
X176574000Y-89209800D02*
X176661800Y-89297600D01*
X176574000Y-87290000D02*
X176574000Y-89209800D01*
X179135800Y-89297600D02*
X179138300Y-89300100D01*
X176661800Y-89297600D02*
X179135800Y-89297600D01*
X181906000Y-75769500D02*
X181956000Y-75719500D01*
X181906000Y-78450500D02*
X181906000Y-75769500D01*
X176892000Y-79432000D02*
X176896000Y-79432000D01*
X174692000Y-81632000D02*
X176892000Y-79432000D01*
X174692000Y-81932000D02*
X174692000Y-81632000D01*
X176896000Y-80209400D02*
X177337100Y-80650500D01*
X176896000Y-79432000D02*
X176896000Y-80209400D01*
X179884500Y-80772000D02*
X180006000Y-80650500D01*
X179036200Y-80772000D02*
X179884500Y-80772000D01*
X179036200Y-80772000D02*
X178816000Y-80772000D01*
X177337100Y-80650500D02*
X177424500Y-80650500D01*
X177424500Y-80650500D02*
X177546000Y-80772000D01*
X184057600Y-78670000D02*
X184710000Y-78670000D01*
X183518499Y-79209101D02*
X184057600Y-78670000D01*
X181714999Y-79209101D02*
X183518499Y-79209101D01*
X180956000Y-79968100D02*
X181714999Y-79209101D01*
X180956000Y-80650500D02*
X180956000Y-79968100D01*
X184710000Y-79447400D02*
X184710000Y-78670000D01*
X186249600Y-81006000D02*
X184710000Y-79466400D01*
X184710000Y-79466400D02*
X184710000Y-79447400D01*
X186752000Y-81006000D02*
X186249600Y-81006000D01*
X130627000Y-97427000D02*
X130924000Y-97130000D01*
X129080000Y-97427000D02*
X130627000Y-97427000D01*
X127990600Y-65811400D02*
X127990600Y-71191500D01*
X133102000Y-60700000D02*
X127990600Y-65811400D01*
X136862268Y-61343324D02*
X136218944Y-60700000D01*
X136218944Y-60700000D02*
X133102000Y-60700000D01*
X135612643Y-61225070D02*
X136296583Y-61909010D01*
X133007996Y-61225070D02*
X135612643Y-61225070D01*
X128778000Y-65455066D02*
X133007996Y-61225070D01*
X128778000Y-74232700D02*
X128778000Y-65455066D01*
X128003300Y-74505000D02*
X128505700Y-74505000D01*
X128505700Y-74505000D02*
X128778000Y-74232700D01*
X129082810Y-77235990D02*
X128454900Y-77863900D01*
X128454900Y-77863900D02*
X127952500Y-77863900D01*
X133134252Y-61529880D02*
X129082810Y-65581322D01*
X135730897Y-62474695D02*
X134786082Y-61529880D01*
X129082810Y-65581322D02*
X129082810Y-77235990D01*
X134786082Y-61529880D02*
X133134252Y-61529880D01*
X162214500Y-88239500D02*
X162107900Y-88346100D01*
X162214500Y-86042500D02*
X162214500Y-88239500D01*
X130358029Y-62196962D02*
X130358029Y-56150904D01*
X130358029Y-56150904D02*
X130235046Y-56027921D01*
X143764000Y-44554762D02*
X143764000Y-45474000D01*
X143764000Y-42903670D02*
X143764000Y-44554762D01*
X142915729Y-42055399D02*
X143764000Y-42903670D01*
X138292601Y-42055399D02*
X142915729Y-42055399D01*
X137414000Y-42934000D02*
X138292601Y-42055399D01*
X148752001Y-75946000D02*
X154009802Y-81203801D01*
X154009802Y-81203801D02*
X154178000Y-81203801D01*
X153924000Y-82296000D02*
X156192588Y-84564588D01*
X156192588Y-84564588D02*
X161526588Y-84564588D01*
X162214500Y-85460900D02*
X162214500Y-86042500D01*
X163068000Y-84607400D02*
X162214500Y-85460900D01*
X136762508Y-64102240D02*
X140679445Y-68019177D01*
X140679445Y-68940244D02*
X147685201Y-75946000D01*
X140679445Y-68019177D02*
X140679445Y-68940244D01*
X135730897Y-64525305D02*
X136153962Y-64102240D01*
X136153962Y-64102240D02*
X136762508Y-64102240D01*
X131191000Y-65151000D02*
X130729237Y-64689237D01*
X135730897Y-64525305D02*
X135105202Y-65151000D01*
X135105202Y-65151000D02*
X131191000Y-65151000D01*
X134040713Y-49849077D02*
X130349694Y-53540096D01*
X137414000Y-49784000D02*
X137348923Y-49849077D01*
X137348923Y-49849077D02*
X134040713Y-49849077D01*
X130349694Y-53540096D02*
X130044895Y-53844895D01*
X137414000Y-42934000D02*
X137414000Y-49784000D01*
X187865000Y-90678000D02*
X186869000Y-91674000D01*
X187960000Y-90678000D02*
X187865000Y-90678000D01*
X138559324Y-67353732D02*
X135407401Y-70505655D01*
X135407401Y-72288392D02*
X132588003Y-75107790D01*
X135407401Y-70505655D02*
X135407401Y-72288392D01*
X137170824Y-41445780D02*
X146085780Y-41445780D01*
X146924001Y-42284001D02*
X147574000Y-42934000D01*
X146085780Y-41445780D02*
X146924001Y-42284001D01*
X127660380Y-50956224D02*
X137170824Y-41445780D01*
X189230000Y-91440000D02*
X191700000Y-88970000D01*
X191700000Y-88970000D02*
X191700000Y-79000000D01*
X191200000Y-77700000D02*
X191200000Y-45300000D01*
X149793389Y-40714611D02*
X147574000Y-42934000D01*
X189863448Y-40714611D02*
X149793389Y-40714611D01*
X193100000Y-43400000D02*
X192548837Y-43400000D01*
X192548837Y-43400000D02*
X189863448Y-40714611D01*
X127596880Y-51019724D02*
X127660380Y-50956224D01*
X127596880Y-63859290D02*
X127596880Y-51019724D01*
X127117264Y-64338906D02*
X127596880Y-63859290D01*
X125202948Y-64338906D02*
X127117264Y-64338906D01*
X117767090Y-78994000D02*
X117767090Y-71774764D01*
X117767090Y-71774764D02*
X125202948Y-64338906D01*
X130606794Y-78994006D02*
X120675410Y-78994006D01*
X132588000Y-77012800D02*
X130606794Y-78994006D01*
X128096000Y-90188000D02*
X128257000Y-90027000D01*
X125082000Y-90188000D02*
X128096000Y-90188000D01*
X124782000Y-90188000D02*
X125082000Y-90188000D01*
X119951500Y-74766934D02*
X119951500Y-85725000D01*
X125082000Y-89685600D02*
X125082000Y-90188000D01*
X119862599Y-74678033D02*
X119951500Y-74766934D01*
X119862599Y-74165967D02*
X119862599Y-74678033D01*
X136750314Y-60100000D02*
X133270934Y-60100000D01*
X133270934Y-60100000D02*
X127685790Y-65685144D01*
X121629400Y-86233000D02*
X125082000Y-89685600D01*
X120459500Y-86233000D02*
X121629400Y-86233000D01*
X119951500Y-74077066D02*
X119862599Y-74165967D01*
X137427953Y-60777639D02*
X136750314Y-60100000D01*
X127685790Y-65685144D02*
X125834974Y-65685144D01*
X119951500Y-71568618D02*
X119951500Y-74077066D01*
X119951500Y-85725000D02*
X120459500Y-86233000D01*
X125834974Y-65685144D02*
X119951500Y-71568618D01*
X182118500Y-73982000D02*
X181956000Y-74144500D01*
X185106000Y-73982000D02*
X182118500Y-73982000D01*
X178656500Y-74144500D02*
X178406000Y-73894000D01*
X181956000Y-74144500D02*
X178656500Y-74144500D01*
X161157900Y-87663700D02*
X161157900Y-88346100D01*
X161157900Y-85687618D02*
X161157900Y-87663700D01*
X131826000Y-76479400D02*
X142884601Y-76479400D01*
X142884601Y-76479400D02*
X147685201Y-81280000D01*
X148752001Y-81280000D02*
X153085801Y-81280000D01*
X153085801Y-81280000D02*
X153162000Y-81203801D01*
X161798000Y-84074000D02*
X162814000Y-84074000D01*
X161755187Y-84031187D02*
X161798000Y-84074000D01*
X162814000Y-84074000D02*
X161157900Y-85687618D01*
X161227742Y-84074000D02*
X161270555Y-84031187D01*
X156464000Y-84074000D02*
X161227742Y-84074000D01*
X155194000Y-82804000D02*
X156464000Y-84074000D01*
X161270555Y-84031187D02*
X161755187Y-84031187D01*
X162814000Y-84074000D02*
X169418000Y-84074000D01*
X169418000Y-84074000D02*
X173202599Y-80289401D01*
X173202599Y-80289401D02*
X173202599Y-75785919D01*
X175973119Y-73015399D02*
X178329799Y-73015399D01*
X173202599Y-75785919D02*
X175973119Y-73015399D01*
X178406000Y-73091600D02*
X178406000Y-73894000D01*
X178329799Y-73015399D02*
X178406000Y-73091600D01*
X131826000Y-67031169D02*
X131826000Y-75107790D01*
X136296583Y-65090990D02*
X134797957Y-66589616D01*
X132267553Y-66589616D02*
X131826000Y-67031169D01*
X134797957Y-66589616D02*
X132267553Y-66589616D01*
X149957084Y-52866916D02*
X150368000Y-52456000D01*
X147950784Y-52866916D02*
X149957084Y-52866916D01*
X151384000Y-45474000D02*
X151384000Y-52242400D01*
X151170400Y-52456000D02*
X150368000Y-52456000D01*
X151384000Y-52242400D02*
X151170400Y-52456000D01*
X150148916Y-54136916D02*
X150368000Y-54356000D01*
X147950784Y-54136916D02*
X150148916Y-54136916D01*
X152262601Y-45082601D02*
X150114000Y-42934000D01*
X150368000Y-53853600D02*
X152262601Y-51958999D01*
X150368000Y-54356000D02*
X150368000Y-53853600D01*
X152262601Y-51958999D02*
X152262601Y-45082601D01*
X137297080Y-41750590D02*
X127965190Y-51082480D01*
X145034000Y-42934000D02*
X143850590Y-41750590D01*
X143850590Y-41750590D02*
X137297080Y-41750590D01*
X187206000Y-74379600D02*
X187206000Y-74932000D01*
X185536989Y-72710589D02*
X187206000Y-74379600D01*
X148752001Y-82042000D02*
X149056800Y-81737201D01*
X149056800Y-81737201D02*
X171323733Y-81737201D01*
X171323733Y-81737201D02*
X172897789Y-80163145D01*
X172897790Y-75659662D02*
X175846863Y-72710589D01*
X172897789Y-80163145D02*
X172897790Y-75659662D01*
X175846863Y-72710589D02*
X185536989Y-72710589D01*
X118300500Y-71672420D02*
X118300500Y-84836000D01*
X125329204Y-64643716D02*
X118300500Y-71672420D01*
X127243520Y-64643716D02*
X125329204Y-64643716D01*
X127901690Y-63985546D02*
X127243520Y-64643716D01*
X127965190Y-51082480D02*
X127901690Y-51145980D01*
X127901690Y-51145980D02*
X127901690Y-63985546D01*
X118490989Y-84836000D02*
X118440179Y-84836000D01*
X118618000Y-84708989D02*
X118490989Y-84836000D01*
X147380402Y-81737201D02*
X123718060Y-81737201D01*
X123718060Y-81737201D02*
X120980209Y-84475052D01*
X120980209Y-84475052D02*
X120675410Y-84779851D01*
X147685201Y-82042000D02*
X147380402Y-81737201D01*
X137040116Y-74234932D02*
X137040116Y-74999074D01*
X137040116Y-74999074D02*
X136398000Y-75641190D01*
X136398000Y-75641190D02*
X129921020Y-75641190D01*
X130149611Y-65288422D02*
X130139832Y-65278643D01*
X129921020Y-75641190D02*
X130149611Y-75412599D01*
X130149611Y-75412599D02*
X130149611Y-65288422D01*
X142494000Y-48260000D02*
X142494000Y-43853238D01*
X131187919Y-54281581D02*
X134705995Y-50763505D01*
X134705995Y-50763505D02*
X139990495Y-50763505D01*
X131187919Y-54353441D02*
X131187919Y-54281581D01*
X130553441Y-54987919D02*
X131187919Y-54353441D01*
X130481583Y-54987919D02*
X130553441Y-54987919D01*
X129701646Y-55767856D02*
X130481583Y-54987919D01*
X139990495Y-50763505D02*
X142494000Y-48260000D01*
X142494000Y-43853238D02*
X142494000Y-42934000D01*
X129701646Y-62584012D02*
X129701646Y-55767856D01*
X141350000Y-85744100D02*
X141350000Y-86296500D01*
X141147772Y-85541872D02*
X141350000Y-85744100D01*
D35*
X119024389Y-71633597D02*
X119024389Y-85598000D01*
X119024389Y-71539111D02*
X119024389Y-71633597D01*
X125530183Y-65033317D02*
X119024389Y-71539111D01*
X125530183Y-65024001D02*
X125530183Y-65033317D01*
X127381000Y-65024000D02*
X125530183Y-65024001D01*
X128270000Y-64135000D02*
X127381000Y-65024000D01*
X128270000Y-54793592D02*
X128270000Y-64135000D01*
X134041592Y-49022000D02*
X128270000Y-54793592D01*
X136880600Y-49022000D02*
X134041592Y-49022000D01*
X139954000Y-48285400D02*
X139217400Y-49022000D01*
X139954000Y-42934000D02*
X139954000Y-48285400D01*
X141084272Y-85598000D02*
X141028134Y-85541862D01*
X141028134Y-85541862D02*
X121106462Y-85541862D01*
X121106462Y-85541862D02*
X120675410Y-85541862D01*
D34*
X127307000Y-94506000D02*
X127180000Y-94633000D01*
X127307000Y-92127000D02*
X127307000Y-94506000D01*
X127180000Y-96624600D02*
X127180000Y-94633000D01*
X127180000Y-97427000D02*
X127180000Y-96624600D01*
X127180000Y-97427000D02*
X127180000Y-92365482D01*
X124249119Y-90766601D02*
X124203399Y-90720881D01*
X126754600Y-92127000D02*
X125394201Y-90766601D01*
X125394201Y-90766601D02*
X124249119Y-90766601D01*
X127307000Y-92127000D02*
X126754600Y-92127000D01*
X130578297Y-54100929D02*
X130578297Y-54029071D01*
X138684000Y-50027629D02*
X138684000Y-46393238D01*
X138557742Y-50153887D02*
X138684000Y-50027629D01*
X138684000Y-46393238D02*
X138684000Y-45474000D01*
X119557790Y-71531262D02*
X125708718Y-65380334D01*
X134453482Y-50153888D02*
X138557742Y-50153887D01*
X130229072Y-54378297D02*
X130300929Y-54378297D01*
X128629428Y-55977940D02*
X130229072Y-54378297D01*
X128629428Y-64310440D02*
X128629428Y-55977940D01*
X125708718Y-65380334D02*
X127559534Y-65380334D01*
X119557789Y-86075271D02*
X119557790Y-71531262D01*
X127559534Y-65380334D02*
X128629428Y-64310440D01*
X124249119Y-90766601D02*
X119557789Y-86075271D01*
X130578297Y-54029071D02*
X134453482Y-50153888D01*
X130300929Y-54378297D02*
X130578297Y-54100929D01*
X176574000Y-81950000D02*
X176592000Y-81932000D01*
X176574000Y-85390000D02*
X176574000Y-84861566D01*
X176574000Y-84861566D02*
X177326783Y-84108783D01*
X176500599Y-82023401D02*
X176592000Y-81932000D01*
X176500599Y-83282599D02*
X176500599Y-82023401D01*
X182193900Y-83161700D02*
X182193900Y-84912600D01*
X184349600Y-81006000D02*
X182193900Y-83161700D01*
X182193900Y-84912600D02*
X182193900Y-85390000D01*
X184852000Y-81006000D02*
X184349600Y-81006000D01*
X183206000Y-88097100D02*
X182398900Y-87290000D01*
X182398900Y-87290000D02*
X182193900Y-87290000D01*
X183206000Y-89962000D02*
X183206000Y-88097100D01*
X182193900Y-87290000D02*
X178774000Y-87290000D01*
X184832388Y-91212388D02*
X185294000Y-91674000D01*
X183582000Y-89962000D02*
X184832388Y-91212388D01*
X183206000Y-89962000D02*
X183582000Y-89962000D01*
X146567900Y-87312500D02*
X145765500Y-87312500D01*
X148218601Y-85661799D02*
X146567900Y-87312500D01*
X148218601Y-65207119D02*
X148218601Y-85661799D01*
X143516000Y-87312500D02*
X143450000Y-87246500D01*
X145765500Y-87312500D02*
X143516000Y-87312500D01*
X143450000Y-90968500D02*
X143540500Y-91059000D01*
X143450000Y-87246500D02*
X143450000Y-90968500D01*
X145262500Y-91059000D02*
X145321000Y-91000500D01*
X143540500Y-91059000D02*
X145262500Y-91059000D01*
X146003400Y-91000500D02*
X145321000Y-91000500D01*
X146079601Y-91076701D02*
X146003400Y-91000500D01*
X146079601Y-97647001D02*
X146079601Y-91076701D01*
X146243100Y-97810500D02*
X146079601Y-97647001D01*
X146720500Y-97810500D02*
X146243100Y-97810500D01*
X148218601Y-65207119D02*
X148218601Y-64906601D01*
X148218601Y-64906601D02*
X148082000Y-64770000D01*
X147102555Y-63536555D02*
X147450829Y-63884829D01*
X145101262Y-63536555D02*
X147102555Y-63536555D01*
X139690695Y-58514897D02*
X140079604Y-58514897D01*
X140079604Y-58514897D02*
X145101262Y-63536555D01*
X129616210Y-65832237D02*
X129616210Y-75768210D01*
X129616210Y-75768210D02*
X129794000Y-75946000D01*
X139060674Y-74730260D02*
X139060674Y-74227860D01*
X137844934Y-75946000D02*
X139060674Y-74730260D01*
X129794000Y-75946000D02*
X137844934Y-75946000D01*
X130883108Y-54227185D02*
X130427185Y-54683108D01*
X129162829Y-55875607D02*
X129162829Y-62691777D01*
X141224000Y-45474000D02*
X141224000Y-47918695D01*
X130355328Y-54683108D02*
X129162829Y-55875607D01*
X130883108Y-54155326D02*
X130883108Y-54227185D01*
X129162829Y-62691777D02*
X129162829Y-63122829D01*
X138683997Y-50458697D02*
X134579738Y-50458697D01*
X141224000Y-47918695D02*
X138683997Y-50458697D01*
X130427185Y-54683108D02*
X130355328Y-54683108D01*
X134579738Y-50458697D02*
X130883108Y-54155326D01*
M02*
