M48
INCH,TZ
T1C0.0120
T2C0.0157
T3C0.0315
T4C0.0400
%
G90
G05
T1
X46365Y-31100
X46630Y-33400
X46860Y-33700
X47400Y-29300
X47510Y-31100
X47510Y-33378
X47510Y-33678
X49700Y-25070
X49700Y-26070
X50025Y-20375
X50180Y-27100
X50600Y-20375
X50852Y-24852
X51030Y-25918
X51064Y-24639
X51100Y-20350
X51199Y-21199
X51236Y-25700
X51274Y-22058
X51322Y-36337
X51322Y-24487
X51468Y-25468
X51522Y-36837
X51600Y-27100
X51900Y-29570
X51900Y-30110
X52200Y-30320
X52200Y-29570
X52300Y-21200
X53100Y-20700
X53100Y-27800
X53135Y-20351
X53600Y-18700
X53700Y-26600
X53890Y-19300
X54100Y-38600
X54300Y-20316
X54375Y-22475
X54600Y-20600
X54810Y-19300
X55400Y-35800
X55600Y-19896
X55900Y-32700
X56700Y-36600
X56900Y-23200
X57600Y-18600
X57640Y-23463
X57640Y-23970
X57800Y-37100
X57940Y-23460
X57940Y-23980
X58052Y-25152
X58144Y-29900
X58144Y-32000
X58144Y-32300
X58260Y-23980
X58260Y-23460
X58300Y-25500
X58500Y-37100
X58564Y-29900
X58564Y-32000
X58564Y-32300
X58800Y-20200
X58868Y-19170
X59100Y-16903
X59300Y-37600
X59500Y-32500
X60000Y-36000
X60000Y-39000
X60300Y-31970
X60500Y-37700
X60600Y-32400
X60700Y-31970
X60937Y-23772
X61100Y-32600
X62300Y-33900
X62412Y-27797
X62620Y-17380
X63100Y-34300
X63593Y-33293
X63800Y-16903
X64200Y-33310
X64300Y-37700
X65100Y-33900
X68400Y-31300
X68950Y-33992
X69050Y-29492
X69488Y-32788
X69814Y-33114
X69900Y-31800
X70400Y-31800
X71050Y-35892
X71450Y-32692
X72850Y-30392
X74000Y-35700
X74094Y-37402
X74450Y-34792
X74500Y-36000
X74550Y-32892
X75276Y-17835
X75276Y-30591
X75472Y-31102
X75980Y-17120
T2
X62898Y-29476
X63431Y-30604
X64258Y-30604
X65335Y-30604
X66648Y-30590
X68284Y-19445
X69418Y-19450
X70126Y-19475
X70126Y-20717
X70136Y-23000
X70141Y-21886
T3
X53600Y-17903
X54100Y-16903
X54600Y-17903
X55100Y-16903
X55600Y-17903
X56100Y-16903
X56600Y-17903
X57100Y-16903
X57600Y-17903
X58100Y-16903
X58600Y-17903
X59100Y-16903
X59600Y-17903
X60100Y-16903
X60600Y-17903
X61100Y-16903
X61600Y-17903
X62100Y-16903
X62600Y-17903
X63100Y-16903
T4
X72100Y-38000
X72100Y-39000
X73100Y-38000
X73100Y-39000
X74100Y-38000
X74100Y-39000
T0
M30
