G04 #@! TF.GenerationSoftware,KiCad,Pcbnew,5.1.5-52549c5~84~ubuntu18.04.1*
G04 #@! TF.CreationDate,2019-12-02T20:47:02-05:00*
G04 #@! TF.ProjectId,Brakelight_Shutdown_BSPD,4272616b-656c-4696-9768-745f53687574,rev?*
G04 #@! TF.SameCoordinates,Original*
G04 #@! TF.FileFunction,Paste,Top*
G04 #@! TF.FilePolarity,Positive*
%FSLAX46Y46*%
G04 Gerber Fmt 4.6, Leading zero omitted, Abs format (unit mm)*
G04 Created by KiCad (PCBNEW 5.1.5-52549c5~84~ubuntu18.04.1) date 2019-12-02 20:47:02*
%MOMM*%
%LPD*%
G04 APERTURE LIST*
%ADD10R,0.700000X1.300000*%
%ADD11R,1.200000X1.200000*%
%ADD12R,1.300000X0.700000*%
%ADD13R,1.550000X0.600000*%
%ADD14R,1.250000X1.000000*%
%ADD15C,0.100000*%
%ADD16R,1.000000X1.250000*%
%ADD17R,0.800000X0.750000*%
%ADD18R,1.060000X0.650000*%
%ADD19R,3.500000X1.780000*%
%ADD20R,2.000000X1.200000*%
%ADD21R,1.600000X1.000000*%
%ADD22R,3.200000X1.000000*%
%ADD23R,1.778000X2.159000*%
%ADD24R,2.500000X0.900000*%
%ADD25R,0.800000X0.900000*%
%ADD26R,0.650000X1.060000*%
%ADD27R,0.900000X0.800000*%
G04 APERTURE END LIST*
D10*
X126052500Y-77863900D03*
X127952500Y-77863900D03*
X128003300Y-74505000D03*
X126103300Y-74505000D03*
D11*
X121940100Y-71191500D03*
X124140100Y-71191500D03*
D10*
X126090600Y-71191500D03*
X127990600Y-71191500D03*
D11*
X121902000Y-77863900D03*
X124102000Y-77863900D03*
X124152800Y-74505000D03*
X121952800Y-74505000D03*
D12*
X150368000Y-54356000D03*
X150368000Y-52456000D03*
D13*
X142550784Y-51596916D03*
X142550784Y-52866916D03*
X142550784Y-54136916D03*
X142550784Y-55406916D03*
X147950784Y-55406916D03*
X147950784Y-54136916D03*
X147950784Y-52866916D03*
X147950784Y-51596916D03*
D14*
X140222000Y-54454000D03*
X140222000Y-52454000D03*
D15*
G36*
X146072334Y-61714555D02*
G01*
X146461243Y-62103464D01*
X145329872Y-63234835D01*
X144940963Y-62845926D01*
X146072334Y-61714555D01*
G37*
G36*
X145506648Y-61148870D02*
G01*
X145895557Y-61537779D01*
X144764186Y-62669150D01*
X144375277Y-62280241D01*
X145506648Y-61148870D01*
G37*
G36*
X144940963Y-60583184D02*
G01*
X145329872Y-60972093D01*
X144198501Y-62103464D01*
X143809592Y-61714555D01*
X144940963Y-60583184D01*
G37*
G36*
X144375278Y-60017499D02*
G01*
X144764187Y-60406408D01*
X143632816Y-61537779D01*
X143243907Y-61148870D01*
X144375278Y-60017499D01*
G37*
G36*
X143809592Y-59451813D02*
G01*
X144198501Y-59840722D01*
X143067130Y-60972093D01*
X142678221Y-60583184D01*
X143809592Y-59451813D01*
G37*
G36*
X143243907Y-58886128D02*
G01*
X143632816Y-59275037D01*
X142501445Y-60406408D01*
X142112536Y-60017499D01*
X143243907Y-58886128D01*
G37*
G36*
X142678221Y-58320443D02*
G01*
X143067130Y-58709352D01*
X141935759Y-59840723D01*
X141546850Y-59451814D01*
X142678221Y-58320443D01*
G37*
G36*
X142112536Y-57754757D02*
G01*
X142501445Y-58143666D01*
X141370074Y-59275037D01*
X140981165Y-58886128D01*
X142112536Y-57754757D01*
G37*
G36*
X138930555Y-58143666D02*
G01*
X139319464Y-57754757D01*
X140450835Y-58886128D01*
X140061926Y-59275037D01*
X138930555Y-58143666D01*
G37*
G36*
X138364870Y-58709352D02*
G01*
X138753779Y-58320443D01*
X139885150Y-59451814D01*
X139496241Y-59840723D01*
X138364870Y-58709352D01*
G37*
G36*
X137799184Y-59275037D02*
G01*
X138188093Y-58886128D01*
X139319464Y-60017499D01*
X138930555Y-60406408D01*
X137799184Y-59275037D01*
G37*
G36*
X137233499Y-59840722D02*
G01*
X137622408Y-59451813D01*
X138753779Y-60583184D01*
X138364870Y-60972093D01*
X137233499Y-59840722D01*
G37*
G36*
X136667813Y-60406408D02*
G01*
X137056722Y-60017499D01*
X138188093Y-61148870D01*
X137799184Y-61537779D01*
X136667813Y-60406408D01*
G37*
G36*
X136102128Y-60972093D02*
G01*
X136491037Y-60583184D01*
X137622408Y-61714555D01*
X137233499Y-62103464D01*
X136102128Y-60972093D01*
G37*
G36*
X135536443Y-61537779D02*
G01*
X135925352Y-61148870D01*
X137056723Y-62280241D01*
X136667814Y-62669150D01*
X135536443Y-61537779D01*
G37*
G36*
X134970757Y-62103464D02*
G01*
X135359666Y-61714555D01*
X136491037Y-62845926D01*
X136102128Y-63234835D01*
X134970757Y-62103464D01*
G37*
G36*
X136102128Y-63765165D02*
G01*
X136491037Y-64154074D01*
X135359666Y-65285445D01*
X134970757Y-64896536D01*
X136102128Y-63765165D01*
G37*
G36*
X136667814Y-64330850D02*
G01*
X137056723Y-64719759D01*
X135925352Y-65851130D01*
X135536443Y-65462221D01*
X136667814Y-64330850D01*
G37*
G36*
X137233499Y-64896536D02*
G01*
X137622408Y-65285445D01*
X136491037Y-66416816D01*
X136102128Y-66027907D01*
X137233499Y-64896536D01*
G37*
G36*
X137799184Y-65462221D02*
G01*
X138188093Y-65851130D01*
X137056722Y-66982501D01*
X136667813Y-66593592D01*
X137799184Y-65462221D01*
G37*
G36*
X138364870Y-66027907D02*
G01*
X138753779Y-66416816D01*
X137622408Y-67548187D01*
X137233499Y-67159278D01*
X138364870Y-66027907D01*
G37*
G36*
X138930555Y-66593592D02*
G01*
X139319464Y-66982501D01*
X138188093Y-68113872D01*
X137799184Y-67724963D01*
X138930555Y-66593592D01*
G37*
G36*
X139496241Y-67159277D02*
G01*
X139885150Y-67548186D01*
X138753779Y-68679557D01*
X138364870Y-68290648D01*
X139496241Y-67159277D01*
G37*
G36*
X140061926Y-67724963D02*
G01*
X140450835Y-68113872D01*
X139319464Y-69245243D01*
X138930555Y-68856334D01*
X140061926Y-67724963D01*
G37*
G36*
X140981165Y-68113872D02*
G01*
X141370074Y-67724963D01*
X142501445Y-68856334D01*
X142112536Y-69245243D01*
X140981165Y-68113872D01*
G37*
G36*
X141546850Y-67548186D02*
G01*
X141935759Y-67159277D01*
X143067130Y-68290648D01*
X142678221Y-68679557D01*
X141546850Y-67548186D01*
G37*
G36*
X142112536Y-66982501D02*
G01*
X142501445Y-66593592D01*
X143632816Y-67724963D01*
X143243907Y-68113872D01*
X142112536Y-66982501D01*
G37*
G36*
X142678221Y-66416816D02*
G01*
X143067130Y-66027907D01*
X144198501Y-67159278D01*
X143809592Y-67548187D01*
X142678221Y-66416816D01*
G37*
G36*
X143243907Y-65851130D02*
G01*
X143632816Y-65462221D01*
X144764187Y-66593592D01*
X144375278Y-66982501D01*
X143243907Y-65851130D01*
G37*
G36*
X143809592Y-65285445D02*
G01*
X144198501Y-64896536D01*
X145329872Y-66027907D01*
X144940963Y-66416816D01*
X143809592Y-65285445D01*
G37*
G36*
X144375277Y-64719759D02*
G01*
X144764186Y-64330850D01*
X145895557Y-65462221D01*
X145506648Y-65851130D01*
X144375277Y-64719759D01*
G37*
G36*
X144940963Y-64154074D02*
G01*
X145329872Y-63765165D01*
X146461243Y-64896536D01*
X146072334Y-65285445D01*
X144940963Y-64154074D01*
G37*
D14*
X134738000Y-69461000D03*
X134738000Y-67461000D03*
D16*
X130958934Y-70452717D03*
X132958934Y-70452717D03*
D10*
X149540000Y-66040000D03*
X147640000Y-66040000D03*
D14*
X132689600Y-55388000D03*
X132689600Y-57388000D03*
D10*
X132800434Y-67468217D03*
X130900434Y-67468217D03*
D12*
X137040116Y-74234932D03*
X137040116Y-72334932D03*
D16*
X136740343Y-53851561D03*
X134740343Y-53851561D03*
D12*
X139060674Y-72327860D03*
X139060674Y-74227860D03*
D11*
X173650500Y-46614500D03*
X175850500Y-46614500D03*
D16*
X173369500Y-64686300D03*
X171369500Y-64686300D03*
D17*
X171540000Y-58272800D03*
X173040000Y-58272800D03*
D18*
X173484700Y-62342100D03*
X173484700Y-61392100D03*
X173484700Y-60442100D03*
X171284700Y-60442100D03*
X171284700Y-62342100D03*
X171284700Y-61392100D03*
D19*
X164749500Y-67543800D03*
X164749500Y-72823800D03*
D20*
X168683960Y-62591200D03*
X168683960Y-65791200D03*
D21*
X171099500Y-67162800D03*
X171099500Y-70162800D03*
D22*
X164744420Y-64942700D03*
X164744420Y-58742700D03*
D12*
X175371780Y-65008920D03*
X175371780Y-63108920D03*
D10*
X161950500Y-60414500D03*
X160050500Y-60414500D03*
D14*
X168750000Y-67686800D03*
X168750000Y-69686800D03*
D10*
X170000500Y-46614500D03*
X171900500Y-46614500D03*
D11*
X158300500Y-60414500D03*
X156100500Y-60414500D03*
D12*
X175387020Y-59222720D03*
X175387020Y-61122720D03*
D23*
X172687000Y-51668800D03*
X168623000Y-51668800D03*
D16*
X171199320Y-56466860D03*
X173199320Y-56466860D03*
D24*
X168623000Y-55235300D03*
X168623000Y-58135300D03*
D10*
X127180000Y-94633000D03*
X129080000Y-94633000D03*
D25*
X128257000Y-90027000D03*
X129207000Y-92127000D03*
X127307000Y-92127000D03*
D11*
X130924000Y-94930000D03*
X130924000Y-97130000D03*
D10*
X129080000Y-97427000D03*
X127180000Y-97427000D03*
D12*
X125082000Y-90188000D03*
X125082000Y-92088000D03*
X157068500Y-93728500D03*
X157068500Y-95628500D03*
D26*
X148620500Y-97810500D03*
X146720500Y-97810500D03*
X146720500Y-95610500D03*
X147670500Y-95610500D03*
X148620500Y-95610500D03*
D10*
X143540500Y-91059000D03*
X141640500Y-91059000D03*
D11*
X161681500Y-95758000D03*
X159481500Y-95758000D03*
D14*
X151163000Y-96917000D03*
X151163000Y-98917000D03*
D27*
X141350000Y-86296500D03*
X143450000Y-85346500D03*
X143450000Y-87246500D03*
D11*
X145659000Y-82867500D03*
X143459000Y-82867500D03*
D10*
X162214500Y-86042500D03*
X164114500Y-86042500D03*
X155163500Y-90360500D03*
X157063500Y-90360500D03*
X157027900Y-88074500D03*
X155127900Y-88074500D03*
D12*
X151188400Y-94396600D03*
X151188400Y-92496600D03*
X137066000Y-88712000D03*
X137066000Y-90612000D03*
D10*
X155125400Y-85915500D03*
X157025400Y-85915500D03*
D26*
X162107900Y-90546100D03*
X160207900Y-90546100D03*
X160207900Y-88346100D03*
X161157900Y-88346100D03*
X162107900Y-88346100D03*
D27*
X137247900Y-94909600D03*
X137247900Y-96809600D03*
X139347900Y-95859600D03*
D18*
X145321000Y-91000500D03*
X145321000Y-91950500D03*
X145321000Y-92900500D03*
X147521000Y-92900500D03*
X147521000Y-91000500D03*
D14*
X151226500Y-83725000D03*
X151226500Y-85725000D03*
X154973000Y-93615000D03*
X154973000Y-95615000D03*
D16*
X137113500Y-92583000D03*
X135113500Y-92583000D03*
D26*
X151317900Y-87965100D03*
X153217900Y-87965100D03*
X153217900Y-90165100D03*
X152267900Y-90165100D03*
X151317900Y-90165100D03*
D12*
X145765500Y-87312500D03*
X145765500Y-85412500D03*
X139288500Y-90744000D03*
X139288500Y-92644000D03*
D10*
X176592000Y-81932000D03*
X174692000Y-81932000D03*
D16*
X175912000Y-76434000D03*
X177912000Y-76434000D03*
X180452000Y-83038000D03*
X178452000Y-83038000D03*
X186310000Y-83546000D03*
X188310000Y-83546000D03*
D15*
G36*
X187109191Y-91200053D02*
G01*
X187130426Y-91203203D01*
X187151250Y-91208419D01*
X187171462Y-91215651D01*
X187190868Y-91224830D01*
X187209281Y-91235866D01*
X187226524Y-91248654D01*
X187242430Y-91263070D01*
X187256846Y-91278976D01*
X187269634Y-91296219D01*
X187280670Y-91314632D01*
X187289849Y-91334038D01*
X187297081Y-91354250D01*
X187302297Y-91375074D01*
X187305447Y-91396309D01*
X187306500Y-91417750D01*
X187306500Y-91930250D01*
X187305447Y-91951691D01*
X187302297Y-91972926D01*
X187297081Y-91993750D01*
X187289849Y-92013962D01*
X187280670Y-92033368D01*
X187269634Y-92051781D01*
X187256846Y-92069024D01*
X187242430Y-92084930D01*
X187226524Y-92099346D01*
X187209281Y-92112134D01*
X187190868Y-92123170D01*
X187171462Y-92132349D01*
X187151250Y-92139581D01*
X187130426Y-92144797D01*
X187109191Y-92147947D01*
X187087750Y-92149000D01*
X186650250Y-92149000D01*
X186628809Y-92147947D01*
X186607574Y-92144797D01*
X186586750Y-92139581D01*
X186566538Y-92132349D01*
X186547132Y-92123170D01*
X186528719Y-92112134D01*
X186511476Y-92099346D01*
X186495570Y-92084930D01*
X186481154Y-92069024D01*
X186468366Y-92051781D01*
X186457330Y-92033368D01*
X186448151Y-92013962D01*
X186440919Y-91993750D01*
X186435703Y-91972926D01*
X186432553Y-91951691D01*
X186431500Y-91930250D01*
X186431500Y-91417750D01*
X186432553Y-91396309D01*
X186435703Y-91375074D01*
X186440919Y-91354250D01*
X186448151Y-91334038D01*
X186457330Y-91314632D01*
X186468366Y-91296219D01*
X186481154Y-91278976D01*
X186495570Y-91263070D01*
X186511476Y-91248654D01*
X186528719Y-91235866D01*
X186547132Y-91224830D01*
X186566538Y-91215651D01*
X186586750Y-91208419D01*
X186607574Y-91203203D01*
X186628809Y-91200053D01*
X186650250Y-91199000D01*
X187087750Y-91199000D01*
X187109191Y-91200053D01*
G37*
G36*
X185534191Y-91200053D02*
G01*
X185555426Y-91203203D01*
X185576250Y-91208419D01*
X185596462Y-91215651D01*
X185615868Y-91224830D01*
X185634281Y-91235866D01*
X185651524Y-91248654D01*
X185667430Y-91263070D01*
X185681846Y-91278976D01*
X185694634Y-91296219D01*
X185705670Y-91314632D01*
X185714849Y-91334038D01*
X185722081Y-91354250D01*
X185727297Y-91375074D01*
X185730447Y-91396309D01*
X185731500Y-91417750D01*
X185731500Y-91930250D01*
X185730447Y-91951691D01*
X185727297Y-91972926D01*
X185722081Y-91993750D01*
X185714849Y-92013962D01*
X185705670Y-92033368D01*
X185694634Y-92051781D01*
X185681846Y-92069024D01*
X185667430Y-92084930D01*
X185651524Y-92099346D01*
X185634281Y-92112134D01*
X185615868Y-92123170D01*
X185596462Y-92132349D01*
X185576250Y-92139581D01*
X185555426Y-92144797D01*
X185534191Y-92147947D01*
X185512750Y-92149000D01*
X185075250Y-92149000D01*
X185053809Y-92147947D01*
X185032574Y-92144797D01*
X185011750Y-92139581D01*
X184991538Y-92132349D01*
X184972132Y-92123170D01*
X184953719Y-92112134D01*
X184936476Y-92099346D01*
X184920570Y-92084930D01*
X184906154Y-92069024D01*
X184893366Y-92051781D01*
X184882330Y-92033368D01*
X184873151Y-92013962D01*
X184865919Y-91993750D01*
X184860703Y-91972926D01*
X184857553Y-91951691D01*
X184856500Y-91930250D01*
X184856500Y-91417750D01*
X184857553Y-91396309D01*
X184860703Y-91375074D01*
X184865919Y-91354250D01*
X184873151Y-91334038D01*
X184882330Y-91314632D01*
X184893366Y-91296219D01*
X184906154Y-91278976D01*
X184920570Y-91263070D01*
X184936476Y-91248654D01*
X184953719Y-91235866D01*
X184972132Y-91224830D01*
X184991538Y-91215651D01*
X185011750Y-91208419D01*
X185032574Y-91203203D01*
X185053809Y-91200053D01*
X185075250Y-91199000D01*
X185512750Y-91199000D01*
X185534191Y-91200053D01*
G37*
D18*
X176574000Y-85390000D03*
X176574000Y-86340000D03*
X176574000Y-87290000D03*
X178774000Y-87290000D03*
X178774000Y-85390000D03*
D16*
X174896000Y-79432000D03*
X176896000Y-79432000D03*
D10*
X188117400Y-88491300D03*
X186217400Y-88491300D03*
D18*
X182193900Y-85390000D03*
X182193900Y-86340000D03*
X182193900Y-87290000D03*
X184393900Y-87290000D03*
X184393900Y-85390000D03*
D16*
X186710000Y-78670000D03*
X184710000Y-78670000D03*
D10*
X188276000Y-86014800D03*
X186376000Y-86014800D03*
D15*
G36*
X182233691Y-73708053D02*
G01*
X182254926Y-73711203D01*
X182275750Y-73716419D01*
X182295962Y-73723651D01*
X182315368Y-73732830D01*
X182333781Y-73743866D01*
X182351024Y-73756654D01*
X182366930Y-73771070D01*
X182381346Y-73786976D01*
X182394134Y-73804219D01*
X182405170Y-73822632D01*
X182414349Y-73842038D01*
X182421581Y-73862250D01*
X182426797Y-73883074D01*
X182429947Y-73904309D01*
X182431000Y-73925750D01*
X182431000Y-74363250D01*
X182429947Y-74384691D01*
X182426797Y-74405926D01*
X182421581Y-74426750D01*
X182414349Y-74446962D01*
X182405170Y-74466368D01*
X182394134Y-74484781D01*
X182381346Y-74502024D01*
X182366930Y-74517930D01*
X182351024Y-74532346D01*
X182333781Y-74545134D01*
X182315368Y-74556170D01*
X182295962Y-74565349D01*
X182275750Y-74572581D01*
X182254926Y-74577797D01*
X182233691Y-74580947D01*
X182212250Y-74582000D01*
X181699750Y-74582000D01*
X181678309Y-74580947D01*
X181657074Y-74577797D01*
X181636250Y-74572581D01*
X181616038Y-74565349D01*
X181596632Y-74556170D01*
X181578219Y-74545134D01*
X181560976Y-74532346D01*
X181545070Y-74517930D01*
X181530654Y-74502024D01*
X181517866Y-74484781D01*
X181506830Y-74466368D01*
X181497651Y-74446962D01*
X181490419Y-74426750D01*
X181485203Y-74405926D01*
X181482053Y-74384691D01*
X181481000Y-74363250D01*
X181481000Y-73925750D01*
X181482053Y-73904309D01*
X181485203Y-73883074D01*
X181490419Y-73862250D01*
X181497651Y-73842038D01*
X181506830Y-73822632D01*
X181517866Y-73804219D01*
X181530654Y-73786976D01*
X181545070Y-73771070D01*
X181560976Y-73756654D01*
X181578219Y-73743866D01*
X181596632Y-73732830D01*
X181616038Y-73723651D01*
X181636250Y-73716419D01*
X181657074Y-73711203D01*
X181678309Y-73708053D01*
X181699750Y-73707000D01*
X182212250Y-73707000D01*
X182233691Y-73708053D01*
G37*
G36*
X182233691Y-75283053D02*
G01*
X182254926Y-75286203D01*
X182275750Y-75291419D01*
X182295962Y-75298651D01*
X182315368Y-75307830D01*
X182333781Y-75318866D01*
X182351024Y-75331654D01*
X182366930Y-75346070D01*
X182381346Y-75361976D01*
X182394134Y-75379219D01*
X182405170Y-75397632D01*
X182414349Y-75417038D01*
X182421581Y-75437250D01*
X182426797Y-75458074D01*
X182429947Y-75479309D01*
X182431000Y-75500750D01*
X182431000Y-75938250D01*
X182429947Y-75959691D01*
X182426797Y-75980926D01*
X182421581Y-76001750D01*
X182414349Y-76021962D01*
X182405170Y-76041368D01*
X182394134Y-76059781D01*
X182381346Y-76077024D01*
X182366930Y-76092930D01*
X182351024Y-76107346D01*
X182333781Y-76120134D01*
X182315368Y-76131170D01*
X182295962Y-76140349D01*
X182275750Y-76147581D01*
X182254926Y-76152797D01*
X182233691Y-76155947D01*
X182212250Y-76157000D01*
X181699750Y-76157000D01*
X181678309Y-76155947D01*
X181657074Y-76152797D01*
X181636250Y-76147581D01*
X181616038Y-76140349D01*
X181596632Y-76131170D01*
X181578219Y-76120134D01*
X181560976Y-76107346D01*
X181545070Y-76092930D01*
X181530654Y-76077024D01*
X181517866Y-76059781D01*
X181506830Y-76041368D01*
X181497651Y-76021962D01*
X181490419Y-76001750D01*
X181485203Y-75980926D01*
X181482053Y-75959691D01*
X181481000Y-75938250D01*
X181481000Y-75500750D01*
X181482053Y-75479309D01*
X181485203Y-75458074D01*
X181490419Y-75437250D01*
X181497651Y-75417038D01*
X181506830Y-75397632D01*
X181517866Y-75379219D01*
X181530654Y-75361976D01*
X181545070Y-75346070D01*
X181560976Y-75331654D01*
X181578219Y-75318866D01*
X181596632Y-75307830D01*
X181616038Y-75298651D01*
X181636250Y-75291419D01*
X181657074Y-75286203D01*
X181678309Y-75283053D01*
X181699750Y-75282000D01*
X182212250Y-75282000D01*
X182233691Y-75283053D01*
G37*
D27*
X185106000Y-73982000D03*
X185106000Y-75882000D03*
X187206000Y-74932000D03*
D12*
X176661800Y-89297600D03*
X176661800Y-91197600D03*
D26*
X180006000Y-78450500D03*
X181906000Y-78450500D03*
X181906000Y-80650500D03*
X180956000Y-80650500D03*
X180006000Y-80650500D03*
D10*
X176506000Y-73894000D03*
X178406000Y-73894000D03*
D12*
X183206000Y-89962000D03*
X183206000Y-91862000D03*
D10*
X184852000Y-81006000D03*
X186752000Y-81006000D03*
D12*
X179138300Y-89300100D03*
X179138300Y-91200100D03*
M02*
