G04 #@! TF.GenerationSoftware,KiCad,Pcbnew,5.0.2-bee76a0~70~ubuntu18.04.1*
G04 #@! TF.CreationDate,2019-11-25T00:10:04-05:00*
G04 #@! TF.ProjectId,328_Hacker,3332385f-4861-4636-9b65-722e6b696361,rev?*
G04 #@! TF.SameCoordinates,Original*
G04 #@! TF.FileFunction,Copper,L1,Top*
G04 #@! TF.FilePolarity,Positive*
%FSLAX46Y46*%
G04 Gerber Fmt 4.6, Leading zero omitted, Abs format (unit mm)*
G04 Created by KiCad (PCBNEW 5.0.2-bee76a0~70~ubuntu18.04.1) date Mon 25 Nov 2019 12:10:04 AM EST*
%MOMM*%
%LPD*%
G01*
G04 APERTURE LIST*
G04 #@! TA.AperFunction,SMDPad,CuDef*
%ADD10C,1.200000*%
G04 #@! TD*
G04 #@! TA.AperFunction,Conductor*
%ADD11C,0.100000*%
G04 #@! TD*
G04 #@! TA.AperFunction,ComponentPad*
%ADD12R,1.400000X1.400000*%
G04 #@! TD*
G04 #@! TA.AperFunction,ComponentPad*
%ADD13C,1.400000*%
G04 #@! TD*
G04 #@! TA.AperFunction,SMDPad,CuDef*
%ADD14R,1.000000X1.250000*%
G04 #@! TD*
G04 #@! TA.AperFunction,SMDPad,CuDef*
%ADD15R,1.250000X1.000000*%
G04 #@! TD*
G04 #@! TA.AperFunction,SMDPad,CuDef*
%ADD16R,1.300000X0.700000*%
G04 #@! TD*
G04 #@! TA.AperFunction,SMDPad,CuDef*
%ADD17C,0.550000*%
G04 #@! TD*
G04 #@! TA.AperFunction,SMDPad,CuDef*
%ADD18R,1.200000X1.400000*%
G04 #@! TD*
G04 #@! TA.AperFunction,ComponentPad*
%ADD19R,1.700000X1.700000*%
G04 #@! TD*
G04 #@! TA.AperFunction,ComponentPad*
%ADD20O,1.700000X1.700000*%
G04 #@! TD*
G04 #@! TA.AperFunction,SMDPad,CuDef*
%ADD21C,0.700000*%
G04 #@! TD*
G04 #@! TA.AperFunction,ViaPad*
%ADD22C,0.609600*%
G04 #@! TD*
G04 #@! TA.AperFunction,Conductor*
%ADD23C,0.152400*%
G04 #@! TD*
G04 #@! TA.AperFunction,Conductor*
%ADD24C,0.254000*%
G04 #@! TD*
G04 APERTURE END LIST*
D10*
G04 #@! TO.P,D1,2*
G04 #@! TO.N,Net-(D1-Pad2)*
X58054817Y-46345417D03*
D11*
G04 #@! TD*
G04 #@! TO.N,Net-(D1-Pad2)*
G04 #@! TO.C,D1*
G36*
X58903345Y-46345417D02*
X58054817Y-47193945D01*
X57206289Y-46345417D01*
X58054817Y-45496889D01*
X58903345Y-46345417D01*
X58903345Y-46345417D01*
G37*
D10*
G04 #@! TO.P,D1,1*
G04 #@! TO.N,GND*
X56499183Y-44789783D03*
D11*
G04 #@! TD*
G04 #@! TO.N,GND*
G04 #@! TO.C,D1*
G36*
X57347711Y-44789783D02*
X56499183Y-45638311D01*
X55650655Y-44789783D01*
X56499183Y-43941255D01*
X57347711Y-44789783D01*
X57347711Y-44789783D01*
G37*
D12*
G04 #@! TO.P,J4,1*
G04 #@! TO.N,/MISO*
X67233800Y-29616400D03*
D13*
G04 #@! TO.P,J4,2*
G04 #@! TO.N,VCC*
X67233800Y-27076400D03*
G04 #@! TO.P,J4,3*
G04 #@! TO.N,/SCK*
X69773800Y-29616400D03*
G04 #@! TO.P,J4,4*
G04 #@! TO.N,/MOSI*
X69773800Y-27076400D03*
G04 #@! TO.P,J4,5*
G04 #@! TO.N,/~RESET*
X72313799Y-29616400D03*
G04 #@! TO.P,J4,6*
G04 #@! TO.N,GND*
X72313800Y-27076400D03*
G04 #@! TD*
D14*
G04 #@! TO.P,C1,1*
G04 #@! TO.N,GND*
X76565000Y-46319440D03*
G04 #@! TO.P,C1,2*
G04 #@! TO.N,VCC*
X74565000Y-46319440D03*
G04 #@! TD*
D15*
G04 #@! TO.P,C2,2*
G04 #@! TO.N,Net-(C2-Pad2)*
X76321920Y-44075860D03*
G04 #@! TO.P,C2,1*
G04 #@! TO.N,GND*
X76321920Y-42075860D03*
G04 #@! TD*
D14*
G04 #@! TO.P,C3,1*
G04 #@! TO.N,GND*
X74751440Y-39961820D03*
G04 #@! TO.P,C3,2*
G04 #@! TO.N,Net-(C3-Pad2)*
X72751440Y-39961820D03*
G04 #@! TD*
D13*
G04 #@! TO.P,J3,6*
G04 #@! TO.N,GND*
X82113120Y-39476680D03*
G04 #@! TO.P,J3,5*
G04 #@! TO.N,Net-(J3-Pad5)*
X84653120Y-39476680D03*
G04 #@! TO.P,J3,4*
G04 #@! TO.N,/TxD*
X82113120Y-42016680D03*
G04 #@! TO.P,J3,3*
G04 #@! TO.N,/RxD*
X84653120Y-42016680D03*
G04 #@! TO.P,J3,2*
G04 #@! TO.N,VCC*
X82113120Y-44556680D03*
D12*
G04 #@! TO.P,J3,1*
G04 #@! TO.N,Net-(J3-Pad1)*
X84653120Y-44556680D03*
G04 #@! TD*
D16*
G04 #@! TO.P,R1,1*
G04 #@! TO.N,VCC*
X78310740Y-40022740D03*
G04 #@! TO.P,R1,2*
G04 #@! TO.N,/~RESET*
X78310740Y-41922740D03*
G04 #@! TD*
D17*
G04 #@! TO.P,U1,1*
G04 #@! TO.N,/5R*
X74835103Y-49774695D03*
D11*
G04 #@! TD*
G04 #@! TO.N,/5R*
G04 #@! TO.C,U1*
G36*
X75206334Y-49014555D02*
X75595243Y-49403464D01*
X74463872Y-50534835D01*
X74074963Y-50145926D01*
X75206334Y-49014555D01*
X75206334Y-49014555D01*
G37*
D17*
G04 #@! TO.P,U1,2*
G04 #@! TO.N,/4R*
X74269417Y-49209010D03*
D11*
G04 #@! TD*
G04 #@! TO.N,/4R*
G04 #@! TO.C,U1*
G36*
X74640648Y-48448870D02*
X75029557Y-48837779D01*
X73898186Y-49969150D01*
X73509277Y-49580241D01*
X74640648Y-48448870D01*
X74640648Y-48448870D01*
G37*
D17*
G04 #@! TO.P,U1,3*
G04 #@! TO.N,GND*
X73703732Y-48643324D03*
D11*
G04 #@! TD*
G04 #@! TO.N,GND*
G04 #@! TO.C,U1*
G36*
X74074963Y-47883184D02*
X74463872Y-48272093D01*
X73332501Y-49403464D01*
X72943592Y-49014555D01*
X74074963Y-47883184D01*
X74074963Y-47883184D01*
G37*
D17*
G04 #@! TO.P,U1,4*
G04 #@! TO.N,VCC*
X73138047Y-48077639D03*
D11*
G04 #@! TD*
G04 #@! TO.N,VCC*
G04 #@! TO.C,U1*
G36*
X73509278Y-47317499D02*
X73898187Y-47706408D01*
X72766816Y-48837779D01*
X72377907Y-48448870D01*
X73509278Y-47317499D01*
X73509278Y-47317499D01*
G37*
D17*
G04 #@! TO.P,U1,5*
G04 #@! TO.N,GND*
X72572361Y-47511953D03*
D11*
G04 #@! TD*
G04 #@! TO.N,GND*
G04 #@! TO.C,U1*
G36*
X72943592Y-46751813D02*
X73332501Y-47140722D01*
X72201130Y-48272093D01*
X71812221Y-47883184D01*
X72943592Y-46751813D01*
X72943592Y-46751813D01*
G37*
D17*
G04 #@! TO.P,U1,6*
G04 #@! TO.N,VCC*
X72006676Y-46946268D03*
D11*
G04 #@! TD*
G04 #@! TO.N,VCC*
G04 #@! TO.C,U1*
G36*
X72377907Y-46186128D02*
X72766816Y-46575037D01*
X71635445Y-47706408D01*
X71246536Y-47317499D01*
X72377907Y-46186128D01*
X72377907Y-46186128D01*
G37*
D17*
G04 #@! TO.P,U1,7*
G04 #@! TO.N,Net-(C2-Pad2)*
X71440990Y-46380583D03*
D11*
G04 #@! TD*
G04 #@! TO.N,Net-(C2-Pad2)*
G04 #@! TO.C,U1*
G36*
X71812221Y-45620443D02*
X72201130Y-46009352D01*
X71069759Y-47140723D01*
X70680850Y-46751814D01*
X71812221Y-45620443D01*
X71812221Y-45620443D01*
G37*
D17*
G04 #@! TO.P,U1,8*
G04 #@! TO.N,Net-(C3-Pad2)*
X70875305Y-45814897D03*
D11*
G04 #@! TD*
G04 #@! TO.N,Net-(C3-Pad2)*
G04 #@! TO.C,U1*
G36*
X71246536Y-45054757D02*
X71635445Y-45443666D01*
X70504074Y-46575037D01*
X70115165Y-46186128D01*
X71246536Y-45054757D01*
X71246536Y-45054757D01*
G37*
D17*
G04 #@! TO.P,U1,9*
G04 #@! TO.N,/1L*
X68824695Y-45814897D03*
D11*
G04 #@! TD*
G04 #@! TO.N,/1L*
G04 #@! TO.C,U1*
G36*
X68064555Y-45443666D02*
X68453464Y-45054757D01*
X69584835Y-46186128D01*
X69195926Y-46575037D01*
X68064555Y-45443666D01*
X68064555Y-45443666D01*
G37*
D17*
G04 #@! TO.P,U1,10*
G04 #@! TO.N,/2L*
X68259010Y-46380583D03*
D11*
G04 #@! TD*
G04 #@! TO.N,/2L*
G04 #@! TO.C,U1*
G36*
X67498870Y-46009352D02*
X67887779Y-45620443D01*
X69019150Y-46751814D01*
X68630241Y-47140723D01*
X67498870Y-46009352D01*
X67498870Y-46009352D01*
G37*
D17*
G04 #@! TO.P,U1,11*
G04 #@! TO.N,/3L*
X67693324Y-46946268D03*
D11*
G04 #@! TD*
G04 #@! TO.N,/3L*
G04 #@! TO.C,U1*
G36*
X66933184Y-46575037D02*
X67322093Y-46186128D01*
X68453464Y-47317499D01*
X68064555Y-47706408D01*
X66933184Y-46575037D01*
X66933184Y-46575037D01*
G37*
D17*
G04 #@! TO.P,U1,12*
G04 #@! TO.N,/4L*
X67127639Y-47511953D03*
D11*
G04 #@! TD*
G04 #@! TO.N,/4L*
G04 #@! TO.C,U1*
G36*
X66367499Y-47140722D02*
X66756408Y-46751813D01*
X67887779Y-47883184D01*
X67498870Y-48272093D01*
X66367499Y-47140722D01*
X66367499Y-47140722D01*
G37*
D17*
G04 #@! TO.P,U1,13*
G04 #@! TO.N,/5L*
X66561953Y-48077639D03*
D11*
G04 #@! TD*
G04 #@! TO.N,/5L*
G04 #@! TO.C,U1*
G36*
X65801813Y-47706408D02*
X66190722Y-47317499D01*
X67322093Y-48448870D01*
X66933184Y-48837779D01*
X65801813Y-47706408D01*
X65801813Y-47706408D01*
G37*
D17*
G04 #@! TO.P,U1,14*
G04 #@! TO.N,/6L*
X65996268Y-48643324D03*
D11*
G04 #@! TD*
G04 #@! TO.N,/6L*
G04 #@! TO.C,U1*
G36*
X65236128Y-48272093D02*
X65625037Y-47883184D01*
X66756408Y-49014555D01*
X66367499Y-49403464D01*
X65236128Y-48272093D01*
X65236128Y-48272093D01*
G37*
D17*
G04 #@! TO.P,U1,15*
G04 #@! TO.N,/MOSI*
X65430583Y-49209010D03*
D11*
G04 #@! TD*
G04 #@! TO.N,/MOSI*
G04 #@! TO.C,U1*
G36*
X64670443Y-48837779D02*
X65059352Y-48448870D01*
X66190723Y-49580241D01*
X65801814Y-49969150D01*
X64670443Y-48837779D01*
X64670443Y-48837779D01*
G37*
D17*
G04 #@! TO.P,U1,16*
G04 #@! TO.N,/MISO*
X64864897Y-49774695D03*
D11*
G04 #@! TD*
G04 #@! TO.N,/MISO*
G04 #@! TO.C,U1*
G36*
X64104757Y-49403464D02*
X64493666Y-49014555D01*
X65625037Y-50145926D01*
X65236128Y-50534835D01*
X64104757Y-49403464D01*
X64104757Y-49403464D01*
G37*
D17*
G04 #@! TO.P,U1,17*
G04 #@! TO.N,/SCK*
X64864897Y-51825305D03*
D11*
G04 #@! TD*
G04 #@! TO.N,/SCK*
G04 #@! TO.C,U1*
G36*
X65236128Y-51065165D02*
X65625037Y-51454074D01*
X64493666Y-52585445D01*
X64104757Y-52196536D01*
X65236128Y-51065165D01*
X65236128Y-51065165D01*
G37*
D17*
G04 #@! TO.P,U1,18*
G04 #@! TO.N,VCC*
X65430583Y-52390990D03*
D11*
G04 #@! TD*
G04 #@! TO.N,VCC*
G04 #@! TO.C,U1*
G36*
X65801814Y-51630850D02*
X66190723Y-52019759D01*
X65059352Y-53151130D01*
X64670443Y-52762221D01*
X65801814Y-51630850D01*
X65801814Y-51630850D01*
G37*
D17*
G04 #@! TO.P,U1,19*
G04 #@! TO.N,/7L*
X65996268Y-52956676D03*
D11*
G04 #@! TD*
G04 #@! TO.N,/7L*
G04 #@! TO.C,U1*
G36*
X66367499Y-52196536D02*
X66756408Y-52585445D01*
X65625037Y-53716816D01*
X65236128Y-53327907D01*
X66367499Y-52196536D01*
X66367499Y-52196536D01*
G37*
D17*
G04 #@! TO.P,U1,20*
G04 #@! TO.N,Net-(U1-Pad20)*
X66561953Y-53522361D03*
D11*
G04 #@! TD*
G04 #@! TO.N,Net-(U1-Pad20)*
G04 #@! TO.C,U1*
G36*
X66933184Y-52762221D02*
X67322093Y-53151130D01*
X66190722Y-54282501D01*
X65801813Y-53893592D01*
X66933184Y-52762221D01*
X66933184Y-52762221D01*
G37*
D17*
G04 #@! TO.P,U1,21*
G04 #@! TO.N,GND*
X67127639Y-54088047D03*
D11*
G04 #@! TD*
G04 #@! TO.N,GND*
G04 #@! TO.C,U1*
G36*
X67498870Y-53327907D02*
X67887779Y-53716816D01*
X66756408Y-54848187D01*
X66367499Y-54459278D01*
X67498870Y-53327907D01*
X67498870Y-53327907D01*
G37*
D17*
G04 #@! TO.P,U1,22*
G04 #@! TO.N,/8L*
X67693324Y-54653732D03*
D11*
G04 #@! TD*
G04 #@! TO.N,/8L*
G04 #@! TO.C,U1*
G36*
X68064555Y-53893592D02*
X68453464Y-54282501D01*
X67322093Y-55413872D01*
X66933184Y-55024963D01*
X68064555Y-53893592D01*
X68064555Y-53893592D01*
G37*
D17*
G04 #@! TO.P,U1,23*
G04 #@! TO.N,/9L*
X68259010Y-55219417D03*
D11*
G04 #@! TD*
G04 #@! TO.N,/9L*
G04 #@! TO.C,U1*
G36*
X68630241Y-54459277D02*
X69019150Y-54848186D01*
X67887779Y-55979557D01*
X67498870Y-55590648D01*
X68630241Y-54459277D01*
X68630241Y-54459277D01*
G37*
D17*
G04 #@! TO.P,U1,24*
G04 #@! TO.N,/10L*
X68824695Y-55785103D03*
D11*
G04 #@! TD*
G04 #@! TO.N,/10L*
G04 #@! TO.C,U1*
G36*
X69195926Y-55024963D02*
X69584835Y-55413872D01*
X68453464Y-56545243D01*
X68064555Y-56156334D01*
X69195926Y-55024963D01*
X69195926Y-55024963D01*
G37*
D17*
G04 #@! TO.P,U1,25*
G04 #@! TO.N,/10R*
X70875305Y-55785103D03*
D11*
G04 #@! TD*
G04 #@! TO.N,/10R*
G04 #@! TO.C,U1*
G36*
X70115165Y-55413872D02*
X70504074Y-55024963D01*
X71635445Y-56156334D01*
X71246536Y-56545243D01*
X70115165Y-55413872D01*
X70115165Y-55413872D01*
G37*
D17*
G04 #@! TO.P,U1,26*
G04 #@! TO.N,/9R*
X71440990Y-55219417D03*
D11*
G04 #@! TD*
G04 #@! TO.N,/9R*
G04 #@! TO.C,U1*
G36*
X70680850Y-54848186D02*
X71069759Y-54459277D01*
X72201130Y-55590648D01*
X71812221Y-55979557D01*
X70680850Y-54848186D01*
X70680850Y-54848186D01*
G37*
D17*
G04 #@! TO.P,U1,27*
G04 #@! TO.N,/8R*
X72006676Y-54653732D03*
D11*
G04 #@! TD*
G04 #@! TO.N,/8R*
G04 #@! TO.C,U1*
G36*
X71246536Y-54282501D02*
X71635445Y-53893592D01*
X72766816Y-55024963D01*
X72377907Y-55413872D01*
X71246536Y-54282501D01*
X71246536Y-54282501D01*
G37*
D17*
G04 #@! TO.P,U1,28*
G04 #@! TO.N,/7R*
X72572361Y-54088047D03*
D11*
G04 #@! TD*
G04 #@! TO.N,/7R*
G04 #@! TO.C,U1*
G36*
X71812221Y-53716816D02*
X72201130Y-53327907D01*
X73332501Y-54459278D01*
X72943592Y-54848187D01*
X71812221Y-53716816D01*
X71812221Y-53716816D01*
G37*
D17*
G04 #@! TO.P,U1,29*
G04 #@! TO.N,/~RESET*
X73138047Y-53522361D03*
D11*
G04 #@! TD*
G04 #@! TO.N,/~RESET*
G04 #@! TO.C,U1*
G36*
X72377907Y-53151130D02*
X72766816Y-52762221D01*
X73898187Y-53893592D01*
X73509278Y-54282501D01*
X72377907Y-53151130D01*
X72377907Y-53151130D01*
G37*
D17*
G04 #@! TO.P,U1,30*
G04 #@! TO.N,/RxD*
X73703732Y-52956676D03*
D11*
G04 #@! TD*
G04 #@! TO.N,/RxD*
G04 #@! TO.C,U1*
G36*
X72943592Y-52585445D02*
X73332501Y-52196536D01*
X74463872Y-53327907D01*
X74074963Y-53716816D01*
X72943592Y-52585445D01*
X72943592Y-52585445D01*
G37*
D17*
G04 #@! TO.P,U1,31*
G04 #@! TO.N,/TxD*
X74269417Y-52390990D03*
D11*
G04 #@! TD*
G04 #@! TO.N,/TxD*
G04 #@! TO.C,U1*
G36*
X73509277Y-52019759D02*
X73898186Y-51630850D01*
X75029557Y-52762221D01*
X74640648Y-53151130D01*
X73509277Y-52019759D01*
X73509277Y-52019759D01*
G37*
D17*
G04 #@! TO.P,U1,32*
G04 #@! TO.N,/6R*
X74835103Y-51825305D03*
D11*
G04 #@! TD*
G04 #@! TO.N,/6R*
G04 #@! TO.C,U1*
G36*
X74074963Y-51454074D02*
X74463872Y-51065165D01*
X75595243Y-52196536D01*
X75206334Y-52585445D01*
X74074963Y-51454074D01*
X74074963Y-51454074D01*
G37*
D18*
G04 #@! TO.P,Y1,1*
G04 #@! TO.N,Net-(C2-Pad2)*
X74487940Y-44280000D03*
G04 #@! TO.P,Y1,2*
G04 #@! TO.N,GND*
X74487940Y-42080000D03*
G04 #@! TO.P,Y1,3*
G04 #@! TO.N,Net-(C3-Pad2)*
X72887940Y-42080000D03*
G04 #@! TO.P,Y1,4*
G04 #@! TO.N,GND*
X72887940Y-44280000D03*
G04 #@! TD*
D19*
G04 #@! TO.P,J1,1*
G04 #@! TO.N,VCC*
X63500000Y-60960000D03*
D20*
G04 #@! TO.P,J1,2*
G04 #@! TO.N,GND*
X63500000Y-63500000D03*
G04 #@! TO.P,J1,3*
G04 #@! TO.N,/1L*
X63500000Y-66040000D03*
G04 #@! TO.P,J1,4*
G04 #@! TO.N,/2L*
X63500000Y-68580000D03*
G04 #@! TO.P,J1,5*
G04 #@! TO.N,/3L*
X63500000Y-71120000D03*
G04 #@! TO.P,J1,6*
G04 #@! TO.N,/4L*
X63500000Y-73660000D03*
G04 #@! TO.P,J1,7*
G04 #@! TO.N,/5L*
X63500000Y-76200000D03*
G04 #@! TO.P,J1,8*
G04 #@! TO.N,/6L*
X63500000Y-78740000D03*
G04 #@! TO.P,J1,9*
G04 #@! TO.N,/7L*
X63500000Y-81280000D03*
G04 #@! TO.P,J1,10*
G04 #@! TO.N,/8L*
X63500000Y-83820000D03*
G04 #@! TO.P,J1,11*
G04 #@! TO.N,/9L*
X63500000Y-86360000D03*
G04 #@! TD*
G04 #@! TO.P,J2,11*
G04 #@! TO.N,GND*
X76200000Y-86360000D03*
G04 #@! TO.P,J2,10*
G04 #@! TO.N,/10L*
X76200000Y-83820000D03*
G04 #@! TO.P,J2,9*
G04 #@! TO.N,/10R*
X76200000Y-81280000D03*
G04 #@! TO.P,J2,8*
G04 #@! TO.N,/9R*
X76200000Y-78740000D03*
G04 #@! TO.P,J2,7*
G04 #@! TO.N,/8R*
X76200000Y-76200000D03*
G04 #@! TO.P,J2,6*
G04 #@! TO.N,/7R*
X76200000Y-73660000D03*
G04 #@! TO.P,J2,5*
G04 #@! TO.N,/6R*
X76200000Y-71120000D03*
G04 #@! TO.P,J2,4*
G04 #@! TO.N,/5R*
X76200000Y-68580000D03*
G04 #@! TO.P,J2,3*
G04 #@! TO.N,/4R*
X76200000Y-66040000D03*
G04 #@! TO.P,J2,2*
G04 #@! TO.N,GND*
X76200000Y-63500000D03*
D19*
G04 #@! TO.P,J2,1*
G04 #@! TO.N,VCC*
X76200000Y-60960000D03*
G04 #@! TD*
D21*
G04 #@! TO.P,R2,1*
G04 #@! TO.N,VCC*
X61022151Y-49655651D03*
D11*
G04 #@! TD*
G04 #@! TO.N,VCC*
G04 #@! TO.C,R2*
G36*
X61729258Y-49443519D02*
X60810019Y-50362758D01*
X60315044Y-49867783D01*
X61234283Y-48948544D01*
X61729258Y-49443519D01*
X61729258Y-49443519D01*
G37*
D21*
G04 #@! TO.P,R2,2*
G04 #@! TO.N,Net-(D1-Pad2)*
X59678649Y-48312149D03*
D11*
G04 #@! TD*
G04 #@! TO.N,Net-(D1-Pad2)*
G04 #@! TO.C,R2*
G36*
X60385756Y-48100017D02*
X59466517Y-49019256D01*
X58971542Y-48524281D01*
X59890781Y-47605042D01*
X60385756Y-48100017D01*
X60385756Y-48100017D01*
G37*
D10*
G04 #@! TO.P,D2,2*
G04 #@! TO.N,Net-(D2-Pad2)*
X59756617Y-44707117D03*
D11*
G04 #@! TD*
G04 #@! TO.N,Net-(D2-Pad2)*
G04 #@! TO.C,D2*
G36*
X60605145Y-44707117D02*
X59756617Y-45555645D01*
X58908089Y-44707117D01*
X59756617Y-43858589D01*
X60605145Y-44707117D01*
X60605145Y-44707117D01*
G37*
D10*
G04 #@! TO.P,D2,1*
G04 #@! TO.N,GND*
X58200983Y-43151483D03*
D11*
G04 #@! TD*
G04 #@! TO.N,GND*
G04 #@! TO.C,D2*
G36*
X59049511Y-43151483D02*
X58200983Y-44000011D01*
X57352455Y-43151483D01*
X58200983Y-42302955D01*
X59049511Y-43151483D01*
X59049511Y-43151483D01*
G37*
D10*
G04 #@! TO.P,D3,1*
G04 #@! TO.N,GND*
X59683766Y-41675166D03*
D11*
G04 #@! TD*
G04 #@! TO.N,GND*
G04 #@! TO.C,D3*
G36*
X60532294Y-41675166D02*
X59683766Y-42523694D01*
X58835238Y-41675166D01*
X59683766Y-40826638D01*
X60532294Y-41675166D01*
X60532294Y-41675166D01*
G37*
D10*
G04 #@! TO.P,D3,2*
G04 #@! TO.N,Net-(D3-Pad2)*
X61239400Y-43230800D03*
D11*
G04 #@! TD*
G04 #@! TO.N,Net-(D3-Pad2)*
G04 #@! TO.C,D3*
G36*
X62087928Y-43230800D02*
X61239400Y-44079328D01*
X60390872Y-43230800D01*
X61239400Y-42382272D01*
X62087928Y-43230800D01*
X62087928Y-43230800D01*
G37*
D21*
G04 #@! TO.P,R3,2*
G04 #@! TO.N,Net-(D2-Pad2)*
X61888449Y-46191249D03*
D11*
G04 #@! TD*
G04 #@! TO.N,Net-(D2-Pad2)*
G04 #@! TO.C,R3*
G36*
X62595556Y-45979117D02*
X61676317Y-46898356D01*
X61181342Y-46403381D01*
X62100581Y-45484142D01*
X62595556Y-45979117D01*
X62595556Y-45979117D01*
G37*
D21*
G04 #@! TO.P,R3,1*
G04 #@! TO.N,/2L*
X63231951Y-47534751D03*
D11*
G04 #@! TD*
G04 #@! TO.N,/2L*
G04 #@! TO.C,R3*
G36*
X63939058Y-47322619D02*
X63019819Y-48241858D01*
X62524844Y-47746883D01*
X63444083Y-46827644D01*
X63939058Y-47322619D01*
X63939058Y-47322619D01*
G37*
D21*
G04 #@! TO.P,R4,1*
G04 #@! TO.N,/1L*
X64273351Y-45832951D03*
D11*
G04 #@! TD*
G04 #@! TO.N,/1L*
G04 #@! TO.C,R4*
G36*
X64980458Y-45620819D02*
X64061219Y-46540058D01*
X63566244Y-46045083D01*
X64485483Y-45125844D01*
X64980458Y-45620819D01*
X64980458Y-45620819D01*
G37*
D21*
G04 #@! TO.P,R4,2*
G04 #@! TO.N,Net-(D3-Pad2)*
X62929849Y-44489449D03*
D11*
G04 #@! TD*
G04 #@! TO.N,Net-(D3-Pad2)*
G04 #@! TO.C,R4*
G36*
X63636956Y-44277317D02*
X62717717Y-45196556D01*
X62222742Y-44701581D01*
X63141981Y-43782342D01*
X63636956Y-44277317D01*
X63636956Y-44277317D01*
G37*
D19*
G04 #@! TO.P,J5,1*
G04 #@! TO.N,/MISO*
X62026800Y-37185600D03*
D20*
G04 #@! TO.P,J5,2*
G04 #@! TO.N,/SCK*
X62026800Y-34645600D03*
G04 #@! TO.P,J5,3*
G04 #@! TO.N,GND*
X59486800Y-37185600D03*
G04 #@! TO.P,J5,4*
G04 #@! TO.N,/MOSI*
X59486800Y-34645600D03*
G04 #@! TD*
D22*
G04 #@! TO.N,GND*
X75984100Y-40690800D03*
X71592440Y-44084240D03*
X76370180Y-47696120D03*
X72138540Y-49070260D03*
X68130420Y-53060600D03*
X56489600Y-43230800D03*
G04 #@! TO.N,VCC*
X64499838Y-53457762D03*
X62653296Y-55304304D03*
G04 #@! TO.N,/6R*
X75742800Y-52730400D03*
X74073947Y-54501641D03*
G04 #@! TO.N,/5R*
X76504801Y-52730401D03*
X74879200Y-54381400D03*
G04 #@! TO.N,/4R*
X77103223Y-52258663D03*
X75641200Y-54381400D03*
G04 #@! TO.N,/MISO*
X69920555Y-47739904D03*
X69044582Y-44312640D03*
G04 #@! TO.N,/MOSI*
X69342000Y-47244000D03*
X68511182Y-43474441D03*
G04 #@! TO.N,/~RESET*
X75439017Y-50460617D03*
X76832460Y-48961028D03*
G04 #@! TD*
D23*
G04 #@! TO.N,GND*
X74487940Y-42180000D02*
X74487940Y-42080000D01*
X72887940Y-43780000D02*
X74487940Y-42180000D01*
X72887940Y-44280000D02*
X72887940Y-43780000D01*
X74487940Y-40225320D02*
X74751440Y-39961820D01*
X74487940Y-42080000D02*
X74487940Y-40225320D01*
X76317780Y-42080000D02*
X76321920Y-42075860D01*
X74487940Y-42080000D02*
X76317780Y-42080000D01*
X75984100Y-40542080D02*
X75984100Y-40690800D01*
X74751440Y-39961820D02*
X75403840Y-39961820D01*
X75403840Y-39961820D02*
X75984100Y-40542080D01*
X76321920Y-41028620D02*
X75984100Y-40690800D01*
X76321920Y-42075860D02*
X76321920Y-41028620D01*
X72887940Y-44280000D02*
X71788200Y-44280000D01*
X71788200Y-44280000D02*
X71592440Y-44084240D01*
X76565000Y-46319440D02*
X76565000Y-47501300D01*
X76565000Y-47501300D02*
X76370180Y-47696120D01*
X71935966Y-48148348D02*
X72572361Y-47511953D01*
X71935966Y-48330234D02*
X71935966Y-48148348D01*
X73067337Y-49279719D02*
X72885451Y-49279719D01*
X73703732Y-48643324D02*
X73067337Y-49279719D01*
X72388972Y-48783240D02*
X72388972Y-48819828D01*
X72388972Y-48819828D02*
X72138540Y-49070260D01*
X72388972Y-48783240D02*
X71935966Y-48330234D01*
X72885451Y-49279719D02*
X72388972Y-48783240D01*
X67127639Y-54088047D02*
X67127639Y-54063381D01*
X67127639Y-54063381D02*
X68130420Y-53060600D01*
X59486800Y-41478200D02*
X59683766Y-41675166D01*
X59486800Y-37185600D02*
X59486800Y-41478200D01*
X58207449Y-43151483D02*
X58200983Y-43151483D01*
X59683766Y-41675166D02*
X58207449Y-43151483D01*
X56562683Y-44789783D02*
X56499183Y-44789783D01*
X58200983Y-43151483D02*
X56562683Y-44789783D01*
X56499183Y-44789783D02*
X56499183Y-43240383D01*
X56499183Y-43240383D02*
X56489600Y-43230800D01*
D24*
G04 #@! TO.N,VCC*
X67408424Y-51544520D02*
X71370281Y-47582663D01*
X71370281Y-47582663D02*
X72006676Y-46946268D01*
X66277053Y-51544520D02*
X67408424Y-51544520D01*
X65430583Y-52390990D02*
X66277053Y-51544520D01*
X74555433Y-46309873D02*
X74565000Y-46319440D01*
X72643071Y-46309873D02*
X74555433Y-46309873D01*
X72006676Y-46946268D02*
X72643071Y-46309873D01*
X74565000Y-46650686D02*
X73138047Y-48077639D01*
X74565000Y-46319440D02*
X74565000Y-46650686D01*
X74565000Y-46319440D02*
X74565000Y-46444440D01*
X79214740Y-40022740D02*
X78310740Y-40022740D01*
X76200000Y-60960000D02*
X76200000Y-57583514D01*
X76200000Y-57583514D02*
X85632521Y-48150993D01*
X79648081Y-40456081D02*
X79214740Y-40022740D01*
X85632521Y-48150993D02*
X85632521Y-41131721D01*
X84956881Y-40456081D02*
X79648081Y-40456081D01*
X85632521Y-41131721D02*
X84956881Y-40456081D01*
X81133719Y-41941719D02*
X79648081Y-40456081D01*
X81133719Y-43577279D02*
X81133719Y-41941719D01*
X82113120Y-44556680D02*
X81133719Y-43577279D01*
X74565000Y-46319440D02*
X74565000Y-47547008D01*
X74565000Y-47547008D02*
X75234998Y-48217006D01*
X77124572Y-49545228D02*
X76563220Y-49545228D01*
X82113120Y-44556680D02*
X77124572Y-49545228D01*
X75234998Y-48217006D02*
X76563220Y-49545228D01*
X72783913Y-26096999D02*
X78310740Y-31623826D01*
X69203150Y-26096999D02*
X72783913Y-26096999D01*
X78310740Y-31623826D02*
X78310740Y-39418740D01*
X68223749Y-27076400D02*
X69203150Y-26096999D01*
X78310740Y-39418740D02*
X78310740Y-40022740D01*
X67233800Y-27076400D02*
X68223749Y-27076400D01*
X65430583Y-52390990D02*
X65430583Y-52527017D01*
X65430583Y-52527017D02*
X64499838Y-53457762D01*
X62492504Y-55304304D02*
X62653296Y-55304304D01*
X62653296Y-60113296D02*
X63500000Y-60960000D01*
X62653296Y-55304304D02*
X62653296Y-60113296D01*
X60427176Y-49655651D02*
X61022151Y-49655651D01*
X55371245Y-45319131D02*
X59707765Y-49655651D01*
X65384486Y-27076400D02*
X55371245Y-37089641D01*
X59707765Y-49655651D02*
X60427176Y-49655651D01*
X55371245Y-37089641D02*
X55371245Y-45319131D01*
X67233800Y-27076400D02*
X65384486Y-27076400D01*
X61022151Y-53673159D02*
X62653296Y-55304304D01*
X61022151Y-49655651D02*
X61022151Y-53673159D01*
D23*
G04 #@! TO.N,Net-(C2-Pad2)*
X74487940Y-44380000D02*
X74487940Y-44280000D01*
X73123752Y-45744188D02*
X74487940Y-44380000D01*
X72077385Y-45744188D02*
X73123752Y-45744188D01*
X71440990Y-46380583D02*
X72077385Y-45744188D01*
X76117780Y-44280000D02*
X76321920Y-44075860D01*
X74487940Y-44280000D02*
X76117780Y-44280000D01*
G04 #@! TO.N,Net-(C3-Pad2)*
X72135540Y-42080000D02*
X72887940Y-42080000D01*
X70875305Y-43340235D02*
X72135540Y-42080000D01*
X70875305Y-45814897D02*
X70875305Y-43340235D01*
X72887940Y-40098320D02*
X72751440Y-39961820D01*
X72887940Y-42080000D02*
X72887940Y-40098320D01*
G04 #@! TO.N,/1L*
X66789300Y-62750700D02*
X63500000Y-66040000D01*
X66789300Y-58685966D02*
X66789300Y-62750700D01*
X68824695Y-45814897D02*
X68188300Y-45178502D01*
X64927800Y-45178502D02*
X64273351Y-45832951D01*
X68188300Y-45178502D02*
X64927800Y-45178502D01*
X64273351Y-45832951D02*
X63678376Y-45832951D01*
X62296234Y-54192900D02*
X62382400Y-54279066D01*
X62296234Y-47215093D02*
X62296234Y-54192900D01*
X63678376Y-45832951D02*
X62296234Y-47215093D01*
X62382400Y-54279066D02*
X66789300Y-58685966D01*
G04 #@! TO.N,/2L*
X67622615Y-45744188D02*
X65716464Y-45744188D01*
X68259010Y-46380583D02*
X67622615Y-45744188D01*
X63500000Y-68580000D02*
X67106790Y-64973210D01*
X67106790Y-64973210D02*
X67106790Y-58572390D01*
X63925901Y-47534751D02*
X63231951Y-47534751D01*
X65716464Y-45744188D02*
X63925901Y-47534751D01*
X62656907Y-48704770D02*
X62656907Y-54122507D01*
X62656907Y-54122507D02*
X62687200Y-54152800D01*
X63231951Y-48129726D02*
X62656907Y-48704770D01*
X63231951Y-47534751D02*
X63231951Y-48129726D01*
X67106790Y-58572390D02*
X62687200Y-54152800D01*
G04 #@! TO.N,/3L*
X67056929Y-46309873D02*
X67693324Y-46946268D01*
X67411600Y-67208400D02*
X67411600Y-58419266D01*
X63500000Y-71120000D02*
X67411600Y-67208400D01*
X67411600Y-58419266D02*
X62961717Y-53969383D01*
X62961717Y-53969383D02*
X62961717Y-48930001D01*
X62961717Y-48930001D02*
X65581845Y-46309873D01*
X65581845Y-46309873D02*
X67056929Y-46309873D01*
G04 #@! TO.N,/4L*
X66491244Y-46875558D02*
X65447226Y-46875558D01*
X67127639Y-47511953D02*
X66491244Y-46875558D01*
X67741790Y-58318390D02*
X67741790Y-66878210D01*
X65447226Y-46875558D02*
X63266527Y-49056257D01*
X63266527Y-49056257D02*
X63266527Y-53843127D01*
X63266527Y-53843127D02*
X67741790Y-58318390D01*
X67716410Y-69443590D02*
X67716410Y-66903590D01*
X67716410Y-66903590D02*
X67741790Y-66878210D01*
X63500000Y-73660000D02*
X67716410Y-69443590D01*
G04 #@! TO.N,/5L*
X65925558Y-47441244D02*
X66561953Y-48077639D01*
X68046600Y-71653400D02*
X68046600Y-58189932D01*
X65312606Y-47441244D02*
X65925558Y-47441244D01*
X63500000Y-76200000D02*
X68046600Y-71653400D01*
X68046600Y-58189932D02*
X63571337Y-53714669D01*
X63571337Y-53714669D02*
X63571337Y-49182513D01*
X63571337Y-49182513D02*
X65312606Y-47441244D01*
G04 #@! TO.N,/6L*
X65359873Y-48006929D02*
X65996268Y-48643324D01*
X68364080Y-73875920D02*
X68364080Y-58076346D01*
X63876147Y-53588413D02*
X63876147Y-49308769D01*
X63500000Y-78740000D02*
X68364080Y-73875920D01*
X68364080Y-58076346D02*
X63876147Y-53588413D01*
X65177987Y-48006929D02*
X65359873Y-48006929D01*
X63876147Y-49308769D02*
X65177987Y-48006929D01*
G04 #@! TO.N,/7L*
X65359873Y-53593071D02*
X65996268Y-52956676D01*
X65359873Y-54641073D02*
X65359873Y-53593071D01*
X68668890Y-57950090D02*
X65359873Y-54641073D01*
X63500000Y-81280000D02*
X68668890Y-76111110D01*
X68668890Y-76111110D02*
X68668890Y-57950090D01*
G04 #@! TO.N,/8L*
X67056929Y-55290127D02*
X67693324Y-54653732D01*
X67056929Y-55906329D02*
X67056929Y-55290127D01*
X68973700Y-57823100D02*
X67056929Y-55906329D01*
X63500000Y-83820000D02*
X68973700Y-78346300D01*
X68973700Y-78346300D02*
X68973700Y-57823100D01*
G04 #@! TO.N,/9L*
X67622615Y-56037699D02*
X69303890Y-57718974D01*
X69303890Y-80556110D02*
X63500000Y-86360000D01*
X69303890Y-57718974D02*
X69303890Y-80556110D01*
X68259010Y-55219417D02*
X67622615Y-55855812D01*
X67622615Y-55855812D02*
X67622615Y-56037699D01*
G04 #@! TO.N,/10L*
X68824695Y-55785103D02*
X69608700Y-56569108D01*
X69616320Y-77236320D02*
X69608700Y-77236320D01*
X76200000Y-83820000D02*
X69616320Y-77236320D01*
X69608700Y-56569108D02*
X69608700Y-77236320D01*
G04 #@! TO.N,/10R*
X70116700Y-56543708D02*
X70875305Y-55785103D01*
X69913510Y-74993510D02*
X69913510Y-56746898D01*
X69913510Y-56746898D02*
X70116700Y-56543708D01*
X76200000Y-81280000D02*
X69913510Y-74993510D01*
G04 #@! TO.N,/9R*
X72077385Y-56050375D02*
X72077385Y-55855812D01*
X70218320Y-57909440D02*
X72077385Y-56050375D01*
X72077385Y-55855812D02*
X71440990Y-55219417D01*
X70218320Y-72758320D02*
X70218320Y-57909440D01*
X76200000Y-78740000D02*
X70218320Y-72758320D01*
G04 #@! TO.N,/8R*
X72643071Y-55290127D02*
X72006676Y-54653732D01*
X72643071Y-55915755D02*
X72643071Y-55290127D01*
X70523130Y-58035696D02*
X72643071Y-55915755D01*
X70523130Y-70523130D02*
X70523130Y-58035696D01*
X76200000Y-76200000D02*
X70523130Y-70523130D01*
G04 #@! TO.N,/6R*
X74835103Y-51825305D02*
X74837705Y-51825305D01*
X74837705Y-51825305D02*
X75742800Y-52730400D01*
G04 #@! TO.N,/7R*
X73208756Y-54724442D02*
X72572361Y-54088047D01*
X73208756Y-55781136D02*
X73208756Y-54724442D01*
X70827940Y-58161952D02*
X73208756Y-55781136D01*
X70827940Y-68287940D02*
X70827940Y-58161952D01*
X76200000Y-73660000D02*
X70827940Y-68287940D01*
G04 #@! TO.N,/6R*
X76200000Y-71120000D02*
X71132750Y-66052750D01*
X71132750Y-66052750D02*
X71132750Y-58724800D01*
X71132750Y-58724800D02*
X71132750Y-58288208D01*
X71132750Y-58288208D02*
X74073947Y-55347011D01*
X74073947Y-55347011D02*
X74073947Y-54501641D01*
G04 #@! TO.N,/5R*
X76504801Y-52730401D02*
X76504801Y-50772059D01*
X75507437Y-49774695D02*
X74835103Y-49774695D01*
X76504801Y-50772059D02*
X75507437Y-49774695D01*
X74574401Y-54686199D02*
X74879200Y-54381400D01*
X71437560Y-58414464D02*
X74574401Y-55277623D01*
X74574401Y-55277623D02*
X74574401Y-54686199D01*
X76200000Y-68580000D02*
X71437560Y-63817560D01*
X71437560Y-63817560D02*
X71437560Y-58414464D01*
G04 #@! TO.N,/4R*
X77103223Y-50588139D02*
X77103223Y-52258663D01*
X75087699Y-48572615D02*
X77103223Y-50588139D01*
X74269417Y-49209010D02*
X74905812Y-48572615D01*
X74905812Y-48572615D02*
X75087699Y-48572615D01*
X75336401Y-54686199D02*
X75641200Y-54381400D01*
X75336401Y-54946689D02*
X75336401Y-54686199D01*
X71742370Y-58540720D02*
X75336401Y-54946689D01*
X76200000Y-66040000D02*
X71742370Y-61582370D01*
X71742370Y-61582370D02*
X71742370Y-58540720D01*
G04 #@! TO.N,/TxD*
X82813119Y-42716679D02*
X82113120Y-42016680D01*
X83041721Y-47074507D02*
X83041721Y-42945281D01*
X76852427Y-53263801D02*
X83041721Y-47074507D01*
X75142228Y-53263801D02*
X76852427Y-53263801D01*
X83041721Y-42945281D02*
X82813119Y-42716679D01*
X74269417Y-52390990D02*
X75142228Y-53263801D01*
G04 #@! TO.N,/RxD*
X83953121Y-42716679D02*
X84653120Y-42016680D01*
X83550760Y-47469986D02*
X83550760Y-43119040D01*
X83550760Y-43119040D02*
X83953121Y-42716679D01*
X77172746Y-53848000D02*
X83550760Y-47469986D01*
X74595056Y-53848000D02*
X77172746Y-53848000D01*
X73703732Y-52956676D02*
X74595056Y-53848000D01*
G04 #@! TO.N,/MISO*
X67249369Y-50411090D02*
X69920555Y-47739904D01*
X64864897Y-49774695D02*
X65501292Y-50411090D01*
X65501292Y-50411090D02*
X67249369Y-50411090D01*
X68086200Y-29616400D02*
X67233800Y-29616400D01*
X69044582Y-30574782D02*
X68086200Y-29616400D01*
X69044582Y-44312640D02*
X69044582Y-30574782D01*
X62026800Y-38188000D02*
X62026800Y-37185600D01*
X68151440Y-44312640D02*
X62026800Y-38188000D01*
X69044582Y-44312640D02*
X68151440Y-44312640D01*
G04 #@! TO.N,/SCK*
X70453956Y-46921334D02*
X69813445Y-46280823D01*
X70453956Y-47995937D02*
X70453956Y-46921334D01*
X67260983Y-51188910D02*
X70453956Y-47995937D01*
X65501292Y-51188910D02*
X67260983Y-51188910D01*
X64864897Y-51825305D02*
X65501292Y-51188910D01*
X69813445Y-46280823D02*
X69813445Y-46091433D01*
X69813445Y-30645994D02*
X69813445Y-46091433D01*
X69773800Y-30606349D02*
X69813445Y-30645994D01*
X69773800Y-29616400D02*
X69773800Y-30606349D01*
X68339462Y-44617450D02*
X69813445Y-46091433D01*
X67347168Y-44617450D02*
X68339462Y-44617450D01*
X60948199Y-38218481D02*
X67347168Y-44617450D01*
X60948199Y-35724201D02*
X62026800Y-34645600D01*
X60948199Y-38218481D02*
X60948199Y-35724201D01*
G04 #@! TO.N,/MOSI*
X66740595Y-49845405D02*
X69342000Y-47244000D01*
X65430583Y-49209010D02*
X66066978Y-49845405D01*
X66066978Y-49845405D02*
X66740595Y-49845405D01*
X69073801Y-27776399D02*
X69773800Y-27076400D01*
X68845199Y-28005001D02*
X69073801Y-27776399D01*
X66305199Y-28733519D02*
X67033717Y-28005001D01*
X67033717Y-28005001D02*
X68845199Y-28005001D01*
X66305199Y-28733519D02*
X66303698Y-28733519D01*
X68511182Y-43043389D02*
X66305199Y-40837406D01*
X68511182Y-43474441D02*
X68511182Y-43043389D01*
X66305199Y-31087060D02*
X66305199Y-28733519D01*
X66305199Y-40837406D02*
X66305199Y-38481000D01*
X66305199Y-38481000D02*
X66305199Y-31087060D01*
X66305199Y-37327669D02*
X66305199Y-37896800D01*
X60565401Y-33566999D02*
X62544529Y-33566999D01*
X62544529Y-33566999D02*
X66305199Y-37327669D01*
X59486800Y-34645600D02*
X60565401Y-33566999D01*
X66305199Y-37896800D02*
X66305199Y-38481000D01*
G04 #@! TO.N,/~RESET*
X72313799Y-30606349D02*
X72313799Y-29616400D01*
X72313799Y-35423399D02*
X72313799Y-30606349D01*
X78310740Y-41420340D02*
X72313799Y-35423399D01*
X78310740Y-41922740D02*
X78310740Y-41420340D01*
X75063079Y-50836555D02*
X75439017Y-50460617D01*
X72501652Y-52885966D02*
X72501652Y-52704080D01*
X72501652Y-52704080D02*
X74369177Y-50836555D01*
X73138047Y-53522361D02*
X72501652Y-52885966D01*
X74369177Y-50836555D02*
X75063079Y-50836555D01*
X78310740Y-47482748D02*
X78310740Y-47264320D01*
X78310740Y-41922740D02*
X78310740Y-47264320D01*
X76832460Y-48961028D02*
X78310740Y-47482748D01*
X78310740Y-47264320D02*
X78310740Y-47376080D01*
G04 #@! TO.N,Net-(D1-Pad2)*
X58054817Y-46688317D02*
X58054817Y-46345417D01*
X59678649Y-48312149D02*
X58054817Y-46688317D01*
G04 #@! TO.N,Net-(D2-Pad2)*
X60404317Y-44707117D02*
X59756617Y-44707117D01*
X61888449Y-46191249D02*
X60404317Y-44707117D01*
G04 #@! TO.N,Net-(D3-Pad2)*
X61671200Y-43230800D02*
X61239400Y-43230800D01*
X62929849Y-44489449D02*
X61671200Y-43230800D01*
G04 #@! TD*
M02*
