M48
INCH,TZ
T1C0.0120
T2C0.0394
T3C0.0400
%
G90
G05
T1
X26823Y-20890
X26860Y-17420
X27183Y-17446
X27300Y-18600
X27528Y-18795
X28186Y-17356
X28401Y-19319
X29163Y-21457
X29480Y-21410
X29700Y-19866
X29780Y-21410
X29820Y-20760
X29915Y-16020
X30067Y-18778
X30120Y-20760
X30223Y-19260
X30356Y-20574
T2
X30000Y-24000
X30000Y-25000
X30000Y-26000
X30000Y-27000
X30000Y-28000
X30000Y-29000
X30000Y-30000
X30000Y-31000
X30000Y-32000
X30000Y-33000
X30000Y-34000
X25000Y-24000
X25000Y-25000
X25000Y-26000
X25000Y-27000
X25000Y-28000
X25000Y-29000
X25000Y-30000
X25000Y-31000
X25000Y-32000
X25000Y-33000
X25000Y-34000
X24332Y-16449
X25039Y-15742
X25039Y-17156
X25746Y-16449
T3
X31113Y-19573
X31820Y-18866
X31820Y-20280
X32527Y-18159
X32527Y-19573
X33234Y-18866
X26113Y-14653
X26820Y-13946
X26820Y-15360
X27527Y-13239
X27527Y-14653
X28234Y-13946
T0
M30
