G04 #@! TF.GenerationSoftware,KiCad,Pcbnew,5.0.2-bee76a0~70~ubuntu18.04.1*
G04 #@! TF.CreationDate,2019-11-24T20:15:07-05:00*
G04 #@! TF.ProjectId,328_Hacker,3332385f-4861-4636-9b65-722e6b696361,rev?*
G04 #@! TF.SameCoordinates,Original*
G04 #@! TF.FileFunction,Legend,Top*
G04 #@! TF.FilePolarity,Positive*
%FSLAX46Y46*%
G04 Gerber Fmt 4.6, Leading zero omitted, Abs format (unit mm)*
G04 Created by KiCad (PCBNEW 5.0.2-bee76a0~70~ubuntu18.04.1) date Sun 24 Nov 2019 08:15:07 PM EST*
%MOMM*%
%LPD*%
G01*
G04 APERTURE LIST*
%ADD10C,0.203200*%
%ADD11C,0.152400*%
%ADD12C,0.300000*%
%ADD13C,0.254000*%
%ADD14C,0.150000*%
%ADD15C,0.120000*%
%ADD16C,0.100000*%
%ADD17C,0.127000*%
G04 APERTURE END LIST*
D10*
X78502219Y-45593988D02*
X79229192Y-46320961D01*
X79357481Y-46363724D01*
X79443008Y-46363724D01*
X79571297Y-46320961D01*
X79742350Y-46149909D01*
X79785113Y-46021619D01*
X79785113Y-45936093D01*
X79742350Y-45807804D01*
X79015376Y-45080831D01*
X80041691Y-45337409D02*
X80469323Y-44909778D01*
X80212744Y-45679514D02*
X79614060Y-44482147D01*
X80811428Y-45080831D01*
X81623927Y-44268331D02*
X80896954Y-44140042D01*
X81110769Y-44781489D02*
X80212744Y-43883463D01*
X80554849Y-43541358D01*
X80683138Y-43498595D01*
X80768664Y-43498595D01*
X80896954Y-43541358D01*
X81025243Y-43669648D01*
X81068006Y-43797937D01*
X81068006Y-43883463D01*
X81025243Y-44011753D01*
X80683138Y-44353858D01*
X80982480Y-43113727D02*
X81495638Y-42600570D01*
X82137084Y-43755174D02*
X81239059Y-42857148D01*
D11*
X63179366Y-49713232D02*
X62460946Y-48994812D01*
X62734630Y-48721128D01*
X62837261Y-48686917D01*
X62905682Y-48686917D01*
X63008314Y-48721128D01*
X63110945Y-48823759D01*
X63145156Y-48926391D01*
X63145156Y-48994812D01*
X63110945Y-49097443D01*
X62837261Y-49371127D01*
X63897787Y-48994812D02*
X63179366Y-48276391D01*
X63350419Y-48105339D01*
X63487261Y-48036918D01*
X63624103Y-48036918D01*
X63726734Y-48071128D01*
X63897787Y-48173760D01*
X64000418Y-48276391D01*
X64103050Y-48447444D01*
X64137260Y-48550075D01*
X64137260Y-48686917D01*
X64068839Y-48823759D01*
X63897787Y-48994812D01*
X63829366Y-47626392D02*
X64308313Y-47147445D01*
X64718839Y-48173760D01*
X60939086Y-52197352D02*
X60220666Y-51478932D01*
X60494350Y-51205248D01*
X60596981Y-51171037D01*
X60665402Y-51171037D01*
X60768034Y-51205248D01*
X60870665Y-51307879D01*
X60904876Y-51410511D01*
X60904876Y-51478932D01*
X60870665Y-51581563D01*
X60596981Y-51855247D01*
X61657507Y-51478932D02*
X60939086Y-50760511D01*
X61110139Y-50589459D01*
X61246981Y-50521038D01*
X61383823Y-50521038D01*
X61486454Y-50555248D01*
X61657507Y-50657880D01*
X61760138Y-50760511D01*
X61862770Y-50931564D01*
X61896980Y-51034195D01*
X61896980Y-51171037D01*
X61828559Y-51307879D01*
X61657507Y-51478932D01*
X61965401Y-49734196D02*
X61828559Y-49871038D01*
X61794349Y-49973670D01*
X61794349Y-50042091D01*
X61828559Y-50213143D01*
X61931191Y-50384196D01*
X62204875Y-50657880D01*
X62307506Y-50692090D01*
X62375927Y-50692090D01*
X62478559Y-50657880D01*
X62615401Y-50521038D01*
X62649611Y-50418406D01*
X62649611Y-50349985D01*
X62615401Y-50247354D01*
X62444348Y-50076301D01*
X62341717Y-50042091D01*
X62273296Y-50042091D01*
X62170664Y-50076301D01*
X62033822Y-50213143D01*
X61999612Y-50315775D01*
X61999612Y-50384196D01*
X62033822Y-50486827D01*
D12*
X63528571Y-57395371D02*
X64457142Y-57395371D01*
X63957142Y-57966800D01*
X64171428Y-57966800D01*
X64314285Y-58038228D01*
X64385714Y-58109657D01*
X64457142Y-58252514D01*
X64457142Y-58609657D01*
X64385714Y-58752514D01*
X64314285Y-58823942D01*
X64171428Y-58895371D01*
X63742857Y-58895371D01*
X63600000Y-58823942D01*
X63528571Y-58752514D01*
X65028571Y-57538228D02*
X65100000Y-57466800D01*
X65242857Y-57395371D01*
X65600000Y-57395371D01*
X65742857Y-57466800D01*
X65814285Y-57538228D01*
X65885714Y-57681085D01*
X65885714Y-57823942D01*
X65814285Y-58038228D01*
X64957142Y-58895371D01*
X65885714Y-58895371D01*
X66742857Y-58038228D02*
X66600000Y-57966800D01*
X66528571Y-57895371D01*
X66457142Y-57752514D01*
X66457142Y-57681085D01*
X66528571Y-57538228D01*
X66600000Y-57466800D01*
X66742857Y-57395371D01*
X67028571Y-57395371D01*
X67171428Y-57466800D01*
X67242857Y-57538228D01*
X67314285Y-57681085D01*
X67314285Y-57752514D01*
X67242857Y-57895371D01*
X67171428Y-57966800D01*
X67028571Y-58038228D01*
X66742857Y-58038228D01*
X66600000Y-58109657D01*
X66528571Y-58181085D01*
X66457142Y-58323942D01*
X66457142Y-58609657D01*
X66528571Y-58752514D01*
X66600000Y-58823942D01*
X66742857Y-58895371D01*
X67028571Y-58895371D01*
X67171428Y-58823942D01*
X67242857Y-58752514D01*
X67314285Y-58609657D01*
X67314285Y-58323942D01*
X67242857Y-58181085D01*
X67171428Y-58109657D01*
X67028571Y-58038228D01*
X69100000Y-58895371D02*
X69100000Y-57395371D01*
X69100000Y-58109657D02*
X69957142Y-58109657D01*
X69957142Y-58895371D02*
X69957142Y-57395371D01*
X71314285Y-58895371D02*
X71314285Y-58109657D01*
X71242857Y-57966800D01*
X71100000Y-57895371D01*
X70814285Y-57895371D01*
X70671428Y-57966800D01*
X71314285Y-58823942D02*
X71171428Y-58895371D01*
X70814285Y-58895371D01*
X70671428Y-58823942D01*
X70600000Y-58681085D01*
X70600000Y-58538228D01*
X70671428Y-58395371D01*
X70814285Y-58323942D01*
X71171428Y-58323942D01*
X71314285Y-58252514D01*
X72671428Y-58823942D02*
X72528571Y-58895371D01*
X72242857Y-58895371D01*
X72100000Y-58823942D01*
X72028571Y-58752514D01*
X71957142Y-58609657D01*
X71957142Y-58181085D01*
X72028571Y-58038228D01*
X72100000Y-57966800D01*
X72242857Y-57895371D01*
X72528571Y-57895371D01*
X72671428Y-57966800D01*
X73314285Y-58895371D02*
X73314285Y-57395371D01*
X73457142Y-58323942D02*
X73885714Y-58895371D01*
X73885714Y-57895371D02*
X73314285Y-58466800D01*
X75100000Y-58823942D02*
X74957142Y-58895371D01*
X74671428Y-58895371D01*
X74528571Y-58823942D01*
X74457142Y-58681085D01*
X74457142Y-58109657D01*
X74528571Y-57966800D01*
X74671428Y-57895371D01*
X74957142Y-57895371D01*
X75100000Y-57966800D01*
X75171428Y-58109657D01*
X75171428Y-58252514D01*
X74457142Y-58395371D01*
X75814285Y-58895371D02*
X75814285Y-57895371D01*
X75814285Y-58181085D02*
X75885714Y-58038228D01*
X75957142Y-57966800D01*
X76100000Y-57895371D01*
X76242857Y-57895371D01*
D11*
X59080756Y-53048888D02*
X58738651Y-53390993D01*
X59046545Y-53767308D01*
X59046545Y-53698887D01*
X59080756Y-53596256D01*
X59251808Y-53425203D01*
X59354440Y-53390993D01*
X59422861Y-53390993D01*
X59525492Y-53425203D01*
X59696545Y-53596256D01*
X59730755Y-53698887D01*
X59730755Y-53767308D01*
X59696545Y-53869940D01*
X59525492Y-54040992D01*
X59422861Y-54075203D01*
X59354440Y-54075203D01*
X59320229Y-52809414D02*
X60278123Y-53288361D01*
X59799176Y-52330467D01*
D10*
X66001663Y-45501714D02*
X66138505Y-45433293D01*
X66309558Y-45262241D01*
X66343768Y-45159609D01*
X66343768Y-45091188D01*
X66309558Y-44988557D01*
X66241137Y-44920136D01*
X66138505Y-44885925D01*
X66070084Y-44885925D01*
X65967453Y-44920136D01*
X65796400Y-45022767D01*
X65693769Y-45056978D01*
X65625348Y-45056978D01*
X65522716Y-45022767D01*
X65454295Y-44954346D01*
X65420085Y-44851715D01*
X65420085Y-44783294D01*
X65454295Y-44680662D01*
X65625348Y-44509610D01*
X65762190Y-44441189D01*
X66754294Y-44817504D02*
X66035874Y-44099084D01*
X66309558Y-43825400D01*
X66412189Y-43791190D01*
X66480610Y-43791190D01*
X66583241Y-43825400D01*
X66685873Y-43928032D01*
X66720083Y-44030663D01*
X66720083Y-44099084D01*
X66685873Y-44201716D01*
X66412189Y-44475400D01*
X67472714Y-44099084D02*
X66754294Y-43380664D01*
D11*
X69207160Y-41711919D02*
X68668344Y-41173104D01*
X68873607Y-40967841D01*
X68950581Y-40942183D01*
X69001897Y-40942183D01*
X69078870Y-40967841D01*
X69155844Y-41044814D01*
X69181502Y-41121788D01*
X69181502Y-41173104D01*
X69155844Y-41250077D01*
X68950581Y-41455340D01*
X69745975Y-41173104D02*
X69386765Y-40813893D01*
X69489396Y-40916525D02*
X69463738Y-40839551D01*
X69463738Y-40788235D01*
X69489396Y-40711262D01*
X69540712Y-40659946D01*
X70156501Y-40762578D02*
X70079527Y-40788235D01*
X70028212Y-40788235D01*
X69951238Y-40762578D01*
X69797291Y-40608630D01*
X69771633Y-40531657D01*
X69771633Y-40480341D01*
X69797291Y-40403367D01*
X69874264Y-40326394D01*
X69951238Y-40300736D01*
X70002554Y-40300736D01*
X70079527Y-40326394D01*
X70233475Y-40480341D01*
X70259133Y-40557315D01*
X70259133Y-40608630D01*
X70233475Y-40685604D01*
X70156501Y-40762578D01*
X70438738Y-39761920D02*
X70874922Y-40198104D01*
X70900579Y-40275078D01*
X70900579Y-40326394D01*
X70874922Y-40403367D01*
X70797948Y-40480341D01*
X70720974Y-40505999D01*
X70772290Y-40095473D02*
X70746632Y-40172446D01*
X70644001Y-40275078D01*
X70567027Y-40300736D01*
X70515711Y-40300736D01*
X70438738Y-40275078D01*
X70284790Y-40121131D01*
X70259133Y-40044157D01*
X70259133Y-39992841D01*
X70284790Y-39915868D01*
X70387422Y-39813236D01*
X70464396Y-39787578D01*
X71054527Y-39864552D02*
X70695316Y-39505342D01*
X70797948Y-39607973D02*
X70772290Y-39531000D01*
X70772290Y-39479684D01*
X70797948Y-39402710D01*
X70849264Y-39351394D01*
X71619000Y-39300079D02*
X71336763Y-39017842D01*
X71259790Y-38992184D01*
X71182816Y-39017842D01*
X71080185Y-39120474D01*
X71054527Y-39197447D01*
X71593342Y-39274421D02*
X71567684Y-39351394D01*
X71439395Y-39479684D01*
X71362421Y-39505342D01*
X71285448Y-39479684D01*
X71234132Y-39428368D01*
X71208474Y-39351394D01*
X71234132Y-39274421D01*
X71362421Y-39146131D01*
X71388079Y-39069158D01*
X71875579Y-39043500D02*
X71516368Y-38684290D01*
X71567684Y-38735605D02*
X71567684Y-38684290D01*
X71593342Y-38607316D01*
X71670316Y-38530342D01*
X71747289Y-38504685D01*
X71824263Y-38530342D01*
X72106500Y-38812579D01*
X71824263Y-38530342D02*
X71798605Y-38453369D01*
X71824263Y-38376395D01*
X71901237Y-38299422D01*
X71978210Y-38273764D01*
X72055184Y-38299422D01*
X72337420Y-38581658D01*
X72593999Y-38325079D02*
X72234789Y-37965869D01*
X72286105Y-38017185D02*
X72286105Y-37965869D01*
X72311763Y-37888896D01*
X72388736Y-37811922D01*
X72465710Y-37786264D01*
X72542683Y-37811922D01*
X72824920Y-38094159D01*
X72542683Y-37811922D02*
X72517026Y-37734948D01*
X72542683Y-37657975D01*
X72619657Y-37581001D01*
X72696631Y-37555343D01*
X72773604Y-37581001D01*
X73055841Y-37863238D01*
X73312420Y-37606659D02*
X72953209Y-37247449D01*
X72773604Y-37067844D02*
X72773604Y-37119159D01*
X72824920Y-37119159D01*
X72824920Y-37067844D01*
X72773604Y-37067844D01*
X72824920Y-37119159D01*
X73209788Y-36990870D02*
X73568998Y-37350080D01*
X73261104Y-37042186D02*
X73261104Y-36990870D01*
X73286762Y-36913896D01*
X73363735Y-36836923D01*
X73440709Y-36811265D01*
X73517683Y-36836923D01*
X73799919Y-37119159D01*
X73928209Y-36272449D02*
X74364393Y-36708633D01*
X74390050Y-36785607D01*
X74390050Y-36836923D01*
X74364393Y-36913896D01*
X74287419Y-36990870D01*
X74210445Y-37016528D01*
X74261761Y-36606002D02*
X74236103Y-36682975D01*
X74133472Y-36785607D01*
X74056498Y-36811265D01*
X74005182Y-36811265D01*
X73928209Y-36785607D01*
X73774261Y-36631660D01*
X73748604Y-36554686D01*
X73748604Y-36503370D01*
X73774261Y-36426397D01*
X73876893Y-36323765D01*
X73953867Y-36298107D01*
D13*
X70817619Y-66614523D02*
X70817619Y-65344523D01*
X71301428Y-65344523D01*
X71422380Y-65405000D01*
X71482857Y-65465476D01*
X71543333Y-65586428D01*
X71543333Y-65767857D01*
X71482857Y-65888809D01*
X71422380Y-65949285D01*
X71301428Y-66009761D01*
X70817619Y-66009761D01*
X72087619Y-66614523D02*
X72087619Y-65344523D01*
X72390000Y-65344523D01*
X72571428Y-65405000D01*
X72692380Y-65525952D01*
X72752857Y-65646904D01*
X72813333Y-65888809D01*
X72813333Y-66070238D01*
X72752857Y-66312142D01*
X72692380Y-66433095D01*
X72571428Y-66554047D01*
X72390000Y-66614523D01*
X72087619Y-66614523D01*
X73901904Y-65767857D02*
X73901904Y-66614523D01*
X73599523Y-65284047D02*
X73297142Y-66191190D01*
X74083333Y-66191190D01*
X70817619Y-79314523D02*
X70817619Y-78044523D01*
X71301428Y-78044523D01*
X71422380Y-78105000D01*
X71482857Y-78165476D01*
X71543333Y-78286428D01*
X71543333Y-78467857D01*
X71482857Y-78588809D01*
X71422380Y-78649285D01*
X71301428Y-78709761D01*
X70817619Y-78709761D01*
X72813333Y-79193571D02*
X72752857Y-79254047D01*
X72571428Y-79314523D01*
X72450476Y-79314523D01*
X72269047Y-79254047D01*
X72148095Y-79133095D01*
X72087619Y-79012142D01*
X72027142Y-78770238D01*
X72027142Y-78588809D01*
X72087619Y-78346904D01*
X72148095Y-78225952D01*
X72269047Y-78105000D01*
X72450476Y-78044523D01*
X72571428Y-78044523D01*
X72752857Y-78105000D01*
X72813333Y-78165476D01*
X73236666Y-78044523D02*
X74022857Y-78044523D01*
X73599523Y-78528333D01*
X73780952Y-78528333D01*
X73901904Y-78588809D01*
X73962380Y-78649285D01*
X74022857Y-78770238D01*
X74022857Y-79072619D01*
X73962380Y-79193571D01*
X73901904Y-79254047D01*
X73780952Y-79314523D01*
X73418095Y-79314523D01*
X73297142Y-79254047D01*
X73236666Y-79193571D01*
X70817619Y-84394523D02*
X70817619Y-83124523D01*
X71301428Y-83124523D01*
X71422380Y-83185000D01*
X71482857Y-83245476D01*
X71543333Y-83366428D01*
X71543333Y-83547857D01*
X71482857Y-83668809D01*
X71422380Y-83729285D01*
X71301428Y-83789761D01*
X70817619Y-83789761D01*
X72813333Y-84273571D02*
X72752857Y-84334047D01*
X72571428Y-84394523D01*
X72450476Y-84394523D01*
X72269047Y-84334047D01*
X72148095Y-84213095D01*
X72087619Y-84092142D01*
X72027142Y-83850238D01*
X72027142Y-83668809D01*
X72087619Y-83426904D01*
X72148095Y-83305952D01*
X72269047Y-83185000D01*
X72450476Y-83124523D01*
X72571428Y-83124523D01*
X72752857Y-83185000D01*
X72813333Y-83245476D01*
X74022857Y-84394523D02*
X73297142Y-84394523D01*
X73660000Y-84394523D02*
X73660000Y-83124523D01*
X73539047Y-83305952D01*
X73418095Y-83426904D01*
X73297142Y-83487380D01*
X70878095Y-74174047D02*
X71059523Y-74234523D01*
X71361904Y-74234523D01*
X71482857Y-74174047D01*
X71543333Y-74113571D01*
X71603809Y-73992619D01*
X71603809Y-73871666D01*
X71543333Y-73750714D01*
X71482857Y-73690238D01*
X71361904Y-73629761D01*
X71120000Y-73569285D01*
X70999047Y-73508809D01*
X70938571Y-73448333D01*
X70878095Y-73327380D01*
X70878095Y-73206428D01*
X70938571Y-73085476D01*
X70999047Y-73025000D01*
X71120000Y-72964523D01*
X71422380Y-72964523D01*
X71603809Y-73025000D01*
X72148095Y-74234523D02*
X72148095Y-72964523D01*
X72450476Y-72964523D01*
X72631904Y-73025000D01*
X72752857Y-73145952D01*
X72813333Y-73266904D01*
X72873809Y-73508809D01*
X72873809Y-73690238D01*
X72813333Y-73932142D01*
X72752857Y-74053095D01*
X72631904Y-74174047D01*
X72450476Y-74234523D01*
X72148095Y-74234523D01*
X74022857Y-74234523D02*
X73418095Y-74234523D01*
X73418095Y-72964523D01*
X70817619Y-81854523D02*
X70817619Y-80584523D01*
X71301428Y-80584523D01*
X71422380Y-80645000D01*
X71482857Y-80705476D01*
X71543333Y-80826428D01*
X71543333Y-81007857D01*
X71482857Y-81128809D01*
X71422380Y-81189285D01*
X71301428Y-81249761D01*
X70817619Y-81249761D01*
X72813333Y-81733571D02*
X72752857Y-81794047D01*
X72571428Y-81854523D01*
X72450476Y-81854523D01*
X72269047Y-81794047D01*
X72148095Y-81673095D01*
X72087619Y-81552142D01*
X72027142Y-81310238D01*
X72027142Y-81128809D01*
X72087619Y-80886904D01*
X72148095Y-80765952D01*
X72269047Y-80645000D01*
X72450476Y-80584523D01*
X72571428Y-80584523D01*
X72752857Y-80645000D01*
X72813333Y-80705476D01*
X73297142Y-80705476D02*
X73357619Y-80645000D01*
X73478571Y-80584523D01*
X73780952Y-80584523D01*
X73901904Y-80645000D01*
X73962380Y-80705476D01*
X74022857Y-80826428D01*
X74022857Y-80947380D01*
X73962380Y-81128809D01*
X73236666Y-81854523D01*
X74022857Y-81854523D01*
X70817619Y-69154523D02*
X70817619Y-67884523D01*
X71301428Y-67884523D01*
X71422380Y-67945000D01*
X71482857Y-68005476D01*
X71543333Y-68126428D01*
X71543333Y-68307857D01*
X71482857Y-68428809D01*
X71422380Y-68489285D01*
X71301428Y-68549761D01*
X70817619Y-68549761D01*
X72087619Y-69154523D02*
X72087619Y-67884523D01*
X72390000Y-67884523D01*
X72571428Y-67945000D01*
X72692380Y-68065952D01*
X72752857Y-68186904D01*
X72813333Y-68428809D01*
X72813333Y-68610238D01*
X72752857Y-68852142D01*
X72692380Y-68973095D01*
X72571428Y-69094047D01*
X72390000Y-69154523D01*
X72087619Y-69154523D01*
X73236666Y-67884523D02*
X74022857Y-67884523D01*
X73599523Y-68368333D01*
X73780952Y-68368333D01*
X73901904Y-68428809D01*
X73962380Y-68489285D01*
X74022857Y-68610238D01*
X74022857Y-68912619D01*
X73962380Y-69033571D01*
X73901904Y-69094047D01*
X73780952Y-69154523D01*
X73418095Y-69154523D01*
X73297142Y-69094047D01*
X73236666Y-69033571D01*
X71422380Y-62865000D02*
X71301428Y-62804523D01*
X71120000Y-62804523D01*
X70938571Y-62865000D01*
X70817619Y-62985952D01*
X70757142Y-63106904D01*
X70696666Y-63348809D01*
X70696666Y-63530238D01*
X70757142Y-63772142D01*
X70817619Y-63893095D01*
X70938571Y-64014047D01*
X71120000Y-64074523D01*
X71240952Y-64074523D01*
X71422380Y-64014047D01*
X71482857Y-63953571D01*
X71482857Y-63530238D01*
X71240952Y-63530238D01*
X72027142Y-64074523D02*
X72027142Y-62804523D01*
X72752857Y-64074523D01*
X72752857Y-62804523D01*
X73357619Y-64074523D02*
X73357619Y-62804523D01*
X73660000Y-62804523D01*
X73841428Y-62865000D01*
X73962380Y-62985952D01*
X74022857Y-63106904D01*
X74083333Y-63348809D01*
X74083333Y-63530238D01*
X74022857Y-63772142D01*
X73962380Y-63893095D01*
X73841428Y-64014047D01*
X73660000Y-64074523D01*
X73357619Y-64074523D01*
X71422380Y-85725000D02*
X71301428Y-85664523D01*
X71120000Y-85664523D01*
X70938571Y-85725000D01*
X70817619Y-85845952D01*
X70757142Y-85966904D01*
X70696666Y-86208809D01*
X70696666Y-86390238D01*
X70757142Y-86632142D01*
X70817619Y-86753095D01*
X70938571Y-86874047D01*
X71120000Y-86934523D01*
X71240952Y-86934523D01*
X71422380Y-86874047D01*
X71482857Y-86813571D01*
X71482857Y-86390238D01*
X71240952Y-86390238D01*
X72027142Y-86934523D02*
X72027142Y-85664523D01*
X72752857Y-86934523D01*
X72752857Y-85664523D01*
X73357619Y-86934523D02*
X73357619Y-85664523D01*
X73660000Y-85664523D01*
X73841428Y-85725000D01*
X73962380Y-85845952D01*
X74022857Y-85966904D01*
X74083333Y-86208809D01*
X74083333Y-86390238D01*
X74022857Y-86632142D01*
X73962380Y-86753095D01*
X73841428Y-86874047D01*
X73660000Y-86934523D01*
X73357619Y-86934523D01*
X70847857Y-76714047D02*
X71029285Y-76774523D01*
X71331666Y-76774523D01*
X71452619Y-76714047D01*
X71513095Y-76653571D01*
X71573571Y-76532619D01*
X71573571Y-76411666D01*
X71513095Y-76290714D01*
X71452619Y-76230238D01*
X71331666Y-76169761D01*
X71089761Y-76109285D01*
X70968809Y-76048809D01*
X70908333Y-75988333D01*
X70847857Y-75867380D01*
X70847857Y-75746428D01*
X70908333Y-75625476D01*
X70968809Y-75565000D01*
X71089761Y-75504523D01*
X71392142Y-75504523D01*
X71573571Y-75565000D01*
X72117857Y-76774523D02*
X72117857Y-75504523D01*
X72420238Y-75504523D01*
X72601666Y-75565000D01*
X72722619Y-75685952D01*
X72783095Y-75806904D01*
X72843571Y-76048809D01*
X72843571Y-76230238D01*
X72783095Y-76472142D01*
X72722619Y-76593095D01*
X72601666Y-76714047D01*
X72420238Y-76774523D01*
X72117857Y-76774523D01*
X73327380Y-76411666D02*
X73932142Y-76411666D01*
X73206428Y-76774523D02*
X73629761Y-75504523D01*
X74053095Y-76774523D01*
X70817619Y-71694523D02*
X70817619Y-70424523D01*
X71301428Y-70424523D01*
X71422380Y-70485000D01*
X71482857Y-70545476D01*
X71543333Y-70666428D01*
X71543333Y-70847857D01*
X71482857Y-70968809D01*
X71422380Y-71029285D01*
X71301428Y-71089761D01*
X70817619Y-71089761D01*
X72087619Y-71694523D02*
X72087619Y-70424523D01*
X72390000Y-70424523D01*
X72571428Y-70485000D01*
X72692380Y-70605952D01*
X72752857Y-70726904D01*
X72813333Y-70968809D01*
X72813333Y-71150238D01*
X72752857Y-71392142D01*
X72692380Y-71513095D01*
X72571428Y-71634047D01*
X72390000Y-71694523D01*
X72087619Y-71694523D01*
X73297142Y-70545476D02*
X73357619Y-70485000D01*
X73478571Y-70424523D01*
X73780952Y-70424523D01*
X73901904Y-70485000D01*
X73962380Y-70545476D01*
X74022857Y-70666428D01*
X74022857Y-70787380D01*
X73962380Y-70968809D01*
X73236666Y-71694523D01*
X74022857Y-71694523D01*
X65737619Y-86934523D02*
X65737619Y-85664523D01*
X66221428Y-85664523D01*
X66342380Y-85725000D01*
X66402857Y-85785476D01*
X66463333Y-85906428D01*
X66463333Y-86087857D01*
X66402857Y-86208809D01*
X66342380Y-86269285D01*
X66221428Y-86329761D01*
X65737619Y-86329761D01*
X67733333Y-86813571D02*
X67672857Y-86874047D01*
X67491428Y-86934523D01*
X67370476Y-86934523D01*
X67189047Y-86874047D01*
X67068095Y-86753095D01*
X67007619Y-86632142D01*
X66947142Y-86390238D01*
X66947142Y-86208809D01*
X67007619Y-85966904D01*
X67068095Y-85845952D01*
X67189047Y-85725000D01*
X67370476Y-85664523D01*
X67491428Y-85664523D01*
X67672857Y-85725000D01*
X67733333Y-85785476D01*
X68519523Y-85664523D02*
X68640476Y-85664523D01*
X68761428Y-85725000D01*
X68821904Y-85785476D01*
X68882380Y-85906428D01*
X68942857Y-86148333D01*
X68942857Y-86450714D01*
X68882380Y-86692619D01*
X68821904Y-86813571D01*
X68761428Y-86874047D01*
X68640476Y-86934523D01*
X68519523Y-86934523D01*
X68398571Y-86874047D01*
X68338095Y-86813571D01*
X68277619Y-86692619D01*
X68217142Y-86450714D01*
X68217142Y-86148333D01*
X68277619Y-85906428D01*
X68338095Y-85785476D01*
X68398571Y-85725000D01*
X68519523Y-85664523D01*
X65132857Y-81491666D02*
X65737619Y-81491666D01*
X65011904Y-81854523D02*
X65435238Y-80584523D01*
X65858571Y-81854523D01*
X66281904Y-81854523D02*
X66281904Y-80584523D01*
X66584285Y-80584523D01*
X66765714Y-80645000D01*
X66886666Y-80765952D01*
X66947142Y-80886904D01*
X67007619Y-81128809D01*
X67007619Y-81310238D01*
X66947142Y-81552142D01*
X66886666Y-81673095D01*
X66765714Y-81794047D01*
X66584285Y-81854523D01*
X66281904Y-81854523D01*
X68277619Y-81733571D02*
X68217142Y-81794047D01*
X68035714Y-81854523D01*
X67914761Y-81854523D01*
X67733333Y-81794047D01*
X67612380Y-81673095D01*
X67551904Y-81552142D01*
X67491428Y-81310238D01*
X67491428Y-81128809D01*
X67551904Y-80886904D01*
X67612380Y-80765952D01*
X67733333Y-80645000D01*
X67914761Y-80584523D01*
X68035714Y-80584523D01*
X68217142Y-80645000D01*
X68277619Y-80705476D01*
X69366190Y-80584523D02*
X69124285Y-80584523D01*
X69003333Y-80645000D01*
X68942857Y-80705476D01*
X68821904Y-80886904D01*
X68761428Y-81128809D01*
X68761428Y-81612619D01*
X68821904Y-81733571D01*
X68882380Y-81794047D01*
X69003333Y-81854523D01*
X69245238Y-81854523D01*
X69366190Y-81794047D01*
X69426666Y-81733571D01*
X69487142Y-81612619D01*
X69487142Y-81310238D01*
X69426666Y-81189285D01*
X69366190Y-81128809D01*
X69245238Y-81068333D01*
X69003333Y-81068333D01*
X68882380Y-81128809D01*
X68821904Y-81189285D01*
X68761428Y-81310238D01*
X65132857Y-84034206D02*
X65737619Y-84034206D01*
X65011904Y-84397063D02*
X65435238Y-83127063D01*
X65858571Y-84397063D01*
X66281904Y-84397063D02*
X66281904Y-83127063D01*
X66584285Y-83127063D01*
X66765714Y-83187540D01*
X66886666Y-83308492D01*
X66947142Y-83429444D01*
X67007619Y-83671349D01*
X67007619Y-83852778D01*
X66947142Y-84094682D01*
X66886666Y-84215635D01*
X66765714Y-84336587D01*
X66584285Y-84397063D01*
X66281904Y-84397063D01*
X68277619Y-84276111D02*
X68217142Y-84336587D01*
X68035714Y-84397063D01*
X67914761Y-84397063D01*
X67733333Y-84336587D01*
X67612380Y-84215635D01*
X67551904Y-84094682D01*
X67491428Y-83852778D01*
X67491428Y-83671349D01*
X67551904Y-83429444D01*
X67612380Y-83308492D01*
X67733333Y-83187540D01*
X67914761Y-83127063D01*
X68035714Y-83127063D01*
X68217142Y-83187540D01*
X68277619Y-83248016D01*
X68700952Y-83127063D02*
X69547619Y-83127063D01*
X69003333Y-84397063D01*
X65737619Y-79314523D02*
X65737619Y-78044523D01*
X66221428Y-78044523D01*
X66342380Y-78105000D01*
X66402857Y-78165476D01*
X66463333Y-78286428D01*
X66463333Y-78467857D01*
X66402857Y-78588809D01*
X66342380Y-78649285D01*
X66221428Y-78709761D01*
X65737619Y-78709761D01*
X67430952Y-78649285D02*
X67612380Y-78709761D01*
X67672857Y-78770238D01*
X67733333Y-78891190D01*
X67733333Y-79072619D01*
X67672857Y-79193571D01*
X67612380Y-79254047D01*
X67491428Y-79314523D01*
X67007619Y-79314523D01*
X67007619Y-78044523D01*
X67430952Y-78044523D01*
X67551904Y-78105000D01*
X67612380Y-78165476D01*
X67672857Y-78286428D01*
X67672857Y-78407380D01*
X67612380Y-78528333D01*
X67551904Y-78588809D01*
X67430952Y-78649285D01*
X67007619Y-78649285D01*
X68217142Y-78165476D02*
X68277619Y-78105000D01*
X68398571Y-78044523D01*
X68700952Y-78044523D01*
X68821904Y-78105000D01*
X68882380Y-78165476D01*
X68942857Y-78286428D01*
X68942857Y-78407380D01*
X68882380Y-78588809D01*
X68156666Y-79314523D01*
X68942857Y-79314523D01*
X65737619Y-76774523D02*
X65737619Y-75504523D01*
X66221428Y-75504523D01*
X66342380Y-75565000D01*
X66402857Y-75625476D01*
X66463333Y-75746428D01*
X66463333Y-75927857D01*
X66402857Y-76048809D01*
X66342380Y-76109285D01*
X66221428Y-76169761D01*
X65737619Y-76169761D01*
X67430952Y-76109285D02*
X67612380Y-76169761D01*
X67672857Y-76230238D01*
X67733333Y-76351190D01*
X67733333Y-76532619D01*
X67672857Y-76653571D01*
X67612380Y-76714047D01*
X67491428Y-76774523D01*
X67007619Y-76774523D01*
X67007619Y-75504523D01*
X67430952Y-75504523D01*
X67551904Y-75565000D01*
X67612380Y-75625476D01*
X67672857Y-75746428D01*
X67672857Y-75867380D01*
X67612380Y-75988333D01*
X67551904Y-76048809D01*
X67430952Y-76109285D01*
X67007619Y-76109285D01*
X68942857Y-76774523D02*
X68217142Y-76774523D01*
X68580000Y-76774523D02*
X68580000Y-75504523D01*
X68459047Y-75685952D01*
X68338095Y-75806904D01*
X68217142Y-75867380D01*
X65737619Y-74234523D02*
X65737619Y-72964523D01*
X66221428Y-72964523D01*
X66342380Y-73025000D01*
X66402857Y-73085476D01*
X66463333Y-73206428D01*
X66463333Y-73387857D01*
X66402857Y-73508809D01*
X66342380Y-73569285D01*
X66221428Y-73629761D01*
X65737619Y-73629761D01*
X67430952Y-73569285D02*
X67612380Y-73629761D01*
X67672857Y-73690238D01*
X67733333Y-73811190D01*
X67733333Y-73992619D01*
X67672857Y-74113571D01*
X67612380Y-74174047D01*
X67491428Y-74234523D01*
X67007619Y-74234523D01*
X67007619Y-72964523D01*
X67430952Y-72964523D01*
X67551904Y-73025000D01*
X67612380Y-73085476D01*
X67672857Y-73206428D01*
X67672857Y-73327380D01*
X67612380Y-73448333D01*
X67551904Y-73508809D01*
X67430952Y-73569285D01*
X67007619Y-73569285D01*
X68519523Y-72964523D02*
X68640476Y-72964523D01*
X68761428Y-73025000D01*
X68821904Y-73085476D01*
X68882380Y-73206428D01*
X68942857Y-73448333D01*
X68942857Y-73750714D01*
X68882380Y-73992619D01*
X68821904Y-74113571D01*
X68761428Y-74174047D01*
X68640476Y-74234523D01*
X68519523Y-74234523D01*
X68398571Y-74174047D01*
X68338095Y-74113571D01*
X68277619Y-73992619D01*
X68217142Y-73750714D01*
X68217142Y-73448333D01*
X68277619Y-73206428D01*
X68338095Y-73085476D01*
X68398571Y-73025000D01*
X68519523Y-72964523D01*
X65737619Y-71694523D02*
X65737619Y-70424523D01*
X66221428Y-70424523D01*
X66342380Y-70485000D01*
X66402857Y-70545476D01*
X66463333Y-70666428D01*
X66463333Y-70847857D01*
X66402857Y-70968809D01*
X66342380Y-71029285D01*
X66221428Y-71089761D01*
X65737619Y-71089761D01*
X67007619Y-71694523D02*
X67007619Y-70424523D01*
X67310000Y-70424523D01*
X67491428Y-70485000D01*
X67612380Y-70605952D01*
X67672857Y-70726904D01*
X67733333Y-70968809D01*
X67733333Y-71150238D01*
X67672857Y-71392142D01*
X67612380Y-71513095D01*
X67491428Y-71634047D01*
X67310000Y-71694523D01*
X67007619Y-71694523D01*
X68156666Y-70424523D02*
X69003333Y-70424523D01*
X68459047Y-71694523D01*
X65737619Y-69154523D02*
X65737619Y-67884523D01*
X66221428Y-67884523D01*
X66342380Y-67945000D01*
X66402857Y-68005476D01*
X66463333Y-68126428D01*
X66463333Y-68307857D01*
X66402857Y-68428809D01*
X66342380Y-68489285D01*
X66221428Y-68549761D01*
X65737619Y-68549761D01*
X67007619Y-69154523D02*
X67007619Y-67884523D01*
X67310000Y-67884523D01*
X67491428Y-67945000D01*
X67612380Y-68065952D01*
X67672857Y-68186904D01*
X67733333Y-68428809D01*
X67733333Y-68610238D01*
X67672857Y-68852142D01*
X67612380Y-68973095D01*
X67491428Y-69094047D01*
X67310000Y-69154523D01*
X67007619Y-69154523D01*
X68821904Y-67884523D02*
X68580000Y-67884523D01*
X68459047Y-67945000D01*
X68398571Y-68005476D01*
X68277619Y-68186904D01*
X68217142Y-68428809D01*
X68217142Y-68912619D01*
X68277619Y-69033571D01*
X68338095Y-69094047D01*
X68459047Y-69154523D01*
X68700952Y-69154523D01*
X68821904Y-69094047D01*
X68882380Y-69033571D01*
X68942857Y-68912619D01*
X68942857Y-68610238D01*
X68882380Y-68489285D01*
X68821904Y-68428809D01*
X68700952Y-68368333D01*
X68459047Y-68368333D01*
X68338095Y-68428809D01*
X68277619Y-68489285D01*
X68217142Y-68610238D01*
X65737619Y-66614523D02*
X65737619Y-65344523D01*
X66221428Y-65344523D01*
X66342380Y-65405000D01*
X66402857Y-65465476D01*
X66463333Y-65586428D01*
X66463333Y-65767857D01*
X66402857Y-65888809D01*
X66342380Y-65949285D01*
X66221428Y-66009761D01*
X65737619Y-66009761D01*
X67007619Y-66614523D02*
X67007619Y-65344523D01*
X67310000Y-65344523D01*
X67491428Y-65405000D01*
X67612380Y-65525952D01*
X67672857Y-65646904D01*
X67733333Y-65888809D01*
X67733333Y-66070238D01*
X67672857Y-66312142D01*
X67612380Y-66433095D01*
X67491428Y-66554047D01*
X67310000Y-66614523D01*
X67007619Y-66614523D01*
X68882380Y-65344523D02*
X68277619Y-65344523D01*
X68217142Y-65949285D01*
X68277619Y-65888809D01*
X68398571Y-65828333D01*
X68700952Y-65828333D01*
X68821904Y-65888809D01*
X68882380Y-65949285D01*
X68942857Y-66070238D01*
X68942857Y-66372619D01*
X68882380Y-66493571D01*
X68821904Y-66554047D01*
X68700952Y-66614523D01*
X68398571Y-66614523D01*
X68277619Y-66554047D01*
X68217142Y-66493571D01*
X66342380Y-62865000D02*
X66221428Y-62804523D01*
X66040000Y-62804523D01*
X65858571Y-62865000D01*
X65737619Y-62985952D01*
X65677142Y-63106904D01*
X65616666Y-63348809D01*
X65616666Y-63530238D01*
X65677142Y-63772142D01*
X65737619Y-63893095D01*
X65858571Y-64014047D01*
X66040000Y-64074523D01*
X66160952Y-64074523D01*
X66342380Y-64014047D01*
X66402857Y-63953571D01*
X66402857Y-63530238D01*
X66160952Y-63530238D01*
X66947142Y-64074523D02*
X66947142Y-62804523D01*
X67672857Y-64074523D01*
X67672857Y-62804523D01*
X68277619Y-64074523D02*
X68277619Y-62804523D01*
X68580000Y-62804523D01*
X68761428Y-62865000D01*
X68882380Y-62985952D01*
X68942857Y-63106904D01*
X69003333Y-63348809D01*
X69003333Y-63530238D01*
X68942857Y-63772142D01*
X68882380Y-63893095D01*
X68761428Y-64014047D01*
X68580000Y-64074523D01*
X68277619Y-64074523D01*
X70696666Y-60264523D02*
X71120000Y-61534523D01*
X71543333Y-60264523D01*
X72692380Y-61413571D02*
X72631904Y-61474047D01*
X72450476Y-61534523D01*
X72329523Y-61534523D01*
X72148095Y-61474047D01*
X72027142Y-61353095D01*
X71966666Y-61232142D01*
X71906190Y-60990238D01*
X71906190Y-60808809D01*
X71966666Y-60566904D01*
X72027142Y-60445952D01*
X72148095Y-60325000D01*
X72329523Y-60264523D01*
X72450476Y-60264523D01*
X72631904Y-60325000D01*
X72692380Y-60385476D01*
X73962380Y-61413571D02*
X73901904Y-61474047D01*
X73720476Y-61534523D01*
X73599523Y-61534523D01*
X73418095Y-61474047D01*
X73297142Y-61353095D01*
X73236666Y-61232142D01*
X73176190Y-60990238D01*
X73176190Y-60808809D01*
X73236666Y-60566904D01*
X73297142Y-60445952D01*
X73418095Y-60325000D01*
X73599523Y-60264523D01*
X73720476Y-60264523D01*
X73901904Y-60325000D01*
X73962380Y-60385476D01*
X65616666Y-60264523D02*
X66040000Y-61534523D01*
X66463333Y-60264523D01*
X67612380Y-61413571D02*
X67551904Y-61474047D01*
X67370476Y-61534523D01*
X67249523Y-61534523D01*
X67068095Y-61474047D01*
X66947142Y-61353095D01*
X66886666Y-61232142D01*
X66826190Y-60990238D01*
X66826190Y-60808809D01*
X66886666Y-60566904D01*
X66947142Y-60445952D01*
X67068095Y-60325000D01*
X67249523Y-60264523D01*
X67370476Y-60264523D01*
X67551904Y-60325000D01*
X67612380Y-60385476D01*
X68882380Y-61413571D02*
X68821904Y-61474047D01*
X68640476Y-61534523D01*
X68519523Y-61534523D01*
X68338095Y-61474047D01*
X68217142Y-61353095D01*
X68156666Y-61232142D01*
X68096190Y-60990238D01*
X68096190Y-60808809D01*
X68156666Y-60566904D01*
X68217142Y-60445952D01*
X68338095Y-60325000D01*
X68519523Y-60264523D01*
X68640476Y-60264523D01*
X68821904Y-60325000D01*
X68882380Y-60385476D01*
D14*
G04 #@! TO.C,J4*
X69918851Y-39014400D02*
X73510954Y-35422298D01*
X68122800Y-41206431D02*
X67026784Y-40110416D01*
X66326749Y-39014400D02*
X68122800Y-37218349D01*
X68122800Y-37218349D02*
X69918851Y-39014400D01*
X73510954Y-35422298D02*
X69918851Y-31830195D01*
X69918851Y-31830195D02*
X66326749Y-35422298D01*
X68122800Y-41206431D02*
X69218816Y-40110416D01*
X64530698Y-37218349D02*
X66326749Y-39014400D01*
X66326749Y-35422298D02*
X64530698Y-37218349D01*
D15*
G04 #@! TO.C,C1*
X75065000Y-47169440D02*
X76065000Y-47169440D01*
X76065000Y-45469440D02*
X75065000Y-45469440D01*
G04 #@! TO.C,C2*
X75471920Y-42575860D02*
X75471920Y-43575860D01*
X77171920Y-43575860D02*
X77171920Y-42575860D01*
G04 #@! TO.C,C3*
X73251440Y-40811820D02*
X74251440Y-40811820D01*
X74251440Y-39111820D02*
X73251440Y-39111820D01*
D14*
G04 #@! TO.C,J3*
X79026749Y-47919098D02*
X77230698Y-49715149D01*
X77230698Y-49715149D02*
X79026749Y-51511200D01*
X80822800Y-53703231D02*
X81918816Y-52607216D01*
X82618851Y-44326995D02*
X79026749Y-47919098D01*
X86210954Y-47919098D02*
X82618851Y-44326995D01*
X80822800Y-49715149D02*
X82618851Y-51511200D01*
X79026749Y-51511200D02*
X80822800Y-49715149D01*
X80822800Y-53703231D02*
X79726784Y-52607216D01*
X82618851Y-51511200D02*
X86210954Y-47919098D01*
D15*
G04 #@! TO.C,R1*
X78254822Y-42260650D02*
X79103350Y-41412122D01*
X80347858Y-42656630D02*
X79499330Y-43505158D01*
D14*
G04 #@! TO.C,U1*
X74976524Y-50800000D02*
X74817425Y-50640901D01*
X69850000Y-55926524D02*
X69620190Y-55696714D01*
X64723476Y-50800000D02*
X64953286Y-51029810D01*
X69850000Y-45673476D02*
X70079810Y-45903286D01*
X74976524Y-50800000D02*
X74746714Y-51029810D01*
X69850000Y-45673476D02*
X69620190Y-45903286D01*
X64723476Y-50800000D02*
X64953286Y-50570190D01*
X69850000Y-55926524D02*
X70079810Y-55696714D01*
X74817425Y-50640901D02*
X75825052Y-49633274D01*
D16*
G04 #@! TO.C,Y1*
X72087940Y-45180000D02*
X72087940Y-43180000D01*
X72087940Y-45180000D02*
X73687940Y-45180000D01*
D15*
G04 #@! TO.C,J1*
X62170000Y-87690000D02*
X64830000Y-87690000D01*
X62170000Y-62230000D02*
X62170000Y-87690000D01*
X64830000Y-62230000D02*
X64830000Y-87690000D01*
X62170000Y-62230000D02*
X64830000Y-62230000D01*
X62170000Y-60960000D02*
X62170000Y-59630000D01*
X62170000Y-59630000D02*
X63500000Y-59630000D01*
G04 #@! TO.C,J2*
X74870000Y-59630000D02*
X76200000Y-59630000D01*
X74870000Y-60960000D02*
X74870000Y-59630000D01*
X74870000Y-62230000D02*
X77530000Y-62230000D01*
X77530000Y-62230000D02*
X77530000Y-87690000D01*
X74870000Y-62230000D02*
X74870000Y-87690000D01*
X74870000Y-87690000D02*
X77530000Y-87690000D01*
D16*
G04 #@! TO.C,D1*
X54889111Y-48919786D02*
X55136599Y-48672299D01*
X55136599Y-48672299D02*
X55384086Y-48424811D01*
X55136599Y-49167273D02*
X55136599Y-48672299D01*
X55171954Y-49131918D02*
X55136599Y-49167273D01*
X55136599Y-49167273D02*
X55171954Y-49131918D01*
X55631573Y-48672299D02*
X55171954Y-49131918D01*
X55560863Y-48672299D02*
X55631573Y-48672299D01*
X55136599Y-48672299D02*
X55560863Y-48672299D01*
D15*
X54500203Y-47045953D02*
X53510253Y-48035903D01*
X53510253Y-48035903D02*
X55490152Y-50015802D01*
X54500203Y-47045953D02*
X56480102Y-49025852D01*
G04 #@! TO.C,R2*
X58140470Y-50520562D02*
X58988998Y-51369090D01*
X57744490Y-52613598D02*
X56895962Y-51765070D01*
D16*
G04 #@! TO.C,D2*
X56938891Y-46727766D02*
X57186379Y-46480279D01*
X57186379Y-46480279D02*
X57433866Y-46232791D01*
X57186379Y-46975253D02*
X57186379Y-46480279D01*
X57221734Y-46939898D02*
X57186379Y-46975253D01*
X57186379Y-46975253D02*
X57221734Y-46939898D01*
X57681353Y-46480279D02*
X57221734Y-46939898D01*
X57610643Y-46480279D02*
X57681353Y-46480279D01*
X57186379Y-46480279D02*
X57610643Y-46480279D01*
D15*
X56549983Y-44853933D02*
X55560033Y-45843883D01*
X55560033Y-45843883D02*
X57539932Y-47823782D01*
X56549983Y-44853933D02*
X58529882Y-46833832D01*
G04 #@! TO.C,D3*
X58383863Y-42844793D02*
X60363762Y-44824692D01*
X57393913Y-43834743D02*
X59373812Y-45814642D01*
X58383863Y-42844793D02*
X57393913Y-43834743D01*
D16*
X59020259Y-44471139D02*
X59444523Y-44471139D01*
X59444523Y-44471139D02*
X59515233Y-44471139D01*
X59515233Y-44471139D02*
X59055614Y-44930758D01*
X59020259Y-44966113D02*
X59055614Y-44930758D01*
X59055614Y-44930758D02*
X59020259Y-44966113D01*
X59020259Y-44966113D02*
X59020259Y-44471139D01*
X59020259Y-44471139D02*
X59267746Y-44223651D01*
X58772771Y-44718626D02*
X59020259Y-44471139D01*
D15*
G04 #@! TO.C,R3*
X59801890Y-50360618D02*
X58953362Y-49512090D01*
X60197870Y-48267582D02*
X61046398Y-49116110D01*
G04 #@! TO.C,R4*
X62013970Y-46146682D02*
X62862498Y-46995210D01*
X61617990Y-48239718D02*
X60769462Y-47391190D01*
G04 #@! TO.C,J5*
X67276015Y-41780189D02*
X65437538Y-43618666D01*
X67276015Y-41780189D02*
X63599060Y-38103234D01*
X63599060Y-38103234D02*
X59922105Y-41780189D01*
X61760582Y-43618666D02*
X59922105Y-41780189D01*
X63599060Y-41780189D02*
X61760582Y-43618666D01*
X65437538Y-43618666D02*
X63599060Y-41780189D01*
X63599060Y-45457144D02*
X62658608Y-44516692D01*
X64539512Y-44516692D02*
X63599060Y-45457144D01*
G04 #@! TO.C,C1*
D14*
X75285600Y-48105422D02*
X75249314Y-48141708D01*
X75140457Y-48177994D01*
X75067885Y-48177994D01*
X74959028Y-48141708D01*
X74886457Y-48069137D01*
X74850171Y-47996565D01*
X74813885Y-47851422D01*
X74813885Y-47742565D01*
X74850171Y-47597422D01*
X74886457Y-47524851D01*
X74959028Y-47452280D01*
X75067885Y-47415994D01*
X75140457Y-47415994D01*
X75249314Y-47452280D01*
X75285600Y-47488565D01*
X76011314Y-48177994D02*
X75575885Y-48177994D01*
X75793600Y-48177994D02*
X75793600Y-47415994D01*
X75721028Y-47524851D01*
X75648457Y-47597422D01*
X75575885Y-47633708D01*
G04 #@! TO.C,C2*
D11*
X77830680Y-44757702D02*
X77794394Y-44793988D01*
X77685537Y-44830274D01*
X77612965Y-44830274D01*
X77504108Y-44793988D01*
X77431537Y-44721417D01*
X77395251Y-44648845D01*
X77358965Y-44503702D01*
X77358965Y-44394845D01*
X77395251Y-44249702D01*
X77431537Y-44177131D01*
X77504108Y-44104560D01*
X77612965Y-44068274D01*
X77685537Y-44068274D01*
X77794394Y-44104560D01*
X77830680Y-44140845D01*
X78120965Y-44140845D02*
X78157251Y-44104560D01*
X78229822Y-44068274D01*
X78411251Y-44068274D01*
X78483822Y-44104560D01*
X78520108Y-44140845D01*
X78556394Y-44213417D01*
X78556394Y-44285988D01*
X78520108Y-44394845D01*
X78084680Y-44830274D01*
X78556394Y-44830274D01*
G04 #@! TO.C,C3*
D14*
X74522033Y-38800042D02*
X74474414Y-38847661D01*
X74331557Y-38895280D01*
X74236319Y-38895280D01*
X74093461Y-38847661D01*
X73998223Y-38752423D01*
X73950604Y-38657185D01*
X73902985Y-38466709D01*
X73902985Y-38323852D01*
X73950604Y-38133376D01*
X73998223Y-38038138D01*
X74093461Y-37942900D01*
X74236319Y-37895280D01*
X74331557Y-37895280D01*
X74474414Y-37942900D01*
X74522033Y-37990519D01*
X74855366Y-37895280D02*
X75474414Y-37895280D01*
X75141080Y-38276233D01*
X75283938Y-38276233D01*
X75379176Y-38323852D01*
X75426795Y-38371471D01*
X75474414Y-38466709D01*
X75474414Y-38704804D01*
X75426795Y-38800042D01*
X75379176Y-38847661D01*
X75283938Y-38895280D01*
X74998223Y-38895280D01*
X74902985Y-38847661D01*
X74855366Y-38800042D01*
G04 #@! TO.C,R1*
X79069030Y-41179332D02*
X78496610Y-41078317D01*
X78664969Y-41583393D02*
X77957862Y-40876287D01*
X78227236Y-40606912D01*
X78328251Y-40573241D01*
X78395595Y-40573241D01*
X78496610Y-40606912D01*
X78597625Y-40707928D01*
X78631297Y-40808943D01*
X78631297Y-40876287D01*
X78597625Y-40977302D01*
X78328251Y-41246676D01*
X79742465Y-40505897D02*
X79338404Y-40909958D01*
X79540435Y-40707928D02*
X78833328Y-40000821D01*
X78867000Y-40169180D01*
X78867000Y-40303867D01*
X78833328Y-40404882D01*
G04 #@! TO.C,U1*
X73202022Y-55229518D02*
X73774442Y-55801938D01*
X73875457Y-55835610D01*
X73942801Y-55835610D01*
X74043816Y-55801938D01*
X74178503Y-55667251D01*
X74212175Y-55566236D01*
X74212175Y-55498892D01*
X74178503Y-55397877D01*
X73606083Y-54825457D01*
X75020297Y-54825457D02*
X74616236Y-55229518D01*
X74818266Y-55027488D02*
X74111160Y-54320381D01*
X74144831Y-54488740D01*
X74144831Y-54623427D01*
X74111160Y-54724442D01*
G04 #@! TO.C,Y1*
X70897809Y-42343390D02*
X70897809Y-42819580D01*
X70564476Y-41819580D02*
X70897809Y-42343390D01*
X71231142Y-41819580D01*
X72088285Y-42819580D02*
X71516857Y-42819580D01*
X71802571Y-42819580D02*
X71802571Y-41819580D01*
X71707333Y-41962438D01*
X71612095Y-42057676D01*
X71516857Y-42105295D01*
G04 #@! TO.C,R2*
D17*
X58010247Y-49988747D02*
X58087221Y-49552563D01*
X57702353Y-49680852D02*
X58241168Y-49142037D01*
X58446431Y-49347300D01*
X58472089Y-49424274D01*
X58472089Y-49475589D01*
X58446431Y-49552563D01*
X58369457Y-49629537D01*
X58292484Y-49655194D01*
X58241168Y-49655194D01*
X58164194Y-49629537D01*
X57958931Y-49424274D01*
X58703010Y-49706510D02*
X58754325Y-49706510D01*
X58831299Y-49732168D01*
X58959588Y-49860457D01*
X58985246Y-49937431D01*
X58985246Y-49988747D01*
X58959588Y-50065720D01*
X58908273Y-50117036D01*
X58805641Y-50168352D01*
X58189852Y-50168352D01*
X58523405Y-50501904D01*
G04 #@! TO.C,R3*
X59966047Y-47778947D02*
X60043021Y-47342763D01*
X59658153Y-47471052D02*
X60196968Y-46932237D01*
X60402231Y-47137500D01*
X60427889Y-47214474D01*
X60427889Y-47265789D01*
X60402231Y-47342763D01*
X60325257Y-47419737D01*
X60248284Y-47445394D01*
X60196968Y-47445394D01*
X60119994Y-47419737D01*
X59914731Y-47214474D01*
X60684468Y-47419737D02*
X61018020Y-47753289D01*
X60633152Y-47778947D01*
X60710125Y-47855920D01*
X60735783Y-47932894D01*
X60735783Y-47984210D01*
X60710125Y-48061183D01*
X60581836Y-48189473D01*
X60504862Y-48215131D01*
X60453547Y-48215131D01*
X60376573Y-48189473D01*
X60222626Y-48035525D01*
X60196968Y-47958552D01*
X60196968Y-47907236D01*
G04 #@! TO.C,R4*
X61794847Y-45721547D02*
X61871821Y-45285363D01*
X61486953Y-45413652D02*
X62025768Y-44874837D01*
X62231031Y-45080100D01*
X62256689Y-45157074D01*
X62256689Y-45208389D01*
X62231031Y-45285363D01*
X62154057Y-45362337D01*
X62077084Y-45387994D01*
X62025768Y-45387994D01*
X61948794Y-45362337D01*
X61743531Y-45157074D01*
X62615899Y-45824178D02*
X62256689Y-46183388D01*
X62692873Y-45490626D02*
X62179715Y-45747205D01*
X62513268Y-46080757D01*
G04 #@! TD*
M02*
