G04 #@! TF.GenerationSoftware,KiCad,Pcbnew,5.0.2-bee76a0~70~ubuntu18.04.1*
G04 #@! TF.CreationDate,2019-11-24T20:15:07-05:00*
G04 #@! TF.ProjectId,328_Hacker,3332385f-4861-4636-9b65-722e6b696361,rev?*
G04 #@! TF.SameCoordinates,Original*
G04 #@! TF.FileFunction,Paste,Top*
G04 #@! TF.FilePolarity,Positive*
%FSLAX46Y46*%
G04 Gerber Fmt 4.6, Leading zero omitted, Abs format (unit mm)*
G04 Created by KiCad (PCBNEW 5.0.2-bee76a0~70~ubuntu18.04.1) date Sun 24 Nov 2019 08:15:07 PM EST*
%MOMM*%
%LPD*%
G01*
G04 APERTURE LIST*
%ADD10R,1.000000X1.250000*%
%ADD11R,1.250000X1.000000*%
%ADD12C,0.700000*%
%ADD13C,0.100000*%
%ADD14C,0.550000*%
%ADD15C,1.200000*%
G04 APERTURE END LIST*
D10*
G04 #@! TO.C,C1*
X76565000Y-46319440D03*
X74565000Y-46319440D03*
G04 #@! TD*
D11*
G04 #@! TO.C,C2*
X76321920Y-44075860D03*
X76321920Y-42075860D03*
G04 #@! TD*
D10*
G04 #@! TO.C,C3*
X74751440Y-39961820D03*
X72751440Y-39961820D03*
G04 #@! TD*
D12*
G04 #@! TO.C,R1*
X79973091Y-41786889D03*
D13*
G36*
X79760959Y-41079782D02*
X80680198Y-41999021D01*
X80185223Y-42493996D01*
X79265984Y-41574757D01*
X79760959Y-41079782D01*
X79760959Y-41079782D01*
G37*
D12*
X78629589Y-43130391D03*
D13*
G36*
X78417457Y-42423284D02*
X79336696Y-43342523D01*
X78841721Y-43837498D01*
X77922482Y-42918259D01*
X78417457Y-42423284D01*
X78417457Y-42423284D01*
G37*
G04 #@! TD*
D14*
G04 #@! TO.C,U1*
X74835103Y-49774695D03*
D13*
G36*
X75206334Y-49014555D02*
X75595243Y-49403464D01*
X74463872Y-50534835D01*
X74074963Y-50145926D01*
X75206334Y-49014555D01*
X75206334Y-49014555D01*
G37*
D14*
X74269417Y-49209010D03*
D13*
G36*
X74640648Y-48448870D02*
X75029557Y-48837779D01*
X73898186Y-49969150D01*
X73509277Y-49580241D01*
X74640648Y-48448870D01*
X74640648Y-48448870D01*
G37*
D14*
X73703732Y-48643324D03*
D13*
G36*
X74074963Y-47883184D02*
X74463872Y-48272093D01*
X73332501Y-49403464D01*
X72943592Y-49014555D01*
X74074963Y-47883184D01*
X74074963Y-47883184D01*
G37*
D14*
X73138047Y-48077639D03*
D13*
G36*
X73509278Y-47317499D02*
X73898187Y-47706408D01*
X72766816Y-48837779D01*
X72377907Y-48448870D01*
X73509278Y-47317499D01*
X73509278Y-47317499D01*
G37*
D14*
X72572361Y-47511953D03*
D13*
G36*
X72943592Y-46751813D02*
X73332501Y-47140722D01*
X72201130Y-48272093D01*
X71812221Y-47883184D01*
X72943592Y-46751813D01*
X72943592Y-46751813D01*
G37*
D14*
X72006676Y-46946268D03*
D13*
G36*
X72377907Y-46186128D02*
X72766816Y-46575037D01*
X71635445Y-47706408D01*
X71246536Y-47317499D01*
X72377907Y-46186128D01*
X72377907Y-46186128D01*
G37*
D14*
X71440990Y-46380583D03*
D13*
G36*
X71812221Y-45620443D02*
X72201130Y-46009352D01*
X71069759Y-47140723D01*
X70680850Y-46751814D01*
X71812221Y-45620443D01*
X71812221Y-45620443D01*
G37*
D14*
X70875305Y-45814897D03*
D13*
G36*
X71246536Y-45054757D02*
X71635445Y-45443666D01*
X70504074Y-46575037D01*
X70115165Y-46186128D01*
X71246536Y-45054757D01*
X71246536Y-45054757D01*
G37*
D14*
X68824695Y-45814897D03*
D13*
G36*
X68064555Y-45443666D02*
X68453464Y-45054757D01*
X69584835Y-46186128D01*
X69195926Y-46575037D01*
X68064555Y-45443666D01*
X68064555Y-45443666D01*
G37*
D14*
X68259010Y-46380583D03*
D13*
G36*
X67498870Y-46009352D02*
X67887779Y-45620443D01*
X69019150Y-46751814D01*
X68630241Y-47140723D01*
X67498870Y-46009352D01*
X67498870Y-46009352D01*
G37*
D14*
X67693324Y-46946268D03*
D13*
G36*
X66933184Y-46575037D02*
X67322093Y-46186128D01*
X68453464Y-47317499D01*
X68064555Y-47706408D01*
X66933184Y-46575037D01*
X66933184Y-46575037D01*
G37*
D14*
X67127639Y-47511953D03*
D13*
G36*
X66367499Y-47140722D02*
X66756408Y-46751813D01*
X67887779Y-47883184D01*
X67498870Y-48272093D01*
X66367499Y-47140722D01*
X66367499Y-47140722D01*
G37*
D14*
X66561953Y-48077639D03*
D13*
G36*
X65801813Y-47706408D02*
X66190722Y-47317499D01*
X67322093Y-48448870D01*
X66933184Y-48837779D01*
X65801813Y-47706408D01*
X65801813Y-47706408D01*
G37*
D14*
X65996268Y-48643324D03*
D13*
G36*
X65236128Y-48272093D02*
X65625037Y-47883184D01*
X66756408Y-49014555D01*
X66367499Y-49403464D01*
X65236128Y-48272093D01*
X65236128Y-48272093D01*
G37*
D14*
X65430583Y-49209010D03*
D13*
G36*
X64670443Y-48837779D02*
X65059352Y-48448870D01*
X66190723Y-49580241D01*
X65801814Y-49969150D01*
X64670443Y-48837779D01*
X64670443Y-48837779D01*
G37*
D14*
X64864897Y-49774695D03*
D13*
G36*
X64104757Y-49403464D02*
X64493666Y-49014555D01*
X65625037Y-50145926D01*
X65236128Y-50534835D01*
X64104757Y-49403464D01*
X64104757Y-49403464D01*
G37*
D14*
X64864897Y-51825305D03*
D13*
G36*
X65236128Y-51065165D02*
X65625037Y-51454074D01*
X64493666Y-52585445D01*
X64104757Y-52196536D01*
X65236128Y-51065165D01*
X65236128Y-51065165D01*
G37*
D14*
X65430583Y-52390990D03*
D13*
G36*
X65801814Y-51630850D02*
X66190723Y-52019759D01*
X65059352Y-53151130D01*
X64670443Y-52762221D01*
X65801814Y-51630850D01*
X65801814Y-51630850D01*
G37*
D14*
X65996268Y-52956676D03*
D13*
G36*
X66367499Y-52196536D02*
X66756408Y-52585445D01*
X65625037Y-53716816D01*
X65236128Y-53327907D01*
X66367499Y-52196536D01*
X66367499Y-52196536D01*
G37*
D14*
X66561953Y-53522361D03*
D13*
G36*
X66933184Y-52762221D02*
X67322093Y-53151130D01*
X66190722Y-54282501D01*
X65801813Y-53893592D01*
X66933184Y-52762221D01*
X66933184Y-52762221D01*
G37*
D14*
X67127639Y-54088047D03*
D13*
G36*
X67498870Y-53327907D02*
X67887779Y-53716816D01*
X66756408Y-54848187D01*
X66367499Y-54459278D01*
X67498870Y-53327907D01*
X67498870Y-53327907D01*
G37*
D14*
X67693324Y-54653732D03*
D13*
G36*
X68064555Y-53893592D02*
X68453464Y-54282501D01*
X67322093Y-55413872D01*
X66933184Y-55024963D01*
X68064555Y-53893592D01*
X68064555Y-53893592D01*
G37*
D14*
X68259010Y-55219417D03*
D13*
G36*
X68630241Y-54459277D02*
X69019150Y-54848186D01*
X67887779Y-55979557D01*
X67498870Y-55590648D01*
X68630241Y-54459277D01*
X68630241Y-54459277D01*
G37*
D14*
X68824695Y-55785103D03*
D13*
G36*
X69195926Y-55024963D02*
X69584835Y-55413872D01*
X68453464Y-56545243D01*
X68064555Y-56156334D01*
X69195926Y-55024963D01*
X69195926Y-55024963D01*
G37*
D14*
X70875305Y-55785103D03*
D13*
G36*
X70115165Y-55413872D02*
X70504074Y-55024963D01*
X71635445Y-56156334D01*
X71246536Y-56545243D01*
X70115165Y-55413872D01*
X70115165Y-55413872D01*
G37*
D14*
X71440990Y-55219417D03*
D13*
G36*
X70680850Y-54848186D02*
X71069759Y-54459277D01*
X72201130Y-55590648D01*
X71812221Y-55979557D01*
X70680850Y-54848186D01*
X70680850Y-54848186D01*
G37*
D14*
X72006676Y-54653732D03*
D13*
G36*
X71246536Y-54282501D02*
X71635445Y-53893592D01*
X72766816Y-55024963D01*
X72377907Y-55413872D01*
X71246536Y-54282501D01*
X71246536Y-54282501D01*
G37*
D14*
X72572361Y-54088047D03*
D13*
G36*
X71812221Y-53716816D02*
X72201130Y-53327907D01*
X73332501Y-54459278D01*
X72943592Y-54848187D01*
X71812221Y-53716816D01*
X71812221Y-53716816D01*
G37*
D14*
X73138047Y-53522361D03*
D13*
G36*
X72377907Y-53151130D02*
X72766816Y-52762221D01*
X73898187Y-53893592D01*
X73509278Y-54282501D01*
X72377907Y-53151130D01*
X72377907Y-53151130D01*
G37*
D14*
X73703732Y-52956676D03*
D13*
G36*
X72943592Y-52585445D02*
X73332501Y-52196536D01*
X74463872Y-53327907D01*
X74074963Y-53716816D01*
X72943592Y-52585445D01*
X72943592Y-52585445D01*
G37*
D14*
X74269417Y-52390990D03*
D13*
G36*
X73509277Y-52019759D02*
X73898186Y-51630850D01*
X75029557Y-52762221D01*
X74640648Y-53151130D01*
X73509277Y-52019759D01*
X73509277Y-52019759D01*
G37*
D14*
X74835103Y-51825305D03*
D13*
G36*
X74074963Y-51454074D02*
X74463872Y-51065165D01*
X75595243Y-52196536D01*
X75206334Y-52585445D01*
X74074963Y-51454074D01*
X74074963Y-51454074D01*
G37*
G04 #@! TD*
D15*
G04 #@! TO.C,D1*
X56055837Y-49591537D03*
D13*
G36*
X56904365Y-49591537D02*
X56055837Y-50440065D01*
X55207309Y-49591537D01*
X56055837Y-48743009D01*
X56904365Y-49591537D01*
X56904365Y-49591537D01*
G37*
D15*
X54500203Y-48035903D03*
D13*
G36*
X55348731Y-48035903D02*
X54500203Y-48884431D01*
X53651675Y-48035903D01*
X54500203Y-47187375D01*
X55348731Y-48035903D01*
X55348731Y-48035903D01*
G37*
G04 #@! TD*
D12*
G04 #@! TO.C,R2*
X58614231Y-52238831D03*
D13*
G36*
X59321338Y-52026699D02*
X58402099Y-52945938D01*
X57907124Y-52450963D01*
X58826363Y-51531724D01*
X59321338Y-52026699D01*
X59321338Y-52026699D01*
G37*
D12*
X57270729Y-50895329D03*
D13*
G36*
X57977836Y-50683197D02*
X57058597Y-51602436D01*
X56563622Y-51107461D01*
X57482861Y-50188222D01*
X57977836Y-50683197D01*
X57977836Y-50683197D01*
G37*
G04 #@! TD*
D15*
G04 #@! TO.C,D2*
X58105617Y-47399517D03*
D13*
G36*
X58954145Y-47399517D02*
X58105617Y-48248045D01*
X57257089Y-47399517D01*
X58105617Y-46550989D01*
X58954145Y-47399517D01*
X58954145Y-47399517D01*
G37*
D15*
X56549983Y-45843883D03*
D13*
G36*
X57398511Y-45843883D02*
X56549983Y-46692411D01*
X55701455Y-45843883D01*
X56549983Y-44995355D01*
X57398511Y-45843883D01*
X57398511Y-45843883D01*
G37*
G04 #@! TD*
D15*
G04 #@! TO.C,D3*
X58383863Y-43834743D03*
D13*
G36*
X59232391Y-43834743D02*
X58383863Y-44683271D01*
X57535335Y-43834743D01*
X58383863Y-42986215D01*
X59232391Y-43834743D01*
X59232391Y-43834743D01*
G37*
D15*
X59939497Y-45390377D03*
D13*
G36*
X60788025Y-45390377D02*
X59939497Y-46238905D01*
X59090969Y-45390377D01*
X59939497Y-44541849D01*
X60788025Y-45390377D01*
X60788025Y-45390377D01*
G37*
G04 #@! TD*
D12*
G04 #@! TO.C,R3*
X59328129Y-48642349D03*
D13*
G36*
X60035236Y-48430217D02*
X59115997Y-49349456D01*
X58621022Y-48854481D01*
X59540261Y-47935242D01*
X60035236Y-48430217D01*
X60035236Y-48430217D01*
G37*
D12*
X60671631Y-49985851D03*
D13*
G36*
X61378738Y-49773719D02*
X60459499Y-50692958D01*
X59964524Y-50197983D01*
X60883763Y-49278744D01*
X61378738Y-49773719D01*
X61378738Y-49773719D01*
G37*
G04 #@! TD*
D12*
G04 #@! TO.C,R4*
X62487731Y-47864951D03*
D13*
G36*
X63194838Y-47652819D02*
X62275599Y-48572058D01*
X61780624Y-48077083D01*
X62699863Y-47157844D01*
X63194838Y-47652819D01*
X63194838Y-47652819D01*
G37*
D12*
X61144229Y-46521449D03*
D13*
G36*
X61851336Y-46309317D02*
X60932097Y-47228556D01*
X60437122Y-46733581D01*
X61356361Y-45814342D01*
X61851336Y-46309317D01*
X61851336Y-46309317D01*
G37*
G04 #@! TD*
M02*
