G04 #@! TF.GenerationSoftware,KiCad,Pcbnew,5.0.2-bee76a0~70~ubuntu18.04.1*
G04 #@! TF.CreationDate,2019-11-24T20:15:07-05:00*
G04 #@! TF.ProjectId,328_Hacker,3332385f-4861-4636-9b65-722e6b696361,rev?*
G04 #@! TF.SameCoordinates,Original*
G04 #@! TF.FileFunction,Copper,L2,Bot*
G04 #@! TF.FilePolarity,Positive*
%FSLAX46Y46*%
G04 Gerber Fmt 4.6, Leading zero omitted, Abs format (unit mm)*
G04 Created by KiCad (PCBNEW 5.0.2-bee76a0~70~ubuntu18.04.1) date Sun 24 Nov 2019 08:15:07 PM EST*
%MOMM*%
%LPD*%
G01*
G04 APERTURE LIST*
G04 #@! TA.AperFunction,ComponentPad*
%ADD10C,1.400000*%
G04 #@! TD*
G04 #@! TA.AperFunction,Conductor*
%ADD11C,0.100000*%
G04 #@! TD*
G04 #@! TA.AperFunction,ComponentPad*
%ADD12R,1.700000X1.700000*%
G04 #@! TD*
G04 #@! TA.AperFunction,ComponentPad*
%ADD13O,1.700000X1.700000*%
G04 #@! TD*
G04 #@! TA.AperFunction,ComponentPad*
%ADD14C,1.700000*%
G04 #@! TD*
G04 #@! TA.AperFunction,Conductor*
%ADD15C,1.700000*%
G04 #@! TD*
G04 #@! TA.AperFunction,ViaPad*
%ADD16C,0.609600*%
G04 #@! TD*
G04 #@! TA.AperFunction,Conductor*
%ADD17C,0.152400*%
G04 #@! TD*
G04 #@! TA.AperFunction,Conductor*
%ADD18C,0.254000*%
G04 #@! TD*
G04 APERTURE END LIST*
D10*
G04 #@! TO.P,J4,1*
G04 #@! TO.N,/MISO*
X68122800Y-39014400D03*
D11*
G04 #@! TD*
G04 #@! TO.N,/MISO*
G04 #@! TO.C,J4*
G36*
X69112749Y-39014400D02*
X68122800Y-40004349D01*
X67132851Y-39014400D01*
X68122800Y-38024451D01*
X69112749Y-39014400D01*
X69112749Y-39014400D01*
G37*
D10*
G04 #@! TO.P,J4,2*
G04 #@! TO.N,VCC*
X66326749Y-37218349D03*
G04 #@! TO.P,J4,3*
G04 #@! TO.N,/SCK*
X69918851Y-37218349D03*
G04 #@! TO.P,J4,4*
G04 #@! TO.N,/MOSI*
X68122800Y-35422298D03*
G04 #@! TO.P,J4,5*
G04 #@! TO.N,/~RESET*
X71714902Y-35422298D03*
G04 #@! TO.P,J4,6*
G04 #@! TO.N,GND*
X69918851Y-33626246D03*
G04 #@! TD*
G04 #@! TO.P,J3,6*
G04 #@! TO.N,GND*
X82618851Y-46123046D03*
G04 #@! TO.P,J3,5*
G04 #@! TO.N,Net-(J3-Pad5)*
X84414902Y-47919098D03*
G04 #@! TO.P,J3,4*
G04 #@! TO.N,/TxD*
X80822800Y-47919098D03*
G04 #@! TO.P,J3,3*
G04 #@! TO.N,/RxD*
X82618851Y-49715149D03*
G04 #@! TO.P,J3,2*
G04 #@! TO.N,VCC*
X79026749Y-49715149D03*
G04 #@! TO.P,J3,1*
G04 #@! TO.N,Net-(J3-Pad1)*
X80822800Y-51511200D03*
D11*
G04 #@! TD*
G04 #@! TO.N,Net-(J3-Pad1)*
G04 #@! TO.C,J3*
G36*
X81812749Y-51511200D02*
X80822800Y-52501149D01*
X79832851Y-51511200D01*
X80822800Y-50521251D01*
X81812749Y-51511200D01*
X81812749Y-51511200D01*
G37*
D12*
G04 #@! TO.P,J1,1*
G04 #@! TO.N,VCC*
X63500000Y-60960000D03*
D13*
G04 #@! TO.P,J1,2*
G04 #@! TO.N,GND*
X63500000Y-63500000D03*
G04 #@! TO.P,J1,3*
G04 #@! TO.N,/1L*
X63500000Y-66040000D03*
G04 #@! TO.P,J1,4*
G04 #@! TO.N,/2L*
X63500000Y-68580000D03*
G04 #@! TO.P,J1,5*
G04 #@! TO.N,/3L*
X63500000Y-71120000D03*
G04 #@! TO.P,J1,6*
G04 #@! TO.N,/4L*
X63500000Y-73660000D03*
G04 #@! TO.P,J1,7*
G04 #@! TO.N,/5L*
X63500000Y-76200000D03*
G04 #@! TO.P,J1,8*
G04 #@! TO.N,/6L*
X63500000Y-78740000D03*
G04 #@! TO.P,J1,9*
G04 #@! TO.N,/7L*
X63500000Y-81280000D03*
G04 #@! TO.P,J1,10*
G04 #@! TO.N,/8L*
X63500000Y-83820000D03*
G04 #@! TO.P,J1,11*
G04 #@! TO.N,/9L*
X63500000Y-86360000D03*
G04 #@! TD*
G04 #@! TO.P,J2,11*
G04 #@! TO.N,GND*
X76200000Y-86360000D03*
G04 #@! TO.P,J2,10*
G04 #@! TO.N,/10L*
X76200000Y-83820000D03*
G04 #@! TO.P,J2,9*
G04 #@! TO.N,/10R*
X76200000Y-81280000D03*
G04 #@! TO.P,J2,8*
G04 #@! TO.N,/9R*
X76200000Y-78740000D03*
G04 #@! TO.P,J2,7*
G04 #@! TO.N,/8R*
X76200000Y-76200000D03*
G04 #@! TO.P,J2,6*
G04 #@! TO.N,/7R*
X76200000Y-73660000D03*
G04 #@! TO.P,J2,5*
G04 #@! TO.N,/6R*
X76200000Y-71120000D03*
G04 #@! TO.P,J2,4*
G04 #@! TO.N,/5R*
X76200000Y-68580000D03*
G04 #@! TO.P,J2,3*
G04 #@! TO.N,/4R*
X76200000Y-66040000D03*
G04 #@! TO.P,J2,2*
G04 #@! TO.N,GND*
X76200000Y-63500000D03*
D12*
G04 #@! TO.P,J2,1*
G04 #@! TO.N,VCC*
X76200000Y-60960000D03*
G04 #@! TD*
D14*
G04 #@! TO.P,J5,1*
G04 #@! TO.N,/MISO*
X63599060Y-43576240D03*
D11*
G04 #@! TD*
G04 #@! TO.N,/MISO*
G04 #@! TO.C,J5*
G36*
X63599060Y-42374158D02*
X64801142Y-43576240D01*
X63599060Y-44778322D01*
X62396978Y-43576240D01*
X63599060Y-42374158D01*
X63599060Y-42374158D01*
G37*
D14*
G04 #@! TO.P,J5,2*
G04 #@! TO.N,/SCK*
X65395111Y-41780189D03*
D15*
G04 #@! TD*
G04 #@! TO.N,/SCK*
G04 #@! TO.C,J5*
X65395111Y-41780189D02*
X65395111Y-41780189D01*
D14*
G04 #@! TO.P,J5,3*
G04 #@! TO.N,GND*
X61803009Y-41780189D03*
D15*
G04 #@! TD*
G04 #@! TO.N,GND*
G04 #@! TO.C,J5*
X61803009Y-41780189D02*
X61803009Y-41780189D01*
D14*
G04 #@! TO.P,J5,4*
G04 #@! TO.N,/MOSI*
X63599060Y-39984138D03*
D15*
G04 #@! TD*
G04 #@! TO.N,/MOSI*
G04 #@! TO.C,J5*
X63599060Y-39984138D02*
X63599060Y-39984138D01*
D16*
G04 #@! TO.N,GND*
X75984100Y-40690800D03*
X71592440Y-44084240D03*
X76370180Y-47696120D03*
X72138540Y-49070260D03*
X68130420Y-53060600D03*
G04 #@! TO.N,/6R*
X75742800Y-52730400D03*
X74073947Y-54501641D03*
G04 #@! TO.N,/5R*
X76504801Y-52730401D03*
X74879200Y-54381400D03*
G04 #@! TO.N,/4R*
X77103223Y-52258663D03*
X75641200Y-54381400D03*
G04 #@! TO.N,/MISO*
X69920555Y-47739904D03*
X69044582Y-44312640D03*
G04 #@! TO.N,/MOSI*
X69342000Y-47244000D03*
X68224400Y-44246800D03*
G04 #@! TO.N,/~RESET*
X75439017Y-50460617D03*
X76765498Y-48921322D03*
G04 #@! TD*
D17*
G04 #@! TO.N,/6R*
X75742800Y-52730400D02*
X74320400Y-54152800D01*
X74073947Y-54399253D02*
X74320400Y-54152800D01*
X74073947Y-54501641D02*
X74073947Y-54399253D01*
G04 #@! TO.N,/5R*
X76504801Y-52730401D02*
X74879200Y-54356002D01*
X74879200Y-54356002D02*
X74879200Y-54381400D01*
G04 #@! TO.N,/4R*
X77103223Y-52258663D02*
X77103223Y-52919377D01*
X77103223Y-52919377D02*
X75641200Y-54381400D01*
G04 #@! TO.N,/MISO*
X69920555Y-47739904D02*
X69920555Y-45188613D01*
X69920555Y-45188613D02*
X69044582Y-44312640D01*
X64270811Y-41308159D02*
X66564570Y-39014400D01*
X66564570Y-39014400D02*
X67032851Y-39014400D01*
X64270811Y-42904489D02*
X64270811Y-41308159D01*
X67032851Y-39014400D02*
X68122800Y-39014400D01*
X63599060Y-43576240D02*
X64270811Y-42904489D01*
G04 #@! TO.N,/MOSI*
X69342000Y-47244000D02*
X69342000Y-45364400D01*
X69342000Y-45364400D02*
X68224400Y-44246800D01*
G04 #@! TO.N,/~RESET*
X75439017Y-50460617D02*
X76765498Y-49134136D01*
X76765498Y-49134136D02*
X76765498Y-48921322D01*
G04 #@! TD*
D18*
G04 #@! TO.N,GND*
G36*
X86641353Y-47853600D02*
X78322263Y-56172691D01*
X78260896Y-56213695D01*
X78219892Y-56275062D01*
X78219891Y-56275063D01*
X78098446Y-56456818D01*
X78041402Y-56743600D01*
X78055801Y-56815989D01*
X78055800Y-87758600D01*
X64079776Y-87758600D01*
X64570625Y-87430625D01*
X64898839Y-86939418D01*
X65014092Y-86360000D01*
X64898839Y-85780582D01*
X64570625Y-85289375D01*
X64272239Y-85090000D01*
X64570625Y-84890625D01*
X64898839Y-84399418D01*
X65014092Y-83820000D01*
X64898839Y-83240582D01*
X64570625Y-82749375D01*
X64272239Y-82550000D01*
X64570625Y-82350625D01*
X64898839Y-81859418D01*
X65014092Y-81280000D01*
X64898839Y-80700582D01*
X64570625Y-80209375D01*
X64272239Y-80010000D01*
X64570625Y-79810625D01*
X64898839Y-79319418D01*
X65014092Y-78740000D01*
X64898839Y-78160582D01*
X64570625Y-77669375D01*
X64272239Y-77470000D01*
X64570625Y-77270625D01*
X64898839Y-76779418D01*
X65014092Y-76200000D01*
X64898839Y-75620582D01*
X64570625Y-75129375D01*
X64272239Y-74930000D01*
X64570625Y-74730625D01*
X64898839Y-74239418D01*
X65014092Y-73660000D01*
X64898839Y-73080582D01*
X64570625Y-72589375D01*
X64272239Y-72390000D01*
X64570625Y-72190625D01*
X64898839Y-71699418D01*
X65014092Y-71120000D01*
X64898839Y-70540582D01*
X64570625Y-70049375D01*
X64272239Y-69850000D01*
X64570625Y-69650625D01*
X64898839Y-69159418D01*
X65014092Y-68580000D01*
X64898839Y-68000582D01*
X64570625Y-67509375D01*
X64272239Y-67310000D01*
X64570625Y-67110625D01*
X64898839Y-66619418D01*
X65014092Y-66040000D01*
X74685908Y-66040000D01*
X74801161Y-66619418D01*
X75129375Y-67110625D01*
X75427761Y-67310000D01*
X75129375Y-67509375D01*
X74801161Y-68000582D01*
X74685908Y-68580000D01*
X74801161Y-69159418D01*
X75129375Y-69650625D01*
X75427761Y-69850000D01*
X75129375Y-70049375D01*
X74801161Y-70540582D01*
X74685908Y-71120000D01*
X74801161Y-71699418D01*
X75129375Y-72190625D01*
X75427761Y-72390000D01*
X75129375Y-72589375D01*
X74801161Y-73080582D01*
X74685908Y-73660000D01*
X74801161Y-74239418D01*
X75129375Y-74730625D01*
X75427761Y-74930000D01*
X75129375Y-75129375D01*
X74801161Y-75620582D01*
X74685908Y-76200000D01*
X74801161Y-76779418D01*
X75129375Y-77270625D01*
X75427761Y-77470000D01*
X75129375Y-77669375D01*
X74801161Y-78160582D01*
X74685908Y-78740000D01*
X74801161Y-79319418D01*
X75129375Y-79810625D01*
X75427761Y-80010000D01*
X75129375Y-80209375D01*
X74801161Y-80700582D01*
X74685908Y-81280000D01*
X74801161Y-81859418D01*
X75129375Y-82350625D01*
X75427761Y-82550000D01*
X75129375Y-82749375D01*
X74801161Y-83240582D01*
X74685908Y-83820000D01*
X74801161Y-84399418D01*
X75129375Y-84890625D01*
X75620582Y-85218839D01*
X76053744Y-85305000D01*
X76346256Y-85305000D01*
X76779418Y-85218839D01*
X77270625Y-84890625D01*
X77598839Y-84399418D01*
X77714092Y-83820000D01*
X77598839Y-83240582D01*
X77270625Y-82749375D01*
X76972239Y-82550000D01*
X77270625Y-82350625D01*
X77598839Y-81859418D01*
X77714092Y-81280000D01*
X77598839Y-80700582D01*
X77270625Y-80209375D01*
X76972239Y-80010000D01*
X77270625Y-79810625D01*
X77598839Y-79319418D01*
X77714092Y-78740000D01*
X77598839Y-78160582D01*
X77270625Y-77669375D01*
X76972239Y-77470000D01*
X77270625Y-77270625D01*
X77598839Y-76779418D01*
X77714092Y-76200000D01*
X77598839Y-75620582D01*
X77270625Y-75129375D01*
X76972239Y-74930000D01*
X77270625Y-74730625D01*
X77598839Y-74239418D01*
X77714092Y-73660000D01*
X77598839Y-73080582D01*
X77270625Y-72589375D01*
X76972239Y-72390000D01*
X77270625Y-72190625D01*
X77598839Y-71699418D01*
X77714092Y-71120000D01*
X77598839Y-70540582D01*
X77270625Y-70049375D01*
X76972239Y-69850000D01*
X77270625Y-69650625D01*
X77598839Y-69159418D01*
X77714092Y-68580000D01*
X77598839Y-68000582D01*
X77270625Y-67509375D01*
X76972239Y-67310000D01*
X77270625Y-67110625D01*
X77598839Y-66619418D01*
X77714092Y-66040000D01*
X77598839Y-65460582D01*
X77270625Y-64969375D01*
X76779418Y-64641161D01*
X76346256Y-64555000D01*
X76053744Y-64555000D01*
X75620582Y-64641161D01*
X75129375Y-64969375D01*
X74801161Y-65460582D01*
X74685908Y-66040000D01*
X65014092Y-66040000D01*
X64898839Y-65460582D01*
X64570625Y-64969375D01*
X64079418Y-64641161D01*
X63646256Y-64555000D01*
X63353744Y-64555000D01*
X62920582Y-64641161D01*
X62429375Y-64969375D01*
X62101161Y-65460582D01*
X61985908Y-66040000D01*
X62101161Y-66619418D01*
X62429375Y-67110625D01*
X62727761Y-67310000D01*
X62429375Y-67509375D01*
X62101161Y-68000582D01*
X61985908Y-68580000D01*
X62101161Y-69159418D01*
X62429375Y-69650625D01*
X62727761Y-69850000D01*
X62429375Y-70049375D01*
X62101161Y-70540582D01*
X61985908Y-71120000D01*
X62101161Y-71699418D01*
X62429375Y-72190625D01*
X62727761Y-72390000D01*
X62429375Y-72589375D01*
X62101161Y-73080582D01*
X61985908Y-73660000D01*
X62101161Y-74239418D01*
X62429375Y-74730625D01*
X62727761Y-74930000D01*
X62429375Y-75129375D01*
X62101161Y-75620582D01*
X61985908Y-76200000D01*
X62101161Y-76779418D01*
X62429375Y-77270625D01*
X62727761Y-77470000D01*
X62429375Y-77669375D01*
X62101161Y-78160582D01*
X61985908Y-78740000D01*
X62101161Y-79319418D01*
X62429375Y-79810625D01*
X62727761Y-80010000D01*
X62429375Y-80209375D01*
X62101161Y-80700582D01*
X61985908Y-81280000D01*
X62101161Y-81859418D01*
X62429375Y-82350625D01*
X62727761Y-82550000D01*
X62429375Y-82749375D01*
X62101161Y-83240582D01*
X61985908Y-83820000D01*
X62101161Y-84399418D01*
X62429375Y-84890625D01*
X62727761Y-85090000D01*
X62429375Y-85289375D01*
X62101161Y-85780582D01*
X61985908Y-86360000D01*
X62101161Y-86939418D01*
X62429375Y-87430625D01*
X62920224Y-87758600D01*
X61745800Y-87758600D01*
X61745800Y-60110000D01*
X62002560Y-60110000D01*
X62002560Y-61810000D01*
X62051843Y-62057765D01*
X62192191Y-62267809D01*
X62402235Y-62408157D01*
X62650000Y-62457440D01*
X64350000Y-62457440D01*
X64597765Y-62408157D01*
X64807809Y-62267809D01*
X64948157Y-62057765D01*
X64997440Y-61810000D01*
X64997440Y-60110000D01*
X74702560Y-60110000D01*
X74702560Y-61810000D01*
X74751843Y-62057765D01*
X74892191Y-62267809D01*
X75102235Y-62408157D01*
X75350000Y-62457440D01*
X77050000Y-62457440D01*
X77297765Y-62408157D01*
X77507809Y-62267809D01*
X77648157Y-62057765D01*
X77697440Y-61810000D01*
X77697440Y-60110000D01*
X77648157Y-59862235D01*
X77507809Y-59652191D01*
X77297765Y-59511843D01*
X77050000Y-59462560D01*
X75350000Y-59462560D01*
X75102235Y-59511843D01*
X74892191Y-59652191D01*
X74751843Y-59862235D01*
X74702560Y-60110000D01*
X64997440Y-60110000D01*
X64948157Y-59862235D01*
X64807809Y-59652191D01*
X64597765Y-59511843D01*
X64350000Y-59462560D01*
X62650000Y-59462560D01*
X62402235Y-59511843D01*
X62192191Y-59652191D01*
X62051843Y-59862235D01*
X62002560Y-60110000D01*
X61745800Y-60110000D01*
X61745800Y-56815988D01*
X61760199Y-56743600D01*
X61703154Y-56456818D01*
X61703154Y-56456817D01*
X61540705Y-56213695D01*
X61479338Y-56172691D01*
X59621350Y-54314703D01*
X73134147Y-54314703D01*
X73134147Y-54688579D01*
X73277223Y-55033995D01*
X73541593Y-55298365D01*
X73887009Y-55441441D01*
X74260885Y-55441441D01*
X74606301Y-55298365D01*
X74615332Y-55289334D01*
X74692262Y-55321200D01*
X75066138Y-55321200D01*
X75260200Y-55240817D01*
X75454262Y-55321200D01*
X75828138Y-55321200D01*
X76173554Y-55178124D01*
X76437924Y-54913754D01*
X76581000Y-54568338D01*
X76581000Y-54447388D01*
X77556590Y-53471799D01*
X77615969Y-53432123D01*
X77655645Y-53372744D01*
X77655647Y-53372742D01*
X77732956Y-53257041D01*
X77773159Y-53196873D01*
X77814423Y-52989423D01*
X77814423Y-52989419D01*
X77828355Y-52919377D01*
X77818937Y-52872027D01*
X77899947Y-52791017D01*
X78043023Y-52445601D01*
X78043023Y-52071725D01*
X77899947Y-51726309D01*
X77635577Y-51461939D01*
X77290161Y-51318863D01*
X76916285Y-51318863D01*
X76570869Y-51461939D01*
X76306499Y-51726309D01*
X76271999Y-51809598D01*
X76123802Y-51870984D01*
X75929738Y-51790600D01*
X75555862Y-51790600D01*
X75210446Y-51933676D01*
X74946076Y-52198046D01*
X74803000Y-52543462D01*
X74803000Y-52664411D01*
X73905571Y-53561841D01*
X73887009Y-53561841D01*
X73541593Y-53704917D01*
X73277223Y-53969287D01*
X73134147Y-54314703D01*
X59621350Y-54314703D01*
X55580326Y-50273679D01*
X74499217Y-50273679D01*
X74499217Y-50647555D01*
X74642293Y-50992971D01*
X74906663Y-51257341D01*
X75252079Y-51400417D01*
X75625955Y-51400417D01*
X75971371Y-51257341D01*
X76235741Y-50992971D01*
X76378817Y-50647555D01*
X76378817Y-50526605D01*
X77109259Y-49796164D01*
X77297852Y-49718046D01*
X77562222Y-49453676D01*
X77563909Y-49449601D01*
X77691749Y-49449601D01*
X77691749Y-49980697D01*
X77894991Y-50471366D01*
X78270532Y-50846907D01*
X78761201Y-51050149D01*
X79292297Y-51050149D01*
X79439086Y-50989347D01*
X79375042Y-51053391D01*
X79234694Y-51263435D01*
X79185411Y-51511200D01*
X79234694Y-51758965D01*
X79375042Y-51969009D01*
X80364991Y-52958958D01*
X80575035Y-53099306D01*
X80822800Y-53148589D01*
X81070565Y-53099306D01*
X81280609Y-52958958D01*
X82270558Y-51969009D01*
X82410906Y-51758965D01*
X82460189Y-51511200D01*
X82410906Y-51263435D01*
X82270558Y-51053391D01*
X82206514Y-50989347D01*
X82353303Y-51050149D01*
X82884399Y-51050149D01*
X83375068Y-50846907D01*
X83750609Y-50471366D01*
X83953851Y-49980697D01*
X83953851Y-49449601D01*
X83815609Y-49115856D01*
X84149354Y-49254098D01*
X84680450Y-49254098D01*
X85171119Y-49050856D01*
X85546660Y-48675315D01*
X85749902Y-48184646D01*
X85749902Y-47653550D01*
X85546660Y-47162881D01*
X85171119Y-46787340D01*
X84680450Y-46584098D01*
X84149354Y-46584098D01*
X83658685Y-46787340D01*
X83283144Y-47162881D01*
X83079902Y-47653550D01*
X83079902Y-48184646D01*
X83218144Y-48518391D01*
X82884399Y-48380149D01*
X82353303Y-48380149D01*
X82019558Y-48518391D01*
X82157800Y-48184646D01*
X82157800Y-47653550D01*
X81954558Y-47162881D01*
X81579017Y-46787340D01*
X81088348Y-46584098D01*
X80557252Y-46584098D01*
X80066583Y-46787340D01*
X79691042Y-47162881D01*
X79487800Y-47653550D01*
X79487800Y-48184646D01*
X79626042Y-48518391D01*
X79292297Y-48380149D01*
X78761201Y-48380149D01*
X78270532Y-48583391D01*
X77894991Y-48958932D01*
X77691749Y-49449601D01*
X77563909Y-49449601D01*
X77705298Y-49108260D01*
X77705298Y-48734384D01*
X77562222Y-48388968D01*
X77297852Y-48124598D01*
X76952436Y-47981522D01*
X76578560Y-47981522D01*
X76233144Y-48124598D01*
X75968774Y-48388968D01*
X75825698Y-48734384D01*
X75825698Y-49068147D01*
X75373029Y-49520817D01*
X75252079Y-49520817D01*
X74906663Y-49663893D01*
X74642293Y-49928263D01*
X74499217Y-50273679D01*
X55580326Y-50273679D01*
X53160246Y-47853600D01*
X57437606Y-43576240D01*
X61749538Y-43576240D01*
X61798821Y-43824005D01*
X61939169Y-44034049D01*
X63141251Y-45236131D01*
X63351295Y-45376479D01*
X63599060Y-45425762D01*
X63846825Y-45376479D01*
X64056869Y-45236131D01*
X65233138Y-44059862D01*
X67284600Y-44059862D01*
X67284600Y-44433738D01*
X67427676Y-44779154D01*
X67692046Y-45043524D01*
X68037462Y-45186600D01*
X68158412Y-45186600D01*
X68630801Y-45658990D01*
X68630800Y-46626122D01*
X68545276Y-46711646D01*
X68402200Y-47057062D01*
X68402200Y-47430938D01*
X68545276Y-47776354D01*
X68809646Y-48040724D01*
X69073134Y-48149864D01*
X69123831Y-48272258D01*
X69388201Y-48536628D01*
X69733617Y-48679704D01*
X70107493Y-48679704D01*
X70452909Y-48536628D01*
X70717279Y-48272258D01*
X70860355Y-47926842D01*
X70860355Y-47552966D01*
X70717279Y-47207550D01*
X70631755Y-47122026D01*
X70631755Y-45258655D01*
X70645687Y-45188613D01*
X70631755Y-45118571D01*
X70631755Y-45118567D01*
X70590491Y-44911117D01*
X70493529Y-44766004D01*
X70472979Y-44735248D01*
X70472977Y-44735246D01*
X70433301Y-44675867D01*
X70373922Y-44636191D01*
X69984382Y-44246652D01*
X69984382Y-44125702D01*
X69841306Y-43780286D01*
X69576936Y-43515916D01*
X69231520Y-43372840D01*
X68857644Y-43372840D01*
X68713967Y-43432353D01*
X68411338Y-43307000D01*
X68037462Y-43307000D01*
X67692046Y-43450076D01*
X67427676Y-43714446D01*
X67284600Y-44059862D01*
X65233138Y-44059862D01*
X65258951Y-44034049D01*
X65399299Y-43824005D01*
X65448582Y-43576240D01*
X65399299Y-43328475D01*
X65357012Y-43265189D01*
X65541367Y-43265189D01*
X65974529Y-43179028D01*
X66465736Y-42850814D01*
X66793950Y-42359607D01*
X66909203Y-41780189D01*
X66793950Y-41200771D01*
X66465736Y-40709564D01*
X66111732Y-40473026D01*
X66859159Y-39725600D01*
X66928433Y-39725600D01*
X67664991Y-40462158D01*
X67875035Y-40602506D01*
X68122800Y-40651789D01*
X68370565Y-40602506D01*
X68580609Y-40462158D01*
X69570558Y-39472209D01*
X69710906Y-39262165D01*
X69760189Y-39014400D01*
X69710906Y-38766635D01*
X69570558Y-38556591D01*
X69506514Y-38492547D01*
X69653303Y-38553349D01*
X70184399Y-38553349D01*
X70675068Y-38350107D01*
X71050609Y-37974566D01*
X71253851Y-37483897D01*
X71253851Y-36952801D01*
X71115609Y-36619056D01*
X71449354Y-36757298D01*
X71980450Y-36757298D01*
X72471119Y-36554056D01*
X72846660Y-36178515D01*
X73049902Y-35687846D01*
X73049902Y-35156750D01*
X72846660Y-34666081D01*
X72471119Y-34290540D01*
X71980450Y-34087298D01*
X71449354Y-34087298D01*
X70958685Y-34290540D01*
X70583144Y-34666081D01*
X70379902Y-35156750D01*
X70379902Y-35687846D01*
X70518144Y-36021591D01*
X70184399Y-35883349D01*
X69653303Y-35883349D01*
X69319558Y-36021591D01*
X69457800Y-35687846D01*
X69457800Y-35156750D01*
X69254558Y-34666081D01*
X68879017Y-34290540D01*
X68388348Y-34087298D01*
X67857252Y-34087298D01*
X67366583Y-34290540D01*
X66991042Y-34666081D01*
X66787800Y-35156750D01*
X66787800Y-35687846D01*
X66926042Y-36021591D01*
X66592297Y-35883349D01*
X66061201Y-35883349D01*
X65570532Y-36086591D01*
X65194991Y-36462132D01*
X64991749Y-36952801D01*
X64991749Y-37483897D01*
X65194991Y-37974566D01*
X65570532Y-38350107D01*
X66026803Y-38539101D01*
X66012148Y-38561033D01*
X65026197Y-39546984D01*
X64997899Y-39404720D01*
X64669685Y-38913513D01*
X64178478Y-38585299D01*
X63745316Y-38499138D01*
X63452804Y-38499138D01*
X63019642Y-38585299D01*
X62528435Y-38913513D01*
X62200221Y-39404720D01*
X62084968Y-39984138D01*
X62200221Y-40563556D01*
X62528435Y-41054763D01*
X63019642Y-41382977D01*
X63452804Y-41469138D01*
X63559612Y-41469138D01*
X63559612Y-41734565D01*
X63351295Y-41776001D01*
X63141251Y-41916349D01*
X61939169Y-43118431D01*
X61798821Y-43328475D01*
X61749538Y-43576240D01*
X57437606Y-43576240D01*
X69900800Y-31113047D01*
X86641353Y-47853600D01*
X86641353Y-47853600D01*
G37*
X86641353Y-47853600D02*
X78322263Y-56172691D01*
X78260896Y-56213695D01*
X78219892Y-56275062D01*
X78219891Y-56275063D01*
X78098446Y-56456818D01*
X78041402Y-56743600D01*
X78055801Y-56815989D01*
X78055800Y-87758600D01*
X64079776Y-87758600D01*
X64570625Y-87430625D01*
X64898839Y-86939418D01*
X65014092Y-86360000D01*
X64898839Y-85780582D01*
X64570625Y-85289375D01*
X64272239Y-85090000D01*
X64570625Y-84890625D01*
X64898839Y-84399418D01*
X65014092Y-83820000D01*
X64898839Y-83240582D01*
X64570625Y-82749375D01*
X64272239Y-82550000D01*
X64570625Y-82350625D01*
X64898839Y-81859418D01*
X65014092Y-81280000D01*
X64898839Y-80700582D01*
X64570625Y-80209375D01*
X64272239Y-80010000D01*
X64570625Y-79810625D01*
X64898839Y-79319418D01*
X65014092Y-78740000D01*
X64898839Y-78160582D01*
X64570625Y-77669375D01*
X64272239Y-77470000D01*
X64570625Y-77270625D01*
X64898839Y-76779418D01*
X65014092Y-76200000D01*
X64898839Y-75620582D01*
X64570625Y-75129375D01*
X64272239Y-74930000D01*
X64570625Y-74730625D01*
X64898839Y-74239418D01*
X65014092Y-73660000D01*
X64898839Y-73080582D01*
X64570625Y-72589375D01*
X64272239Y-72390000D01*
X64570625Y-72190625D01*
X64898839Y-71699418D01*
X65014092Y-71120000D01*
X64898839Y-70540582D01*
X64570625Y-70049375D01*
X64272239Y-69850000D01*
X64570625Y-69650625D01*
X64898839Y-69159418D01*
X65014092Y-68580000D01*
X64898839Y-68000582D01*
X64570625Y-67509375D01*
X64272239Y-67310000D01*
X64570625Y-67110625D01*
X64898839Y-66619418D01*
X65014092Y-66040000D01*
X74685908Y-66040000D01*
X74801161Y-66619418D01*
X75129375Y-67110625D01*
X75427761Y-67310000D01*
X75129375Y-67509375D01*
X74801161Y-68000582D01*
X74685908Y-68580000D01*
X74801161Y-69159418D01*
X75129375Y-69650625D01*
X75427761Y-69850000D01*
X75129375Y-70049375D01*
X74801161Y-70540582D01*
X74685908Y-71120000D01*
X74801161Y-71699418D01*
X75129375Y-72190625D01*
X75427761Y-72390000D01*
X75129375Y-72589375D01*
X74801161Y-73080582D01*
X74685908Y-73660000D01*
X74801161Y-74239418D01*
X75129375Y-74730625D01*
X75427761Y-74930000D01*
X75129375Y-75129375D01*
X74801161Y-75620582D01*
X74685908Y-76200000D01*
X74801161Y-76779418D01*
X75129375Y-77270625D01*
X75427761Y-77470000D01*
X75129375Y-77669375D01*
X74801161Y-78160582D01*
X74685908Y-78740000D01*
X74801161Y-79319418D01*
X75129375Y-79810625D01*
X75427761Y-80010000D01*
X75129375Y-80209375D01*
X74801161Y-80700582D01*
X74685908Y-81280000D01*
X74801161Y-81859418D01*
X75129375Y-82350625D01*
X75427761Y-82550000D01*
X75129375Y-82749375D01*
X74801161Y-83240582D01*
X74685908Y-83820000D01*
X74801161Y-84399418D01*
X75129375Y-84890625D01*
X75620582Y-85218839D01*
X76053744Y-85305000D01*
X76346256Y-85305000D01*
X76779418Y-85218839D01*
X77270625Y-84890625D01*
X77598839Y-84399418D01*
X77714092Y-83820000D01*
X77598839Y-83240582D01*
X77270625Y-82749375D01*
X76972239Y-82550000D01*
X77270625Y-82350625D01*
X77598839Y-81859418D01*
X77714092Y-81280000D01*
X77598839Y-80700582D01*
X77270625Y-80209375D01*
X76972239Y-80010000D01*
X77270625Y-79810625D01*
X77598839Y-79319418D01*
X77714092Y-78740000D01*
X77598839Y-78160582D01*
X77270625Y-77669375D01*
X76972239Y-77470000D01*
X77270625Y-77270625D01*
X77598839Y-76779418D01*
X77714092Y-76200000D01*
X77598839Y-75620582D01*
X77270625Y-75129375D01*
X76972239Y-74930000D01*
X77270625Y-74730625D01*
X77598839Y-74239418D01*
X77714092Y-73660000D01*
X77598839Y-73080582D01*
X77270625Y-72589375D01*
X76972239Y-72390000D01*
X77270625Y-72190625D01*
X77598839Y-71699418D01*
X77714092Y-71120000D01*
X77598839Y-70540582D01*
X77270625Y-70049375D01*
X76972239Y-69850000D01*
X77270625Y-69650625D01*
X77598839Y-69159418D01*
X77714092Y-68580000D01*
X77598839Y-68000582D01*
X77270625Y-67509375D01*
X76972239Y-67310000D01*
X77270625Y-67110625D01*
X77598839Y-66619418D01*
X77714092Y-66040000D01*
X77598839Y-65460582D01*
X77270625Y-64969375D01*
X76779418Y-64641161D01*
X76346256Y-64555000D01*
X76053744Y-64555000D01*
X75620582Y-64641161D01*
X75129375Y-64969375D01*
X74801161Y-65460582D01*
X74685908Y-66040000D01*
X65014092Y-66040000D01*
X64898839Y-65460582D01*
X64570625Y-64969375D01*
X64079418Y-64641161D01*
X63646256Y-64555000D01*
X63353744Y-64555000D01*
X62920582Y-64641161D01*
X62429375Y-64969375D01*
X62101161Y-65460582D01*
X61985908Y-66040000D01*
X62101161Y-66619418D01*
X62429375Y-67110625D01*
X62727761Y-67310000D01*
X62429375Y-67509375D01*
X62101161Y-68000582D01*
X61985908Y-68580000D01*
X62101161Y-69159418D01*
X62429375Y-69650625D01*
X62727761Y-69850000D01*
X62429375Y-70049375D01*
X62101161Y-70540582D01*
X61985908Y-71120000D01*
X62101161Y-71699418D01*
X62429375Y-72190625D01*
X62727761Y-72390000D01*
X62429375Y-72589375D01*
X62101161Y-73080582D01*
X61985908Y-73660000D01*
X62101161Y-74239418D01*
X62429375Y-74730625D01*
X62727761Y-74930000D01*
X62429375Y-75129375D01*
X62101161Y-75620582D01*
X61985908Y-76200000D01*
X62101161Y-76779418D01*
X62429375Y-77270625D01*
X62727761Y-77470000D01*
X62429375Y-77669375D01*
X62101161Y-78160582D01*
X61985908Y-78740000D01*
X62101161Y-79319418D01*
X62429375Y-79810625D01*
X62727761Y-80010000D01*
X62429375Y-80209375D01*
X62101161Y-80700582D01*
X61985908Y-81280000D01*
X62101161Y-81859418D01*
X62429375Y-82350625D01*
X62727761Y-82550000D01*
X62429375Y-82749375D01*
X62101161Y-83240582D01*
X61985908Y-83820000D01*
X62101161Y-84399418D01*
X62429375Y-84890625D01*
X62727761Y-85090000D01*
X62429375Y-85289375D01*
X62101161Y-85780582D01*
X61985908Y-86360000D01*
X62101161Y-86939418D01*
X62429375Y-87430625D01*
X62920224Y-87758600D01*
X61745800Y-87758600D01*
X61745800Y-60110000D01*
X62002560Y-60110000D01*
X62002560Y-61810000D01*
X62051843Y-62057765D01*
X62192191Y-62267809D01*
X62402235Y-62408157D01*
X62650000Y-62457440D01*
X64350000Y-62457440D01*
X64597765Y-62408157D01*
X64807809Y-62267809D01*
X64948157Y-62057765D01*
X64997440Y-61810000D01*
X64997440Y-60110000D01*
X74702560Y-60110000D01*
X74702560Y-61810000D01*
X74751843Y-62057765D01*
X74892191Y-62267809D01*
X75102235Y-62408157D01*
X75350000Y-62457440D01*
X77050000Y-62457440D01*
X77297765Y-62408157D01*
X77507809Y-62267809D01*
X77648157Y-62057765D01*
X77697440Y-61810000D01*
X77697440Y-60110000D01*
X77648157Y-59862235D01*
X77507809Y-59652191D01*
X77297765Y-59511843D01*
X77050000Y-59462560D01*
X75350000Y-59462560D01*
X75102235Y-59511843D01*
X74892191Y-59652191D01*
X74751843Y-59862235D01*
X74702560Y-60110000D01*
X64997440Y-60110000D01*
X64948157Y-59862235D01*
X64807809Y-59652191D01*
X64597765Y-59511843D01*
X64350000Y-59462560D01*
X62650000Y-59462560D01*
X62402235Y-59511843D01*
X62192191Y-59652191D01*
X62051843Y-59862235D01*
X62002560Y-60110000D01*
X61745800Y-60110000D01*
X61745800Y-56815988D01*
X61760199Y-56743600D01*
X61703154Y-56456818D01*
X61703154Y-56456817D01*
X61540705Y-56213695D01*
X61479338Y-56172691D01*
X59621350Y-54314703D01*
X73134147Y-54314703D01*
X73134147Y-54688579D01*
X73277223Y-55033995D01*
X73541593Y-55298365D01*
X73887009Y-55441441D01*
X74260885Y-55441441D01*
X74606301Y-55298365D01*
X74615332Y-55289334D01*
X74692262Y-55321200D01*
X75066138Y-55321200D01*
X75260200Y-55240817D01*
X75454262Y-55321200D01*
X75828138Y-55321200D01*
X76173554Y-55178124D01*
X76437924Y-54913754D01*
X76581000Y-54568338D01*
X76581000Y-54447388D01*
X77556590Y-53471799D01*
X77615969Y-53432123D01*
X77655645Y-53372744D01*
X77655647Y-53372742D01*
X77732956Y-53257041D01*
X77773159Y-53196873D01*
X77814423Y-52989423D01*
X77814423Y-52989419D01*
X77828355Y-52919377D01*
X77818937Y-52872027D01*
X77899947Y-52791017D01*
X78043023Y-52445601D01*
X78043023Y-52071725D01*
X77899947Y-51726309D01*
X77635577Y-51461939D01*
X77290161Y-51318863D01*
X76916285Y-51318863D01*
X76570869Y-51461939D01*
X76306499Y-51726309D01*
X76271999Y-51809598D01*
X76123802Y-51870984D01*
X75929738Y-51790600D01*
X75555862Y-51790600D01*
X75210446Y-51933676D01*
X74946076Y-52198046D01*
X74803000Y-52543462D01*
X74803000Y-52664411D01*
X73905571Y-53561841D01*
X73887009Y-53561841D01*
X73541593Y-53704917D01*
X73277223Y-53969287D01*
X73134147Y-54314703D01*
X59621350Y-54314703D01*
X55580326Y-50273679D01*
X74499217Y-50273679D01*
X74499217Y-50647555D01*
X74642293Y-50992971D01*
X74906663Y-51257341D01*
X75252079Y-51400417D01*
X75625955Y-51400417D01*
X75971371Y-51257341D01*
X76235741Y-50992971D01*
X76378817Y-50647555D01*
X76378817Y-50526605D01*
X77109259Y-49796164D01*
X77297852Y-49718046D01*
X77562222Y-49453676D01*
X77563909Y-49449601D01*
X77691749Y-49449601D01*
X77691749Y-49980697D01*
X77894991Y-50471366D01*
X78270532Y-50846907D01*
X78761201Y-51050149D01*
X79292297Y-51050149D01*
X79439086Y-50989347D01*
X79375042Y-51053391D01*
X79234694Y-51263435D01*
X79185411Y-51511200D01*
X79234694Y-51758965D01*
X79375042Y-51969009D01*
X80364991Y-52958958D01*
X80575035Y-53099306D01*
X80822800Y-53148589D01*
X81070565Y-53099306D01*
X81280609Y-52958958D01*
X82270558Y-51969009D01*
X82410906Y-51758965D01*
X82460189Y-51511200D01*
X82410906Y-51263435D01*
X82270558Y-51053391D01*
X82206514Y-50989347D01*
X82353303Y-51050149D01*
X82884399Y-51050149D01*
X83375068Y-50846907D01*
X83750609Y-50471366D01*
X83953851Y-49980697D01*
X83953851Y-49449601D01*
X83815609Y-49115856D01*
X84149354Y-49254098D01*
X84680450Y-49254098D01*
X85171119Y-49050856D01*
X85546660Y-48675315D01*
X85749902Y-48184646D01*
X85749902Y-47653550D01*
X85546660Y-47162881D01*
X85171119Y-46787340D01*
X84680450Y-46584098D01*
X84149354Y-46584098D01*
X83658685Y-46787340D01*
X83283144Y-47162881D01*
X83079902Y-47653550D01*
X83079902Y-48184646D01*
X83218144Y-48518391D01*
X82884399Y-48380149D01*
X82353303Y-48380149D01*
X82019558Y-48518391D01*
X82157800Y-48184646D01*
X82157800Y-47653550D01*
X81954558Y-47162881D01*
X81579017Y-46787340D01*
X81088348Y-46584098D01*
X80557252Y-46584098D01*
X80066583Y-46787340D01*
X79691042Y-47162881D01*
X79487800Y-47653550D01*
X79487800Y-48184646D01*
X79626042Y-48518391D01*
X79292297Y-48380149D01*
X78761201Y-48380149D01*
X78270532Y-48583391D01*
X77894991Y-48958932D01*
X77691749Y-49449601D01*
X77563909Y-49449601D01*
X77705298Y-49108260D01*
X77705298Y-48734384D01*
X77562222Y-48388968D01*
X77297852Y-48124598D01*
X76952436Y-47981522D01*
X76578560Y-47981522D01*
X76233144Y-48124598D01*
X75968774Y-48388968D01*
X75825698Y-48734384D01*
X75825698Y-49068147D01*
X75373029Y-49520817D01*
X75252079Y-49520817D01*
X74906663Y-49663893D01*
X74642293Y-49928263D01*
X74499217Y-50273679D01*
X55580326Y-50273679D01*
X53160246Y-47853600D01*
X57437606Y-43576240D01*
X61749538Y-43576240D01*
X61798821Y-43824005D01*
X61939169Y-44034049D01*
X63141251Y-45236131D01*
X63351295Y-45376479D01*
X63599060Y-45425762D01*
X63846825Y-45376479D01*
X64056869Y-45236131D01*
X65233138Y-44059862D01*
X67284600Y-44059862D01*
X67284600Y-44433738D01*
X67427676Y-44779154D01*
X67692046Y-45043524D01*
X68037462Y-45186600D01*
X68158412Y-45186600D01*
X68630801Y-45658990D01*
X68630800Y-46626122D01*
X68545276Y-46711646D01*
X68402200Y-47057062D01*
X68402200Y-47430938D01*
X68545276Y-47776354D01*
X68809646Y-48040724D01*
X69073134Y-48149864D01*
X69123831Y-48272258D01*
X69388201Y-48536628D01*
X69733617Y-48679704D01*
X70107493Y-48679704D01*
X70452909Y-48536628D01*
X70717279Y-48272258D01*
X70860355Y-47926842D01*
X70860355Y-47552966D01*
X70717279Y-47207550D01*
X70631755Y-47122026D01*
X70631755Y-45258655D01*
X70645687Y-45188613D01*
X70631755Y-45118571D01*
X70631755Y-45118567D01*
X70590491Y-44911117D01*
X70493529Y-44766004D01*
X70472979Y-44735248D01*
X70472977Y-44735246D01*
X70433301Y-44675867D01*
X70373922Y-44636191D01*
X69984382Y-44246652D01*
X69984382Y-44125702D01*
X69841306Y-43780286D01*
X69576936Y-43515916D01*
X69231520Y-43372840D01*
X68857644Y-43372840D01*
X68713967Y-43432353D01*
X68411338Y-43307000D01*
X68037462Y-43307000D01*
X67692046Y-43450076D01*
X67427676Y-43714446D01*
X67284600Y-44059862D01*
X65233138Y-44059862D01*
X65258951Y-44034049D01*
X65399299Y-43824005D01*
X65448582Y-43576240D01*
X65399299Y-43328475D01*
X65357012Y-43265189D01*
X65541367Y-43265189D01*
X65974529Y-43179028D01*
X66465736Y-42850814D01*
X66793950Y-42359607D01*
X66909203Y-41780189D01*
X66793950Y-41200771D01*
X66465736Y-40709564D01*
X66111732Y-40473026D01*
X66859159Y-39725600D01*
X66928433Y-39725600D01*
X67664991Y-40462158D01*
X67875035Y-40602506D01*
X68122800Y-40651789D01*
X68370565Y-40602506D01*
X68580609Y-40462158D01*
X69570558Y-39472209D01*
X69710906Y-39262165D01*
X69760189Y-39014400D01*
X69710906Y-38766635D01*
X69570558Y-38556591D01*
X69506514Y-38492547D01*
X69653303Y-38553349D01*
X70184399Y-38553349D01*
X70675068Y-38350107D01*
X71050609Y-37974566D01*
X71253851Y-37483897D01*
X71253851Y-36952801D01*
X71115609Y-36619056D01*
X71449354Y-36757298D01*
X71980450Y-36757298D01*
X72471119Y-36554056D01*
X72846660Y-36178515D01*
X73049902Y-35687846D01*
X73049902Y-35156750D01*
X72846660Y-34666081D01*
X72471119Y-34290540D01*
X71980450Y-34087298D01*
X71449354Y-34087298D01*
X70958685Y-34290540D01*
X70583144Y-34666081D01*
X70379902Y-35156750D01*
X70379902Y-35687846D01*
X70518144Y-36021591D01*
X70184399Y-35883349D01*
X69653303Y-35883349D01*
X69319558Y-36021591D01*
X69457800Y-35687846D01*
X69457800Y-35156750D01*
X69254558Y-34666081D01*
X68879017Y-34290540D01*
X68388348Y-34087298D01*
X67857252Y-34087298D01*
X67366583Y-34290540D01*
X66991042Y-34666081D01*
X66787800Y-35156750D01*
X66787800Y-35687846D01*
X66926042Y-36021591D01*
X66592297Y-35883349D01*
X66061201Y-35883349D01*
X65570532Y-36086591D01*
X65194991Y-36462132D01*
X64991749Y-36952801D01*
X64991749Y-37483897D01*
X65194991Y-37974566D01*
X65570532Y-38350107D01*
X66026803Y-38539101D01*
X66012148Y-38561033D01*
X65026197Y-39546984D01*
X64997899Y-39404720D01*
X64669685Y-38913513D01*
X64178478Y-38585299D01*
X63745316Y-38499138D01*
X63452804Y-38499138D01*
X63019642Y-38585299D01*
X62528435Y-38913513D01*
X62200221Y-39404720D01*
X62084968Y-39984138D01*
X62200221Y-40563556D01*
X62528435Y-41054763D01*
X63019642Y-41382977D01*
X63452804Y-41469138D01*
X63559612Y-41469138D01*
X63559612Y-41734565D01*
X63351295Y-41776001D01*
X63141251Y-41916349D01*
X61939169Y-43118431D01*
X61798821Y-43328475D01*
X61749538Y-43576240D01*
X57437606Y-43576240D01*
X69900800Y-31113047D01*
X86641353Y-47853600D01*
G04 #@! TD*
M02*
