G04 #@! TF.GenerationSoftware,KiCad,Pcbnew,5.1.4-e60b266~84~ubuntu18.04.1*
G04 #@! TF.CreationDate,2019-11-20T23:53:28-05:00*
G04 #@! TF.ProjectId,sensing_module_interface,73656e73-696e-4675-9f6d-6f64756c655f,rev?*
G04 #@! TF.SameCoordinates,Original*
G04 #@! TF.FileFunction,Legend,Bot*
G04 #@! TF.FilePolarity,Positive*
%FSLAX46Y46*%
G04 Gerber Fmt 4.6, Leading zero omitted, Abs format (unit mm)*
G04 Created by KiCad (PCBNEW 5.1.4-e60b266~84~ubuntu18.04.1) date 2019-11-20 23:53:28*
%MOMM*%
%LPD*%
G04 APERTURE LIST*
%ADD10C,0.150000*%
G04 APERTURE END LIST*
D10*
X115920000Y-84120000D02*
X168920000Y-84120000D01*
X168920000Y-84120000D02*
X168920000Y-62120000D01*
X168920000Y-62120000D02*
X115920000Y-62120000D01*
X115920000Y-62120000D02*
X115920000Y-84120000D01*
X110261400Y-69723000D02*
X110261400Y-61595000D01*
X110261400Y-61595000D02*
X102641400Y-61595000D01*
X102641400Y-61595000D02*
X102641400Y-69723000D01*
X102641400Y-69723000D02*
X110261400Y-69723000D01*
X99568000Y-61468000D02*
X91948000Y-61468000D01*
X99568000Y-69596000D02*
X99568000Y-61468000D01*
X91948000Y-69596000D02*
X99568000Y-69596000D01*
X91948000Y-61468000D02*
X91948000Y-69596000D01*
X102616000Y-82804000D02*
X110236000Y-82804000D01*
X102616000Y-74676000D02*
X102616000Y-82804000D01*
X110236000Y-74676000D02*
X102616000Y-74676000D01*
X110236000Y-82804000D02*
X110236000Y-74676000D01*
X91948000Y-74676000D02*
X91948000Y-82804000D01*
X91948000Y-82804000D02*
X99568000Y-82804000D01*
X99568000Y-82804000D02*
X99568000Y-74676000D01*
X99568000Y-74676000D02*
X91948000Y-74676000D01*
X110236000Y-96012000D02*
X110236000Y-87884000D01*
X110236000Y-87884000D02*
X102616000Y-87884000D01*
X102616000Y-87884000D02*
X102616000Y-96012000D01*
X102616000Y-96012000D02*
X110236000Y-96012000D01*
X99542600Y-87884000D02*
X91922600Y-87884000D01*
X99542600Y-96012000D02*
X99542600Y-87884000D01*
X91922600Y-96012000D02*
X99542600Y-96012000D01*
X91922600Y-87884000D02*
X91922600Y-96012000D01*
X102616000Y-109220000D02*
X110236000Y-109220000D01*
X102616000Y-101092000D02*
X102616000Y-109220000D01*
X110236000Y-101092000D02*
X102616000Y-101092000D01*
X110236000Y-109220000D02*
X110236000Y-101092000D01*
X91948000Y-101092000D02*
X91948000Y-109220000D01*
X91948000Y-109220000D02*
X99568000Y-109220000D01*
X99568000Y-109220000D02*
X99568000Y-101092000D01*
X99568000Y-101092000D02*
X91948000Y-101092000D01*
X102616000Y-122428000D02*
X110236000Y-122428000D01*
X102616000Y-114300000D02*
X102616000Y-122428000D01*
X110236000Y-114300000D02*
X102616000Y-114300000D01*
X110236000Y-122428000D02*
X110236000Y-114300000D01*
X91948000Y-114300000D02*
X91948000Y-122428000D01*
X91948000Y-122428000D02*
X99568000Y-122428000D01*
X99568000Y-122428000D02*
X99568000Y-114300000D01*
X99568000Y-114300000D02*
X91948000Y-114300000D01*
X102616000Y-135636000D02*
X110236000Y-135636000D01*
X102616000Y-127508000D02*
X102616000Y-135636000D01*
X110236000Y-127508000D02*
X102616000Y-127508000D01*
X110236000Y-135636000D02*
X110236000Y-127508000D01*
X91948000Y-127508000D02*
X91948000Y-135636000D01*
X91948000Y-135636000D02*
X99568000Y-135636000D01*
X99568000Y-135636000D02*
X99568000Y-127508000D01*
X99568000Y-127508000D02*
X91948000Y-127508000D01*
X118443333Y-60412380D02*
X118443333Y-61126666D01*
X118490952Y-61269523D01*
X118586190Y-61364761D01*
X118729047Y-61412380D01*
X118824285Y-61412380D01*
X117443333Y-61412380D02*
X118014761Y-61412380D01*
X117729047Y-61412380D02*
X117729047Y-60412380D01*
X117824285Y-60555238D01*
X117919523Y-60650476D01*
X118014761Y-60698095D01*
X110729780Y-67357666D02*
X111444066Y-67357666D01*
X111586923Y-67310047D01*
X111682161Y-67214809D01*
X111729780Y-67071952D01*
X111729780Y-66976714D01*
X110825019Y-67786238D02*
X110777400Y-67833857D01*
X110729780Y-67929095D01*
X110729780Y-68167190D01*
X110777400Y-68262428D01*
X110825019Y-68310047D01*
X110920257Y-68357666D01*
X111015495Y-68357666D01*
X111158352Y-68310047D01*
X111729780Y-67738619D01*
X111729780Y-68357666D01*
X90384380Y-63166666D02*
X91098666Y-63166666D01*
X91241523Y-63119047D01*
X91336761Y-63023809D01*
X91384380Y-62880952D01*
X91384380Y-62785714D01*
X90384380Y-63547619D02*
X90384380Y-64166666D01*
X90765333Y-63833333D01*
X90765333Y-63976190D01*
X90812952Y-64071428D01*
X90860571Y-64119047D01*
X90955809Y-64166666D01*
X91193904Y-64166666D01*
X91289142Y-64119047D01*
X91336761Y-64071428D01*
X91384380Y-63976190D01*
X91384380Y-63690476D01*
X91336761Y-63595238D01*
X91289142Y-63547619D01*
X110704380Y-80438666D02*
X111418666Y-80438666D01*
X111561523Y-80391047D01*
X111656761Y-80295809D01*
X111704380Y-80152952D01*
X111704380Y-80057714D01*
X111037714Y-81343428D02*
X111704380Y-81343428D01*
X110656761Y-81105333D02*
X111371047Y-80867238D01*
X111371047Y-81486285D01*
X90384380Y-76374666D02*
X91098666Y-76374666D01*
X91241523Y-76327047D01*
X91336761Y-76231809D01*
X91384380Y-76088952D01*
X91384380Y-75993714D01*
X90384380Y-77327047D02*
X90384380Y-76850857D01*
X90860571Y-76803238D01*
X90812952Y-76850857D01*
X90765333Y-76946095D01*
X90765333Y-77184190D01*
X90812952Y-77279428D01*
X90860571Y-77327047D01*
X90955809Y-77374666D01*
X91193904Y-77374666D01*
X91289142Y-77327047D01*
X91336761Y-77279428D01*
X91384380Y-77184190D01*
X91384380Y-76946095D01*
X91336761Y-76850857D01*
X91289142Y-76803238D01*
X110704380Y-93646666D02*
X111418666Y-93646666D01*
X111561523Y-93599047D01*
X111656761Y-93503809D01*
X111704380Y-93360952D01*
X111704380Y-93265714D01*
X110704380Y-94551428D02*
X110704380Y-94360952D01*
X110752000Y-94265714D01*
X110799619Y-94218095D01*
X110942476Y-94122857D01*
X111132952Y-94075238D01*
X111513904Y-94075238D01*
X111609142Y-94122857D01*
X111656761Y-94170476D01*
X111704380Y-94265714D01*
X111704380Y-94456190D01*
X111656761Y-94551428D01*
X111609142Y-94599047D01*
X111513904Y-94646666D01*
X111275809Y-94646666D01*
X111180571Y-94599047D01*
X111132952Y-94551428D01*
X111085333Y-94456190D01*
X111085333Y-94265714D01*
X111132952Y-94170476D01*
X111180571Y-94122857D01*
X111275809Y-94075238D01*
X90358980Y-89582666D02*
X91073266Y-89582666D01*
X91216123Y-89535047D01*
X91311361Y-89439809D01*
X91358980Y-89296952D01*
X91358980Y-89201714D01*
X90358980Y-89963619D02*
X90358980Y-90630285D01*
X91358980Y-90201714D01*
X110704380Y-106854666D02*
X111418666Y-106854666D01*
X111561523Y-106807047D01*
X111656761Y-106711809D01*
X111704380Y-106568952D01*
X111704380Y-106473714D01*
X111132952Y-107473714D02*
X111085333Y-107378476D01*
X111037714Y-107330857D01*
X110942476Y-107283238D01*
X110894857Y-107283238D01*
X110799619Y-107330857D01*
X110752000Y-107378476D01*
X110704380Y-107473714D01*
X110704380Y-107664190D01*
X110752000Y-107759428D01*
X110799619Y-107807047D01*
X110894857Y-107854666D01*
X110942476Y-107854666D01*
X111037714Y-107807047D01*
X111085333Y-107759428D01*
X111132952Y-107664190D01*
X111132952Y-107473714D01*
X111180571Y-107378476D01*
X111228190Y-107330857D01*
X111323428Y-107283238D01*
X111513904Y-107283238D01*
X111609142Y-107330857D01*
X111656761Y-107378476D01*
X111704380Y-107473714D01*
X111704380Y-107664190D01*
X111656761Y-107759428D01*
X111609142Y-107807047D01*
X111513904Y-107854666D01*
X111323428Y-107854666D01*
X111228190Y-107807047D01*
X111180571Y-107759428D01*
X111132952Y-107664190D01*
X90384380Y-102790666D02*
X91098666Y-102790666D01*
X91241523Y-102743047D01*
X91336761Y-102647809D01*
X91384380Y-102504952D01*
X91384380Y-102409714D01*
X91384380Y-103314476D02*
X91384380Y-103504952D01*
X91336761Y-103600190D01*
X91289142Y-103647809D01*
X91146285Y-103743047D01*
X90955809Y-103790666D01*
X90574857Y-103790666D01*
X90479619Y-103743047D01*
X90432000Y-103695428D01*
X90384380Y-103600190D01*
X90384380Y-103409714D01*
X90432000Y-103314476D01*
X90479619Y-103266857D01*
X90574857Y-103219238D01*
X90812952Y-103219238D01*
X90908190Y-103266857D01*
X90955809Y-103314476D01*
X91003428Y-103409714D01*
X91003428Y-103600190D01*
X90955809Y-103695428D01*
X90908190Y-103743047D01*
X90812952Y-103790666D01*
X110704380Y-119586476D02*
X111418666Y-119586476D01*
X111561523Y-119538857D01*
X111656761Y-119443619D01*
X111704380Y-119300761D01*
X111704380Y-119205523D01*
X111704380Y-120586476D02*
X111704380Y-120015047D01*
X111704380Y-120300761D02*
X110704380Y-120300761D01*
X110847238Y-120205523D01*
X110942476Y-120110285D01*
X110990095Y-120015047D01*
X110704380Y-121205523D02*
X110704380Y-121300761D01*
X110752000Y-121396000D01*
X110799619Y-121443619D01*
X110894857Y-121491238D01*
X111085333Y-121538857D01*
X111323428Y-121538857D01*
X111513904Y-121491238D01*
X111609142Y-121443619D01*
X111656761Y-121396000D01*
X111704380Y-121300761D01*
X111704380Y-121205523D01*
X111656761Y-121110285D01*
X111609142Y-121062666D01*
X111513904Y-121015047D01*
X111323428Y-120967428D01*
X111085333Y-120967428D01*
X110894857Y-121015047D01*
X110799619Y-121062666D01*
X110752000Y-121110285D01*
X110704380Y-121205523D01*
X90384380Y-115522476D02*
X91098666Y-115522476D01*
X91241523Y-115474857D01*
X91336761Y-115379619D01*
X91384380Y-115236761D01*
X91384380Y-115141523D01*
X91384380Y-116522476D02*
X91384380Y-115951047D01*
X91384380Y-116236761D02*
X90384380Y-116236761D01*
X90527238Y-116141523D01*
X90622476Y-116046285D01*
X90670095Y-115951047D01*
X91384380Y-117474857D02*
X91384380Y-116903428D01*
X91384380Y-117189142D02*
X90384380Y-117189142D01*
X90527238Y-117093904D01*
X90622476Y-116998666D01*
X90670095Y-116903428D01*
X110704380Y-132794476D02*
X111418666Y-132794476D01*
X111561523Y-132746857D01*
X111656761Y-132651619D01*
X111704380Y-132508761D01*
X111704380Y-132413523D01*
X111704380Y-133794476D02*
X111704380Y-133223047D01*
X111704380Y-133508761D02*
X110704380Y-133508761D01*
X110847238Y-133413523D01*
X110942476Y-133318285D01*
X110990095Y-133223047D01*
X110799619Y-134175428D02*
X110752000Y-134223047D01*
X110704380Y-134318285D01*
X110704380Y-134556380D01*
X110752000Y-134651619D01*
X110799619Y-134699238D01*
X110894857Y-134746857D01*
X110990095Y-134746857D01*
X111132952Y-134699238D01*
X111704380Y-134127809D01*
X111704380Y-134746857D01*
X90384380Y-128730476D02*
X91098666Y-128730476D01*
X91241523Y-128682857D01*
X91336761Y-128587619D01*
X91384380Y-128444761D01*
X91384380Y-128349523D01*
X91384380Y-129730476D02*
X91384380Y-129159047D01*
X91384380Y-129444761D02*
X90384380Y-129444761D01*
X90527238Y-129349523D01*
X90622476Y-129254285D01*
X90670095Y-129159047D01*
X90384380Y-130063809D02*
X90384380Y-130682857D01*
X90765333Y-130349523D01*
X90765333Y-130492380D01*
X90812952Y-130587619D01*
X90860571Y-130635238D01*
X90955809Y-130682857D01*
X91193904Y-130682857D01*
X91289142Y-130635238D01*
X91336761Y-130587619D01*
X91384380Y-130492380D01*
X91384380Y-130206666D01*
X91336761Y-130111428D01*
X91289142Y-130063809D01*
M02*
