M48
INCH,TZ
T1C0.0120
T2C0.0157
T3C0.0400
T4C0.0472
T5C0.0630
T6C0.0669
%
G90
G05
T1
X40500Y-18005
X45260Y-15600
X46260Y-18280
X47480Y-21760
X48268Y-17632
X49580Y-22020
X51420Y-21360
X52020Y-22000
X52810Y-19650
X52880Y-17660
X53118Y-16230
X53677Y-16102
X53780Y-15820
X54865Y-19215
X55010Y-18920
X55980Y-22000
T2
X43500Y-22000
X45000Y-19000
X46000Y-19000
T3
X38000Y-16000
X38000Y-17000
X38000Y-18000
X39000Y-16000
X39000Y-17000
X39000Y-18000
T4
X56000Y-19516
X56000Y-20500
X56984Y-19516
X56984Y-20500
X59000Y-19516
X59000Y-20500
X59984Y-19516
X59984Y-20500
X60969Y-19516
X60969Y-20500
X39500Y-21016
X39500Y-22000
T5
X36673Y-21016
X36673Y-22000
T6
X56000Y-16689
X56984Y-16689
X59000Y-16689
X60969Y-16689
T0
M30
