G04 #@! TF.GenerationSoftware,KiCad,Pcbnew,(5.1.4-0-10_14)*
G04 #@! TF.CreationDate,2020-01-14T22:26:38-05:00*
G04 #@! TF.ProjectId,Steering,53746565-7269-46e6-972e-6b696361645f,rev?*
G04 #@! TF.SameCoordinates,Original*
G04 #@! TF.FileFunction,Legend,Top*
G04 #@! TF.FilePolarity,Positive*
%FSLAX46Y46*%
G04 Gerber Fmt 4.6, Leading zero omitted, Abs format (unit mm)*
G04 Created by KiCad (PCBNEW (5.1.4-0-10_14)) date 2020-01-14 22:26:38*
%MOMM*%
%LPD*%
G04 APERTURE LIST*
%ADD10C,0.120000*%
%ADD11C,0.100000*%
%ADD12C,0.150000*%
%ADD13C,0.500000*%
G04 APERTURE END LIST*
D10*
X118880000Y-49110000D02*
X119880000Y-49110000D01*
X119880000Y-47410000D02*
X118880000Y-47410000D01*
X115150000Y-51300000D02*
X115150000Y-50300000D01*
X113450000Y-50300000D02*
X113450000Y-51300000D01*
X135694800Y-43014000D02*
X136694800Y-43014000D01*
X136694800Y-41314000D02*
X135694800Y-41314000D01*
X122690000Y-56730000D02*
X123690000Y-56730000D01*
X123690000Y-55030000D02*
X122690000Y-55030000D01*
X119800000Y-51570000D02*
X119800000Y-52570000D01*
X121500000Y-52570000D02*
X121500000Y-51570000D01*
X141500000Y-56580000D02*
X138700000Y-56580000D01*
X141500000Y-55180000D02*
X138700000Y-55180000D01*
X141500000Y-56580000D02*
X141500000Y-55180000D01*
D11*
X139900000Y-55880000D02*
X139600000Y-56180000D01*
X139600000Y-56180000D02*
X139550000Y-56230000D01*
X139550000Y-56230000D02*
X139550000Y-55580000D01*
X139550000Y-55530000D02*
X139550000Y-55580000D01*
X139550000Y-55580000D02*
X139550000Y-55530000D01*
X139550000Y-55530000D02*
X139900000Y-55880000D01*
X139900000Y-55880000D02*
X139900000Y-56230000D01*
X139900000Y-55530000D02*
X139900000Y-55880000D01*
X134420000Y-56230000D02*
X134420000Y-55880000D01*
X134420000Y-55880000D02*
X134420000Y-55530000D01*
X134770000Y-56230000D02*
X134420000Y-55880000D01*
X134770000Y-56180000D02*
X134770000Y-56230000D01*
X134770000Y-56230000D02*
X134770000Y-56180000D01*
X134770000Y-55530000D02*
X134770000Y-56180000D01*
X134720000Y-55580000D02*
X134770000Y-55530000D01*
X134420000Y-55880000D02*
X134720000Y-55580000D01*
D10*
X132820000Y-55180000D02*
X132820000Y-56580000D01*
X132820000Y-56580000D02*
X135620000Y-56580000D01*
X132820000Y-55180000D02*
X135620000Y-55180000D01*
D11*
X128070000Y-56230000D02*
X128070000Y-55880000D01*
X128070000Y-55880000D02*
X128070000Y-55530000D01*
X128420000Y-56230000D02*
X128070000Y-55880000D01*
X128420000Y-56180000D02*
X128420000Y-56230000D01*
X128420000Y-56230000D02*
X128420000Y-56180000D01*
X128420000Y-55530000D02*
X128420000Y-56180000D01*
X128370000Y-55580000D02*
X128420000Y-55530000D01*
X128070000Y-55880000D02*
X128370000Y-55580000D01*
D10*
X126470000Y-55180000D02*
X126470000Y-56580000D01*
X126470000Y-56580000D02*
X129270000Y-56580000D01*
X126470000Y-55180000D02*
X129270000Y-55180000D01*
X89800000Y-57750000D02*
X98560000Y-57750000D01*
X98560000Y-57750000D02*
X98560000Y-51510000D01*
X98560000Y-51510000D02*
X89800000Y-51510000D01*
X89800000Y-51510000D02*
X89800000Y-57750000D01*
X98560000Y-56030000D02*
X99030000Y-56030000D01*
X99030000Y-56030000D02*
X99030000Y-55730000D01*
X99030000Y-55730000D02*
X98560000Y-55730000D01*
X98560000Y-55730000D02*
X98560000Y-56030000D01*
X98560000Y-53530000D02*
X99030000Y-53530000D01*
X99030000Y-53530000D02*
X99030000Y-53230000D01*
X99030000Y-53230000D02*
X98560000Y-53230000D01*
X98560000Y-53230000D02*
X98560000Y-53530000D01*
X100330000Y-57280000D02*
X100630000Y-57880000D01*
X100630000Y-57880000D02*
X100030000Y-57880000D01*
X100030000Y-57880000D02*
X100330000Y-57280000D01*
X140410000Y-47760000D02*
X146570000Y-47760000D01*
X146570000Y-47760000D02*
X146570000Y-39080000D01*
X146570000Y-39080000D02*
X140410000Y-39080000D01*
X140410000Y-39080000D02*
X140410000Y-47760000D01*
X142390000Y-47760000D02*
X142090000Y-47760000D01*
X142090000Y-47760000D02*
X142090000Y-48460000D01*
X142090000Y-48460000D02*
X142390000Y-48460000D01*
X142390000Y-48460000D02*
X142390000Y-47760000D01*
X144890000Y-47760000D02*
X144590000Y-47760000D01*
X144590000Y-47760000D02*
X144590000Y-48460000D01*
X144590000Y-48460000D02*
X144890000Y-48460000D01*
X144890000Y-48460000D02*
X144890000Y-47760000D01*
X141130000Y-52070000D02*
X140705736Y-51770000D01*
X140705736Y-51770000D02*
X140705736Y-52370000D01*
X140705736Y-52370000D02*
X141130000Y-52070000D01*
X148030000Y-47760000D02*
X156690000Y-47760000D01*
X156690000Y-47760000D02*
X156690000Y-39080000D01*
X156690000Y-39080000D02*
X148030000Y-39080000D01*
X148030000Y-39080000D02*
X148030000Y-47760000D01*
X150010000Y-47760000D02*
X149710000Y-47760000D01*
X149710000Y-47760000D02*
X149710000Y-48460000D01*
X149710000Y-48460000D02*
X150010000Y-48460000D01*
X150010000Y-48460000D02*
X150010000Y-47760000D01*
X152510000Y-47760000D02*
X152210000Y-47760000D01*
X152210000Y-47760000D02*
X152210000Y-48460000D01*
X152210000Y-48460000D02*
X152510000Y-48460000D01*
X152510000Y-48460000D02*
X152510000Y-47760000D01*
X155010000Y-47760000D02*
X154710000Y-47760000D01*
X154710000Y-47760000D02*
X154710000Y-48460000D01*
X154710000Y-48460000D02*
X155010000Y-48460000D01*
X155010000Y-48460000D02*
X155010000Y-47760000D01*
X148750000Y-52070000D02*
X148325736Y-51770000D01*
X148325736Y-51770000D02*
X148325736Y-52370000D01*
X148325736Y-52370000D02*
X148750000Y-52070000D01*
D12*
X95250000Y-41910000D02*
X95250000Y-46990000D01*
X94970000Y-39090000D02*
X96520000Y-39090000D01*
X97790000Y-39370000D02*
X97790000Y-41910000D01*
X97790000Y-41910000D02*
X95250000Y-41910000D01*
X95250000Y-46990000D02*
X100330000Y-46990000D01*
X100330000Y-46990000D02*
X100330000Y-41910000D01*
X94970000Y-39090000D02*
X94970000Y-40640000D01*
X100330000Y-39370000D02*
X97790000Y-39370000D01*
X100330000Y-41910000D02*
X100330000Y-39370000D01*
D10*
X107350000Y-55000000D02*
X108550000Y-55000000D01*
X108550000Y-56760000D02*
X107350000Y-56760000D01*
X107350000Y-41030000D02*
X108550000Y-41030000D01*
X108550000Y-42790000D02*
X107350000Y-42790000D01*
X155540000Y-56760000D02*
X154340000Y-56760000D01*
X154340000Y-55000000D02*
X155540000Y-55000000D01*
X134230000Y-51470000D02*
X134230000Y-52670000D01*
X132470000Y-52670000D02*
X132470000Y-51470000D01*
X150530000Y-55000000D02*
X151730000Y-55000000D01*
X151730000Y-56760000D02*
X150530000Y-56760000D01*
X129930000Y-52670000D02*
X129930000Y-51470000D01*
X131690000Y-51470000D02*
X131690000Y-52670000D01*
X127390000Y-52670000D02*
X127390000Y-51470000D01*
X129150000Y-51470000D02*
X129150000Y-52670000D01*
X147920000Y-56760000D02*
X146720000Y-56760000D01*
X146720000Y-55000000D02*
X147920000Y-55000000D01*
X136880000Y-43570000D02*
X138080000Y-43570000D01*
X138080000Y-45330000D02*
X136880000Y-45330000D01*
X121040000Y-42510000D02*
X121040000Y-41310000D01*
X122800000Y-41310000D02*
X122800000Y-42510000D01*
D12*
X115636600Y-44391400D02*
X115686600Y-44391400D01*
X115636600Y-40241400D02*
X115781600Y-40241400D01*
X120786600Y-40241400D02*
X120641600Y-40241400D01*
X120786600Y-44391400D02*
X120641600Y-44391400D01*
X115636600Y-44391400D02*
X115636600Y-40241400D01*
X120786600Y-44391400D02*
X120786600Y-40241400D01*
X115686600Y-44391400D02*
X115686600Y-45791400D01*
D13*
X125653800Y-41808400D02*
G75*
G03X125653800Y-41808400I-50800J0D01*
G01*
X124104400Y-40055800D02*
G75*
G03X124104400Y-40055800I-50800J0D01*
G01*
D12*
X124645000Y-40825000D02*
X124645000Y-41050000D01*
X131895000Y-40825000D02*
X131895000Y-41150000D01*
X131895000Y-48075000D02*
X131895000Y-47750000D01*
X124645000Y-48075000D02*
X124645000Y-47750000D01*
X124645000Y-40825000D02*
X124970000Y-40825000D01*
X124645000Y-48075000D02*
X124970000Y-48075000D01*
X131895000Y-48075000D02*
X131570000Y-48075000D01*
X131895000Y-40825000D02*
X131570000Y-40825000D01*
X124645000Y-41050000D02*
X123220000Y-41050000D01*
D11*
X122860000Y-54070000D02*
X122860000Y-52070000D01*
X122860000Y-54070000D02*
X124460000Y-54070000D01*
D12*
X119213333Y-50117142D02*
X119165714Y-50164761D01*
X119022857Y-50212380D01*
X118927619Y-50212380D01*
X118784761Y-50164761D01*
X118689523Y-50069523D01*
X118641904Y-49974285D01*
X118594285Y-49783809D01*
X118594285Y-49640952D01*
X118641904Y-49450476D01*
X118689523Y-49355238D01*
X118784761Y-49260000D01*
X118927619Y-49212380D01*
X119022857Y-49212380D01*
X119165714Y-49260000D01*
X119213333Y-49307619D01*
X120165714Y-50212380D02*
X119594285Y-50212380D01*
X119880000Y-50212380D02*
X119880000Y-49212380D01*
X119784761Y-49355238D01*
X119689523Y-49450476D01*
X119594285Y-49498095D01*
X113157142Y-50966666D02*
X113204761Y-51014285D01*
X113252380Y-51157142D01*
X113252380Y-51252380D01*
X113204761Y-51395238D01*
X113109523Y-51490476D01*
X113014285Y-51538095D01*
X112823809Y-51585714D01*
X112680952Y-51585714D01*
X112490476Y-51538095D01*
X112395238Y-51490476D01*
X112300000Y-51395238D01*
X112252380Y-51252380D01*
X112252380Y-51157142D01*
X112300000Y-51014285D01*
X112347619Y-50966666D01*
X112347619Y-50585714D02*
X112300000Y-50538095D01*
X112252380Y-50442857D01*
X112252380Y-50204761D01*
X112300000Y-50109523D01*
X112347619Y-50061904D01*
X112442857Y-50014285D01*
X112538095Y-50014285D01*
X112680952Y-50061904D01*
X113252380Y-50633333D01*
X113252380Y-50014285D01*
X136028133Y-44021142D02*
X135980514Y-44068761D01*
X135837657Y-44116380D01*
X135742419Y-44116380D01*
X135599561Y-44068761D01*
X135504323Y-43973523D01*
X135456704Y-43878285D01*
X135409085Y-43687809D01*
X135409085Y-43544952D01*
X135456704Y-43354476D01*
X135504323Y-43259238D01*
X135599561Y-43164000D01*
X135742419Y-43116380D01*
X135837657Y-43116380D01*
X135980514Y-43164000D01*
X136028133Y-43211619D01*
X136361466Y-43116380D02*
X136980514Y-43116380D01*
X136647180Y-43497333D01*
X136790038Y-43497333D01*
X136885276Y-43544952D01*
X136932895Y-43592571D01*
X136980514Y-43687809D01*
X136980514Y-43925904D01*
X136932895Y-44021142D01*
X136885276Y-44068761D01*
X136790038Y-44116380D01*
X136504323Y-44116380D01*
X136409085Y-44068761D01*
X136361466Y-44021142D01*
X123023333Y-54967142D02*
X122975714Y-55014761D01*
X122832857Y-55062380D01*
X122737619Y-55062380D01*
X122594761Y-55014761D01*
X122499523Y-54919523D01*
X122451904Y-54824285D01*
X122404285Y-54633809D01*
X122404285Y-54490952D01*
X122451904Y-54300476D01*
X122499523Y-54205238D01*
X122594761Y-54110000D01*
X122737619Y-54062380D01*
X122832857Y-54062380D01*
X122975714Y-54110000D01*
X123023333Y-54157619D01*
X123880476Y-54395714D02*
X123880476Y-55062380D01*
X123642380Y-54014761D02*
X123404285Y-54729047D01*
X124023333Y-54729047D01*
X122507142Y-52236666D02*
X122554761Y-52284285D01*
X122602380Y-52427142D01*
X122602380Y-52522380D01*
X122554761Y-52665238D01*
X122459523Y-52760476D01*
X122364285Y-52808095D01*
X122173809Y-52855714D01*
X122030952Y-52855714D01*
X121840476Y-52808095D01*
X121745238Y-52760476D01*
X121650000Y-52665238D01*
X121602380Y-52522380D01*
X121602380Y-52427142D01*
X121650000Y-52284285D01*
X121697619Y-52236666D01*
X121602380Y-51331904D02*
X121602380Y-51808095D01*
X122078571Y-51855714D01*
X122030952Y-51808095D01*
X121983333Y-51712857D01*
X121983333Y-51474761D01*
X122030952Y-51379523D01*
X122078571Y-51331904D01*
X122173809Y-51284285D01*
X122411904Y-51284285D01*
X122507142Y-51331904D01*
X122554761Y-51379523D01*
X122602380Y-51474761D01*
X122602380Y-51712857D01*
X122554761Y-51808095D01*
X122507142Y-51855714D01*
X138961904Y-57782380D02*
X138961904Y-56782380D01*
X139200000Y-56782380D01*
X139342857Y-56830000D01*
X139438095Y-56925238D01*
X139485714Y-57020476D01*
X139533333Y-57210952D01*
X139533333Y-57353809D01*
X139485714Y-57544285D01*
X139438095Y-57639523D01*
X139342857Y-57734761D01*
X139200000Y-57782380D01*
X138961904Y-57782380D01*
X140485714Y-57782380D02*
X139914285Y-57782380D01*
X140200000Y-57782380D02*
X140200000Y-56782380D01*
X140104761Y-56925238D01*
X140009523Y-57020476D01*
X139914285Y-57068095D01*
X133881904Y-54882380D02*
X133881904Y-53882380D01*
X134120000Y-53882380D01*
X134262857Y-53930000D01*
X134358095Y-54025238D01*
X134405714Y-54120476D01*
X134453333Y-54310952D01*
X134453333Y-54453809D01*
X134405714Y-54644285D01*
X134358095Y-54739523D01*
X134262857Y-54834761D01*
X134120000Y-54882380D01*
X133881904Y-54882380D01*
X134834285Y-53977619D02*
X134881904Y-53930000D01*
X134977142Y-53882380D01*
X135215238Y-53882380D01*
X135310476Y-53930000D01*
X135358095Y-53977619D01*
X135405714Y-54072857D01*
X135405714Y-54168095D01*
X135358095Y-54310952D01*
X134786666Y-54882380D01*
X135405714Y-54882380D01*
X127531904Y-54882380D02*
X127531904Y-53882380D01*
X127770000Y-53882380D01*
X127912857Y-53930000D01*
X128008095Y-54025238D01*
X128055714Y-54120476D01*
X128103333Y-54310952D01*
X128103333Y-54453809D01*
X128055714Y-54644285D01*
X128008095Y-54739523D01*
X127912857Y-54834761D01*
X127770000Y-54882380D01*
X127531904Y-54882380D01*
X128436666Y-53882380D02*
X129055714Y-53882380D01*
X128722380Y-54263333D01*
X128865238Y-54263333D01*
X128960476Y-54310952D01*
X129008095Y-54358571D01*
X129055714Y-54453809D01*
X129055714Y-54691904D01*
X129008095Y-54787142D01*
X128960476Y-54834761D01*
X128865238Y-54882380D01*
X128579523Y-54882380D01*
X128484285Y-54834761D01*
X128436666Y-54787142D01*
D10*
X102091904Y-54896666D02*
X102663333Y-54896666D01*
X102777619Y-54934761D01*
X102853809Y-55010952D01*
X102891904Y-55125238D01*
X102891904Y-55201428D01*
X102891904Y-54096666D02*
X102891904Y-54553809D01*
X102891904Y-54325238D02*
X102091904Y-54325238D01*
X102206190Y-54401428D01*
X102282380Y-54477619D01*
X102320476Y-54553809D01*
D12*
X138772380Y-43753333D02*
X139486666Y-43753333D01*
X139629523Y-43800952D01*
X139724761Y-43896190D01*
X139772380Y-44039047D01*
X139772380Y-44134285D01*
X138867619Y-43324761D02*
X138820000Y-43277142D01*
X138772380Y-43181904D01*
X138772380Y-42943809D01*
X138820000Y-42848571D01*
X138867619Y-42800952D01*
X138962857Y-42753333D01*
X139058095Y-42753333D01*
X139200952Y-42800952D01*
X139772380Y-43372380D01*
X139772380Y-42753333D01*
X146392380Y-43753333D02*
X147106666Y-43753333D01*
X147249523Y-43800952D01*
X147344761Y-43896190D01*
X147392380Y-44039047D01*
X147392380Y-44134285D01*
X146392380Y-43372380D02*
X146392380Y-42753333D01*
X146773333Y-43086666D01*
X146773333Y-42943809D01*
X146820952Y-42848571D01*
X146868571Y-42800952D01*
X146963809Y-42753333D01*
X147201904Y-42753333D01*
X147297142Y-42800952D01*
X147344761Y-42848571D01*
X147392380Y-42943809D01*
X147392380Y-43229523D01*
X147344761Y-43324761D01*
X147297142Y-43372380D01*
X97964666Y-37552380D02*
X97964666Y-38266666D01*
X97917047Y-38409523D01*
X97821809Y-38504761D01*
X97678952Y-38552380D01*
X97583714Y-38552380D01*
X98869428Y-37885714D02*
X98869428Y-38552380D01*
X98631333Y-37504761D02*
X98393238Y-38219047D01*
X99012285Y-38219047D01*
X105243333Y-56332380D02*
X104910000Y-55856190D01*
X104671904Y-56332380D02*
X104671904Y-55332380D01*
X105052857Y-55332380D01*
X105148095Y-55380000D01*
X105195714Y-55427619D01*
X105243333Y-55522857D01*
X105243333Y-55665714D01*
X105195714Y-55760952D01*
X105148095Y-55808571D01*
X105052857Y-55856190D01*
X104671904Y-55856190D01*
X106195714Y-56332380D02*
X105624285Y-56332380D01*
X105910000Y-56332380D02*
X105910000Y-55332380D01*
X105814761Y-55475238D01*
X105719523Y-55570476D01*
X105624285Y-55618095D01*
X107783333Y-44012380D02*
X107450000Y-43536190D01*
X107211904Y-44012380D02*
X107211904Y-43012380D01*
X107592857Y-43012380D01*
X107688095Y-43060000D01*
X107735714Y-43107619D01*
X107783333Y-43202857D01*
X107783333Y-43345714D01*
X107735714Y-43440952D01*
X107688095Y-43488571D01*
X107592857Y-43536190D01*
X107211904Y-43536190D01*
X108164285Y-43107619D02*
X108211904Y-43060000D01*
X108307142Y-43012380D01*
X108545238Y-43012380D01*
X108640476Y-43060000D01*
X108688095Y-43107619D01*
X108735714Y-43202857D01*
X108735714Y-43298095D01*
X108688095Y-43440952D01*
X108116666Y-44012380D01*
X108735714Y-44012380D01*
X154773333Y-54682380D02*
X154440000Y-54206190D01*
X154201904Y-54682380D02*
X154201904Y-53682380D01*
X154582857Y-53682380D01*
X154678095Y-53730000D01*
X154725714Y-53777619D01*
X154773333Y-53872857D01*
X154773333Y-54015714D01*
X154725714Y-54110952D01*
X154678095Y-54158571D01*
X154582857Y-54206190D01*
X154201904Y-54206190D01*
X155106666Y-53682380D02*
X155725714Y-53682380D01*
X155392380Y-54063333D01*
X155535238Y-54063333D01*
X155630476Y-54110952D01*
X155678095Y-54158571D01*
X155725714Y-54253809D01*
X155725714Y-54491904D01*
X155678095Y-54587142D01*
X155630476Y-54634761D01*
X155535238Y-54682380D01*
X155249523Y-54682380D01*
X155154285Y-54634761D01*
X155106666Y-54587142D01*
X135452380Y-52236666D02*
X134976190Y-52570000D01*
X135452380Y-52808095D02*
X134452380Y-52808095D01*
X134452380Y-52427142D01*
X134500000Y-52331904D01*
X134547619Y-52284285D01*
X134642857Y-52236666D01*
X134785714Y-52236666D01*
X134880952Y-52284285D01*
X134928571Y-52331904D01*
X134976190Y-52427142D01*
X134976190Y-52808095D01*
X134785714Y-51379523D02*
X135452380Y-51379523D01*
X134404761Y-51617619D02*
X135119047Y-51855714D01*
X135119047Y-51236666D01*
X150963333Y-54682380D02*
X150630000Y-54206190D01*
X150391904Y-54682380D02*
X150391904Y-53682380D01*
X150772857Y-53682380D01*
X150868095Y-53730000D01*
X150915714Y-53777619D01*
X150963333Y-53872857D01*
X150963333Y-54015714D01*
X150915714Y-54110952D01*
X150868095Y-54158571D01*
X150772857Y-54206190D01*
X150391904Y-54206190D01*
X151868095Y-53682380D02*
X151391904Y-53682380D01*
X151344285Y-54158571D01*
X151391904Y-54110952D01*
X151487142Y-54063333D01*
X151725238Y-54063333D01*
X151820476Y-54110952D01*
X151868095Y-54158571D01*
X151915714Y-54253809D01*
X151915714Y-54491904D01*
X151868095Y-54587142D01*
X151820476Y-54634761D01*
X151725238Y-54682380D01*
X151487142Y-54682380D01*
X151391904Y-54634761D01*
X151344285Y-54587142D01*
X132532380Y-54776666D02*
X132056190Y-55110000D01*
X132532380Y-55348095D02*
X131532380Y-55348095D01*
X131532380Y-54967142D01*
X131580000Y-54871904D01*
X131627619Y-54824285D01*
X131722857Y-54776666D01*
X131865714Y-54776666D01*
X131960952Y-54824285D01*
X132008571Y-54871904D01*
X132056190Y-54967142D01*
X132056190Y-55348095D01*
X131532380Y-53919523D02*
X131532380Y-54110000D01*
X131580000Y-54205238D01*
X131627619Y-54252857D01*
X131770476Y-54348095D01*
X131960952Y-54395714D01*
X132341904Y-54395714D01*
X132437142Y-54348095D01*
X132484761Y-54300476D01*
X132532380Y-54205238D01*
X132532380Y-54014761D01*
X132484761Y-53919523D01*
X132437142Y-53871904D01*
X132341904Y-53824285D01*
X132103809Y-53824285D01*
X132008571Y-53871904D01*
X131960952Y-53919523D01*
X131913333Y-54014761D01*
X131913333Y-54205238D01*
X131960952Y-54300476D01*
X132008571Y-54348095D01*
X132103809Y-54395714D01*
X127452380Y-52236666D02*
X126976190Y-52570000D01*
X127452380Y-52808095D02*
X126452380Y-52808095D01*
X126452380Y-52427142D01*
X126500000Y-52331904D01*
X126547619Y-52284285D01*
X126642857Y-52236666D01*
X126785714Y-52236666D01*
X126880952Y-52284285D01*
X126928571Y-52331904D01*
X126976190Y-52427142D01*
X126976190Y-52808095D01*
X126452380Y-51903333D02*
X126452380Y-51236666D01*
X127452380Y-51665238D01*
X147153333Y-54682380D02*
X146820000Y-54206190D01*
X146581904Y-54682380D02*
X146581904Y-53682380D01*
X146962857Y-53682380D01*
X147058095Y-53730000D01*
X147105714Y-53777619D01*
X147153333Y-53872857D01*
X147153333Y-54015714D01*
X147105714Y-54110952D01*
X147058095Y-54158571D01*
X146962857Y-54206190D01*
X146581904Y-54206190D01*
X147724761Y-54110952D02*
X147629523Y-54063333D01*
X147581904Y-54015714D01*
X147534285Y-53920476D01*
X147534285Y-53872857D01*
X147581904Y-53777619D01*
X147629523Y-53730000D01*
X147724761Y-53682380D01*
X147915238Y-53682380D01*
X148010476Y-53730000D01*
X148058095Y-53777619D01*
X148105714Y-53872857D01*
X148105714Y-53920476D01*
X148058095Y-54015714D01*
X148010476Y-54063333D01*
X147915238Y-54110952D01*
X147724761Y-54110952D01*
X147629523Y-54158571D01*
X147581904Y-54206190D01*
X147534285Y-54301428D01*
X147534285Y-54491904D01*
X147581904Y-54587142D01*
X147629523Y-54634761D01*
X147724761Y-54682380D01*
X147915238Y-54682380D01*
X148010476Y-54634761D01*
X148058095Y-54587142D01*
X148105714Y-54491904D01*
X148105714Y-54301428D01*
X148058095Y-54206190D01*
X148010476Y-54158571D01*
X147915238Y-54110952D01*
X137313333Y-47442380D02*
X136980000Y-46966190D01*
X136741904Y-47442380D02*
X136741904Y-46442380D01*
X137122857Y-46442380D01*
X137218095Y-46490000D01*
X137265714Y-46537619D01*
X137313333Y-46632857D01*
X137313333Y-46775714D01*
X137265714Y-46870952D01*
X137218095Y-46918571D01*
X137122857Y-46966190D01*
X136741904Y-46966190D01*
X137789523Y-47442380D02*
X137980000Y-47442380D01*
X138075238Y-47394761D01*
X138122857Y-47347142D01*
X138218095Y-47204285D01*
X138265714Y-47013809D01*
X138265714Y-46632857D01*
X138218095Y-46537619D01*
X138170476Y-46490000D01*
X138075238Y-46442380D01*
X137884761Y-46442380D01*
X137789523Y-46490000D01*
X137741904Y-46537619D01*
X137694285Y-46632857D01*
X137694285Y-46870952D01*
X137741904Y-46966190D01*
X137789523Y-47013809D01*
X137884761Y-47061428D01*
X138075238Y-47061428D01*
X138170476Y-47013809D01*
X138218095Y-46966190D01*
X138265714Y-46870952D01*
X120722380Y-42552857D02*
X120246190Y-42886190D01*
X120722380Y-43124285D02*
X119722380Y-43124285D01*
X119722380Y-42743333D01*
X119770000Y-42648095D01*
X119817619Y-42600476D01*
X119912857Y-42552857D01*
X120055714Y-42552857D01*
X120150952Y-42600476D01*
X120198571Y-42648095D01*
X120246190Y-42743333D01*
X120246190Y-43124285D01*
X120722380Y-41600476D02*
X120722380Y-42171904D01*
X120722380Y-41886190D02*
X119722380Y-41886190D01*
X119865238Y-41981428D01*
X119960476Y-42076666D01*
X120008095Y-42171904D01*
X119722380Y-40981428D02*
X119722380Y-40886190D01*
X119770000Y-40790952D01*
X119817619Y-40743333D01*
X119912857Y-40695714D01*
X120103333Y-40648095D01*
X120341428Y-40648095D01*
X120531904Y-40695714D01*
X120627142Y-40743333D01*
X120674761Y-40790952D01*
X120722380Y-40886190D01*
X120722380Y-40981428D01*
X120674761Y-41076666D01*
X120627142Y-41124285D01*
X120531904Y-41171904D01*
X120341428Y-41219523D01*
X120103333Y-41219523D01*
X119912857Y-41171904D01*
X119817619Y-41124285D01*
X119770000Y-41076666D01*
X119722380Y-40981428D01*
X114163980Y-43078304D02*
X114973504Y-43078304D01*
X115068742Y-43030685D01*
X115116361Y-42983066D01*
X115163980Y-42887828D01*
X115163980Y-42697352D01*
X115116361Y-42602114D01*
X115068742Y-42554495D01*
X114973504Y-42506876D01*
X114163980Y-42506876D01*
X115163980Y-41506876D02*
X115163980Y-42078304D01*
X115163980Y-41792590D02*
X114163980Y-41792590D01*
X114306838Y-41887828D01*
X114402076Y-41983066D01*
X114449695Y-42078304D01*
X127508095Y-37852380D02*
X127508095Y-38661904D01*
X127555714Y-38757142D01*
X127603333Y-38804761D01*
X127698571Y-38852380D01*
X127889047Y-38852380D01*
X127984285Y-38804761D01*
X128031904Y-38757142D01*
X128079523Y-38661904D01*
X128079523Y-37852380D01*
X128508095Y-37947619D02*
X128555714Y-37900000D01*
X128650952Y-37852380D01*
X128889047Y-37852380D01*
X128984285Y-37900000D01*
X129031904Y-37947619D01*
X129079523Y-38042857D01*
X129079523Y-38138095D01*
X129031904Y-38280952D01*
X128460476Y-38852380D01*
X129079523Y-38852380D01*
X121774270Y-53221830D02*
X122250460Y-53221830D01*
X121250460Y-53555163D02*
X121774270Y-53221830D01*
X121250460Y-52888497D01*
X122250460Y-52031354D02*
X122250460Y-52602782D01*
X122250460Y-52317068D02*
X121250460Y-52317068D01*
X121393318Y-52412306D01*
X121488556Y-52507544D01*
X121536175Y-52602782D01*
M02*
