G04 #@! TF.GenerationSoftware,KiCad,Pcbnew,(5.1.4-0-10_14)*
G04 #@! TF.CreationDate,2020-01-14T22:26:38-05:00*
G04 #@! TF.ProjectId,Steering,53746565-7269-46e6-972e-6b696361645f,rev?*
G04 #@! TF.SameCoordinates,Original*
G04 #@! TF.FileFunction,Legend,Bot*
G04 #@! TF.FilePolarity,Positive*
%FSLAX46Y46*%
G04 Gerber Fmt 4.6, Leading zero omitted, Abs format (unit mm)*
G04 Created by KiCad (PCBNEW (5.1.4-0-10_14)) date 2020-01-14 22:26:38*
%MOMM*%
%LPD*%
G04 APERTURE LIST*
%ADD10C,0.300000*%
G04 APERTURE END LIST*
D10*
X102795571Y-39543328D02*
X102795571Y-39829042D01*
X102867000Y-39971900D01*
X103009857Y-40114757D01*
X103295571Y-40186185D01*
X103795571Y-40186185D01*
X104081285Y-40114757D01*
X104224142Y-39971900D01*
X104295571Y-39829042D01*
X104295571Y-39543328D01*
X104224142Y-39400471D01*
X104081285Y-39257614D01*
X103795571Y-39186185D01*
X103295571Y-39186185D01*
X103009857Y-39257614D01*
X102867000Y-39400471D01*
X102795571Y-39543328D01*
X104224142Y-40757614D02*
X104295571Y-40900471D01*
X104295571Y-41186185D01*
X104224142Y-41329042D01*
X104081285Y-41400471D01*
X104009857Y-41400471D01*
X103867000Y-41329042D01*
X103795571Y-41186185D01*
X103795571Y-40971900D01*
X103724142Y-40829042D01*
X103581285Y-40757614D01*
X103509857Y-40757614D01*
X103367000Y-40829042D01*
X103295571Y-40971900D01*
X103295571Y-41186185D01*
X103367000Y-41329042D01*
X104224142Y-42686185D02*
X104295571Y-42543328D01*
X104295571Y-42257614D01*
X104224142Y-42114757D01*
X104152714Y-42043328D01*
X104009857Y-41971900D01*
X103581285Y-41971900D01*
X103438428Y-42043328D01*
X103367000Y-42114757D01*
X103295571Y-42257614D01*
X103295571Y-42543328D01*
X103367000Y-42686185D01*
X104295571Y-43971900D02*
X103509857Y-43971900D01*
X103367000Y-43900471D01*
X103295571Y-43757614D01*
X103295571Y-43471900D01*
X103367000Y-43329042D01*
X104224142Y-43971900D02*
X104295571Y-43829042D01*
X104295571Y-43471900D01*
X104224142Y-43329042D01*
X104081285Y-43257614D01*
X103938428Y-43257614D01*
X103795571Y-43329042D01*
X103724142Y-43471900D01*
X103724142Y-43829042D01*
X103652714Y-43971900D01*
X104295571Y-44686185D02*
X103295571Y-44686185D01*
X103581285Y-44686185D02*
X103438428Y-44757614D01*
X103367000Y-44829042D01*
X103295571Y-44971900D01*
X103295571Y-45114757D01*
X104295571Y-46757614D02*
X102795571Y-46757614D01*
X102795571Y-47114757D01*
X102867000Y-47329042D01*
X103009857Y-47471900D01*
X103152714Y-47543328D01*
X103438428Y-47614757D01*
X103652714Y-47614757D01*
X103938428Y-47543328D01*
X104081285Y-47471900D01*
X104224142Y-47329042D01*
X104295571Y-47114757D01*
X104295571Y-46757614D01*
X104224142Y-48829042D02*
X104295571Y-48686185D01*
X104295571Y-48400471D01*
X104224142Y-48257614D01*
X104081285Y-48186185D01*
X103509857Y-48186185D01*
X103367000Y-48257614D01*
X103295571Y-48400471D01*
X103295571Y-48686185D01*
X103367000Y-48829042D01*
X103509857Y-48900471D01*
X103652714Y-48900471D01*
X103795571Y-48186185D01*
X104295571Y-49757614D02*
X104224142Y-49614757D01*
X104081285Y-49543328D01*
X102795571Y-49543328D01*
X104295571Y-50971900D02*
X103509857Y-50971900D01*
X103367000Y-50900471D01*
X103295571Y-50757614D01*
X103295571Y-50471900D01*
X103367000Y-50329042D01*
X104224142Y-50971900D02*
X104295571Y-50829042D01*
X104295571Y-50471900D01*
X104224142Y-50329042D01*
X104081285Y-50257614D01*
X103938428Y-50257614D01*
X103795571Y-50329042D01*
X103724142Y-50471900D01*
X103724142Y-50829042D01*
X103652714Y-50971900D01*
X103295571Y-52329042D02*
X104509857Y-52329042D01*
X104652714Y-52257614D01*
X104724142Y-52186185D01*
X104795571Y-52043328D01*
X104795571Y-51829042D01*
X104724142Y-51686185D01*
X104224142Y-52329042D02*
X104295571Y-52186185D01*
X104295571Y-51900471D01*
X104224142Y-51757614D01*
X104152714Y-51686185D01*
X104009857Y-51614757D01*
X103581285Y-51614757D01*
X103438428Y-51686185D01*
X103367000Y-51757614D01*
X103295571Y-51900471D01*
X103295571Y-52186185D01*
X103367000Y-52329042D01*
X104295571Y-53686185D02*
X103509857Y-53686185D01*
X103367000Y-53614757D01*
X103295571Y-53471900D01*
X103295571Y-53186185D01*
X103367000Y-53043328D01*
X104224142Y-53686185D02*
X104295571Y-53543328D01*
X104295571Y-53186185D01*
X104224142Y-53043328D01*
X104081285Y-52971900D01*
X103938428Y-52971900D01*
X103795571Y-53043328D01*
X103724142Y-53186185D01*
X103724142Y-53543328D01*
X103652714Y-53686185D01*
X104295571Y-54400471D02*
X103295571Y-54400471D01*
X103581285Y-54400471D02*
X103438428Y-54471900D01*
X103367000Y-54543328D01*
X103295571Y-54686185D01*
X103295571Y-54829042D01*
X103295571Y-55186185D02*
X103295571Y-55971900D01*
X104295571Y-55186185D01*
X104295571Y-55971900D01*
X104295571Y-57186185D02*
X103509857Y-57186185D01*
X103367000Y-57114757D01*
X103295571Y-56971900D01*
X103295571Y-56686185D01*
X103367000Y-56543328D01*
X104224142Y-57186185D02*
X104295571Y-57043328D01*
X104295571Y-56686185D01*
X104224142Y-56543328D01*
X104081285Y-56471900D01*
X103938428Y-56471900D01*
X103795571Y-56543328D01*
X103724142Y-56686185D01*
X103724142Y-57043328D01*
X103652714Y-57186185D01*
X106774142Y-40079042D02*
X106845571Y-40293328D01*
X106845571Y-40650471D01*
X106774142Y-40793328D01*
X106702714Y-40864757D01*
X106559857Y-40936185D01*
X106417000Y-40936185D01*
X106274142Y-40864757D01*
X106202714Y-40793328D01*
X106131285Y-40650471D01*
X106059857Y-40364757D01*
X105988428Y-40221900D01*
X105917000Y-40150471D01*
X105774142Y-40079042D01*
X105631285Y-40079042D01*
X105488428Y-40150471D01*
X105417000Y-40221900D01*
X105345571Y-40364757D01*
X105345571Y-40721900D01*
X105417000Y-40936185D01*
X105845571Y-41364757D02*
X105845571Y-41936185D01*
X105345571Y-41579042D02*
X106631285Y-41579042D01*
X106774142Y-41650471D01*
X106845571Y-41793328D01*
X106845571Y-41936185D01*
X106774142Y-43007614D02*
X106845571Y-42864757D01*
X106845571Y-42579042D01*
X106774142Y-42436185D01*
X106631285Y-42364757D01*
X106059857Y-42364757D01*
X105917000Y-42436185D01*
X105845571Y-42579042D01*
X105845571Y-42864757D01*
X105917000Y-43007614D01*
X106059857Y-43079042D01*
X106202714Y-43079042D01*
X106345571Y-42364757D01*
X106774142Y-44293328D02*
X106845571Y-44150471D01*
X106845571Y-43864757D01*
X106774142Y-43721900D01*
X106631285Y-43650471D01*
X106059857Y-43650471D01*
X105917000Y-43721900D01*
X105845571Y-43864757D01*
X105845571Y-44150471D01*
X105917000Y-44293328D01*
X106059857Y-44364757D01*
X106202714Y-44364757D01*
X106345571Y-43650471D01*
X106845571Y-45007614D02*
X105845571Y-45007614D01*
X106131285Y-45007614D02*
X105988428Y-45079042D01*
X105917000Y-45150471D01*
X105845571Y-45293328D01*
X105845571Y-45436185D01*
X106845571Y-45936185D02*
X105845571Y-45936185D01*
X105345571Y-45936185D02*
X105417000Y-45864757D01*
X105488428Y-45936185D01*
X105417000Y-46007614D01*
X105345571Y-45936185D01*
X105488428Y-45936185D01*
X105845571Y-46650471D02*
X106845571Y-46650471D01*
X105988428Y-46650471D02*
X105917000Y-46721900D01*
X105845571Y-46864757D01*
X105845571Y-47079042D01*
X105917000Y-47221900D01*
X106059857Y-47293328D01*
X106845571Y-47293328D01*
X105845571Y-48650471D02*
X107059857Y-48650471D01*
X107202714Y-48579042D01*
X107274142Y-48507614D01*
X107345571Y-48364757D01*
X107345571Y-48150471D01*
X107274142Y-48007614D01*
X106774142Y-48650471D02*
X106845571Y-48507614D01*
X106845571Y-48221900D01*
X106774142Y-48079042D01*
X106702714Y-48007614D01*
X106559857Y-47936185D01*
X106131285Y-47936185D01*
X105988428Y-48007614D01*
X105917000Y-48079042D01*
X105845571Y-48221900D01*
X105845571Y-48507614D01*
X105917000Y-48650471D01*
X106059857Y-51007614D02*
X106131285Y-51221900D01*
X106202714Y-51293328D01*
X106345571Y-51364757D01*
X106559857Y-51364757D01*
X106702714Y-51293328D01*
X106774142Y-51221900D01*
X106845571Y-51079042D01*
X106845571Y-50507614D01*
X105345571Y-50507614D01*
X105345571Y-51007614D01*
X105417000Y-51150471D01*
X105488428Y-51221900D01*
X105631285Y-51293328D01*
X105774142Y-51293328D01*
X105917000Y-51221900D01*
X105988428Y-51150471D01*
X106059857Y-51007614D01*
X106059857Y-50507614D01*
X106845571Y-52221900D02*
X106774142Y-52079042D01*
X106702714Y-52007614D01*
X106559857Y-51936185D01*
X106131285Y-51936185D01*
X105988428Y-52007614D01*
X105917000Y-52079042D01*
X105845571Y-52221900D01*
X105845571Y-52436185D01*
X105917000Y-52579042D01*
X105988428Y-52650471D01*
X106131285Y-52721900D01*
X106559857Y-52721900D01*
X106702714Y-52650471D01*
X106774142Y-52579042D01*
X106845571Y-52436185D01*
X106845571Y-52221900D01*
X106845571Y-54007614D02*
X106059857Y-54007614D01*
X105917000Y-53936185D01*
X105845571Y-53793328D01*
X105845571Y-53507614D01*
X105917000Y-53364757D01*
X106774142Y-54007614D02*
X106845571Y-53864757D01*
X106845571Y-53507614D01*
X106774142Y-53364757D01*
X106631285Y-53293328D01*
X106488428Y-53293328D01*
X106345571Y-53364757D01*
X106274142Y-53507614D01*
X106274142Y-53864757D01*
X106202714Y-54007614D01*
X106845571Y-54721900D02*
X105845571Y-54721900D01*
X106131285Y-54721900D02*
X105988428Y-54793328D01*
X105917000Y-54864757D01*
X105845571Y-55007614D01*
X105845571Y-55150471D01*
X106845571Y-56293328D02*
X105345571Y-56293328D01*
X106774142Y-56293328D02*
X106845571Y-56150471D01*
X106845571Y-55864757D01*
X106774142Y-55721900D01*
X106702714Y-55650471D01*
X106559857Y-55579042D01*
X106131285Y-55579042D01*
X105988428Y-55650471D01*
X105917000Y-55721900D01*
X105845571Y-55864757D01*
X105845571Y-56150471D01*
X105917000Y-56293328D01*
X109395571Y-41114757D02*
X108681285Y-40614757D01*
X109395571Y-40257614D02*
X107895571Y-40257614D01*
X107895571Y-40829042D01*
X107967000Y-40971900D01*
X108038428Y-41043328D01*
X108181285Y-41114757D01*
X108395571Y-41114757D01*
X108538428Y-41043328D01*
X108609857Y-40971900D01*
X108681285Y-40829042D01*
X108681285Y-40257614D01*
X109324142Y-42329042D02*
X109395571Y-42186185D01*
X109395571Y-41900471D01*
X109324142Y-41757614D01*
X109181285Y-41686185D01*
X108609857Y-41686185D01*
X108467000Y-41757614D01*
X108395571Y-41900471D01*
X108395571Y-42186185D01*
X108467000Y-42329042D01*
X108609857Y-42400471D01*
X108752714Y-42400471D01*
X108895571Y-41686185D01*
X108395571Y-42900471D02*
X109395571Y-43257614D01*
X108395571Y-43614757D01*
X109395571Y-46114757D02*
X109395571Y-45257614D01*
X109395571Y-45686185D02*
X107895571Y-45686185D01*
X108109857Y-45543328D01*
X108252714Y-45400471D01*
X108324142Y-45257614D01*
X109895571Y-48257614D02*
X107752714Y-48257614D01*
X109395571Y-51257614D02*
X109395571Y-50400471D01*
X109395571Y-50829042D02*
X107895571Y-50829042D01*
X108109857Y-50686185D01*
X108252714Y-50543328D01*
X108324142Y-50400471D01*
X108038428Y-51829042D02*
X107967000Y-51900471D01*
X107895571Y-52043328D01*
X107895571Y-52400471D01*
X107967000Y-52543328D01*
X108038428Y-52614757D01*
X108181285Y-52686185D01*
X108324142Y-52686185D01*
X108538428Y-52614757D01*
X109395571Y-51757614D01*
X109395571Y-52686185D01*
X109252714Y-53329042D02*
X109324142Y-53400471D01*
X109395571Y-53329042D01*
X109324142Y-53257614D01*
X109252714Y-53329042D01*
X109395571Y-53329042D01*
X109395571Y-54829042D02*
X109395571Y-53971900D01*
X109395571Y-54400471D02*
X107895571Y-54400471D01*
X108109857Y-54257614D01*
X108252714Y-54114757D01*
X108324142Y-53971900D01*
X107895571Y-56186185D02*
X107895571Y-55471900D01*
X108609857Y-55400471D01*
X108538428Y-55471900D01*
X108467000Y-55614757D01*
X108467000Y-55971900D01*
X108538428Y-56114757D01*
X108609857Y-56186185D01*
X108752714Y-56257614D01*
X109109857Y-56257614D01*
X109252714Y-56186185D01*
X109324142Y-56114757D01*
X109395571Y-55971900D01*
X109395571Y-55614757D01*
X109324142Y-55471900D01*
X109252714Y-55400471D01*
X110445571Y-42221900D02*
X110445571Y-42507614D01*
X110517000Y-42650471D01*
X110659857Y-42793328D01*
X110945571Y-42864757D01*
X111445571Y-42864757D01*
X111731285Y-42793328D01*
X111874142Y-42650471D01*
X111945571Y-42507614D01*
X111945571Y-42221900D01*
X111874142Y-42079042D01*
X111731285Y-41936185D01*
X111445571Y-41864757D01*
X110945571Y-41864757D01*
X110659857Y-41936185D01*
X110517000Y-42079042D01*
X110445571Y-42221900D01*
X111159857Y-43507614D02*
X111159857Y-44007614D01*
X111945571Y-44221900D02*
X111945571Y-43507614D01*
X110445571Y-43507614D01*
X110445571Y-44221900D01*
X111945571Y-44864757D02*
X110445571Y-44864757D01*
X111517000Y-45364757D01*
X110445571Y-45864757D01*
X111945571Y-45864757D01*
X111374142Y-47721900D02*
X111374142Y-48864757D01*
X111945571Y-50721900D02*
X110445571Y-50721900D01*
X111517000Y-51221900D01*
X110445571Y-51721900D01*
X111945571Y-51721900D01*
X111945571Y-52436185D02*
X110445571Y-52436185D01*
X111945571Y-53293328D02*
X111088428Y-52650471D01*
X110445571Y-53293328D02*
X111302714Y-52436185D01*
X110445571Y-53721900D02*
X111945571Y-54221900D01*
X110445571Y-54721900D01*
M02*
