G04 #@! TF.GenerationSoftware,KiCad,Pcbnew,(5.1.4-0-10_14)*
G04 #@! TF.CreationDate,2020-01-14T22:26:38-05:00*
G04 #@! TF.ProjectId,Steering,53746565-7269-46e6-972e-6b696361645f,rev?*
G04 #@! TF.SameCoordinates,Original*
G04 #@! TF.FileFunction,Copper,L2,Bot*
G04 #@! TF.FilePolarity,Positive*
%FSLAX46Y46*%
G04 Gerber Fmt 4.6, Leading zero omitted, Abs format (unit mm)*
G04 Created by KiCad (PCBNEW (5.1.4-0-10_14)) date 2020-01-14 22:26:38*
%MOMM*%
%LPD*%
G04 APERTURE LIST*
%ADD10R,1.900000X1.900000*%
%ADD11C,1.900000*%
%ADD12C,0.100000*%
%ADD13C,1.700000*%
%ADD14R,1.400000X1.400000*%
%ADD15C,1.400000*%
%ADD16C,0.800000*%
%ADD17C,0.609600*%
%ADD18C,0.152400*%
%ADD19C,0.254000*%
G04 APERTURE END LIST*
D10*
X100330000Y-55880000D03*
D11*
X100330000Y-53380000D03*
D12*
G36*
X142864504Y-51221204D02*
G01*
X142888773Y-51224804D01*
X142912571Y-51230765D01*
X142935671Y-51239030D01*
X142957849Y-51249520D01*
X142978893Y-51262133D01*
X142998598Y-51276747D01*
X143016777Y-51293223D01*
X143033253Y-51311402D01*
X143047867Y-51331107D01*
X143060480Y-51352151D01*
X143070970Y-51374329D01*
X143079235Y-51397429D01*
X143085196Y-51421227D01*
X143088796Y-51445496D01*
X143090000Y-51470000D01*
X143090000Y-52670000D01*
X143088796Y-52694504D01*
X143085196Y-52718773D01*
X143079235Y-52742571D01*
X143070970Y-52765671D01*
X143060480Y-52787849D01*
X143047867Y-52808893D01*
X143033253Y-52828598D01*
X143016777Y-52846777D01*
X142998598Y-52863253D01*
X142978893Y-52877867D01*
X142957849Y-52890480D01*
X142935671Y-52900970D01*
X142912571Y-52909235D01*
X142888773Y-52915196D01*
X142864504Y-52918796D01*
X142840000Y-52920000D01*
X141640000Y-52920000D01*
X141615496Y-52918796D01*
X141591227Y-52915196D01*
X141567429Y-52909235D01*
X141544329Y-52900970D01*
X141522151Y-52890480D01*
X141501107Y-52877867D01*
X141481402Y-52863253D01*
X141463223Y-52846777D01*
X141446747Y-52828598D01*
X141432133Y-52808893D01*
X141419520Y-52787849D01*
X141409030Y-52765671D01*
X141400765Y-52742571D01*
X141394804Y-52718773D01*
X141391204Y-52694504D01*
X141390000Y-52670000D01*
X141390000Y-51470000D01*
X141391204Y-51445496D01*
X141394804Y-51421227D01*
X141400765Y-51397429D01*
X141409030Y-51374329D01*
X141419520Y-51352151D01*
X141432133Y-51331107D01*
X141446747Y-51311402D01*
X141463223Y-51293223D01*
X141481402Y-51276747D01*
X141501107Y-51262133D01*
X141522151Y-51249520D01*
X141544329Y-51239030D01*
X141567429Y-51230765D01*
X141591227Y-51224804D01*
X141615496Y-51221204D01*
X141640000Y-51220000D01*
X142840000Y-51220000D01*
X142864504Y-51221204D01*
X142864504Y-51221204D01*
G37*
D13*
X142240000Y-52070000D03*
X144740000Y-52070000D03*
X142240000Y-49570000D03*
X144740000Y-49570000D03*
D12*
G36*
X150484504Y-51221204D02*
G01*
X150508773Y-51224804D01*
X150532571Y-51230765D01*
X150555671Y-51239030D01*
X150577849Y-51249520D01*
X150598893Y-51262133D01*
X150618598Y-51276747D01*
X150636777Y-51293223D01*
X150653253Y-51311402D01*
X150667867Y-51331107D01*
X150680480Y-51352151D01*
X150690970Y-51374329D01*
X150699235Y-51397429D01*
X150705196Y-51421227D01*
X150708796Y-51445496D01*
X150710000Y-51470000D01*
X150710000Y-52670000D01*
X150708796Y-52694504D01*
X150705196Y-52718773D01*
X150699235Y-52742571D01*
X150690970Y-52765671D01*
X150680480Y-52787849D01*
X150667867Y-52808893D01*
X150653253Y-52828598D01*
X150636777Y-52846777D01*
X150618598Y-52863253D01*
X150598893Y-52877867D01*
X150577849Y-52890480D01*
X150555671Y-52900970D01*
X150532571Y-52909235D01*
X150508773Y-52915196D01*
X150484504Y-52918796D01*
X150460000Y-52920000D01*
X149260000Y-52920000D01*
X149235496Y-52918796D01*
X149211227Y-52915196D01*
X149187429Y-52909235D01*
X149164329Y-52900970D01*
X149142151Y-52890480D01*
X149121107Y-52877867D01*
X149101402Y-52863253D01*
X149083223Y-52846777D01*
X149066747Y-52828598D01*
X149052133Y-52808893D01*
X149039520Y-52787849D01*
X149029030Y-52765671D01*
X149020765Y-52742571D01*
X149014804Y-52718773D01*
X149011204Y-52694504D01*
X149010000Y-52670000D01*
X149010000Y-51470000D01*
X149011204Y-51445496D01*
X149014804Y-51421227D01*
X149020765Y-51397429D01*
X149029030Y-51374329D01*
X149039520Y-51352151D01*
X149052133Y-51331107D01*
X149066747Y-51311402D01*
X149083223Y-51293223D01*
X149101402Y-51276747D01*
X149121107Y-51262133D01*
X149142151Y-51249520D01*
X149164329Y-51239030D01*
X149187429Y-51230765D01*
X149211227Y-51224804D01*
X149235496Y-51221204D01*
X149260000Y-51220000D01*
X150460000Y-51220000D01*
X150484504Y-51221204D01*
X150484504Y-51221204D01*
G37*
D13*
X149860000Y-52070000D03*
X152360000Y-52070000D03*
X154860000Y-52070000D03*
X149860000Y-49570000D03*
X152360000Y-49570000D03*
X154860000Y-49570000D03*
D14*
X96520000Y-40640000D03*
D15*
X99060000Y-40640000D03*
X96520000Y-43180000D03*
X99060000Y-43180000D03*
X96520000Y-45720000D03*
X99060000Y-45720000D03*
D16*
X116840000Y-48260000D03*
X114300000Y-48260000D03*
X110490000Y-55880000D03*
D17*
X114960400Y-39624000D03*
X142189200Y-55880000D03*
X132130800Y-55880000D03*
X125933200Y-55930800D03*
X120599200Y-55270400D03*
X134315200Y-44856400D03*
X134920711Y-41224210D03*
X122601978Y-44784022D03*
X117500400Y-46431200D03*
X102870000Y-45732710D03*
X130606800Y-54254400D03*
X134137400Y-49911000D03*
X136340791Y-40898925D03*
X139356633Y-48805810D03*
X136601200Y-40182800D03*
X139725410Y-48056800D03*
D18*
X120599200Y-54839348D02*
X120700800Y-54737748D01*
X120599200Y-55270400D02*
X120599200Y-54839348D01*
X120700800Y-54737748D02*
X120700800Y-53441600D01*
X133832601Y-50215799D02*
X134137400Y-49911000D01*
X130606800Y-54254400D02*
X130606800Y-53441600D01*
X130606800Y-53441600D02*
X133832601Y-50215799D01*
X139192000Y-48641177D02*
X139356633Y-48805810D01*
X136340791Y-40898925D02*
X139192000Y-43750134D01*
X139192000Y-43750134D02*
X139192000Y-48641177D01*
X136601200Y-40182800D02*
X139725410Y-43307010D01*
X139725410Y-47625748D02*
X139725410Y-48056800D01*
X139725410Y-43307010D02*
X139725410Y-47625748D01*
D19*
G36*
X156795001Y-57735000D02*
G01*
X89585000Y-57735000D01*
X89585000Y-53238665D01*
X91715000Y-53238665D01*
X91715000Y-53521335D01*
X91770147Y-53798574D01*
X91878320Y-54059727D01*
X92035363Y-54294759D01*
X92235241Y-54494637D01*
X92437827Y-54630000D01*
X92235241Y-54765363D01*
X92035363Y-54965241D01*
X91878320Y-55200273D01*
X91770147Y-55461426D01*
X91715000Y-55738665D01*
X91715000Y-56021335D01*
X91770147Y-56298574D01*
X91878320Y-56559727D01*
X92035363Y-56794759D01*
X92235241Y-56994637D01*
X92470273Y-57151680D01*
X92731426Y-57259853D01*
X93008665Y-57315000D01*
X93291335Y-57315000D01*
X93568574Y-57259853D01*
X93829727Y-57151680D01*
X94064759Y-56994637D01*
X94264637Y-56794759D01*
X94421680Y-56559727D01*
X94529853Y-56298574D01*
X94585000Y-56021335D01*
X94585000Y-55738665D01*
X94529853Y-55461426D01*
X94421680Y-55200273D01*
X94264637Y-54965241D01*
X94229396Y-54930000D01*
X98741928Y-54930000D01*
X98741928Y-56830000D01*
X98754188Y-56954482D01*
X98790498Y-57074180D01*
X98849463Y-57184494D01*
X98928815Y-57281185D01*
X99025506Y-57360537D01*
X99135820Y-57419502D01*
X99255518Y-57455812D01*
X99380000Y-57468072D01*
X101280000Y-57468072D01*
X101404482Y-57455812D01*
X101524180Y-57419502D01*
X101634494Y-57360537D01*
X101731185Y-57281185D01*
X101810537Y-57184494D01*
X101869502Y-57074180D01*
X101905812Y-56954482D01*
X101918072Y-56830000D01*
X101918072Y-54930000D01*
X101905812Y-54805518D01*
X101869502Y-54685820D01*
X101810537Y-54575506D01*
X101731185Y-54478815D01*
X101634494Y-54399463D01*
X101575979Y-54368186D01*
X101713856Y-54161838D01*
X129667000Y-54161838D01*
X129667000Y-54346962D01*
X129703116Y-54528529D01*
X129773960Y-54699562D01*
X129876810Y-54853487D01*
X130007713Y-54984390D01*
X130161638Y-55087240D01*
X130332671Y-55158084D01*
X130514238Y-55194200D01*
X130699362Y-55194200D01*
X130880929Y-55158084D01*
X131051962Y-55087240D01*
X131205887Y-54984390D01*
X131336790Y-54853487D01*
X131439640Y-54699562D01*
X131510484Y-54528529D01*
X131546600Y-54346962D01*
X131546600Y-54161838D01*
X131510484Y-53980271D01*
X131439640Y-53809238D01*
X131361658Y-53692530D01*
X133584188Y-51470000D01*
X140751928Y-51470000D01*
X140751928Y-52670000D01*
X140768992Y-52843254D01*
X140819528Y-53009850D01*
X140901595Y-53163386D01*
X141012038Y-53297962D01*
X141146614Y-53408405D01*
X141300150Y-53490472D01*
X141466746Y-53541008D01*
X141640000Y-53558072D01*
X142840000Y-53558072D01*
X143013254Y-53541008D01*
X143179850Y-53490472D01*
X143333386Y-53408405D01*
X143467962Y-53297962D01*
X143578405Y-53163386D01*
X143632352Y-53062459D01*
X143793368Y-53223475D01*
X144036589Y-53385990D01*
X144306842Y-53497932D01*
X144593740Y-53555000D01*
X144886260Y-53555000D01*
X145173158Y-53497932D01*
X145443411Y-53385990D01*
X145686632Y-53223475D01*
X145893475Y-53016632D01*
X146055990Y-52773411D01*
X146167932Y-52503158D01*
X146225000Y-52216260D01*
X146225000Y-51923740D01*
X146167932Y-51636842D01*
X146098825Y-51470000D01*
X148371928Y-51470000D01*
X148371928Y-52670000D01*
X148388992Y-52843254D01*
X148439528Y-53009850D01*
X148521595Y-53163386D01*
X148632038Y-53297962D01*
X148766614Y-53408405D01*
X148920150Y-53490472D01*
X149086746Y-53541008D01*
X149260000Y-53558072D01*
X150460000Y-53558072D01*
X150633254Y-53541008D01*
X150799850Y-53490472D01*
X150953386Y-53408405D01*
X151087962Y-53297962D01*
X151198405Y-53163386D01*
X151252352Y-53062459D01*
X151413368Y-53223475D01*
X151656589Y-53385990D01*
X151926842Y-53497932D01*
X152213740Y-53555000D01*
X152506260Y-53555000D01*
X152793158Y-53497932D01*
X153063411Y-53385990D01*
X153306632Y-53223475D01*
X153513475Y-53016632D01*
X153610000Y-52872172D01*
X153706525Y-53016632D01*
X153913368Y-53223475D01*
X154156589Y-53385990D01*
X154426842Y-53497932D01*
X154713740Y-53555000D01*
X155006260Y-53555000D01*
X155293158Y-53497932D01*
X155563411Y-53385990D01*
X155806632Y-53223475D01*
X156013475Y-53016632D01*
X156175990Y-52773411D01*
X156287932Y-52503158D01*
X156345000Y-52216260D01*
X156345000Y-51923740D01*
X156287932Y-51636842D01*
X156175990Y-51366589D01*
X156013475Y-51123368D01*
X155806632Y-50916525D01*
X155643590Y-50807584D01*
X155708792Y-50598397D01*
X154860000Y-49749605D01*
X154011208Y-50598397D01*
X154076410Y-50807584D01*
X153913368Y-50916525D01*
X153706525Y-51123368D01*
X153610000Y-51267828D01*
X153513475Y-51123368D01*
X153306632Y-50916525D01*
X153143590Y-50807584D01*
X153208792Y-50598397D01*
X152360000Y-49749605D01*
X151511208Y-50598397D01*
X151576410Y-50807584D01*
X151413368Y-50916525D01*
X151252352Y-51077541D01*
X151198405Y-50976614D01*
X151087962Y-50842038D01*
X150953386Y-50731595D01*
X150799850Y-50649528D01*
X150702097Y-50619875D01*
X150708792Y-50598397D01*
X149860000Y-49749605D01*
X149011208Y-50598397D01*
X149017903Y-50619875D01*
X148920150Y-50649528D01*
X148766614Y-50731595D01*
X148632038Y-50842038D01*
X148521595Y-50976614D01*
X148439528Y-51130150D01*
X148388992Y-51296746D01*
X148371928Y-51470000D01*
X146098825Y-51470000D01*
X146055990Y-51366589D01*
X145893475Y-51123368D01*
X145686632Y-50916525D01*
X145523590Y-50807584D01*
X145588792Y-50598397D01*
X144740000Y-49749605D01*
X143891208Y-50598397D01*
X143956410Y-50807584D01*
X143793368Y-50916525D01*
X143632352Y-51077541D01*
X143578405Y-50976614D01*
X143467962Y-50842038D01*
X143333386Y-50731595D01*
X143232459Y-50677648D01*
X143393475Y-50516632D01*
X143502416Y-50353590D01*
X143711603Y-50418792D01*
X144560395Y-49570000D01*
X144919605Y-49570000D01*
X145768397Y-50418792D01*
X146017472Y-50341157D01*
X146143371Y-50077117D01*
X146215339Y-49793589D01*
X146223445Y-49638531D01*
X148369389Y-49638531D01*
X148411401Y-49928019D01*
X148509081Y-50203747D01*
X148582528Y-50341157D01*
X148831603Y-50418792D01*
X149680395Y-49570000D01*
X150039605Y-49570000D01*
X150888397Y-50418792D01*
X151110000Y-50349720D01*
X151331603Y-50418792D01*
X152180395Y-49570000D01*
X152539605Y-49570000D01*
X153388397Y-50418792D01*
X153610000Y-50349720D01*
X153831603Y-50418792D01*
X154680395Y-49570000D01*
X155039605Y-49570000D01*
X155888397Y-50418792D01*
X156137472Y-50341157D01*
X156263371Y-50077117D01*
X156335339Y-49793589D01*
X156350611Y-49501469D01*
X156308599Y-49211981D01*
X156210919Y-48936253D01*
X156137472Y-48798843D01*
X155888397Y-48721208D01*
X155039605Y-49570000D01*
X154680395Y-49570000D01*
X153831603Y-48721208D01*
X153610000Y-48790280D01*
X153388397Y-48721208D01*
X152539605Y-49570000D01*
X152180395Y-49570000D01*
X151331603Y-48721208D01*
X151110000Y-48790280D01*
X150888397Y-48721208D01*
X150039605Y-49570000D01*
X149680395Y-49570000D01*
X148831603Y-48721208D01*
X148582528Y-48798843D01*
X148456629Y-49062883D01*
X148384661Y-49346411D01*
X148369389Y-49638531D01*
X146223445Y-49638531D01*
X146230611Y-49501469D01*
X146188599Y-49211981D01*
X146090919Y-48936253D01*
X146017472Y-48798843D01*
X145768397Y-48721208D01*
X144919605Y-49570000D01*
X144560395Y-49570000D01*
X143711603Y-48721208D01*
X143502416Y-48786410D01*
X143393475Y-48623368D01*
X143311710Y-48541603D01*
X143891208Y-48541603D01*
X144740000Y-49390395D01*
X145588792Y-48541603D01*
X149011208Y-48541603D01*
X149860000Y-49390395D01*
X150708792Y-48541603D01*
X151511208Y-48541603D01*
X152360000Y-49390395D01*
X153208792Y-48541603D01*
X154011208Y-48541603D01*
X154860000Y-49390395D01*
X155708792Y-48541603D01*
X155631157Y-48292528D01*
X155367117Y-48166629D01*
X155083589Y-48094661D01*
X154791469Y-48079389D01*
X154501981Y-48121401D01*
X154226253Y-48219081D01*
X154088843Y-48292528D01*
X154011208Y-48541603D01*
X153208792Y-48541603D01*
X153131157Y-48292528D01*
X152867117Y-48166629D01*
X152583589Y-48094661D01*
X152291469Y-48079389D01*
X152001981Y-48121401D01*
X151726253Y-48219081D01*
X151588843Y-48292528D01*
X151511208Y-48541603D01*
X150708792Y-48541603D01*
X150631157Y-48292528D01*
X150367117Y-48166629D01*
X150083589Y-48094661D01*
X149791469Y-48079389D01*
X149501981Y-48121401D01*
X149226253Y-48219081D01*
X149088843Y-48292528D01*
X149011208Y-48541603D01*
X145588792Y-48541603D01*
X145511157Y-48292528D01*
X145247117Y-48166629D01*
X144963589Y-48094661D01*
X144671469Y-48079389D01*
X144381981Y-48121401D01*
X144106253Y-48219081D01*
X143968843Y-48292528D01*
X143891208Y-48541603D01*
X143311710Y-48541603D01*
X143186632Y-48416525D01*
X142943411Y-48254010D01*
X142673158Y-48142068D01*
X142386260Y-48085000D01*
X142093740Y-48085000D01*
X141806842Y-48142068D01*
X141536589Y-48254010D01*
X141293368Y-48416525D01*
X141086525Y-48623368D01*
X140924010Y-48866589D01*
X140812068Y-49136842D01*
X140755000Y-49423740D01*
X140755000Y-49716260D01*
X140812068Y-50003158D01*
X140924010Y-50273411D01*
X141086525Y-50516632D01*
X141247541Y-50677648D01*
X141146614Y-50731595D01*
X141012038Y-50842038D01*
X140901595Y-50976614D01*
X140819528Y-51130150D01*
X140768992Y-51296746D01*
X140751928Y-51470000D01*
X133584188Y-51470000D01*
X134203389Y-50850800D01*
X134229962Y-50850800D01*
X134411529Y-50814684D01*
X134582562Y-50743840D01*
X134736487Y-50640990D01*
X134867390Y-50510087D01*
X134970240Y-50356162D01*
X135041084Y-50185129D01*
X135077200Y-50003562D01*
X135077200Y-49818438D01*
X135041084Y-49636871D01*
X134970240Y-49465838D01*
X134867390Y-49311913D01*
X134736487Y-49181010D01*
X134582562Y-49078160D01*
X134411529Y-49007316D01*
X134229962Y-48971200D01*
X134044838Y-48971200D01*
X133863271Y-49007316D01*
X133692238Y-49078160D01*
X133538313Y-49181010D01*
X133407410Y-49311913D01*
X133304560Y-49465838D01*
X133233716Y-49636871D01*
X133197600Y-49818438D01*
X133197600Y-49845011D01*
X130128610Y-52914003D01*
X130101474Y-52936273D01*
X130079204Y-52963409D01*
X130079203Y-52963410D01*
X130041091Y-53009850D01*
X130012599Y-53044567D01*
X129946559Y-53168119D01*
X129905892Y-53302180D01*
X129895600Y-53406664D01*
X129895600Y-53406674D01*
X129892160Y-53441600D01*
X129895600Y-53476526D01*
X129895600Y-53636523D01*
X129876810Y-53655313D01*
X129773960Y-53809238D01*
X129703116Y-53980271D01*
X129667000Y-54161838D01*
X101713856Y-54161838D01*
X101734609Y-54130779D01*
X101854089Y-53842327D01*
X101915000Y-53536109D01*
X101915000Y-53223891D01*
X101854089Y-52917673D01*
X101734609Y-52629221D01*
X101561150Y-52369621D01*
X101340379Y-52148850D01*
X101080779Y-51975391D01*
X100792327Y-51855911D01*
X100486109Y-51795000D01*
X100173891Y-51795000D01*
X99867673Y-51855911D01*
X99579221Y-51975391D01*
X99319621Y-52148850D01*
X99098850Y-52369621D01*
X98925391Y-52629221D01*
X98805911Y-52917673D01*
X98745000Y-53223891D01*
X98745000Y-53536109D01*
X98805911Y-53842327D01*
X98925391Y-54130779D01*
X99084021Y-54368186D01*
X99025506Y-54399463D01*
X98928815Y-54478815D01*
X98849463Y-54575506D01*
X98790498Y-54685820D01*
X98754188Y-54805518D01*
X98741928Y-54930000D01*
X94229396Y-54930000D01*
X94064759Y-54765363D01*
X93862173Y-54630000D01*
X94064759Y-54494637D01*
X94264637Y-54294759D01*
X94421680Y-54059727D01*
X94529853Y-53798574D01*
X94585000Y-53521335D01*
X94585000Y-53238665D01*
X94529853Y-52961426D01*
X94421680Y-52700273D01*
X94264637Y-52465241D01*
X94064759Y-52265363D01*
X93829727Y-52108320D01*
X93568574Y-52000147D01*
X93291335Y-51945000D01*
X93008665Y-51945000D01*
X92731426Y-52000147D01*
X92470273Y-52108320D01*
X92235241Y-52265363D01*
X92035363Y-52465241D01*
X91878320Y-52700273D01*
X91770147Y-52961426D01*
X91715000Y-53238665D01*
X89585000Y-53238665D01*
X89585000Y-39940000D01*
X95181928Y-39940000D01*
X95181928Y-41340000D01*
X95194188Y-41464482D01*
X95230498Y-41584180D01*
X95289463Y-41694494D01*
X95368815Y-41791185D01*
X95465506Y-41870537D01*
X95575820Y-41929502D01*
X95695518Y-41965812D01*
X95820000Y-41978072D01*
X95933190Y-41978072D01*
X95887641Y-41996939D01*
X95668987Y-42143038D01*
X95483038Y-42328987D01*
X95336939Y-42547641D01*
X95236304Y-42790595D01*
X95185000Y-43048514D01*
X95185000Y-43311486D01*
X95236304Y-43569405D01*
X95336939Y-43812359D01*
X95483038Y-44031013D01*
X95668987Y-44216962D01*
X95887641Y-44363061D01*
X96097530Y-44450000D01*
X95887641Y-44536939D01*
X95668987Y-44683038D01*
X95483038Y-44868987D01*
X95336939Y-45087641D01*
X95236304Y-45330595D01*
X95185000Y-45588514D01*
X95185000Y-45851486D01*
X95236304Y-46109405D01*
X95336939Y-46352359D01*
X95483038Y-46571013D01*
X95668987Y-46756962D01*
X95887641Y-46903061D01*
X96130595Y-47003696D01*
X96388514Y-47055000D01*
X96651486Y-47055000D01*
X96909405Y-47003696D01*
X97152359Y-46903061D01*
X97371013Y-46756962D01*
X97486706Y-46641269D01*
X98318336Y-46641269D01*
X98377797Y-46875037D01*
X98616242Y-46985934D01*
X98871740Y-47048183D01*
X99134473Y-47059390D01*
X99394344Y-47019125D01*
X99641366Y-46928935D01*
X99742203Y-46875037D01*
X99801664Y-46641269D01*
X99060000Y-45899605D01*
X98318336Y-46641269D01*
X97486706Y-46641269D01*
X97556962Y-46571013D01*
X97703061Y-46352359D01*
X97791621Y-46138556D01*
X97851065Y-46301366D01*
X97904963Y-46402203D01*
X98138731Y-46461664D01*
X98880395Y-45720000D01*
X99239605Y-45720000D01*
X99981269Y-46461664D01*
X100215037Y-46402203D01*
X100325934Y-46163758D01*
X100388183Y-45908260D01*
X100399390Y-45645527D01*
X100359125Y-45385656D01*
X100268935Y-45138634D01*
X100215037Y-45037797D01*
X99981269Y-44978336D01*
X99239605Y-45720000D01*
X98880395Y-45720000D01*
X98138731Y-44978336D01*
X97904963Y-45037797D01*
X97794066Y-45276242D01*
X97789294Y-45295827D01*
X97703061Y-45087641D01*
X97556962Y-44868987D01*
X97371013Y-44683038D01*
X97152359Y-44536939D01*
X96942470Y-44450000D01*
X97152359Y-44363061D01*
X97371013Y-44216962D01*
X97556962Y-44031013D01*
X97703061Y-43812359D01*
X97790000Y-43602470D01*
X97876939Y-43812359D01*
X98023038Y-44031013D01*
X98208987Y-44216962D01*
X98427641Y-44363061D01*
X98641444Y-44451621D01*
X98478634Y-44511065D01*
X98377797Y-44564963D01*
X98318336Y-44798731D01*
X99060000Y-45540395D01*
X99801664Y-44798731D01*
X99742203Y-44564963D01*
X99503758Y-44454066D01*
X99484173Y-44449294D01*
X99692359Y-44363061D01*
X99911013Y-44216962D01*
X100096962Y-44031013D01*
X100243061Y-43812359D01*
X100343696Y-43569405D01*
X100395000Y-43311486D01*
X100395000Y-43048514D01*
X100343696Y-42790595D01*
X100243061Y-42547641D01*
X100096962Y-42328987D01*
X99911013Y-42143038D01*
X99692359Y-41996939D01*
X99482470Y-41910000D01*
X99692359Y-41823061D01*
X99911013Y-41676962D01*
X100096962Y-41491013D01*
X100243061Y-41272359D01*
X100343696Y-41029405D01*
X100388062Y-40806363D01*
X135400991Y-40806363D01*
X135400991Y-40991487D01*
X135437107Y-41173054D01*
X135507951Y-41344087D01*
X135610801Y-41498012D01*
X135741704Y-41628915D01*
X135895629Y-41731765D01*
X136066662Y-41802609D01*
X136248229Y-41838725D01*
X136274804Y-41838725D01*
X138480800Y-44044723D01*
X138480801Y-48464440D01*
X138452949Y-48531681D01*
X138416833Y-48713248D01*
X138416833Y-48898372D01*
X138452949Y-49079939D01*
X138523793Y-49250972D01*
X138626643Y-49404897D01*
X138757546Y-49535800D01*
X138911471Y-49638650D01*
X139082504Y-49709494D01*
X139264071Y-49745610D01*
X139449195Y-49745610D01*
X139630762Y-49709494D01*
X139801795Y-49638650D01*
X139955720Y-49535800D01*
X140086623Y-49404897D01*
X140189473Y-49250972D01*
X140260317Y-49079939D01*
X140296433Y-48898372D01*
X140296433Y-48805542D01*
X140324497Y-48786790D01*
X140455400Y-48655887D01*
X140558250Y-48501962D01*
X140629094Y-48330929D01*
X140665210Y-48149362D01*
X140665210Y-47964238D01*
X140629094Y-47782671D01*
X140558250Y-47611638D01*
X140455400Y-47457713D01*
X140436610Y-47438923D01*
X140436610Y-43341935D01*
X140440050Y-43307009D01*
X140436610Y-43272083D01*
X140436610Y-43272074D01*
X140426319Y-43167590D01*
X140385652Y-43033529D01*
X140319612Y-42909977D01*
X140253007Y-42828819D01*
X140253003Y-42828815D01*
X140230736Y-42801683D01*
X140203605Y-42779417D01*
X139667928Y-42243740D01*
X140755000Y-42243740D01*
X140755000Y-42536260D01*
X140812068Y-42823158D01*
X140924010Y-43093411D01*
X141086525Y-43336632D01*
X141293368Y-43543475D01*
X141536589Y-43705990D01*
X141806842Y-43817932D01*
X142093740Y-43875000D01*
X142386260Y-43875000D01*
X142673158Y-43817932D01*
X142943411Y-43705990D01*
X143186632Y-43543475D01*
X143393475Y-43336632D01*
X143490000Y-43192172D01*
X143586525Y-43336632D01*
X143793368Y-43543475D01*
X144036589Y-43705990D01*
X144306842Y-43817932D01*
X144593740Y-43875000D01*
X144886260Y-43875000D01*
X145173158Y-43817932D01*
X145443411Y-43705990D01*
X145686632Y-43543475D01*
X145893475Y-43336632D01*
X146055990Y-43093411D01*
X146167932Y-42823158D01*
X146225000Y-42536260D01*
X146225000Y-42243740D01*
X148375000Y-42243740D01*
X148375000Y-42536260D01*
X148432068Y-42823158D01*
X148544010Y-43093411D01*
X148706525Y-43336632D01*
X148913368Y-43543475D01*
X149156589Y-43705990D01*
X149426842Y-43817932D01*
X149713740Y-43875000D01*
X150006260Y-43875000D01*
X150293158Y-43817932D01*
X150563411Y-43705990D01*
X150806632Y-43543475D01*
X151013475Y-43336632D01*
X151175990Y-43093411D01*
X151287932Y-42823158D01*
X151345000Y-42536260D01*
X151345000Y-42243740D01*
X153375000Y-42243740D01*
X153375000Y-42536260D01*
X153432068Y-42823158D01*
X153544010Y-43093411D01*
X153706525Y-43336632D01*
X153913368Y-43543475D01*
X154156589Y-43705990D01*
X154426842Y-43817932D01*
X154713740Y-43875000D01*
X155006260Y-43875000D01*
X155293158Y-43817932D01*
X155563411Y-43705990D01*
X155806632Y-43543475D01*
X156013475Y-43336632D01*
X156175990Y-43093411D01*
X156287932Y-42823158D01*
X156345000Y-42536260D01*
X156345000Y-42243740D01*
X156287932Y-41956842D01*
X156175990Y-41686589D01*
X156013475Y-41443368D01*
X155806632Y-41236525D01*
X155563411Y-41074010D01*
X155293158Y-40962068D01*
X155006260Y-40905000D01*
X154713740Y-40905000D01*
X154426842Y-40962068D01*
X154156589Y-41074010D01*
X153913368Y-41236525D01*
X153706525Y-41443368D01*
X153544010Y-41686589D01*
X153432068Y-41956842D01*
X153375000Y-42243740D01*
X151345000Y-42243740D01*
X151287932Y-41956842D01*
X151175990Y-41686589D01*
X151013475Y-41443368D01*
X150806632Y-41236525D01*
X150563411Y-41074010D01*
X150293158Y-40962068D01*
X150006260Y-40905000D01*
X149713740Y-40905000D01*
X149426842Y-40962068D01*
X149156589Y-41074010D01*
X148913368Y-41236525D01*
X148706525Y-41443368D01*
X148544010Y-41686589D01*
X148432068Y-41956842D01*
X148375000Y-42243740D01*
X146225000Y-42243740D01*
X146167932Y-41956842D01*
X146055990Y-41686589D01*
X145893475Y-41443368D01*
X145686632Y-41236525D01*
X145443411Y-41074010D01*
X145173158Y-40962068D01*
X144886260Y-40905000D01*
X144593740Y-40905000D01*
X144306842Y-40962068D01*
X144036589Y-41074010D01*
X143793368Y-41236525D01*
X143586525Y-41443368D01*
X143490000Y-41587828D01*
X143393475Y-41443368D01*
X143186632Y-41236525D01*
X142943411Y-41074010D01*
X142673158Y-40962068D01*
X142386260Y-40905000D01*
X142093740Y-40905000D01*
X141806842Y-40962068D01*
X141536589Y-41074010D01*
X141293368Y-41236525D01*
X141086525Y-41443368D01*
X140924010Y-41686589D01*
X140812068Y-41956842D01*
X140755000Y-42243740D01*
X139667928Y-42243740D01*
X137541000Y-40116813D01*
X137541000Y-40090238D01*
X137504884Y-39908671D01*
X137434040Y-39737638D01*
X137331190Y-39583713D01*
X137200287Y-39452810D01*
X137046362Y-39349960D01*
X136875329Y-39279116D01*
X136693762Y-39243000D01*
X136508638Y-39243000D01*
X136327071Y-39279116D01*
X136156038Y-39349960D01*
X136002113Y-39452810D01*
X135871210Y-39583713D01*
X135768360Y-39737638D01*
X135697516Y-39908671D01*
X135661400Y-40090238D01*
X135661400Y-40249239D01*
X135610801Y-40299838D01*
X135507951Y-40453763D01*
X135437107Y-40624796D01*
X135400991Y-40806363D01*
X100388062Y-40806363D01*
X100395000Y-40771486D01*
X100395000Y-40508514D01*
X100343696Y-40250595D01*
X100243061Y-40007641D01*
X100096962Y-39788987D01*
X99911013Y-39603038D01*
X99692359Y-39456939D01*
X99449405Y-39356304D01*
X99191486Y-39305000D01*
X98928514Y-39305000D01*
X98670595Y-39356304D01*
X98427641Y-39456939D01*
X98208987Y-39603038D01*
X98023038Y-39788987D01*
X97876939Y-40007641D01*
X97858072Y-40053190D01*
X97858072Y-39940000D01*
X97845812Y-39815518D01*
X97809502Y-39695820D01*
X97750537Y-39585506D01*
X97671185Y-39488815D01*
X97574494Y-39409463D01*
X97464180Y-39350498D01*
X97344482Y-39314188D01*
X97220000Y-39301928D01*
X95820000Y-39301928D01*
X95695518Y-39314188D01*
X95575820Y-39350498D01*
X95465506Y-39409463D01*
X95368815Y-39488815D01*
X95289463Y-39585506D01*
X95230498Y-39695820D01*
X95194188Y-39815518D01*
X95181928Y-39940000D01*
X89585000Y-39940000D01*
X89585000Y-38785000D01*
X156795000Y-38785000D01*
X156795001Y-57735000D01*
X156795001Y-57735000D01*
G37*
X156795001Y-57735000D02*
X89585000Y-57735000D01*
X89585000Y-53238665D01*
X91715000Y-53238665D01*
X91715000Y-53521335D01*
X91770147Y-53798574D01*
X91878320Y-54059727D01*
X92035363Y-54294759D01*
X92235241Y-54494637D01*
X92437827Y-54630000D01*
X92235241Y-54765363D01*
X92035363Y-54965241D01*
X91878320Y-55200273D01*
X91770147Y-55461426D01*
X91715000Y-55738665D01*
X91715000Y-56021335D01*
X91770147Y-56298574D01*
X91878320Y-56559727D01*
X92035363Y-56794759D01*
X92235241Y-56994637D01*
X92470273Y-57151680D01*
X92731426Y-57259853D01*
X93008665Y-57315000D01*
X93291335Y-57315000D01*
X93568574Y-57259853D01*
X93829727Y-57151680D01*
X94064759Y-56994637D01*
X94264637Y-56794759D01*
X94421680Y-56559727D01*
X94529853Y-56298574D01*
X94585000Y-56021335D01*
X94585000Y-55738665D01*
X94529853Y-55461426D01*
X94421680Y-55200273D01*
X94264637Y-54965241D01*
X94229396Y-54930000D01*
X98741928Y-54930000D01*
X98741928Y-56830000D01*
X98754188Y-56954482D01*
X98790498Y-57074180D01*
X98849463Y-57184494D01*
X98928815Y-57281185D01*
X99025506Y-57360537D01*
X99135820Y-57419502D01*
X99255518Y-57455812D01*
X99380000Y-57468072D01*
X101280000Y-57468072D01*
X101404482Y-57455812D01*
X101524180Y-57419502D01*
X101634494Y-57360537D01*
X101731185Y-57281185D01*
X101810537Y-57184494D01*
X101869502Y-57074180D01*
X101905812Y-56954482D01*
X101918072Y-56830000D01*
X101918072Y-54930000D01*
X101905812Y-54805518D01*
X101869502Y-54685820D01*
X101810537Y-54575506D01*
X101731185Y-54478815D01*
X101634494Y-54399463D01*
X101575979Y-54368186D01*
X101713856Y-54161838D01*
X129667000Y-54161838D01*
X129667000Y-54346962D01*
X129703116Y-54528529D01*
X129773960Y-54699562D01*
X129876810Y-54853487D01*
X130007713Y-54984390D01*
X130161638Y-55087240D01*
X130332671Y-55158084D01*
X130514238Y-55194200D01*
X130699362Y-55194200D01*
X130880929Y-55158084D01*
X131051962Y-55087240D01*
X131205887Y-54984390D01*
X131336790Y-54853487D01*
X131439640Y-54699562D01*
X131510484Y-54528529D01*
X131546600Y-54346962D01*
X131546600Y-54161838D01*
X131510484Y-53980271D01*
X131439640Y-53809238D01*
X131361658Y-53692530D01*
X133584188Y-51470000D01*
X140751928Y-51470000D01*
X140751928Y-52670000D01*
X140768992Y-52843254D01*
X140819528Y-53009850D01*
X140901595Y-53163386D01*
X141012038Y-53297962D01*
X141146614Y-53408405D01*
X141300150Y-53490472D01*
X141466746Y-53541008D01*
X141640000Y-53558072D01*
X142840000Y-53558072D01*
X143013254Y-53541008D01*
X143179850Y-53490472D01*
X143333386Y-53408405D01*
X143467962Y-53297962D01*
X143578405Y-53163386D01*
X143632352Y-53062459D01*
X143793368Y-53223475D01*
X144036589Y-53385990D01*
X144306842Y-53497932D01*
X144593740Y-53555000D01*
X144886260Y-53555000D01*
X145173158Y-53497932D01*
X145443411Y-53385990D01*
X145686632Y-53223475D01*
X145893475Y-53016632D01*
X146055990Y-52773411D01*
X146167932Y-52503158D01*
X146225000Y-52216260D01*
X146225000Y-51923740D01*
X146167932Y-51636842D01*
X146098825Y-51470000D01*
X148371928Y-51470000D01*
X148371928Y-52670000D01*
X148388992Y-52843254D01*
X148439528Y-53009850D01*
X148521595Y-53163386D01*
X148632038Y-53297962D01*
X148766614Y-53408405D01*
X148920150Y-53490472D01*
X149086746Y-53541008D01*
X149260000Y-53558072D01*
X150460000Y-53558072D01*
X150633254Y-53541008D01*
X150799850Y-53490472D01*
X150953386Y-53408405D01*
X151087962Y-53297962D01*
X151198405Y-53163386D01*
X151252352Y-53062459D01*
X151413368Y-53223475D01*
X151656589Y-53385990D01*
X151926842Y-53497932D01*
X152213740Y-53555000D01*
X152506260Y-53555000D01*
X152793158Y-53497932D01*
X153063411Y-53385990D01*
X153306632Y-53223475D01*
X153513475Y-53016632D01*
X153610000Y-52872172D01*
X153706525Y-53016632D01*
X153913368Y-53223475D01*
X154156589Y-53385990D01*
X154426842Y-53497932D01*
X154713740Y-53555000D01*
X155006260Y-53555000D01*
X155293158Y-53497932D01*
X155563411Y-53385990D01*
X155806632Y-53223475D01*
X156013475Y-53016632D01*
X156175990Y-52773411D01*
X156287932Y-52503158D01*
X156345000Y-52216260D01*
X156345000Y-51923740D01*
X156287932Y-51636842D01*
X156175990Y-51366589D01*
X156013475Y-51123368D01*
X155806632Y-50916525D01*
X155643590Y-50807584D01*
X155708792Y-50598397D01*
X154860000Y-49749605D01*
X154011208Y-50598397D01*
X154076410Y-50807584D01*
X153913368Y-50916525D01*
X153706525Y-51123368D01*
X153610000Y-51267828D01*
X153513475Y-51123368D01*
X153306632Y-50916525D01*
X153143590Y-50807584D01*
X153208792Y-50598397D01*
X152360000Y-49749605D01*
X151511208Y-50598397D01*
X151576410Y-50807584D01*
X151413368Y-50916525D01*
X151252352Y-51077541D01*
X151198405Y-50976614D01*
X151087962Y-50842038D01*
X150953386Y-50731595D01*
X150799850Y-50649528D01*
X150702097Y-50619875D01*
X150708792Y-50598397D01*
X149860000Y-49749605D01*
X149011208Y-50598397D01*
X149017903Y-50619875D01*
X148920150Y-50649528D01*
X148766614Y-50731595D01*
X148632038Y-50842038D01*
X148521595Y-50976614D01*
X148439528Y-51130150D01*
X148388992Y-51296746D01*
X148371928Y-51470000D01*
X146098825Y-51470000D01*
X146055990Y-51366589D01*
X145893475Y-51123368D01*
X145686632Y-50916525D01*
X145523590Y-50807584D01*
X145588792Y-50598397D01*
X144740000Y-49749605D01*
X143891208Y-50598397D01*
X143956410Y-50807584D01*
X143793368Y-50916525D01*
X143632352Y-51077541D01*
X143578405Y-50976614D01*
X143467962Y-50842038D01*
X143333386Y-50731595D01*
X143232459Y-50677648D01*
X143393475Y-50516632D01*
X143502416Y-50353590D01*
X143711603Y-50418792D01*
X144560395Y-49570000D01*
X144919605Y-49570000D01*
X145768397Y-50418792D01*
X146017472Y-50341157D01*
X146143371Y-50077117D01*
X146215339Y-49793589D01*
X146223445Y-49638531D01*
X148369389Y-49638531D01*
X148411401Y-49928019D01*
X148509081Y-50203747D01*
X148582528Y-50341157D01*
X148831603Y-50418792D01*
X149680395Y-49570000D01*
X150039605Y-49570000D01*
X150888397Y-50418792D01*
X151110000Y-50349720D01*
X151331603Y-50418792D01*
X152180395Y-49570000D01*
X152539605Y-49570000D01*
X153388397Y-50418792D01*
X153610000Y-50349720D01*
X153831603Y-50418792D01*
X154680395Y-49570000D01*
X155039605Y-49570000D01*
X155888397Y-50418792D01*
X156137472Y-50341157D01*
X156263371Y-50077117D01*
X156335339Y-49793589D01*
X156350611Y-49501469D01*
X156308599Y-49211981D01*
X156210919Y-48936253D01*
X156137472Y-48798843D01*
X155888397Y-48721208D01*
X155039605Y-49570000D01*
X154680395Y-49570000D01*
X153831603Y-48721208D01*
X153610000Y-48790280D01*
X153388397Y-48721208D01*
X152539605Y-49570000D01*
X152180395Y-49570000D01*
X151331603Y-48721208D01*
X151110000Y-48790280D01*
X150888397Y-48721208D01*
X150039605Y-49570000D01*
X149680395Y-49570000D01*
X148831603Y-48721208D01*
X148582528Y-48798843D01*
X148456629Y-49062883D01*
X148384661Y-49346411D01*
X148369389Y-49638531D01*
X146223445Y-49638531D01*
X146230611Y-49501469D01*
X146188599Y-49211981D01*
X146090919Y-48936253D01*
X146017472Y-48798843D01*
X145768397Y-48721208D01*
X144919605Y-49570000D01*
X144560395Y-49570000D01*
X143711603Y-48721208D01*
X143502416Y-48786410D01*
X143393475Y-48623368D01*
X143311710Y-48541603D01*
X143891208Y-48541603D01*
X144740000Y-49390395D01*
X145588792Y-48541603D01*
X149011208Y-48541603D01*
X149860000Y-49390395D01*
X150708792Y-48541603D01*
X151511208Y-48541603D01*
X152360000Y-49390395D01*
X153208792Y-48541603D01*
X154011208Y-48541603D01*
X154860000Y-49390395D01*
X155708792Y-48541603D01*
X155631157Y-48292528D01*
X155367117Y-48166629D01*
X155083589Y-48094661D01*
X154791469Y-48079389D01*
X154501981Y-48121401D01*
X154226253Y-48219081D01*
X154088843Y-48292528D01*
X154011208Y-48541603D01*
X153208792Y-48541603D01*
X153131157Y-48292528D01*
X152867117Y-48166629D01*
X152583589Y-48094661D01*
X152291469Y-48079389D01*
X152001981Y-48121401D01*
X151726253Y-48219081D01*
X151588843Y-48292528D01*
X151511208Y-48541603D01*
X150708792Y-48541603D01*
X150631157Y-48292528D01*
X150367117Y-48166629D01*
X150083589Y-48094661D01*
X149791469Y-48079389D01*
X149501981Y-48121401D01*
X149226253Y-48219081D01*
X149088843Y-48292528D01*
X149011208Y-48541603D01*
X145588792Y-48541603D01*
X145511157Y-48292528D01*
X145247117Y-48166629D01*
X144963589Y-48094661D01*
X144671469Y-48079389D01*
X144381981Y-48121401D01*
X144106253Y-48219081D01*
X143968843Y-48292528D01*
X143891208Y-48541603D01*
X143311710Y-48541603D01*
X143186632Y-48416525D01*
X142943411Y-48254010D01*
X142673158Y-48142068D01*
X142386260Y-48085000D01*
X142093740Y-48085000D01*
X141806842Y-48142068D01*
X141536589Y-48254010D01*
X141293368Y-48416525D01*
X141086525Y-48623368D01*
X140924010Y-48866589D01*
X140812068Y-49136842D01*
X140755000Y-49423740D01*
X140755000Y-49716260D01*
X140812068Y-50003158D01*
X140924010Y-50273411D01*
X141086525Y-50516632D01*
X141247541Y-50677648D01*
X141146614Y-50731595D01*
X141012038Y-50842038D01*
X140901595Y-50976614D01*
X140819528Y-51130150D01*
X140768992Y-51296746D01*
X140751928Y-51470000D01*
X133584188Y-51470000D01*
X134203389Y-50850800D01*
X134229962Y-50850800D01*
X134411529Y-50814684D01*
X134582562Y-50743840D01*
X134736487Y-50640990D01*
X134867390Y-50510087D01*
X134970240Y-50356162D01*
X135041084Y-50185129D01*
X135077200Y-50003562D01*
X135077200Y-49818438D01*
X135041084Y-49636871D01*
X134970240Y-49465838D01*
X134867390Y-49311913D01*
X134736487Y-49181010D01*
X134582562Y-49078160D01*
X134411529Y-49007316D01*
X134229962Y-48971200D01*
X134044838Y-48971200D01*
X133863271Y-49007316D01*
X133692238Y-49078160D01*
X133538313Y-49181010D01*
X133407410Y-49311913D01*
X133304560Y-49465838D01*
X133233716Y-49636871D01*
X133197600Y-49818438D01*
X133197600Y-49845011D01*
X130128610Y-52914003D01*
X130101474Y-52936273D01*
X130079204Y-52963409D01*
X130079203Y-52963410D01*
X130041091Y-53009850D01*
X130012599Y-53044567D01*
X129946559Y-53168119D01*
X129905892Y-53302180D01*
X129895600Y-53406664D01*
X129895600Y-53406674D01*
X129892160Y-53441600D01*
X129895600Y-53476526D01*
X129895600Y-53636523D01*
X129876810Y-53655313D01*
X129773960Y-53809238D01*
X129703116Y-53980271D01*
X129667000Y-54161838D01*
X101713856Y-54161838D01*
X101734609Y-54130779D01*
X101854089Y-53842327D01*
X101915000Y-53536109D01*
X101915000Y-53223891D01*
X101854089Y-52917673D01*
X101734609Y-52629221D01*
X101561150Y-52369621D01*
X101340379Y-52148850D01*
X101080779Y-51975391D01*
X100792327Y-51855911D01*
X100486109Y-51795000D01*
X100173891Y-51795000D01*
X99867673Y-51855911D01*
X99579221Y-51975391D01*
X99319621Y-52148850D01*
X99098850Y-52369621D01*
X98925391Y-52629221D01*
X98805911Y-52917673D01*
X98745000Y-53223891D01*
X98745000Y-53536109D01*
X98805911Y-53842327D01*
X98925391Y-54130779D01*
X99084021Y-54368186D01*
X99025506Y-54399463D01*
X98928815Y-54478815D01*
X98849463Y-54575506D01*
X98790498Y-54685820D01*
X98754188Y-54805518D01*
X98741928Y-54930000D01*
X94229396Y-54930000D01*
X94064759Y-54765363D01*
X93862173Y-54630000D01*
X94064759Y-54494637D01*
X94264637Y-54294759D01*
X94421680Y-54059727D01*
X94529853Y-53798574D01*
X94585000Y-53521335D01*
X94585000Y-53238665D01*
X94529853Y-52961426D01*
X94421680Y-52700273D01*
X94264637Y-52465241D01*
X94064759Y-52265363D01*
X93829727Y-52108320D01*
X93568574Y-52000147D01*
X93291335Y-51945000D01*
X93008665Y-51945000D01*
X92731426Y-52000147D01*
X92470273Y-52108320D01*
X92235241Y-52265363D01*
X92035363Y-52465241D01*
X91878320Y-52700273D01*
X91770147Y-52961426D01*
X91715000Y-53238665D01*
X89585000Y-53238665D01*
X89585000Y-39940000D01*
X95181928Y-39940000D01*
X95181928Y-41340000D01*
X95194188Y-41464482D01*
X95230498Y-41584180D01*
X95289463Y-41694494D01*
X95368815Y-41791185D01*
X95465506Y-41870537D01*
X95575820Y-41929502D01*
X95695518Y-41965812D01*
X95820000Y-41978072D01*
X95933190Y-41978072D01*
X95887641Y-41996939D01*
X95668987Y-42143038D01*
X95483038Y-42328987D01*
X95336939Y-42547641D01*
X95236304Y-42790595D01*
X95185000Y-43048514D01*
X95185000Y-43311486D01*
X95236304Y-43569405D01*
X95336939Y-43812359D01*
X95483038Y-44031013D01*
X95668987Y-44216962D01*
X95887641Y-44363061D01*
X96097530Y-44450000D01*
X95887641Y-44536939D01*
X95668987Y-44683038D01*
X95483038Y-44868987D01*
X95336939Y-45087641D01*
X95236304Y-45330595D01*
X95185000Y-45588514D01*
X95185000Y-45851486D01*
X95236304Y-46109405D01*
X95336939Y-46352359D01*
X95483038Y-46571013D01*
X95668987Y-46756962D01*
X95887641Y-46903061D01*
X96130595Y-47003696D01*
X96388514Y-47055000D01*
X96651486Y-47055000D01*
X96909405Y-47003696D01*
X97152359Y-46903061D01*
X97371013Y-46756962D01*
X97486706Y-46641269D01*
X98318336Y-46641269D01*
X98377797Y-46875037D01*
X98616242Y-46985934D01*
X98871740Y-47048183D01*
X99134473Y-47059390D01*
X99394344Y-47019125D01*
X99641366Y-46928935D01*
X99742203Y-46875037D01*
X99801664Y-46641269D01*
X99060000Y-45899605D01*
X98318336Y-46641269D01*
X97486706Y-46641269D01*
X97556962Y-46571013D01*
X97703061Y-46352359D01*
X97791621Y-46138556D01*
X97851065Y-46301366D01*
X97904963Y-46402203D01*
X98138731Y-46461664D01*
X98880395Y-45720000D01*
X99239605Y-45720000D01*
X99981269Y-46461664D01*
X100215037Y-46402203D01*
X100325934Y-46163758D01*
X100388183Y-45908260D01*
X100399390Y-45645527D01*
X100359125Y-45385656D01*
X100268935Y-45138634D01*
X100215037Y-45037797D01*
X99981269Y-44978336D01*
X99239605Y-45720000D01*
X98880395Y-45720000D01*
X98138731Y-44978336D01*
X97904963Y-45037797D01*
X97794066Y-45276242D01*
X97789294Y-45295827D01*
X97703061Y-45087641D01*
X97556962Y-44868987D01*
X97371013Y-44683038D01*
X97152359Y-44536939D01*
X96942470Y-44450000D01*
X97152359Y-44363061D01*
X97371013Y-44216962D01*
X97556962Y-44031013D01*
X97703061Y-43812359D01*
X97790000Y-43602470D01*
X97876939Y-43812359D01*
X98023038Y-44031013D01*
X98208987Y-44216962D01*
X98427641Y-44363061D01*
X98641444Y-44451621D01*
X98478634Y-44511065D01*
X98377797Y-44564963D01*
X98318336Y-44798731D01*
X99060000Y-45540395D01*
X99801664Y-44798731D01*
X99742203Y-44564963D01*
X99503758Y-44454066D01*
X99484173Y-44449294D01*
X99692359Y-44363061D01*
X99911013Y-44216962D01*
X100096962Y-44031013D01*
X100243061Y-43812359D01*
X100343696Y-43569405D01*
X100395000Y-43311486D01*
X100395000Y-43048514D01*
X100343696Y-42790595D01*
X100243061Y-42547641D01*
X100096962Y-42328987D01*
X99911013Y-42143038D01*
X99692359Y-41996939D01*
X99482470Y-41910000D01*
X99692359Y-41823061D01*
X99911013Y-41676962D01*
X100096962Y-41491013D01*
X100243061Y-41272359D01*
X100343696Y-41029405D01*
X100388062Y-40806363D01*
X135400991Y-40806363D01*
X135400991Y-40991487D01*
X135437107Y-41173054D01*
X135507951Y-41344087D01*
X135610801Y-41498012D01*
X135741704Y-41628915D01*
X135895629Y-41731765D01*
X136066662Y-41802609D01*
X136248229Y-41838725D01*
X136274804Y-41838725D01*
X138480800Y-44044723D01*
X138480801Y-48464440D01*
X138452949Y-48531681D01*
X138416833Y-48713248D01*
X138416833Y-48898372D01*
X138452949Y-49079939D01*
X138523793Y-49250972D01*
X138626643Y-49404897D01*
X138757546Y-49535800D01*
X138911471Y-49638650D01*
X139082504Y-49709494D01*
X139264071Y-49745610D01*
X139449195Y-49745610D01*
X139630762Y-49709494D01*
X139801795Y-49638650D01*
X139955720Y-49535800D01*
X140086623Y-49404897D01*
X140189473Y-49250972D01*
X140260317Y-49079939D01*
X140296433Y-48898372D01*
X140296433Y-48805542D01*
X140324497Y-48786790D01*
X140455400Y-48655887D01*
X140558250Y-48501962D01*
X140629094Y-48330929D01*
X140665210Y-48149362D01*
X140665210Y-47964238D01*
X140629094Y-47782671D01*
X140558250Y-47611638D01*
X140455400Y-47457713D01*
X140436610Y-47438923D01*
X140436610Y-43341935D01*
X140440050Y-43307009D01*
X140436610Y-43272083D01*
X140436610Y-43272074D01*
X140426319Y-43167590D01*
X140385652Y-43033529D01*
X140319612Y-42909977D01*
X140253007Y-42828819D01*
X140253003Y-42828815D01*
X140230736Y-42801683D01*
X140203605Y-42779417D01*
X139667928Y-42243740D01*
X140755000Y-42243740D01*
X140755000Y-42536260D01*
X140812068Y-42823158D01*
X140924010Y-43093411D01*
X141086525Y-43336632D01*
X141293368Y-43543475D01*
X141536589Y-43705990D01*
X141806842Y-43817932D01*
X142093740Y-43875000D01*
X142386260Y-43875000D01*
X142673158Y-43817932D01*
X142943411Y-43705990D01*
X143186632Y-43543475D01*
X143393475Y-43336632D01*
X143490000Y-43192172D01*
X143586525Y-43336632D01*
X143793368Y-43543475D01*
X144036589Y-43705990D01*
X144306842Y-43817932D01*
X144593740Y-43875000D01*
X144886260Y-43875000D01*
X145173158Y-43817932D01*
X145443411Y-43705990D01*
X145686632Y-43543475D01*
X145893475Y-43336632D01*
X146055990Y-43093411D01*
X146167932Y-42823158D01*
X146225000Y-42536260D01*
X146225000Y-42243740D01*
X148375000Y-42243740D01*
X148375000Y-42536260D01*
X148432068Y-42823158D01*
X148544010Y-43093411D01*
X148706525Y-43336632D01*
X148913368Y-43543475D01*
X149156589Y-43705990D01*
X149426842Y-43817932D01*
X149713740Y-43875000D01*
X150006260Y-43875000D01*
X150293158Y-43817932D01*
X150563411Y-43705990D01*
X150806632Y-43543475D01*
X151013475Y-43336632D01*
X151175990Y-43093411D01*
X151287932Y-42823158D01*
X151345000Y-42536260D01*
X151345000Y-42243740D01*
X153375000Y-42243740D01*
X153375000Y-42536260D01*
X153432068Y-42823158D01*
X153544010Y-43093411D01*
X153706525Y-43336632D01*
X153913368Y-43543475D01*
X154156589Y-43705990D01*
X154426842Y-43817932D01*
X154713740Y-43875000D01*
X155006260Y-43875000D01*
X155293158Y-43817932D01*
X155563411Y-43705990D01*
X155806632Y-43543475D01*
X156013475Y-43336632D01*
X156175990Y-43093411D01*
X156287932Y-42823158D01*
X156345000Y-42536260D01*
X156345000Y-42243740D01*
X156287932Y-41956842D01*
X156175990Y-41686589D01*
X156013475Y-41443368D01*
X155806632Y-41236525D01*
X155563411Y-41074010D01*
X155293158Y-40962068D01*
X155006260Y-40905000D01*
X154713740Y-40905000D01*
X154426842Y-40962068D01*
X154156589Y-41074010D01*
X153913368Y-41236525D01*
X153706525Y-41443368D01*
X153544010Y-41686589D01*
X153432068Y-41956842D01*
X153375000Y-42243740D01*
X151345000Y-42243740D01*
X151287932Y-41956842D01*
X151175990Y-41686589D01*
X151013475Y-41443368D01*
X150806632Y-41236525D01*
X150563411Y-41074010D01*
X150293158Y-40962068D01*
X150006260Y-40905000D01*
X149713740Y-40905000D01*
X149426842Y-40962068D01*
X149156589Y-41074010D01*
X148913368Y-41236525D01*
X148706525Y-41443368D01*
X148544010Y-41686589D01*
X148432068Y-41956842D01*
X148375000Y-42243740D01*
X146225000Y-42243740D01*
X146167932Y-41956842D01*
X146055990Y-41686589D01*
X145893475Y-41443368D01*
X145686632Y-41236525D01*
X145443411Y-41074010D01*
X145173158Y-40962068D01*
X144886260Y-40905000D01*
X144593740Y-40905000D01*
X144306842Y-40962068D01*
X144036589Y-41074010D01*
X143793368Y-41236525D01*
X143586525Y-41443368D01*
X143490000Y-41587828D01*
X143393475Y-41443368D01*
X143186632Y-41236525D01*
X142943411Y-41074010D01*
X142673158Y-40962068D01*
X142386260Y-40905000D01*
X142093740Y-40905000D01*
X141806842Y-40962068D01*
X141536589Y-41074010D01*
X141293368Y-41236525D01*
X141086525Y-41443368D01*
X140924010Y-41686589D01*
X140812068Y-41956842D01*
X140755000Y-42243740D01*
X139667928Y-42243740D01*
X137541000Y-40116813D01*
X137541000Y-40090238D01*
X137504884Y-39908671D01*
X137434040Y-39737638D01*
X137331190Y-39583713D01*
X137200287Y-39452810D01*
X137046362Y-39349960D01*
X136875329Y-39279116D01*
X136693762Y-39243000D01*
X136508638Y-39243000D01*
X136327071Y-39279116D01*
X136156038Y-39349960D01*
X136002113Y-39452810D01*
X135871210Y-39583713D01*
X135768360Y-39737638D01*
X135697516Y-39908671D01*
X135661400Y-40090238D01*
X135661400Y-40249239D01*
X135610801Y-40299838D01*
X135507951Y-40453763D01*
X135437107Y-40624796D01*
X135400991Y-40806363D01*
X100388062Y-40806363D01*
X100395000Y-40771486D01*
X100395000Y-40508514D01*
X100343696Y-40250595D01*
X100243061Y-40007641D01*
X100096962Y-39788987D01*
X99911013Y-39603038D01*
X99692359Y-39456939D01*
X99449405Y-39356304D01*
X99191486Y-39305000D01*
X98928514Y-39305000D01*
X98670595Y-39356304D01*
X98427641Y-39456939D01*
X98208987Y-39603038D01*
X98023038Y-39788987D01*
X97876939Y-40007641D01*
X97858072Y-40053190D01*
X97858072Y-39940000D01*
X97845812Y-39815518D01*
X97809502Y-39695820D01*
X97750537Y-39585506D01*
X97671185Y-39488815D01*
X97574494Y-39409463D01*
X97464180Y-39350498D01*
X97344482Y-39314188D01*
X97220000Y-39301928D01*
X95820000Y-39301928D01*
X95695518Y-39314188D01*
X95575820Y-39350498D01*
X95465506Y-39409463D01*
X95368815Y-39488815D01*
X95289463Y-39585506D01*
X95230498Y-39695820D01*
X95194188Y-39815518D01*
X95181928Y-39940000D01*
X89585000Y-39940000D01*
X89585000Y-38785000D01*
X156795000Y-38785000D01*
X156795001Y-57735000D01*
M02*
