G04 #@! TF.GenerationSoftware,KiCad,Pcbnew,(5.1.4-0-10_14)*
G04 #@! TF.CreationDate,2020-01-14T22:26:38-05:00*
G04 #@! TF.ProjectId,Steering,53746565-7269-46e6-972e-6b696361645f,rev?*
G04 #@! TF.SameCoordinates,Original*
G04 #@! TF.FileFunction,Paste,Top*
G04 #@! TF.FilePolarity,Positive*
%FSLAX46Y46*%
G04 Gerber Fmt 4.6, Leading zero omitted, Abs format (unit mm)*
G04 Created by KiCad (PCBNEW (5.1.4-0-10_14)) date 2020-01-14 22:26:38*
%MOMM*%
%LPD*%
G04 APERTURE LIST*
%ADD10R,1.000000X1.250000*%
%ADD11R,1.250000X1.000000*%
%ADD12R,1.200000X1.200000*%
%ADD13R,0.700000X1.300000*%
%ADD14R,1.300000X0.700000*%
%ADD15R,0.600000X1.550000*%
%ADD16R,1.600000X0.550000*%
%ADD17R,0.550000X1.600000*%
G04 APERTURE END LIST*
D10*
X120380000Y-48260000D03*
X118380000Y-48260000D03*
D11*
X114300000Y-49800000D03*
X114300000Y-51800000D03*
D10*
X137194800Y-42164000D03*
X135194800Y-42164000D03*
X124190000Y-55880000D03*
X122190000Y-55880000D03*
D11*
X120650000Y-53070000D03*
X120650000Y-51070000D03*
D12*
X140800000Y-55880000D03*
X138600000Y-55880000D03*
X135720000Y-55880000D03*
X133520000Y-55880000D03*
X129370000Y-55880000D03*
X127170000Y-55880000D03*
D13*
X108900000Y-55880000D03*
X107000000Y-55880000D03*
X108900000Y-41910000D03*
X107000000Y-41910000D03*
X153990000Y-55880000D03*
X155890000Y-55880000D03*
D14*
X133350000Y-53020000D03*
X133350000Y-51120000D03*
D13*
X152080000Y-55880000D03*
X150180000Y-55880000D03*
D14*
X130810000Y-51120000D03*
X130810000Y-53020000D03*
X128270000Y-51120000D03*
X128270000Y-53020000D03*
D13*
X146370000Y-55880000D03*
X148270000Y-55880000D03*
X138430000Y-44450000D03*
X136530000Y-44450000D03*
D14*
X121920000Y-40960000D03*
X121920000Y-42860000D03*
D15*
X116306600Y-45016400D03*
X117576600Y-45016400D03*
X118846600Y-45016400D03*
X120116600Y-45016400D03*
X120116600Y-39616400D03*
X118846600Y-39616400D03*
X117576600Y-39616400D03*
X116306600Y-39616400D03*
D16*
X124020000Y-41650000D03*
X124020000Y-42450000D03*
X124020000Y-43250000D03*
X124020000Y-44050000D03*
X124020000Y-44850000D03*
X124020000Y-45650000D03*
X124020000Y-46450000D03*
X124020000Y-47250000D03*
D17*
X125470000Y-48700000D03*
X126270000Y-48700000D03*
X127070000Y-48700000D03*
X127870000Y-48700000D03*
X128670000Y-48700000D03*
X129470000Y-48700000D03*
X130270000Y-48700000D03*
X131070000Y-48700000D03*
D16*
X132520000Y-47250000D03*
X132520000Y-46450000D03*
X132520000Y-45650000D03*
X132520000Y-44850000D03*
X132520000Y-44050000D03*
X132520000Y-43250000D03*
X132520000Y-42450000D03*
X132520000Y-41650000D03*
D17*
X131070000Y-40200000D03*
X130270000Y-40200000D03*
X129470000Y-40200000D03*
X128670000Y-40200000D03*
X127870000Y-40200000D03*
X127070000Y-40200000D03*
X126270000Y-40200000D03*
X125470000Y-40200000D03*
M02*
