G04 #@! TF.GenerationSoftware,KiCad,Pcbnew,(5.1.4-0-10_14)*
G04 #@! TF.CreationDate,2020-02-13T02:06:37-05:00*
G04 #@! TF.ProjectId,Buck_HighCurrent,4275636b-5f48-4696-9768-43757272656e,rev?*
G04 #@! TF.SameCoordinates,Original*
G04 #@! TF.FileFunction,Copper,L1,Top*
G04 #@! TF.FilePolarity,Positive*
%FSLAX46Y46*%
G04 Gerber Fmt 4.6, Leading zero omitted, Abs format (unit mm)*
G04 Created by KiCad (PCBNEW (5.1.4-0-10_14)) date 2020-02-13 02:06:37*
%MOMM*%
%LPD*%
G04 APERTURE LIST*
%ADD10C,0.100000*%
%ADD11C,0.875000*%
%ADD12R,1.250000X1.000000*%
%ADD13R,1.600000X1.000000*%
%ADD14C,1.125000*%
%ADD15R,2.159000X1.778000*%
%ADD16R,1.200000X1.200000*%
%ADD17R,2.692400X1.981200*%
%ADD18R,1.300000X0.700000*%
%ADD19R,1.000000X3.200000*%
%ADD20R,0.700000X0.200000*%
%ADD21R,4.500000X3.000000*%
%ADD22C,0.800000*%
%ADD23C,0.254000*%
%ADD24C,0.762000*%
G04 APERTURE END LIST*
D10*
G36*
X107447911Y-116614473D02*
G01*
X107469146Y-116617623D01*
X107489970Y-116622839D01*
X107510182Y-116630071D01*
X107529588Y-116639250D01*
X107548001Y-116650286D01*
X107565244Y-116663074D01*
X107581150Y-116677490D01*
X107595566Y-116693396D01*
X107608354Y-116710639D01*
X107619390Y-116729052D01*
X107628569Y-116748458D01*
X107635801Y-116768670D01*
X107641017Y-116789494D01*
X107644167Y-116810729D01*
X107645220Y-116832170D01*
X107645220Y-117269670D01*
X107644167Y-117291111D01*
X107641017Y-117312346D01*
X107635801Y-117333170D01*
X107628569Y-117353382D01*
X107619390Y-117372788D01*
X107608354Y-117391201D01*
X107595566Y-117408444D01*
X107581150Y-117424350D01*
X107565244Y-117438766D01*
X107548001Y-117451554D01*
X107529588Y-117462590D01*
X107510182Y-117471769D01*
X107489970Y-117479001D01*
X107469146Y-117484217D01*
X107447911Y-117487367D01*
X107426470Y-117488420D01*
X106913970Y-117488420D01*
X106892529Y-117487367D01*
X106871294Y-117484217D01*
X106850470Y-117479001D01*
X106830258Y-117471769D01*
X106810852Y-117462590D01*
X106792439Y-117451554D01*
X106775196Y-117438766D01*
X106759290Y-117424350D01*
X106744874Y-117408444D01*
X106732086Y-117391201D01*
X106721050Y-117372788D01*
X106711871Y-117353382D01*
X106704639Y-117333170D01*
X106699423Y-117312346D01*
X106696273Y-117291111D01*
X106695220Y-117269670D01*
X106695220Y-116832170D01*
X106696273Y-116810729D01*
X106699423Y-116789494D01*
X106704639Y-116768670D01*
X106711871Y-116748458D01*
X106721050Y-116729052D01*
X106732086Y-116710639D01*
X106744874Y-116693396D01*
X106759290Y-116677490D01*
X106775196Y-116663074D01*
X106792439Y-116650286D01*
X106810852Y-116639250D01*
X106830258Y-116630071D01*
X106850470Y-116622839D01*
X106871294Y-116617623D01*
X106892529Y-116614473D01*
X106913970Y-116613420D01*
X107426470Y-116613420D01*
X107447911Y-116614473D01*
X107447911Y-116614473D01*
G37*
D11*
X107170220Y-117050920D03*
D10*
G36*
X107447911Y-115039473D02*
G01*
X107469146Y-115042623D01*
X107489970Y-115047839D01*
X107510182Y-115055071D01*
X107529588Y-115064250D01*
X107548001Y-115075286D01*
X107565244Y-115088074D01*
X107581150Y-115102490D01*
X107595566Y-115118396D01*
X107608354Y-115135639D01*
X107619390Y-115154052D01*
X107628569Y-115173458D01*
X107635801Y-115193670D01*
X107641017Y-115214494D01*
X107644167Y-115235729D01*
X107645220Y-115257170D01*
X107645220Y-115694670D01*
X107644167Y-115716111D01*
X107641017Y-115737346D01*
X107635801Y-115758170D01*
X107628569Y-115778382D01*
X107619390Y-115797788D01*
X107608354Y-115816201D01*
X107595566Y-115833444D01*
X107581150Y-115849350D01*
X107565244Y-115863766D01*
X107548001Y-115876554D01*
X107529588Y-115887590D01*
X107510182Y-115896769D01*
X107489970Y-115904001D01*
X107469146Y-115909217D01*
X107447911Y-115912367D01*
X107426470Y-115913420D01*
X106913970Y-115913420D01*
X106892529Y-115912367D01*
X106871294Y-115909217D01*
X106850470Y-115904001D01*
X106830258Y-115896769D01*
X106810852Y-115887590D01*
X106792439Y-115876554D01*
X106775196Y-115863766D01*
X106759290Y-115849350D01*
X106744874Y-115833444D01*
X106732086Y-115816201D01*
X106721050Y-115797788D01*
X106711871Y-115778382D01*
X106704639Y-115758170D01*
X106699423Y-115737346D01*
X106696273Y-115716111D01*
X106695220Y-115694670D01*
X106695220Y-115257170D01*
X106696273Y-115235729D01*
X106699423Y-115214494D01*
X106704639Y-115193670D01*
X106711871Y-115173458D01*
X106721050Y-115154052D01*
X106732086Y-115135639D01*
X106744874Y-115118396D01*
X106759290Y-115102490D01*
X106775196Y-115088074D01*
X106792439Y-115075286D01*
X106810852Y-115064250D01*
X106830258Y-115055071D01*
X106850470Y-115047839D01*
X106871294Y-115042623D01*
X106892529Y-115039473D01*
X106913970Y-115038420D01*
X107426470Y-115038420D01*
X107447911Y-115039473D01*
X107447911Y-115039473D01*
G37*
D11*
X107170220Y-115475920D03*
D12*
X109308900Y-115199920D03*
X109308900Y-117199920D03*
X111574580Y-117151660D03*
X111574580Y-115151660D03*
D10*
G36*
X112416651Y-120551973D02*
G01*
X112437886Y-120555123D01*
X112458710Y-120560339D01*
X112478922Y-120567571D01*
X112498328Y-120576750D01*
X112516741Y-120587786D01*
X112533984Y-120600574D01*
X112549890Y-120614990D01*
X112564306Y-120630896D01*
X112577094Y-120648139D01*
X112588130Y-120666552D01*
X112597309Y-120685958D01*
X112604541Y-120706170D01*
X112609757Y-120726994D01*
X112612907Y-120748229D01*
X112613960Y-120769670D01*
X112613960Y-121282170D01*
X112612907Y-121303611D01*
X112609757Y-121324846D01*
X112604541Y-121345670D01*
X112597309Y-121365882D01*
X112588130Y-121385288D01*
X112577094Y-121403701D01*
X112564306Y-121420944D01*
X112549890Y-121436850D01*
X112533984Y-121451266D01*
X112516741Y-121464054D01*
X112498328Y-121475090D01*
X112478922Y-121484269D01*
X112458710Y-121491501D01*
X112437886Y-121496717D01*
X112416651Y-121499867D01*
X112395210Y-121500920D01*
X111957710Y-121500920D01*
X111936269Y-121499867D01*
X111915034Y-121496717D01*
X111894210Y-121491501D01*
X111873998Y-121484269D01*
X111854592Y-121475090D01*
X111836179Y-121464054D01*
X111818936Y-121451266D01*
X111803030Y-121436850D01*
X111788614Y-121420944D01*
X111775826Y-121403701D01*
X111764790Y-121385288D01*
X111755611Y-121365882D01*
X111748379Y-121345670D01*
X111743163Y-121324846D01*
X111740013Y-121303611D01*
X111738960Y-121282170D01*
X111738960Y-120769670D01*
X111740013Y-120748229D01*
X111743163Y-120726994D01*
X111748379Y-120706170D01*
X111755611Y-120685958D01*
X111764790Y-120666552D01*
X111775826Y-120648139D01*
X111788614Y-120630896D01*
X111803030Y-120614990D01*
X111818936Y-120600574D01*
X111836179Y-120587786D01*
X111854592Y-120576750D01*
X111873998Y-120567571D01*
X111894210Y-120560339D01*
X111915034Y-120555123D01*
X111936269Y-120551973D01*
X111957710Y-120550920D01*
X112395210Y-120550920D01*
X112416651Y-120551973D01*
X112416651Y-120551973D01*
G37*
D11*
X112176460Y-121025920D03*
D10*
G36*
X113991651Y-120551973D02*
G01*
X114012886Y-120555123D01*
X114033710Y-120560339D01*
X114053922Y-120567571D01*
X114073328Y-120576750D01*
X114091741Y-120587786D01*
X114108984Y-120600574D01*
X114124890Y-120614990D01*
X114139306Y-120630896D01*
X114152094Y-120648139D01*
X114163130Y-120666552D01*
X114172309Y-120685958D01*
X114179541Y-120706170D01*
X114184757Y-120726994D01*
X114187907Y-120748229D01*
X114188960Y-120769670D01*
X114188960Y-121282170D01*
X114187907Y-121303611D01*
X114184757Y-121324846D01*
X114179541Y-121345670D01*
X114172309Y-121365882D01*
X114163130Y-121385288D01*
X114152094Y-121403701D01*
X114139306Y-121420944D01*
X114124890Y-121436850D01*
X114108984Y-121451266D01*
X114091741Y-121464054D01*
X114073328Y-121475090D01*
X114053922Y-121484269D01*
X114033710Y-121491501D01*
X114012886Y-121496717D01*
X113991651Y-121499867D01*
X113970210Y-121500920D01*
X113532710Y-121500920D01*
X113511269Y-121499867D01*
X113490034Y-121496717D01*
X113469210Y-121491501D01*
X113448998Y-121484269D01*
X113429592Y-121475090D01*
X113411179Y-121464054D01*
X113393936Y-121451266D01*
X113378030Y-121436850D01*
X113363614Y-121420944D01*
X113350826Y-121403701D01*
X113339790Y-121385288D01*
X113330611Y-121365882D01*
X113323379Y-121345670D01*
X113318163Y-121324846D01*
X113315013Y-121303611D01*
X113313960Y-121282170D01*
X113313960Y-120769670D01*
X113315013Y-120748229D01*
X113318163Y-120726994D01*
X113323379Y-120706170D01*
X113330611Y-120685958D01*
X113339790Y-120666552D01*
X113350826Y-120648139D01*
X113363614Y-120630896D01*
X113378030Y-120614990D01*
X113393936Y-120600574D01*
X113411179Y-120587786D01*
X113429592Y-120576750D01*
X113448998Y-120567571D01*
X113469210Y-120560339D01*
X113490034Y-120555123D01*
X113511269Y-120551973D01*
X113532710Y-120550920D01*
X113970210Y-120550920D01*
X113991651Y-120551973D01*
X113991651Y-120551973D01*
G37*
D11*
X113751460Y-121025920D03*
D12*
X100007420Y-127226820D03*
X100007420Y-129226820D03*
D13*
X102270560Y-127250060D03*
X102270560Y-130250060D03*
D10*
G36*
X107097865Y-126765004D02*
G01*
X107122133Y-126768604D01*
X107145932Y-126774565D01*
X107169031Y-126782830D01*
X107191210Y-126793320D01*
X107212253Y-126805932D01*
X107231959Y-126820547D01*
X107250137Y-126837023D01*
X107266613Y-126855201D01*
X107281228Y-126874907D01*
X107293840Y-126895950D01*
X107304330Y-126918129D01*
X107312595Y-126941228D01*
X107318556Y-126965027D01*
X107322156Y-126989295D01*
X107323360Y-127013799D01*
X107323360Y-127638801D01*
X107322156Y-127663305D01*
X107318556Y-127687573D01*
X107312595Y-127711372D01*
X107304330Y-127734471D01*
X107293840Y-127756650D01*
X107281228Y-127777693D01*
X107266613Y-127797399D01*
X107250137Y-127815577D01*
X107231959Y-127832053D01*
X107212253Y-127846668D01*
X107191210Y-127859280D01*
X107169031Y-127869770D01*
X107145932Y-127878035D01*
X107122133Y-127883996D01*
X107097865Y-127887596D01*
X107073361Y-127888800D01*
X104173359Y-127888800D01*
X104148855Y-127887596D01*
X104124587Y-127883996D01*
X104100788Y-127878035D01*
X104077689Y-127869770D01*
X104055510Y-127859280D01*
X104034467Y-127846668D01*
X104014761Y-127832053D01*
X103996583Y-127815577D01*
X103980107Y-127797399D01*
X103965492Y-127777693D01*
X103952880Y-127756650D01*
X103942390Y-127734471D01*
X103934125Y-127711372D01*
X103928164Y-127687573D01*
X103924564Y-127663305D01*
X103923360Y-127638801D01*
X103923360Y-127013799D01*
X103924564Y-126989295D01*
X103928164Y-126965027D01*
X103934125Y-126941228D01*
X103942390Y-126918129D01*
X103952880Y-126895950D01*
X103965492Y-126874907D01*
X103980107Y-126855201D01*
X103996583Y-126837023D01*
X104014761Y-126820547D01*
X104034467Y-126805932D01*
X104055510Y-126793320D01*
X104077689Y-126782830D01*
X104100788Y-126774565D01*
X104124587Y-126768604D01*
X104148855Y-126765004D01*
X104173359Y-126763800D01*
X107073361Y-126763800D01*
X107097865Y-126765004D01*
X107097865Y-126765004D01*
G37*
D14*
X105623360Y-127326300D03*
D10*
G36*
X107097865Y-131040004D02*
G01*
X107122133Y-131043604D01*
X107145932Y-131049565D01*
X107169031Y-131057830D01*
X107191210Y-131068320D01*
X107212253Y-131080932D01*
X107231959Y-131095547D01*
X107250137Y-131112023D01*
X107266613Y-131130201D01*
X107281228Y-131149907D01*
X107293840Y-131170950D01*
X107304330Y-131193129D01*
X107312595Y-131216228D01*
X107318556Y-131240027D01*
X107322156Y-131264295D01*
X107323360Y-131288799D01*
X107323360Y-131913801D01*
X107322156Y-131938305D01*
X107318556Y-131962573D01*
X107312595Y-131986372D01*
X107304330Y-132009471D01*
X107293840Y-132031650D01*
X107281228Y-132052693D01*
X107266613Y-132072399D01*
X107250137Y-132090577D01*
X107231959Y-132107053D01*
X107212253Y-132121668D01*
X107191210Y-132134280D01*
X107169031Y-132144770D01*
X107145932Y-132153035D01*
X107122133Y-132158996D01*
X107097865Y-132162596D01*
X107073361Y-132163800D01*
X104173359Y-132163800D01*
X104148855Y-132162596D01*
X104124587Y-132158996D01*
X104100788Y-132153035D01*
X104077689Y-132144770D01*
X104055510Y-132134280D01*
X104034467Y-132121668D01*
X104014761Y-132107053D01*
X103996583Y-132090577D01*
X103980107Y-132072399D01*
X103965492Y-132052693D01*
X103952880Y-132031650D01*
X103942390Y-132009471D01*
X103934125Y-131986372D01*
X103928164Y-131962573D01*
X103924564Y-131938305D01*
X103923360Y-131913801D01*
X103923360Y-131288799D01*
X103924564Y-131264295D01*
X103928164Y-131240027D01*
X103934125Y-131216228D01*
X103942390Y-131193129D01*
X103952880Y-131170950D01*
X103965492Y-131149907D01*
X103980107Y-131130201D01*
X103996583Y-131112023D01*
X104014761Y-131095547D01*
X104034467Y-131080932D01*
X104055510Y-131068320D01*
X104077689Y-131057830D01*
X104100788Y-131049565D01*
X104124587Y-131043604D01*
X104148855Y-131040004D01*
X104173359Y-131038800D01*
X107073361Y-131038800D01*
X107097865Y-131040004D01*
X107097865Y-131040004D01*
G37*
D14*
X105623360Y-131601300D03*
D10*
G36*
X111222351Y-123967573D02*
G01*
X111243586Y-123970723D01*
X111264410Y-123975939D01*
X111284622Y-123983171D01*
X111304028Y-123992350D01*
X111322441Y-124003386D01*
X111339684Y-124016174D01*
X111355590Y-124030590D01*
X111370006Y-124046496D01*
X111382794Y-124063739D01*
X111393830Y-124082152D01*
X111403009Y-124101558D01*
X111410241Y-124121770D01*
X111415457Y-124142594D01*
X111418607Y-124163829D01*
X111419660Y-124185270D01*
X111419660Y-124622770D01*
X111418607Y-124644211D01*
X111415457Y-124665446D01*
X111410241Y-124686270D01*
X111403009Y-124706482D01*
X111393830Y-124725888D01*
X111382794Y-124744301D01*
X111370006Y-124761544D01*
X111355590Y-124777450D01*
X111339684Y-124791866D01*
X111322441Y-124804654D01*
X111304028Y-124815690D01*
X111284622Y-124824869D01*
X111264410Y-124832101D01*
X111243586Y-124837317D01*
X111222351Y-124840467D01*
X111200910Y-124841520D01*
X110688410Y-124841520D01*
X110666969Y-124840467D01*
X110645734Y-124837317D01*
X110624910Y-124832101D01*
X110604698Y-124824869D01*
X110585292Y-124815690D01*
X110566879Y-124804654D01*
X110549636Y-124791866D01*
X110533730Y-124777450D01*
X110519314Y-124761544D01*
X110506526Y-124744301D01*
X110495490Y-124725888D01*
X110486311Y-124706482D01*
X110479079Y-124686270D01*
X110473863Y-124665446D01*
X110470713Y-124644211D01*
X110469660Y-124622770D01*
X110469660Y-124185270D01*
X110470713Y-124163829D01*
X110473863Y-124142594D01*
X110479079Y-124121770D01*
X110486311Y-124101558D01*
X110495490Y-124082152D01*
X110506526Y-124063739D01*
X110519314Y-124046496D01*
X110533730Y-124030590D01*
X110549636Y-124016174D01*
X110566879Y-124003386D01*
X110585292Y-123992350D01*
X110604698Y-123983171D01*
X110624910Y-123975939D01*
X110645734Y-123970723D01*
X110666969Y-123967573D01*
X110688410Y-123966520D01*
X111200910Y-123966520D01*
X111222351Y-123967573D01*
X111222351Y-123967573D01*
G37*
D11*
X110944660Y-124404020D03*
D10*
G36*
X111222351Y-125542573D02*
G01*
X111243586Y-125545723D01*
X111264410Y-125550939D01*
X111284622Y-125558171D01*
X111304028Y-125567350D01*
X111322441Y-125578386D01*
X111339684Y-125591174D01*
X111355590Y-125605590D01*
X111370006Y-125621496D01*
X111382794Y-125638739D01*
X111393830Y-125657152D01*
X111403009Y-125676558D01*
X111410241Y-125696770D01*
X111415457Y-125717594D01*
X111418607Y-125738829D01*
X111419660Y-125760270D01*
X111419660Y-126197770D01*
X111418607Y-126219211D01*
X111415457Y-126240446D01*
X111410241Y-126261270D01*
X111403009Y-126281482D01*
X111393830Y-126300888D01*
X111382794Y-126319301D01*
X111370006Y-126336544D01*
X111355590Y-126352450D01*
X111339684Y-126366866D01*
X111322441Y-126379654D01*
X111304028Y-126390690D01*
X111284622Y-126399869D01*
X111264410Y-126407101D01*
X111243586Y-126412317D01*
X111222351Y-126415467D01*
X111200910Y-126416520D01*
X110688410Y-126416520D01*
X110666969Y-126415467D01*
X110645734Y-126412317D01*
X110624910Y-126407101D01*
X110604698Y-126399869D01*
X110585292Y-126390690D01*
X110566879Y-126379654D01*
X110549636Y-126366866D01*
X110533730Y-126352450D01*
X110519314Y-126336544D01*
X110506526Y-126319301D01*
X110495490Y-126300888D01*
X110486311Y-126281482D01*
X110479079Y-126261270D01*
X110473863Y-126240446D01*
X110470713Y-126219211D01*
X110469660Y-126197770D01*
X110469660Y-125760270D01*
X110470713Y-125738829D01*
X110473863Y-125717594D01*
X110479079Y-125696770D01*
X110486311Y-125676558D01*
X110495490Y-125657152D01*
X110506526Y-125638739D01*
X110519314Y-125621496D01*
X110533730Y-125605590D01*
X110549636Y-125591174D01*
X110566879Y-125578386D01*
X110585292Y-125567350D01*
X110604698Y-125558171D01*
X110624910Y-125550939D01*
X110645734Y-125545723D01*
X110666969Y-125542573D01*
X110688410Y-125541520D01*
X111200910Y-125541520D01*
X111222351Y-125542573D01*
X111222351Y-125542573D01*
G37*
D11*
X110944660Y-125979020D03*
D15*
X104096820Y-113190020D03*
X104096820Y-117254020D03*
D16*
X100688140Y-114483060D03*
X100688140Y-112283060D03*
X115661260Y-125991620D03*
X117861260Y-125991620D03*
D10*
G36*
X100110325Y-120254984D02*
G01*
X100134593Y-120258584D01*
X100158392Y-120264545D01*
X100181491Y-120272810D01*
X100203670Y-120283300D01*
X100224713Y-120295912D01*
X100244419Y-120310527D01*
X100262597Y-120327003D01*
X100279073Y-120345181D01*
X100293688Y-120364887D01*
X100306300Y-120385930D01*
X100316790Y-120408109D01*
X100325055Y-120431208D01*
X100331016Y-120455007D01*
X100334616Y-120479275D01*
X100335820Y-120503779D01*
X100335820Y-121128781D01*
X100334616Y-121153285D01*
X100331016Y-121177553D01*
X100325055Y-121201352D01*
X100316790Y-121224451D01*
X100306300Y-121246630D01*
X100293688Y-121267673D01*
X100279073Y-121287379D01*
X100262597Y-121305557D01*
X100244419Y-121322033D01*
X100224713Y-121336648D01*
X100203670Y-121349260D01*
X100181491Y-121359750D01*
X100158392Y-121368015D01*
X100134593Y-121373976D01*
X100110325Y-121377576D01*
X100085821Y-121378780D01*
X97185819Y-121378780D01*
X97161315Y-121377576D01*
X97137047Y-121373976D01*
X97113248Y-121368015D01*
X97090149Y-121359750D01*
X97067970Y-121349260D01*
X97046927Y-121336648D01*
X97027221Y-121322033D01*
X97009043Y-121305557D01*
X96992567Y-121287379D01*
X96977952Y-121267673D01*
X96965340Y-121246630D01*
X96954850Y-121224451D01*
X96946585Y-121201352D01*
X96940624Y-121177553D01*
X96937024Y-121153285D01*
X96935820Y-121128781D01*
X96935820Y-120503779D01*
X96937024Y-120479275D01*
X96940624Y-120455007D01*
X96946585Y-120431208D01*
X96954850Y-120408109D01*
X96965340Y-120385930D01*
X96977952Y-120364887D01*
X96992567Y-120345181D01*
X97009043Y-120327003D01*
X97027221Y-120310527D01*
X97046927Y-120295912D01*
X97067970Y-120283300D01*
X97090149Y-120272810D01*
X97113248Y-120264545D01*
X97137047Y-120258584D01*
X97161315Y-120254984D01*
X97185819Y-120253780D01*
X100085821Y-120253780D01*
X100110325Y-120254984D01*
X100110325Y-120254984D01*
G37*
D14*
X98635820Y-120816280D03*
D10*
G36*
X100110325Y-124529984D02*
G01*
X100134593Y-124533584D01*
X100158392Y-124539545D01*
X100181491Y-124547810D01*
X100203670Y-124558300D01*
X100224713Y-124570912D01*
X100244419Y-124585527D01*
X100262597Y-124602003D01*
X100279073Y-124620181D01*
X100293688Y-124639887D01*
X100306300Y-124660930D01*
X100316790Y-124683109D01*
X100325055Y-124706208D01*
X100331016Y-124730007D01*
X100334616Y-124754275D01*
X100335820Y-124778779D01*
X100335820Y-125403781D01*
X100334616Y-125428285D01*
X100331016Y-125452553D01*
X100325055Y-125476352D01*
X100316790Y-125499451D01*
X100306300Y-125521630D01*
X100293688Y-125542673D01*
X100279073Y-125562379D01*
X100262597Y-125580557D01*
X100244419Y-125597033D01*
X100224713Y-125611648D01*
X100203670Y-125624260D01*
X100181491Y-125634750D01*
X100158392Y-125643015D01*
X100134593Y-125648976D01*
X100110325Y-125652576D01*
X100085821Y-125653780D01*
X97185819Y-125653780D01*
X97161315Y-125652576D01*
X97137047Y-125648976D01*
X97113248Y-125643015D01*
X97090149Y-125634750D01*
X97067970Y-125624260D01*
X97046927Y-125611648D01*
X97027221Y-125597033D01*
X97009043Y-125580557D01*
X96992567Y-125562379D01*
X96977952Y-125542673D01*
X96965340Y-125521630D01*
X96954850Y-125499451D01*
X96946585Y-125476352D01*
X96940624Y-125452553D01*
X96937024Y-125428285D01*
X96935820Y-125403781D01*
X96935820Y-124778779D01*
X96937024Y-124754275D01*
X96940624Y-124730007D01*
X96946585Y-124706208D01*
X96954850Y-124683109D01*
X96965340Y-124660930D01*
X96977952Y-124639887D01*
X96992567Y-124620181D01*
X97009043Y-124602003D01*
X97027221Y-124585527D01*
X97046927Y-124570912D01*
X97067970Y-124558300D01*
X97090149Y-124547810D01*
X97113248Y-124539545D01*
X97137047Y-124533584D01*
X97161315Y-124529984D01*
X97185819Y-124528780D01*
X100085821Y-124528780D01*
X100110325Y-124529984D01*
X100110325Y-124529984D01*
G37*
D14*
X98635820Y-125091280D03*
D17*
X104114600Y-124714000D03*
X104114600Y-120650000D03*
D18*
X113964720Y-119222560D03*
X113964720Y-117322560D03*
X115940840Y-117322560D03*
X115940840Y-119222560D03*
X117975380Y-117309860D03*
X117975380Y-119209860D03*
D19*
X114885400Y-129123440D03*
X108685400Y-129123440D03*
D18*
X117815360Y-128135340D03*
X117815360Y-130035340D03*
D10*
G36*
X109545951Y-125542573D02*
G01*
X109567186Y-125545723D01*
X109588010Y-125550939D01*
X109608222Y-125558171D01*
X109627628Y-125567350D01*
X109646041Y-125578386D01*
X109663284Y-125591174D01*
X109679190Y-125605590D01*
X109693606Y-125621496D01*
X109706394Y-125638739D01*
X109717430Y-125657152D01*
X109726609Y-125676558D01*
X109733841Y-125696770D01*
X109739057Y-125717594D01*
X109742207Y-125738829D01*
X109743260Y-125760270D01*
X109743260Y-126197770D01*
X109742207Y-126219211D01*
X109739057Y-126240446D01*
X109733841Y-126261270D01*
X109726609Y-126281482D01*
X109717430Y-126300888D01*
X109706394Y-126319301D01*
X109693606Y-126336544D01*
X109679190Y-126352450D01*
X109663284Y-126366866D01*
X109646041Y-126379654D01*
X109627628Y-126390690D01*
X109608222Y-126399869D01*
X109588010Y-126407101D01*
X109567186Y-126412317D01*
X109545951Y-126415467D01*
X109524510Y-126416520D01*
X109012010Y-126416520D01*
X108990569Y-126415467D01*
X108969334Y-126412317D01*
X108948510Y-126407101D01*
X108928298Y-126399869D01*
X108908892Y-126390690D01*
X108890479Y-126379654D01*
X108873236Y-126366866D01*
X108857330Y-126352450D01*
X108842914Y-126336544D01*
X108830126Y-126319301D01*
X108819090Y-126300888D01*
X108809911Y-126281482D01*
X108802679Y-126261270D01*
X108797463Y-126240446D01*
X108794313Y-126219211D01*
X108793260Y-126197770D01*
X108793260Y-125760270D01*
X108794313Y-125738829D01*
X108797463Y-125717594D01*
X108802679Y-125696770D01*
X108809911Y-125676558D01*
X108819090Y-125657152D01*
X108830126Y-125638739D01*
X108842914Y-125621496D01*
X108857330Y-125605590D01*
X108873236Y-125591174D01*
X108890479Y-125578386D01*
X108908892Y-125567350D01*
X108928298Y-125558171D01*
X108948510Y-125550939D01*
X108969334Y-125545723D01*
X108990569Y-125542573D01*
X109012010Y-125541520D01*
X109524510Y-125541520D01*
X109545951Y-125542573D01*
X109545951Y-125542573D01*
G37*
D11*
X109268260Y-125979020D03*
D10*
G36*
X109545951Y-123967573D02*
G01*
X109567186Y-123970723D01*
X109588010Y-123975939D01*
X109608222Y-123983171D01*
X109627628Y-123992350D01*
X109646041Y-124003386D01*
X109663284Y-124016174D01*
X109679190Y-124030590D01*
X109693606Y-124046496D01*
X109706394Y-124063739D01*
X109717430Y-124082152D01*
X109726609Y-124101558D01*
X109733841Y-124121770D01*
X109739057Y-124142594D01*
X109742207Y-124163829D01*
X109743260Y-124185270D01*
X109743260Y-124622770D01*
X109742207Y-124644211D01*
X109739057Y-124665446D01*
X109733841Y-124686270D01*
X109726609Y-124706482D01*
X109717430Y-124725888D01*
X109706394Y-124744301D01*
X109693606Y-124761544D01*
X109679190Y-124777450D01*
X109663284Y-124791866D01*
X109646041Y-124804654D01*
X109627628Y-124815690D01*
X109608222Y-124824869D01*
X109588010Y-124832101D01*
X109567186Y-124837317D01*
X109545951Y-124840467D01*
X109524510Y-124841520D01*
X109012010Y-124841520D01*
X108990569Y-124840467D01*
X108969334Y-124837317D01*
X108948510Y-124832101D01*
X108928298Y-124824869D01*
X108908892Y-124815690D01*
X108890479Y-124804654D01*
X108873236Y-124791866D01*
X108857330Y-124777450D01*
X108842914Y-124761544D01*
X108830126Y-124744301D01*
X108819090Y-124725888D01*
X108809911Y-124706482D01*
X108802679Y-124686270D01*
X108797463Y-124665446D01*
X108794313Y-124644211D01*
X108793260Y-124622770D01*
X108793260Y-124185270D01*
X108794313Y-124163829D01*
X108797463Y-124142594D01*
X108802679Y-124121770D01*
X108809911Y-124101558D01*
X108819090Y-124082152D01*
X108830126Y-124063739D01*
X108842914Y-124046496D01*
X108857330Y-124030590D01*
X108873236Y-124016174D01*
X108890479Y-124003386D01*
X108908892Y-123992350D01*
X108928298Y-123983171D01*
X108948510Y-123975939D01*
X108969334Y-123970723D01*
X108990569Y-123967573D01*
X109012010Y-123966520D01*
X109524510Y-123966520D01*
X109545951Y-123967573D01*
X109545951Y-123967573D01*
G37*
D11*
X109268260Y-124404020D03*
D20*
X108802740Y-119860440D03*
X108802740Y-120860440D03*
X110302740Y-119860440D03*
X108802740Y-120360440D03*
X110302740Y-120860440D03*
X110302740Y-120360440D03*
D21*
X101119940Y-136519920D03*
X113263680Y-136542780D03*
X106936540Y-136519920D03*
D18*
X100660200Y-118168460D03*
X100660200Y-116268460D03*
D22*
X112406779Y-119707881D03*
X113024920Y-116039900D03*
X97282000Y-128016000D03*
X97282000Y-129286000D03*
X97282000Y-130556000D03*
X97282000Y-131826000D03*
X107950000Y-122174000D03*
X109220000Y-122174000D03*
X110490000Y-122174000D03*
X97282000Y-116332000D03*
X98298000Y-115316000D03*
X97282000Y-114300000D03*
X98298000Y-113284000D03*
X116586000Y-114808000D03*
X116840000Y-112014000D03*
X114300000Y-112014000D03*
X112014000Y-112014000D03*
X109728000Y-112014000D03*
X107696000Y-112014000D03*
X112453420Y-122509280D03*
X107373420Y-120347740D03*
D23*
X112247675Y-119707881D02*
X112406779Y-119707881D01*
X111595116Y-120360440D02*
X112247675Y-119707881D01*
X110302740Y-120360440D02*
X111595116Y-120360440D01*
X112686340Y-116039900D02*
X111574580Y-117151660D01*
X113024920Y-116039900D02*
X112686340Y-116039900D01*
X109354339Y-120860440D02*
X109514640Y-120700139D01*
X108802740Y-120860440D02*
X109354339Y-120860440D01*
X109514640Y-120700139D02*
X109514640Y-119047260D01*
D24*
X106256570Y-132234510D02*
X112314150Y-132234510D01*
X105623360Y-131601300D02*
X106256570Y-132234510D01*
X112314150Y-132234510D02*
X112966500Y-131582160D01*
X114871418Y-125991620D02*
X115661260Y-125991620D01*
X112966500Y-127896538D02*
X114871418Y-125991620D01*
X112966500Y-131582160D02*
X112966500Y-127896538D01*
X114939430Y-116347850D02*
X113964720Y-117322560D01*
X119450777Y-116347850D02*
X114939430Y-116347850D01*
X120484250Y-117381323D02*
X119450777Y-116347850D01*
X120484250Y-119947077D02*
X120484250Y-117381323D01*
X115661260Y-124770066D02*
X120484250Y-119947077D01*
X115661260Y-125991620D02*
X115661260Y-124770066D01*
X113964720Y-117322560D02*
X113664720Y-117322560D01*
D23*
X113664720Y-117322560D02*
X112496280Y-118491000D01*
X112496280Y-118491000D02*
X110490000Y-118491000D01*
D24*
X106809540Y-136392920D02*
X106936540Y-136519920D01*
X106809540Y-132787480D02*
X106809540Y-136392920D01*
X105623360Y-131601300D02*
X106809540Y-132787480D01*
D23*
X112010980Y-120860440D02*
X112176460Y-121025920D01*
X110302740Y-120860440D02*
X112010980Y-120860440D01*
X113751460Y-121211240D02*
X112453420Y-122509280D01*
X113751460Y-121025920D02*
X113751460Y-121211240D01*
X107386120Y-120360440D02*
X107373420Y-120347740D01*
X108802740Y-120360440D02*
X107386120Y-120360440D01*
D24*
X119052300Y-117309860D02*
X117975380Y-117309860D01*
X119522240Y-117779800D02*
X119052300Y-117309860D01*
X119522240Y-119548600D02*
X119522240Y-117779800D01*
X109947400Y-129123440D02*
X119522240Y-119548600D01*
X108685400Y-129123440D02*
X109947400Y-129123440D01*
X115864720Y-117322560D02*
X113964720Y-119222560D01*
X115940840Y-117322560D02*
X115864720Y-117322560D01*
X114769970Y-120027810D02*
X113964720Y-119222560D01*
X114769970Y-121889450D02*
X114769970Y-120027810D01*
X112255400Y-124404020D02*
X114769970Y-121889450D01*
X110944660Y-124404020D02*
X112255400Y-124404020D01*
D23*
X112819040Y-118980880D02*
X113060720Y-119222560D01*
X111786300Y-118980880D02*
X112819040Y-118980880D01*
X113060720Y-119222560D02*
X113964720Y-119222560D01*
X110906740Y-119860440D02*
X111786300Y-118980880D01*
X110302740Y-119860440D02*
X110906740Y-119860440D01*
D24*
X95138240Y-133731000D02*
X96403160Y-134995920D01*
X96403160Y-134995920D02*
X100992940Y-134995920D01*
X96328140Y-125091280D02*
X95138240Y-126281180D01*
X95138240Y-126281180D02*
X95138240Y-133731000D01*
X98635820Y-125091280D02*
X96328140Y-125091280D01*
X100992940Y-136392920D02*
X101119940Y-136519920D01*
X100992940Y-134995920D02*
X100992940Y-136392920D01*
X117962680Y-119222560D02*
X117975380Y-119209860D01*
X115940840Y-119222560D02*
X117962680Y-119222560D01*
X114885400Y-133270060D02*
X114885400Y-129123440D01*
X113136680Y-135018780D02*
X114885400Y-133270060D01*
X115182580Y-129420620D02*
X117200640Y-129420620D01*
X117200640Y-129420620D02*
X117815360Y-130035340D01*
X114885400Y-129123440D02*
X115182580Y-129420620D01*
X113136680Y-136415780D02*
X113263680Y-136542780D01*
X113136680Y-135018780D02*
X113136680Y-136415780D01*
D23*
G36*
X112140792Y-116485016D02*
G01*
X112148457Y-116492691D01*
X112155697Y-116519967D01*
X112151698Y-117770867D01*
X112144392Y-117797921D01*
X112136759Y-117805563D01*
X112109712Y-117812896D01*
X108378880Y-117828685D01*
X108346007Y-117833158D01*
X108269848Y-117853925D01*
X108246586Y-117862797D01*
X108225502Y-117876037D01*
X108213029Y-117887077D01*
X108157477Y-117943160D01*
X108141775Y-117962480D01*
X108130143Y-117984492D01*
X108124868Y-118000290D01*
X108104826Y-118076642D01*
X108100666Y-118109555D01*
X108104336Y-118806003D01*
X108107413Y-118833130D01*
X108121670Y-118896691D01*
X108129474Y-118920333D01*
X108144596Y-118945895D01*
X108184091Y-118997698D01*
X108201053Y-119015921D01*
X108225470Y-119032836D01*
X108282987Y-119063414D01*
X108308329Y-119073564D01*
X108837684Y-119221930D01*
X108860853Y-119235193D01*
X108874982Y-119257846D01*
X109006640Y-119667418D01*
X109006640Y-119858733D01*
X108303911Y-119772327D01*
X108247739Y-119741545D01*
X107432694Y-118754999D01*
X107412898Y-118735751D01*
X107360959Y-118695235D01*
X107339923Y-118681919D01*
X107311403Y-118671623D01*
X107247217Y-118656811D01*
X107219798Y-118653564D01*
X103254023Y-118618022D01*
X103252447Y-118618018D01*
X103248677Y-118618031D01*
X103247111Y-118618046D01*
X100500187Y-118661399D01*
X100467974Y-118666079D01*
X100393362Y-118686953D01*
X100370160Y-118695979D01*
X100349163Y-118709357D01*
X100337651Y-118719580D01*
X100282944Y-118774440D01*
X100267177Y-118793707D01*
X100255472Y-118815680D01*
X100250472Y-118830244D01*
X100229808Y-118904914D01*
X100225219Y-118937139D01*
X100181005Y-122343976D01*
X100173664Y-122370593D01*
X100166130Y-122378187D01*
X100139575Y-122385740D01*
X96600895Y-122459971D01*
X96573278Y-122453088D01*
X96565487Y-122445463D01*
X96558015Y-122418005D01*
X96555644Y-117644137D01*
X96562917Y-117616947D01*
X96570574Y-117609287D01*
X96597761Y-117602000D01*
X101973380Y-117602000D01*
X102006250Y-117597672D01*
X102082450Y-117577254D01*
X102105751Y-117568485D01*
X102126893Y-117555338D01*
X102139383Y-117544385D01*
X102195165Y-117488603D01*
X102210959Y-117469357D01*
X102222695Y-117447401D01*
X102228034Y-117431670D01*
X102248452Y-117355470D01*
X102252780Y-117322600D01*
X102252780Y-116534138D01*
X102260062Y-116506962D01*
X102267722Y-116499302D01*
X102294898Y-116492020D01*
X104666169Y-116492020D01*
X112113527Y-116477741D01*
X112140792Y-116485016D01*
X112140792Y-116485016D01*
G37*
X112140792Y-116485016D02*
X112148457Y-116492691D01*
X112155697Y-116519967D01*
X112151698Y-117770867D01*
X112144392Y-117797921D01*
X112136759Y-117805563D01*
X112109712Y-117812896D01*
X108378880Y-117828685D01*
X108346007Y-117833158D01*
X108269848Y-117853925D01*
X108246586Y-117862797D01*
X108225502Y-117876037D01*
X108213029Y-117887077D01*
X108157477Y-117943160D01*
X108141775Y-117962480D01*
X108130143Y-117984492D01*
X108124868Y-118000290D01*
X108104826Y-118076642D01*
X108100666Y-118109555D01*
X108104336Y-118806003D01*
X108107413Y-118833130D01*
X108121670Y-118896691D01*
X108129474Y-118920333D01*
X108144596Y-118945895D01*
X108184091Y-118997698D01*
X108201053Y-119015921D01*
X108225470Y-119032836D01*
X108282987Y-119063414D01*
X108308329Y-119073564D01*
X108837684Y-119221930D01*
X108860853Y-119235193D01*
X108874982Y-119257846D01*
X109006640Y-119667418D01*
X109006640Y-119858733D01*
X108303911Y-119772327D01*
X108247739Y-119741545D01*
X107432694Y-118754999D01*
X107412898Y-118735751D01*
X107360959Y-118695235D01*
X107339923Y-118681919D01*
X107311403Y-118671623D01*
X107247217Y-118656811D01*
X107219798Y-118653564D01*
X103254023Y-118618022D01*
X103252447Y-118618018D01*
X103248677Y-118618031D01*
X103247111Y-118618046D01*
X100500187Y-118661399D01*
X100467974Y-118666079D01*
X100393362Y-118686953D01*
X100370160Y-118695979D01*
X100349163Y-118709357D01*
X100337651Y-118719580D01*
X100282944Y-118774440D01*
X100267177Y-118793707D01*
X100255472Y-118815680D01*
X100250472Y-118830244D01*
X100229808Y-118904914D01*
X100225219Y-118937139D01*
X100181005Y-122343976D01*
X100173664Y-122370593D01*
X100166130Y-122378187D01*
X100139575Y-122385740D01*
X96600895Y-122459971D01*
X96573278Y-122453088D01*
X96565487Y-122445463D01*
X96558015Y-122418005D01*
X96555644Y-117644137D01*
X96562917Y-117616947D01*
X96570574Y-117609287D01*
X96597761Y-117602000D01*
X101973380Y-117602000D01*
X102006250Y-117597672D01*
X102082450Y-117577254D01*
X102105751Y-117568485D01*
X102126893Y-117555338D01*
X102139383Y-117544385D01*
X102195165Y-117488603D01*
X102210959Y-117469357D01*
X102222695Y-117447401D01*
X102228034Y-117431670D01*
X102248452Y-117355470D01*
X102252780Y-117322600D01*
X102252780Y-116534138D01*
X102260062Y-116506962D01*
X102267722Y-116499302D01*
X102294898Y-116492020D01*
X104666169Y-116492020D01*
X112113527Y-116477741D01*
X112140792Y-116485016D01*
G36*
X109474000Y-121014184D02*
G01*
X109478293Y-121046925D01*
X109498550Y-121122845D01*
X109507295Y-121146155D01*
X109520420Y-121167311D01*
X109531170Y-121179622D01*
X109586556Y-121235360D01*
X109605751Y-121251215D01*
X109627671Y-121263020D01*
X109643125Y-121268339D01*
X109718915Y-121289077D01*
X109751627Y-121293577D01*
X109767954Y-121293681D01*
X109806232Y-121314141D01*
X109878051Y-121335927D01*
X109952740Y-121343283D01*
X110144457Y-121343283D01*
X110203155Y-121361089D01*
X110277793Y-121368440D01*
X110818014Y-121368440D01*
X111515117Y-122065543D01*
X111527167Y-122083577D01*
X111531400Y-122104857D01*
X111531400Y-122738942D01*
X111524118Y-122766118D01*
X111516458Y-122773778D01*
X111489282Y-122781060D01*
X107385058Y-122781060D01*
X107357882Y-122773778D01*
X107350222Y-122766118D01*
X107342940Y-122738942D01*
X107342940Y-121630346D01*
X107348514Y-121606204D01*
X107364106Y-121586949D01*
X108214663Y-120922468D01*
X108268300Y-120904000D01*
X109330906Y-120904000D01*
X109363793Y-120899668D01*
X109440027Y-120879230D01*
X109463326Y-120870457D01*
X109474000Y-120863817D01*
X109474000Y-121014184D01*
X109474000Y-121014184D01*
G37*
X109474000Y-121014184D02*
X109478293Y-121046925D01*
X109498550Y-121122845D01*
X109507295Y-121146155D01*
X109520420Y-121167311D01*
X109531170Y-121179622D01*
X109586556Y-121235360D01*
X109605751Y-121251215D01*
X109627671Y-121263020D01*
X109643125Y-121268339D01*
X109718915Y-121289077D01*
X109751627Y-121293577D01*
X109767954Y-121293681D01*
X109806232Y-121314141D01*
X109878051Y-121335927D01*
X109952740Y-121343283D01*
X110144457Y-121343283D01*
X110203155Y-121361089D01*
X110277793Y-121368440D01*
X110818014Y-121368440D01*
X111515117Y-122065543D01*
X111527167Y-122083577D01*
X111531400Y-122104857D01*
X111531400Y-122738942D01*
X111524118Y-122766118D01*
X111516458Y-122773778D01*
X111489282Y-122781060D01*
X107385058Y-122781060D01*
X107357882Y-122773778D01*
X107350222Y-122766118D01*
X107342940Y-122738942D01*
X107342940Y-121630346D01*
X107348514Y-121606204D01*
X107364106Y-121586949D01*
X108214663Y-120922468D01*
X108268300Y-120904000D01*
X109330906Y-120904000D01*
X109363793Y-120899668D01*
X109440027Y-120879230D01*
X109463326Y-120870457D01*
X109474000Y-120863817D01*
X109474000Y-121014184D01*
G36*
X110937527Y-118377118D02*
G01*
X110945177Y-118384820D01*
X110952328Y-118412156D01*
X110948416Y-118956299D01*
X110940955Y-118983402D01*
X110933258Y-118991003D01*
X110906067Y-118998129D01*
X109754845Y-118992174D01*
X109721846Y-118996359D01*
X109645314Y-119016513D01*
X109621976Y-119025182D01*
X109609051Y-119033143D01*
X109608924Y-118871907D01*
X109605301Y-118841889D01*
X109588215Y-118771897D01*
X109579969Y-118748406D01*
X109560594Y-118718590D01*
X109513267Y-118664268D01*
X109495151Y-118647189D01*
X109464245Y-118629604D01*
X109397254Y-118603092D01*
X109368017Y-118595392D01*
X108764042Y-118511381D01*
X108740777Y-118502447D01*
X108734000Y-118495133D01*
X108726861Y-118471250D01*
X108723362Y-118414930D01*
X108729427Y-118386479D01*
X108736990Y-118378428D01*
X108765008Y-118370599D01*
X110910239Y-118369780D01*
X110937527Y-118377118D01*
X110937527Y-118377118D01*
G37*
X110937527Y-118377118D02*
X110945177Y-118384820D01*
X110952328Y-118412156D01*
X110948416Y-118956299D01*
X110940955Y-118983402D01*
X110933258Y-118991003D01*
X110906067Y-118998129D01*
X109754845Y-118992174D01*
X109721846Y-118996359D01*
X109645314Y-119016513D01*
X109621976Y-119025182D01*
X109609051Y-119033143D01*
X109608924Y-118871907D01*
X109605301Y-118841889D01*
X109588215Y-118771897D01*
X109579969Y-118748406D01*
X109560594Y-118718590D01*
X109513267Y-118664268D01*
X109495151Y-118647189D01*
X109464245Y-118629604D01*
X109397254Y-118603092D01*
X109368017Y-118595392D01*
X108764042Y-118511381D01*
X108740777Y-118502447D01*
X108734000Y-118495133D01*
X108726861Y-118471250D01*
X108723362Y-118414930D01*
X108729427Y-118386479D01*
X108736990Y-118378428D01*
X108765008Y-118370599D01*
X110910239Y-118369780D01*
X110937527Y-118377118D01*
G36*
X106912982Y-119362318D02*
G01*
X106931954Y-119376882D01*
X107690972Y-120281950D01*
X107690537Y-120289929D01*
X107699786Y-120474909D01*
X106819433Y-121318485D01*
X106802845Y-121337945D01*
X106768116Y-121388163D01*
X106756031Y-121409929D01*
X106748145Y-121434959D01*
X106735914Y-121494778D01*
X106733340Y-121520219D01*
X106733340Y-122571302D01*
X106726058Y-122598478D01*
X106718398Y-122606138D01*
X106691222Y-122613420D01*
X102314459Y-122613420D01*
X102313645Y-122613418D01*
X101057727Y-122606702D01*
X101030661Y-122599320D01*
X101023037Y-122591656D01*
X101015800Y-122564550D01*
X101015800Y-119399258D01*
X101023082Y-119372082D01*
X101030742Y-119364422D01*
X101057918Y-119357140D01*
X106889633Y-119357140D01*
X106912982Y-119362318D01*
X106912982Y-119362318D01*
G37*
X106912982Y-119362318D02*
X106931954Y-119376882D01*
X107690972Y-120281950D01*
X107690537Y-120289929D01*
X107699786Y-120474909D01*
X106819433Y-121318485D01*
X106802845Y-121337945D01*
X106768116Y-121388163D01*
X106756031Y-121409929D01*
X106748145Y-121434959D01*
X106735914Y-121494778D01*
X106733340Y-121520219D01*
X106733340Y-122571302D01*
X106726058Y-122598478D01*
X106718398Y-122606138D01*
X106691222Y-122613420D01*
X102314459Y-122613420D01*
X102313645Y-122613418D01*
X101057727Y-122606702D01*
X101030661Y-122599320D01*
X101023037Y-122591656D01*
X101015800Y-122564550D01*
X101015800Y-119399258D01*
X101023082Y-119372082D01*
X101030742Y-119364422D01*
X101057918Y-119357140D01*
X106889633Y-119357140D01*
X106912982Y-119362318D01*
G36*
X101175628Y-114109082D02*
G01*
X101183296Y-114116678D01*
X101190754Y-114143654D01*
X101213573Y-116543538D01*
X101206469Y-116570917D01*
X101198823Y-116578636D01*
X101171513Y-116586000D01*
X100112767Y-116586000D01*
X100085717Y-116578798D01*
X100078049Y-116571202D01*
X100070591Y-116544226D01*
X100047772Y-114144342D01*
X100054876Y-114116963D01*
X100062522Y-114109244D01*
X100089832Y-114101880D01*
X101148578Y-114101880D01*
X101175628Y-114109082D01*
X101175628Y-114109082D01*
G37*
X101175628Y-114109082D02*
X101183296Y-114116678D01*
X101190754Y-114143654D01*
X101213573Y-116543538D01*
X101206469Y-116570917D01*
X101198823Y-116578636D01*
X101171513Y-116586000D01*
X100112767Y-116586000D01*
X100085717Y-116578798D01*
X100078049Y-116571202D01*
X100070591Y-116544226D01*
X100047772Y-114144342D01*
X100054876Y-114116963D01*
X100062522Y-114109244D01*
X100089832Y-114101880D01*
X101148578Y-114101880D01*
X101175628Y-114109082D01*
G36*
X107907118Y-123362382D02*
G01*
X107914778Y-123370042D01*
X107922060Y-123397218D01*
X107922060Y-126857760D01*
X107926388Y-126890630D01*
X107946806Y-126966830D01*
X107955575Y-126990131D01*
X107968722Y-127011273D01*
X107979675Y-127023763D01*
X108035457Y-127079545D01*
X108054703Y-127095339D01*
X108076659Y-127107075D01*
X108092390Y-127112414D01*
X108168590Y-127132832D01*
X108201460Y-127137160D01*
X111692482Y-127137160D01*
X111719658Y-127144442D01*
X111727318Y-127152102D01*
X111734600Y-127179278D01*
X111734600Y-131199682D01*
X111727318Y-131226858D01*
X111719658Y-131234518D01*
X111692482Y-131241800D01*
X108002278Y-131241800D01*
X107975102Y-131234518D01*
X107967442Y-131226858D01*
X107960160Y-131199682D01*
X107960160Y-129336426D01*
X107957720Y-129311649D01*
X107946119Y-129253328D01*
X107938892Y-129229504D01*
X107927156Y-129207548D01*
X107894120Y-129158106D01*
X107878326Y-129138860D01*
X107365620Y-128626154D01*
X107346374Y-128610360D01*
X107296932Y-128577324D01*
X107274976Y-128565588D01*
X107251152Y-128558361D01*
X107192831Y-128546760D01*
X107168054Y-128544320D01*
X104083557Y-128544320D01*
X104062277Y-128540087D01*
X104044243Y-128528037D01*
X103659760Y-128143554D01*
X103640514Y-128127760D01*
X103591072Y-128094724D01*
X103569116Y-128082988D01*
X103545292Y-128075761D01*
X103486971Y-128064160D01*
X103462194Y-128061720D01*
X98840498Y-128061720D01*
X98813322Y-128054438D01*
X98805662Y-128046778D01*
X98798380Y-128019602D01*
X98798380Y-126370433D01*
X98798357Y-126368018D01*
X98798247Y-126362234D01*
X98798179Y-126359830D01*
X98795675Y-126293880D01*
X101760020Y-126293880D01*
X101792890Y-126289552D01*
X101869090Y-126269134D01*
X101892391Y-126260365D01*
X101913533Y-126247218D01*
X101926023Y-126236265D01*
X101981805Y-126180483D01*
X101997599Y-126161237D01*
X102009335Y-126139281D01*
X102014674Y-126123550D01*
X102035092Y-126047350D01*
X102039420Y-126014480D01*
X102039420Y-123397218D01*
X102046702Y-123370042D01*
X102054362Y-123362382D01*
X102081538Y-123355100D01*
X107879942Y-123355100D01*
X107907118Y-123362382D01*
X107907118Y-123362382D01*
G37*
X107907118Y-123362382D02*
X107914778Y-123370042D01*
X107922060Y-123397218D01*
X107922060Y-126857760D01*
X107926388Y-126890630D01*
X107946806Y-126966830D01*
X107955575Y-126990131D01*
X107968722Y-127011273D01*
X107979675Y-127023763D01*
X108035457Y-127079545D01*
X108054703Y-127095339D01*
X108076659Y-127107075D01*
X108092390Y-127112414D01*
X108168590Y-127132832D01*
X108201460Y-127137160D01*
X111692482Y-127137160D01*
X111719658Y-127144442D01*
X111727318Y-127152102D01*
X111734600Y-127179278D01*
X111734600Y-131199682D01*
X111727318Y-131226858D01*
X111719658Y-131234518D01*
X111692482Y-131241800D01*
X108002278Y-131241800D01*
X107975102Y-131234518D01*
X107967442Y-131226858D01*
X107960160Y-131199682D01*
X107960160Y-129336426D01*
X107957720Y-129311649D01*
X107946119Y-129253328D01*
X107938892Y-129229504D01*
X107927156Y-129207548D01*
X107894120Y-129158106D01*
X107878326Y-129138860D01*
X107365620Y-128626154D01*
X107346374Y-128610360D01*
X107296932Y-128577324D01*
X107274976Y-128565588D01*
X107251152Y-128558361D01*
X107192831Y-128546760D01*
X107168054Y-128544320D01*
X104083557Y-128544320D01*
X104062277Y-128540087D01*
X104044243Y-128528037D01*
X103659760Y-128143554D01*
X103640514Y-128127760D01*
X103591072Y-128094724D01*
X103569116Y-128082988D01*
X103545292Y-128075761D01*
X103486971Y-128064160D01*
X103462194Y-128061720D01*
X98840498Y-128061720D01*
X98813322Y-128054438D01*
X98805662Y-128046778D01*
X98798380Y-128019602D01*
X98798380Y-126370433D01*
X98798357Y-126368018D01*
X98798247Y-126362234D01*
X98798179Y-126359830D01*
X98795675Y-126293880D01*
X101760020Y-126293880D01*
X101792890Y-126289552D01*
X101869090Y-126269134D01*
X101892391Y-126260365D01*
X101913533Y-126247218D01*
X101926023Y-126236265D01*
X101981805Y-126180483D01*
X101997599Y-126161237D01*
X102009335Y-126139281D01*
X102014674Y-126123550D01*
X102035092Y-126047350D01*
X102039420Y-126014480D01*
X102039420Y-123397218D01*
X102046702Y-123370042D01*
X102054362Y-123362382D01*
X102081538Y-123355100D01*
X107879942Y-123355100D01*
X107907118Y-123362382D01*
G36*
X118829019Y-125090599D02*
G01*
X118836719Y-125098247D01*
X118844060Y-125125522D01*
X118844060Y-128604896D01*
X118836835Y-128631980D01*
X118829222Y-128639645D01*
X118802182Y-128647053D01*
X117228074Y-128657636D01*
X117200640Y-128654934D01*
X117169186Y-128658032D01*
X117081742Y-128658620D01*
X117062215Y-128658620D01*
X117035381Y-128651591D01*
X117027681Y-128643943D01*
X117020340Y-128616668D01*
X117020340Y-125137294D01*
X117027565Y-125110210D01*
X117035178Y-125102545D01*
X117062218Y-125095137D01*
X118801696Y-125083442D01*
X118829019Y-125090599D01*
X118829019Y-125090599D01*
G37*
X118829019Y-125090599D02*
X118836719Y-125098247D01*
X118844060Y-125125522D01*
X118844060Y-128604896D01*
X118836835Y-128631980D01*
X118829222Y-128639645D01*
X118802182Y-128647053D01*
X117228074Y-128657636D01*
X117200640Y-128654934D01*
X117169186Y-128658032D01*
X117081742Y-128658620D01*
X117062215Y-128658620D01*
X117035381Y-128651591D01*
X117027681Y-128643943D01*
X117020340Y-128616668D01*
X117020340Y-125137294D01*
X117027565Y-125110210D01*
X117035178Y-125102545D01*
X117062218Y-125095137D01*
X118801696Y-125083442D01*
X118829019Y-125090599D01*
G36*
X109881678Y-123367479D02*
G01*
X109889332Y-123375149D01*
X109896578Y-123402369D01*
X109893430Y-125012313D01*
X109886111Y-125039450D01*
X109878452Y-125047094D01*
X109851300Y-125054360D01*
X107616518Y-125054360D01*
X107589312Y-125047061D01*
X107581658Y-125039391D01*
X107574412Y-125012171D01*
X107577560Y-123402227D01*
X107584879Y-123375090D01*
X107592538Y-123367446D01*
X107619690Y-123360180D01*
X109854472Y-123360180D01*
X109881678Y-123367479D01*
X109881678Y-123367479D01*
G37*
X109881678Y-123367479D02*
X109889332Y-123375149D01*
X109896578Y-123402369D01*
X109893430Y-125012313D01*
X109886111Y-125039450D01*
X109878452Y-125047094D01*
X109851300Y-125054360D01*
X107616518Y-125054360D01*
X107589312Y-125047061D01*
X107581658Y-125039391D01*
X107574412Y-125012171D01*
X107577560Y-123402227D01*
X107584879Y-123375090D01*
X107592538Y-123367446D01*
X107619690Y-123360180D01*
X109854472Y-123360180D01*
X109881678Y-123367479D01*
G36*
X111827127Y-125613038D02*
G01*
X111854290Y-125620334D01*
X111861943Y-125627993D01*
X111869220Y-125655163D01*
X111869220Y-126123990D01*
X111485970Y-126507240D01*
X108655058Y-126507240D01*
X108627882Y-126499958D01*
X108620222Y-126492298D01*
X108612940Y-126465122D01*
X108612940Y-125652859D01*
X108620229Y-125625669D01*
X108627893Y-125618011D01*
X108655084Y-125610742D01*
X111827127Y-125613038D01*
X111827127Y-125613038D01*
G37*
X111827127Y-125613038D02*
X111854290Y-125620334D01*
X111861943Y-125627993D01*
X111869220Y-125655163D01*
X111869220Y-126123990D01*
X111485970Y-126507240D01*
X108655058Y-126507240D01*
X108627882Y-126499958D01*
X108620222Y-126492298D01*
X108612940Y-126465122D01*
X108612940Y-125652859D01*
X108620229Y-125625669D01*
X108627893Y-125618011D01*
X108655084Y-125610742D01*
X111827127Y-125613038D01*
G36*
X104926383Y-110407873D02*
G01*
X104944417Y-110419923D01*
X107741900Y-113217406D01*
X107761146Y-113233200D01*
X107810588Y-113266236D01*
X107832544Y-113277972D01*
X107856368Y-113285199D01*
X107914689Y-113296800D01*
X107939466Y-113299240D01*
X114831922Y-113299240D01*
X114859098Y-113306522D01*
X114866758Y-113314182D01*
X114874040Y-113341358D01*
X114874040Y-117079323D01*
X114869807Y-117100603D01*
X114857757Y-117118637D01*
X113930937Y-118045457D01*
X113912903Y-118057507D01*
X113891623Y-118061740D01*
X112932418Y-118061740D01*
X112905242Y-118054458D01*
X112897582Y-118046798D01*
X112890300Y-118019622D01*
X112890300Y-117532857D01*
X112894533Y-117511577D01*
X112906583Y-117493543D01*
X113712706Y-116687420D01*
X113728500Y-116668174D01*
X113761536Y-116618732D01*
X113773272Y-116596776D01*
X113780499Y-116572952D01*
X113792100Y-116514631D01*
X113794540Y-116489854D01*
X113794540Y-116174034D01*
X113805920Y-116116822D01*
X113805920Y-115962978D01*
X113794540Y-115905766D01*
X113794540Y-115460780D01*
X113790212Y-115427910D01*
X113769794Y-115351710D01*
X113761025Y-115328409D01*
X113747878Y-115307267D01*
X113736925Y-115294777D01*
X113681143Y-115238995D01*
X113661897Y-115223201D01*
X113639941Y-115211465D01*
X113624210Y-115206126D01*
X113548010Y-115185708D01*
X113515140Y-115181380D01*
X112699426Y-115181380D01*
X112674649Y-115183820D01*
X112616328Y-115195421D01*
X112592504Y-115202648D01*
X112570548Y-115214384D01*
X112521106Y-115247420D01*
X112501860Y-115263214D01*
X111840517Y-115924557D01*
X111822483Y-115936607D01*
X111801203Y-115940840D01*
X102640338Y-115940840D01*
X102613162Y-115933558D01*
X102605502Y-115925898D01*
X102598220Y-115898722D01*
X102598220Y-113644306D01*
X102595780Y-113619529D01*
X102584179Y-113561208D01*
X102576952Y-113537384D01*
X102565216Y-113515428D01*
X102532180Y-113465986D01*
X102516386Y-113446740D01*
X102191640Y-113121994D01*
X102172394Y-113106200D01*
X102122952Y-113073164D01*
X102100996Y-113061428D01*
X102077172Y-113054201D01*
X102018851Y-113042600D01*
X101994074Y-113040160D01*
X99409458Y-113040160D01*
X99382282Y-113032878D01*
X99374622Y-113025218D01*
X99367340Y-112998042D01*
X99367340Y-110445758D01*
X99374622Y-110418582D01*
X99382282Y-110410922D01*
X99409458Y-110403640D01*
X104905103Y-110403640D01*
X104926383Y-110407873D01*
X104926383Y-110407873D01*
G37*
X104926383Y-110407873D02*
X104944417Y-110419923D01*
X107741900Y-113217406D01*
X107761146Y-113233200D01*
X107810588Y-113266236D01*
X107832544Y-113277972D01*
X107856368Y-113285199D01*
X107914689Y-113296800D01*
X107939466Y-113299240D01*
X114831922Y-113299240D01*
X114859098Y-113306522D01*
X114866758Y-113314182D01*
X114874040Y-113341358D01*
X114874040Y-117079323D01*
X114869807Y-117100603D01*
X114857757Y-117118637D01*
X113930937Y-118045457D01*
X113912903Y-118057507D01*
X113891623Y-118061740D01*
X112932418Y-118061740D01*
X112905242Y-118054458D01*
X112897582Y-118046798D01*
X112890300Y-118019622D01*
X112890300Y-117532857D01*
X112894533Y-117511577D01*
X112906583Y-117493543D01*
X113712706Y-116687420D01*
X113728500Y-116668174D01*
X113761536Y-116618732D01*
X113773272Y-116596776D01*
X113780499Y-116572952D01*
X113792100Y-116514631D01*
X113794540Y-116489854D01*
X113794540Y-116174034D01*
X113805920Y-116116822D01*
X113805920Y-115962978D01*
X113794540Y-115905766D01*
X113794540Y-115460780D01*
X113790212Y-115427910D01*
X113769794Y-115351710D01*
X113761025Y-115328409D01*
X113747878Y-115307267D01*
X113736925Y-115294777D01*
X113681143Y-115238995D01*
X113661897Y-115223201D01*
X113639941Y-115211465D01*
X113624210Y-115206126D01*
X113548010Y-115185708D01*
X113515140Y-115181380D01*
X112699426Y-115181380D01*
X112674649Y-115183820D01*
X112616328Y-115195421D01*
X112592504Y-115202648D01*
X112570548Y-115214384D01*
X112521106Y-115247420D01*
X112501860Y-115263214D01*
X111840517Y-115924557D01*
X111822483Y-115936607D01*
X111801203Y-115940840D01*
X102640338Y-115940840D01*
X102613162Y-115933558D01*
X102605502Y-115925898D01*
X102598220Y-115898722D01*
X102598220Y-113644306D01*
X102595780Y-113619529D01*
X102584179Y-113561208D01*
X102576952Y-113537384D01*
X102565216Y-113515428D01*
X102532180Y-113465986D01*
X102516386Y-113446740D01*
X102191640Y-113121994D01*
X102172394Y-113106200D01*
X102122952Y-113073164D01*
X102100996Y-113061428D01*
X102077172Y-113054201D01*
X102018851Y-113042600D01*
X101994074Y-113040160D01*
X99409458Y-113040160D01*
X99382282Y-113032878D01*
X99374622Y-113025218D01*
X99367340Y-112998042D01*
X99367340Y-110445758D01*
X99374622Y-110418582D01*
X99382282Y-110410922D01*
X99409458Y-110403640D01*
X104905103Y-110403640D01*
X104926383Y-110407873D01*
G36*
X103252523Y-128627293D02*
G01*
X103270557Y-128639343D01*
X103721080Y-129089866D01*
X103740326Y-129105660D01*
X103789768Y-129138696D01*
X103811724Y-129150432D01*
X103835548Y-129157659D01*
X103893869Y-129169260D01*
X103918646Y-129171700D01*
X106906623Y-129171700D01*
X106927903Y-129175933D01*
X106945937Y-129187983D01*
X107369837Y-129611883D01*
X107381887Y-129629917D01*
X107386120Y-129651197D01*
X107386120Y-130740703D01*
X107386118Y-130741493D01*
X107376835Y-132530828D01*
X107369457Y-132557896D01*
X107361792Y-132565522D01*
X107334685Y-132572760D01*
X98749058Y-132572760D01*
X98721882Y-132565478D01*
X98714222Y-132557818D01*
X98706940Y-132530642D01*
X98706940Y-128665178D01*
X98714222Y-128638002D01*
X98721882Y-128630342D01*
X98749058Y-128623060D01*
X103231243Y-128623060D01*
X103252523Y-128627293D01*
X103252523Y-128627293D01*
G37*
X103252523Y-128627293D02*
X103270557Y-128639343D01*
X103721080Y-129089866D01*
X103740326Y-129105660D01*
X103789768Y-129138696D01*
X103811724Y-129150432D01*
X103835548Y-129157659D01*
X103893869Y-129169260D01*
X103918646Y-129171700D01*
X106906623Y-129171700D01*
X106927903Y-129175933D01*
X106945937Y-129187983D01*
X107369837Y-129611883D01*
X107381887Y-129629917D01*
X107386120Y-129651197D01*
X107386120Y-130740703D01*
X107386118Y-130741493D01*
X107376835Y-132530828D01*
X107369457Y-132557896D01*
X107361792Y-132565522D01*
X107334685Y-132572760D01*
X98749058Y-132572760D01*
X98721882Y-132565478D01*
X98714222Y-132557818D01*
X98706940Y-132530642D01*
X98706940Y-128665178D01*
X98714222Y-128638002D01*
X98721882Y-128630342D01*
X98749058Y-128623060D01*
X103231243Y-128623060D01*
X103252523Y-128627293D01*
G36*
X101480918Y-110426162D02*
G01*
X101488578Y-110433822D01*
X101495860Y-110460998D01*
X101495860Y-113005775D01*
X101488451Y-113033158D01*
X101480699Y-113040796D01*
X101453207Y-113047801D01*
X99371465Y-113017058D01*
X99338232Y-113020976D01*
X99261085Y-113040633D01*
X99237679Y-113049115D01*
X99216376Y-113062001D01*
X99203306Y-113073238D01*
X99146597Y-113129116D01*
X99130661Y-113148244D01*
X99118763Y-113170114D01*
X99113143Y-113186407D01*
X99092349Y-113263255D01*
X99087940Y-113296427D01*
X99087940Y-117029022D01*
X99080658Y-117056198D01*
X99072998Y-117063858D01*
X99045822Y-117071140D01*
X96483378Y-117071140D01*
X96456202Y-117063858D01*
X96448542Y-117056198D01*
X96441260Y-117029022D01*
X96441260Y-110460998D01*
X96448542Y-110433822D01*
X96456202Y-110426162D01*
X96483378Y-110418880D01*
X101453742Y-110418880D01*
X101480918Y-110426162D01*
X101480918Y-110426162D01*
G37*
X101480918Y-110426162D02*
X101488578Y-110433822D01*
X101495860Y-110460998D01*
X101495860Y-113005775D01*
X101488451Y-113033158D01*
X101480699Y-113040796D01*
X101453207Y-113047801D01*
X99371465Y-113017058D01*
X99338232Y-113020976D01*
X99261085Y-113040633D01*
X99237679Y-113049115D01*
X99216376Y-113062001D01*
X99203306Y-113073238D01*
X99146597Y-113129116D01*
X99130661Y-113148244D01*
X99118763Y-113170114D01*
X99113143Y-113186407D01*
X99092349Y-113263255D01*
X99087940Y-113296427D01*
X99087940Y-117029022D01*
X99080658Y-117056198D01*
X99072998Y-117063858D01*
X99045822Y-117071140D01*
X96483378Y-117071140D01*
X96456202Y-117063858D01*
X96448542Y-117056198D01*
X96441260Y-117029022D01*
X96441260Y-110460998D01*
X96448542Y-110433822D01*
X96456202Y-110426162D01*
X96483378Y-110418880D01*
X101453742Y-110418880D01*
X101480918Y-110426162D01*
G36*
X120002596Y-110446534D02*
G01*
X120010254Y-110454190D01*
X120017540Y-110481374D01*
X120017540Y-116259402D01*
X120010258Y-116286578D01*
X120002598Y-116294238D01*
X119975422Y-116301520D01*
X115914877Y-116301520D01*
X115893597Y-116297287D01*
X115875563Y-116285237D01*
X113763880Y-114173554D01*
X113744634Y-114157760D01*
X113695192Y-114124724D01*
X113673236Y-114112988D01*
X113649412Y-114105761D01*
X113591091Y-114094160D01*
X113566314Y-114091720D01*
X105124458Y-114091720D01*
X105097282Y-114084438D01*
X105089622Y-114076778D01*
X105082340Y-114049602D01*
X105082340Y-110486343D01*
X105089619Y-110459171D01*
X105097275Y-110451512D01*
X105124447Y-110444223D01*
X119975407Y-110439257D01*
X120002596Y-110446534D01*
X120002596Y-110446534D01*
G37*
X120002596Y-110446534D02*
X120010254Y-110454190D01*
X120017540Y-110481374D01*
X120017540Y-116259402D01*
X120010258Y-116286578D01*
X120002598Y-116294238D01*
X119975422Y-116301520D01*
X115914877Y-116301520D01*
X115893597Y-116297287D01*
X115875563Y-116285237D01*
X113763880Y-114173554D01*
X113744634Y-114157760D01*
X113695192Y-114124724D01*
X113673236Y-114112988D01*
X113649412Y-114105761D01*
X113591091Y-114094160D01*
X113566314Y-114091720D01*
X105124458Y-114091720D01*
X105097282Y-114084438D01*
X105089622Y-114076778D01*
X105082340Y-114049602D01*
X105082340Y-110486343D01*
X105089619Y-110459171D01*
X105097275Y-110451512D01*
X105124447Y-110444223D01*
X119975407Y-110439257D01*
X120002596Y-110446534D01*
G36*
X98239878Y-126478962D02*
G01*
X98247538Y-126486622D01*
X98254820Y-126513798D01*
X98254820Y-128678940D01*
X98259148Y-128711810D01*
X98279566Y-128788010D01*
X98288335Y-128811311D01*
X98301482Y-128832453D01*
X98312435Y-128844943D01*
X98368217Y-128900725D01*
X98387463Y-128916519D01*
X98409419Y-128928255D01*
X98425150Y-128933594D01*
X98501350Y-128954012D01*
X98534220Y-128958340D01*
X98889220Y-128958340D01*
X98915881Y-128965307D01*
X98923577Y-128972722D01*
X98931530Y-128999108D01*
X99063735Y-132554706D01*
X99057165Y-132582662D01*
X99049560Y-132590555D01*
X99021866Y-132598160D01*
X98549086Y-132598160D01*
X98524309Y-132600600D01*
X98465988Y-132612201D01*
X98442164Y-132619428D01*
X98420208Y-132631164D01*
X98370766Y-132664200D01*
X98351520Y-132679994D01*
X97342197Y-133689317D01*
X97324163Y-133701367D01*
X97302883Y-133705600D01*
X96679457Y-133705600D01*
X96658177Y-133701367D01*
X96640143Y-133689317D01*
X96287363Y-133336537D01*
X96275313Y-133318503D01*
X96271080Y-133297223D01*
X96271080Y-127024837D01*
X96275313Y-127003557D01*
X96287363Y-126985523D01*
X96784923Y-126487963D01*
X96802957Y-126475913D01*
X96824237Y-126471680D01*
X98212702Y-126471680D01*
X98239878Y-126478962D01*
X98239878Y-126478962D01*
G37*
X98239878Y-126478962D02*
X98247538Y-126486622D01*
X98254820Y-126513798D01*
X98254820Y-128678940D01*
X98259148Y-128711810D01*
X98279566Y-128788010D01*
X98288335Y-128811311D01*
X98301482Y-128832453D01*
X98312435Y-128844943D01*
X98368217Y-128900725D01*
X98387463Y-128916519D01*
X98409419Y-128928255D01*
X98425150Y-128933594D01*
X98501350Y-128954012D01*
X98534220Y-128958340D01*
X98889220Y-128958340D01*
X98915881Y-128965307D01*
X98923577Y-128972722D01*
X98931530Y-128999108D01*
X99063735Y-132554706D01*
X99057165Y-132582662D01*
X99049560Y-132590555D01*
X99021866Y-132598160D01*
X98549086Y-132598160D01*
X98524309Y-132600600D01*
X98465988Y-132612201D01*
X98442164Y-132619428D01*
X98420208Y-132631164D01*
X98370766Y-132664200D01*
X98351520Y-132679994D01*
X97342197Y-133689317D01*
X97324163Y-133701367D01*
X97302883Y-133705600D01*
X96679457Y-133705600D01*
X96658177Y-133701367D01*
X96640143Y-133689317D01*
X96287363Y-133336537D01*
X96275313Y-133318503D01*
X96271080Y-133297223D01*
X96271080Y-127024837D01*
X96275313Y-127003557D01*
X96287363Y-126985523D01*
X96784923Y-126487963D01*
X96802957Y-126475913D01*
X96824237Y-126471680D01*
X98212702Y-126471680D01*
X98239878Y-126478962D01*
M02*
