M48
INCH,TZ
T1C0.0157
%
G90
G05
T1
X38300Y-45000
X38300Y-45800
X38300Y-50400
X38300Y-50900
X38300Y-51400
X38300Y-51900
X38700Y-44600
X38700Y-45400
X42273Y-47381
X42400Y-44100
X42500Y-48100
X43000Y-48100
X43200Y-44100
X43500Y-48100
X44100Y-44100
X44255Y-47129
X44273Y-48232
X44498Y-45685
X45000Y-44100
X45900Y-45200
X46000Y-44100
T0
M30
