G04 #@! TF.GenerationSoftware,KiCad,Pcbnew,(5.1.4-0-10_14)*
G04 #@! TF.CreationDate,2020-02-13T02:06:37-05:00*
G04 #@! TF.ProjectId,Buck_HighCurrent,4275636b-5f48-4696-9768-43757272656e,rev?*
G04 #@! TF.SameCoordinates,Original*
G04 #@! TF.FileFunction,Paste,Top*
G04 #@! TF.FilePolarity,Positive*
%FSLAX46Y46*%
G04 Gerber Fmt 4.6, Leading zero omitted, Abs format (unit mm)*
G04 Created by KiCad (PCBNEW (5.1.4-0-10_14)) date 2020-02-13 02:06:37*
%MOMM*%
%LPD*%
G04 APERTURE LIST*
%ADD10C,0.100000*%
%ADD11C,0.875000*%
%ADD12R,1.250000X1.000000*%
%ADD13R,1.600000X1.000000*%
%ADD14C,1.125000*%
%ADD15R,2.159000X1.778000*%
%ADD16R,1.200000X1.200000*%
%ADD17R,2.692400X1.981200*%
%ADD18R,1.300000X0.700000*%
%ADD19R,1.000000X3.200000*%
%ADD20R,0.700000X0.200000*%
%ADD21R,4.500000X3.000000*%
G04 APERTURE END LIST*
D10*
G36*
X107447911Y-116614473D02*
G01*
X107469146Y-116617623D01*
X107489970Y-116622839D01*
X107510182Y-116630071D01*
X107529588Y-116639250D01*
X107548001Y-116650286D01*
X107565244Y-116663074D01*
X107581150Y-116677490D01*
X107595566Y-116693396D01*
X107608354Y-116710639D01*
X107619390Y-116729052D01*
X107628569Y-116748458D01*
X107635801Y-116768670D01*
X107641017Y-116789494D01*
X107644167Y-116810729D01*
X107645220Y-116832170D01*
X107645220Y-117269670D01*
X107644167Y-117291111D01*
X107641017Y-117312346D01*
X107635801Y-117333170D01*
X107628569Y-117353382D01*
X107619390Y-117372788D01*
X107608354Y-117391201D01*
X107595566Y-117408444D01*
X107581150Y-117424350D01*
X107565244Y-117438766D01*
X107548001Y-117451554D01*
X107529588Y-117462590D01*
X107510182Y-117471769D01*
X107489970Y-117479001D01*
X107469146Y-117484217D01*
X107447911Y-117487367D01*
X107426470Y-117488420D01*
X106913970Y-117488420D01*
X106892529Y-117487367D01*
X106871294Y-117484217D01*
X106850470Y-117479001D01*
X106830258Y-117471769D01*
X106810852Y-117462590D01*
X106792439Y-117451554D01*
X106775196Y-117438766D01*
X106759290Y-117424350D01*
X106744874Y-117408444D01*
X106732086Y-117391201D01*
X106721050Y-117372788D01*
X106711871Y-117353382D01*
X106704639Y-117333170D01*
X106699423Y-117312346D01*
X106696273Y-117291111D01*
X106695220Y-117269670D01*
X106695220Y-116832170D01*
X106696273Y-116810729D01*
X106699423Y-116789494D01*
X106704639Y-116768670D01*
X106711871Y-116748458D01*
X106721050Y-116729052D01*
X106732086Y-116710639D01*
X106744874Y-116693396D01*
X106759290Y-116677490D01*
X106775196Y-116663074D01*
X106792439Y-116650286D01*
X106810852Y-116639250D01*
X106830258Y-116630071D01*
X106850470Y-116622839D01*
X106871294Y-116617623D01*
X106892529Y-116614473D01*
X106913970Y-116613420D01*
X107426470Y-116613420D01*
X107447911Y-116614473D01*
X107447911Y-116614473D01*
G37*
D11*
X107170220Y-117050920D03*
D10*
G36*
X107447911Y-115039473D02*
G01*
X107469146Y-115042623D01*
X107489970Y-115047839D01*
X107510182Y-115055071D01*
X107529588Y-115064250D01*
X107548001Y-115075286D01*
X107565244Y-115088074D01*
X107581150Y-115102490D01*
X107595566Y-115118396D01*
X107608354Y-115135639D01*
X107619390Y-115154052D01*
X107628569Y-115173458D01*
X107635801Y-115193670D01*
X107641017Y-115214494D01*
X107644167Y-115235729D01*
X107645220Y-115257170D01*
X107645220Y-115694670D01*
X107644167Y-115716111D01*
X107641017Y-115737346D01*
X107635801Y-115758170D01*
X107628569Y-115778382D01*
X107619390Y-115797788D01*
X107608354Y-115816201D01*
X107595566Y-115833444D01*
X107581150Y-115849350D01*
X107565244Y-115863766D01*
X107548001Y-115876554D01*
X107529588Y-115887590D01*
X107510182Y-115896769D01*
X107489970Y-115904001D01*
X107469146Y-115909217D01*
X107447911Y-115912367D01*
X107426470Y-115913420D01*
X106913970Y-115913420D01*
X106892529Y-115912367D01*
X106871294Y-115909217D01*
X106850470Y-115904001D01*
X106830258Y-115896769D01*
X106810852Y-115887590D01*
X106792439Y-115876554D01*
X106775196Y-115863766D01*
X106759290Y-115849350D01*
X106744874Y-115833444D01*
X106732086Y-115816201D01*
X106721050Y-115797788D01*
X106711871Y-115778382D01*
X106704639Y-115758170D01*
X106699423Y-115737346D01*
X106696273Y-115716111D01*
X106695220Y-115694670D01*
X106695220Y-115257170D01*
X106696273Y-115235729D01*
X106699423Y-115214494D01*
X106704639Y-115193670D01*
X106711871Y-115173458D01*
X106721050Y-115154052D01*
X106732086Y-115135639D01*
X106744874Y-115118396D01*
X106759290Y-115102490D01*
X106775196Y-115088074D01*
X106792439Y-115075286D01*
X106810852Y-115064250D01*
X106830258Y-115055071D01*
X106850470Y-115047839D01*
X106871294Y-115042623D01*
X106892529Y-115039473D01*
X106913970Y-115038420D01*
X107426470Y-115038420D01*
X107447911Y-115039473D01*
X107447911Y-115039473D01*
G37*
D11*
X107170220Y-115475920D03*
D12*
X109308900Y-115199920D03*
X109308900Y-117199920D03*
X111574580Y-117151660D03*
X111574580Y-115151660D03*
D10*
G36*
X112416651Y-120551973D02*
G01*
X112437886Y-120555123D01*
X112458710Y-120560339D01*
X112478922Y-120567571D01*
X112498328Y-120576750D01*
X112516741Y-120587786D01*
X112533984Y-120600574D01*
X112549890Y-120614990D01*
X112564306Y-120630896D01*
X112577094Y-120648139D01*
X112588130Y-120666552D01*
X112597309Y-120685958D01*
X112604541Y-120706170D01*
X112609757Y-120726994D01*
X112612907Y-120748229D01*
X112613960Y-120769670D01*
X112613960Y-121282170D01*
X112612907Y-121303611D01*
X112609757Y-121324846D01*
X112604541Y-121345670D01*
X112597309Y-121365882D01*
X112588130Y-121385288D01*
X112577094Y-121403701D01*
X112564306Y-121420944D01*
X112549890Y-121436850D01*
X112533984Y-121451266D01*
X112516741Y-121464054D01*
X112498328Y-121475090D01*
X112478922Y-121484269D01*
X112458710Y-121491501D01*
X112437886Y-121496717D01*
X112416651Y-121499867D01*
X112395210Y-121500920D01*
X111957710Y-121500920D01*
X111936269Y-121499867D01*
X111915034Y-121496717D01*
X111894210Y-121491501D01*
X111873998Y-121484269D01*
X111854592Y-121475090D01*
X111836179Y-121464054D01*
X111818936Y-121451266D01*
X111803030Y-121436850D01*
X111788614Y-121420944D01*
X111775826Y-121403701D01*
X111764790Y-121385288D01*
X111755611Y-121365882D01*
X111748379Y-121345670D01*
X111743163Y-121324846D01*
X111740013Y-121303611D01*
X111738960Y-121282170D01*
X111738960Y-120769670D01*
X111740013Y-120748229D01*
X111743163Y-120726994D01*
X111748379Y-120706170D01*
X111755611Y-120685958D01*
X111764790Y-120666552D01*
X111775826Y-120648139D01*
X111788614Y-120630896D01*
X111803030Y-120614990D01*
X111818936Y-120600574D01*
X111836179Y-120587786D01*
X111854592Y-120576750D01*
X111873998Y-120567571D01*
X111894210Y-120560339D01*
X111915034Y-120555123D01*
X111936269Y-120551973D01*
X111957710Y-120550920D01*
X112395210Y-120550920D01*
X112416651Y-120551973D01*
X112416651Y-120551973D01*
G37*
D11*
X112176460Y-121025920D03*
D10*
G36*
X113991651Y-120551973D02*
G01*
X114012886Y-120555123D01*
X114033710Y-120560339D01*
X114053922Y-120567571D01*
X114073328Y-120576750D01*
X114091741Y-120587786D01*
X114108984Y-120600574D01*
X114124890Y-120614990D01*
X114139306Y-120630896D01*
X114152094Y-120648139D01*
X114163130Y-120666552D01*
X114172309Y-120685958D01*
X114179541Y-120706170D01*
X114184757Y-120726994D01*
X114187907Y-120748229D01*
X114188960Y-120769670D01*
X114188960Y-121282170D01*
X114187907Y-121303611D01*
X114184757Y-121324846D01*
X114179541Y-121345670D01*
X114172309Y-121365882D01*
X114163130Y-121385288D01*
X114152094Y-121403701D01*
X114139306Y-121420944D01*
X114124890Y-121436850D01*
X114108984Y-121451266D01*
X114091741Y-121464054D01*
X114073328Y-121475090D01*
X114053922Y-121484269D01*
X114033710Y-121491501D01*
X114012886Y-121496717D01*
X113991651Y-121499867D01*
X113970210Y-121500920D01*
X113532710Y-121500920D01*
X113511269Y-121499867D01*
X113490034Y-121496717D01*
X113469210Y-121491501D01*
X113448998Y-121484269D01*
X113429592Y-121475090D01*
X113411179Y-121464054D01*
X113393936Y-121451266D01*
X113378030Y-121436850D01*
X113363614Y-121420944D01*
X113350826Y-121403701D01*
X113339790Y-121385288D01*
X113330611Y-121365882D01*
X113323379Y-121345670D01*
X113318163Y-121324846D01*
X113315013Y-121303611D01*
X113313960Y-121282170D01*
X113313960Y-120769670D01*
X113315013Y-120748229D01*
X113318163Y-120726994D01*
X113323379Y-120706170D01*
X113330611Y-120685958D01*
X113339790Y-120666552D01*
X113350826Y-120648139D01*
X113363614Y-120630896D01*
X113378030Y-120614990D01*
X113393936Y-120600574D01*
X113411179Y-120587786D01*
X113429592Y-120576750D01*
X113448998Y-120567571D01*
X113469210Y-120560339D01*
X113490034Y-120555123D01*
X113511269Y-120551973D01*
X113532710Y-120550920D01*
X113970210Y-120550920D01*
X113991651Y-120551973D01*
X113991651Y-120551973D01*
G37*
D11*
X113751460Y-121025920D03*
D12*
X100007420Y-127226820D03*
X100007420Y-129226820D03*
D13*
X102270560Y-127250060D03*
X102270560Y-130250060D03*
D10*
G36*
X107097865Y-126765004D02*
G01*
X107122133Y-126768604D01*
X107145932Y-126774565D01*
X107169031Y-126782830D01*
X107191210Y-126793320D01*
X107212253Y-126805932D01*
X107231959Y-126820547D01*
X107250137Y-126837023D01*
X107266613Y-126855201D01*
X107281228Y-126874907D01*
X107293840Y-126895950D01*
X107304330Y-126918129D01*
X107312595Y-126941228D01*
X107318556Y-126965027D01*
X107322156Y-126989295D01*
X107323360Y-127013799D01*
X107323360Y-127638801D01*
X107322156Y-127663305D01*
X107318556Y-127687573D01*
X107312595Y-127711372D01*
X107304330Y-127734471D01*
X107293840Y-127756650D01*
X107281228Y-127777693D01*
X107266613Y-127797399D01*
X107250137Y-127815577D01*
X107231959Y-127832053D01*
X107212253Y-127846668D01*
X107191210Y-127859280D01*
X107169031Y-127869770D01*
X107145932Y-127878035D01*
X107122133Y-127883996D01*
X107097865Y-127887596D01*
X107073361Y-127888800D01*
X104173359Y-127888800D01*
X104148855Y-127887596D01*
X104124587Y-127883996D01*
X104100788Y-127878035D01*
X104077689Y-127869770D01*
X104055510Y-127859280D01*
X104034467Y-127846668D01*
X104014761Y-127832053D01*
X103996583Y-127815577D01*
X103980107Y-127797399D01*
X103965492Y-127777693D01*
X103952880Y-127756650D01*
X103942390Y-127734471D01*
X103934125Y-127711372D01*
X103928164Y-127687573D01*
X103924564Y-127663305D01*
X103923360Y-127638801D01*
X103923360Y-127013799D01*
X103924564Y-126989295D01*
X103928164Y-126965027D01*
X103934125Y-126941228D01*
X103942390Y-126918129D01*
X103952880Y-126895950D01*
X103965492Y-126874907D01*
X103980107Y-126855201D01*
X103996583Y-126837023D01*
X104014761Y-126820547D01*
X104034467Y-126805932D01*
X104055510Y-126793320D01*
X104077689Y-126782830D01*
X104100788Y-126774565D01*
X104124587Y-126768604D01*
X104148855Y-126765004D01*
X104173359Y-126763800D01*
X107073361Y-126763800D01*
X107097865Y-126765004D01*
X107097865Y-126765004D01*
G37*
D14*
X105623360Y-127326300D03*
D10*
G36*
X107097865Y-131040004D02*
G01*
X107122133Y-131043604D01*
X107145932Y-131049565D01*
X107169031Y-131057830D01*
X107191210Y-131068320D01*
X107212253Y-131080932D01*
X107231959Y-131095547D01*
X107250137Y-131112023D01*
X107266613Y-131130201D01*
X107281228Y-131149907D01*
X107293840Y-131170950D01*
X107304330Y-131193129D01*
X107312595Y-131216228D01*
X107318556Y-131240027D01*
X107322156Y-131264295D01*
X107323360Y-131288799D01*
X107323360Y-131913801D01*
X107322156Y-131938305D01*
X107318556Y-131962573D01*
X107312595Y-131986372D01*
X107304330Y-132009471D01*
X107293840Y-132031650D01*
X107281228Y-132052693D01*
X107266613Y-132072399D01*
X107250137Y-132090577D01*
X107231959Y-132107053D01*
X107212253Y-132121668D01*
X107191210Y-132134280D01*
X107169031Y-132144770D01*
X107145932Y-132153035D01*
X107122133Y-132158996D01*
X107097865Y-132162596D01*
X107073361Y-132163800D01*
X104173359Y-132163800D01*
X104148855Y-132162596D01*
X104124587Y-132158996D01*
X104100788Y-132153035D01*
X104077689Y-132144770D01*
X104055510Y-132134280D01*
X104034467Y-132121668D01*
X104014761Y-132107053D01*
X103996583Y-132090577D01*
X103980107Y-132072399D01*
X103965492Y-132052693D01*
X103952880Y-132031650D01*
X103942390Y-132009471D01*
X103934125Y-131986372D01*
X103928164Y-131962573D01*
X103924564Y-131938305D01*
X103923360Y-131913801D01*
X103923360Y-131288799D01*
X103924564Y-131264295D01*
X103928164Y-131240027D01*
X103934125Y-131216228D01*
X103942390Y-131193129D01*
X103952880Y-131170950D01*
X103965492Y-131149907D01*
X103980107Y-131130201D01*
X103996583Y-131112023D01*
X104014761Y-131095547D01*
X104034467Y-131080932D01*
X104055510Y-131068320D01*
X104077689Y-131057830D01*
X104100788Y-131049565D01*
X104124587Y-131043604D01*
X104148855Y-131040004D01*
X104173359Y-131038800D01*
X107073361Y-131038800D01*
X107097865Y-131040004D01*
X107097865Y-131040004D01*
G37*
D14*
X105623360Y-131601300D03*
D10*
G36*
X111222351Y-123967573D02*
G01*
X111243586Y-123970723D01*
X111264410Y-123975939D01*
X111284622Y-123983171D01*
X111304028Y-123992350D01*
X111322441Y-124003386D01*
X111339684Y-124016174D01*
X111355590Y-124030590D01*
X111370006Y-124046496D01*
X111382794Y-124063739D01*
X111393830Y-124082152D01*
X111403009Y-124101558D01*
X111410241Y-124121770D01*
X111415457Y-124142594D01*
X111418607Y-124163829D01*
X111419660Y-124185270D01*
X111419660Y-124622770D01*
X111418607Y-124644211D01*
X111415457Y-124665446D01*
X111410241Y-124686270D01*
X111403009Y-124706482D01*
X111393830Y-124725888D01*
X111382794Y-124744301D01*
X111370006Y-124761544D01*
X111355590Y-124777450D01*
X111339684Y-124791866D01*
X111322441Y-124804654D01*
X111304028Y-124815690D01*
X111284622Y-124824869D01*
X111264410Y-124832101D01*
X111243586Y-124837317D01*
X111222351Y-124840467D01*
X111200910Y-124841520D01*
X110688410Y-124841520D01*
X110666969Y-124840467D01*
X110645734Y-124837317D01*
X110624910Y-124832101D01*
X110604698Y-124824869D01*
X110585292Y-124815690D01*
X110566879Y-124804654D01*
X110549636Y-124791866D01*
X110533730Y-124777450D01*
X110519314Y-124761544D01*
X110506526Y-124744301D01*
X110495490Y-124725888D01*
X110486311Y-124706482D01*
X110479079Y-124686270D01*
X110473863Y-124665446D01*
X110470713Y-124644211D01*
X110469660Y-124622770D01*
X110469660Y-124185270D01*
X110470713Y-124163829D01*
X110473863Y-124142594D01*
X110479079Y-124121770D01*
X110486311Y-124101558D01*
X110495490Y-124082152D01*
X110506526Y-124063739D01*
X110519314Y-124046496D01*
X110533730Y-124030590D01*
X110549636Y-124016174D01*
X110566879Y-124003386D01*
X110585292Y-123992350D01*
X110604698Y-123983171D01*
X110624910Y-123975939D01*
X110645734Y-123970723D01*
X110666969Y-123967573D01*
X110688410Y-123966520D01*
X111200910Y-123966520D01*
X111222351Y-123967573D01*
X111222351Y-123967573D01*
G37*
D11*
X110944660Y-124404020D03*
D10*
G36*
X111222351Y-125542573D02*
G01*
X111243586Y-125545723D01*
X111264410Y-125550939D01*
X111284622Y-125558171D01*
X111304028Y-125567350D01*
X111322441Y-125578386D01*
X111339684Y-125591174D01*
X111355590Y-125605590D01*
X111370006Y-125621496D01*
X111382794Y-125638739D01*
X111393830Y-125657152D01*
X111403009Y-125676558D01*
X111410241Y-125696770D01*
X111415457Y-125717594D01*
X111418607Y-125738829D01*
X111419660Y-125760270D01*
X111419660Y-126197770D01*
X111418607Y-126219211D01*
X111415457Y-126240446D01*
X111410241Y-126261270D01*
X111403009Y-126281482D01*
X111393830Y-126300888D01*
X111382794Y-126319301D01*
X111370006Y-126336544D01*
X111355590Y-126352450D01*
X111339684Y-126366866D01*
X111322441Y-126379654D01*
X111304028Y-126390690D01*
X111284622Y-126399869D01*
X111264410Y-126407101D01*
X111243586Y-126412317D01*
X111222351Y-126415467D01*
X111200910Y-126416520D01*
X110688410Y-126416520D01*
X110666969Y-126415467D01*
X110645734Y-126412317D01*
X110624910Y-126407101D01*
X110604698Y-126399869D01*
X110585292Y-126390690D01*
X110566879Y-126379654D01*
X110549636Y-126366866D01*
X110533730Y-126352450D01*
X110519314Y-126336544D01*
X110506526Y-126319301D01*
X110495490Y-126300888D01*
X110486311Y-126281482D01*
X110479079Y-126261270D01*
X110473863Y-126240446D01*
X110470713Y-126219211D01*
X110469660Y-126197770D01*
X110469660Y-125760270D01*
X110470713Y-125738829D01*
X110473863Y-125717594D01*
X110479079Y-125696770D01*
X110486311Y-125676558D01*
X110495490Y-125657152D01*
X110506526Y-125638739D01*
X110519314Y-125621496D01*
X110533730Y-125605590D01*
X110549636Y-125591174D01*
X110566879Y-125578386D01*
X110585292Y-125567350D01*
X110604698Y-125558171D01*
X110624910Y-125550939D01*
X110645734Y-125545723D01*
X110666969Y-125542573D01*
X110688410Y-125541520D01*
X111200910Y-125541520D01*
X111222351Y-125542573D01*
X111222351Y-125542573D01*
G37*
D11*
X110944660Y-125979020D03*
D15*
X104096820Y-113190020D03*
X104096820Y-117254020D03*
D16*
X100688140Y-114483060D03*
X100688140Y-112283060D03*
X115661260Y-125991620D03*
X117861260Y-125991620D03*
D10*
G36*
X100110325Y-120254984D02*
G01*
X100134593Y-120258584D01*
X100158392Y-120264545D01*
X100181491Y-120272810D01*
X100203670Y-120283300D01*
X100224713Y-120295912D01*
X100244419Y-120310527D01*
X100262597Y-120327003D01*
X100279073Y-120345181D01*
X100293688Y-120364887D01*
X100306300Y-120385930D01*
X100316790Y-120408109D01*
X100325055Y-120431208D01*
X100331016Y-120455007D01*
X100334616Y-120479275D01*
X100335820Y-120503779D01*
X100335820Y-121128781D01*
X100334616Y-121153285D01*
X100331016Y-121177553D01*
X100325055Y-121201352D01*
X100316790Y-121224451D01*
X100306300Y-121246630D01*
X100293688Y-121267673D01*
X100279073Y-121287379D01*
X100262597Y-121305557D01*
X100244419Y-121322033D01*
X100224713Y-121336648D01*
X100203670Y-121349260D01*
X100181491Y-121359750D01*
X100158392Y-121368015D01*
X100134593Y-121373976D01*
X100110325Y-121377576D01*
X100085821Y-121378780D01*
X97185819Y-121378780D01*
X97161315Y-121377576D01*
X97137047Y-121373976D01*
X97113248Y-121368015D01*
X97090149Y-121359750D01*
X97067970Y-121349260D01*
X97046927Y-121336648D01*
X97027221Y-121322033D01*
X97009043Y-121305557D01*
X96992567Y-121287379D01*
X96977952Y-121267673D01*
X96965340Y-121246630D01*
X96954850Y-121224451D01*
X96946585Y-121201352D01*
X96940624Y-121177553D01*
X96937024Y-121153285D01*
X96935820Y-121128781D01*
X96935820Y-120503779D01*
X96937024Y-120479275D01*
X96940624Y-120455007D01*
X96946585Y-120431208D01*
X96954850Y-120408109D01*
X96965340Y-120385930D01*
X96977952Y-120364887D01*
X96992567Y-120345181D01*
X97009043Y-120327003D01*
X97027221Y-120310527D01*
X97046927Y-120295912D01*
X97067970Y-120283300D01*
X97090149Y-120272810D01*
X97113248Y-120264545D01*
X97137047Y-120258584D01*
X97161315Y-120254984D01*
X97185819Y-120253780D01*
X100085821Y-120253780D01*
X100110325Y-120254984D01*
X100110325Y-120254984D01*
G37*
D14*
X98635820Y-120816280D03*
D10*
G36*
X100110325Y-124529984D02*
G01*
X100134593Y-124533584D01*
X100158392Y-124539545D01*
X100181491Y-124547810D01*
X100203670Y-124558300D01*
X100224713Y-124570912D01*
X100244419Y-124585527D01*
X100262597Y-124602003D01*
X100279073Y-124620181D01*
X100293688Y-124639887D01*
X100306300Y-124660930D01*
X100316790Y-124683109D01*
X100325055Y-124706208D01*
X100331016Y-124730007D01*
X100334616Y-124754275D01*
X100335820Y-124778779D01*
X100335820Y-125403781D01*
X100334616Y-125428285D01*
X100331016Y-125452553D01*
X100325055Y-125476352D01*
X100316790Y-125499451D01*
X100306300Y-125521630D01*
X100293688Y-125542673D01*
X100279073Y-125562379D01*
X100262597Y-125580557D01*
X100244419Y-125597033D01*
X100224713Y-125611648D01*
X100203670Y-125624260D01*
X100181491Y-125634750D01*
X100158392Y-125643015D01*
X100134593Y-125648976D01*
X100110325Y-125652576D01*
X100085821Y-125653780D01*
X97185819Y-125653780D01*
X97161315Y-125652576D01*
X97137047Y-125648976D01*
X97113248Y-125643015D01*
X97090149Y-125634750D01*
X97067970Y-125624260D01*
X97046927Y-125611648D01*
X97027221Y-125597033D01*
X97009043Y-125580557D01*
X96992567Y-125562379D01*
X96977952Y-125542673D01*
X96965340Y-125521630D01*
X96954850Y-125499451D01*
X96946585Y-125476352D01*
X96940624Y-125452553D01*
X96937024Y-125428285D01*
X96935820Y-125403781D01*
X96935820Y-124778779D01*
X96937024Y-124754275D01*
X96940624Y-124730007D01*
X96946585Y-124706208D01*
X96954850Y-124683109D01*
X96965340Y-124660930D01*
X96977952Y-124639887D01*
X96992567Y-124620181D01*
X97009043Y-124602003D01*
X97027221Y-124585527D01*
X97046927Y-124570912D01*
X97067970Y-124558300D01*
X97090149Y-124547810D01*
X97113248Y-124539545D01*
X97137047Y-124533584D01*
X97161315Y-124529984D01*
X97185819Y-124528780D01*
X100085821Y-124528780D01*
X100110325Y-124529984D01*
X100110325Y-124529984D01*
G37*
D14*
X98635820Y-125091280D03*
D17*
X104114600Y-124714000D03*
X104114600Y-120650000D03*
D18*
X113964720Y-119222560D03*
X113964720Y-117322560D03*
X115940840Y-117322560D03*
X115940840Y-119222560D03*
X117975380Y-117309860D03*
X117975380Y-119209860D03*
D19*
X114885400Y-129123440D03*
X108685400Y-129123440D03*
D18*
X117815360Y-128135340D03*
X117815360Y-130035340D03*
D10*
G36*
X109545951Y-125542573D02*
G01*
X109567186Y-125545723D01*
X109588010Y-125550939D01*
X109608222Y-125558171D01*
X109627628Y-125567350D01*
X109646041Y-125578386D01*
X109663284Y-125591174D01*
X109679190Y-125605590D01*
X109693606Y-125621496D01*
X109706394Y-125638739D01*
X109717430Y-125657152D01*
X109726609Y-125676558D01*
X109733841Y-125696770D01*
X109739057Y-125717594D01*
X109742207Y-125738829D01*
X109743260Y-125760270D01*
X109743260Y-126197770D01*
X109742207Y-126219211D01*
X109739057Y-126240446D01*
X109733841Y-126261270D01*
X109726609Y-126281482D01*
X109717430Y-126300888D01*
X109706394Y-126319301D01*
X109693606Y-126336544D01*
X109679190Y-126352450D01*
X109663284Y-126366866D01*
X109646041Y-126379654D01*
X109627628Y-126390690D01*
X109608222Y-126399869D01*
X109588010Y-126407101D01*
X109567186Y-126412317D01*
X109545951Y-126415467D01*
X109524510Y-126416520D01*
X109012010Y-126416520D01*
X108990569Y-126415467D01*
X108969334Y-126412317D01*
X108948510Y-126407101D01*
X108928298Y-126399869D01*
X108908892Y-126390690D01*
X108890479Y-126379654D01*
X108873236Y-126366866D01*
X108857330Y-126352450D01*
X108842914Y-126336544D01*
X108830126Y-126319301D01*
X108819090Y-126300888D01*
X108809911Y-126281482D01*
X108802679Y-126261270D01*
X108797463Y-126240446D01*
X108794313Y-126219211D01*
X108793260Y-126197770D01*
X108793260Y-125760270D01*
X108794313Y-125738829D01*
X108797463Y-125717594D01*
X108802679Y-125696770D01*
X108809911Y-125676558D01*
X108819090Y-125657152D01*
X108830126Y-125638739D01*
X108842914Y-125621496D01*
X108857330Y-125605590D01*
X108873236Y-125591174D01*
X108890479Y-125578386D01*
X108908892Y-125567350D01*
X108928298Y-125558171D01*
X108948510Y-125550939D01*
X108969334Y-125545723D01*
X108990569Y-125542573D01*
X109012010Y-125541520D01*
X109524510Y-125541520D01*
X109545951Y-125542573D01*
X109545951Y-125542573D01*
G37*
D11*
X109268260Y-125979020D03*
D10*
G36*
X109545951Y-123967573D02*
G01*
X109567186Y-123970723D01*
X109588010Y-123975939D01*
X109608222Y-123983171D01*
X109627628Y-123992350D01*
X109646041Y-124003386D01*
X109663284Y-124016174D01*
X109679190Y-124030590D01*
X109693606Y-124046496D01*
X109706394Y-124063739D01*
X109717430Y-124082152D01*
X109726609Y-124101558D01*
X109733841Y-124121770D01*
X109739057Y-124142594D01*
X109742207Y-124163829D01*
X109743260Y-124185270D01*
X109743260Y-124622770D01*
X109742207Y-124644211D01*
X109739057Y-124665446D01*
X109733841Y-124686270D01*
X109726609Y-124706482D01*
X109717430Y-124725888D01*
X109706394Y-124744301D01*
X109693606Y-124761544D01*
X109679190Y-124777450D01*
X109663284Y-124791866D01*
X109646041Y-124804654D01*
X109627628Y-124815690D01*
X109608222Y-124824869D01*
X109588010Y-124832101D01*
X109567186Y-124837317D01*
X109545951Y-124840467D01*
X109524510Y-124841520D01*
X109012010Y-124841520D01*
X108990569Y-124840467D01*
X108969334Y-124837317D01*
X108948510Y-124832101D01*
X108928298Y-124824869D01*
X108908892Y-124815690D01*
X108890479Y-124804654D01*
X108873236Y-124791866D01*
X108857330Y-124777450D01*
X108842914Y-124761544D01*
X108830126Y-124744301D01*
X108819090Y-124725888D01*
X108809911Y-124706482D01*
X108802679Y-124686270D01*
X108797463Y-124665446D01*
X108794313Y-124644211D01*
X108793260Y-124622770D01*
X108793260Y-124185270D01*
X108794313Y-124163829D01*
X108797463Y-124142594D01*
X108802679Y-124121770D01*
X108809911Y-124101558D01*
X108819090Y-124082152D01*
X108830126Y-124063739D01*
X108842914Y-124046496D01*
X108857330Y-124030590D01*
X108873236Y-124016174D01*
X108890479Y-124003386D01*
X108908892Y-123992350D01*
X108928298Y-123983171D01*
X108948510Y-123975939D01*
X108969334Y-123970723D01*
X108990569Y-123967573D01*
X109012010Y-123966520D01*
X109524510Y-123966520D01*
X109545951Y-123967573D01*
X109545951Y-123967573D01*
G37*
D11*
X109268260Y-124404020D03*
D20*
X108802740Y-119860440D03*
X108802740Y-120860440D03*
X110302740Y-119860440D03*
X108802740Y-120360440D03*
X110302740Y-120860440D03*
X110302740Y-120360440D03*
D21*
X101119940Y-136519920D03*
X113263680Y-136542780D03*
X106936540Y-136519920D03*
D18*
X100660200Y-118168460D03*
X100660200Y-116268460D03*
M02*
