G04 #@! TF.GenerationSoftware,KiCad,Pcbnew,(5.1.4-0-10_14)*
G04 #@! TF.CreationDate,2020-02-13T02:06:37-05:00*
G04 #@! TF.ProjectId,Buck_HighCurrent,4275636b-5f48-4696-9768-43757272656e,rev?*
G04 #@! TF.SameCoordinates,Original*
G04 #@! TF.FileFunction,Soldermask,Top*
G04 #@! TF.FilePolarity,Negative*
%FSLAX46Y46*%
G04 Gerber Fmt 4.6, Leading zero omitted, Abs format (unit mm)*
G04 Created by KiCad (PCBNEW (5.1.4-0-10_14)) date 2020-02-13 02:06:37*
%MOMM*%
%LPD*%
G04 APERTURE LIST*
%ADD10C,0.100000*%
G04 APERTURE END LIST*
D10*
G36*
X115564680Y-138093780D02*
G01*
X110962680Y-138093780D01*
X110962680Y-134991780D01*
X115564680Y-134991780D01*
X115564680Y-138093780D01*
X115564680Y-138093780D01*
G37*
G36*
X103420940Y-138070920D02*
G01*
X98818940Y-138070920D01*
X98818940Y-134968920D01*
X103420940Y-134968920D01*
X103420940Y-138070920D01*
X103420940Y-138070920D01*
G37*
G36*
X109237540Y-138070920D02*
G01*
X104635540Y-138070920D01*
X104635540Y-134968920D01*
X109237540Y-134968920D01*
X109237540Y-138070920D01*
X109237540Y-138070920D01*
G37*
G36*
X107210667Y-130992298D02*
G01*
X107248678Y-131003829D01*
X107283702Y-131022549D01*
X107314409Y-131047751D01*
X107339611Y-131078458D01*
X107358331Y-131113482D01*
X107369862Y-131151493D01*
X107374360Y-131197163D01*
X107374360Y-132005437D01*
X107369862Y-132051107D01*
X107358331Y-132089118D01*
X107339611Y-132124142D01*
X107314409Y-132154849D01*
X107283702Y-132180051D01*
X107248678Y-132198771D01*
X107210667Y-132210302D01*
X107164997Y-132214800D01*
X104081723Y-132214800D01*
X104036053Y-132210302D01*
X103998042Y-132198771D01*
X103963018Y-132180051D01*
X103932311Y-132154849D01*
X103907109Y-132124142D01*
X103888389Y-132089118D01*
X103876858Y-132051107D01*
X103872360Y-132005437D01*
X103872360Y-131197163D01*
X103876858Y-131151493D01*
X103888389Y-131113482D01*
X103907109Y-131078458D01*
X103932311Y-131047751D01*
X103963018Y-131022549D01*
X103998042Y-131003829D01*
X104036053Y-130992298D01*
X104081723Y-130987800D01*
X107164997Y-130987800D01*
X107210667Y-130992298D01*
X107210667Y-130992298D01*
G37*
G36*
X103121560Y-130801060D02*
G01*
X101419560Y-130801060D01*
X101419560Y-129699060D01*
X103121560Y-129699060D01*
X103121560Y-130801060D01*
X103121560Y-130801060D01*
G37*
G36*
X109236400Y-130774440D02*
G01*
X108134400Y-130774440D01*
X108134400Y-127472440D01*
X109236400Y-127472440D01*
X109236400Y-130774440D01*
X109236400Y-130774440D01*
G37*
G36*
X115436400Y-130774440D02*
G01*
X114334400Y-130774440D01*
X114334400Y-127472440D01*
X115436400Y-127472440D01*
X115436400Y-130774440D01*
X115436400Y-130774440D01*
G37*
G36*
X118516360Y-130436340D02*
G01*
X117114360Y-130436340D01*
X117114360Y-129634340D01*
X118516360Y-129634340D01*
X118516360Y-130436340D01*
X118516360Y-130436340D01*
G37*
G36*
X100683420Y-129777820D02*
G01*
X99331420Y-129777820D01*
X99331420Y-128675820D01*
X100683420Y-128675820D01*
X100683420Y-129777820D01*
X100683420Y-129777820D01*
G37*
G36*
X118516360Y-128536340D02*
G01*
X117114360Y-128536340D01*
X117114360Y-127734340D01*
X118516360Y-127734340D01*
X118516360Y-128536340D01*
X118516360Y-128536340D01*
G37*
G36*
X107210667Y-126717298D02*
G01*
X107248678Y-126728829D01*
X107283702Y-126747549D01*
X107314409Y-126772751D01*
X107339611Y-126803458D01*
X107358331Y-126838482D01*
X107369862Y-126876493D01*
X107374360Y-126922163D01*
X107374360Y-127730437D01*
X107369862Y-127776107D01*
X107358331Y-127814118D01*
X107339611Y-127849142D01*
X107314409Y-127879849D01*
X107283702Y-127905051D01*
X107248678Y-127923771D01*
X107210667Y-127935302D01*
X107164997Y-127939800D01*
X104081723Y-127939800D01*
X104036053Y-127935302D01*
X103998042Y-127923771D01*
X103963018Y-127905051D01*
X103932311Y-127879849D01*
X103907109Y-127849142D01*
X103888389Y-127814118D01*
X103876858Y-127776107D01*
X103872360Y-127730437D01*
X103872360Y-126922163D01*
X103876858Y-126876493D01*
X103888389Y-126838482D01*
X103907109Y-126803458D01*
X103932311Y-126772751D01*
X103963018Y-126747549D01*
X103998042Y-126728829D01*
X104036053Y-126717298D01*
X104081723Y-126712800D01*
X107164997Y-126712800D01*
X107210667Y-126717298D01*
X107210667Y-126717298D01*
G37*
G36*
X103121560Y-127801060D02*
G01*
X101419560Y-127801060D01*
X101419560Y-126699060D01*
X103121560Y-126699060D01*
X103121560Y-127801060D01*
X103121560Y-127801060D01*
G37*
G36*
X100683420Y-127777820D02*
G01*
X99331420Y-127777820D01*
X99331420Y-126675820D01*
X100683420Y-126675820D01*
X100683420Y-127777820D01*
X100683420Y-127777820D01*
G37*
G36*
X116312260Y-126642620D02*
G01*
X115010260Y-126642620D01*
X115010260Y-125340620D01*
X116312260Y-125340620D01*
X116312260Y-126642620D01*
X116312260Y-126642620D01*
G37*
G36*
X118512260Y-126642620D02*
G01*
X117210260Y-126642620D01*
X117210260Y-125340620D01*
X118512260Y-125340620D01*
X118512260Y-126642620D01*
X118512260Y-126642620D01*
G37*
G36*
X109647851Y-125494605D02*
G01*
X109681829Y-125504913D01*
X109713150Y-125521654D01*
X109740599Y-125544181D01*
X109763126Y-125571630D01*
X109779867Y-125602951D01*
X109790175Y-125636929D01*
X109794260Y-125678410D01*
X109794260Y-126279630D01*
X109790175Y-126321111D01*
X109779867Y-126355089D01*
X109763126Y-126386410D01*
X109740599Y-126413859D01*
X109713150Y-126436386D01*
X109681829Y-126453127D01*
X109647851Y-126463435D01*
X109606370Y-126467520D01*
X108930150Y-126467520D01*
X108888669Y-126463435D01*
X108854691Y-126453127D01*
X108823370Y-126436386D01*
X108795921Y-126413859D01*
X108773394Y-126386410D01*
X108756653Y-126355089D01*
X108746345Y-126321111D01*
X108742260Y-126279630D01*
X108742260Y-125678410D01*
X108746345Y-125636929D01*
X108756653Y-125602951D01*
X108773394Y-125571630D01*
X108795921Y-125544181D01*
X108823370Y-125521654D01*
X108854691Y-125504913D01*
X108888669Y-125494605D01*
X108930150Y-125490520D01*
X109606370Y-125490520D01*
X109647851Y-125494605D01*
X109647851Y-125494605D01*
G37*
G36*
X111324251Y-125494605D02*
G01*
X111358229Y-125504913D01*
X111389550Y-125521654D01*
X111416999Y-125544181D01*
X111439526Y-125571630D01*
X111456267Y-125602951D01*
X111466575Y-125636929D01*
X111470660Y-125678410D01*
X111470660Y-126279630D01*
X111466575Y-126321111D01*
X111456267Y-126355089D01*
X111439526Y-126386410D01*
X111416999Y-126413859D01*
X111389550Y-126436386D01*
X111358229Y-126453127D01*
X111324251Y-126463435D01*
X111282770Y-126467520D01*
X110606550Y-126467520D01*
X110565069Y-126463435D01*
X110531091Y-126453127D01*
X110499770Y-126436386D01*
X110472321Y-126413859D01*
X110449794Y-126386410D01*
X110433053Y-126355089D01*
X110422745Y-126321111D01*
X110418660Y-126279630D01*
X110418660Y-125678410D01*
X110422745Y-125636929D01*
X110433053Y-125602951D01*
X110449794Y-125571630D01*
X110472321Y-125544181D01*
X110499770Y-125521654D01*
X110531091Y-125504913D01*
X110565069Y-125494605D01*
X110606550Y-125490520D01*
X111282770Y-125490520D01*
X111324251Y-125494605D01*
X111324251Y-125494605D01*
G37*
G36*
X105511800Y-125755600D02*
G01*
X102717400Y-125755600D01*
X102717400Y-123672400D01*
X105511800Y-123672400D01*
X105511800Y-125755600D01*
X105511800Y-125755600D01*
G37*
G36*
X100223127Y-124482278D02*
G01*
X100261138Y-124493809D01*
X100296162Y-124512529D01*
X100326869Y-124537731D01*
X100352071Y-124568438D01*
X100370791Y-124603462D01*
X100382322Y-124641473D01*
X100386820Y-124687143D01*
X100386820Y-125495417D01*
X100382322Y-125541087D01*
X100370791Y-125579098D01*
X100352071Y-125614122D01*
X100326869Y-125644829D01*
X100296162Y-125670031D01*
X100261138Y-125688751D01*
X100223127Y-125700282D01*
X100177457Y-125704780D01*
X97094183Y-125704780D01*
X97048513Y-125700282D01*
X97010502Y-125688751D01*
X96975478Y-125670031D01*
X96944771Y-125644829D01*
X96919569Y-125614122D01*
X96900849Y-125579098D01*
X96889318Y-125541087D01*
X96884820Y-125495417D01*
X96884820Y-124687143D01*
X96889318Y-124641473D01*
X96900849Y-124603462D01*
X96919569Y-124568438D01*
X96944771Y-124537731D01*
X96975478Y-124512529D01*
X97010502Y-124493809D01*
X97048513Y-124482278D01*
X97094183Y-124477780D01*
X100177457Y-124477780D01*
X100223127Y-124482278D01*
X100223127Y-124482278D01*
G37*
G36*
X111324251Y-123919605D02*
G01*
X111358229Y-123929913D01*
X111389550Y-123946654D01*
X111416999Y-123969181D01*
X111439526Y-123996630D01*
X111456267Y-124027951D01*
X111466575Y-124061929D01*
X111470660Y-124103410D01*
X111470660Y-124704630D01*
X111466575Y-124746111D01*
X111456267Y-124780089D01*
X111439526Y-124811410D01*
X111416999Y-124838859D01*
X111389550Y-124861386D01*
X111358229Y-124878127D01*
X111324251Y-124888435D01*
X111282770Y-124892520D01*
X110606550Y-124892520D01*
X110565069Y-124888435D01*
X110531091Y-124878127D01*
X110499770Y-124861386D01*
X110472321Y-124838859D01*
X110449794Y-124811410D01*
X110433053Y-124780089D01*
X110422745Y-124746111D01*
X110418660Y-124704630D01*
X110418660Y-124103410D01*
X110422745Y-124061929D01*
X110433053Y-124027951D01*
X110449794Y-123996630D01*
X110472321Y-123969181D01*
X110499770Y-123946654D01*
X110531091Y-123929913D01*
X110565069Y-123919605D01*
X110606550Y-123915520D01*
X111282770Y-123915520D01*
X111324251Y-123919605D01*
X111324251Y-123919605D01*
G37*
G36*
X109647851Y-123919605D02*
G01*
X109681829Y-123929913D01*
X109713150Y-123946654D01*
X109740599Y-123969181D01*
X109763126Y-123996630D01*
X109779867Y-124027951D01*
X109790175Y-124061929D01*
X109794260Y-124103410D01*
X109794260Y-124704630D01*
X109790175Y-124746111D01*
X109779867Y-124780089D01*
X109763126Y-124811410D01*
X109740599Y-124838859D01*
X109713150Y-124861386D01*
X109681829Y-124878127D01*
X109647851Y-124888435D01*
X109606370Y-124892520D01*
X108930150Y-124892520D01*
X108888669Y-124888435D01*
X108854691Y-124878127D01*
X108823370Y-124861386D01*
X108795921Y-124838859D01*
X108773394Y-124811410D01*
X108756653Y-124780089D01*
X108746345Y-124746111D01*
X108742260Y-124704630D01*
X108742260Y-124103410D01*
X108746345Y-124061929D01*
X108756653Y-124027951D01*
X108773394Y-123996630D01*
X108795921Y-123969181D01*
X108823370Y-123946654D01*
X108854691Y-123929913D01*
X108888669Y-123919605D01*
X108930150Y-123915520D01*
X109606370Y-123915520D01*
X109647851Y-123919605D01*
X109647851Y-123919605D01*
G37*
G36*
X105511800Y-121691600D02*
G01*
X102717400Y-121691600D01*
X102717400Y-119608400D01*
X105511800Y-119608400D01*
X105511800Y-121691600D01*
X105511800Y-121691600D01*
G37*
G36*
X112518551Y-120504005D02*
G01*
X112552529Y-120514313D01*
X112583850Y-120531054D01*
X112611299Y-120553581D01*
X112633826Y-120581030D01*
X112650567Y-120612351D01*
X112660875Y-120646329D01*
X112664960Y-120687810D01*
X112664960Y-121364030D01*
X112660875Y-121405511D01*
X112650567Y-121439489D01*
X112633826Y-121470810D01*
X112611299Y-121498259D01*
X112583850Y-121520786D01*
X112552529Y-121537527D01*
X112518551Y-121547835D01*
X112477070Y-121551920D01*
X111875850Y-121551920D01*
X111834369Y-121547835D01*
X111800391Y-121537527D01*
X111769070Y-121520786D01*
X111741621Y-121498259D01*
X111719094Y-121470810D01*
X111702353Y-121439489D01*
X111692045Y-121405511D01*
X111687960Y-121364030D01*
X111687960Y-120687810D01*
X111692045Y-120646329D01*
X111702353Y-120612351D01*
X111719094Y-120581030D01*
X111741621Y-120553581D01*
X111769070Y-120531054D01*
X111800391Y-120514313D01*
X111834369Y-120504005D01*
X111875850Y-120499920D01*
X112477070Y-120499920D01*
X112518551Y-120504005D01*
X112518551Y-120504005D01*
G37*
G36*
X114093551Y-120504005D02*
G01*
X114127529Y-120514313D01*
X114158850Y-120531054D01*
X114186299Y-120553581D01*
X114208826Y-120581030D01*
X114225567Y-120612351D01*
X114235875Y-120646329D01*
X114239960Y-120687810D01*
X114239960Y-121364030D01*
X114235875Y-121405511D01*
X114225567Y-121439489D01*
X114208826Y-121470810D01*
X114186299Y-121498259D01*
X114158850Y-121520786D01*
X114127529Y-121537527D01*
X114093551Y-121547835D01*
X114052070Y-121551920D01*
X113450850Y-121551920D01*
X113409369Y-121547835D01*
X113375391Y-121537527D01*
X113344070Y-121520786D01*
X113316621Y-121498259D01*
X113294094Y-121470810D01*
X113277353Y-121439489D01*
X113267045Y-121405511D01*
X113262960Y-121364030D01*
X113262960Y-120687810D01*
X113267045Y-120646329D01*
X113277353Y-120612351D01*
X113294094Y-120581030D01*
X113316621Y-120553581D01*
X113344070Y-120531054D01*
X113375391Y-120514313D01*
X113409369Y-120504005D01*
X113450850Y-120499920D01*
X114052070Y-120499920D01*
X114093551Y-120504005D01*
X114093551Y-120504005D01*
G37*
G36*
X100223127Y-120207278D02*
G01*
X100261138Y-120218809D01*
X100296162Y-120237529D01*
X100326869Y-120262731D01*
X100352071Y-120293438D01*
X100370791Y-120328462D01*
X100382322Y-120366473D01*
X100386820Y-120412143D01*
X100386820Y-121220417D01*
X100382322Y-121266087D01*
X100370791Y-121304098D01*
X100352071Y-121339122D01*
X100326869Y-121369829D01*
X100296162Y-121395031D01*
X100261138Y-121413751D01*
X100223127Y-121425282D01*
X100177457Y-121429780D01*
X97094183Y-121429780D01*
X97048513Y-121425282D01*
X97010502Y-121413751D01*
X96975478Y-121395031D01*
X96944771Y-121369829D01*
X96919569Y-121339122D01*
X96900849Y-121304098D01*
X96889318Y-121266087D01*
X96884820Y-121220417D01*
X96884820Y-120412143D01*
X96889318Y-120366473D01*
X96900849Y-120328462D01*
X96919569Y-120293438D01*
X96944771Y-120262731D01*
X96975478Y-120237529D01*
X97010502Y-120218809D01*
X97048513Y-120207278D01*
X97094183Y-120202780D01*
X100177457Y-120202780D01*
X100223127Y-120207278D01*
X100223127Y-120207278D01*
G37*
G36*
X110703740Y-121011440D02*
G01*
X109901740Y-121011440D01*
X109901740Y-119709440D01*
X110703740Y-119709440D01*
X110703740Y-121011440D01*
X110703740Y-121011440D01*
G37*
G36*
X109203740Y-121011440D02*
G01*
X108401740Y-121011440D01*
X108401740Y-119709440D01*
X109203740Y-119709440D01*
X109203740Y-121011440D01*
X109203740Y-121011440D01*
G37*
G36*
X114665720Y-119623560D02*
G01*
X113263720Y-119623560D01*
X113263720Y-118821560D01*
X114665720Y-118821560D01*
X114665720Y-119623560D01*
X114665720Y-119623560D01*
G37*
G36*
X116641840Y-119623560D02*
G01*
X115239840Y-119623560D01*
X115239840Y-118821560D01*
X116641840Y-118821560D01*
X116641840Y-119623560D01*
X116641840Y-119623560D01*
G37*
G36*
X118676380Y-119610860D02*
G01*
X117274380Y-119610860D01*
X117274380Y-118808860D01*
X118676380Y-118808860D01*
X118676380Y-119610860D01*
X118676380Y-119610860D01*
G37*
G36*
X101361200Y-118569460D02*
G01*
X99959200Y-118569460D01*
X99959200Y-117767460D01*
X101361200Y-117767460D01*
X101361200Y-118569460D01*
X101361200Y-118569460D01*
G37*
G36*
X105227320Y-118194020D02*
G01*
X102966320Y-118194020D01*
X102966320Y-116314020D01*
X105227320Y-116314020D01*
X105227320Y-118194020D01*
X105227320Y-118194020D01*
G37*
G36*
X109984900Y-117750920D02*
G01*
X108632900Y-117750920D01*
X108632900Y-116648920D01*
X109984900Y-116648920D01*
X109984900Y-117750920D01*
X109984900Y-117750920D01*
G37*
G36*
X114665720Y-117723560D02*
G01*
X113263720Y-117723560D01*
X113263720Y-116921560D01*
X114665720Y-116921560D01*
X114665720Y-117723560D01*
X114665720Y-117723560D01*
G37*
G36*
X116641840Y-117723560D02*
G01*
X115239840Y-117723560D01*
X115239840Y-116921560D01*
X116641840Y-116921560D01*
X116641840Y-117723560D01*
X116641840Y-117723560D01*
G37*
G36*
X118676380Y-117710860D02*
G01*
X117274380Y-117710860D01*
X117274380Y-116908860D01*
X118676380Y-116908860D01*
X118676380Y-117710860D01*
X118676380Y-117710860D01*
G37*
G36*
X112250580Y-117702660D02*
G01*
X110898580Y-117702660D01*
X110898580Y-116600660D01*
X112250580Y-116600660D01*
X112250580Y-117702660D01*
X112250580Y-117702660D01*
G37*
G36*
X107549811Y-116566505D02*
G01*
X107583789Y-116576813D01*
X107615110Y-116593554D01*
X107642559Y-116616081D01*
X107665086Y-116643530D01*
X107681827Y-116674851D01*
X107692135Y-116708829D01*
X107696220Y-116750310D01*
X107696220Y-117351530D01*
X107692135Y-117393011D01*
X107681827Y-117426989D01*
X107665086Y-117458310D01*
X107642559Y-117485759D01*
X107615110Y-117508286D01*
X107583789Y-117525027D01*
X107549811Y-117535335D01*
X107508330Y-117539420D01*
X106832110Y-117539420D01*
X106790629Y-117535335D01*
X106756651Y-117525027D01*
X106725330Y-117508286D01*
X106697881Y-117485759D01*
X106675354Y-117458310D01*
X106658613Y-117426989D01*
X106648305Y-117393011D01*
X106644220Y-117351530D01*
X106644220Y-116750310D01*
X106648305Y-116708829D01*
X106658613Y-116674851D01*
X106675354Y-116643530D01*
X106697881Y-116616081D01*
X106725330Y-116593554D01*
X106756651Y-116576813D01*
X106790629Y-116566505D01*
X106832110Y-116562420D01*
X107508330Y-116562420D01*
X107549811Y-116566505D01*
X107549811Y-116566505D01*
G37*
G36*
X101361200Y-116669460D02*
G01*
X99959200Y-116669460D01*
X99959200Y-115867460D01*
X101361200Y-115867460D01*
X101361200Y-116669460D01*
X101361200Y-116669460D01*
G37*
G36*
X107549811Y-114991505D02*
G01*
X107583789Y-115001813D01*
X107615110Y-115018554D01*
X107642559Y-115041081D01*
X107665086Y-115068530D01*
X107681827Y-115099851D01*
X107692135Y-115133829D01*
X107696220Y-115175310D01*
X107696220Y-115776530D01*
X107692135Y-115818011D01*
X107681827Y-115851989D01*
X107665086Y-115883310D01*
X107642559Y-115910759D01*
X107615110Y-115933286D01*
X107583789Y-115950027D01*
X107549811Y-115960335D01*
X107508330Y-115964420D01*
X106832110Y-115964420D01*
X106790629Y-115960335D01*
X106756651Y-115950027D01*
X106725330Y-115933286D01*
X106697881Y-115910759D01*
X106675354Y-115883310D01*
X106658613Y-115851989D01*
X106648305Y-115818011D01*
X106644220Y-115776530D01*
X106644220Y-115175310D01*
X106648305Y-115133829D01*
X106658613Y-115099851D01*
X106675354Y-115068530D01*
X106697881Y-115041081D01*
X106725330Y-115018554D01*
X106756651Y-115001813D01*
X106790629Y-114991505D01*
X106832110Y-114987420D01*
X107508330Y-114987420D01*
X107549811Y-114991505D01*
X107549811Y-114991505D01*
G37*
G36*
X109984900Y-115750920D02*
G01*
X108632900Y-115750920D01*
X108632900Y-114648920D01*
X109984900Y-114648920D01*
X109984900Y-115750920D01*
X109984900Y-115750920D01*
G37*
G36*
X112250580Y-115702660D02*
G01*
X110898580Y-115702660D01*
X110898580Y-114600660D01*
X112250580Y-114600660D01*
X112250580Y-115702660D01*
X112250580Y-115702660D01*
G37*
G36*
X101339140Y-115134060D02*
G01*
X100037140Y-115134060D01*
X100037140Y-113832060D01*
X101339140Y-113832060D01*
X101339140Y-115134060D01*
X101339140Y-115134060D01*
G37*
G36*
X105227320Y-114130020D02*
G01*
X102966320Y-114130020D01*
X102966320Y-112250020D01*
X105227320Y-112250020D01*
X105227320Y-114130020D01*
X105227320Y-114130020D01*
G37*
G36*
X101339140Y-112934060D02*
G01*
X100037140Y-112934060D01*
X100037140Y-111632060D01*
X101339140Y-111632060D01*
X101339140Y-112934060D01*
X101339140Y-112934060D01*
G37*
M02*
