G04 #@! TF.GenerationSoftware,KiCad,Pcbnew,5.0.2-bee76a0~70~ubuntu18.04.1*
G04 #@! TF.CreationDate,2019-04-15T21:30:03-04:00*
G04 #@! TF.ProjectId,dashboard_mk4_rev4,64617368-626f-4617-9264-5f6d6b345f72,6.0*
G04 #@! TF.SameCoordinates,Original*
G04 #@! TF.FileFunction,Legend,Top*
G04 #@! TF.FilePolarity,Positive*
%FSLAX46Y46*%
G04 Gerber Fmt 4.6, Leading zero omitted, Abs format (unit mm)*
G04 Created by KiCad (PCBNEW 5.0.2-bee76a0~70~ubuntu18.04.1) date Mon 15 Apr 2019 09:30:03 PM EDT*
%MOMM*%
%LPD*%
G01*
G04 APERTURE LIST*
%ADD10C,0.190500*%
%ADD11C,0.285750*%
%ADD12C,0.152400*%
%ADD13C,0.150000*%
%ADD14C,0.120000*%
%ADD15C,0.200000*%
%ADD16C,0.500000*%
%ADD17C,0.100000*%
G04 APERTURE END LIST*
D10*
X150495000Y-156554714D02*
X150241000Y-156191857D01*
X150059571Y-156554714D02*
X150059571Y-155792714D01*
X150349857Y-155792714D01*
X150422428Y-155829000D01*
X150458714Y-155865285D01*
X150495000Y-155937857D01*
X150495000Y-156046714D01*
X150458714Y-156119285D01*
X150422428Y-156155571D01*
X150349857Y-156191857D01*
X150059571Y-156191857D01*
X150712714Y-155792714D02*
X151148142Y-155792714D01*
X150930428Y-156554714D02*
X150930428Y-155792714D01*
X151402142Y-156554714D02*
X151402142Y-155792714D01*
X151583571Y-155792714D01*
X151692428Y-155829000D01*
X151765000Y-155901571D01*
X151801285Y-155974142D01*
X151837571Y-156119285D01*
X151837571Y-156228142D01*
X151801285Y-156373285D01*
X151765000Y-156445857D01*
X151692428Y-156518428D01*
X151583571Y-156554714D01*
X151402142Y-156554714D01*
X151982714Y-156627285D02*
X152563285Y-156627285D01*
X153107571Y-156554714D02*
X152744714Y-156554714D01*
X152744714Y-155792714D01*
X153325285Y-156518428D02*
X153434142Y-156554714D01*
X153615571Y-156554714D01*
X153688142Y-156518428D01*
X153724428Y-156482142D01*
X153760714Y-156409571D01*
X153760714Y-156337000D01*
X153724428Y-156264428D01*
X153688142Y-156228142D01*
X153615571Y-156191857D01*
X153470428Y-156155571D01*
X153397857Y-156119285D01*
X153361571Y-156083000D01*
X153325285Y-156010428D01*
X153325285Y-155937857D01*
X153361571Y-155865285D01*
X153397857Y-155829000D01*
X153470428Y-155792714D01*
X153651857Y-155792714D01*
X153760714Y-155829000D01*
X154087285Y-156554714D02*
X154087285Y-155792714D01*
X154268714Y-155792714D01*
X154377571Y-155829000D01*
X154450142Y-155901571D01*
X154486428Y-155974142D01*
X154522714Y-156119285D01*
X154522714Y-156228142D01*
X154486428Y-156373285D01*
X154450142Y-156445857D01*
X154377571Y-156518428D01*
X154268714Y-156554714D01*
X154087285Y-156554714D01*
X150694571Y-142838714D02*
X150694571Y-142076714D01*
X150984857Y-142076714D01*
X151057428Y-142113000D01*
X151093714Y-142149285D01*
X151130000Y-142221857D01*
X151130000Y-142330714D01*
X151093714Y-142403285D01*
X151057428Y-142439571D01*
X150984857Y-142475857D01*
X150694571Y-142475857D01*
X151384000Y-142076714D02*
X151565428Y-142838714D01*
X151710571Y-142294428D01*
X151855714Y-142838714D01*
X152037142Y-142076714D01*
X152327428Y-142838714D02*
X152327428Y-142076714D01*
X152581428Y-142621000D01*
X152835428Y-142076714D01*
X152835428Y-142838714D01*
X127635000Y-140552714D02*
X127635000Y-141097000D01*
X127598714Y-141205857D01*
X127526142Y-141278428D01*
X127417285Y-141314714D01*
X127344714Y-141314714D01*
X127925285Y-140552714D02*
X128397000Y-140552714D01*
X128143000Y-140843000D01*
X128251857Y-140843000D01*
X128324428Y-140879285D01*
X128360714Y-140915571D01*
X128397000Y-140988142D01*
X128397000Y-141169571D01*
X128360714Y-141242142D01*
X128324428Y-141278428D01*
X128251857Y-141314714D01*
X128034142Y-141314714D01*
X127961571Y-141278428D01*
X127925285Y-141242142D01*
X164046262Y-142208068D02*
X164155120Y-142244354D01*
X164336548Y-142244354D01*
X164409120Y-142208068D01*
X164445405Y-142171782D01*
X164481691Y-142099211D01*
X164481691Y-142026640D01*
X164445405Y-141954068D01*
X164409120Y-141917782D01*
X164336548Y-141881497D01*
X164191405Y-141845211D01*
X164118834Y-141808925D01*
X164082548Y-141772640D01*
X164046262Y-141700068D01*
X164046262Y-141627497D01*
X164082548Y-141554925D01*
X164118834Y-141518640D01*
X164191405Y-141482354D01*
X164372834Y-141482354D01*
X164481691Y-141518640D01*
X164808262Y-142244354D02*
X164808262Y-141482354D01*
X164989691Y-141482354D01*
X165098548Y-141518640D01*
X165171120Y-141591211D01*
X165207405Y-141663782D01*
X165243691Y-141808925D01*
X165243691Y-141917782D01*
X165207405Y-142062925D01*
X165171120Y-142135497D01*
X165098548Y-142208068D01*
X164989691Y-142244354D01*
X164808262Y-142244354D01*
X165533977Y-142026640D02*
X165896834Y-142026640D01*
X165461405Y-142244354D02*
X165715405Y-141482354D01*
X165969405Y-142244354D01*
X166985405Y-142498354D02*
X166985405Y-141409782D01*
X168509405Y-141518640D02*
X168436834Y-141482354D01*
X168327977Y-141482354D01*
X168219120Y-141518640D01*
X168146548Y-141591211D01*
X168110262Y-141663782D01*
X168073977Y-141808925D01*
X168073977Y-141917782D01*
X168110262Y-142062925D01*
X168146548Y-142135497D01*
X168219120Y-142208068D01*
X168327977Y-142244354D01*
X168400548Y-142244354D01*
X168509405Y-142208068D01*
X168545691Y-142171782D01*
X168545691Y-141917782D01*
X168400548Y-141917782D01*
X168872262Y-142244354D02*
X168872262Y-141482354D01*
X169307691Y-142244354D01*
X169307691Y-141482354D01*
X169670548Y-142244354D02*
X169670548Y-141482354D01*
X169851977Y-141482354D01*
X169960834Y-141518640D01*
X170033405Y-141591211D01*
X170069691Y-141663782D01*
X170105977Y-141808925D01*
X170105977Y-141917782D01*
X170069691Y-142062925D01*
X170033405Y-142135497D01*
X169960834Y-142208068D01*
X169851977Y-142244354D01*
X169670548Y-142244354D01*
X163428700Y-138260438D02*
X163428700Y-138804724D01*
X163392414Y-138913581D01*
X163319842Y-138986152D01*
X163210985Y-139022438D01*
X163138414Y-139022438D01*
X163718985Y-138260438D02*
X164190700Y-138260438D01*
X163936700Y-138550724D01*
X164045557Y-138550724D01*
X164118128Y-138587009D01*
X164154414Y-138623295D01*
X164190700Y-138695866D01*
X164190700Y-138877295D01*
X164154414Y-138949866D01*
X164118128Y-138986152D01*
X164045557Y-139022438D01*
X163827842Y-139022438D01*
X163755271Y-138986152D01*
X163718985Y-138949866D01*
X165097842Y-139022438D02*
X165097842Y-138260438D01*
X165533271Y-139022438D02*
X165206700Y-138587009D01*
X165533271Y-138260438D02*
X165097842Y-138695866D01*
X165859842Y-138623295D02*
X166113842Y-138623295D01*
X166222700Y-139022438D02*
X165859842Y-139022438D01*
X165859842Y-138260438D01*
X166222700Y-138260438D01*
X166694414Y-138659581D02*
X166694414Y-139022438D01*
X166440414Y-138260438D02*
X166694414Y-138659581D01*
X166948414Y-138260438D01*
X167202414Y-138949866D02*
X167238700Y-138986152D01*
X167202414Y-139022438D01*
X167166128Y-138986152D01*
X167202414Y-138949866D01*
X167202414Y-139022438D01*
X167202414Y-138550724D02*
X167238700Y-138587009D01*
X167202414Y-138623295D01*
X167166128Y-138587009D01*
X167202414Y-138550724D01*
X167202414Y-138623295D01*
X160836428Y-153107571D02*
X160872714Y-152998714D01*
X160872714Y-152817285D01*
X160836428Y-152744714D01*
X160800142Y-152708428D01*
X160727571Y-152672142D01*
X160655000Y-152672142D01*
X160582428Y-152708428D01*
X160546142Y-152744714D01*
X160509857Y-152817285D01*
X160473571Y-152962428D01*
X160437285Y-153035000D01*
X160401000Y-153071285D01*
X160328428Y-153107571D01*
X160255857Y-153107571D01*
X160183285Y-153071285D01*
X160147000Y-153035000D01*
X160110714Y-152962428D01*
X160110714Y-152781000D01*
X160147000Y-152672142D01*
X160110714Y-152454428D02*
X160110714Y-152019000D01*
X160872714Y-152236714D02*
X160110714Y-152236714D01*
X160872714Y-151329571D02*
X160509857Y-151583571D01*
X160872714Y-151765000D02*
X160110714Y-151765000D01*
X160110714Y-151474714D01*
X160147000Y-151402142D01*
X160183285Y-151365857D01*
X160255857Y-151329571D01*
X160364714Y-151329571D01*
X160437285Y-151365857D01*
X160473571Y-151402142D01*
X160509857Y-151474714D01*
X160509857Y-151765000D01*
X160110714Y-151003000D02*
X160727571Y-151003000D01*
X160800142Y-150966714D01*
X160836428Y-150930428D01*
X160872714Y-150857857D01*
X160872714Y-150712714D01*
X160836428Y-150640142D01*
X160800142Y-150603857D01*
X160727571Y-150567571D01*
X160110714Y-150567571D01*
X160800142Y-149769285D02*
X160836428Y-149805571D01*
X160872714Y-149914428D01*
X160872714Y-149987000D01*
X160836428Y-150095857D01*
X160763857Y-150168428D01*
X160691285Y-150204714D01*
X160546142Y-150241000D01*
X160437285Y-150241000D01*
X160292142Y-150204714D01*
X160219571Y-150168428D01*
X160147000Y-150095857D01*
X160110714Y-149987000D01*
X160110714Y-149914428D01*
X160147000Y-149805571D01*
X160183285Y-149769285D01*
X160110714Y-149551571D02*
X160110714Y-149116142D01*
X160872714Y-149333857D02*
X160110714Y-149333857D01*
X160110714Y-148862142D02*
X160727571Y-148862142D01*
X160800142Y-148825857D01*
X160836428Y-148789571D01*
X160872714Y-148717000D01*
X160872714Y-148571857D01*
X160836428Y-148499285D01*
X160800142Y-148463000D01*
X160727571Y-148426714D01*
X160110714Y-148426714D01*
X160872714Y-147628428D02*
X160509857Y-147882428D01*
X160872714Y-148063857D02*
X160110714Y-148063857D01*
X160110714Y-147773571D01*
X160147000Y-147701000D01*
X160183285Y-147664714D01*
X160255857Y-147628428D01*
X160364714Y-147628428D01*
X160437285Y-147664714D01*
X160473571Y-147701000D01*
X160509857Y-147773571D01*
X160509857Y-148063857D01*
X160655000Y-147338142D02*
X160655000Y-146975285D01*
X160872714Y-147410714D02*
X160110714Y-147156714D01*
X160872714Y-146902714D01*
X160872714Y-146285857D02*
X160872714Y-146648714D01*
X160110714Y-146648714D01*
X167736520Y-144449074D02*
X167736520Y-144993360D01*
X167700234Y-145102217D01*
X167627662Y-145174788D01*
X167518805Y-145211074D01*
X167446234Y-145211074D01*
X168462234Y-144449074D02*
X168099377Y-144449074D01*
X168063091Y-144811931D01*
X168099377Y-144775645D01*
X168171948Y-144739360D01*
X168353377Y-144739360D01*
X168425948Y-144775645D01*
X168462234Y-144811931D01*
X168498520Y-144884502D01*
X168498520Y-145065931D01*
X168462234Y-145138502D01*
X168425948Y-145174788D01*
X168353377Y-145211074D01*
X168171948Y-145211074D01*
X168099377Y-145174788D01*
X168063091Y-145138502D01*
X169405662Y-145211074D02*
X169405662Y-144449074D01*
X169841091Y-145211074D02*
X169514520Y-144775645D01*
X169841091Y-144449074D02*
X169405662Y-144884502D01*
X170167662Y-144811931D02*
X170421662Y-144811931D01*
X170530520Y-145211074D02*
X170167662Y-145211074D01*
X170167662Y-144449074D01*
X170530520Y-144449074D01*
X171002234Y-144848217D02*
X171002234Y-145211074D01*
X170748234Y-144449074D02*
X171002234Y-144848217D01*
X171256234Y-144449074D01*
X171510234Y-145138502D02*
X171546520Y-145174788D01*
X171510234Y-145211074D01*
X171473948Y-145174788D01*
X171510234Y-145138502D01*
X171510234Y-145211074D01*
X171510234Y-144739360D02*
X171546520Y-144775645D01*
X171510234Y-144811931D01*
X171473948Y-144775645D01*
X171510234Y-144739360D01*
X171510234Y-144811931D01*
X162328520Y-140657471D02*
X162437377Y-140693757D01*
X162618805Y-140693757D01*
X162691377Y-140657471D01*
X162727663Y-140621185D01*
X162763948Y-140548614D01*
X162763948Y-140476043D01*
X162727663Y-140403471D01*
X162691377Y-140367185D01*
X162618805Y-140330900D01*
X162473663Y-140294614D01*
X162401091Y-140258328D01*
X162364805Y-140222043D01*
X162328520Y-140149471D01*
X162328520Y-140076900D01*
X162364805Y-140004328D01*
X162401091Y-139968043D01*
X162473663Y-139931757D01*
X162655091Y-139931757D01*
X162763948Y-139968043D01*
X163525948Y-140621185D02*
X163489663Y-140657471D01*
X163380805Y-140693757D01*
X163308234Y-140693757D01*
X163199377Y-140657471D01*
X163126805Y-140584900D01*
X163090520Y-140512328D01*
X163054234Y-140367185D01*
X163054234Y-140258328D01*
X163090520Y-140113185D01*
X163126805Y-140040614D01*
X163199377Y-139968043D01*
X163308234Y-139931757D01*
X163380805Y-139931757D01*
X163489663Y-139968043D01*
X163525948Y-140004328D01*
X164215377Y-140693757D02*
X163852520Y-140693757D01*
X163852520Y-139931757D01*
X165231377Y-140947757D02*
X165231377Y-139859185D01*
X166247377Y-139931757D02*
X166501377Y-140693757D01*
X166755377Y-139931757D01*
X167444805Y-140621185D02*
X167408520Y-140657471D01*
X167299663Y-140693757D01*
X167227091Y-140693757D01*
X167118234Y-140657471D01*
X167045663Y-140584900D01*
X167009377Y-140512328D01*
X166973091Y-140367185D01*
X166973091Y-140258328D01*
X167009377Y-140113185D01*
X167045663Y-140040614D01*
X167118234Y-139968043D01*
X167227091Y-139931757D01*
X167299663Y-139931757D01*
X167408520Y-139968043D01*
X167444805Y-140004328D01*
X168206805Y-140621185D02*
X168170520Y-140657471D01*
X168061663Y-140693757D01*
X167989091Y-140693757D01*
X167880234Y-140657471D01*
X167807663Y-140584900D01*
X167771377Y-140512328D01*
X167735091Y-140367185D01*
X167735091Y-140258328D01*
X167771377Y-140113185D01*
X167807663Y-140040614D01*
X167880234Y-139968043D01*
X167989091Y-139931757D01*
X168061663Y-139931757D01*
X168170520Y-139968043D01*
X168206805Y-140004328D01*
X169066028Y-155767314D02*
X169320028Y-156529314D01*
X169574028Y-155767314D01*
X170263457Y-156456742D02*
X170227171Y-156493028D01*
X170118314Y-156529314D01*
X170045742Y-156529314D01*
X169936885Y-156493028D01*
X169864314Y-156420457D01*
X169828028Y-156347885D01*
X169791742Y-156202742D01*
X169791742Y-156093885D01*
X169828028Y-155948742D01*
X169864314Y-155876171D01*
X169936885Y-155803600D01*
X170045742Y-155767314D01*
X170118314Y-155767314D01*
X170227171Y-155803600D01*
X170263457Y-155839885D01*
X171025457Y-156456742D02*
X170989171Y-156493028D01*
X170880314Y-156529314D01*
X170807742Y-156529314D01*
X170698885Y-156493028D01*
X170626314Y-156420457D01*
X170590028Y-156347885D01*
X170553742Y-156202742D01*
X170553742Y-156093885D01*
X170590028Y-155948742D01*
X170626314Y-155876171D01*
X170698885Y-155803600D01*
X170807742Y-155767314D01*
X170880314Y-155767314D01*
X170989171Y-155803600D01*
X171025457Y-155839885D01*
X171533457Y-156783314D02*
X171533457Y-155694742D01*
X172077742Y-156529314D02*
X172077742Y-155767314D01*
X172331742Y-156311600D01*
X172585742Y-155767314D01*
X172585742Y-156529314D01*
X172948600Y-156529314D02*
X172948600Y-155767314D01*
X173275171Y-156493028D02*
X173384028Y-156529314D01*
X173565457Y-156529314D01*
X173638028Y-156493028D01*
X173674314Y-156456742D01*
X173710600Y-156384171D01*
X173710600Y-156311600D01*
X173674314Y-156239028D01*
X173638028Y-156202742D01*
X173565457Y-156166457D01*
X173420314Y-156130171D01*
X173347742Y-156093885D01*
X173311457Y-156057600D01*
X173275171Y-155985028D01*
X173275171Y-155912457D01*
X173311457Y-155839885D01*
X173347742Y-155803600D01*
X173420314Y-155767314D01*
X173601742Y-155767314D01*
X173710600Y-155803600D01*
X174182314Y-155767314D02*
X174327457Y-155767314D01*
X174400028Y-155803600D01*
X174472600Y-155876171D01*
X174508885Y-156021314D01*
X174508885Y-156275314D01*
X174472600Y-156420457D01*
X174400028Y-156493028D01*
X174327457Y-156529314D01*
X174182314Y-156529314D01*
X174109742Y-156493028D01*
X174037171Y-156420457D01*
X174000885Y-156275314D01*
X174000885Y-156021314D01*
X174037171Y-155876171D01*
X174109742Y-155803600D01*
X174182314Y-155767314D01*
X174799171Y-155839885D02*
X174835457Y-155803600D01*
X174908028Y-155767314D01*
X175089457Y-155767314D01*
X175162028Y-155803600D01*
X175198314Y-155839885D01*
X175234600Y-155912457D01*
X175234600Y-155985028D01*
X175198314Y-156093885D01*
X174762885Y-156529314D01*
X175234600Y-156529314D01*
X169405662Y-152737820D02*
X169333091Y-152701534D01*
X169224234Y-152701534D01*
X169115377Y-152737820D01*
X169042805Y-152810391D01*
X169006520Y-152882962D01*
X168970234Y-153028105D01*
X168970234Y-153136962D01*
X169006520Y-153282105D01*
X169042805Y-153354677D01*
X169115377Y-153427248D01*
X169224234Y-153463534D01*
X169296805Y-153463534D01*
X169405662Y-153427248D01*
X169441948Y-153390962D01*
X169441948Y-153136962D01*
X169296805Y-153136962D01*
X169768520Y-153463534D02*
X169768520Y-152701534D01*
X170203948Y-153463534D01*
X170203948Y-152701534D01*
X170566805Y-153463534D02*
X170566805Y-152701534D01*
X170748234Y-152701534D01*
X170857091Y-152737820D01*
X170929662Y-152810391D01*
X170965948Y-152882962D01*
X171002234Y-153028105D01*
X171002234Y-153136962D01*
X170965948Y-153282105D01*
X170929662Y-153354677D01*
X170857091Y-153427248D01*
X170748234Y-153463534D01*
X170566805Y-153463534D01*
X171510234Y-153717534D02*
X171510234Y-152628962D01*
X172489948Y-153463534D02*
X172235948Y-153100677D01*
X172054520Y-153463534D02*
X172054520Y-152701534D01*
X172344805Y-152701534D01*
X172417377Y-152737820D01*
X172453662Y-152774105D01*
X172489948Y-152846677D01*
X172489948Y-152955534D01*
X172453662Y-153028105D01*
X172417377Y-153064391D01*
X172344805Y-153100677D01*
X172054520Y-153100677D01*
X172816520Y-153064391D02*
X173070520Y-153064391D01*
X173179377Y-153463534D02*
X172816520Y-153463534D01*
X172816520Y-152701534D01*
X173179377Y-152701534D01*
X173469662Y-153427248D02*
X173578520Y-153463534D01*
X173759948Y-153463534D01*
X173832520Y-153427248D01*
X173868805Y-153390962D01*
X173905091Y-153318391D01*
X173905091Y-153245820D01*
X173868805Y-153173248D01*
X173832520Y-153136962D01*
X173759948Y-153100677D01*
X173614805Y-153064391D01*
X173542234Y-153028105D01*
X173505948Y-152991820D01*
X173469662Y-152919248D01*
X173469662Y-152846677D01*
X173505948Y-152774105D01*
X173542234Y-152737820D01*
X173614805Y-152701534D01*
X173796234Y-152701534D01*
X173905091Y-152737820D01*
X174231662Y-153064391D02*
X174485662Y-153064391D01*
X174594520Y-153463534D02*
X174231662Y-153463534D01*
X174231662Y-152701534D01*
X174594520Y-152701534D01*
X174812234Y-152701534D02*
X175247662Y-152701534D01*
X175029948Y-153463534D02*
X175029948Y-152701534D01*
X175465377Y-152774105D02*
X175501662Y-152737820D01*
X175574234Y-152701534D01*
X175755662Y-152701534D01*
X175828234Y-152737820D01*
X175864520Y-152774105D01*
X175900805Y-152846677D01*
X175900805Y-152919248D01*
X175864520Y-153028105D01*
X175429091Y-153463534D01*
X175900805Y-153463534D01*
X167863882Y-154993884D02*
X167863882Y-154231884D01*
X168117882Y-154776170D01*
X168371882Y-154231884D01*
X168371882Y-154993884D01*
X168879882Y-154231884D02*
X169025025Y-154231884D01*
X169097597Y-154268170D01*
X169170168Y-154340741D01*
X169206454Y-154485884D01*
X169206454Y-154739884D01*
X169170168Y-154885027D01*
X169097597Y-154957598D01*
X169025025Y-154993884D01*
X168879882Y-154993884D01*
X168807311Y-154957598D01*
X168734740Y-154885027D01*
X168698454Y-154739884D01*
X168698454Y-154485884D01*
X168734740Y-154340741D01*
X168807311Y-154268170D01*
X168879882Y-154231884D01*
X169496740Y-154957598D02*
X169605597Y-154993884D01*
X169787025Y-154993884D01*
X169859597Y-154957598D01*
X169895882Y-154921312D01*
X169932168Y-154848741D01*
X169932168Y-154776170D01*
X169895882Y-154703598D01*
X169859597Y-154667312D01*
X169787025Y-154631027D01*
X169641882Y-154594741D01*
X169569311Y-154558455D01*
X169533025Y-154522170D01*
X169496740Y-154449598D01*
X169496740Y-154377027D01*
X169533025Y-154304455D01*
X169569311Y-154268170D01*
X169641882Y-154231884D01*
X169823311Y-154231884D01*
X169932168Y-154268170D01*
X170258740Y-154993884D02*
X170258740Y-154231884D01*
X170585311Y-154304455D02*
X170621597Y-154268170D01*
X170694168Y-154231884D01*
X170875597Y-154231884D01*
X170948168Y-154268170D01*
X170984454Y-154304455D01*
X171020740Y-154377027D01*
X171020740Y-154449598D01*
X170984454Y-154558455D01*
X170549025Y-154993884D01*
X171020740Y-154993884D01*
X171528740Y-155247884D02*
X171528740Y-154159312D01*
X172036740Y-154957598D02*
X172145597Y-154993884D01*
X172327025Y-154993884D01*
X172399597Y-154957598D01*
X172435882Y-154921312D01*
X172472168Y-154848741D01*
X172472168Y-154776170D01*
X172435882Y-154703598D01*
X172399597Y-154667312D01*
X172327025Y-154631027D01*
X172181882Y-154594741D01*
X172109311Y-154558455D01*
X172073025Y-154522170D01*
X172036740Y-154449598D01*
X172036740Y-154377027D01*
X172073025Y-154304455D01*
X172109311Y-154268170D01*
X172181882Y-154231884D01*
X172363311Y-154231884D01*
X172472168Y-154268170D01*
X173234168Y-154921312D02*
X173197882Y-154957598D01*
X173089025Y-154993884D01*
X173016454Y-154993884D01*
X172907597Y-154957598D01*
X172835025Y-154885027D01*
X172798740Y-154812455D01*
X172762454Y-154667312D01*
X172762454Y-154558455D01*
X172798740Y-154413312D01*
X172835025Y-154340741D01*
X172907597Y-154268170D01*
X173016454Y-154231884D01*
X173089025Y-154231884D01*
X173197882Y-154268170D01*
X173234168Y-154304455D01*
X173560740Y-154993884D02*
X173560740Y-154231884D01*
X173996168Y-154993884D02*
X173669597Y-154558455D01*
X173996168Y-154231884D02*
X173560740Y-154667312D01*
X174286454Y-154304455D02*
X174322740Y-154268170D01*
X174395311Y-154231884D01*
X174576740Y-154231884D01*
X174649311Y-154268170D01*
X174685597Y-154304455D01*
X174721882Y-154377027D01*
X174721882Y-154449598D01*
X174685597Y-154558455D01*
X174250168Y-154993884D01*
X174721882Y-154993884D01*
X167145425Y-150042154D02*
X166891425Y-149679297D01*
X166709997Y-150042154D02*
X166709997Y-149280154D01*
X167000282Y-149280154D01*
X167072854Y-149316440D01*
X167109140Y-149352725D01*
X167145425Y-149425297D01*
X167145425Y-149534154D01*
X167109140Y-149606725D01*
X167072854Y-149643011D01*
X167000282Y-149679297D01*
X166709997Y-149679297D01*
X167471997Y-149643011D02*
X167725997Y-149643011D01*
X167834854Y-150042154D02*
X167471997Y-150042154D01*
X167471997Y-149280154D01*
X167834854Y-149280154D01*
X168125140Y-150005868D02*
X168233997Y-150042154D01*
X168415425Y-150042154D01*
X168487997Y-150005868D01*
X168524282Y-149969582D01*
X168560568Y-149897011D01*
X168560568Y-149824440D01*
X168524282Y-149751868D01*
X168487997Y-149715582D01*
X168415425Y-149679297D01*
X168270282Y-149643011D01*
X168197711Y-149606725D01*
X168161425Y-149570440D01*
X168125140Y-149497868D01*
X168125140Y-149425297D01*
X168161425Y-149352725D01*
X168197711Y-149316440D01*
X168270282Y-149280154D01*
X168451711Y-149280154D01*
X168560568Y-149316440D01*
X168887140Y-149643011D02*
X169141140Y-149643011D01*
X169249997Y-150042154D02*
X168887140Y-150042154D01*
X168887140Y-149280154D01*
X169249997Y-149280154D01*
X169467711Y-149280154D02*
X169903140Y-149280154D01*
X169685425Y-150042154D02*
X169685425Y-149280154D01*
X170338568Y-150296154D02*
X170338568Y-149207582D01*
X171281997Y-149316440D02*
X171209425Y-149280154D01*
X171100568Y-149280154D01*
X170991711Y-149316440D01*
X170919140Y-149389011D01*
X170882854Y-149461582D01*
X170846568Y-149606725D01*
X170846568Y-149715582D01*
X170882854Y-149860725D01*
X170919140Y-149933297D01*
X170991711Y-150005868D01*
X171100568Y-150042154D01*
X171173140Y-150042154D01*
X171281997Y-150005868D01*
X171318282Y-149969582D01*
X171318282Y-149715582D01*
X171173140Y-149715582D01*
X171644854Y-150042154D02*
X171644854Y-149280154D01*
X172080282Y-150042154D01*
X172080282Y-149280154D01*
X172443140Y-150042154D02*
X172443140Y-149280154D01*
X172624568Y-149280154D01*
X172733425Y-149316440D01*
X172805997Y-149389011D01*
X172842282Y-149461582D01*
X172878568Y-149606725D01*
X172878568Y-149715582D01*
X172842282Y-149860725D01*
X172805997Y-149933297D01*
X172733425Y-150005868D01*
X172624568Y-150042154D01*
X172443140Y-150042154D01*
X167776071Y-148359947D02*
X167884928Y-148396233D01*
X168066357Y-148396233D01*
X168138928Y-148359947D01*
X168175214Y-148323661D01*
X168211500Y-148251090D01*
X168211500Y-148178519D01*
X168175214Y-148105947D01*
X168138928Y-148069661D01*
X168066357Y-148033376D01*
X167921214Y-147997090D01*
X167848642Y-147960804D01*
X167812357Y-147924519D01*
X167776071Y-147851947D01*
X167776071Y-147779376D01*
X167812357Y-147706804D01*
X167848642Y-147670519D01*
X167921214Y-147634233D01*
X168102642Y-147634233D01*
X168211500Y-147670519D01*
X168973500Y-148323661D02*
X168937214Y-148359947D01*
X168828357Y-148396233D01*
X168755785Y-148396233D01*
X168646928Y-148359947D01*
X168574357Y-148287376D01*
X168538071Y-148214804D01*
X168501785Y-148069661D01*
X168501785Y-147960804D01*
X168538071Y-147815661D01*
X168574357Y-147743090D01*
X168646928Y-147670519D01*
X168755785Y-147634233D01*
X168828357Y-147634233D01*
X168937214Y-147670519D01*
X168973500Y-147706804D01*
X169300071Y-148396233D02*
X169300071Y-147634233D01*
X169735500Y-148396233D02*
X169408928Y-147960804D01*
X169735500Y-147634233D02*
X169300071Y-148069661D01*
X170243500Y-148650233D02*
X170243500Y-147561661D01*
X170787785Y-148396233D02*
X170787785Y-147634233D01*
X171041785Y-148178519D01*
X171295785Y-147634233D01*
X171295785Y-148396233D01*
X171803785Y-147634233D02*
X171948928Y-147634233D01*
X172021500Y-147670519D01*
X172094071Y-147743090D01*
X172130357Y-147888233D01*
X172130357Y-148142233D01*
X172094071Y-148287376D01*
X172021500Y-148359947D01*
X171948928Y-148396233D01*
X171803785Y-148396233D01*
X171731214Y-148359947D01*
X171658642Y-148287376D01*
X171622357Y-148142233D01*
X171622357Y-147888233D01*
X171658642Y-147743090D01*
X171731214Y-147670519D01*
X171803785Y-147634233D01*
X172420642Y-148359947D02*
X172529500Y-148396233D01*
X172710928Y-148396233D01*
X172783500Y-148359947D01*
X172819785Y-148323661D01*
X172856071Y-148251090D01*
X172856071Y-148178519D01*
X172819785Y-148105947D01*
X172783500Y-148069661D01*
X172710928Y-148033376D01*
X172565785Y-147997090D01*
X172493214Y-147960804D01*
X172456928Y-147924519D01*
X172420642Y-147851947D01*
X172420642Y-147779376D01*
X172456928Y-147706804D01*
X172493214Y-147670519D01*
X172565785Y-147634233D01*
X172747214Y-147634233D01*
X172856071Y-147670519D01*
X173182642Y-148396233D02*
X173182642Y-147634233D01*
X167355882Y-146757934D02*
X167355882Y-145995934D01*
X167609882Y-146540220D01*
X167863882Y-145995934D01*
X167863882Y-146757934D01*
X168226740Y-146757934D02*
X168226740Y-145995934D01*
X168553311Y-146721648D02*
X168662168Y-146757934D01*
X168843597Y-146757934D01*
X168916168Y-146721648D01*
X168952454Y-146685362D01*
X168988740Y-146612791D01*
X168988740Y-146540220D01*
X168952454Y-146467648D01*
X168916168Y-146431362D01*
X168843597Y-146395077D01*
X168698454Y-146358791D01*
X168625882Y-146322505D01*
X168589597Y-146286220D01*
X168553311Y-146213648D01*
X168553311Y-146141077D01*
X168589597Y-146068505D01*
X168625882Y-146032220D01*
X168698454Y-145995934D01*
X168879882Y-145995934D01*
X168988740Y-146032220D01*
X169460454Y-145995934D02*
X169605597Y-145995934D01*
X169678168Y-146032220D01*
X169750740Y-146104791D01*
X169787025Y-146249934D01*
X169787025Y-146503934D01*
X169750740Y-146649077D01*
X169678168Y-146721648D01*
X169605597Y-146757934D01*
X169460454Y-146757934D01*
X169387882Y-146721648D01*
X169315311Y-146649077D01*
X169279025Y-146503934D01*
X169279025Y-146249934D01*
X169315311Y-146104791D01*
X169387882Y-146032220D01*
X169460454Y-145995934D01*
X170295025Y-147011934D02*
X170295025Y-145923362D01*
X170730454Y-145995934D02*
X170984454Y-146757934D01*
X171238454Y-145995934D01*
X171927882Y-146685362D02*
X171891597Y-146721648D01*
X171782740Y-146757934D01*
X171710168Y-146757934D01*
X171601311Y-146721648D01*
X171528740Y-146649077D01*
X171492454Y-146576505D01*
X171456168Y-146431362D01*
X171456168Y-146322505D01*
X171492454Y-146177362D01*
X171528740Y-146104791D01*
X171601311Y-146032220D01*
X171710168Y-145995934D01*
X171782740Y-145995934D01*
X171891597Y-146032220D01*
X171927882Y-146068505D01*
X172689882Y-146685362D02*
X172653597Y-146721648D01*
X172544740Y-146757934D01*
X172472168Y-146757934D01*
X172363311Y-146721648D01*
X172290740Y-146649077D01*
X172254454Y-146576505D01*
X172218168Y-146431362D01*
X172218168Y-146322505D01*
X172254454Y-146177362D01*
X172290740Y-146104791D01*
X172363311Y-146032220D01*
X172472168Y-145995934D01*
X172544740Y-145995934D01*
X172653597Y-146032220D01*
X172689882Y-146068505D01*
X170159680Y-151251194D02*
X170159680Y-151795480D01*
X170123394Y-151904337D01*
X170050822Y-151976908D01*
X169941965Y-152013194D01*
X169869394Y-152013194D01*
X170849108Y-151505194D02*
X170849108Y-152013194D01*
X170667680Y-151214908D02*
X170486251Y-151759194D01*
X170957965Y-151759194D01*
X171828822Y-152013194D02*
X171828822Y-151251194D01*
X172264251Y-152013194D02*
X171937680Y-151577765D01*
X172264251Y-151251194D02*
X171828822Y-151686622D01*
X172590822Y-151614051D02*
X172844822Y-151614051D01*
X172953680Y-152013194D02*
X172590822Y-152013194D01*
X172590822Y-151251194D01*
X172953680Y-151251194D01*
X173425394Y-151650337D02*
X173425394Y-152013194D01*
X173171394Y-151251194D02*
X173425394Y-151650337D01*
X173679394Y-151251194D01*
X173933394Y-151940622D02*
X173969680Y-151976908D01*
X173933394Y-152013194D01*
X173897108Y-151976908D01*
X173933394Y-151940622D01*
X173933394Y-152013194D01*
X173933394Y-151541480D02*
X173969680Y-151577765D01*
X173933394Y-151614051D01*
X173897108Y-151577765D01*
X173933394Y-151541480D01*
X173933394Y-151614051D01*
D11*
X157616071Y-158337250D02*
X158160357Y-158337250D01*
X157507214Y-158663821D02*
X157888214Y-157520821D01*
X158269214Y-158663821D01*
X159140071Y-158663821D02*
X159140071Y-157520821D01*
X159140071Y-158609392D02*
X159031214Y-158663821D01*
X158813500Y-158663821D01*
X158704642Y-158609392D01*
X158650214Y-158554964D01*
X158595785Y-158446107D01*
X158595785Y-158119535D01*
X158650214Y-158010678D01*
X158704642Y-157956250D01*
X158813500Y-157901821D01*
X159031214Y-157901821D01*
X159140071Y-157956250D01*
X159684357Y-158663821D02*
X159684357Y-157901821D01*
X159684357Y-157520821D02*
X159629928Y-157575250D01*
X159684357Y-157629678D01*
X159738785Y-157575250D01*
X159684357Y-157520821D01*
X159684357Y-157629678D01*
X160065357Y-157901821D02*
X160500785Y-157901821D01*
X160228642Y-157520821D02*
X160228642Y-158500535D01*
X160283071Y-158609392D01*
X160391928Y-158663821D01*
X160500785Y-158663821D01*
X160772928Y-157901821D02*
X161045071Y-158663821D01*
X161317214Y-157901821D02*
X161045071Y-158663821D01*
X160936214Y-158935964D01*
X160881785Y-158990392D01*
X160772928Y-159044821D01*
X162242500Y-158663821D02*
X162242500Y-158065107D01*
X162188071Y-157956250D01*
X162079214Y-157901821D01*
X161861500Y-157901821D01*
X161752642Y-157956250D01*
X162242500Y-158609392D02*
X162133642Y-158663821D01*
X161861500Y-158663821D01*
X161752642Y-158609392D01*
X161698214Y-158500535D01*
X161698214Y-158391678D01*
X161752642Y-158282821D01*
X161861500Y-158228392D01*
X162133642Y-158228392D01*
X162242500Y-158173964D01*
X163603214Y-158609392D02*
X163766500Y-158663821D01*
X164038642Y-158663821D01*
X164147500Y-158609392D01*
X164201928Y-158554964D01*
X164256357Y-158446107D01*
X164256357Y-158337250D01*
X164201928Y-158228392D01*
X164147500Y-158173964D01*
X164038642Y-158119535D01*
X163820928Y-158065107D01*
X163712071Y-158010678D01*
X163657642Y-157956250D01*
X163603214Y-157847392D01*
X163603214Y-157738535D01*
X163657642Y-157629678D01*
X163712071Y-157575250D01*
X163820928Y-157520821D01*
X164093071Y-157520821D01*
X164256357Y-157575250D01*
X165236071Y-157901821D02*
X165236071Y-158663821D01*
X164746214Y-157901821D02*
X164746214Y-158500535D01*
X164800642Y-158609392D01*
X164909500Y-158663821D01*
X165072785Y-158663821D01*
X165181642Y-158609392D01*
X165236071Y-158554964D01*
X166270214Y-158663821D02*
X166270214Y-157520821D01*
X166270214Y-158609392D02*
X166161357Y-158663821D01*
X165943642Y-158663821D01*
X165834785Y-158609392D01*
X165780357Y-158554964D01*
X165725928Y-158446107D01*
X165725928Y-158119535D01*
X165780357Y-158010678D01*
X165834785Y-157956250D01*
X165943642Y-157901821D01*
X166161357Y-157901821D01*
X166270214Y-157956250D01*
X166814500Y-158663821D02*
X166814500Y-157520821D01*
X167304357Y-158663821D02*
X167304357Y-158065107D01*
X167249928Y-157956250D01*
X167141071Y-157901821D01*
X166977785Y-157901821D01*
X166868928Y-157956250D01*
X166814500Y-158010678D01*
X168338500Y-158663821D02*
X168338500Y-158065107D01*
X168284071Y-157956250D01*
X168175214Y-157901821D01*
X167957500Y-157901821D01*
X167848642Y-157956250D01*
X168338500Y-158609392D02*
X168229642Y-158663821D01*
X167957500Y-158663821D01*
X167848642Y-158609392D01*
X167794214Y-158500535D01*
X167794214Y-158391678D01*
X167848642Y-158282821D01*
X167957500Y-158228392D01*
X168229642Y-158228392D01*
X168338500Y-158173964D01*
X168882785Y-158663821D02*
X168882785Y-157520821D01*
X168991642Y-158228392D02*
X169318214Y-158663821D01*
X169318214Y-157901821D02*
X168882785Y-158337250D01*
X170297928Y-158663821D02*
X170297928Y-158065107D01*
X170243500Y-157956250D01*
X170134642Y-157901821D01*
X169916928Y-157901821D01*
X169808071Y-157956250D01*
X170297928Y-158609392D02*
X170189071Y-158663821D01*
X169916928Y-158663821D01*
X169808071Y-158609392D01*
X169753642Y-158500535D01*
X169753642Y-158391678D01*
X169808071Y-158282821D01*
X169916928Y-158228392D01*
X170189071Y-158228392D01*
X170297928Y-158173964D01*
X170842214Y-158663821D02*
X170842214Y-157901821D01*
X170842214Y-158119535D02*
X170896642Y-158010678D01*
X170951071Y-157956250D01*
X171059928Y-157901821D01*
X171168785Y-157901821D01*
X154023785Y-159521071D02*
X154241500Y-159521071D01*
X154350357Y-159575500D01*
X154459214Y-159684357D01*
X154513642Y-159902071D01*
X154513642Y-160283071D01*
X154459214Y-160500785D01*
X154350357Y-160609642D01*
X154241500Y-160664071D01*
X154023785Y-160664071D01*
X153914928Y-160609642D01*
X153806071Y-160500785D01*
X153751642Y-160283071D01*
X153751642Y-159902071D01*
X153806071Y-159684357D01*
X153914928Y-159575500D01*
X154023785Y-159521071D01*
X155166785Y-160664071D02*
X155057928Y-160609642D01*
X155003500Y-160500785D01*
X155003500Y-159521071D01*
X155602214Y-160664071D02*
X155602214Y-159902071D01*
X155602214Y-159521071D02*
X155547785Y-159575500D01*
X155602214Y-159629928D01*
X155656642Y-159575500D01*
X155602214Y-159521071D01*
X155602214Y-159629928D01*
X156146500Y-159902071D02*
X156146500Y-160664071D01*
X156146500Y-160010928D02*
X156200928Y-159956500D01*
X156309785Y-159902071D01*
X156473071Y-159902071D01*
X156581928Y-159956500D01*
X156636357Y-160065357D01*
X156636357Y-160664071D01*
X158051500Y-160065357D02*
X158432500Y-160065357D01*
X158595785Y-160664071D02*
X158051500Y-160664071D01*
X158051500Y-159521071D01*
X158595785Y-159521071D01*
X159248928Y-160664071D02*
X159140071Y-160609642D01*
X159085642Y-160500785D01*
X159085642Y-159521071D01*
X160119785Y-160609642D02*
X160010928Y-160664071D01*
X159793214Y-160664071D01*
X159684357Y-160609642D01*
X159629928Y-160500785D01*
X159629928Y-160065357D01*
X159684357Y-159956500D01*
X159793214Y-159902071D01*
X160010928Y-159902071D01*
X160119785Y-159956500D01*
X160174214Y-160065357D01*
X160174214Y-160174214D01*
X159629928Y-160283071D01*
X161153928Y-160609642D02*
X161045071Y-160664071D01*
X160827357Y-160664071D01*
X160718500Y-160609642D01*
X160664071Y-160555214D01*
X160609642Y-160446357D01*
X160609642Y-160119785D01*
X160664071Y-160010928D01*
X160718500Y-159956500D01*
X160827357Y-159902071D01*
X161045071Y-159902071D01*
X161153928Y-159956500D01*
X161480500Y-159902071D02*
X161915928Y-159902071D01*
X161643785Y-159521071D02*
X161643785Y-160500785D01*
X161698214Y-160609642D01*
X161807071Y-160664071D01*
X161915928Y-160664071D01*
X162296928Y-160664071D02*
X162296928Y-159902071D01*
X162296928Y-160119785D02*
X162351357Y-160010928D01*
X162405785Y-159956500D01*
X162514642Y-159902071D01*
X162623500Y-159902071D01*
X163004500Y-160664071D02*
X163004500Y-159902071D01*
X163004500Y-159521071D02*
X162950071Y-159575500D01*
X163004500Y-159629928D01*
X163058928Y-159575500D01*
X163004500Y-159521071D01*
X163004500Y-159629928D01*
X164038642Y-160609642D02*
X163929785Y-160664071D01*
X163712071Y-160664071D01*
X163603214Y-160609642D01*
X163548785Y-160555214D01*
X163494357Y-160446357D01*
X163494357Y-160119785D01*
X163548785Y-160010928D01*
X163603214Y-159956500D01*
X163712071Y-159902071D01*
X163929785Y-159902071D01*
X164038642Y-159956500D01*
X165399357Y-160664071D02*
X165399357Y-159521071D01*
X165780357Y-160337500D01*
X166161357Y-159521071D01*
X166161357Y-160664071D01*
X166868928Y-160664071D02*
X166760071Y-160609642D01*
X166705642Y-160555214D01*
X166651214Y-160446357D01*
X166651214Y-160119785D01*
X166705642Y-160010928D01*
X166760071Y-159956500D01*
X166868928Y-159902071D01*
X167032214Y-159902071D01*
X167141071Y-159956500D01*
X167195500Y-160010928D01*
X167249928Y-160119785D01*
X167249928Y-160446357D01*
X167195500Y-160555214D01*
X167141071Y-160609642D01*
X167032214Y-160664071D01*
X166868928Y-160664071D01*
X167576500Y-159902071D02*
X168011928Y-159902071D01*
X167739785Y-159521071D02*
X167739785Y-160500785D01*
X167794214Y-160609642D01*
X167903071Y-160664071D01*
X168011928Y-160664071D01*
X168556214Y-160664071D02*
X168447357Y-160609642D01*
X168392928Y-160555214D01*
X168338500Y-160446357D01*
X168338500Y-160119785D01*
X168392928Y-160010928D01*
X168447357Y-159956500D01*
X168556214Y-159902071D01*
X168719500Y-159902071D01*
X168828357Y-159956500D01*
X168882785Y-160010928D01*
X168937214Y-160119785D01*
X168937214Y-160446357D01*
X168882785Y-160555214D01*
X168828357Y-160609642D01*
X168719500Y-160664071D01*
X168556214Y-160664071D01*
X169427071Y-160664071D02*
X169427071Y-159902071D01*
X169427071Y-160119785D02*
X169481500Y-160010928D01*
X169535928Y-159956500D01*
X169644785Y-159902071D01*
X169753642Y-159902071D01*
X170080214Y-160609642D02*
X170189071Y-160664071D01*
X170406785Y-160664071D01*
X170515642Y-160609642D01*
X170570071Y-160500785D01*
X170570071Y-160446357D01*
X170515642Y-160337500D01*
X170406785Y-160283071D01*
X170243500Y-160283071D01*
X170134642Y-160228642D01*
X170080214Y-160119785D01*
X170080214Y-160065357D01*
X170134642Y-159956500D01*
X170243500Y-159902071D01*
X170406785Y-159902071D01*
X170515642Y-159956500D01*
X171059928Y-159902071D02*
X171059928Y-161045071D01*
X171059928Y-159956500D02*
X171168785Y-159902071D01*
X171386500Y-159902071D01*
X171495357Y-159956500D01*
X171549785Y-160010928D01*
X171604214Y-160119785D01*
X171604214Y-160446357D01*
X171549785Y-160555214D01*
X171495357Y-160609642D01*
X171386500Y-160664071D01*
X171168785Y-160664071D01*
X171059928Y-160609642D01*
X172257357Y-160664071D02*
X172148500Y-160609642D01*
X172094071Y-160555214D01*
X172039642Y-160446357D01*
X172039642Y-160119785D01*
X172094071Y-160010928D01*
X172148500Y-159956500D01*
X172257357Y-159902071D01*
X172420642Y-159902071D01*
X172529500Y-159956500D01*
X172583928Y-160010928D01*
X172638357Y-160119785D01*
X172638357Y-160446357D01*
X172583928Y-160555214D01*
X172529500Y-160609642D01*
X172420642Y-160664071D01*
X172257357Y-160664071D01*
X173128214Y-160664071D02*
X173128214Y-159902071D01*
X173128214Y-160119785D02*
X173182642Y-160010928D01*
X173237071Y-159956500D01*
X173345928Y-159902071D01*
X173454785Y-159902071D01*
X173672500Y-159902071D02*
X174107928Y-159902071D01*
X173835785Y-159521071D02*
X173835785Y-160500785D01*
X173890214Y-160609642D01*
X173999071Y-160664071D01*
X174107928Y-160664071D01*
X174434500Y-160609642D02*
X174543357Y-160664071D01*
X174761071Y-160664071D01*
X174869928Y-160609642D01*
X174924357Y-160500785D01*
X174924357Y-160446357D01*
X174869928Y-160337500D01*
X174761071Y-160283071D01*
X174597785Y-160283071D01*
X174488928Y-160228642D01*
X174434500Y-160119785D01*
X174434500Y-160065357D01*
X174488928Y-159956500D01*
X174597785Y-159902071D01*
X174761071Y-159902071D01*
X174869928Y-159956500D01*
X154105428Y-162664321D02*
X154105428Y-161521321D01*
X154377571Y-161521321D01*
X154540857Y-161575750D01*
X154649714Y-161684607D01*
X154704142Y-161793464D01*
X154758571Y-162011178D01*
X154758571Y-162174464D01*
X154704142Y-162392178D01*
X154649714Y-162501035D01*
X154540857Y-162609892D01*
X154377571Y-162664321D01*
X154105428Y-162664321D01*
X155738285Y-162664321D02*
X155738285Y-162065607D01*
X155683857Y-161956750D01*
X155575000Y-161902321D01*
X155357285Y-161902321D01*
X155248428Y-161956750D01*
X155738285Y-162609892D02*
X155629428Y-162664321D01*
X155357285Y-162664321D01*
X155248428Y-162609892D01*
X155194000Y-162501035D01*
X155194000Y-162392178D01*
X155248428Y-162283321D01*
X155357285Y-162228892D01*
X155629428Y-162228892D01*
X155738285Y-162174464D01*
X156228142Y-162609892D02*
X156337000Y-162664321D01*
X156554714Y-162664321D01*
X156663571Y-162609892D01*
X156718000Y-162501035D01*
X156718000Y-162446607D01*
X156663571Y-162337750D01*
X156554714Y-162283321D01*
X156391428Y-162283321D01*
X156282571Y-162228892D01*
X156228142Y-162120035D01*
X156228142Y-162065607D01*
X156282571Y-161956750D01*
X156391428Y-161902321D01*
X156554714Y-161902321D01*
X156663571Y-161956750D01*
X157207857Y-162664321D02*
X157207857Y-161521321D01*
X157697714Y-162664321D02*
X157697714Y-162065607D01*
X157643285Y-161956750D01*
X157534428Y-161902321D01*
X157371142Y-161902321D01*
X157262285Y-161956750D01*
X157207857Y-162011178D01*
X158242000Y-162664321D02*
X158242000Y-161521321D01*
X158242000Y-161956750D02*
X158350857Y-161902321D01*
X158568571Y-161902321D01*
X158677428Y-161956750D01*
X158731857Y-162011178D01*
X158786285Y-162120035D01*
X158786285Y-162446607D01*
X158731857Y-162555464D01*
X158677428Y-162609892D01*
X158568571Y-162664321D01*
X158350857Y-162664321D01*
X158242000Y-162609892D01*
X159439428Y-162664321D02*
X159330571Y-162609892D01*
X159276142Y-162555464D01*
X159221714Y-162446607D01*
X159221714Y-162120035D01*
X159276142Y-162011178D01*
X159330571Y-161956750D01*
X159439428Y-161902321D01*
X159602714Y-161902321D01*
X159711571Y-161956750D01*
X159766000Y-162011178D01*
X159820428Y-162120035D01*
X159820428Y-162446607D01*
X159766000Y-162555464D01*
X159711571Y-162609892D01*
X159602714Y-162664321D01*
X159439428Y-162664321D01*
X160800142Y-162664321D02*
X160800142Y-162065607D01*
X160745714Y-161956750D01*
X160636857Y-161902321D01*
X160419142Y-161902321D01*
X160310285Y-161956750D01*
X160800142Y-162609892D02*
X160691285Y-162664321D01*
X160419142Y-162664321D01*
X160310285Y-162609892D01*
X160255857Y-162501035D01*
X160255857Y-162392178D01*
X160310285Y-162283321D01*
X160419142Y-162228892D01*
X160691285Y-162228892D01*
X160800142Y-162174464D01*
X161344428Y-162664321D02*
X161344428Y-161902321D01*
X161344428Y-162120035D02*
X161398857Y-162011178D01*
X161453285Y-161956750D01*
X161562142Y-161902321D01*
X161671000Y-161902321D01*
X162541857Y-162664321D02*
X162541857Y-161521321D01*
X162541857Y-162609892D02*
X162433000Y-162664321D01*
X162215285Y-162664321D01*
X162106428Y-162609892D01*
X162052000Y-162555464D01*
X161997571Y-162446607D01*
X161997571Y-162120035D01*
X162052000Y-162011178D01*
X162106428Y-161956750D01*
X162215285Y-161902321D01*
X162433000Y-161902321D01*
X162541857Y-161956750D01*
X163957000Y-162228892D02*
X164827857Y-162228892D01*
X166896142Y-162664321D02*
X166515142Y-162120035D01*
X166243000Y-162664321D02*
X166243000Y-161521321D01*
X166678428Y-161521321D01*
X166787285Y-161575750D01*
X166841714Y-161630178D01*
X166896142Y-161739035D01*
X166896142Y-161902321D01*
X166841714Y-162011178D01*
X166787285Y-162065607D01*
X166678428Y-162120035D01*
X166243000Y-162120035D01*
X167386000Y-162664321D02*
X167386000Y-161902321D01*
X167386000Y-161521321D02*
X167331571Y-161575750D01*
X167386000Y-161630178D01*
X167440428Y-161575750D01*
X167386000Y-161521321D01*
X167386000Y-161630178D01*
X168420142Y-161902321D02*
X168420142Y-162827607D01*
X168365714Y-162936464D01*
X168311285Y-162990892D01*
X168202428Y-163045321D01*
X168039142Y-163045321D01*
X167930285Y-162990892D01*
X168420142Y-162609892D02*
X168311285Y-162664321D01*
X168093571Y-162664321D01*
X167984714Y-162609892D01*
X167930285Y-162555464D01*
X167875857Y-162446607D01*
X167875857Y-162120035D01*
X167930285Y-162011178D01*
X167984714Y-161956750D01*
X168093571Y-161902321D01*
X168311285Y-161902321D01*
X168420142Y-161956750D01*
X168964428Y-162664321D02*
X168964428Y-161521321D01*
X169454285Y-162664321D02*
X169454285Y-162065607D01*
X169399857Y-161956750D01*
X169291000Y-161902321D01*
X169127714Y-161902321D01*
X169018857Y-161956750D01*
X168964428Y-162011178D01*
X169835285Y-161902321D02*
X170270714Y-161902321D01*
X169998571Y-161521321D02*
X169998571Y-162501035D01*
X170053000Y-162609892D01*
X170161857Y-162664321D01*
X170270714Y-162664321D01*
X171413714Y-161902321D02*
X171685857Y-162664321D01*
X171958000Y-161902321D01*
X172883285Y-161902321D02*
X172883285Y-162664321D01*
X172611142Y-161466892D02*
X172339000Y-162283321D01*
X173046571Y-162283321D01*
X173482000Y-162555464D02*
X173536428Y-162609892D01*
X173482000Y-162664321D01*
X173427571Y-162609892D01*
X173482000Y-162555464D01*
X173482000Y-162664321D01*
X173971857Y-161630178D02*
X174026285Y-161575750D01*
X174135142Y-161521321D01*
X174407285Y-161521321D01*
X174516142Y-161575750D01*
X174570571Y-161630178D01*
X174625000Y-161739035D01*
X174625000Y-161847892D01*
X174570571Y-162011178D01*
X173917428Y-162664321D01*
X174625000Y-162664321D01*
D10*
X147555857Y-158078714D02*
X148063857Y-158840714D01*
X148063857Y-158078714D02*
X147555857Y-158840714D01*
X148245285Y-158078714D02*
X148680714Y-158078714D01*
X148463000Y-158840714D02*
X148463000Y-158078714D01*
X148898428Y-158623000D02*
X149261285Y-158623000D01*
X148825857Y-158840714D02*
X149079857Y-158078714D01*
X149333857Y-158840714D01*
X149950714Y-158840714D02*
X149587857Y-158840714D01*
X149587857Y-158078714D01*
X150603857Y-158840714D02*
X150168428Y-158840714D01*
X150386142Y-158840714D02*
X150386142Y-158078714D01*
X150313571Y-158187571D01*
X150241000Y-158260142D01*
X150168428Y-158296428D01*
X108040714Y-140734142D02*
X108802714Y-140226142D01*
X108040714Y-140226142D02*
X108802714Y-140734142D01*
X108040714Y-140044714D02*
X108040714Y-139609285D01*
X108802714Y-139827000D02*
X108040714Y-139827000D01*
X108585000Y-139391571D02*
X108585000Y-139028714D01*
X108802714Y-139464142D02*
X108040714Y-139210142D01*
X108802714Y-138956142D01*
X108802714Y-138339285D02*
X108802714Y-138702142D01*
X108040714Y-138702142D01*
X108113285Y-138121571D02*
X108077000Y-138085285D01*
X108040714Y-138012714D01*
X108040714Y-137831285D01*
X108077000Y-137758714D01*
X108113285Y-137722428D01*
X108185857Y-137686142D01*
X108258428Y-137686142D01*
X108367285Y-137722428D01*
X108802714Y-138157857D01*
X108802714Y-137686142D01*
X147647266Y-156919024D02*
X147647266Y-156556167D01*
X147864980Y-156991596D02*
X147102980Y-156737596D01*
X147864980Y-156483596D01*
X147102980Y-156338453D02*
X147102980Y-155903024D01*
X147864980Y-156120739D02*
X147102980Y-156120739D01*
X147864980Y-155649024D02*
X147356980Y-155649024D01*
X147429551Y-155649024D02*
X147393266Y-155612739D01*
X147356980Y-155540167D01*
X147356980Y-155431310D01*
X147393266Y-155358739D01*
X147465837Y-155322453D01*
X147864980Y-155322453D01*
X147465837Y-155322453D02*
X147393266Y-155286167D01*
X147356980Y-155213596D01*
X147356980Y-155104739D01*
X147393266Y-155032167D01*
X147465837Y-154995881D01*
X147864980Y-154995881D01*
X147828694Y-154342739D02*
X147864980Y-154415310D01*
X147864980Y-154560453D01*
X147828694Y-154633024D01*
X147756123Y-154669310D01*
X147465837Y-154669310D01*
X147393266Y-154633024D01*
X147356980Y-154560453D01*
X147356980Y-154415310D01*
X147393266Y-154342739D01*
X147465837Y-154306453D01*
X147538408Y-154306453D01*
X147610980Y-154669310D01*
X147356980Y-153653310D02*
X147973837Y-153653310D01*
X148046408Y-153689596D01*
X148082694Y-153725881D01*
X148118980Y-153798453D01*
X148118980Y-153907310D01*
X148082694Y-153979881D01*
X147828694Y-153653310D02*
X147864980Y-153725881D01*
X147864980Y-153871024D01*
X147828694Y-153943596D01*
X147792408Y-153979881D01*
X147719837Y-154016167D01*
X147502123Y-154016167D01*
X147429551Y-153979881D01*
X147393266Y-153943596D01*
X147356980Y-153871024D01*
X147356980Y-153725881D01*
X147393266Y-153653310D01*
X147864980Y-152963881D02*
X147465837Y-152963881D01*
X147393266Y-153000167D01*
X147356980Y-153072739D01*
X147356980Y-153217881D01*
X147393266Y-153290453D01*
X147828694Y-152963881D02*
X147864980Y-153036453D01*
X147864980Y-153217881D01*
X147828694Y-153290453D01*
X147756123Y-153326739D01*
X147683551Y-153326739D01*
X147610980Y-153290453D01*
X147574694Y-153217881D01*
X147574694Y-153036453D01*
X147538408Y-152963881D01*
X147864980Y-152201881D02*
X147864980Y-152637310D01*
X147864980Y-152419596D02*
X147102980Y-152419596D01*
X147211837Y-152492167D01*
X147284408Y-152564739D01*
X147320694Y-152637310D01*
X147102980Y-151548739D02*
X147102980Y-151693881D01*
X147139266Y-151766453D01*
X147175551Y-151802739D01*
X147284408Y-151875310D01*
X147429551Y-151911596D01*
X147719837Y-151911596D01*
X147792408Y-151875310D01*
X147828694Y-151839024D01*
X147864980Y-151766453D01*
X147864980Y-151621310D01*
X147828694Y-151548739D01*
X147792408Y-151512453D01*
X147719837Y-151476167D01*
X147538408Y-151476167D01*
X147465837Y-151512453D01*
X147429551Y-151548739D01*
X147393266Y-151621310D01*
X147393266Y-151766453D01*
X147429551Y-151839024D01*
X147465837Y-151875310D01*
X147538408Y-151911596D01*
X147864980Y-151149596D02*
X147356980Y-151149596D01*
X147429551Y-151149596D02*
X147393266Y-151113310D01*
X147356980Y-151040739D01*
X147356980Y-150931881D01*
X147393266Y-150859310D01*
X147465837Y-150823024D01*
X147864980Y-150823024D01*
X147465837Y-150823024D02*
X147393266Y-150786739D01*
X147356980Y-150714167D01*
X147356980Y-150605310D01*
X147393266Y-150532739D01*
X147465837Y-150496453D01*
X147864980Y-150496453D01*
X147864980Y-149734453D02*
X147864980Y-150169881D01*
X147864980Y-149952167D02*
X147102980Y-149952167D01*
X147211837Y-150024739D01*
X147284408Y-150097310D01*
X147320694Y-150169881D01*
X115380501Y-143623981D02*
X115743358Y-143623981D01*
X115307930Y-143841695D02*
X115561930Y-143079695D01*
X115815930Y-143841695D01*
X115961072Y-143079695D02*
X116396501Y-143079695D01*
X116178787Y-143841695D02*
X116178787Y-143079695D01*
X116650501Y-143841695D02*
X116650501Y-143333695D01*
X116650501Y-143406266D02*
X116686787Y-143369981D01*
X116759358Y-143333695D01*
X116868215Y-143333695D01*
X116940787Y-143369981D01*
X116977072Y-143442552D01*
X116977072Y-143841695D01*
X116977072Y-143442552D02*
X117013358Y-143369981D01*
X117085930Y-143333695D01*
X117194787Y-143333695D01*
X117267358Y-143369981D01*
X117303644Y-143442552D01*
X117303644Y-143841695D01*
X117956787Y-143805409D02*
X117884215Y-143841695D01*
X117739072Y-143841695D01*
X117666501Y-143805409D01*
X117630215Y-143732838D01*
X117630215Y-143442552D01*
X117666501Y-143369981D01*
X117739072Y-143333695D01*
X117884215Y-143333695D01*
X117956787Y-143369981D01*
X117993072Y-143442552D01*
X117993072Y-143515123D01*
X117630215Y-143587695D01*
X118646215Y-143333695D02*
X118646215Y-143950552D01*
X118609930Y-144023123D01*
X118573644Y-144059409D01*
X118501072Y-144095695D01*
X118392215Y-144095695D01*
X118319644Y-144059409D01*
X118646215Y-143805409D02*
X118573644Y-143841695D01*
X118428501Y-143841695D01*
X118355930Y-143805409D01*
X118319644Y-143769123D01*
X118283358Y-143696552D01*
X118283358Y-143478838D01*
X118319644Y-143406266D01*
X118355930Y-143369981D01*
X118428501Y-143333695D01*
X118573644Y-143333695D01*
X118646215Y-143369981D01*
X119335644Y-143841695D02*
X119335644Y-143442552D01*
X119299358Y-143369981D01*
X119226787Y-143333695D01*
X119081644Y-143333695D01*
X119009072Y-143369981D01*
X119335644Y-143805409D02*
X119263072Y-143841695D01*
X119081644Y-143841695D01*
X119009072Y-143805409D01*
X118972787Y-143732838D01*
X118972787Y-143660266D01*
X119009072Y-143587695D01*
X119081644Y-143551409D01*
X119263072Y-143551409D01*
X119335644Y-143515123D01*
X119625930Y-143079695D02*
X120097644Y-143079695D01*
X119843644Y-143369981D01*
X119952501Y-143369981D01*
X120025072Y-143406266D01*
X120061358Y-143442552D01*
X120097644Y-143515123D01*
X120097644Y-143696552D01*
X120061358Y-143769123D01*
X120025072Y-143805409D01*
X119952501Y-143841695D01*
X119734787Y-143841695D01*
X119662215Y-143805409D01*
X119625930Y-143769123D01*
X120387930Y-143152266D02*
X120424215Y-143115981D01*
X120496787Y-143079695D01*
X120678215Y-143079695D01*
X120750787Y-143115981D01*
X120787072Y-143152266D01*
X120823358Y-143224838D01*
X120823358Y-143297409D01*
X120787072Y-143406266D01*
X120351644Y-143841695D01*
X120823358Y-143841695D01*
X121258787Y-143406266D02*
X121186215Y-143369981D01*
X121149930Y-143333695D01*
X121113644Y-143261123D01*
X121113644Y-143224838D01*
X121149930Y-143152266D01*
X121186215Y-143115981D01*
X121258787Y-143079695D01*
X121403930Y-143079695D01*
X121476501Y-143115981D01*
X121512787Y-143152266D01*
X121549072Y-143224838D01*
X121549072Y-143261123D01*
X121512787Y-143333695D01*
X121476501Y-143369981D01*
X121403930Y-143406266D01*
X121258787Y-143406266D01*
X121186215Y-143442552D01*
X121149930Y-143478838D01*
X121113644Y-143551409D01*
X121113644Y-143696552D01*
X121149930Y-143769123D01*
X121186215Y-143805409D01*
X121258787Y-143841695D01*
X121403930Y-143841695D01*
X121476501Y-143805409D01*
X121512787Y-143769123D01*
X121549072Y-143696552D01*
X121549072Y-143551409D01*
X121512787Y-143478838D01*
X121476501Y-143442552D01*
X121403930Y-143406266D01*
X121875644Y-143333695D02*
X121875644Y-144095695D01*
X121875644Y-143369981D02*
X121948215Y-143333695D01*
X122093358Y-143333695D01*
X122165930Y-143369981D01*
X122202215Y-143406266D01*
X122238501Y-143478838D01*
X122238501Y-143696552D01*
X122202215Y-143769123D01*
X122165930Y-143805409D01*
X122093358Y-143841695D01*
X121948215Y-143841695D01*
X121875644Y-143805409D01*
X122565072Y-143551409D02*
X123145644Y-143551409D01*
X123472215Y-143623981D02*
X123835072Y-143623981D01*
X123399644Y-143841695D02*
X123653644Y-143079695D01*
X123907644Y-143841695D01*
X124161644Y-143079695D02*
X124161644Y-143696552D01*
X124197930Y-143769123D01*
X124234215Y-143805409D01*
X124306787Y-143841695D01*
X124451930Y-143841695D01*
X124524501Y-143805409D01*
X124560787Y-143769123D01*
X124597072Y-143696552D01*
X124597072Y-143079695D01*
X113236370Y-160094070D02*
X112474486Y-160107369D01*
X112471319Y-159925968D01*
X112505700Y-159816494D01*
X112576994Y-159742668D01*
X112648921Y-159705121D01*
X112793408Y-159666307D01*
X112902249Y-159664408D01*
X113048003Y-159698155D01*
X113121196Y-159733168D01*
X113195023Y-159804462D01*
X113233203Y-159912670D01*
X113236370Y-160094070D01*
X113223071Y-159332187D02*
X112461187Y-159345485D01*
X113215472Y-158896824D01*
X112453588Y-158910123D01*
X113209139Y-158534022D02*
X112447255Y-158547321D01*
X112442189Y-158257080D01*
X112477202Y-158183886D01*
X112512849Y-158146973D01*
X112584776Y-158109426D01*
X112693617Y-158107526D01*
X112766811Y-158142540D01*
X112803724Y-158178187D01*
X112841271Y-158250114D01*
X112846337Y-158540355D01*
X120072244Y-162633703D02*
X120035958Y-162669989D01*
X119927101Y-162706275D01*
X119854530Y-162706275D01*
X119745672Y-162669989D01*
X119673101Y-162597418D01*
X119636815Y-162524846D01*
X119600530Y-162379703D01*
X119600530Y-162270846D01*
X119636815Y-162125703D01*
X119673101Y-162053132D01*
X119745672Y-161980561D01*
X119854530Y-161944275D01*
X119927101Y-161944275D01*
X120035958Y-161980561D01*
X120072244Y-162016846D01*
X120362530Y-162488561D02*
X120725387Y-162488561D01*
X120289958Y-162706275D02*
X120543958Y-161944275D01*
X120797958Y-162706275D01*
X121051958Y-162706275D02*
X121051958Y-161944275D01*
X121487387Y-162706275D01*
X121487387Y-161944275D01*
X122684815Y-162307132D02*
X122793672Y-162343418D01*
X122829958Y-162379703D01*
X122866244Y-162452275D01*
X122866244Y-162561132D01*
X122829958Y-162633703D01*
X122793672Y-162669989D01*
X122721101Y-162706275D01*
X122430815Y-162706275D01*
X122430815Y-161944275D01*
X122684815Y-161944275D01*
X122757387Y-161980561D01*
X122793672Y-162016846D01*
X122829958Y-162089418D01*
X122829958Y-162161989D01*
X122793672Y-162234561D01*
X122757387Y-162270846D01*
X122684815Y-162307132D01*
X122430815Y-162307132D01*
X123519387Y-162198275D02*
X123519387Y-162706275D01*
X123192815Y-162198275D02*
X123192815Y-162597418D01*
X123229101Y-162669989D01*
X123301672Y-162706275D01*
X123410530Y-162706275D01*
X123483101Y-162669989D01*
X123519387Y-162633703D01*
X123845958Y-162669989D02*
X123918530Y-162706275D01*
X124063672Y-162706275D01*
X124136244Y-162669989D01*
X124172530Y-162597418D01*
X124172530Y-162561132D01*
X124136244Y-162488561D01*
X124063672Y-162452275D01*
X123954815Y-162452275D01*
X123882244Y-162415989D01*
X123845958Y-162343418D01*
X123845958Y-162307132D01*
X123882244Y-162234561D01*
X123954815Y-162198275D01*
X124063672Y-162198275D01*
X124136244Y-162234561D01*
D12*
X86791767Y-149402629D02*
X86187005Y-149402629D01*
X86126529Y-150007391D01*
X86187005Y-149946915D01*
X86307957Y-149886439D01*
X86610338Y-149886439D01*
X86731291Y-149946915D01*
X86791767Y-150007391D01*
X86852243Y-150128344D01*
X86852243Y-150430725D01*
X86791767Y-150551677D01*
X86731291Y-150612153D01*
X86610338Y-150672629D01*
X86307957Y-150672629D01*
X86187005Y-150612153D01*
X86126529Y-150551677D01*
X87215100Y-149402629D02*
X87638433Y-150672629D01*
X88061767Y-149402629D01*
X86217243Y-152730029D02*
X85612481Y-152730029D01*
X85612481Y-151460029D01*
X86640576Y-152064791D02*
X87063910Y-152064791D01*
X87245338Y-152730029D02*
X86640576Y-152730029D01*
X86640576Y-151460029D01*
X87245338Y-151460029D01*
X87789624Y-152730029D02*
X87789624Y-151460029D01*
X88092005Y-151460029D01*
X88273433Y-151520506D01*
X88394386Y-151641458D01*
X88454862Y-151762410D01*
X88515338Y-152004315D01*
X88515338Y-152185744D01*
X88454862Y-152427648D01*
X88394386Y-152548601D01*
X88273433Y-152669553D01*
X88092005Y-152730029D01*
X87789624Y-152730029D01*
X106614443Y-155025271D02*
X106614443Y-155750985D01*
X106614443Y-155388128D02*
X105344443Y-155388128D01*
X105525872Y-155509080D01*
X105646824Y-155630033D01*
X105707300Y-155750985D01*
X105465396Y-154541461D02*
X105404920Y-154480985D01*
X105344443Y-154360033D01*
X105344443Y-154057652D01*
X105404920Y-153936700D01*
X105465396Y-153876223D01*
X105586348Y-153815747D01*
X105707300Y-153815747D01*
X105888729Y-153876223D01*
X106614443Y-154601938D01*
X106614443Y-153815747D01*
X105344443Y-153452890D02*
X106614443Y-153029557D01*
X105344443Y-152606223D01*
X106614443Y-150610509D02*
X106614443Y-151215271D01*
X105344443Y-151215271D01*
X105949205Y-150187176D02*
X105949205Y-149763842D01*
X106614443Y-149582414D02*
X106614443Y-150187176D01*
X105344443Y-150187176D01*
X105344443Y-149582414D01*
X106614443Y-149038128D02*
X105344443Y-149038128D01*
X105344443Y-148735747D01*
X105404920Y-148554319D01*
X105525872Y-148433366D01*
X105646824Y-148372890D01*
X105888729Y-148312414D01*
X106070158Y-148312414D01*
X106312062Y-148372890D01*
X106433015Y-148433366D01*
X106553967Y-148554319D01*
X106614443Y-148735747D01*
X106614443Y-149038128D01*
D13*
G04 #@! TO.C,U4*
X123583516Y-161391054D02*
X124983516Y-161391054D01*
X123583516Y-156291054D02*
X119433516Y-156291054D01*
X123583516Y-161441054D02*
X119433516Y-161441054D01*
X123583516Y-156291054D02*
X123583516Y-156436054D01*
X119433516Y-156291054D02*
X119433516Y-156436054D01*
X119433516Y-161441054D02*
X119433516Y-161296054D01*
X123583516Y-161441054D02*
X123583516Y-161391054D01*
D14*
G04 #@! TO.C,F1*
X99644594Y-145419499D02*
X99644594Y-143419499D01*
X102604594Y-143419499D02*
X102604594Y-145419499D01*
G04 #@! TO.C,U2*
X93233996Y-137619499D02*
X93233996Y-140069499D01*
X96453996Y-139419499D02*
X96453996Y-137619499D01*
G04 #@! TO.C,C3*
X99204099Y-139202001D02*
X99204099Y-137202001D01*
X97164099Y-137202001D02*
X97164099Y-139202001D01*
G04 #@! TO.C,D7*
X103835594Y-148997000D02*
X103835594Y-152172000D01*
X101168594Y-148997000D02*
X101168594Y-152172000D01*
X103835594Y-148997000D02*
X101168594Y-148997000D01*
D15*
X103202094Y-151672000D02*
X101502094Y-151672000D01*
X102402094Y-151672000D02*
X103202094Y-152772000D01*
X103202094Y-152772000D02*
X101502094Y-152772000D01*
X101502094Y-152772000D02*
X102402094Y-151672000D01*
D14*
G04 #@! TO.C,R9*
X97609097Y-153356996D02*
X92409097Y-153356996D01*
X92409097Y-149716996D02*
X97609097Y-149716996D01*
D13*
G04 #@! TO.C,J4*
X121469969Y-149689501D02*
X124009969Y-149689501D01*
X124009969Y-149689501D02*
X124009969Y-147149501D01*
X124289969Y-144329501D02*
X122739969Y-144329501D01*
X116389969Y-149689501D02*
X121469969Y-149689501D01*
X116389969Y-144609501D02*
X116389969Y-149689501D01*
X121469969Y-147149501D02*
X121469969Y-144609501D01*
X124009969Y-147149501D02*
X121469969Y-147149501D01*
X124289969Y-144329501D02*
X124289969Y-145879501D01*
X121469969Y-144609501D02*
X116389969Y-144609501D01*
G04 #@! TO.C,J5*
X106202030Y-157004700D02*
X103662030Y-157004700D01*
X103662030Y-157004700D02*
X103662030Y-159544700D01*
X103382030Y-162364700D02*
X104932030Y-162364700D01*
X111282030Y-157004700D02*
X106202030Y-157004700D01*
X111282030Y-162084700D02*
X111282030Y-157004700D01*
X106202030Y-159544700D02*
X106202030Y-162084700D01*
X103662030Y-159544700D02*
X106202030Y-159544700D01*
X103382030Y-162364700D02*
X103382030Y-160814700D01*
X106202030Y-162084700D02*
X111282030Y-162084700D01*
G04 #@! TO.C,U1*
X138081587Y-150096853D02*
X136656587Y-150096853D01*
X145331587Y-149871853D02*
X145006587Y-149871853D01*
X145331587Y-157121853D02*
X145006587Y-157121853D01*
X138081587Y-157121853D02*
X138406587Y-157121853D01*
X138081587Y-149871853D02*
X138406587Y-149871853D01*
X138081587Y-157121853D02*
X138081587Y-156796853D01*
X145331587Y-157121853D02*
X145331587Y-156796853D01*
X145331587Y-149871853D02*
X145331587Y-150196853D01*
X138081587Y-149871853D02*
X138081587Y-150096853D01*
D16*
X137540987Y-149102653D02*
G75*
G03X137540987Y-149102653I-50800J0D01*
G01*
X139090387Y-150855253D02*
G75*
G03X139090387Y-150855253I-50800J0D01*
G01*
D13*
G04 #@! TO.C,U3*
X116224449Y-134061941D02*
X114799449Y-134061941D01*
X123474449Y-133836941D02*
X123149449Y-133836941D01*
X123474449Y-141086941D02*
X123149449Y-141086941D01*
X116224449Y-141086941D02*
X116549449Y-141086941D01*
X116224449Y-133836941D02*
X116549449Y-133836941D01*
X116224449Y-141086941D02*
X116224449Y-140761941D01*
X123474449Y-141086941D02*
X123474449Y-140761941D01*
X123474449Y-133836941D02*
X123474449Y-134161941D01*
X116224449Y-133836941D02*
X116224449Y-134061941D01*
D16*
X115683849Y-133067741D02*
G75*
G03X115683849Y-133067741I-50800J0D01*
G01*
X117233249Y-134820341D02*
G75*
G03X117233249Y-134820341I-50800J0D01*
G01*
D17*
G04 #@! TO.C,Y1*
X113125000Y-140665000D02*
X113125000Y-139065000D01*
X113125000Y-140665000D02*
X111125000Y-140665000D01*
G04 #@! TO.C,Y2*
X144373812Y-162832579D02*
X144373812Y-161232579D01*
X144373812Y-162832579D02*
X142373812Y-162832579D01*
D14*
G04 #@! TO.C,C5*
X92684101Y-137685998D02*
X92684101Y-136685998D01*
X90984101Y-136685998D02*
X90984101Y-137685998D01*
G04 #@! TO.C,C11*
X87524096Y-146671998D02*
X88524096Y-146671998D01*
X88524096Y-144971998D02*
X87524096Y-144971998D01*
G04 #@! TO.C,C12*
X87524098Y-144385998D02*
X88524098Y-144385998D01*
X88524098Y-142685998D02*
X87524098Y-142685998D01*
D17*
G04 #@! TO.C,D2*
X92142098Y-155061999D02*
X92142098Y-154711999D01*
X92142098Y-154711999D02*
X92142098Y-154361999D01*
X92492098Y-155061999D02*
X92142098Y-154711999D01*
X92492098Y-155011999D02*
X92492098Y-155061999D01*
X92492098Y-155061999D02*
X92492098Y-155011999D01*
X92492098Y-154361999D02*
X92492098Y-155011999D01*
X92442098Y-154411999D02*
X92492098Y-154361999D01*
X92142098Y-154711999D02*
X92442098Y-154411999D01*
D14*
X90542098Y-154011999D02*
X90542098Y-155411999D01*
X90542098Y-155411999D02*
X93342098Y-155411999D01*
X90542098Y-154011999D02*
X93342098Y-154011999D01*
G04 #@! TO.C,R2*
X104880098Y-142892002D02*
X103680098Y-142892002D01*
X103680098Y-141132002D02*
X104880098Y-141132002D01*
G04 #@! TO.C,R3*
X104880096Y-140859997D02*
X103680096Y-140859997D01*
X103680096Y-139099997D02*
X104880096Y-139099997D01*
G04 #@! TO.C,R12*
X95806096Y-153832001D02*
X97006096Y-153832001D01*
X97006096Y-155592001D02*
X95806096Y-155592001D01*
G04 #@! TO.C,C7*
X87524099Y-148704000D02*
X88524099Y-148704000D01*
X88524099Y-147004000D02*
X87524099Y-147004000D01*
D17*
G04 #@! TO.C,D1*
X105392095Y-145767996D02*
X105042095Y-145767996D01*
X105042095Y-145767996D02*
X104692095Y-145767996D01*
X105392095Y-145417996D02*
X105042095Y-145767996D01*
X105342095Y-145417996D02*
X105392095Y-145417996D01*
X105392095Y-145417996D02*
X105342095Y-145417996D01*
X104692095Y-145417996D02*
X105342095Y-145417996D01*
X104742095Y-145467996D02*
X104692095Y-145417996D01*
X105042095Y-145767996D02*
X104742095Y-145467996D01*
D14*
X104342095Y-147367996D02*
X105742095Y-147367996D01*
X105742095Y-147367996D02*
X105742095Y-144567996D01*
X104342095Y-147367996D02*
X104342095Y-144567996D01*
G04 #@! TO.C,R4*
X97260095Y-135780001D02*
X96060095Y-135780001D01*
X96060095Y-134020001D02*
X97260095Y-134020001D01*
G04 #@! TO.C,R5*
X87652094Y-137532001D02*
X87652094Y-136332001D01*
X89412094Y-136332001D02*
X89412094Y-137532001D01*
G04 #@! TO.C,C1*
X130642290Y-157943601D02*
X131642290Y-157943601D01*
X131642290Y-156243601D02*
X130642290Y-156243601D01*
G04 #@! TO.C,C2*
X149567000Y-152773000D02*
X149567000Y-151773000D01*
X147867000Y-151773000D02*
X147867000Y-152773000D01*
G04 #@! TO.C,C4*
X112991000Y-135501000D02*
X112991000Y-134501000D01*
X111291000Y-134501000D02*
X111291000Y-135501000D01*
G04 #@! TO.C,C6*
X146397961Y-137071969D02*
X147105068Y-136364862D01*
X145902987Y-135162781D02*
X145195880Y-135869888D01*
G04 #@! TO.C,C8*
X148926167Y-138056144D02*
X148219060Y-138763251D01*
X149421141Y-139965332D02*
X150128248Y-139258225D01*
G04 #@! TO.C,C9*
X109367560Y-135486618D02*
X108367560Y-135486618D01*
X108367560Y-137186618D02*
X109367560Y-137186618D01*
G04 #@! TO.C,C10*
X109339000Y-133389000D02*
X108339000Y-133389000D01*
X108339000Y-135089000D02*
X109339000Y-135089000D01*
G04 #@! TO.C,C13*
X144921154Y-160623336D02*
X144921154Y-161623336D01*
X146621154Y-161623336D02*
X146621154Y-160623336D01*
G04 #@! TO.C,C14*
X150075000Y-161536000D02*
X150075000Y-160536000D01*
X148375000Y-160536000D02*
X148375000Y-161536000D01*
G04 #@! TO.C,C15*
X125855359Y-157654855D02*
X125855359Y-158654855D01*
X127555359Y-158654855D02*
X127555359Y-157654855D01*
G04 #@! TO.C,PB1*
X107378077Y-143651081D02*
X110178077Y-143651081D01*
X107378077Y-145051081D02*
X110178077Y-145051081D01*
X107378077Y-143651081D02*
X107378077Y-145051081D01*
D17*
X108978078Y-144351081D02*
X109278077Y-144051081D01*
X109278077Y-144051081D02*
X109328077Y-144001082D01*
X109328077Y-144001082D02*
X109328077Y-144651081D01*
X109328077Y-144701080D02*
X109328077Y-144651081D01*
X109328077Y-144651081D02*
X109328077Y-144701080D01*
X109328077Y-144701080D02*
X108978078Y-144351081D01*
X108978078Y-144351081D02*
X108978077Y-144001081D01*
X108978077Y-144701081D02*
X108978078Y-144351081D01*
G04 #@! TO.C,PB0*
X108978079Y-146870713D02*
X108978080Y-146520713D01*
X108978080Y-146520713D02*
X108978079Y-146170713D01*
X109328079Y-146870712D02*
X108978080Y-146520713D01*
X109328079Y-146820713D02*
X109328079Y-146870712D01*
X109328079Y-146870712D02*
X109328079Y-146820713D01*
X109328079Y-146170714D02*
X109328079Y-146820713D01*
X109278079Y-146220713D02*
X109328079Y-146170714D01*
X108978080Y-146520713D02*
X109278079Y-146220713D01*
D14*
X107378079Y-145820713D02*
X107378079Y-147220713D01*
X107378079Y-147220713D02*
X110178079Y-147220713D01*
X107378079Y-145820713D02*
X110178079Y-145820713D01*
G04 #@! TO.C,PB5*
X139721121Y-138762847D02*
X139721121Y-141562847D01*
X138321121Y-138762847D02*
X138321121Y-141562847D01*
X139721121Y-138762847D02*
X138321121Y-138762847D01*
D17*
X139021121Y-140362848D02*
X139321121Y-140662847D01*
X139321121Y-140662847D02*
X139371120Y-140712847D01*
X139371120Y-140712847D02*
X138721121Y-140712847D01*
X138671122Y-140712847D02*
X138721121Y-140712847D01*
X138721121Y-140712847D02*
X138671122Y-140712847D01*
X138671122Y-140712847D02*
X139021121Y-140362848D01*
X139021121Y-140362848D02*
X139371121Y-140362847D01*
X138671121Y-140362847D02*
X139021121Y-140362848D01*
G04 #@! TO.C,PB6*
X136465571Y-140323332D02*
X136815571Y-140323333D01*
X136815571Y-140323333D02*
X137165571Y-140323332D01*
X136465572Y-140673332D02*
X136815571Y-140323333D01*
X136515571Y-140673332D02*
X136465572Y-140673332D01*
X136465572Y-140673332D02*
X136515571Y-140673332D01*
X137165570Y-140673332D02*
X136515571Y-140673332D01*
X137115571Y-140623332D02*
X137165570Y-140673332D01*
X136815571Y-140323333D02*
X137115571Y-140623332D01*
D14*
X137515571Y-138723332D02*
X136115571Y-138723332D01*
X136115571Y-138723332D02*
X136115571Y-141523332D01*
X137515571Y-138723332D02*
X137515571Y-141523332D01*
G04 #@! TO.C,PB7*
X135426762Y-138725130D02*
X135426762Y-141525130D01*
X134026762Y-138725130D02*
X134026762Y-141525130D01*
X135426762Y-138725130D02*
X134026762Y-138725130D01*
D17*
X134726762Y-140325131D02*
X135026762Y-140625130D01*
X135026762Y-140625130D02*
X135076761Y-140675130D01*
X135076761Y-140675130D02*
X134426762Y-140675130D01*
X134376763Y-140675130D02*
X134426762Y-140675130D01*
X134426762Y-140675130D02*
X134376763Y-140675130D01*
X134376763Y-140675130D02*
X134726762Y-140325131D01*
X134726762Y-140325131D02*
X135076762Y-140325130D01*
X134376762Y-140325130D02*
X134726762Y-140325131D01*
D14*
G04 #@! TO.C,R1*
X136104713Y-160078577D02*
X136104713Y-161278577D01*
X134344713Y-161278577D02*
X134344713Y-160078577D01*
G04 #@! TO.C,R6*
X136435315Y-161235473D02*
X136435315Y-160035473D01*
X138195315Y-160035473D02*
X138195315Y-161235473D01*
G04 #@! TO.C,R7*
X130928000Y-138586038D02*
X130928000Y-139786038D01*
X129168000Y-139786038D02*
X129168000Y-138586038D01*
G04 #@! TO.C,R8*
X112613804Y-143548313D02*
X113813804Y-143548313D01*
X113813804Y-145308313D02*
X112613804Y-145308313D01*
G04 #@! TO.C,R10*
X146619286Y-143539034D02*
X146619286Y-144739034D01*
X144859286Y-144739034D02*
X144859286Y-143539034D01*
G04 #@! TO.C,R11*
X113824581Y-147416878D02*
X112624581Y-147416878D01*
X112624581Y-145656878D02*
X113824581Y-145656878D01*
G04 #@! TO.C,R13*
X144402959Y-143542624D02*
X144402959Y-144742624D01*
X142642959Y-144742624D02*
X142642959Y-143542624D01*
G04 #@! TO.C,R14*
X138085582Y-144960982D02*
X138085582Y-143760982D01*
X139845582Y-143760982D02*
X139845582Y-144960982D01*
G04 #@! TO.C,R15*
X137704434Y-143773220D02*
X137704434Y-144973220D01*
X135944434Y-144973220D02*
X135944434Y-143773220D01*
G04 #@! TO.C,R16*
X135596128Y-143750206D02*
X135596128Y-144950206D01*
X133836128Y-144950206D02*
X133836128Y-143750206D01*
G04 #@! TO.C,R17*
X148665111Y-137798723D02*
X147816583Y-138647251D01*
X146572075Y-137402743D02*
X147420603Y-136554215D01*
G04 #@! TO.C,R18*
X149635315Y-140237385D02*
X150483843Y-139388857D01*
X151728351Y-140633365D02*
X150879823Y-141481893D01*
G04 #@! TO.C,R19*
X140415855Y-144735442D02*
X140415855Y-143535442D01*
X142175855Y-143535442D02*
X142175855Y-144735442D01*
G04 #@! TO.C,R20*
X107096000Y-130692000D02*
X108296000Y-130692000D01*
X108296000Y-132452000D02*
X107096000Y-132452000D01*
G04 #@! TO.C,R21*
X130599891Y-143498960D02*
X130599891Y-144698960D01*
X128839891Y-144698960D02*
X128839891Y-143498960D01*
G04 #@! TO.C,R22*
X116945297Y-158461633D02*
X116945297Y-159661633D01*
X115185297Y-159661633D02*
X115185297Y-158461633D01*
D17*
G04 #@! TO.C,D9*
X152268962Y-154215382D02*
X152268962Y-154565382D01*
X152268962Y-154565382D02*
X152268962Y-154915382D01*
X151918962Y-154215382D02*
X152268962Y-154565382D01*
X151918962Y-154265382D02*
X151918962Y-154215382D01*
X151918962Y-154215382D02*
X151918962Y-154265382D01*
X151918962Y-154915382D02*
X151918962Y-154265382D01*
X151968962Y-154865382D02*
X151918962Y-154915382D01*
X152268962Y-154565382D02*
X151968962Y-154865382D01*
D14*
X153868962Y-155265382D02*
X153868962Y-153865382D01*
X153868962Y-153865382D02*
X151068962Y-153865382D01*
X153868962Y-155265382D02*
X151068962Y-155265382D01*
G04 #@! TO.C,Q1*
X153521962Y-146185382D02*
X152591962Y-146185382D01*
X150361962Y-146185382D02*
X151291962Y-146185382D01*
X150361962Y-146185382D02*
X150361962Y-148345382D01*
X153521962Y-146185382D02*
X153521962Y-147645382D01*
G04 #@! TO.C,R23*
X152541961Y-153159382D02*
X151341961Y-153159382D01*
X151341961Y-151399382D02*
X152541961Y-151399382D01*
G04 #@! TO.C,R24*
X151341961Y-149113382D02*
X152541961Y-149113382D01*
X152541961Y-150873382D02*
X151341961Y-150873382D01*
G04 #@! TO.C,U4*
D13*
X125587404Y-160528701D02*
X125587404Y-161338225D01*
X125635023Y-161433463D01*
X125682642Y-161481082D01*
X125777880Y-161528701D01*
X125968356Y-161528701D01*
X126063594Y-161481082D01*
X126111213Y-161433463D01*
X126158832Y-161338225D01*
X126158832Y-160528701D01*
X127063594Y-160862035D02*
X127063594Y-161528701D01*
X126825499Y-160481082D02*
X126587404Y-161195368D01*
X127206451Y-161195368D01*
G04 #@! TO.C,F1*
X103332541Y-144861219D02*
X103332541Y-145194552D01*
X103856350Y-145194552D02*
X102856350Y-145194552D01*
X102856350Y-144718362D01*
X103856350Y-143813600D02*
X103856350Y-144385028D01*
X103856350Y-144099314D02*
X102856350Y-144099314D01*
X102999208Y-144194552D01*
X103094446Y-144289790D01*
X103142065Y-144385028D01*
G04 #@! TO.C,L1*
X99795429Y-148814380D02*
X99319238Y-148814380D01*
X99319238Y-147814380D01*
X100652572Y-148814380D02*
X100081143Y-148814380D01*
X100366857Y-148814380D02*
X100366857Y-147814380D01*
X100271619Y-147957238D01*
X100176381Y-148052476D01*
X100081143Y-148100095D01*
G04 #@! TO.C,U2*
X93358191Y-135114379D02*
X93358191Y-135923903D01*
X93405810Y-136019141D01*
X93453429Y-136066760D01*
X93548667Y-136114379D01*
X93739143Y-136114379D01*
X93834381Y-136066760D01*
X93882000Y-136019141D01*
X93929619Y-135923903D01*
X93929619Y-135114379D01*
X94358191Y-135209618D02*
X94405810Y-135161999D01*
X94501048Y-135114379D01*
X94739143Y-135114379D01*
X94834381Y-135161999D01*
X94882000Y-135209618D01*
X94929619Y-135304856D01*
X94929619Y-135400094D01*
X94882000Y-135542951D01*
X94310572Y-136114379D01*
X94929619Y-136114379D01*
G04 #@! TO.C,C3*
X100174068Y-139708510D02*
X100126449Y-139756129D01*
X99983592Y-139803748D01*
X99888354Y-139803748D01*
X99745496Y-139756129D01*
X99650258Y-139660891D01*
X99602639Y-139565653D01*
X99555020Y-139375177D01*
X99555020Y-139232320D01*
X99602639Y-139041844D01*
X99650258Y-138946606D01*
X99745496Y-138851368D01*
X99888354Y-138803748D01*
X99983592Y-138803748D01*
X100126449Y-138851368D01*
X100174068Y-138898987D01*
X100507401Y-138803748D02*
X101126449Y-138803748D01*
X100793115Y-139184701D01*
X100935973Y-139184701D01*
X101031211Y-139232320D01*
X101078830Y-139279939D01*
X101126449Y-139375177D01*
X101126449Y-139613272D01*
X101078830Y-139708510D01*
X101031211Y-139756129D01*
X100935973Y-139803748D01*
X100650258Y-139803748D01*
X100555020Y-139756129D01*
X100507401Y-139708510D01*
G04 #@! TO.C,D7*
X105204474Y-153210095D02*
X104204474Y-153210095D01*
X104204474Y-152972000D01*
X104252094Y-152829142D01*
X104347332Y-152733904D01*
X104442570Y-152686285D01*
X104633046Y-152638666D01*
X104775903Y-152638666D01*
X104966379Y-152686285D01*
X105061617Y-152733904D01*
X105156855Y-152829142D01*
X105204474Y-152972000D01*
X105204474Y-153210095D01*
X104204474Y-152305333D02*
X104204474Y-151638666D01*
X105204474Y-152067238D01*
G04 #@! TO.C,R9*
X90508477Y-151576662D02*
X90032287Y-151909996D01*
X90508477Y-152148091D02*
X89508477Y-152148091D01*
X89508477Y-151767138D01*
X89556097Y-151671900D01*
X89603716Y-151624281D01*
X89698954Y-151576662D01*
X89841811Y-151576662D01*
X89937049Y-151624281D01*
X89984668Y-151671900D01*
X90032287Y-151767138D01*
X90032287Y-152148091D01*
X90508477Y-151100472D02*
X90508477Y-150909996D01*
X90460858Y-150814757D01*
X90413239Y-150767138D01*
X90270382Y-150671900D01*
X90079906Y-150624281D01*
X89698954Y-150624281D01*
X89603716Y-150671900D01*
X89556097Y-150719519D01*
X89508477Y-150814757D01*
X89508477Y-151005234D01*
X89556097Y-151100472D01*
X89603716Y-151148091D01*
X89698954Y-151195710D01*
X89937049Y-151195710D01*
X90032287Y-151148091D01*
X90079906Y-151100472D01*
X90127525Y-151005234D01*
X90127525Y-150814757D01*
X90079906Y-150719519D01*
X90032287Y-150671900D01*
X89937049Y-150624281D01*
G04 #@! TO.C,J4*
X124681549Y-148557254D02*
X125395835Y-148557254D01*
X125538692Y-148604873D01*
X125633930Y-148700111D01*
X125681549Y-148842968D01*
X125681549Y-148938206D01*
X125014883Y-147652492D02*
X125681549Y-147652492D01*
X124633930Y-147890587D02*
X125348216Y-148128682D01*
X125348216Y-147509635D01*
G04 #@! TO.C,J5*
X101745350Y-158166073D02*
X102459636Y-158166073D01*
X102602493Y-158213692D01*
X102697731Y-158308930D01*
X102745350Y-158451787D01*
X102745350Y-158547025D01*
X101745350Y-157213692D02*
X101745350Y-157689882D01*
X102221541Y-157737501D01*
X102173922Y-157689882D01*
X102126303Y-157594644D01*
X102126303Y-157356549D01*
X102173922Y-157261311D01*
X102221541Y-157213692D01*
X102316779Y-157166073D01*
X102554874Y-157166073D01*
X102650112Y-157213692D01*
X102697731Y-157261311D01*
X102745350Y-157356549D01*
X102745350Y-157594644D01*
X102697731Y-157689882D01*
X102650112Y-157737501D01*
G04 #@! TO.C,U1*
X134971130Y-150014262D02*
X135780654Y-150014262D01*
X135875892Y-149966643D01*
X135923511Y-149919024D01*
X135971130Y-149823786D01*
X135971130Y-149633310D01*
X135923511Y-149538072D01*
X135875892Y-149490453D01*
X135780654Y-149442834D01*
X134971130Y-149442834D01*
X135971130Y-148442834D02*
X135971130Y-149014262D01*
X135971130Y-148728548D02*
X134971130Y-148728548D01*
X135113988Y-148823786D01*
X135209226Y-148919024D01*
X135256845Y-149014262D01*
G04 #@! TO.C,U3*
X113104229Y-134076025D02*
X113913753Y-134076025D01*
X114008991Y-134028406D01*
X114056610Y-133980787D01*
X114104229Y-133885549D01*
X114104229Y-133695073D01*
X114056610Y-133599835D01*
X114008991Y-133552216D01*
X113913753Y-133504597D01*
X113104229Y-133504597D01*
X113104229Y-133123644D02*
X113104229Y-132504597D01*
X113485182Y-132837930D01*
X113485182Y-132695073D01*
X113532801Y-132599835D01*
X113580420Y-132552216D01*
X113675658Y-132504597D01*
X113913753Y-132504597D01*
X114008991Y-132552216D01*
X114056610Y-132599835D01*
X114104229Y-132695073D01*
X114104229Y-132980787D01*
X114056610Y-133076025D01*
X114008991Y-133123644D01*
G04 #@! TO.C,Y1*
X110902809Y-141454190D02*
X110902809Y-141930380D01*
X110569476Y-140930380D02*
X110902809Y-141454190D01*
X111236142Y-140930380D01*
X112093285Y-141930380D02*
X111521857Y-141930380D01*
X111807571Y-141930380D02*
X111807571Y-140930380D01*
X111712333Y-141073238D01*
X111617095Y-141168476D01*
X111521857Y-141216095D01*
G04 #@! TO.C,Y2*
X138715809Y-162536190D02*
X138715809Y-163012380D01*
X138382476Y-162012380D02*
X138715809Y-162536190D01*
X139049142Y-162012380D01*
X139334857Y-162107619D02*
X139382476Y-162060000D01*
X139477714Y-162012380D01*
X139715809Y-162012380D01*
X139811047Y-162060000D01*
X139858666Y-162107619D01*
X139906285Y-162202857D01*
X139906285Y-162298095D01*
X139858666Y-162440952D01*
X139287238Y-163012380D01*
X139906285Y-163012380D01*
G04 #@! TO.C,C5*
X92191243Y-134304664D02*
X92238862Y-134352283D01*
X92286481Y-134495140D01*
X92286481Y-134590378D01*
X92238862Y-134733236D01*
X92143624Y-134828474D01*
X92048386Y-134876093D01*
X91857910Y-134923712D01*
X91715053Y-134923712D01*
X91524577Y-134876093D01*
X91429339Y-134828474D01*
X91334101Y-134733236D01*
X91286481Y-134590378D01*
X91286481Y-134495140D01*
X91334101Y-134352283D01*
X91381720Y-134304664D01*
X91286481Y-133399902D02*
X91286481Y-133876093D01*
X91762672Y-133923712D01*
X91715053Y-133876093D01*
X91667434Y-133780855D01*
X91667434Y-133542759D01*
X91715053Y-133447521D01*
X91762672Y-133399902D01*
X91857910Y-133352283D01*
X92096005Y-133352283D01*
X92191243Y-133399902D01*
X92238862Y-133447521D01*
X92286481Y-133542759D01*
X92286481Y-133780855D01*
X92238862Y-133876093D01*
X92191243Y-133923712D01*
G04 #@! TO.C,C11*
X83825238Y-146179140D02*
X83777619Y-146226759D01*
X83634762Y-146274378D01*
X83539524Y-146274378D01*
X83396667Y-146226759D01*
X83301429Y-146131521D01*
X83253810Y-146036283D01*
X83206191Y-145845807D01*
X83206191Y-145702950D01*
X83253810Y-145512474D01*
X83301429Y-145417236D01*
X83396667Y-145321998D01*
X83539524Y-145274378D01*
X83634762Y-145274378D01*
X83777619Y-145321998D01*
X83825238Y-145369617D01*
X84777619Y-146274378D02*
X84206191Y-146274378D01*
X84491905Y-146274378D02*
X84491905Y-145274378D01*
X84396667Y-145417236D01*
X84301429Y-145512474D01*
X84206191Y-145560093D01*
X85730000Y-146274378D02*
X85158572Y-146274378D01*
X85444286Y-146274378D02*
X85444286Y-145274378D01*
X85349048Y-145417236D01*
X85253810Y-145512474D01*
X85158572Y-145560093D01*
G04 #@! TO.C,C12*
X84079240Y-144147140D02*
X84031621Y-144194759D01*
X83888764Y-144242378D01*
X83793526Y-144242378D01*
X83650669Y-144194759D01*
X83555431Y-144099521D01*
X83507812Y-144004283D01*
X83460193Y-143813807D01*
X83460193Y-143670950D01*
X83507812Y-143480474D01*
X83555431Y-143385236D01*
X83650669Y-143289998D01*
X83793526Y-143242378D01*
X83888764Y-143242378D01*
X84031621Y-143289998D01*
X84079240Y-143337617D01*
X85031621Y-144242378D02*
X84460193Y-144242378D01*
X84745907Y-144242378D02*
X84745907Y-143242378D01*
X84650669Y-143385236D01*
X84555431Y-143480474D01*
X84460193Y-143528093D01*
X85412574Y-143337617D02*
X85460193Y-143289998D01*
X85555431Y-143242378D01*
X85793526Y-143242378D01*
X85888764Y-143289998D01*
X85936383Y-143337617D01*
X85984002Y-143432855D01*
X85984002Y-143528093D01*
X85936383Y-143670950D01*
X85364955Y-144242378D01*
X85984002Y-144242378D01*
G04 #@! TO.C,D2*
X89622193Y-155613941D02*
X88622193Y-155613941D01*
X88622193Y-155375846D01*
X88669813Y-155232988D01*
X88765051Y-155137750D01*
X88860289Y-155090131D01*
X89050765Y-155042512D01*
X89193622Y-155042512D01*
X89384098Y-155090131D01*
X89479336Y-155137750D01*
X89574574Y-155232988D01*
X89622193Y-155375846D01*
X89622193Y-155613941D01*
X88717432Y-154661560D02*
X88669813Y-154613941D01*
X88622193Y-154518703D01*
X88622193Y-154280607D01*
X88669813Y-154185369D01*
X88717432Y-154137750D01*
X88812670Y-154090131D01*
X88907908Y-154090131D01*
X89050765Y-154137750D01*
X89622193Y-154709179D01*
X89622193Y-154090131D01*
G04 #@! TO.C,R2*
X107005380Y-142025666D02*
X106529190Y-142359000D01*
X107005380Y-142597095D02*
X106005380Y-142597095D01*
X106005380Y-142216142D01*
X106053000Y-142120904D01*
X106100619Y-142073285D01*
X106195857Y-142025666D01*
X106338714Y-142025666D01*
X106433952Y-142073285D01*
X106481571Y-142120904D01*
X106529190Y-142216142D01*
X106529190Y-142597095D01*
X106100619Y-141644714D02*
X106053000Y-141597095D01*
X106005380Y-141501857D01*
X106005380Y-141263761D01*
X106053000Y-141168523D01*
X106100619Y-141120904D01*
X106195857Y-141073285D01*
X106291095Y-141073285D01*
X106433952Y-141120904D01*
X107005380Y-141692333D01*
X107005380Y-141073285D01*
G04 #@! TO.C,R3*
X104608333Y-138882380D02*
X104275000Y-138406190D01*
X104036904Y-138882380D02*
X104036904Y-137882380D01*
X104417857Y-137882380D01*
X104513095Y-137930000D01*
X104560714Y-137977619D01*
X104608333Y-138072857D01*
X104608333Y-138215714D01*
X104560714Y-138310952D01*
X104513095Y-138358571D01*
X104417857Y-138406190D01*
X104036904Y-138406190D01*
X104941666Y-137882380D02*
X105560714Y-137882380D01*
X105227380Y-138263333D01*
X105370238Y-138263333D01*
X105465476Y-138310952D01*
X105513095Y-138358571D01*
X105560714Y-138453809D01*
X105560714Y-138691904D01*
X105513095Y-138787142D01*
X105465476Y-138834761D01*
X105370238Y-138882380D01*
X105084523Y-138882380D01*
X104989285Y-138834761D01*
X104941666Y-138787142D01*
G04 #@! TO.C,R12*
X95763238Y-156814381D02*
X95429905Y-156338191D01*
X95191810Y-156814381D02*
X95191810Y-155814381D01*
X95572762Y-155814381D01*
X95668000Y-155862001D01*
X95715619Y-155909620D01*
X95763238Y-156004858D01*
X95763238Y-156147715D01*
X95715619Y-156242953D01*
X95668000Y-156290572D01*
X95572762Y-156338191D01*
X95191810Y-156338191D01*
X96715619Y-156814381D02*
X96144191Y-156814381D01*
X96429905Y-156814381D02*
X96429905Y-155814381D01*
X96334667Y-155957239D01*
X96239429Y-156052477D01*
X96144191Y-156100096D01*
X97096572Y-155909620D02*
X97144191Y-155862001D01*
X97239429Y-155814381D01*
X97477524Y-155814381D01*
X97572762Y-155862001D01*
X97620381Y-155909620D01*
X97668000Y-156004858D01*
X97668000Y-156100096D01*
X97620381Y-156242953D01*
X97048953Y-156814381D01*
X97668000Y-156814381D01*
G04 #@! TO.C,C7*
X84805432Y-148028142D02*
X84757813Y-148075761D01*
X84614956Y-148123380D01*
X84519718Y-148123380D01*
X84376860Y-148075761D01*
X84281622Y-147980523D01*
X84234003Y-147885285D01*
X84186384Y-147694809D01*
X84186384Y-147551952D01*
X84234003Y-147361476D01*
X84281622Y-147266238D01*
X84376860Y-147171000D01*
X84519718Y-147123380D01*
X84614956Y-147123380D01*
X84757813Y-147171000D01*
X84805432Y-147218619D01*
X85138765Y-147123380D02*
X85805432Y-147123380D01*
X85376860Y-148123380D01*
G04 #@! TO.C,D1*
X107081580Y-146254695D02*
X106081580Y-146254695D01*
X106081580Y-146016600D01*
X106129200Y-145873742D01*
X106224438Y-145778504D01*
X106319676Y-145730885D01*
X106510152Y-145683266D01*
X106653009Y-145683266D01*
X106843485Y-145730885D01*
X106938723Y-145778504D01*
X107033961Y-145873742D01*
X107081580Y-146016600D01*
X107081580Y-146254695D01*
X107081580Y-144730885D02*
X107081580Y-145302314D01*
X107081580Y-145016600D02*
X106081580Y-145016600D01*
X106224438Y-145111838D01*
X106319676Y-145207076D01*
X106367295Y-145302314D01*
G04 #@! TO.C,R4*
X96493428Y-133702381D02*
X96160095Y-133226191D01*
X95921999Y-133702381D02*
X95921999Y-132702381D01*
X96302952Y-132702381D01*
X96398190Y-132750001D01*
X96445809Y-132797620D01*
X96493428Y-132892858D01*
X96493428Y-133035715D01*
X96445809Y-133130953D01*
X96398190Y-133178572D01*
X96302952Y-133226191D01*
X95921999Y-133226191D01*
X97350571Y-133035715D02*
X97350571Y-133702381D01*
X97112475Y-132654762D02*
X96874380Y-133369048D01*
X97493428Y-133369048D01*
G04 #@! TO.C,R5*
X88984474Y-134304667D02*
X88508284Y-134638001D01*
X88984474Y-134876096D02*
X87984474Y-134876096D01*
X87984474Y-134495143D01*
X88032094Y-134399905D01*
X88079713Y-134352286D01*
X88174951Y-134304667D01*
X88317808Y-134304667D01*
X88413046Y-134352286D01*
X88460665Y-134399905D01*
X88508284Y-134495143D01*
X88508284Y-134876096D01*
X87984474Y-133399905D02*
X87984474Y-133876096D01*
X88460665Y-133923715D01*
X88413046Y-133876096D01*
X88365427Y-133780858D01*
X88365427Y-133542762D01*
X88413046Y-133447524D01*
X88460665Y-133399905D01*
X88555903Y-133352286D01*
X88793998Y-133352286D01*
X88889236Y-133399905D01*
X88936855Y-133447524D01*
X88984474Y-133542762D01*
X88984474Y-133780858D01*
X88936855Y-133876096D01*
X88889236Y-133923715D01*
G04 #@! TO.C,C1*
X130889263Y-159035703D02*
X130841644Y-159083322D01*
X130698787Y-159130941D01*
X130603549Y-159130941D01*
X130460691Y-159083322D01*
X130365453Y-158988084D01*
X130317834Y-158892846D01*
X130270215Y-158702370D01*
X130270215Y-158559513D01*
X130317834Y-158369037D01*
X130365453Y-158273799D01*
X130460691Y-158178561D01*
X130603549Y-158130941D01*
X130698787Y-158130941D01*
X130841644Y-158178561D01*
X130889263Y-158226180D01*
X131841644Y-159130941D02*
X131270215Y-159130941D01*
X131555930Y-159130941D02*
X131555930Y-158130941D01*
X131460691Y-158273799D01*
X131365453Y-158369037D01*
X131270215Y-158416656D01*
G04 #@! TO.C,C2*
X149027882Y-149304337D02*
X149075501Y-149351956D01*
X149123120Y-149494813D01*
X149123120Y-149590051D01*
X149075501Y-149732909D01*
X148980263Y-149828147D01*
X148885025Y-149875766D01*
X148694549Y-149923385D01*
X148551692Y-149923385D01*
X148361216Y-149875766D01*
X148265978Y-149828147D01*
X148170740Y-149732909D01*
X148123120Y-149590051D01*
X148123120Y-149494813D01*
X148170740Y-149351956D01*
X148218359Y-149304337D01*
X148218359Y-148923385D02*
X148170740Y-148875766D01*
X148123120Y-148780528D01*
X148123120Y-148542432D01*
X148170740Y-148447194D01*
X148218359Y-148399575D01*
X148313597Y-148351956D01*
X148408835Y-148351956D01*
X148551692Y-148399575D01*
X149123120Y-148971004D01*
X149123120Y-148351956D01*
G04 #@! TO.C,C4*
X112422392Y-132269845D02*
X112470011Y-132317464D01*
X112517630Y-132460321D01*
X112517630Y-132555559D01*
X112470011Y-132698417D01*
X112374773Y-132793655D01*
X112279535Y-132841274D01*
X112089059Y-132888893D01*
X111946202Y-132888893D01*
X111755726Y-132841274D01*
X111660488Y-132793655D01*
X111565250Y-132698417D01*
X111517630Y-132555559D01*
X111517630Y-132460321D01*
X111565250Y-132317464D01*
X111612869Y-132269845D01*
X111850964Y-131412702D02*
X112517630Y-131412702D01*
X111470011Y-131650798D02*
X112184297Y-131888893D01*
X112184297Y-131269845D01*
G04 #@! TO.C,C6*
X148296333Y-135104142D02*
X148248714Y-135151761D01*
X148105857Y-135199380D01*
X148010619Y-135199380D01*
X147867761Y-135151761D01*
X147772523Y-135056523D01*
X147724904Y-134961285D01*
X147677285Y-134770809D01*
X147677285Y-134627952D01*
X147724904Y-134437476D01*
X147772523Y-134342238D01*
X147867761Y-134247000D01*
X148010619Y-134199380D01*
X148105857Y-134199380D01*
X148248714Y-134247000D01*
X148296333Y-134294619D01*
X149153476Y-134199380D02*
X148963000Y-134199380D01*
X148867761Y-134247000D01*
X148820142Y-134294619D01*
X148724904Y-134437476D01*
X148677285Y-134627952D01*
X148677285Y-135008904D01*
X148724904Y-135104142D01*
X148772523Y-135151761D01*
X148867761Y-135199380D01*
X149058238Y-135199380D01*
X149153476Y-135151761D01*
X149201095Y-135104142D01*
X149248714Y-135008904D01*
X149248714Y-134770809D01*
X149201095Y-134675571D01*
X149153476Y-134627952D01*
X149058238Y-134580333D01*
X148867761Y-134580333D01*
X148772523Y-134627952D01*
X148724904Y-134675571D01*
X148677285Y-134770809D01*
G04 #@! TO.C,C8*
X151598333Y-137390142D02*
X151550714Y-137437761D01*
X151407857Y-137485380D01*
X151312619Y-137485380D01*
X151169761Y-137437761D01*
X151074523Y-137342523D01*
X151026904Y-137247285D01*
X150979285Y-137056809D01*
X150979285Y-136913952D01*
X151026904Y-136723476D01*
X151074523Y-136628238D01*
X151169761Y-136533000D01*
X151312619Y-136485380D01*
X151407857Y-136485380D01*
X151550714Y-136533000D01*
X151598333Y-136580619D01*
X152169761Y-136913952D02*
X152074523Y-136866333D01*
X152026904Y-136818714D01*
X151979285Y-136723476D01*
X151979285Y-136675857D01*
X152026904Y-136580619D01*
X152074523Y-136533000D01*
X152169761Y-136485380D01*
X152360238Y-136485380D01*
X152455476Y-136533000D01*
X152503095Y-136580619D01*
X152550714Y-136675857D01*
X152550714Y-136723476D01*
X152503095Y-136818714D01*
X152455476Y-136866333D01*
X152360238Y-136913952D01*
X152169761Y-136913952D01*
X152074523Y-136961571D01*
X152026904Y-137009190D01*
X151979285Y-137104428D01*
X151979285Y-137294904D01*
X152026904Y-137390142D01*
X152074523Y-137437761D01*
X152169761Y-137485380D01*
X152360238Y-137485380D01*
X152455476Y-137437761D01*
X152503095Y-137390142D01*
X152550714Y-137294904D01*
X152550714Y-137104428D01*
X152503095Y-137009190D01*
X152455476Y-136961571D01*
X152360238Y-136913952D01*
G04 #@! TO.C,C9*
X106783142Y-136437666D02*
X106830761Y-136485285D01*
X106878380Y-136628142D01*
X106878380Y-136723380D01*
X106830761Y-136866238D01*
X106735523Y-136961476D01*
X106640285Y-137009095D01*
X106449809Y-137056714D01*
X106306952Y-137056714D01*
X106116476Y-137009095D01*
X106021238Y-136961476D01*
X105926000Y-136866238D01*
X105878380Y-136723380D01*
X105878380Y-136628142D01*
X105926000Y-136485285D01*
X105973619Y-136437666D01*
X106878380Y-135961476D02*
X106878380Y-135771000D01*
X106830761Y-135675761D01*
X106783142Y-135628142D01*
X106640285Y-135532904D01*
X106449809Y-135485285D01*
X106068857Y-135485285D01*
X105973619Y-135532904D01*
X105926000Y-135580523D01*
X105878380Y-135675761D01*
X105878380Y-135866238D01*
X105926000Y-135961476D01*
X105973619Y-136009095D01*
X106068857Y-136056714D01*
X106306952Y-136056714D01*
X106402190Y-136009095D01*
X106449809Y-135961476D01*
X106497428Y-135866238D01*
X106497428Y-135675761D01*
X106449809Y-135580523D01*
X106402190Y-135532904D01*
X106306952Y-135485285D01*
G04 #@! TO.C,C10*
X106656142Y-134500857D02*
X106703761Y-134548476D01*
X106751380Y-134691333D01*
X106751380Y-134786571D01*
X106703761Y-134929428D01*
X106608523Y-135024666D01*
X106513285Y-135072285D01*
X106322809Y-135119904D01*
X106179952Y-135119904D01*
X105989476Y-135072285D01*
X105894238Y-135024666D01*
X105799000Y-134929428D01*
X105751380Y-134786571D01*
X105751380Y-134691333D01*
X105799000Y-134548476D01*
X105846619Y-134500857D01*
X106751380Y-133548476D02*
X106751380Y-134119904D01*
X106751380Y-133834190D02*
X105751380Y-133834190D01*
X105894238Y-133929428D01*
X105989476Y-134024666D01*
X106037095Y-134119904D01*
X105751380Y-132929428D02*
X105751380Y-132834190D01*
X105799000Y-132738952D01*
X105846619Y-132691333D01*
X105941857Y-132643714D01*
X106132333Y-132596095D01*
X106370428Y-132596095D01*
X106560904Y-132643714D01*
X106656142Y-132691333D01*
X106703761Y-132738952D01*
X106751380Y-132834190D01*
X106751380Y-132929428D01*
X106703761Y-133024666D01*
X106656142Y-133072285D01*
X106560904Y-133119904D01*
X106370428Y-133167523D01*
X106132333Y-133167523D01*
X105941857Y-133119904D01*
X105846619Y-133072285D01*
X105799000Y-133024666D01*
X105751380Y-132929428D01*
G04 #@! TO.C,C13*
X147932683Y-161712065D02*
X147980302Y-161759684D01*
X148027921Y-161902541D01*
X148027921Y-161997779D01*
X147980302Y-162140636D01*
X147885064Y-162235874D01*
X147789826Y-162283493D01*
X147599350Y-162331112D01*
X147456493Y-162331112D01*
X147266017Y-162283493D01*
X147170779Y-162235874D01*
X147075541Y-162140636D01*
X147027921Y-161997779D01*
X147027921Y-161902541D01*
X147075541Y-161759684D01*
X147123160Y-161712065D01*
X148027921Y-160759684D02*
X148027921Y-161331112D01*
X148027921Y-161045398D02*
X147027921Y-161045398D01*
X147170779Y-161140636D01*
X147266017Y-161235874D01*
X147313636Y-161331112D01*
X147027921Y-160426350D02*
X147027921Y-159807303D01*
X147408874Y-160140636D01*
X147408874Y-159997779D01*
X147456493Y-159902541D01*
X147504112Y-159854922D01*
X147599350Y-159807303D01*
X147837445Y-159807303D01*
X147932683Y-159854922D01*
X147980302Y-159902541D01*
X148027921Y-159997779D01*
X148027921Y-160283493D01*
X147980302Y-160378731D01*
X147932683Y-160426350D01*
G04 #@! TO.C,C14*
X151416323Y-161756885D02*
X151463942Y-161804504D01*
X151511561Y-161947361D01*
X151511561Y-162042599D01*
X151463942Y-162185456D01*
X151368704Y-162280694D01*
X151273466Y-162328313D01*
X151082990Y-162375932D01*
X150940133Y-162375932D01*
X150749657Y-162328313D01*
X150654419Y-162280694D01*
X150559181Y-162185456D01*
X150511561Y-162042599D01*
X150511561Y-161947361D01*
X150559181Y-161804504D01*
X150606800Y-161756885D01*
X151511561Y-160804504D02*
X151511561Y-161375932D01*
X151511561Y-161090218D02*
X150511561Y-161090218D01*
X150654419Y-161185456D01*
X150749657Y-161280694D01*
X150797276Y-161375932D01*
X150844895Y-159947361D02*
X151511561Y-159947361D01*
X150463942Y-160185456D02*
X151178228Y-160423551D01*
X151178228Y-159804504D01*
G04 #@! TO.C,C15*
X128918793Y-158716898D02*
X128966412Y-158764517D01*
X129014031Y-158907374D01*
X129014031Y-159002612D01*
X128966412Y-159145469D01*
X128871174Y-159240707D01*
X128775936Y-159288326D01*
X128585460Y-159335945D01*
X128442603Y-159335945D01*
X128252127Y-159288326D01*
X128156889Y-159240707D01*
X128061651Y-159145469D01*
X128014031Y-159002612D01*
X128014031Y-158907374D01*
X128061651Y-158764517D01*
X128109270Y-158716898D01*
X129014031Y-157764517D02*
X129014031Y-158335945D01*
X129014031Y-158050231D02*
X128014031Y-158050231D01*
X128156889Y-158145469D01*
X128252127Y-158240707D01*
X128299746Y-158335945D01*
X128014031Y-156859755D02*
X128014031Y-157335945D01*
X128490222Y-157383564D01*
X128442603Y-157335945D01*
X128394984Y-157240707D01*
X128394984Y-157002612D01*
X128442603Y-156907374D01*
X128490222Y-156859755D01*
X128585460Y-156812136D01*
X128823555Y-156812136D01*
X128918793Y-156859755D01*
X128966412Y-156907374D01*
X129014031Y-157002612D01*
X129014031Y-157240707D01*
X128966412Y-157335945D01*
X128918793Y-157383564D01*
G04 #@! TO.C,PB1*
X107928564Y-143147040D02*
X107928564Y-142147040D01*
X108309517Y-142147040D01*
X108404755Y-142194660D01*
X108452374Y-142242279D01*
X108499993Y-142337517D01*
X108499993Y-142480374D01*
X108452374Y-142575612D01*
X108404755Y-142623231D01*
X108309517Y-142670850D01*
X107928564Y-142670850D01*
X109261898Y-142623231D02*
X109404755Y-142670850D01*
X109452374Y-142718469D01*
X109499993Y-142813707D01*
X109499993Y-142956564D01*
X109452374Y-143051802D01*
X109404755Y-143099421D01*
X109309517Y-143147040D01*
X108928564Y-143147040D01*
X108928564Y-142147040D01*
X109261898Y-142147040D01*
X109357136Y-142194660D01*
X109404755Y-142242279D01*
X109452374Y-142337517D01*
X109452374Y-142432755D01*
X109404755Y-142527993D01*
X109357136Y-142575612D01*
X109261898Y-142623231D01*
X108928564Y-142623231D01*
X110452374Y-143147040D02*
X109880945Y-143147040D01*
X110166660Y-143147040D02*
X110166660Y-142147040D01*
X110071421Y-142289898D01*
X109976183Y-142385136D01*
X109880945Y-142432755D01*
G04 #@! TO.C,PB0*
X107928564Y-148798540D02*
X107928564Y-147798540D01*
X108309517Y-147798540D01*
X108404755Y-147846160D01*
X108452374Y-147893779D01*
X108499993Y-147989017D01*
X108499993Y-148131874D01*
X108452374Y-148227112D01*
X108404755Y-148274731D01*
X108309517Y-148322350D01*
X107928564Y-148322350D01*
X109261898Y-148274731D02*
X109404755Y-148322350D01*
X109452374Y-148369969D01*
X109499993Y-148465207D01*
X109499993Y-148608064D01*
X109452374Y-148703302D01*
X109404755Y-148750921D01*
X109309517Y-148798540D01*
X108928564Y-148798540D01*
X108928564Y-147798540D01*
X109261898Y-147798540D01*
X109357136Y-147846160D01*
X109404755Y-147893779D01*
X109452374Y-147989017D01*
X109452374Y-148084255D01*
X109404755Y-148179493D01*
X109357136Y-148227112D01*
X109261898Y-148274731D01*
X108928564Y-148274731D01*
X110119040Y-147798540D02*
X110214279Y-147798540D01*
X110309517Y-147846160D01*
X110357136Y-147893779D01*
X110404755Y-147989017D01*
X110452374Y-148179493D01*
X110452374Y-148417588D01*
X110404755Y-148608064D01*
X110357136Y-148703302D01*
X110309517Y-148750921D01*
X110214279Y-148798540D01*
X110119040Y-148798540D01*
X110023802Y-148750921D01*
X109976183Y-148703302D01*
X109928564Y-148608064D01*
X109880945Y-148417588D01*
X109880945Y-148179493D01*
X109928564Y-147989017D01*
X109976183Y-147893779D01*
X110023802Y-147846160D01*
X110119040Y-147798540D01*
G04 #@! TO.C,PB5*
X139517380Y-137890095D02*
X138517380Y-137890095D01*
X138517380Y-137509142D01*
X138565000Y-137413904D01*
X138612619Y-137366285D01*
X138707857Y-137318666D01*
X138850714Y-137318666D01*
X138945952Y-137366285D01*
X138993571Y-137413904D01*
X139041190Y-137509142D01*
X139041190Y-137890095D01*
X138993571Y-136556761D02*
X139041190Y-136413904D01*
X139088809Y-136366285D01*
X139184047Y-136318666D01*
X139326904Y-136318666D01*
X139422142Y-136366285D01*
X139469761Y-136413904D01*
X139517380Y-136509142D01*
X139517380Y-136890095D01*
X138517380Y-136890095D01*
X138517380Y-136556761D01*
X138565000Y-136461523D01*
X138612619Y-136413904D01*
X138707857Y-136366285D01*
X138803095Y-136366285D01*
X138898333Y-136413904D01*
X138945952Y-136461523D01*
X138993571Y-136556761D01*
X138993571Y-136890095D01*
X138517380Y-135413904D02*
X138517380Y-135890095D01*
X138993571Y-135937714D01*
X138945952Y-135890095D01*
X138898333Y-135794857D01*
X138898333Y-135556761D01*
X138945952Y-135461523D01*
X138993571Y-135413904D01*
X139088809Y-135366285D01*
X139326904Y-135366285D01*
X139422142Y-135413904D01*
X139469761Y-135461523D01*
X139517380Y-135556761D01*
X139517380Y-135794857D01*
X139469761Y-135890095D01*
X139422142Y-135937714D01*
G04 #@! TO.C,PB6*
X137358380Y-137890095D02*
X136358380Y-137890095D01*
X136358380Y-137509142D01*
X136406000Y-137413904D01*
X136453619Y-137366285D01*
X136548857Y-137318666D01*
X136691714Y-137318666D01*
X136786952Y-137366285D01*
X136834571Y-137413904D01*
X136882190Y-137509142D01*
X136882190Y-137890095D01*
X136834571Y-136556761D02*
X136882190Y-136413904D01*
X136929809Y-136366285D01*
X137025047Y-136318666D01*
X137167904Y-136318666D01*
X137263142Y-136366285D01*
X137310761Y-136413904D01*
X137358380Y-136509142D01*
X137358380Y-136890095D01*
X136358380Y-136890095D01*
X136358380Y-136556761D01*
X136406000Y-136461523D01*
X136453619Y-136413904D01*
X136548857Y-136366285D01*
X136644095Y-136366285D01*
X136739333Y-136413904D01*
X136786952Y-136461523D01*
X136834571Y-136556761D01*
X136834571Y-136890095D01*
X136358380Y-135461523D02*
X136358380Y-135652000D01*
X136406000Y-135747238D01*
X136453619Y-135794857D01*
X136596476Y-135890095D01*
X136786952Y-135937714D01*
X137167904Y-135937714D01*
X137263142Y-135890095D01*
X137310761Y-135842476D01*
X137358380Y-135747238D01*
X137358380Y-135556761D01*
X137310761Y-135461523D01*
X137263142Y-135413904D01*
X137167904Y-135366285D01*
X136929809Y-135366285D01*
X136834571Y-135413904D01*
X136786952Y-135461523D01*
X136739333Y-135556761D01*
X136739333Y-135747238D01*
X136786952Y-135842476D01*
X136834571Y-135890095D01*
X136929809Y-135937714D01*
G04 #@! TO.C,PB7*
X135326380Y-137890095D02*
X134326380Y-137890095D01*
X134326380Y-137509142D01*
X134374000Y-137413904D01*
X134421619Y-137366285D01*
X134516857Y-137318666D01*
X134659714Y-137318666D01*
X134754952Y-137366285D01*
X134802571Y-137413904D01*
X134850190Y-137509142D01*
X134850190Y-137890095D01*
X134802571Y-136556761D02*
X134850190Y-136413904D01*
X134897809Y-136366285D01*
X134993047Y-136318666D01*
X135135904Y-136318666D01*
X135231142Y-136366285D01*
X135278761Y-136413904D01*
X135326380Y-136509142D01*
X135326380Y-136890095D01*
X134326380Y-136890095D01*
X134326380Y-136556761D01*
X134374000Y-136461523D01*
X134421619Y-136413904D01*
X134516857Y-136366285D01*
X134612095Y-136366285D01*
X134707333Y-136413904D01*
X134754952Y-136461523D01*
X134802571Y-136556761D01*
X134802571Y-136890095D01*
X134326380Y-135985333D02*
X134326380Y-135318666D01*
X135326380Y-135747238D01*
G04 #@! TO.C,R1*
X134066540Y-160902946D02*
X133590350Y-161236280D01*
X134066540Y-161474375D02*
X133066540Y-161474375D01*
X133066540Y-161093422D01*
X133114160Y-160998184D01*
X133161779Y-160950565D01*
X133257017Y-160902946D01*
X133399874Y-160902946D01*
X133495112Y-160950565D01*
X133542731Y-160998184D01*
X133590350Y-161093422D01*
X133590350Y-161474375D01*
X134066540Y-159950565D02*
X134066540Y-160521994D01*
X134066540Y-160236280D02*
X133066540Y-160236280D01*
X133209398Y-160331518D01*
X133304636Y-160426756D01*
X133352255Y-160521994D01*
G04 #@! TO.C,R6*
X139509760Y-160902946D02*
X139033570Y-161236280D01*
X139509760Y-161474375D02*
X138509760Y-161474375D01*
X138509760Y-161093422D01*
X138557380Y-160998184D01*
X138604999Y-160950565D01*
X138700237Y-160902946D01*
X138843094Y-160902946D01*
X138938332Y-160950565D01*
X138985951Y-160998184D01*
X139033570Y-161093422D01*
X139033570Y-161474375D01*
X138509760Y-160045803D02*
X138509760Y-160236280D01*
X138557380Y-160331518D01*
X138604999Y-160379137D01*
X138747856Y-160474375D01*
X138938332Y-160521994D01*
X139319284Y-160521994D01*
X139414522Y-160474375D01*
X139462141Y-160426756D01*
X139509760Y-160331518D01*
X139509760Y-160141041D01*
X139462141Y-160045803D01*
X139414522Y-159998184D01*
X139319284Y-159950565D01*
X139081189Y-159950565D01*
X138985951Y-159998184D01*
X138938332Y-160045803D01*
X138890713Y-160141041D01*
X138890713Y-160331518D01*
X138938332Y-160426756D01*
X138985951Y-160474375D01*
X139081189Y-160521994D01*
G04 #@! TO.C,R7*
X132215280Y-139846028D02*
X131739090Y-140179362D01*
X132215280Y-140417457D02*
X131215280Y-140417457D01*
X131215280Y-140036504D01*
X131262900Y-139941266D01*
X131310519Y-139893647D01*
X131405757Y-139846028D01*
X131548614Y-139846028D01*
X131643852Y-139893647D01*
X131691471Y-139941266D01*
X131739090Y-140036504D01*
X131739090Y-140417457D01*
X131215280Y-139512695D02*
X131215280Y-138846028D01*
X132215280Y-139274600D01*
G04 #@! TO.C,R8*
X113066894Y-142863727D02*
X112733561Y-142387537D01*
X112495465Y-142863727D02*
X112495465Y-141863727D01*
X112876418Y-141863727D01*
X112971656Y-141911347D01*
X113019275Y-141958966D01*
X113066894Y-142054204D01*
X113066894Y-142197061D01*
X113019275Y-142292299D01*
X112971656Y-142339918D01*
X112876418Y-142387537D01*
X112495465Y-142387537D01*
X113638322Y-142292299D02*
X113543084Y-142244680D01*
X113495465Y-142197061D01*
X113447846Y-142101823D01*
X113447846Y-142054204D01*
X113495465Y-141958966D01*
X113543084Y-141911347D01*
X113638322Y-141863727D01*
X113828799Y-141863727D01*
X113924037Y-141911347D01*
X113971656Y-141958966D01*
X114019275Y-142054204D01*
X114019275Y-142101823D01*
X113971656Y-142197061D01*
X113924037Y-142244680D01*
X113828799Y-142292299D01*
X113638322Y-142292299D01*
X113543084Y-142339918D01*
X113495465Y-142387537D01*
X113447846Y-142482775D01*
X113447846Y-142673251D01*
X113495465Y-142768489D01*
X113543084Y-142816108D01*
X113638322Y-142863727D01*
X113828799Y-142863727D01*
X113924037Y-142816108D01*
X113971656Y-142768489D01*
X114019275Y-142673251D01*
X114019275Y-142482775D01*
X113971656Y-142387537D01*
X113924037Y-142339918D01*
X113828799Y-142292299D01*
G04 #@! TO.C,R10*
X146164109Y-141195978D02*
X145687919Y-141529311D01*
X146164109Y-141767406D02*
X145164109Y-141767406D01*
X145164109Y-141386454D01*
X145211729Y-141291216D01*
X145259348Y-141243597D01*
X145354586Y-141195978D01*
X145497443Y-141195978D01*
X145592681Y-141243597D01*
X145640300Y-141291216D01*
X145687919Y-141386454D01*
X145687919Y-141767406D01*
X146164109Y-140243597D02*
X146164109Y-140815025D01*
X146164109Y-140529311D02*
X145164109Y-140529311D01*
X145306967Y-140624549D01*
X145402205Y-140719787D01*
X145449824Y-140815025D01*
X145164109Y-139624549D02*
X145164109Y-139529311D01*
X145211729Y-139434073D01*
X145259348Y-139386454D01*
X145354586Y-139338835D01*
X145545062Y-139291216D01*
X145783157Y-139291216D01*
X145973633Y-139338835D01*
X146068871Y-139386454D01*
X146116490Y-139434073D01*
X146164109Y-139529311D01*
X146164109Y-139624549D01*
X146116490Y-139719787D01*
X146068871Y-139767406D01*
X145973633Y-139815025D01*
X145783157Y-139862644D01*
X145545062Y-139862644D01*
X145354586Y-139815025D01*
X145259348Y-139767406D01*
X145211729Y-139719787D01*
X145164109Y-139624549D01*
G04 #@! TO.C,R11*
X112579732Y-148541681D02*
X112246399Y-148065491D01*
X112008304Y-148541681D02*
X112008304Y-147541681D01*
X112389256Y-147541681D01*
X112484494Y-147589301D01*
X112532113Y-147636920D01*
X112579732Y-147732158D01*
X112579732Y-147875015D01*
X112532113Y-147970253D01*
X112484494Y-148017872D01*
X112389256Y-148065491D01*
X112008304Y-148065491D01*
X113532113Y-148541681D02*
X112960685Y-148541681D01*
X113246399Y-148541681D02*
X113246399Y-147541681D01*
X113151161Y-147684539D01*
X113055923Y-147779777D01*
X112960685Y-147827396D01*
X114484494Y-148541681D02*
X113913066Y-148541681D01*
X114198780Y-148541681D02*
X114198780Y-147541681D01*
X114103542Y-147684539D01*
X114008304Y-147779777D01*
X113913066Y-147827396D01*
G04 #@! TO.C,R13*
X143842549Y-141328057D02*
X143366359Y-141661390D01*
X143842549Y-141899485D02*
X142842549Y-141899485D01*
X142842549Y-141518533D01*
X142890169Y-141423295D01*
X142937788Y-141375676D01*
X143033026Y-141328057D01*
X143175883Y-141328057D01*
X143271121Y-141375676D01*
X143318740Y-141423295D01*
X143366359Y-141518533D01*
X143366359Y-141899485D01*
X143842549Y-140375676D02*
X143842549Y-140947104D01*
X143842549Y-140661390D02*
X142842549Y-140661390D01*
X142985407Y-140756628D01*
X143080645Y-140851866D01*
X143128264Y-140947104D01*
X142842549Y-140042342D02*
X142842549Y-139423295D01*
X143223502Y-139756628D01*
X143223502Y-139613771D01*
X143271121Y-139518533D01*
X143318740Y-139470914D01*
X143413978Y-139423295D01*
X143652073Y-139423295D01*
X143747311Y-139470914D01*
X143794930Y-139518533D01*
X143842549Y-139613771D01*
X143842549Y-139899485D01*
X143794930Y-139994723D01*
X143747311Y-140042342D01*
G04 #@! TO.C,R17*
X149852142Y-136342380D02*
X149518809Y-135866190D01*
X149280714Y-136342380D02*
X149280714Y-135342380D01*
X149661666Y-135342380D01*
X149756904Y-135390000D01*
X149804523Y-135437619D01*
X149852142Y-135532857D01*
X149852142Y-135675714D01*
X149804523Y-135770952D01*
X149756904Y-135818571D01*
X149661666Y-135866190D01*
X149280714Y-135866190D01*
X150804523Y-136342380D02*
X150233095Y-136342380D01*
X150518809Y-136342380D02*
X150518809Y-135342380D01*
X150423571Y-135485238D01*
X150328333Y-135580476D01*
X150233095Y-135628095D01*
X151137857Y-135342380D02*
X151804523Y-135342380D01*
X151375952Y-136342380D01*
G04 #@! TO.C,R18*
X152392142Y-139136380D02*
X152058809Y-138660190D01*
X151820714Y-139136380D02*
X151820714Y-138136380D01*
X152201666Y-138136380D01*
X152296904Y-138184000D01*
X152344523Y-138231619D01*
X152392142Y-138326857D01*
X152392142Y-138469714D01*
X152344523Y-138564952D01*
X152296904Y-138612571D01*
X152201666Y-138660190D01*
X151820714Y-138660190D01*
X153344523Y-139136380D02*
X152773095Y-139136380D01*
X153058809Y-139136380D02*
X153058809Y-138136380D01*
X152963571Y-138279238D01*
X152868333Y-138374476D01*
X152773095Y-138422095D01*
X153915952Y-138564952D02*
X153820714Y-138517333D01*
X153773095Y-138469714D01*
X153725476Y-138374476D01*
X153725476Y-138326857D01*
X153773095Y-138231619D01*
X153820714Y-138184000D01*
X153915952Y-138136380D01*
X154106428Y-138136380D01*
X154201666Y-138184000D01*
X154249285Y-138231619D01*
X154296904Y-138326857D01*
X154296904Y-138374476D01*
X154249285Y-138469714D01*
X154201666Y-138517333D01*
X154106428Y-138564952D01*
X153915952Y-138564952D01*
X153820714Y-138612571D01*
X153773095Y-138660190D01*
X153725476Y-138755428D01*
X153725476Y-138945904D01*
X153773095Y-139041142D01*
X153820714Y-139088761D01*
X153915952Y-139136380D01*
X154106428Y-139136380D01*
X154201666Y-139088761D01*
X154249285Y-139041142D01*
X154296904Y-138945904D01*
X154296904Y-138755428D01*
X154249285Y-138660190D01*
X154201666Y-138612571D01*
X154106428Y-138564952D01*
G04 #@! TO.C,R19*
X141602270Y-141434738D02*
X141126080Y-141768071D01*
X141602270Y-142006166D02*
X140602270Y-142006166D01*
X140602270Y-141625214D01*
X140649890Y-141529976D01*
X140697509Y-141482357D01*
X140792747Y-141434738D01*
X140935604Y-141434738D01*
X141030842Y-141482357D01*
X141078461Y-141529976D01*
X141126080Y-141625214D01*
X141126080Y-142006166D01*
X141602270Y-140482357D02*
X141602270Y-141053785D01*
X141602270Y-140768071D02*
X140602270Y-140768071D01*
X140745128Y-140863309D01*
X140840366Y-140958547D01*
X140887985Y-141053785D01*
X141602270Y-140006166D02*
X141602270Y-139815690D01*
X141554651Y-139720452D01*
X141507032Y-139672833D01*
X141364175Y-139577595D01*
X141173699Y-139529976D01*
X140792747Y-139529976D01*
X140697509Y-139577595D01*
X140649890Y-139625214D01*
X140602270Y-139720452D01*
X140602270Y-139910928D01*
X140649890Y-140006166D01*
X140697509Y-140053785D01*
X140792747Y-140101404D01*
X141030842Y-140101404D01*
X141126080Y-140053785D01*
X141173699Y-140006166D01*
X141221318Y-139910928D01*
X141221318Y-139720452D01*
X141173699Y-139625214D01*
X141126080Y-139577595D01*
X141030842Y-139529976D01*
G04 #@! TO.C,R20*
X103878142Y-132151380D02*
X103544809Y-131675190D01*
X103306714Y-132151380D02*
X103306714Y-131151380D01*
X103687666Y-131151380D01*
X103782904Y-131199000D01*
X103830523Y-131246619D01*
X103878142Y-131341857D01*
X103878142Y-131484714D01*
X103830523Y-131579952D01*
X103782904Y-131627571D01*
X103687666Y-131675190D01*
X103306714Y-131675190D01*
X104259095Y-131246619D02*
X104306714Y-131199000D01*
X104401952Y-131151380D01*
X104640047Y-131151380D01*
X104735285Y-131199000D01*
X104782904Y-131246619D01*
X104830523Y-131341857D01*
X104830523Y-131437095D01*
X104782904Y-131579952D01*
X104211476Y-132151380D01*
X104830523Y-132151380D01*
X105449571Y-131151380D02*
X105544809Y-131151380D01*
X105640047Y-131199000D01*
X105687666Y-131246619D01*
X105735285Y-131341857D01*
X105782904Y-131532333D01*
X105782904Y-131770428D01*
X105735285Y-131960904D01*
X105687666Y-132056142D01*
X105640047Y-132103761D01*
X105544809Y-132151380D01*
X105449571Y-132151380D01*
X105354333Y-132103761D01*
X105306714Y-132056142D01*
X105259095Y-131960904D01*
X105211476Y-131770428D01*
X105211476Y-131532333D01*
X105259095Y-131341857D01*
X105306714Y-131246619D01*
X105354333Y-131199000D01*
X105449571Y-131151380D01*
G04 #@! TO.C,R21*
X131919791Y-144741817D02*
X131443601Y-145075150D01*
X131919791Y-145313245D02*
X130919791Y-145313245D01*
X130919791Y-144932293D01*
X130967411Y-144837055D01*
X131015030Y-144789436D01*
X131110268Y-144741817D01*
X131253125Y-144741817D01*
X131348363Y-144789436D01*
X131395982Y-144837055D01*
X131443601Y-144932293D01*
X131443601Y-145313245D01*
X131015030Y-144360864D02*
X130967411Y-144313245D01*
X130919791Y-144218007D01*
X130919791Y-143979912D01*
X130967411Y-143884674D01*
X131015030Y-143837055D01*
X131110268Y-143789436D01*
X131205506Y-143789436D01*
X131348363Y-143837055D01*
X131919791Y-144408483D01*
X131919791Y-143789436D01*
X131919791Y-142837055D02*
X131919791Y-143408483D01*
X131919791Y-143122769D02*
X130919791Y-143122769D01*
X131062649Y-143218007D01*
X131157887Y-143313245D01*
X131205506Y-143408483D01*
G04 #@! TO.C,R22*
X114683350Y-159651617D02*
X114207160Y-159984950D01*
X114683350Y-160223045D02*
X113683350Y-160223045D01*
X113683350Y-159842093D01*
X113730970Y-159746855D01*
X113778589Y-159699236D01*
X113873827Y-159651617D01*
X114016684Y-159651617D01*
X114111922Y-159699236D01*
X114159541Y-159746855D01*
X114207160Y-159842093D01*
X114207160Y-160223045D01*
X113778589Y-159270664D02*
X113730970Y-159223045D01*
X113683350Y-159127807D01*
X113683350Y-158889712D01*
X113730970Y-158794474D01*
X113778589Y-158746855D01*
X113873827Y-158699236D01*
X113969065Y-158699236D01*
X114111922Y-158746855D01*
X114683350Y-159318283D01*
X114683350Y-158699236D01*
X113778589Y-158318283D02*
X113730970Y-158270664D01*
X113683350Y-158175426D01*
X113683350Y-157937331D01*
X113730970Y-157842093D01*
X113778589Y-157794474D01*
X113873827Y-157746855D01*
X113969065Y-157746855D01*
X114111922Y-157794474D01*
X114683350Y-158365902D01*
X114683350Y-157746855D01*
G04 #@! TO.C,D9*
X154582904Y-155138380D02*
X154582904Y-154138380D01*
X154821000Y-154138380D01*
X154963857Y-154186000D01*
X155059095Y-154281238D01*
X155106714Y-154376476D01*
X155154333Y-154566952D01*
X155154333Y-154709809D01*
X155106714Y-154900285D01*
X155059095Y-154995523D01*
X154963857Y-155090761D01*
X154821000Y-155138380D01*
X154582904Y-155138380D01*
X155630523Y-155138380D02*
X155821000Y-155138380D01*
X155916238Y-155090761D01*
X155963857Y-155043142D01*
X156059095Y-154900285D01*
X156106714Y-154709809D01*
X156106714Y-154328857D01*
X156059095Y-154233619D01*
X156011476Y-154186000D01*
X155916238Y-154138380D01*
X155725761Y-154138380D01*
X155630523Y-154186000D01*
X155582904Y-154233619D01*
X155535285Y-154328857D01*
X155535285Y-154566952D01*
X155582904Y-154662190D01*
X155630523Y-154709809D01*
X155725761Y-154757428D01*
X155916238Y-154757428D01*
X156011476Y-154709809D01*
X156059095Y-154662190D01*
X156106714Y-154566952D01*
G04 #@! TO.C,Q1*
X154717761Y-147740619D02*
X154622523Y-147693000D01*
X154527285Y-147597761D01*
X154384428Y-147454904D01*
X154289190Y-147407285D01*
X154193952Y-147407285D01*
X154241571Y-147645380D02*
X154146333Y-147597761D01*
X154051095Y-147502523D01*
X154003476Y-147312047D01*
X154003476Y-146978714D01*
X154051095Y-146788238D01*
X154146333Y-146693000D01*
X154241571Y-146645380D01*
X154432047Y-146645380D01*
X154527285Y-146693000D01*
X154622523Y-146788238D01*
X154670142Y-146978714D01*
X154670142Y-147312047D01*
X154622523Y-147502523D01*
X154527285Y-147597761D01*
X154432047Y-147645380D01*
X154241571Y-147645380D01*
X155622523Y-147645380D02*
X155051095Y-147645380D01*
X155336809Y-147645380D02*
X155336809Y-146645380D01*
X155241571Y-146788238D01*
X155146333Y-146883476D01*
X155051095Y-146931095D01*
G04 #@! TO.C,R23*
X154678142Y-152852380D02*
X154344809Y-152376190D01*
X154106714Y-152852380D02*
X154106714Y-151852380D01*
X154487666Y-151852380D01*
X154582904Y-151900000D01*
X154630523Y-151947619D01*
X154678142Y-152042857D01*
X154678142Y-152185714D01*
X154630523Y-152280952D01*
X154582904Y-152328571D01*
X154487666Y-152376190D01*
X154106714Y-152376190D01*
X155059095Y-151947619D02*
X155106714Y-151900000D01*
X155201952Y-151852380D01*
X155440047Y-151852380D01*
X155535285Y-151900000D01*
X155582904Y-151947619D01*
X155630523Y-152042857D01*
X155630523Y-152138095D01*
X155582904Y-152280952D01*
X155011476Y-152852380D01*
X155630523Y-152852380D01*
X155963857Y-151852380D02*
X156582904Y-151852380D01*
X156249571Y-152233333D01*
X156392428Y-152233333D01*
X156487666Y-152280952D01*
X156535285Y-152328571D01*
X156582904Y-152423809D01*
X156582904Y-152661904D01*
X156535285Y-152757142D01*
X156487666Y-152804761D01*
X156392428Y-152852380D01*
X156106714Y-152852380D01*
X156011476Y-152804761D01*
X155963857Y-152757142D01*
G04 #@! TO.C,R24*
X154551142Y-150566380D02*
X154217809Y-150090190D01*
X153979714Y-150566380D02*
X153979714Y-149566380D01*
X154360666Y-149566380D01*
X154455904Y-149614000D01*
X154503523Y-149661619D01*
X154551142Y-149756857D01*
X154551142Y-149899714D01*
X154503523Y-149994952D01*
X154455904Y-150042571D01*
X154360666Y-150090190D01*
X153979714Y-150090190D01*
X154932095Y-149661619D02*
X154979714Y-149614000D01*
X155074952Y-149566380D01*
X155313047Y-149566380D01*
X155408285Y-149614000D01*
X155455904Y-149661619D01*
X155503523Y-149756857D01*
X155503523Y-149852095D01*
X155455904Y-149994952D01*
X154884476Y-150566380D01*
X155503523Y-150566380D01*
X156360666Y-149899714D02*
X156360666Y-150566380D01*
X156122571Y-149518761D02*
X155884476Y-150233047D01*
X156503523Y-150233047D01*
G04 #@! TD*
M02*
