G04 #@! TF.GenerationSoftware,KiCad,Pcbnew,5.0.2-bee76a0~70~ubuntu18.04.1*
G04 #@! TF.CreationDate,2019-04-15T21:30:03-04:00*
G04 #@! TF.ProjectId,dashboard_mk4_rev4,64617368-626f-4617-9264-5f6d6b345f72,6.0*
G04 #@! TF.SameCoordinates,Original*
G04 #@! TF.FileFunction,Paste,Top*
G04 #@! TF.FilePolarity,Positive*
%FSLAX46Y46*%
G04 Gerber Fmt 4.6, Leading zero omitted, Abs format (unit mm)*
G04 Created by KiCad (PCBNEW 5.0.2-bee76a0~70~ubuntu18.04.1) date Mon 15 Apr 2019 09:30:03 PM EDT*
%MOMM*%
%LPD*%
G01*
G04 APERTURE LIST*
%ADD10R,1.550000X0.600000*%
%ADD11R,2.500000X0.900000*%
%ADD12R,8.200000X3.300000*%
%ADD13R,0.650000X1.060000*%
%ADD14R,1.600000X1.000000*%
%ADD15R,2.159000X1.778000*%
%ADD16R,1.000000X3.200000*%
%ADD17R,0.550000X1.600000*%
%ADD18R,1.600000X0.550000*%
%ADD19R,1.250000X1.000000*%
%ADD20R,1.000000X1.250000*%
%ADD21R,1.200000X1.200000*%
%ADD22R,0.700000X1.300000*%
%ADD23R,1.300000X0.700000*%
%ADD24C,1.000000*%
%ADD25C,0.100000*%
%ADD26C,0.700000*%
%ADD27R,0.800000X0.900000*%
G04 APERTURE END LIST*
D10*
G04 #@! TO.C,U4*
X118808516Y-160771054D03*
X118808516Y-159501054D03*
X118808516Y-158231054D03*
X118808516Y-156961054D03*
X124208516Y-156961054D03*
X124208516Y-158231054D03*
X124208516Y-159501054D03*
X124208516Y-160771054D03*
G04 #@! TD*
D11*
G04 #@! TO.C,F1*
X101124594Y-142969499D03*
X101124594Y-145869499D03*
G04 #@! TD*
D12*
G04 #@! TO.C,L1*
X94818596Y-147473500D03*
X94818596Y-142773500D03*
G04 #@! TD*
D13*
G04 #@! TO.C,U2*
X94843996Y-137419499D03*
X93893996Y-137419499D03*
X95793996Y-137419499D03*
X95793996Y-139619499D03*
X94843996Y-139619499D03*
X93893996Y-139619499D03*
G04 #@! TD*
D14*
G04 #@! TO.C,C3*
X98184099Y-136702001D03*
X98184099Y-139702001D03*
G04 #@! TD*
D15*
G04 #@! TO.C,D7*
X102502094Y-150140000D03*
X102502094Y-154204000D03*
G04 #@! TD*
D16*
G04 #@! TO.C,R9*
X91909097Y-151536996D03*
X98109097Y-151536996D03*
G04 #@! TD*
D17*
G04 #@! TO.C,U1*
X138906587Y-149246853D03*
X139706587Y-149246853D03*
X140506587Y-149246853D03*
X141306587Y-149246853D03*
X142106587Y-149246853D03*
X142906587Y-149246853D03*
X143706587Y-149246853D03*
X144506587Y-149246853D03*
D18*
X145956587Y-150696853D03*
X145956587Y-151496853D03*
X145956587Y-152296853D03*
X145956587Y-153096853D03*
X145956587Y-153896853D03*
X145956587Y-154696853D03*
X145956587Y-155496853D03*
X145956587Y-156296853D03*
D17*
X144506587Y-157746853D03*
X143706587Y-157746853D03*
X142906587Y-157746853D03*
X142106587Y-157746853D03*
X141306587Y-157746853D03*
X140506587Y-157746853D03*
X139706587Y-157746853D03*
X138906587Y-157746853D03*
D18*
X137456587Y-156296853D03*
X137456587Y-155496853D03*
X137456587Y-154696853D03*
X137456587Y-153896853D03*
X137456587Y-153096853D03*
X137456587Y-152296853D03*
X137456587Y-151496853D03*
X137456587Y-150696853D03*
G04 #@! TD*
D17*
G04 #@! TO.C,U3*
X117049449Y-133211941D03*
X117849449Y-133211941D03*
X118649449Y-133211941D03*
X119449449Y-133211941D03*
X120249449Y-133211941D03*
X121049449Y-133211941D03*
X121849449Y-133211941D03*
X122649449Y-133211941D03*
D18*
X124099449Y-134661941D03*
X124099449Y-135461941D03*
X124099449Y-136261941D03*
X124099449Y-137061941D03*
X124099449Y-137861941D03*
X124099449Y-138661941D03*
X124099449Y-139461941D03*
X124099449Y-140261941D03*
D17*
X122649449Y-141711941D03*
X121849449Y-141711941D03*
X121049449Y-141711941D03*
X120249449Y-141711941D03*
X119449449Y-141711941D03*
X118649449Y-141711941D03*
X117849449Y-141711941D03*
X117049449Y-141711941D03*
D18*
X115599449Y-140261941D03*
X115599449Y-139461941D03*
X115599449Y-138661941D03*
X115599449Y-137861941D03*
X115599449Y-137061941D03*
X115599449Y-136261941D03*
X115599449Y-135461941D03*
X115599449Y-134661941D03*
G04 #@! TD*
D19*
G04 #@! TO.C,C5*
X91834101Y-136185998D03*
X91834101Y-138185998D03*
G04 #@! TD*
D20*
G04 #@! TO.C,C11*
X89024096Y-145821998D03*
X87024096Y-145821998D03*
G04 #@! TD*
G04 #@! TO.C,C12*
X89024098Y-143535998D03*
X87024098Y-143535998D03*
G04 #@! TD*
D21*
G04 #@! TO.C,D2*
X93442098Y-154711999D03*
X91242098Y-154711999D03*
G04 #@! TD*
D22*
G04 #@! TO.C,R2*
X103330098Y-142012002D03*
X105230098Y-142012002D03*
G04 #@! TD*
G04 #@! TO.C,R3*
X103330096Y-139979997D03*
X105230096Y-139979997D03*
G04 #@! TD*
G04 #@! TO.C,R12*
X97356096Y-154712001D03*
X95456096Y-154712001D03*
G04 #@! TD*
D20*
G04 #@! TO.C,C7*
X89024099Y-147854000D03*
X87024099Y-147854000D03*
G04 #@! TD*
D21*
G04 #@! TO.C,D1*
X105042095Y-144467996D03*
X105042095Y-146667996D03*
G04 #@! TD*
D22*
G04 #@! TO.C,R4*
X95710095Y-134900001D03*
X97610095Y-134900001D03*
G04 #@! TD*
D23*
G04 #@! TO.C,R5*
X88532094Y-135982001D03*
X88532094Y-137882001D03*
G04 #@! TD*
D20*
G04 #@! TO.C,C1*
X132142290Y-157093601D03*
X130142290Y-157093601D03*
G04 #@! TD*
D19*
G04 #@! TO.C,C2*
X148717000Y-151273000D03*
X148717000Y-153273000D03*
G04 #@! TD*
G04 #@! TO.C,C4*
X112141000Y-134001000D03*
X112141000Y-136001000D03*
G04 #@! TD*
D24*
G04 #@! TO.C,C6*
X146857581Y-135410268D03*
D25*
G36*
X146945969Y-136205763D02*
X146062086Y-135321880D01*
X146769193Y-134614773D01*
X147653076Y-135498656D01*
X146945969Y-136205763D01*
X146945969Y-136205763D01*
G37*
D24*
X145443367Y-136824482D03*
D25*
G36*
X145531755Y-137619977D02*
X144647872Y-136736094D01*
X145354979Y-136028987D01*
X146238862Y-136912870D01*
X145531755Y-137619977D01*
X145531755Y-137619977D01*
G37*
G04 #@! TD*
D24*
G04 #@! TO.C,C8*
X148466547Y-139717845D03*
D25*
G36*
X148554935Y-140513340D02*
X147671052Y-139629457D01*
X148378159Y-138922350D01*
X149262042Y-139806233D01*
X148554935Y-140513340D01*
X148554935Y-140513340D01*
G37*
D24*
X149880761Y-138303631D03*
D25*
G36*
X149969149Y-139099126D02*
X149085266Y-138215243D01*
X149792373Y-137508136D01*
X150676256Y-138392019D01*
X149969149Y-139099126D01*
X149969149Y-139099126D01*
G37*
G04 #@! TD*
D20*
G04 #@! TO.C,C9*
X107867560Y-136336618D03*
X109867560Y-136336618D03*
G04 #@! TD*
G04 #@! TO.C,C10*
X107839000Y-134239000D03*
X109839000Y-134239000D03*
G04 #@! TD*
D19*
G04 #@! TO.C,C13*
X145771154Y-162123336D03*
X145771154Y-160123336D03*
G04 #@! TD*
G04 #@! TO.C,C14*
X149225000Y-160036000D03*
X149225000Y-162036000D03*
G04 #@! TD*
G04 #@! TO.C,C15*
X126705359Y-159154855D03*
X126705359Y-157154855D03*
G04 #@! TD*
D21*
G04 #@! TO.C,PB1*
X108078078Y-144351081D03*
X110278076Y-144351081D03*
G04 #@! TD*
G04 #@! TO.C,PB0*
X110278078Y-146520713D03*
X108078080Y-146520713D03*
G04 #@! TD*
G04 #@! TO.C,PB5*
X139021121Y-139462848D03*
X139021121Y-141662846D03*
G04 #@! TD*
G04 #@! TO.C,PB6*
X136815571Y-141623331D03*
X136815571Y-139423333D03*
G04 #@! TD*
G04 #@! TO.C,PB7*
X134726762Y-139425131D03*
X134726762Y-141625129D03*
G04 #@! TD*
D23*
G04 #@! TO.C,R1*
X135224713Y-161628576D03*
X135224713Y-159728578D03*
G04 #@! TD*
G04 #@! TO.C,R6*
X137315315Y-159685474D03*
X137315315Y-161585472D03*
G04 #@! TD*
G04 #@! TO.C,R7*
X130048000Y-140136038D03*
X130048000Y-138236038D03*
G04 #@! TD*
D22*
G04 #@! TO.C,R8*
X114163803Y-144428313D03*
X112263805Y-144428313D03*
G04 #@! TD*
D23*
G04 #@! TO.C,R10*
X145739286Y-145089033D03*
X145739286Y-143189035D03*
G04 #@! TD*
D22*
G04 #@! TO.C,R11*
X112274582Y-146536878D03*
X114174580Y-146536878D03*
G04 #@! TD*
D23*
G04 #@! TO.C,R13*
X143522959Y-145092623D03*
X143522959Y-143192625D03*
G04 #@! TD*
G04 #@! TO.C,R14*
X138965582Y-143410983D03*
X138965582Y-145310981D03*
G04 #@! TD*
G04 #@! TO.C,R15*
X136824434Y-145323219D03*
X136824434Y-143423221D03*
G04 #@! TD*
G04 #@! TO.C,R16*
X134716128Y-145300205D03*
X134716128Y-143400207D03*
G04 #@! TD*
D26*
G04 #@! TO.C,R17*
X146946842Y-138272484D03*
D25*
G36*
X146734710Y-137565377D02*
X147653949Y-138484616D01*
X147158974Y-138979591D01*
X146239735Y-138060352D01*
X146734710Y-137565377D01*
X146734710Y-137565377D01*
G37*
D26*
X148290344Y-136928982D03*
D25*
G36*
X148078212Y-136221875D02*
X148997451Y-137141114D01*
X148502476Y-137636089D01*
X147583237Y-136716850D01*
X148078212Y-136221875D01*
X148078212Y-136221875D01*
G37*
G04 #@! TD*
D26*
G04 #@! TO.C,R18*
X151353584Y-139763624D03*
D25*
G36*
X151141452Y-139056517D02*
X152060691Y-139975756D01*
X151565716Y-140470731D01*
X150646477Y-139551492D01*
X151141452Y-139056517D01*
X151141452Y-139056517D01*
G37*
D26*
X150010082Y-141107126D03*
D25*
G36*
X149797950Y-140400019D02*
X150717189Y-141319258D01*
X150222214Y-141814233D01*
X149302975Y-140894994D01*
X149797950Y-140400019D01*
X149797950Y-140400019D01*
G37*
G04 #@! TD*
D23*
G04 #@! TO.C,R19*
X141295855Y-143185443D03*
X141295855Y-145085441D03*
G04 #@! TD*
D22*
G04 #@! TO.C,R20*
X108645999Y-131572000D03*
X106746001Y-131572000D03*
G04 #@! TD*
D23*
G04 #@! TO.C,R21*
X129719891Y-145048959D03*
X129719891Y-143148961D03*
G04 #@! TD*
G04 #@! TO.C,R22*
X116065297Y-160011632D03*
X116065297Y-158111634D03*
G04 #@! TD*
D21*
G04 #@! TO.C,D9*
X150968963Y-154565382D03*
X153168961Y-154565382D03*
G04 #@! TD*
D27*
G04 #@! TO.C,Q1*
X150991962Y-147995383D03*
X152891962Y-147995383D03*
X151941962Y-145895382D03*
G04 #@! TD*
D22*
G04 #@! TO.C,R23*
X150991962Y-152279382D03*
X152891960Y-152279382D03*
G04 #@! TD*
G04 #@! TO.C,R24*
X152891960Y-149993382D03*
X150991962Y-149993382D03*
G04 #@! TD*
M02*
