G04 #@! TF.GenerationSoftware,KiCad,Pcbnew,5.1.5-52549c5~84~ubuntu16.04.1*
G04 #@! TF.CreationDate,2019-12-28T13:07:50-05:00*
G04 #@! TF.ProjectId,Chassis_Strain,43686173-7369-4735-9f53-747261696e2e,rev?*
G04 #@! TF.SameCoordinates,Original*
G04 #@! TF.FileFunction,Paste,Top*
G04 #@! TF.FilePolarity,Positive*
%FSLAX46Y46*%
G04 Gerber Fmt 4.6, Leading zero omitted, Abs format (unit mm)*
G04 Created by KiCad (PCBNEW 5.1.5-52549c5~84~ubuntu16.04.1) date 2019-12-28 13:07:50*
%MOMM*%
%LPD*%
G04 APERTURE LIST*
%ADD10R,1.000000X1.250000*%
%ADD11R,1.600000X0.350000*%
%ADD12R,0.550000X1.600000*%
%ADD13R,1.600000X0.550000*%
%ADD14R,0.400000X0.650000*%
%ADD15R,0.700000X1.300000*%
%ADD16R,1.300000X0.700000*%
%ADD17R,1.250000X1.000000*%
%ADD18R,0.650000X1.560000*%
%ADD19R,1.200000X2.000000*%
%ADD20R,1.550000X0.600000*%
%ADD21R,1.780000X3.500000*%
%ADD22R,0.900000X2.500000*%
%ADD23R,1.000000X3.200000*%
%ADD24R,1.000000X1.600000*%
%ADD25R,2.159000X1.778000*%
%ADD26R,1.200000X1.200000*%
%ADD27C,1.000000*%
G04 APERTURE END LIST*
D10*
X150574500Y-110617000D03*
X152574500Y-110617000D03*
D11*
X152406000Y-111771000D03*
X152406000Y-112421000D03*
X152406000Y-113071000D03*
X152406000Y-113721000D03*
X152406000Y-114371000D03*
X152406000Y-115021000D03*
X152406000Y-115671000D03*
X152406000Y-116321000D03*
X146806000Y-116321000D03*
X146806000Y-115671000D03*
X146806000Y-115021000D03*
X146806000Y-114371000D03*
X146806000Y-113721000D03*
X146806000Y-113071000D03*
X146806000Y-112421000D03*
X146806000Y-111771000D03*
D12*
X151505000Y-94302000D03*
X152305000Y-94302000D03*
X153105000Y-94302000D03*
X153905000Y-94302000D03*
X154705000Y-94302000D03*
X155505000Y-94302000D03*
X156305000Y-94302000D03*
X157105000Y-94302000D03*
D13*
X158555000Y-95752000D03*
X158555000Y-96552000D03*
X158555000Y-97352000D03*
X158555000Y-98152000D03*
X158555000Y-98952000D03*
X158555000Y-99752000D03*
X158555000Y-100552000D03*
X158555000Y-101352000D03*
D12*
X157105000Y-102802000D03*
X156305000Y-102802000D03*
X155505000Y-102802000D03*
X154705000Y-102802000D03*
X153905000Y-102802000D03*
X153105000Y-102802000D03*
X152305000Y-102802000D03*
X151505000Y-102802000D03*
D13*
X150055000Y-101352000D03*
X150055000Y-100552000D03*
X150055000Y-99752000D03*
X150055000Y-98952000D03*
X150055000Y-98152000D03*
X150055000Y-97352000D03*
X150055000Y-96552000D03*
X150055000Y-95752000D03*
D14*
X146509500Y-123986000D03*
X147809500Y-123986000D03*
X147159500Y-125886000D03*
X147809500Y-125886000D03*
X146509500Y-125886000D03*
D15*
X148048500Y-122269000D03*
X146148500Y-122269000D03*
X146148500Y-127539500D03*
X148048500Y-127539500D03*
X146021500Y-120237000D03*
X147921500Y-120237000D03*
D16*
X149699500Y-126521000D03*
X149699500Y-124621000D03*
X149699500Y-121258000D03*
X149699500Y-123158000D03*
X151731500Y-123153000D03*
X151731500Y-121253000D03*
X151731500Y-124621000D03*
X151731500Y-126521000D03*
D17*
X144492500Y-125761500D03*
X144492500Y-123761500D03*
D16*
X110363000Y-102555000D03*
X110363000Y-104455000D03*
D18*
X125153600Y-103315800D03*
X126103600Y-103315800D03*
X124203600Y-103315800D03*
X124203600Y-100615800D03*
X125153600Y-100615800D03*
X126103600Y-100615800D03*
D19*
X129552700Y-105666540D03*
X126352700Y-105666540D03*
D10*
X148129500Y-91948000D03*
X146129500Y-91948000D03*
D17*
X147891500Y-95647000D03*
X147891500Y-97647000D03*
D16*
X144399000Y-91635500D03*
X144399000Y-93535500D03*
D20*
X136873000Y-99504500D03*
X136873000Y-98234500D03*
X136873000Y-96964500D03*
X136873000Y-95694500D03*
X142273000Y-95694500D03*
X142273000Y-96964500D03*
X142273000Y-98234500D03*
X142273000Y-99504500D03*
D15*
X148209000Y-93853000D03*
X146309000Y-93853000D03*
D16*
X147980400Y-101412000D03*
X147980400Y-103312000D03*
D17*
X155575000Y-115951000D03*
X155575000Y-113951000D03*
D16*
X162814000Y-114810500D03*
X162814000Y-116710500D03*
D21*
X131305300Y-109601000D03*
X136585300Y-109601000D03*
D17*
X128447800Y-102981000D03*
X128447800Y-100981000D03*
D22*
X118996800Y-105727500D03*
X121896800Y-105727500D03*
D15*
X126870420Y-98978720D03*
X128770420Y-98978720D03*
X122984220Y-98963480D03*
X124884220Y-98963480D03*
D16*
X124176000Y-114300000D03*
X124176000Y-112400000D03*
D23*
X122504200Y-109606080D03*
X128704200Y-109606080D03*
D24*
X133924300Y-103251000D03*
X130924300Y-103251000D03*
D10*
X133448300Y-105600500D03*
X131448300Y-105600500D03*
D25*
X115430300Y-105727500D03*
X115430300Y-101663500D03*
D26*
X122174000Y-112481000D03*
X122174000Y-114681000D03*
X110376000Y-98500000D03*
X110376000Y-100700000D03*
D17*
X120228360Y-100870000D03*
X120228360Y-102870000D03*
D27*
G36*
X122311991Y-100836553D02*
G01*
X122333226Y-100839703D01*
X122354050Y-100844919D01*
X122374262Y-100852151D01*
X122393668Y-100861330D01*
X122412081Y-100872366D01*
X122429324Y-100885154D01*
X122445230Y-100899570D01*
X122459646Y-100915476D01*
X122472434Y-100932719D01*
X122483470Y-100951132D01*
X122492649Y-100970538D01*
X122499881Y-100990750D01*
X122505097Y-101011574D01*
X122508247Y-101032809D01*
X122509300Y-101054250D01*
X122509300Y-101491750D01*
X122508247Y-101513191D01*
X122505097Y-101534426D01*
X122499881Y-101555250D01*
X122492649Y-101575462D01*
X122483470Y-101594868D01*
X122472434Y-101613281D01*
X122459646Y-101630524D01*
X122445230Y-101646430D01*
X122429324Y-101660846D01*
X122412081Y-101673634D01*
X122393668Y-101684670D01*
X122374262Y-101693849D01*
X122354050Y-101701081D01*
X122333226Y-101706297D01*
X122311991Y-101709447D01*
X122290550Y-101710500D01*
X121778050Y-101710500D01*
X121756609Y-101709447D01*
X121735374Y-101706297D01*
X121714550Y-101701081D01*
X121694338Y-101693849D01*
X121674932Y-101684670D01*
X121656519Y-101673634D01*
X121639276Y-101660846D01*
X121623370Y-101646430D01*
X121608954Y-101630524D01*
X121596166Y-101613281D01*
X121585130Y-101594868D01*
X121575951Y-101575462D01*
X121568719Y-101555250D01*
X121563503Y-101534426D01*
X121560353Y-101513191D01*
X121559300Y-101491750D01*
X121559300Y-101054250D01*
X121560353Y-101032809D01*
X121563503Y-101011574D01*
X121568719Y-100990750D01*
X121575951Y-100970538D01*
X121585130Y-100951132D01*
X121596166Y-100932719D01*
X121608954Y-100915476D01*
X121623370Y-100899570D01*
X121639276Y-100885154D01*
X121656519Y-100872366D01*
X121674932Y-100861330D01*
X121694338Y-100852151D01*
X121714550Y-100844919D01*
X121735374Y-100839703D01*
X121756609Y-100836553D01*
X121778050Y-100835500D01*
X122290550Y-100835500D01*
X122311991Y-100836553D01*
G37*
G36*
X122311991Y-102411553D02*
G01*
X122333226Y-102414703D01*
X122354050Y-102419919D01*
X122374262Y-102427151D01*
X122393668Y-102436330D01*
X122412081Y-102447366D01*
X122429324Y-102460154D01*
X122445230Y-102474570D01*
X122459646Y-102490476D01*
X122472434Y-102507719D01*
X122483470Y-102526132D01*
X122492649Y-102545538D01*
X122499881Y-102565750D01*
X122505097Y-102586574D01*
X122508247Y-102607809D01*
X122509300Y-102629250D01*
X122509300Y-103066750D01*
X122508247Y-103088191D01*
X122505097Y-103109426D01*
X122499881Y-103130250D01*
X122492649Y-103150462D01*
X122483470Y-103169868D01*
X122472434Y-103188281D01*
X122459646Y-103205524D01*
X122445230Y-103221430D01*
X122429324Y-103235846D01*
X122412081Y-103248634D01*
X122393668Y-103259670D01*
X122374262Y-103268849D01*
X122354050Y-103276081D01*
X122333226Y-103281297D01*
X122311991Y-103284447D01*
X122290550Y-103285500D01*
X121778050Y-103285500D01*
X121756609Y-103284447D01*
X121735374Y-103281297D01*
X121714550Y-103276081D01*
X121694338Y-103268849D01*
X121674932Y-103259670D01*
X121656519Y-103248634D01*
X121639276Y-103235846D01*
X121623370Y-103221430D01*
X121608954Y-103205524D01*
X121596166Y-103188281D01*
X121585130Y-103169868D01*
X121575951Y-103150462D01*
X121568719Y-103130250D01*
X121563503Y-103109426D01*
X121560353Y-103088191D01*
X121559300Y-103066750D01*
X121559300Y-102629250D01*
X121560353Y-102607809D01*
X121563503Y-102586574D01*
X121568719Y-102565750D01*
X121575951Y-102545538D01*
X121585130Y-102526132D01*
X121596166Y-102507719D01*
X121608954Y-102490476D01*
X121623370Y-102474570D01*
X121639276Y-102460154D01*
X121656519Y-102447366D01*
X121674932Y-102436330D01*
X121694338Y-102427151D01*
X121714550Y-102419919D01*
X121735374Y-102414703D01*
X121756609Y-102411553D01*
X121778050Y-102410500D01*
X122290550Y-102410500D01*
X122311991Y-102411553D01*
G37*
D17*
X144335500Y-98679000D03*
X144335500Y-96679000D03*
X154940000Y-106902000D03*
X154940000Y-104902000D03*
D10*
X153035000Y-108077000D03*
X151035000Y-108077000D03*
D17*
X155499001Y-125799999D03*
X155499001Y-123799999D03*
X155522501Y-135868999D03*
X155522501Y-133868999D03*
X144453501Y-135814499D03*
X144453501Y-133814499D03*
X133618501Y-125835999D03*
X133618501Y-123835999D03*
X133614001Y-135827499D03*
X133614001Y-133827499D03*
X122439001Y-125806999D03*
X122439001Y-123806999D03*
X122355501Y-135867499D03*
X122355501Y-133867499D03*
X111139501Y-115792499D03*
X111139501Y-113792499D03*
X111119501Y-125751499D03*
X111119501Y-123751499D03*
X111059501Y-135847999D03*
X111059501Y-133847999D03*
D26*
X146075400Y-101600000D03*
X146075400Y-103800000D03*
X146126200Y-105605400D03*
X146126200Y-107805400D03*
D16*
X148031200Y-104724200D03*
X148031200Y-106624200D03*
X134747000Y-96842500D03*
X134747000Y-98742500D03*
X162738001Y-124659499D03*
X162738001Y-126559499D03*
X162738001Y-123191499D03*
X162738001Y-121291499D03*
X160706001Y-121296499D03*
X160706001Y-123196499D03*
X160706001Y-126559499D03*
X160706001Y-124659499D03*
D15*
X157028001Y-120275499D03*
X158928001Y-120275499D03*
X157155001Y-127577999D03*
X159055001Y-127577999D03*
X159055001Y-122307499D03*
X157155001Y-122307499D03*
D16*
X162814000Y-113342500D03*
X162814000Y-111442500D03*
X160782000Y-111447500D03*
X160782000Y-113347500D03*
X160782000Y-116710500D03*
X160782000Y-114810500D03*
D15*
X157104000Y-110426500D03*
X159004000Y-110426500D03*
X157231000Y-117729000D03*
X159131000Y-117729000D03*
X159131000Y-112458500D03*
X157231000Y-112458500D03*
D16*
X162761501Y-134728499D03*
X162761501Y-136628499D03*
X162761501Y-133260499D03*
X162761501Y-131360499D03*
X160729501Y-131365499D03*
X160729501Y-133265499D03*
X160729501Y-136628499D03*
X160729501Y-134728499D03*
D15*
X157051501Y-130344499D03*
X158951501Y-130344499D03*
X157178501Y-137646999D03*
X159078501Y-137646999D03*
X159078501Y-132376499D03*
X157178501Y-132376499D03*
D16*
X151692501Y-134673999D03*
X151692501Y-136573999D03*
X151692501Y-133205999D03*
X151692501Y-131305999D03*
X149660501Y-131310999D03*
X149660501Y-133210999D03*
X149660501Y-136573999D03*
X149660501Y-134673999D03*
D15*
X145982501Y-130289999D03*
X147882501Y-130289999D03*
X146109501Y-137592499D03*
X148009501Y-137592499D03*
X148009501Y-132321999D03*
X146109501Y-132321999D03*
D16*
X140857501Y-124695499D03*
X140857501Y-126595499D03*
X140857501Y-123227499D03*
X140857501Y-121327499D03*
X138825501Y-121332499D03*
X138825501Y-123232499D03*
X138825501Y-126595499D03*
X138825501Y-124695499D03*
D15*
X135147501Y-120311499D03*
X137047501Y-120311499D03*
X135274501Y-127613999D03*
X137174501Y-127613999D03*
X137174501Y-122343499D03*
X135274501Y-122343499D03*
D16*
X140853001Y-134686999D03*
X140853001Y-136586999D03*
X140853001Y-133218999D03*
X140853001Y-131318999D03*
X138821001Y-131323999D03*
X138821001Y-133223999D03*
X138821001Y-136586999D03*
X138821001Y-134686999D03*
D15*
X135143001Y-130302999D03*
X137043001Y-130302999D03*
X135270001Y-137605499D03*
X137170001Y-137605499D03*
X137170001Y-132334999D03*
X135270001Y-132334999D03*
D16*
X129678001Y-124666499D03*
X129678001Y-126566499D03*
X129678001Y-123198499D03*
X129678001Y-121298499D03*
X127646001Y-121303499D03*
X127646001Y-123203499D03*
X127646001Y-126566499D03*
X127646001Y-124666499D03*
D15*
X123968001Y-120282499D03*
X125868001Y-120282499D03*
X124095001Y-127584999D03*
X125995001Y-127584999D03*
X125995001Y-122314499D03*
X124095001Y-122314499D03*
D16*
X129594501Y-134726999D03*
X129594501Y-136626999D03*
X129594501Y-133258999D03*
X129594501Y-131358999D03*
X127562501Y-131363999D03*
X127562501Y-133263999D03*
X127562501Y-136626999D03*
X127562501Y-134726999D03*
D15*
X123884501Y-130342999D03*
X125784501Y-130342999D03*
X124011501Y-137645499D03*
X125911501Y-137645499D03*
X125911501Y-132374999D03*
X124011501Y-132374999D03*
D16*
X118378501Y-114651999D03*
X118378501Y-116551999D03*
X118378501Y-113183999D03*
X118378501Y-111283999D03*
X116346501Y-111288999D03*
X116346501Y-113188999D03*
X116346501Y-116551999D03*
X116346501Y-114651999D03*
D15*
X112668501Y-110267999D03*
X114568501Y-110267999D03*
X112795501Y-117570499D03*
X114695501Y-117570499D03*
X114695501Y-112299999D03*
X112795501Y-112299999D03*
D16*
X118358501Y-124610999D03*
X118358501Y-126510999D03*
X118358501Y-123142999D03*
X118358501Y-121242999D03*
X116326501Y-121247999D03*
X116326501Y-123147999D03*
X116326501Y-126510999D03*
X116326501Y-124610999D03*
D15*
X112648501Y-120226999D03*
X114548501Y-120226999D03*
X112775501Y-127529499D03*
X114675501Y-127529499D03*
X114675501Y-122258999D03*
X112775501Y-122258999D03*
D16*
X118298501Y-134707499D03*
X118298501Y-136607499D03*
X118298501Y-133239499D03*
X118298501Y-131339499D03*
X116266501Y-131344499D03*
X116266501Y-133244499D03*
X116266501Y-136607499D03*
X116266501Y-134707499D03*
D15*
X112588501Y-130323499D03*
X114488501Y-130323499D03*
X112715501Y-137625999D03*
X114615501Y-137625999D03*
X114615501Y-132355499D03*
X112715501Y-132355499D03*
D14*
X157516001Y-124024499D03*
X158816001Y-124024499D03*
X158166001Y-125924499D03*
X158816001Y-125924499D03*
X157516001Y-125924499D03*
X157592000Y-114175500D03*
X158892000Y-114175500D03*
X158242000Y-116075500D03*
X158892000Y-116075500D03*
X157592000Y-116075500D03*
X157539501Y-134093499D03*
X158839501Y-134093499D03*
X158189501Y-135993499D03*
X158839501Y-135993499D03*
X157539501Y-135993499D03*
X146470501Y-134038999D03*
X147770501Y-134038999D03*
X147120501Y-135938999D03*
X147770501Y-135938999D03*
X146470501Y-135938999D03*
X135635501Y-124060499D03*
X136935501Y-124060499D03*
X136285501Y-125960499D03*
X136935501Y-125960499D03*
X135635501Y-125960499D03*
X135631001Y-134051999D03*
X136931001Y-134051999D03*
X136281001Y-135951999D03*
X136931001Y-135951999D03*
X135631001Y-135951999D03*
X124456001Y-124031499D03*
X125756001Y-124031499D03*
X125106001Y-125931499D03*
X125756001Y-125931499D03*
X124456001Y-125931499D03*
X124372501Y-134091999D03*
X125672501Y-134091999D03*
X125022501Y-135991999D03*
X125672501Y-135991999D03*
X124372501Y-135991999D03*
X113156501Y-114016999D03*
X114456501Y-114016999D03*
X113806501Y-115916999D03*
X114456501Y-115916999D03*
X113156501Y-115916999D03*
X113136501Y-123975999D03*
X114436501Y-123975999D03*
X113786501Y-125875999D03*
X114436501Y-125875999D03*
X113136501Y-125875999D03*
X113076501Y-134072499D03*
X114376501Y-134072499D03*
X113726501Y-135972499D03*
X114376501Y-135972499D03*
X113076501Y-135972499D03*
M02*
