G04 #@! TF.GenerationSoftware,KiCad,Pcbnew,5.1.5-52549c5~84~ubuntu16.04.1*
G04 #@! TF.CreationDate,2019-12-28T13:07:50-05:00*
G04 #@! TF.ProjectId,Chassis_Strain,43686173-7369-4735-9f53-747261696e2e,rev?*
G04 #@! TF.SameCoordinates,Original*
G04 #@! TF.FileFunction,Soldermask,Top*
G04 #@! TF.FilePolarity,Negative*
%FSLAX46Y46*%
G04 Gerber Fmt 4.6, Leading zero omitted, Abs format (unit mm)*
G04 Created by KiCad (PCBNEW 5.1.5-52549c5~84~ubuntu16.04.1) date 2019-12-28 13:07:50*
%MOMM*%
%LPD*%
G04 APERTURE LIST*
%ADD10C,1.000000*%
G04 APERTURE END LIST*
D10*
G36*
X135840473Y-143216938D02*
G01*
X135968049Y-143269782D01*
X136082859Y-143346495D01*
X136180505Y-143444141D01*
X136257218Y-143558951D01*
X136310062Y-143686527D01*
X136337000Y-143821956D01*
X136337000Y-143960044D01*
X136310062Y-144095473D01*
X136257218Y-144223049D01*
X136180505Y-144337859D01*
X136082859Y-144435505D01*
X135968049Y-144512218D01*
X135840473Y-144565062D01*
X135705044Y-144592000D01*
X135566956Y-144592000D01*
X135431527Y-144565062D01*
X135303951Y-144512218D01*
X135189141Y-144435505D01*
X135091495Y-144337859D01*
X135014782Y-144223049D01*
X134961938Y-144095473D01*
X134935000Y-143960044D01*
X134935000Y-143821956D01*
X134961938Y-143686527D01*
X135014782Y-143558951D01*
X135091495Y-143444141D01*
X135189141Y-143346495D01*
X135303951Y-143269782D01*
X135431527Y-143216938D01*
X135566956Y-143190000D01*
X135705044Y-143190000D01*
X135840473Y-143216938D01*
G37*
G36*
X156160473Y-143216938D02*
G01*
X156288049Y-143269782D01*
X156402859Y-143346495D01*
X156500505Y-143444141D01*
X156577218Y-143558951D01*
X156630062Y-143686527D01*
X156657000Y-143821956D01*
X156657000Y-143960044D01*
X156630062Y-144095473D01*
X156577218Y-144223049D01*
X156500505Y-144337859D01*
X156402859Y-144435505D01*
X156288049Y-144512218D01*
X156160473Y-144565062D01*
X156025044Y-144592000D01*
X155886956Y-144592000D01*
X155751527Y-144565062D01*
X155623951Y-144512218D01*
X155509141Y-144435505D01*
X155411495Y-144337859D01*
X155334782Y-144223049D01*
X155281938Y-144095473D01*
X155255000Y-143960044D01*
X155255000Y-143821956D01*
X155281938Y-143686527D01*
X155334782Y-143558951D01*
X155411495Y-143444141D01*
X155509141Y-143346495D01*
X155623951Y-143269782D01*
X155751527Y-143216938D01*
X155886956Y-143190000D01*
X156025044Y-143190000D01*
X156160473Y-143216938D01*
G37*
G36*
X124664473Y-143216938D02*
G01*
X124792049Y-143269782D01*
X124906859Y-143346495D01*
X125004505Y-143444141D01*
X125081218Y-143558951D01*
X125134062Y-143686527D01*
X125161000Y-143821956D01*
X125161000Y-143960044D01*
X125134062Y-144095473D01*
X125081218Y-144223049D01*
X125004505Y-144337859D01*
X124906859Y-144435505D01*
X124792049Y-144512218D01*
X124664473Y-144565062D01*
X124529044Y-144592000D01*
X124390956Y-144592000D01*
X124255527Y-144565062D01*
X124127951Y-144512218D01*
X124013141Y-144435505D01*
X123915495Y-144337859D01*
X123838782Y-144223049D01*
X123785938Y-144095473D01*
X123759000Y-143960044D01*
X123759000Y-143821956D01*
X123785938Y-143686527D01*
X123838782Y-143558951D01*
X123915495Y-143444141D01*
X124013141Y-143346495D01*
X124127951Y-143269782D01*
X124255527Y-143216938D01*
X124390956Y-143190000D01*
X124529044Y-143190000D01*
X124664473Y-143216938D01*
G37*
G36*
X122124473Y-143216938D02*
G01*
X122252049Y-143269782D01*
X122366859Y-143346495D01*
X122464505Y-143444141D01*
X122541218Y-143558951D01*
X122594062Y-143686527D01*
X122621000Y-143821956D01*
X122621000Y-143960044D01*
X122594062Y-144095473D01*
X122541218Y-144223049D01*
X122464505Y-144337859D01*
X122366859Y-144435505D01*
X122252049Y-144512218D01*
X122124473Y-144565062D01*
X121989044Y-144592000D01*
X121850956Y-144592000D01*
X121715527Y-144565062D01*
X121587951Y-144512218D01*
X121473141Y-144435505D01*
X121375495Y-144337859D01*
X121298782Y-144223049D01*
X121245938Y-144095473D01*
X121219000Y-143960044D01*
X121219000Y-143821956D01*
X121245938Y-143686527D01*
X121298782Y-143558951D01*
X121375495Y-143444141D01*
X121473141Y-143346495D01*
X121587951Y-143269782D01*
X121715527Y-143216938D01*
X121850956Y-143190000D01*
X121989044Y-143190000D01*
X122124473Y-143216938D01*
G37*
G36*
X119584473Y-143216938D02*
G01*
X119712049Y-143269782D01*
X119826859Y-143346495D01*
X119924505Y-143444141D01*
X120001218Y-143558951D01*
X120054062Y-143686527D01*
X120081000Y-143821956D01*
X120081000Y-143960044D01*
X120054062Y-144095473D01*
X120001218Y-144223049D01*
X119924505Y-144337859D01*
X119826859Y-144435505D01*
X119712049Y-144512218D01*
X119584473Y-144565062D01*
X119449044Y-144592000D01*
X119310956Y-144592000D01*
X119175527Y-144565062D01*
X119047951Y-144512218D01*
X118933141Y-144435505D01*
X118835495Y-144337859D01*
X118758782Y-144223049D01*
X118705938Y-144095473D01*
X118679000Y-143960044D01*
X118679000Y-143821956D01*
X118705938Y-143686527D01*
X118758782Y-143558951D01*
X118835495Y-143444141D01*
X118933141Y-143346495D01*
X119047951Y-143269782D01*
X119175527Y-143216938D01*
X119310956Y-143190000D01*
X119449044Y-143190000D01*
X119584473Y-143216938D01*
G37*
G36*
X117044473Y-143216938D02*
G01*
X117172049Y-143269782D01*
X117286859Y-143346495D01*
X117384505Y-143444141D01*
X117461218Y-143558951D01*
X117514062Y-143686527D01*
X117541000Y-143821956D01*
X117541000Y-143960044D01*
X117514062Y-144095473D01*
X117461218Y-144223049D01*
X117384505Y-144337859D01*
X117286859Y-144435505D01*
X117172049Y-144512218D01*
X117044473Y-144565062D01*
X116909044Y-144592000D01*
X116770956Y-144592000D01*
X116635527Y-144565062D01*
X116507951Y-144512218D01*
X116393141Y-144435505D01*
X116295495Y-144337859D01*
X116218782Y-144223049D01*
X116165938Y-144095473D01*
X116139000Y-143960044D01*
X116139000Y-143821956D01*
X116165938Y-143686527D01*
X116218782Y-143558951D01*
X116295495Y-143444141D01*
X116393141Y-143346495D01*
X116507951Y-143269782D01*
X116635527Y-143216938D01*
X116770956Y-143190000D01*
X116909044Y-143190000D01*
X117044473Y-143216938D01*
G37*
G36*
X158700473Y-143216938D02*
G01*
X158828049Y-143269782D01*
X158942859Y-143346495D01*
X159040505Y-143444141D01*
X159117218Y-143558951D01*
X159170062Y-143686527D01*
X159197000Y-143821956D01*
X159197000Y-143960044D01*
X159170062Y-144095473D01*
X159117218Y-144223049D01*
X159040505Y-144337859D01*
X158942859Y-144435505D01*
X158828049Y-144512218D01*
X158700473Y-144565062D01*
X158565044Y-144592000D01*
X158426956Y-144592000D01*
X158291527Y-144565062D01*
X158163951Y-144512218D01*
X158049141Y-144435505D01*
X157951495Y-144337859D01*
X157874782Y-144223049D01*
X157821938Y-144095473D01*
X157795000Y-143960044D01*
X157795000Y-143821956D01*
X157821938Y-143686527D01*
X157874782Y-143558951D01*
X157951495Y-143444141D01*
X158049141Y-143346495D01*
X158163951Y-143269782D01*
X158291527Y-143216938D01*
X158426956Y-143190000D01*
X158565044Y-143190000D01*
X158700473Y-143216938D01*
G37*
G36*
X153620473Y-143216938D02*
G01*
X153748049Y-143269782D01*
X153862859Y-143346495D01*
X153960505Y-143444141D01*
X154037218Y-143558951D01*
X154090062Y-143686527D01*
X154117000Y-143821956D01*
X154117000Y-143960044D01*
X154090062Y-144095473D01*
X154037218Y-144223049D01*
X153960505Y-144337859D01*
X153862859Y-144435505D01*
X153748049Y-144512218D01*
X153620473Y-144565062D01*
X153485044Y-144592000D01*
X153346956Y-144592000D01*
X153211527Y-144565062D01*
X153083951Y-144512218D01*
X152969141Y-144435505D01*
X152871495Y-144337859D01*
X152794782Y-144223049D01*
X152741938Y-144095473D01*
X152715000Y-143960044D01*
X152715000Y-143821956D01*
X152741938Y-143686527D01*
X152794782Y-143558951D01*
X152871495Y-143444141D01*
X152969141Y-143346495D01*
X153083951Y-143269782D01*
X153211527Y-143216938D01*
X153346956Y-143190000D01*
X153485044Y-143190000D01*
X153620473Y-143216938D01*
G37*
G36*
X148540473Y-143216938D02*
G01*
X148668049Y-143269782D01*
X148782859Y-143346495D01*
X148880505Y-143444141D01*
X148957218Y-143558951D01*
X149010062Y-143686527D01*
X149037000Y-143821956D01*
X149037000Y-143960044D01*
X149010062Y-144095473D01*
X148957218Y-144223049D01*
X148880505Y-144337859D01*
X148782859Y-144435505D01*
X148668049Y-144512218D01*
X148540473Y-144565062D01*
X148405044Y-144592000D01*
X148266956Y-144592000D01*
X148131527Y-144565062D01*
X148003951Y-144512218D01*
X147889141Y-144435505D01*
X147791495Y-144337859D01*
X147714782Y-144223049D01*
X147661938Y-144095473D01*
X147635000Y-143960044D01*
X147635000Y-143821956D01*
X147661938Y-143686527D01*
X147714782Y-143558951D01*
X147791495Y-143444141D01*
X147889141Y-143346495D01*
X148003951Y-143269782D01*
X148131527Y-143216938D01*
X148266956Y-143190000D01*
X148405044Y-143190000D01*
X148540473Y-143216938D01*
G37*
G36*
X151080473Y-143216938D02*
G01*
X151208049Y-143269782D01*
X151322859Y-143346495D01*
X151420505Y-143444141D01*
X151497218Y-143558951D01*
X151550062Y-143686527D01*
X151577000Y-143821956D01*
X151577000Y-143960044D01*
X151550062Y-144095473D01*
X151497218Y-144223049D01*
X151420505Y-144337859D01*
X151322859Y-144435505D01*
X151208049Y-144512218D01*
X151080473Y-144565062D01*
X150945044Y-144592000D01*
X150806956Y-144592000D01*
X150671527Y-144565062D01*
X150543951Y-144512218D01*
X150429141Y-144435505D01*
X150331495Y-144337859D01*
X150254782Y-144223049D01*
X150201938Y-144095473D01*
X150175000Y-143960044D01*
X150175000Y-143821956D01*
X150201938Y-143686527D01*
X150254782Y-143558951D01*
X150331495Y-143444141D01*
X150429141Y-143346495D01*
X150543951Y-143269782D01*
X150671527Y-143216938D01*
X150806956Y-143190000D01*
X150945044Y-143190000D01*
X151080473Y-143216938D01*
G37*
G36*
X138380473Y-143216938D02*
G01*
X138508049Y-143269782D01*
X138622859Y-143346495D01*
X138720505Y-143444141D01*
X138797218Y-143558951D01*
X138850062Y-143686527D01*
X138877000Y-143821956D01*
X138877000Y-143960044D01*
X138850062Y-144095473D01*
X138797218Y-144223049D01*
X138720505Y-144337859D01*
X138622859Y-144435505D01*
X138508049Y-144512218D01*
X138380473Y-144565062D01*
X138245044Y-144592000D01*
X138106956Y-144592000D01*
X137971527Y-144565062D01*
X137843951Y-144512218D01*
X137729141Y-144435505D01*
X137631495Y-144337859D01*
X137554782Y-144223049D01*
X137501938Y-144095473D01*
X137475000Y-143960044D01*
X137475000Y-143821956D01*
X137501938Y-143686527D01*
X137554782Y-143558951D01*
X137631495Y-143444141D01*
X137729141Y-143346495D01*
X137843951Y-143269782D01*
X137971527Y-143216938D01*
X138106956Y-143190000D01*
X138245044Y-143190000D01*
X138380473Y-143216938D01*
G37*
G36*
X140920473Y-143216938D02*
G01*
X141048049Y-143269782D01*
X141162859Y-143346495D01*
X141260505Y-143444141D01*
X141337218Y-143558951D01*
X141390062Y-143686527D01*
X141417000Y-143821956D01*
X141417000Y-143960044D01*
X141390062Y-144095473D01*
X141337218Y-144223049D01*
X141260505Y-144337859D01*
X141162859Y-144435505D01*
X141048049Y-144512218D01*
X140920473Y-144565062D01*
X140785044Y-144592000D01*
X140646956Y-144592000D01*
X140511527Y-144565062D01*
X140383951Y-144512218D01*
X140269141Y-144435505D01*
X140171495Y-144337859D01*
X140094782Y-144223049D01*
X140041938Y-144095473D01*
X140015000Y-143960044D01*
X140015000Y-143821956D01*
X140041938Y-143686527D01*
X140094782Y-143558951D01*
X140171495Y-143444141D01*
X140269141Y-143346495D01*
X140383951Y-143269782D01*
X140511527Y-143216938D01*
X140646956Y-143190000D01*
X140785044Y-143190000D01*
X140920473Y-143216938D01*
G37*
G36*
X146000473Y-143216938D02*
G01*
X146128049Y-143269782D01*
X146242859Y-143346495D01*
X146340505Y-143444141D01*
X146417218Y-143558951D01*
X146470062Y-143686527D01*
X146497000Y-143821956D01*
X146497000Y-143960044D01*
X146470062Y-144095473D01*
X146417218Y-144223049D01*
X146340505Y-144337859D01*
X146242859Y-144435505D01*
X146128049Y-144512218D01*
X146000473Y-144565062D01*
X145865044Y-144592000D01*
X145726956Y-144592000D01*
X145591527Y-144565062D01*
X145463951Y-144512218D01*
X145349141Y-144435505D01*
X145251495Y-144337859D01*
X145174782Y-144223049D01*
X145121938Y-144095473D01*
X145095000Y-143960044D01*
X145095000Y-143821956D01*
X145121938Y-143686527D01*
X145174782Y-143558951D01*
X145251495Y-143444141D01*
X145349141Y-143346495D01*
X145463951Y-143269782D01*
X145591527Y-143216938D01*
X145726956Y-143190000D01*
X145865044Y-143190000D01*
X146000473Y-143216938D01*
G37*
G36*
X143460473Y-143216938D02*
G01*
X143588049Y-143269782D01*
X143702859Y-143346495D01*
X143800505Y-143444141D01*
X143877218Y-143558951D01*
X143930062Y-143686527D01*
X143957000Y-143821956D01*
X143957000Y-143960044D01*
X143930062Y-144095473D01*
X143877218Y-144223049D01*
X143800505Y-144337859D01*
X143702859Y-144435505D01*
X143588049Y-144512218D01*
X143460473Y-144565062D01*
X143325044Y-144592000D01*
X143186956Y-144592000D01*
X143051527Y-144565062D01*
X142923951Y-144512218D01*
X142809141Y-144435505D01*
X142711495Y-144337859D01*
X142634782Y-144223049D01*
X142581938Y-144095473D01*
X142555000Y-143960044D01*
X142555000Y-143821956D01*
X142581938Y-143686527D01*
X142634782Y-143558951D01*
X142711495Y-143444141D01*
X142809141Y-143346495D01*
X142923951Y-143269782D01*
X143051527Y-143216938D01*
X143186956Y-143190000D01*
X143325044Y-143190000D01*
X143460473Y-143216938D01*
G37*
G36*
X154890473Y-140676938D02*
G01*
X155018049Y-140729782D01*
X155132859Y-140806495D01*
X155230505Y-140904141D01*
X155307218Y-141018951D01*
X155360062Y-141146527D01*
X155387000Y-141281956D01*
X155387000Y-141420044D01*
X155360062Y-141555473D01*
X155307218Y-141683049D01*
X155230505Y-141797859D01*
X155132859Y-141895505D01*
X155018049Y-141972218D01*
X154890473Y-142025062D01*
X154755044Y-142052000D01*
X154616956Y-142052000D01*
X154481527Y-142025062D01*
X154353951Y-141972218D01*
X154239141Y-141895505D01*
X154141495Y-141797859D01*
X154064782Y-141683049D01*
X154011938Y-141555473D01*
X153985000Y-141420044D01*
X153985000Y-141281956D01*
X154011938Y-141146527D01*
X154064782Y-141018951D01*
X154141495Y-140904141D01*
X154239141Y-140806495D01*
X154353951Y-140729782D01*
X154481527Y-140676938D01*
X154616956Y-140650000D01*
X154755044Y-140650000D01*
X154890473Y-140676938D01*
G37*
G36*
X120854473Y-140676938D02*
G01*
X120982049Y-140729782D01*
X121096859Y-140806495D01*
X121194505Y-140904141D01*
X121271218Y-141018951D01*
X121324062Y-141146527D01*
X121351000Y-141281956D01*
X121351000Y-141420044D01*
X121324062Y-141555473D01*
X121271218Y-141683049D01*
X121194505Y-141797859D01*
X121096859Y-141895505D01*
X120982049Y-141972218D01*
X120854473Y-142025062D01*
X120719044Y-142052000D01*
X120580956Y-142052000D01*
X120445527Y-142025062D01*
X120317951Y-141972218D01*
X120203141Y-141895505D01*
X120105495Y-141797859D01*
X120028782Y-141683049D01*
X119975938Y-141555473D01*
X119949000Y-141420044D01*
X119949000Y-141281956D01*
X119975938Y-141146527D01*
X120028782Y-141018951D01*
X120105495Y-140904141D01*
X120203141Y-140806495D01*
X120317951Y-140729782D01*
X120445527Y-140676938D01*
X120580956Y-140650000D01*
X120719044Y-140650000D01*
X120854473Y-140676938D01*
G37*
G36*
X137110473Y-140676938D02*
G01*
X137238049Y-140729782D01*
X137352859Y-140806495D01*
X137450505Y-140904141D01*
X137527218Y-141018951D01*
X137580062Y-141146527D01*
X137607000Y-141281956D01*
X137607000Y-141420044D01*
X137580062Y-141555473D01*
X137527218Y-141683049D01*
X137450505Y-141797859D01*
X137352859Y-141895505D01*
X137238049Y-141972218D01*
X137110473Y-142025062D01*
X136975044Y-142052000D01*
X136836956Y-142052000D01*
X136701527Y-142025062D01*
X136573951Y-141972218D01*
X136459141Y-141895505D01*
X136361495Y-141797859D01*
X136284782Y-141683049D01*
X136231938Y-141555473D01*
X136205000Y-141420044D01*
X136205000Y-141281956D01*
X136231938Y-141146527D01*
X136284782Y-141018951D01*
X136361495Y-140904141D01*
X136459141Y-140806495D01*
X136573951Y-140729782D01*
X136701527Y-140676938D01*
X136836956Y-140650000D01*
X136975044Y-140650000D01*
X137110473Y-140676938D01*
G37*
G36*
X152350473Y-140676938D02*
G01*
X152478049Y-140729782D01*
X152592859Y-140806495D01*
X152690505Y-140904141D01*
X152767218Y-141018951D01*
X152820062Y-141146527D01*
X152847000Y-141281956D01*
X152847000Y-141420044D01*
X152820062Y-141555473D01*
X152767218Y-141683049D01*
X152690505Y-141797859D01*
X152592859Y-141895505D01*
X152478049Y-141972218D01*
X152350473Y-142025062D01*
X152215044Y-142052000D01*
X152076956Y-142052000D01*
X151941527Y-142025062D01*
X151813951Y-141972218D01*
X151699141Y-141895505D01*
X151601495Y-141797859D01*
X151524782Y-141683049D01*
X151471938Y-141555473D01*
X151445000Y-141420044D01*
X151445000Y-141281956D01*
X151471938Y-141146527D01*
X151524782Y-141018951D01*
X151601495Y-140904141D01*
X151699141Y-140806495D01*
X151813951Y-140729782D01*
X151941527Y-140676938D01*
X152076956Y-140650000D01*
X152215044Y-140650000D01*
X152350473Y-140676938D01*
G37*
G36*
X147270473Y-140676938D02*
G01*
X147398049Y-140729782D01*
X147512859Y-140806495D01*
X147610505Y-140904141D01*
X147687218Y-141018951D01*
X147740062Y-141146527D01*
X147767000Y-141281956D01*
X147767000Y-141420044D01*
X147740062Y-141555473D01*
X147687218Y-141683049D01*
X147610505Y-141797859D01*
X147512859Y-141895505D01*
X147398049Y-141972218D01*
X147270473Y-142025062D01*
X147135044Y-142052000D01*
X146996956Y-142052000D01*
X146861527Y-142025062D01*
X146733951Y-141972218D01*
X146619141Y-141895505D01*
X146521495Y-141797859D01*
X146444782Y-141683049D01*
X146391938Y-141555473D01*
X146365000Y-141420044D01*
X146365000Y-141281956D01*
X146391938Y-141146527D01*
X146444782Y-141018951D01*
X146521495Y-140904141D01*
X146619141Y-140806495D01*
X146733951Y-140729782D01*
X146861527Y-140676938D01*
X146996956Y-140650000D01*
X147135044Y-140650000D01*
X147270473Y-140676938D01*
G37*
G36*
X157430473Y-140676938D02*
G01*
X157558049Y-140729782D01*
X157672859Y-140806495D01*
X157770505Y-140904141D01*
X157847218Y-141018951D01*
X157900062Y-141146527D01*
X157927000Y-141281956D01*
X157927000Y-141420044D01*
X157900062Y-141555473D01*
X157847218Y-141683049D01*
X157770505Y-141797859D01*
X157672859Y-141895505D01*
X157558049Y-141972218D01*
X157430473Y-142025062D01*
X157295044Y-142052000D01*
X157156956Y-142052000D01*
X157021527Y-142025062D01*
X156893951Y-141972218D01*
X156779141Y-141895505D01*
X156681495Y-141797859D01*
X156604782Y-141683049D01*
X156551938Y-141555473D01*
X156525000Y-141420044D01*
X156525000Y-141281956D01*
X156551938Y-141146527D01*
X156604782Y-141018951D01*
X156681495Y-140904141D01*
X156779141Y-140806495D01*
X156893951Y-140729782D01*
X157021527Y-140676938D01*
X157156956Y-140650000D01*
X157295044Y-140650000D01*
X157430473Y-140676938D01*
G37*
G36*
X149810473Y-140676938D02*
G01*
X149938049Y-140729782D01*
X150052859Y-140806495D01*
X150150505Y-140904141D01*
X150227218Y-141018951D01*
X150280062Y-141146527D01*
X150307000Y-141281956D01*
X150307000Y-141420044D01*
X150280062Y-141555473D01*
X150227218Y-141683049D01*
X150150505Y-141797859D01*
X150052859Y-141895505D01*
X149938049Y-141972218D01*
X149810473Y-142025062D01*
X149675044Y-142052000D01*
X149536956Y-142052000D01*
X149401527Y-142025062D01*
X149273951Y-141972218D01*
X149159141Y-141895505D01*
X149061495Y-141797859D01*
X148984782Y-141683049D01*
X148931938Y-141555473D01*
X148905000Y-141420044D01*
X148905000Y-141281956D01*
X148931938Y-141146527D01*
X148984782Y-141018951D01*
X149061495Y-140904141D01*
X149159141Y-140806495D01*
X149273951Y-140729782D01*
X149401527Y-140676938D01*
X149536956Y-140650000D01*
X149675044Y-140650000D01*
X149810473Y-140676938D01*
G37*
G36*
X159970473Y-140676938D02*
G01*
X160098049Y-140729782D01*
X160212859Y-140806495D01*
X160310505Y-140904141D01*
X160387218Y-141018951D01*
X160440062Y-141146527D01*
X160467000Y-141281956D01*
X160467000Y-141420044D01*
X160440062Y-141555473D01*
X160387218Y-141683049D01*
X160310505Y-141797859D01*
X160212859Y-141895505D01*
X160098049Y-141972218D01*
X159970473Y-142025062D01*
X159835044Y-142052000D01*
X159696956Y-142052000D01*
X159561527Y-142025062D01*
X159433951Y-141972218D01*
X159319141Y-141895505D01*
X159221495Y-141797859D01*
X159144782Y-141683049D01*
X159091938Y-141555473D01*
X159065000Y-141420044D01*
X159065000Y-141281956D01*
X159091938Y-141146527D01*
X159144782Y-141018951D01*
X159221495Y-140904141D01*
X159319141Y-140806495D01*
X159433951Y-140729782D01*
X159561527Y-140676938D01*
X159696956Y-140650000D01*
X159835044Y-140650000D01*
X159970473Y-140676938D01*
G37*
G36*
X118314473Y-140676938D02*
G01*
X118442049Y-140729782D01*
X118556859Y-140806495D01*
X118654505Y-140904141D01*
X118731218Y-141018951D01*
X118784062Y-141146527D01*
X118811000Y-141281956D01*
X118811000Y-141420044D01*
X118784062Y-141555473D01*
X118731218Y-141683049D01*
X118654505Y-141797859D01*
X118556859Y-141895505D01*
X118442049Y-141972218D01*
X118314473Y-142025062D01*
X118179044Y-142052000D01*
X118040956Y-142052000D01*
X117905527Y-142025062D01*
X117777951Y-141972218D01*
X117663141Y-141895505D01*
X117565495Y-141797859D01*
X117488782Y-141683049D01*
X117435938Y-141555473D01*
X117409000Y-141420044D01*
X117409000Y-141281956D01*
X117435938Y-141146527D01*
X117488782Y-141018951D01*
X117565495Y-140904141D01*
X117663141Y-140806495D01*
X117777951Y-140729782D01*
X117905527Y-140676938D01*
X118040956Y-140650000D01*
X118179044Y-140650000D01*
X118314473Y-140676938D01*
G37*
G36*
X144730473Y-140676938D02*
G01*
X144858049Y-140729782D01*
X144972859Y-140806495D01*
X145070505Y-140904141D01*
X145147218Y-141018951D01*
X145200062Y-141146527D01*
X145227000Y-141281956D01*
X145227000Y-141420044D01*
X145200062Y-141555473D01*
X145147218Y-141683049D01*
X145070505Y-141797859D01*
X144972859Y-141895505D01*
X144858049Y-141972218D01*
X144730473Y-142025062D01*
X144595044Y-142052000D01*
X144456956Y-142052000D01*
X144321527Y-142025062D01*
X144193951Y-141972218D01*
X144079141Y-141895505D01*
X143981495Y-141797859D01*
X143904782Y-141683049D01*
X143851938Y-141555473D01*
X143825000Y-141420044D01*
X143825000Y-141281956D01*
X143851938Y-141146527D01*
X143904782Y-141018951D01*
X143981495Y-140904141D01*
X144079141Y-140806495D01*
X144193951Y-140729782D01*
X144321527Y-140676938D01*
X144456956Y-140650000D01*
X144595044Y-140650000D01*
X144730473Y-140676938D01*
G37*
G36*
X125934473Y-140676938D02*
G01*
X126062049Y-140729782D01*
X126176859Y-140806495D01*
X126274505Y-140904141D01*
X126351218Y-141018951D01*
X126404062Y-141146527D01*
X126431000Y-141281956D01*
X126431000Y-141420044D01*
X126404062Y-141555473D01*
X126351218Y-141683049D01*
X126274505Y-141797859D01*
X126176859Y-141895505D01*
X126062049Y-141972218D01*
X125934473Y-142025062D01*
X125799044Y-142052000D01*
X125660956Y-142052000D01*
X125525527Y-142025062D01*
X125397951Y-141972218D01*
X125283141Y-141895505D01*
X125185495Y-141797859D01*
X125108782Y-141683049D01*
X125055938Y-141555473D01*
X125029000Y-141420044D01*
X125029000Y-141281956D01*
X125055938Y-141146527D01*
X125108782Y-141018951D01*
X125185495Y-140904141D01*
X125283141Y-140806495D01*
X125397951Y-140729782D01*
X125525527Y-140676938D01*
X125660956Y-140650000D01*
X125799044Y-140650000D01*
X125934473Y-140676938D01*
G37*
G36*
X142190473Y-140676938D02*
G01*
X142318049Y-140729782D01*
X142432859Y-140806495D01*
X142530505Y-140904141D01*
X142607218Y-141018951D01*
X142660062Y-141146527D01*
X142687000Y-141281956D01*
X142687000Y-141420044D01*
X142660062Y-141555473D01*
X142607218Y-141683049D01*
X142530505Y-141797859D01*
X142432859Y-141895505D01*
X142318049Y-141972218D01*
X142190473Y-142025062D01*
X142055044Y-142052000D01*
X141916956Y-142052000D01*
X141781527Y-142025062D01*
X141653951Y-141972218D01*
X141539141Y-141895505D01*
X141441495Y-141797859D01*
X141364782Y-141683049D01*
X141311938Y-141555473D01*
X141285000Y-141420044D01*
X141285000Y-141281956D01*
X141311938Y-141146527D01*
X141364782Y-141018951D01*
X141441495Y-140904141D01*
X141539141Y-140806495D01*
X141653951Y-140729782D01*
X141781527Y-140676938D01*
X141916956Y-140650000D01*
X142055044Y-140650000D01*
X142190473Y-140676938D01*
G37*
G36*
X123394473Y-140676938D02*
G01*
X123522049Y-140729782D01*
X123636859Y-140806495D01*
X123734505Y-140904141D01*
X123811218Y-141018951D01*
X123864062Y-141146527D01*
X123891000Y-141281956D01*
X123891000Y-141420044D01*
X123864062Y-141555473D01*
X123811218Y-141683049D01*
X123734505Y-141797859D01*
X123636859Y-141895505D01*
X123522049Y-141972218D01*
X123394473Y-142025062D01*
X123259044Y-142052000D01*
X123120956Y-142052000D01*
X122985527Y-142025062D01*
X122857951Y-141972218D01*
X122743141Y-141895505D01*
X122645495Y-141797859D01*
X122568782Y-141683049D01*
X122515938Y-141555473D01*
X122489000Y-141420044D01*
X122489000Y-141281956D01*
X122515938Y-141146527D01*
X122568782Y-141018951D01*
X122645495Y-140904141D01*
X122743141Y-140806495D01*
X122857951Y-140729782D01*
X122985527Y-140676938D01*
X123120956Y-140650000D01*
X123259044Y-140650000D01*
X123394473Y-140676938D01*
G37*
G36*
X139650473Y-140676938D02*
G01*
X139778049Y-140729782D01*
X139892859Y-140806495D01*
X139990505Y-140904141D01*
X140067218Y-141018951D01*
X140120062Y-141146527D01*
X140147000Y-141281956D01*
X140147000Y-141420044D01*
X140120062Y-141555473D01*
X140067218Y-141683049D01*
X139990505Y-141797859D01*
X139892859Y-141895505D01*
X139778049Y-141972218D01*
X139650473Y-142025062D01*
X139515044Y-142052000D01*
X139376956Y-142052000D01*
X139241527Y-142025062D01*
X139113951Y-141972218D01*
X138999141Y-141895505D01*
X138901495Y-141797859D01*
X138824782Y-141683049D01*
X138771938Y-141555473D01*
X138745000Y-141420044D01*
X138745000Y-141281956D01*
X138771938Y-141146527D01*
X138824782Y-141018951D01*
X138901495Y-140904141D01*
X138999141Y-140806495D01*
X139113951Y-140729782D01*
X139241527Y-140676938D01*
X139376956Y-140650000D01*
X139515044Y-140650000D01*
X139650473Y-140676938D01*
G37*
G36*
X157579501Y-138347999D02*
G01*
X156777501Y-138347999D01*
X156777501Y-136945999D01*
X157579501Y-136945999D01*
X157579501Y-138347999D01*
G37*
G36*
X159479501Y-138347999D02*
G01*
X158677501Y-138347999D01*
X158677501Y-136945999D01*
X159479501Y-136945999D01*
X159479501Y-138347999D01*
G37*
G36*
X124412501Y-138346499D02*
G01*
X123610501Y-138346499D01*
X123610501Y-136944499D01*
X124412501Y-136944499D01*
X124412501Y-138346499D01*
G37*
G36*
X126312501Y-138346499D02*
G01*
X125510501Y-138346499D01*
X125510501Y-136944499D01*
X126312501Y-136944499D01*
X126312501Y-138346499D01*
G37*
G36*
X113116501Y-138326999D02*
G01*
X112314501Y-138326999D01*
X112314501Y-136924999D01*
X113116501Y-136924999D01*
X113116501Y-138326999D01*
G37*
G36*
X115016501Y-138326999D02*
G01*
X114214501Y-138326999D01*
X114214501Y-136924999D01*
X115016501Y-136924999D01*
X115016501Y-138326999D01*
G37*
G36*
X137571001Y-138306499D02*
G01*
X136769001Y-138306499D01*
X136769001Y-136904499D01*
X137571001Y-136904499D01*
X137571001Y-138306499D01*
G37*
G36*
X135671001Y-138306499D02*
G01*
X134869001Y-138306499D01*
X134869001Y-136904499D01*
X135671001Y-136904499D01*
X135671001Y-138306499D01*
G37*
G36*
X148410501Y-138293499D02*
G01*
X147608501Y-138293499D01*
X147608501Y-136891499D01*
X148410501Y-136891499D01*
X148410501Y-138293499D01*
G37*
G36*
X146510501Y-138293499D02*
G01*
X145708501Y-138293499D01*
X145708501Y-136891499D01*
X146510501Y-136891499D01*
X146510501Y-138293499D01*
G37*
G36*
X163462501Y-137029499D02*
G01*
X162060501Y-137029499D01*
X162060501Y-136227499D01*
X163462501Y-136227499D01*
X163462501Y-137029499D01*
G37*
G36*
X161430501Y-137029499D02*
G01*
X160028501Y-137029499D01*
X160028501Y-136227499D01*
X161430501Y-136227499D01*
X161430501Y-137029499D01*
G37*
G36*
X128263501Y-137027999D02*
G01*
X126861501Y-137027999D01*
X126861501Y-136225999D01*
X128263501Y-136225999D01*
X128263501Y-137027999D01*
G37*
G36*
X130295501Y-137027999D02*
G01*
X128893501Y-137027999D01*
X128893501Y-136225999D01*
X130295501Y-136225999D01*
X130295501Y-137027999D01*
G37*
G36*
X116967501Y-137008499D02*
G01*
X115565501Y-137008499D01*
X115565501Y-136206499D01*
X116967501Y-136206499D01*
X116967501Y-137008499D01*
G37*
G36*
X118999501Y-137008499D02*
G01*
X117597501Y-137008499D01*
X117597501Y-136206499D01*
X118999501Y-136206499D01*
X118999501Y-137008499D01*
G37*
G36*
X141554001Y-136987999D02*
G01*
X140152001Y-136987999D01*
X140152001Y-136185999D01*
X141554001Y-136185999D01*
X141554001Y-136987999D01*
G37*
G36*
X139522001Y-136987999D02*
G01*
X138120001Y-136987999D01*
X138120001Y-136185999D01*
X139522001Y-136185999D01*
X139522001Y-136987999D01*
G37*
G36*
X150361501Y-136974999D02*
G01*
X148959501Y-136974999D01*
X148959501Y-136172999D01*
X150361501Y-136172999D01*
X150361501Y-136974999D01*
G37*
G36*
X152393501Y-136974999D02*
G01*
X150991501Y-136974999D01*
X150991501Y-136172999D01*
X152393501Y-136172999D01*
X152393501Y-136974999D01*
G37*
G36*
X156198501Y-136419999D02*
G01*
X154846501Y-136419999D01*
X154846501Y-135317999D01*
X156198501Y-135317999D01*
X156198501Y-136419999D01*
G37*
G36*
X123031501Y-136418499D02*
G01*
X121679501Y-136418499D01*
X121679501Y-135316499D01*
X123031501Y-135316499D01*
X123031501Y-136418499D01*
G37*
G36*
X111735501Y-136398999D02*
G01*
X110383501Y-136398999D01*
X110383501Y-135296999D01*
X111735501Y-135296999D01*
X111735501Y-136398999D01*
G37*
G36*
X134290001Y-136378499D02*
G01*
X132938001Y-136378499D01*
X132938001Y-135276499D01*
X134290001Y-135276499D01*
X134290001Y-136378499D01*
G37*
G36*
X159090501Y-136369499D02*
G01*
X157288501Y-136369499D01*
X157288501Y-135617499D01*
X159090501Y-135617499D01*
X159090501Y-136369499D01*
G37*
G36*
X125923501Y-136367999D02*
G01*
X124121501Y-136367999D01*
X124121501Y-135615999D01*
X125923501Y-135615999D01*
X125923501Y-136367999D01*
G37*
G36*
X145129501Y-136365499D02*
G01*
X143777501Y-136365499D01*
X143777501Y-135263499D01*
X145129501Y-135263499D01*
X145129501Y-136365499D01*
G37*
G36*
X114627501Y-136348499D02*
G01*
X112825501Y-136348499D01*
X112825501Y-135596499D01*
X114627501Y-135596499D01*
X114627501Y-136348499D01*
G37*
G36*
X137182001Y-136327999D02*
G01*
X135380001Y-136327999D01*
X135380001Y-135575999D01*
X137182001Y-135575999D01*
X137182001Y-136327999D01*
G37*
G36*
X148021501Y-136314999D02*
G01*
X146219501Y-136314999D01*
X146219501Y-135562999D01*
X148021501Y-135562999D01*
X148021501Y-136314999D01*
G37*
G36*
X161430501Y-135129499D02*
G01*
X160028501Y-135129499D01*
X160028501Y-134327499D01*
X161430501Y-134327499D01*
X161430501Y-135129499D01*
G37*
G36*
X163462501Y-135129499D02*
G01*
X162060501Y-135129499D01*
X162060501Y-134327499D01*
X163462501Y-134327499D01*
X163462501Y-135129499D01*
G37*
G36*
X128263501Y-135127999D02*
G01*
X126861501Y-135127999D01*
X126861501Y-134325999D01*
X128263501Y-134325999D01*
X128263501Y-135127999D01*
G37*
G36*
X130295501Y-135127999D02*
G01*
X128893501Y-135127999D01*
X128893501Y-134325999D01*
X130295501Y-134325999D01*
X130295501Y-135127999D01*
G37*
G36*
X118999501Y-135108499D02*
G01*
X117597501Y-135108499D01*
X117597501Y-134306499D01*
X118999501Y-134306499D01*
X118999501Y-135108499D01*
G37*
G36*
X116967501Y-135108499D02*
G01*
X115565501Y-135108499D01*
X115565501Y-134306499D01*
X116967501Y-134306499D01*
X116967501Y-135108499D01*
G37*
G36*
X141554001Y-135087999D02*
G01*
X140152001Y-135087999D01*
X140152001Y-134285999D01*
X141554001Y-134285999D01*
X141554001Y-135087999D01*
G37*
G36*
X139522001Y-135087999D02*
G01*
X138120001Y-135087999D01*
X138120001Y-134285999D01*
X139522001Y-134285999D01*
X139522001Y-135087999D01*
G37*
G36*
X152393501Y-135074999D02*
G01*
X150991501Y-135074999D01*
X150991501Y-134272999D01*
X152393501Y-134272999D01*
X152393501Y-135074999D01*
G37*
G36*
X150361501Y-135074999D02*
G01*
X148959501Y-135074999D01*
X148959501Y-134272999D01*
X150361501Y-134272999D01*
X150361501Y-135074999D01*
G37*
G36*
X157790501Y-134469499D02*
G01*
X157288501Y-134469499D01*
X157288501Y-133717499D01*
X157790501Y-133717499D01*
X157790501Y-134469499D01*
G37*
G36*
X159090501Y-134469499D02*
G01*
X158588501Y-134469499D01*
X158588501Y-133717499D01*
X159090501Y-133717499D01*
X159090501Y-134469499D01*
G37*
G36*
X124623501Y-134467999D02*
G01*
X124121501Y-134467999D01*
X124121501Y-133715999D01*
X124623501Y-133715999D01*
X124623501Y-134467999D01*
G37*
G36*
X125923501Y-134467999D02*
G01*
X125421501Y-134467999D01*
X125421501Y-133715999D01*
X125923501Y-133715999D01*
X125923501Y-134467999D01*
G37*
G36*
X113327501Y-134448499D02*
G01*
X112825501Y-134448499D01*
X112825501Y-133696499D01*
X113327501Y-133696499D01*
X113327501Y-134448499D01*
G37*
G36*
X114627501Y-134448499D02*
G01*
X114125501Y-134448499D01*
X114125501Y-133696499D01*
X114627501Y-133696499D01*
X114627501Y-134448499D01*
G37*
G36*
X135882001Y-134427999D02*
G01*
X135380001Y-134427999D01*
X135380001Y-133675999D01*
X135882001Y-133675999D01*
X135882001Y-134427999D01*
G37*
G36*
X137182001Y-134427999D02*
G01*
X136680001Y-134427999D01*
X136680001Y-133675999D01*
X137182001Y-133675999D01*
X137182001Y-134427999D01*
G37*
G36*
X156198501Y-134419999D02*
G01*
X154846501Y-134419999D01*
X154846501Y-133317999D01*
X156198501Y-133317999D01*
X156198501Y-134419999D01*
G37*
G36*
X123031501Y-134418499D02*
G01*
X121679501Y-134418499D01*
X121679501Y-133316499D01*
X123031501Y-133316499D01*
X123031501Y-134418499D01*
G37*
G36*
X148021501Y-134414999D02*
G01*
X147519501Y-134414999D01*
X147519501Y-133662999D01*
X148021501Y-133662999D01*
X148021501Y-134414999D01*
G37*
G36*
X146721501Y-134414999D02*
G01*
X146219501Y-134414999D01*
X146219501Y-133662999D01*
X146721501Y-133662999D01*
X146721501Y-134414999D01*
G37*
G36*
X111735501Y-134398999D02*
G01*
X110383501Y-134398999D01*
X110383501Y-133296999D01*
X111735501Y-133296999D01*
X111735501Y-134398999D01*
G37*
G36*
X134290001Y-134378499D02*
G01*
X132938001Y-134378499D01*
X132938001Y-133276499D01*
X134290001Y-133276499D01*
X134290001Y-134378499D01*
G37*
G36*
X145129501Y-134365499D02*
G01*
X143777501Y-134365499D01*
X143777501Y-133263499D01*
X145129501Y-133263499D01*
X145129501Y-134365499D01*
G37*
G36*
X161430501Y-133666499D02*
G01*
X160028501Y-133666499D01*
X160028501Y-132864499D01*
X161430501Y-132864499D01*
X161430501Y-133666499D01*
G37*
G36*
X128263501Y-133664999D02*
G01*
X126861501Y-133664999D01*
X126861501Y-132862999D01*
X128263501Y-132862999D01*
X128263501Y-133664999D01*
G37*
G36*
X163462501Y-133661499D02*
G01*
X162060501Y-133661499D01*
X162060501Y-132859499D01*
X163462501Y-132859499D01*
X163462501Y-133661499D01*
G37*
G36*
X130295501Y-133659999D02*
G01*
X128893501Y-133659999D01*
X128893501Y-132857999D01*
X130295501Y-132857999D01*
X130295501Y-133659999D01*
G37*
G36*
X116967501Y-133645499D02*
G01*
X115565501Y-133645499D01*
X115565501Y-132843499D01*
X116967501Y-132843499D01*
X116967501Y-133645499D01*
G37*
G36*
X118999501Y-133640499D02*
G01*
X117597501Y-133640499D01*
X117597501Y-132838499D01*
X118999501Y-132838499D01*
X118999501Y-133640499D01*
G37*
G36*
X139522001Y-133624999D02*
G01*
X138120001Y-133624999D01*
X138120001Y-132822999D01*
X139522001Y-132822999D01*
X139522001Y-133624999D01*
G37*
G36*
X141554001Y-133619999D02*
G01*
X140152001Y-133619999D01*
X140152001Y-132817999D01*
X141554001Y-132817999D01*
X141554001Y-133619999D01*
G37*
G36*
X150361501Y-133611999D02*
G01*
X148959501Y-133611999D01*
X148959501Y-132809999D01*
X150361501Y-132809999D01*
X150361501Y-133611999D01*
G37*
G36*
X152393501Y-133606999D02*
G01*
X150991501Y-133606999D01*
X150991501Y-132804999D01*
X152393501Y-132804999D01*
X152393501Y-133606999D01*
G37*
G36*
X157579501Y-133077499D02*
G01*
X156777501Y-133077499D01*
X156777501Y-131675499D01*
X157579501Y-131675499D01*
X157579501Y-133077499D01*
G37*
G36*
X159479501Y-133077499D02*
G01*
X158677501Y-133077499D01*
X158677501Y-131675499D01*
X159479501Y-131675499D01*
X159479501Y-133077499D01*
G37*
G36*
X124412501Y-133075999D02*
G01*
X123610501Y-133075999D01*
X123610501Y-131673999D01*
X124412501Y-131673999D01*
X124412501Y-133075999D01*
G37*
G36*
X126312501Y-133075999D02*
G01*
X125510501Y-133075999D01*
X125510501Y-131673999D01*
X126312501Y-131673999D01*
X126312501Y-133075999D01*
G37*
G36*
X115016501Y-133056499D02*
G01*
X114214501Y-133056499D01*
X114214501Y-131654499D01*
X115016501Y-131654499D01*
X115016501Y-133056499D01*
G37*
G36*
X113116501Y-133056499D02*
G01*
X112314501Y-133056499D01*
X112314501Y-131654499D01*
X113116501Y-131654499D01*
X113116501Y-133056499D01*
G37*
G36*
X137571001Y-133035999D02*
G01*
X136769001Y-133035999D01*
X136769001Y-131633999D01*
X137571001Y-131633999D01*
X137571001Y-133035999D01*
G37*
G36*
X135671001Y-133035999D02*
G01*
X134869001Y-133035999D01*
X134869001Y-131633999D01*
X135671001Y-131633999D01*
X135671001Y-133035999D01*
G37*
G36*
X148410501Y-133022999D02*
G01*
X147608501Y-133022999D01*
X147608501Y-131620999D01*
X148410501Y-131620999D01*
X148410501Y-133022999D01*
G37*
G36*
X146510501Y-133022999D02*
G01*
X145708501Y-133022999D01*
X145708501Y-131620999D01*
X146510501Y-131620999D01*
X146510501Y-133022999D01*
G37*
G36*
X161430501Y-131766499D02*
G01*
X160028501Y-131766499D01*
X160028501Y-130964499D01*
X161430501Y-130964499D01*
X161430501Y-131766499D01*
G37*
G36*
X128263501Y-131764999D02*
G01*
X126861501Y-131764999D01*
X126861501Y-130962999D01*
X128263501Y-130962999D01*
X128263501Y-131764999D01*
G37*
G36*
X163462501Y-131761499D02*
G01*
X162060501Y-131761499D01*
X162060501Y-130959499D01*
X163462501Y-130959499D01*
X163462501Y-131761499D01*
G37*
G36*
X130295501Y-131759999D02*
G01*
X128893501Y-131759999D01*
X128893501Y-130957999D01*
X130295501Y-130957999D01*
X130295501Y-131759999D01*
G37*
G36*
X116967501Y-131745499D02*
G01*
X115565501Y-131745499D01*
X115565501Y-130943499D01*
X116967501Y-130943499D01*
X116967501Y-131745499D01*
G37*
G36*
X118999501Y-131740499D02*
G01*
X117597501Y-131740499D01*
X117597501Y-130938499D01*
X118999501Y-130938499D01*
X118999501Y-131740499D01*
G37*
G36*
X139522001Y-131724999D02*
G01*
X138120001Y-131724999D01*
X138120001Y-130922999D01*
X139522001Y-130922999D01*
X139522001Y-131724999D01*
G37*
G36*
X141554001Y-131719999D02*
G01*
X140152001Y-131719999D01*
X140152001Y-130917999D01*
X141554001Y-130917999D01*
X141554001Y-131719999D01*
G37*
G36*
X150361501Y-131711999D02*
G01*
X148959501Y-131711999D01*
X148959501Y-130909999D01*
X150361501Y-130909999D01*
X150361501Y-131711999D01*
G37*
G36*
X152393501Y-131706999D02*
G01*
X150991501Y-131706999D01*
X150991501Y-130904999D01*
X152393501Y-130904999D01*
X152393501Y-131706999D01*
G37*
G36*
X159352501Y-131045499D02*
G01*
X158550501Y-131045499D01*
X158550501Y-129643499D01*
X159352501Y-129643499D01*
X159352501Y-131045499D01*
G37*
G36*
X157452501Y-131045499D02*
G01*
X156650501Y-131045499D01*
X156650501Y-129643499D01*
X157452501Y-129643499D01*
X157452501Y-131045499D01*
G37*
G36*
X124285501Y-131043999D02*
G01*
X123483501Y-131043999D01*
X123483501Y-129641999D01*
X124285501Y-129641999D01*
X124285501Y-131043999D01*
G37*
G36*
X126185501Y-131043999D02*
G01*
X125383501Y-131043999D01*
X125383501Y-129641999D01*
X126185501Y-129641999D01*
X126185501Y-131043999D01*
G37*
G36*
X114889501Y-131024499D02*
G01*
X114087501Y-131024499D01*
X114087501Y-129622499D01*
X114889501Y-129622499D01*
X114889501Y-131024499D01*
G37*
G36*
X112989501Y-131024499D02*
G01*
X112187501Y-131024499D01*
X112187501Y-129622499D01*
X112989501Y-129622499D01*
X112989501Y-131024499D01*
G37*
G36*
X137444001Y-131003999D02*
G01*
X136642001Y-131003999D01*
X136642001Y-129601999D01*
X137444001Y-129601999D01*
X137444001Y-131003999D01*
G37*
G36*
X135544001Y-131003999D02*
G01*
X134742001Y-131003999D01*
X134742001Y-129601999D01*
X135544001Y-129601999D01*
X135544001Y-131003999D01*
G37*
G36*
X148283501Y-130990999D02*
G01*
X147481501Y-130990999D01*
X147481501Y-129588999D01*
X148283501Y-129588999D01*
X148283501Y-130990999D01*
G37*
G36*
X146383501Y-130990999D02*
G01*
X145581501Y-130990999D01*
X145581501Y-129588999D01*
X146383501Y-129588999D01*
X146383501Y-130990999D01*
G37*
G36*
X137575501Y-128314999D02*
G01*
X136773501Y-128314999D01*
X136773501Y-126912999D01*
X137575501Y-126912999D01*
X137575501Y-128314999D01*
G37*
G36*
X135675501Y-128314999D02*
G01*
X134873501Y-128314999D01*
X134873501Y-126912999D01*
X135675501Y-126912999D01*
X135675501Y-128314999D01*
G37*
G36*
X124496001Y-128285999D02*
G01*
X123694001Y-128285999D01*
X123694001Y-126883999D01*
X124496001Y-126883999D01*
X124496001Y-128285999D01*
G37*
G36*
X126396001Y-128285999D02*
G01*
X125594001Y-128285999D01*
X125594001Y-126883999D01*
X126396001Y-126883999D01*
X126396001Y-128285999D01*
G37*
G36*
X157556001Y-128278999D02*
G01*
X156754001Y-128278999D01*
X156754001Y-126876999D01*
X157556001Y-126876999D01*
X157556001Y-128278999D01*
G37*
G36*
X159456001Y-128278999D02*
G01*
X158654001Y-128278999D01*
X158654001Y-126876999D01*
X159456001Y-126876999D01*
X159456001Y-128278999D01*
G37*
G36*
X148449500Y-128240500D02*
G01*
X147647500Y-128240500D01*
X147647500Y-126838500D01*
X148449500Y-126838500D01*
X148449500Y-128240500D01*
G37*
G36*
X146549500Y-128240500D02*
G01*
X145747500Y-128240500D01*
X145747500Y-126838500D01*
X146549500Y-126838500D01*
X146549500Y-128240500D01*
G37*
G36*
X113176501Y-128230499D02*
G01*
X112374501Y-128230499D01*
X112374501Y-126828499D01*
X113176501Y-126828499D01*
X113176501Y-128230499D01*
G37*
G36*
X115076501Y-128230499D02*
G01*
X114274501Y-128230499D01*
X114274501Y-126828499D01*
X115076501Y-126828499D01*
X115076501Y-128230499D01*
G37*
G36*
X139526501Y-126996499D02*
G01*
X138124501Y-126996499D01*
X138124501Y-126194499D01*
X139526501Y-126194499D01*
X139526501Y-126996499D01*
G37*
G36*
X141558501Y-126996499D02*
G01*
X140156501Y-126996499D01*
X140156501Y-126194499D01*
X141558501Y-126194499D01*
X141558501Y-126996499D01*
G37*
G36*
X128347001Y-126967499D02*
G01*
X126945001Y-126967499D01*
X126945001Y-126165499D01*
X128347001Y-126165499D01*
X128347001Y-126967499D01*
G37*
G36*
X130379001Y-126967499D02*
G01*
X128977001Y-126967499D01*
X128977001Y-126165499D01*
X130379001Y-126165499D01*
X130379001Y-126967499D01*
G37*
G36*
X161407001Y-126960499D02*
G01*
X160005001Y-126960499D01*
X160005001Y-126158499D01*
X161407001Y-126158499D01*
X161407001Y-126960499D01*
G37*
G36*
X163439001Y-126960499D02*
G01*
X162037001Y-126960499D01*
X162037001Y-126158499D01*
X163439001Y-126158499D01*
X163439001Y-126960499D01*
G37*
G36*
X150400500Y-126922000D02*
G01*
X148998500Y-126922000D01*
X148998500Y-126120000D01*
X150400500Y-126120000D01*
X150400500Y-126922000D01*
G37*
G36*
X152432500Y-126922000D02*
G01*
X151030500Y-126922000D01*
X151030500Y-126120000D01*
X152432500Y-126120000D01*
X152432500Y-126922000D01*
G37*
G36*
X119059501Y-126911999D02*
G01*
X117657501Y-126911999D01*
X117657501Y-126109999D01*
X119059501Y-126109999D01*
X119059501Y-126911999D01*
G37*
G36*
X117027501Y-126911999D02*
G01*
X115625501Y-126911999D01*
X115625501Y-126109999D01*
X117027501Y-126109999D01*
X117027501Y-126911999D01*
G37*
G36*
X134294501Y-126386999D02*
G01*
X132942501Y-126386999D01*
X132942501Y-125284999D01*
X134294501Y-125284999D01*
X134294501Y-126386999D01*
G37*
G36*
X123115001Y-126357999D02*
G01*
X121763001Y-126357999D01*
X121763001Y-125255999D01*
X123115001Y-125255999D01*
X123115001Y-126357999D01*
G37*
G36*
X156175001Y-126350999D02*
G01*
X154823001Y-126350999D01*
X154823001Y-125248999D01*
X156175001Y-125248999D01*
X156175001Y-126350999D01*
G37*
G36*
X137186501Y-126336499D02*
G01*
X135384501Y-126336499D01*
X135384501Y-125584499D01*
X137186501Y-125584499D01*
X137186501Y-126336499D01*
G37*
G36*
X145168500Y-126312500D02*
G01*
X143816500Y-126312500D01*
X143816500Y-125210500D01*
X145168500Y-125210500D01*
X145168500Y-126312500D01*
G37*
G36*
X126007001Y-126307499D02*
G01*
X124205001Y-126307499D01*
X124205001Y-125555499D01*
X126007001Y-125555499D01*
X126007001Y-126307499D01*
G37*
G36*
X111795501Y-126302499D02*
G01*
X110443501Y-126302499D01*
X110443501Y-125200499D01*
X111795501Y-125200499D01*
X111795501Y-126302499D01*
G37*
G36*
X159067001Y-126300499D02*
G01*
X157265001Y-126300499D01*
X157265001Y-125548499D01*
X159067001Y-125548499D01*
X159067001Y-126300499D01*
G37*
G36*
X148060500Y-126262000D02*
G01*
X146258500Y-126262000D01*
X146258500Y-125510000D01*
X148060500Y-125510000D01*
X148060500Y-126262000D01*
G37*
G36*
X114687501Y-126251999D02*
G01*
X112885501Y-126251999D01*
X112885501Y-125499999D01*
X114687501Y-125499999D01*
X114687501Y-126251999D01*
G37*
G36*
X141558501Y-125096499D02*
G01*
X140156501Y-125096499D01*
X140156501Y-124294499D01*
X141558501Y-124294499D01*
X141558501Y-125096499D01*
G37*
G36*
X139526501Y-125096499D02*
G01*
X138124501Y-125096499D01*
X138124501Y-124294499D01*
X139526501Y-124294499D01*
X139526501Y-125096499D01*
G37*
G36*
X128347001Y-125067499D02*
G01*
X126945001Y-125067499D01*
X126945001Y-124265499D01*
X128347001Y-124265499D01*
X128347001Y-125067499D01*
G37*
G36*
X130379001Y-125067499D02*
G01*
X128977001Y-125067499D01*
X128977001Y-124265499D01*
X130379001Y-124265499D01*
X130379001Y-125067499D01*
G37*
G36*
X161407001Y-125060499D02*
G01*
X160005001Y-125060499D01*
X160005001Y-124258499D01*
X161407001Y-124258499D01*
X161407001Y-125060499D01*
G37*
G36*
X163439001Y-125060499D02*
G01*
X162037001Y-125060499D01*
X162037001Y-124258499D01*
X163439001Y-124258499D01*
X163439001Y-125060499D01*
G37*
G36*
X150400500Y-125022000D02*
G01*
X148998500Y-125022000D01*
X148998500Y-124220000D01*
X150400500Y-124220000D01*
X150400500Y-125022000D01*
G37*
G36*
X152432500Y-125022000D02*
G01*
X151030500Y-125022000D01*
X151030500Y-124220000D01*
X152432500Y-124220000D01*
X152432500Y-125022000D01*
G37*
G36*
X117027501Y-125011999D02*
G01*
X115625501Y-125011999D01*
X115625501Y-124209999D01*
X117027501Y-124209999D01*
X117027501Y-125011999D01*
G37*
G36*
X119059501Y-125011999D02*
G01*
X117657501Y-125011999D01*
X117657501Y-124209999D01*
X119059501Y-124209999D01*
X119059501Y-125011999D01*
G37*
G36*
X137186501Y-124436499D02*
G01*
X136684501Y-124436499D01*
X136684501Y-123684499D01*
X137186501Y-123684499D01*
X137186501Y-124436499D01*
G37*
G36*
X135886501Y-124436499D02*
G01*
X135384501Y-124436499D01*
X135384501Y-123684499D01*
X135886501Y-123684499D01*
X135886501Y-124436499D01*
G37*
G36*
X124707001Y-124407499D02*
G01*
X124205001Y-124407499D01*
X124205001Y-123655499D01*
X124707001Y-123655499D01*
X124707001Y-124407499D01*
G37*
G36*
X126007001Y-124407499D02*
G01*
X125505001Y-124407499D01*
X125505001Y-123655499D01*
X126007001Y-123655499D01*
X126007001Y-124407499D01*
G37*
G36*
X157767001Y-124400499D02*
G01*
X157265001Y-124400499D01*
X157265001Y-123648499D01*
X157767001Y-123648499D01*
X157767001Y-124400499D01*
G37*
G36*
X159067001Y-124400499D02*
G01*
X158565001Y-124400499D01*
X158565001Y-123648499D01*
X159067001Y-123648499D01*
X159067001Y-124400499D01*
G37*
G36*
X134294501Y-124386999D02*
G01*
X132942501Y-124386999D01*
X132942501Y-123284999D01*
X134294501Y-123284999D01*
X134294501Y-124386999D01*
G37*
G36*
X146760500Y-124362000D02*
G01*
X146258500Y-124362000D01*
X146258500Y-123610000D01*
X146760500Y-123610000D01*
X146760500Y-124362000D01*
G37*
G36*
X148060500Y-124362000D02*
G01*
X147558500Y-124362000D01*
X147558500Y-123610000D01*
X148060500Y-123610000D01*
X148060500Y-124362000D01*
G37*
G36*
X123115001Y-124357999D02*
G01*
X121763001Y-124357999D01*
X121763001Y-123255999D01*
X123115001Y-123255999D01*
X123115001Y-124357999D01*
G37*
G36*
X113387501Y-124351999D02*
G01*
X112885501Y-124351999D01*
X112885501Y-123599999D01*
X113387501Y-123599999D01*
X113387501Y-124351999D01*
G37*
G36*
X114687501Y-124351999D02*
G01*
X114185501Y-124351999D01*
X114185501Y-123599999D01*
X114687501Y-123599999D01*
X114687501Y-124351999D01*
G37*
G36*
X156175001Y-124350999D02*
G01*
X154823001Y-124350999D01*
X154823001Y-123248999D01*
X156175001Y-123248999D01*
X156175001Y-124350999D01*
G37*
G36*
X145168500Y-124312500D02*
G01*
X143816500Y-124312500D01*
X143816500Y-123210500D01*
X145168500Y-123210500D01*
X145168500Y-124312500D01*
G37*
G36*
X111795501Y-124302499D02*
G01*
X110443501Y-124302499D01*
X110443501Y-123200499D01*
X111795501Y-123200499D01*
X111795501Y-124302499D01*
G37*
G36*
X139526501Y-123633499D02*
G01*
X138124501Y-123633499D01*
X138124501Y-122831499D01*
X139526501Y-122831499D01*
X139526501Y-123633499D01*
G37*
G36*
X141558501Y-123628499D02*
G01*
X140156501Y-123628499D01*
X140156501Y-122826499D01*
X141558501Y-122826499D01*
X141558501Y-123628499D01*
G37*
G36*
X128347001Y-123604499D02*
G01*
X126945001Y-123604499D01*
X126945001Y-122802499D01*
X128347001Y-122802499D01*
X128347001Y-123604499D01*
G37*
G36*
X130379001Y-123599499D02*
G01*
X128977001Y-123599499D01*
X128977001Y-122797499D01*
X130379001Y-122797499D01*
X130379001Y-123599499D01*
G37*
G36*
X161407001Y-123597499D02*
G01*
X160005001Y-123597499D01*
X160005001Y-122795499D01*
X161407001Y-122795499D01*
X161407001Y-123597499D01*
G37*
G36*
X163439001Y-123592499D02*
G01*
X162037001Y-123592499D01*
X162037001Y-122790499D01*
X163439001Y-122790499D01*
X163439001Y-123592499D01*
G37*
G36*
X150400500Y-123559000D02*
G01*
X148998500Y-123559000D01*
X148998500Y-122757000D01*
X150400500Y-122757000D01*
X150400500Y-123559000D01*
G37*
G36*
X152432500Y-123554000D02*
G01*
X151030500Y-123554000D01*
X151030500Y-122752000D01*
X152432500Y-122752000D01*
X152432500Y-123554000D01*
G37*
G36*
X117027501Y-123548999D02*
G01*
X115625501Y-123548999D01*
X115625501Y-122746999D01*
X117027501Y-122746999D01*
X117027501Y-123548999D01*
G37*
G36*
X119059501Y-123543999D02*
G01*
X117657501Y-123543999D01*
X117657501Y-122741999D01*
X119059501Y-122741999D01*
X119059501Y-123543999D01*
G37*
G36*
X135675501Y-123044499D02*
G01*
X134873501Y-123044499D01*
X134873501Y-121642499D01*
X135675501Y-121642499D01*
X135675501Y-123044499D01*
G37*
G36*
X137575501Y-123044499D02*
G01*
X136773501Y-123044499D01*
X136773501Y-121642499D01*
X137575501Y-121642499D01*
X137575501Y-123044499D01*
G37*
G36*
X124496001Y-123015499D02*
G01*
X123694001Y-123015499D01*
X123694001Y-121613499D01*
X124496001Y-121613499D01*
X124496001Y-123015499D01*
G37*
G36*
X126396001Y-123015499D02*
G01*
X125594001Y-123015499D01*
X125594001Y-121613499D01*
X126396001Y-121613499D01*
X126396001Y-123015499D01*
G37*
G36*
X159456001Y-123008499D02*
G01*
X158654001Y-123008499D01*
X158654001Y-121606499D01*
X159456001Y-121606499D01*
X159456001Y-123008499D01*
G37*
G36*
X157556001Y-123008499D02*
G01*
X156754001Y-123008499D01*
X156754001Y-121606499D01*
X157556001Y-121606499D01*
X157556001Y-123008499D01*
G37*
G36*
X146549500Y-122970000D02*
G01*
X145747500Y-122970000D01*
X145747500Y-121568000D01*
X146549500Y-121568000D01*
X146549500Y-122970000D01*
G37*
G36*
X148449500Y-122970000D02*
G01*
X147647500Y-122970000D01*
X147647500Y-121568000D01*
X148449500Y-121568000D01*
X148449500Y-122970000D01*
G37*
G36*
X115076501Y-122959999D02*
G01*
X114274501Y-122959999D01*
X114274501Y-121557999D01*
X115076501Y-121557999D01*
X115076501Y-122959999D01*
G37*
G36*
X113176501Y-122959999D02*
G01*
X112374501Y-122959999D01*
X112374501Y-121557999D01*
X113176501Y-121557999D01*
X113176501Y-122959999D01*
G37*
G36*
X139526501Y-121733499D02*
G01*
X138124501Y-121733499D01*
X138124501Y-120931499D01*
X139526501Y-120931499D01*
X139526501Y-121733499D01*
G37*
G36*
X141558501Y-121728499D02*
G01*
X140156501Y-121728499D01*
X140156501Y-120926499D01*
X141558501Y-120926499D01*
X141558501Y-121728499D01*
G37*
G36*
X128347001Y-121704499D02*
G01*
X126945001Y-121704499D01*
X126945001Y-120902499D01*
X128347001Y-120902499D01*
X128347001Y-121704499D01*
G37*
G36*
X130379001Y-121699499D02*
G01*
X128977001Y-121699499D01*
X128977001Y-120897499D01*
X130379001Y-120897499D01*
X130379001Y-121699499D01*
G37*
G36*
X161407001Y-121697499D02*
G01*
X160005001Y-121697499D01*
X160005001Y-120895499D01*
X161407001Y-120895499D01*
X161407001Y-121697499D01*
G37*
G36*
X163439001Y-121692499D02*
G01*
X162037001Y-121692499D01*
X162037001Y-120890499D01*
X163439001Y-120890499D01*
X163439001Y-121692499D01*
G37*
G36*
X150400500Y-121659000D02*
G01*
X148998500Y-121659000D01*
X148998500Y-120857000D01*
X150400500Y-120857000D01*
X150400500Y-121659000D01*
G37*
G36*
X152432500Y-121654000D02*
G01*
X151030500Y-121654000D01*
X151030500Y-120852000D01*
X152432500Y-120852000D01*
X152432500Y-121654000D01*
G37*
G36*
X117027501Y-121648999D02*
G01*
X115625501Y-121648999D01*
X115625501Y-120846999D01*
X117027501Y-120846999D01*
X117027501Y-121648999D01*
G37*
G36*
X119059501Y-121643999D02*
G01*
X117657501Y-121643999D01*
X117657501Y-120841999D01*
X119059501Y-120841999D01*
X119059501Y-121643999D01*
G37*
G36*
X135548501Y-121012499D02*
G01*
X134746501Y-121012499D01*
X134746501Y-119610499D01*
X135548501Y-119610499D01*
X135548501Y-121012499D01*
G37*
G36*
X137448501Y-121012499D02*
G01*
X136646501Y-121012499D01*
X136646501Y-119610499D01*
X137448501Y-119610499D01*
X137448501Y-121012499D01*
G37*
G36*
X124369001Y-120983499D02*
G01*
X123567001Y-120983499D01*
X123567001Y-119581499D01*
X124369001Y-119581499D01*
X124369001Y-120983499D01*
G37*
G36*
X126269001Y-120983499D02*
G01*
X125467001Y-120983499D01*
X125467001Y-119581499D01*
X126269001Y-119581499D01*
X126269001Y-120983499D01*
G37*
G36*
X157429001Y-120976499D02*
G01*
X156627001Y-120976499D01*
X156627001Y-119574499D01*
X157429001Y-119574499D01*
X157429001Y-120976499D01*
G37*
G36*
X159329001Y-120976499D02*
G01*
X158527001Y-120976499D01*
X158527001Y-119574499D01*
X159329001Y-119574499D01*
X159329001Y-120976499D01*
G37*
G36*
X148322500Y-120938000D02*
G01*
X147520500Y-120938000D01*
X147520500Y-119536000D01*
X148322500Y-119536000D01*
X148322500Y-120938000D01*
G37*
G36*
X146422500Y-120938000D02*
G01*
X145620500Y-120938000D01*
X145620500Y-119536000D01*
X146422500Y-119536000D01*
X146422500Y-120938000D01*
G37*
G36*
X114949501Y-120927999D02*
G01*
X114147501Y-120927999D01*
X114147501Y-119525999D01*
X114949501Y-119525999D01*
X114949501Y-120927999D01*
G37*
G36*
X113049501Y-120927999D02*
G01*
X112247501Y-120927999D01*
X112247501Y-119525999D01*
X113049501Y-119525999D01*
X113049501Y-120927999D01*
G37*
G36*
X157632000Y-118430000D02*
G01*
X156830000Y-118430000D01*
X156830000Y-117028000D01*
X157632000Y-117028000D01*
X157632000Y-118430000D01*
G37*
G36*
X159532000Y-118430000D02*
G01*
X158730000Y-118430000D01*
X158730000Y-117028000D01*
X159532000Y-117028000D01*
X159532000Y-118430000D01*
G37*
G36*
X113196501Y-118271499D02*
G01*
X112394501Y-118271499D01*
X112394501Y-116869499D01*
X113196501Y-116869499D01*
X113196501Y-118271499D01*
G37*
G36*
X115096501Y-118271499D02*
G01*
X114294501Y-118271499D01*
X114294501Y-116869499D01*
X115096501Y-116869499D01*
X115096501Y-118271499D01*
G37*
G36*
X161483000Y-117111500D02*
G01*
X160081000Y-117111500D01*
X160081000Y-116309500D01*
X161483000Y-116309500D01*
X161483000Y-117111500D01*
G37*
G36*
X163515000Y-117111500D02*
G01*
X162113000Y-117111500D01*
X162113000Y-116309500D01*
X163515000Y-116309500D01*
X163515000Y-117111500D01*
G37*
G36*
X117047501Y-116952999D02*
G01*
X115645501Y-116952999D01*
X115645501Y-116150999D01*
X117047501Y-116150999D01*
X117047501Y-116952999D01*
G37*
G36*
X119079501Y-116952999D02*
G01*
X117677501Y-116952999D01*
X117677501Y-116150999D01*
X119079501Y-116150999D01*
X119079501Y-116952999D01*
G37*
G36*
X153257000Y-116547000D02*
G01*
X151555000Y-116547000D01*
X151555000Y-111545000D01*
X153257000Y-111545000D01*
X153257000Y-116547000D01*
G37*
G36*
X147657000Y-116547000D02*
G01*
X145955000Y-116547000D01*
X145955000Y-111545000D01*
X147657000Y-111545000D01*
X147657000Y-116547000D01*
G37*
G36*
X156251000Y-116502000D02*
G01*
X154899000Y-116502000D01*
X154899000Y-115400000D01*
X156251000Y-115400000D01*
X156251000Y-116502000D01*
G37*
G36*
X159143000Y-116451500D02*
G01*
X157341000Y-116451500D01*
X157341000Y-115699500D01*
X159143000Y-115699500D01*
X159143000Y-116451500D01*
G37*
G36*
X111815501Y-116343499D02*
G01*
X110463501Y-116343499D01*
X110463501Y-115241499D01*
X111815501Y-115241499D01*
X111815501Y-116343499D01*
G37*
G36*
X114707501Y-116292999D02*
G01*
X112905501Y-116292999D01*
X112905501Y-115540999D01*
X114707501Y-115540999D01*
X114707501Y-116292999D01*
G37*
G36*
X122825000Y-115332000D02*
G01*
X121523000Y-115332000D01*
X121523000Y-114030000D01*
X122825000Y-114030000D01*
X122825000Y-115332000D01*
G37*
G36*
X163515000Y-115211500D02*
G01*
X162113000Y-115211500D01*
X162113000Y-114409500D01*
X163515000Y-114409500D01*
X163515000Y-115211500D01*
G37*
G36*
X161483000Y-115211500D02*
G01*
X160081000Y-115211500D01*
X160081000Y-114409500D01*
X161483000Y-114409500D01*
X161483000Y-115211500D01*
G37*
G36*
X119079501Y-115052999D02*
G01*
X117677501Y-115052999D01*
X117677501Y-114250999D01*
X119079501Y-114250999D01*
X119079501Y-115052999D01*
G37*
G36*
X117047501Y-115052999D02*
G01*
X115645501Y-115052999D01*
X115645501Y-114250999D01*
X117047501Y-114250999D01*
X117047501Y-115052999D01*
G37*
G36*
X124877000Y-114701000D02*
G01*
X123475000Y-114701000D01*
X123475000Y-113899000D01*
X124877000Y-113899000D01*
X124877000Y-114701000D01*
G37*
G36*
X157843000Y-114551500D02*
G01*
X157341000Y-114551500D01*
X157341000Y-113799500D01*
X157843000Y-113799500D01*
X157843000Y-114551500D01*
G37*
G36*
X159143000Y-114551500D02*
G01*
X158641000Y-114551500D01*
X158641000Y-113799500D01*
X159143000Y-113799500D01*
X159143000Y-114551500D01*
G37*
G36*
X156251000Y-114502000D02*
G01*
X154899000Y-114502000D01*
X154899000Y-113400000D01*
X156251000Y-113400000D01*
X156251000Y-114502000D01*
G37*
G36*
X113407501Y-114392999D02*
G01*
X112905501Y-114392999D01*
X112905501Y-113640999D01*
X113407501Y-113640999D01*
X113407501Y-114392999D01*
G37*
G36*
X114707501Y-114392999D02*
G01*
X114205501Y-114392999D01*
X114205501Y-113640999D01*
X114707501Y-113640999D01*
X114707501Y-114392999D01*
G37*
G36*
X111815501Y-114343499D02*
G01*
X110463501Y-114343499D01*
X110463501Y-113241499D01*
X111815501Y-113241499D01*
X111815501Y-114343499D01*
G37*
G36*
X161483000Y-113748500D02*
G01*
X160081000Y-113748500D01*
X160081000Y-112946500D01*
X161483000Y-112946500D01*
X161483000Y-113748500D01*
G37*
G36*
X163515000Y-113743500D02*
G01*
X162113000Y-113743500D01*
X162113000Y-112941500D01*
X163515000Y-112941500D01*
X163515000Y-113743500D01*
G37*
G36*
X117047501Y-113589999D02*
G01*
X115645501Y-113589999D01*
X115645501Y-112787999D01*
X117047501Y-112787999D01*
X117047501Y-113589999D01*
G37*
G36*
X119079501Y-113584999D02*
G01*
X117677501Y-113584999D01*
X117677501Y-112782999D01*
X119079501Y-112782999D01*
X119079501Y-113584999D01*
G37*
G36*
X159532000Y-113159500D02*
G01*
X158730000Y-113159500D01*
X158730000Y-111757500D01*
X159532000Y-111757500D01*
X159532000Y-113159500D01*
G37*
G36*
X157632000Y-113159500D02*
G01*
X156830000Y-113159500D01*
X156830000Y-111757500D01*
X157632000Y-111757500D01*
X157632000Y-113159500D01*
G37*
G36*
X122825000Y-113132000D02*
G01*
X121523000Y-113132000D01*
X121523000Y-111830000D01*
X122825000Y-111830000D01*
X122825000Y-113132000D01*
G37*
G36*
X113196501Y-113000999D02*
G01*
X112394501Y-113000999D01*
X112394501Y-111598999D01*
X113196501Y-111598999D01*
X113196501Y-113000999D01*
G37*
G36*
X115096501Y-113000999D02*
G01*
X114294501Y-113000999D01*
X114294501Y-111598999D01*
X115096501Y-111598999D01*
X115096501Y-113000999D01*
G37*
G36*
X124877000Y-112801000D02*
G01*
X123475000Y-112801000D01*
X123475000Y-111999000D01*
X124877000Y-111999000D01*
X124877000Y-112801000D01*
G37*
G36*
X161483000Y-111848500D02*
G01*
X160081000Y-111848500D01*
X160081000Y-111046500D01*
X161483000Y-111046500D01*
X161483000Y-111848500D01*
G37*
G36*
X163515000Y-111843500D02*
G01*
X162113000Y-111843500D01*
X162113000Y-111041500D01*
X163515000Y-111041500D01*
X163515000Y-111843500D01*
G37*
G36*
X117047501Y-111689999D02*
G01*
X115645501Y-111689999D01*
X115645501Y-110887999D01*
X117047501Y-110887999D01*
X117047501Y-111689999D01*
G37*
G36*
X119079501Y-111684999D02*
G01*
X117677501Y-111684999D01*
X117677501Y-110882999D01*
X119079501Y-110882999D01*
X119079501Y-111684999D01*
G37*
G36*
X132246300Y-111402000D02*
G01*
X130364300Y-111402000D01*
X130364300Y-107800000D01*
X132246300Y-107800000D01*
X132246300Y-111402000D01*
G37*
G36*
X137526300Y-111402000D02*
G01*
X135644300Y-111402000D01*
X135644300Y-107800000D01*
X137526300Y-107800000D01*
X137526300Y-111402000D01*
G37*
G36*
X153125500Y-111293000D02*
G01*
X152023500Y-111293000D01*
X152023500Y-109941000D01*
X153125500Y-109941000D01*
X153125500Y-111293000D01*
G37*
G36*
X151125500Y-111293000D02*
G01*
X150023500Y-111293000D01*
X150023500Y-109941000D01*
X151125500Y-109941000D01*
X151125500Y-111293000D01*
G37*
G36*
X123055200Y-111257080D02*
G01*
X121953200Y-111257080D01*
X121953200Y-107955080D01*
X123055200Y-107955080D01*
X123055200Y-111257080D01*
G37*
G36*
X129255200Y-111257080D02*
G01*
X128153200Y-111257080D01*
X128153200Y-107955080D01*
X129255200Y-107955080D01*
X129255200Y-111257080D01*
G37*
G36*
X157505000Y-111127500D02*
G01*
X156703000Y-111127500D01*
X156703000Y-109725500D01*
X157505000Y-109725500D01*
X157505000Y-111127500D01*
G37*
G36*
X159405000Y-111127500D02*
G01*
X158603000Y-111127500D01*
X158603000Y-109725500D01*
X159405000Y-109725500D01*
X159405000Y-111127500D01*
G37*
G36*
X114969501Y-110968999D02*
G01*
X114167501Y-110968999D01*
X114167501Y-109566999D01*
X114969501Y-109566999D01*
X114969501Y-110968999D01*
G37*
G36*
X113069501Y-110968999D02*
G01*
X112267501Y-110968999D01*
X112267501Y-109566999D01*
X113069501Y-109566999D01*
X113069501Y-110968999D01*
G37*
G36*
X153586000Y-108753000D02*
G01*
X152484000Y-108753000D01*
X152484000Y-107401000D01*
X153586000Y-107401000D01*
X153586000Y-108753000D01*
G37*
G36*
X151586000Y-108753000D02*
G01*
X150484000Y-108753000D01*
X150484000Y-107401000D01*
X151586000Y-107401000D01*
X151586000Y-108753000D01*
G37*
G36*
X146777200Y-108456400D02*
G01*
X145475200Y-108456400D01*
X145475200Y-107154400D01*
X146777200Y-107154400D01*
X146777200Y-108456400D01*
G37*
G36*
X155616000Y-107453000D02*
G01*
X154264000Y-107453000D01*
X154264000Y-106351000D01*
X155616000Y-106351000D01*
X155616000Y-107453000D01*
G37*
G36*
X122397800Y-107028500D02*
G01*
X121395800Y-107028500D01*
X121395800Y-104426500D01*
X122397800Y-104426500D01*
X122397800Y-107028500D01*
G37*
G36*
X119497800Y-107028500D02*
G01*
X118495800Y-107028500D01*
X118495800Y-104426500D01*
X119497800Y-104426500D01*
X119497800Y-107028500D01*
G37*
G36*
X148732200Y-107025200D02*
G01*
X147330200Y-107025200D01*
X147330200Y-106223200D01*
X148732200Y-106223200D01*
X148732200Y-107025200D01*
G37*
G36*
X153913000Y-106899000D02*
G01*
X152411000Y-106899000D01*
X152411000Y-105597000D01*
X153913000Y-105597000D01*
X153913000Y-106899000D01*
G37*
G36*
X151713000Y-106899000D02*
G01*
X150211000Y-106899000D01*
X150211000Y-105597000D01*
X151713000Y-105597000D01*
X151713000Y-106899000D01*
G37*
G36*
X127003700Y-106717540D02*
G01*
X125701700Y-106717540D01*
X125701700Y-104615540D01*
X127003700Y-104615540D01*
X127003700Y-106717540D01*
G37*
G36*
X130203700Y-106717540D02*
G01*
X128901700Y-106717540D01*
X128901700Y-104615540D01*
X130203700Y-104615540D01*
X130203700Y-106717540D01*
G37*
G36*
X116560800Y-106667500D02*
G01*
X114299800Y-106667500D01*
X114299800Y-104787500D01*
X116560800Y-104787500D01*
X116560800Y-106667500D01*
G37*
G36*
X131999300Y-106276500D02*
G01*
X130897300Y-106276500D01*
X130897300Y-104924500D01*
X131999300Y-104924500D01*
X131999300Y-106276500D01*
G37*
G36*
X133999300Y-106276500D02*
G01*
X132897300Y-106276500D01*
X132897300Y-104924500D01*
X133999300Y-104924500D01*
X133999300Y-106276500D01*
G37*
G36*
X146777200Y-106256400D02*
G01*
X145475200Y-106256400D01*
X145475200Y-104954400D01*
X146777200Y-104954400D01*
X146777200Y-106256400D01*
G37*
G36*
X155616000Y-105453000D02*
G01*
X154264000Y-105453000D01*
X154264000Y-104351000D01*
X155616000Y-104351000D01*
X155616000Y-105453000D01*
G37*
G36*
X153913000Y-105299000D02*
G01*
X152411000Y-105299000D01*
X152411000Y-103997000D01*
X153913000Y-103997000D01*
X153913000Y-105299000D01*
G37*
G36*
X151713000Y-105299000D02*
G01*
X150211000Y-105299000D01*
X150211000Y-103997000D01*
X151713000Y-103997000D01*
X151713000Y-105299000D01*
G37*
G36*
X148732200Y-105125200D02*
G01*
X147330200Y-105125200D01*
X147330200Y-104323200D01*
X148732200Y-104323200D01*
X148732200Y-105125200D01*
G37*
G36*
X111064000Y-104856000D02*
G01*
X109662000Y-104856000D01*
X109662000Y-104054000D01*
X111064000Y-104054000D01*
X111064000Y-104856000D01*
G37*
G36*
X146726400Y-104451000D02*
G01*
X145424400Y-104451000D01*
X145424400Y-103149000D01*
X146726400Y-103149000D01*
X146726400Y-104451000D01*
G37*
G36*
X126479600Y-104146800D02*
G01*
X123827600Y-104146800D01*
X123827600Y-102484800D01*
X126479600Y-102484800D01*
X126479600Y-104146800D01*
G37*
G36*
X131475300Y-104102000D02*
G01*
X130373300Y-104102000D01*
X130373300Y-102400000D01*
X131475300Y-102400000D01*
X131475300Y-104102000D01*
G37*
G36*
X134475300Y-104102000D02*
G01*
X133373300Y-104102000D01*
X133373300Y-102400000D01*
X134475300Y-102400000D01*
X134475300Y-104102000D01*
G37*
G36*
X148681400Y-103713000D02*
G01*
X147279400Y-103713000D01*
X147279400Y-102911000D01*
X148681400Y-102911000D01*
X148681400Y-103713000D01*
G37*
G36*
X157431000Y-103653000D02*
G01*
X151179000Y-103653000D01*
X151179000Y-101951000D01*
X157431000Y-101951000D01*
X157431000Y-103653000D01*
G37*
G36*
X129123800Y-103532000D02*
G01*
X127771800Y-103532000D01*
X127771800Y-102430000D01*
X129123800Y-102430000D01*
X129123800Y-103532000D01*
G37*
G36*
X120904360Y-103421000D02*
G01*
X119552360Y-103421000D01*
X119552360Y-102319000D01*
X120904360Y-102319000D01*
X120904360Y-103421000D01*
G37*
G36*
X122413891Y-102363585D02*
G01*
X122447869Y-102373893D01*
X122479190Y-102390634D01*
X122506639Y-102413161D01*
X122529166Y-102440610D01*
X122545907Y-102471931D01*
X122556215Y-102505909D01*
X122560300Y-102547390D01*
X122560300Y-103148610D01*
X122556215Y-103190091D01*
X122545907Y-103224069D01*
X122529166Y-103255390D01*
X122506639Y-103282839D01*
X122479190Y-103305366D01*
X122447869Y-103322107D01*
X122413891Y-103332415D01*
X122372410Y-103336500D01*
X121696190Y-103336500D01*
X121654709Y-103332415D01*
X121620731Y-103322107D01*
X121589410Y-103305366D01*
X121561961Y-103282839D01*
X121539434Y-103255390D01*
X121522693Y-103224069D01*
X121512385Y-103190091D01*
X121508300Y-103148610D01*
X121508300Y-102547390D01*
X121512385Y-102505909D01*
X121522693Y-102471931D01*
X121539434Y-102440610D01*
X121561961Y-102413161D01*
X121589410Y-102390634D01*
X121620731Y-102373893D01*
X121654709Y-102363585D01*
X121696190Y-102359500D01*
X122372410Y-102359500D01*
X122413891Y-102363585D01*
G37*
G36*
X111064000Y-102956000D02*
G01*
X109662000Y-102956000D01*
X109662000Y-102154000D01*
X111064000Y-102154000D01*
X111064000Y-102956000D01*
G37*
G36*
X116560800Y-102603500D02*
G01*
X114299800Y-102603500D01*
X114299800Y-100723500D01*
X116560800Y-100723500D01*
X116560800Y-102603500D01*
G37*
G36*
X146726400Y-102251000D02*
G01*
X145424400Y-102251000D01*
X145424400Y-100949000D01*
X146726400Y-100949000D01*
X146726400Y-102251000D01*
G37*
G36*
X148681400Y-101813000D02*
G01*
X147279400Y-101813000D01*
X147279400Y-101011000D01*
X148681400Y-101011000D01*
X148681400Y-101813000D01*
G37*
G36*
X122413891Y-100788585D02*
G01*
X122447869Y-100798893D01*
X122479190Y-100815634D01*
X122506639Y-100838161D01*
X122529166Y-100865610D01*
X122545907Y-100896931D01*
X122556215Y-100930909D01*
X122560300Y-100972390D01*
X122560300Y-101573610D01*
X122556215Y-101615091D01*
X122545907Y-101649069D01*
X122529166Y-101680390D01*
X122506639Y-101707839D01*
X122479190Y-101730366D01*
X122447869Y-101747107D01*
X122413891Y-101757415D01*
X122372410Y-101761500D01*
X121696190Y-101761500D01*
X121654709Y-101757415D01*
X121620731Y-101747107D01*
X121589410Y-101730366D01*
X121561961Y-101707839D01*
X121539434Y-101680390D01*
X121522693Y-101649069D01*
X121512385Y-101615091D01*
X121508300Y-101573610D01*
X121508300Y-100972390D01*
X121512385Y-100930909D01*
X121522693Y-100896931D01*
X121539434Y-100865610D01*
X121561961Y-100838161D01*
X121589410Y-100815634D01*
X121620731Y-100798893D01*
X121654709Y-100788585D01*
X121696190Y-100784500D01*
X122372410Y-100784500D01*
X122413891Y-100788585D01*
G37*
G36*
X159406000Y-101678000D02*
G01*
X157704000Y-101678000D01*
X157704000Y-95426000D01*
X159406000Y-95426000D01*
X159406000Y-101678000D01*
G37*
G36*
X150906000Y-101678000D02*
G01*
X149204000Y-101678000D01*
X149204000Y-95426000D01*
X150906000Y-95426000D01*
X150906000Y-101678000D01*
G37*
G36*
X129123800Y-101532000D02*
G01*
X127771800Y-101532000D01*
X127771800Y-100430000D01*
X129123800Y-100430000D01*
X129123800Y-101532000D01*
G37*
G36*
X125285220Y-99659801D02*
G01*
X125287622Y-99684187D01*
X125294735Y-99707636D01*
X125306286Y-99729247D01*
X125321831Y-99748189D01*
X125340773Y-99763734D01*
X125362384Y-99775285D01*
X125385833Y-99782398D01*
X125410219Y-99784800D01*
X126344421Y-99784800D01*
X126368807Y-99782398D01*
X126392256Y-99775285D01*
X126413867Y-99763734D01*
X126432809Y-99748189D01*
X126448354Y-99729247D01*
X126459905Y-99707636D01*
X126467018Y-99684187D01*
X126469420Y-99659801D01*
X126469420Y-98277720D01*
X127271420Y-98277720D01*
X127271420Y-99679720D01*
X126604599Y-99679720D01*
X126580213Y-99682122D01*
X126556764Y-99689235D01*
X126535153Y-99700786D01*
X126516211Y-99716331D01*
X126500666Y-99735273D01*
X126489115Y-99756884D01*
X126482002Y-99780333D01*
X126479600Y-99804719D01*
X126479600Y-101446800D01*
X123827600Y-101446800D01*
X123827600Y-99784800D01*
X124358221Y-99784800D01*
X124382607Y-99782398D01*
X124406056Y-99775285D01*
X124427667Y-99763734D01*
X124446609Y-99748189D01*
X124462154Y-99729247D01*
X124473705Y-99707636D01*
X124480818Y-99684187D01*
X124483220Y-99659801D01*
X124483220Y-98262480D01*
X125285220Y-98262480D01*
X125285220Y-99659801D01*
G37*
G36*
X120904360Y-101421000D02*
G01*
X119552360Y-101421000D01*
X119552360Y-100319000D01*
X120904360Y-100319000D01*
X120904360Y-101421000D01*
G37*
G36*
X111027000Y-101351000D02*
G01*
X109725000Y-101351000D01*
X109725000Y-100049000D01*
X111027000Y-100049000D01*
X111027000Y-101351000D01*
G37*
G36*
X137699000Y-99855500D02*
G01*
X136047000Y-99855500D01*
X136047000Y-99153500D01*
X137699000Y-99153500D01*
X137699000Y-99855500D01*
G37*
G36*
X143099000Y-99855500D02*
G01*
X141447000Y-99855500D01*
X141447000Y-99153500D01*
X143099000Y-99153500D01*
X143099000Y-99855500D01*
G37*
G36*
X129171420Y-99679720D02*
G01*
X128369420Y-99679720D01*
X128369420Y-98277720D01*
X129171420Y-98277720D01*
X129171420Y-99679720D01*
G37*
G36*
X123385220Y-99664480D02*
G01*
X122583220Y-99664480D01*
X122583220Y-98262480D01*
X123385220Y-98262480D01*
X123385220Y-99664480D01*
G37*
G36*
X145011500Y-99230000D02*
G01*
X143659500Y-99230000D01*
X143659500Y-98128000D01*
X145011500Y-98128000D01*
X145011500Y-99230000D01*
G37*
G36*
X111027000Y-99151000D02*
G01*
X109725000Y-99151000D01*
X109725000Y-97849000D01*
X111027000Y-97849000D01*
X111027000Y-99151000D01*
G37*
G36*
X135448000Y-99143500D02*
G01*
X134046000Y-99143500D01*
X134046000Y-98341500D01*
X135448000Y-98341500D01*
X135448000Y-99143500D01*
G37*
G36*
X143099000Y-98585500D02*
G01*
X141447000Y-98585500D01*
X141447000Y-97883500D01*
X143099000Y-97883500D01*
X143099000Y-98585500D01*
G37*
G36*
X137699000Y-98585500D02*
G01*
X136047000Y-98585500D01*
X136047000Y-97883500D01*
X137699000Y-97883500D01*
X137699000Y-98585500D01*
G37*
G36*
X148567500Y-98198000D02*
G01*
X147215500Y-98198000D01*
X147215500Y-97096000D01*
X148567500Y-97096000D01*
X148567500Y-98198000D01*
G37*
G36*
X137699000Y-97315500D02*
G01*
X136047000Y-97315500D01*
X136047000Y-96613500D01*
X137699000Y-96613500D01*
X137699000Y-97315500D01*
G37*
G36*
X143099000Y-97315500D02*
G01*
X141447000Y-97315500D01*
X141447000Y-96613500D01*
X143099000Y-96613500D01*
X143099000Y-97315500D01*
G37*
G36*
X135448000Y-97243500D02*
G01*
X134046000Y-97243500D01*
X134046000Y-96441500D01*
X135448000Y-96441500D01*
X135448000Y-97243500D01*
G37*
G36*
X145011500Y-97230000D02*
G01*
X143659500Y-97230000D01*
X143659500Y-96128000D01*
X145011500Y-96128000D01*
X145011500Y-97230000D01*
G37*
G36*
X148567500Y-96198000D02*
G01*
X147215500Y-96198000D01*
X147215500Y-95096000D01*
X148567500Y-95096000D01*
X148567500Y-96198000D01*
G37*
G36*
X143099000Y-96045500D02*
G01*
X141447000Y-96045500D01*
X141447000Y-95343500D01*
X143099000Y-95343500D01*
X143099000Y-96045500D01*
G37*
G36*
X137699000Y-96045500D02*
G01*
X136047000Y-96045500D01*
X136047000Y-95343500D01*
X137699000Y-95343500D01*
X137699000Y-96045500D01*
G37*
G36*
X157431000Y-95153000D02*
G01*
X151179000Y-95153000D01*
X151179000Y-93451000D01*
X157431000Y-93451000D01*
X157431000Y-95153000D01*
G37*
G36*
X146710000Y-94554000D02*
G01*
X145908000Y-94554000D01*
X145908000Y-93152000D01*
X146710000Y-93152000D01*
X146710000Y-94554000D01*
G37*
G36*
X148610000Y-94554000D02*
G01*
X147808000Y-94554000D01*
X147808000Y-93152000D01*
X148610000Y-93152000D01*
X148610000Y-94554000D01*
G37*
G36*
X145100000Y-93936500D02*
G01*
X143698000Y-93936500D01*
X143698000Y-93134500D01*
X145100000Y-93134500D01*
X145100000Y-93936500D01*
G37*
G36*
X141633559Y-91924360D02*
G01*
X141770232Y-91980972D01*
X141893235Y-92063160D01*
X141997840Y-92167765D01*
X142080028Y-92290768D01*
X142136640Y-92427441D01*
X142165500Y-92572533D01*
X142165500Y-92720467D01*
X142136640Y-92865559D01*
X142080028Y-93002232D01*
X141997840Y-93125235D01*
X141893235Y-93229840D01*
X141770232Y-93312028D01*
X141770231Y-93312029D01*
X141770230Y-93312029D01*
X141633559Y-93368640D01*
X141488468Y-93397500D01*
X141340532Y-93397500D01*
X141195441Y-93368640D01*
X141058770Y-93312029D01*
X141058769Y-93312029D01*
X141058768Y-93312028D01*
X140935765Y-93229840D01*
X140831160Y-93125235D01*
X140748972Y-93002232D01*
X140692360Y-92865559D01*
X140663500Y-92720467D01*
X140663500Y-92572533D01*
X140692360Y-92427441D01*
X140748972Y-92290768D01*
X140831160Y-92167765D01*
X140935765Y-92063160D01*
X141058768Y-91980972D01*
X141195441Y-91924360D01*
X141340532Y-91895500D01*
X141488468Y-91895500D01*
X141633559Y-91924360D01*
G37*
G36*
X139093559Y-91924360D02*
G01*
X139230232Y-91980972D01*
X139353235Y-92063160D01*
X139457840Y-92167765D01*
X139540028Y-92290768D01*
X139596640Y-92427441D01*
X139625500Y-92572533D01*
X139625500Y-92720467D01*
X139596640Y-92865559D01*
X139540028Y-93002232D01*
X139457840Y-93125235D01*
X139353235Y-93229840D01*
X139230232Y-93312028D01*
X139230231Y-93312029D01*
X139230230Y-93312029D01*
X139093559Y-93368640D01*
X138948468Y-93397500D01*
X138800532Y-93397500D01*
X138655441Y-93368640D01*
X138518770Y-93312029D01*
X138518769Y-93312029D01*
X138518768Y-93312028D01*
X138395765Y-93229840D01*
X138291160Y-93125235D01*
X138208972Y-93002232D01*
X138152360Y-92865559D01*
X138123500Y-92720467D01*
X138123500Y-92572533D01*
X138152360Y-92427441D01*
X138208972Y-92290768D01*
X138291160Y-92167765D01*
X138395765Y-92063160D01*
X138518768Y-91980972D01*
X138655441Y-91924360D01*
X138800532Y-91895500D01*
X138948468Y-91895500D01*
X139093559Y-91924360D01*
G37*
G36*
X136553559Y-91924360D02*
G01*
X136690232Y-91980972D01*
X136813235Y-92063160D01*
X136917840Y-92167765D01*
X137000028Y-92290768D01*
X137056640Y-92427441D01*
X137085500Y-92572533D01*
X137085500Y-92720467D01*
X137056640Y-92865559D01*
X137000028Y-93002232D01*
X136917840Y-93125235D01*
X136813235Y-93229840D01*
X136690232Y-93312028D01*
X136690231Y-93312029D01*
X136690230Y-93312029D01*
X136553559Y-93368640D01*
X136408468Y-93397500D01*
X136260532Y-93397500D01*
X136115441Y-93368640D01*
X135978770Y-93312029D01*
X135978769Y-93312029D01*
X135978768Y-93312028D01*
X135855765Y-93229840D01*
X135751160Y-93125235D01*
X135668972Y-93002232D01*
X135612360Y-92865559D01*
X135583500Y-92720467D01*
X135583500Y-92572533D01*
X135612360Y-92427441D01*
X135668972Y-92290768D01*
X135751160Y-92167765D01*
X135855765Y-92063160D01*
X135978768Y-91980972D01*
X136115441Y-91924360D01*
X136260532Y-91895500D01*
X136408468Y-91895500D01*
X136553559Y-91924360D01*
G37*
G36*
X148680500Y-92624000D02*
G01*
X147578500Y-92624000D01*
X147578500Y-91272000D01*
X148680500Y-91272000D01*
X148680500Y-92624000D01*
G37*
G36*
X146680500Y-92624000D02*
G01*
X145578500Y-92624000D01*
X145578500Y-91272000D01*
X146680500Y-91272000D01*
X146680500Y-92624000D01*
G37*
G36*
X145100000Y-92036500D02*
G01*
X143698000Y-92036500D01*
X143698000Y-91234500D01*
X145100000Y-91234500D01*
X145100000Y-92036500D01*
G37*
G36*
X136553559Y-89384360D02*
G01*
X136690232Y-89440972D01*
X136813235Y-89523160D01*
X136917840Y-89627765D01*
X137000028Y-89750768D01*
X137056640Y-89887441D01*
X137085500Y-90032533D01*
X137085500Y-90180467D01*
X137056640Y-90325559D01*
X137000028Y-90462232D01*
X136917840Y-90585235D01*
X136813235Y-90689840D01*
X136690232Y-90772028D01*
X136690231Y-90772029D01*
X136690230Y-90772029D01*
X136553559Y-90828640D01*
X136408468Y-90857500D01*
X136260532Y-90857500D01*
X136115441Y-90828640D01*
X135978770Y-90772029D01*
X135978769Y-90772029D01*
X135978768Y-90772028D01*
X135855765Y-90689840D01*
X135751160Y-90585235D01*
X135668972Y-90462232D01*
X135612360Y-90325559D01*
X135583500Y-90180467D01*
X135583500Y-90032533D01*
X135612360Y-89887441D01*
X135668972Y-89750768D01*
X135751160Y-89627765D01*
X135855765Y-89523160D01*
X135978768Y-89440972D01*
X136115441Y-89384360D01*
X136260532Y-89355500D01*
X136408468Y-89355500D01*
X136553559Y-89384360D01*
G37*
G36*
X139093559Y-89384360D02*
G01*
X139230232Y-89440972D01*
X139353235Y-89523160D01*
X139457840Y-89627765D01*
X139540028Y-89750768D01*
X139596640Y-89887441D01*
X139625500Y-90032533D01*
X139625500Y-90180467D01*
X139596640Y-90325559D01*
X139540028Y-90462232D01*
X139457840Y-90585235D01*
X139353235Y-90689840D01*
X139230232Y-90772028D01*
X139230231Y-90772029D01*
X139230230Y-90772029D01*
X139093559Y-90828640D01*
X138948468Y-90857500D01*
X138800532Y-90857500D01*
X138655441Y-90828640D01*
X138518770Y-90772029D01*
X138518769Y-90772029D01*
X138518768Y-90772028D01*
X138395765Y-90689840D01*
X138291160Y-90585235D01*
X138208972Y-90462232D01*
X138152360Y-90325559D01*
X138123500Y-90180467D01*
X138123500Y-90032533D01*
X138152360Y-89887441D01*
X138208972Y-89750768D01*
X138291160Y-89627765D01*
X138395765Y-89523160D01*
X138518768Y-89440972D01*
X138655441Y-89384360D01*
X138800532Y-89355500D01*
X138948468Y-89355500D01*
X139093559Y-89384360D01*
G37*
G36*
X142165500Y-90857500D02*
G01*
X140663500Y-90857500D01*
X140663500Y-89355500D01*
X142165500Y-89355500D01*
X142165500Y-90857500D01*
G37*
M02*
