M48
; DRILL file {KiCad 5.1.5-52549c5~84~ubuntu16.04.1} date Sat 28 Dec 2019 01:08:43 PM EST
; FORMAT={-:-/ absolute / inch / decimal}
; #@! TF.CreationDate,2019-12-28T13:08:43-05:00
; #@! TF.GenerationSoftware,Kicad,Pcbnew,5.1.5-52549c5~84~ubuntu16.04.1
FMAT,2
INCH
T1C0.0120
T2C0.0157
T3C0.0315
T4C0.0400
%
G90
G05
T1
X4.3824Y-5.4083
X4.3848Y-5.0108
X4.3856Y-4.6188
X4.4Y-3.655
X4.4Y-4.26
X4.4224Y-5.2583
X4.4248Y-4.8608
X4.4256Y-4.4688
X4.5324Y-5.2783
X4.5348Y-4.8808
X4.5356Y-4.4888
X4.5774Y-5.2083
X4.5798Y-4.8108
X4.5806Y-4.4188
X4.671Y-5.0825
X4.6817Y-4.6788
X4.7173Y-4.6352
X4.725Y-5.0825
X4.7254Y-4.6729
X4.755Y-4.43
X4.764Y-4.5875
X4.764Y-4.664
X4.806Y-4.5875
X4.806Y-4.625
X4.806Y-4.6638
X4.8271Y-5.4091
X4.8304Y-5.013
X4.8671Y-5.2591
X4.8704Y-4.863
X4.915Y-4.6085
X4.9397Y-4.5875
X4.9633Y-4.6317
X4.9771Y-5.2791
X4.9804Y-4.883
X4.9857Y-4.5875
X5.0091Y-4.6085
X5.0221Y-5.2091
X5.0254Y-4.813
X5.0386Y-4.6205
X5.1157Y-5.085
X5.1275Y-4.685
X5.1275Y-4.5665
X5.1575Y-4.565
X5.1577Y-4.7238
X5.1577Y-5.085
X5.2704Y-5.4075
X5.2706Y-5.0142
X5.2824Y-4.6899
X5.3104Y-5.2575
X5.3106Y-4.8642
X5.365Y-3.9675
X5.4204Y-5.2775
X5.4206Y-4.8842
X5.4532Y-4.6973
X5.4654Y-5.2075
X5.4656Y-4.8142
X5.569Y-5.0825
X5.5852Y-4.6972
X5.5975Y-4.564
X5.6062Y-4.7388
X5.611Y-5.0825
X5.6734Y-4.627
X5.695Y-4.0
X5.6971Y-5.407
X5.6987Y-5.0112
X5.702Y-4.16
X5.735Y-3.885
X5.7371Y-5.257
X5.7387Y-4.8612
X5.7525Y-3.5685
X5.78Y-4.6075
X5.785Y-3.805
X5.8293Y-4.627
X5.8471Y-5.277
X5.8487Y-4.8812
X5.85Y-3.9
X5.87Y-3.6975
X5.8741Y-4.0591
X5.875Y-4.145
X5.8775Y-3.64
X5.885Y-4.3725
X5.89Y-4.6075
X5.8921Y-5.207
X5.8937Y-4.8112
X5.895Y-4.12
X5.9175Y-4.627
X5.92Y-4.685
X5.9525Y-4.6
X5.9525Y-4.6708
X5.97Y-3.6575
X5.9857Y-5.08
X6.0225Y-4.6245
X6.0225Y-4.6705
X6.0277Y-5.08
X6.0383Y-3.99
X6.0425Y-4.3175
X6.0644Y-4.297
X6.0803Y-3.99
X6.09Y-4.365
X6.1Y-4.26
X6.1111Y-4.3436
X6.132Y-5.0128
X6.1329Y-5.4092
X6.135Y-4.625
X6.16Y-4.195
X6.172Y-4.8628
X6.1729Y-5.2592
X6.175Y-4.475
X6.1825Y-4.1752
X6.2268Y-4.2618
X6.235Y-3.735
X6.246Y-4.024
X6.248Y-4.2406
X6.2738Y-4.055
X6.282Y-4.8828
X6.2829Y-5.2792
X6.285Y-4.495
X6.327Y-4.8128
X6.3279Y-5.2092
X6.33Y-4.425
X6.34Y-4.055
X6.4215Y-5.0775
X6.43Y-4.6875
X6.4755Y-4.6875
X6.4755Y-5.0775
T2
X4.4548Y-3.9728
X4.4553Y-3.8594
X4.4578Y-3.7886
X4.582Y-3.7886
X4.6989Y-3.7871
X4.8103Y-3.7876
X5.5693Y-4.1364
X5.5707Y-4.2677
X5.5707Y-4.3754
X5.5707Y-4.4581
T3
X5.34Y-5.665
X5.39Y-5.565
X5.44Y-5.665
X5.49Y-5.565
X5.54Y-5.665
X5.59Y-5.565
X5.64Y-5.665
X5.69Y-5.565
X5.74Y-5.665
X5.79Y-5.565
X5.84Y-5.665
X5.89Y-5.565
X5.94Y-5.665
X5.99Y-5.565
X6.04Y-5.665
X6.09Y-5.565
X6.14Y-5.665
X6.19Y-5.565
X6.24Y-5.665
X6.29Y-5.565
X4.6Y-5.665
X4.65Y-5.565
X4.7Y-5.665
X4.75Y-5.565
X4.8Y-5.665
X4.85Y-5.565
X4.9Y-5.665
X4.95Y-5.565
T4
X5.3675Y-3.5475
X5.3675Y-3.6475
X5.4675Y-3.5475
X5.4675Y-3.6475
X5.5675Y-3.5475
X5.5675Y-3.6475
T0
M30
