G04 #@! TF.GenerationSoftware,KiCad,Pcbnew,5.1.5-52549c5~84~ubuntu16.04.1*
G04 #@! TF.CreationDate,2019-12-28T13:07:50-05:00*
G04 #@! TF.ProjectId,Suspension_Strain,43686173-7369-4735-9f53-747261696e2e,rev?*
G04 #@! TF.SameCoordinates,Original*
G04 #@! TF.FileFunction,Soldermask,Bot*
G04 #@! TF.FilePolarity,Negative*
%FSLAX46Y46*%
G04 Gerber Fmt 4.6, Leading zero omitted, Abs format (unit mm)*
G04 Created by KiCad (PCBNEW 5.1.5-52549c5~84~ubuntu16.04.1) date 2019-12-28 13:07:50*
%MOMM*%
%LPD*%
G04 APERTURE LIST*
%ADD10C,1.000000*%
G04 APERTURE END LIST*
D10*
G36*
X124664473Y-143216938D02*
G01*
X124792049Y-143269782D01*
X124906859Y-143346495D01*
X125004505Y-143444141D01*
X125081218Y-143558951D01*
X125134062Y-143686527D01*
X125161000Y-143821956D01*
X125161000Y-143960044D01*
X125134062Y-144095473D01*
X125081218Y-144223049D01*
X125004505Y-144337859D01*
X124906859Y-144435505D01*
X124792049Y-144512218D01*
X124664473Y-144565062D01*
X124529044Y-144592000D01*
X124390956Y-144592000D01*
X124255527Y-144565062D01*
X124127951Y-144512218D01*
X124013141Y-144435505D01*
X123915495Y-144337859D01*
X123838782Y-144223049D01*
X123785938Y-144095473D01*
X123759000Y-143960044D01*
X123759000Y-143821956D01*
X123785938Y-143686527D01*
X123838782Y-143558951D01*
X123915495Y-143444141D01*
X124013141Y-143346495D01*
X124127951Y-143269782D01*
X124255527Y-143216938D01*
X124390956Y-143190000D01*
X124529044Y-143190000D01*
X124664473Y-143216938D01*
G37*
G36*
X156160473Y-143216938D02*
G01*
X156288049Y-143269782D01*
X156402859Y-143346495D01*
X156500505Y-143444141D01*
X156577218Y-143558951D01*
X156630062Y-143686527D01*
X156657000Y-143821956D01*
X156657000Y-143960044D01*
X156630062Y-144095473D01*
X156577218Y-144223049D01*
X156500505Y-144337859D01*
X156402859Y-144435505D01*
X156288049Y-144512218D01*
X156160473Y-144565062D01*
X156025044Y-144592000D01*
X155886956Y-144592000D01*
X155751527Y-144565062D01*
X155623951Y-144512218D01*
X155509141Y-144435505D01*
X155411495Y-144337859D01*
X155334782Y-144223049D01*
X155281938Y-144095473D01*
X155255000Y-143960044D01*
X155255000Y-143821956D01*
X155281938Y-143686527D01*
X155334782Y-143558951D01*
X155411495Y-143444141D01*
X155509141Y-143346495D01*
X155623951Y-143269782D01*
X155751527Y-143216938D01*
X155886956Y-143190000D01*
X156025044Y-143190000D01*
X156160473Y-143216938D01*
G37*
G36*
X135840473Y-143216938D02*
G01*
X135968049Y-143269782D01*
X136082859Y-143346495D01*
X136180505Y-143444141D01*
X136257218Y-143558951D01*
X136310062Y-143686527D01*
X136337000Y-143821956D01*
X136337000Y-143960044D01*
X136310062Y-144095473D01*
X136257218Y-144223049D01*
X136180505Y-144337859D01*
X136082859Y-144435505D01*
X135968049Y-144512218D01*
X135840473Y-144565062D01*
X135705044Y-144592000D01*
X135566956Y-144592000D01*
X135431527Y-144565062D01*
X135303951Y-144512218D01*
X135189141Y-144435505D01*
X135091495Y-144337859D01*
X135014782Y-144223049D01*
X134961938Y-144095473D01*
X134935000Y-143960044D01*
X134935000Y-143821956D01*
X134961938Y-143686527D01*
X135014782Y-143558951D01*
X135091495Y-143444141D01*
X135189141Y-143346495D01*
X135303951Y-143269782D01*
X135431527Y-143216938D01*
X135566956Y-143190000D01*
X135705044Y-143190000D01*
X135840473Y-143216938D01*
G37*
G36*
X138380473Y-143216938D02*
G01*
X138508049Y-143269782D01*
X138622859Y-143346495D01*
X138720505Y-143444141D01*
X138797218Y-143558951D01*
X138850062Y-143686527D01*
X138877000Y-143821956D01*
X138877000Y-143960044D01*
X138850062Y-144095473D01*
X138797218Y-144223049D01*
X138720505Y-144337859D01*
X138622859Y-144435505D01*
X138508049Y-144512218D01*
X138380473Y-144565062D01*
X138245044Y-144592000D01*
X138106956Y-144592000D01*
X137971527Y-144565062D01*
X137843951Y-144512218D01*
X137729141Y-144435505D01*
X137631495Y-144337859D01*
X137554782Y-144223049D01*
X137501938Y-144095473D01*
X137475000Y-143960044D01*
X137475000Y-143821956D01*
X137501938Y-143686527D01*
X137554782Y-143558951D01*
X137631495Y-143444141D01*
X137729141Y-143346495D01*
X137843951Y-143269782D01*
X137971527Y-143216938D01*
X138106956Y-143190000D01*
X138245044Y-143190000D01*
X138380473Y-143216938D01*
G37*
G36*
X140920473Y-143216938D02*
G01*
X141048049Y-143269782D01*
X141162859Y-143346495D01*
X141260505Y-143444141D01*
X141337218Y-143558951D01*
X141390062Y-143686527D01*
X141417000Y-143821956D01*
X141417000Y-143960044D01*
X141390062Y-144095473D01*
X141337218Y-144223049D01*
X141260505Y-144337859D01*
X141162859Y-144435505D01*
X141048049Y-144512218D01*
X140920473Y-144565062D01*
X140785044Y-144592000D01*
X140646956Y-144592000D01*
X140511527Y-144565062D01*
X140383951Y-144512218D01*
X140269141Y-144435505D01*
X140171495Y-144337859D01*
X140094782Y-144223049D01*
X140041938Y-144095473D01*
X140015000Y-143960044D01*
X140015000Y-143821956D01*
X140041938Y-143686527D01*
X140094782Y-143558951D01*
X140171495Y-143444141D01*
X140269141Y-143346495D01*
X140383951Y-143269782D01*
X140511527Y-143216938D01*
X140646956Y-143190000D01*
X140785044Y-143190000D01*
X140920473Y-143216938D01*
G37*
G36*
X143460473Y-143216938D02*
G01*
X143588049Y-143269782D01*
X143702859Y-143346495D01*
X143800505Y-143444141D01*
X143877218Y-143558951D01*
X143930062Y-143686527D01*
X143957000Y-143821956D01*
X143957000Y-143960044D01*
X143930062Y-144095473D01*
X143877218Y-144223049D01*
X143800505Y-144337859D01*
X143702859Y-144435505D01*
X143588049Y-144512218D01*
X143460473Y-144565062D01*
X143325044Y-144592000D01*
X143186956Y-144592000D01*
X143051527Y-144565062D01*
X142923951Y-144512218D01*
X142809141Y-144435505D01*
X142711495Y-144337859D01*
X142634782Y-144223049D01*
X142581938Y-144095473D01*
X142555000Y-143960044D01*
X142555000Y-143821956D01*
X142581938Y-143686527D01*
X142634782Y-143558951D01*
X142711495Y-143444141D01*
X142809141Y-143346495D01*
X142923951Y-143269782D01*
X143051527Y-143216938D01*
X143186956Y-143190000D01*
X143325044Y-143190000D01*
X143460473Y-143216938D01*
G37*
G36*
X146000473Y-143216938D02*
G01*
X146128049Y-143269782D01*
X146242859Y-143346495D01*
X146340505Y-143444141D01*
X146417218Y-143558951D01*
X146470062Y-143686527D01*
X146497000Y-143821956D01*
X146497000Y-143960044D01*
X146470062Y-144095473D01*
X146417218Y-144223049D01*
X146340505Y-144337859D01*
X146242859Y-144435505D01*
X146128049Y-144512218D01*
X146000473Y-144565062D01*
X145865044Y-144592000D01*
X145726956Y-144592000D01*
X145591527Y-144565062D01*
X145463951Y-144512218D01*
X145349141Y-144435505D01*
X145251495Y-144337859D01*
X145174782Y-144223049D01*
X145121938Y-144095473D01*
X145095000Y-143960044D01*
X145095000Y-143821956D01*
X145121938Y-143686527D01*
X145174782Y-143558951D01*
X145251495Y-143444141D01*
X145349141Y-143346495D01*
X145463951Y-143269782D01*
X145591527Y-143216938D01*
X145726956Y-143190000D01*
X145865044Y-143190000D01*
X146000473Y-143216938D01*
G37*
G36*
X148540473Y-143216938D02*
G01*
X148668049Y-143269782D01*
X148782859Y-143346495D01*
X148880505Y-143444141D01*
X148957218Y-143558951D01*
X149010062Y-143686527D01*
X149037000Y-143821956D01*
X149037000Y-143960044D01*
X149010062Y-144095473D01*
X148957218Y-144223049D01*
X148880505Y-144337859D01*
X148782859Y-144435505D01*
X148668049Y-144512218D01*
X148540473Y-144565062D01*
X148405044Y-144592000D01*
X148266956Y-144592000D01*
X148131527Y-144565062D01*
X148003951Y-144512218D01*
X147889141Y-144435505D01*
X147791495Y-144337859D01*
X147714782Y-144223049D01*
X147661938Y-144095473D01*
X147635000Y-143960044D01*
X147635000Y-143821956D01*
X147661938Y-143686527D01*
X147714782Y-143558951D01*
X147791495Y-143444141D01*
X147889141Y-143346495D01*
X148003951Y-143269782D01*
X148131527Y-143216938D01*
X148266956Y-143190000D01*
X148405044Y-143190000D01*
X148540473Y-143216938D01*
G37*
G36*
X151080473Y-143216938D02*
G01*
X151208049Y-143269782D01*
X151322859Y-143346495D01*
X151420505Y-143444141D01*
X151497218Y-143558951D01*
X151550062Y-143686527D01*
X151577000Y-143821956D01*
X151577000Y-143960044D01*
X151550062Y-144095473D01*
X151497218Y-144223049D01*
X151420505Y-144337859D01*
X151322859Y-144435505D01*
X151208049Y-144512218D01*
X151080473Y-144565062D01*
X150945044Y-144592000D01*
X150806956Y-144592000D01*
X150671527Y-144565062D01*
X150543951Y-144512218D01*
X150429141Y-144435505D01*
X150331495Y-144337859D01*
X150254782Y-144223049D01*
X150201938Y-144095473D01*
X150175000Y-143960044D01*
X150175000Y-143821956D01*
X150201938Y-143686527D01*
X150254782Y-143558951D01*
X150331495Y-143444141D01*
X150429141Y-143346495D01*
X150543951Y-143269782D01*
X150671527Y-143216938D01*
X150806956Y-143190000D01*
X150945044Y-143190000D01*
X151080473Y-143216938D01*
G37*
G36*
X153620473Y-143216938D02*
G01*
X153748049Y-143269782D01*
X153862859Y-143346495D01*
X153960505Y-143444141D01*
X154037218Y-143558951D01*
X154090062Y-143686527D01*
X154117000Y-143821956D01*
X154117000Y-143960044D01*
X154090062Y-144095473D01*
X154037218Y-144223049D01*
X153960505Y-144337859D01*
X153862859Y-144435505D01*
X153748049Y-144512218D01*
X153620473Y-144565062D01*
X153485044Y-144592000D01*
X153346956Y-144592000D01*
X153211527Y-144565062D01*
X153083951Y-144512218D01*
X152969141Y-144435505D01*
X152871495Y-144337859D01*
X152794782Y-144223049D01*
X152741938Y-144095473D01*
X152715000Y-143960044D01*
X152715000Y-143821956D01*
X152741938Y-143686527D01*
X152794782Y-143558951D01*
X152871495Y-143444141D01*
X152969141Y-143346495D01*
X153083951Y-143269782D01*
X153211527Y-143216938D01*
X153346956Y-143190000D01*
X153485044Y-143190000D01*
X153620473Y-143216938D01*
G37*
G36*
X158700473Y-143216938D02*
G01*
X158828049Y-143269782D01*
X158942859Y-143346495D01*
X159040505Y-143444141D01*
X159117218Y-143558951D01*
X159170062Y-143686527D01*
X159197000Y-143821956D01*
X159197000Y-143960044D01*
X159170062Y-144095473D01*
X159117218Y-144223049D01*
X159040505Y-144337859D01*
X158942859Y-144435505D01*
X158828049Y-144512218D01*
X158700473Y-144565062D01*
X158565044Y-144592000D01*
X158426956Y-144592000D01*
X158291527Y-144565062D01*
X158163951Y-144512218D01*
X158049141Y-144435505D01*
X157951495Y-144337859D01*
X157874782Y-144223049D01*
X157821938Y-144095473D01*
X157795000Y-143960044D01*
X157795000Y-143821956D01*
X157821938Y-143686527D01*
X157874782Y-143558951D01*
X157951495Y-143444141D01*
X158049141Y-143346495D01*
X158163951Y-143269782D01*
X158291527Y-143216938D01*
X158426956Y-143190000D01*
X158565044Y-143190000D01*
X158700473Y-143216938D01*
G37*
G36*
X117044473Y-143216938D02*
G01*
X117172049Y-143269782D01*
X117286859Y-143346495D01*
X117384505Y-143444141D01*
X117461218Y-143558951D01*
X117514062Y-143686527D01*
X117541000Y-143821956D01*
X117541000Y-143960044D01*
X117514062Y-144095473D01*
X117461218Y-144223049D01*
X117384505Y-144337859D01*
X117286859Y-144435505D01*
X117172049Y-144512218D01*
X117044473Y-144565062D01*
X116909044Y-144592000D01*
X116770956Y-144592000D01*
X116635527Y-144565062D01*
X116507951Y-144512218D01*
X116393141Y-144435505D01*
X116295495Y-144337859D01*
X116218782Y-144223049D01*
X116165938Y-144095473D01*
X116139000Y-143960044D01*
X116139000Y-143821956D01*
X116165938Y-143686527D01*
X116218782Y-143558951D01*
X116295495Y-143444141D01*
X116393141Y-143346495D01*
X116507951Y-143269782D01*
X116635527Y-143216938D01*
X116770956Y-143190000D01*
X116909044Y-143190000D01*
X117044473Y-143216938D01*
G37*
G36*
X119584473Y-143216938D02*
G01*
X119712049Y-143269782D01*
X119826859Y-143346495D01*
X119924505Y-143444141D01*
X120001218Y-143558951D01*
X120054062Y-143686527D01*
X120081000Y-143821956D01*
X120081000Y-143960044D01*
X120054062Y-144095473D01*
X120001218Y-144223049D01*
X119924505Y-144337859D01*
X119826859Y-144435505D01*
X119712049Y-144512218D01*
X119584473Y-144565062D01*
X119449044Y-144592000D01*
X119310956Y-144592000D01*
X119175527Y-144565062D01*
X119047951Y-144512218D01*
X118933141Y-144435505D01*
X118835495Y-144337859D01*
X118758782Y-144223049D01*
X118705938Y-144095473D01*
X118679000Y-143960044D01*
X118679000Y-143821956D01*
X118705938Y-143686527D01*
X118758782Y-143558951D01*
X118835495Y-143444141D01*
X118933141Y-143346495D01*
X119047951Y-143269782D01*
X119175527Y-143216938D01*
X119310956Y-143190000D01*
X119449044Y-143190000D01*
X119584473Y-143216938D01*
G37*
G36*
X122124473Y-143216938D02*
G01*
X122252049Y-143269782D01*
X122366859Y-143346495D01*
X122464505Y-143444141D01*
X122541218Y-143558951D01*
X122594062Y-143686527D01*
X122621000Y-143821956D01*
X122621000Y-143960044D01*
X122594062Y-144095473D01*
X122541218Y-144223049D01*
X122464505Y-144337859D01*
X122366859Y-144435505D01*
X122252049Y-144512218D01*
X122124473Y-144565062D01*
X121989044Y-144592000D01*
X121850956Y-144592000D01*
X121715527Y-144565062D01*
X121587951Y-144512218D01*
X121473141Y-144435505D01*
X121375495Y-144337859D01*
X121298782Y-144223049D01*
X121245938Y-144095473D01*
X121219000Y-143960044D01*
X121219000Y-143821956D01*
X121245938Y-143686527D01*
X121298782Y-143558951D01*
X121375495Y-143444141D01*
X121473141Y-143346495D01*
X121587951Y-143269782D01*
X121715527Y-143216938D01*
X121850956Y-143190000D01*
X121989044Y-143190000D01*
X122124473Y-143216938D01*
G37*
G36*
X137110473Y-140676938D02*
G01*
X137238049Y-140729782D01*
X137352859Y-140806495D01*
X137450505Y-140904141D01*
X137527218Y-141018951D01*
X137580062Y-141146527D01*
X137607000Y-141281956D01*
X137607000Y-141420044D01*
X137580062Y-141555473D01*
X137527218Y-141683049D01*
X137450505Y-141797859D01*
X137352859Y-141895505D01*
X137238049Y-141972218D01*
X137110473Y-142025062D01*
X136975044Y-142052000D01*
X136836956Y-142052000D01*
X136701527Y-142025062D01*
X136573951Y-141972218D01*
X136459141Y-141895505D01*
X136361495Y-141797859D01*
X136284782Y-141683049D01*
X136231938Y-141555473D01*
X136205000Y-141420044D01*
X136205000Y-141281956D01*
X136231938Y-141146527D01*
X136284782Y-141018951D01*
X136361495Y-140904141D01*
X136459141Y-140806495D01*
X136573951Y-140729782D01*
X136701527Y-140676938D01*
X136836956Y-140650000D01*
X136975044Y-140650000D01*
X137110473Y-140676938D01*
G37*
G36*
X142190473Y-140676938D02*
G01*
X142318049Y-140729782D01*
X142432859Y-140806495D01*
X142530505Y-140904141D01*
X142607218Y-141018951D01*
X142660062Y-141146527D01*
X142687000Y-141281956D01*
X142687000Y-141420044D01*
X142660062Y-141555473D01*
X142607218Y-141683049D01*
X142530505Y-141797859D01*
X142432859Y-141895505D01*
X142318049Y-141972218D01*
X142190473Y-142025062D01*
X142055044Y-142052000D01*
X141916956Y-142052000D01*
X141781527Y-142025062D01*
X141653951Y-141972218D01*
X141539141Y-141895505D01*
X141441495Y-141797859D01*
X141364782Y-141683049D01*
X141311938Y-141555473D01*
X141285000Y-141420044D01*
X141285000Y-141281956D01*
X141311938Y-141146527D01*
X141364782Y-141018951D01*
X141441495Y-140904141D01*
X141539141Y-140806495D01*
X141653951Y-140729782D01*
X141781527Y-140676938D01*
X141916956Y-140650000D01*
X142055044Y-140650000D01*
X142190473Y-140676938D01*
G37*
G36*
X139650473Y-140676938D02*
G01*
X139778049Y-140729782D01*
X139892859Y-140806495D01*
X139990505Y-140904141D01*
X140067218Y-141018951D01*
X140120062Y-141146527D01*
X140147000Y-141281956D01*
X140147000Y-141420044D01*
X140120062Y-141555473D01*
X140067218Y-141683049D01*
X139990505Y-141797859D01*
X139892859Y-141895505D01*
X139778049Y-141972218D01*
X139650473Y-142025062D01*
X139515044Y-142052000D01*
X139376956Y-142052000D01*
X139241527Y-142025062D01*
X139113951Y-141972218D01*
X138999141Y-141895505D01*
X138901495Y-141797859D01*
X138824782Y-141683049D01*
X138771938Y-141555473D01*
X138745000Y-141420044D01*
X138745000Y-141281956D01*
X138771938Y-141146527D01*
X138824782Y-141018951D01*
X138901495Y-140904141D01*
X138999141Y-140806495D01*
X139113951Y-140729782D01*
X139241527Y-140676938D01*
X139376956Y-140650000D01*
X139515044Y-140650000D01*
X139650473Y-140676938D01*
G37*
G36*
X157430473Y-140676938D02*
G01*
X157558049Y-140729782D01*
X157672859Y-140806495D01*
X157770505Y-140904141D01*
X157847218Y-141018951D01*
X157900062Y-141146527D01*
X157927000Y-141281956D01*
X157927000Y-141420044D01*
X157900062Y-141555473D01*
X157847218Y-141683049D01*
X157770505Y-141797859D01*
X157672859Y-141895505D01*
X157558049Y-141972218D01*
X157430473Y-142025062D01*
X157295044Y-142052000D01*
X157156956Y-142052000D01*
X157021527Y-142025062D01*
X156893951Y-141972218D01*
X156779141Y-141895505D01*
X156681495Y-141797859D01*
X156604782Y-141683049D01*
X156551938Y-141555473D01*
X156525000Y-141420044D01*
X156525000Y-141281956D01*
X156551938Y-141146527D01*
X156604782Y-141018951D01*
X156681495Y-140904141D01*
X156779141Y-140806495D01*
X156893951Y-140729782D01*
X157021527Y-140676938D01*
X157156956Y-140650000D01*
X157295044Y-140650000D01*
X157430473Y-140676938D01*
G37*
G36*
X120854473Y-140676938D02*
G01*
X120982049Y-140729782D01*
X121096859Y-140806495D01*
X121194505Y-140904141D01*
X121271218Y-141018951D01*
X121324062Y-141146527D01*
X121351000Y-141281956D01*
X121351000Y-141420044D01*
X121324062Y-141555473D01*
X121271218Y-141683049D01*
X121194505Y-141797859D01*
X121096859Y-141895505D01*
X120982049Y-141972218D01*
X120854473Y-142025062D01*
X120719044Y-142052000D01*
X120580956Y-142052000D01*
X120445527Y-142025062D01*
X120317951Y-141972218D01*
X120203141Y-141895505D01*
X120105495Y-141797859D01*
X120028782Y-141683049D01*
X119975938Y-141555473D01*
X119949000Y-141420044D01*
X119949000Y-141281956D01*
X119975938Y-141146527D01*
X120028782Y-141018951D01*
X120105495Y-140904141D01*
X120203141Y-140806495D01*
X120317951Y-140729782D01*
X120445527Y-140676938D01*
X120580956Y-140650000D01*
X120719044Y-140650000D01*
X120854473Y-140676938D01*
G37*
G36*
X123394473Y-140676938D02*
G01*
X123522049Y-140729782D01*
X123636859Y-140806495D01*
X123734505Y-140904141D01*
X123811218Y-141018951D01*
X123864062Y-141146527D01*
X123891000Y-141281956D01*
X123891000Y-141420044D01*
X123864062Y-141555473D01*
X123811218Y-141683049D01*
X123734505Y-141797859D01*
X123636859Y-141895505D01*
X123522049Y-141972218D01*
X123394473Y-142025062D01*
X123259044Y-142052000D01*
X123120956Y-142052000D01*
X122985527Y-142025062D01*
X122857951Y-141972218D01*
X122743141Y-141895505D01*
X122645495Y-141797859D01*
X122568782Y-141683049D01*
X122515938Y-141555473D01*
X122489000Y-141420044D01*
X122489000Y-141281956D01*
X122515938Y-141146527D01*
X122568782Y-141018951D01*
X122645495Y-140904141D01*
X122743141Y-140806495D01*
X122857951Y-140729782D01*
X122985527Y-140676938D01*
X123120956Y-140650000D01*
X123259044Y-140650000D01*
X123394473Y-140676938D01*
G37*
G36*
X125934473Y-140676938D02*
G01*
X126062049Y-140729782D01*
X126176859Y-140806495D01*
X126274505Y-140904141D01*
X126351218Y-141018951D01*
X126404062Y-141146527D01*
X126431000Y-141281956D01*
X126431000Y-141420044D01*
X126404062Y-141555473D01*
X126351218Y-141683049D01*
X126274505Y-141797859D01*
X126176859Y-141895505D01*
X126062049Y-141972218D01*
X125934473Y-142025062D01*
X125799044Y-142052000D01*
X125660956Y-142052000D01*
X125525527Y-142025062D01*
X125397951Y-141972218D01*
X125283141Y-141895505D01*
X125185495Y-141797859D01*
X125108782Y-141683049D01*
X125055938Y-141555473D01*
X125029000Y-141420044D01*
X125029000Y-141281956D01*
X125055938Y-141146527D01*
X125108782Y-141018951D01*
X125185495Y-140904141D01*
X125283141Y-140806495D01*
X125397951Y-140729782D01*
X125525527Y-140676938D01*
X125660956Y-140650000D01*
X125799044Y-140650000D01*
X125934473Y-140676938D01*
G37*
G36*
X118314473Y-140676938D02*
G01*
X118442049Y-140729782D01*
X118556859Y-140806495D01*
X118654505Y-140904141D01*
X118731218Y-141018951D01*
X118784062Y-141146527D01*
X118811000Y-141281956D01*
X118811000Y-141420044D01*
X118784062Y-141555473D01*
X118731218Y-141683049D01*
X118654505Y-141797859D01*
X118556859Y-141895505D01*
X118442049Y-141972218D01*
X118314473Y-142025062D01*
X118179044Y-142052000D01*
X118040956Y-142052000D01*
X117905527Y-142025062D01*
X117777951Y-141972218D01*
X117663141Y-141895505D01*
X117565495Y-141797859D01*
X117488782Y-141683049D01*
X117435938Y-141555473D01*
X117409000Y-141420044D01*
X117409000Y-141281956D01*
X117435938Y-141146527D01*
X117488782Y-141018951D01*
X117565495Y-140904141D01*
X117663141Y-140806495D01*
X117777951Y-140729782D01*
X117905527Y-140676938D01*
X118040956Y-140650000D01*
X118179044Y-140650000D01*
X118314473Y-140676938D01*
G37*
G36*
X154890473Y-140676938D02*
G01*
X155018049Y-140729782D01*
X155132859Y-140806495D01*
X155230505Y-140904141D01*
X155307218Y-141018951D01*
X155360062Y-141146527D01*
X155387000Y-141281956D01*
X155387000Y-141420044D01*
X155360062Y-141555473D01*
X155307218Y-141683049D01*
X155230505Y-141797859D01*
X155132859Y-141895505D01*
X155018049Y-141972218D01*
X154890473Y-142025062D01*
X154755044Y-142052000D01*
X154616956Y-142052000D01*
X154481527Y-142025062D01*
X154353951Y-141972218D01*
X154239141Y-141895505D01*
X154141495Y-141797859D01*
X154064782Y-141683049D01*
X154011938Y-141555473D01*
X153985000Y-141420044D01*
X153985000Y-141281956D01*
X154011938Y-141146527D01*
X154064782Y-141018951D01*
X154141495Y-140904141D01*
X154239141Y-140806495D01*
X154353951Y-140729782D01*
X154481527Y-140676938D01*
X154616956Y-140650000D01*
X154755044Y-140650000D01*
X154890473Y-140676938D01*
G37*
G36*
X159970473Y-140676938D02*
G01*
X160098049Y-140729782D01*
X160212859Y-140806495D01*
X160310505Y-140904141D01*
X160387218Y-141018951D01*
X160440062Y-141146527D01*
X160467000Y-141281956D01*
X160467000Y-141420044D01*
X160440062Y-141555473D01*
X160387218Y-141683049D01*
X160310505Y-141797859D01*
X160212859Y-141895505D01*
X160098049Y-141972218D01*
X159970473Y-142025062D01*
X159835044Y-142052000D01*
X159696956Y-142052000D01*
X159561527Y-142025062D01*
X159433951Y-141972218D01*
X159319141Y-141895505D01*
X159221495Y-141797859D01*
X159144782Y-141683049D01*
X159091938Y-141555473D01*
X159065000Y-141420044D01*
X159065000Y-141281956D01*
X159091938Y-141146527D01*
X159144782Y-141018951D01*
X159221495Y-140904141D01*
X159319141Y-140806495D01*
X159433951Y-140729782D01*
X159561527Y-140676938D01*
X159696956Y-140650000D01*
X159835044Y-140650000D01*
X159970473Y-140676938D01*
G37*
G36*
X144730473Y-140676938D02*
G01*
X144858049Y-140729782D01*
X144972859Y-140806495D01*
X145070505Y-140904141D01*
X145147218Y-141018951D01*
X145200062Y-141146527D01*
X145227000Y-141281956D01*
X145227000Y-141420044D01*
X145200062Y-141555473D01*
X145147218Y-141683049D01*
X145070505Y-141797859D01*
X144972859Y-141895505D01*
X144858049Y-141972218D01*
X144730473Y-142025062D01*
X144595044Y-142052000D01*
X144456956Y-142052000D01*
X144321527Y-142025062D01*
X144193951Y-141972218D01*
X144079141Y-141895505D01*
X143981495Y-141797859D01*
X143904782Y-141683049D01*
X143851938Y-141555473D01*
X143825000Y-141420044D01*
X143825000Y-141281956D01*
X143851938Y-141146527D01*
X143904782Y-141018951D01*
X143981495Y-140904141D01*
X144079141Y-140806495D01*
X144193951Y-140729782D01*
X144321527Y-140676938D01*
X144456956Y-140650000D01*
X144595044Y-140650000D01*
X144730473Y-140676938D01*
G37*
G36*
X149810473Y-140676938D02*
G01*
X149938049Y-140729782D01*
X150052859Y-140806495D01*
X150150505Y-140904141D01*
X150227218Y-141018951D01*
X150280062Y-141146527D01*
X150307000Y-141281956D01*
X150307000Y-141420044D01*
X150280062Y-141555473D01*
X150227218Y-141683049D01*
X150150505Y-141797859D01*
X150052859Y-141895505D01*
X149938049Y-141972218D01*
X149810473Y-142025062D01*
X149675044Y-142052000D01*
X149536956Y-142052000D01*
X149401527Y-142025062D01*
X149273951Y-141972218D01*
X149159141Y-141895505D01*
X149061495Y-141797859D01*
X148984782Y-141683049D01*
X148931938Y-141555473D01*
X148905000Y-141420044D01*
X148905000Y-141281956D01*
X148931938Y-141146527D01*
X148984782Y-141018951D01*
X149061495Y-140904141D01*
X149159141Y-140806495D01*
X149273951Y-140729782D01*
X149401527Y-140676938D01*
X149536956Y-140650000D01*
X149675044Y-140650000D01*
X149810473Y-140676938D01*
G37*
G36*
X147270473Y-140676938D02*
G01*
X147398049Y-140729782D01*
X147512859Y-140806495D01*
X147610505Y-140904141D01*
X147687218Y-141018951D01*
X147740062Y-141146527D01*
X147767000Y-141281956D01*
X147767000Y-141420044D01*
X147740062Y-141555473D01*
X147687218Y-141683049D01*
X147610505Y-141797859D01*
X147512859Y-141895505D01*
X147398049Y-141972218D01*
X147270473Y-142025062D01*
X147135044Y-142052000D01*
X146996956Y-142052000D01*
X146861527Y-142025062D01*
X146733951Y-141972218D01*
X146619141Y-141895505D01*
X146521495Y-141797859D01*
X146444782Y-141683049D01*
X146391938Y-141555473D01*
X146365000Y-141420044D01*
X146365000Y-141281956D01*
X146391938Y-141146527D01*
X146444782Y-141018951D01*
X146521495Y-140904141D01*
X146619141Y-140806495D01*
X146733951Y-140729782D01*
X146861527Y-140676938D01*
X146996956Y-140650000D01*
X147135044Y-140650000D01*
X147270473Y-140676938D01*
G37*
G36*
X152350473Y-140676938D02*
G01*
X152478049Y-140729782D01*
X152592859Y-140806495D01*
X152690505Y-140904141D01*
X152767218Y-141018951D01*
X152820062Y-141146527D01*
X152847000Y-141281956D01*
X152847000Y-141420044D01*
X152820062Y-141555473D01*
X152767218Y-141683049D01*
X152690505Y-141797859D01*
X152592859Y-141895505D01*
X152478049Y-141972218D01*
X152350473Y-142025062D01*
X152215044Y-142052000D01*
X152076956Y-142052000D01*
X151941527Y-142025062D01*
X151813951Y-141972218D01*
X151699141Y-141895505D01*
X151601495Y-141797859D01*
X151524782Y-141683049D01*
X151471938Y-141555473D01*
X151445000Y-141420044D01*
X151445000Y-141281956D01*
X151471938Y-141146527D01*
X151524782Y-141018951D01*
X151601495Y-140904141D01*
X151699141Y-140806495D01*
X151813951Y-140729782D01*
X151941527Y-140676938D01*
X152076956Y-140650000D01*
X152215044Y-140650000D01*
X152350473Y-140676938D01*
G37*
G36*
X139093559Y-91924360D02*
G01*
X139230232Y-91980972D01*
X139353235Y-92063160D01*
X139457840Y-92167765D01*
X139540028Y-92290768D01*
X139596640Y-92427441D01*
X139625500Y-92572533D01*
X139625500Y-92720467D01*
X139596640Y-92865559D01*
X139540028Y-93002232D01*
X139457840Y-93125235D01*
X139353235Y-93229840D01*
X139230232Y-93312028D01*
X139230231Y-93312029D01*
X139230230Y-93312029D01*
X139093559Y-93368640D01*
X138948468Y-93397500D01*
X138800532Y-93397500D01*
X138655441Y-93368640D01*
X138518770Y-93312029D01*
X138518769Y-93312029D01*
X138518768Y-93312028D01*
X138395765Y-93229840D01*
X138291160Y-93125235D01*
X138208972Y-93002232D01*
X138152360Y-92865559D01*
X138123500Y-92720467D01*
X138123500Y-92572533D01*
X138152360Y-92427441D01*
X138208972Y-92290768D01*
X138291160Y-92167765D01*
X138395765Y-92063160D01*
X138518768Y-91980972D01*
X138655441Y-91924360D01*
X138800532Y-91895500D01*
X138948468Y-91895500D01*
X139093559Y-91924360D01*
G37*
G36*
X141633559Y-91924360D02*
G01*
X141770232Y-91980972D01*
X141893235Y-92063160D01*
X141997840Y-92167765D01*
X142080028Y-92290768D01*
X142136640Y-92427441D01*
X142165500Y-92572533D01*
X142165500Y-92720467D01*
X142136640Y-92865559D01*
X142080028Y-93002232D01*
X141997840Y-93125235D01*
X141893235Y-93229840D01*
X141770232Y-93312028D01*
X141770231Y-93312029D01*
X141770230Y-93312029D01*
X141633559Y-93368640D01*
X141488468Y-93397500D01*
X141340532Y-93397500D01*
X141195441Y-93368640D01*
X141058770Y-93312029D01*
X141058769Y-93312029D01*
X141058768Y-93312028D01*
X140935765Y-93229840D01*
X140831160Y-93125235D01*
X140748972Y-93002232D01*
X140692360Y-92865559D01*
X140663500Y-92720467D01*
X140663500Y-92572533D01*
X140692360Y-92427441D01*
X140748972Y-92290768D01*
X140831160Y-92167765D01*
X140935765Y-92063160D01*
X141058768Y-91980972D01*
X141195441Y-91924360D01*
X141340532Y-91895500D01*
X141488468Y-91895500D01*
X141633559Y-91924360D01*
G37*
G36*
X136553559Y-91924360D02*
G01*
X136690232Y-91980972D01*
X136813235Y-92063160D01*
X136917840Y-92167765D01*
X137000028Y-92290768D01*
X137056640Y-92427441D01*
X137085500Y-92572533D01*
X137085500Y-92720467D01*
X137056640Y-92865559D01*
X137000028Y-93002232D01*
X136917840Y-93125235D01*
X136813235Y-93229840D01*
X136690232Y-93312028D01*
X136690231Y-93312029D01*
X136690230Y-93312029D01*
X136553559Y-93368640D01*
X136408468Y-93397500D01*
X136260532Y-93397500D01*
X136115441Y-93368640D01*
X135978770Y-93312029D01*
X135978769Y-93312029D01*
X135978768Y-93312028D01*
X135855765Y-93229840D01*
X135751160Y-93125235D01*
X135668972Y-93002232D01*
X135612360Y-92865559D01*
X135583500Y-92720467D01*
X135583500Y-92572533D01*
X135612360Y-92427441D01*
X135668972Y-92290768D01*
X135751160Y-92167765D01*
X135855765Y-92063160D01*
X135978768Y-91980972D01*
X136115441Y-91924360D01*
X136260532Y-91895500D01*
X136408468Y-91895500D01*
X136553559Y-91924360D01*
G37*
G36*
X136553559Y-89384360D02*
G01*
X136690232Y-89440972D01*
X136813235Y-89523160D01*
X136917840Y-89627765D01*
X137000028Y-89750768D01*
X137056640Y-89887441D01*
X137085500Y-90032533D01*
X137085500Y-90180467D01*
X137056640Y-90325559D01*
X137000028Y-90462232D01*
X136917840Y-90585235D01*
X136813235Y-90689840D01*
X136690232Y-90772028D01*
X136690231Y-90772029D01*
X136690230Y-90772029D01*
X136553559Y-90828640D01*
X136408468Y-90857500D01*
X136260532Y-90857500D01*
X136115441Y-90828640D01*
X135978770Y-90772029D01*
X135978769Y-90772029D01*
X135978768Y-90772028D01*
X135855765Y-90689840D01*
X135751160Y-90585235D01*
X135668972Y-90462232D01*
X135612360Y-90325559D01*
X135583500Y-90180467D01*
X135583500Y-90032533D01*
X135612360Y-89887441D01*
X135668972Y-89750768D01*
X135751160Y-89627765D01*
X135855765Y-89523160D01*
X135978768Y-89440972D01*
X136115441Y-89384360D01*
X136260532Y-89355500D01*
X136408468Y-89355500D01*
X136553559Y-89384360D01*
G37*
G36*
X139093559Y-89384360D02*
G01*
X139230232Y-89440972D01*
X139353235Y-89523160D01*
X139457840Y-89627765D01*
X139540028Y-89750768D01*
X139596640Y-89887441D01*
X139625500Y-90032533D01*
X139625500Y-90180467D01*
X139596640Y-90325559D01*
X139540028Y-90462232D01*
X139457840Y-90585235D01*
X139353235Y-90689840D01*
X139230232Y-90772028D01*
X139230231Y-90772029D01*
X139230230Y-90772029D01*
X139093559Y-90828640D01*
X138948468Y-90857500D01*
X138800532Y-90857500D01*
X138655441Y-90828640D01*
X138518770Y-90772029D01*
X138518769Y-90772029D01*
X138518768Y-90772028D01*
X138395765Y-90689840D01*
X138291160Y-90585235D01*
X138208972Y-90462232D01*
X138152360Y-90325559D01*
X138123500Y-90180467D01*
X138123500Y-90032533D01*
X138152360Y-89887441D01*
X138208972Y-89750768D01*
X138291160Y-89627765D01*
X138395765Y-89523160D01*
X138518768Y-89440972D01*
X138655441Y-89384360D01*
X138800532Y-89355500D01*
X138948468Y-89355500D01*
X139093559Y-89384360D01*
G37*
G36*
X142165500Y-90857500D02*
G01*
X140663500Y-90857500D01*
X140663500Y-89355500D01*
X142165500Y-89355500D01*
X142165500Y-90857500D01*
G37*
M02*
