G04 #@! TF.GenerationSoftware,KiCad,Pcbnew,(5.1.4-0-10_14)*
G04 #@! TF.CreationDate,2020-01-14T22:25:27-05:00*
G04 #@! TF.ProjectId,IMD_LATCH,494d445f-4c41-4544-9348-2e6b69636164,1*
G04 #@! TF.SameCoordinates,Original*
G04 #@! TF.FileFunction,Copper,L1,Top*
G04 #@! TF.FilePolarity,Positive*
%FSLAX46Y46*%
G04 Gerber Fmt 4.6, Leading zero omitted, Abs format (unit mm)*
G04 Created by KiCad (PCBNEW (5.1.4-0-10_14)) date 2020-01-14 22:25:27*
%MOMM*%
%LPD*%
G04 APERTURE LIST*
%ADD10C,0.100000*%
%ADD11C,0.875000*%
%ADD12R,1.000000X1.250000*%
%ADD13R,1.778000X2.159000*%
%ADD14R,1.200000X1.200000*%
%ADD15R,0.900000X0.800000*%
%ADD16R,0.900000X2.500000*%
%ADD17C,1.397000*%
%ADD18C,1.981000*%
%ADD19C,1.300000*%
%ADD20C,1.524000*%
%ADD21C,1.800000*%
%ADD22R,0.800000X0.900000*%
%ADD23R,0.700000X1.300000*%
%ADD24R,1.300000X0.700000*%
%ADD25R,0.650000X1.060000*%
%ADD26R,0.350000X1.600000*%
%ADD27R,1.060000X0.650000*%
%ADD28C,0.609600*%
%ADD29C,0.406400*%
%ADD30C,0.762000*%
%ADD31C,0.254000*%
G04 APERTURE END LIST*
D10*
G36*
X152436391Y-121089853D02*
G01*
X152457626Y-121093003D01*
X152478450Y-121098219D01*
X152498662Y-121105451D01*
X152518068Y-121114630D01*
X152536481Y-121125666D01*
X152553724Y-121138454D01*
X152569630Y-121152870D01*
X152584046Y-121168776D01*
X152596834Y-121186019D01*
X152607870Y-121204432D01*
X152617049Y-121223838D01*
X152624281Y-121244050D01*
X152629497Y-121264874D01*
X152632647Y-121286109D01*
X152633700Y-121307550D01*
X152633700Y-121745050D01*
X152632647Y-121766491D01*
X152629497Y-121787726D01*
X152624281Y-121808550D01*
X152617049Y-121828762D01*
X152607870Y-121848168D01*
X152596834Y-121866581D01*
X152584046Y-121883824D01*
X152569630Y-121899730D01*
X152553724Y-121914146D01*
X152536481Y-121926934D01*
X152518068Y-121937970D01*
X152498662Y-121947149D01*
X152478450Y-121954381D01*
X152457626Y-121959597D01*
X152436391Y-121962747D01*
X152414950Y-121963800D01*
X151902450Y-121963800D01*
X151881009Y-121962747D01*
X151859774Y-121959597D01*
X151838950Y-121954381D01*
X151818738Y-121947149D01*
X151799332Y-121937970D01*
X151780919Y-121926934D01*
X151763676Y-121914146D01*
X151747770Y-121899730D01*
X151733354Y-121883824D01*
X151720566Y-121866581D01*
X151709530Y-121848168D01*
X151700351Y-121828762D01*
X151693119Y-121808550D01*
X151687903Y-121787726D01*
X151684753Y-121766491D01*
X151683700Y-121745050D01*
X151683700Y-121307550D01*
X151684753Y-121286109D01*
X151687903Y-121264874D01*
X151693119Y-121244050D01*
X151700351Y-121223838D01*
X151709530Y-121204432D01*
X151720566Y-121186019D01*
X151733354Y-121168776D01*
X151747770Y-121152870D01*
X151763676Y-121138454D01*
X151780919Y-121125666D01*
X151799332Y-121114630D01*
X151818738Y-121105451D01*
X151838950Y-121098219D01*
X151859774Y-121093003D01*
X151881009Y-121089853D01*
X151902450Y-121088800D01*
X152414950Y-121088800D01*
X152436391Y-121089853D01*
X152436391Y-121089853D01*
G37*
D11*
X152158700Y-121526300D03*
D10*
G36*
X152436391Y-119514853D02*
G01*
X152457626Y-119518003D01*
X152478450Y-119523219D01*
X152498662Y-119530451D01*
X152518068Y-119539630D01*
X152536481Y-119550666D01*
X152553724Y-119563454D01*
X152569630Y-119577870D01*
X152584046Y-119593776D01*
X152596834Y-119611019D01*
X152607870Y-119629432D01*
X152617049Y-119648838D01*
X152624281Y-119669050D01*
X152629497Y-119689874D01*
X152632647Y-119711109D01*
X152633700Y-119732550D01*
X152633700Y-120170050D01*
X152632647Y-120191491D01*
X152629497Y-120212726D01*
X152624281Y-120233550D01*
X152617049Y-120253762D01*
X152607870Y-120273168D01*
X152596834Y-120291581D01*
X152584046Y-120308824D01*
X152569630Y-120324730D01*
X152553724Y-120339146D01*
X152536481Y-120351934D01*
X152518068Y-120362970D01*
X152498662Y-120372149D01*
X152478450Y-120379381D01*
X152457626Y-120384597D01*
X152436391Y-120387747D01*
X152414950Y-120388800D01*
X151902450Y-120388800D01*
X151881009Y-120387747D01*
X151859774Y-120384597D01*
X151838950Y-120379381D01*
X151818738Y-120372149D01*
X151799332Y-120362970D01*
X151780919Y-120351934D01*
X151763676Y-120339146D01*
X151747770Y-120324730D01*
X151733354Y-120308824D01*
X151720566Y-120291581D01*
X151709530Y-120273168D01*
X151700351Y-120253762D01*
X151693119Y-120233550D01*
X151687903Y-120212726D01*
X151684753Y-120191491D01*
X151683700Y-120170050D01*
X151683700Y-119732550D01*
X151684753Y-119711109D01*
X151687903Y-119689874D01*
X151693119Y-119669050D01*
X151700351Y-119648838D01*
X151709530Y-119629432D01*
X151720566Y-119611019D01*
X151733354Y-119593776D01*
X151747770Y-119577870D01*
X151763676Y-119563454D01*
X151780919Y-119550666D01*
X151799332Y-119539630D01*
X151818738Y-119530451D01*
X151838950Y-119523219D01*
X151859774Y-119518003D01*
X151881009Y-119514853D01*
X151902450Y-119513800D01*
X152414950Y-119513800D01*
X152436391Y-119514853D01*
X152436391Y-119514853D01*
G37*
D11*
X152158700Y-119951300D03*
D12*
X150212300Y-127317500D03*
X148212300Y-127317500D03*
D13*
X158229300Y-130098800D03*
X154165300Y-130098800D03*
D14*
X148521600Y-129527300D03*
X146321600Y-129527300D03*
D15*
X128955800Y-113148400D03*
X128955800Y-115248400D03*
D14*
X123309200Y-109804200D03*
X125509200Y-109804200D03*
D16*
X158663300Y-126377700D03*
X155763300Y-126377700D03*
D17*
X128597600Y-122313700D03*
X132097600Y-122313700D03*
D18*
X130347600Y-120083700D03*
D17*
X125097600Y-122313700D03*
X121597600Y-122313700D03*
X118097600Y-122313700D03*
D19*
X160997900Y-119583200D03*
X160997900Y-122123200D03*
X163537900Y-120853200D03*
X163537900Y-118313200D03*
D20*
X156476700Y-112979200D03*
X153479500Y-112979200D03*
D21*
X131851400Y-116700300D03*
X142011400Y-116700300D03*
X149631400Y-116700300D03*
X131851400Y-109080300D03*
D22*
X126149100Y-118131300D03*
X125199100Y-116031300D03*
X127099100Y-116031300D03*
D15*
X127084800Y-113764100D03*
X127084800Y-111864100D03*
X124984800Y-112814100D03*
D23*
X144299900Y-123444000D03*
X146199900Y-123444000D03*
X144299900Y-121443750D03*
X146199900Y-121443750D03*
X149044700Y-119380000D03*
X147144700Y-119380000D03*
X152080000Y-129552700D03*
X150180000Y-129552700D03*
D24*
X158026100Y-119814300D03*
X158026100Y-121714300D03*
X155994100Y-119801600D03*
X155994100Y-121701600D03*
X154025600Y-119801600D03*
X154025600Y-121701600D03*
D23*
X139791400Y-119329200D03*
X141691400Y-119329200D03*
X127205700Y-109778800D03*
X129105700Y-109778800D03*
D24*
X132727700Y-128910000D03*
X132727700Y-130810000D03*
D23*
X133614200Y-127038100D03*
X131714200Y-127038100D03*
D24*
X128790700Y-130807500D03*
X128790700Y-128907500D03*
X130759200Y-130807500D03*
X130759200Y-128907500D03*
D25*
X150060700Y-123401000D03*
X148160700Y-123401000D03*
X148160700Y-121201000D03*
X149110700Y-121201000D03*
X150060700Y-121201000D03*
D26*
X138568000Y-126967900D03*
X139218000Y-126967900D03*
X139868000Y-126967900D03*
X140518000Y-126967900D03*
X141168000Y-126967900D03*
X141818000Y-126967900D03*
X142468000Y-126967900D03*
X143118000Y-126967900D03*
X143118000Y-121367900D03*
X142468000Y-121367900D03*
X141818000Y-121367900D03*
X141168000Y-121367900D03*
X140518000Y-121367900D03*
X139868000Y-121367900D03*
X139218000Y-121367900D03*
X138568000Y-121367900D03*
D27*
X135120200Y-128983700D03*
X135120200Y-129933700D03*
X135120200Y-130883700D03*
X137320200Y-130883700D03*
X137320200Y-128983700D03*
D12*
X148212300Y-125349000D03*
X150212300Y-125349000D03*
X137232900Y-127025400D03*
X135232900Y-127025400D03*
D28*
X144945100Y-129514600D03*
X143027400Y-119329200D03*
D29*
X155994100Y-121701600D02*
X154025600Y-121701600D01*
X152334000Y-121701600D02*
X152158700Y-121526300D01*
X154025600Y-121701600D02*
X152334000Y-121701600D01*
X150386000Y-121526300D02*
X150060700Y-121201000D01*
X152158700Y-121526300D02*
X150386000Y-121526300D01*
X141168000Y-121367900D02*
X141818000Y-121367900D01*
X141818000Y-119455800D02*
X141691400Y-119329200D01*
X141818000Y-121367900D02*
X141818000Y-119455800D01*
X139218000Y-121367900D02*
X139868000Y-121367900D01*
X141168000Y-122332982D02*
X141168000Y-121367900D01*
X140977481Y-122523501D02*
X141168000Y-122332982D01*
X139868000Y-122332982D02*
X140058519Y-122523501D01*
X140058519Y-122523501D02*
X140977481Y-122523501D01*
X139868000Y-121367900D02*
X139868000Y-122332982D01*
X127084800Y-111865700D02*
X127084800Y-111864100D01*
X126111000Y-112839500D02*
X127084800Y-111865700D01*
X126111000Y-115100100D02*
X126111000Y-112839500D01*
X125199100Y-116012000D02*
X126111000Y-115100100D01*
X125199100Y-116031300D02*
X125199100Y-116012000D01*
X135665282Y-129933700D02*
X135120200Y-129933700D01*
X136005801Y-129593181D02*
X135665282Y-129933700D01*
X136005801Y-127923301D02*
X136005801Y-129593181D01*
X135232900Y-127150400D02*
X136005801Y-127923301D01*
X135232900Y-127025400D02*
X135232900Y-127150400D01*
X133604000Y-129933700D02*
X135120200Y-129933700D01*
X132727700Y-130810000D02*
X133604000Y-129933700D01*
X132727700Y-130810000D02*
X132661700Y-130810000D01*
X132661700Y-130810000D02*
X131558050Y-129706350D01*
X131558050Y-129706350D02*
X130759200Y-128907500D01*
X127785099Y-123126201D02*
X127899101Y-123012199D01*
X127785099Y-129541981D02*
X127785099Y-123126201D01*
X128253018Y-130009900D02*
X127785099Y-129541981D01*
X127899101Y-123012199D02*
X128597600Y-122313700D01*
X131254500Y-130009900D02*
X128253018Y-130009900D01*
X131558050Y-129706350D02*
X131254500Y-130009900D01*
X149110700Y-119446000D02*
X149044700Y-119380000D01*
X149110700Y-121201000D02*
X149110700Y-119446000D01*
X152308400Y-119801600D02*
X152158700Y-119951300D01*
X154025600Y-119801600D02*
X152308400Y-119801600D01*
X149616000Y-119951300D02*
X149044700Y-119380000D01*
X152158700Y-119951300D02*
X149616000Y-119951300D01*
X162618662Y-118313200D02*
X163537900Y-118313200D01*
X155814000Y-118313200D02*
X162618662Y-118313200D01*
X154325600Y-119801600D02*
X155814000Y-118313200D01*
X154025600Y-119801600D02*
X154325600Y-119801600D01*
X141818000Y-126967900D02*
X143118000Y-126967900D01*
X144768600Y-126967900D02*
X146321600Y-128520900D01*
X146321600Y-128520900D02*
X146321600Y-129527300D01*
X143118000Y-126967900D02*
X144768600Y-126967900D01*
X148212300Y-125349000D02*
X148212300Y-127317500D01*
X146321600Y-128301800D02*
X146321600Y-128520900D01*
X147305900Y-127317500D02*
X146321600Y-128301800D01*
X148212300Y-127317500D02*
X147305900Y-127317500D01*
X144957800Y-129527300D02*
X144945100Y-129514600D01*
X146321600Y-129527300D02*
X144957800Y-129527300D01*
X152158700Y-119951300D02*
X152171400Y-119938600D01*
D30*
X157162500Y-129032000D02*
X158229300Y-130098800D01*
X157162500Y-124866400D02*
X157162500Y-129032000D01*
X158470600Y-123558300D02*
X157162500Y-124866400D01*
X160934400Y-123558300D02*
X158470600Y-123558300D01*
X160997900Y-123494800D02*
X160934400Y-123558300D01*
X160997900Y-122123200D02*
X160997900Y-123494800D01*
D29*
X124079000Y-119832300D02*
X121597600Y-122313700D01*
X124079000Y-117151400D02*
X124079000Y-119832300D01*
X125199100Y-116031300D02*
X124079000Y-117151400D01*
X141691400Y-119329200D02*
X143027400Y-119329200D01*
D30*
X128955800Y-109928700D02*
X129105700Y-109778800D01*
X128955800Y-113148400D02*
X128955800Y-109928700D01*
X130238500Y-109715300D02*
X130873500Y-109080300D01*
X129169200Y-109715300D02*
X130238500Y-109715300D01*
X130873500Y-109080300D02*
X131851400Y-109080300D01*
X129105700Y-109778800D02*
X129169200Y-109715300D01*
X148997299Y-122337599D02*
X150060700Y-123401000D01*
X147306301Y-122337599D02*
X148997299Y-122337599D01*
X146199900Y-123444000D02*
X147306301Y-122337599D01*
X137232900Y-125638400D02*
X137232900Y-127025400D01*
X145376910Y-124777490D02*
X138093810Y-124777490D01*
X138093810Y-124777490D02*
X137232900Y-125638400D01*
X146199900Y-123954500D02*
X145376910Y-124777490D01*
X146199900Y-123444000D02*
X146199900Y-123954500D01*
D29*
X141168000Y-128174300D02*
X141911400Y-128917700D01*
X141168000Y-126967900D02*
X141168000Y-128174300D01*
D30*
X137320200Y-127112700D02*
X137232900Y-127025400D01*
X137320200Y-128983700D02*
X137320200Y-127112700D01*
X134534778Y-125638400D02*
X137232900Y-125638400D01*
X133614200Y-126558978D02*
X134534778Y-125638400D01*
X133614200Y-127038100D02*
X133614200Y-126558978D01*
X152080000Y-129852700D02*
X152080000Y-129552700D01*
X150968000Y-130964700D02*
X152080000Y-129852700D01*
X143958400Y-130964700D02*
X150968000Y-130964700D01*
X141911400Y-128917700D02*
X143958400Y-130964700D01*
X138093810Y-123412610D02*
X138093810Y-124777490D01*
X128851501Y-118559799D02*
X133240999Y-118559799D01*
X133240999Y-118559799D02*
X138093810Y-123412610D01*
X125097600Y-122313700D02*
X128851501Y-118559799D01*
D29*
X137232900Y-125994000D02*
X137232900Y-127025400D01*
X137232900Y-123909400D02*
X137232900Y-125994000D01*
X138568000Y-122574300D02*
X137232900Y-123909400D01*
X138568000Y-121367900D02*
X138568000Y-122574300D01*
X150154600Y-129527300D02*
X150180000Y-129552700D01*
X148521600Y-129527300D02*
X150154600Y-129527300D01*
X130399500Y-115248400D02*
X131851400Y-116700300D01*
X128955800Y-115248400D02*
X130399500Y-115248400D01*
X126955500Y-118131300D02*
X126149100Y-118131300D01*
X128955800Y-116131000D02*
X126955500Y-118131300D01*
X128955800Y-115248400D02*
X128955800Y-116131000D01*
X124980700Y-112810000D02*
X124984800Y-112814100D01*
X124980700Y-111475700D02*
X124980700Y-112810000D01*
X123309200Y-109804200D02*
X124980700Y-111475700D01*
X127180300Y-109804200D02*
X127205700Y-109778800D01*
X125509200Y-109804200D02*
X127180300Y-109804200D01*
X132801400Y-128983700D02*
X132727700Y-128910000D01*
X135120200Y-128983700D02*
X132801400Y-128983700D01*
X132727700Y-122943800D02*
X132097600Y-122313700D01*
X132727700Y-128910000D02*
X132727700Y-122943800D01*
D30*
X157238699Y-113741199D02*
X156476700Y-112979200D01*
X149631400Y-116700300D02*
X150904192Y-116700300D01*
X151221693Y-117017801D02*
X155638499Y-117017801D01*
X155638499Y-117017801D02*
X157238699Y-115417601D01*
X150904192Y-116700300D02*
X151221693Y-117017801D01*
X157238699Y-115417601D02*
X157238699Y-113741199D01*
X142011400Y-116700300D02*
X146748500Y-116700300D01*
X150469600Y-112979200D02*
X153479500Y-112979200D01*
X146748500Y-116700300D02*
X150469600Y-112979200D01*
D29*
X140518000Y-120055800D02*
X139791400Y-119329200D01*
X140518000Y-121367900D02*
X140518000Y-120055800D01*
X127941200Y-113764100D02*
X127084800Y-113764100D01*
X128464400Y-114287300D02*
X127941200Y-113764100D01*
X128460500Y-114287300D02*
X128464400Y-114287300D01*
X127099100Y-115648700D02*
X128460500Y-114287300D01*
X127099100Y-116031300D02*
X127099100Y-115648700D01*
X133464300Y-114287300D02*
X128464400Y-114287300D01*
X138506200Y-119329200D02*
X133464300Y-114287300D01*
X139791400Y-119329200D02*
X138506200Y-119329200D01*
X144299900Y-121443750D02*
X144299900Y-123444000D01*
X147917950Y-121443750D02*
X148160700Y-121201000D01*
X146199900Y-121443750D02*
X147917950Y-121443750D01*
X148160700Y-120396000D02*
X147144700Y-119380000D01*
X148160700Y-121201000D02*
X148160700Y-120396000D01*
X156006800Y-119814300D02*
X155994100Y-119801600D01*
X158026100Y-119814300D02*
X156006800Y-119814300D01*
X130957800Y-127038100D02*
X131714200Y-127038100D01*
X129903700Y-127038100D02*
X130957800Y-127038100D01*
X128790700Y-128151100D02*
X129903700Y-127038100D01*
X128790700Y-128907500D02*
X128790700Y-128151100D01*
X131059200Y-130807500D02*
X130759200Y-130807500D01*
X131815600Y-131563900D02*
X131059200Y-130807500D01*
X133503600Y-131563900D02*
X131815600Y-131563900D01*
X134183800Y-130883700D02*
X133503600Y-131563900D01*
X135120200Y-130883700D02*
X134183800Y-130883700D01*
X130759200Y-130807500D02*
X128790700Y-130807500D01*
X147998000Y-123401000D02*
X145884900Y-125514100D01*
X148160700Y-123401000D02*
X147998000Y-123401000D01*
X139868000Y-125761500D02*
X139868000Y-126967900D01*
X145884900Y-125514100D02*
X140115400Y-125514100D01*
X140115400Y-125514100D02*
X139868000Y-125761500D01*
X140518000Y-128174300D02*
X140512800Y-128179500D01*
X140518000Y-126967900D02*
X140518000Y-128174300D01*
X140512800Y-128179500D02*
X140512800Y-130060700D01*
X139689800Y-130883700D02*
X137320200Y-130883700D01*
X140512800Y-130060700D02*
X139689800Y-130883700D01*
D31*
G36*
X164553900Y-120088206D02*
G01*
X164553900Y-127726894D01*
X164328294Y-127952500D01*
X158429640Y-127952500D01*
X158205172Y-127727221D01*
X158214110Y-125251630D01*
X158783352Y-124682389D01*
X161865126Y-124711190D01*
X161889924Y-124708982D01*
X161913815Y-124701978D01*
X161935880Y-124690447D01*
X161955695Y-124674417D01*
X162255682Y-124377221D01*
X162271566Y-124358050D01*
X162283404Y-124336149D01*
X162290743Y-124312358D01*
X162293300Y-124287000D01*
X162293300Y-120088206D01*
X162518906Y-119862600D01*
X164328294Y-119862600D01*
X164553900Y-120088206D01*
X164553900Y-120088206D01*
G37*
X164553900Y-120088206D02*
X164553900Y-127726894D01*
X164328294Y-127952500D01*
X158429640Y-127952500D01*
X158205172Y-127727221D01*
X158214110Y-125251630D01*
X158783352Y-124682389D01*
X161865126Y-124711190D01*
X161889924Y-124708982D01*
X161913815Y-124701978D01*
X161935880Y-124690447D01*
X161955695Y-124674417D01*
X162255682Y-124377221D01*
X162271566Y-124358050D01*
X162283404Y-124336149D01*
X162290743Y-124312358D01*
X162293300Y-124287000D01*
X162293300Y-120088206D01*
X162518906Y-119862600D01*
X164328294Y-119862600D01*
X164553900Y-120088206D01*
G36*
X159169100Y-121485206D02*
G01*
X159169100Y-122542300D01*
X158520502Y-122542300D01*
X158470600Y-122537385D01*
X158420698Y-122542300D01*
X158271429Y-122557002D01*
X158079913Y-122615098D01*
X157903410Y-122709440D01*
X157748704Y-122836404D01*
X157716892Y-122875167D01*
X156479372Y-124112688D01*
X156440604Y-124144504D01*
X156313640Y-124299210D01*
X156219298Y-124475714D01*
X156161202Y-124667229D01*
X156161202Y-124667230D01*
X156141585Y-124866400D01*
X156146500Y-124916302D01*
X156146501Y-128982088D01*
X156141585Y-129032000D01*
X156145280Y-129069514D01*
X155583029Y-129631765D01*
X155567235Y-129651011D01*
X155555499Y-129672967D01*
X155343367Y-130185099D01*
X155336140Y-130208924D01*
X155333700Y-130233700D01*
X155333700Y-131409894D01*
X155201194Y-131542400D01*
X151238113Y-131542400D01*
X151107332Y-131410601D01*
X151114733Y-130455802D01*
X151119502Y-130446880D01*
X151155812Y-130327182D01*
X151168072Y-130202700D01*
X151168072Y-128902700D01*
X151155812Y-128778218D01*
X151119502Y-128658520D01*
X151060537Y-128548206D01*
X150981185Y-128451515D01*
X150884494Y-128372163D01*
X150774180Y-128313198D01*
X150654482Y-128276888D01*
X150530000Y-128264628D01*
X149830000Y-128264628D01*
X149705518Y-128276888D01*
X149661025Y-128290385D01*
X149502853Y-128132905D01*
X149480532Y-123043576D01*
X149701946Y-122819995D01*
X150242763Y-122818788D01*
X156814763Y-122824609D01*
X156839541Y-122822191D01*
X156863372Y-122814985D01*
X156885339Y-122803268D01*
X156904941Y-122787147D01*
X157202909Y-122487420D01*
X157218647Y-122468128D01*
X157230318Y-122446137D01*
X157237475Y-122422292D01*
X157239840Y-122397022D01*
X157239033Y-122277876D01*
X157269912Y-122176082D01*
X157282172Y-122051600D01*
X157282172Y-121351600D01*
X157273111Y-121259600D01*
X158943494Y-121259600D01*
X159169100Y-121485206D01*
X159169100Y-121485206D01*
G37*
X159169100Y-121485206D02*
X159169100Y-122542300D01*
X158520502Y-122542300D01*
X158470600Y-122537385D01*
X158420698Y-122542300D01*
X158271429Y-122557002D01*
X158079913Y-122615098D01*
X157903410Y-122709440D01*
X157748704Y-122836404D01*
X157716892Y-122875167D01*
X156479372Y-124112688D01*
X156440604Y-124144504D01*
X156313640Y-124299210D01*
X156219298Y-124475714D01*
X156161202Y-124667229D01*
X156161202Y-124667230D01*
X156141585Y-124866400D01*
X156146500Y-124916302D01*
X156146501Y-128982088D01*
X156141585Y-129032000D01*
X156145280Y-129069514D01*
X155583029Y-129631765D01*
X155567235Y-129651011D01*
X155555499Y-129672967D01*
X155343367Y-130185099D01*
X155336140Y-130208924D01*
X155333700Y-130233700D01*
X155333700Y-131409894D01*
X155201194Y-131542400D01*
X151238113Y-131542400D01*
X151107332Y-131410601D01*
X151114733Y-130455802D01*
X151119502Y-130446880D01*
X151155812Y-130327182D01*
X151168072Y-130202700D01*
X151168072Y-128902700D01*
X151155812Y-128778218D01*
X151119502Y-128658520D01*
X151060537Y-128548206D01*
X150981185Y-128451515D01*
X150884494Y-128372163D01*
X150774180Y-128313198D01*
X150654482Y-128276888D01*
X150530000Y-128264628D01*
X149830000Y-128264628D01*
X149705518Y-128276888D01*
X149661025Y-128290385D01*
X149502853Y-128132905D01*
X149480532Y-123043576D01*
X149701946Y-122819995D01*
X150242763Y-122818788D01*
X156814763Y-122824609D01*
X156839541Y-122822191D01*
X156863372Y-122814985D01*
X156885339Y-122803268D01*
X156904941Y-122787147D01*
X157202909Y-122487420D01*
X157218647Y-122468128D01*
X157230318Y-122446137D01*
X157237475Y-122422292D01*
X157239840Y-122397022D01*
X157239033Y-122277876D01*
X157269912Y-122176082D01*
X157282172Y-122051600D01*
X157282172Y-121351600D01*
X157273111Y-121259600D01*
X158943494Y-121259600D01*
X159169100Y-121485206D01*
G36*
X137884394Y-119892788D02*
G01*
X137910636Y-119924764D01*
X138038268Y-120029509D01*
X138183883Y-120107342D01*
X138341884Y-120155271D01*
X138465030Y-120167400D01*
X138465039Y-120167400D01*
X138471532Y-120168039D01*
X138499989Y-120236742D01*
X138453498Y-120323720D01*
X138417188Y-120443418D01*
X138404928Y-120567900D01*
X138404928Y-121160732D01*
X138391929Y-121203584D01*
X138375745Y-121367900D01*
X138391929Y-121532216D01*
X138404928Y-121575068D01*
X138404928Y-122167900D01*
X138417188Y-122292382D01*
X138453498Y-122412080D01*
X138512463Y-122522394D01*
X138591815Y-122619085D01*
X138658600Y-122673894D01*
X138658600Y-125250394D01*
X138427084Y-125481910D01*
X138414699Y-125485667D01*
X138392743Y-125497403D01*
X138373497Y-125513197D01*
X138352918Y-125533776D01*
X138268518Y-125542088D01*
X138148820Y-125578398D01*
X138038506Y-125637363D01*
X137941815Y-125716715D01*
X137862463Y-125813406D01*
X137803498Y-125923720D01*
X137767188Y-126043418D01*
X137754928Y-126167900D01*
X137754928Y-127767900D01*
X137767188Y-127892382D01*
X137803498Y-128012080D01*
X137862463Y-128122394D01*
X137941815Y-128219085D01*
X138036300Y-128296627D01*
X138036300Y-129466794D01*
X137810694Y-129692400D01*
X136838284Y-129692400D01*
X136844001Y-129634351D01*
X136844001Y-129634344D01*
X136848055Y-129593181D01*
X136844001Y-129552018D01*
X136844001Y-127964463D01*
X136848055Y-127923300D01*
X136844001Y-127882137D01*
X136844001Y-127882131D01*
X136831872Y-127758985D01*
X136783943Y-127600984D01*
X136706110Y-127455369D01*
X136601365Y-127327737D01*
X136569389Y-127301496D01*
X136563100Y-127295207D01*
X136563100Y-126504896D01*
X136588157Y-126164781D01*
X136587543Y-126139892D01*
X136582086Y-126115601D01*
X136571995Y-126092842D01*
X136557658Y-126072488D01*
X136409737Y-125901038D01*
X136391704Y-125883873D01*
X136370669Y-125870555D01*
X136347440Y-125861597D01*
X136313579Y-125857000D01*
X136063329Y-125857000D01*
X135977080Y-125810898D01*
X135857382Y-125774588D01*
X135732900Y-125762328D01*
X134732900Y-125762328D01*
X134608418Y-125774588D01*
X134488720Y-125810898D01*
X134378406Y-125869863D01*
X134281715Y-125949215D01*
X134202363Y-126045906D01*
X134143398Y-126156220D01*
X134107088Y-126275918D01*
X134094828Y-126400400D01*
X134094828Y-127569301D01*
X134001525Y-127661373D01*
X133690552Y-127659430D01*
X133565900Y-127533685D01*
X133565900Y-122984963D01*
X133569954Y-122943800D01*
X133565900Y-122902637D01*
X133565900Y-122902630D01*
X133553771Y-122779484D01*
X133505842Y-122621483D01*
X133480300Y-122573697D01*
X133482466Y-122364862D01*
X133496900Y-121574569D01*
X133494912Y-121549752D01*
X133488122Y-121525800D01*
X133476788Y-121503633D01*
X133461723Y-121484493D01*
X133167310Y-121176510D01*
X133148426Y-121160286D01*
X133126739Y-121148059D01*
X133103083Y-121140297D01*
X133078908Y-121137313D01*
X132718871Y-121127669D01*
X132486568Y-121031446D01*
X132228938Y-120980200D01*
X131966262Y-120980200D01*
X131708632Y-121031446D01*
X131654260Y-121053968D01*
X131788099Y-120853663D01*
X131910633Y-120557841D01*
X131973100Y-120243798D01*
X131973100Y-119923602D01*
X131910633Y-119609559D01*
X131788099Y-119313737D01*
X131610208Y-119047504D01*
X131383796Y-118821092D01*
X131117563Y-118643201D01*
X130821741Y-118520667D01*
X130507698Y-118458200D01*
X130187502Y-118458200D01*
X129873459Y-118520667D01*
X129577637Y-118643201D01*
X129311404Y-118821092D01*
X129084992Y-119047504D01*
X128907101Y-119313737D01*
X128784567Y-119609559D01*
X128722100Y-119923602D01*
X128722100Y-120243798D01*
X128784567Y-120557841D01*
X128907101Y-120853663D01*
X129003925Y-120998572D01*
X128809052Y-120996136D01*
X128728938Y-120980200D01*
X128466262Y-120980200D01*
X128411152Y-120991162D01*
X127326964Y-120977610D01*
X127302159Y-120979740D01*
X127278247Y-120986669D01*
X127256145Y-120998130D01*
X127236336Y-121014043D01*
X126935046Y-121310290D01*
X126919090Y-121329401D01*
X126907169Y-121351258D01*
X126899741Y-121375020D01*
X126897088Y-121400291D01*
X126887240Y-123650641D01*
X126658319Y-123883761D01*
X125621387Y-123907151D01*
X125023151Y-123913243D01*
X122798696Y-123908386D01*
X122769273Y-123840610D01*
X127454613Y-118806020D01*
X127551064Y-118726864D01*
X127577311Y-118694882D01*
X127892486Y-118379707D01*
X128279227Y-118210635D01*
X131527966Y-118201037D01*
X131700216Y-118235300D01*
X132002584Y-118235300D01*
X132184586Y-118199098D01*
X136178904Y-118187297D01*
X137884394Y-119892788D01*
X137884394Y-119892788D01*
G37*
X137884394Y-119892788D02*
X137910636Y-119924764D01*
X138038268Y-120029509D01*
X138183883Y-120107342D01*
X138341884Y-120155271D01*
X138465030Y-120167400D01*
X138465039Y-120167400D01*
X138471532Y-120168039D01*
X138499989Y-120236742D01*
X138453498Y-120323720D01*
X138417188Y-120443418D01*
X138404928Y-120567900D01*
X138404928Y-121160732D01*
X138391929Y-121203584D01*
X138375745Y-121367900D01*
X138391929Y-121532216D01*
X138404928Y-121575068D01*
X138404928Y-122167900D01*
X138417188Y-122292382D01*
X138453498Y-122412080D01*
X138512463Y-122522394D01*
X138591815Y-122619085D01*
X138658600Y-122673894D01*
X138658600Y-125250394D01*
X138427084Y-125481910D01*
X138414699Y-125485667D01*
X138392743Y-125497403D01*
X138373497Y-125513197D01*
X138352918Y-125533776D01*
X138268518Y-125542088D01*
X138148820Y-125578398D01*
X138038506Y-125637363D01*
X137941815Y-125716715D01*
X137862463Y-125813406D01*
X137803498Y-125923720D01*
X137767188Y-126043418D01*
X137754928Y-126167900D01*
X137754928Y-127767900D01*
X137767188Y-127892382D01*
X137803498Y-128012080D01*
X137862463Y-128122394D01*
X137941815Y-128219085D01*
X138036300Y-128296627D01*
X138036300Y-129466794D01*
X137810694Y-129692400D01*
X136838284Y-129692400D01*
X136844001Y-129634351D01*
X136844001Y-129634344D01*
X136848055Y-129593181D01*
X136844001Y-129552018D01*
X136844001Y-127964463D01*
X136848055Y-127923300D01*
X136844001Y-127882137D01*
X136844001Y-127882131D01*
X136831872Y-127758985D01*
X136783943Y-127600984D01*
X136706110Y-127455369D01*
X136601365Y-127327737D01*
X136569389Y-127301496D01*
X136563100Y-127295207D01*
X136563100Y-126504896D01*
X136588157Y-126164781D01*
X136587543Y-126139892D01*
X136582086Y-126115601D01*
X136571995Y-126092842D01*
X136557658Y-126072488D01*
X136409737Y-125901038D01*
X136391704Y-125883873D01*
X136370669Y-125870555D01*
X136347440Y-125861597D01*
X136313579Y-125857000D01*
X136063329Y-125857000D01*
X135977080Y-125810898D01*
X135857382Y-125774588D01*
X135732900Y-125762328D01*
X134732900Y-125762328D01*
X134608418Y-125774588D01*
X134488720Y-125810898D01*
X134378406Y-125869863D01*
X134281715Y-125949215D01*
X134202363Y-126045906D01*
X134143398Y-126156220D01*
X134107088Y-126275918D01*
X134094828Y-126400400D01*
X134094828Y-127569301D01*
X134001525Y-127661373D01*
X133690552Y-127659430D01*
X133565900Y-127533685D01*
X133565900Y-122984963D01*
X133569954Y-122943800D01*
X133565900Y-122902637D01*
X133565900Y-122902630D01*
X133553771Y-122779484D01*
X133505842Y-122621483D01*
X133480300Y-122573697D01*
X133482466Y-122364862D01*
X133496900Y-121574569D01*
X133494912Y-121549752D01*
X133488122Y-121525800D01*
X133476788Y-121503633D01*
X133461723Y-121484493D01*
X133167310Y-121176510D01*
X133148426Y-121160286D01*
X133126739Y-121148059D01*
X133103083Y-121140297D01*
X133078908Y-121137313D01*
X132718871Y-121127669D01*
X132486568Y-121031446D01*
X132228938Y-120980200D01*
X131966262Y-120980200D01*
X131708632Y-121031446D01*
X131654260Y-121053968D01*
X131788099Y-120853663D01*
X131910633Y-120557841D01*
X131973100Y-120243798D01*
X131973100Y-119923602D01*
X131910633Y-119609559D01*
X131788099Y-119313737D01*
X131610208Y-119047504D01*
X131383796Y-118821092D01*
X131117563Y-118643201D01*
X130821741Y-118520667D01*
X130507698Y-118458200D01*
X130187502Y-118458200D01*
X129873459Y-118520667D01*
X129577637Y-118643201D01*
X129311404Y-118821092D01*
X129084992Y-119047504D01*
X128907101Y-119313737D01*
X128784567Y-119609559D01*
X128722100Y-119923602D01*
X128722100Y-120243798D01*
X128784567Y-120557841D01*
X128907101Y-120853663D01*
X129003925Y-120998572D01*
X128809052Y-120996136D01*
X128728938Y-120980200D01*
X128466262Y-120980200D01*
X128411152Y-120991162D01*
X127326964Y-120977610D01*
X127302159Y-120979740D01*
X127278247Y-120986669D01*
X127256145Y-120998130D01*
X127236336Y-121014043D01*
X126935046Y-121310290D01*
X126919090Y-121329401D01*
X126907169Y-121351258D01*
X126899741Y-121375020D01*
X126897088Y-121400291D01*
X126887240Y-123650641D01*
X126658319Y-123883761D01*
X125621387Y-123907151D01*
X125023151Y-123913243D01*
X122798696Y-123908386D01*
X122769273Y-123840610D01*
X127454613Y-118806020D01*
X127551064Y-118726864D01*
X127577311Y-118694882D01*
X127892486Y-118379707D01*
X128279227Y-118210635D01*
X131527966Y-118201037D01*
X131700216Y-118235300D01*
X132002584Y-118235300D01*
X132184586Y-118199098D01*
X136178904Y-118187297D01*
X137884394Y-119892788D01*
G36*
X163746573Y-117711968D02*
G01*
X164115345Y-118041165D01*
X164137818Y-118090995D01*
X164126344Y-118574010D01*
X164083678Y-118657762D01*
X163702651Y-118917473D01*
X163440990Y-118942912D01*
X162944735Y-118807736D01*
X162890018Y-118767942D01*
X162868545Y-118755343D01*
X162854595Y-118749877D01*
X162311974Y-118573425D01*
X162287657Y-118568084D01*
X162272700Y-118567200D01*
X161790288Y-118567200D01*
X161606576Y-118444447D01*
X161372721Y-118347581D01*
X161124461Y-118298200D01*
X160871339Y-118298200D01*
X160623079Y-118347581D01*
X160389224Y-118444447D01*
X160205512Y-118567200D01*
X155609645Y-118567200D01*
X155584869Y-118569640D01*
X155561044Y-118576867D01*
X155285099Y-118691167D01*
X155263143Y-118702903D01*
X155243897Y-118718697D01*
X155100747Y-118861847D01*
X155099920Y-118862098D01*
X154989606Y-118921063D01*
X154892915Y-119000415D01*
X154813563Y-119097106D01*
X154754598Y-119207420D01*
X154718288Y-119327118D01*
X154706028Y-119451600D01*
X154706028Y-120151600D01*
X154708195Y-120173599D01*
X154549294Y-120332500D01*
X150924786Y-120332500D01*
X150916237Y-120316506D01*
X150836885Y-120219815D01*
X150740194Y-120140463D01*
X150629880Y-120081498D01*
X150510182Y-120045188D01*
X150385700Y-120032928D01*
X149735700Y-120032928D01*
X149611218Y-120045188D01*
X149491520Y-120081498D01*
X149381206Y-120140463D01*
X149284515Y-120219815D01*
X149205163Y-120316506D01*
X149146198Y-120426820D01*
X149110700Y-120543841D01*
X149075202Y-120426820D01*
X149016237Y-120316506D01*
X148992246Y-120287273D01*
X148986771Y-120231684D01*
X148938842Y-120073683D01*
X148861009Y-119928068D01*
X148856700Y-119922817D01*
X148856700Y-118894406D01*
X149082306Y-118668800D01*
X150144200Y-118668800D01*
X150168976Y-118666360D01*
X150192801Y-118659133D01*
X150704933Y-118447001D01*
X150726889Y-118435265D01*
X150746135Y-118419471D01*
X151116498Y-118049108D01*
X151157600Y-118032403D01*
X151171791Y-118033801D01*
X151171798Y-118033801D01*
X151221692Y-118038715D01*
X151271586Y-118033801D01*
X155588597Y-118033801D01*
X155638499Y-118038716D01*
X155688401Y-118033801D01*
X155837670Y-118019099D01*
X156029186Y-117961003D01*
X156104555Y-117920718D01*
X162372632Y-118004385D01*
X162404739Y-118000701D01*
X162968422Y-117861676D01*
X162998559Y-117850008D01*
X163197595Y-117742056D01*
X163695222Y-117695497D01*
X163746573Y-117711968D01*
X163746573Y-117711968D01*
G37*
X163746573Y-117711968D02*
X164115345Y-118041165D01*
X164137818Y-118090995D01*
X164126344Y-118574010D01*
X164083678Y-118657762D01*
X163702651Y-118917473D01*
X163440990Y-118942912D01*
X162944735Y-118807736D01*
X162890018Y-118767942D01*
X162868545Y-118755343D01*
X162854595Y-118749877D01*
X162311974Y-118573425D01*
X162287657Y-118568084D01*
X162272700Y-118567200D01*
X161790288Y-118567200D01*
X161606576Y-118444447D01*
X161372721Y-118347581D01*
X161124461Y-118298200D01*
X160871339Y-118298200D01*
X160623079Y-118347581D01*
X160389224Y-118444447D01*
X160205512Y-118567200D01*
X155609645Y-118567200D01*
X155584869Y-118569640D01*
X155561044Y-118576867D01*
X155285099Y-118691167D01*
X155263143Y-118702903D01*
X155243897Y-118718697D01*
X155100747Y-118861847D01*
X155099920Y-118862098D01*
X154989606Y-118921063D01*
X154892915Y-119000415D01*
X154813563Y-119097106D01*
X154754598Y-119207420D01*
X154718288Y-119327118D01*
X154706028Y-119451600D01*
X154706028Y-120151600D01*
X154708195Y-120173599D01*
X154549294Y-120332500D01*
X150924786Y-120332500D01*
X150916237Y-120316506D01*
X150836885Y-120219815D01*
X150740194Y-120140463D01*
X150629880Y-120081498D01*
X150510182Y-120045188D01*
X150385700Y-120032928D01*
X149735700Y-120032928D01*
X149611218Y-120045188D01*
X149491520Y-120081498D01*
X149381206Y-120140463D01*
X149284515Y-120219815D01*
X149205163Y-120316506D01*
X149146198Y-120426820D01*
X149110700Y-120543841D01*
X149075202Y-120426820D01*
X149016237Y-120316506D01*
X148992246Y-120287273D01*
X148986771Y-120231684D01*
X148938842Y-120073683D01*
X148861009Y-119928068D01*
X148856700Y-119922817D01*
X148856700Y-118894406D01*
X149082306Y-118668800D01*
X150144200Y-118668800D01*
X150168976Y-118666360D01*
X150192801Y-118659133D01*
X150704933Y-118447001D01*
X150726889Y-118435265D01*
X150746135Y-118419471D01*
X151116498Y-118049108D01*
X151157600Y-118032403D01*
X151171791Y-118033801D01*
X151171798Y-118033801D01*
X151221692Y-118038715D01*
X151271586Y-118033801D01*
X155588597Y-118033801D01*
X155638499Y-118038716D01*
X155688401Y-118033801D01*
X155837670Y-118019099D01*
X156029186Y-117961003D01*
X156104555Y-117920718D01*
X162372632Y-118004385D01*
X162404739Y-118000701D01*
X162968422Y-117861676D01*
X162998559Y-117850008D01*
X163197595Y-117742056D01*
X163695222Y-117695497D01*
X163746573Y-117711968D01*
M02*
