M48
INCH,TZ
T1C0.0120
T2C0.0300
T3C0.0315
T4C0.0400
T5C0.0402
T6C0.0512
T7C0.0630
T8C0.0400
T9C0.0950
%
G90
G05
T1
X56310Y-46980
X57065Y-50990
T2
X46495Y-48155
T3
X63385Y-47080
X63385Y-48080
X64385Y-46580
X64385Y-47580
T4
X60425Y-44480
X61605Y-44480
T5
X47873Y-48155
X49251Y-48155
X50629Y-48155
X52007Y-48155
T6
X51910Y-42945
X51910Y-45945
X55910Y-45945
X58910Y-45945
T7
X51318Y-47277
T8
X60055Y-43300
X60055Y-45660
T9
X61015Y-43630
X61015Y-45330
T0
M30
