G04 #@! TF.GenerationSoftware,KiCad,Pcbnew,(5.1.4-0-10_14)*
G04 #@! TF.CreationDate,2020-01-14T22:25:27-05:00*
G04 #@! TF.ProjectId,IMD_LATCH,494d445f-4c41-4544-9348-2e6b69636164,1*
G04 #@! TF.SameCoordinates,Original*
G04 #@! TF.FileFunction,Paste,Top*
G04 #@! TF.FilePolarity,Positive*
%FSLAX46Y46*%
G04 Gerber Fmt 4.6, Leading zero omitted, Abs format (unit mm)*
G04 Created by KiCad (PCBNEW (5.1.4-0-10_14)) date 2020-01-14 22:25:27*
%MOMM*%
%LPD*%
G04 APERTURE LIST*
%ADD10C,0.100000*%
%ADD11C,0.875000*%
%ADD12R,1.000000X1.250000*%
%ADD13R,1.778000X2.159000*%
%ADD14R,1.200000X1.200000*%
%ADD15R,0.900000X0.800000*%
%ADD16R,0.900000X2.500000*%
%ADD17R,0.800000X0.900000*%
%ADD18R,0.700000X1.300000*%
%ADD19R,1.300000X0.700000*%
%ADD20R,0.650000X1.060000*%
%ADD21R,0.350000X1.600000*%
%ADD22R,1.060000X0.650000*%
G04 APERTURE END LIST*
D10*
G36*
X152436391Y-121089853D02*
G01*
X152457626Y-121093003D01*
X152478450Y-121098219D01*
X152498662Y-121105451D01*
X152518068Y-121114630D01*
X152536481Y-121125666D01*
X152553724Y-121138454D01*
X152569630Y-121152870D01*
X152584046Y-121168776D01*
X152596834Y-121186019D01*
X152607870Y-121204432D01*
X152617049Y-121223838D01*
X152624281Y-121244050D01*
X152629497Y-121264874D01*
X152632647Y-121286109D01*
X152633700Y-121307550D01*
X152633700Y-121745050D01*
X152632647Y-121766491D01*
X152629497Y-121787726D01*
X152624281Y-121808550D01*
X152617049Y-121828762D01*
X152607870Y-121848168D01*
X152596834Y-121866581D01*
X152584046Y-121883824D01*
X152569630Y-121899730D01*
X152553724Y-121914146D01*
X152536481Y-121926934D01*
X152518068Y-121937970D01*
X152498662Y-121947149D01*
X152478450Y-121954381D01*
X152457626Y-121959597D01*
X152436391Y-121962747D01*
X152414950Y-121963800D01*
X151902450Y-121963800D01*
X151881009Y-121962747D01*
X151859774Y-121959597D01*
X151838950Y-121954381D01*
X151818738Y-121947149D01*
X151799332Y-121937970D01*
X151780919Y-121926934D01*
X151763676Y-121914146D01*
X151747770Y-121899730D01*
X151733354Y-121883824D01*
X151720566Y-121866581D01*
X151709530Y-121848168D01*
X151700351Y-121828762D01*
X151693119Y-121808550D01*
X151687903Y-121787726D01*
X151684753Y-121766491D01*
X151683700Y-121745050D01*
X151683700Y-121307550D01*
X151684753Y-121286109D01*
X151687903Y-121264874D01*
X151693119Y-121244050D01*
X151700351Y-121223838D01*
X151709530Y-121204432D01*
X151720566Y-121186019D01*
X151733354Y-121168776D01*
X151747770Y-121152870D01*
X151763676Y-121138454D01*
X151780919Y-121125666D01*
X151799332Y-121114630D01*
X151818738Y-121105451D01*
X151838950Y-121098219D01*
X151859774Y-121093003D01*
X151881009Y-121089853D01*
X151902450Y-121088800D01*
X152414950Y-121088800D01*
X152436391Y-121089853D01*
X152436391Y-121089853D01*
G37*
D11*
X152158700Y-121526300D03*
D10*
G36*
X152436391Y-119514853D02*
G01*
X152457626Y-119518003D01*
X152478450Y-119523219D01*
X152498662Y-119530451D01*
X152518068Y-119539630D01*
X152536481Y-119550666D01*
X152553724Y-119563454D01*
X152569630Y-119577870D01*
X152584046Y-119593776D01*
X152596834Y-119611019D01*
X152607870Y-119629432D01*
X152617049Y-119648838D01*
X152624281Y-119669050D01*
X152629497Y-119689874D01*
X152632647Y-119711109D01*
X152633700Y-119732550D01*
X152633700Y-120170050D01*
X152632647Y-120191491D01*
X152629497Y-120212726D01*
X152624281Y-120233550D01*
X152617049Y-120253762D01*
X152607870Y-120273168D01*
X152596834Y-120291581D01*
X152584046Y-120308824D01*
X152569630Y-120324730D01*
X152553724Y-120339146D01*
X152536481Y-120351934D01*
X152518068Y-120362970D01*
X152498662Y-120372149D01*
X152478450Y-120379381D01*
X152457626Y-120384597D01*
X152436391Y-120387747D01*
X152414950Y-120388800D01*
X151902450Y-120388800D01*
X151881009Y-120387747D01*
X151859774Y-120384597D01*
X151838950Y-120379381D01*
X151818738Y-120372149D01*
X151799332Y-120362970D01*
X151780919Y-120351934D01*
X151763676Y-120339146D01*
X151747770Y-120324730D01*
X151733354Y-120308824D01*
X151720566Y-120291581D01*
X151709530Y-120273168D01*
X151700351Y-120253762D01*
X151693119Y-120233550D01*
X151687903Y-120212726D01*
X151684753Y-120191491D01*
X151683700Y-120170050D01*
X151683700Y-119732550D01*
X151684753Y-119711109D01*
X151687903Y-119689874D01*
X151693119Y-119669050D01*
X151700351Y-119648838D01*
X151709530Y-119629432D01*
X151720566Y-119611019D01*
X151733354Y-119593776D01*
X151747770Y-119577870D01*
X151763676Y-119563454D01*
X151780919Y-119550666D01*
X151799332Y-119539630D01*
X151818738Y-119530451D01*
X151838950Y-119523219D01*
X151859774Y-119518003D01*
X151881009Y-119514853D01*
X151902450Y-119513800D01*
X152414950Y-119513800D01*
X152436391Y-119514853D01*
X152436391Y-119514853D01*
G37*
D11*
X152158700Y-119951300D03*
D12*
X150212300Y-127317500D03*
X148212300Y-127317500D03*
D13*
X158229300Y-130098800D03*
X154165300Y-130098800D03*
D14*
X148521600Y-129527300D03*
X146321600Y-129527300D03*
D15*
X128955800Y-113148400D03*
X128955800Y-115248400D03*
D14*
X123309200Y-109804200D03*
X125509200Y-109804200D03*
D16*
X158663300Y-126377700D03*
X155763300Y-126377700D03*
D17*
X126149100Y-118131300D03*
X125199100Y-116031300D03*
X127099100Y-116031300D03*
D15*
X127084800Y-113764100D03*
X127084800Y-111864100D03*
X124984800Y-112814100D03*
D18*
X144299900Y-123444000D03*
X146199900Y-123444000D03*
X144299900Y-121443750D03*
X146199900Y-121443750D03*
X149044700Y-119380000D03*
X147144700Y-119380000D03*
X152080000Y-129552700D03*
X150180000Y-129552700D03*
D19*
X158026100Y-119814300D03*
X158026100Y-121714300D03*
X155994100Y-119801600D03*
X155994100Y-121701600D03*
X154025600Y-119801600D03*
X154025600Y-121701600D03*
D18*
X139791400Y-119329200D03*
X141691400Y-119329200D03*
X127205700Y-109778800D03*
X129105700Y-109778800D03*
D19*
X132727700Y-128910000D03*
X132727700Y-130810000D03*
D18*
X133614200Y-127038100D03*
X131714200Y-127038100D03*
D19*
X128790700Y-130807500D03*
X128790700Y-128907500D03*
X130759200Y-130807500D03*
X130759200Y-128907500D03*
D20*
X150060700Y-123401000D03*
X148160700Y-123401000D03*
X148160700Y-121201000D03*
X149110700Y-121201000D03*
X150060700Y-121201000D03*
D21*
X138568000Y-126967900D03*
X139218000Y-126967900D03*
X139868000Y-126967900D03*
X140518000Y-126967900D03*
X141168000Y-126967900D03*
X141818000Y-126967900D03*
X142468000Y-126967900D03*
X143118000Y-126967900D03*
X143118000Y-121367900D03*
X142468000Y-121367900D03*
X141818000Y-121367900D03*
X141168000Y-121367900D03*
X140518000Y-121367900D03*
X139868000Y-121367900D03*
X139218000Y-121367900D03*
X138568000Y-121367900D03*
D22*
X135120200Y-128983700D03*
X135120200Y-129933700D03*
X135120200Y-130883700D03*
X137320200Y-130883700D03*
X137320200Y-128983700D03*
D12*
X148212300Y-125349000D03*
X150212300Y-125349000D03*
X137232900Y-127025400D03*
X135232900Y-127025400D03*
M02*
