G04 #@! TF.GenerationSoftware,KiCad,Pcbnew,(5.1.4-0-10_14)*
G04 #@! TF.CreationDate,2020-01-14T22:25:27-05:00*
G04 #@! TF.ProjectId,IMD_LATCH,494d445f-4c41-4544-9348-2e6b69636164,1*
G04 #@! TF.SameCoordinates,Original*
G04 #@! TF.FileFunction,Legend,Bot*
G04 #@! TF.FilePolarity,Positive*
%FSLAX46Y46*%
G04 Gerber Fmt 4.6, Leading zero omitted, Abs format (unit mm)*
G04 Created by KiCad (PCBNEW (5.1.4-0-10_14)) date 2020-01-14 22:25:27*
%MOMM*%
%LPD*%
G04 APERTURE LIST*
%ADD10C,0.300000*%
%ADD11C,0.150000*%
G04 APERTURE END LIST*
D10*
X150921728Y-109302600D02*
X150207442Y-109302600D01*
X151064585Y-109731171D02*
X150564585Y-108231171D01*
X150064585Y-109731171D01*
X148921728Y-109731171D02*
X148921728Y-108231171D01*
X148921728Y-109659742D02*
X149064585Y-109731171D01*
X149350300Y-109731171D01*
X149493157Y-109659742D01*
X149564585Y-109588314D01*
X149636014Y-109445457D01*
X149636014Y-109016885D01*
X149564585Y-108874028D01*
X149493157Y-108802600D01*
X149350300Y-108731171D01*
X149064585Y-108731171D01*
X148921728Y-108802600D01*
X148207442Y-109731171D02*
X148207442Y-108731171D01*
X148207442Y-108231171D02*
X148278871Y-108302600D01*
X148207442Y-108374028D01*
X148136014Y-108302600D01*
X148207442Y-108231171D01*
X148207442Y-108374028D01*
X147707442Y-108731171D02*
X147136014Y-108731171D01*
X147493157Y-108231171D02*
X147493157Y-109516885D01*
X147421728Y-109659742D01*
X147278871Y-109731171D01*
X147136014Y-109731171D01*
X146778871Y-108731171D02*
X146421728Y-109731171D01*
X146064585Y-108731171D02*
X146421728Y-109731171D01*
X146564585Y-110088314D01*
X146636014Y-110159742D01*
X146778871Y-110231171D01*
X144850300Y-109731171D02*
X144850300Y-108945457D01*
X144921728Y-108802600D01*
X145064585Y-108731171D01*
X145350300Y-108731171D01*
X145493157Y-108802600D01*
X144850300Y-109659742D02*
X144993157Y-109731171D01*
X145350300Y-109731171D01*
X145493157Y-109659742D01*
X145564585Y-109516885D01*
X145564585Y-109374028D01*
X145493157Y-109231171D01*
X145350300Y-109159742D01*
X144993157Y-109159742D01*
X144850300Y-109088314D01*
X143064585Y-109659742D02*
X142850300Y-109731171D01*
X142493157Y-109731171D01*
X142350300Y-109659742D01*
X142278871Y-109588314D01*
X142207442Y-109445457D01*
X142207442Y-109302600D01*
X142278871Y-109159742D01*
X142350300Y-109088314D01*
X142493157Y-109016885D01*
X142778871Y-108945457D01*
X142921728Y-108874028D01*
X142993157Y-108802600D01*
X143064585Y-108659742D01*
X143064585Y-108516885D01*
X142993157Y-108374028D01*
X142921728Y-108302600D01*
X142778871Y-108231171D01*
X142421728Y-108231171D01*
X142207442Y-108302600D01*
X140921728Y-108731171D02*
X140921728Y-109731171D01*
X141564585Y-108731171D02*
X141564585Y-109516885D01*
X141493157Y-109659742D01*
X141350300Y-109731171D01*
X141136014Y-109731171D01*
X140993157Y-109659742D01*
X140921728Y-109588314D01*
X139564585Y-109731171D02*
X139564585Y-108231171D01*
X139564585Y-109659742D02*
X139707442Y-109731171D01*
X139993157Y-109731171D01*
X140136014Y-109659742D01*
X140207442Y-109588314D01*
X140278871Y-109445457D01*
X140278871Y-109016885D01*
X140207442Y-108874028D01*
X140136014Y-108802600D01*
X139993157Y-108731171D01*
X139707442Y-108731171D01*
X139564585Y-108802600D01*
X138850300Y-109731171D02*
X138850300Y-108231171D01*
X138207442Y-109731171D02*
X138207442Y-108945457D01*
X138278871Y-108802600D01*
X138421728Y-108731171D01*
X138636014Y-108731171D01*
X138778871Y-108802600D01*
X138850300Y-108874028D01*
X136850300Y-109731171D02*
X136850300Y-108945457D01*
X136921728Y-108802600D01*
X137064585Y-108731171D01*
X137350300Y-108731171D01*
X137493157Y-108802600D01*
X136850300Y-109659742D02*
X136993157Y-109731171D01*
X137350300Y-109731171D01*
X137493157Y-109659742D01*
X137564585Y-109516885D01*
X137564585Y-109374028D01*
X137493157Y-109231171D01*
X137350300Y-109159742D01*
X136993157Y-109159742D01*
X136850300Y-109088314D01*
X136136014Y-109731171D02*
X136136014Y-108231171D01*
X135993157Y-109159742D02*
X135564585Y-109731171D01*
X135564585Y-108731171D02*
X136136014Y-109302600D01*
X134278871Y-109731171D02*
X134278871Y-108945457D01*
X134350300Y-108802600D01*
X134493157Y-108731171D01*
X134778871Y-108731171D01*
X134921728Y-108802600D01*
X134278871Y-109659742D02*
X134421728Y-109731171D01*
X134778871Y-109731171D01*
X134921728Y-109659742D01*
X134993157Y-109516885D01*
X134993157Y-109374028D01*
X134921728Y-109231171D01*
X134778871Y-109159742D01*
X134421728Y-109159742D01*
X134278871Y-109088314D01*
X133564585Y-109731171D02*
X133564585Y-108731171D01*
X133564585Y-109016885D02*
X133493157Y-108874028D01*
X133421728Y-108802600D01*
X133278871Y-108731171D01*
X133136014Y-108731171D01*
X147314585Y-112281171D02*
X147314585Y-110781171D01*
X146600300Y-112281171D02*
X146600300Y-110781171D01*
X146100300Y-111852600D01*
X145600300Y-110781171D01*
X145600300Y-112281171D01*
X144886014Y-112281171D02*
X144886014Y-110781171D01*
X144528871Y-110781171D01*
X144314585Y-110852600D01*
X144171728Y-110995457D01*
X144100300Y-111138314D01*
X144028871Y-111424028D01*
X144028871Y-111638314D01*
X144100300Y-111924028D01*
X144171728Y-112066885D01*
X144314585Y-112209742D01*
X144528871Y-112281171D01*
X144886014Y-112281171D01*
X141528871Y-112281171D02*
X142243157Y-112281171D01*
X142243157Y-110781171D01*
X140386014Y-112281171D02*
X140386014Y-111495457D01*
X140457442Y-111352600D01*
X140600300Y-111281171D01*
X140886014Y-111281171D01*
X141028871Y-111352600D01*
X140386014Y-112209742D02*
X140528871Y-112281171D01*
X140886014Y-112281171D01*
X141028871Y-112209742D01*
X141100300Y-112066885D01*
X141100300Y-111924028D01*
X141028871Y-111781171D01*
X140886014Y-111709742D01*
X140528871Y-111709742D01*
X140386014Y-111638314D01*
X139886014Y-111281171D02*
X139314585Y-111281171D01*
X139671728Y-110781171D02*
X139671728Y-112066885D01*
X139600300Y-112209742D01*
X139457442Y-112281171D01*
X139314585Y-112281171D01*
X138171728Y-112209742D02*
X138314585Y-112281171D01*
X138600300Y-112281171D01*
X138743157Y-112209742D01*
X138814585Y-112138314D01*
X138886014Y-111995457D01*
X138886014Y-111566885D01*
X138814585Y-111424028D01*
X138743157Y-111352600D01*
X138600300Y-111281171D01*
X138314585Y-111281171D01*
X138171728Y-111352600D01*
X137528871Y-112281171D02*
X137528871Y-110781171D01*
X136886014Y-112281171D02*
X136886014Y-111495457D01*
X136957442Y-111352600D01*
X137100300Y-111281171D01*
X137314585Y-111281171D01*
X137457442Y-111352600D01*
X137528871Y-111424028D01*
X149564585Y-114831171D02*
X150064585Y-114116885D01*
X150421728Y-114831171D02*
X150421728Y-113331171D01*
X149850300Y-113331171D01*
X149707442Y-113402600D01*
X149636014Y-113474028D01*
X149564585Y-113616885D01*
X149564585Y-113831171D01*
X149636014Y-113974028D01*
X149707442Y-114045457D01*
X149850300Y-114116885D01*
X150421728Y-114116885D01*
X148350300Y-114759742D02*
X148493157Y-114831171D01*
X148778871Y-114831171D01*
X148921728Y-114759742D01*
X148993157Y-114616885D01*
X148993157Y-114045457D01*
X148921728Y-113902600D01*
X148778871Y-113831171D01*
X148493157Y-113831171D01*
X148350300Y-113902600D01*
X148278871Y-114045457D01*
X148278871Y-114188314D01*
X148993157Y-114331171D01*
X147778871Y-113831171D02*
X147421728Y-114831171D01*
X147064585Y-113831171D01*
X144564585Y-114831171D02*
X145421728Y-114831171D01*
X144993157Y-114831171D02*
X144993157Y-113331171D01*
X145136014Y-113545457D01*
X145278871Y-113688314D01*
X145421728Y-113759742D01*
X142421728Y-115331171D02*
X142421728Y-113188314D01*
X139421728Y-114831171D02*
X140278871Y-114831171D01*
X139850300Y-114831171D02*
X139850300Y-113331171D01*
X139993157Y-113545457D01*
X140136014Y-113688314D01*
X140278871Y-113759742D01*
X138778871Y-114688314D02*
X138707442Y-114759742D01*
X138778871Y-114831171D01*
X138850300Y-114759742D01*
X138778871Y-114688314D01*
X138778871Y-114831171D01*
X138207442Y-113331171D02*
X137278871Y-113331171D01*
X137778871Y-113902600D01*
X137564585Y-113902600D01*
X137421728Y-113974028D01*
X137350300Y-114045457D01*
X137278871Y-114188314D01*
X137278871Y-114545457D01*
X137350300Y-114688314D01*
X137421728Y-114759742D01*
X137564585Y-114831171D01*
X137993157Y-114831171D01*
X138136014Y-114759742D01*
X138207442Y-114688314D01*
X136636014Y-114688314D02*
X136564585Y-114759742D01*
X136636014Y-114831171D01*
X136707442Y-114759742D01*
X136636014Y-114688314D01*
X136636014Y-114831171D01*
X135993157Y-113474028D02*
X135921728Y-113402600D01*
X135778871Y-113331171D01*
X135421728Y-113331171D01*
X135278871Y-113402600D01*
X135207442Y-113474028D01*
X135136014Y-113616885D01*
X135136014Y-113759742D01*
X135207442Y-113974028D01*
X136064585Y-114831171D01*
X135136014Y-114831171D01*
X134207442Y-113331171D02*
X134064585Y-113331171D01*
X133921728Y-113402600D01*
X133850300Y-113474028D01*
X133778871Y-113616885D01*
X133707442Y-113902600D01*
X133707442Y-114259742D01*
X133778871Y-114545457D01*
X133850300Y-114688314D01*
X133921728Y-114759742D01*
X134064585Y-114831171D01*
X134207442Y-114831171D01*
X134350300Y-114759742D01*
X134421728Y-114688314D01*
X134493157Y-114545457D01*
X134564585Y-114259742D01*
X134564585Y-113902600D01*
X134493157Y-113616885D01*
X134421728Y-113474028D01*
X134350300Y-113402600D01*
X134207442Y-113331171D01*
X148100300Y-115881171D02*
X147814585Y-115881171D01*
X147671728Y-115952600D01*
X147528871Y-116095457D01*
X147457442Y-116381171D01*
X147457442Y-116881171D01*
X147528871Y-117166885D01*
X147671728Y-117309742D01*
X147814585Y-117381171D01*
X148100300Y-117381171D01*
X148243157Y-117309742D01*
X148386014Y-117166885D01*
X148457442Y-116881171D01*
X148457442Y-116381171D01*
X148386014Y-116095457D01*
X148243157Y-115952600D01*
X148100300Y-115881171D01*
X146814585Y-116595457D02*
X146314585Y-116595457D01*
X146100300Y-117381171D02*
X146814585Y-117381171D01*
X146814585Y-115881171D01*
X146100300Y-115881171D01*
X145457442Y-117381171D02*
X145457442Y-115881171D01*
X144957442Y-116952600D01*
X144457442Y-115881171D01*
X144457442Y-117381171D01*
X142600300Y-116809742D02*
X141457442Y-116809742D01*
X139600300Y-117381171D02*
X139600300Y-115881171D01*
X139100300Y-116952600D01*
X138600300Y-115881171D01*
X138600300Y-117381171D01*
X137886014Y-117381171D02*
X137886014Y-115881171D01*
X137028871Y-117381171D02*
X137671728Y-116524028D01*
X137028871Y-115881171D02*
X137886014Y-116738314D01*
X136600300Y-115881171D02*
X136100300Y-117381171D01*
X135600300Y-115881171D01*
D11*
X159617900Y-115373200D02*
X164917900Y-115373200D01*
X159617900Y-125063200D02*
X164917900Y-125063200D01*
X159617900Y-115373200D02*
X159617900Y-125063200D01*
X164917900Y-115373200D02*
X164917900Y-125063200D01*
X160454933Y-113942880D02*
X160454933Y-114657166D01*
X160502552Y-114800023D01*
X160597790Y-114895261D01*
X160740647Y-114942880D01*
X160835885Y-114942880D01*
X160026361Y-114038119D02*
X159978742Y-113990500D01*
X159883504Y-113942880D01*
X159645409Y-113942880D01*
X159550171Y-113990500D01*
X159502552Y-114038119D01*
X159454933Y-114133357D01*
X159454933Y-114228595D01*
X159502552Y-114371452D01*
X160073980Y-114942880D01*
X159454933Y-114942880D01*
X163347423Y-114288914D02*
X163347423Y-114955580D01*
X163585519Y-113907961D02*
X163823614Y-114622247D01*
X163204566Y-114622247D01*
X160712185Y-126385580D02*
X161283614Y-126385580D01*
X160997900Y-126385580D02*
X160997900Y-125385580D01*
X161093138Y-125528438D01*
X161188376Y-125623676D01*
X161283614Y-125671295D01*
X156698985Y-112161580D02*
X157270414Y-112161580D01*
X156984700Y-112161580D02*
X156984700Y-111161580D01*
X157079938Y-111304438D01*
X157175176Y-111399676D01*
X157270414Y-111447295D01*
X153206414Y-111256819D02*
X153158795Y-111209200D01*
X153063557Y-111161580D01*
X152825461Y-111161580D01*
X152730223Y-111209200D01*
X152682604Y-111256819D01*
X152634985Y-111352057D01*
X152634985Y-111447295D01*
X152682604Y-111590152D01*
X153254033Y-112161580D01*
X152634985Y-112161580D01*
M02*
