G04 #@! TF.GenerationSoftware,KiCad,Pcbnew,5.0.2-bee76a0~70~ubuntu16.04.1*
G04 #@! TF.CreationDate,2019-11-05T16:08:15-05:00*
G04 #@! TF.ProjectId,DA_Board_2,44415f42-6f61-4726-945f-322e6b696361,rev?*
G04 #@! TF.SameCoordinates,Original*
G04 #@! TF.FileFunction,Copper,L1,Top*
G04 #@! TF.FilePolarity,Positive*
%FSLAX46Y46*%
G04 Gerber Fmt 4.6, Leading zero omitted, Abs format (unit mm)*
G04 Created by KiCad (PCBNEW 5.0.2-bee76a0~70~ubuntu16.04.1) date Tue 05 Nov 2019 04:08:15 PM EST*
%MOMM*%
%LPD*%
G01*
G04 APERTURE LIST*
G04 #@! TA.AperFunction,SMDPad,CuDef*
%ADD10R,1.200000X1.200000*%
G04 #@! TD*
G04 #@! TA.AperFunction,SMDPad,CuDef*
%ADD11R,3.500000X1.780000*%
G04 #@! TD*
G04 #@! TA.AperFunction,ComponentPad*
%ADD12C,1.300000*%
G04 #@! TD*
G04 #@! TA.AperFunction,ComponentPad*
%ADD13C,2.000000*%
G04 #@! TD*
G04 #@! TA.AperFunction,SMDPad,CuDef*
%ADD14R,1.650000X3.810000*%
G04 #@! TD*
G04 #@! TA.AperFunction,SMDPad,CuDef*
%ADD15R,7.870000X8.510000*%
G04 #@! TD*
G04 #@! TA.AperFunction,SMDPad,CuDef*
%ADD16R,1.300000X0.700000*%
G04 #@! TD*
G04 #@! TA.AperFunction,SMDPad,CuDef*
%ADD17R,1.500000X4.000000*%
G04 #@! TD*
G04 #@! TA.AperFunction,SMDPad,CuDef*
%ADD18R,0.900000X0.800000*%
G04 #@! TD*
G04 #@! TA.AperFunction,SMDPad,CuDef*
%ADD19R,5.000000X8.000000*%
G04 #@! TD*
G04 #@! TA.AperFunction,ViaPad*
%ADD20C,0.800000*%
G04 #@! TD*
G04 #@! TA.AperFunction,Conductor*
%ADD21C,0.254000*%
G04 #@! TD*
G04 APERTURE END LIST*
D10*
G04 #@! TO.P,D1,1*
G04 #@! TO.N,Net-(D1-Pad1)*
X303631600Y-125798400D03*
G04 #@! TO.P,D1,2*
G04 #@! TO.N,Net-(D1-Pad2)*
X303631600Y-127998400D03*
G04 #@! TD*
G04 #@! TO.P,D3,2*
G04 #@! TO.N,Net-(D3-Pad2)*
X259029200Y-128143000D03*
G04 #@! TO.P,D3,1*
G04 #@! TO.N,Net-(D3-Pad1)*
X259029200Y-125943000D03*
G04 #@! TD*
G04 #@! TO.P,D5,1*
G04 #@! TO.N,Net-(D5-Pad1)*
X214960200Y-125519000D03*
G04 #@! TO.P,D5,2*
G04 #@! TO.N,Net-(D5-Pad2)*
X214960200Y-127719000D03*
G04 #@! TD*
G04 #@! TO.P,D7,1*
G04 #@! TO.N,Net-(D7-Pad1)*
X171627800Y-125823800D03*
G04 #@! TO.P,D7,2*
G04 #@! TO.N,Net-(D7-Pad2)*
X171627800Y-128023800D03*
G04 #@! TD*
G04 #@! TO.P,D9,2*
G04 #@! TO.N,Net-(D9-Pad2)*
X128117600Y-127693600D03*
G04 #@! TO.P,D9,1*
G04 #@! TO.N,Net-(D9-Pad1)*
X128117600Y-125493600D03*
G04 #@! TD*
G04 #@! TO.P,D11,2*
G04 #@! TO.N,Net-(D11-Pad2)*
X84785200Y-127388800D03*
G04 #@! TO.P,D11,1*
G04 #@! TO.N,Net-(D11-Pad1)*
X84785200Y-125188800D03*
G04 #@! TD*
G04 #@! TO.P,D13,2*
G04 #@! TO.N,Net-(D13-Pad2)*
X40614600Y-127617400D03*
G04 #@! TO.P,D13,1*
G04 #@! TO.N,Net-(D13-Pad1)*
X40614600Y-125417400D03*
G04 #@! TD*
G04 #@! TO.P,D15,1*
G04 #@! TO.N,Net-(D15-Pad1)*
X-2997200Y-125689000D03*
G04 #@! TO.P,D15,2*
G04 #@! TO.N,Net-(D15-Pad2)*
X-2997200Y-127889000D03*
G04 #@! TD*
D11*
G04 #@! TO.P,F1,2*
G04 #@! TO.N,/C1*
X302641000Y-131626000D03*
G04 #@! TO.P,F1,1*
G04 #@! TO.N,/PWR2*
X302641000Y-136906000D03*
G04 #@! TD*
G04 #@! TO.P,F3,1*
G04 #@! TO.N,/PWR4*
X258064000Y-136550400D03*
G04 #@! TO.P,F3,2*
G04 #@! TO.N,/C3*
X258064000Y-131270400D03*
G04 #@! TD*
G04 #@! TO.P,F5,2*
G04 #@! TO.N,/C5*
X214096600Y-130914800D03*
G04 #@! TO.P,F5,1*
G04 #@! TO.N,/PWR6*
X214096600Y-136194800D03*
G04 #@! TD*
G04 #@! TO.P,F7,1*
G04 #@! TO.N,/PWR8*
X170205400Y-136372600D03*
G04 #@! TO.P,F7,2*
G04 #@! TO.N,/C7*
X170205400Y-131092600D03*
G04 #@! TD*
G04 #@! TO.P,F9,2*
G04 #@! TO.N,/C9*
X126644400Y-130762400D03*
G04 #@! TO.P,F9,1*
G04 #@! TO.N,/PWR10*
X126644400Y-136042400D03*
G04 #@! TD*
G04 #@! TO.P,F11,1*
G04 #@! TO.N,/PWR12*
X83489800Y-135763000D03*
G04 #@! TO.P,F11,2*
G04 #@! TO.N,/C11*
X83489800Y-130483000D03*
G04 #@! TD*
G04 #@! TO.P,F13,2*
G04 #@! TO.N,/C13*
X39293800Y-130711600D03*
G04 #@! TO.P,F13,1*
G04 #@! TO.N,/PWR14*
X39293800Y-135991600D03*
G04 #@! TD*
G04 #@! TO.P,F15,1*
G04 #@! TO.N,/PWR16*
X-4343400Y-136296400D03*
G04 #@! TO.P,F15,2*
G04 #@! TO.N,/C15*
X-4343400Y-131016400D03*
G04 #@! TD*
D12*
G04 #@! TO.P,J1,5*
G04 #@! TO.N,/C11_T2*
X-1473200Y-101244400D03*
G04 #@! TO.P,J1,3*
G04 #@! TO.N,/PWR10*
X-1473200Y-98704400D03*
G04 #@! TO.P,J1,1*
G04 #@! TO.N,/PWR9*
X-1473200Y-96164400D03*
G04 #@! TO.P,J1,7*
G04 #@! TO.N,/C11*
X-1473200Y-103784400D03*
G04 #@! TO.P,J1,2*
G04 #@! TO.N,/Q9*
X1066800Y-97434400D03*
G04 #@! TO.P,J1,4*
G04 #@! TO.N,/C11_T3*
X1066800Y-99974400D03*
G04 #@! TO.P,J1,6*
G04 #@! TO.N,/C11_T1*
X1066800Y-102514400D03*
G04 #@! TO.P,J1,8*
G04 #@! TO.N,/PWR11*
X1066800Y-105054400D03*
G04 #@! TO.P,J1,9*
G04 #@! TO.N,/Q11*
X-1473200Y-106324400D03*
G04 #@! TO.P,J1,10*
G04 #@! TO.N,/PWR12*
X1066800Y-107594400D03*
G04 #@! TO.P,J1,11*
G04 #@! TO.N,/C13*
X-1473200Y-108864400D03*
G04 #@! TO.P,J1,12*
G04 #@! TO.N,/PWR13*
X1066800Y-110134400D03*
D13*
G04 #@! TO.P,J1,13*
G04 #@! TO.N,N/C*
X326800Y-94764400D03*
G04 #@! TD*
G04 #@! TO.P,J2,13*
G04 #@! TO.N,N/C*
X9610500Y-94751700D03*
D12*
G04 #@! TO.P,J2,12*
G04 #@! TO.N,/C9*
X10350500Y-110121700D03*
G04 #@! TO.P,J2,11*
G04 #@! TO.N,/PWR8*
X7810500Y-108851700D03*
G04 #@! TO.P,J2,10*
G04 #@! TO.N,/Q7*
X10350500Y-107581700D03*
G04 #@! TO.P,J2,9*
G04 #@! TO.N,/PWR7*
X7810500Y-106311700D03*
G04 #@! TO.P,J2,8*
G04 #@! TO.N,/C7*
X10350500Y-105041700D03*
G04 #@! TO.P,J2,6*
G04 #@! TO.N,/C7_T2*
X10350500Y-102501700D03*
G04 #@! TO.P,J2,4*
G04 #@! TO.N,/PWR6*
X10350500Y-99961700D03*
G04 #@! TO.P,J2,2*
G04 #@! TO.N,/PWR5*
X10350500Y-97421700D03*
G04 #@! TO.P,J2,7*
G04 #@! TO.N,/C7_T1*
X7810500Y-103771700D03*
G04 #@! TO.P,J2,1*
G04 #@! TO.N,Net-(J2-Pad1)*
X7810500Y-96151700D03*
G04 #@! TO.P,J2,3*
G04 #@! TO.N,/Q5*
X7810500Y-98691700D03*
G04 #@! TO.P,J2,5*
G04 #@! TO.N,/C7_T3*
X7810500Y-101231700D03*
G04 #@! TD*
G04 #@! TO.P,J3,5*
G04 #@! TO.N,/C15_T1*
X-10388600Y-101269800D03*
G04 #@! TO.P,J3,3*
G04 #@! TO.N,/C15_T3*
X-10388600Y-98729800D03*
G04 #@! TO.P,J3,1*
G04 #@! TO.N,/Q13*
X-10388600Y-96189800D03*
G04 #@! TO.P,J3,7*
G04 #@! TO.N,/PWR16*
X-10388600Y-103809800D03*
G04 #@! TO.P,J3,2*
G04 #@! TO.N,/PWR14*
X-7848600Y-97459800D03*
G04 #@! TO.P,J3,4*
G04 #@! TO.N,/C15_T2*
X-7848600Y-99999800D03*
G04 #@! TO.P,J3,6*
G04 #@! TO.N,/GND1*
X-7848600Y-102539800D03*
G04 #@! TO.P,J3,8*
G04 #@! TO.N,/C15*
X-7848600Y-105079800D03*
G04 #@! TO.P,J3,9*
G04 #@! TO.N,/Q15*
X-10388600Y-106349800D03*
G04 #@! TO.P,J3,10*
G04 #@! TO.N,/PWR15*
X-7848600Y-107619800D03*
D13*
G04 #@! TO.P,J3,11*
G04 #@! TO.N,N/C*
X-8588600Y-94789800D03*
G04 #@! TD*
D12*
G04 #@! TO.P,J4,5*
G04 #@! TO.N,/C3_T3*
X16446500Y-101282500D03*
G04 #@! TO.P,J4,3*
G04 #@! TO.N,/Q1*
X16446500Y-98742500D03*
G04 #@! TO.P,J4,1*
G04 #@! TO.N,/C1*
X16446500Y-96202500D03*
G04 #@! TO.P,J4,7*
G04 #@! TO.N,/C3_T1*
X16446500Y-103822500D03*
G04 #@! TO.P,J4,2*
G04 #@! TO.N,/PWR1*
X18986500Y-97472500D03*
G04 #@! TO.P,J4,4*
G04 #@! TO.N,/PWR2*
X18986500Y-100012500D03*
G04 #@! TO.P,J4,6*
G04 #@! TO.N,/C3_T2*
X18986500Y-102552500D03*
G04 #@! TO.P,J4,8*
G04 #@! TO.N,/C3*
X18986500Y-105092500D03*
G04 #@! TO.P,J4,9*
G04 #@! TO.N,/PWR3*
X16446500Y-106362500D03*
G04 #@! TO.P,J4,10*
G04 #@! TO.N,/Q3*
X18986500Y-107632500D03*
G04 #@! TO.P,J4,11*
G04 #@! TO.N,/PWR4*
X16446500Y-108902500D03*
G04 #@! TO.P,J4,12*
G04 #@! TO.N,/C5*
X18986500Y-110172500D03*
D13*
G04 #@! TO.P,J4,13*
G04 #@! TO.N,N/C*
X18246500Y-94802500D03*
G04 #@! TD*
D14*
G04 #@! TO.P,R1,1*
G04 #@! TO.N,Net-(D1-Pad2)*
X292811200Y-126293800D03*
G04 #@! TO.P,R1,2*
G04 #@! TO.N,/PWR1*
X297891200Y-126293800D03*
D15*
G04 #@! TO.P,R1,EP*
G04 #@! TO.N,Net-(R1-PadEP)*
X295351200Y-118668800D03*
G04 #@! TD*
G04 #@! TO.P,R3,EP*
G04 #@! TO.N,Net-(R3-PadEP)*
X251231400Y-118770400D03*
D14*
G04 #@! TO.P,R3,2*
G04 #@! TO.N,/PWR3*
X253771400Y-126395400D03*
G04 #@! TO.P,R3,1*
G04 #@! TO.N,Net-(D3-Pad2)*
X248691400Y-126395400D03*
G04 #@! TD*
G04 #@! TO.P,R5,1*
G04 #@! TO.N,Net-(D5-Pad2)*
X204470000Y-125989000D03*
G04 #@! TO.P,R5,2*
G04 #@! TO.N,/PWR5*
X209550000Y-125989000D03*
D15*
G04 #@! TO.P,R5,EP*
G04 #@! TO.N,Net-(R5-PadEP)*
X207010000Y-118364000D03*
G04 #@! TD*
G04 #@! TO.P,R7,EP*
G04 #@! TO.N,Net-(R7-PadEP)*
X163779200Y-118643400D03*
D14*
G04 #@! TO.P,R7,2*
G04 #@! TO.N,/PWR7*
X166319200Y-126268400D03*
G04 #@! TO.P,R7,1*
G04 #@! TO.N,Net-(D7-Pad2)*
X161239200Y-126268400D03*
G04 #@! TD*
G04 #@! TO.P,R9,1*
G04 #@! TO.N,Net-(D9-Pad2)*
X117703600Y-125938200D03*
G04 #@! TO.P,R9,2*
G04 #@! TO.N,/PWR9*
X122783600Y-125938200D03*
D15*
G04 #@! TO.P,R9,EP*
G04 #@! TO.N,Net-(R9-PadEP)*
X120243600Y-118313200D03*
G04 #@! TD*
D14*
G04 #@! TO.P,R11,1*
G04 #@! TO.N,Net-(D11-Pad2)*
X74523600Y-125608000D03*
G04 #@! TO.P,R11,2*
G04 #@! TO.N,/PWR11*
X79603600Y-125608000D03*
D15*
G04 #@! TO.P,R11,EP*
G04 #@! TO.N,Net-(R11-PadEP)*
X77063600Y-117983000D03*
G04 #@! TD*
G04 #@! TO.P,R13,EP*
G04 #@! TO.N,Net-(R13-PadEP)*
X32766000Y-118287800D03*
D14*
G04 #@! TO.P,R13,2*
G04 #@! TO.N,/PWR13*
X35306000Y-125912800D03*
G04 #@! TO.P,R13,1*
G04 #@! TO.N,Net-(D13-Pad2)*
X30226000Y-125912800D03*
G04 #@! TD*
D15*
G04 #@! TO.P,R15,EP*
G04 #@! TO.N,Net-(R15-PadEP)*
X-10845800Y-118465600D03*
D14*
G04 #@! TO.P,R15,2*
G04 #@! TO.N,/PWR15*
X-8305800Y-126090600D03*
G04 #@! TO.P,R15,1*
G04 #@! TO.N,Net-(D15-Pad2)*
X-13385800Y-126090600D03*
G04 #@! TD*
D16*
G04 #@! TO.P,R31,1*
G04 #@! TO.N,Net-(D1-Pad1)*
X301193200Y-128280200D03*
G04 #@! TO.P,R31,2*
G04 #@! TO.N,/PWR1*
X301193200Y-126380200D03*
G04 #@! TD*
G04 #@! TO.P,R33,2*
G04 #@! TO.N,/PWR3*
X257048000Y-126481800D03*
G04 #@! TO.P,R33,1*
G04 #@! TO.N,Net-(D3-Pad1)*
X257048000Y-128381800D03*
G04 #@! TD*
G04 #@! TO.P,R35,2*
G04 #@! TO.N,/PWR5*
X212953600Y-126050000D03*
G04 #@! TO.P,R35,1*
G04 #@! TO.N,Net-(D5-Pad1)*
X212953600Y-127950000D03*
G04 #@! TD*
G04 #@! TO.P,R37,1*
G04 #@! TO.N,Net-(D7-Pad1)*
X169672000Y-128280200D03*
G04 #@! TO.P,R37,2*
G04 #@! TO.N,/PWR7*
X169672000Y-126380200D03*
G04 #@! TD*
G04 #@! TO.P,R39,2*
G04 #@! TO.N,/PWR9*
X126136400Y-126034800D03*
G04 #@! TO.P,R39,1*
G04 #@! TO.N,Net-(D9-Pad1)*
X126136400Y-127934800D03*
G04 #@! TD*
G04 #@! TO.P,R41,1*
G04 #@! TO.N,Net-(D11-Pad1)*
X82854800Y-127630000D03*
G04 #@! TO.P,R41,2*
G04 #@! TO.N,/PWR11*
X82854800Y-125730000D03*
G04 #@! TD*
G04 #@! TO.P,R43,2*
G04 #@! TO.N,/PWR13*
X38608000Y-125973800D03*
G04 #@! TO.P,R43,1*
G04 #@! TO.N,Net-(D13-Pad1)*
X38608000Y-127873800D03*
G04 #@! TD*
G04 #@! TO.P,R45,1*
G04 #@! TO.N,Net-(D15-Pad1)*
X-5003800Y-128127800D03*
G04 #@! TO.P,R45,2*
G04 #@! TO.N,/PWR15*
X-5003800Y-126227800D03*
G04 #@! TD*
D17*
G04 #@! TO.P,RT31,2*
G04 #@! TO.N,/GND1*
X273738600Y-138150600D03*
G04 #@! TO.P,RT31,1*
G04 #@! TO.N,/C3_T1*
X270738600Y-138150600D03*
G04 #@! TD*
G04 #@! TO.P,RT32,1*
G04 #@! TO.N,/C3_T2*
X276425400Y-138226800D03*
G04 #@! TO.P,RT32,2*
G04 #@! TO.N,/GND1*
X279425400Y-138226800D03*
G04 #@! TD*
G04 #@! TO.P,RT33,2*
G04 #@! TO.N,/GND1*
X285268800Y-138303000D03*
G04 #@! TO.P,RT33,1*
G04 #@! TO.N,/C3_T3*
X282268800Y-138303000D03*
G04 #@! TD*
G04 #@! TO.P,RT71,1*
G04 #@! TO.N,/C7_T1*
X182575200Y-137706100D03*
G04 #@! TO.P,RT71,2*
G04 #@! TO.N,/GND1*
X185575200Y-137706100D03*
G04 #@! TD*
G04 #@! TO.P,RT72,2*
G04 #@! TO.N,/GND1*
X191511000Y-137782300D03*
G04 #@! TO.P,RT72,1*
G04 #@! TO.N,/C7_T2*
X188511000Y-137782300D03*
G04 #@! TD*
G04 #@! TO.P,RT73,1*
G04 #@! TO.N,/C7_T3*
X194513200Y-137833100D03*
G04 #@! TO.P,RT73,2*
G04 #@! TO.N,/GND1*
X197513200Y-137833100D03*
G04 #@! TD*
G04 #@! TO.P,RT111,2*
G04 #@! TO.N,/GND1*
X98464500Y-137883900D03*
G04 #@! TO.P,RT111,1*
G04 #@! TO.N,/C11_T1*
X95464500Y-137883900D03*
G04 #@! TD*
G04 #@! TO.P,RT112,1*
G04 #@! TO.N,/C11_T2*
X101003100Y-137909300D03*
G04 #@! TO.P,RT112,2*
G04 #@! TO.N,/GND1*
X104003100Y-137909300D03*
G04 #@! TD*
G04 #@! TO.P,RT113,2*
G04 #@! TO.N,/GND1*
X109616500Y-137960100D03*
G04 #@! TO.P,RT113,1*
G04 #@! TO.N,/C11_T3*
X106616500Y-137960100D03*
G04 #@! TD*
G04 #@! TO.P,RT151,1*
G04 #@! TO.N,/C15_T1*
X7515600Y-137769600D03*
G04 #@! TO.P,RT151,2*
G04 #@! TO.N,/GND1*
X10515600Y-137769600D03*
G04 #@! TD*
G04 #@! TO.P,RT152,2*
G04 #@! TO.N,/GND1*
X16484600Y-137795000D03*
G04 #@! TO.P,RT152,1*
G04 #@! TO.N,/C15_T2*
X13484600Y-137795000D03*
G04 #@! TD*
G04 #@! TO.P,RT153,1*
G04 #@! TO.N,/C15_T3*
X19404200Y-137820400D03*
G04 #@! TO.P,RT153,2*
G04 #@! TO.N,/GND1*
X22404200Y-137820400D03*
G04 #@! TD*
D18*
G04 #@! TO.P,Q1,3*
G04 #@! TO.N,Net-(D1-Pad2)*
X296316400Y-131597400D03*
G04 #@! TO.P,Q1,1*
G04 #@! TO.N,/Q1*
X298316400Y-132647400D03*
G04 #@! TO.P,Q1,2*
G04 #@! TO.N,/PWR2*
X298316400Y-130547400D03*
G04 #@! TD*
G04 #@! TO.P,Q3,2*
G04 #@! TO.N,/PWR4*
X254095000Y-130420400D03*
G04 #@! TO.P,Q3,1*
G04 #@! TO.N,/Q3*
X254095000Y-132520400D03*
G04 #@! TO.P,Q3,3*
G04 #@! TO.N,Net-(D3-Pad2)*
X252095000Y-131470400D03*
G04 #@! TD*
G04 #@! TO.P,Q5,3*
G04 #@! TO.N,Net-(D5-Pad2)*
X208159600Y-131123400D03*
G04 #@! TO.P,Q5,1*
G04 #@! TO.N,/Q5*
X210159600Y-132173400D03*
G04 #@! TO.P,Q5,2*
G04 #@! TO.N,/PWR6*
X210159600Y-130073400D03*
G04 #@! TD*
G04 #@! TO.P,Q7,3*
G04 #@! TO.N,Net-(D7-Pad2)*
X164338000Y-131318000D03*
G04 #@! TO.P,Q7,1*
G04 #@! TO.N,/Q7*
X166338000Y-132368000D03*
G04 #@! TO.P,Q7,2*
G04 #@! TO.N,/PWR8*
X166338000Y-130268000D03*
G04 #@! TD*
G04 #@! TO.P,Q9,2*
G04 #@! TO.N,/PWR10*
X122751600Y-129937800D03*
G04 #@! TO.P,Q9,1*
G04 #@! TO.N,/Q9*
X122751600Y-132037800D03*
G04 #@! TO.P,Q9,3*
G04 #@! TO.N,Net-(D9-Pad2)*
X120751600Y-130987800D03*
G04 #@! TD*
G04 #@! TO.P,Q11,2*
G04 #@! TO.N,/PWR12*
X79495400Y-129760000D03*
G04 #@! TO.P,Q11,1*
G04 #@! TO.N,/Q11*
X79495400Y-131860000D03*
G04 #@! TO.P,Q11,3*
G04 #@! TO.N,Net-(D11-Pad2)*
X77495400Y-130810000D03*
G04 #@! TD*
G04 #@! TO.P,Q13,2*
G04 #@! TO.N,/PWR14*
X35324800Y-129988600D03*
G04 #@! TO.P,Q13,1*
G04 #@! TO.N,/Q13*
X35324800Y-132088600D03*
G04 #@! TO.P,Q13,3*
G04 #@! TO.N,Net-(D13-Pad2)*
X33324800Y-131038600D03*
G04 #@! TD*
G04 #@! TO.P,Q15,3*
G04 #@! TO.N,Net-(D15-Pad2)*
X-10185400Y-131013200D03*
G04 #@! TO.P,Q15,1*
G04 #@! TO.N,/Q15*
X-8185400Y-132063200D03*
G04 #@! TO.P,Q15,2*
G04 #@! TO.N,/PWR16*
X-8185400Y-129963200D03*
G04 #@! TD*
D19*
G04 #@! TO.P,T1,1*
G04 #@! TO.N,/PWR2*
X290601400Y-136525000D03*
G04 #@! TD*
G04 #@! TO.P,T3,1*
G04 #@! TO.N,/PWR4*
X246913400Y-136499600D03*
G04 #@! TD*
G04 #@! TO.P,T5,1*
G04 #@! TO.N,/PWR6*
X203200000Y-136499600D03*
G04 #@! TD*
G04 #@! TO.P,T7,1*
G04 #@! TO.N,/PWR8*
X159537400Y-136474200D03*
G04 #@! TD*
G04 #@! TO.P,T9,1*
G04 #@! TO.N,/PWR10*
X115849400Y-136474200D03*
G04 #@! TD*
G04 #@! TO.P,T11,1*
G04 #@! TO.N,/PWR12*
X72161400Y-136398000D03*
G04 #@! TD*
G04 #@! TO.P,T13,1*
G04 #@! TO.N,/PWR14*
X28473400Y-136448800D03*
G04 #@! TD*
G04 #@! TO.P,T15,1*
G04 #@! TO.N,/PWR16*
X-15214600Y-136372600D03*
G04 #@! TD*
D20*
G04 #@! TO.N,/C1*
X300046662Y-129857500D03*
G04 #@! TO.N,/PWR2*
X287261300Y-136486900D03*
G04 #@! TO.N,/PWR4*
X241300000Y-136652000D03*
G04 #@! TO.N,/C3*
X255892300Y-129895600D03*
G04 #@! TO.N,/C5*
X211759800Y-129555800D03*
G04 #@! TO.N,/PWR6*
X199580500Y-136372600D03*
G04 #@! TO.N,/PWR8*
X155054300Y-136575800D03*
G04 #@! TO.N,/C7*
X167932100Y-129311400D03*
G04 #@! TO.N,/C9*
X124460000Y-129463800D03*
G04 #@! TO.N,/PWR10*
X111912400Y-136448800D03*
G04 #@! TO.N,/PWR12*
X67398900Y-136448800D03*
G04 #@! TO.N,/C11*
X81038700Y-129603500D03*
G04 #@! TO.N,/C13*
X36830000Y-129133600D03*
G04 #@! TO.N,/PWR14*
X24180800Y-133781800D03*
G04 #@! TO.N,/PWR16*
X-15214600Y-130378200D03*
G04 #@! TO.N,/C15*
X-1930400Y-129057400D03*
G04 #@! TO.N,/C15_T3*
X19405600Y-134874000D03*
G04 #@! TO.N,/C15_T2*
X13487400Y-134924800D03*
G04 #@! TO.N,/C15_T1*
X7569200Y-133527800D03*
G04 #@! TO.N,/C11_T3*
X106817733Y-134940600D03*
G04 #@! TO.N,/PWR13*
X32893000Y-125907800D03*
G04 #@! TO.N,/PWR15*
X-6350000Y-124180600D03*
G04 #@! TO.N,/C3_T1*
X270738600Y-135496300D03*
G04 #@! TO.N,/C3_T3*
X282295600Y-135559800D03*
G04 #@! TO.N,/C7_T2*
X188544200Y-134861300D03*
G04 #@! TO.N,/C11_T1*
X92430600Y-130416300D03*
G04 #@! TO.N,/C3_T2*
X276428200Y-135521700D03*
G04 #@! TO.N,/C11_T2*
X101229450Y-134915200D03*
G04 #@! TO.N,/C7_T3*
X194551300Y-134924800D03*
G04 #@! TO.N,/C7_T1*
X182460900Y-132588000D03*
G04 #@! TO.N,/Q7*
X164058600Y-134531100D03*
G04 #@! TO.N,/Q11*
X76898500Y-133934200D03*
G04 #@! TO.N,/Q15*
X-7061200Y-130860800D03*
G04 #@! TO.N,/Q3*
X251358400Y-134213600D03*
G04 #@! TO.N,/Q13*
X32715200Y-133629400D03*
G04 #@! TO.N,/Q9*
X119900700Y-133718300D03*
G04 #@! TO.N,/Q5*
X207886300Y-133794500D03*
G04 #@! TO.N,/Q1*
X296260867Y-134285067D03*
G04 #@! TO.N,/GND1*
X9017000Y-137261600D03*
X23761700Y-140169900D03*
X96939100Y-139522200D03*
X111912400Y-140157200D03*
X184099200Y-139928600D03*
X199351900Y-140131800D03*
X272275300Y-139776200D03*
G04 #@! TO.N,/PWR11*
X77343000Y-125577600D03*
G04 #@! TO.N,/PWR9*
X120396000Y-126047500D03*
G04 #@! TO.N,/PWR7*
X163931600Y-126403100D03*
G04 #@! TO.N,/PWR5*
X207225900Y-126085600D03*
G04 #@! TO.N,/PWR3*
X251409200Y-126580900D03*
G04 #@! TO.N,/PWR1*
X295490900Y-126377700D03*
G04 #@! TD*
D21*
G04 #@! TO.N,Net-(D1-Pad1)*
X303631600Y-126141800D02*
X301493200Y-128280200D01*
X301493200Y-128280200D02*
X301193200Y-128280200D01*
X303631600Y-125798400D02*
X303631600Y-126141800D01*
G04 #@! TO.N,Net-(D1-Pad2)*
X296316400Y-130943400D02*
X296316400Y-131597400D01*
X297439401Y-129820399D02*
X296316400Y-130943400D01*
X303631600Y-127998400D02*
X303631600Y-128852400D01*
X298153400Y-129106400D02*
X297439401Y-129820399D01*
X303377600Y-129106400D02*
X298153400Y-129106400D01*
X303631600Y-128852400D02*
X303377600Y-129106400D01*
X292811200Y-128796200D02*
X292811200Y-126293800D01*
X295612400Y-131597400D02*
X292811200Y-128796200D01*
X296316400Y-131597400D02*
X295612400Y-131597400D01*
G04 #@! TO.N,Net-(D3-Pad2)*
X248691400Y-128554400D02*
X248691400Y-126395400D01*
X248691400Y-128770800D02*
X248691400Y-128554400D01*
X251391000Y-131470400D02*
X248691400Y-128770800D01*
X252095000Y-131470400D02*
X251391000Y-131470400D01*
X252095000Y-130816400D02*
X252095000Y-131470400D01*
X258857601Y-129168599D02*
X253742801Y-129168599D01*
X259029200Y-128997000D02*
X258857601Y-129168599D01*
X253742801Y-129168599D02*
X252095000Y-130816400D01*
X259029200Y-128143000D02*
X259029200Y-128997000D01*
G04 #@! TO.N,Net-(D3-Pad1)*
X258175200Y-125943000D02*
X259029200Y-125943000D01*
X258025001Y-126093199D02*
X258175200Y-125943000D01*
X258025001Y-127704799D02*
X258025001Y-126093199D01*
X257348000Y-128381800D02*
X258025001Y-127704799D01*
X257048000Y-128381800D02*
X257348000Y-128381800D01*
G04 #@! TO.N,Net-(D5-Pad1)*
X213857600Y-126621600D02*
X214960200Y-125519000D01*
X213253600Y-127950000D02*
X213857600Y-127346000D01*
X213857600Y-127346000D02*
X213857600Y-126621600D01*
X212953600Y-127950000D02*
X213253600Y-127950000D01*
G04 #@! TO.N,Net-(D5-Pad2)*
X208109600Y-131123400D02*
X208101000Y-131114800D01*
X208159600Y-131123400D02*
X208109600Y-131123400D01*
X208101000Y-131114800D02*
X206603600Y-131114800D01*
X204470000Y-128981200D02*
X204470000Y-125989000D01*
X206603600Y-131114800D02*
X204470000Y-128981200D01*
X205549000Y-125989000D02*
X208388800Y-128828800D01*
X204470000Y-125989000D02*
X205549000Y-125989000D01*
X214704400Y-128828800D02*
X214960200Y-128573000D01*
X214960200Y-128573000D02*
X214960200Y-127719000D01*
X208388800Y-128828800D02*
X214704400Y-128828800D01*
G04 #@! TO.N,Net-(D7-Pad1)*
X170773800Y-125823800D02*
X171627800Y-125823800D01*
X170649001Y-125948599D02*
X170773800Y-125823800D01*
X170649001Y-127603199D02*
X170649001Y-125948599D01*
X169972000Y-128280200D02*
X170649001Y-127603199D01*
X169672000Y-128280200D02*
X169972000Y-128280200D01*
G04 #@! TO.N,Net-(D7-Pad2)*
X163398200Y-131318000D02*
X164338000Y-131318000D01*
X161239200Y-129159000D02*
X163398200Y-131318000D01*
X161239200Y-126268400D02*
X161239200Y-129159000D01*
X166417601Y-128584399D02*
X164338000Y-130664000D01*
X164338000Y-130664000D02*
X164338000Y-131318000D01*
X168281061Y-128584399D02*
X166417601Y-128584399D01*
X168653863Y-128957201D02*
X168281061Y-128584399D01*
X171548399Y-128957201D02*
X168653863Y-128957201D01*
X171627800Y-128877800D02*
X171548399Y-128957201D01*
X171627800Y-128023800D02*
X171627800Y-128877800D01*
G04 #@! TO.N,Net-(D9-Pad2)*
X117703600Y-128643800D02*
X117703600Y-128097200D01*
X120047600Y-130987800D02*
X117703600Y-128643800D01*
X117703600Y-128097200D02*
X117703600Y-125938200D01*
X120751600Y-130987800D02*
X120047600Y-130987800D01*
X120751600Y-130333800D02*
X120751600Y-130987800D01*
X127928401Y-128736799D02*
X122348601Y-128736799D01*
X122348601Y-128736799D02*
X120751600Y-130333800D01*
X128117600Y-128547600D02*
X127928401Y-128736799D01*
X128117600Y-127693600D02*
X128117600Y-128547600D01*
G04 #@! TO.N,Net-(D9-Pad1)*
X127589100Y-126022100D02*
X128117600Y-125493600D01*
X127584200Y-126022100D02*
X127589100Y-126022100D01*
X127113401Y-126492899D02*
X127584200Y-126022100D01*
X127113401Y-127257799D02*
X127113401Y-126492899D01*
X126436400Y-127934800D02*
X127113401Y-127257799D01*
X126136400Y-127934800D02*
X126436400Y-127934800D01*
G04 #@! TO.N,Net-(D11-Pad2)*
X78774901Y-128876499D02*
X77495400Y-130156000D01*
X83196903Y-128876499D02*
X78774901Y-128876499D01*
X77495400Y-130156000D02*
X77495400Y-130810000D01*
X84684602Y-127388800D02*
X83196903Y-128876499D01*
X84785200Y-127388800D02*
X84684602Y-127388800D01*
X74523600Y-127767000D02*
X74523600Y-125608000D01*
X74523600Y-128542200D02*
X74523600Y-127767000D01*
X76791400Y-130810000D02*
X74523600Y-128542200D01*
X77495400Y-130810000D02*
X76791400Y-130810000D01*
G04 #@! TO.N,Net-(D11-Pad1)*
X84785200Y-125699600D02*
X84785200Y-125188800D01*
X83758800Y-127026000D02*
X83758800Y-126726000D01*
X83758800Y-126726000D02*
X84785200Y-125699600D01*
X83154800Y-127630000D02*
X83758800Y-127026000D01*
X82854800Y-127630000D02*
X83154800Y-127630000D01*
G04 #@! TO.N,Net-(D13-Pad2)*
X30226000Y-128643800D02*
X30226000Y-125912800D01*
X32620800Y-131038600D02*
X30226000Y-128643800D01*
X33324800Y-131038600D02*
X32620800Y-131038600D01*
X30226000Y-125912800D02*
X31305000Y-125912800D01*
X40614600Y-128471400D02*
X40614600Y-127617400D01*
X40104800Y-128981200D02*
X40614600Y-128471400D01*
X37426900Y-128168400D02*
X38239700Y-128981200D01*
X33560600Y-128168400D02*
X37426900Y-128168400D01*
X31305000Y-125912800D02*
X33560600Y-128168400D01*
X38239700Y-128981200D02*
X40104800Y-128981200D01*
G04 #@! TO.N,Net-(D13-Pad1)*
X40614600Y-125867200D02*
X40614600Y-125417400D01*
X39512000Y-127269800D02*
X39512000Y-126969800D01*
X39512000Y-126969800D02*
X40614600Y-125867200D01*
X38908000Y-127873800D02*
X39512000Y-127269800D01*
X38608000Y-127873800D02*
X38908000Y-127873800D01*
G04 #@! TO.N,Net-(D15-Pad1)*
X-4099800Y-126791600D02*
X-2997200Y-125689000D01*
X-4099800Y-127523800D02*
X-4099800Y-126791600D01*
X-4703800Y-128127800D02*
X-4099800Y-127523800D01*
X-5003800Y-128127800D02*
X-4703800Y-128127800D01*
G04 #@! TO.N,Net-(D15-Pad2)*
X-13385800Y-128516800D02*
X-13385800Y-128249600D01*
X-10889400Y-131013200D02*
X-13385800Y-128516800D01*
X-13385800Y-128249600D02*
X-13385800Y-126090600D01*
X-10185400Y-131013200D02*
X-10889400Y-131013200D01*
X-12306800Y-126090600D02*
X-13385800Y-126090600D01*
X-9592599Y-128804801D02*
X-12306800Y-126090600D01*
X-2997200Y-128743000D02*
X-3059001Y-128804801D01*
X-3059001Y-128804801D02*
X-9592599Y-128804801D01*
X-2997200Y-127889000D02*
X-2997200Y-128743000D01*
G04 #@! TO.N,/C1*
X300046662Y-129891662D02*
X300046662Y-129857500D01*
X301781000Y-131626000D02*
X300046662Y-129891662D01*
X302641000Y-131626000D02*
X301781000Y-131626000D01*
G04 #@! TO.N,/PWR2*
X302260000Y-136525000D02*
X302641000Y-136906000D01*
X290601400Y-136525000D02*
X302260000Y-136525000D01*
X292992800Y-136525000D02*
X298316400Y-131201400D01*
X298316400Y-131201400D02*
X298316400Y-130547400D01*
X290601400Y-136525000D02*
X292992800Y-136525000D01*
X287299400Y-136525000D02*
X287261300Y-136486900D01*
X290601400Y-136525000D02*
X287299400Y-136525000D01*
G04 #@! TO.N,/PWR4*
X246761000Y-136652000D02*
X246913400Y-136499600D01*
X241300000Y-136652000D02*
X246761000Y-136652000D01*
X258013200Y-136499600D02*
X258064000Y-136550400D01*
X246913400Y-136499600D02*
X258013200Y-136499600D01*
X246913400Y-134999600D02*
X246913400Y-136499600D01*
X249667400Y-132245600D02*
X246913400Y-134999600D01*
X252923800Y-132245600D02*
X249667400Y-132245600D01*
X254095000Y-131074400D02*
X252923800Y-132245600D01*
X254095000Y-130420400D02*
X254095000Y-131074400D01*
G04 #@! TO.N,/C3*
X257635400Y-131270400D02*
X258064000Y-131270400D01*
X258064000Y-131270400D02*
X257292500Y-131270400D01*
X255917700Y-129895600D02*
X255892300Y-129895600D01*
X257292500Y-131270400D02*
X255917700Y-129895600D01*
G04 #@! TO.N,/C5*
X214096600Y-129770800D02*
X214096600Y-130914800D01*
X213881600Y-129555800D02*
X214096600Y-129770800D01*
X211759800Y-129555800D02*
X213881600Y-129555800D01*
G04 #@! TO.N,/PWR6*
X203073000Y-136372600D02*
X203200000Y-136499600D01*
X199580500Y-136372600D02*
X203073000Y-136372600D01*
X206349199Y-131850401D02*
X203200000Y-134999600D01*
X208871201Y-131850401D02*
X206349199Y-131850401D01*
X203200000Y-134999600D02*
X203200000Y-136499600D01*
X209455600Y-130727400D02*
X209455600Y-131266002D01*
X209455600Y-131266002D02*
X208871201Y-131850401D01*
X210109600Y-130073400D02*
X209455600Y-130727400D01*
X210159600Y-130073400D02*
X210109600Y-130073400D01*
X203504800Y-136194800D02*
X203200000Y-136499600D01*
X214096600Y-136194800D02*
X203504800Y-136194800D01*
G04 #@! TO.N,/PWR8*
X159435800Y-136575800D02*
X159537400Y-136474200D01*
X155054300Y-136575800D02*
X159435800Y-136575800D01*
X165214999Y-132045001D02*
X166338000Y-130922000D01*
X166338000Y-130922000D02*
X166338000Y-130268000D01*
X159537400Y-134974200D02*
X162466599Y-132045001D01*
X162466599Y-132045001D02*
X165214999Y-132045001D01*
X159537400Y-136474200D02*
X159537400Y-134974200D01*
X159639000Y-136372600D02*
X159537400Y-136474200D01*
X170205400Y-136372600D02*
X159639000Y-136372600D01*
G04 #@! TO.N,/C7*
X169713300Y-131092600D02*
X170205400Y-131092600D01*
X167932100Y-129311400D02*
X169713300Y-131092600D01*
G04 #@! TO.N,/C9*
X126644400Y-130762400D02*
X125733200Y-130762400D01*
X124460000Y-129489200D02*
X124460000Y-129463800D01*
X125733200Y-130762400D02*
X124460000Y-129489200D01*
G04 #@! TO.N,/PWR10*
X111937800Y-136474200D02*
X111912400Y-136448800D01*
X115849400Y-136474200D02*
X111937800Y-136474200D01*
X115849400Y-134974200D02*
X115849400Y-136474200D01*
X118603400Y-132220200D02*
X115849400Y-134974200D01*
X121123200Y-132220200D02*
X118603400Y-132220200D01*
X122751600Y-130591800D02*
X121123200Y-132220200D01*
X122751600Y-129937800D02*
X122751600Y-130591800D01*
X126212600Y-136474200D02*
X126644400Y-136042400D01*
X115849400Y-136474200D02*
X126212600Y-136474200D01*
G04 #@! TO.N,/PWR12*
X72110600Y-136448800D02*
X72161400Y-136398000D01*
X67398900Y-136448800D02*
X72110600Y-136448800D01*
X72161400Y-134898000D02*
X74788900Y-132270500D01*
X72161400Y-136398000D02*
X72161400Y-134898000D01*
X79495400Y-130414000D02*
X79495400Y-129760000D01*
X77638900Y-132270500D02*
X79495400Y-130414000D01*
X74788900Y-132270500D02*
X77638900Y-132270500D01*
X82854800Y-136398000D02*
X83489800Y-135763000D01*
X72161400Y-136398000D02*
X82854800Y-136398000D01*
G04 #@! TO.N,/C11*
X83340600Y-130483000D02*
X83489800Y-130483000D01*
X81038700Y-130035900D02*
X81038700Y-129603500D01*
X81485800Y-130483000D02*
X81038700Y-130035900D01*
X83489800Y-130483000D02*
X81485800Y-130483000D01*
G04 #@! TO.N,/C13*
X36855800Y-129133600D02*
X36830000Y-129133600D01*
X38433800Y-130711600D02*
X36855800Y-129133600D01*
X39293800Y-130711600D02*
X38433800Y-130711600D01*
G04 #@! TO.N,/PWR14*
X24180800Y-134347485D02*
X24180800Y-133781800D01*
X24180800Y-134910200D02*
X24180800Y-134347485D01*
X25719400Y-136448800D02*
X24180800Y-134910200D01*
X28473400Y-136448800D02*
X25719400Y-136448800D01*
X38836600Y-136448800D02*
X39293800Y-135991600D01*
X28473400Y-136448800D02*
X38836600Y-136448800D01*
X28473400Y-134948800D02*
X28473400Y-136448800D01*
X31227400Y-132194800D02*
X28473400Y-134948800D01*
X33772600Y-132194800D02*
X31227400Y-132194800D01*
X35324800Y-130642600D02*
X33772600Y-132194800D01*
X35324800Y-129988600D02*
X35324800Y-130642600D01*
G04 #@! TO.N,/PWR16*
X-8185400Y-130617200D02*
X-8185400Y-129963200D01*
X-9686800Y-132118600D02*
X-8185400Y-130617200D01*
X-12460600Y-132118600D02*
X-9686800Y-132118600D01*
X-15214600Y-134872600D02*
X-12460600Y-132118600D01*
X-15214600Y-136372600D02*
X-15214600Y-134872600D01*
X-4419600Y-136372600D02*
X-4343400Y-136296400D01*
X-15214600Y-136372600D02*
X-4419600Y-136372600D01*
X-15214600Y-136372600D02*
X-15214600Y-130378200D01*
G04 #@! TO.N,/C15*
X-3889400Y-131016400D02*
X-4343400Y-131016400D01*
X-1930400Y-129057400D02*
X-3889400Y-131016400D01*
G04 #@! TO.N,/C15_T3*
X19404200Y-134875400D02*
X19405600Y-134874000D01*
X19404200Y-137820400D02*
X19404200Y-134875400D01*
G04 #@! TO.N,/C15_T2*
X13484600Y-134927600D02*
X13487400Y-134924800D01*
X13484600Y-137795000D02*
X13484600Y-134927600D01*
G04 #@! TO.N,/C15_T1*
X7569200Y-137716000D02*
X7515600Y-137769600D01*
X7569200Y-133527800D02*
X7569200Y-137716000D01*
G04 #@! TO.N,/C11_T3*
X106616500Y-135141833D02*
X106817733Y-134940600D01*
X106616500Y-137960100D02*
X106616500Y-135141833D01*
G04 #@! TO.N,/PWR13*
X38547000Y-125912800D02*
X38608000Y-125973800D01*
X35306000Y-125912800D02*
X38547000Y-125912800D01*
X35301000Y-125907800D02*
X35306000Y-125912800D01*
X32893000Y-125907800D02*
X35301000Y-125907800D01*
G04 #@! TO.N,/PWR15*
X-5141000Y-126090600D02*
X-5003800Y-126227800D01*
X-8305800Y-126090600D02*
X-5141000Y-126090600D01*
X-8260000Y-126090600D02*
X-8305800Y-126090600D01*
X-6350000Y-124180600D02*
X-8260000Y-126090600D01*
G04 #@! TO.N,/C3_T1*
X270522700Y-137934700D02*
X270738600Y-138150600D01*
X270738600Y-138150600D02*
X270738600Y-135496300D01*
G04 #@! TO.N,/C3_T3*
X282295600Y-138276200D02*
X282268800Y-138303000D01*
X282295600Y-135559800D02*
X282295600Y-138276200D01*
G04 #@! TO.N,/C7_T2*
X188511000Y-134894500D02*
X188544200Y-134861300D01*
X188511000Y-137782300D02*
X188511000Y-134894500D01*
G04 #@! TO.N,/C11_T1*
X92830599Y-130816299D02*
X92830599Y-130828999D01*
X92430600Y-130416300D02*
X92830599Y-130816299D01*
X95464500Y-133462900D02*
X95464500Y-137883900D01*
X92830599Y-130828999D02*
X95464500Y-133462900D01*
G04 #@! TO.N,/C3_T2*
X276425400Y-135524500D02*
X276428200Y-135521700D01*
X276425400Y-138226800D02*
X276425400Y-135524500D01*
G04 #@! TO.N,/C11_T2*
X101003100Y-135141550D02*
X101229450Y-134915200D01*
X101003100Y-137909300D02*
X101003100Y-135141550D01*
G04 #@! TO.N,/C7_T3*
X194551300Y-137795000D02*
X194513200Y-137833100D01*
X194551300Y-134924800D02*
X194551300Y-137795000D01*
G04 #@! TO.N,/C7_T1*
X182435500Y-137566400D02*
X182575200Y-137706100D01*
X182460900Y-132588000D02*
X182460900Y-137756900D01*
G04 #@! TO.N,/Q7*
X164058600Y-134531100D02*
X165608000Y-134531100D01*
X166338000Y-133022000D02*
X166338000Y-132368000D01*
X166338000Y-133801100D02*
X166338000Y-133022000D01*
X165608000Y-134531100D02*
X166338000Y-133801100D01*
G04 #@! TO.N,/Q11*
X76898500Y-133934200D02*
X78359000Y-133934200D01*
X79495400Y-132797800D02*
X79495400Y-131860000D01*
X78359000Y-133934200D02*
X79495400Y-132797800D01*
G04 #@! TO.N,/Q15*
X-7061200Y-130939000D02*
X-8185400Y-132063200D01*
X-7061200Y-130860800D02*
X-7061200Y-130939000D01*
G04 #@! TO.N,/Q3*
X253644400Y-134213600D02*
X251358400Y-134213600D01*
X254095000Y-133763000D02*
X253644400Y-134213600D01*
X254095000Y-132520400D02*
X254095000Y-133763000D01*
G04 #@! TO.N,/Q13*
X33280885Y-133629400D02*
X32715200Y-133629400D01*
X34438000Y-133629400D02*
X33280885Y-133629400D01*
X35324800Y-132742600D02*
X34438000Y-133629400D01*
X35324800Y-132088600D02*
X35324800Y-132742600D01*
G04 #@! TO.N,/Q9*
X122751600Y-132810500D02*
X122751600Y-132037800D01*
X121843800Y-133718300D02*
X122751600Y-132810500D01*
X119900700Y-133718300D02*
X121843800Y-133718300D01*
G04 #@! TO.N,/Q5*
X207886300Y-133794500D02*
X209778600Y-133794500D01*
X210159600Y-133413500D02*
X210159600Y-132173400D01*
X209778600Y-133794500D02*
X210159600Y-133413500D01*
G04 #@! TO.N,/Q1*
X297797567Y-134285067D02*
X296260867Y-134285067D01*
X298316400Y-133766234D02*
X297797567Y-134285067D01*
X298316400Y-132647400D02*
X298316400Y-133766234D01*
G04 #@! TO.N,/GND1*
X10007600Y-137261600D02*
X10515600Y-137769600D01*
X9017000Y-137261600D02*
X10007600Y-137261600D01*
X22404200Y-139070400D02*
X22404200Y-137820400D01*
X23503700Y-140169900D02*
X23761700Y-140169900D01*
X22404200Y-139070400D02*
X23503700Y-140169900D01*
X96939100Y-139409300D02*
X98464500Y-137883900D01*
X96939100Y-139522200D02*
X96939100Y-139409300D01*
X104003100Y-137909300D02*
X104003100Y-136659300D01*
X98464500Y-136633900D02*
X98464500Y-137883900D01*
X104003100Y-136659300D02*
X102611500Y-135267700D01*
X99589400Y-135509000D02*
X99606100Y-135509000D01*
X99589400Y-135509000D02*
X98464500Y-136633900D01*
X99606100Y-135509000D02*
X100926900Y-134188200D01*
X101532000Y-134188200D02*
X102611500Y-135267700D01*
X100926900Y-134188200D02*
X101532000Y-134188200D01*
X109616500Y-136710100D02*
X109616500Y-137960100D01*
X107120000Y-134213600D02*
X109616500Y-136710100D01*
X104003100Y-136659300D02*
X104988300Y-135674100D01*
X104990900Y-135674100D02*
X106451400Y-134213600D01*
X104988300Y-135674100D02*
X104990900Y-135674100D01*
X106451400Y-134213600D02*
X107120000Y-134213600D01*
X185575200Y-138452600D02*
X185575200Y-137706100D01*
X184099200Y-139928600D02*
X185575200Y-138452600D01*
X109715300Y-137960100D02*
X109616500Y-137960100D01*
X111912400Y-140157200D02*
X109715300Y-137960100D01*
X191511000Y-136532300D02*
X191511000Y-137782300D01*
X189065300Y-134086600D02*
X191511000Y-136532300D01*
X187972700Y-134086600D02*
X189065300Y-134086600D01*
X185575200Y-136484100D02*
X187972700Y-134086600D01*
X185575200Y-137706100D02*
X185575200Y-136484100D01*
X191511000Y-137782300D02*
X191511000Y-136631600D01*
X191511000Y-136631600D02*
X194005200Y-134137400D01*
X197513200Y-136583100D02*
X197513200Y-137833100D01*
X195067500Y-134137400D02*
X197513200Y-136583100D01*
X194005200Y-134137400D02*
X195067500Y-134137400D01*
X197513200Y-139083100D02*
X198561900Y-140131800D01*
X198561900Y-140131800D02*
X199351900Y-140131800D01*
X197513200Y-137833100D02*
X197513200Y-139083100D01*
X272275300Y-139613900D02*
X273738600Y-138150600D01*
X272275300Y-139776200D02*
X272275300Y-139613900D01*
X273738600Y-138150600D02*
X273738600Y-136992100D01*
X273738600Y-136992100D02*
X275996400Y-134734300D01*
X279425400Y-136976800D02*
X279425400Y-138226800D01*
X277182900Y-134734300D02*
X279425400Y-136976800D01*
X275996400Y-134734300D02*
X277182900Y-134734300D01*
X279425400Y-138226800D02*
X279425400Y-136893300D01*
X279425400Y-136893300D02*
X281546300Y-134772400D01*
X285268800Y-137053000D02*
X285268800Y-138303000D01*
X282988200Y-134772400D02*
X285268800Y-137053000D01*
X281546300Y-134772400D02*
X282988200Y-134772400D01*
X10515600Y-137769600D02*
X10515600Y-136575800D01*
X10515600Y-136575800D02*
X12941300Y-134150100D01*
X16484600Y-136545000D02*
X16484600Y-137795000D01*
X14089700Y-134150100D02*
X16484600Y-136545000D01*
X12941300Y-134150100D02*
X14089700Y-134150100D01*
X16484600Y-137795000D02*
X16484600Y-136664700D01*
X19002301Y-134146999D02*
X19986699Y-134146999D01*
X16484600Y-136664700D02*
X19002301Y-134146999D01*
X22404200Y-136570400D02*
X22404200Y-137820400D01*
X19986699Y-134152899D02*
X22404200Y-136570400D01*
X19986699Y-134146999D02*
X19986699Y-134152899D01*
G04 #@! TO.N,/PWR11*
X79573200Y-125577600D02*
X79603600Y-125608000D01*
X77343000Y-125577600D02*
X79573200Y-125577600D01*
X82732800Y-125608000D02*
X82854800Y-125730000D01*
X79603600Y-125608000D02*
X82732800Y-125608000D01*
G04 #@! TO.N,/PWR9*
X122674300Y-126047500D02*
X122783600Y-125938200D01*
X120396000Y-126047500D02*
X122674300Y-126047500D01*
X122880200Y-126034800D02*
X122783600Y-125938200D01*
X126136400Y-126034800D02*
X122880200Y-126034800D01*
G04 #@! TO.N,/PWR7*
X166184500Y-126403100D02*
X166319200Y-126268400D01*
X163931600Y-126403100D02*
X166184500Y-126403100D01*
X166431000Y-126380200D02*
X166319200Y-126268400D01*
X169672000Y-126380200D02*
X166431000Y-126380200D01*
G04 #@! TO.N,/PWR5*
X209453400Y-126085600D02*
X209550000Y-125989000D01*
X207225900Y-126085600D02*
X209453400Y-126085600D01*
X212892600Y-125989000D02*
X212953600Y-126050000D01*
X209550000Y-125989000D02*
X212892600Y-125989000D01*
G04 #@! TO.N,/PWR3*
X253585900Y-126580900D02*
X253771400Y-126395400D01*
X251409200Y-126580900D02*
X253585900Y-126580900D01*
X253857800Y-126481800D02*
X253771400Y-126395400D01*
X257048000Y-126481800D02*
X253857800Y-126481800D01*
G04 #@! TO.N,/PWR1*
X297977600Y-126380200D02*
X297891200Y-126293800D01*
X301193200Y-126380200D02*
X297977600Y-126380200D01*
X297807300Y-126377700D02*
X297891200Y-126293800D01*
X295490900Y-126377700D02*
X297807300Y-126377700D01*
G04 #@! TD*
G04 #@! TO.N,Net-(R3-PadEP)*
G36*
X270919575Y-89242185D02*
X270919575Y-123061984D01*
X255801400Y-122941556D01*
X255801400Y-119056150D01*
X255642650Y-118897400D01*
X251358400Y-118897400D01*
X251358400Y-118917400D01*
X251104400Y-118917400D01*
X251104400Y-118897400D01*
X246820150Y-118897400D01*
X246661400Y-119056150D01*
X246661400Y-122868748D01*
X227330000Y-122714758D01*
X227330000Y-114389090D01*
X246661400Y-114389090D01*
X246661400Y-118484650D01*
X246820150Y-118643400D01*
X251104400Y-118643400D01*
X251104400Y-114039150D01*
X251358400Y-114039150D01*
X251358400Y-118643400D01*
X255642650Y-118643400D01*
X255801400Y-118484650D01*
X255801400Y-114389090D01*
X255704727Y-114155701D01*
X255526098Y-113977073D01*
X255292709Y-113880400D01*
X251517150Y-113880400D01*
X251358400Y-114039150D01*
X251104400Y-114039150D01*
X250945650Y-113880400D01*
X247170091Y-113880400D01*
X246936702Y-113977073D01*
X246758073Y-114155701D01*
X246661400Y-114389090D01*
X227330000Y-114389090D01*
X227330000Y-89076200D01*
X241533931Y-89076200D01*
X270919575Y-89242185D01*
X270919575Y-89242185D01*
G37*
X270919575Y-89242185D02*
X270919575Y-123061984D01*
X255801400Y-122941556D01*
X255801400Y-119056150D01*
X255642650Y-118897400D01*
X251358400Y-118897400D01*
X251358400Y-118917400D01*
X251104400Y-118917400D01*
X251104400Y-118897400D01*
X246820150Y-118897400D01*
X246661400Y-119056150D01*
X246661400Y-122868748D01*
X227330000Y-122714758D01*
X227330000Y-114389090D01*
X246661400Y-114389090D01*
X246661400Y-118484650D01*
X246820150Y-118643400D01*
X251104400Y-118643400D01*
X251104400Y-114039150D01*
X251358400Y-114039150D01*
X251358400Y-118643400D01*
X255642650Y-118643400D01*
X255801400Y-118484650D01*
X255801400Y-114389090D01*
X255704727Y-114155701D01*
X255526098Y-113977073D01*
X255292709Y-113880400D01*
X251517150Y-113880400D01*
X251358400Y-114039150D01*
X251104400Y-114039150D01*
X250945650Y-113880400D01*
X247170091Y-113880400D01*
X246936702Y-113977073D01*
X246758073Y-114155701D01*
X246661400Y-114389090D01*
X227330000Y-114389090D01*
X227330000Y-89076200D01*
X241533931Y-89076200D01*
X270919575Y-89242185D01*
G04 #@! TO.N,Net-(R5-PadEP)*
G36*
X226370249Y-122739853D02*
X211548437Y-122821509D01*
X211580000Y-122745310D01*
X211580000Y-118649750D01*
X211421250Y-118491000D01*
X207137000Y-118491000D01*
X207137000Y-118511000D01*
X206883000Y-118511000D01*
X206883000Y-118491000D01*
X202598750Y-118491000D01*
X202440000Y-118649750D01*
X202440000Y-122745310D01*
X202492229Y-122871402D01*
X186282791Y-122960703D01*
X186225735Y-113982690D01*
X202440000Y-113982690D01*
X202440000Y-118078250D01*
X202598750Y-118237000D01*
X206883000Y-118237000D01*
X206883000Y-113632750D01*
X207137000Y-113632750D01*
X207137000Y-118237000D01*
X211421250Y-118237000D01*
X211580000Y-118078250D01*
X211580000Y-113982690D01*
X211483327Y-113749301D01*
X211304698Y-113570673D01*
X211071309Y-113474000D01*
X207295750Y-113474000D01*
X207137000Y-113632750D01*
X206883000Y-113632750D01*
X206724250Y-113474000D01*
X202948691Y-113474000D01*
X202715302Y-113570673D01*
X202536673Y-113749301D01*
X202440000Y-113982690D01*
X186225735Y-113982690D01*
X186068505Y-89242277D01*
X220082196Y-89076200D01*
X226130964Y-89076200D01*
X226370249Y-122739853D01*
X226370249Y-122739853D01*
G37*
X226370249Y-122739853D02*
X211548437Y-122821509D01*
X211580000Y-122745310D01*
X211580000Y-118649750D01*
X211421250Y-118491000D01*
X207137000Y-118491000D01*
X207137000Y-118511000D01*
X206883000Y-118511000D01*
X206883000Y-118491000D01*
X202598750Y-118491000D01*
X202440000Y-118649750D01*
X202440000Y-122745310D01*
X202492229Y-122871402D01*
X186282791Y-122960703D01*
X186225735Y-113982690D01*
X202440000Y-113982690D01*
X202440000Y-118078250D01*
X202598750Y-118237000D01*
X206883000Y-118237000D01*
X206883000Y-113632750D01*
X207137000Y-113632750D01*
X207137000Y-118237000D01*
X211421250Y-118237000D01*
X211580000Y-118078250D01*
X211580000Y-113982690D01*
X211483327Y-113749301D01*
X211304698Y-113570673D01*
X211071309Y-113474000D01*
X207295750Y-113474000D01*
X207137000Y-113632750D01*
X206883000Y-113632750D01*
X206724250Y-113474000D01*
X202948691Y-113474000D01*
X202715302Y-113570673D01*
X202536673Y-113749301D01*
X202440000Y-113982690D01*
X186225735Y-113982690D01*
X186068505Y-89242277D01*
X220082196Y-89076200D01*
X226130964Y-89076200D01*
X226370249Y-122739853D01*
G04 #@! TO.N,Net-(R7-PadEP)*
G36*
X185431750Y-122870173D02*
X168349200Y-122877412D01*
X168349200Y-118929150D01*
X168190450Y-118770400D01*
X163906200Y-118770400D01*
X163906200Y-118790400D01*
X163652200Y-118790400D01*
X163652200Y-118770400D01*
X159367950Y-118770400D01*
X159209200Y-118929150D01*
X159209200Y-122881286D01*
X142607920Y-122888321D01*
X142582104Y-114262090D01*
X159209200Y-114262090D01*
X159209200Y-118357650D01*
X159367950Y-118516400D01*
X163652200Y-118516400D01*
X163652200Y-113912150D01*
X163906200Y-113912150D01*
X163906200Y-118516400D01*
X168190450Y-118516400D01*
X168349200Y-118357650D01*
X168349200Y-114262090D01*
X168252527Y-114028701D01*
X168073898Y-113850073D01*
X167840509Y-113753400D01*
X164064950Y-113753400D01*
X163906200Y-113912150D01*
X163652200Y-113912150D01*
X163493450Y-113753400D01*
X159717891Y-113753400D01*
X159484502Y-113850073D01*
X159305873Y-114028701D01*
X159209200Y-114262090D01*
X142582104Y-114262090D01*
X142507079Y-89193314D01*
X182340614Y-89076200D01*
X185179709Y-89076200D01*
X185431750Y-122870173D01*
X185431750Y-122870173D01*
G37*
X185431750Y-122870173D02*
X168349200Y-122877412D01*
X168349200Y-118929150D01*
X168190450Y-118770400D01*
X163906200Y-118770400D01*
X163906200Y-118790400D01*
X163652200Y-118790400D01*
X163652200Y-118770400D01*
X159367950Y-118770400D01*
X159209200Y-118929150D01*
X159209200Y-122881286D01*
X142607920Y-122888321D01*
X142582104Y-114262090D01*
X159209200Y-114262090D01*
X159209200Y-118357650D01*
X159367950Y-118516400D01*
X163652200Y-118516400D01*
X163652200Y-113912150D01*
X163906200Y-113912150D01*
X163906200Y-118516400D01*
X168190450Y-118516400D01*
X168349200Y-118357650D01*
X168349200Y-114262090D01*
X168252527Y-114028701D01*
X168073898Y-113850073D01*
X167840509Y-113753400D01*
X164064950Y-113753400D01*
X163906200Y-113912150D01*
X163652200Y-113912150D01*
X163493450Y-113753400D01*
X159717891Y-113753400D01*
X159484502Y-113850073D01*
X159305873Y-114028701D01*
X159209200Y-114262090D01*
X142582104Y-114262090D01*
X142507079Y-89193314D01*
X182340614Y-89076200D01*
X185179709Y-89076200D01*
X185431750Y-122870173D01*
G04 #@! TO.N,Net-(R9-PadEP)*
G36*
X141453822Y-89302764D02*
X141781545Y-123064550D01*
X124749143Y-122850122D01*
X124813600Y-122694510D01*
X124813600Y-118598950D01*
X124654850Y-118440200D01*
X120370600Y-118440200D01*
X120370600Y-118460200D01*
X120116600Y-118460200D01*
X120116600Y-118440200D01*
X115832350Y-118440200D01*
X115673600Y-118598950D01*
X115673600Y-122694510D01*
X115690820Y-122736084D01*
X99415317Y-122531185D01*
X99395836Y-113931890D01*
X115673600Y-113931890D01*
X115673600Y-118027450D01*
X115832350Y-118186200D01*
X120116600Y-118186200D01*
X120116600Y-113581950D01*
X120370600Y-113581950D01*
X120370600Y-118186200D01*
X124654850Y-118186200D01*
X124813600Y-118027450D01*
X124813600Y-113931890D01*
X124716927Y-113698501D01*
X124538298Y-113519873D01*
X124304909Y-113423200D01*
X120529350Y-113423200D01*
X120370600Y-113581950D01*
X120116600Y-113581950D01*
X119957850Y-113423200D01*
X116182291Y-113423200D01*
X115948902Y-113519873D01*
X115770273Y-113698501D01*
X115673600Y-113931890D01*
X99395836Y-113931890D01*
X99339689Y-89148118D01*
X141453822Y-89302764D01*
X141453822Y-89302764D01*
G37*
X141453822Y-89302764D02*
X141781545Y-123064550D01*
X124749143Y-122850122D01*
X124813600Y-122694510D01*
X124813600Y-118598950D01*
X124654850Y-118440200D01*
X120370600Y-118440200D01*
X120370600Y-118460200D01*
X120116600Y-118460200D01*
X120116600Y-118440200D01*
X115832350Y-118440200D01*
X115673600Y-118598950D01*
X115673600Y-122694510D01*
X115690820Y-122736084D01*
X99415317Y-122531185D01*
X99395836Y-113931890D01*
X115673600Y-113931890D01*
X115673600Y-118027450D01*
X115832350Y-118186200D01*
X120116600Y-118186200D01*
X120116600Y-113581950D01*
X120370600Y-113581950D01*
X120370600Y-118186200D01*
X124654850Y-118186200D01*
X124813600Y-118027450D01*
X124813600Y-113931890D01*
X124716927Y-113698501D01*
X124538298Y-113519873D01*
X124304909Y-113423200D01*
X120529350Y-113423200D01*
X120370600Y-113581950D01*
X120116600Y-113581950D01*
X119957850Y-113423200D01*
X116182291Y-113423200D01*
X115948902Y-113519873D01*
X115770273Y-113698501D01*
X115673600Y-113931890D01*
X99395836Y-113931890D01*
X99339689Y-89148118D01*
X141453822Y-89302764D01*
G04 #@! TO.N,Net-(R11-PadEP)*
G36*
X98255012Y-89274149D02*
X98645754Y-122890546D01*
X81378506Y-122756119D01*
X81536927Y-122597699D01*
X81633600Y-122364310D01*
X81633600Y-118268750D01*
X81474850Y-118110000D01*
X77190600Y-118110000D01*
X77190600Y-118130000D01*
X76936600Y-118130000D01*
X76936600Y-118110000D01*
X72652350Y-118110000D01*
X72493600Y-118268750D01*
X72493600Y-122364310D01*
X72590273Y-122597699D01*
X72680983Y-122688408D01*
X57302044Y-122568682D01*
X57276709Y-113601690D01*
X72493600Y-113601690D01*
X72493600Y-117697250D01*
X72652350Y-117856000D01*
X76936600Y-117856000D01*
X76936600Y-113251750D01*
X77190600Y-113251750D01*
X77190600Y-117856000D01*
X81474850Y-117856000D01*
X81633600Y-117697250D01*
X81633600Y-113601690D01*
X81536927Y-113368301D01*
X81358298Y-113189673D01*
X81124909Y-113093000D01*
X77349350Y-113093000D01*
X77190600Y-113251750D01*
X76936600Y-113251750D01*
X76777850Y-113093000D01*
X73002291Y-113093000D01*
X72768902Y-113189673D01*
X72590273Y-113368301D01*
X72493600Y-113601690D01*
X57276709Y-113601690D01*
X57207510Y-89110060D01*
X98255012Y-89274149D01*
X98255012Y-89274149D01*
G37*
X98255012Y-89274149D02*
X98645754Y-122890546D01*
X81378506Y-122756119D01*
X81536927Y-122597699D01*
X81633600Y-122364310D01*
X81633600Y-118268750D01*
X81474850Y-118110000D01*
X77190600Y-118110000D01*
X77190600Y-118130000D01*
X76936600Y-118130000D01*
X76936600Y-118110000D01*
X72652350Y-118110000D01*
X72493600Y-118268750D01*
X72493600Y-122364310D01*
X72590273Y-122597699D01*
X72680983Y-122688408D01*
X57302044Y-122568682D01*
X57276709Y-113601690D01*
X72493600Y-113601690D01*
X72493600Y-117697250D01*
X72652350Y-117856000D01*
X76936600Y-117856000D01*
X76936600Y-113251750D01*
X77190600Y-113251750D01*
X77190600Y-117856000D01*
X81474850Y-117856000D01*
X81633600Y-117697250D01*
X81633600Y-113601690D01*
X81536927Y-113368301D01*
X81358298Y-113189673D01*
X81124909Y-113093000D01*
X77349350Y-113093000D01*
X77190600Y-113251750D01*
X76936600Y-113251750D01*
X76777850Y-113093000D01*
X73002291Y-113093000D01*
X72768902Y-113189673D01*
X72590273Y-113368301D01*
X72493600Y-113601690D01*
X57276709Y-113601690D01*
X57207510Y-89110060D01*
X98255012Y-89274149D01*
G04 #@! TO.N,Net-(R13-PadEP)*
G36*
X56083099Y-122808587D02*
X37303511Y-122747546D01*
X37336000Y-122669110D01*
X37336000Y-118573550D01*
X37177250Y-118414800D01*
X32893000Y-118414800D01*
X32893000Y-118434800D01*
X32639000Y-118434800D01*
X32639000Y-118414800D01*
X28354750Y-118414800D01*
X28196000Y-118573550D01*
X28196000Y-122669110D01*
X28216255Y-122718010D01*
X21171975Y-122695113D01*
X21191444Y-113906490D01*
X28196000Y-113906490D01*
X28196000Y-118002050D01*
X28354750Y-118160800D01*
X32639000Y-118160800D01*
X32639000Y-113556550D01*
X32893000Y-113556550D01*
X32893000Y-118160800D01*
X37177250Y-118160800D01*
X37336000Y-118002050D01*
X37336000Y-113906490D01*
X37239327Y-113673101D01*
X37060698Y-113494473D01*
X36827309Y-113397800D01*
X33051750Y-113397800D01*
X32893000Y-113556550D01*
X32639000Y-113556550D01*
X32480250Y-113397800D01*
X28704691Y-113397800D01*
X28471302Y-113494473D01*
X28292673Y-113673101D01*
X28196000Y-113906490D01*
X21191444Y-113906490D01*
X21246028Y-89267613D01*
X56056314Y-89078491D01*
X56083099Y-122808587D01*
X56083099Y-122808587D01*
G37*
X56083099Y-122808587D02*
X37303511Y-122747546D01*
X37336000Y-122669110D01*
X37336000Y-118573550D01*
X37177250Y-118414800D01*
X32893000Y-118414800D01*
X32893000Y-118434800D01*
X32639000Y-118434800D01*
X32639000Y-118414800D01*
X28354750Y-118414800D01*
X28196000Y-118573550D01*
X28196000Y-122669110D01*
X28216255Y-122718010D01*
X21171975Y-122695113D01*
X21191444Y-113906490D01*
X28196000Y-113906490D01*
X28196000Y-118002050D01*
X28354750Y-118160800D01*
X32639000Y-118160800D01*
X32639000Y-113556550D01*
X32893000Y-113556550D01*
X32893000Y-118160800D01*
X37177250Y-118160800D01*
X37336000Y-118002050D01*
X37336000Y-113906490D01*
X37239327Y-113673101D01*
X37060698Y-113494473D01*
X36827309Y-113397800D01*
X33051750Y-113397800D01*
X32893000Y-113556550D01*
X32639000Y-113556550D01*
X32480250Y-113397800D01*
X28704691Y-113397800D01*
X28471302Y-113494473D01*
X28292673Y-113673101D01*
X28196000Y-113906490D01*
X21191444Y-113906490D01*
X21246028Y-89267613D01*
X56056314Y-89078491D01*
X56083099Y-122808587D01*
G04 #@! TO.N,Net-(R15-PadEP)*
G36*
X-12217400Y-109143691D02*
X-12207774Y-109192300D01*
X-12180279Y-109233526D01*
X-12139101Y-109261091D01*
X-12090400Y-109270800D01*
X-6223000Y-109270800D01*
X-6222515Y-109270799D01*
X-3023814Y-109258590D01*
X-3047994Y-111809596D01*
X-3038788Y-111858287D01*
X-3011650Y-111899747D01*
X-2970711Y-111927667D01*
X-2920788Y-111937800D01*
X19814316Y-111899908D01*
X20152532Y-130301343D01*
X355816Y-130201043D01*
X368300Y-122898117D01*
X358716Y-122849500D01*
X331256Y-122808251D01*
X290101Y-122780651D01*
X241193Y-122770900D01*
X-6275800Y-122776395D01*
X-6275800Y-118751350D01*
X-6434550Y-118592600D01*
X-10718800Y-118592600D01*
X-10718800Y-118612600D01*
X-10972800Y-118612600D01*
X-10972800Y-118592600D01*
X-15257050Y-118592600D01*
X-15415800Y-118751350D01*
X-15415800Y-122783600D01*
X-21820200Y-122783600D01*
X-21820200Y-114084290D01*
X-15415800Y-114084290D01*
X-15415800Y-118179850D01*
X-15257050Y-118338600D01*
X-10972800Y-118338600D01*
X-10972800Y-113734350D01*
X-10718800Y-113734350D01*
X-10718800Y-118338600D01*
X-6434550Y-118338600D01*
X-6275800Y-118179850D01*
X-6275800Y-114084290D01*
X-6372473Y-113850901D01*
X-6551102Y-113672273D01*
X-6784491Y-113575600D01*
X-10560050Y-113575600D01*
X-10718800Y-113734350D01*
X-10972800Y-113734350D01*
X-11131550Y-113575600D01*
X-14907109Y-113575600D01*
X-15140498Y-113672273D01*
X-15319127Y-113850901D01*
X-15415800Y-114084290D01*
X-21820200Y-114084290D01*
X-21820200Y-94461666D01*
X-15544561Y-94437200D01*
X-12204809Y-94437200D01*
X-12217400Y-109143691D01*
X-12217400Y-109143691D01*
G37*
X-12217400Y-109143691D02*
X-12207774Y-109192300D01*
X-12180279Y-109233526D01*
X-12139101Y-109261091D01*
X-12090400Y-109270800D01*
X-6223000Y-109270800D01*
X-6222515Y-109270799D01*
X-3023814Y-109258590D01*
X-3047994Y-111809596D01*
X-3038788Y-111858287D01*
X-3011650Y-111899747D01*
X-2970711Y-111927667D01*
X-2920788Y-111937800D01*
X19814316Y-111899908D01*
X20152532Y-130301343D01*
X355816Y-130201043D01*
X368300Y-122898117D01*
X358716Y-122849500D01*
X331256Y-122808251D01*
X290101Y-122780651D01*
X241193Y-122770900D01*
X-6275800Y-122776395D01*
X-6275800Y-118751350D01*
X-6434550Y-118592600D01*
X-10718800Y-118592600D01*
X-10718800Y-118612600D01*
X-10972800Y-118612600D01*
X-10972800Y-118592600D01*
X-15257050Y-118592600D01*
X-15415800Y-118751350D01*
X-15415800Y-122783600D01*
X-21820200Y-122783600D01*
X-21820200Y-114084290D01*
X-15415800Y-114084290D01*
X-15415800Y-118179850D01*
X-15257050Y-118338600D01*
X-10972800Y-118338600D01*
X-10972800Y-113734350D01*
X-10718800Y-113734350D01*
X-10718800Y-118338600D01*
X-6434550Y-118338600D01*
X-6275800Y-118179850D01*
X-6275800Y-114084290D01*
X-6372473Y-113850901D01*
X-6551102Y-113672273D01*
X-6784491Y-113575600D01*
X-10560050Y-113575600D01*
X-10718800Y-113734350D01*
X-10972800Y-113734350D01*
X-11131550Y-113575600D01*
X-14907109Y-113575600D01*
X-15140498Y-113672273D01*
X-15319127Y-113850901D01*
X-15415800Y-114084290D01*
X-21820200Y-114084290D01*
X-21820200Y-94461666D01*
X-15544561Y-94437200D01*
X-12204809Y-94437200D01*
X-12217400Y-109143691D01*
G04 #@! TO.N,Net-(R1-PadEP)*
G36*
X311493547Y-89255398D02*
X311518302Y-94094950D01*
X311528217Y-94143500D01*
X311555958Y-94184561D01*
X311597300Y-94211880D01*
X311645300Y-94221300D01*
X316801443Y-94221300D01*
X316788800Y-122580343D01*
X316788800Y-122759331D01*
X299921200Y-122910234D01*
X299921200Y-118954550D01*
X299762450Y-118795800D01*
X295478200Y-118795800D01*
X295478200Y-118815800D01*
X295224200Y-118815800D01*
X295224200Y-118795800D01*
X290939950Y-118795800D01*
X290781200Y-118954550D01*
X290781200Y-122986420D01*
X272072005Y-122974183D01*
X272065523Y-114287490D01*
X290781200Y-114287490D01*
X290781200Y-118383050D01*
X290939950Y-118541800D01*
X295224200Y-118541800D01*
X295224200Y-113937550D01*
X295478200Y-113937550D01*
X295478200Y-118541800D01*
X299762450Y-118541800D01*
X299921200Y-118383050D01*
X299921200Y-114287490D01*
X299824527Y-114054101D01*
X299645898Y-113875473D01*
X299412509Y-113778800D01*
X295636950Y-113778800D01*
X295478200Y-113937550D01*
X295224200Y-113937550D01*
X295065450Y-113778800D01*
X291289891Y-113778800D01*
X291056502Y-113875473D01*
X290877873Y-114054101D01*
X290781200Y-114287490D01*
X272065523Y-114287490D01*
X272046795Y-89192304D01*
X311493547Y-89255398D01*
X311493547Y-89255398D01*
G37*
X311493547Y-89255398D02*
X311518302Y-94094950D01*
X311528217Y-94143500D01*
X311555958Y-94184561D01*
X311597300Y-94211880D01*
X311645300Y-94221300D01*
X316801443Y-94221300D01*
X316788800Y-122580343D01*
X316788800Y-122759331D01*
X299921200Y-122910234D01*
X299921200Y-118954550D01*
X299762450Y-118795800D01*
X295478200Y-118795800D01*
X295478200Y-118815800D01*
X295224200Y-118815800D01*
X295224200Y-118795800D01*
X290939950Y-118795800D01*
X290781200Y-118954550D01*
X290781200Y-122986420D01*
X272072005Y-122974183D01*
X272065523Y-114287490D01*
X290781200Y-114287490D01*
X290781200Y-118383050D01*
X290939950Y-118541800D01*
X295224200Y-118541800D01*
X295224200Y-113937550D01*
X295478200Y-113937550D01*
X295478200Y-118541800D01*
X299762450Y-118541800D01*
X299921200Y-118383050D01*
X299921200Y-114287490D01*
X299824527Y-114054101D01*
X299645898Y-113875473D01*
X299412509Y-113778800D01*
X295636950Y-113778800D01*
X295478200Y-113937550D01*
X295224200Y-113937550D01*
X295065450Y-113778800D01*
X291289891Y-113778800D01*
X291056502Y-113875473D01*
X290877873Y-114054101D01*
X290781200Y-114287490D01*
X272065523Y-114287490D01*
X272046795Y-89192304D01*
X311493547Y-89255398D01*
G04 #@! TD*
M02*
