G04 #@! TF.GenerationSoftware,KiCad,Pcbnew,5.0.2-bee76a0~70~ubuntu16.04.1*
G04 #@! TF.CreationDate,2019-11-05T16:08:15-05:00*
G04 #@! TF.ProjectId,DA_Board_2,44415f42-6f61-4726-945f-322e6b696361,rev?*
G04 #@! TF.SameCoordinates,Original*
G04 #@! TF.FileFunction,Profile,NP*
%FSLAX46Y46*%
G04 Gerber Fmt 4.6, Leading zero omitted, Abs format (unit mm)*
G04 Created by KiCad (PCBNEW 5.0.2-bee76a0~70~ubuntu16.04.1) date Tue 05 Nov 2019 04:08:15 PM EST*
%MOMM*%
%LPD*%
G01*
G04 APERTURE LIST*
%ADD10C,0.200000*%
G04 APERTURE END LIST*
D10*
X-22555200Y-91516200D02*
G75*
G02X-19380200Y-88341200I3175000J0D01*
G01*
X314375800Y-88341200D02*
X-19380200Y-88341200D01*
X49126231Y-144016243D02*
G75*
G02X52223274Y-140919200I3097043J0D01*
G01*
X49126232Y-145075766D02*
X49126232Y-144016243D01*
X265458032Y-145075766D02*
G75*
G03X265458032Y-145075766I-1955800J0D01*
G01*
X309146032Y-145075766D02*
G75*
G03X309146032Y-145075766I-1955800J0D01*
G01*
X-19380200Y-140919200D02*
X-14554200Y-140919200D01*
X136502232Y-145075766D02*
G75*
G02X129965100Y-148300625I-4064000J0D01*
G01*
X123379400Y-143250077D02*
X129965100Y-148300625D01*
X226975274Y-140919200D02*
X247573800Y-140919200D01*
X311254232Y-145075766D02*
G75*
G02X304717100Y-148300625I-4064000J0D01*
G01*
X298131400Y-143250077D02*
X304717100Y-148300625D01*
X29133800Y-140919201D02*
G75*
G02X36003400Y-143250077I0J-11288542D01*
G01*
X92814232Y-145075766D02*
G75*
G02X86277100Y-148300625I-4064000J0D01*
G01*
X79691400Y-143250077D02*
X86277100Y-148300625D01*
X180190232Y-145075766D02*
G75*
G02X173653100Y-148300625I-4064000J0D01*
G01*
X167067400Y-143250077D02*
X173653100Y-148300625D01*
X-19380200Y-140919200D02*
G75*
G02X-22555200Y-137744200I0J3175000D01*
G01*
X-22555200Y-137744200D02*
X-22555200Y-91516200D01*
X203885800Y-140919201D02*
G75*
G02X210755400Y-143250077I0J-11288542D01*
G01*
X178082032Y-145075766D02*
G75*
G03X178082032Y-145075766I-1955800J0D01*
G01*
X221770032Y-145075766D02*
G75*
G03X221770032Y-145075766I-1955800J0D01*
G01*
X8535274Y-140919200D02*
X29133800Y-140919200D01*
X139599274Y-140919200D02*
X160197800Y-140919200D01*
X317550800Y-137744200D02*
G75*
G02X314375800Y-140919200I-3175000J0D01*
G01*
X314351274Y-140919200D02*
X314375800Y-140919200D01*
X223878232Y-145075766D02*
X223878232Y-144016243D01*
X223878232Y-145075766D02*
G75*
G02X217341100Y-148300625I-4064000J0D01*
G01*
X210755400Y-143250077D02*
X217341100Y-148300625D01*
X95911274Y-140919200D02*
X116509800Y-140919200D01*
X5438232Y-145075766D02*
G75*
G02X-1098900Y-148300625I-4064000J0D01*
G01*
X-7684600Y-143250077D02*
X-1098900Y-148300625D01*
X136502231Y-144016243D02*
G75*
G02X139599274Y-140919200I3097043J0D01*
G01*
X136502232Y-145075766D02*
X136502232Y-144016243D01*
X291261800Y-140919201D02*
G75*
G02X298131400Y-143250077I0J-11288542D01*
G01*
X267566232Y-145075766D02*
G75*
G02X261029100Y-148300625I-4064000J0D01*
G01*
X254443400Y-143250077D02*
X261029100Y-148300625D01*
X223878231Y-144016243D02*
G75*
G02X226975274Y-140919200I3097043J0D01*
G01*
X270663274Y-140919200D02*
X291261800Y-140919200D01*
X311254231Y-144016243D02*
G75*
G02X314351274Y-140919200I3097043J0D01*
G01*
X311254232Y-145075766D02*
X311254232Y-144016243D01*
X92814231Y-144016243D02*
G75*
G02X95911274Y-140919200I3097043J0D01*
G01*
X92814232Y-145075766D02*
X92814232Y-144016243D01*
X247573800Y-140919201D02*
G75*
G02X254443400Y-143250077I0J-11288542D01*
G01*
X267566231Y-144016243D02*
G75*
G02X270663274Y-140919200I3097043J0D01*
G01*
X267566232Y-145075766D02*
X267566232Y-144016243D01*
X116509800Y-140919201D02*
G75*
G02X123379400Y-143250077I0J-11288542D01*
G01*
X183287274Y-140919200D02*
X203885800Y-140919200D01*
X160197800Y-140919201D02*
G75*
G02X167067400Y-143250077I0J-11288542D01*
G01*
X90706032Y-145075766D02*
G75*
G03X90706032Y-145075766I-1955800J0D01*
G01*
X134394032Y-145075766D02*
G75*
G03X134394032Y-145075766I-1955800J0D01*
G01*
X180190231Y-144016243D02*
G75*
G02X183287274Y-140919200I3097043J0D01*
G01*
X180190232Y-145075766D02*
X180190232Y-144016243D01*
X314375800Y-88341200D02*
G75*
G02X317550800Y-91516200I0J-3175000D01*
G01*
X317550800Y-137744200D02*
X317550800Y-91516200D01*
X3330032Y-145075766D02*
G75*
G03X3330032Y-145075766I-1955800J0D01*
G01*
X47018032Y-145075766D02*
G75*
G03X47018032Y-145075766I-1955800J0D01*
G01*
X72821800Y-140919201D02*
G75*
G02X79691400Y-143250077I0J-11288542D01*
G01*
X52223274Y-140919200D02*
X72821800Y-140919200D01*
X5438231Y-144016243D02*
G75*
G02X8535274Y-140919200I3097043J0D01*
G01*
X5438232Y-145075766D02*
X5438232Y-144016243D01*
X49126232Y-145075766D02*
G75*
G02X42589100Y-148300625I-4064000J0D01*
G01*
X36003400Y-143250077D02*
X42589100Y-148300625D01*
X-14554200Y-140919201D02*
G75*
G02X-7684600Y-143250077I0J-11288542D01*
G01*
X-17487900Y-91516200D02*
G75*
G03X-17487900Y-91516200I-1892300J0D01*
G01*
X316268100Y-91516200D02*
G75*
G03X316268100Y-91516200I-1892300J0D01*
G01*
M02*
