G04 #@! TF.GenerationSoftware,KiCad,Pcbnew,5.0.2-bee76a0~70~ubuntu18.04.1*
G04 #@! TF.CreationDate,2019-04-11T22:59:15-04:00*
G04 #@! TF.ProjectId,throttle,7468726f-7474-46c6-952e-6b696361645f,rev?*
G04 #@! TF.SameCoordinates,Original*
G04 #@! TF.FileFunction,Legend,Bot*
G04 #@! TF.FilePolarity,Positive*
%FSLAX46Y46*%
G04 Gerber Fmt 4.6, Leading zero omitted, Abs format (unit mm)*
G04 Created by KiCad (PCBNEW 5.0.2-bee76a0~70~ubuntu18.04.1) date Thu 11 Apr 2019 10:59:15 PM EDT*
%MOMM*%
%LPD*%
G01*
G04 APERTURE LIST*
%ADD10C,0.190500*%
%ADD11C,0.150000*%
%ADD12C,0.010000*%
G04 APERTURE END LIST*
D10*
X63986530Y-80787723D02*
X63986530Y-80207152D01*
X62970530Y-80497438D02*
X63986530Y-80497438D01*
X62970530Y-79868485D02*
X63986530Y-79868485D01*
X62970530Y-79433057D02*
X63502721Y-79433057D01*
X63599483Y-79481438D01*
X63647864Y-79578200D01*
X63647864Y-79723342D01*
X63599483Y-79820104D01*
X63551102Y-79868485D01*
X62970530Y-78949247D02*
X63647864Y-78949247D01*
X63454340Y-78949247D02*
X63551102Y-78900866D01*
X63599483Y-78852485D01*
X63647864Y-78755723D01*
X63647864Y-78658961D01*
X62970530Y-78175152D02*
X63018911Y-78271914D01*
X63067292Y-78320295D01*
X63164054Y-78368676D01*
X63454340Y-78368676D01*
X63551102Y-78320295D01*
X63599483Y-78271914D01*
X63647864Y-78175152D01*
X63647864Y-78030009D01*
X63599483Y-77933247D01*
X63551102Y-77884866D01*
X63454340Y-77836485D01*
X63164054Y-77836485D01*
X63067292Y-77884866D01*
X63018911Y-77933247D01*
X62970530Y-78030009D01*
X62970530Y-78175152D01*
X63647864Y-77546200D02*
X63647864Y-77159152D01*
X63986530Y-77401057D02*
X63115673Y-77401057D01*
X63018911Y-77352676D01*
X62970530Y-77255914D01*
X62970530Y-77159152D01*
X63647864Y-76965628D02*
X63647864Y-76578580D01*
X63986530Y-76820485D02*
X63115673Y-76820485D01*
X63018911Y-76772104D01*
X62970530Y-76675342D01*
X62970530Y-76578580D01*
X62970530Y-76094771D02*
X63018911Y-76191533D01*
X63115673Y-76239914D01*
X63986530Y-76239914D01*
X63018911Y-75320676D02*
X62970530Y-75417438D01*
X62970530Y-75610961D01*
X63018911Y-75707723D01*
X63115673Y-75756104D01*
X63502721Y-75756104D01*
X63599483Y-75707723D01*
X63647864Y-75610961D01*
X63647864Y-75417438D01*
X63599483Y-75320676D01*
X63502721Y-75272295D01*
X63405959Y-75272295D01*
X63309197Y-75756104D01*
X63502721Y-73724104D02*
X63454340Y-73578961D01*
X63405959Y-73530580D01*
X63309197Y-73482200D01*
X63164054Y-73482200D01*
X63067292Y-73530580D01*
X63018911Y-73578961D01*
X62970530Y-73675723D01*
X62970530Y-74062771D01*
X63986530Y-74062771D01*
X63986530Y-73724104D01*
X63938150Y-73627342D01*
X63889769Y-73578961D01*
X63793007Y-73530580D01*
X63696245Y-73530580D01*
X63599483Y-73578961D01*
X63551102Y-73627342D01*
X63502721Y-73724104D01*
X63502721Y-74062771D01*
X62970530Y-72901628D02*
X63018911Y-72998390D01*
X63067292Y-73046771D01*
X63164054Y-73095152D01*
X63454340Y-73095152D01*
X63551102Y-73046771D01*
X63599483Y-72998390D01*
X63647864Y-72901628D01*
X63647864Y-72756485D01*
X63599483Y-72659723D01*
X63551102Y-72611342D01*
X63454340Y-72562961D01*
X63164054Y-72562961D01*
X63067292Y-72611342D01*
X63018911Y-72659723D01*
X62970530Y-72756485D01*
X62970530Y-72901628D01*
X62970530Y-71692104D02*
X63502721Y-71692104D01*
X63599483Y-71740485D01*
X63647864Y-71837247D01*
X63647864Y-72030771D01*
X63599483Y-72127533D01*
X63018911Y-71692104D02*
X62970530Y-71788866D01*
X62970530Y-72030771D01*
X63018911Y-72127533D01*
X63115673Y-72175914D01*
X63212435Y-72175914D01*
X63309197Y-72127533D01*
X63357578Y-72030771D01*
X63357578Y-71788866D01*
X63405959Y-71692104D01*
X62970530Y-71208295D02*
X63647864Y-71208295D01*
X63454340Y-71208295D02*
X63551102Y-71159914D01*
X63599483Y-71111533D01*
X63647864Y-71014771D01*
X63647864Y-70918009D01*
X62970530Y-70143914D02*
X63986530Y-70143914D01*
X63018911Y-70143914D02*
X62970530Y-70240676D01*
X62970530Y-70434200D01*
X63018911Y-70530961D01*
X63067292Y-70579342D01*
X63164054Y-70627723D01*
X63454340Y-70627723D01*
X63551102Y-70579342D01*
X63599483Y-70530961D01*
X63647864Y-70434200D01*
X63647864Y-70240676D01*
X63599483Y-70143914D01*
X61256030Y-76457628D02*
X61739840Y-76796295D01*
X61256030Y-77038200D02*
X62272030Y-77038200D01*
X62272030Y-76651152D01*
X62223650Y-76554390D01*
X62175269Y-76506009D01*
X62078507Y-76457628D01*
X61933364Y-76457628D01*
X61836602Y-76506009D01*
X61788221Y-76554390D01*
X61739840Y-76651152D01*
X61739840Y-77038200D01*
X61788221Y-76022200D02*
X61788221Y-75683533D01*
X61256030Y-75538390D02*
X61256030Y-76022200D01*
X62272030Y-76022200D01*
X62272030Y-75538390D01*
X62272030Y-75248104D02*
X61256030Y-74909438D01*
X62272030Y-74570771D01*
X62272030Y-72974200D02*
X62272030Y-73458009D01*
X61788221Y-73506390D01*
X61836602Y-73458009D01*
X61884983Y-73361247D01*
X61884983Y-73119342D01*
X61836602Y-73022580D01*
X61788221Y-72974200D01*
X61691459Y-72925819D01*
X61449554Y-72925819D01*
X61352792Y-72974200D01*
X61304411Y-73022580D01*
X61256030Y-73119342D01*
X61256030Y-73361247D01*
X61304411Y-73458009D01*
X61352792Y-73506390D01*
X59831816Y-80158771D02*
X59831816Y-79674961D01*
X59541530Y-80255533D02*
X60557530Y-79916866D01*
X59541530Y-79578200D01*
X59541530Y-79094390D02*
X59589911Y-79191152D01*
X59686673Y-79239533D01*
X60557530Y-79239533D01*
X59589911Y-78320295D02*
X59541530Y-78417057D01*
X59541530Y-78610580D01*
X59589911Y-78707342D01*
X59686673Y-78755723D01*
X60073721Y-78755723D01*
X60170483Y-78707342D01*
X60218864Y-78610580D01*
X60218864Y-78417057D01*
X60170483Y-78320295D01*
X60073721Y-78271914D01*
X59976959Y-78271914D01*
X59880197Y-78755723D01*
X59541530Y-77933247D02*
X60218864Y-77401057D01*
X60218864Y-77933247D02*
X59541530Y-77401057D01*
X60557530Y-76336676D02*
X59541530Y-76094771D01*
X60267245Y-75901247D01*
X59541530Y-75707723D01*
X60557530Y-75465819D01*
X59589911Y-74691723D02*
X59541530Y-74788485D01*
X59541530Y-74982009D01*
X59589911Y-75078771D01*
X59686673Y-75127152D01*
X60073721Y-75127152D01*
X60170483Y-75078771D01*
X60218864Y-74982009D01*
X60218864Y-74788485D01*
X60170483Y-74691723D01*
X60073721Y-74643342D01*
X59976959Y-74643342D01*
X59880197Y-75127152D01*
X60218864Y-74207914D02*
X59541530Y-74207914D01*
X60122102Y-74207914D02*
X60170483Y-74159533D01*
X60218864Y-74062771D01*
X60218864Y-73917628D01*
X60170483Y-73820866D01*
X60073721Y-73772485D01*
X59541530Y-73772485D01*
X59589911Y-73337057D02*
X59541530Y-73240295D01*
X59541530Y-73046771D01*
X59589911Y-72950009D01*
X59686673Y-72901628D01*
X59735054Y-72901628D01*
X59831816Y-72950009D01*
X59880197Y-73046771D01*
X59880197Y-73191914D01*
X59928578Y-73288676D01*
X60025340Y-73337057D01*
X60073721Y-73337057D01*
X60170483Y-73288676D01*
X60218864Y-73191914D01*
X60218864Y-73046771D01*
X60170483Y-72950009D01*
X60218864Y-72611342D02*
X60218864Y-72224295D01*
X60557530Y-72466200D02*
X59686673Y-72466200D01*
X59589911Y-72417819D01*
X59541530Y-72321057D01*
X59541530Y-72224295D01*
X59541530Y-71885628D02*
X60218864Y-71885628D01*
X60025340Y-71885628D02*
X60122102Y-71837247D01*
X60170483Y-71788866D01*
X60218864Y-71692104D01*
X60218864Y-71595342D01*
X60218864Y-70821247D02*
X59541530Y-70821247D01*
X60218864Y-71256676D02*
X59686673Y-71256676D01*
X59589911Y-71208295D01*
X59541530Y-71111533D01*
X59541530Y-70966390D01*
X59589911Y-70869628D01*
X59638292Y-70821247D01*
X60218864Y-70337438D02*
X59202864Y-70337438D01*
X60170483Y-70337438D02*
X60218864Y-70240676D01*
X60218864Y-70047152D01*
X60170483Y-69950390D01*
X60122102Y-69902009D01*
X60025340Y-69853628D01*
X59735054Y-69853628D01*
X59638292Y-69902009D01*
X59589911Y-69950390D01*
X59541530Y-70047152D01*
X59541530Y-70240676D01*
X59589911Y-70337438D01*
X58843030Y-79723342D02*
X58843030Y-79529819D01*
X58794650Y-79433057D01*
X58697888Y-79336295D01*
X58504364Y-79287914D01*
X58165697Y-79287914D01*
X57972173Y-79336295D01*
X57875411Y-79433057D01*
X57827030Y-79529819D01*
X57827030Y-79723342D01*
X57875411Y-79820104D01*
X57972173Y-79916866D01*
X58165697Y-79965247D01*
X58504364Y-79965247D01*
X58697888Y-79916866D01*
X58794650Y-79820104D01*
X58843030Y-79723342D01*
X57827030Y-78707342D02*
X57875411Y-78804104D01*
X57972173Y-78852485D01*
X58843030Y-78852485D01*
X57827030Y-78320295D02*
X58504364Y-78320295D01*
X58843030Y-78320295D02*
X58794650Y-78368676D01*
X58746269Y-78320295D01*
X58794650Y-78271914D01*
X58843030Y-78320295D01*
X58746269Y-78320295D01*
X58504364Y-77836485D02*
X57827030Y-77836485D01*
X58407602Y-77836485D02*
X58455983Y-77788104D01*
X58504364Y-77691342D01*
X58504364Y-77546200D01*
X58455983Y-77449438D01*
X58359221Y-77401057D01*
X57827030Y-77401057D01*
X58359221Y-76143152D02*
X58359221Y-75804485D01*
X57827030Y-75659342D02*
X57827030Y-76143152D01*
X58843030Y-76143152D01*
X58843030Y-75659342D01*
X57827030Y-75078771D02*
X57875411Y-75175533D01*
X57972173Y-75223914D01*
X58843030Y-75223914D01*
X57875411Y-74304676D02*
X57827030Y-74401438D01*
X57827030Y-74594961D01*
X57875411Y-74691723D01*
X57972173Y-74740104D01*
X58359221Y-74740104D01*
X58455983Y-74691723D01*
X58504364Y-74594961D01*
X58504364Y-74401438D01*
X58455983Y-74304676D01*
X58359221Y-74256295D01*
X58262459Y-74256295D01*
X58165697Y-74740104D01*
X57875411Y-73385438D02*
X57827030Y-73482200D01*
X57827030Y-73675723D01*
X57875411Y-73772485D01*
X57923792Y-73820866D01*
X58020554Y-73869247D01*
X58310840Y-73869247D01*
X58407602Y-73820866D01*
X58455983Y-73772485D01*
X58504364Y-73675723D01*
X58504364Y-73482200D01*
X58455983Y-73385438D01*
X58504364Y-73095152D02*
X58504364Y-72708104D01*
X58843030Y-72950009D02*
X57972173Y-72950009D01*
X57875411Y-72901628D01*
X57827030Y-72804866D01*
X57827030Y-72708104D01*
X57827030Y-72369438D02*
X58504364Y-72369438D01*
X58310840Y-72369438D02*
X58407602Y-72321057D01*
X58455983Y-72272676D01*
X58504364Y-72175914D01*
X58504364Y-72079152D01*
X57827030Y-71740485D02*
X58504364Y-71740485D01*
X58843030Y-71740485D02*
X58794650Y-71788866D01*
X58746269Y-71740485D01*
X58794650Y-71692104D01*
X58843030Y-71740485D01*
X58746269Y-71740485D01*
X57875411Y-70821247D02*
X57827030Y-70918009D01*
X57827030Y-71111533D01*
X57875411Y-71208295D01*
X57923792Y-71256676D01*
X58020554Y-71305057D01*
X58310840Y-71305057D01*
X58407602Y-71256676D01*
X58455983Y-71208295D01*
X58504364Y-71111533D01*
X58504364Y-70918009D01*
X58455983Y-70821247D01*
X56112530Y-79215342D02*
X57128530Y-79215342D01*
X56402816Y-78876676D01*
X57128530Y-78538009D01*
X56112530Y-78538009D01*
X56112530Y-77909057D02*
X56160911Y-78005819D01*
X56209292Y-78054200D01*
X56306054Y-78102580D01*
X56596340Y-78102580D01*
X56693102Y-78054200D01*
X56741483Y-78005819D01*
X56789864Y-77909057D01*
X56789864Y-77763914D01*
X56741483Y-77667152D01*
X56693102Y-77618771D01*
X56596340Y-77570390D01*
X56306054Y-77570390D01*
X56209292Y-77618771D01*
X56160911Y-77667152D01*
X56112530Y-77763914D01*
X56112530Y-77909057D01*
X56789864Y-77280104D02*
X56789864Y-76893057D01*
X57128530Y-77134961D02*
X56257673Y-77134961D01*
X56160911Y-77086580D01*
X56112530Y-76989819D01*
X56112530Y-76893057D01*
X56112530Y-76409247D02*
X56160911Y-76506009D01*
X56209292Y-76554390D01*
X56306054Y-76602771D01*
X56596340Y-76602771D01*
X56693102Y-76554390D01*
X56741483Y-76506009D01*
X56789864Y-76409247D01*
X56789864Y-76264104D01*
X56741483Y-76167342D01*
X56693102Y-76118961D01*
X56596340Y-76070580D01*
X56306054Y-76070580D01*
X56209292Y-76118961D01*
X56160911Y-76167342D01*
X56112530Y-76264104D01*
X56112530Y-76409247D01*
X56112530Y-75635152D02*
X56789864Y-75635152D01*
X56596340Y-75635152D02*
X56693102Y-75586771D01*
X56741483Y-75538390D01*
X56789864Y-75441628D01*
X56789864Y-75344866D01*
X56160911Y-75054580D02*
X56112530Y-74957819D01*
X56112530Y-74764295D01*
X56160911Y-74667533D01*
X56257673Y-74619152D01*
X56306054Y-74619152D01*
X56402816Y-74667533D01*
X56451197Y-74764295D01*
X56451197Y-74909438D01*
X56499578Y-75006200D01*
X56596340Y-75054580D01*
X56644721Y-75054580D01*
X56741483Y-75006200D01*
X56789864Y-74909438D01*
X56789864Y-74764295D01*
X56741483Y-74667533D01*
X56789864Y-74183723D02*
X55773864Y-74183723D01*
X56741483Y-74183723D02*
X56789864Y-74086961D01*
X56789864Y-73893438D01*
X56741483Y-73796676D01*
X56693102Y-73748295D01*
X56596340Y-73699914D01*
X56306054Y-73699914D01*
X56209292Y-73748295D01*
X56160911Y-73796676D01*
X56112530Y-73893438D01*
X56112530Y-74086961D01*
X56160911Y-74183723D01*
X56112530Y-73119342D02*
X56160911Y-73216104D01*
X56209292Y-73264485D01*
X56306054Y-73312866D01*
X56596340Y-73312866D01*
X56693102Y-73264485D01*
X56741483Y-73216104D01*
X56789864Y-73119342D01*
X56789864Y-72974200D01*
X56741483Y-72877438D01*
X56693102Y-72829057D01*
X56596340Y-72780676D01*
X56306054Y-72780676D01*
X56209292Y-72829057D01*
X56160911Y-72877438D01*
X56112530Y-72974200D01*
X56112530Y-73119342D01*
X56112530Y-72345247D02*
X56789864Y-72345247D01*
X56596340Y-72345247D02*
X56693102Y-72296866D01*
X56741483Y-72248485D01*
X56789864Y-72151723D01*
X56789864Y-72054961D01*
X56789864Y-71861438D02*
X56789864Y-71474390D01*
X57128530Y-71716295D02*
X56257673Y-71716295D01*
X56160911Y-71667914D01*
X56112530Y-71571152D01*
X56112530Y-71474390D01*
X56160911Y-71184104D02*
X56112530Y-71087342D01*
X56112530Y-70893819D01*
X56160911Y-70797057D01*
X56257673Y-70748676D01*
X56306054Y-70748676D01*
X56402816Y-70797057D01*
X56451197Y-70893819D01*
X56451197Y-71038961D01*
X56499578Y-71135723D01*
X56596340Y-71184104D01*
X56644721Y-71184104D01*
X56741483Y-71135723D01*
X56789864Y-71038961D01*
X56789864Y-70893819D01*
X56741483Y-70797057D01*
X54398030Y-76530200D02*
X55414030Y-76530200D01*
X54688316Y-76191533D01*
X55414030Y-75852866D01*
X54398030Y-75852866D01*
X54398030Y-75369057D02*
X55414030Y-75369057D01*
X54398030Y-74788485D02*
X54978602Y-75223914D01*
X55414030Y-74788485D02*
X54833459Y-75369057D01*
X54398030Y-74353057D02*
X55414030Y-74353057D01*
X55414030Y-74014390D02*
X54398030Y-73675723D01*
X55414030Y-73337057D01*
D11*
G04 #@! TO.C,J1*
X49384000Y-37863000D02*
X59074000Y-37863000D01*
X49384000Y-43163000D02*
X59074000Y-43163000D01*
X59074000Y-43163000D02*
X59074000Y-37863000D01*
X49384000Y-43163000D02*
X49384000Y-37863000D01*
G04 #@! TO.C,J2*
X71609000Y-76979000D02*
X101619000Y-76979000D01*
X71609000Y-82279000D02*
X101619000Y-82279000D01*
X101619000Y-82279000D02*
X101619000Y-76979000D01*
X71609000Y-82279000D02*
X71609000Y-76979000D01*
D12*
G04 #@! TO.C,G\002A\002A\002A*
G36*
X109224779Y-60967997D02*
X109220348Y-60808703D01*
X109213327Y-60679075D01*
X109212226Y-60664910D01*
X109147055Y-60069743D01*
X109048378Y-59482805D01*
X108915334Y-58900888D01*
X108747061Y-58320786D01*
X108542697Y-57739292D01*
X108301381Y-57153197D01*
X108220338Y-56973128D01*
X108115728Y-56753000D01*
X107995693Y-56513815D01*
X107865168Y-56264628D01*
X107729090Y-56014495D01*
X107592394Y-55772470D01*
X107460015Y-55547610D01*
X107336890Y-55348970D01*
X107324932Y-55330362D01*
X107218186Y-55164892D01*
X107101401Y-55164892D01*
X107052933Y-55164850D01*
X107018274Y-55168506D01*
X106994642Y-55181534D01*
X106979259Y-55209608D01*
X106969343Y-55258403D01*
X106962114Y-55333593D01*
X106954791Y-55440851D01*
X106952997Y-55467738D01*
X106949283Y-55516489D01*
X106942372Y-55600547D01*
X106932579Y-55716298D01*
X106920218Y-55860132D01*
X106905603Y-56028434D01*
X106889050Y-56217595D01*
X106870872Y-56424000D01*
X106851386Y-56644037D01*
X106830904Y-56874095D01*
X106816016Y-57040585D01*
X106780276Y-57442232D01*
X106748229Y-57808369D01*
X106719609Y-58142359D01*
X106694151Y-58447569D01*
X106671589Y-58727363D01*
X106651657Y-58985106D01*
X106634091Y-59224164D01*
X106618625Y-59447900D01*
X106604994Y-59659681D01*
X106592931Y-59862872D01*
X106591768Y-59883431D01*
X106585419Y-60017317D01*
X106579728Y-60178552D01*
X106574745Y-60361458D01*
X106570517Y-60560357D01*
X106567093Y-60769571D01*
X106564520Y-60983423D01*
X106562847Y-61196236D01*
X106562123Y-61402330D01*
X106562395Y-61596029D01*
X106563712Y-61771655D01*
X106566122Y-61923530D01*
X106569673Y-62045976D01*
X106572844Y-62110815D01*
X106638731Y-62856512D01*
X106743180Y-63596482D01*
X106885992Y-64329944D01*
X107066966Y-65056117D01*
X107285901Y-65774222D01*
X107542598Y-66483479D01*
X107836856Y-67183105D01*
X107921044Y-67366661D01*
X107959173Y-67446188D01*
X107985345Y-67494127D01*
X108002769Y-67514905D01*
X108014651Y-67512948D01*
X108020142Y-67503431D01*
X108030061Y-67472684D01*
X108047412Y-67410658D01*
X108070417Y-67324049D01*
X108097296Y-67219551D01*
X108126273Y-67103863D01*
X108126513Y-67102892D01*
X108150470Y-67006953D01*
X108182764Y-66879124D01*
X108221878Y-66725329D01*
X108266297Y-66551491D01*
X108314505Y-66363536D01*
X108364986Y-66167387D01*
X108416225Y-65968969D01*
X108448940Y-65842661D01*
X108561424Y-65404814D01*
X108662790Y-65001245D01*
X108753675Y-64628964D01*
X108834714Y-64284983D01*
X108906545Y-63966311D01*
X108969803Y-63669960D01*
X109025124Y-63392940D01*
X109073144Y-63132262D01*
X109114500Y-62884935D01*
X109149826Y-62647972D01*
X109179760Y-62418382D01*
X109182670Y-62394123D01*
X109194257Y-62272366D01*
X109204297Y-62119192D01*
X109212662Y-61942238D01*
X109219221Y-61749139D01*
X109223842Y-61547530D01*
X109226396Y-61345046D01*
X109226752Y-61149324D01*
X109224779Y-60967997D01*
X109224779Y-60967997D01*
G37*
X109224779Y-60967997D02*
X109220348Y-60808703D01*
X109213327Y-60679075D01*
X109212226Y-60664910D01*
X109147055Y-60069743D01*
X109048378Y-59482805D01*
X108915334Y-58900888D01*
X108747061Y-58320786D01*
X108542697Y-57739292D01*
X108301381Y-57153197D01*
X108220338Y-56973128D01*
X108115728Y-56753000D01*
X107995693Y-56513815D01*
X107865168Y-56264628D01*
X107729090Y-56014495D01*
X107592394Y-55772470D01*
X107460015Y-55547610D01*
X107336890Y-55348970D01*
X107324932Y-55330362D01*
X107218186Y-55164892D01*
X107101401Y-55164892D01*
X107052933Y-55164850D01*
X107018274Y-55168506D01*
X106994642Y-55181534D01*
X106979259Y-55209608D01*
X106969343Y-55258403D01*
X106962114Y-55333593D01*
X106954791Y-55440851D01*
X106952997Y-55467738D01*
X106949283Y-55516489D01*
X106942372Y-55600547D01*
X106932579Y-55716298D01*
X106920218Y-55860132D01*
X106905603Y-56028434D01*
X106889050Y-56217595D01*
X106870872Y-56424000D01*
X106851386Y-56644037D01*
X106830904Y-56874095D01*
X106816016Y-57040585D01*
X106780276Y-57442232D01*
X106748229Y-57808369D01*
X106719609Y-58142359D01*
X106694151Y-58447569D01*
X106671589Y-58727363D01*
X106651657Y-58985106D01*
X106634091Y-59224164D01*
X106618625Y-59447900D01*
X106604994Y-59659681D01*
X106592931Y-59862872D01*
X106591768Y-59883431D01*
X106585419Y-60017317D01*
X106579728Y-60178552D01*
X106574745Y-60361458D01*
X106570517Y-60560357D01*
X106567093Y-60769571D01*
X106564520Y-60983423D01*
X106562847Y-61196236D01*
X106562123Y-61402330D01*
X106562395Y-61596029D01*
X106563712Y-61771655D01*
X106566122Y-61923530D01*
X106569673Y-62045976D01*
X106572844Y-62110815D01*
X106638731Y-62856512D01*
X106743180Y-63596482D01*
X106885992Y-64329944D01*
X107066966Y-65056117D01*
X107285901Y-65774222D01*
X107542598Y-66483479D01*
X107836856Y-67183105D01*
X107921044Y-67366661D01*
X107959173Y-67446188D01*
X107985345Y-67494127D01*
X108002769Y-67514905D01*
X108014651Y-67512948D01*
X108020142Y-67503431D01*
X108030061Y-67472684D01*
X108047412Y-67410658D01*
X108070417Y-67324049D01*
X108097296Y-67219551D01*
X108126273Y-67103863D01*
X108126513Y-67102892D01*
X108150470Y-67006953D01*
X108182764Y-66879124D01*
X108221878Y-66725329D01*
X108266297Y-66551491D01*
X108314505Y-66363536D01*
X108364986Y-66167387D01*
X108416225Y-65968969D01*
X108448940Y-65842661D01*
X108561424Y-65404814D01*
X108662790Y-65001245D01*
X108753675Y-64628964D01*
X108834714Y-64284983D01*
X108906545Y-63966311D01*
X108969803Y-63669960D01*
X109025124Y-63392940D01*
X109073144Y-63132262D01*
X109114500Y-62884935D01*
X109149826Y-62647972D01*
X109179760Y-62418382D01*
X109182670Y-62394123D01*
X109194257Y-62272366D01*
X109204297Y-62119192D01*
X109212662Y-61942238D01*
X109219221Y-61749139D01*
X109223842Y-61547530D01*
X109226396Y-61345046D01*
X109226752Y-61149324D01*
X109224779Y-60967997D01*
G36*
X106454705Y-68701811D02*
X106434401Y-68370171D01*
X106404310Y-68036659D01*
X106365507Y-67709267D01*
X106319066Y-67395988D01*
X106266062Y-67104816D01*
X106207570Y-66843741D01*
X106201859Y-66821158D01*
X106180047Y-66742061D01*
X106151670Y-66648205D01*
X106118947Y-66545947D01*
X106084097Y-66441646D01*
X106049338Y-66341660D01*
X106016890Y-66252348D01*
X105988972Y-66180068D01*
X105967802Y-66131178D01*
X105955599Y-66112036D01*
X105954479Y-66112286D01*
X105953230Y-66133192D01*
X105954136Y-66187135D01*
X105956981Y-66268146D01*
X105961547Y-66370258D01*
X105967617Y-66487503D01*
X105969016Y-66512658D01*
X105979362Y-67042880D01*
X105950968Y-67572302D01*
X105884161Y-68099316D01*
X105779271Y-68622313D01*
X105636626Y-69139686D01*
X105456554Y-69649826D01*
X105239384Y-70151126D01*
X105216108Y-70199738D01*
X105134844Y-70365514D01*
X105056021Y-70520416D01*
X104977362Y-70667886D01*
X104896590Y-70811365D01*
X104811429Y-70954296D01*
X104719603Y-71100118D01*
X104618836Y-71252275D01*
X104506851Y-71414208D01*
X104381372Y-71589358D01*
X104240122Y-71781167D01*
X104080826Y-71993076D01*
X103901208Y-72228527D01*
X103710582Y-72475969D01*
X103460328Y-72801258D01*
X103204372Y-73136981D01*
X102944369Y-73480835D01*
X102681978Y-73830517D01*
X102418855Y-74183726D01*
X102156657Y-74538158D01*
X101897040Y-74891512D01*
X101641661Y-75241484D01*
X101392177Y-75585774D01*
X101150245Y-75922078D01*
X100917521Y-76248093D01*
X100695663Y-76561518D01*
X100486326Y-76860050D01*
X100291169Y-77141387D01*
X100111847Y-77403226D01*
X99950017Y-77643264D01*
X99807337Y-77859201D01*
X99685462Y-78048732D01*
X99592563Y-78198752D01*
X99318675Y-78685950D01*
X99083402Y-79176854D01*
X98886811Y-79671261D01*
X98728971Y-80168968D01*
X98609951Y-80669772D01*
X98529818Y-81173470D01*
X98503874Y-81432307D01*
X98494660Y-81562969D01*
X98488304Y-81686912D01*
X98484831Y-81798835D01*
X98484267Y-81893434D01*
X98486635Y-81965408D01*
X98491963Y-82009452D01*
X98500274Y-82020266D01*
X98501074Y-82019531D01*
X98514492Y-81998688D01*
X98544754Y-81947825D01*
X98589533Y-81870972D01*
X98646503Y-81772161D01*
X98713339Y-81655423D01*
X98787714Y-81524789D01*
X98852991Y-81409605D01*
X98976038Y-81192691D01*
X99083612Y-81004690D01*
X99178972Y-80840219D01*
X99265381Y-80693896D01*
X99346099Y-80560341D01*
X99424386Y-80434170D01*
X99503503Y-80310004D01*
X99586710Y-80182459D01*
X99677269Y-80046154D01*
X99696250Y-80017815D01*
X100135141Y-79395215D01*
X100606573Y-78787185D01*
X101058900Y-78252962D01*
X101174230Y-78125648D01*
X101313397Y-77977453D01*
X101471152Y-77813595D01*
X101642245Y-77639289D01*
X101821428Y-77459750D01*
X102003451Y-77280194D01*
X102183063Y-77105837D01*
X102355017Y-76941895D01*
X102514062Y-76793582D01*
X102654948Y-76666116D01*
X102664846Y-76657356D01*
X102833374Y-76505330D01*
X103013978Y-76336773D01*
X103200873Y-76157461D01*
X103388275Y-75973169D01*
X103570398Y-75789670D01*
X103741457Y-75612740D01*
X103895668Y-75448154D01*
X104027245Y-75301686D01*
X104054728Y-75269969D01*
X104298623Y-74975901D01*
X104538798Y-74666631D01*
X104769060Y-74350785D01*
X104983211Y-74036988D01*
X105175056Y-73733866D01*
X105254663Y-73599431D01*
X105535418Y-73075331D01*
X105779851Y-72537876D01*
X105987613Y-71988487D01*
X106158356Y-71428585D01*
X106291732Y-70859591D01*
X106387393Y-70282927D01*
X106444990Y-69700013D01*
X106464176Y-69112272D01*
X106454705Y-68701811D01*
X106454705Y-68701811D01*
G37*
X106454705Y-68701811D02*
X106434401Y-68370171D01*
X106404310Y-68036659D01*
X106365507Y-67709267D01*
X106319066Y-67395988D01*
X106266062Y-67104816D01*
X106207570Y-66843741D01*
X106201859Y-66821158D01*
X106180047Y-66742061D01*
X106151670Y-66648205D01*
X106118947Y-66545947D01*
X106084097Y-66441646D01*
X106049338Y-66341660D01*
X106016890Y-66252348D01*
X105988972Y-66180068D01*
X105967802Y-66131178D01*
X105955599Y-66112036D01*
X105954479Y-66112286D01*
X105953230Y-66133192D01*
X105954136Y-66187135D01*
X105956981Y-66268146D01*
X105961547Y-66370258D01*
X105967617Y-66487503D01*
X105969016Y-66512658D01*
X105979362Y-67042880D01*
X105950968Y-67572302D01*
X105884161Y-68099316D01*
X105779271Y-68622313D01*
X105636626Y-69139686D01*
X105456554Y-69649826D01*
X105239384Y-70151126D01*
X105216108Y-70199738D01*
X105134844Y-70365514D01*
X105056021Y-70520416D01*
X104977362Y-70667886D01*
X104896590Y-70811365D01*
X104811429Y-70954296D01*
X104719603Y-71100118D01*
X104618836Y-71252275D01*
X104506851Y-71414208D01*
X104381372Y-71589358D01*
X104240122Y-71781167D01*
X104080826Y-71993076D01*
X103901208Y-72228527D01*
X103710582Y-72475969D01*
X103460328Y-72801258D01*
X103204372Y-73136981D01*
X102944369Y-73480835D01*
X102681978Y-73830517D01*
X102418855Y-74183726D01*
X102156657Y-74538158D01*
X101897040Y-74891512D01*
X101641661Y-75241484D01*
X101392177Y-75585774D01*
X101150245Y-75922078D01*
X100917521Y-76248093D01*
X100695663Y-76561518D01*
X100486326Y-76860050D01*
X100291169Y-77141387D01*
X100111847Y-77403226D01*
X99950017Y-77643264D01*
X99807337Y-77859201D01*
X99685462Y-78048732D01*
X99592563Y-78198752D01*
X99318675Y-78685950D01*
X99083402Y-79176854D01*
X98886811Y-79671261D01*
X98728971Y-80168968D01*
X98609951Y-80669772D01*
X98529818Y-81173470D01*
X98503874Y-81432307D01*
X98494660Y-81562969D01*
X98488304Y-81686912D01*
X98484831Y-81798835D01*
X98484267Y-81893434D01*
X98486635Y-81965408D01*
X98491963Y-82009452D01*
X98500274Y-82020266D01*
X98501074Y-82019531D01*
X98514492Y-81998688D01*
X98544754Y-81947825D01*
X98589533Y-81870972D01*
X98646503Y-81772161D01*
X98713339Y-81655423D01*
X98787714Y-81524789D01*
X98852991Y-81409605D01*
X98976038Y-81192691D01*
X99083612Y-81004690D01*
X99178972Y-80840219D01*
X99265381Y-80693896D01*
X99346099Y-80560341D01*
X99424386Y-80434170D01*
X99503503Y-80310004D01*
X99586710Y-80182459D01*
X99677269Y-80046154D01*
X99696250Y-80017815D01*
X100135141Y-79395215D01*
X100606573Y-78787185D01*
X101058900Y-78252962D01*
X101174230Y-78125648D01*
X101313397Y-77977453D01*
X101471152Y-77813595D01*
X101642245Y-77639289D01*
X101821428Y-77459750D01*
X102003451Y-77280194D01*
X102183063Y-77105837D01*
X102355017Y-76941895D01*
X102514062Y-76793582D01*
X102654948Y-76666116D01*
X102664846Y-76657356D01*
X102833374Y-76505330D01*
X103013978Y-76336773D01*
X103200873Y-76157461D01*
X103388275Y-75973169D01*
X103570398Y-75789670D01*
X103741457Y-75612740D01*
X103895668Y-75448154D01*
X104027245Y-75301686D01*
X104054728Y-75269969D01*
X104298623Y-74975901D01*
X104538798Y-74666631D01*
X104769060Y-74350785D01*
X104983211Y-74036988D01*
X105175056Y-73733866D01*
X105254663Y-73599431D01*
X105535418Y-73075331D01*
X105779851Y-72537876D01*
X105987613Y-71988487D01*
X106158356Y-71428585D01*
X106291732Y-70859591D01*
X106387393Y-70282927D01*
X106444990Y-69700013D01*
X106464176Y-69112272D01*
X106454705Y-68701811D01*
G36*
X87535743Y-36703131D02*
X87520148Y-36694304D01*
X87487555Y-36688982D01*
X87420409Y-36684439D01*
X87323225Y-36680669D01*
X87200519Y-36677666D01*
X87056806Y-36675424D01*
X86896602Y-36673936D01*
X86724422Y-36673196D01*
X86544782Y-36673198D01*
X86362199Y-36673936D01*
X86181186Y-36675403D01*
X86006260Y-36677593D01*
X85841937Y-36680500D01*
X85692732Y-36684118D01*
X85563160Y-36688440D01*
X85457738Y-36693460D01*
X85402615Y-36697231D01*
X85094536Y-36724020D01*
X84794102Y-36753739D01*
X84498152Y-36786983D01*
X84203527Y-36824345D01*
X83907067Y-36866420D01*
X83605611Y-36913802D01*
X83295999Y-36967084D01*
X82975071Y-37026861D01*
X82639667Y-37093726D01*
X82286627Y-37168273D01*
X81912791Y-37251097D01*
X81514998Y-37342791D01*
X81090089Y-37443949D01*
X80634904Y-37555165D01*
X80146282Y-37677033D01*
X80019769Y-37708921D01*
X79759018Y-37774773D01*
X79533703Y-37831733D01*
X79341377Y-37880494D01*
X79179592Y-37921751D01*
X79045902Y-37956195D01*
X78937859Y-37984522D01*
X78853016Y-38007423D01*
X78788926Y-38025593D01*
X78743142Y-38039724D01*
X78713216Y-38050511D01*
X78696702Y-38058646D01*
X78691152Y-38064824D01*
X78694119Y-38069737D01*
X78703157Y-38074078D01*
X78715577Y-38078459D01*
X78737115Y-38084997D01*
X78793527Y-38101848D01*
X78882215Y-38128243D01*
X79000580Y-38163412D01*
X79146026Y-38206586D01*
X79315953Y-38256995D01*
X79507763Y-38313871D01*
X79718858Y-38376443D01*
X79946639Y-38443941D01*
X80188510Y-38515598D01*
X80441870Y-38590642D01*
X80704123Y-38668306D01*
X80972670Y-38747818D01*
X81244913Y-38828410D01*
X81518253Y-38909313D01*
X81790093Y-38989756D01*
X82057834Y-39068971D01*
X82318878Y-39146187D01*
X82570626Y-39220636D01*
X82810482Y-39291549D01*
X83035845Y-39358154D01*
X83244119Y-39419684D01*
X83370615Y-39457039D01*
X83588080Y-39520733D01*
X83772148Y-39573234D01*
X83926655Y-39615211D01*
X84055437Y-39647334D01*
X84162330Y-39670273D01*
X84251170Y-39684697D01*
X84325793Y-39691277D01*
X84390035Y-39690682D01*
X84447732Y-39683581D01*
X84502719Y-39670644D01*
X84535751Y-39660444D01*
X84628209Y-39613638D01*
X84731787Y-39531297D01*
X84845030Y-39414885D01*
X84966484Y-39265866D01*
X85068818Y-39123815D01*
X85149673Y-39007961D01*
X85228914Y-38898887D01*
X85309358Y-38793498D01*
X85393820Y-38688696D01*
X85485115Y-38581387D01*
X85586059Y-38468472D01*
X85699467Y-38346858D01*
X85828155Y-38213446D01*
X85974938Y-38065141D01*
X86142632Y-37898847D01*
X86334052Y-37711468D01*
X86497318Y-37552871D01*
X86641386Y-37413370D01*
X86760977Y-37298068D01*
X86859650Y-37203942D01*
X86940961Y-37127966D01*
X87008469Y-37067118D01*
X87065730Y-37018371D01*
X87116301Y-36978703D01*
X87163741Y-36945089D01*
X87211606Y-36914504D01*
X87263454Y-36883924D01*
X87322842Y-36850325D01*
X87325313Y-36848939D01*
X87419715Y-36795485D01*
X87483867Y-36757425D01*
X87521860Y-36731512D01*
X87537788Y-36714497D01*
X87535743Y-36703131D01*
X87535743Y-36703131D01*
G37*
X87535743Y-36703131D02*
X87520148Y-36694304D01*
X87487555Y-36688982D01*
X87420409Y-36684439D01*
X87323225Y-36680669D01*
X87200519Y-36677666D01*
X87056806Y-36675424D01*
X86896602Y-36673936D01*
X86724422Y-36673196D01*
X86544782Y-36673198D01*
X86362199Y-36673936D01*
X86181186Y-36675403D01*
X86006260Y-36677593D01*
X85841937Y-36680500D01*
X85692732Y-36684118D01*
X85563160Y-36688440D01*
X85457738Y-36693460D01*
X85402615Y-36697231D01*
X85094536Y-36724020D01*
X84794102Y-36753739D01*
X84498152Y-36786983D01*
X84203527Y-36824345D01*
X83907067Y-36866420D01*
X83605611Y-36913802D01*
X83295999Y-36967084D01*
X82975071Y-37026861D01*
X82639667Y-37093726D01*
X82286627Y-37168273D01*
X81912791Y-37251097D01*
X81514998Y-37342791D01*
X81090089Y-37443949D01*
X80634904Y-37555165D01*
X80146282Y-37677033D01*
X80019769Y-37708921D01*
X79759018Y-37774773D01*
X79533703Y-37831733D01*
X79341377Y-37880494D01*
X79179592Y-37921751D01*
X79045902Y-37956195D01*
X78937859Y-37984522D01*
X78853016Y-38007423D01*
X78788926Y-38025593D01*
X78743142Y-38039724D01*
X78713216Y-38050511D01*
X78696702Y-38058646D01*
X78691152Y-38064824D01*
X78694119Y-38069737D01*
X78703157Y-38074078D01*
X78715577Y-38078459D01*
X78737115Y-38084997D01*
X78793527Y-38101848D01*
X78882215Y-38128243D01*
X79000580Y-38163412D01*
X79146026Y-38206586D01*
X79315953Y-38256995D01*
X79507763Y-38313871D01*
X79718858Y-38376443D01*
X79946639Y-38443941D01*
X80188510Y-38515598D01*
X80441870Y-38590642D01*
X80704123Y-38668306D01*
X80972670Y-38747818D01*
X81244913Y-38828410D01*
X81518253Y-38909313D01*
X81790093Y-38989756D01*
X82057834Y-39068971D01*
X82318878Y-39146187D01*
X82570626Y-39220636D01*
X82810482Y-39291549D01*
X83035845Y-39358154D01*
X83244119Y-39419684D01*
X83370615Y-39457039D01*
X83588080Y-39520733D01*
X83772148Y-39573234D01*
X83926655Y-39615211D01*
X84055437Y-39647334D01*
X84162330Y-39670273D01*
X84251170Y-39684697D01*
X84325793Y-39691277D01*
X84390035Y-39690682D01*
X84447732Y-39683581D01*
X84502719Y-39670644D01*
X84535751Y-39660444D01*
X84628209Y-39613638D01*
X84731787Y-39531297D01*
X84845030Y-39414885D01*
X84966484Y-39265866D01*
X85068818Y-39123815D01*
X85149673Y-39007961D01*
X85228914Y-38898887D01*
X85309358Y-38793498D01*
X85393820Y-38688696D01*
X85485115Y-38581387D01*
X85586059Y-38468472D01*
X85699467Y-38346858D01*
X85828155Y-38213446D01*
X85974938Y-38065141D01*
X86142632Y-37898847D01*
X86334052Y-37711468D01*
X86497318Y-37552871D01*
X86641386Y-37413370D01*
X86760977Y-37298068D01*
X86859650Y-37203942D01*
X86940961Y-37127966D01*
X87008469Y-37067118D01*
X87065730Y-37018371D01*
X87116301Y-36978703D01*
X87163741Y-36945089D01*
X87211606Y-36914504D01*
X87263454Y-36883924D01*
X87322842Y-36850325D01*
X87325313Y-36848939D01*
X87419715Y-36795485D01*
X87483867Y-36757425D01*
X87521860Y-36731512D01*
X87537788Y-36714497D01*
X87535743Y-36703131D01*
G36*
X111433386Y-38326848D02*
X111429969Y-38119690D01*
X111424272Y-37937201D01*
X111419517Y-37838914D01*
X111373485Y-37220574D01*
X111305929Y-36589455D01*
X111218572Y-35958179D01*
X111113137Y-35339367D01*
X111007234Y-34817276D01*
X110928125Y-34493900D01*
X110839677Y-34205241D01*
X110740176Y-33947691D01*
X110627909Y-33717642D01*
X110501160Y-33511485D01*
X110358217Y-33325613D01*
X110236228Y-33194235D01*
X110042121Y-33022315D01*
X109828858Y-32874985D01*
X109594237Y-32751479D01*
X109336056Y-32651032D01*
X109052110Y-32572879D01*
X108740198Y-32516252D01*
X108398117Y-32480388D01*
X108145385Y-32467411D01*
X107774154Y-32455483D01*
X107930972Y-32619534D01*
X108071732Y-32775867D01*
X108186512Y-32925213D01*
X108283627Y-33079314D01*
X108359211Y-33224290D01*
X108434348Y-33397483D01*
X108486990Y-33562744D01*
X108520585Y-33734217D01*
X108538579Y-33926043D01*
X108540633Y-33968651D01*
X108541649Y-34168363D01*
X108526842Y-34365226D01*
X108494868Y-34564050D01*
X108444385Y-34769648D01*
X108374047Y-34986831D01*
X108282512Y-35220410D01*
X108168437Y-35475199D01*
X108055188Y-35707190D01*
X107796502Y-36185750D01*
X107518870Y-36630820D01*
X107221299Y-37043616D01*
X106902796Y-37425356D01*
X106562368Y-37777258D01*
X106199021Y-38100539D01*
X105933814Y-38308008D01*
X105554158Y-38566216D01*
X105147668Y-38798145D01*
X104717790Y-39002222D01*
X104267967Y-39176873D01*
X103801643Y-39320522D01*
X103614211Y-39368243D01*
X103321116Y-39433457D01*
X103034336Y-39486375D01*
X102746936Y-39527649D01*
X102451980Y-39557934D01*
X102142532Y-39577884D01*
X101811657Y-39588153D01*
X101452419Y-39589396D01*
X101290449Y-39587367D01*
X100740046Y-39567874D01*
X100201244Y-39527315D01*
X99665982Y-39464575D01*
X99126199Y-39378542D01*
X98573833Y-39268103D01*
X98007963Y-39133957D01*
X97923354Y-39112354D01*
X97842172Y-39091309D01*
X97762435Y-39070188D01*
X97682161Y-39048356D01*
X97599370Y-39025178D01*
X97512079Y-39000019D01*
X97418307Y-38972244D01*
X97316072Y-38941218D01*
X97203393Y-38906306D01*
X97078287Y-38866873D01*
X96938775Y-38822284D01*
X96782873Y-38771905D01*
X96608600Y-38715100D01*
X96413975Y-38651234D01*
X96197016Y-38579673D01*
X95955741Y-38499781D01*
X95688169Y-38410923D01*
X95392319Y-38312465D01*
X95066208Y-38203771D01*
X94707855Y-38084207D01*
X94315279Y-37953138D01*
X94136308Y-37893367D01*
X93738489Y-37760503D01*
X93375945Y-37639439D01*
X93046886Y-37529595D01*
X92749522Y-37430391D01*
X92482064Y-37341248D01*
X92242723Y-37261584D01*
X92029709Y-37190822D01*
X91841233Y-37128379D01*
X91675505Y-37073678D01*
X91530735Y-37026137D01*
X91405134Y-36985178D01*
X91296912Y-36950219D01*
X91204280Y-36920681D01*
X91125449Y-36895985D01*
X91058629Y-36875550D01*
X91002030Y-36858797D01*
X90953864Y-36845145D01*
X90912339Y-36834015D01*
X90875668Y-36824827D01*
X90842059Y-36817001D01*
X90809725Y-36809957D01*
X90776875Y-36803115D01*
X90763061Y-36800278D01*
X90478046Y-36753866D01*
X90182884Y-36728124D01*
X89888186Y-36723211D01*
X89604565Y-36739289D01*
X89342633Y-36776520D01*
X89332219Y-36778558D01*
X88981357Y-36867858D01*
X88637359Y-36995105D01*
X88301778Y-37159531D01*
X87976167Y-37360369D01*
X87662077Y-37596851D01*
X87639769Y-37615382D01*
X87428565Y-37804045D01*
X87205077Y-38026592D01*
X86971338Y-38280550D01*
X86729379Y-38563442D01*
X86481233Y-38872796D01*
X86228932Y-39206134D01*
X85974509Y-39560983D01*
X85719995Y-39934868D01*
X85658180Y-40028598D01*
X85547877Y-40188610D01*
X85447045Y-40315394D01*
X85351329Y-40412269D01*
X85256376Y-40482557D01*
X85157829Y-40529578D01*
X85051335Y-40556653D01*
X84952893Y-40566396D01*
X84891668Y-40567629D01*
X84831425Y-40564904D01*
X84764773Y-40557068D01*
X84684320Y-40542970D01*
X84582674Y-40521456D01*
X84452443Y-40491375D01*
X84415585Y-40482627D01*
X84314830Y-40458872D01*
X84182088Y-40427953D01*
X84023493Y-40391279D01*
X83845184Y-40350260D01*
X83653296Y-40306306D01*
X83453966Y-40260826D01*
X83253330Y-40215230D01*
X83136154Y-40188693D01*
X82776816Y-40107222D01*
X82452233Y-40033164D01*
X82158963Y-39965687D01*
X81893564Y-39903956D01*
X81652595Y-39847138D01*
X81432614Y-39794399D01*
X81230180Y-39744906D01*
X81041850Y-39697825D01*
X80864182Y-39652323D01*
X80693736Y-39607565D01*
X80527069Y-39562718D01*
X80360739Y-39516949D01*
X80346773Y-39513063D01*
X79933799Y-39405114D01*
X79544594Y-39318641D01*
X79171020Y-39252564D01*
X78804936Y-39205807D01*
X78438201Y-39177289D01*
X78062676Y-39165934D01*
X77746529Y-39168574D01*
X77487606Y-39177234D01*
X77254059Y-39190847D01*
X77032362Y-39210666D01*
X76808992Y-39237940D01*
X76570421Y-39273923D01*
X76522385Y-39281826D01*
X76098188Y-39364551D01*
X75652104Y-39474490D01*
X75188466Y-39609883D01*
X74711606Y-39768973D01*
X74225859Y-39949998D01*
X73735559Y-40151201D01*
X73245038Y-40370822D01*
X72758631Y-40607102D01*
X72280671Y-40858282D01*
X71815491Y-41122602D01*
X71471692Y-41332119D01*
X71369367Y-41397379D01*
X71250836Y-41474539D01*
X71120702Y-41560461D01*
X70983569Y-41652005D01*
X70844039Y-41746033D01*
X70706717Y-41839406D01*
X70576206Y-41928985D01*
X70457108Y-42011632D01*
X70354027Y-42084207D01*
X70271566Y-42143572D01*
X70214328Y-42186587D01*
X70193551Y-42203648D01*
X70189313Y-42215553D01*
X70213138Y-42220454D01*
X70267930Y-42218315D01*
X70356595Y-42209099D01*
X70422785Y-42200746D01*
X70848068Y-42154673D01*
X71301857Y-42123835D01*
X71776654Y-42108273D01*
X72264964Y-42108028D01*
X72759288Y-42123144D01*
X73252130Y-42153661D01*
X73581846Y-42183155D01*
X73846627Y-42211564D01*
X74109781Y-42243263D01*
X74373840Y-42278793D01*
X74641333Y-42318692D01*
X74914790Y-42363499D01*
X75196743Y-42413754D01*
X75489721Y-42469995D01*
X75796255Y-42532761D01*
X76118876Y-42602592D01*
X76460113Y-42680026D01*
X76822497Y-42765602D01*
X77208558Y-42859860D01*
X77620827Y-42963338D01*
X78061833Y-43076575D01*
X78534109Y-43200111D01*
X79040183Y-43334484D01*
X79248000Y-43390142D01*
X79535525Y-43467315D01*
X79787493Y-43534961D01*
X80006085Y-43593691D01*
X80193483Y-43644118D01*
X80351869Y-43686853D01*
X80483423Y-43722510D01*
X80590327Y-43751700D01*
X80674763Y-43775036D01*
X80738912Y-43793130D01*
X80784955Y-43806594D01*
X80815074Y-43816041D01*
X80831450Y-43822082D01*
X80836265Y-43825330D01*
X80831699Y-43826398D01*
X80819936Y-43825896D01*
X80803155Y-43824439D01*
X80791539Y-43823356D01*
X80723986Y-43817578D01*
X80634968Y-43810541D01*
X80542006Y-43803623D01*
X80527769Y-43802607D01*
X80420855Y-43794357D01*
X80277751Y-43782242D01*
X80101128Y-43766531D01*
X79893653Y-43747492D01*
X79657996Y-43725394D01*
X79396826Y-43700505D01*
X79112812Y-43673095D01*
X78808622Y-43643430D01*
X78486925Y-43611781D01*
X78150390Y-43578416D01*
X77801687Y-43543602D01*
X77443483Y-43507610D01*
X77078449Y-43470707D01*
X76709252Y-43433161D01*
X76338562Y-43395242D01*
X75969047Y-43357218D01*
X75603376Y-43319358D01*
X75244219Y-43281929D01*
X74894244Y-43245202D01*
X74556119Y-43209443D01*
X74232515Y-43174922D01*
X73926100Y-43141908D01*
X73639542Y-43110669D01*
X73513462Y-43096784D01*
X72507231Y-42985581D01*
X71882000Y-42984271D01*
X71682080Y-42984400D01*
X71514890Y-42985861D01*
X71374098Y-42988890D01*
X71253373Y-42993723D01*
X71146383Y-43000598D01*
X71046797Y-43009750D01*
X70973462Y-43018213D01*
X70448555Y-43098737D01*
X69939458Y-43208310D01*
X69442715Y-43348261D01*
X68954874Y-43519918D01*
X68472482Y-43724610D01*
X67992085Y-43963667D01*
X67510231Y-44238416D01*
X67065769Y-44521777D01*
X66586897Y-44849858D01*
X66113345Y-45190546D01*
X65636325Y-45550327D01*
X65147051Y-45935686D01*
X65111883Y-45963974D01*
X64968536Y-46080073D01*
X64854801Y-46173696D01*
X64769260Y-46246119D01*
X64710495Y-46298620D01*
X64677090Y-46332475D01*
X64667626Y-46348961D01*
X64680687Y-46349355D01*
X64686073Y-46347544D01*
X64714911Y-46337793D01*
X64774213Y-46318279D01*
X64857244Y-46291201D01*
X64957267Y-46258756D01*
X65049204Y-46229055D01*
X65607501Y-46066748D01*
X66175171Y-45937315D01*
X66757246Y-45839788D01*
X67358755Y-45773196D01*
X67455940Y-45765438D01*
X67608933Y-45756842D01*
X67793309Y-45751375D01*
X68001515Y-45748892D01*
X68225994Y-45749251D01*
X68459190Y-45752307D01*
X68693550Y-45757915D01*
X68921516Y-45765932D01*
X69135535Y-45776212D01*
X69328050Y-45788613D01*
X69491506Y-45802990D01*
X69506214Y-45804559D01*
X70234824Y-45900045D01*
X70981453Y-46030094D01*
X71746163Y-46194717D01*
X72145769Y-46292659D01*
X72327355Y-46339076D01*
X72473565Y-46376794D01*
X72586933Y-46406589D01*
X72669994Y-46429239D01*
X72725283Y-46445519D01*
X72755334Y-46456207D01*
X72762682Y-46462080D01*
X72749862Y-46463913D01*
X72719407Y-46462484D01*
X72692846Y-46460306D01*
X72314817Y-46429728D01*
X71928200Y-46403993D01*
X71538864Y-46383258D01*
X71152675Y-46367682D01*
X70775502Y-46357422D01*
X70413211Y-46352637D01*
X70071670Y-46353484D01*
X69756746Y-46360122D01*
X69474307Y-46372708D01*
X69463360Y-46373362D01*
X68856888Y-46423491D01*
X68278254Y-46499341D01*
X67725225Y-46601680D01*
X67195567Y-46731273D01*
X66687048Y-46888889D01*
X66197433Y-47075293D01*
X65724490Y-47291253D01*
X65265986Y-47537536D01*
X64819686Y-47814908D01*
X64398769Y-48112555D01*
X64225551Y-48247524D01*
X64030907Y-48408139D01*
X63818965Y-48590480D01*
X63593850Y-48790628D01*
X63359688Y-49004662D01*
X63120606Y-49228663D01*
X62880731Y-49458711D01*
X62644187Y-49690887D01*
X62415101Y-49921270D01*
X62197601Y-50145940D01*
X61995810Y-50360978D01*
X61813857Y-50562465D01*
X61783591Y-50596921D01*
X61354841Y-51107722D01*
X60964020Y-51616459D01*
X60610184Y-52125017D01*
X60292386Y-52635281D01*
X60009679Y-53149136D01*
X59761117Y-53668469D01*
X59545754Y-54195165D01*
X59362643Y-54731110D01*
X59210838Y-55278188D01*
X59089394Y-55838285D01*
X59054410Y-56034627D01*
X59028225Y-56195281D01*
X59010088Y-56319277D01*
X58999856Y-56408165D01*
X58997383Y-56463494D01*
X59002526Y-56486814D01*
X59012659Y-56482761D01*
X59028015Y-56460220D01*
X59059482Y-56410483D01*
X59103119Y-56339894D01*
X59154987Y-56254799D01*
X59181928Y-56210200D01*
X59508518Y-55689777D01*
X59856603Y-55176067D01*
X60219671Y-54678145D01*
X60591209Y-54205086D01*
X60801319Y-53953508D01*
X60883950Y-53860316D01*
X60989161Y-53747037D01*
X61111846Y-53618737D01*
X61246902Y-53480483D01*
X61389225Y-53337339D01*
X61533709Y-53194372D01*
X61675252Y-53056648D01*
X61808749Y-52929233D01*
X61929096Y-52817193D01*
X62031188Y-52725593D01*
X62083462Y-52680970D01*
X62571625Y-52298101D01*
X63067871Y-51953025D01*
X63573963Y-51644974D01*
X64091662Y-51373178D01*
X64622730Y-51136870D01*
X65168930Y-50935280D01*
X65732022Y-50767639D01*
X66313769Y-50633180D01*
X66915933Y-50531132D01*
X67052398Y-50512817D01*
X67158675Y-50499736D01*
X67251605Y-50489288D01*
X67324156Y-50482185D01*
X67369295Y-50479140D01*
X67380365Y-50479578D01*
X67373258Y-50489456D01*
X67337233Y-50509858D01*
X67279630Y-50536733D01*
X67266737Y-50542285D01*
X67210018Y-50567536D01*
X67125423Y-50606670D01*
X67020127Y-50656297D01*
X66901305Y-50713024D01*
X66776131Y-50773461D01*
X66723846Y-50798912D01*
X66115901Y-51116127D01*
X65535773Y-51460766D01*
X64983576Y-51832698D01*
X64459422Y-52231790D01*
X63963423Y-52657910D01*
X63495691Y-53110924D01*
X63056339Y-53590701D01*
X62645480Y-54097108D01*
X62263225Y-54630012D01*
X61909688Y-55189282D01*
X61584980Y-55774784D01*
X61289215Y-56386386D01*
X61022503Y-57023955D01*
X60784959Y-57687360D01*
X60727176Y-57866639D01*
X60510224Y-58613580D01*
X60330023Y-59361812D01*
X60185567Y-60116488D01*
X60075850Y-60882763D01*
X60009386Y-61544200D01*
X60001670Y-61666338D01*
X59995467Y-61820645D01*
X59990777Y-62000245D01*
X59987598Y-62198259D01*
X59985932Y-62407810D01*
X59985777Y-62622019D01*
X59987134Y-62834010D01*
X59990001Y-63036904D01*
X59994379Y-63223824D01*
X60000268Y-63387891D01*
X60007666Y-63522229D01*
X60009480Y-63546892D01*
X60023305Y-63709444D01*
X60040266Y-63884240D01*
X60059742Y-64066711D01*
X60081114Y-64252291D01*
X60103760Y-64436410D01*
X60127061Y-64614502D01*
X60150396Y-64781999D01*
X60173146Y-64934332D01*
X60194690Y-65066934D01*
X60214407Y-65175238D01*
X60231679Y-65254675D01*
X60245884Y-65300677D01*
X60248238Y-65305354D01*
X60262473Y-65320150D01*
X60265791Y-65311331D01*
X60269661Y-65275889D01*
X60279737Y-65207659D01*
X60295031Y-65112262D01*
X60314553Y-64995318D01*
X60337316Y-64862447D01*
X60362331Y-64719271D01*
X60388608Y-64571410D01*
X60415160Y-64424485D01*
X60440997Y-64284116D01*
X60465131Y-64155925D01*
X60486573Y-64045531D01*
X60500706Y-63975817D01*
X60669249Y-63237873D01*
X60861940Y-62525663D01*
X61078389Y-61839728D01*
X61318210Y-61180610D01*
X61581013Y-60548849D01*
X61866408Y-59944986D01*
X62174008Y-59369563D01*
X62503425Y-58823121D01*
X62854268Y-58306200D01*
X63226150Y-57819343D01*
X63618682Y-57363090D01*
X64031475Y-56937983D01*
X64464140Y-56544561D01*
X64916289Y-56183368D01*
X65387534Y-55854943D01*
X65877485Y-55559828D01*
X66385754Y-55298563D01*
X66889923Y-55080352D01*
X67414335Y-54892808D01*
X67951181Y-54739604D01*
X68502874Y-54620218D01*
X69071827Y-54534128D01*
X69654615Y-54481174D01*
X69779973Y-54474089D01*
X69903827Y-54468429D01*
X70020130Y-54464326D01*
X70122830Y-54461914D01*
X70205881Y-54461327D01*
X70263233Y-54462699D01*
X70288837Y-54466164D01*
X70289615Y-54467125D01*
X70283736Y-54486590D01*
X70267505Y-54536676D01*
X70243031Y-54610964D01*
X70212423Y-54703039D01*
X70192148Y-54763683D01*
X70159324Y-54863356D01*
X70132122Y-54949227D01*
X70112497Y-55014856D01*
X70102403Y-55053800D01*
X70101727Y-55061671D01*
X70121731Y-55058325D01*
X70171970Y-55044356D01*
X70245705Y-55021785D01*
X70336196Y-54992632D01*
X70376114Y-54979401D01*
X70737264Y-54869908D01*
X71125280Y-54772885D01*
X71529301Y-54690635D01*
X71938463Y-54625458D01*
X72194615Y-54594131D01*
X72304708Y-54585249D01*
X72447547Y-54578248D01*
X72616847Y-54573097D01*
X72806327Y-54569762D01*
X73009700Y-54568214D01*
X73220684Y-54568419D01*
X73432995Y-54570347D01*
X73640349Y-54573964D01*
X73836461Y-54579241D01*
X74015048Y-54586144D01*
X74169826Y-54594642D01*
X74294512Y-54604703D01*
X74295000Y-54604753D01*
X74481525Y-54624250D01*
X74664065Y-54644818D01*
X74846269Y-54667032D01*
X75031782Y-54691464D01*
X75224252Y-54718690D01*
X75427326Y-54749282D01*
X75644651Y-54783813D01*
X75879874Y-54822859D01*
X76136642Y-54866993D01*
X76418602Y-54916788D01*
X76729401Y-54972817D01*
X77072686Y-55035656D01*
X77294154Y-55076567D01*
X77602601Y-55133963D01*
X77899426Y-55189762D01*
X78188302Y-55244708D01*
X78472904Y-55299547D01*
X78756905Y-55355024D01*
X79043978Y-55411884D01*
X79337798Y-55470871D01*
X79642039Y-55532730D01*
X79960373Y-55598207D01*
X80296476Y-55668045D01*
X80654020Y-55742991D01*
X81036679Y-55823788D01*
X81448128Y-55911182D01*
X81892040Y-56005918D01*
X82149462Y-56061015D01*
X82512908Y-56138853D01*
X82840284Y-56208907D01*
X83133724Y-56271616D01*
X83395359Y-56327417D01*
X83627323Y-56376748D01*
X83831749Y-56420048D01*
X84010768Y-56457754D01*
X84166514Y-56490304D01*
X84301119Y-56518135D01*
X84416717Y-56541687D01*
X84515439Y-56561396D01*
X84567179Y-56571441D01*
X84567179Y-55313402D01*
X84200810Y-55313109D01*
X83819820Y-55303491D01*
X83428862Y-55284599D01*
X83032590Y-55256481D01*
X82635657Y-55219188D01*
X82325308Y-55183352D01*
X81781003Y-55105642D01*
X81214203Y-55006603D01*
X80633948Y-54887981D01*
X80049279Y-54751523D01*
X79912308Y-54717079D01*
X79767383Y-54679989D01*
X79633394Y-54645292D01*
X79507395Y-54612058D01*
X79386437Y-54579360D01*
X79267575Y-54546270D01*
X79147860Y-54511860D01*
X79024346Y-54475202D01*
X78894086Y-54435368D01*
X78754133Y-54391430D01*
X78601540Y-54342460D01*
X78433359Y-54287530D01*
X78246645Y-54225712D01*
X78038449Y-54156078D01*
X77805825Y-54077700D01*
X77545825Y-53989650D01*
X77255503Y-53890999D01*
X76931912Y-53780821D01*
X76844769Y-53751127D01*
X76509163Y-53639766D01*
X76202073Y-53544501D01*
X75917178Y-53463727D01*
X75648156Y-53395839D01*
X75388687Y-53339229D01*
X75132449Y-53292293D01*
X74900692Y-53257174D01*
X74807631Y-53247270D01*
X74686648Y-53238744D01*
X74544934Y-53231709D01*
X74389680Y-53226277D01*
X74228079Y-53222562D01*
X74067321Y-53220675D01*
X73914599Y-53220729D01*
X73777102Y-53222837D01*
X73662024Y-53227111D01*
X73576555Y-53233664D01*
X73557423Y-53236142D01*
X73500442Y-53243049D01*
X73463197Y-53244482D01*
X73454846Y-53241996D01*
X73469688Y-53227736D01*
X73510759Y-53194293D01*
X73572883Y-53145729D01*
X73650880Y-53086111D01*
X73713731Y-53038795D01*
X74051258Y-52801757D01*
X74390083Y-52596098D01*
X74736354Y-52419118D01*
X75096220Y-52268117D01*
X75475832Y-52140394D01*
X75881337Y-52033249D01*
X76121846Y-51981265D01*
X76326419Y-51943580D01*
X76551153Y-51907972D01*
X76781800Y-51876383D01*
X77004111Y-51850754D01*
X77203837Y-51833028D01*
X77216000Y-51832174D01*
X77300438Y-51825493D01*
X77370399Y-51818332D01*
X77416587Y-51811734D01*
X77429375Y-51808288D01*
X77414839Y-51801337D01*
X77366127Y-51785536D01*
X77286872Y-51761914D01*
X77180708Y-51731499D01*
X77051266Y-51695319D01*
X76902179Y-51654401D01*
X76737079Y-51609775D01*
X76579452Y-51567727D01*
X76388281Y-51517031D01*
X76197416Y-51466398D01*
X76012568Y-51417344D01*
X75839447Y-51371387D01*
X75683766Y-51330042D01*
X75551236Y-51294826D01*
X75447568Y-51267255D01*
X75404235Y-51255715D01*
X75096931Y-51173822D01*
X75159343Y-51093396D01*
X75192462Y-51054707D01*
X75247980Y-50994281D01*
X75320477Y-50917825D01*
X75404535Y-50831046D01*
X75494734Y-50739650D01*
X75505724Y-50728633D01*
X75797680Y-50455987D01*
X76093391Y-50219905D01*
X76396778Y-50017872D01*
X76711766Y-49847374D01*
X77042278Y-49705898D01*
X77176923Y-49657812D01*
X77417734Y-49583786D01*
X77656265Y-49526537D01*
X77900220Y-49485050D01*
X78157304Y-49458314D01*
X78435221Y-49445313D01*
X78741676Y-49445036D01*
X78787528Y-49445960D01*
X79073781Y-49456848D01*
X79347105Y-49477076D01*
X79616636Y-49507939D01*
X79891510Y-49550730D01*
X80180864Y-49606743D01*
X80493835Y-49677271D01*
X80596053Y-49702032D01*
X80693497Y-49725543D01*
X80776368Y-49744713D01*
X80837815Y-49758023D01*
X80870984Y-49763951D01*
X80874807Y-49763906D01*
X80864975Y-49747348D01*
X80834781Y-49701612D01*
X80786201Y-49629585D01*
X80721209Y-49534153D01*
X80641781Y-49418201D01*
X80549893Y-49284615D01*
X80447520Y-49136281D01*
X80336637Y-48976086D01*
X80254562Y-48857785D01*
X80138697Y-48690757D01*
X80029791Y-48533402D01*
X79929841Y-48388631D01*
X79840844Y-48259353D01*
X79764795Y-48148478D01*
X79703693Y-48058915D01*
X79659534Y-47993573D01*
X79634315Y-47955362D01*
X79629000Y-47946321D01*
X79647405Y-47939458D01*
X79698422Y-47936004D01*
X79775752Y-47935764D01*
X79873097Y-47938542D01*
X79984157Y-47944142D01*
X80102634Y-47952368D01*
X80222230Y-47963024D01*
X80246840Y-47965546D01*
X80704865Y-48029153D01*
X81136139Y-48121033D01*
X81541032Y-48241331D01*
X81919918Y-48390191D01*
X82273168Y-48567754D01*
X82601153Y-48774165D01*
X82862615Y-48974291D01*
X83145459Y-49233895D01*
X83410011Y-49523505D01*
X83650319Y-49836048D01*
X83851250Y-50148653D01*
X83912487Y-50253502D01*
X83976864Y-50363651D01*
X84036845Y-50466209D01*
X84084891Y-50548284D01*
X84086048Y-50550258D01*
X84267441Y-50826750D01*
X84467692Y-51069697D01*
X84686145Y-51278701D01*
X84922144Y-51453368D01*
X85175032Y-51593301D01*
X85444154Y-51698103D01*
X85728853Y-51767379D01*
X86028474Y-51800732D01*
X86162290Y-51803930D01*
X86234616Y-51803579D01*
X86299979Y-51802449D01*
X86363865Y-51800085D01*
X86431756Y-51796029D01*
X86509138Y-51789826D01*
X86601496Y-51781019D01*
X86714315Y-51769152D01*
X86853078Y-51753770D01*
X87023270Y-51734414D01*
X87090298Y-51726730D01*
X87149933Y-51720170D01*
X87149933Y-49078661D01*
X87161321Y-48894898D01*
X87185540Y-48655117D01*
X87228597Y-48393963D01*
X87287976Y-48122788D01*
X87361162Y-47852947D01*
X87445640Y-47595793D01*
X87454519Y-47571466D01*
X87506550Y-47441094D01*
X87574163Y-47287758D01*
X87652314Y-47121684D01*
X87735960Y-46953096D01*
X87820057Y-46792223D01*
X87899561Y-46649288D01*
X87954280Y-46558200D01*
X88199255Y-46193546D01*
X88467176Y-45843423D01*
X88718133Y-45550168D01*
X88773727Y-45487079D01*
X88817916Y-45434856D01*
X88845150Y-45400181D01*
X88851154Y-45389970D01*
X88837033Y-45371978D01*
X88801494Y-45340669D01*
X88783335Y-45326384D01*
X88715517Y-45274656D01*
X87850374Y-45888722D01*
X87686648Y-46004871D01*
X87532050Y-46114426D01*
X87389596Y-46215258D01*
X87262303Y-46305238D01*
X87153188Y-46382235D01*
X87065266Y-46444120D01*
X87001556Y-46488764D01*
X86965072Y-46514036D01*
X86957789Y-46518859D01*
X86944001Y-46525760D01*
X86940457Y-46522048D01*
X86949790Y-46502781D01*
X86974634Y-46463016D01*
X87017624Y-46397811D01*
X87040946Y-46362815D01*
X87270288Y-46044503D01*
X87532661Y-45725759D01*
X87822499Y-45412267D01*
X88134238Y-45109712D01*
X88462313Y-44823780D01*
X88801159Y-44560154D01*
X88816497Y-44548960D01*
X89181647Y-44299829D01*
X89560052Y-44075373D01*
X89896462Y-43900750D01*
X90097465Y-43804627D01*
X90274041Y-43725437D01*
X90435110Y-43659752D01*
X90589594Y-43604139D01*
X90746415Y-43555167D01*
X90913189Y-43509740D01*
X91104080Y-43464251D01*
X91272726Y-43432749D01*
X91432738Y-43413681D01*
X91597726Y-43405496D01*
X91781299Y-43406641D01*
X91809729Y-43407472D01*
X91933784Y-43412319D01*
X92028967Y-43418822D01*
X92105485Y-43428368D01*
X92173542Y-43442345D01*
X92243343Y-43462141D01*
X92266717Y-43469607D01*
X92338509Y-43494889D01*
X92392578Y-43517634D01*
X92420839Y-43534267D01*
X92423025Y-43538708D01*
X92411120Y-43557132D01*
X92378608Y-43605166D01*
X92327074Y-43680522D01*
X92258108Y-43780912D01*
X92173296Y-43904047D01*
X92074226Y-44047639D01*
X91962485Y-44209399D01*
X91839662Y-44387040D01*
X91707344Y-44578273D01*
X91567118Y-44780810D01*
X91420573Y-44992362D01*
X91269295Y-45210642D01*
X91114872Y-45433360D01*
X90958892Y-45658229D01*
X90802943Y-45882960D01*
X90648612Y-46105265D01*
X90497487Y-46322856D01*
X90351154Y-46533444D01*
X90211203Y-46734742D01*
X90079220Y-46924460D01*
X89956793Y-47100310D01*
X89845510Y-47260005D01*
X89746958Y-47401255D01*
X89662726Y-47521773D01*
X89594399Y-47619271D01*
X89543567Y-47691459D01*
X89511816Y-47736050D01*
X89500741Y-47750767D01*
X89506377Y-47732194D01*
X89524289Y-47679933D01*
X89553393Y-47597018D01*
X89592605Y-47486482D01*
X89640841Y-47351359D01*
X89697016Y-47194683D01*
X89760048Y-47019488D01*
X89828850Y-46828807D01*
X89902339Y-46625674D01*
X89936918Y-46530271D01*
X90012135Y-46322362D01*
X90083039Y-46125397D01*
X90148556Y-45942425D01*
X90207610Y-45776497D01*
X90259127Y-45630659D01*
X90302031Y-45507961D01*
X90335248Y-45411451D01*
X90357704Y-45344179D01*
X90368323Y-45309193D01*
X90368952Y-45304793D01*
X90351373Y-45313468D01*
X90308000Y-45343803D01*
X90243063Y-45392444D01*
X90160790Y-45456037D01*
X90065411Y-45531230D01*
X89961152Y-45614667D01*
X89852245Y-45702996D01*
X89742916Y-45792863D01*
X89637396Y-45880914D01*
X89563437Y-45943624D01*
X89458808Y-46035887D01*
X89335243Y-46149451D01*
X89198981Y-46278191D01*
X89056264Y-46415979D01*
X88913332Y-46556690D01*
X88776425Y-46694196D01*
X88651785Y-46822370D01*
X88545652Y-46935086D01*
X88484618Y-47002753D01*
X88127364Y-47437123D01*
X87804280Y-47887876D01*
X87516344Y-48353519D01*
X87264535Y-48832562D01*
X87213024Y-48941892D01*
X87149933Y-49078661D01*
X87149933Y-51720170D01*
X87204297Y-51714188D01*
X87304405Y-51704210D01*
X87384372Y-51697334D01*
X87437948Y-51694098D01*
X87458842Y-51694990D01*
X87452376Y-51714378D01*
X87422378Y-51754904D01*
X87373943Y-51811110D01*
X87312169Y-51877538D01*
X87242153Y-51948729D01*
X87168990Y-52019224D01*
X87097777Y-52083567D01*
X87088700Y-52091391D01*
X86799965Y-52313996D01*
X86492037Y-52503222D01*
X86161942Y-52660863D01*
X86106000Y-52683620D01*
X85982351Y-52728382D01*
X85834393Y-52775141D01*
X85675721Y-52820132D01*
X85519931Y-52859591D01*
X85380619Y-52889755D01*
X85326981Y-52899285D01*
X85255514Y-52912111D01*
X85214655Y-52923718D01*
X85205896Y-52935555D01*
X85230730Y-52949070D01*
X85290647Y-52965709D01*
X85387139Y-52986922D01*
X85425358Y-52994785D01*
X85726018Y-53042166D01*
X86042307Y-53066544D01*
X86357555Y-53066915D01*
X86491898Y-53059192D01*
X86670499Y-53042987D01*
X86845271Y-53021704D01*
X87019662Y-52994351D01*
X87197120Y-52959935D01*
X87381090Y-52917463D01*
X87575021Y-52865943D01*
X87782358Y-52804381D01*
X88006548Y-52731787D01*
X88251040Y-52647166D01*
X88519278Y-52549526D01*
X88814711Y-52437874D01*
X89140786Y-52311218D01*
X89281000Y-52255960D01*
X89388420Y-52213941D01*
X89482727Y-52177931D01*
X89558185Y-52150049D01*
X89609053Y-52132415D01*
X89629594Y-52127148D01*
X89629692Y-52127212D01*
X89620721Y-52144426D01*
X89589676Y-52187325D01*
X89539847Y-52251864D01*
X89474523Y-52334001D01*
X89396992Y-52429691D01*
X89310544Y-52534890D01*
X89218466Y-52645554D01*
X89124049Y-52757641D01*
X89030580Y-52867105D01*
X88985724Y-52919019D01*
X88813046Y-53114654D01*
X88631016Y-53314768D01*
X88443690Y-53515263D01*
X88255120Y-53712038D01*
X88069361Y-53900993D01*
X87890466Y-54078031D01*
X87722489Y-54239050D01*
X87569484Y-54379952D01*
X87435505Y-54496637D01*
X87383225Y-54539572D01*
X87118113Y-54728118D01*
X86825075Y-54891487D01*
X86507106Y-55028397D01*
X86167200Y-55137565D01*
X85808350Y-55217711D01*
X85793385Y-55220340D01*
X85532030Y-55257840D01*
X85237442Y-55285817D01*
X84914274Y-55304321D01*
X84567179Y-55313402D01*
X84567179Y-56571441D01*
X84599419Y-56577701D01*
X84670789Y-56591040D01*
X84731683Y-56601850D01*
X84784232Y-56610570D01*
X84830569Y-56617636D01*
X84872827Y-56623488D01*
X84913139Y-56628564D01*
X84914154Y-56628686D01*
X84983011Y-56636052D01*
X85076831Y-56644819D01*
X85186840Y-56654303D01*
X85304265Y-56663818D01*
X85420331Y-56672679D01*
X85526263Y-56680202D01*
X85613289Y-56685703D01*
X85672635Y-56688496D01*
X85683098Y-56688699D01*
X85682291Y-56701724D01*
X85655387Y-56738973D01*
X85604845Y-56797998D01*
X85533123Y-56876349D01*
X85442680Y-56971575D01*
X85335976Y-57081227D01*
X85215469Y-57202855D01*
X85083618Y-57334009D01*
X84942881Y-57472240D01*
X84795718Y-57615097D01*
X84644588Y-57760130D01*
X84491949Y-57904890D01*
X84340261Y-58046927D01*
X84191981Y-58183790D01*
X84083264Y-58282676D01*
X83306556Y-58958110D01*
X82500660Y-59608040D01*
X81666486Y-60231883D01*
X80804946Y-60829054D01*
X79916952Y-61398968D01*
X79003415Y-61941042D01*
X78065247Y-62454690D01*
X77103359Y-62939329D01*
X76118663Y-63394375D01*
X76087649Y-63408061D01*
X75944246Y-63470953D01*
X75786812Y-63539493D01*
X75627974Y-63608216D01*
X75480359Y-63671658D01*
X75363235Y-63721546D01*
X75191605Y-63795477D01*
X75028598Y-63868703D01*
X74870723Y-63943230D01*
X74714488Y-64021063D01*
X74556402Y-64104207D01*
X74392973Y-64194668D01*
X74220712Y-64294451D01*
X74036126Y-64405562D01*
X73835724Y-64530005D01*
X73616016Y-64669786D01*
X73373509Y-64826911D01*
X73104713Y-65003384D01*
X72927308Y-65120754D01*
X72710227Y-65265695D01*
X72524655Y-65391786D01*
X72368664Y-65500398D01*
X72240326Y-65592905D01*
X72137713Y-65670681D01*
X72058897Y-65735098D01*
X72033814Y-65757240D01*
X71979380Y-65808109D01*
X71910739Y-65874523D01*
X71832112Y-65952157D01*
X71747721Y-66036686D01*
X71661787Y-66123783D01*
X71578530Y-66209123D01*
X71502172Y-66288382D01*
X71436935Y-66357232D01*
X71387038Y-66411350D01*
X71356704Y-66446409D01*
X71349836Y-66458123D01*
X71369889Y-66454160D01*
X71425076Y-66442706D01*
X71512310Y-66424412D01*
X71628507Y-66399932D01*
X71770580Y-66369918D01*
X71935445Y-66335022D01*
X72120015Y-66295896D01*
X72321206Y-66253193D01*
X72535931Y-66207565D01*
X72694823Y-66173770D01*
X72950290Y-66119580D01*
X73219785Y-66062720D01*
X73496741Y-66004556D01*
X73774591Y-65946456D01*
X74046768Y-65889787D01*
X74306706Y-65835917D01*
X74547837Y-65786213D01*
X74763595Y-65742043D01*
X74939769Y-65706313D01*
X75241750Y-65645033D01*
X75510039Y-65589548D01*
X75749394Y-65538672D01*
X75964573Y-65491219D01*
X76160331Y-65446001D01*
X76341426Y-65401830D01*
X76512614Y-65357520D01*
X76678654Y-65311885D01*
X76844301Y-65263735D01*
X77014312Y-65211886D01*
X77193446Y-65155149D01*
X77343000Y-65106594D01*
X77710498Y-64982174D01*
X78076477Y-64849771D01*
X78443741Y-64708049D01*
X78815094Y-64555670D01*
X79193340Y-64391298D01*
X79581284Y-64213596D01*
X79981730Y-64021228D01*
X80397483Y-63812857D01*
X80831345Y-63587146D01*
X81286122Y-63342759D01*
X81764617Y-63078359D01*
X82269636Y-62792609D01*
X82617645Y-62592361D01*
X82753532Y-62513925D01*
X82878281Y-62442357D01*
X82987973Y-62379868D01*
X83078691Y-62328674D01*
X83146515Y-62290988D01*
X83187530Y-62269023D01*
X83198385Y-62264225D01*
X83196917Y-62284319D01*
X83187081Y-62328412D01*
X83182327Y-62346376D01*
X83158127Y-62400444D01*
X83110094Y-62468453D01*
X83035148Y-62554562D01*
X83002125Y-62589601D01*
X82495884Y-63137224D01*
X81994523Y-63716286D01*
X81504063Y-64319168D01*
X81030529Y-64938250D01*
X80579943Y-65565912D01*
X80183771Y-66155277D01*
X79896670Y-66609338D01*
X79624830Y-67065008D01*
X79362557Y-67532335D01*
X79104158Y-68021367D01*
X78926016Y-68374947D01*
X78586944Y-69091793D01*
X78278993Y-69809950D01*
X78000379Y-70534688D01*
X77749315Y-71271276D01*
X77524018Y-72024983D01*
X77322700Y-72801078D01*
X77143578Y-73604832D01*
X77127683Y-73682656D01*
X77092381Y-73856197D01*
X77060939Y-74008138D01*
X77032005Y-74143247D01*
X77004227Y-74266289D01*
X76976254Y-74382032D01*
X76946734Y-74495243D01*
X76914314Y-74610688D01*
X76877644Y-74733133D01*
X76835372Y-74867346D01*
X76786145Y-75018094D01*
X76728613Y-75190142D01*
X76661423Y-75388258D01*
X76583223Y-75617208D01*
X76559066Y-75687794D01*
X76506347Y-75842802D01*
X76458314Y-75985962D01*
X76416309Y-76113128D01*
X76381671Y-76220156D01*
X76355742Y-76302899D01*
X76339863Y-76357212D01*
X76335374Y-76378951D01*
X76335470Y-76379105D01*
X76351342Y-76368524D01*
X76391311Y-76333845D01*
X76451789Y-76278547D01*
X76529187Y-76206111D01*
X76619918Y-76120017D01*
X76720394Y-76023745D01*
X76827027Y-75920775D01*
X76936230Y-75814588D01*
X77044414Y-75708665D01*
X77147992Y-75606484D01*
X77243376Y-75511527D01*
X77326978Y-75427273D01*
X77395211Y-75357204D01*
X77444486Y-75304798D01*
X77454601Y-75293534D01*
X77548828Y-75182750D01*
X77648401Y-75057308D01*
X77754650Y-74915191D01*
X77868907Y-74754377D01*
X77992502Y-74572849D01*
X78126767Y-74368587D01*
X78273033Y-74139572D01*
X78432631Y-73883785D01*
X78606893Y-73599206D01*
X78797150Y-73283817D01*
X78964415Y-73003508D01*
X79066320Y-72832087D01*
X79176731Y-72646483D01*
X79290465Y-72455396D01*
X79402341Y-72267532D01*
X79507175Y-72091593D01*
X79599786Y-71936283D01*
X79639176Y-71870277D01*
X79701342Y-71765307D01*
X79780201Y-71630802D01*
X79873176Y-71471223D01*
X79977690Y-71291030D01*
X80091168Y-71094685D01*
X80211031Y-70886648D01*
X80334703Y-70671378D01*
X80459607Y-70453338D01*
X80583166Y-70236987D01*
X80615529Y-70180200D01*
X80790473Y-69873375D01*
X80948053Y-69597659D01*
X81090015Y-69350072D01*
X81218102Y-69127635D01*
X81334058Y-68927371D01*
X81439629Y-68746300D01*
X81536559Y-68581444D01*
X81626591Y-68429823D01*
X81711470Y-68288460D01*
X81792941Y-68154375D01*
X81872748Y-68024591D01*
X81952635Y-67896127D01*
X81959949Y-67884431D01*
X82292163Y-67370104D01*
X82643236Y-66858150D01*
X83010306Y-66351895D01*
X83390513Y-65854669D01*
X83780995Y-65369799D01*
X84178890Y-64900612D01*
X84581337Y-64450438D01*
X84985473Y-64022603D01*
X85388439Y-63620435D01*
X85787371Y-63247264D01*
X86179409Y-62906415D01*
X86383467Y-62739968D01*
X86859455Y-62378139D01*
X87336517Y-62050502D01*
X87821576Y-61752615D01*
X88321557Y-61480032D01*
X88440846Y-61419725D01*
X88575623Y-61353449D01*
X88704300Y-61292299D01*
X88832354Y-61233994D01*
X88853291Y-61224899D01*
X88853291Y-59264881D01*
X88567846Y-59263813D01*
X87493231Y-59258200D01*
X87481350Y-59180046D01*
X87471126Y-59107184D01*
X87469221Y-59063842D01*
X87477451Y-59041005D01*
X87497634Y-59029662D01*
X87512498Y-59025552D01*
X87556899Y-59015050D01*
X87634461Y-58997440D01*
X87742192Y-58973369D01*
X87877101Y-58943486D01*
X88036195Y-58908439D01*
X88216485Y-58868876D01*
X88414978Y-58825444D01*
X88628684Y-58778792D01*
X88854610Y-58729566D01*
X89089765Y-58678417D01*
X89331158Y-58625990D01*
X89575798Y-58572934D01*
X89820693Y-58519898D01*
X90062851Y-58467528D01*
X90299282Y-58416473D01*
X90453616Y-58383201D01*
X90453616Y-55669558D01*
X90447009Y-55663212D01*
X90448878Y-55643590D01*
X90460646Y-55606042D01*
X90483732Y-55545921D01*
X90519559Y-55458579D01*
X90562215Y-55356788D01*
X90714677Y-55033689D01*
X90885774Y-54744917D01*
X91075548Y-54490430D01*
X91284040Y-54270186D01*
X91511291Y-54084141D01*
X91757343Y-53932253D01*
X92022237Y-53814481D01*
X92089479Y-53791002D01*
X92179700Y-53764336D01*
X92299395Y-53733768D01*
X92439427Y-53701411D01*
X92590657Y-53669380D01*
X92739308Y-53640640D01*
X92834491Y-53623450D01*
X92956714Y-53601821D01*
X93102505Y-53576339D01*
X93268389Y-53547590D01*
X93450893Y-53516160D01*
X93646543Y-53482633D01*
X93851867Y-53447596D01*
X94063389Y-53411635D01*
X94277637Y-53375336D01*
X94491138Y-53339283D01*
X94700417Y-53304063D01*
X94902001Y-53270261D01*
X95088227Y-53239164D01*
X95088227Y-49249202D01*
X95047607Y-49076009D01*
X95023314Y-48962803D01*
X94998446Y-48830527D01*
X94975247Y-48692687D01*
X94955961Y-48562787D01*
X94942832Y-48454330D01*
X94940923Y-48433892D01*
X94935607Y-48342106D01*
X94932373Y-48221763D01*
X94931141Y-48083323D01*
X94931835Y-47937246D01*
X94934376Y-47793992D01*
X94938686Y-47664021D01*
X94944688Y-47557794D01*
X94947718Y-47522539D01*
X95011793Y-47069051D01*
X95113631Y-46612841D01*
X95252201Y-46155904D01*
X95426474Y-45700235D01*
X95635421Y-45247829D01*
X95878012Y-44800683D01*
X96153219Y-44360791D01*
X96460011Y-43930148D01*
X96797359Y-43510751D01*
X97164235Y-43104593D01*
X97297210Y-42968165D01*
X97739779Y-42548784D01*
X98202646Y-42160559D01*
X98683829Y-41804946D01*
X99181344Y-41483399D01*
X99693206Y-41197374D01*
X99753615Y-41166462D01*
X100240138Y-40936779D01*
X100722728Y-40743558D01*
X101206381Y-40585218D01*
X101696096Y-40460179D01*
X102196869Y-40366859D01*
X102352231Y-40344513D01*
X102421625Y-40336928D01*
X102513999Y-40329357D01*
X102623638Y-40322022D01*
X102744829Y-40315143D01*
X102871859Y-40308942D01*
X102999015Y-40303640D01*
X103120584Y-40299457D01*
X103230852Y-40296615D01*
X103324105Y-40295334D01*
X103394631Y-40295836D01*
X103436717Y-40298342D01*
X103445867Y-40302204D01*
X103425528Y-40312108D01*
X103373793Y-40334004D01*
X103295735Y-40365840D01*
X103196424Y-40405566D01*
X103080932Y-40451131D01*
X102986714Y-40487914D01*
X102759211Y-40576738D01*
X102562177Y-40654762D01*
X102389438Y-40724768D01*
X102234821Y-40789539D01*
X102092153Y-40851858D01*
X101955263Y-40914508D01*
X101817977Y-40980270D01*
X101674122Y-41051927D01*
X101517526Y-41132262D01*
X101342017Y-41224058D01*
X101273379Y-41260253D01*
X101148428Y-41326444D01*
X101035784Y-41386496D01*
X100939776Y-41438069D01*
X100864737Y-41478824D01*
X100814996Y-41506420D01*
X100794885Y-41518518D01*
X100794686Y-41518848D01*
X100813735Y-41514382D01*
X100866581Y-41500195D01*
X100949457Y-41477342D01*
X101058600Y-41446876D01*
X101190243Y-41409853D01*
X101340621Y-41367328D01*
X101505969Y-41320353D01*
X101647632Y-41279956D01*
X101980468Y-41185307D01*
X102279572Y-41101208D01*
X102548564Y-41026726D01*
X102791066Y-40960933D01*
X103010698Y-40902898D01*
X103211081Y-40851690D01*
X103395836Y-40806379D01*
X103568583Y-40766034D01*
X103732943Y-40729725D01*
X103892537Y-40696523D01*
X104003231Y-40674654D01*
X104119848Y-40653385D01*
X104221648Y-40638429D01*
X104320944Y-40628697D01*
X104430047Y-40623098D01*
X104561268Y-40620542D01*
X104618692Y-40620146D01*
X104772273Y-40620962D01*
X104895701Y-40625901D01*
X104997800Y-40636312D01*
X105087395Y-40653543D01*
X105173311Y-40678942D01*
X105264373Y-40713859D01*
X105282928Y-40721656D01*
X105364227Y-40756184D01*
X104840037Y-40998141D01*
X104474506Y-41167332D01*
X104141633Y-41322439D01*
X103838257Y-41465001D01*
X103561217Y-41596557D01*
X103307354Y-41718645D01*
X103073505Y-41832803D01*
X102856511Y-41940571D01*
X102653211Y-42043487D01*
X102460444Y-42143090D01*
X102275050Y-42240918D01*
X102156846Y-42304367D01*
X101612564Y-42609014D01*
X101104843Y-42915293D01*
X100631168Y-43224921D01*
X100189023Y-43539616D01*
X99775892Y-43861096D01*
X99389260Y-44191078D01*
X99374803Y-44204036D01*
X99283405Y-44287270D01*
X99190711Y-44373745D01*
X99100604Y-44459607D01*
X99016963Y-44541001D01*
X98943671Y-44614070D01*
X98884606Y-44674962D01*
X98843652Y-44719821D01*
X98824688Y-44744791D01*
X98826892Y-44748270D01*
X98847745Y-44738031D01*
X98899853Y-44711286D01*
X98979911Y-44669763D01*
X99084613Y-44615188D01*
X99210651Y-44549290D01*
X99354720Y-44473794D01*
X99513514Y-44390429D01*
X99683725Y-44300921D01*
X99747563Y-44267315D01*
X99920640Y-44176271D01*
X100083141Y-44090974D01*
X100231814Y-44013119D01*
X100363406Y-43944401D01*
X100474665Y-43886513D01*
X100562339Y-43841149D01*
X100623177Y-43810004D01*
X100653927Y-43794771D01*
X100657036Y-43793508D01*
X100674560Y-43808695D01*
X100701652Y-43845831D01*
X100730563Y-43892275D01*
X100753544Y-43935389D01*
X100762847Y-43962533D01*
X100762260Y-43965154D01*
X100745969Y-43978846D01*
X100700900Y-44014982D01*
X100629081Y-44071965D01*
X100532544Y-44148202D01*
X100413317Y-44242098D01*
X100273431Y-44352058D01*
X100114917Y-44476487D01*
X99939803Y-44613791D01*
X99750121Y-44762375D01*
X99547900Y-44920644D01*
X99335170Y-45087004D01*
X99140211Y-45239354D01*
X98881303Y-45441668D01*
X98651530Y-45621382D01*
X98449183Y-45779892D01*
X98272556Y-45918593D01*
X98119941Y-46038880D01*
X97989630Y-46142147D01*
X97879914Y-46229791D01*
X97789087Y-46303207D01*
X97715441Y-46363789D01*
X97657268Y-46412933D01*
X97612860Y-46452034D01*
X97580510Y-46482487D01*
X97558510Y-46505688D01*
X97545152Y-46523032D01*
X97538729Y-46535913D01*
X97537533Y-46545727D01*
X97537962Y-46548391D01*
X97547883Y-46586802D01*
X97553732Y-46601983D01*
X97572526Y-46596607D01*
X97625369Y-46579539D01*
X97709348Y-46551762D01*
X97821547Y-46514257D01*
X97959052Y-46468008D01*
X98118948Y-46413997D01*
X98298320Y-46353206D01*
X98494254Y-46286617D01*
X98703836Y-46215214D01*
X98903268Y-46147116D01*
X99123031Y-46072146D01*
X99332056Y-46001125D01*
X99527395Y-45935038D01*
X99706103Y-45874867D01*
X99865234Y-45821595D01*
X100001841Y-45776207D01*
X100112979Y-45739684D01*
X100195702Y-45713010D01*
X100247063Y-45697169D01*
X100264036Y-45692985D01*
X100258621Y-45709624D01*
X100231926Y-45752259D01*
X100187257Y-45816513D01*
X100127918Y-45898006D01*
X100057214Y-45992360D01*
X99978449Y-46095197D01*
X99894928Y-46202138D01*
X99809956Y-46308806D01*
X99726837Y-46410820D01*
X99678113Y-46469302D01*
X99484694Y-46690239D01*
X99270966Y-46918632D01*
X99044941Y-47146654D01*
X98814628Y-47366479D01*
X98588040Y-47570277D01*
X98373187Y-47750224D01*
X98340370Y-47776330D01*
X97953437Y-48060613D01*
X97541070Y-48324080D01*
X97110539Y-48562854D01*
X96669113Y-48773054D01*
X96224061Y-48950800D01*
X95992462Y-49029481D01*
X95873625Y-49065789D01*
X95741723Y-49103487D01*
X95605256Y-49140396D01*
X95472722Y-49174335D01*
X95352621Y-49203122D01*
X95253452Y-49224577D01*
X95187468Y-49236037D01*
X95088227Y-49249202D01*
X95088227Y-53239164D01*
X95092417Y-53238464D01*
X95268190Y-53209256D01*
X95425848Y-53183223D01*
X95561917Y-53160952D01*
X95672923Y-53143028D01*
X95755393Y-53130037D01*
X95805853Y-53122563D01*
X95821014Y-53121009D01*
X95806871Y-53132826D01*
X95763821Y-53163385D01*
X95695727Y-53210137D01*
X95606450Y-53270534D01*
X95499852Y-53342026D01*
X95379794Y-53422066D01*
X95250138Y-53508104D01*
X95114746Y-53597592D01*
X94977479Y-53687982D01*
X94842200Y-53776724D01*
X94712768Y-53861271D01*
X94593047Y-53939073D01*
X94486898Y-54007582D01*
X94398182Y-54064250D01*
X94330762Y-54106527D01*
X94295224Y-54128001D01*
X94090126Y-54242384D01*
X93865637Y-54357324D01*
X93618333Y-54474360D01*
X93344789Y-54595031D01*
X93041579Y-54720877D01*
X92705278Y-54853436D01*
X92543923Y-54915049D01*
X92468646Y-54943236D01*
X92366383Y-54981076D01*
X92241363Y-55027037D01*
X92097812Y-55079589D01*
X91939956Y-55137201D01*
X91772024Y-55198340D01*
X91598243Y-55261476D01*
X91422838Y-55325078D01*
X91250038Y-55387615D01*
X91084070Y-55447555D01*
X90929160Y-55503367D01*
X90789536Y-55553520D01*
X90669425Y-55596483D01*
X90573054Y-55630725D01*
X90504649Y-55654714D01*
X90468439Y-55666919D01*
X90467278Y-55667275D01*
X90453616Y-55669558D01*
X90453616Y-58383201D01*
X90526994Y-58367381D01*
X90742996Y-58320900D01*
X90944295Y-58277677D01*
X91127902Y-58238360D01*
X91290823Y-58203598D01*
X91430069Y-58174039D01*
X91542647Y-58150329D01*
X91625567Y-58133118D01*
X91675836Y-58123052D01*
X91690655Y-58120598D01*
X91685291Y-58135906D01*
X91655358Y-58173527D01*
X91605054Y-58229325D01*
X91538575Y-58299165D01*
X91460119Y-58378911D01*
X91373882Y-58464427D01*
X91284062Y-58551576D01*
X91194856Y-58636225D01*
X91110460Y-58714236D01*
X91035072Y-58781475D01*
X90972890Y-58833805D01*
X90945005Y-58855346D01*
X90798756Y-58953014D01*
X90638062Y-59043905D01*
X90475675Y-59121517D01*
X90324345Y-59179351D01*
X90287231Y-59190677D01*
X90222258Y-59206966D01*
X90147754Y-59220948D01*
X90060758Y-59232750D01*
X89958308Y-59242497D01*
X89837445Y-59250315D01*
X89695206Y-59256330D01*
X89528633Y-59260669D01*
X89334763Y-59263456D01*
X89110636Y-59264818D01*
X88853291Y-59264881D01*
X88853291Y-61224899D01*
X88965262Y-61176253D01*
X89108502Y-61116796D01*
X89267552Y-61053341D01*
X89447890Y-60983608D01*
X89654991Y-60905317D01*
X89857385Y-60829882D01*
X89999060Y-60777299D01*
X90129779Y-60728728D01*
X90244805Y-60685932D01*
X90339401Y-60650676D01*
X90408829Y-60624724D01*
X90448353Y-60609842D01*
X90454915Y-60607309D01*
X90472598Y-60607413D01*
X90486587Y-60628578D01*
X90499837Y-60677417D01*
X90510087Y-60730662D01*
X90534346Y-60866404D01*
X90427089Y-61196241D01*
X90216090Y-61891666D01*
X90031068Y-62601142D01*
X89871716Y-63326817D01*
X89737726Y-64070837D01*
X89628794Y-64835350D01*
X89544612Y-65622502D01*
X89484874Y-66434441D01*
X89449273Y-67273314D01*
X89437505Y-68129527D01*
X89438305Y-68320387D01*
X89440663Y-68530475D01*
X89444348Y-68748145D01*
X89449133Y-68961751D01*
X89454787Y-69159647D01*
X89461083Y-69330186D01*
X89461124Y-69331142D01*
X89470808Y-69588159D01*
X89477812Y-69841290D01*
X89482141Y-70085813D01*
X89483802Y-70317005D01*
X89482798Y-70530144D01*
X89479137Y-70720508D01*
X89472822Y-70883375D01*
X89463860Y-71014022D01*
X89459157Y-71059431D01*
X89387251Y-71530874D01*
X89285106Y-71981013D01*
X89151528Y-72412414D01*
X88985325Y-72827644D01*
X88785303Y-73229269D01*
X88550267Y-73619855D01*
X88279026Y-74001970D01*
X87970384Y-74378179D01*
X87856775Y-74505134D01*
X87616540Y-74752956D01*
X87342469Y-75007440D01*
X87033579Y-75269419D01*
X86688890Y-75539723D01*
X86307421Y-75819184D01*
X86301744Y-75823215D01*
X86135131Y-75942968D01*
X85976263Y-76059992D01*
X85827932Y-76172021D01*
X85692931Y-76276790D01*
X85574052Y-76372033D01*
X85474086Y-76455485D01*
X85395826Y-76524879D01*
X85342063Y-76577950D01*
X85315590Y-76612432D01*
X85314692Y-76624200D01*
X85335429Y-76623131D01*
X85390580Y-76616018D01*
X85476061Y-76603498D01*
X85587784Y-76586210D01*
X85721662Y-76564791D01*
X85873611Y-76539878D01*
X86039543Y-76512111D01*
X86115769Y-76499180D01*
X86287333Y-76470059D01*
X86447342Y-76443093D01*
X86591598Y-76418975D01*
X86715902Y-76398398D01*
X86816056Y-76382056D01*
X86887860Y-76370643D01*
X86927117Y-76364850D01*
X86932894Y-76364261D01*
X86933788Y-76378951D01*
X86912921Y-76420884D01*
X86872767Y-76486647D01*
X86815801Y-76572829D01*
X86744499Y-76676018D01*
X86661334Y-76792802D01*
X86568782Y-76919771D01*
X86469317Y-77053512D01*
X86365414Y-77190614D01*
X86259547Y-77327666D01*
X86154193Y-77461255D01*
X86051824Y-77587971D01*
X85997556Y-77653661D01*
X85495328Y-78227163D01*
X84970143Y-78770528D01*
X84423082Y-79282783D01*
X83855230Y-79762952D01*
X83267669Y-80210061D01*
X82794231Y-80536650D01*
X82575617Y-80678892D01*
X82374107Y-80805346D01*
X82180483Y-80921278D01*
X81985525Y-81031950D01*
X81780016Y-81142627D01*
X81554737Y-81258573D01*
X81358154Y-81356651D01*
X80779454Y-81626004D01*
X80205321Y-81859754D01*
X79630113Y-82059525D01*
X79048182Y-82226941D01*
X78453885Y-82363626D01*
X77841576Y-82471205D01*
X77206231Y-82551237D01*
X77075365Y-82561927D01*
X76912819Y-82570762D01*
X76725702Y-82577706D01*
X76521124Y-82582723D01*
X76306195Y-82585777D01*
X76088022Y-82586831D01*
X75873717Y-82585850D01*
X75670387Y-82582797D01*
X75485143Y-82577636D01*
X75325093Y-82570330D01*
X75203539Y-82561435D01*
X74516723Y-82479772D01*
X73838582Y-82364312D01*
X73167417Y-82214472D01*
X72501525Y-82029669D01*
X71839206Y-81809319D01*
X71178760Y-81552838D01*
X70518485Y-81259645D01*
X69856682Y-80929154D01*
X69191649Y-80560784D01*
X68944202Y-80414634D01*
X68841273Y-80353421D01*
X68750133Y-80300345D01*
X68675895Y-80258288D01*
X68623668Y-80230135D01*
X68598563Y-80218770D01*
X68597176Y-80218819D01*
X68607920Y-80234240D01*
X68642564Y-80272246D01*
X68696805Y-80328376D01*
X68766339Y-80398169D01*
X68838666Y-80469198D01*
X69210274Y-80805696D01*
X69616280Y-81126288D01*
X70055100Y-81430305D01*
X70525148Y-81717079D01*
X71024840Y-81985941D01*
X71552591Y-82236224D01*
X72106815Y-82467259D01*
X72685929Y-82678377D01*
X73288347Y-82868911D01*
X73912484Y-83038193D01*
X74556755Y-83185553D01*
X75219575Y-83310324D01*
X75779923Y-83395875D01*
X76432977Y-83471776D01*
X77109326Y-83524491D01*
X77800748Y-83553934D01*
X78499018Y-83560018D01*
X79195912Y-83542655D01*
X79883207Y-83501758D01*
X80478923Y-83445634D01*
X81217575Y-83348097D01*
X81944086Y-83221988D01*
X82656576Y-83068034D01*
X83353165Y-82886961D01*
X84031975Y-82679492D01*
X84691126Y-82446355D01*
X85328737Y-82188273D01*
X85942930Y-81905972D01*
X86531824Y-81600177D01*
X87093540Y-81271614D01*
X87626199Y-80921007D01*
X88127920Y-80549083D01*
X88260115Y-80443248D01*
X88321171Y-80394743D01*
X88369014Y-80359024D01*
X88397104Y-80340852D01*
X88401769Y-80340166D01*
X88389886Y-80363656D01*
X88356972Y-80411882D01*
X88307131Y-80479661D01*
X88244466Y-80561807D01*
X88173080Y-80653135D01*
X88097077Y-80748462D01*
X88020561Y-80842601D01*
X87947633Y-80930369D01*
X87882399Y-81006581D01*
X87828961Y-81066053D01*
X87818660Y-81076932D01*
X87755602Y-81138508D01*
X87676934Y-81207660D01*
X87580462Y-81285991D01*
X87463996Y-81375104D01*
X87325343Y-81476601D01*
X87162311Y-81592086D01*
X86972709Y-81723162D01*
X86754344Y-81871431D01*
X86505023Y-82038496D01*
X86489657Y-82048736D01*
X86206508Y-82235705D01*
X85943162Y-82405762D01*
X85692716Y-82562941D01*
X85448266Y-82711276D01*
X85202910Y-82854800D01*
X84949745Y-82997546D01*
X84681867Y-83143548D01*
X84392375Y-83296839D01*
X84074365Y-83461453D01*
X84054462Y-83471658D01*
X83883110Y-83559642D01*
X83710887Y-83648391D01*
X83543502Y-83734941D01*
X83386665Y-83816327D01*
X83246088Y-83889585D01*
X83127480Y-83951750D01*
X83036552Y-83999857D01*
X83018923Y-84009281D01*
X82592815Y-84243689D01*
X82201296Y-84471829D01*
X81840864Y-84696162D01*
X81508022Y-84919153D01*
X81199267Y-85143264D01*
X80911100Y-85370958D01*
X80640020Y-85604698D01*
X80382528Y-85846948D01*
X80321787Y-85907205D01*
X80101613Y-86136116D01*
X79912365Y-86351328D01*
X79750490Y-86557540D01*
X79612437Y-86759448D01*
X79494653Y-86961750D01*
X79434298Y-87080969D01*
X79340740Y-87293575D01*
X79273193Y-87491306D01*
X79228925Y-87685761D01*
X79205204Y-87888537D01*
X79199154Y-88079149D01*
X79199511Y-88180080D01*
X79201268Y-88248307D01*
X79205457Y-88290203D01*
X79213108Y-88312138D01*
X79225252Y-88320485D01*
X79238389Y-88321661D01*
X79271086Y-88307666D01*
X79300456Y-88262029D01*
X79310414Y-88238623D01*
X79418284Y-87997051D01*
X79551625Y-87750048D01*
X79704537Y-87506354D01*
X79871118Y-87274712D01*
X80045468Y-87063863D01*
X80221684Y-86882550D01*
X80232710Y-86872320D01*
X80436615Y-86695154D01*
X80650670Y-86531110D01*
X80878207Y-86378571D01*
X81122559Y-86235922D01*
X81387060Y-86101545D01*
X81675042Y-85973825D01*
X81989838Y-85851144D01*
X82334783Y-85731887D01*
X82713207Y-85614436D01*
X82989615Y-85535262D01*
X83395458Y-85421582D01*
X83767873Y-85315442D01*
X84111461Y-85215397D01*
X84430825Y-85120002D01*
X84730566Y-85027814D01*
X85015286Y-84937387D01*
X85289587Y-84847278D01*
X85558071Y-84756041D01*
X85825340Y-84662232D01*
X86095996Y-84564407D01*
X86174385Y-84535594D01*
X86801218Y-84292891D01*
X87424801Y-84028909D01*
X88038330Y-83746930D01*
X88634998Y-83450239D01*
X89208002Y-83142119D01*
X89750538Y-82825854D01*
X89837141Y-82772661D01*
X89837141Y-73762824D01*
X89829372Y-73756294D01*
X89833257Y-73741085D01*
X89841890Y-73715867D01*
X89860658Y-73659370D01*
X89887625Y-73577481D01*
X89920854Y-73476086D01*
X89958408Y-73361073D01*
X89969870Y-73325892D01*
X90001013Y-73230187D01*
X90027744Y-73147105D01*
X90051072Y-73072379D01*
X90072004Y-73001742D01*
X90091549Y-72930927D01*
X90110714Y-72855666D01*
X90130508Y-72771694D01*
X90151938Y-72674743D01*
X90176012Y-72560545D01*
X90203739Y-72424834D01*
X90236126Y-72263343D01*
X90274182Y-72071805D01*
X90316031Y-71860508D01*
X90376833Y-71551655D01*
X90430037Y-71276125D01*
X90476191Y-71029021D01*
X90515842Y-70805448D01*
X90549538Y-70600508D01*
X90577826Y-70409305D01*
X90601253Y-70226944D01*
X90620367Y-70048528D01*
X90635716Y-69869162D01*
X90647846Y-69683948D01*
X90657306Y-69487990D01*
X90664642Y-69276393D01*
X90670403Y-69044261D01*
X90675135Y-68786696D01*
X90677578Y-68626892D01*
X90683219Y-68300052D01*
X90690205Y-68008496D01*
X90698709Y-67748450D01*
X90708903Y-67516140D01*
X90720961Y-67307789D01*
X90735056Y-67119624D01*
X90751361Y-66947870D01*
X90756850Y-66897738D01*
X90810929Y-66495380D01*
X90879634Y-66122567D01*
X90964957Y-65771866D01*
X91068888Y-65435844D01*
X91193418Y-65107068D01*
X91303761Y-64855969D01*
X91364339Y-64722442D01*
X91412707Y-64606630D01*
X91451983Y-64498552D01*
X91485288Y-64388226D01*
X91515738Y-64265667D01*
X91546454Y-64120895D01*
X91568090Y-64009879D01*
X91599140Y-63849425D01*
X91625510Y-63719851D01*
X91649083Y-63613515D01*
X91671743Y-63522775D01*
X91695371Y-63439988D01*
X91721852Y-63357513D01*
X91746203Y-63287057D01*
X91806939Y-63115144D01*
X91867700Y-63128147D01*
X91912473Y-63139452D01*
X91936738Y-63148809D01*
X91937003Y-63149036D01*
X91939722Y-63169590D01*
X91944021Y-63225148D01*
X91949667Y-63311678D01*
X91956425Y-63425150D01*
X91964058Y-63561534D01*
X91972333Y-63716797D01*
X91981013Y-63886910D01*
X91986482Y-63997781D01*
X91996666Y-64206400D01*
X92005419Y-64379296D01*
X92013282Y-64519774D01*
X92020798Y-64631136D01*
X92028507Y-64716687D01*
X92036951Y-64779732D01*
X92046673Y-64823573D01*
X92058213Y-64851516D01*
X92072114Y-64866864D01*
X92088917Y-64872921D01*
X92109163Y-64872992D01*
X92129598Y-64870800D01*
X92139434Y-64866439D01*
X92152133Y-64853869D01*
X92168798Y-64830888D01*
X92190529Y-64795294D01*
X92218426Y-64744883D01*
X92253589Y-64677456D01*
X92297120Y-64590808D01*
X92350119Y-64482738D01*
X92413687Y-64351045D01*
X92488924Y-64193524D01*
X92576931Y-64007976D01*
X92678809Y-63792197D01*
X92795657Y-63543985D01*
X92842071Y-63445263D01*
X92945837Y-63224649D01*
X93044767Y-63014630D01*
X93137612Y-62817837D01*
X93223122Y-62636903D01*
X93300049Y-62474459D01*
X93367145Y-62333139D01*
X93423159Y-62215575D01*
X93466845Y-62124399D01*
X93496953Y-62062244D01*
X93512234Y-62031741D01*
X93513927Y-62028998D01*
X93519964Y-62048155D01*
X93535047Y-62100387D01*
X93557882Y-62181083D01*
X93587172Y-62285635D01*
X93621625Y-62409432D01*
X93659945Y-62547866D01*
X93676695Y-62608587D01*
X93716355Y-62751923D01*
X93752841Y-62882680D01*
X93784835Y-62996218D01*
X93811018Y-63087896D01*
X93830070Y-63153072D01*
X93840671Y-63187107D01*
X93842271Y-63190984D01*
X93845280Y-63189846D01*
X93852242Y-63182508D01*
X93864289Y-63167315D01*
X93882554Y-63142608D01*
X93908169Y-63106732D01*
X93942265Y-63058029D01*
X93985976Y-62994843D01*
X94040432Y-62915517D01*
X94106766Y-62818393D01*
X94186110Y-62701815D01*
X94279596Y-62564127D01*
X94388356Y-62403671D01*
X94513522Y-62218790D01*
X94656226Y-62007828D01*
X94817601Y-61769127D01*
X94998778Y-61501031D01*
X95161025Y-61260892D01*
X95293657Y-61064665D01*
X95420122Y-60877745D01*
X95538691Y-60702676D01*
X95647635Y-60542002D01*
X95745225Y-60398269D01*
X95829731Y-60274021D01*
X95899425Y-60171802D01*
X95952576Y-60094158D01*
X95987457Y-60043632D01*
X96002337Y-60022770D01*
X96002593Y-60022478D01*
X96012315Y-60036227D01*
X96032433Y-60083278D01*
X96061524Y-60159685D01*
X96098161Y-60261503D01*
X96140920Y-60384789D01*
X96188376Y-60525598D01*
X96230195Y-60652594D01*
X96279733Y-60803579D01*
X96325792Y-60942079D01*
X96366920Y-61063873D01*
X96401665Y-61164740D01*
X96428578Y-61240459D01*
X96446205Y-61286812D01*
X96452819Y-61299969D01*
X96462257Y-61282412D01*
X96484415Y-61232266D01*
X96517734Y-61153316D01*
X96560657Y-61049350D01*
X96611627Y-60924153D01*
X96669087Y-60781512D01*
X96731478Y-60625213D01*
X96762211Y-60547738D01*
X96826434Y-60386300D01*
X96886534Y-60236741D01*
X96940944Y-60102847D01*
X96988099Y-59988405D01*
X97026431Y-59897200D01*
X97054376Y-59833020D01*
X97070366Y-59799649D01*
X97073312Y-59795685D01*
X97091237Y-59811788D01*
X97124411Y-59855725D01*
X97168878Y-59921297D01*
X97220684Y-60002306D01*
X97275874Y-60092553D01*
X97330492Y-60185840D01*
X97380583Y-60275968D01*
X97384871Y-60283969D01*
X97560720Y-60649732D01*
X97713594Y-61042808D01*
X97843133Y-61458641D01*
X97948976Y-61892676D01*
X98030765Y-62340358D01*
X98088137Y-62797132D01*
X98120735Y-63258442D01*
X98128198Y-63719733D01*
X98110166Y-64176451D01*
X98066278Y-64624039D01*
X97996176Y-65057944D01*
X97899499Y-65473609D01*
X97816676Y-65748708D01*
X97780274Y-65849117D01*
X97732769Y-65966522D01*
X97677503Y-66093904D01*
X97617820Y-66224248D01*
X97557061Y-66350536D01*
X97498570Y-66465751D01*
X97445689Y-66562877D01*
X97401763Y-66634896D01*
X97380979Y-66663277D01*
X97332252Y-66721892D01*
X97331549Y-65326520D01*
X97331285Y-65097241D01*
X97330746Y-64879998D01*
X97329957Y-64677856D01*
X97328945Y-64493876D01*
X97327735Y-64331123D01*
X97326352Y-64192660D01*
X97324823Y-64081549D01*
X97323173Y-64000854D01*
X97321428Y-63953639D01*
X97319930Y-63942065D01*
X97306296Y-63970082D01*
X97284773Y-64033312D01*
X97256099Y-64128854D01*
X97221012Y-64253807D01*
X97180250Y-64405270D01*
X97134550Y-64580344D01*
X97084650Y-64776127D01*
X97031288Y-64989718D01*
X96975201Y-65218218D01*
X96917127Y-65458726D01*
X96857804Y-65708340D01*
X96797969Y-65964161D01*
X96738359Y-66223288D01*
X96726229Y-66276576D01*
X96683038Y-66466323D01*
X96639976Y-66654853D01*
X96598351Y-66836488D01*
X96559470Y-67005547D01*
X96524642Y-67156352D01*
X96495172Y-67283223D01*
X96472369Y-67380481D01*
X96463924Y-67416030D01*
X96343217Y-67887839D01*
X96215114Y-68323987D01*
X96078515Y-68727381D01*
X95932316Y-69100928D01*
X95775415Y-69447533D01*
X95606710Y-69770103D01*
X95504946Y-69944158D01*
X95432247Y-70058169D01*
X95344460Y-70187284D01*
X95248560Y-70321931D01*
X95151519Y-70452536D01*
X95060311Y-70569525D01*
X94981909Y-70663327D01*
X94977184Y-70668661D01*
X94937964Y-70711254D01*
X94918913Y-70726217D01*
X94915207Y-70715961D01*
X94918505Y-70697969D01*
X94924828Y-70669845D01*
X94938909Y-70607391D01*
X94959896Y-70514391D01*
X94986931Y-70394630D01*
X95019162Y-70251895D01*
X95055733Y-70089970D01*
X95095790Y-69912639D01*
X95138478Y-69723690D01*
X95152179Y-69663049D01*
X95194986Y-69473001D01*
X95234869Y-69294778D01*
X95271046Y-69131955D01*
X95302738Y-68988103D01*
X95329160Y-68866798D01*
X95349533Y-68771611D01*
X95363075Y-68706117D01*
X95369003Y-68673889D01*
X95369131Y-68671125D01*
X95357982Y-68685576D01*
X95329591Y-68729295D01*
X95286648Y-68797938D01*
X95231844Y-68887163D01*
X95167870Y-68992627D01*
X95103174Y-69100353D01*
X94902655Y-69434376D01*
X94719131Y-69736995D01*
X94550727Y-70011024D01*
X94395568Y-70259277D01*
X94251778Y-70484568D01*
X94117484Y-70689713D01*
X93990809Y-70877525D01*
X93869880Y-71050819D01*
X93752820Y-71212410D01*
X93637756Y-71365111D01*
X93522812Y-71511738D01*
X93406114Y-71655104D01*
X93381541Y-71684661D01*
X93226066Y-71862380D01*
X93050637Y-72047970D01*
X92862573Y-72234550D01*
X92669192Y-72415237D01*
X92477814Y-72583152D01*
X92295758Y-72731412D01*
X92162923Y-72830409D01*
X92089583Y-72881594D01*
X92043816Y-72911421D01*
X92021959Y-72922012D01*
X92020350Y-72915491D01*
X92022401Y-72911887D01*
X92032370Y-72890718D01*
X92056520Y-72837170D01*
X92093339Y-72754652D01*
X92141319Y-72646576D01*
X92198948Y-72516349D01*
X92264717Y-72367382D01*
X92337115Y-72203084D01*
X92414633Y-72026866D01*
X92444565Y-71958745D01*
X92854674Y-71025108D01*
X92811645Y-70989680D01*
X92761360Y-70952954D01*
X92723590Y-70929701D01*
X92689631Y-70916611D01*
X92662806Y-70927305D01*
X92635667Y-70956321D01*
X92609529Y-70987440D01*
X92563119Y-71042632D01*
X92501334Y-71116079D01*
X92429068Y-71201961D01*
X92357108Y-71287461D01*
X92275275Y-71384868D01*
X92175608Y-71503803D01*
X92065239Y-71635737D01*
X91951302Y-71772139D01*
X91840930Y-71904477D01*
X91788051Y-71967969D01*
X91514693Y-72288727D01*
X91255322Y-72576897D01*
X91007110Y-72835167D01*
X90767228Y-73066223D01*
X90532847Y-73272750D01*
X90301138Y-73457435D01*
X90069271Y-73622965D01*
X89990081Y-73675241D01*
X89912994Y-73724187D01*
X89863515Y-73752751D01*
X89837141Y-73762824D01*
X89837141Y-82772661D01*
X89872039Y-82751225D01*
X89968891Y-82691472D01*
X90053236Y-82640100D01*
X90119927Y-82600189D01*
X90163820Y-82574816D01*
X90179768Y-82567061D01*
X90179769Y-82567078D01*
X90171864Y-82590204D01*
X90149089Y-82645663D01*
X90112855Y-82730262D01*
X90064572Y-82840810D01*
X90005651Y-82974115D01*
X89937501Y-83126984D01*
X89861534Y-83296227D01*
X89779160Y-83478651D01*
X89696036Y-83661738D01*
X89551232Y-83982538D01*
X89423222Y-84272305D01*
X89310699Y-84534641D01*
X89212357Y-84773148D01*
X89126891Y-84991425D01*
X89052996Y-85193073D01*
X88989365Y-85381694D01*
X88934693Y-85560889D01*
X88887673Y-85734258D01*
X88847001Y-85905402D01*
X88811370Y-86077923D01*
X88802141Y-86126848D01*
X88772174Y-86313859D01*
X88748660Y-86512160D01*
X88731868Y-86714402D01*
X88722068Y-86913232D01*
X88719529Y-87101299D01*
X88724521Y-87271252D01*
X88737313Y-87415740D01*
X88751761Y-87501046D01*
X88766819Y-87569431D01*
X88789629Y-87481508D01*
X88852722Y-87246805D01*
X88913049Y-87041703D01*
X88973717Y-86857170D01*
X89037828Y-86684173D01*
X89108488Y-86513679D01*
X89167118Y-86383161D01*
X89246343Y-86216466D01*
X89328105Y-86054666D01*
X89414361Y-85894917D01*
X89507065Y-85734374D01*
X89608172Y-85570193D01*
X89719638Y-85399532D01*
X89843419Y-85219544D01*
X89981468Y-85027388D01*
X90135743Y-84820218D01*
X90308197Y-84595190D01*
X90500786Y-84349461D01*
X90715466Y-84080186D01*
X90950770Y-83788738D01*
X91049561Y-83665813D01*
X91167000Y-83517735D01*
X91298314Y-83350636D01*
X91438730Y-83170645D01*
X91583475Y-82983891D01*
X91727778Y-82796504D01*
X91866865Y-82614614D01*
X91944587Y-82512308D01*
X92077744Y-82336542D01*
X92218025Y-82151361D01*
X92360773Y-81962914D01*
X92501331Y-81777349D01*
X92635042Y-81600813D01*
X92757251Y-81439456D01*
X92863299Y-81299425D01*
X92917013Y-81228491D01*
X93216070Y-80829495D01*
X93490104Y-80455121D01*
X93741323Y-80101962D01*
X93971935Y-79766615D01*
X94184147Y-79445674D01*
X94380168Y-79135733D01*
X94562206Y-78833388D01*
X94732469Y-78535234D01*
X94893165Y-78237865D01*
X95032342Y-77966277D01*
X95119288Y-77790146D01*
X95198712Y-77624030D01*
X95272566Y-77463011D01*
X95342799Y-77302169D01*
X95411363Y-77136584D01*
X95480206Y-76961338D01*
X95551281Y-76771510D01*
X95626538Y-76562181D01*
X95707926Y-76328432D01*
X95797396Y-76065343D01*
X95859901Y-75878994D01*
X95918050Y-75704976D01*
X95972319Y-75542717D01*
X96021474Y-75395895D01*
X96064281Y-75268189D01*
X96099507Y-75163279D01*
X96125916Y-75084843D01*
X96142277Y-75036559D01*
X96147380Y-75021933D01*
X96166172Y-75022819D01*
X96207037Y-75030997D01*
X96254559Y-75042732D01*
X96293320Y-75054292D01*
X96307487Y-75060713D01*
X96305477Y-75081180D01*
X96295819Y-75135561D01*
X96279377Y-75219635D01*
X96257016Y-75329175D01*
X96229599Y-75459960D01*
X96197991Y-75607764D01*
X96163055Y-75768365D01*
X96158255Y-75790229D01*
X96098007Y-76065673D01*
X96042032Y-76324559D01*
X95989508Y-76571143D01*
X95939608Y-76809684D01*
X95891509Y-77044440D01*
X95844385Y-77279667D01*
X95797413Y-77519625D01*
X95749768Y-77768570D01*
X95700626Y-78030760D01*
X95649161Y-78310453D01*
X95594550Y-78611907D01*
X95535968Y-78939379D01*
X95472590Y-79297128D01*
X95407676Y-79666123D01*
X95357965Y-79952237D01*
X95308713Y-80241029D01*
X95260493Y-80528828D01*
X95213881Y-80811961D01*
X95169452Y-81086758D01*
X95127781Y-81349545D01*
X95089442Y-81596652D01*
X95055011Y-81824406D01*
X95025062Y-82029135D01*
X95000170Y-82207168D01*
X94980911Y-82354833D01*
X94967858Y-82468457D01*
X94966005Y-82487170D01*
X94958646Y-82605141D01*
X94958607Y-82734426D01*
X94966288Y-82880281D01*
X94982090Y-83047963D01*
X95006415Y-83242731D01*
X95039662Y-83469840D01*
X95042148Y-83485892D01*
X95061546Y-83609841D01*
X95076289Y-83699494D01*
X95087637Y-83759180D01*
X95096852Y-83793230D01*
X95105194Y-83805975D01*
X95113922Y-83801743D01*
X95124299Y-83784866D01*
X95127441Y-83778904D01*
X95142233Y-83747130D01*
X95170073Y-83684023D01*
X95208934Y-83594300D01*
X95256791Y-83482680D01*
X95311618Y-83353883D01*
X95371389Y-83212626D01*
X95412673Y-83114596D01*
X95521048Y-82857717D01*
X95617418Y-82631779D01*
X95704336Y-82431460D01*
X95784357Y-82251438D01*
X95860035Y-82086392D01*
X95933925Y-81930999D01*
X96008580Y-81779938D01*
X96086556Y-81627885D01*
X96170405Y-81469521D01*
X96262682Y-81299521D01*
X96365942Y-81112566D01*
X96420696Y-81014277D01*
X96530296Y-80814343D01*
X96649187Y-80591068D01*
X96773697Y-80351780D01*
X96900153Y-80103806D01*
X97024884Y-79854473D01*
X97144217Y-79611109D01*
X97254480Y-79381042D01*
X97352001Y-79171599D01*
X97419459Y-79021354D01*
X97735571Y-78264329D01*
X98015202Y-77514372D01*
X98258570Y-76769431D01*
X98465896Y-76027451D01*
X98637399Y-75286380D01*
X98773299Y-74544163D01*
X98873814Y-73798747D01*
X98939166Y-73048078D01*
X98969574Y-72290102D01*
X98965256Y-71522767D01*
X98926433Y-70744018D01*
X98853324Y-69951801D01*
X98746149Y-69144064D01*
X98605128Y-68318753D01*
X98578644Y-68180862D01*
X98552338Y-68044808D01*
X98532809Y-67938193D01*
X98519211Y-67852126D01*
X98510698Y-67777721D01*
X98506425Y-67706087D01*
X98505544Y-67628338D01*
X98507210Y-67535583D01*
X98509510Y-67454585D01*
X98514453Y-67335305D01*
X98522518Y-67217408D01*
X98534400Y-67097504D01*
X98550794Y-66972203D01*
X98572395Y-66838115D01*
X98599899Y-66691850D01*
X98634000Y-66530018D01*
X98675393Y-66349228D01*
X98724774Y-66146090D01*
X98782838Y-65917216D01*
X98850280Y-65659213D01*
X98927794Y-65368693D01*
X98967114Y-65222870D01*
X99021527Y-65022790D01*
X99067087Y-64858044D01*
X99104580Y-64726098D01*
X99134788Y-64624417D01*
X99158498Y-64550466D01*
X99176492Y-64501709D01*
X99189556Y-64475611D01*
X99198473Y-64469638D01*
X99199833Y-64470639D01*
X99221091Y-64500471D01*
X99256549Y-64558563D01*
X99302625Y-64638379D01*
X99355740Y-64733381D01*
X99412314Y-64837032D01*
X99468766Y-64942796D01*
X99521517Y-65044134D01*
X99566988Y-65134509D01*
X99592742Y-65188123D01*
X99775949Y-65609050D01*
X99935181Y-66036690D01*
X100070982Y-66474162D01*
X100183893Y-66924586D01*
X100274457Y-67391083D01*
X100343218Y-67876773D01*
X100390717Y-68384777D01*
X100417497Y-68918215D01*
X100424100Y-69480206D01*
X100416106Y-69923411D01*
X100409551Y-70127653D01*
X100402058Y-70328331D01*
X100393401Y-70528631D01*
X100383354Y-70731740D01*
X100371692Y-70940844D01*
X100358188Y-71159130D01*
X100342616Y-71389784D01*
X100324751Y-71635994D01*
X100304366Y-71900945D01*
X100281235Y-72187824D01*
X100255133Y-72499818D01*
X100225833Y-72840114D01*
X100193110Y-73211898D01*
X100156737Y-73618356D01*
X100144338Y-73755738D01*
X100122412Y-73998295D01*
X100101251Y-74232486D01*
X100081159Y-74454959D01*
X100062438Y-74662357D01*
X100045390Y-74851325D01*
X100030318Y-75018509D01*
X100017525Y-75160553D01*
X100007312Y-75274101D01*
X99999984Y-75355799D01*
X99995841Y-75402292D01*
X99995600Y-75405031D01*
X99982891Y-75549862D01*
X100039847Y-75509305D01*
X100075121Y-75479560D01*
X100133372Y-75424971D01*
X100210951Y-75349294D01*
X100304209Y-75256287D01*
X100409499Y-75149707D01*
X100523170Y-75033311D01*
X100641573Y-74910856D01*
X100761061Y-74786098D01*
X100877983Y-74662796D01*
X100988692Y-74544706D01*
X101089537Y-74435585D01*
X101176871Y-74339190D01*
X101183605Y-74331646D01*
X101692793Y-73735905D01*
X102165207Y-73132319D01*
X102600608Y-72521323D01*
X102998756Y-71903349D01*
X103359411Y-71278830D01*
X103682334Y-70648199D01*
X103967286Y-70011888D01*
X104214026Y-69370331D01*
X104422314Y-68723961D01*
X104549353Y-68251729D01*
X104626938Y-67922040D01*
X104692177Y-67609264D01*
X104747111Y-67301309D01*
X104793782Y-66986078D01*
X104834232Y-66651478D01*
X104857100Y-66428815D01*
X104866134Y-66306097D01*
X104873063Y-66151346D01*
X104877924Y-65971548D01*
X104880755Y-65773689D01*
X104881593Y-65564755D01*
X104880478Y-65351730D01*
X104877446Y-65141601D01*
X104872536Y-64941353D01*
X104865785Y-64757972D01*
X104857232Y-64598444D01*
X104846914Y-64469753D01*
X104846450Y-64465200D01*
X104775192Y-63890535D01*
X104680590Y-63330003D01*
X104561327Y-62779490D01*
X104416083Y-62234882D01*
X104243541Y-61692066D01*
X104042381Y-61146928D01*
X103811284Y-60595355D01*
X103548933Y-60033232D01*
X103254007Y-59456447D01*
X103221152Y-59394969D01*
X103131625Y-59229580D01*
X103036688Y-59057205D01*
X102934117Y-58873944D01*
X102821687Y-58675900D01*
X102697176Y-58459173D01*
X102558358Y-58219865D01*
X102403011Y-57954077D01*
X102273836Y-57734200D01*
X102147082Y-57517979D01*
X102038313Y-57330329D01*
X101945005Y-57166558D01*
X101864636Y-57021974D01*
X101794680Y-56891886D01*
X101732614Y-56771602D01*
X101675914Y-56656431D01*
X101622056Y-56541680D01*
X101569605Y-56425123D01*
X101365788Y-55922903D01*
X101199254Y-55421410D01*
X101068616Y-54915767D01*
X100972483Y-54401100D01*
X100951780Y-54256354D01*
X100938029Y-54123705D01*
X100927447Y-53960314D01*
X100920034Y-53774221D01*
X100915790Y-53573465D01*
X100914716Y-53366086D01*
X100916813Y-53160122D01*
X100922080Y-52963613D01*
X100930519Y-52784599D01*
X100942130Y-52631118D01*
X100951662Y-52546738D01*
X100973351Y-52397520D01*
X100999028Y-52240217D01*
X101027226Y-52082322D01*
X101056479Y-51931329D01*
X101085320Y-51794729D01*
X101112282Y-51680016D01*
X101135900Y-51594684D01*
X101141074Y-51578924D01*
X101222184Y-51386403D01*
X101324520Y-51223651D01*
X101452572Y-51085124D01*
X101610827Y-50965279D01*
X101664864Y-50932140D01*
X101996155Y-50725127D01*
X102291029Y-50512920D01*
X102552056Y-50292968D01*
X102781805Y-50062719D01*
X102982847Y-49819620D01*
X103157751Y-49561122D01*
X103294420Y-49314238D01*
X103413175Y-49045214D01*
X103508783Y-48756167D01*
X103582653Y-48442189D01*
X103630191Y-48146049D01*
X103645425Y-48042219D01*
X103661676Y-47965925D01*
X103682254Y-47905694D01*
X103710468Y-47850052D01*
X103720369Y-47833434D01*
X103753795Y-47778923D01*
X103774338Y-47745799D01*
X103774338Y-47688834D01*
X103774267Y-47688791D01*
X103752493Y-47661582D01*
X103722173Y-47605735D01*
X103686964Y-47529732D01*
X103650528Y-47442056D01*
X103616522Y-47351191D01*
X103588607Y-47265619D01*
X103582538Y-47244339D01*
X103546394Y-47089853D01*
X103524962Y-46937930D01*
X103517610Y-46777875D01*
X103523701Y-46598992D01*
X103535746Y-46455623D01*
X103572741Y-46239711D01*
X103639828Y-46013310D01*
X103733291Y-45785533D01*
X103849415Y-45565491D01*
X103977840Y-45371238D01*
X104022921Y-45311161D01*
X104058541Y-45265417D01*
X104078950Y-45241320D01*
X104081461Y-45239354D01*
X104095066Y-45255949D01*
X104121708Y-45301241D01*
X104157961Y-45368486D01*
X104200398Y-45450942D01*
X104245593Y-45541867D01*
X104290118Y-45634516D01*
X104330546Y-45722149D01*
X104354077Y-45775734D01*
X104422901Y-45947175D01*
X104472663Y-46097879D01*
X104506228Y-46239454D01*
X104526457Y-46383509D01*
X104535007Y-46509354D01*
X104532600Y-46708336D01*
X104505226Y-46882900D01*
X104450006Y-47040867D01*
X104364059Y-47190055D01*
X104244504Y-47338286D01*
X104219909Y-47364714D01*
X104152399Y-47430896D01*
X104075652Y-47498104D01*
X103995981Y-47561748D01*
X103919700Y-47617234D01*
X103853123Y-47659971D01*
X103802565Y-47685369D01*
X103774338Y-47688834D01*
X103774338Y-47745799D01*
X103777934Y-47740000D01*
X103786801Y-47726210D01*
X103806504Y-47721761D01*
X103857737Y-47712968D01*
X103933536Y-47700859D01*
X104026934Y-47686460D01*
X104130966Y-47670799D01*
X104238666Y-47654904D01*
X104343070Y-47639801D01*
X104437211Y-47626518D01*
X104514125Y-47616083D01*
X104566845Y-47609523D01*
X104588407Y-47607864D01*
X104588569Y-47607958D01*
X104583937Y-47628406D01*
X104567613Y-47681950D01*
X104540894Y-47764830D01*
X104505077Y-47873290D01*
X104461459Y-48003569D01*
X104411336Y-48151909D01*
X104356006Y-48314550D01*
X104296766Y-48487735D01*
X104234912Y-48667703D01*
X104171741Y-48850697D01*
X104108551Y-49032958D01*
X104046638Y-49210726D01*
X103987299Y-49380242D01*
X103931831Y-49537748D01*
X103881531Y-49679486D01*
X103837695Y-49801695D01*
X103801622Y-49900617D01*
X103774607Y-49972494D01*
X103760924Y-50006738D01*
X103585413Y-50389267D01*
X103395241Y-50741673D01*
X103307239Y-50887020D01*
X103167527Y-51116602D01*
X103049572Y-51325896D01*
X102949072Y-51523734D01*
X102861722Y-51718948D01*
X102783221Y-51920369D01*
X102731811Y-52068046D01*
X102626185Y-52436581D01*
X102554400Y-52808967D01*
X102516592Y-53186887D01*
X102512899Y-53572025D01*
X102543457Y-53966065D01*
X102608405Y-54370689D01*
X102707878Y-54787583D01*
X102842016Y-55218428D01*
X103010954Y-55664910D01*
X103028518Y-55707476D01*
X103058331Y-55777499D01*
X103094179Y-55858362D01*
X103136892Y-55951744D01*
X103187301Y-56059324D01*
X103246236Y-56182782D01*
X103314527Y-56323798D01*
X103393005Y-56484050D01*
X103482501Y-56665219D01*
X103583844Y-56868983D01*
X103697865Y-57097023D01*
X103825394Y-57351017D01*
X103967263Y-57632645D01*
X104124300Y-57943587D01*
X104297337Y-58285522D01*
X104487204Y-58660129D01*
X104535551Y-58755442D01*
X104641711Y-58964120D01*
X104742944Y-59161987D01*
X104837850Y-59346373D01*
X104925026Y-59514607D01*
X105003070Y-59664018D01*
X105058308Y-59768681D01*
X105058308Y-46959726D01*
X105043722Y-46905502D01*
X105037863Y-46874559D01*
X105027281Y-46809021D01*
X105012558Y-46713006D01*
X104994282Y-46590631D01*
X104973036Y-46446015D01*
X104949407Y-46283277D01*
X104923979Y-46106536D01*
X104897338Y-45919909D01*
X104870068Y-45727515D01*
X104842755Y-45533472D01*
X104815985Y-45341900D01*
X104790342Y-45156916D01*
X104766411Y-44982639D01*
X104744778Y-44823187D01*
X104726028Y-44682679D01*
X104710746Y-44565233D01*
X104707033Y-44535969D01*
X104682485Y-44304914D01*
X104669088Y-44092900D01*
X104666863Y-43904257D01*
X104675831Y-43743320D01*
X104696010Y-43614421D01*
X104702629Y-43588354D01*
X104744814Y-43464736D01*
X104800022Y-43359720D01*
X104874754Y-43264432D01*
X104975513Y-43169996D01*
X105055347Y-43106894D01*
X105196878Y-43011500D01*
X105369689Y-42913489D01*
X105566424Y-42816077D01*
X105779723Y-42722479D01*
X106002228Y-42635912D01*
X106226582Y-42559592D01*
X106445427Y-42496735D01*
X106459672Y-42493094D01*
X106681533Y-42440764D01*
X106879761Y-42403177D01*
X107066215Y-42378726D01*
X107252754Y-42365804D01*
X107422462Y-42362689D01*
X107505644Y-42361682D01*
X107579349Y-42359647D01*
X107642531Y-42358388D01*
X107694140Y-42359709D01*
X107733130Y-42365417D01*
X107758451Y-42377314D01*
X107769055Y-42397207D01*
X107763896Y-42426900D01*
X107741924Y-42468197D01*
X107702092Y-42522904D01*
X107643351Y-42592825D01*
X107564654Y-42679765D01*
X107464952Y-42785528D01*
X107343198Y-42911920D01*
X107198344Y-43060744D01*
X107029341Y-43233807D01*
X106835141Y-43432912D01*
X106750382Y-43520034D01*
X106580645Y-43694814D01*
X106419128Y-43861415D01*
X106267858Y-44017730D01*
X106128859Y-44161652D01*
X106004158Y-44291074D01*
X105895780Y-44403891D01*
X105805750Y-44497995D01*
X105736096Y-44571280D01*
X105688841Y-44621640D01*
X105666012Y-44646967D01*
X105664177Y-44649621D01*
X105681028Y-44640176D01*
X105728190Y-44610944D01*
X105803238Y-44563486D01*
X105903750Y-44499358D01*
X106027302Y-44420120D01*
X106171473Y-44327329D01*
X106333838Y-44222544D01*
X106511976Y-44107324D01*
X106703462Y-43983226D01*
X106905874Y-43851810D01*
X107023374Y-43775420D01*
X107230907Y-43640596D01*
X107428937Y-43512272D01*
X107615036Y-43392000D01*
X107786775Y-43281336D01*
X107941725Y-43181834D01*
X108077457Y-43095049D01*
X108191543Y-43022535D01*
X108281554Y-42965847D01*
X108345062Y-42926539D01*
X108379637Y-42906165D01*
X108385458Y-42903606D01*
X108380676Y-42924029D01*
X108359902Y-42973791D01*
X108325695Y-43047843D01*
X108280615Y-43141133D01*
X108227221Y-43248609D01*
X108168074Y-43365220D01*
X108105734Y-43485915D01*
X108042759Y-43605641D01*
X107981710Y-43719348D01*
X107925148Y-43821984D01*
X107880044Y-43900969D01*
X107560945Y-44408184D01*
X107207870Y-44896267D01*
X106821072Y-45364937D01*
X106400805Y-45813915D01*
X105947322Y-46242919D01*
X105460877Y-46651667D01*
X105253692Y-46812029D01*
X105058308Y-46959726D01*
X105058308Y-59768681D01*
X105070581Y-59791936D01*
X105126156Y-59895689D01*
X105168394Y-59972607D01*
X105195893Y-60020019D01*
X105207251Y-60035255D01*
X105207306Y-60035211D01*
X105221557Y-60009469D01*
X105246727Y-59952129D01*
X105280801Y-59868473D01*
X105321767Y-59763779D01*
X105367615Y-59643326D01*
X105416330Y-59512394D01*
X105465901Y-59376262D01*
X105514316Y-59240209D01*
X105554589Y-59124091D01*
X105773103Y-58433871D01*
X105966519Y-57715447D01*
X106134437Y-56970895D01*
X106276459Y-56202292D01*
X106392186Y-55411715D01*
X106481220Y-54601238D01*
X106523941Y-54074029D01*
X106535890Y-53878459D01*
X106546315Y-53657561D01*
X106555216Y-53415496D01*
X106562589Y-53156423D01*
X106568435Y-52884504D01*
X106572749Y-52603899D01*
X106575532Y-52318768D01*
X106576781Y-52033272D01*
X106576494Y-51751572D01*
X106574670Y-51477829D01*
X106571307Y-51216202D01*
X106566404Y-50970853D01*
X106559957Y-50745942D01*
X106551967Y-50545629D01*
X106542430Y-50374076D01*
X106531346Y-50235442D01*
X106525570Y-50182585D01*
X106449783Y-49709514D01*
X106340455Y-49250999D01*
X106198402Y-48809178D01*
X106024436Y-48386189D01*
X105819373Y-47984172D01*
X105584028Y-47605264D01*
X105496456Y-47480977D01*
X105452346Y-47418660D01*
X105418879Y-47368199D01*
X105401504Y-47337932D01*
X105400231Y-47333763D01*
X105414485Y-47316555D01*
X105456021Y-47274995D01*
X105522996Y-47210790D01*
X105613570Y-47125645D01*
X105725900Y-47021263D01*
X105858145Y-46899349D01*
X106008464Y-46761609D01*
X106175016Y-46609747D01*
X106355957Y-46445467D01*
X106523692Y-46293732D01*
X106873018Y-45971782D01*
X107195888Y-45660955D01*
X107490839Y-45362782D01*
X107756410Y-45078789D01*
X107991137Y-44810505D01*
X108193559Y-44559458D01*
X108233634Y-44506661D01*
X108330589Y-44375353D01*
X108423627Y-44244739D01*
X108514855Y-44111322D01*
X108606380Y-43971605D01*
X108700312Y-43822092D01*
X108798755Y-43659287D01*
X108903820Y-43479691D01*
X109017612Y-43279808D01*
X109142240Y-43056142D01*
X109279810Y-42805196D01*
X109432432Y-42523472D01*
X109462281Y-42468078D01*
X109504493Y-42389750D01*
X109504493Y-39052292D01*
X109485386Y-39046344D01*
X109451130Y-39011196D01*
X109405223Y-38951989D01*
X109351162Y-38873863D01*
X109292445Y-38781959D01*
X109232569Y-38681417D01*
X109175033Y-38577379D01*
X109154339Y-38537661D01*
X109071667Y-38366493D01*
X109008886Y-38212803D01*
X108961258Y-38063730D01*
X108926783Y-37919749D01*
X108913083Y-37820091D01*
X108906009Y-37694011D01*
X108905266Y-37553548D01*
X108910562Y-37410740D01*
X108921603Y-37277623D01*
X108938094Y-37166236D01*
X108946040Y-37130892D01*
X108983414Y-37016991D01*
X109039906Y-36884213D01*
X109109708Y-36743777D01*
X109187013Y-36606905D01*
X109266016Y-36484815D01*
X109313046Y-36421784D01*
X109434923Y-36269522D01*
X109475823Y-36320573D01*
X109526399Y-36391305D01*
X109586231Y-36486657D01*
X109648927Y-36595440D01*
X109708097Y-36706465D01*
X109757350Y-36808543D01*
X109766722Y-36829856D01*
X109823888Y-36972302D01*
X109865887Y-37102287D01*
X109895118Y-37231434D01*
X109913978Y-37371366D01*
X109924867Y-37533707D01*
X109927588Y-37609585D01*
X109927737Y-37824017D01*
X109913324Y-38013994D01*
X109882272Y-38192090D01*
X109832503Y-38370879D01*
X109775850Y-38527892D01*
X109739444Y-38614586D01*
X109694851Y-38711261D01*
X109646311Y-38809724D01*
X109598062Y-38901783D01*
X109554344Y-38979247D01*
X109519396Y-39033924D01*
X109504493Y-39052292D01*
X109504493Y-42389750D01*
X109550994Y-42303463D01*
X109637055Y-42144016D01*
X109718036Y-41994224D01*
X109791507Y-41858570D01*
X109855035Y-41741540D01*
X109906192Y-41647619D01*
X109942547Y-41581291D01*
X109954834Y-41559126D01*
X110040615Y-41405590D01*
X110057693Y-41529818D01*
X110064403Y-41602443D01*
X110069623Y-41707116D01*
X110073373Y-41836836D01*
X110075669Y-41984605D01*
X110076531Y-42143421D01*
X110075975Y-42306285D01*
X110074021Y-42466196D01*
X110070686Y-42616156D01*
X110065988Y-42749163D01*
X110059945Y-42858218D01*
X110054094Y-42924046D01*
X109981072Y-43427404D01*
X109877210Y-43935050D01*
X109741669Y-44449986D01*
X109573609Y-44975216D01*
X109372191Y-45513743D01*
X109242043Y-45828017D01*
X109211692Y-45898910D01*
X109303677Y-45935478D01*
X109358737Y-45957518D01*
X109397581Y-45973348D01*
X109407621Y-45977630D01*
X109421447Y-45964208D01*
X109447803Y-45923595D01*
X109481786Y-45863572D01*
X109493823Y-45840861D01*
X109522642Y-45786436D01*
X109567036Y-45703667D01*
X109623799Y-45598480D01*
X109689727Y-45476800D01*
X109761613Y-45344550D01*
X109836254Y-45207657D01*
X109846459Y-45188974D01*
X109984608Y-44934215D01*
X110104950Y-44707717D01*
X110209890Y-44504294D01*
X110301836Y-44318765D01*
X110383194Y-44145947D01*
X110456370Y-43980657D01*
X110523772Y-43817712D01*
X110587805Y-43651928D01*
X110650876Y-43478124D01*
X110681223Y-43391175D01*
X110888343Y-42736931D01*
X111062989Y-42067567D01*
X111205662Y-41380701D01*
X111316864Y-40673949D01*
X111390113Y-40022585D01*
X111401497Y-39872957D01*
X111411365Y-39691358D01*
X111419621Y-39484867D01*
X111426170Y-39260566D01*
X111430916Y-39025533D01*
X111433765Y-38786850D01*
X111434620Y-38551595D01*
X111433386Y-38326848D01*
X111433386Y-38326848D01*
G37*
X111433386Y-38326848D02*
X111429969Y-38119690D01*
X111424272Y-37937201D01*
X111419517Y-37838914D01*
X111373485Y-37220574D01*
X111305929Y-36589455D01*
X111218572Y-35958179D01*
X111113137Y-35339367D01*
X111007234Y-34817276D01*
X110928125Y-34493900D01*
X110839677Y-34205241D01*
X110740176Y-33947691D01*
X110627909Y-33717642D01*
X110501160Y-33511485D01*
X110358217Y-33325613D01*
X110236228Y-33194235D01*
X110042121Y-33022315D01*
X109828858Y-32874985D01*
X109594237Y-32751479D01*
X109336056Y-32651032D01*
X109052110Y-32572879D01*
X108740198Y-32516252D01*
X108398117Y-32480388D01*
X108145385Y-32467411D01*
X107774154Y-32455483D01*
X107930972Y-32619534D01*
X108071732Y-32775867D01*
X108186512Y-32925213D01*
X108283627Y-33079314D01*
X108359211Y-33224290D01*
X108434348Y-33397483D01*
X108486990Y-33562744D01*
X108520585Y-33734217D01*
X108538579Y-33926043D01*
X108540633Y-33968651D01*
X108541649Y-34168363D01*
X108526842Y-34365226D01*
X108494868Y-34564050D01*
X108444385Y-34769648D01*
X108374047Y-34986831D01*
X108282512Y-35220410D01*
X108168437Y-35475199D01*
X108055188Y-35707190D01*
X107796502Y-36185750D01*
X107518870Y-36630820D01*
X107221299Y-37043616D01*
X106902796Y-37425356D01*
X106562368Y-37777258D01*
X106199021Y-38100539D01*
X105933814Y-38308008D01*
X105554158Y-38566216D01*
X105147668Y-38798145D01*
X104717790Y-39002222D01*
X104267967Y-39176873D01*
X103801643Y-39320522D01*
X103614211Y-39368243D01*
X103321116Y-39433457D01*
X103034336Y-39486375D01*
X102746936Y-39527649D01*
X102451980Y-39557934D01*
X102142532Y-39577884D01*
X101811657Y-39588153D01*
X101452419Y-39589396D01*
X101290449Y-39587367D01*
X100740046Y-39567874D01*
X100201244Y-39527315D01*
X99665982Y-39464575D01*
X99126199Y-39378542D01*
X98573833Y-39268103D01*
X98007963Y-39133957D01*
X97923354Y-39112354D01*
X97842172Y-39091309D01*
X97762435Y-39070188D01*
X97682161Y-39048356D01*
X97599370Y-39025178D01*
X97512079Y-39000019D01*
X97418307Y-38972244D01*
X97316072Y-38941218D01*
X97203393Y-38906306D01*
X97078287Y-38866873D01*
X96938775Y-38822284D01*
X96782873Y-38771905D01*
X96608600Y-38715100D01*
X96413975Y-38651234D01*
X96197016Y-38579673D01*
X95955741Y-38499781D01*
X95688169Y-38410923D01*
X95392319Y-38312465D01*
X95066208Y-38203771D01*
X94707855Y-38084207D01*
X94315279Y-37953138D01*
X94136308Y-37893367D01*
X93738489Y-37760503D01*
X93375945Y-37639439D01*
X93046886Y-37529595D01*
X92749522Y-37430391D01*
X92482064Y-37341248D01*
X92242723Y-37261584D01*
X92029709Y-37190822D01*
X91841233Y-37128379D01*
X91675505Y-37073678D01*
X91530735Y-37026137D01*
X91405134Y-36985178D01*
X91296912Y-36950219D01*
X91204280Y-36920681D01*
X91125449Y-36895985D01*
X91058629Y-36875550D01*
X91002030Y-36858797D01*
X90953864Y-36845145D01*
X90912339Y-36834015D01*
X90875668Y-36824827D01*
X90842059Y-36817001D01*
X90809725Y-36809957D01*
X90776875Y-36803115D01*
X90763061Y-36800278D01*
X90478046Y-36753866D01*
X90182884Y-36728124D01*
X89888186Y-36723211D01*
X89604565Y-36739289D01*
X89342633Y-36776520D01*
X89332219Y-36778558D01*
X88981357Y-36867858D01*
X88637359Y-36995105D01*
X88301778Y-37159531D01*
X87976167Y-37360369D01*
X87662077Y-37596851D01*
X87639769Y-37615382D01*
X87428565Y-37804045D01*
X87205077Y-38026592D01*
X86971338Y-38280550D01*
X86729379Y-38563442D01*
X86481233Y-38872796D01*
X86228932Y-39206134D01*
X85974509Y-39560983D01*
X85719995Y-39934868D01*
X85658180Y-40028598D01*
X85547877Y-40188610D01*
X85447045Y-40315394D01*
X85351329Y-40412269D01*
X85256376Y-40482557D01*
X85157829Y-40529578D01*
X85051335Y-40556653D01*
X84952893Y-40566396D01*
X84891668Y-40567629D01*
X84831425Y-40564904D01*
X84764773Y-40557068D01*
X84684320Y-40542970D01*
X84582674Y-40521456D01*
X84452443Y-40491375D01*
X84415585Y-40482627D01*
X84314830Y-40458872D01*
X84182088Y-40427953D01*
X84023493Y-40391279D01*
X83845184Y-40350260D01*
X83653296Y-40306306D01*
X83453966Y-40260826D01*
X83253330Y-40215230D01*
X83136154Y-40188693D01*
X82776816Y-40107222D01*
X82452233Y-40033164D01*
X82158963Y-39965687D01*
X81893564Y-39903956D01*
X81652595Y-39847138D01*
X81432614Y-39794399D01*
X81230180Y-39744906D01*
X81041850Y-39697825D01*
X80864182Y-39652323D01*
X80693736Y-39607565D01*
X80527069Y-39562718D01*
X80360739Y-39516949D01*
X80346773Y-39513063D01*
X79933799Y-39405114D01*
X79544594Y-39318641D01*
X79171020Y-39252564D01*
X78804936Y-39205807D01*
X78438201Y-39177289D01*
X78062676Y-39165934D01*
X77746529Y-39168574D01*
X77487606Y-39177234D01*
X77254059Y-39190847D01*
X77032362Y-39210666D01*
X76808992Y-39237940D01*
X76570421Y-39273923D01*
X76522385Y-39281826D01*
X76098188Y-39364551D01*
X75652104Y-39474490D01*
X75188466Y-39609883D01*
X74711606Y-39768973D01*
X74225859Y-39949998D01*
X73735559Y-40151201D01*
X73245038Y-40370822D01*
X72758631Y-40607102D01*
X72280671Y-40858282D01*
X71815491Y-41122602D01*
X71471692Y-41332119D01*
X71369367Y-41397379D01*
X71250836Y-41474539D01*
X71120702Y-41560461D01*
X70983569Y-41652005D01*
X70844039Y-41746033D01*
X70706717Y-41839406D01*
X70576206Y-41928985D01*
X70457108Y-42011632D01*
X70354027Y-42084207D01*
X70271566Y-42143572D01*
X70214328Y-42186587D01*
X70193551Y-42203648D01*
X70189313Y-42215553D01*
X70213138Y-42220454D01*
X70267930Y-42218315D01*
X70356595Y-42209099D01*
X70422785Y-42200746D01*
X70848068Y-42154673D01*
X71301857Y-42123835D01*
X71776654Y-42108273D01*
X72264964Y-42108028D01*
X72759288Y-42123144D01*
X73252130Y-42153661D01*
X73581846Y-42183155D01*
X73846627Y-42211564D01*
X74109781Y-42243263D01*
X74373840Y-42278793D01*
X74641333Y-42318692D01*
X74914790Y-42363499D01*
X75196743Y-42413754D01*
X75489721Y-42469995D01*
X75796255Y-42532761D01*
X76118876Y-42602592D01*
X76460113Y-42680026D01*
X76822497Y-42765602D01*
X77208558Y-42859860D01*
X77620827Y-42963338D01*
X78061833Y-43076575D01*
X78534109Y-43200111D01*
X79040183Y-43334484D01*
X79248000Y-43390142D01*
X79535525Y-43467315D01*
X79787493Y-43534961D01*
X80006085Y-43593691D01*
X80193483Y-43644118D01*
X80351869Y-43686853D01*
X80483423Y-43722510D01*
X80590327Y-43751700D01*
X80674763Y-43775036D01*
X80738912Y-43793130D01*
X80784955Y-43806594D01*
X80815074Y-43816041D01*
X80831450Y-43822082D01*
X80836265Y-43825330D01*
X80831699Y-43826398D01*
X80819936Y-43825896D01*
X80803155Y-43824439D01*
X80791539Y-43823356D01*
X80723986Y-43817578D01*
X80634968Y-43810541D01*
X80542006Y-43803623D01*
X80527769Y-43802607D01*
X80420855Y-43794357D01*
X80277751Y-43782242D01*
X80101128Y-43766531D01*
X79893653Y-43747492D01*
X79657996Y-43725394D01*
X79396826Y-43700505D01*
X79112812Y-43673095D01*
X78808622Y-43643430D01*
X78486925Y-43611781D01*
X78150390Y-43578416D01*
X77801687Y-43543602D01*
X77443483Y-43507610D01*
X77078449Y-43470707D01*
X76709252Y-43433161D01*
X76338562Y-43395242D01*
X75969047Y-43357218D01*
X75603376Y-43319358D01*
X75244219Y-43281929D01*
X74894244Y-43245202D01*
X74556119Y-43209443D01*
X74232515Y-43174922D01*
X73926100Y-43141908D01*
X73639542Y-43110669D01*
X73513462Y-43096784D01*
X72507231Y-42985581D01*
X71882000Y-42984271D01*
X71682080Y-42984400D01*
X71514890Y-42985861D01*
X71374098Y-42988890D01*
X71253373Y-42993723D01*
X71146383Y-43000598D01*
X71046797Y-43009750D01*
X70973462Y-43018213D01*
X70448555Y-43098737D01*
X69939458Y-43208310D01*
X69442715Y-43348261D01*
X68954874Y-43519918D01*
X68472482Y-43724610D01*
X67992085Y-43963667D01*
X67510231Y-44238416D01*
X67065769Y-44521777D01*
X66586897Y-44849858D01*
X66113345Y-45190546D01*
X65636325Y-45550327D01*
X65147051Y-45935686D01*
X65111883Y-45963974D01*
X64968536Y-46080073D01*
X64854801Y-46173696D01*
X64769260Y-46246119D01*
X64710495Y-46298620D01*
X64677090Y-46332475D01*
X64667626Y-46348961D01*
X64680687Y-46349355D01*
X64686073Y-46347544D01*
X64714911Y-46337793D01*
X64774213Y-46318279D01*
X64857244Y-46291201D01*
X64957267Y-46258756D01*
X65049204Y-46229055D01*
X65607501Y-46066748D01*
X66175171Y-45937315D01*
X66757246Y-45839788D01*
X67358755Y-45773196D01*
X67455940Y-45765438D01*
X67608933Y-45756842D01*
X67793309Y-45751375D01*
X68001515Y-45748892D01*
X68225994Y-45749251D01*
X68459190Y-45752307D01*
X68693550Y-45757915D01*
X68921516Y-45765932D01*
X69135535Y-45776212D01*
X69328050Y-45788613D01*
X69491506Y-45802990D01*
X69506214Y-45804559D01*
X70234824Y-45900045D01*
X70981453Y-46030094D01*
X71746163Y-46194717D01*
X72145769Y-46292659D01*
X72327355Y-46339076D01*
X72473565Y-46376794D01*
X72586933Y-46406589D01*
X72669994Y-46429239D01*
X72725283Y-46445519D01*
X72755334Y-46456207D01*
X72762682Y-46462080D01*
X72749862Y-46463913D01*
X72719407Y-46462484D01*
X72692846Y-46460306D01*
X72314817Y-46429728D01*
X71928200Y-46403993D01*
X71538864Y-46383258D01*
X71152675Y-46367682D01*
X70775502Y-46357422D01*
X70413211Y-46352637D01*
X70071670Y-46353484D01*
X69756746Y-46360122D01*
X69474307Y-46372708D01*
X69463360Y-46373362D01*
X68856888Y-46423491D01*
X68278254Y-46499341D01*
X67725225Y-46601680D01*
X67195567Y-46731273D01*
X66687048Y-46888889D01*
X66197433Y-47075293D01*
X65724490Y-47291253D01*
X65265986Y-47537536D01*
X64819686Y-47814908D01*
X64398769Y-48112555D01*
X64225551Y-48247524D01*
X64030907Y-48408139D01*
X63818965Y-48590480D01*
X63593850Y-48790628D01*
X63359688Y-49004662D01*
X63120606Y-49228663D01*
X62880731Y-49458711D01*
X62644187Y-49690887D01*
X62415101Y-49921270D01*
X62197601Y-50145940D01*
X61995810Y-50360978D01*
X61813857Y-50562465D01*
X61783591Y-50596921D01*
X61354841Y-51107722D01*
X60964020Y-51616459D01*
X60610184Y-52125017D01*
X60292386Y-52635281D01*
X60009679Y-53149136D01*
X59761117Y-53668469D01*
X59545754Y-54195165D01*
X59362643Y-54731110D01*
X59210838Y-55278188D01*
X59089394Y-55838285D01*
X59054410Y-56034627D01*
X59028225Y-56195281D01*
X59010088Y-56319277D01*
X58999856Y-56408165D01*
X58997383Y-56463494D01*
X59002526Y-56486814D01*
X59012659Y-56482761D01*
X59028015Y-56460220D01*
X59059482Y-56410483D01*
X59103119Y-56339894D01*
X59154987Y-56254799D01*
X59181928Y-56210200D01*
X59508518Y-55689777D01*
X59856603Y-55176067D01*
X60219671Y-54678145D01*
X60591209Y-54205086D01*
X60801319Y-53953508D01*
X60883950Y-53860316D01*
X60989161Y-53747037D01*
X61111846Y-53618737D01*
X61246902Y-53480483D01*
X61389225Y-53337339D01*
X61533709Y-53194372D01*
X61675252Y-53056648D01*
X61808749Y-52929233D01*
X61929096Y-52817193D01*
X62031188Y-52725593D01*
X62083462Y-52680970D01*
X62571625Y-52298101D01*
X63067871Y-51953025D01*
X63573963Y-51644974D01*
X64091662Y-51373178D01*
X64622730Y-51136870D01*
X65168930Y-50935280D01*
X65732022Y-50767639D01*
X66313769Y-50633180D01*
X66915933Y-50531132D01*
X67052398Y-50512817D01*
X67158675Y-50499736D01*
X67251605Y-50489288D01*
X67324156Y-50482185D01*
X67369295Y-50479140D01*
X67380365Y-50479578D01*
X67373258Y-50489456D01*
X67337233Y-50509858D01*
X67279630Y-50536733D01*
X67266737Y-50542285D01*
X67210018Y-50567536D01*
X67125423Y-50606670D01*
X67020127Y-50656297D01*
X66901305Y-50713024D01*
X66776131Y-50773461D01*
X66723846Y-50798912D01*
X66115901Y-51116127D01*
X65535773Y-51460766D01*
X64983576Y-51832698D01*
X64459422Y-52231790D01*
X63963423Y-52657910D01*
X63495691Y-53110924D01*
X63056339Y-53590701D01*
X62645480Y-54097108D01*
X62263225Y-54630012D01*
X61909688Y-55189282D01*
X61584980Y-55774784D01*
X61289215Y-56386386D01*
X61022503Y-57023955D01*
X60784959Y-57687360D01*
X60727176Y-57866639D01*
X60510224Y-58613580D01*
X60330023Y-59361812D01*
X60185567Y-60116488D01*
X60075850Y-60882763D01*
X60009386Y-61544200D01*
X60001670Y-61666338D01*
X59995467Y-61820645D01*
X59990777Y-62000245D01*
X59987598Y-62198259D01*
X59985932Y-62407810D01*
X59985777Y-62622019D01*
X59987134Y-62834010D01*
X59990001Y-63036904D01*
X59994379Y-63223824D01*
X60000268Y-63387891D01*
X60007666Y-63522229D01*
X60009480Y-63546892D01*
X60023305Y-63709444D01*
X60040266Y-63884240D01*
X60059742Y-64066711D01*
X60081114Y-64252291D01*
X60103760Y-64436410D01*
X60127061Y-64614502D01*
X60150396Y-64781999D01*
X60173146Y-64934332D01*
X60194690Y-65066934D01*
X60214407Y-65175238D01*
X60231679Y-65254675D01*
X60245884Y-65300677D01*
X60248238Y-65305354D01*
X60262473Y-65320150D01*
X60265791Y-65311331D01*
X60269661Y-65275889D01*
X60279737Y-65207659D01*
X60295031Y-65112262D01*
X60314553Y-64995318D01*
X60337316Y-64862447D01*
X60362331Y-64719271D01*
X60388608Y-64571410D01*
X60415160Y-64424485D01*
X60440997Y-64284116D01*
X60465131Y-64155925D01*
X60486573Y-64045531D01*
X60500706Y-63975817D01*
X60669249Y-63237873D01*
X60861940Y-62525663D01*
X61078389Y-61839728D01*
X61318210Y-61180610D01*
X61581013Y-60548849D01*
X61866408Y-59944986D01*
X62174008Y-59369563D01*
X62503425Y-58823121D01*
X62854268Y-58306200D01*
X63226150Y-57819343D01*
X63618682Y-57363090D01*
X64031475Y-56937983D01*
X64464140Y-56544561D01*
X64916289Y-56183368D01*
X65387534Y-55854943D01*
X65877485Y-55559828D01*
X66385754Y-55298563D01*
X66889923Y-55080352D01*
X67414335Y-54892808D01*
X67951181Y-54739604D01*
X68502874Y-54620218D01*
X69071827Y-54534128D01*
X69654615Y-54481174D01*
X69779973Y-54474089D01*
X69903827Y-54468429D01*
X70020130Y-54464326D01*
X70122830Y-54461914D01*
X70205881Y-54461327D01*
X70263233Y-54462699D01*
X70288837Y-54466164D01*
X70289615Y-54467125D01*
X70283736Y-54486590D01*
X70267505Y-54536676D01*
X70243031Y-54610964D01*
X70212423Y-54703039D01*
X70192148Y-54763683D01*
X70159324Y-54863356D01*
X70132122Y-54949227D01*
X70112497Y-55014856D01*
X70102403Y-55053800D01*
X70101727Y-55061671D01*
X70121731Y-55058325D01*
X70171970Y-55044356D01*
X70245705Y-55021785D01*
X70336196Y-54992632D01*
X70376114Y-54979401D01*
X70737264Y-54869908D01*
X71125280Y-54772885D01*
X71529301Y-54690635D01*
X71938463Y-54625458D01*
X72194615Y-54594131D01*
X72304708Y-54585249D01*
X72447547Y-54578248D01*
X72616847Y-54573097D01*
X72806327Y-54569762D01*
X73009700Y-54568214D01*
X73220684Y-54568419D01*
X73432995Y-54570347D01*
X73640349Y-54573964D01*
X73836461Y-54579241D01*
X74015048Y-54586144D01*
X74169826Y-54594642D01*
X74294512Y-54604703D01*
X74295000Y-54604753D01*
X74481525Y-54624250D01*
X74664065Y-54644818D01*
X74846269Y-54667032D01*
X75031782Y-54691464D01*
X75224252Y-54718690D01*
X75427326Y-54749282D01*
X75644651Y-54783813D01*
X75879874Y-54822859D01*
X76136642Y-54866993D01*
X76418602Y-54916788D01*
X76729401Y-54972817D01*
X77072686Y-55035656D01*
X77294154Y-55076567D01*
X77602601Y-55133963D01*
X77899426Y-55189762D01*
X78188302Y-55244708D01*
X78472904Y-55299547D01*
X78756905Y-55355024D01*
X79043978Y-55411884D01*
X79337798Y-55470871D01*
X79642039Y-55532730D01*
X79960373Y-55598207D01*
X80296476Y-55668045D01*
X80654020Y-55742991D01*
X81036679Y-55823788D01*
X81448128Y-55911182D01*
X81892040Y-56005918D01*
X82149462Y-56061015D01*
X82512908Y-56138853D01*
X82840284Y-56208907D01*
X83133724Y-56271616D01*
X83395359Y-56327417D01*
X83627323Y-56376748D01*
X83831749Y-56420048D01*
X84010768Y-56457754D01*
X84166514Y-56490304D01*
X84301119Y-56518135D01*
X84416717Y-56541687D01*
X84515439Y-56561396D01*
X84567179Y-56571441D01*
X84567179Y-55313402D01*
X84200810Y-55313109D01*
X83819820Y-55303491D01*
X83428862Y-55284599D01*
X83032590Y-55256481D01*
X82635657Y-55219188D01*
X82325308Y-55183352D01*
X81781003Y-55105642D01*
X81214203Y-55006603D01*
X80633948Y-54887981D01*
X80049279Y-54751523D01*
X79912308Y-54717079D01*
X79767383Y-54679989D01*
X79633394Y-54645292D01*
X79507395Y-54612058D01*
X79386437Y-54579360D01*
X79267575Y-54546270D01*
X79147860Y-54511860D01*
X79024346Y-54475202D01*
X78894086Y-54435368D01*
X78754133Y-54391430D01*
X78601540Y-54342460D01*
X78433359Y-54287530D01*
X78246645Y-54225712D01*
X78038449Y-54156078D01*
X77805825Y-54077700D01*
X77545825Y-53989650D01*
X77255503Y-53890999D01*
X76931912Y-53780821D01*
X76844769Y-53751127D01*
X76509163Y-53639766D01*
X76202073Y-53544501D01*
X75917178Y-53463727D01*
X75648156Y-53395839D01*
X75388687Y-53339229D01*
X75132449Y-53292293D01*
X74900692Y-53257174D01*
X74807631Y-53247270D01*
X74686648Y-53238744D01*
X74544934Y-53231709D01*
X74389680Y-53226277D01*
X74228079Y-53222562D01*
X74067321Y-53220675D01*
X73914599Y-53220729D01*
X73777102Y-53222837D01*
X73662024Y-53227111D01*
X73576555Y-53233664D01*
X73557423Y-53236142D01*
X73500442Y-53243049D01*
X73463197Y-53244482D01*
X73454846Y-53241996D01*
X73469688Y-53227736D01*
X73510759Y-53194293D01*
X73572883Y-53145729D01*
X73650880Y-53086111D01*
X73713731Y-53038795D01*
X74051258Y-52801757D01*
X74390083Y-52596098D01*
X74736354Y-52419118D01*
X75096220Y-52268117D01*
X75475832Y-52140394D01*
X75881337Y-52033249D01*
X76121846Y-51981265D01*
X76326419Y-51943580D01*
X76551153Y-51907972D01*
X76781800Y-51876383D01*
X77004111Y-51850754D01*
X77203837Y-51833028D01*
X77216000Y-51832174D01*
X77300438Y-51825493D01*
X77370399Y-51818332D01*
X77416587Y-51811734D01*
X77429375Y-51808288D01*
X77414839Y-51801337D01*
X77366127Y-51785536D01*
X77286872Y-51761914D01*
X77180708Y-51731499D01*
X77051266Y-51695319D01*
X76902179Y-51654401D01*
X76737079Y-51609775D01*
X76579452Y-51567727D01*
X76388281Y-51517031D01*
X76197416Y-51466398D01*
X76012568Y-51417344D01*
X75839447Y-51371387D01*
X75683766Y-51330042D01*
X75551236Y-51294826D01*
X75447568Y-51267255D01*
X75404235Y-51255715D01*
X75096931Y-51173822D01*
X75159343Y-51093396D01*
X75192462Y-51054707D01*
X75247980Y-50994281D01*
X75320477Y-50917825D01*
X75404535Y-50831046D01*
X75494734Y-50739650D01*
X75505724Y-50728633D01*
X75797680Y-50455987D01*
X76093391Y-50219905D01*
X76396778Y-50017872D01*
X76711766Y-49847374D01*
X77042278Y-49705898D01*
X77176923Y-49657812D01*
X77417734Y-49583786D01*
X77656265Y-49526537D01*
X77900220Y-49485050D01*
X78157304Y-49458314D01*
X78435221Y-49445313D01*
X78741676Y-49445036D01*
X78787528Y-49445960D01*
X79073781Y-49456848D01*
X79347105Y-49477076D01*
X79616636Y-49507939D01*
X79891510Y-49550730D01*
X80180864Y-49606743D01*
X80493835Y-49677271D01*
X80596053Y-49702032D01*
X80693497Y-49725543D01*
X80776368Y-49744713D01*
X80837815Y-49758023D01*
X80870984Y-49763951D01*
X80874807Y-49763906D01*
X80864975Y-49747348D01*
X80834781Y-49701612D01*
X80786201Y-49629585D01*
X80721209Y-49534153D01*
X80641781Y-49418201D01*
X80549893Y-49284615D01*
X80447520Y-49136281D01*
X80336637Y-48976086D01*
X80254562Y-48857785D01*
X80138697Y-48690757D01*
X80029791Y-48533402D01*
X79929841Y-48388631D01*
X79840844Y-48259353D01*
X79764795Y-48148478D01*
X79703693Y-48058915D01*
X79659534Y-47993573D01*
X79634315Y-47955362D01*
X79629000Y-47946321D01*
X79647405Y-47939458D01*
X79698422Y-47936004D01*
X79775752Y-47935764D01*
X79873097Y-47938542D01*
X79984157Y-47944142D01*
X80102634Y-47952368D01*
X80222230Y-47963024D01*
X80246840Y-47965546D01*
X80704865Y-48029153D01*
X81136139Y-48121033D01*
X81541032Y-48241331D01*
X81919918Y-48390191D01*
X82273168Y-48567754D01*
X82601153Y-48774165D01*
X82862615Y-48974291D01*
X83145459Y-49233895D01*
X83410011Y-49523505D01*
X83650319Y-49836048D01*
X83851250Y-50148653D01*
X83912487Y-50253502D01*
X83976864Y-50363651D01*
X84036845Y-50466209D01*
X84084891Y-50548284D01*
X84086048Y-50550258D01*
X84267441Y-50826750D01*
X84467692Y-51069697D01*
X84686145Y-51278701D01*
X84922144Y-51453368D01*
X85175032Y-51593301D01*
X85444154Y-51698103D01*
X85728853Y-51767379D01*
X86028474Y-51800732D01*
X86162290Y-51803930D01*
X86234616Y-51803579D01*
X86299979Y-51802449D01*
X86363865Y-51800085D01*
X86431756Y-51796029D01*
X86509138Y-51789826D01*
X86601496Y-51781019D01*
X86714315Y-51769152D01*
X86853078Y-51753770D01*
X87023270Y-51734414D01*
X87090298Y-51726730D01*
X87149933Y-51720170D01*
X87149933Y-49078661D01*
X87161321Y-48894898D01*
X87185540Y-48655117D01*
X87228597Y-48393963D01*
X87287976Y-48122788D01*
X87361162Y-47852947D01*
X87445640Y-47595793D01*
X87454519Y-47571466D01*
X87506550Y-47441094D01*
X87574163Y-47287758D01*
X87652314Y-47121684D01*
X87735960Y-46953096D01*
X87820057Y-46792223D01*
X87899561Y-46649288D01*
X87954280Y-46558200D01*
X88199255Y-46193546D01*
X88467176Y-45843423D01*
X88718133Y-45550168D01*
X88773727Y-45487079D01*
X88817916Y-45434856D01*
X88845150Y-45400181D01*
X88851154Y-45389970D01*
X88837033Y-45371978D01*
X88801494Y-45340669D01*
X88783335Y-45326384D01*
X88715517Y-45274656D01*
X87850374Y-45888722D01*
X87686648Y-46004871D01*
X87532050Y-46114426D01*
X87389596Y-46215258D01*
X87262303Y-46305238D01*
X87153188Y-46382235D01*
X87065266Y-46444120D01*
X87001556Y-46488764D01*
X86965072Y-46514036D01*
X86957789Y-46518859D01*
X86944001Y-46525760D01*
X86940457Y-46522048D01*
X86949790Y-46502781D01*
X86974634Y-46463016D01*
X87017624Y-46397811D01*
X87040946Y-46362815D01*
X87270288Y-46044503D01*
X87532661Y-45725759D01*
X87822499Y-45412267D01*
X88134238Y-45109712D01*
X88462313Y-44823780D01*
X88801159Y-44560154D01*
X88816497Y-44548960D01*
X89181647Y-44299829D01*
X89560052Y-44075373D01*
X89896462Y-43900750D01*
X90097465Y-43804627D01*
X90274041Y-43725437D01*
X90435110Y-43659752D01*
X90589594Y-43604139D01*
X90746415Y-43555167D01*
X90913189Y-43509740D01*
X91104080Y-43464251D01*
X91272726Y-43432749D01*
X91432738Y-43413681D01*
X91597726Y-43405496D01*
X91781299Y-43406641D01*
X91809729Y-43407472D01*
X91933784Y-43412319D01*
X92028967Y-43418822D01*
X92105485Y-43428368D01*
X92173542Y-43442345D01*
X92243343Y-43462141D01*
X92266717Y-43469607D01*
X92338509Y-43494889D01*
X92392578Y-43517634D01*
X92420839Y-43534267D01*
X92423025Y-43538708D01*
X92411120Y-43557132D01*
X92378608Y-43605166D01*
X92327074Y-43680522D01*
X92258108Y-43780912D01*
X92173296Y-43904047D01*
X92074226Y-44047639D01*
X91962485Y-44209399D01*
X91839662Y-44387040D01*
X91707344Y-44578273D01*
X91567118Y-44780810D01*
X91420573Y-44992362D01*
X91269295Y-45210642D01*
X91114872Y-45433360D01*
X90958892Y-45658229D01*
X90802943Y-45882960D01*
X90648612Y-46105265D01*
X90497487Y-46322856D01*
X90351154Y-46533444D01*
X90211203Y-46734742D01*
X90079220Y-46924460D01*
X89956793Y-47100310D01*
X89845510Y-47260005D01*
X89746958Y-47401255D01*
X89662726Y-47521773D01*
X89594399Y-47619271D01*
X89543567Y-47691459D01*
X89511816Y-47736050D01*
X89500741Y-47750767D01*
X89506377Y-47732194D01*
X89524289Y-47679933D01*
X89553393Y-47597018D01*
X89592605Y-47486482D01*
X89640841Y-47351359D01*
X89697016Y-47194683D01*
X89760048Y-47019488D01*
X89828850Y-46828807D01*
X89902339Y-46625674D01*
X89936918Y-46530271D01*
X90012135Y-46322362D01*
X90083039Y-46125397D01*
X90148556Y-45942425D01*
X90207610Y-45776497D01*
X90259127Y-45630659D01*
X90302031Y-45507961D01*
X90335248Y-45411451D01*
X90357704Y-45344179D01*
X90368323Y-45309193D01*
X90368952Y-45304793D01*
X90351373Y-45313468D01*
X90308000Y-45343803D01*
X90243063Y-45392444D01*
X90160790Y-45456037D01*
X90065411Y-45531230D01*
X89961152Y-45614667D01*
X89852245Y-45702996D01*
X89742916Y-45792863D01*
X89637396Y-45880914D01*
X89563437Y-45943624D01*
X89458808Y-46035887D01*
X89335243Y-46149451D01*
X89198981Y-46278191D01*
X89056264Y-46415979D01*
X88913332Y-46556690D01*
X88776425Y-46694196D01*
X88651785Y-46822370D01*
X88545652Y-46935086D01*
X88484618Y-47002753D01*
X88127364Y-47437123D01*
X87804280Y-47887876D01*
X87516344Y-48353519D01*
X87264535Y-48832562D01*
X87213024Y-48941892D01*
X87149933Y-49078661D01*
X87149933Y-51720170D01*
X87204297Y-51714188D01*
X87304405Y-51704210D01*
X87384372Y-51697334D01*
X87437948Y-51694098D01*
X87458842Y-51694990D01*
X87452376Y-51714378D01*
X87422378Y-51754904D01*
X87373943Y-51811110D01*
X87312169Y-51877538D01*
X87242153Y-51948729D01*
X87168990Y-52019224D01*
X87097777Y-52083567D01*
X87088700Y-52091391D01*
X86799965Y-52313996D01*
X86492037Y-52503222D01*
X86161942Y-52660863D01*
X86106000Y-52683620D01*
X85982351Y-52728382D01*
X85834393Y-52775141D01*
X85675721Y-52820132D01*
X85519931Y-52859591D01*
X85380619Y-52889755D01*
X85326981Y-52899285D01*
X85255514Y-52912111D01*
X85214655Y-52923718D01*
X85205896Y-52935555D01*
X85230730Y-52949070D01*
X85290647Y-52965709D01*
X85387139Y-52986922D01*
X85425358Y-52994785D01*
X85726018Y-53042166D01*
X86042307Y-53066544D01*
X86357555Y-53066915D01*
X86491898Y-53059192D01*
X86670499Y-53042987D01*
X86845271Y-53021704D01*
X87019662Y-52994351D01*
X87197120Y-52959935D01*
X87381090Y-52917463D01*
X87575021Y-52865943D01*
X87782358Y-52804381D01*
X88006548Y-52731787D01*
X88251040Y-52647166D01*
X88519278Y-52549526D01*
X88814711Y-52437874D01*
X89140786Y-52311218D01*
X89281000Y-52255960D01*
X89388420Y-52213941D01*
X89482727Y-52177931D01*
X89558185Y-52150049D01*
X89609053Y-52132415D01*
X89629594Y-52127148D01*
X89629692Y-52127212D01*
X89620721Y-52144426D01*
X89589676Y-52187325D01*
X89539847Y-52251864D01*
X89474523Y-52334001D01*
X89396992Y-52429691D01*
X89310544Y-52534890D01*
X89218466Y-52645554D01*
X89124049Y-52757641D01*
X89030580Y-52867105D01*
X88985724Y-52919019D01*
X88813046Y-53114654D01*
X88631016Y-53314768D01*
X88443690Y-53515263D01*
X88255120Y-53712038D01*
X88069361Y-53900993D01*
X87890466Y-54078031D01*
X87722489Y-54239050D01*
X87569484Y-54379952D01*
X87435505Y-54496637D01*
X87383225Y-54539572D01*
X87118113Y-54728118D01*
X86825075Y-54891487D01*
X86507106Y-55028397D01*
X86167200Y-55137565D01*
X85808350Y-55217711D01*
X85793385Y-55220340D01*
X85532030Y-55257840D01*
X85237442Y-55285817D01*
X84914274Y-55304321D01*
X84567179Y-55313402D01*
X84567179Y-56571441D01*
X84599419Y-56577701D01*
X84670789Y-56591040D01*
X84731683Y-56601850D01*
X84784232Y-56610570D01*
X84830569Y-56617636D01*
X84872827Y-56623488D01*
X84913139Y-56628564D01*
X84914154Y-56628686D01*
X84983011Y-56636052D01*
X85076831Y-56644819D01*
X85186840Y-56654303D01*
X85304265Y-56663818D01*
X85420331Y-56672679D01*
X85526263Y-56680202D01*
X85613289Y-56685703D01*
X85672635Y-56688496D01*
X85683098Y-56688699D01*
X85682291Y-56701724D01*
X85655387Y-56738973D01*
X85604845Y-56797998D01*
X85533123Y-56876349D01*
X85442680Y-56971575D01*
X85335976Y-57081227D01*
X85215469Y-57202855D01*
X85083618Y-57334009D01*
X84942881Y-57472240D01*
X84795718Y-57615097D01*
X84644588Y-57760130D01*
X84491949Y-57904890D01*
X84340261Y-58046927D01*
X84191981Y-58183790D01*
X84083264Y-58282676D01*
X83306556Y-58958110D01*
X82500660Y-59608040D01*
X81666486Y-60231883D01*
X80804946Y-60829054D01*
X79916952Y-61398968D01*
X79003415Y-61941042D01*
X78065247Y-62454690D01*
X77103359Y-62939329D01*
X76118663Y-63394375D01*
X76087649Y-63408061D01*
X75944246Y-63470953D01*
X75786812Y-63539493D01*
X75627974Y-63608216D01*
X75480359Y-63671658D01*
X75363235Y-63721546D01*
X75191605Y-63795477D01*
X75028598Y-63868703D01*
X74870723Y-63943230D01*
X74714488Y-64021063D01*
X74556402Y-64104207D01*
X74392973Y-64194668D01*
X74220712Y-64294451D01*
X74036126Y-64405562D01*
X73835724Y-64530005D01*
X73616016Y-64669786D01*
X73373509Y-64826911D01*
X73104713Y-65003384D01*
X72927308Y-65120754D01*
X72710227Y-65265695D01*
X72524655Y-65391786D01*
X72368664Y-65500398D01*
X72240326Y-65592905D01*
X72137713Y-65670681D01*
X72058897Y-65735098D01*
X72033814Y-65757240D01*
X71979380Y-65808109D01*
X71910739Y-65874523D01*
X71832112Y-65952157D01*
X71747721Y-66036686D01*
X71661787Y-66123783D01*
X71578530Y-66209123D01*
X71502172Y-66288382D01*
X71436935Y-66357232D01*
X71387038Y-66411350D01*
X71356704Y-66446409D01*
X71349836Y-66458123D01*
X71369889Y-66454160D01*
X71425076Y-66442706D01*
X71512310Y-66424412D01*
X71628507Y-66399932D01*
X71770580Y-66369918D01*
X71935445Y-66335022D01*
X72120015Y-66295896D01*
X72321206Y-66253193D01*
X72535931Y-66207565D01*
X72694823Y-66173770D01*
X72950290Y-66119580D01*
X73219785Y-66062720D01*
X73496741Y-66004556D01*
X73774591Y-65946456D01*
X74046768Y-65889787D01*
X74306706Y-65835917D01*
X74547837Y-65786213D01*
X74763595Y-65742043D01*
X74939769Y-65706313D01*
X75241750Y-65645033D01*
X75510039Y-65589548D01*
X75749394Y-65538672D01*
X75964573Y-65491219D01*
X76160331Y-65446001D01*
X76341426Y-65401830D01*
X76512614Y-65357520D01*
X76678654Y-65311885D01*
X76844301Y-65263735D01*
X77014312Y-65211886D01*
X77193446Y-65155149D01*
X77343000Y-65106594D01*
X77710498Y-64982174D01*
X78076477Y-64849771D01*
X78443741Y-64708049D01*
X78815094Y-64555670D01*
X79193340Y-64391298D01*
X79581284Y-64213596D01*
X79981730Y-64021228D01*
X80397483Y-63812857D01*
X80831345Y-63587146D01*
X81286122Y-63342759D01*
X81764617Y-63078359D01*
X82269636Y-62792609D01*
X82617645Y-62592361D01*
X82753532Y-62513925D01*
X82878281Y-62442357D01*
X82987973Y-62379868D01*
X83078691Y-62328674D01*
X83146515Y-62290988D01*
X83187530Y-62269023D01*
X83198385Y-62264225D01*
X83196917Y-62284319D01*
X83187081Y-62328412D01*
X83182327Y-62346376D01*
X83158127Y-62400444D01*
X83110094Y-62468453D01*
X83035148Y-62554562D01*
X83002125Y-62589601D01*
X82495884Y-63137224D01*
X81994523Y-63716286D01*
X81504063Y-64319168D01*
X81030529Y-64938250D01*
X80579943Y-65565912D01*
X80183771Y-66155277D01*
X79896670Y-66609338D01*
X79624830Y-67065008D01*
X79362557Y-67532335D01*
X79104158Y-68021367D01*
X78926016Y-68374947D01*
X78586944Y-69091793D01*
X78278993Y-69809950D01*
X78000379Y-70534688D01*
X77749315Y-71271276D01*
X77524018Y-72024983D01*
X77322700Y-72801078D01*
X77143578Y-73604832D01*
X77127683Y-73682656D01*
X77092381Y-73856197D01*
X77060939Y-74008138D01*
X77032005Y-74143247D01*
X77004227Y-74266289D01*
X76976254Y-74382032D01*
X76946734Y-74495243D01*
X76914314Y-74610688D01*
X76877644Y-74733133D01*
X76835372Y-74867346D01*
X76786145Y-75018094D01*
X76728613Y-75190142D01*
X76661423Y-75388258D01*
X76583223Y-75617208D01*
X76559066Y-75687794D01*
X76506347Y-75842802D01*
X76458314Y-75985962D01*
X76416309Y-76113128D01*
X76381671Y-76220156D01*
X76355742Y-76302899D01*
X76339863Y-76357212D01*
X76335374Y-76378951D01*
X76335470Y-76379105D01*
X76351342Y-76368524D01*
X76391311Y-76333845D01*
X76451789Y-76278547D01*
X76529187Y-76206111D01*
X76619918Y-76120017D01*
X76720394Y-76023745D01*
X76827027Y-75920775D01*
X76936230Y-75814588D01*
X77044414Y-75708665D01*
X77147992Y-75606484D01*
X77243376Y-75511527D01*
X77326978Y-75427273D01*
X77395211Y-75357204D01*
X77444486Y-75304798D01*
X77454601Y-75293534D01*
X77548828Y-75182750D01*
X77648401Y-75057308D01*
X77754650Y-74915191D01*
X77868907Y-74754377D01*
X77992502Y-74572849D01*
X78126767Y-74368587D01*
X78273033Y-74139572D01*
X78432631Y-73883785D01*
X78606893Y-73599206D01*
X78797150Y-73283817D01*
X78964415Y-73003508D01*
X79066320Y-72832087D01*
X79176731Y-72646483D01*
X79290465Y-72455396D01*
X79402341Y-72267532D01*
X79507175Y-72091593D01*
X79599786Y-71936283D01*
X79639176Y-71870277D01*
X79701342Y-71765307D01*
X79780201Y-71630802D01*
X79873176Y-71471223D01*
X79977690Y-71291030D01*
X80091168Y-71094685D01*
X80211031Y-70886648D01*
X80334703Y-70671378D01*
X80459607Y-70453338D01*
X80583166Y-70236987D01*
X80615529Y-70180200D01*
X80790473Y-69873375D01*
X80948053Y-69597659D01*
X81090015Y-69350072D01*
X81218102Y-69127635D01*
X81334058Y-68927371D01*
X81439629Y-68746300D01*
X81536559Y-68581444D01*
X81626591Y-68429823D01*
X81711470Y-68288460D01*
X81792941Y-68154375D01*
X81872748Y-68024591D01*
X81952635Y-67896127D01*
X81959949Y-67884431D01*
X82292163Y-67370104D01*
X82643236Y-66858150D01*
X83010306Y-66351895D01*
X83390513Y-65854669D01*
X83780995Y-65369799D01*
X84178890Y-64900612D01*
X84581337Y-64450438D01*
X84985473Y-64022603D01*
X85388439Y-63620435D01*
X85787371Y-63247264D01*
X86179409Y-62906415D01*
X86383467Y-62739968D01*
X86859455Y-62378139D01*
X87336517Y-62050502D01*
X87821576Y-61752615D01*
X88321557Y-61480032D01*
X88440846Y-61419725D01*
X88575623Y-61353449D01*
X88704300Y-61292299D01*
X88832354Y-61233994D01*
X88853291Y-61224899D01*
X88853291Y-59264881D01*
X88567846Y-59263813D01*
X87493231Y-59258200D01*
X87481350Y-59180046D01*
X87471126Y-59107184D01*
X87469221Y-59063842D01*
X87477451Y-59041005D01*
X87497634Y-59029662D01*
X87512498Y-59025552D01*
X87556899Y-59015050D01*
X87634461Y-58997440D01*
X87742192Y-58973369D01*
X87877101Y-58943486D01*
X88036195Y-58908439D01*
X88216485Y-58868876D01*
X88414978Y-58825444D01*
X88628684Y-58778792D01*
X88854610Y-58729566D01*
X89089765Y-58678417D01*
X89331158Y-58625990D01*
X89575798Y-58572934D01*
X89820693Y-58519898D01*
X90062851Y-58467528D01*
X90299282Y-58416473D01*
X90453616Y-58383201D01*
X90453616Y-55669558D01*
X90447009Y-55663212D01*
X90448878Y-55643590D01*
X90460646Y-55606042D01*
X90483732Y-55545921D01*
X90519559Y-55458579D01*
X90562215Y-55356788D01*
X90714677Y-55033689D01*
X90885774Y-54744917D01*
X91075548Y-54490430D01*
X91284040Y-54270186D01*
X91511291Y-54084141D01*
X91757343Y-53932253D01*
X92022237Y-53814481D01*
X92089479Y-53791002D01*
X92179700Y-53764336D01*
X92299395Y-53733768D01*
X92439427Y-53701411D01*
X92590657Y-53669380D01*
X92739308Y-53640640D01*
X92834491Y-53623450D01*
X92956714Y-53601821D01*
X93102505Y-53576339D01*
X93268389Y-53547590D01*
X93450893Y-53516160D01*
X93646543Y-53482633D01*
X93851867Y-53447596D01*
X94063389Y-53411635D01*
X94277637Y-53375336D01*
X94491138Y-53339283D01*
X94700417Y-53304063D01*
X94902001Y-53270261D01*
X95088227Y-53239164D01*
X95088227Y-49249202D01*
X95047607Y-49076009D01*
X95023314Y-48962803D01*
X94998446Y-48830527D01*
X94975247Y-48692687D01*
X94955961Y-48562787D01*
X94942832Y-48454330D01*
X94940923Y-48433892D01*
X94935607Y-48342106D01*
X94932373Y-48221763D01*
X94931141Y-48083323D01*
X94931835Y-47937246D01*
X94934376Y-47793992D01*
X94938686Y-47664021D01*
X94944688Y-47557794D01*
X94947718Y-47522539D01*
X95011793Y-47069051D01*
X95113631Y-46612841D01*
X95252201Y-46155904D01*
X95426474Y-45700235D01*
X95635421Y-45247829D01*
X95878012Y-44800683D01*
X96153219Y-44360791D01*
X96460011Y-43930148D01*
X96797359Y-43510751D01*
X97164235Y-43104593D01*
X97297210Y-42968165D01*
X97739779Y-42548784D01*
X98202646Y-42160559D01*
X98683829Y-41804946D01*
X99181344Y-41483399D01*
X99693206Y-41197374D01*
X99753615Y-41166462D01*
X100240138Y-40936779D01*
X100722728Y-40743558D01*
X101206381Y-40585218D01*
X101696096Y-40460179D01*
X102196869Y-40366859D01*
X102352231Y-40344513D01*
X102421625Y-40336928D01*
X102513999Y-40329357D01*
X102623638Y-40322022D01*
X102744829Y-40315143D01*
X102871859Y-40308942D01*
X102999015Y-40303640D01*
X103120584Y-40299457D01*
X103230852Y-40296615D01*
X103324105Y-40295334D01*
X103394631Y-40295836D01*
X103436717Y-40298342D01*
X103445867Y-40302204D01*
X103425528Y-40312108D01*
X103373793Y-40334004D01*
X103295735Y-40365840D01*
X103196424Y-40405566D01*
X103080932Y-40451131D01*
X102986714Y-40487914D01*
X102759211Y-40576738D01*
X102562177Y-40654762D01*
X102389438Y-40724768D01*
X102234821Y-40789539D01*
X102092153Y-40851858D01*
X101955263Y-40914508D01*
X101817977Y-40980270D01*
X101674122Y-41051927D01*
X101517526Y-41132262D01*
X101342017Y-41224058D01*
X101273379Y-41260253D01*
X101148428Y-41326444D01*
X101035784Y-41386496D01*
X100939776Y-41438069D01*
X100864737Y-41478824D01*
X100814996Y-41506420D01*
X100794885Y-41518518D01*
X100794686Y-41518848D01*
X100813735Y-41514382D01*
X100866581Y-41500195D01*
X100949457Y-41477342D01*
X101058600Y-41446876D01*
X101190243Y-41409853D01*
X101340621Y-41367328D01*
X101505969Y-41320353D01*
X101647632Y-41279956D01*
X101980468Y-41185307D01*
X102279572Y-41101208D01*
X102548564Y-41026726D01*
X102791066Y-40960933D01*
X103010698Y-40902898D01*
X103211081Y-40851690D01*
X103395836Y-40806379D01*
X103568583Y-40766034D01*
X103732943Y-40729725D01*
X103892537Y-40696523D01*
X104003231Y-40674654D01*
X104119848Y-40653385D01*
X104221648Y-40638429D01*
X104320944Y-40628697D01*
X104430047Y-40623098D01*
X104561268Y-40620542D01*
X104618692Y-40620146D01*
X104772273Y-40620962D01*
X104895701Y-40625901D01*
X104997800Y-40636312D01*
X105087395Y-40653543D01*
X105173311Y-40678942D01*
X105264373Y-40713859D01*
X105282928Y-40721656D01*
X105364227Y-40756184D01*
X104840037Y-40998141D01*
X104474506Y-41167332D01*
X104141633Y-41322439D01*
X103838257Y-41465001D01*
X103561217Y-41596557D01*
X103307354Y-41718645D01*
X103073505Y-41832803D01*
X102856511Y-41940571D01*
X102653211Y-42043487D01*
X102460444Y-42143090D01*
X102275050Y-42240918D01*
X102156846Y-42304367D01*
X101612564Y-42609014D01*
X101104843Y-42915293D01*
X100631168Y-43224921D01*
X100189023Y-43539616D01*
X99775892Y-43861096D01*
X99389260Y-44191078D01*
X99374803Y-44204036D01*
X99283405Y-44287270D01*
X99190711Y-44373745D01*
X99100604Y-44459607D01*
X99016963Y-44541001D01*
X98943671Y-44614070D01*
X98884606Y-44674962D01*
X98843652Y-44719821D01*
X98824688Y-44744791D01*
X98826892Y-44748270D01*
X98847745Y-44738031D01*
X98899853Y-44711286D01*
X98979911Y-44669763D01*
X99084613Y-44615188D01*
X99210651Y-44549290D01*
X99354720Y-44473794D01*
X99513514Y-44390429D01*
X99683725Y-44300921D01*
X99747563Y-44267315D01*
X99920640Y-44176271D01*
X100083141Y-44090974D01*
X100231814Y-44013119D01*
X100363406Y-43944401D01*
X100474665Y-43886513D01*
X100562339Y-43841149D01*
X100623177Y-43810004D01*
X100653927Y-43794771D01*
X100657036Y-43793508D01*
X100674560Y-43808695D01*
X100701652Y-43845831D01*
X100730563Y-43892275D01*
X100753544Y-43935389D01*
X100762847Y-43962533D01*
X100762260Y-43965154D01*
X100745969Y-43978846D01*
X100700900Y-44014982D01*
X100629081Y-44071965D01*
X100532544Y-44148202D01*
X100413317Y-44242098D01*
X100273431Y-44352058D01*
X100114917Y-44476487D01*
X99939803Y-44613791D01*
X99750121Y-44762375D01*
X99547900Y-44920644D01*
X99335170Y-45087004D01*
X99140211Y-45239354D01*
X98881303Y-45441668D01*
X98651530Y-45621382D01*
X98449183Y-45779892D01*
X98272556Y-45918593D01*
X98119941Y-46038880D01*
X97989630Y-46142147D01*
X97879914Y-46229791D01*
X97789087Y-46303207D01*
X97715441Y-46363789D01*
X97657268Y-46412933D01*
X97612860Y-46452034D01*
X97580510Y-46482487D01*
X97558510Y-46505688D01*
X97545152Y-46523032D01*
X97538729Y-46535913D01*
X97537533Y-46545727D01*
X97537962Y-46548391D01*
X97547883Y-46586802D01*
X97553732Y-46601983D01*
X97572526Y-46596607D01*
X97625369Y-46579539D01*
X97709348Y-46551762D01*
X97821547Y-46514257D01*
X97959052Y-46468008D01*
X98118948Y-46413997D01*
X98298320Y-46353206D01*
X98494254Y-46286617D01*
X98703836Y-46215214D01*
X98903268Y-46147116D01*
X99123031Y-46072146D01*
X99332056Y-46001125D01*
X99527395Y-45935038D01*
X99706103Y-45874867D01*
X99865234Y-45821595D01*
X100001841Y-45776207D01*
X100112979Y-45739684D01*
X100195702Y-45713010D01*
X100247063Y-45697169D01*
X100264036Y-45692985D01*
X100258621Y-45709624D01*
X100231926Y-45752259D01*
X100187257Y-45816513D01*
X100127918Y-45898006D01*
X100057214Y-45992360D01*
X99978449Y-46095197D01*
X99894928Y-46202138D01*
X99809956Y-46308806D01*
X99726837Y-46410820D01*
X99678113Y-46469302D01*
X99484694Y-46690239D01*
X99270966Y-46918632D01*
X99044941Y-47146654D01*
X98814628Y-47366479D01*
X98588040Y-47570277D01*
X98373187Y-47750224D01*
X98340370Y-47776330D01*
X97953437Y-48060613D01*
X97541070Y-48324080D01*
X97110539Y-48562854D01*
X96669113Y-48773054D01*
X96224061Y-48950800D01*
X95992462Y-49029481D01*
X95873625Y-49065789D01*
X95741723Y-49103487D01*
X95605256Y-49140396D01*
X95472722Y-49174335D01*
X95352621Y-49203122D01*
X95253452Y-49224577D01*
X95187468Y-49236037D01*
X95088227Y-49249202D01*
X95088227Y-53239164D01*
X95092417Y-53238464D01*
X95268190Y-53209256D01*
X95425848Y-53183223D01*
X95561917Y-53160952D01*
X95672923Y-53143028D01*
X95755393Y-53130037D01*
X95805853Y-53122563D01*
X95821014Y-53121009D01*
X95806871Y-53132826D01*
X95763821Y-53163385D01*
X95695727Y-53210137D01*
X95606450Y-53270534D01*
X95499852Y-53342026D01*
X95379794Y-53422066D01*
X95250138Y-53508104D01*
X95114746Y-53597592D01*
X94977479Y-53687982D01*
X94842200Y-53776724D01*
X94712768Y-53861271D01*
X94593047Y-53939073D01*
X94486898Y-54007582D01*
X94398182Y-54064250D01*
X94330762Y-54106527D01*
X94295224Y-54128001D01*
X94090126Y-54242384D01*
X93865637Y-54357324D01*
X93618333Y-54474360D01*
X93344789Y-54595031D01*
X93041579Y-54720877D01*
X92705278Y-54853436D01*
X92543923Y-54915049D01*
X92468646Y-54943236D01*
X92366383Y-54981076D01*
X92241363Y-55027037D01*
X92097812Y-55079589D01*
X91939956Y-55137201D01*
X91772024Y-55198340D01*
X91598243Y-55261476D01*
X91422838Y-55325078D01*
X91250038Y-55387615D01*
X91084070Y-55447555D01*
X90929160Y-55503367D01*
X90789536Y-55553520D01*
X90669425Y-55596483D01*
X90573054Y-55630725D01*
X90504649Y-55654714D01*
X90468439Y-55666919D01*
X90467278Y-55667275D01*
X90453616Y-55669558D01*
X90453616Y-58383201D01*
X90526994Y-58367381D01*
X90742996Y-58320900D01*
X90944295Y-58277677D01*
X91127902Y-58238360D01*
X91290823Y-58203598D01*
X91430069Y-58174039D01*
X91542647Y-58150329D01*
X91625567Y-58133118D01*
X91675836Y-58123052D01*
X91690655Y-58120598D01*
X91685291Y-58135906D01*
X91655358Y-58173527D01*
X91605054Y-58229325D01*
X91538575Y-58299165D01*
X91460119Y-58378911D01*
X91373882Y-58464427D01*
X91284062Y-58551576D01*
X91194856Y-58636225D01*
X91110460Y-58714236D01*
X91035072Y-58781475D01*
X90972890Y-58833805D01*
X90945005Y-58855346D01*
X90798756Y-58953014D01*
X90638062Y-59043905D01*
X90475675Y-59121517D01*
X90324345Y-59179351D01*
X90287231Y-59190677D01*
X90222258Y-59206966D01*
X90147754Y-59220948D01*
X90060758Y-59232750D01*
X89958308Y-59242497D01*
X89837445Y-59250315D01*
X89695206Y-59256330D01*
X89528633Y-59260669D01*
X89334763Y-59263456D01*
X89110636Y-59264818D01*
X88853291Y-59264881D01*
X88853291Y-61224899D01*
X88965262Y-61176253D01*
X89108502Y-61116796D01*
X89267552Y-61053341D01*
X89447890Y-60983608D01*
X89654991Y-60905317D01*
X89857385Y-60829882D01*
X89999060Y-60777299D01*
X90129779Y-60728728D01*
X90244805Y-60685932D01*
X90339401Y-60650676D01*
X90408829Y-60624724D01*
X90448353Y-60609842D01*
X90454915Y-60607309D01*
X90472598Y-60607413D01*
X90486587Y-60628578D01*
X90499837Y-60677417D01*
X90510087Y-60730662D01*
X90534346Y-60866404D01*
X90427089Y-61196241D01*
X90216090Y-61891666D01*
X90031068Y-62601142D01*
X89871716Y-63326817D01*
X89737726Y-64070837D01*
X89628794Y-64835350D01*
X89544612Y-65622502D01*
X89484874Y-66434441D01*
X89449273Y-67273314D01*
X89437505Y-68129527D01*
X89438305Y-68320387D01*
X89440663Y-68530475D01*
X89444348Y-68748145D01*
X89449133Y-68961751D01*
X89454787Y-69159647D01*
X89461083Y-69330186D01*
X89461124Y-69331142D01*
X89470808Y-69588159D01*
X89477812Y-69841290D01*
X89482141Y-70085813D01*
X89483802Y-70317005D01*
X89482798Y-70530144D01*
X89479137Y-70720508D01*
X89472822Y-70883375D01*
X89463860Y-71014022D01*
X89459157Y-71059431D01*
X89387251Y-71530874D01*
X89285106Y-71981013D01*
X89151528Y-72412414D01*
X88985325Y-72827644D01*
X88785303Y-73229269D01*
X88550267Y-73619855D01*
X88279026Y-74001970D01*
X87970384Y-74378179D01*
X87856775Y-74505134D01*
X87616540Y-74752956D01*
X87342469Y-75007440D01*
X87033579Y-75269419D01*
X86688890Y-75539723D01*
X86307421Y-75819184D01*
X86301744Y-75823215D01*
X86135131Y-75942968D01*
X85976263Y-76059992D01*
X85827932Y-76172021D01*
X85692931Y-76276790D01*
X85574052Y-76372033D01*
X85474086Y-76455485D01*
X85395826Y-76524879D01*
X85342063Y-76577950D01*
X85315590Y-76612432D01*
X85314692Y-76624200D01*
X85335429Y-76623131D01*
X85390580Y-76616018D01*
X85476061Y-76603498D01*
X85587784Y-76586210D01*
X85721662Y-76564791D01*
X85873611Y-76539878D01*
X86039543Y-76512111D01*
X86115769Y-76499180D01*
X86287333Y-76470059D01*
X86447342Y-76443093D01*
X86591598Y-76418975D01*
X86715902Y-76398398D01*
X86816056Y-76382056D01*
X86887860Y-76370643D01*
X86927117Y-76364850D01*
X86932894Y-76364261D01*
X86933788Y-76378951D01*
X86912921Y-76420884D01*
X86872767Y-76486647D01*
X86815801Y-76572829D01*
X86744499Y-76676018D01*
X86661334Y-76792802D01*
X86568782Y-76919771D01*
X86469317Y-77053512D01*
X86365414Y-77190614D01*
X86259547Y-77327666D01*
X86154193Y-77461255D01*
X86051824Y-77587971D01*
X85997556Y-77653661D01*
X85495328Y-78227163D01*
X84970143Y-78770528D01*
X84423082Y-79282783D01*
X83855230Y-79762952D01*
X83267669Y-80210061D01*
X82794231Y-80536650D01*
X82575617Y-80678892D01*
X82374107Y-80805346D01*
X82180483Y-80921278D01*
X81985525Y-81031950D01*
X81780016Y-81142627D01*
X81554737Y-81258573D01*
X81358154Y-81356651D01*
X80779454Y-81626004D01*
X80205321Y-81859754D01*
X79630113Y-82059525D01*
X79048182Y-82226941D01*
X78453885Y-82363626D01*
X77841576Y-82471205D01*
X77206231Y-82551237D01*
X77075365Y-82561927D01*
X76912819Y-82570762D01*
X76725702Y-82577706D01*
X76521124Y-82582723D01*
X76306195Y-82585777D01*
X76088022Y-82586831D01*
X75873717Y-82585850D01*
X75670387Y-82582797D01*
X75485143Y-82577636D01*
X75325093Y-82570330D01*
X75203539Y-82561435D01*
X74516723Y-82479772D01*
X73838582Y-82364312D01*
X73167417Y-82214472D01*
X72501525Y-82029669D01*
X71839206Y-81809319D01*
X71178760Y-81552838D01*
X70518485Y-81259645D01*
X69856682Y-80929154D01*
X69191649Y-80560784D01*
X68944202Y-80414634D01*
X68841273Y-80353421D01*
X68750133Y-80300345D01*
X68675895Y-80258288D01*
X68623668Y-80230135D01*
X68598563Y-80218770D01*
X68597176Y-80218819D01*
X68607920Y-80234240D01*
X68642564Y-80272246D01*
X68696805Y-80328376D01*
X68766339Y-80398169D01*
X68838666Y-80469198D01*
X69210274Y-80805696D01*
X69616280Y-81126288D01*
X70055100Y-81430305D01*
X70525148Y-81717079D01*
X71024840Y-81985941D01*
X71552591Y-82236224D01*
X72106815Y-82467259D01*
X72685929Y-82678377D01*
X73288347Y-82868911D01*
X73912484Y-83038193D01*
X74556755Y-83185553D01*
X75219575Y-83310324D01*
X75779923Y-83395875D01*
X76432977Y-83471776D01*
X77109326Y-83524491D01*
X77800748Y-83553934D01*
X78499018Y-83560018D01*
X79195912Y-83542655D01*
X79883207Y-83501758D01*
X80478923Y-83445634D01*
X81217575Y-83348097D01*
X81944086Y-83221988D01*
X82656576Y-83068034D01*
X83353165Y-82886961D01*
X84031975Y-82679492D01*
X84691126Y-82446355D01*
X85328737Y-82188273D01*
X85942930Y-81905972D01*
X86531824Y-81600177D01*
X87093540Y-81271614D01*
X87626199Y-80921007D01*
X88127920Y-80549083D01*
X88260115Y-80443248D01*
X88321171Y-80394743D01*
X88369014Y-80359024D01*
X88397104Y-80340852D01*
X88401769Y-80340166D01*
X88389886Y-80363656D01*
X88356972Y-80411882D01*
X88307131Y-80479661D01*
X88244466Y-80561807D01*
X88173080Y-80653135D01*
X88097077Y-80748462D01*
X88020561Y-80842601D01*
X87947633Y-80930369D01*
X87882399Y-81006581D01*
X87828961Y-81066053D01*
X87818660Y-81076932D01*
X87755602Y-81138508D01*
X87676934Y-81207660D01*
X87580462Y-81285991D01*
X87463996Y-81375104D01*
X87325343Y-81476601D01*
X87162311Y-81592086D01*
X86972709Y-81723162D01*
X86754344Y-81871431D01*
X86505023Y-82038496D01*
X86489657Y-82048736D01*
X86206508Y-82235705D01*
X85943162Y-82405762D01*
X85692716Y-82562941D01*
X85448266Y-82711276D01*
X85202910Y-82854800D01*
X84949745Y-82997546D01*
X84681867Y-83143548D01*
X84392375Y-83296839D01*
X84074365Y-83461453D01*
X84054462Y-83471658D01*
X83883110Y-83559642D01*
X83710887Y-83648391D01*
X83543502Y-83734941D01*
X83386665Y-83816327D01*
X83246088Y-83889585D01*
X83127480Y-83951750D01*
X83036552Y-83999857D01*
X83018923Y-84009281D01*
X82592815Y-84243689D01*
X82201296Y-84471829D01*
X81840864Y-84696162D01*
X81508022Y-84919153D01*
X81199267Y-85143264D01*
X80911100Y-85370958D01*
X80640020Y-85604698D01*
X80382528Y-85846948D01*
X80321787Y-85907205D01*
X80101613Y-86136116D01*
X79912365Y-86351328D01*
X79750490Y-86557540D01*
X79612437Y-86759448D01*
X79494653Y-86961750D01*
X79434298Y-87080969D01*
X79340740Y-87293575D01*
X79273193Y-87491306D01*
X79228925Y-87685761D01*
X79205204Y-87888537D01*
X79199154Y-88079149D01*
X79199511Y-88180080D01*
X79201268Y-88248307D01*
X79205457Y-88290203D01*
X79213108Y-88312138D01*
X79225252Y-88320485D01*
X79238389Y-88321661D01*
X79271086Y-88307666D01*
X79300456Y-88262029D01*
X79310414Y-88238623D01*
X79418284Y-87997051D01*
X79551625Y-87750048D01*
X79704537Y-87506354D01*
X79871118Y-87274712D01*
X80045468Y-87063863D01*
X80221684Y-86882550D01*
X80232710Y-86872320D01*
X80436615Y-86695154D01*
X80650670Y-86531110D01*
X80878207Y-86378571D01*
X81122559Y-86235922D01*
X81387060Y-86101545D01*
X81675042Y-85973825D01*
X81989838Y-85851144D01*
X82334783Y-85731887D01*
X82713207Y-85614436D01*
X82989615Y-85535262D01*
X83395458Y-85421582D01*
X83767873Y-85315442D01*
X84111461Y-85215397D01*
X84430825Y-85120002D01*
X84730566Y-85027814D01*
X85015286Y-84937387D01*
X85289587Y-84847278D01*
X85558071Y-84756041D01*
X85825340Y-84662232D01*
X86095996Y-84564407D01*
X86174385Y-84535594D01*
X86801218Y-84292891D01*
X87424801Y-84028909D01*
X88038330Y-83746930D01*
X88634998Y-83450239D01*
X89208002Y-83142119D01*
X89750538Y-82825854D01*
X89837141Y-82772661D01*
X89837141Y-73762824D01*
X89829372Y-73756294D01*
X89833257Y-73741085D01*
X89841890Y-73715867D01*
X89860658Y-73659370D01*
X89887625Y-73577481D01*
X89920854Y-73476086D01*
X89958408Y-73361073D01*
X89969870Y-73325892D01*
X90001013Y-73230187D01*
X90027744Y-73147105D01*
X90051072Y-73072379D01*
X90072004Y-73001742D01*
X90091549Y-72930927D01*
X90110714Y-72855666D01*
X90130508Y-72771694D01*
X90151938Y-72674743D01*
X90176012Y-72560545D01*
X90203739Y-72424834D01*
X90236126Y-72263343D01*
X90274182Y-72071805D01*
X90316031Y-71860508D01*
X90376833Y-71551655D01*
X90430037Y-71276125D01*
X90476191Y-71029021D01*
X90515842Y-70805448D01*
X90549538Y-70600508D01*
X90577826Y-70409305D01*
X90601253Y-70226944D01*
X90620367Y-70048528D01*
X90635716Y-69869162D01*
X90647846Y-69683948D01*
X90657306Y-69487990D01*
X90664642Y-69276393D01*
X90670403Y-69044261D01*
X90675135Y-68786696D01*
X90677578Y-68626892D01*
X90683219Y-68300052D01*
X90690205Y-68008496D01*
X90698709Y-67748450D01*
X90708903Y-67516140D01*
X90720961Y-67307789D01*
X90735056Y-67119624D01*
X90751361Y-66947870D01*
X90756850Y-66897738D01*
X90810929Y-66495380D01*
X90879634Y-66122567D01*
X90964957Y-65771866D01*
X91068888Y-65435844D01*
X91193418Y-65107068D01*
X91303761Y-64855969D01*
X91364339Y-64722442D01*
X91412707Y-64606630D01*
X91451983Y-64498552D01*
X91485288Y-64388226D01*
X91515738Y-64265667D01*
X91546454Y-64120895D01*
X91568090Y-64009879D01*
X91599140Y-63849425D01*
X91625510Y-63719851D01*
X91649083Y-63613515D01*
X91671743Y-63522775D01*
X91695371Y-63439988D01*
X91721852Y-63357513D01*
X91746203Y-63287057D01*
X91806939Y-63115144D01*
X91867700Y-63128147D01*
X91912473Y-63139452D01*
X91936738Y-63148809D01*
X91937003Y-63149036D01*
X91939722Y-63169590D01*
X91944021Y-63225148D01*
X91949667Y-63311678D01*
X91956425Y-63425150D01*
X91964058Y-63561534D01*
X91972333Y-63716797D01*
X91981013Y-63886910D01*
X91986482Y-63997781D01*
X91996666Y-64206400D01*
X92005419Y-64379296D01*
X92013282Y-64519774D01*
X92020798Y-64631136D01*
X92028507Y-64716687D01*
X92036951Y-64779732D01*
X92046673Y-64823573D01*
X92058213Y-64851516D01*
X92072114Y-64866864D01*
X92088917Y-64872921D01*
X92109163Y-64872992D01*
X92129598Y-64870800D01*
X92139434Y-64866439D01*
X92152133Y-64853869D01*
X92168798Y-64830888D01*
X92190529Y-64795294D01*
X92218426Y-64744883D01*
X92253589Y-64677456D01*
X92297120Y-64590808D01*
X92350119Y-64482738D01*
X92413687Y-64351045D01*
X92488924Y-64193524D01*
X92576931Y-64007976D01*
X92678809Y-63792197D01*
X92795657Y-63543985D01*
X92842071Y-63445263D01*
X92945837Y-63224649D01*
X93044767Y-63014630D01*
X93137612Y-62817837D01*
X93223122Y-62636903D01*
X93300049Y-62474459D01*
X93367145Y-62333139D01*
X93423159Y-62215575D01*
X93466845Y-62124399D01*
X93496953Y-62062244D01*
X93512234Y-62031741D01*
X93513927Y-62028998D01*
X93519964Y-62048155D01*
X93535047Y-62100387D01*
X93557882Y-62181083D01*
X93587172Y-62285635D01*
X93621625Y-62409432D01*
X93659945Y-62547866D01*
X93676695Y-62608587D01*
X93716355Y-62751923D01*
X93752841Y-62882680D01*
X93784835Y-62996218D01*
X93811018Y-63087896D01*
X93830070Y-63153072D01*
X93840671Y-63187107D01*
X93842271Y-63190984D01*
X93845280Y-63189846D01*
X93852242Y-63182508D01*
X93864289Y-63167315D01*
X93882554Y-63142608D01*
X93908169Y-63106732D01*
X93942265Y-63058029D01*
X93985976Y-62994843D01*
X94040432Y-62915517D01*
X94106766Y-62818393D01*
X94186110Y-62701815D01*
X94279596Y-62564127D01*
X94388356Y-62403671D01*
X94513522Y-62218790D01*
X94656226Y-62007828D01*
X94817601Y-61769127D01*
X94998778Y-61501031D01*
X95161025Y-61260892D01*
X95293657Y-61064665D01*
X95420122Y-60877745D01*
X95538691Y-60702676D01*
X95647635Y-60542002D01*
X95745225Y-60398269D01*
X95829731Y-60274021D01*
X95899425Y-60171802D01*
X95952576Y-60094158D01*
X95987457Y-60043632D01*
X96002337Y-60022770D01*
X96002593Y-60022478D01*
X96012315Y-60036227D01*
X96032433Y-60083278D01*
X96061524Y-60159685D01*
X96098161Y-60261503D01*
X96140920Y-60384789D01*
X96188376Y-60525598D01*
X96230195Y-60652594D01*
X96279733Y-60803579D01*
X96325792Y-60942079D01*
X96366920Y-61063873D01*
X96401665Y-61164740D01*
X96428578Y-61240459D01*
X96446205Y-61286812D01*
X96452819Y-61299969D01*
X96462257Y-61282412D01*
X96484415Y-61232266D01*
X96517734Y-61153316D01*
X96560657Y-61049350D01*
X96611627Y-60924153D01*
X96669087Y-60781512D01*
X96731478Y-60625213D01*
X96762211Y-60547738D01*
X96826434Y-60386300D01*
X96886534Y-60236741D01*
X96940944Y-60102847D01*
X96988099Y-59988405D01*
X97026431Y-59897200D01*
X97054376Y-59833020D01*
X97070366Y-59799649D01*
X97073312Y-59795685D01*
X97091237Y-59811788D01*
X97124411Y-59855725D01*
X97168878Y-59921297D01*
X97220684Y-60002306D01*
X97275874Y-60092553D01*
X97330492Y-60185840D01*
X97380583Y-60275968D01*
X97384871Y-60283969D01*
X97560720Y-60649732D01*
X97713594Y-61042808D01*
X97843133Y-61458641D01*
X97948976Y-61892676D01*
X98030765Y-62340358D01*
X98088137Y-62797132D01*
X98120735Y-63258442D01*
X98128198Y-63719733D01*
X98110166Y-64176451D01*
X98066278Y-64624039D01*
X97996176Y-65057944D01*
X97899499Y-65473609D01*
X97816676Y-65748708D01*
X97780274Y-65849117D01*
X97732769Y-65966522D01*
X97677503Y-66093904D01*
X97617820Y-66224248D01*
X97557061Y-66350536D01*
X97498570Y-66465751D01*
X97445689Y-66562877D01*
X97401763Y-66634896D01*
X97380979Y-66663277D01*
X97332252Y-66721892D01*
X97331549Y-65326520D01*
X97331285Y-65097241D01*
X97330746Y-64879998D01*
X97329957Y-64677856D01*
X97328945Y-64493876D01*
X97327735Y-64331123D01*
X97326352Y-64192660D01*
X97324823Y-64081549D01*
X97323173Y-64000854D01*
X97321428Y-63953639D01*
X97319930Y-63942065D01*
X97306296Y-63970082D01*
X97284773Y-64033312D01*
X97256099Y-64128854D01*
X97221012Y-64253807D01*
X97180250Y-64405270D01*
X97134550Y-64580344D01*
X97084650Y-64776127D01*
X97031288Y-64989718D01*
X96975201Y-65218218D01*
X96917127Y-65458726D01*
X96857804Y-65708340D01*
X96797969Y-65964161D01*
X96738359Y-66223288D01*
X96726229Y-66276576D01*
X96683038Y-66466323D01*
X96639976Y-66654853D01*
X96598351Y-66836488D01*
X96559470Y-67005547D01*
X96524642Y-67156352D01*
X96495172Y-67283223D01*
X96472369Y-67380481D01*
X96463924Y-67416030D01*
X96343217Y-67887839D01*
X96215114Y-68323987D01*
X96078515Y-68727381D01*
X95932316Y-69100928D01*
X95775415Y-69447533D01*
X95606710Y-69770103D01*
X95504946Y-69944158D01*
X95432247Y-70058169D01*
X95344460Y-70187284D01*
X95248560Y-70321931D01*
X95151519Y-70452536D01*
X95060311Y-70569525D01*
X94981909Y-70663327D01*
X94977184Y-70668661D01*
X94937964Y-70711254D01*
X94918913Y-70726217D01*
X94915207Y-70715961D01*
X94918505Y-70697969D01*
X94924828Y-70669845D01*
X94938909Y-70607391D01*
X94959896Y-70514391D01*
X94986931Y-70394630D01*
X95019162Y-70251895D01*
X95055733Y-70089970D01*
X95095790Y-69912639D01*
X95138478Y-69723690D01*
X95152179Y-69663049D01*
X95194986Y-69473001D01*
X95234869Y-69294778D01*
X95271046Y-69131955D01*
X95302738Y-68988103D01*
X95329160Y-68866798D01*
X95349533Y-68771611D01*
X95363075Y-68706117D01*
X95369003Y-68673889D01*
X95369131Y-68671125D01*
X95357982Y-68685576D01*
X95329591Y-68729295D01*
X95286648Y-68797938D01*
X95231844Y-68887163D01*
X95167870Y-68992627D01*
X95103174Y-69100353D01*
X94902655Y-69434376D01*
X94719131Y-69736995D01*
X94550727Y-70011024D01*
X94395568Y-70259277D01*
X94251778Y-70484568D01*
X94117484Y-70689713D01*
X93990809Y-70877525D01*
X93869880Y-71050819D01*
X93752820Y-71212410D01*
X93637756Y-71365111D01*
X93522812Y-71511738D01*
X93406114Y-71655104D01*
X93381541Y-71684661D01*
X93226066Y-71862380D01*
X93050637Y-72047970D01*
X92862573Y-72234550D01*
X92669192Y-72415237D01*
X92477814Y-72583152D01*
X92295758Y-72731412D01*
X92162923Y-72830409D01*
X92089583Y-72881594D01*
X92043816Y-72911421D01*
X92021959Y-72922012D01*
X92020350Y-72915491D01*
X92022401Y-72911887D01*
X92032370Y-72890718D01*
X92056520Y-72837170D01*
X92093339Y-72754652D01*
X92141319Y-72646576D01*
X92198948Y-72516349D01*
X92264717Y-72367382D01*
X92337115Y-72203084D01*
X92414633Y-72026866D01*
X92444565Y-71958745D01*
X92854674Y-71025108D01*
X92811645Y-70989680D01*
X92761360Y-70952954D01*
X92723590Y-70929701D01*
X92689631Y-70916611D01*
X92662806Y-70927305D01*
X92635667Y-70956321D01*
X92609529Y-70987440D01*
X92563119Y-71042632D01*
X92501334Y-71116079D01*
X92429068Y-71201961D01*
X92357108Y-71287461D01*
X92275275Y-71384868D01*
X92175608Y-71503803D01*
X92065239Y-71635737D01*
X91951302Y-71772139D01*
X91840930Y-71904477D01*
X91788051Y-71967969D01*
X91514693Y-72288727D01*
X91255322Y-72576897D01*
X91007110Y-72835167D01*
X90767228Y-73066223D01*
X90532847Y-73272750D01*
X90301138Y-73457435D01*
X90069271Y-73622965D01*
X89990081Y-73675241D01*
X89912994Y-73724187D01*
X89863515Y-73752751D01*
X89837141Y-73762824D01*
X89837141Y-82772661D01*
X89872039Y-82751225D01*
X89968891Y-82691472D01*
X90053236Y-82640100D01*
X90119927Y-82600189D01*
X90163820Y-82574816D01*
X90179768Y-82567061D01*
X90179769Y-82567078D01*
X90171864Y-82590204D01*
X90149089Y-82645663D01*
X90112855Y-82730262D01*
X90064572Y-82840810D01*
X90005651Y-82974115D01*
X89937501Y-83126984D01*
X89861534Y-83296227D01*
X89779160Y-83478651D01*
X89696036Y-83661738D01*
X89551232Y-83982538D01*
X89423222Y-84272305D01*
X89310699Y-84534641D01*
X89212357Y-84773148D01*
X89126891Y-84991425D01*
X89052996Y-85193073D01*
X88989365Y-85381694D01*
X88934693Y-85560889D01*
X88887673Y-85734258D01*
X88847001Y-85905402D01*
X88811370Y-86077923D01*
X88802141Y-86126848D01*
X88772174Y-86313859D01*
X88748660Y-86512160D01*
X88731868Y-86714402D01*
X88722068Y-86913232D01*
X88719529Y-87101299D01*
X88724521Y-87271252D01*
X88737313Y-87415740D01*
X88751761Y-87501046D01*
X88766819Y-87569431D01*
X88789629Y-87481508D01*
X88852722Y-87246805D01*
X88913049Y-87041703D01*
X88973717Y-86857170D01*
X89037828Y-86684173D01*
X89108488Y-86513679D01*
X89167118Y-86383161D01*
X89246343Y-86216466D01*
X89328105Y-86054666D01*
X89414361Y-85894917D01*
X89507065Y-85734374D01*
X89608172Y-85570193D01*
X89719638Y-85399532D01*
X89843419Y-85219544D01*
X89981468Y-85027388D01*
X90135743Y-84820218D01*
X90308197Y-84595190D01*
X90500786Y-84349461D01*
X90715466Y-84080186D01*
X90950770Y-83788738D01*
X91049561Y-83665813D01*
X91167000Y-83517735D01*
X91298314Y-83350636D01*
X91438730Y-83170645D01*
X91583475Y-82983891D01*
X91727778Y-82796504D01*
X91866865Y-82614614D01*
X91944587Y-82512308D01*
X92077744Y-82336542D01*
X92218025Y-82151361D01*
X92360773Y-81962914D01*
X92501331Y-81777349D01*
X92635042Y-81600813D01*
X92757251Y-81439456D01*
X92863299Y-81299425D01*
X92917013Y-81228491D01*
X93216070Y-80829495D01*
X93490104Y-80455121D01*
X93741323Y-80101962D01*
X93971935Y-79766615D01*
X94184147Y-79445674D01*
X94380168Y-79135733D01*
X94562206Y-78833388D01*
X94732469Y-78535234D01*
X94893165Y-78237865D01*
X95032342Y-77966277D01*
X95119288Y-77790146D01*
X95198712Y-77624030D01*
X95272566Y-77463011D01*
X95342799Y-77302169D01*
X95411363Y-77136584D01*
X95480206Y-76961338D01*
X95551281Y-76771510D01*
X95626538Y-76562181D01*
X95707926Y-76328432D01*
X95797396Y-76065343D01*
X95859901Y-75878994D01*
X95918050Y-75704976D01*
X95972319Y-75542717D01*
X96021474Y-75395895D01*
X96064281Y-75268189D01*
X96099507Y-75163279D01*
X96125916Y-75084843D01*
X96142277Y-75036559D01*
X96147380Y-75021933D01*
X96166172Y-75022819D01*
X96207037Y-75030997D01*
X96254559Y-75042732D01*
X96293320Y-75054292D01*
X96307487Y-75060713D01*
X96305477Y-75081180D01*
X96295819Y-75135561D01*
X96279377Y-75219635D01*
X96257016Y-75329175D01*
X96229599Y-75459960D01*
X96197991Y-75607764D01*
X96163055Y-75768365D01*
X96158255Y-75790229D01*
X96098007Y-76065673D01*
X96042032Y-76324559D01*
X95989508Y-76571143D01*
X95939608Y-76809684D01*
X95891509Y-77044440D01*
X95844385Y-77279667D01*
X95797413Y-77519625D01*
X95749768Y-77768570D01*
X95700626Y-78030760D01*
X95649161Y-78310453D01*
X95594550Y-78611907D01*
X95535968Y-78939379D01*
X95472590Y-79297128D01*
X95407676Y-79666123D01*
X95357965Y-79952237D01*
X95308713Y-80241029D01*
X95260493Y-80528828D01*
X95213881Y-80811961D01*
X95169452Y-81086758D01*
X95127781Y-81349545D01*
X95089442Y-81596652D01*
X95055011Y-81824406D01*
X95025062Y-82029135D01*
X95000170Y-82207168D01*
X94980911Y-82354833D01*
X94967858Y-82468457D01*
X94966005Y-82487170D01*
X94958646Y-82605141D01*
X94958607Y-82734426D01*
X94966288Y-82880281D01*
X94982090Y-83047963D01*
X95006415Y-83242731D01*
X95039662Y-83469840D01*
X95042148Y-83485892D01*
X95061546Y-83609841D01*
X95076289Y-83699494D01*
X95087637Y-83759180D01*
X95096852Y-83793230D01*
X95105194Y-83805975D01*
X95113922Y-83801743D01*
X95124299Y-83784866D01*
X95127441Y-83778904D01*
X95142233Y-83747130D01*
X95170073Y-83684023D01*
X95208934Y-83594300D01*
X95256791Y-83482680D01*
X95311618Y-83353883D01*
X95371389Y-83212626D01*
X95412673Y-83114596D01*
X95521048Y-82857717D01*
X95617418Y-82631779D01*
X95704336Y-82431460D01*
X95784357Y-82251438D01*
X95860035Y-82086392D01*
X95933925Y-81930999D01*
X96008580Y-81779938D01*
X96086556Y-81627885D01*
X96170405Y-81469521D01*
X96262682Y-81299521D01*
X96365942Y-81112566D01*
X96420696Y-81014277D01*
X96530296Y-80814343D01*
X96649187Y-80591068D01*
X96773697Y-80351780D01*
X96900153Y-80103806D01*
X97024884Y-79854473D01*
X97144217Y-79611109D01*
X97254480Y-79381042D01*
X97352001Y-79171599D01*
X97419459Y-79021354D01*
X97735571Y-78264329D01*
X98015202Y-77514372D01*
X98258570Y-76769431D01*
X98465896Y-76027451D01*
X98637399Y-75286380D01*
X98773299Y-74544163D01*
X98873814Y-73798747D01*
X98939166Y-73048078D01*
X98969574Y-72290102D01*
X98965256Y-71522767D01*
X98926433Y-70744018D01*
X98853324Y-69951801D01*
X98746149Y-69144064D01*
X98605128Y-68318753D01*
X98578644Y-68180862D01*
X98552338Y-68044808D01*
X98532809Y-67938193D01*
X98519211Y-67852126D01*
X98510698Y-67777721D01*
X98506425Y-67706087D01*
X98505544Y-67628338D01*
X98507210Y-67535583D01*
X98509510Y-67454585D01*
X98514453Y-67335305D01*
X98522518Y-67217408D01*
X98534400Y-67097504D01*
X98550794Y-66972203D01*
X98572395Y-66838115D01*
X98599899Y-66691850D01*
X98634000Y-66530018D01*
X98675393Y-66349228D01*
X98724774Y-66146090D01*
X98782838Y-65917216D01*
X98850280Y-65659213D01*
X98927794Y-65368693D01*
X98967114Y-65222870D01*
X99021527Y-65022790D01*
X99067087Y-64858044D01*
X99104580Y-64726098D01*
X99134788Y-64624417D01*
X99158498Y-64550466D01*
X99176492Y-64501709D01*
X99189556Y-64475611D01*
X99198473Y-64469638D01*
X99199833Y-64470639D01*
X99221091Y-64500471D01*
X99256549Y-64558563D01*
X99302625Y-64638379D01*
X99355740Y-64733381D01*
X99412314Y-64837032D01*
X99468766Y-64942796D01*
X99521517Y-65044134D01*
X99566988Y-65134509D01*
X99592742Y-65188123D01*
X99775949Y-65609050D01*
X99935181Y-66036690D01*
X100070982Y-66474162D01*
X100183893Y-66924586D01*
X100274457Y-67391083D01*
X100343218Y-67876773D01*
X100390717Y-68384777D01*
X100417497Y-68918215D01*
X100424100Y-69480206D01*
X100416106Y-69923411D01*
X100409551Y-70127653D01*
X100402058Y-70328331D01*
X100393401Y-70528631D01*
X100383354Y-70731740D01*
X100371692Y-70940844D01*
X100358188Y-71159130D01*
X100342616Y-71389784D01*
X100324751Y-71635994D01*
X100304366Y-71900945D01*
X100281235Y-72187824D01*
X100255133Y-72499818D01*
X100225833Y-72840114D01*
X100193110Y-73211898D01*
X100156737Y-73618356D01*
X100144338Y-73755738D01*
X100122412Y-73998295D01*
X100101251Y-74232486D01*
X100081159Y-74454959D01*
X100062438Y-74662357D01*
X100045390Y-74851325D01*
X100030318Y-75018509D01*
X100017525Y-75160553D01*
X100007312Y-75274101D01*
X99999984Y-75355799D01*
X99995841Y-75402292D01*
X99995600Y-75405031D01*
X99982891Y-75549862D01*
X100039847Y-75509305D01*
X100075121Y-75479560D01*
X100133372Y-75424971D01*
X100210951Y-75349294D01*
X100304209Y-75256287D01*
X100409499Y-75149707D01*
X100523170Y-75033311D01*
X100641573Y-74910856D01*
X100761061Y-74786098D01*
X100877983Y-74662796D01*
X100988692Y-74544706D01*
X101089537Y-74435585D01*
X101176871Y-74339190D01*
X101183605Y-74331646D01*
X101692793Y-73735905D01*
X102165207Y-73132319D01*
X102600608Y-72521323D01*
X102998756Y-71903349D01*
X103359411Y-71278830D01*
X103682334Y-70648199D01*
X103967286Y-70011888D01*
X104214026Y-69370331D01*
X104422314Y-68723961D01*
X104549353Y-68251729D01*
X104626938Y-67922040D01*
X104692177Y-67609264D01*
X104747111Y-67301309D01*
X104793782Y-66986078D01*
X104834232Y-66651478D01*
X104857100Y-66428815D01*
X104866134Y-66306097D01*
X104873063Y-66151346D01*
X104877924Y-65971548D01*
X104880755Y-65773689D01*
X104881593Y-65564755D01*
X104880478Y-65351730D01*
X104877446Y-65141601D01*
X104872536Y-64941353D01*
X104865785Y-64757972D01*
X104857232Y-64598444D01*
X104846914Y-64469753D01*
X104846450Y-64465200D01*
X104775192Y-63890535D01*
X104680590Y-63330003D01*
X104561327Y-62779490D01*
X104416083Y-62234882D01*
X104243541Y-61692066D01*
X104042381Y-61146928D01*
X103811284Y-60595355D01*
X103548933Y-60033232D01*
X103254007Y-59456447D01*
X103221152Y-59394969D01*
X103131625Y-59229580D01*
X103036688Y-59057205D01*
X102934117Y-58873944D01*
X102821687Y-58675900D01*
X102697176Y-58459173D01*
X102558358Y-58219865D01*
X102403011Y-57954077D01*
X102273836Y-57734200D01*
X102147082Y-57517979D01*
X102038313Y-57330329D01*
X101945005Y-57166558D01*
X101864636Y-57021974D01*
X101794680Y-56891886D01*
X101732614Y-56771602D01*
X101675914Y-56656431D01*
X101622056Y-56541680D01*
X101569605Y-56425123D01*
X101365788Y-55922903D01*
X101199254Y-55421410D01*
X101068616Y-54915767D01*
X100972483Y-54401100D01*
X100951780Y-54256354D01*
X100938029Y-54123705D01*
X100927447Y-53960314D01*
X100920034Y-53774221D01*
X100915790Y-53573465D01*
X100914716Y-53366086D01*
X100916813Y-53160122D01*
X100922080Y-52963613D01*
X100930519Y-52784599D01*
X100942130Y-52631118D01*
X100951662Y-52546738D01*
X100973351Y-52397520D01*
X100999028Y-52240217D01*
X101027226Y-52082322D01*
X101056479Y-51931329D01*
X101085320Y-51794729D01*
X101112282Y-51680016D01*
X101135900Y-51594684D01*
X101141074Y-51578924D01*
X101222184Y-51386403D01*
X101324520Y-51223651D01*
X101452572Y-51085124D01*
X101610827Y-50965279D01*
X101664864Y-50932140D01*
X101996155Y-50725127D01*
X102291029Y-50512920D01*
X102552056Y-50292968D01*
X102781805Y-50062719D01*
X102982847Y-49819620D01*
X103157751Y-49561122D01*
X103294420Y-49314238D01*
X103413175Y-49045214D01*
X103508783Y-48756167D01*
X103582653Y-48442189D01*
X103630191Y-48146049D01*
X103645425Y-48042219D01*
X103661676Y-47965925D01*
X103682254Y-47905694D01*
X103710468Y-47850052D01*
X103720369Y-47833434D01*
X103753795Y-47778923D01*
X103774338Y-47745799D01*
X103774338Y-47688834D01*
X103774267Y-47688791D01*
X103752493Y-47661582D01*
X103722173Y-47605735D01*
X103686964Y-47529732D01*
X103650528Y-47442056D01*
X103616522Y-47351191D01*
X103588607Y-47265619D01*
X103582538Y-47244339D01*
X103546394Y-47089853D01*
X103524962Y-46937930D01*
X103517610Y-46777875D01*
X103523701Y-46598992D01*
X103535746Y-46455623D01*
X103572741Y-46239711D01*
X103639828Y-46013310D01*
X103733291Y-45785533D01*
X103849415Y-45565491D01*
X103977840Y-45371238D01*
X104022921Y-45311161D01*
X104058541Y-45265417D01*
X104078950Y-45241320D01*
X104081461Y-45239354D01*
X104095066Y-45255949D01*
X104121708Y-45301241D01*
X104157961Y-45368486D01*
X104200398Y-45450942D01*
X104245593Y-45541867D01*
X104290118Y-45634516D01*
X104330546Y-45722149D01*
X104354077Y-45775734D01*
X104422901Y-45947175D01*
X104472663Y-46097879D01*
X104506228Y-46239454D01*
X104526457Y-46383509D01*
X104535007Y-46509354D01*
X104532600Y-46708336D01*
X104505226Y-46882900D01*
X104450006Y-47040867D01*
X104364059Y-47190055D01*
X104244504Y-47338286D01*
X104219909Y-47364714D01*
X104152399Y-47430896D01*
X104075652Y-47498104D01*
X103995981Y-47561748D01*
X103919700Y-47617234D01*
X103853123Y-47659971D01*
X103802565Y-47685369D01*
X103774338Y-47688834D01*
X103774338Y-47745799D01*
X103777934Y-47740000D01*
X103786801Y-47726210D01*
X103806504Y-47721761D01*
X103857737Y-47712968D01*
X103933536Y-47700859D01*
X104026934Y-47686460D01*
X104130966Y-47670799D01*
X104238666Y-47654904D01*
X104343070Y-47639801D01*
X104437211Y-47626518D01*
X104514125Y-47616083D01*
X104566845Y-47609523D01*
X104588407Y-47607864D01*
X104588569Y-47607958D01*
X104583937Y-47628406D01*
X104567613Y-47681950D01*
X104540894Y-47764830D01*
X104505077Y-47873290D01*
X104461459Y-48003569D01*
X104411336Y-48151909D01*
X104356006Y-48314550D01*
X104296766Y-48487735D01*
X104234912Y-48667703D01*
X104171741Y-48850697D01*
X104108551Y-49032958D01*
X104046638Y-49210726D01*
X103987299Y-49380242D01*
X103931831Y-49537748D01*
X103881531Y-49679486D01*
X103837695Y-49801695D01*
X103801622Y-49900617D01*
X103774607Y-49972494D01*
X103760924Y-50006738D01*
X103585413Y-50389267D01*
X103395241Y-50741673D01*
X103307239Y-50887020D01*
X103167527Y-51116602D01*
X103049572Y-51325896D01*
X102949072Y-51523734D01*
X102861722Y-51718948D01*
X102783221Y-51920369D01*
X102731811Y-52068046D01*
X102626185Y-52436581D01*
X102554400Y-52808967D01*
X102516592Y-53186887D01*
X102512899Y-53572025D01*
X102543457Y-53966065D01*
X102608405Y-54370689D01*
X102707878Y-54787583D01*
X102842016Y-55218428D01*
X103010954Y-55664910D01*
X103028518Y-55707476D01*
X103058331Y-55777499D01*
X103094179Y-55858362D01*
X103136892Y-55951744D01*
X103187301Y-56059324D01*
X103246236Y-56182782D01*
X103314527Y-56323798D01*
X103393005Y-56484050D01*
X103482501Y-56665219D01*
X103583844Y-56868983D01*
X103697865Y-57097023D01*
X103825394Y-57351017D01*
X103967263Y-57632645D01*
X104124300Y-57943587D01*
X104297337Y-58285522D01*
X104487204Y-58660129D01*
X104535551Y-58755442D01*
X104641711Y-58964120D01*
X104742944Y-59161987D01*
X104837850Y-59346373D01*
X104925026Y-59514607D01*
X105003070Y-59664018D01*
X105058308Y-59768681D01*
X105058308Y-46959726D01*
X105043722Y-46905502D01*
X105037863Y-46874559D01*
X105027281Y-46809021D01*
X105012558Y-46713006D01*
X104994282Y-46590631D01*
X104973036Y-46446015D01*
X104949407Y-46283277D01*
X104923979Y-46106536D01*
X104897338Y-45919909D01*
X104870068Y-45727515D01*
X104842755Y-45533472D01*
X104815985Y-45341900D01*
X104790342Y-45156916D01*
X104766411Y-44982639D01*
X104744778Y-44823187D01*
X104726028Y-44682679D01*
X104710746Y-44565233D01*
X104707033Y-44535969D01*
X104682485Y-44304914D01*
X104669088Y-44092900D01*
X104666863Y-43904257D01*
X104675831Y-43743320D01*
X104696010Y-43614421D01*
X104702629Y-43588354D01*
X104744814Y-43464736D01*
X104800022Y-43359720D01*
X104874754Y-43264432D01*
X104975513Y-43169996D01*
X105055347Y-43106894D01*
X105196878Y-43011500D01*
X105369689Y-42913489D01*
X105566424Y-42816077D01*
X105779723Y-42722479D01*
X106002228Y-42635912D01*
X106226582Y-42559592D01*
X106445427Y-42496735D01*
X106459672Y-42493094D01*
X106681533Y-42440764D01*
X106879761Y-42403177D01*
X107066215Y-42378726D01*
X107252754Y-42365804D01*
X107422462Y-42362689D01*
X107505644Y-42361682D01*
X107579349Y-42359647D01*
X107642531Y-42358388D01*
X107694140Y-42359709D01*
X107733130Y-42365417D01*
X107758451Y-42377314D01*
X107769055Y-42397207D01*
X107763896Y-42426900D01*
X107741924Y-42468197D01*
X107702092Y-42522904D01*
X107643351Y-42592825D01*
X107564654Y-42679765D01*
X107464952Y-42785528D01*
X107343198Y-42911920D01*
X107198344Y-43060744D01*
X107029341Y-43233807D01*
X106835141Y-43432912D01*
X106750382Y-43520034D01*
X106580645Y-43694814D01*
X106419128Y-43861415D01*
X106267858Y-44017730D01*
X106128859Y-44161652D01*
X106004158Y-44291074D01*
X105895780Y-44403891D01*
X105805750Y-44497995D01*
X105736096Y-44571280D01*
X105688841Y-44621640D01*
X105666012Y-44646967D01*
X105664177Y-44649621D01*
X105681028Y-44640176D01*
X105728190Y-44610944D01*
X105803238Y-44563486D01*
X105903750Y-44499358D01*
X106027302Y-44420120D01*
X106171473Y-44327329D01*
X106333838Y-44222544D01*
X106511976Y-44107324D01*
X106703462Y-43983226D01*
X106905874Y-43851810D01*
X107023374Y-43775420D01*
X107230907Y-43640596D01*
X107428937Y-43512272D01*
X107615036Y-43392000D01*
X107786775Y-43281336D01*
X107941725Y-43181834D01*
X108077457Y-43095049D01*
X108191543Y-43022535D01*
X108281554Y-42965847D01*
X108345062Y-42926539D01*
X108379637Y-42906165D01*
X108385458Y-42903606D01*
X108380676Y-42924029D01*
X108359902Y-42973791D01*
X108325695Y-43047843D01*
X108280615Y-43141133D01*
X108227221Y-43248609D01*
X108168074Y-43365220D01*
X108105734Y-43485915D01*
X108042759Y-43605641D01*
X107981710Y-43719348D01*
X107925148Y-43821984D01*
X107880044Y-43900969D01*
X107560945Y-44408184D01*
X107207870Y-44896267D01*
X106821072Y-45364937D01*
X106400805Y-45813915D01*
X105947322Y-46242919D01*
X105460877Y-46651667D01*
X105253692Y-46812029D01*
X105058308Y-46959726D01*
X105058308Y-59768681D01*
X105070581Y-59791936D01*
X105126156Y-59895689D01*
X105168394Y-59972607D01*
X105195893Y-60020019D01*
X105207251Y-60035255D01*
X105207306Y-60035211D01*
X105221557Y-60009469D01*
X105246727Y-59952129D01*
X105280801Y-59868473D01*
X105321767Y-59763779D01*
X105367615Y-59643326D01*
X105416330Y-59512394D01*
X105465901Y-59376262D01*
X105514316Y-59240209D01*
X105554589Y-59124091D01*
X105773103Y-58433871D01*
X105966519Y-57715447D01*
X106134437Y-56970895D01*
X106276459Y-56202292D01*
X106392186Y-55411715D01*
X106481220Y-54601238D01*
X106523941Y-54074029D01*
X106535890Y-53878459D01*
X106546315Y-53657561D01*
X106555216Y-53415496D01*
X106562589Y-53156423D01*
X106568435Y-52884504D01*
X106572749Y-52603899D01*
X106575532Y-52318768D01*
X106576781Y-52033272D01*
X106576494Y-51751572D01*
X106574670Y-51477829D01*
X106571307Y-51216202D01*
X106566404Y-50970853D01*
X106559957Y-50745942D01*
X106551967Y-50545629D01*
X106542430Y-50374076D01*
X106531346Y-50235442D01*
X106525570Y-50182585D01*
X106449783Y-49709514D01*
X106340455Y-49250999D01*
X106198402Y-48809178D01*
X106024436Y-48386189D01*
X105819373Y-47984172D01*
X105584028Y-47605264D01*
X105496456Y-47480977D01*
X105452346Y-47418660D01*
X105418879Y-47368199D01*
X105401504Y-47337932D01*
X105400231Y-47333763D01*
X105414485Y-47316555D01*
X105456021Y-47274995D01*
X105522996Y-47210790D01*
X105613570Y-47125645D01*
X105725900Y-47021263D01*
X105858145Y-46899349D01*
X106008464Y-46761609D01*
X106175016Y-46609747D01*
X106355957Y-46445467D01*
X106523692Y-46293732D01*
X106873018Y-45971782D01*
X107195888Y-45660955D01*
X107490839Y-45362782D01*
X107756410Y-45078789D01*
X107991137Y-44810505D01*
X108193559Y-44559458D01*
X108233634Y-44506661D01*
X108330589Y-44375353D01*
X108423627Y-44244739D01*
X108514855Y-44111322D01*
X108606380Y-43971605D01*
X108700312Y-43822092D01*
X108798755Y-43659287D01*
X108903820Y-43479691D01*
X109017612Y-43279808D01*
X109142240Y-43056142D01*
X109279810Y-42805196D01*
X109432432Y-42523472D01*
X109462281Y-42468078D01*
X109504493Y-42389750D01*
X109504493Y-39052292D01*
X109485386Y-39046344D01*
X109451130Y-39011196D01*
X109405223Y-38951989D01*
X109351162Y-38873863D01*
X109292445Y-38781959D01*
X109232569Y-38681417D01*
X109175033Y-38577379D01*
X109154339Y-38537661D01*
X109071667Y-38366493D01*
X109008886Y-38212803D01*
X108961258Y-38063730D01*
X108926783Y-37919749D01*
X108913083Y-37820091D01*
X108906009Y-37694011D01*
X108905266Y-37553548D01*
X108910562Y-37410740D01*
X108921603Y-37277623D01*
X108938094Y-37166236D01*
X108946040Y-37130892D01*
X108983414Y-37016991D01*
X109039906Y-36884213D01*
X109109708Y-36743777D01*
X109187013Y-36606905D01*
X109266016Y-36484815D01*
X109313046Y-36421784D01*
X109434923Y-36269522D01*
X109475823Y-36320573D01*
X109526399Y-36391305D01*
X109586231Y-36486657D01*
X109648927Y-36595440D01*
X109708097Y-36706465D01*
X109757350Y-36808543D01*
X109766722Y-36829856D01*
X109823888Y-36972302D01*
X109865887Y-37102287D01*
X109895118Y-37231434D01*
X109913978Y-37371366D01*
X109924867Y-37533707D01*
X109927588Y-37609585D01*
X109927737Y-37824017D01*
X109913324Y-38013994D01*
X109882272Y-38192090D01*
X109832503Y-38370879D01*
X109775850Y-38527892D01*
X109739444Y-38614586D01*
X109694851Y-38711261D01*
X109646311Y-38809724D01*
X109598062Y-38901783D01*
X109554344Y-38979247D01*
X109519396Y-39033924D01*
X109504493Y-39052292D01*
X109504493Y-42389750D01*
X109550994Y-42303463D01*
X109637055Y-42144016D01*
X109718036Y-41994224D01*
X109791507Y-41858570D01*
X109855035Y-41741540D01*
X109906192Y-41647619D01*
X109942547Y-41581291D01*
X109954834Y-41559126D01*
X110040615Y-41405590D01*
X110057693Y-41529818D01*
X110064403Y-41602443D01*
X110069623Y-41707116D01*
X110073373Y-41836836D01*
X110075669Y-41984605D01*
X110076531Y-42143421D01*
X110075975Y-42306285D01*
X110074021Y-42466196D01*
X110070686Y-42616156D01*
X110065988Y-42749163D01*
X110059945Y-42858218D01*
X110054094Y-42924046D01*
X109981072Y-43427404D01*
X109877210Y-43935050D01*
X109741669Y-44449986D01*
X109573609Y-44975216D01*
X109372191Y-45513743D01*
X109242043Y-45828017D01*
X109211692Y-45898910D01*
X109303677Y-45935478D01*
X109358737Y-45957518D01*
X109397581Y-45973348D01*
X109407621Y-45977630D01*
X109421447Y-45964208D01*
X109447803Y-45923595D01*
X109481786Y-45863572D01*
X109493823Y-45840861D01*
X109522642Y-45786436D01*
X109567036Y-45703667D01*
X109623799Y-45598480D01*
X109689727Y-45476800D01*
X109761613Y-45344550D01*
X109836254Y-45207657D01*
X109846459Y-45188974D01*
X109984608Y-44934215D01*
X110104950Y-44707717D01*
X110209890Y-44504294D01*
X110301836Y-44318765D01*
X110383194Y-44145947D01*
X110456370Y-43980657D01*
X110523772Y-43817712D01*
X110587805Y-43651928D01*
X110650876Y-43478124D01*
X110681223Y-43391175D01*
X110888343Y-42736931D01*
X111062989Y-42067567D01*
X111205662Y-41380701D01*
X111316864Y-40673949D01*
X111390113Y-40022585D01*
X111401497Y-39872957D01*
X111411365Y-39691358D01*
X111419621Y-39484867D01*
X111426170Y-39260566D01*
X111430916Y-39025533D01*
X111433765Y-38786850D01*
X111434620Y-38551595D01*
X111433386Y-38326848D01*
G36*
X50812726Y-56970530D02*
X50482291Y-57462431D01*
X50048905Y-58009254D01*
X49549573Y-58570600D01*
X49021300Y-59106071D01*
X48501091Y-59575267D01*
X48224931Y-59795637D01*
X47558336Y-60252904D01*
X46892455Y-60625743D01*
X46246948Y-60908127D01*
X45641477Y-61094030D01*
X45095703Y-61177425D01*
X44629289Y-61152287D01*
X44261896Y-61012589D01*
X44259500Y-61011051D01*
X44121806Y-60928872D01*
X44073163Y-60911481D01*
X44094915Y-60997957D01*
X44149831Y-61210832D01*
X44228234Y-61512684D01*
X44276173Y-61696600D01*
X44577716Y-62689403D01*
X44923146Y-63521717D01*
X45314661Y-64197175D01*
X45754457Y-64719408D01*
X46244734Y-65092049D01*
X46371824Y-65160460D01*
X46902567Y-65342192D01*
X47427968Y-65363853D01*
X47942274Y-65234703D01*
X48439731Y-64964003D01*
X48914585Y-64561016D01*
X49361082Y-64035001D01*
X49773469Y-63395220D01*
X50145991Y-62650934D01*
X50472894Y-61811405D01*
X50748426Y-60885893D01*
X50966831Y-59883660D01*
X51122355Y-58813967D01*
X51209246Y-57686074D01*
X51220618Y-57356118D01*
X51248785Y-56232969D01*
X50812726Y-56970530D01*
X50812726Y-56970530D01*
G37*
X50812726Y-56970530D02*
X50482291Y-57462431D01*
X50048905Y-58009254D01*
X49549573Y-58570600D01*
X49021300Y-59106071D01*
X48501091Y-59575267D01*
X48224931Y-59795637D01*
X47558336Y-60252904D01*
X46892455Y-60625743D01*
X46246948Y-60908127D01*
X45641477Y-61094030D01*
X45095703Y-61177425D01*
X44629289Y-61152287D01*
X44261896Y-61012589D01*
X44259500Y-61011051D01*
X44121806Y-60928872D01*
X44073163Y-60911481D01*
X44094915Y-60997957D01*
X44149831Y-61210832D01*
X44228234Y-61512684D01*
X44276173Y-61696600D01*
X44577716Y-62689403D01*
X44923146Y-63521717D01*
X45314661Y-64197175D01*
X45754457Y-64719408D01*
X46244734Y-65092049D01*
X46371824Y-65160460D01*
X46902567Y-65342192D01*
X47427968Y-65363853D01*
X47942274Y-65234703D01*
X48439731Y-64964003D01*
X48914585Y-64561016D01*
X49361082Y-64035001D01*
X49773469Y-63395220D01*
X50145991Y-62650934D01*
X50472894Y-61811405D01*
X50748426Y-60885893D01*
X50966831Y-59883660D01*
X51122355Y-58813967D01*
X51209246Y-57686074D01*
X51220618Y-57356118D01*
X51248785Y-56232969D01*
X50812726Y-56970530D01*
G36*
X51068143Y-54316617D02*
X51028129Y-54166143D01*
X50959824Y-53899972D01*
X50875675Y-53566771D01*
X50844353Y-53441600D01*
X50650412Y-52809077D01*
X50390366Y-52170434D01*
X50087074Y-51571891D01*
X49763399Y-51059672D01*
X49514631Y-50753136D01*
X49031550Y-50331872D01*
X48534705Y-50072390D01*
X48030883Y-49968392D01*
X47526872Y-50013579D01*
X47029459Y-50201651D01*
X46545431Y-50526310D01*
X46081574Y-50981257D01*
X45644676Y-51560192D01*
X45241524Y-52256817D01*
X44878904Y-53064833D01*
X44563605Y-53977940D01*
X44302412Y-54989841D01*
X44160702Y-55722075D01*
X44087127Y-56179611D01*
X44046748Y-56496373D01*
X44037974Y-56697312D01*
X44059217Y-56807375D01*
X44089312Y-56842612D01*
X44143072Y-56901526D01*
X44099267Y-56911637D01*
X44039596Y-56993281D01*
X44000027Y-57222075D01*
X43987162Y-57442100D01*
X43975946Y-57808981D01*
X43963734Y-58180133D01*
X43956894Y-58373458D01*
X43959686Y-58607776D01*
X43983502Y-58752737D01*
X44002843Y-58775625D01*
X44032621Y-58841306D01*
X44017003Y-58923766D01*
X44030138Y-58931263D01*
X44107847Y-58814477D01*
X44234015Y-58598002D01*
X44254773Y-58560882D01*
X44764860Y-57768548D01*
X45411424Y-56985636D01*
X45984234Y-56403128D01*
X46749737Y-55726055D01*
X47495337Y-55181525D01*
X48258744Y-54742849D01*
X48484915Y-54633451D01*
X49190966Y-54345396D01*
X49796350Y-54186643D01*
X50308665Y-54156295D01*
X50735508Y-54253450D01*
X50913819Y-54346095D01*
X51052405Y-54425106D01*
X51087225Y-54401023D01*
X51068143Y-54316617D01*
X51068143Y-54316617D01*
G37*
X51068143Y-54316617D02*
X51028129Y-54166143D01*
X50959824Y-53899972D01*
X50875675Y-53566771D01*
X50844353Y-53441600D01*
X50650412Y-52809077D01*
X50390366Y-52170434D01*
X50087074Y-51571891D01*
X49763399Y-51059672D01*
X49514631Y-50753136D01*
X49031550Y-50331872D01*
X48534705Y-50072390D01*
X48030883Y-49968392D01*
X47526872Y-50013579D01*
X47029459Y-50201651D01*
X46545431Y-50526310D01*
X46081574Y-50981257D01*
X45644676Y-51560192D01*
X45241524Y-52256817D01*
X44878904Y-53064833D01*
X44563605Y-53977940D01*
X44302412Y-54989841D01*
X44160702Y-55722075D01*
X44087127Y-56179611D01*
X44046748Y-56496373D01*
X44037974Y-56697312D01*
X44059217Y-56807375D01*
X44089312Y-56842612D01*
X44143072Y-56901526D01*
X44099267Y-56911637D01*
X44039596Y-56993281D01*
X44000027Y-57222075D01*
X43987162Y-57442100D01*
X43975946Y-57808981D01*
X43963734Y-58180133D01*
X43956894Y-58373458D01*
X43959686Y-58607776D01*
X43983502Y-58752737D01*
X44002843Y-58775625D01*
X44032621Y-58841306D01*
X44017003Y-58923766D01*
X44030138Y-58931263D01*
X44107847Y-58814477D01*
X44234015Y-58598002D01*
X44254773Y-58560882D01*
X44764860Y-57768548D01*
X45411424Y-56985636D01*
X45984234Y-56403128D01*
X46749737Y-55726055D01*
X47495337Y-55181525D01*
X48258744Y-54742849D01*
X48484915Y-54633451D01*
X49190966Y-54345396D01*
X49796350Y-54186643D01*
X50308665Y-54156295D01*
X50735508Y-54253450D01*
X50913819Y-54346095D01*
X51052405Y-54425106D01*
X51087225Y-54401023D01*
X51068143Y-54316617D01*
G04 #@! TO.C,J1*
D11*
X58764380Y-43759666D02*
X59478666Y-43759666D01*
X59621523Y-43712047D01*
X59716761Y-43616809D01*
X59764380Y-43473952D01*
X59764380Y-43378714D01*
X59764380Y-44759666D02*
X59764380Y-44188238D01*
X59764380Y-44473952D02*
X58764380Y-44473952D01*
X58907238Y-44378714D01*
X59002476Y-44283476D01*
X59050095Y-44188238D01*
X60396380Y-42068714D02*
X60396380Y-41497285D01*
X60396380Y-41783000D02*
X59396380Y-41783000D01*
X59539238Y-41687761D01*
X59634476Y-41592523D01*
X59682095Y-41497285D01*
X48299714Y-39433476D02*
X48966380Y-39433476D01*
X47918761Y-39195380D02*
X48633047Y-38957285D01*
X48633047Y-39576333D01*
G04 #@! TO.C,J2*
X101941380Y-78533666D02*
X102655666Y-78533666D01*
X102798523Y-78486047D01*
X102893761Y-78390809D01*
X102941380Y-78247952D01*
X102941380Y-78152714D01*
X102036619Y-78962238D02*
X101989000Y-79009857D01*
X101941380Y-79105095D01*
X101941380Y-79343190D01*
X101989000Y-79438428D01*
X102036619Y-79486047D01*
X102131857Y-79533666D01*
X102227095Y-79533666D01*
X102369952Y-79486047D01*
X102941380Y-78914619D01*
X102941380Y-79533666D01*
X102941380Y-81184714D02*
X102941380Y-80613285D01*
X102941380Y-80899000D02*
X101941380Y-80899000D01*
X102084238Y-80803761D01*
X102179476Y-80708523D01*
X102227095Y-80613285D01*
X70286619Y-77597095D02*
X70239000Y-77644714D01*
X70191380Y-77739952D01*
X70191380Y-77978047D01*
X70239000Y-78073285D01*
X70286619Y-78120904D01*
X70381857Y-78168523D01*
X70477095Y-78168523D01*
X70619952Y-78120904D01*
X71191380Y-77549476D01*
X71191380Y-78168523D01*
X70191380Y-78787571D02*
X70191380Y-78882809D01*
X70239000Y-78978047D01*
X70286619Y-79025666D01*
X70381857Y-79073285D01*
X70572333Y-79120904D01*
X70810428Y-79120904D01*
X71000904Y-79073285D01*
X71096142Y-79025666D01*
X71143761Y-78978047D01*
X71191380Y-78882809D01*
X71191380Y-78787571D01*
X71143761Y-78692333D01*
X71096142Y-78644714D01*
X71000904Y-78597095D01*
X70810428Y-78549476D01*
X70572333Y-78549476D01*
X70381857Y-78597095D01*
X70286619Y-78644714D01*
X70239000Y-78692333D01*
X70191380Y-78787571D01*
G04 #@! TD*
M02*
