G04 #@! TF.GenerationSoftware,KiCad,Pcbnew,5.0.2-bee76a0~70~ubuntu18.04.1*
G04 #@! TF.CreationDate,2019-04-11T22:59:15-04:00*
G04 #@! TF.ProjectId,throttle,7468726f-7474-46c6-952e-6b696361645f,rev?*
G04 #@! TF.SameCoordinates,Original*
G04 #@! TF.FileFunction,Legend,Top*
G04 #@! TF.FilePolarity,Positive*
%FSLAX46Y46*%
G04 Gerber Fmt 4.6, Leading zero omitted, Abs format (unit mm)*
G04 Created by KiCad (PCBNEW 5.0.2-bee76a0~70~ubuntu18.04.1) date Thu 11 Apr 2019 10:59:15 PM EDT*
%MOMM*%
%LPD*%
G01*
G04 APERTURE LIST*
%ADD10C,0.222250*%
%ADD11C,0.190500*%
%ADD12C,0.300000*%
%ADD13C,0.120000*%
%ADD14C,0.100000*%
%ADD15C,0.150000*%
%ADD16C,0.200000*%
%ADD17C,0.500000*%
G04 APERTURE END LIST*
D10*
X94754700Y-69448891D02*
X94246700Y-69448891D01*
X94500700Y-69448891D02*
X94500700Y-68559891D01*
X94416033Y-68686891D01*
X94331366Y-68771558D01*
X94246700Y-68813891D01*
X95093366Y-68644558D02*
X95135700Y-68602225D01*
X95220366Y-68559891D01*
X95432033Y-68559891D01*
X95516700Y-68602225D01*
X95559033Y-68644558D01*
X95601366Y-68729225D01*
X95601366Y-68813891D01*
X95559033Y-68940891D01*
X95051033Y-69448891D01*
X95601366Y-69448891D01*
X95855366Y-68559891D02*
X96151700Y-69448891D01*
X96448033Y-68559891D01*
X97845033Y-69448891D02*
X97421700Y-69448891D01*
X97421700Y-68559891D01*
X98141366Y-68983225D02*
X98437700Y-68983225D01*
X98564700Y-69448891D02*
X98141366Y-69448891D01*
X98141366Y-68559891D01*
X98564700Y-68559891D01*
X98945700Y-69448891D02*
X98945700Y-68559891D01*
X99157366Y-68559891D01*
X99284366Y-68602225D01*
X99369033Y-68686891D01*
X99411366Y-68771558D01*
X99453700Y-68940891D01*
X99453700Y-69067891D01*
X99411366Y-69237225D01*
X99369033Y-69321891D01*
X99284366Y-69406558D01*
X99157366Y-69448891D01*
X98945700Y-69448891D01*
X67153366Y-46816433D02*
X67153366Y-47239766D01*
X66264366Y-47239766D01*
X66687700Y-46520100D02*
X66687700Y-46223766D01*
X67153366Y-46096766D02*
X67153366Y-46520100D01*
X66264366Y-46520100D01*
X66264366Y-46096766D01*
X67153366Y-45715766D02*
X66264366Y-45715766D01*
X66264366Y-45504100D01*
X66306700Y-45377100D01*
X66391366Y-45292433D01*
X66476033Y-45250100D01*
X66645366Y-45207766D01*
X66772366Y-45207766D01*
X66941700Y-45250100D01*
X67026366Y-45292433D01*
X67111033Y-45377100D01*
X67153366Y-45504100D01*
X67153366Y-45715766D01*
X66264366Y-44911433D02*
X66264366Y-44361100D01*
X66603033Y-44657433D01*
X66603033Y-44530433D01*
X66645366Y-44445766D01*
X66687700Y-44403433D01*
X66772366Y-44361100D01*
X66984033Y-44361100D01*
X67068700Y-44403433D01*
X67111033Y-44445766D01*
X67153366Y-44530433D01*
X67153366Y-44784433D01*
X67111033Y-44869100D01*
X67068700Y-44911433D01*
X73782766Y-46892633D02*
X73782766Y-47315966D01*
X72893766Y-47315966D01*
X73317100Y-46596300D02*
X73317100Y-46299966D01*
X73782766Y-46172966D02*
X73782766Y-46596300D01*
X72893766Y-46596300D01*
X72893766Y-46172966D01*
X73782766Y-45791966D02*
X72893766Y-45791966D01*
X72893766Y-45580300D01*
X72936100Y-45453300D01*
X73020766Y-45368633D01*
X73105433Y-45326300D01*
X73274766Y-45283966D01*
X73401766Y-45283966D01*
X73571100Y-45326300D01*
X73655766Y-45368633D01*
X73740433Y-45453300D01*
X73782766Y-45580300D01*
X73782766Y-45791966D01*
X73782766Y-44437300D02*
X73782766Y-44945300D01*
X73782766Y-44691300D02*
X72893766Y-44691300D01*
X73020766Y-44775966D01*
X73105433Y-44860633D01*
X73147766Y-44945300D01*
D11*
X62421809Y-79759523D02*
X62017047Y-79759523D01*
X62017047Y-78909523D01*
X62705142Y-79314285D02*
X62988476Y-79314285D01*
X63109904Y-79759523D02*
X62705142Y-79759523D01*
X62705142Y-78909523D01*
X63109904Y-78909523D01*
X63474190Y-79759523D02*
X63474190Y-78909523D01*
X63676571Y-78909523D01*
X63798000Y-78950000D01*
X63878952Y-79030952D01*
X63919428Y-79111904D01*
X63959904Y-79273809D01*
X63959904Y-79395238D01*
X63919428Y-79557142D01*
X63878952Y-79638095D01*
X63798000Y-79719047D01*
X63676571Y-79759523D01*
X63474190Y-79759523D01*
X64769428Y-79759523D02*
X64283714Y-79759523D01*
X64526571Y-79759523D02*
X64526571Y-78909523D01*
X64445619Y-79030952D01*
X64364666Y-79111904D01*
X64283714Y-79152380D01*
X62421809Y-78362523D02*
X62017047Y-78362523D01*
X62017047Y-77512523D01*
X62705142Y-77917285D02*
X62988476Y-77917285D01*
X63109904Y-78362523D02*
X62705142Y-78362523D01*
X62705142Y-77512523D01*
X63109904Y-77512523D01*
X63474190Y-78362523D02*
X63474190Y-77512523D01*
X63676571Y-77512523D01*
X63798000Y-77553000D01*
X63878952Y-77633952D01*
X63919428Y-77714904D01*
X63959904Y-77876809D01*
X63959904Y-77998238D01*
X63919428Y-78160142D01*
X63878952Y-78241095D01*
X63798000Y-78322047D01*
X63676571Y-78362523D01*
X63474190Y-78362523D01*
X64283714Y-77593476D02*
X64324190Y-77553000D01*
X64405142Y-77512523D01*
X64607523Y-77512523D01*
X64688476Y-77553000D01*
X64728952Y-77593476D01*
X64769428Y-77674428D01*
X64769428Y-77755380D01*
X64728952Y-77876809D01*
X64243238Y-78362523D01*
X64769428Y-78362523D01*
X56506638Y-47740447D02*
X56628066Y-47780923D01*
X56830447Y-47780923D01*
X56911400Y-47740447D01*
X56951876Y-47699971D01*
X56992352Y-47619019D01*
X56992352Y-47538066D01*
X56951876Y-47457114D01*
X56911400Y-47416638D01*
X56830447Y-47376161D01*
X56668542Y-47335685D01*
X56587590Y-47295209D01*
X56547114Y-47254733D01*
X56506638Y-47173780D01*
X56506638Y-47092828D01*
X56547114Y-47011876D01*
X56587590Y-46971400D01*
X56668542Y-46930923D01*
X56870923Y-46930923D01*
X56992352Y-46971400D01*
X57316161Y-47740447D02*
X57437590Y-47780923D01*
X57639971Y-47780923D01*
X57720923Y-47740447D01*
X57761400Y-47699971D01*
X57801876Y-47619019D01*
X57801876Y-47538066D01*
X57761400Y-47457114D01*
X57720923Y-47416638D01*
X57639971Y-47376161D01*
X57478066Y-47335685D01*
X57397114Y-47295209D01*
X57356638Y-47254733D01*
X57316161Y-47173780D01*
X57316161Y-47092828D01*
X57356638Y-47011876D01*
X57397114Y-46971400D01*
X57478066Y-46930923D01*
X57680447Y-46930923D01*
X57801876Y-46971400D01*
X57963780Y-47861876D02*
X58611400Y-47861876D01*
X58813780Y-47335685D02*
X59097114Y-47335685D01*
X59218542Y-47780923D02*
X58813780Y-47780923D01*
X58813780Y-46930923D01*
X59218542Y-46930923D01*
X59542352Y-47740447D02*
X59663780Y-47780923D01*
X59866161Y-47780923D01*
X59947114Y-47740447D01*
X59987590Y-47699971D01*
X60028066Y-47619019D01*
X60028066Y-47538066D01*
X59987590Y-47457114D01*
X59947114Y-47416638D01*
X59866161Y-47376161D01*
X59704257Y-47335685D01*
X59623304Y-47295209D01*
X59582828Y-47254733D01*
X59542352Y-47173780D01*
X59542352Y-47092828D01*
X59582828Y-47011876D01*
X59623304Y-46971400D01*
X59704257Y-46930923D01*
X59906638Y-46930923D01*
X60028066Y-46971400D01*
X60270923Y-46930923D02*
X60756638Y-46930923D01*
X60513780Y-47780923D02*
X60513780Y-46930923D01*
X61201876Y-46930923D02*
X61363780Y-46930923D01*
X61444733Y-46971400D01*
X61525685Y-47052352D01*
X61566161Y-47214257D01*
X61566161Y-47497590D01*
X61525685Y-47659495D01*
X61444733Y-47740447D01*
X61363780Y-47780923D01*
X61201876Y-47780923D01*
X61120923Y-47740447D01*
X61039971Y-47659495D01*
X60999495Y-47497590D01*
X60999495Y-47214257D01*
X61039971Y-47052352D01*
X61120923Y-46971400D01*
X61201876Y-46930923D01*
X61930447Y-47780923D02*
X61930447Y-46930923D01*
X62254257Y-46930923D01*
X62335209Y-46971400D01*
X62375685Y-47011876D01*
X62416161Y-47092828D01*
X62416161Y-47214257D01*
X62375685Y-47295209D01*
X62335209Y-47335685D01*
X62254257Y-47376161D01*
X61930447Y-47376161D01*
X44954228Y-58154447D02*
X45075657Y-58194923D01*
X45278038Y-58194923D01*
X45358990Y-58154447D01*
X45399466Y-58113971D01*
X45439942Y-58033019D01*
X45439942Y-57952066D01*
X45399466Y-57871114D01*
X45358990Y-57830638D01*
X45278038Y-57790161D01*
X45116133Y-57749685D01*
X45035180Y-57709209D01*
X44994704Y-57668733D01*
X44954228Y-57587780D01*
X44954228Y-57506828D01*
X44994704Y-57425876D01*
X45035180Y-57385400D01*
X45116133Y-57344923D01*
X45318514Y-57344923D01*
X45439942Y-57385400D01*
X45763752Y-58154447D02*
X45885180Y-58194923D01*
X46087561Y-58194923D01*
X46168514Y-58154447D01*
X46208990Y-58113971D01*
X46249466Y-58033019D01*
X46249466Y-57952066D01*
X46208990Y-57871114D01*
X46168514Y-57830638D01*
X46087561Y-57790161D01*
X45925657Y-57749685D01*
X45844704Y-57709209D01*
X45804228Y-57668733D01*
X45763752Y-57587780D01*
X45763752Y-57506828D01*
X45804228Y-57425876D01*
X45844704Y-57385400D01*
X45925657Y-57344923D01*
X46128038Y-57344923D01*
X46249466Y-57385400D01*
X46411371Y-58275876D02*
X47058990Y-58275876D01*
X47261371Y-58194923D02*
X47261371Y-57344923D01*
X47625657Y-58154447D02*
X47747085Y-58194923D01*
X47949466Y-58194923D01*
X48030419Y-58154447D01*
X48070895Y-58113971D01*
X48111371Y-58033019D01*
X48111371Y-57952066D01*
X48070895Y-57871114D01*
X48030419Y-57830638D01*
X47949466Y-57790161D01*
X47787561Y-57749685D01*
X47706609Y-57709209D01*
X47666133Y-57668733D01*
X47625657Y-57587780D01*
X47625657Y-57506828D01*
X47666133Y-57425876D01*
X47706609Y-57385400D01*
X47787561Y-57344923D01*
X47989942Y-57344923D01*
X48111371Y-57385400D01*
X57399161Y-70549647D02*
X57520590Y-70590123D01*
X57722971Y-70590123D01*
X57803923Y-70549647D01*
X57844400Y-70509171D01*
X57884876Y-70428219D01*
X57884876Y-70347266D01*
X57844400Y-70266314D01*
X57803923Y-70225838D01*
X57722971Y-70185361D01*
X57561066Y-70144885D01*
X57480114Y-70104409D01*
X57439638Y-70063933D01*
X57399161Y-69982980D01*
X57399161Y-69902028D01*
X57439638Y-69821076D01*
X57480114Y-69780600D01*
X57561066Y-69740123D01*
X57763447Y-69740123D01*
X57884876Y-69780600D01*
X58208685Y-70549647D02*
X58330114Y-70590123D01*
X58532495Y-70590123D01*
X58613447Y-70549647D01*
X58653923Y-70509171D01*
X58694400Y-70428219D01*
X58694400Y-70347266D01*
X58653923Y-70266314D01*
X58613447Y-70225838D01*
X58532495Y-70185361D01*
X58370590Y-70144885D01*
X58289638Y-70104409D01*
X58249161Y-70063933D01*
X58208685Y-69982980D01*
X58208685Y-69902028D01*
X58249161Y-69821076D01*
X58289638Y-69780600D01*
X58370590Y-69740123D01*
X58572971Y-69740123D01*
X58694400Y-69780600D01*
X58856304Y-70671076D02*
X59503923Y-70671076D01*
X59989638Y-70144885D02*
X60111066Y-70185361D01*
X60151542Y-70225838D01*
X60192019Y-70306790D01*
X60192019Y-70428219D01*
X60151542Y-70509171D01*
X60111066Y-70549647D01*
X60030114Y-70590123D01*
X59706304Y-70590123D01*
X59706304Y-69740123D01*
X59989638Y-69740123D01*
X60070590Y-69780600D01*
X60111066Y-69821076D01*
X60151542Y-69902028D01*
X60151542Y-69982980D01*
X60111066Y-70063933D01*
X60070590Y-70104409D01*
X59989638Y-70144885D01*
X59706304Y-70144885D01*
X60718209Y-69740123D02*
X60880114Y-69740123D01*
X60961066Y-69780600D01*
X61042019Y-69861552D01*
X61082495Y-70023457D01*
X61082495Y-70306790D01*
X61042019Y-70468695D01*
X60961066Y-70549647D01*
X60880114Y-70590123D01*
X60718209Y-70590123D01*
X60637257Y-70549647D01*
X60556304Y-70468695D01*
X60515828Y-70306790D01*
X60515828Y-70023457D01*
X60556304Y-69861552D01*
X60637257Y-69780600D01*
X60718209Y-69740123D01*
X61325352Y-69740123D02*
X61811066Y-69740123D01*
X61568209Y-70590123D02*
X61568209Y-69740123D01*
X62053923Y-70549647D02*
X62175352Y-70590123D01*
X62377733Y-70590123D01*
X62458685Y-70549647D01*
X62499161Y-70509171D01*
X62539638Y-70428219D01*
X62539638Y-70347266D01*
X62499161Y-70266314D01*
X62458685Y-70225838D01*
X62377733Y-70185361D01*
X62215828Y-70144885D01*
X62134876Y-70104409D01*
X62094400Y-70063933D01*
X62053923Y-69982980D01*
X62053923Y-69902028D01*
X62094400Y-69821076D01*
X62134876Y-69780600D01*
X62215828Y-69740123D01*
X62418209Y-69740123D01*
X62539638Y-69780600D01*
X90864071Y-41151273D02*
X91349785Y-41151273D01*
X91106928Y-42001273D02*
X91106928Y-41151273D01*
X91633119Y-42001273D02*
X91633119Y-41151273D01*
X91997404Y-42001273D02*
X91997404Y-41556035D01*
X91956928Y-41475083D01*
X91875976Y-41434607D01*
X91754547Y-41434607D01*
X91673595Y-41475083D01*
X91633119Y-41515559D01*
X92402166Y-42001273D02*
X92402166Y-41434607D01*
X92402166Y-41596511D02*
X92442642Y-41515559D01*
X92483119Y-41475083D01*
X92564071Y-41434607D01*
X92645023Y-41434607D01*
X93049785Y-42001273D02*
X92968833Y-41960797D01*
X92928357Y-41920321D01*
X92887880Y-41839369D01*
X92887880Y-41596511D01*
X92928357Y-41515559D01*
X92968833Y-41475083D01*
X93049785Y-41434607D01*
X93171214Y-41434607D01*
X93252166Y-41475083D01*
X93292642Y-41515559D01*
X93333119Y-41596511D01*
X93333119Y-41839369D01*
X93292642Y-41920321D01*
X93252166Y-41960797D01*
X93171214Y-42001273D01*
X93049785Y-42001273D01*
X93575976Y-41434607D02*
X93899785Y-41434607D01*
X93697404Y-41151273D02*
X93697404Y-41879845D01*
X93737880Y-41960797D01*
X93818833Y-42001273D01*
X93899785Y-42001273D01*
X94061690Y-41434607D02*
X94385500Y-41434607D01*
X94183119Y-41151273D02*
X94183119Y-41879845D01*
X94223595Y-41960797D01*
X94304547Y-42001273D01*
X94385500Y-42001273D01*
X94790261Y-42001273D02*
X94709309Y-41960797D01*
X94668833Y-41879845D01*
X94668833Y-41151273D01*
X95437880Y-41960797D02*
X95356928Y-42001273D01*
X95195023Y-42001273D01*
X95114071Y-41960797D01*
X95073595Y-41879845D01*
X95073595Y-41556035D01*
X95114071Y-41475083D01*
X95195023Y-41434607D01*
X95356928Y-41434607D01*
X95437880Y-41475083D01*
X95478357Y-41556035D01*
X95478357Y-41636988D01*
X95073595Y-41717940D01*
X91511690Y-43426297D02*
X91633119Y-43466773D01*
X91835500Y-43466773D01*
X91916452Y-43426297D01*
X91956928Y-43385821D01*
X91997404Y-43304869D01*
X91997404Y-43223916D01*
X91956928Y-43142964D01*
X91916452Y-43102488D01*
X91835500Y-43062011D01*
X91673595Y-43021535D01*
X91592642Y-42981059D01*
X91552166Y-42940583D01*
X91511690Y-42859630D01*
X91511690Y-42778678D01*
X91552166Y-42697726D01*
X91592642Y-42657250D01*
X91673595Y-42616773D01*
X91875976Y-42616773D01*
X91997404Y-42657250D01*
X92685500Y-43426297D02*
X92604547Y-43466773D01*
X92442642Y-43466773D01*
X92361690Y-43426297D01*
X92321214Y-43345345D01*
X92321214Y-43021535D01*
X92361690Y-42940583D01*
X92442642Y-42900107D01*
X92604547Y-42900107D01*
X92685500Y-42940583D01*
X92725976Y-43021535D01*
X92725976Y-43102488D01*
X92321214Y-43183440D01*
X93090261Y-42900107D02*
X93090261Y-43466773D01*
X93090261Y-42981059D02*
X93130738Y-42940583D01*
X93211690Y-42900107D01*
X93333119Y-42900107D01*
X93414071Y-42940583D01*
X93454547Y-43021535D01*
X93454547Y-43466773D01*
X93818833Y-43426297D02*
X93899785Y-43466773D01*
X94061690Y-43466773D01*
X94142642Y-43426297D01*
X94183119Y-43345345D01*
X94183119Y-43304869D01*
X94142642Y-43223916D01*
X94061690Y-43183440D01*
X93940261Y-43183440D01*
X93859309Y-43142964D01*
X93818833Y-43062011D01*
X93818833Y-43021535D01*
X93859309Y-42940583D01*
X93940261Y-42900107D01*
X94061690Y-42900107D01*
X94142642Y-42940583D01*
X94871214Y-43426297D02*
X94790261Y-43466773D01*
X94628357Y-43466773D01*
X94547404Y-43426297D01*
X94506928Y-43345345D01*
X94506928Y-43021535D01*
X94547404Y-42940583D01*
X94628357Y-42900107D01*
X94790261Y-42900107D01*
X94871214Y-42940583D01*
X94911690Y-43021535D01*
X94911690Y-43102488D01*
X94506928Y-43183440D01*
X92948595Y-44932273D02*
X92543833Y-44932273D01*
X92543833Y-44082273D01*
X93555738Y-44891797D02*
X93474785Y-44932273D01*
X93312880Y-44932273D01*
X93231928Y-44891797D01*
X93191452Y-44810845D01*
X93191452Y-44487035D01*
X93231928Y-44406083D01*
X93312880Y-44365607D01*
X93474785Y-44365607D01*
X93555738Y-44406083D01*
X93596214Y-44487035D01*
X93596214Y-44567988D01*
X93191452Y-44648940D01*
X93839071Y-44365607D02*
X94162880Y-44365607D01*
X93960500Y-44932273D02*
X93960500Y-44203702D01*
X94000976Y-44122750D01*
X94081928Y-44082273D01*
X94162880Y-44082273D01*
X94324785Y-44365607D02*
X94648595Y-44365607D01*
X94446214Y-44082273D02*
X94446214Y-44810845D01*
X94486690Y-44891797D01*
X94567642Y-44932273D01*
X94648595Y-44932273D01*
X90864071Y-34454523D02*
X91349785Y-34454523D01*
X91106928Y-35304523D02*
X91106928Y-34454523D01*
X91633119Y-35304523D02*
X91633119Y-34454523D01*
X91997404Y-35304523D02*
X91997404Y-34859285D01*
X91956928Y-34778333D01*
X91875976Y-34737857D01*
X91754547Y-34737857D01*
X91673595Y-34778333D01*
X91633119Y-34818809D01*
X92402166Y-35304523D02*
X92402166Y-34737857D01*
X92402166Y-34899761D02*
X92442642Y-34818809D01*
X92483119Y-34778333D01*
X92564071Y-34737857D01*
X92645023Y-34737857D01*
X93049785Y-35304523D02*
X92968833Y-35264047D01*
X92928357Y-35223571D01*
X92887880Y-35142619D01*
X92887880Y-34899761D01*
X92928357Y-34818809D01*
X92968833Y-34778333D01*
X93049785Y-34737857D01*
X93171214Y-34737857D01*
X93252166Y-34778333D01*
X93292642Y-34818809D01*
X93333119Y-34899761D01*
X93333119Y-35142619D01*
X93292642Y-35223571D01*
X93252166Y-35264047D01*
X93171214Y-35304523D01*
X93049785Y-35304523D01*
X93575976Y-34737857D02*
X93899785Y-34737857D01*
X93697404Y-34454523D02*
X93697404Y-35183095D01*
X93737880Y-35264047D01*
X93818833Y-35304523D01*
X93899785Y-35304523D01*
X94061690Y-34737857D02*
X94385500Y-34737857D01*
X94183119Y-34454523D02*
X94183119Y-35183095D01*
X94223595Y-35264047D01*
X94304547Y-35304523D01*
X94385500Y-35304523D01*
X94790261Y-35304523D02*
X94709309Y-35264047D01*
X94668833Y-35183095D01*
X94668833Y-34454523D01*
X95437880Y-35264047D02*
X95356928Y-35304523D01*
X95195023Y-35304523D01*
X95114071Y-35264047D01*
X95073595Y-35183095D01*
X95073595Y-34859285D01*
X95114071Y-34778333D01*
X95195023Y-34737857D01*
X95356928Y-34737857D01*
X95437880Y-34778333D01*
X95478357Y-34859285D01*
X95478357Y-34940238D01*
X95073595Y-35021190D01*
X91511690Y-36729547D02*
X91633119Y-36770023D01*
X91835500Y-36770023D01*
X91916452Y-36729547D01*
X91956928Y-36689071D01*
X91997404Y-36608119D01*
X91997404Y-36527166D01*
X91956928Y-36446214D01*
X91916452Y-36405738D01*
X91835500Y-36365261D01*
X91673595Y-36324785D01*
X91592642Y-36284309D01*
X91552166Y-36243833D01*
X91511690Y-36162880D01*
X91511690Y-36081928D01*
X91552166Y-36000976D01*
X91592642Y-35960500D01*
X91673595Y-35920023D01*
X91875976Y-35920023D01*
X91997404Y-35960500D01*
X92685500Y-36729547D02*
X92604547Y-36770023D01*
X92442642Y-36770023D01*
X92361690Y-36729547D01*
X92321214Y-36648595D01*
X92321214Y-36324785D01*
X92361690Y-36243833D01*
X92442642Y-36203357D01*
X92604547Y-36203357D01*
X92685500Y-36243833D01*
X92725976Y-36324785D01*
X92725976Y-36405738D01*
X92321214Y-36486690D01*
X93090261Y-36203357D02*
X93090261Y-36770023D01*
X93090261Y-36284309D02*
X93130738Y-36243833D01*
X93211690Y-36203357D01*
X93333119Y-36203357D01*
X93414071Y-36243833D01*
X93454547Y-36324785D01*
X93454547Y-36770023D01*
X93818833Y-36729547D02*
X93899785Y-36770023D01*
X94061690Y-36770023D01*
X94142642Y-36729547D01*
X94183119Y-36648595D01*
X94183119Y-36608119D01*
X94142642Y-36527166D01*
X94061690Y-36486690D01*
X93940261Y-36486690D01*
X93859309Y-36446214D01*
X93818833Y-36365261D01*
X93818833Y-36324785D01*
X93859309Y-36243833D01*
X93940261Y-36203357D01*
X94061690Y-36203357D01*
X94142642Y-36243833D01*
X94871214Y-36729547D02*
X94790261Y-36770023D01*
X94628357Y-36770023D01*
X94547404Y-36729547D01*
X94506928Y-36648595D01*
X94506928Y-36324785D01*
X94547404Y-36243833D01*
X94628357Y-36203357D01*
X94790261Y-36203357D01*
X94871214Y-36243833D01*
X94911690Y-36324785D01*
X94911690Y-36405738D01*
X94506928Y-36486690D01*
X92584309Y-38235523D02*
X92300976Y-37830761D01*
X92098595Y-38235523D02*
X92098595Y-37385523D01*
X92422404Y-37385523D01*
X92503357Y-37426000D01*
X92543833Y-37466476D01*
X92584309Y-37547428D01*
X92584309Y-37668857D01*
X92543833Y-37749809D01*
X92503357Y-37790285D01*
X92422404Y-37830761D01*
X92098595Y-37830761D01*
X92948595Y-38235523D02*
X92948595Y-37668857D01*
X92948595Y-37385523D02*
X92908119Y-37426000D01*
X92948595Y-37466476D01*
X92989071Y-37426000D01*
X92948595Y-37385523D01*
X92948595Y-37466476D01*
X93717642Y-37668857D02*
X93717642Y-38356952D01*
X93677166Y-38437904D01*
X93636690Y-38478380D01*
X93555738Y-38518857D01*
X93434309Y-38518857D01*
X93353357Y-38478380D01*
X93717642Y-38195047D02*
X93636690Y-38235523D01*
X93474785Y-38235523D01*
X93393833Y-38195047D01*
X93353357Y-38154571D01*
X93312880Y-38073619D01*
X93312880Y-37830761D01*
X93353357Y-37749809D01*
X93393833Y-37709333D01*
X93474785Y-37668857D01*
X93636690Y-37668857D01*
X93717642Y-37709333D01*
X94122404Y-38235523D02*
X94122404Y-37385523D01*
X94486690Y-38235523D02*
X94486690Y-37790285D01*
X94446214Y-37709333D01*
X94365261Y-37668857D01*
X94243833Y-37668857D01*
X94162880Y-37709333D01*
X94122404Y-37749809D01*
X94770023Y-37668857D02*
X95093833Y-37668857D01*
X94891452Y-37385523D02*
X94891452Y-38114095D01*
X94931928Y-38195047D01*
X95012880Y-38235523D01*
X95093833Y-38235523D01*
D12*
X108779571Y-61490657D02*
X108779571Y-62204942D01*
X109493857Y-62276371D01*
X109422428Y-62204942D01*
X109351000Y-62062085D01*
X109351000Y-61704942D01*
X109422428Y-61562085D01*
X109493857Y-61490657D01*
X109636714Y-61419228D01*
X109993857Y-61419228D01*
X110136714Y-61490657D01*
X110208142Y-61562085D01*
X110279571Y-61704942D01*
X110279571Y-62062085D01*
X110208142Y-62204942D01*
X110136714Y-62276371D01*
X108779571Y-60990657D02*
X110279571Y-60490657D01*
X108779571Y-59990657D01*
X110279571Y-57633514D02*
X110279571Y-58347800D01*
X108779571Y-58347800D01*
X109493857Y-57133514D02*
X109493857Y-56633514D01*
X110279571Y-56419228D02*
X110279571Y-57133514D01*
X108779571Y-57133514D01*
X108779571Y-56419228D01*
X110279571Y-55776371D02*
X108779571Y-55776371D01*
X108779571Y-55419228D01*
X108851000Y-55204942D01*
X108993857Y-55062085D01*
X109136714Y-54990657D01*
X109422428Y-54919228D01*
X109636714Y-54919228D01*
X109922428Y-54990657D01*
X110065285Y-55062085D01*
X110208142Y-55204942D01*
X110279571Y-55419228D01*
X110279571Y-55776371D01*
X112482623Y-41982214D02*
X112411194Y-42125071D01*
X112411194Y-42339357D01*
X112482623Y-42553642D01*
X112625480Y-42696499D01*
X112768337Y-42767928D01*
X113054051Y-42839357D01*
X113268337Y-42839357D01*
X113554051Y-42767928D01*
X113696908Y-42696499D01*
X113839765Y-42553642D01*
X113911194Y-42339357D01*
X113911194Y-42196499D01*
X113839765Y-41982214D01*
X113768337Y-41910785D01*
X113268337Y-41910785D01*
X113268337Y-42196499D01*
X113911194Y-41267928D02*
X112411194Y-41267928D01*
X113911194Y-40410785D01*
X112411194Y-40410785D01*
X113911194Y-39696499D02*
X112411194Y-39696499D01*
X112411194Y-39339357D01*
X112482623Y-39125071D01*
X112625480Y-38982214D01*
X112768337Y-38910785D01*
X113054051Y-38839357D01*
X113268337Y-38839357D01*
X113554051Y-38910785D01*
X113696908Y-38982214D01*
X113839765Y-39125071D01*
X113911194Y-39339357D01*
X113911194Y-39696499D01*
X87261000Y-60959857D02*
X87189571Y-61102714D01*
X87189571Y-61317000D01*
X87261000Y-61531285D01*
X87403857Y-61674142D01*
X87546714Y-61745571D01*
X87832428Y-61817000D01*
X88046714Y-61817000D01*
X88332428Y-61745571D01*
X88475285Y-61674142D01*
X88618142Y-61531285D01*
X88689571Y-61317000D01*
X88689571Y-61174142D01*
X88618142Y-60959857D01*
X88546714Y-60888428D01*
X88046714Y-60888428D01*
X88046714Y-61174142D01*
X88689571Y-60245571D02*
X87189571Y-60245571D01*
X88689571Y-59388428D01*
X87189571Y-59388428D01*
X88689571Y-58674142D02*
X87189571Y-58674142D01*
X87189571Y-58317000D01*
X87261000Y-58102714D01*
X87403857Y-57959857D01*
X87546714Y-57888428D01*
X87832428Y-57817000D01*
X88046714Y-57817000D01*
X88332428Y-57888428D01*
X88475285Y-57959857D01*
X88618142Y-58102714D01*
X88689571Y-58317000D01*
X88689571Y-58674142D01*
X103504814Y-72407948D02*
X103504814Y-73265091D01*
X103504814Y-72836519D02*
X102004814Y-72836519D01*
X102219100Y-72979377D01*
X102361957Y-73122234D01*
X102433385Y-73265091D01*
X102147671Y-71836519D02*
X102076243Y-71765091D01*
X102004814Y-71622234D01*
X102004814Y-71265091D01*
X102076243Y-71122234D01*
X102147671Y-71050805D01*
X102290528Y-70979377D01*
X102433385Y-70979377D01*
X102647671Y-71050805D01*
X103504814Y-71907948D01*
X103504814Y-70979377D01*
X102004814Y-70550805D02*
X103504814Y-70050805D01*
X102004814Y-69550805D01*
D13*
G04 #@! TO.C,R2*
X71999400Y-81499600D02*
X70799400Y-81499600D01*
X70799400Y-79739600D02*
X71999400Y-79739600D01*
G04 #@! TO.C,R3*
X70835000Y-77783800D02*
X72035000Y-77783800D01*
X72035000Y-79543800D02*
X70835000Y-79543800D01*
G04 #@! TO.C,R_2*
X73859500Y-75781500D02*
X73859500Y-74581500D01*
X75619500Y-74581500D02*
X75619500Y-75781500D01*
G04 #@! TO.C,C102*
X96901402Y-55201057D02*
X96575844Y-55201057D01*
X96901402Y-56221057D02*
X96575844Y-56221057D01*
G04 #@! TO.C,C101*
X97329303Y-56666997D02*
X96329303Y-56666997D01*
X96329303Y-58366997D02*
X97329303Y-58366997D01*
G04 #@! TO.C,D3*
X74011220Y-40359223D02*
X74011220Y-43159223D01*
X72611220Y-40359223D02*
X72611220Y-43159223D01*
X74011220Y-40359223D02*
X72611220Y-40359223D01*
D14*
X73311220Y-41959223D02*
X73611220Y-42259223D01*
X73611220Y-42259223D02*
X73661220Y-42309223D01*
X73661220Y-42309223D02*
X73011220Y-42309223D01*
X72961220Y-42309223D02*
X73011220Y-42309223D01*
X73011220Y-42309223D02*
X72961220Y-42309223D01*
X72961220Y-42309223D02*
X73311220Y-41959223D01*
X73311220Y-41959223D02*
X73661220Y-41959223D01*
X72961220Y-41959223D02*
X73311220Y-41959223D01*
D13*
G04 #@! TO.C,D5*
X67407220Y-40275223D02*
X67407220Y-43075223D01*
X66007220Y-40275223D02*
X66007220Y-43075223D01*
X67407220Y-40275223D02*
X66007220Y-40275223D01*
D14*
X66707220Y-41875223D02*
X67007220Y-42175223D01*
X67007220Y-42175223D02*
X67057220Y-42225223D01*
X67057220Y-42225223D02*
X66407220Y-42225223D01*
X66357220Y-42225223D02*
X66407220Y-42225223D01*
X66407220Y-42225223D02*
X66357220Y-42225223D01*
X66357220Y-42225223D02*
X66707220Y-41875223D01*
X66707220Y-41875223D02*
X67057220Y-41875223D01*
X66357220Y-41875223D02*
X66707220Y-41875223D01*
D13*
G04 #@! TO.C,R26*
X81080500Y-68361000D02*
X81080500Y-69561000D01*
X79320500Y-69561000D02*
X79320500Y-68361000D01*
G04 #@! TO.C,D4*
X70709220Y-40338723D02*
X70709220Y-43138723D01*
X69309220Y-40338723D02*
X69309220Y-43138723D01*
X70709220Y-40338723D02*
X69309220Y-40338723D01*
D14*
X70009220Y-41938723D02*
X70309220Y-42238723D01*
X70309220Y-42238723D02*
X70359220Y-42288723D01*
X70359220Y-42288723D02*
X69709220Y-42288723D01*
X69659220Y-42288723D02*
X69709220Y-42288723D01*
X69709220Y-42288723D02*
X69659220Y-42288723D01*
X69659220Y-42288723D02*
X70009220Y-41938723D01*
X70009220Y-41938723D02*
X70359220Y-41938723D01*
X69659220Y-41938723D02*
X70009220Y-41938723D01*
D13*
G04 #@! TO.C,U1*
X86567220Y-36405150D02*
X84117220Y-36405150D01*
X84767220Y-39625150D02*
X86567220Y-39625150D01*
D15*
G04 #@! TO.C,U4*
X73277659Y-66267706D02*
X71877659Y-66267706D01*
X73277659Y-71367706D02*
X77427659Y-71367706D01*
X73277659Y-66217706D02*
X77427659Y-66217706D01*
X73277659Y-71367706D02*
X73277659Y-71222706D01*
X77427659Y-71367706D02*
X77427659Y-71222706D01*
X77427659Y-66217706D02*
X77427659Y-66362706D01*
X73277659Y-66217706D02*
X73277659Y-66267706D01*
G04 #@! TO.C,J3*
X87757000Y-74993500D02*
X90297000Y-74993500D01*
X90297000Y-74993500D02*
X90297000Y-72453500D01*
X90577000Y-69633500D02*
X89027000Y-69633500D01*
X82677000Y-74993500D02*
X87757000Y-74993500D01*
X82677000Y-69913500D02*
X82677000Y-74993500D01*
X87757000Y-72453500D02*
X87757000Y-69913500D01*
X90297000Y-72453500D02*
X87757000Y-72453500D01*
X90577000Y-69633500D02*
X90577000Y-71183500D01*
X87757000Y-69913500D02*
X82677000Y-69913500D01*
D13*
G04 #@! TO.C,C1*
X89877219Y-36215150D02*
X88877219Y-36215150D01*
X88877219Y-37915150D02*
X89877219Y-37915150D01*
G04 #@! TO.C,C2*
X88496219Y-44089150D02*
X87496219Y-44089150D01*
X87496219Y-45789150D02*
X88496219Y-45789150D01*
G04 #@! TO.C,C4*
X70714500Y-73969500D02*
X70714500Y-74969500D01*
X72414500Y-74969500D02*
X72414500Y-73969500D01*
G04 #@! TO.C,C6*
X69698500Y-67365500D02*
X69698500Y-68365500D01*
X71398500Y-68365500D02*
X71398500Y-67365500D01*
G04 #@! TO.C,D8*
X53451800Y-58328019D02*
X53451800Y-55528019D01*
X54851800Y-58328019D02*
X54851800Y-55528019D01*
X53451800Y-58328019D02*
X54851800Y-58328019D01*
D14*
X54151800Y-56728019D02*
X53851800Y-56428019D01*
X53851800Y-56428019D02*
X53801800Y-56378019D01*
X53801800Y-56378019D02*
X54451800Y-56378019D01*
X54501800Y-56378019D02*
X54451800Y-56378019D01*
X54451800Y-56378019D02*
X54501800Y-56378019D01*
X54501800Y-56378019D02*
X54151800Y-56728019D01*
X54151800Y-56728019D02*
X53801800Y-56728019D01*
X54501800Y-56728019D02*
X54151800Y-56728019D01*
D13*
G04 #@! TO.C,D9*
X48308302Y-51152518D02*
X48308302Y-48352518D01*
X49708302Y-51152518D02*
X49708302Y-48352518D01*
X48308302Y-51152518D02*
X49708302Y-51152518D01*
D14*
X49008302Y-49552518D02*
X48708302Y-49252518D01*
X48708302Y-49252518D02*
X48658302Y-49202518D01*
X48658302Y-49202518D02*
X49308302Y-49202518D01*
X49358302Y-49202518D02*
X49308302Y-49202518D01*
X49308302Y-49202518D02*
X49358302Y-49202518D01*
X49358302Y-49202518D02*
X49008302Y-49552518D01*
X49008302Y-49552518D02*
X48658302Y-49552518D01*
X49358302Y-49552518D02*
X49008302Y-49552518D01*
D13*
G04 #@! TO.C,D10*
X50077368Y-66001234D02*
X50077368Y-63201234D01*
X51477368Y-66001234D02*
X51477368Y-63201234D01*
X50077368Y-66001234D02*
X51477368Y-66001234D01*
D14*
X50777368Y-64401234D02*
X50477368Y-64101234D01*
X50477368Y-64101234D02*
X50427368Y-64051234D01*
X50427368Y-64051234D02*
X51077368Y-64051234D01*
X51127368Y-64051234D02*
X51077368Y-64051234D01*
X51077368Y-64051234D02*
X51127368Y-64051234D01*
X51127368Y-64051234D02*
X50777368Y-64401234D01*
X50777368Y-64401234D02*
X50427368Y-64401234D01*
X51127368Y-64401234D02*
X50777368Y-64401234D01*
D13*
G04 #@! TO.C,Q2*
X55365801Y-60302020D02*
X55365801Y-58842020D01*
X58525801Y-60302020D02*
X58525801Y-58142020D01*
X58525801Y-60302020D02*
X57595801Y-60302020D01*
X55365801Y-60302020D02*
X56295801Y-60302020D01*
G04 #@! TO.C,Q3*
X50222301Y-52906518D02*
X50222301Y-51446518D01*
X53382301Y-52906518D02*
X53382301Y-50746518D01*
X53382301Y-52906518D02*
X52452301Y-52906518D01*
X50222301Y-52906518D02*
X51152301Y-52906518D01*
G04 #@! TO.C,Q4*
X51991369Y-68229234D02*
X51991369Y-66769234D01*
X55151369Y-68229234D02*
X55151369Y-66069234D01*
X55151369Y-68229234D02*
X54221369Y-68229234D01*
X51991369Y-68229234D02*
X52921369Y-68229234D01*
G04 #@! TO.C,R1*
X81493220Y-38725150D02*
X82693220Y-38725150D01*
X82693220Y-40485150D02*
X81493220Y-40485150D01*
G04 #@! TO.C,R6*
X85557218Y-39995150D02*
X86757218Y-39995150D01*
X86757218Y-41755150D02*
X85557218Y-41755150D01*
G04 #@! TO.C,R7*
X87751220Y-40205150D02*
X87751220Y-39005150D01*
X89511220Y-39005150D02*
X89511220Y-40205150D01*
G04 #@! TO.C,R8*
X72412370Y-39134003D02*
X72412370Y-37934003D01*
X74172370Y-37934003D02*
X74172370Y-39134003D01*
G04 #@! TO.C,R10*
X69110371Y-39134003D02*
X69110371Y-37934003D01*
X70870371Y-37934003D02*
X70870371Y-39134003D01*
G04 #@! TO.C,R11*
X65808369Y-39068004D02*
X65808369Y-37868004D01*
X67568369Y-37868004D02*
X67568369Y-39068004D01*
G04 #@! TO.C,R13*
X80096220Y-46345150D02*
X81296220Y-46345150D01*
X81296220Y-48105150D02*
X80096220Y-48105150D01*
G04 #@! TO.C,R15*
X105210500Y-76171500D02*
X105210500Y-77371500D01*
X103450500Y-77371500D02*
X103450500Y-76171500D01*
G04 #@! TO.C,R16*
X83906220Y-47869150D02*
X85106220Y-47869150D01*
X85106220Y-49629150D02*
X83906220Y-49629150D01*
G04 #@! TO.C,R17*
X86100219Y-48013150D02*
X86100219Y-46813150D01*
X87860219Y-46813150D02*
X87860219Y-48013150D01*
G04 #@! TO.C,R19*
X95132000Y-75591000D02*
X95132000Y-74391000D01*
X96892000Y-74391000D02*
X96892000Y-75591000D01*
G04 #@! TO.C,R20*
X57291800Y-55630017D02*
X56091800Y-55630017D01*
X56091800Y-53870017D02*
X57291800Y-53870017D01*
G04 #@! TO.C,R21*
X57291800Y-57662019D02*
X56091800Y-57662019D01*
X56091800Y-55902019D02*
X57291800Y-55902019D01*
G04 #@! TO.C,R22*
X56065799Y-63478017D02*
X56065799Y-62278017D01*
X57825799Y-62278017D02*
X57825799Y-63478017D01*
G04 #@! TO.C,R23*
X52402300Y-48200519D02*
X51202300Y-48200519D01*
X51202300Y-46440519D02*
X52402300Y-46440519D01*
G04 #@! TO.C,R24*
X52402301Y-50232517D02*
X51202301Y-50232517D01*
X51202301Y-48472517D02*
X52402301Y-48472517D01*
G04 #@! TO.C,R25*
X50922300Y-56048519D02*
X50922300Y-54848519D01*
X52682300Y-54848519D02*
X52682300Y-56048519D01*
G04 #@! TO.C,R27*
X54105369Y-63557233D02*
X52905369Y-63557233D01*
X52905369Y-61797233D02*
X54105369Y-61797233D01*
G04 #@! TO.C,R28*
X54105368Y-65589234D02*
X52905368Y-65589234D01*
X52905368Y-63829234D02*
X54105368Y-63829234D01*
G04 #@! TO.C,R29*
X52691369Y-71405234D02*
X52691369Y-70205234D01*
X54451369Y-70205234D02*
X54451369Y-71405234D01*
G04 #@! TO.C,U3*
X85086220Y-44345149D02*
X82636220Y-44345149D01*
X83286220Y-47565149D02*
X85086220Y-47565149D01*
G04 #@! TO.C,R_1*
X75764500Y-75781500D02*
X75764500Y-74581500D01*
X77524500Y-74581500D02*
X77524500Y-75781500D01*
D15*
G04 #@! TO.C,COUT102*
X106779123Y-47940057D02*
X101779123Y-47940057D01*
X106779123Y-39440057D02*
X106779123Y-47940057D01*
X101779123Y-39440057D02*
X106779123Y-39440057D01*
X101779123Y-47940057D02*
X101779123Y-39440057D01*
D13*
G04 #@! TO.C,C103*
X97159123Y-48447557D02*
X96159123Y-48447557D01*
X96159123Y-50147557D02*
X97159123Y-50147557D01*
G04 #@! TO.C,F101*
X101885623Y-56298557D02*
X101885623Y-58298557D01*
X98925623Y-58298557D02*
X98925623Y-56298557D01*
G04 #@! TO.C,R103*
X94536843Y-49324937D02*
X94536843Y-50524937D01*
X92776843Y-50524937D02*
X92776843Y-49324937D01*
G04 #@! TO.C,R102*
X94521603Y-53211137D02*
X94521603Y-54411137D01*
X92761603Y-54411137D02*
X92761603Y-53211137D01*
G04 #@! TO.C,R105*
X107428123Y-52689357D02*
X108628123Y-52689357D01*
X108628123Y-54449357D02*
X107428123Y-54449357D01*
G04 #@! TO.C,R104*
X106104203Y-49541157D02*
X106104203Y-54741157D01*
X102464203Y-54741157D02*
X102464203Y-49541157D01*
G04 #@! TO.C,U101*
X97543923Y-50981757D02*
X95093923Y-50981757D01*
X95743923Y-54201757D02*
X97543923Y-54201757D01*
G04 #@! TO.C,COUT101*
X98949123Y-46321057D02*
X98949123Y-44321057D01*
X96909123Y-44321057D02*
X96909123Y-46321057D01*
G04 #@! TO.C,COUT103*
X101128623Y-45797057D02*
X101128623Y-44797057D01*
X99428623Y-44797057D02*
X99428623Y-45797057D01*
G04 #@! TO.C,D101*
X101548623Y-63648557D02*
X98373623Y-63648557D01*
X101548623Y-60981557D02*
X98373623Y-60981557D01*
X101548623Y-63648557D02*
X101548623Y-60981557D01*
D16*
X98873623Y-63015057D02*
X98873623Y-61315057D01*
X98873623Y-62215057D02*
X97773623Y-63015057D01*
X97773623Y-63015057D02*
X97773623Y-61315057D01*
X97773623Y-61315057D02*
X98873623Y-62215057D01*
D13*
G04 #@! TO.C,D103*
X113628123Y-54269357D02*
X110828123Y-54269357D01*
X113628123Y-52869357D02*
X110828123Y-52869357D01*
X113628123Y-54269357D02*
X113628123Y-52869357D01*
D14*
X112028123Y-53569357D02*
X111728123Y-53869357D01*
X111728123Y-53869357D02*
X111678123Y-53919357D01*
X111678123Y-53919357D02*
X111678123Y-53269357D01*
X111678123Y-53219357D02*
X111678123Y-53269357D01*
X111678123Y-53269357D02*
X111678123Y-53219357D01*
X111678123Y-53219357D02*
X112028123Y-53569357D01*
X112028123Y-53569357D02*
X112028123Y-53919357D01*
X112028123Y-53219357D02*
X112028123Y-53569357D01*
D13*
G04 #@! TO.C,D102*
X92478123Y-66669357D02*
X95278123Y-66669357D01*
X92478123Y-68069357D02*
X95278123Y-68069357D01*
X92478123Y-66669357D02*
X92478123Y-68069357D01*
D14*
X94078123Y-67369357D02*
X94378123Y-67069357D01*
X94378123Y-67069357D02*
X94428123Y-67019357D01*
X94428123Y-67019357D02*
X94428123Y-67669357D01*
X94428123Y-67719357D02*
X94428123Y-67669357D01*
X94428123Y-67669357D02*
X94428123Y-67719357D01*
X94428123Y-67719357D02*
X94078123Y-67369357D01*
X94078123Y-67369357D02*
X94078123Y-67019357D01*
X94078123Y-67719357D02*
X94078123Y-67369357D01*
D13*
G04 #@! TO.C,R101*
X98678123Y-68249357D02*
X97478123Y-68249357D01*
X97478123Y-66489357D02*
X98678123Y-66489357D01*
G04 #@! TO.C,C8*
X73535292Y-52503669D02*
X73535292Y-51503669D01*
X71835292Y-51503669D02*
X71835292Y-52503669D01*
G04 #@! TO.C,C9*
X83154792Y-61505669D02*
X84154792Y-61505669D01*
X84154792Y-59805669D02*
X83154792Y-59805669D01*
G04 #@! TO.C,C10*
X83154792Y-63537669D02*
X84154792Y-63537669D01*
X84154792Y-61837669D02*
X83154792Y-61837669D01*
D15*
G04 #@! TO.C,IC1*
X68387293Y-63400668D02*
X68387293Y-64825668D01*
X68162293Y-56150668D02*
X68162293Y-56475668D01*
X75412293Y-56150668D02*
X75412293Y-56475668D01*
X75412293Y-63400668D02*
X75412293Y-63075668D01*
X68162293Y-63400668D02*
X68162293Y-63075668D01*
X75412293Y-63400668D02*
X75087293Y-63400668D01*
X75412293Y-56150668D02*
X75087293Y-56150668D01*
X68162293Y-56150668D02*
X68487293Y-56150668D01*
X68162293Y-63400668D02*
X68387293Y-63400668D01*
D17*
X67443893Y-63992068D02*
G75*
G03X67443893Y-63992068I-50800J0D01*
G01*
X69196493Y-62442668D02*
G75*
G03X69196493Y-62442668I-50800J0D01*
G01*
D13*
G04 #@! TO.C,R30*
X75470292Y-51226669D02*
X75470292Y-52426669D01*
X73710292Y-52426669D02*
X73710292Y-51226669D01*
G04 #@! TO.C,R31*
X64236023Y-66082430D02*
X65084551Y-65233902D01*
X66329059Y-66478410D02*
X65480531Y-67326938D01*
D14*
G04 #@! TO.C,Y1*
X81486292Y-59651169D02*
X79886292Y-59651169D01*
X81486292Y-59651169D02*
X81486292Y-61651169D01*
G04 #@! TO.C,R2*
D15*
X68540333Y-81148180D02*
X68207000Y-80671990D01*
X67968904Y-81148180D02*
X67968904Y-80148180D01*
X68349857Y-80148180D01*
X68445095Y-80195800D01*
X68492714Y-80243419D01*
X68540333Y-80338657D01*
X68540333Y-80481514D01*
X68492714Y-80576752D01*
X68445095Y-80624371D01*
X68349857Y-80671990D01*
X67968904Y-80671990D01*
X68921285Y-80243419D02*
X68968904Y-80195800D01*
X69064142Y-80148180D01*
X69302238Y-80148180D01*
X69397476Y-80195800D01*
X69445095Y-80243419D01*
X69492714Y-80338657D01*
X69492714Y-80433895D01*
X69445095Y-80576752D01*
X68873666Y-81148180D01*
X69492714Y-81148180D01*
G04 #@! TO.C,R3*
X68641933Y-79192380D02*
X68308600Y-78716190D01*
X68070504Y-79192380D02*
X68070504Y-78192380D01*
X68451457Y-78192380D01*
X68546695Y-78240000D01*
X68594314Y-78287619D01*
X68641933Y-78382857D01*
X68641933Y-78525714D01*
X68594314Y-78620952D01*
X68546695Y-78668571D01*
X68451457Y-78716190D01*
X68070504Y-78716190D01*
X68975266Y-78192380D02*
X69594314Y-78192380D01*
X69260980Y-78573333D01*
X69403838Y-78573333D01*
X69499076Y-78620952D01*
X69546695Y-78668571D01*
X69594314Y-78763809D01*
X69594314Y-79001904D01*
X69546695Y-79097142D01*
X69499076Y-79144761D01*
X69403838Y-79192380D01*
X69118123Y-79192380D01*
X69022885Y-79144761D01*
X68975266Y-79097142D01*
G04 #@! TO.C,R_2*
X73731380Y-75668119D02*
X73255190Y-76001452D01*
X73731380Y-76239547D02*
X72731380Y-76239547D01*
X72731380Y-75858595D01*
X72779000Y-75763357D01*
X72826619Y-75715738D01*
X72921857Y-75668119D01*
X73064714Y-75668119D01*
X73159952Y-75715738D01*
X73207571Y-75763357D01*
X73255190Y-75858595D01*
X73255190Y-76239547D01*
X73826619Y-75477642D02*
X73826619Y-74715738D01*
X72826619Y-74525261D02*
X72779000Y-74477642D01*
X72731380Y-74382404D01*
X72731380Y-74144309D01*
X72779000Y-74049071D01*
X72826619Y-74001452D01*
X72921857Y-73953833D01*
X73017095Y-73953833D01*
X73159952Y-74001452D01*
X73731380Y-74572880D01*
X73731380Y-73953833D01*
G04 #@! TO.C,C102*
X95619575Y-57498199D02*
X95571956Y-57545818D01*
X95429099Y-57593437D01*
X95333861Y-57593437D01*
X95191003Y-57545818D01*
X95095765Y-57450580D01*
X95048146Y-57355342D01*
X95000527Y-57164866D01*
X95000527Y-57022009D01*
X95048146Y-56831533D01*
X95095765Y-56736295D01*
X95191003Y-56641057D01*
X95333861Y-56593437D01*
X95429099Y-56593437D01*
X95571956Y-56641057D01*
X95619575Y-56688676D01*
X96571956Y-57593437D02*
X96000527Y-57593437D01*
X96286242Y-57593437D02*
X96286242Y-56593437D01*
X96191003Y-56736295D01*
X96095765Y-56831533D01*
X96000527Y-56879152D01*
X97191003Y-56593437D02*
X97286242Y-56593437D01*
X97381480Y-56641057D01*
X97429099Y-56688676D01*
X97476718Y-56783914D01*
X97524337Y-56974390D01*
X97524337Y-57212485D01*
X97476718Y-57402961D01*
X97429099Y-57498199D01*
X97381480Y-57545818D01*
X97286242Y-57593437D01*
X97191003Y-57593437D01*
X97095765Y-57545818D01*
X97048146Y-57498199D01*
X97000527Y-57402961D01*
X96952908Y-57212485D01*
X96952908Y-56974390D01*
X97000527Y-56783914D01*
X97048146Y-56688676D01*
X97095765Y-56641057D01*
X97191003Y-56593437D01*
X97905289Y-56688676D02*
X97952908Y-56641057D01*
X98048146Y-56593437D01*
X98286242Y-56593437D01*
X98381480Y-56641057D01*
X98429099Y-56688676D01*
X98476718Y-56783914D01*
X98476718Y-56879152D01*
X98429099Y-57022009D01*
X97857670Y-57593437D01*
X98476718Y-57593437D01*
G04 #@! TO.C,C101*
X95710255Y-59374139D02*
X95662636Y-59421758D01*
X95519779Y-59469377D01*
X95424541Y-59469377D01*
X95281683Y-59421758D01*
X95186445Y-59326520D01*
X95138826Y-59231282D01*
X95091207Y-59040806D01*
X95091207Y-58897949D01*
X95138826Y-58707473D01*
X95186445Y-58612235D01*
X95281683Y-58516997D01*
X95424541Y-58469377D01*
X95519779Y-58469377D01*
X95662636Y-58516997D01*
X95710255Y-58564616D01*
X96662636Y-59469377D02*
X96091207Y-59469377D01*
X96376922Y-59469377D02*
X96376922Y-58469377D01*
X96281683Y-58612235D01*
X96186445Y-58707473D01*
X96091207Y-58755092D01*
X97281683Y-58469377D02*
X97376922Y-58469377D01*
X97472160Y-58516997D01*
X97519779Y-58564616D01*
X97567398Y-58659854D01*
X97615017Y-58850330D01*
X97615017Y-59088425D01*
X97567398Y-59278901D01*
X97519779Y-59374139D01*
X97472160Y-59421758D01*
X97376922Y-59469377D01*
X97281683Y-59469377D01*
X97186445Y-59421758D01*
X97138826Y-59374139D01*
X97091207Y-59278901D01*
X97043588Y-59088425D01*
X97043588Y-58850330D01*
X97091207Y-58659854D01*
X97138826Y-58564616D01*
X97186445Y-58516997D01*
X97281683Y-58469377D01*
X98567398Y-59469377D02*
X97995969Y-59469377D01*
X98281683Y-59469377D02*
X98281683Y-58469377D01*
X98186445Y-58612235D01*
X98091207Y-58707473D01*
X97995969Y-58755092D01*
G04 #@! TO.C,D3*
X72366600Y-42749818D02*
X71366600Y-42749818D01*
X71366600Y-42511723D01*
X71414220Y-42368865D01*
X71509458Y-42273627D01*
X71604696Y-42226008D01*
X71795172Y-42178389D01*
X71938029Y-42178389D01*
X72128505Y-42226008D01*
X72223743Y-42273627D01*
X72318981Y-42368865D01*
X72366600Y-42511723D01*
X72366600Y-42749818D01*
X71366600Y-41845056D02*
X71366600Y-41226008D01*
X71747553Y-41559342D01*
X71747553Y-41416484D01*
X71795172Y-41321246D01*
X71842791Y-41273627D01*
X71938029Y-41226008D01*
X72176124Y-41226008D01*
X72271362Y-41273627D01*
X72318981Y-41321246D01*
X72366600Y-41416484D01*
X72366600Y-41702199D01*
X72318981Y-41797437D01*
X72271362Y-41845056D01*
G04 #@! TO.C,D5*
X65762600Y-42876818D02*
X64762600Y-42876818D01*
X64762600Y-42638723D01*
X64810220Y-42495865D01*
X64905458Y-42400627D01*
X65000696Y-42353008D01*
X65191172Y-42305389D01*
X65334029Y-42305389D01*
X65524505Y-42353008D01*
X65619743Y-42400627D01*
X65714981Y-42495865D01*
X65762600Y-42638723D01*
X65762600Y-42876818D01*
X64762600Y-41400627D02*
X64762600Y-41876818D01*
X65238791Y-41924437D01*
X65191172Y-41876818D01*
X65143553Y-41781580D01*
X65143553Y-41543484D01*
X65191172Y-41448246D01*
X65238791Y-41400627D01*
X65334029Y-41353008D01*
X65572124Y-41353008D01*
X65667362Y-41400627D01*
X65714981Y-41448246D01*
X65762600Y-41543484D01*
X65762600Y-41781580D01*
X65714981Y-41876818D01*
X65667362Y-41924437D01*
G04 #@! TO.C,R26*
X82302880Y-69603857D02*
X81826690Y-69937190D01*
X82302880Y-70175285D02*
X81302880Y-70175285D01*
X81302880Y-69794333D01*
X81350500Y-69699095D01*
X81398119Y-69651476D01*
X81493357Y-69603857D01*
X81636214Y-69603857D01*
X81731452Y-69651476D01*
X81779071Y-69699095D01*
X81826690Y-69794333D01*
X81826690Y-70175285D01*
X81398119Y-69222904D02*
X81350500Y-69175285D01*
X81302880Y-69080047D01*
X81302880Y-68841952D01*
X81350500Y-68746714D01*
X81398119Y-68699095D01*
X81493357Y-68651476D01*
X81588595Y-68651476D01*
X81731452Y-68699095D01*
X82302880Y-69270523D01*
X82302880Y-68651476D01*
X81302880Y-67794333D02*
X81302880Y-67984809D01*
X81350500Y-68080047D01*
X81398119Y-68127666D01*
X81540976Y-68222904D01*
X81731452Y-68270523D01*
X82112404Y-68270523D01*
X82207642Y-68222904D01*
X82255261Y-68175285D01*
X82302880Y-68080047D01*
X82302880Y-67889571D01*
X82255261Y-67794333D01*
X82207642Y-67746714D01*
X82112404Y-67699095D01*
X81874309Y-67699095D01*
X81779071Y-67746714D01*
X81731452Y-67794333D01*
X81683833Y-67889571D01*
X81683833Y-68080047D01*
X81731452Y-68175285D01*
X81779071Y-68222904D01*
X81874309Y-68270523D01*
G04 #@! TO.C,D4*
X69064600Y-42813318D02*
X68064600Y-42813318D01*
X68064600Y-42575223D01*
X68112220Y-42432365D01*
X68207458Y-42337127D01*
X68302696Y-42289508D01*
X68493172Y-42241889D01*
X68636029Y-42241889D01*
X68826505Y-42289508D01*
X68921743Y-42337127D01*
X69016981Y-42432365D01*
X69064600Y-42575223D01*
X69064600Y-42813318D01*
X68397934Y-41384746D02*
X69064600Y-41384746D01*
X68016981Y-41622842D02*
X68731267Y-41860937D01*
X68731267Y-41241889D01*
G04 #@! TO.C,U1*
X84905315Y-35247530D02*
X84905315Y-36057054D01*
X84952934Y-36152292D01*
X85000553Y-36199911D01*
X85095791Y-36247530D01*
X85286267Y-36247530D01*
X85381505Y-36199911D01*
X85429124Y-36152292D01*
X85476743Y-36057054D01*
X85476743Y-35247530D01*
X86476743Y-36247530D02*
X85905315Y-36247530D01*
X86191029Y-36247530D02*
X86191029Y-35247530D01*
X86095791Y-35390388D01*
X86000553Y-35485626D01*
X85905315Y-35533245D01*
G04 #@! TO.C,U4*
X75966769Y-71642876D02*
X75157245Y-71642876D01*
X75062007Y-71690495D01*
X75014388Y-71738114D01*
X74966769Y-71833352D01*
X74966769Y-72023828D01*
X75014388Y-72119066D01*
X75062007Y-72166685D01*
X75157245Y-72214304D01*
X75966769Y-72214304D01*
X75633435Y-73119066D02*
X74966769Y-73119066D01*
X76014388Y-72880971D02*
X75300102Y-72642876D01*
X75300102Y-73261923D01*
G04 #@! TO.C,J3*
X90638380Y-71389833D02*
X91352666Y-71389833D01*
X91495523Y-71437452D01*
X91590761Y-71532690D01*
X91638380Y-71675547D01*
X91638380Y-71770785D01*
X90638380Y-71008880D02*
X90638380Y-70389833D01*
X91019333Y-70723166D01*
X91019333Y-70580309D01*
X91066952Y-70485071D01*
X91114571Y-70437452D01*
X91209809Y-70389833D01*
X91447904Y-70389833D01*
X91543142Y-70437452D01*
X91590761Y-70485071D01*
X91638380Y-70580309D01*
X91638380Y-70866023D01*
X91590761Y-70961261D01*
X91543142Y-71008880D01*
G04 #@! TO.C,C1*
X88210552Y-36152292D02*
X88162933Y-36199911D01*
X88020076Y-36247530D01*
X87924838Y-36247530D01*
X87781980Y-36199911D01*
X87686742Y-36104673D01*
X87639123Y-36009435D01*
X87591504Y-35818959D01*
X87591504Y-35676102D01*
X87639123Y-35485626D01*
X87686742Y-35390388D01*
X87781980Y-35295150D01*
X87924838Y-35247530D01*
X88020076Y-35247530D01*
X88162933Y-35295150D01*
X88210552Y-35342769D01*
X89162933Y-36247530D02*
X88591504Y-36247530D01*
X88877219Y-36247530D02*
X88877219Y-35247530D01*
X88781980Y-35390388D01*
X88686742Y-35485626D01*
X88591504Y-35533245D01*
G04 #@! TO.C,C2*
X87067552Y-43772292D02*
X87019933Y-43819911D01*
X86877076Y-43867530D01*
X86781838Y-43867530D01*
X86638980Y-43819911D01*
X86543742Y-43724673D01*
X86496123Y-43629435D01*
X86448504Y-43438959D01*
X86448504Y-43296102D01*
X86496123Y-43105626D01*
X86543742Y-43010388D01*
X86638980Y-42915150D01*
X86781838Y-42867530D01*
X86877076Y-42867530D01*
X87019933Y-42915150D01*
X87067552Y-42962769D01*
X87448504Y-42962769D02*
X87496123Y-42915150D01*
X87591361Y-42867530D01*
X87829457Y-42867530D01*
X87924695Y-42915150D01*
X87972314Y-42962769D01*
X88019933Y-43058007D01*
X88019933Y-43153245D01*
X87972314Y-43296102D01*
X87400885Y-43867530D01*
X88019933Y-43867530D01*
G04 #@! TO.C,C4*
X71032642Y-77176166D02*
X71080261Y-77223785D01*
X71127880Y-77366642D01*
X71127880Y-77461880D01*
X71080261Y-77604738D01*
X70985023Y-77699976D01*
X70889785Y-77747595D01*
X70699309Y-77795214D01*
X70556452Y-77795214D01*
X70365976Y-77747595D01*
X70270738Y-77699976D01*
X70175500Y-77604738D01*
X70127880Y-77461880D01*
X70127880Y-77366642D01*
X70175500Y-77223785D01*
X70223119Y-77176166D01*
X70461214Y-76319023D02*
X71127880Y-76319023D01*
X70080261Y-76557119D02*
X70794547Y-76795214D01*
X70794547Y-76176166D01*
G04 #@! TO.C,C6*
X69328071Y-68086666D02*
X69368547Y-68127142D01*
X69409023Y-68248571D01*
X69409023Y-68329523D01*
X69368547Y-68450952D01*
X69287595Y-68531904D01*
X69206642Y-68572380D01*
X69044738Y-68612857D01*
X68923309Y-68612857D01*
X68761404Y-68572380D01*
X68680452Y-68531904D01*
X68599500Y-68450952D01*
X68559023Y-68329523D01*
X68559023Y-68248571D01*
X68599500Y-68127142D01*
X68639976Y-68086666D01*
X68559023Y-67358095D02*
X68559023Y-67520000D01*
X68599500Y-67600952D01*
X68639976Y-67641428D01*
X68761404Y-67722380D01*
X68923309Y-67762857D01*
X69247119Y-67762857D01*
X69328071Y-67722380D01*
X69368547Y-67681904D01*
X69409023Y-67600952D01*
X69409023Y-67439047D01*
X69368547Y-67358095D01*
X69328071Y-67317619D01*
X69247119Y-67277142D01*
X69044738Y-67277142D01*
X68963785Y-67317619D01*
X68923309Y-67358095D01*
X68882833Y-67439047D01*
X68882833Y-67600952D01*
X68923309Y-67681904D01*
X68963785Y-67722380D01*
X69044738Y-67762857D01*
G04 #@! TO.C,D8*
X51585904Y-58364380D02*
X51585904Y-57364380D01*
X51824000Y-57364380D01*
X51966857Y-57412000D01*
X52062095Y-57507238D01*
X52109714Y-57602476D01*
X52157333Y-57792952D01*
X52157333Y-57935809D01*
X52109714Y-58126285D01*
X52062095Y-58221523D01*
X51966857Y-58316761D01*
X51824000Y-58364380D01*
X51585904Y-58364380D01*
X52728761Y-57792952D02*
X52633523Y-57745333D01*
X52585904Y-57697714D01*
X52538285Y-57602476D01*
X52538285Y-57554857D01*
X52585904Y-57459619D01*
X52633523Y-57412000D01*
X52728761Y-57364380D01*
X52919238Y-57364380D01*
X53014476Y-57412000D01*
X53062095Y-57459619D01*
X53109714Y-57554857D01*
X53109714Y-57602476D01*
X53062095Y-57697714D01*
X53014476Y-57745333D01*
X52919238Y-57792952D01*
X52728761Y-57792952D01*
X52633523Y-57840571D01*
X52585904Y-57888190D01*
X52538285Y-57983428D01*
X52538285Y-58173904D01*
X52585904Y-58269142D01*
X52633523Y-58316761D01*
X52728761Y-58364380D01*
X52919238Y-58364380D01*
X53014476Y-58316761D01*
X53062095Y-58269142D01*
X53109714Y-58173904D01*
X53109714Y-57983428D01*
X53062095Y-57888190D01*
X53014476Y-57840571D01*
X52919238Y-57792952D01*
G04 #@! TO.C,D9*
X46427625Y-49963529D02*
X46427625Y-48963529D01*
X46665721Y-48963529D01*
X46808578Y-49011149D01*
X46903816Y-49106387D01*
X46951435Y-49201625D01*
X46999054Y-49392101D01*
X46999054Y-49534958D01*
X46951435Y-49725434D01*
X46903816Y-49820672D01*
X46808578Y-49915910D01*
X46665721Y-49963529D01*
X46427625Y-49963529D01*
X47475244Y-49963529D02*
X47665721Y-49963529D01*
X47760959Y-49915910D01*
X47808578Y-49868291D01*
X47903816Y-49725434D01*
X47951435Y-49534958D01*
X47951435Y-49154006D01*
X47903816Y-49058768D01*
X47856197Y-49011149D01*
X47760959Y-48963529D01*
X47570482Y-48963529D01*
X47475244Y-49011149D01*
X47427625Y-49058768D01*
X47380006Y-49154006D01*
X47380006Y-49392101D01*
X47427625Y-49487339D01*
X47475244Y-49534958D01*
X47570482Y-49582577D01*
X47760959Y-49582577D01*
X47856197Y-49534958D01*
X47903816Y-49487339D01*
X47951435Y-49392101D01*
G04 #@! TO.C,D10*
X47212501Y-64685245D02*
X47212501Y-63685245D01*
X47450596Y-63685245D01*
X47593453Y-63732865D01*
X47688691Y-63828103D01*
X47736310Y-63923341D01*
X47783929Y-64113817D01*
X47783929Y-64256674D01*
X47736310Y-64447150D01*
X47688691Y-64542388D01*
X47593453Y-64637626D01*
X47450596Y-64685245D01*
X47212501Y-64685245D01*
X48736310Y-64685245D02*
X48164882Y-64685245D01*
X48450596Y-64685245D02*
X48450596Y-63685245D01*
X48355358Y-63828103D01*
X48260120Y-63923341D01*
X48164882Y-63970960D01*
X49355358Y-63685245D02*
X49450596Y-63685245D01*
X49545834Y-63732865D01*
X49593453Y-63780484D01*
X49641072Y-63875722D01*
X49688691Y-64066198D01*
X49688691Y-64304293D01*
X49641072Y-64494769D01*
X49593453Y-64590007D01*
X49545834Y-64637626D01*
X49450596Y-64685245D01*
X49355358Y-64685245D01*
X49260120Y-64637626D01*
X49212501Y-64590007D01*
X49164882Y-64494769D01*
X49117263Y-64304293D01*
X49117263Y-64066198D01*
X49164882Y-63875722D01*
X49212501Y-63780484D01*
X49260120Y-63732865D01*
X49355358Y-63685245D01*
G04 #@! TO.C,Q2*
X59452981Y-60089639D02*
X59357743Y-60042020D01*
X59262505Y-59946781D01*
X59119648Y-59803924D01*
X59024410Y-59756305D01*
X58929172Y-59756305D01*
X58976791Y-59994400D02*
X58881553Y-59946781D01*
X58786315Y-59851543D01*
X58738696Y-59661067D01*
X58738696Y-59327734D01*
X58786315Y-59137258D01*
X58881553Y-59042020D01*
X58976791Y-58994400D01*
X59167267Y-58994400D01*
X59262505Y-59042020D01*
X59357743Y-59137258D01*
X59405362Y-59327734D01*
X59405362Y-59661067D01*
X59357743Y-59851543D01*
X59262505Y-59946781D01*
X59167267Y-59994400D01*
X58976791Y-59994400D01*
X59786315Y-59089639D02*
X59833934Y-59042020D01*
X59929172Y-58994400D01*
X60167267Y-58994400D01*
X60262505Y-59042020D01*
X60310124Y-59089639D01*
X60357743Y-59184877D01*
X60357743Y-59280115D01*
X60310124Y-59422972D01*
X59738696Y-59994400D01*
X60357743Y-59994400D01*
G04 #@! TO.C,Q3*
X54436481Y-53360768D02*
X54341243Y-53313149D01*
X54246005Y-53217910D01*
X54103148Y-53075053D01*
X54007910Y-53027434D01*
X53912672Y-53027434D01*
X53960291Y-53265529D02*
X53865053Y-53217910D01*
X53769815Y-53122672D01*
X53722196Y-52932196D01*
X53722196Y-52598863D01*
X53769815Y-52408387D01*
X53865053Y-52313149D01*
X53960291Y-52265529D01*
X54150767Y-52265529D01*
X54246005Y-52313149D01*
X54341243Y-52408387D01*
X54388862Y-52598863D01*
X54388862Y-52932196D01*
X54341243Y-53122672D01*
X54246005Y-53217910D01*
X54150767Y-53265529D01*
X53960291Y-53265529D01*
X54722196Y-52265529D02*
X55341243Y-52265529D01*
X55007910Y-52646482D01*
X55150767Y-52646482D01*
X55246005Y-52694101D01*
X55293624Y-52741720D01*
X55341243Y-52836958D01*
X55341243Y-53075053D01*
X55293624Y-53170291D01*
X55246005Y-53217910D01*
X55150767Y-53265529D01*
X54865053Y-53265529D01*
X54769815Y-53217910D01*
X54722196Y-53170291D01*
G04 #@! TO.C,Q4*
X56205549Y-67828484D02*
X56110311Y-67780865D01*
X56015073Y-67685626D01*
X55872216Y-67542769D01*
X55776978Y-67495150D01*
X55681740Y-67495150D01*
X55729359Y-67733245D02*
X55634121Y-67685626D01*
X55538883Y-67590388D01*
X55491264Y-67399912D01*
X55491264Y-67066579D01*
X55538883Y-66876103D01*
X55634121Y-66780865D01*
X55729359Y-66733245D01*
X55919835Y-66733245D01*
X56015073Y-66780865D01*
X56110311Y-66876103D01*
X56157930Y-67066579D01*
X56157930Y-67399912D01*
X56110311Y-67590388D01*
X56015073Y-67685626D01*
X55919835Y-67733245D01*
X55729359Y-67733245D01*
X57015073Y-67066579D02*
X57015073Y-67733245D01*
X56776978Y-66685626D02*
X56538883Y-67399912D01*
X57157930Y-67399912D01*
G04 #@! TO.C,R1*
X81951553Y-38465673D02*
X81668220Y-38060911D01*
X81465839Y-38465673D02*
X81465839Y-37615673D01*
X81789648Y-37615673D01*
X81870600Y-37656150D01*
X81911077Y-37696626D01*
X81951553Y-37777578D01*
X81951553Y-37899007D01*
X81911077Y-37979959D01*
X81870600Y-38020435D01*
X81789648Y-38060911D01*
X81465839Y-38060911D01*
X82761077Y-38465673D02*
X82275362Y-38465673D01*
X82518220Y-38465673D02*
X82518220Y-37615673D01*
X82437267Y-37737102D01*
X82356315Y-37818054D01*
X82275362Y-37858530D01*
G04 #@! TO.C,R6*
X85670551Y-42597530D02*
X85337218Y-42121340D01*
X85099122Y-42597530D02*
X85099122Y-41597530D01*
X85480075Y-41597530D01*
X85575313Y-41645150D01*
X85622932Y-41692769D01*
X85670551Y-41788007D01*
X85670551Y-41930864D01*
X85622932Y-42026102D01*
X85575313Y-42073721D01*
X85480075Y-42121340D01*
X85099122Y-42121340D01*
X86527694Y-41597530D02*
X86337218Y-41597530D01*
X86241979Y-41645150D01*
X86194360Y-41692769D01*
X86099122Y-41835626D01*
X86051503Y-42026102D01*
X86051503Y-42407054D01*
X86099122Y-42502292D01*
X86146741Y-42549911D01*
X86241979Y-42597530D01*
X86432456Y-42597530D01*
X86527694Y-42549911D01*
X86575313Y-42502292D01*
X86622932Y-42407054D01*
X86622932Y-42168959D01*
X86575313Y-42073721D01*
X86527694Y-42026102D01*
X86432456Y-41978483D01*
X86241979Y-41978483D01*
X86146741Y-42026102D01*
X86099122Y-42073721D01*
X86051503Y-42168959D01*
G04 #@! TO.C,R7*
X90353600Y-41041816D02*
X89877410Y-41375150D01*
X90353600Y-41613245D02*
X89353600Y-41613245D01*
X89353600Y-41232292D01*
X89401220Y-41137054D01*
X89448839Y-41089435D01*
X89544077Y-41041816D01*
X89686934Y-41041816D01*
X89782172Y-41089435D01*
X89829791Y-41137054D01*
X89877410Y-41232292D01*
X89877410Y-41613245D01*
X89353600Y-40708483D02*
X89353600Y-40041816D01*
X90353600Y-40470388D01*
G04 #@! TO.C,R8*
X72094750Y-38700669D02*
X71618560Y-39034003D01*
X72094750Y-39272098D02*
X71094750Y-39272098D01*
X71094750Y-38891145D01*
X71142370Y-38795907D01*
X71189989Y-38748288D01*
X71285227Y-38700669D01*
X71428084Y-38700669D01*
X71523322Y-38748288D01*
X71570941Y-38795907D01*
X71618560Y-38891145D01*
X71618560Y-39272098D01*
X71523322Y-38129241D02*
X71475703Y-38224479D01*
X71428084Y-38272098D01*
X71332846Y-38319717D01*
X71285227Y-38319717D01*
X71189989Y-38272098D01*
X71142370Y-38224479D01*
X71094750Y-38129241D01*
X71094750Y-37938764D01*
X71142370Y-37843526D01*
X71189989Y-37795907D01*
X71285227Y-37748288D01*
X71332846Y-37748288D01*
X71428084Y-37795907D01*
X71475703Y-37843526D01*
X71523322Y-37938764D01*
X71523322Y-38129241D01*
X71570941Y-38224479D01*
X71618560Y-38272098D01*
X71713798Y-38319717D01*
X71904274Y-38319717D01*
X71999512Y-38272098D01*
X72047131Y-38224479D01*
X72094750Y-38129241D01*
X72094750Y-37938764D01*
X72047131Y-37843526D01*
X71999512Y-37795907D01*
X71904274Y-37748288D01*
X71713798Y-37748288D01*
X71618560Y-37795907D01*
X71570941Y-37843526D01*
X71523322Y-37938764D01*
G04 #@! TO.C,R10*
X68792751Y-39176860D02*
X68316561Y-39510193D01*
X68792751Y-39748288D02*
X67792751Y-39748288D01*
X67792751Y-39367336D01*
X67840371Y-39272098D01*
X67887990Y-39224479D01*
X67983228Y-39176860D01*
X68126085Y-39176860D01*
X68221323Y-39224479D01*
X68268942Y-39272098D01*
X68316561Y-39367336D01*
X68316561Y-39748288D01*
X68792751Y-38224479D02*
X68792751Y-38795907D01*
X68792751Y-38510193D02*
X67792751Y-38510193D01*
X67935609Y-38605431D01*
X68030847Y-38700669D01*
X68078466Y-38795907D01*
X67792751Y-37605431D02*
X67792751Y-37510193D01*
X67840371Y-37414955D01*
X67887990Y-37367336D01*
X67983228Y-37319717D01*
X68173704Y-37272098D01*
X68411799Y-37272098D01*
X68602275Y-37319717D01*
X68697513Y-37367336D01*
X68745132Y-37414955D01*
X68792751Y-37510193D01*
X68792751Y-37605431D01*
X68745132Y-37700669D01*
X68697513Y-37748288D01*
X68602275Y-37795907D01*
X68411799Y-37843526D01*
X68173704Y-37843526D01*
X67983228Y-37795907D01*
X67887990Y-37748288D01*
X67840371Y-37700669D01*
X67792751Y-37605431D01*
G04 #@! TO.C,R11*
X65490749Y-39110861D02*
X65014559Y-39444194D01*
X65490749Y-39682289D02*
X64490749Y-39682289D01*
X64490749Y-39301337D01*
X64538369Y-39206099D01*
X64585988Y-39158480D01*
X64681226Y-39110861D01*
X64824083Y-39110861D01*
X64919321Y-39158480D01*
X64966940Y-39206099D01*
X65014559Y-39301337D01*
X65014559Y-39682289D01*
X65490749Y-38158480D02*
X65490749Y-38729908D01*
X65490749Y-38444194D02*
X64490749Y-38444194D01*
X64633607Y-38539432D01*
X64728845Y-38634670D01*
X64776464Y-38729908D01*
X65490749Y-37206099D02*
X65490749Y-37777527D01*
X65490749Y-37491813D02*
X64490749Y-37491813D01*
X64633607Y-37587051D01*
X64728845Y-37682289D01*
X64776464Y-37777527D01*
G04 #@! TO.C,R13*
X80053362Y-46027530D02*
X79720029Y-45551340D01*
X79481934Y-46027530D02*
X79481934Y-45027530D01*
X79862886Y-45027530D01*
X79958124Y-45075150D01*
X80005743Y-45122769D01*
X80053362Y-45218007D01*
X80053362Y-45360864D01*
X80005743Y-45456102D01*
X79958124Y-45503721D01*
X79862886Y-45551340D01*
X79481934Y-45551340D01*
X81005743Y-46027530D02*
X80434315Y-46027530D01*
X80720029Y-46027530D02*
X80720029Y-45027530D01*
X80624791Y-45170388D01*
X80529553Y-45265626D01*
X80434315Y-45313245D01*
X81339077Y-45027530D02*
X81958124Y-45027530D01*
X81624791Y-45408483D01*
X81767648Y-45408483D01*
X81862886Y-45456102D01*
X81910505Y-45503721D01*
X81958124Y-45598959D01*
X81958124Y-45837054D01*
X81910505Y-45932292D01*
X81862886Y-45979911D01*
X81767648Y-46027530D01*
X81481934Y-46027530D01*
X81386696Y-45979911D01*
X81339077Y-45932292D01*
G04 #@! TO.C,R15*
X104782880Y-80396357D02*
X104306690Y-80729690D01*
X104782880Y-80967785D02*
X103782880Y-80967785D01*
X103782880Y-80586833D01*
X103830500Y-80491595D01*
X103878119Y-80443976D01*
X103973357Y-80396357D01*
X104116214Y-80396357D01*
X104211452Y-80443976D01*
X104259071Y-80491595D01*
X104306690Y-80586833D01*
X104306690Y-80967785D01*
X104782880Y-79443976D02*
X104782880Y-80015404D01*
X104782880Y-79729690D02*
X103782880Y-79729690D01*
X103925738Y-79824928D01*
X104020976Y-79920166D01*
X104068595Y-80015404D01*
X103782880Y-78539214D02*
X103782880Y-79015404D01*
X104259071Y-79063023D01*
X104211452Y-79015404D01*
X104163833Y-78920166D01*
X104163833Y-78682071D01*
X104211452Y-78586833D01*
X104259071Y-78539214D01*
X104354309Y-78491595D01*
X104592404Y-78491595D01*
X104687642Y-78539214D01*
X104735261Y-78586833D01*
X104782880Y-78682071D01*
X104782880Y-78920166D01*
X104735261Y-79015404D01*
X104687642Y-79063023D01*
G04 #@! TO.C,R16*
X83863362Y-50725530D02*
X83530029Y-50249340D01*
X83291934Y-50725530D02*
X83291934Y-49725530D01*
X83672886Y-49725530D01*
X83768124Y-49773150D01*
X83815743Y-49820769D01*
X83863362Y-49916007D01*
X83863362Y-50058864D01*
X83815743Y-50154102D01*
X83768124Y-50201721D01*
X83672886Y-50249340D01*
X83291934Y-50249340D01*
X84815743Y-50725530D02*
X84244315Y-50725530D01*
X84530029Y-50725530D02*
X84530029Y-49725530D01*
X84434791Y-49868388D01*
X84339553Y-49963626D01*
X84244315Y-50011245D01*
X85672886Y-49725530D02*
X85482410Y-49725530D01*
X85387172Y-49773150D01*
X85339553Y-49820769D01*
X85244315Y-49963626D01*
X85196696Y-50154102D01*
X85196696Y-50535054D01*
X85244315Y-50630292D01*
X85291934Y-50677911D01*
X85387172Y-50725530D01*
X85577648Y-50725530D01*
X85672886Y-50677911D01*
X85720505Y-50630292D01*
X85768124Y-50535054D01*
X85768124Y-50296959D01*
X85720505Y-50201721D01*
X85672886Y-50154102D01*
X85577648Y-50106483D01*
X85387172Y-50106483D01*
X85291934Y-50154102D01*
X85244315Y-50201721D01*
X85196696Y-50296959D01*
G04 #@! TO.C,R17*
X88956599Y-48056007D02*
X88480409Y-48389340D01*
X88956599Y-48627435D02*
X87956599Y-48627435D01*
X87956599Y-48246483D01*
X88004219Y-48151245D01*
X88051838Y-48103626D01*
X88147076Y-48056007D01*
X88289933Y-48056007D01*
X88385171Y-48103626D01*
X88432790Y-48151245D01*
X88480409Y-48246483D01*
X88480409Y-48627435D01*
X88956599Y-47103626D02*
X88956599Y-47675054D01*
X88956599Y-47389340D02*
X87956599Y-47389340D01*
X88099457Y-47484578D01*
X88194695Y-47579816D01*
X88242314Y-47675054D01*
X87956599Y-46770292D02*
X87956599Y-46103626D01*
X88956599Y-46532197D01*
G04 #@! TO.C,R19*
X98305880Y-75699857D02*
X97829690Y-76033190D01*
X98305880Y-76271285D02*
X97305880Y-76271285D01*
X97305880Y-75890333D01*
X97353500Y-75795095D01*
X97401119Y-75747476D01*
X97496357Y-75699857D01*
X97639214Y-75699857D01*
X97734452Y-75747476D01*
X97782071Y-75795095D01*
X97829690Y-75890333D01*
X97829690Y-76271285D01*
X98305880Y-74747476D02*
X98305880Y-75318904D01*
X98305880Y-75033190D02*
X97305880Y-75033190D01*
X97448738Y-75128428D01*
X97543976Y-75223666D01*
X97591595Y-75318904D01*
X98305880Y-74271285D02*
X98305880Y-74080809D01*
X98258261Y-73985571D01*
X98210642Y-73937952D01*
X98067785Y-73842714D01*
X97877309Y-73795095D01*
X97496357Y-73795095D01*
X97401119Y-73842714D01*
X97353500Y-73890333D01*
X97305880Y-73985571D01*
X97305880Y-74176047D01*
X97353500Y-74271285D01*
X97401119Y-74318904D01*
X97496357Y-74366523D01*
X97734452Y-74366523D01*
X97829690Y-74318904D01*
X97877309Y-74271285D01*
X97924928Y-74176047D01*
X97924928Y-73985571D01*
X97877309Y-73890333D01*
X97829690Y-73842714D01*
X97734452Y-73795095D01*
G04 #@! TO.C,R20*
X56207790Y-53769171D02*
X55924457Y-53364409D01*
X55722076Y-53769171D02*
X55722076Y-52919171D01*
X56045885Y-52919171D01*
X56126838Y-52959648D01*
X56167314Y-53000124D01*
X56207790Y-53081076D01*
X56207790Y-53202505D01*
X56167314Y-53283457D01*
X56126838Y-53323933D01*
X56045885Y-53364409D01*
X55722076Y-53364409D01*
X56531599Y-53000124D02*
X56572076Y-52959648D01*
X56653028Y-52919171D01*
X56855409Y-52919171D01*
X56936361Y-52959648D01*
X56976838Y-53000124D01*
X57017314Y-53081076D01*
X57017314Y-53162028D01*
X56976838Y-53283457D01*
X56491123Y-53769171D01*
X57017314Y-53769171D01*
X57543504Y-52919171D02*
X57624457Y-52919171D01*
X57705409Y-52959648D01*
X57745885Y-53000124D01*
X57786361Y-53081076D01*
X57826838Y-53242981D01*
X57826838Y-53445362D01*
X57786361Y-53607267D01*
X57745885Y-53688219D01*
X57705409Y-53728695D01*
X57624457Y-53769171D01*
X57543504Y-53769171D01*
X57462552Y-53728695D01*
X57422076Y-53688219D01*
X57381599Y-53607267D01*
X57341123Y-53445362D01*
X57341123Y-53242981D01*
X57381599Y-53081076D01*
X57422076Y-53000124D01*
X57462552Y-52959648D01*
X57543504Y-52919171D01*
G04 #@! TO.C,R21*
X58747790Y-56817173D02*
X58464457Y-56412411D01*
X58262076Y-56817173D02*
X58262076Y-55967173D01*
X58585885Y-55967173D01*
X58666838Y-56007650D01*
X58707314Y-56048126D01*
X58747790Y-56129078D01*
X58747790Y-56250507D01*
X58707314Y-56331459D01*
X58666838Y-56371935D01*
X58585885Y-56412411D01*
X58262076Y-56412411D01*
X59071599Y-56048126D02*
X59112076Y-56007650D01*
X59193028Y-55967173D01*
X59395409Y-55967173D01*
X59476361Y-56007650D01*
X59516838Y-56048126D01*
X59557314Y-56129078D01*
X59557314Y-56210030D01*
X59516838Y-56331459D01*
X59031123Y-56817173D01*
X59557314Y-56817173D01*
X60366838Y-56817173D02*
X59881123Y-56817173D01*
X60123980Y-56817173D02*
X60123980Y-55967173D01*
X60043028Y-56088602D01*
X59962076Y-56169554D01*
X59881123Y-56210030D01*
G04 #@! TO.C,R22*
X57332642Y-65603380D02*
X56999309Y-65127190D01*
X56761214Y-65603380D02*
X56761214Y-64603380D01*
X57142166Y-64603380D01*
X57237404Y-64651000D01*
X57285023Y-64698619D01*
X57332642Y-64793857D01*
X57332642Y-64936714D01*
X57285023Y-65031952D01*
X57237404Y-65079571D01*
X57142166Y-65127190D01*
X56761214Y-65127190D01*
X57713595Y-64698619D02*
X57761214Y-64651000D01*
X57856452Y-64603380D01*
X58094547Y-64603380D01*
X58189785Y-64651000D01*
X58237404Y-64698619D01*
X58285023Y-64793857D01*
X58285023Y-64889095D01*
X58237404Y-65031952D01*
X57665976Y-65603380D01*
X58285023Y-65603380D01*
X58665976Y-64698619D02*
X58713595Y-64651000D01*
X58808833Y-64603380D01*
X59046928Y-64603380D01*
X59142166Y-64651000D01*
X59189785Y-64698619D01*
X59237404Y-64793857D01*
X59237404Y-64889095D01*
X59189785Y-65031952D01*
X58618357Y-65603380D01*
X59237404Y-65603380D01*
G04 #@! TO.C,R23*
X51318290Y-46339673D02*
X51034957Y-45934911D01*
X50832576Y-46339673D02*
X50832576Y-45489673D01*
X51156385Y-45489673D01*
X51237338Y-45530150D01*
X51277814Y-45570626D01*
X51318290Y-45651578D01*
X51318290Y-45773007D01*
X51277814Y-45853959D01*
X51237338Y-45894435D01*
X51156385Y-45934911D01*
X50832576Y-45934911D01*
X51642099Y-45570626D02*
X51682576Y-45530150D01*
X51763528Y-45489673D01*
X51965909Y-45489673D01*
X52046861Y-45530150D01*
X52087338Y-45570626D01*
X52127814Y-45651578D01*
X52127814Y-45732530D01*
X52087338Y-45853959D01*
X51601623Y-46339673D01*
X52127814Y-46339673D01*
X52411147Y-45489673D02*
X52937338Y-45489673D01*
X52654004Y-45813483D01*
X52775433Y-45813483D01*
X52856385Y-45853959D01*
X52896861Y-45894435D01*
X52937338Y-45975388D01*
X52937338Y-46177769D01*
X52896861Y-46258721D01*
X52856385Y-46299197D01*
X52775433Y-46339673D01*
X52532576Y-46339673D01*
X52451623Y-46299197D01*
X52411147Y-46258721D01*
G04 #@! TO.C,R24*
X53858291Y-49387671D02*
X53574958Y-48982909D01*
X53372577Y-49387671D02*
X53372577Y-48537671D01*
X53696386Y-48537671D01*
X53777339Y-48578148D01*
X53817815Y-48618624D01*
X53858291Y-48699576D01*
X53858291Y-48821005D01*
X53817815Y-48901957D01*
X53777339Y-48942433D01*
X53696386Y-48982909D01*
X53372577Y-48982909D01*
X54182100Y-48618624D02*
X54222577Y-48578148D01*
X54303529Y-48537671D01*
X54505910Y-48537671D01*
X54586862Y-48578148D01*
X54627339Y-48618624D01*
X54667815Y-48699576D01*
X54667815Y-48780528D01*
X54627339Y-48901957D01*
X54141624Y-49387671D01*
X54667815Y-49387671D01*
X55396386Y-48821005D02*
X55396386Y-49387671D01*
X55194005Y-48497195D02*
X54991624Y-49104338D01*
X55517815Y-49104338D01*
G04 #@! TO.C,R25*
X50604680Y-56091376D02*
X50128490Y-56424709D01*
X50604680Y-56662804D02*
X49604680Y-56662804D01*
X49604680Y-56281852D01*
X49652300Y-56186614D01*
X49699919Y-56138995D01*
X49795157Y-56091376D01*
X49938014Y-56091376D01*
X50033252Y-56138995D01*
X50080871Y-56186614D01*
X50128490Y-56281852D01*
X50128490Y-56662804D01*
X49699919Y-55710423D02*
X49652300Y-55662804D01*
X49604680Y-55567566D01*
X49604680Y-55329471D01*
X49652300Y-55234233D01*
X49699919Y-55186614D01*
X49795157Y-55138995D01*
X49890395Y-55138995D01*
X50033252Y-55186614D01*
X50604680Y-55758042D01*
X50604680Y-55138995D01*
X49604680Y-54234233D02*
X49604680Y-54710423D01*
X50080871Y-54758042D01*
X50033252Y-54710423D01*
X49985633Y-54615185D01*
X49985633Y-54377090D01*
X50033252Y-54281852D01*
X50080871Y-54234233D01*
X50176109Y-54186614D01*
X50414204Y-54186614D01*
X50509442Y-54234233D01*
X50557061Y-54281852D01*
X50604680Y-54377090D01*
X50604680Y-54615185D01*
X50557061Y-54710423D01*
X50509442Y-54758042D01*
G04 #@! TO.C,R27*
X53087359Y-61696387D02*
X52804026Y-61291625D01*
X52601645Y-61696387D02*
X52601645Y-60846387D01*
X52925454Y-60846387D01*
X53006407Y-60886864D01*
X53046883Y-60927340D01*
X53087359Y-61008292D01*
X53087359Y-61129721D01*
X53046883Y-61210673D01*
X53006407Y-61251149D01*
X52925454Y-61291625D01*
X52601645Y-61291625D01*
X53411168Y-60927340D02*
X53451645Y-60886864D01*
X53532597Y-60846387D01*
X53734978Y-60846387D01*
X53815930Y-60886864D01*
X53856407Y-60927340D01*
X53896883Y-61008292D01*
X53896883Y-61089244D01*
X53856407Y-61210673D01*
X53370692Y-61696387D01*
X53896883Y-61696387D01*
X54180216Y-60846387D02*
X54746883Y-60846387D01*
X54382597Y-61696387D01*
G04 #@! TO.C,R28*
X55947023Y-64808428D02*
X55542261Y-65091761D01*
X55947023Y-65294142D02*
X55097023Y-65294142D01*
X55097023Y-64970333D01*
X55137500Y-64889380D01*
X55177976Y-64848904D01*
X55258928Y-64808428D01*
X55380357Y-64808428D01*
X55461309Y-64848904D01*
X55501785Y-64889380D01*
X55542261Y-64970333D01*
X55542261Y-65294142D01*
X55177976Y-64484619D02*
X55137500Y-64444142D01*
X55097023Y-64363190D01*
X55097023Y-64160809D01*
X55137500Y-64079857D01*
X55177976Y-64039380D01*
X55258928Y-63998904D01*
X55339880Y-63998904D01*
X55461309Y-64039380D01*
X55947023Y-64525095D01*
X55947023Y-63998904D01*
X55461309Y-63513190D02*
X55420833Y-63594142D01*
X55380357Y-63634619D01*
X55299404Y-63675095D01*
X55258928Y-63675095D01*
X55177976Y-63634619D01*
X55137500Y-63594142D01*
X55097023Y-63513190D01*
X55097023Y-63351285D01*
X55137500Y-63270333D01*
X55177976Y-63229857D01*
X55258928Y-63189380D01*
X55299404Y-63189380D01*
X55380357Y-63229857D01*
X55420833Y-63270333D01*
X55461309Y-63351285D01*
X55461309Y-63513190D01*
X55501785Y-63594142D01*
X55542261Y-63634619D01*
X55623214Y-63675095D01*
X55785119Y-63675095D01*
X55866071Y-63634619D01*
X55906547Y-63594142D01*
X55947023Y-63513190D01*
X55947023Y-63351285D01*
X55906547Y-63270333D01*
X55866071Y-63229857D01*
X55785119Y-63189380D01*
X55623214Y-63189380D01*
X55542261Y-63229857D01*
X55501785Y-63270333D01*
X55461309Y-63351285D01*
G04 #@! TO.C,R29*
X52373749Y-71448091D02*
X51897559Y-71781424D01*
X52373749Y-72019519D02*
X51373749Y-72019519D01*
X51373749Y-71638567D01*
X51421369Y-71543329D01*
X51468988Y-71495710D01*
X51564226Y-71448091D01*
X51707083Y-71448091D01*
X51802321Y-71495710D01*
X51849940Y-71543329D01*
X51897559Y-71638567D01*
X51897559Y-72019519D01*
X51468988Y-71067138D02*
X51421369Y-71019519D01*
X51373749Y-70924281D01*
X51373749Y-70686186D01*
X51421369Y-70590948D01*
X51468988Y-70543329D01*
X51564226Y-70495710D01*
X51659464Y-70495710D01*
X51802321Y-70543329D01*
X52373749Y-71114757D01*
X52373749Y-70495710D01*
X52373749Y-70019519D02*
X52373749Y-69829043D01*
X52326130Y-69733805D01*
X52278511Y-69686186D01*
X52135654Y-69590948D01*
X51945178Y-69543329D01*
X51564226Y-69543329D01*
X51468988Y-69590948D01*
X51421369Y-69638567D01*
X51373749Y-69733805D01*
X51373749Y-69924281D01*
X51421369Y-70019519D01*
X51468988Y-70067138D01*
X51564226Y-70114757D01*
X51802321Y-70114757D01*
X51897559Y-70067138D01*
X51945178Y-70019519D01*
X51992797Y-69924281D01*
X51992797Y-69733805D01*
X51945178Y-69638567D01*
X51897559Y-69590948D01*
X51802321Y-69543329D01*
G04 #@! TO.C,U3*
X83297315Y-43121529D02*
X83297315Y-43931053D01*
X83344934Y-44026291D01*
X83392553Y-44073910D01*
X83487791Y-44121529D01*
X83678267Y-44121529D01*
X83773505Y-44073910D01*
X83821124Y-44026291D01*
X83868743Y-43931053D01*
X83868743Y-43121529D01*
X84249696Y-43121529D02*
X84868743Y-43121529D01*
X84535410Y-43502482D01*
X84678267Y-43502482D01*
X84773505Y-43550101D01*
X84821124Y-43597720D01*
X84868743Y-43692958D01*
X84868743Y-43931053D01*
X84821124Y-44026291D01*
X84773505Y-44073910D01*
X84678267Y-44121529D01*
X84392553Y-44121529D01*
X84297315Y-44073910D01*
X84249696Y-44026291D01*
G04 #@! TO.C,R_1*
X78620880Y-76237119D02*
X78144690Y-76570452D01*
X78620880Y-76808547D02*
X77620880Y-76808547D01*
X77620880Y-76427595D01*
X77668500Y-76332357D01*
X77716119Y-76284738D01*
X77811357Y-76237119D01*
X77954214Y-76237119D01*
X78049452Y-76284738D01*
X78097071Y-76332357D01*
X78144690Y-76427595D01*
X78144690Y-76808547D01*
X78716119Y-76046642D02*
X78716119Y-75284738D01*
X78620880Y-74522833D02*
X78620880Y-75094261D01*
X78620880Y-74808547D02*
X77620880Y-74808547D01*
X77763738Y-74903785D01*
X77858976Y-74999023D01*
X77906595Y-75094261D01*
G04 #@! TO.C,COUT102*
X104685265Y-37991976D02*
X104732884Y-38039595D01*
X104780503Y-38182452D01*
X104780503Y-38277690D01*
X104732884Y-38420547D01*
X104637646Y-38515785D01*
X104542408Y-38563404D01*
X104351932Y-38611023D01*
X104209075Y-38611023D01*
X104018599Y-38563404D01*
X103923361Y-38515785D01*
X103828123Y-38420547D01*
X103780503Y-38277690D01*
X103780503Y-38182452D01*
X103828123Y-38039595D01*
X103875742Y-37991976D01*
X103780503Y-37372928D02*
X103780503Y-37182452D01*
X103828123Y-37087214D01*
X103923361Y-36991976D01*
X104113837Y-36944357D01*
X104447170Y-36944357D01*
X104637646Y-36991976D01*
X104732884Y-37087214D01*
X104780503Y-37182452D01*
X104780503Y-37372928D01*
X104732884Y-37468166D01*
X104637646Y-37563404D01*
X104447170Y-37611023D01*
X104113837Y-37611023D01*
X103923361Y-37563404D01*
X103828123Y-37468166D01*
X103780503Y-37372928D01*
X103780503Y-36515785D02*
X104590027Y-36515785D01*
X104685265Y-36468166D01*
X104732884Y-36420547D01*
X104780503Y-36325309D01*
X104780503Y-36134833D01*
X104732884Y-36039595D01*
X104685265Y-35991976D01*
X104590027Y-35944357D01*
X103780503Y-35944357D01*
X103780503Y-35611023D02*
X103780503Y-35039595D01*
X104780503Y-35325309D02*
X103780503Y-35325309D01*
X104780503Y-34182452D02*
X104780503Y-34753880D01*
X104780503Y-34468166D02*
X103780503Y-34468166D01*
X103923361Y-34563404D01*
X104018599Y-34658642D01*
X104066218Y-34753880D01*
X103780503Y-33563404D02*
X103780503Y-33468166D01*
X103828123Y-33372928D01*
X103875742Y-33325309D01*
X103970980Y-33277690D01*
X104161456Y-33230071D01*
X104399551Y-33230071D01*
X104590027Y-33277690D01*
X104685265Y-33325309D01*
X104732884Y-33372928D01*
X104780503Y-33468166D01*
X104780503Y-33563404D01*
X104732884Y-33658642D01*
X104685265Y-33706261D01*
X104590027Y-33753880D01*
X104399551Y-33801499D01*
X104161456Y-33801499D01*
X103970980Y-33753880D01*
X103875742Y-33706261D01*
X103828123Y-33658642D01*
X103780503Y-33563404D01*
X103875742Y-32849118D02*
X103828123Y-32801499D01*
X103780503Y-32706261D01*
X103780503Y-32468166D01*
X103828123Y-32372928D01*
X103875742Y-32325309D01*
X103970980Y-32277690D01*
X104066218Y-32277690D01*
X104209075Y-32325309D01*
X104780503Y-32896737D01*
X104780503Y-32277690D01*
G04 #@! TO.C,C103*
X99117408Y-49965785D02*
X99145980Y-49994357D01*
X99174551Y-50080071D01*
X99174551Y-50137214D01*
X99145980Y-50222928D01*
X99088837Y-50280071D01*
X99031694Y-50308642D01*
X98917408Y-50337214D01*
X98831694Y-50337214D01*
X98717408Y-50308642D01*
X98660265Y-50280071D01*
X98603123Y-50222928D01*
X98574551Y-50137214D01*
X98574551Y-50080071D01*
X98603123Y-49994357D01*
X98631694Y-49965785D01*
X99174551Y-49394357D02*
X99174551Y-49737214D01*
X99174551Y-49565785D02*
X98574551Y-49565785D01*
X98660265Y-49622928D01*
X98717408Y-49680071D01*
X98745980Y-49737214D01*
X98574551Y-49022928D02*
X98574551Y-48965785D01*
X98603123Y-48908642D01*
X98631694Y-48880071D01*
X98688837Y-48851499D01*
X98803123Y-48822928D01*
X98945980Y-48822928D01*
X99060265Y-48851499D01*
X99117408Y-48880071D01*
X99145980Y-48908642D01*
X99174551Y-48965785D01*
X99174551Y-49022928D01*
X99145980Y-49080071D01*
X99117408Y-49108642D01*
X99060265Y-49137214D01*
X98945980Y-49165785D01*
X98803123Y-49165785D01*
X98688837Y-49137214D01*
X98631694Y-49108642D01*
X98603123Y-49080071D01*
X98574551Y-49022928D01*
X98574551Y-48622928D02*
X98574551Y-48251499D01*
X98803123Y-48451499D01*
X98803123Y-48365785D01*
X98831694Y-48308642D01*
X98860265Y-48280071D01*
X98917408Y-48251499D01*
X99060265Y-48251499D01*
X99117408Y-48280071D01*
X99145980Y-48308642D01*
X99174551Y-48365785D01*
X99174551Y-48537214D01*
X99145980Y-48594357D01*
X99117408Y-48622928D01*
G04 #@! TO.C,F101*
X102706694Y-59180071D02*
X102706694Y-59513404D01*
X103230503Y-59513404D02*
X102230503Y-59513404D01*
X102230503Y-59037214D01*
X103230503Y-58132452D02*
X103230503Y-58703880D01*
X103230503Y-58418166D02*
X102230503Y-58418166D01*
X102373361Y-58513404D01*
X102468599Y-58608642D01*
X102516218Y-58703880D01*
X102230503Y-57513404D02*
X102230503Y-57418166D01*
X102278123Y-57322928D01*
X102325742Y-57275309D01*
X102420980Y-57227690D01*
X102611456Y-57180071D01*
X102849551Y-57180071D01*
X103040027Y-57227690D01*
X103135265Y-57275309D01*
X103182884Y-57322928D01*
X103230503Y-57418166D01*
X103230503Y-57513404D01*
X103182884Y-57608642D01*
X103135265Y-57656261D01*
X103040027Y-57703880D01*
X102849551Y-57751499D01*
X102611456Y-57751499D01*
X102420980Y-57703880D01*
X102325742Y-57656261D01*
X102278123Y-57608642D01*
X102230503Y-57513404D01*
X103230503Y-56227690D02*
X103230503Y-56799118D01*
X103230503Y-56513404D02*
X102230503Y-56513404D01*
X102373361Y-56608642D01*
X102468599Y-56703880D01*
X102516218Y-56799118D01*
G04 #@! TO.C,R103*
X89159075Y-50346737D02*
X88825742Y-49870547D01*
X88587646Y-50346737D02*
X88587646Y-49346737D01*
X88968599Y-49346737D01*
X89063837Y-49394357D01*
X89111456Y-49441976D01*
X89159075Y-49537214D01*
X89159075Y-49680071D01*
X89111456Y-49775309D01*
X89063837Y-49822928D01*
X88968599Y-49870547D01*
X88587646Y-49870547D01*
X90111456Y-50346737D02*
X89540027Y-50346737D01*
X89825742Y-50346737D02*
X89825742Y-49346737D01*
X89730503Y-49489595D01*
X89635265Y-49584833D01*
X89540027Y-49632452D01*
X90730503Y-49346737D02*
X90825742Y-49346737D01*
X90920980Y-49394357D01*
X90968599Y-49441976D01*
X91016218Y-49537214D01*
X91063837Y-49727690D01*
X91063837Y-49965785D01*
X91016218Y-50156261D01*
X90968599Y-50251499D01*
X90920980Y-50299118D01*
X90825742Y-50346737D01*
X90730503Y-50346737D01*
X90635265Y-50299118D01*
X90587646Y-50251499D01*
X90540027Y-50156261D01*
X90492408Y-49965785D01*
X90492408Y-49727690D01*
X90540027Y-49537214D01*
X90587646Y-49441976D01*
X90635265Y-49394357D01*
X90730503Y-49346737D01*
X91397170Y-49346737D02*
X92016218Y-49346737D01*
X91682884Y-49727690D01*
X91825742Y-49727690D01*
X91920980Y-49775309D01*
X91968599Y-49822928D01*
X92016218Y-49918166D01*
X92016218Y-50156261D01*
X91968599Y-50251499D01*
X91920980Y-50299118D01*
X91825742Y-50346737D01*
X91540027Y-50346737D01*
X91444789Y-50299118D01*
X91397170Y-50251499D01*
G04 #@! TO.C,R102*
X89209075Y-54196737D02*
X88875742Y-53720547D01*
X88637646Y-54196737D02*
X88637646Y-53196737D01*
X89018599Y-53196737D01*
X89113837Y-53244357D01*
X89161456Y-53291976D01*
X89209075Y-53387214D01*
X89209075Y-53530071D01*
X89161456Y-53625309D01*
X89113837Y-53672928D01*
X89018599Y-53720547D01*
X88637646Y-53720547D01*
X90161456Y-54196737D02*
X89590027Y-54196737D01*
X89875742Y-54196737D02*
X89875742Y-53196737D01*
X89780503Y-53339595D01*
X89685265Y-53434833D01*
X89590027Y-53482452D01*
X90780503Y-53196737D02*
X90875742Y-53196737D01*
X90970980Y-53244357D01*
X91018599Y-53291976D01*
X91066218Y-53387214D01*
X91113837Y-53577690D01*
X91113837Y-53815785D01*
X91066218Y-54006261D01*
X91018599Y-54101499D01*
X90970980Y-54149118D01*
X90875742Y-54196737D01*
X90780503Y-54196737D01*
X90685265Y-54149118D01*
X90637646Y-54101499D01*
X90590027Y-54006261D01*
X90542408Y-53815785D01*
X90542408Y-53577690D01*
X90590027Y-53387214D01*
X90637646Y-53291976D01*
X90685265Y-53244357D01*
X90780503Y-53196737D01*
X91494789Y-53291976D02*
X91542408Y-53244357D01*
X91637646Y-53196737D01*
X91875742Y-53196737D01*
X91970980Y-53244357D01*
X92018599Y-53291976D01*
X92066218Y-53387214D01*
X92066218Y-53482452D01*
X92018599Y-53625309D01*
X91447170Y-54196737D01*
X92066218Y-54196737D01*
G04 #@! TO.C,R105*
X107575742Y-49075309D02*
X108051932Y-48741976D01*
X107575742Y-48503880D02*
X108575742Y-48503880D01*
X108575742Y-48884833D01*
X108528123Y-48980071D01*
X108480503Y-49027690D01*
X108385265Y-49075309D01*
X108242408Y-49075309D01*
X108147170Y-49027690D01*
X108099551Y-48980071D01*
X108051932Y-48884833D01*
X108051932Y-48503880D01*
X107575742Y-50027690D02*
X107575742Y-49456261D01*
X107575742Y-49741976D02*
X108575742Y-49741976D01*
X108432884Y-49646737D01*
X108337646Y-49551499D01*
X108290027Y-49456261D01*
X108575742Y-50646737D02*
X108575742Y-50741976D01*
X108528123Y-50837214D01*
X108480503Y-50884833D01*
X108385265Y-50932452D01*
X108194789Y-50980071D01*
X107956694Y-50980071D01*
X107766218Y-50932452D01*
X107670980Y-50884833D01*
X107623361Y-50837214D01*
X107575742Y-50741976D01*
X107575742Y-50646737D01*
X107623361Y-50551499D01*
X107670980Y-50503880D01*
X107766218Y-50456261D01*
X107956694Y-50408642D01*
X108194789Y-50408642D01*
X108385265Y-50456261D01*
X108480503Y-50503880D01*
X108528123Y-50551499D01*
X108575742Y-50646737D01*
X108575742Y-51884833D02*
X108575742Y-51408642D01*
X108099551Y-51361023D01*
X108147170Y-51408642D01*
X108194789Y-51503880D01*
X108194789Y-51741976D01*
X108147170Y-51837214D01*
X108099551Y-51884833D01*
X108004313Y-51932452D01*
X107766218Y-51932452D01*
X107670980Y-51884833D01*
X107623361Y-51837214D01*
X107575742Y-51741976D01*
X107575742Y-51503880D01*
X107623361Y-51408642D01*
X107670980Y-51361023D01*
G04 #@! TO.C,R104*
X104730503Y-59313404D02*
X104254313Y-59646737D01*
X104730503Y-59884833D02*
X103730503Y-59884833D01*
X103730503Y-59503880D01*
X103778123Y-59408642D01*
X103825742Y-59361023D01*
X103920980Y-59313404D01*
X104063837Y-59313404D01*
X104159075Y-59361023D01*
X104206694Y-59408642D01*
X104254313Y-59503880D01*
X104254313Y-59884833D01*
X104730503Y-58361023D02*
X104730503Y-58932452D01*
X104730503Y-58646737D02*
X103730503Y-58646737D01*
X103873361Y-58741976D01*
X103968599Y-58837214D01*
X104016218Y-58932452D01*
X103730503Y-57741976D02*
X103730503Y-57646737D01*
X103778123Y-57551499D01*
X103825742Y-57503880D01*
X103920980Y-57456261D01*
X104111456Y-57408642D01*
X104349551Y-57408642D01*
X104540027Y-57456261D01*
X104635265Y-57503880D01*
X104682884Y-57551499D01*
X104730503Y-57646737D01*
X104730503Y-57741976D01*
X104682884Y-57837214D01*
X104635265Y-57884833D01*
X104540027Y-57932452D01*
X104349551Y-57980071D01*
X104111456Y-57980071D01*
X103920980Y-57932452D01*
X103825742Y-57884833D01*
X103778123Y-57837214D01*
X103730503Y-57741976D01*
X104063837Y-56551499D02*
X104730503Y-56551499D01*
X103682884Y-56789595D02*
X104397170Y-57027690D01*
X104397170Y-56408642D01*
G04 #@! TO.C,U101*
X98738837Y-53596737D02*
X98738837Y-54406261D01*
X98786456Y-54501499D01*
X98834075Y-54549118D01*
X98929313Y-54596737D01*
X99119789Y-54596737D01*
X99215027Y-54549118D01*
X99262646Y-54501499D01*
X99310265Y-54406261D01*
X99310265Y-53596737D01*
X100310265Y-54596737D02*
X99738837Y-54596737D01*
X100024551Y-54596737D02*
X100024551Y-53596737D01*
X99929313Y-53739595D01*
X99834075Y-53834833D01*
X99738837Y-53882452D01*
X100929313Y-53596737D02*
X101024551Y-53596737D01*
X101119789Y-53644357D01*
X101167408Y-53691976D01*
X101215027Y-53787214D01*
X101262646Y-53977690D01*
X101262646Y-54215785D01*
X101215027Y-54406261D01*
X101167408Y-54501499D01*
X101119789Y-54549118D01*
X101024551Y-54596737D01*
X100929313Y-54596737D01*
X100834075Y-54549118D01*
X100786456Y-54501499D01*
X100738837Y-54406261D01*
X100691218Y-54215785D01*
X100691218Y-53977690D01*
X100738837Y-53787214D01*
X100786456Y-53691976D01*
X100834075Y-53644357D01*
X100929313Y-53596737D01*
X102215027Y-54596737D02*
X101643599Y-54596737D01*
X101929313Y-54596737D02*
X101929313Y-53596737D01*
X101834075Y-53739595D01*
X101738837Y-53834833D01*
X101643599Y-53882452D01*
G04 #@! TO.C,COUT101*
X98285265Y-41741976D02*
X98332884Y-41789595D01*
X98380503Y-41932452D01*
X98380503Y-42027690D01*
X98332884Y-42170547D01*
X98237646Y-42265785D01*
X98142408Y-42313404D01*
X97951932Y-42361023D01*
X97809075Y-42361023D01*
X97618599Y-42313404D01*
X97523361Y-42265785D01*
X97428123Y-42170547D01*
X97380503Y-42027690D01*
X97380503Y-41932452D01*
X97428123Y-41789595D01*
X97475742Y-41741976D01*
X97380503Y-41122928D02*
X97380503Y-40932452D01*
X97428123Y-40837214D01*
X97523361Y-40741976D01*
X97713837Y-40694357D01*
X98047170Y-40694357D01*
X98237646Y-40741976D01*
X98332884Y-40837214D01*
X98380503Y-40932452D01*
X98380503Y-41122928D01*
X98332884Y-41218166D01*
X98237646Y-41313404D01*
X98047170Y-41361023D01*
X97713837Y-41361023D01*
X97523361Y-41313404D01*
X97428123Y-41218166D01*
X97380503Y-41122928D01*
X97380503Y-40265785D02*
X98190027Y-40265785D01*
X98285265Y-40218166D01*
X98332884Y-40170547D01*
X98380503Y-40075309D01*
X98380503Y-39884833D01*
X98332884Y-39789595D01*
X98285265Y-39741976D01*
X98190027Y-39694357D01*
X97380503Y-39694357D01*
X97380503Y-39361023D02*
X97380503Y-38789595D01*
X98380503Y-39075309D02*
X97380503Y-39075309D01*
X98380503Y-37932452D02*
X98380503Y-38503880D01*
X98380503Y-38218166D02*
X97380503Y-38218166D01*
X97523361Y-38313404D01*
X97618599Y-38408642D01*
X97666218Y-38503880D01*
X97380503Y-37313404D02*
X97380503Y-37218166D01*
X97428123Y-37122928D01*
X97475742Y-37075309D01*
X97570980Y-37027690D01*
X97761456Y-36980071D01*
X97999551Y-36980071D01*
X98190027Y-37027690D01*
X98285265Y-37075309D01*
X98332884Y-37122928D01*
X98380503Y-37218166D01*
X98380503Y-37313404D01*
X98332884Y-37408642D01*
X98285265Y-37456261D01*
X98190027Y-37503880D01*
X97999551Y-37551499D01*
X97761456Y-37551499D01*
X97570980Y-37503880D01*
X97475742Y-37456261D01*
X97428123Y-37408642D01*
X97380503Y-37313404D01*
X98380503Y-36027690D02*
X98380503Y-36599118D01*
X98380503Y-36313404D02*
X97380503Y-36313404D01*
X97523361Y-36408642D01*
X97618599Y-36503880D01*
X97666218Y-36599118D01*
G04 #@! TO.C,COUT103*
X100635265Y-41966976D02*
X100682884Y-42014595D01*
X100730503Y-42157452D01*
X100730503Y-42252690D01*
X100682884Y-42395547D01*
X100587646Y-42490785D01*
X100492408Y-42538404D01*
X100301932Y-42586023D01*
X100159075Y-42586023D01*
X99968599Y-42538404D01*
X99873361Y-42490785D01*
X99778123Y-42395547D01*
X99730503Y-42252690D01*
X99730503Y-42157452D01*
X99778123Y-42014595D01*
X99825742Y-41966976D01*
X99730503Y-41347928D02*
X99730503Y-41157452D01*
X99778123Y-41062214D01*
X99873361Y-40966976D01*
X100063837Y-40919357D01*
X100397170Y-40919357D01*
X100587646Y-40966976D01*
X100682884Y-41062214D01*
X100730503Y-41157452D01*
X100730503Y-41347928D01*
X100682884Y-41443166D01*
X100587646Y-41538404D01*
X100397170Y-41586023D01*
X100063837Y-41586023D01*
X99873361Y-41538404D01*
X99778123Y-41443166D01*
X99730503Y-41347928D01*
X99730503Y-40490785D02*
X100540027Y-40490785D01*
X100635265Y-40443166D01*
X100682884Y-40395547D01*
X100730503Y-40300309D01*
X100730503Y-40109833D01*
X100682884Y-40014595D01*
X100635265Y-39966976D01*
X100540027Y-39919357D01*
X99730503Y-39919357D01*
X99730503Y-39586023D02*
X99730503Y-39014595D01*
X100730503Y-39300309D02*
X99730503Y-39300309D01*
X100730503Y-38157452D02*
X100730503Y-38728880D01*
X100730503Y-38443166D02*
X99730503Y-38443166D01*
X99873361Y-38538404D01*
X99968599Y-38633642D01*
X100016218Y-38728880D01*
X99730503Y-37538404D02*
X99730503Y-37443166D01*
X99778123Y-37347928D01*
X99825742Y-37300309D01*
X99920980Y-37252690D01*
X100111456Y-37205071D01*
X100349551Y-37205071D01*
X100540027Y-37252690D01*
X100635265Y-37300309D01*
X100682884Y-37347928D01*
X100730503Y-37443166D01*
X100730503Y-37538404D01*
X100682884Y-37633642D01*
X100635265Y-37681261D01*
X100540027Y-37728880D01*
X100349551Y-37776499D01*
X100111456Y-37776499D01*
X99920980Y-37728880D01*
X99825742Y-37681261D01*
X99778123Y-37633642D01*
X99730503Y-37538404D01*
X99730503Y-36871737D02*
X99730503Y-36252690D01*
X100111456Y-36586023D01*
X100111456Y-36443166D01*
X100159075Y-36347928D01*
X100206694Y-36300309D01*
X100301932Y-36252690D01*
X100540027Y-36252690D01*
X100635265Y-36300309D01*
X100682884Y-36347928D01*
X100730503Y-36443166D01*
X100730503Y-36728880D01*
X100682884Y-36824118D01*
X100635265Y-36871737D01*
G04 #@! TO.C,D101*
X90962646Y-62646737D02*
X90962646Y-61646737D01*
X91200742Y-61646737D01*
X91343599Y-61694357D01*
X91438837Y-61789595D01*
X91486456Y-61884833D01*
X91534075Y-62075309D01*
X91534075Y-62218166D01*
X91486456Y-62408642D01*
X91438837Y-62503880D01*
X91343599Y-62599118D01*
X91200742Y-62646737D01*
X90962646Y-62646737D01*
X92486456Y-62646737D02*
X91915027Y-62646737D01*
X92200742Y-62646737D02*
X92200742Y-61646737D01*
X92105503Y-61789595D01*
X92010265Y-61884833D01*
X91915027Y-61932452D01*
X93105503Y-61646737D02*
X93200742Y-61646737D01*
X93295980Y-61694357D01*
X93343599Y-61741976D01*
X93391218Y-61837214D01*
X93438837Y-62027690D01*
X93438837Y-62265785D01*
X93391218Y-62456261D01*
X93343599Y-62551499D01*
X93295980Y-62599118D01*
X93200742Y-62646737D01*
X93105503Y-62646737D01*
X93010265Y-62599118D01*
X92962646Y-62551499D01*
X92915027Y-62456261D01*
X92867408Y-62265785D01*
X92867408Y-62027690D01*
X92915027Y-61837214D01*
X92962646Y-61741976D01*
X93010265Y-61694357D01*
X93105503Y-61646737D01*
X94391218Y-62646737D02*
X93819789Y-62646737D01*
X94105503Y-62646737D02*
X94105503Y-61646737D01*
X94010265Y-61789595D01*
X93915027Y-61884833D01*
X93819789Y-61932452D01*
G04 #@! TO.C,D103*
X107986272Y-41473123D02*
X107986272Y-40473123D01*
X108224368Y-40473123D01*
X108367225Y-40520743D01*
X108462463Y-40615981D01*
X108510082Y-40711219D01*
X108557701Y-40901695D01*
X108557701Y-41044552D01*
X108510082Y-41235028D01*
X108462463Y-41330266D01*
X108367225Y-41425504D01*
X108224368Y-41473123D01*
X107986272Y-41473123D01*
X109510082Y-41473123D02*
X108938653Y-41473123D01*
X109224368Y-41473123D02*
X109224368Y-40473123D01*
X109129129Y-40615981D01*
X109033891Y-40711219D01*
X108938653Y-40758838D01*
X110129129Y-40473123D02*
X110224368Y-40473123D01*
X110319606Y-40520743D01*
X110367225Y-40568362D01*
X110414844Y-40663600D01*
X110462463Y-40854076D01*
X110462463Y-41092171D01*
X110414844Y-41282647D01*
X110367225Y-41377885D01*
X110319606Y-41425504D01*
X110224368Y-41473123D01*
X110129129Y-41473123D01*
X110033891Y-41425504D01*
X109986272Y-41377885D01*
X109938653Y-41282647D01*
X109891034Y-41092171D01*
X109891034Y-40854076D01*
X109938653Y-40663600D01*
X109986272Y-40568362D01*
X110033891Y-40520743D01*
X110129129Y-40473123D01*
X110795796Y-40473123D02*
X111414844Y-40473123D01*
X111081510Y-40854076D01*
X111224368Y-40854076D01*
X111319606Y-40901695D01*
X111367225Y-40949314D01*
X111414844Y-41044552D01*
X111414844Y-41282647D01*
X111367225Y-41377885D01*
X111319606Y-41425504D01*
X111224368Y-41473123D01*
X110938653Y-41473123D01*
X110843415Y-41425504D01*
X110795796Y-41377885D01*
G04 #@! TO.C,D102*
X88312646Y-67771737D02*
X88312646Y-66771737D01*
X88550742Y-66771737D01*
X88693599Y-66819357D01*
X88788837Y-66914595D01*
X88836456Y-67009833D01*
X88884075Y-67200309D01*
X88884075Y-67343166D01*
X88836456Y-67533642D01*
X88788837Y-67628880D01*
X88693599Y-67724118D01*
X88550742Y-67771737D01*
X88312646Y-67771737D01*
X89836456Y-67771737D02*
X89265027Y-67771737D01*
X89550742Y-67771737D02*
X89550742Y-66771737D01*
X89455503Y-66914595D01*
X89360265Y-67009833D01*
X89265027Y-67057452D01*
X90455503Y-66771737D02*
X90550742Y-66771737D01*
X90645980Y-66819357D01*
X90693599Y-66866976D01*
X90741218Y-66962214D01*
X90788837Y-67152690D01*
X90788837Y-67390785D01*
X90741218Y-67581261D01*
X90693599Y-67676499D01*
X90645980Y-67724118D01*
X90550742Y-67771737D01*
X90455503Y-67771737D01*
X90360265Y-67724118D01*
X90312646Y-67676499D01*
X90265027Y-67581261D01*
X90217408Y-67390785D01*
X90217408Y-67152690D01*
X90265027Y-66962214D01*
X90312646Y-66866976D01*
X90360265Y-66819357D01*
X90455503Y-66771737D01*
X91169789Y-66866976D02*
X91217408Y-66819357D01*
X91312646Y-66771737D01*
X91550742Y-66771737D01*
X91645980Y-66819357D01*
X91693599Y-66866976D01*
X91741218Y-66962214D01*
X91741218Y-67057452D01*
X91693599Y-67200309D01*
X91122170Y-67771737D01*
X91741218Y-67771737D01*
G04 #@! TO.C,R101*
X100459075Y-67871737D02*
X100125742Y-67395547D01*
X99887646Y-67871737D02*
X99887646Y-66871737D01*
X100268599Y-66871737D01*
X100363837Y-66919357D01*
X100411456Y-66966976D01*
X100459075Y-67062214D01*
X100459075Y-67205071D01*
X100411456Y-67300309D01*
X100363837Y-67347928D01*
X100268599Y-67395547D01*
X99887646Y-67395547D01*
X101411456Y-67871737D02*
X100840027Y-67871737D01*
X101125742Y-67871737D02*
X101125742Y-66871737D01*
X101030503Y-67014595D01*
X100935265Y-67109833D01*
X100840027Y-67157452D01*
X102030503Y-66871737D02*
X102125742Y-66871737D01*
X102220980Y-66919357D01*
X102268599Y-66966976D01*
X102316218Y-67062214D01*
X102363837Y-67252690D01*
X102363837Y-67490785D01*
X102316218Y-67681261D01*
X102268599Y-67776499D01*
X102220980Y-67824118D01*
X102125742Y-67871737D01*
X102030503Y-67871737D01*
X101935265Y-67824118D01*
X101887646Y-67776499D01*
X101840027Y-67681261D01*
X101792408Y-67490785D01*
X101792408Y-67252690D01*
X101840027Y-67062214D01*
X101887646Y-66966976D01*
X101935265Y-66919357D01*
X102030503Y-66871737D01*
X103316218Y-67871737D02*
X102744789Y-67871737D01*
X103030503Y-67871737D02*
X103030503Y-66871737D01*
X102935265Y-67014595D01*
X102840027Y-67109833D01*
X102744789Y-67157452D01*
G04 #@! TO.C,C8*
X71542434Y-52170335D02*
X71590053Y-52217954D01*
X71637672Y-52360811D01*
X71637672Y-52456049D01*
X71590053Y-52598907D01*
X71494815Y-52694145D01*
X71399577Y-52741764D01*
X71209101Y-52789383D01*
X71066244Y-52789383D01*
X70875768Y-52741764D01*
X70780530Y-52694145D01*
X70685292Y-52598907D01*
X70637672Y-52456049D01*
X70637672Y-52360811D01*
X70685292Y-52217954D01*
X70732911Y-52170335D01*
X71066244Y-51598907D02*
X71018625Y-51694145D01*
X70971006Y-51741764D01*
X70875768Y-51789383D01*
X70828149Y-51789383D01*
X70732911Y-51741764D01*
X70685292Y-51694145D01*
X70637672Y-51598907D01*
X70637672Y-51408430D01*
X70685292Y-51313192D01*
X70732911Y-51265573D01*
X70828149Y-51217954D01*
X70875768Y-51217954D01*
X70971006Y-51265573D01*
X71018625Y-51313192D01*
X71066244Y-51408430D01*
X71066244Y-51598907D01*
X71113863Y-51694145D01*
X71161482Y-51741764D01*
X71256720Y-51789383D01*
X71447196Y-51789383D01*
X71542434Y-51741764D01*
X71590053Y-51694145D01*
X71637672Y-51598907D01*
X71637672Y-51408430D01*
X71590053Y-51313192D01*
X71542434Y-51265573D01*
X71447196Y-51217954D01*
X71256720Y-51217954D01*
X71161482Y-51265573D01*
X71113863Y-51313192D01*
X71066244Y-51408430D01*
G04 #@! TO.C,C9*
X83488125Y-59512811D02*
X83440506Y-59560430D01*
X83297649Y-59608049D01*
X83202411Y-59608049D01*
X83059553Y-59560430D01*
X82964315Y-59465192D01*
X82916696Y-59369954D01*
X82869077Y-59179478D01*
X82869077Y-59036621D01*
X82916696Y-58846145D01*
X82964315Y-58750907D01*
X83059553Y-58655669D01*
X83202411Y-58608049D01*
X83297649Y-58608049D01*
X83440506Y-58655669D01*
X83488125Y-58703288D01*
X83964315Y-59608049D02*
X84154792Y-59608049D01*
X84250030Y-59560430D01*
X84297649Y-59512811D01*
X84392887Y-59369954D01*
X84440506Y-59179478D01*
X84440506Y-58798526D01*
X84392887Y-58703288D01*
X84345268Y-58655669D01*
X84250030Y-58608049D01*
X84059553Y-58608049D01*
X83964315Y-58655669D01*
X83916696Y-58703288D01*
X83869077Y-58798526D01*
X83869077Y-59036621D01*
X83916696Y-59131859D01*
X83964315Y-59179478D01*
X84059553Y-59227097D01*
X84250030Y-59227097D01*
X84345268Y-59179478D01*
X84392887Y-59131859D01*
X84440506Y-59036621D01*
G04 #@! TO.C,C10*
X82964434Y-64505311D02*
X82916815Y-64552930D01*
X82773958Y-64600549D01*
X82678720Y-64600549D01*
X82535863Y-64552930D01*
X82440625Y-64457692D01*
X82393006Y-64362454D01*
X82345387Y-64171978D01*
X82345387Y-64029121D01*
X82393006Y-63838645D01*
X82440625Y-63743407D01*
X82535863Y-63648169D01*
X82678720Y-63600549D01*
X82773958Y-63600549D01*
X82916815Y-63648169D01*
X82964434Y-63695788D01*
X83916815Y-64600549D02*
X83345387Y-64600549D01*
X83631101Y-64600549D02*
X83631101Y-63600549D01*
X83535863Y-63743407D01*
X83440625Y-63838645D01*
X83345387Y-63886264D01*
X84535863Y-63600549D02*
X84631101Y-63600549D01*
X84726339Y-63648169D01*
X84773958Y-63695788D01*
X84821577Y-63791026D01*
X84869196Y-63981502D01*
X84869196Y-64219597D01*
X84821577Y-64410073D01*
X84773958Y-64505311D01*
X84726339Y-64552930D01*
X84631101Y-64600549D01*
X84535863Y-64600549D01*
X84440625Y-64552930D01*
X84393006Y-64505311D01*
X84345387Y-64410073D01*
X84297768Y-64219597D01*
X84297768Y-63981502D01*
X84345387Y-63791026D01*
X84393006Y-63695788D01*
X84440625Y-63648169D01*
X84535863Y-63600549D01*
G04 #@! TO.C,IC1*
X66189673Y-60751858D02*
X65189673Y-60751858D01*
X66094435Y-59704239D02*
X66142054Y-59751858D01*
X66189673Y-59894715D01*
X66189673Y-59989953D01*
X66142054Y-60132810D01*
X66046816Y-60228048D01*
X65951578Y-60275668D01*
X65761102Y-60323287D01*
X65618245Y-60323287D01*
X65427769Y-60275668D01*
X65332531Y-60228048D01*
X65237293Y-60132810D01*
X65189673Y-59989953D01*
X65189673Y-59894715D01*
X65237293Y-59751858D01*
X65284912Y-59704239D01*
X66189673Y-58751858D02*
X66189673Y-59323287D01*
X66189673Y-59037572D02*
X65189673Y-59037572D01*
X65332531Y-59132810D01*
X65427769Y-59228048D01*
X65475388Y-59323287D01*
G04 #@! TO.C,R30*
X76692672Y-52469526D02*
X76216482Y-52802859D01*
X76692672Y-53040954D02*
X75692672Y-53040954D01*
X75692672Y-52660002D01*
X75740292Y-52564764D01*
X75787911Y-52517145D01*
X75883149Y-52469526D01*
X76026006Y-52469526D01*
X76121244Y-52517145D01*
X76168863Y-52564764D01*
X76216482Y-52660002D01*
X76216482Y-53040954D01*
X75692672Y-52136192D02*
X75692672Y-51517145D01*
X76073625Y-51850478D01*
X76073625Y-51707621D01*
X76121244Y-51612383D01*
X76168863Y-51564764D01*
X76264101Y-51517145D01*
X76502196Y-51517145D01*
X76597434Y-51564764D01*
X76645053Y-51612383D01*
X76692672Y-51707621D01*
X76692672Y-51993335D01*
X76645053Y-52088573D01*
X76597434Y-52136192D01*
X75692672Y-50898097D02*
X75692672Y-50802859D01*
X75740292Y-50707621D01*
X75787911Y-50660002D01*
X75883149Y-50612383D01*
X76073625Y-50564764D01*
X76311720Y-50564764D01*
X76502196Y-50612383D01*
X76597434Y-50660002D01*
X76645053Y-50707621D01*
X76692672Y-50802859D01*
X76692672Y-50898097D01*
X76645053Y-50993335D01*
X76597434Y-51040954D01*
X76502196Y-51088573D01*
X76311720Y-51136192D01*
X76073625Y-51136192D01*
X75883149Y-51088573D01*
X75787911Y-51040954D01*
X75740292Y-50993335D01*
X75692672Y-50898097D01*
G04 #@! TO.C,R31*
X63981127Y-65888144D02*
X63408708Y-65787129D01*
X63577066Y-66292205D02*
X62869960Y-65585098D01*
X63139334Y-65315724D01*
X63240349Y-65282052D01*
X63307692Y-65282052D01*
X63408708Y-65315724D01*
X63509723Y-65416739D01*
X63543395Y-65517755D01*
X63543395Y-65585098D01*
X63509723Y-65686113D01*
X63240349Y-65955487D01*
X63509723Y-64945335D02*
X63947456Y-64507602D01*
X63981127Y-65012678D01*
X64082143Y-64911663D01*
X64183158Y-64877991D01*
X64250502Y-64877991D01*
X64351517Y-64911663D01*
X64519876Y-65080022D01*
X64553547Y-65181037D01*
X64553547Y-65248381D01*
X64519876Y-65349396D01*
X64317845Y-65551426D01*
X64216830Y-65585098D01*
X64149486Y-65585098D01*
X65327998Y-64541274D02*
X64923937Y-64945335D01*
X65125967Y-64743304D02*
X64418860Y-64036197D01*
X64452532Y-64204556D01*
X64452532Y-64339243D01*
X64418860Y-64440258D01*
G04 #@! TO.C,Y1*
X79138482Y-65005359D02*
X79614672Y-65005359D01*
X78614672Y-65338692D02*
X79138482Y-65005359D01*
X78614672Y-64672026D01*
X79614672Y-63814883D02*
X79614672Y-64386311D01*
X79614672Y-64100597D02*
X78614672Y-64100597D01*
X78757530Y-64195835D01*
X78852768Y-64291073D01*
X78900387Y-64386311D01*
G04 #@! TO.C,L101*
X99209075Y-53171737D02*
X98732884Y-53171737D01*
X98732884Y-52171737D01*
X100066218Y-53171737D02*
X99494789Y-53171737D01*
X99780503Y-53171737D02*
X99780503Y-52171737D01*
X99685265Y-52314595D01*
X99590027Y-52409833D01*
X99494789Y-52457452D01*
X100685265Y-52171737D02*
X100780503Y-52171737D01*
X100875742Y-52219357D01*
X100923361Y-52266976D01*
X100970980Y-52362214D01*
X101018599Y-52552690D01*
X101018599Y-52790785D01*
X100970980Y-52981261D01*
X100923361Y-53076499D01*
X100875742Y-53124118D01*
X100780503Y-53171737D01*
X100685265Y-53171737D01*
X100590027Y-53124118D01*
X100542408Y-53076499D01*
X100494789Y-52981261D01*
X100447170Y-52790785D01*
X100447170Y-52552690D01*
X100494789Y-52362214D01*
X100542408Y-52266976D01*
X100590027Y-52219357D01*
X100685265Y-52171737D01*
X101970980Y-53171737D02*
X101399551Y-53171737D01*
X101685265Y-53171737D02*
X101685265Y-52171737D01*
X101590027Y-52314595D01*
X101494789Y-52409833D01*
X101399551Y-52457452D01*
G04 #@! TD*
M02*
