G04 #@! TF.GenerationSoftware,KiCad,Pcbnew,5.0.2-bee76a0~70~ubuntu18.04.1*
G04 #@! TF.CreationDate,2019-04-11T22:59:15-04:00*
G04 #@! TF.ProjectId,throttle,7468726f-7474-46c6-952e-6b696361645f,rev?*
G04 #@! TF.SameCoordinates,Original*
G04 #@! TF.FileFunction,Paste,Top*
G04 #@! TF.FilePolarity,Positive*
%FSLAX46Y46*%
G04 Gerber Fmt 4.6, Leading zero omitted, Abs format (unit mm)*
G04 Created by KiCad (PCBNEW 5.0.2-bee76a0~70~ubuntu18.04.1) date Thu 11 Apr 2019 10:59:15 PM EDT*
%MOMM*%
%LPD*%
G01*
G04 APERTURE LIST*
%ADD10R,0.700000X1.300000*%
%ADD11R,1.300000X0.700000*%
%ADD12C,0.100000*%
%ADD13C,0.875000*%
%ADD14R,1.000000X1.250000*%
%ADD15R,1.200000X1.200000*%
%ADD16R,1.060000X0.650000*%
%ADD17R,1.550000X0.600000*%
%ADD18R,1.250000X1.000000*%
%ADD19R,0.800000X0.900000*%
%ADD20R,3.500000X1.780000*%
%ADD21R,2.500000X0.900000*%
%ADD22R,3.200000X1.000000*%
%ADD23R,1.600000X1.000000*%
%ADD24R,1.778000X2.159000*%
%ADD25R,1.600000X0.550000*%
%ADD26R,0.550000X1.600000*%
%ADD27C,0.700000*%
%ADD28R,2.000000X1.200000*%
G04 APERTURE END LIST*
D10*
G04 #@! TO.C,R2*
X70449400Y-80619600D03*
X72349400Y-80619600D03*
G04 #@! TD*
G04 #@! TO.C,R3*
X72385000Y-78663800D03*
X70485000Y-78663800D03*
G04 #@! TD*
D11*
G04 #@! TO.C,R_2*
X74739500Y-74231500D03*
X74739500Y-76131500D03*
G04 #@! TD*
D12*
G04 #@! TO.C,C102*
G36*
X96191314Y-55237110D02*
X96212549Y-55240260D01*
X96233373Y-55245476D01*
X96253585Y-55252708D01*
X96272991Y-55261887D01*
X96291404Y-55272923D01*
X96308647Y-55285711D01*
X96324553Y-55300127D01*
X96338969Y-55316033D01*
X96351757Y-55333276D01*
X96362793Y-55351689D01*
X96371972Y-55371095D01*
X96379204Y-55391307D01*
X96384420Y-55412131D01*
X96387570Y-55433366D01*
X96388623Y-55454807D01*
X96388623Y-55967307D01*
X96387570Y-55988748D01*
X96384420Y-56009983D01*
X96379204Y-56030807D01*
X96371972Y-56051019D01*
X96362793Y-56070425D01*
X96351757Y-56088838D01*
X96338969Y-56106081D01*
X96324553Y-56121987D01*
X96308647Y-56136403D01*
X96291404Y-56149191D01*
X96272991Y-56160227D01*
X96253585Y-56169406D01*
X96233373Y-56176638D01*
X96212549Y-56181854D01*
X96191314Y-56185004D01*
X96169873Y-56186057D01*
X95732373Y-56186057D01*
X95710932Y-56185004D01*
X95689697Y-56181854D01*
X95668873Y-56176638D01*
X95648661Y-56169406D01*
X95629255Y-56160227D01*
X95610842Y-56149191D01*
X95593599Y-56136403D01*
X95577693Y-56121987D01*
X95563277Y-56106081D01*
X95550489Y-56088838D01*
X95539453Y-56070425D01*
X95530274Y-56051019D01*
X95523042Y-56030807D01*
X95517826Y-56009983D01*
X95514676Y-55988748D01*
X95513623Y-55967307D01*
X95513623Y-55454807D01*
X95514676Y-55433366D01*
X95517826Y-55412131D01*
X95523042Y-55391307D01*
X95530274Y-55371095D01*
X95539453Y-55351689D01*
X95550489Y-55333276D01*
X95563277Y-55316033D01*
X95577693Y-55300127D01*
X95593599Y-55285711D01*
X95610842Y-55272923D01*
X95629255Y-55261887D01*
X95648661Y-55252708D01*
X95668873Y-55245476D01*
X95689697Y-55240260D01*
X95710932Y-55237110D01*
X95732373Y-55236057D01*
X96169873Y-55236057D01*
X96191314Y-55237110D01*
X96191314Y-55237110D01*
G37*
D13*
X95951123Y-55711057D03*
D12*
G36*
X97766314Y-55237110D02*
X97787549Y-55240260D01*
X97808373Y-55245476D01*
X97828585Y-55252708D01*
X97847991Y-55261887D01*
X97866404Y-55272923D01*
X97883647Y-55285711D01*
X97899553Y-55300127D01*
X97913969Y-55316033D01*
X97926757Y-55333276D01*
X97937793Y-55351689D01*
X97946972Y-55371095D01*
X97954204Y-55391307D01*
X97959420Y-55412131D01*
X97962570Y-55433366D01*
X97963623Y-55454807D01*
X97963623Y-55967307D01*
X97962570Y-55988748D01*
X97959420Y-56009983D01*
X97954204Y-56030807D01*
X97946972Y-56051019D01*
X97937793Y-56070425D01*
X97926757Y-56088838D01*
X97913969Y-56106081D01*
X97899553Y-56121987D01*
X97883647Y-56136403D01*
X97866404Y-56149191D01*
X97847991Y-56160227D01*
X97828585Y-56169406D01*
X97808373Y-56176638D01*
X97787549Y-56181854D01*
X97766314Y-56185004D01*
X97744873Y-56186057D01*
X97307373Y-56186057D01*
X97285932Y-56185004D01*
X97264697Y-56181854D01*
X97243873Y-56176638D01*
X97223661Y-56169406D01*
X97204255Y-56160227D01*
X97185842Y-56149191D01*
X97168599Y-56136403D01*
X97152693Y-56121987D01*
X97138277Y-56106081D01*
X97125489Y-56088838D01*
X97114453Y-56070425D01*
X97105274Y-56051019D01*
X97098042Y-56030807D01*
X97092826Y-56009983D01*
X97089676Y-55988748D01*
X97088623Y-55967307D01*
X97088623Y-55454807D01*
X97089676Y-55433366D01*
X97092826Y-55412131D01*
X97098042Y-55391307D01*
X97105274Y-55371095D01*
X97114453Y-55351689D01*
X97125489Y-55333276D01*
X97138277Y-55316033D01*
X97152693Y-55300127D01*
X97168599Y-55285711D01*
X97185842Y-55272923D01*
X97204255Y-55261887D01*
X97223661Y-55252708D01*
X97243873Y-55245476D01*
X97264697Y-55240260D01*
X97285932Y-55237110D01*
X97307373Y-55236057D01*
X97744873Y-55236057D01*
X97766314Y-55237110D01*
X97766314Y-55237110D01*
G37*
D13*
X97526123Y-55711057D03*
G04 #@! TD*
D14*
G04 #@! TO.C,C101*
X95829303Y-57516997D03*
X97829303Y-57516997D03*
G04 #@! TD*
D15*
G04 #@! TO.C,D3*
X73311220Y-41059223D03*
X73311220Y-43259223D03*
G04 #@! TD*
G04 #@! TO.C,D5*
X66707220Y-40975223D03*
X66707220Y-43175223D03*
G04 #@! TD*
D11*
G04 #@! TO.C,R26*
X80200500Y-69911000D03*
X80200500Y-68011000D03*
G04 #@! TD*
D15*
G04 #@! TO.C,D4*
X70009220Y-41038723D03*
X70009220Y-43238723D03*
G04 #@! TD*
D16*
G04 #@! TO.C,U1*
X86767220Y-37065150D03*
X86767220Y-38965150D03*
X84567220Y-38965150D03*
X84567220Y-38015150D03*
X84567220Y-37065150D03*
G04 #@! TD*
D17*
G04 #@! TO.C,U4*
X78052659Y-66887706D03*
X78052659Y-68157706D03*
X78052659Y-69427706D03*
X78052659Y-70697706D03*
X72652659Y-70697706D03*
X72652659Y-69427706D03*
X72652659Y-68157706D03*
X72652659Y-66887706D03*
G04 #@! TD*
D14*
G04 #@! TO.C,C1*
X88377219Y-37065150D03*
X90377219Y-37065150D03*
G04 #@! TD*
G04 #@! TO.C,C2*
X86996219Y-44939150D03*
X88996219Y-44939150D03*
G04 #@! TD*
D18*
G04 #@! TO.C,C4*
X71564500Y-75469500D03*
X71564500Y-73469500D03*
G04 #@! TD*
G04 #@! TO.C,C6*
X70548500Y-68865500D03*
X70548500Y-66865500D03*
G04 #@! TD*
D15*
G04 #@! TO.C,D8*
X54151800Y-57628019D03*
X54151800Y-55428019D03*
G04 #@! TD*
G04 #@! TO.C,D9*
X49008302Y-50452518D03*
X49008302Y-48252518D03*
G04 #@! TD*
G04 #@! TO.C,D10*
X50777368Y-65301234D03*
X50777368Y-63101234D03*
G04 #@! TD*
D19*
G04 #@! TO.C,Q2*
X56945801Y-60592020D03*
X55995801Y-58492020D03*
X57895801Y-58492020D03*
G04 #@! TD*
G04 #@! TO.C,Q3*
X51802301Y-53196518D03*
X50852301Y-51096518D03*
X52752301Y-51096518D03*
G04 #@! TD*
G04 #@! TO.C,Q4*
X53571369Y-68519234D03*
X52621369Y-66419234D03*
X54521369Y-66419234D03*
G04 #@! TD*
D10*
G04 #@! TO.C,R1*
X83043220Y-39605150D03*
X81143220Y-39605150D03*
G04 #@! TD*
G04 #@! TO.C,R6*
X87107218Y-40875150D03*
X85207218Y-40875150D03*
G04 #@! TD*
D11*
G04 #@! TO.C,R7*
X88631220Y-38655150D03*
X88631220Y-40555150D03*
G04 #@! TD*
G04 #@! TO.C,R8*
X73292370Y-37584003D03*
X73292370Y-39484003D03*
G04 #@! TD*
G04 #@! TO.C,R10*
X69990371Y-37584003D03*
X69990371Y-39484003D03*
G04 #@! TD*
G04 #@! TO.C,R11*
X66688369Y-37518004D03*
X66688369Y-39418004D03*
G04 #@! TD*
D10*
G04 #@! TO.C,R13*
X81646220Y-47225150D03*
X79746220Y-47225150D03*
G04 #@! TD*
D11*
G04 #@! TO.C,R15*
X104330500Y-77721500D03*
X104330500Y-75821500D03*
G04 #@! TD*
D10*
G04 #@! TO.C,R16*
X85456220Y-48749150D03*
X83556220Y-48749150D03*
G04 #@! TD*
D11*
G04 #@! TO.C,R17*
X86980219Y-46463150D03*
X86980219Y-48363150D03*
G04 #@! TD*
G04 #@! TO.C,R19*
X96012000Y-74041000D03*
X96012000Y-75941000D03*
G04 #@! TD*
D10*
G04 #@! TO.C,R20*
X55741800Y-54750017D03*
X57641800Y-54750017D03*
G04 #@! TD*
G04 #@! TO.C,R21*
X55741800Y-56782019D03*
X57641800Y-56782019D03*
G04 #@! TD*
D11*
G04 #@! TO.C,R22*
X56945799Y-61928017D03*
X56945799Y-63828017D03*
G04 #@! TD*
D10*
G04 #@! TO.C,R23*
X50852300Y-47320519D03*
X52752300Y-47320519D03*
G04 #@! TD*
G04 #@! TO.C,R24*
X50852301Y-49352517D03*
X52752301Y-49352517D03*
G04 #@! TD*
D11*
G04 #@! TO.C,R25*
X51802300Y-54498519D03*
X51802300Y-56398519D03*
G04 #@! TD*
D10*
G04 #@! TO.C,R27*
X52555369Y-62677233D03*
X54455369Y-62677233D03*
G04 #@! TD*
G04 #@! TO.C,R28*
X52555368Y-64709234D03*
X54455368Y-64709234D03*
G04 #@! TD*
D11*
G04 #@! TO.C,R29*
X53571369Y-69855234D03*
X53571369Y-71755234D03*
G04 #@! TD*
D16*
G04 #@! TO.C,U3*
X85286220Y-45005149D03*
X85286220Y-46905149D03*
X83086220Y-46905149D03*
X83086220Y-45955149D03*
X83086220Y-45005149D03*
G04 #@! TD*
D11*
G04 #@! TO.C,R_1*
X76644500Y-74231500D03*
X76644500Y-76131500D03*
G04 #@! TD*
D20*
G04 #@! TO.C,COUT102*
X104279123Y-46440057D03*
X104279123Y-41160057D03*
G04 #@! TD*
D14*
G04 #@! TO.C,C103*
X95659123Y-49297557D03*
X97659123Y-49297557D03*
G04 #@! TD*
D21*
G04 #@! TO.C,F101*
X100405623Y-58748557D03*
X100405623Y-55848557D03*
G04 #@! TD*
D11*
G04 #@! TO.C,R103*
X93656843Y-50874937D03*
X93656843Y-48974937D03*
G04 #@! TD*
G04 #@! TO.C,R102*
X93641603Y-54761137D03*
X93641603Y-52861137D03*
G04 #@! TD*
D10*
G04 #@! TO.C,R105*
X108978123Y-53569357D03*
X107078123Y-53569357D03*
G04 #@! TD*
D22*
G04 #@! TO.C,R104*
X104284203Y-55241157D03*
X104284203Y-49041157D03*
G04 #@! TD*
D16*
G04 #@! TO.C,U101*
X97743923Y-52591757D03*
X97743923Y-51641757D03*
X97743923Y-53541757D03*
X95543923Y-53541757D03*
X95543923Y-52591757D03*
X95543923Y-51641757D03*
G04 #@! TD*
D23*
G04 #@! TO.C,COUT101*
X97929123Y-43821057D03*
X97929123Y-46821057D03*
G04 #@! TD*
D18*
G04 #@! TO.C,COUT103*
X100278623Y-44297057D03*
X100278623Y-46297057D03*
G04 #@! TD*
D24*
G04 #@! TO.C,D101*
X100405623Y-62315057D03*
X96341623Y-62315057D03*
G04 #@! TD*
D15*
G04 #@! TO.C,D103*
X112928123Y-53569357D03*
X110728123Y-53569357D03*
G04 #@! TD*
G04 #@! TO.C,D102*
X93178123Y-67369357D03*
X95378123Y-67369357D03*
G04 #@! TD*
D10*
G04 #@! TO.C,R101*
X97128123Y-67369357D03*
X99028123Y-67369357D03*
G04 #@! TD*
D18*
G04 #@! TO.C,C8*
X72685292Y-51003669D03*
X72685292Y-53003669D03*
G04 #@! TD*
D14*
G04 #@! TO.C,C9*
X84654792Y-60655669D03*
X82654792Y-60655669D03*
G04 #@! TD*
G04 #@! TO.C,C10*
X84654792Y-62687669D03*
X82654792Y-62687669D03*
G04 #@! TD*
D25*
G04 #@! TO.C,IC1*
X67537293Y-62575668D03*
X67537293Y-61775668D03*
X67537293Y-60975668D03*
X67537293Y-60175668D03*
X67537293Y-59375668D03*
X67537293Y-58575668D03*
X67537293Y-57775668D03*
X67537293Y-56975668D03*
D26*
X68987293Y-55525668D03*
X69787293Y-55525668D03*
X70587293Y-55525668D03*
X71387293Y-55525668D03*
X72187293Y-55525668D03*
X72987293Y-55525668D03*
X73787293Y-55525668D03*
X74587293Y-55525668D03*
D25*
X76037293Y-56975668D03*
X76037293Y-57775668D03*
X76037293Y-58575668D03*
X76037293Y-59375668D03*
X76037293Y-60175668D03*
X76037293Y-60975668D03*
X76037293Y-61775668D03*
X76037293Y-62575668D03*
D26*
X74587293Y-64025668D03*
X73787293Y-64025668D03*
X72987293Y-64025668D03*
X72187293Y-64025668D03*
X71387293Y-64025668D03*
X70587293Y-64025668D03*
X69787293Y-64025668D03*
X68987293Y-64025668D03*
G04 #@! TD*
D11*
G04 #@! TO.C,R30*
X74590292Y-52776669D03*
X74590292Y-50876669D03*
G04 #@! TD*
D27*
G04 #@! TO.C,R31*
X65954292Y-65608669D03*
D12*
G36*
X66166424Y-66315776D02*
X65247185Y-65396537D01*
X65742160Y-64901562D01*
X66661399Y-65820801D01*
X66166424Y-66315776D01*
X66166424Y-66315776D01*
G37*
D27*
X64610790Y-66952171D03*
D12*
G36*
X64822922Y-67659278D02*
X63903683Y-66740039D01*
X64398658Y-66245064D01*
X65317897Y-67164303D01*
X64822922Y-67659278D01*
X64822922Y-67659278D01*
G37*
G04 #@! TD*
D28*
G04 #@! TO.C,L101*
X100344663Y-51392657D03*
X100344663Y-48192657D03*
G04 #@! TD*
M02*
