M48
; DRILL file {KiCad 5.1.4-e60b266~84~ubuntu16.04.1} date Wed 29 Jan 2020 09:56:51 PM EST
; FORMAT={-:-/ absolute / inch / decimal}
; #@! TF.CreationDate,2020-01-29T21:56:51-05:00
; #@! TF.GenerationSoftware,Kicad,Pcbnew,5.1.4-e60b266~84~ubuntu16.04.1
FMAT,2
INCH
T1C0.0120
T2C0.0157
T3C0.0300
T4C0.0400
T5C0.0402
T6C0.0630
%
G90
G05
T1
X4.745Y-4.44
X5.055Y-4.39
X5.57Y-5.17
X5.815Y-3.965
X5.82Y-3.81
X5.82Y-4.845
X5.89Y-4.9
X6.0Y-5.05
X6.04Y-3.825
X6.095Y-3.19
X6.14Y-5.225
X6.2038Y-3.6462
X6.23Y-4.56
X6.255Y-3.615
X6.34Y-3.285
X6.395Y-3.485
X6.7Y-4.15
X6.82Y-3.97
X6.95Y-3.36
X7.105Y-3.925
X7.1552Y-4.52
X7.2092Y-4.52
X7.28Y-4.525
X7.55Y-3.75
T2
X4.3098Y-3.7028
X4.3103Y-3.5894
X4.3128Y-3.5186
X4.437Y-3.5186
X4.5539Y-3.5171
X4.6653Y-3.5176
X5.3129Y-4.2414
X5.4243Y-3.8664
X5.4257Y-3.9977
X5.4257Y-4.1054
X5.4257Y-4.1881
T3
X6.39Y-4.445
X6.49Y-4.345
X6.49Y-4.545
X6.59Y-4.445
T4
X6.62Y-3.78
X6.62Y-3.88
X6.72Y-3.78
X6.72Y-3.88
X6.82Y-3.78
X6.82Y-3.88
X6.56Y-4.81
X6.56Y-4.91
X6.66Y-4.81
X6.66Y-4.91
X6.76Y-4.81
X6.76Y-4.91
T5
X7.55Y-3.1933
X7.55Y-3.3311
X7.55Y-3.4689
X7.55Y-3.6067
T6
X4.45Y-3.25
X7.6378Y-3.5378
X4.15Y-3.15
T0
M30
