G04 #@! TF.GenerationSoftware,KiCad,Pcbnew,5.1.4-e60b266~84~ubuntu16.04.1*
G04 #@! TF.CreationDate,2020-01-29T21:56:32-05:00*
G04 #@! TF.ProjectId,tire_temp,74697265-5f74-4656-9d70-2e6b69636164,rev?*
G04 #@! TF.SameCoordinates,Original*
G04 #@! TF.FileFunction,Copper,L2,Bot*
G04 #@! TF.FilePolarity,Positive*
%FSLAX46Y46*%
G04 Gerber Fmt 4.6, Leading zero omitted, Abs format (unit mm)*
G04 Created by KiCad (PCBNEW 5.1.4-e60b266~84~ubuntu16.04.1) date 2020-01-29 21:56:32*
%MOMM*%
%LPD*%
G04 APERTURE LIST*
%ADD10C,1.524000*%
%ADD11R,1.400000X1.400000*%
%ADD12C,1.400000*%
%ADD13C,1.397000*%
%ADD14C,1.981000*%
%ADD15C,2.400000*%
%ADD16C,0.800000*%
%ADD17C,0.609600*%
%ADD18C,0.381000*%
%ADD19C,0.152400*%
G04 APERTURE END LIST*
D10*
X164846000Y-110363000D03*
X167386000Y-112903000D03*
X164846000Y-115443000D03*
X162306000Y-112903000D03*
D11*
X173228000Y-96012000D03*
D12*
X173228000Y-98552000D03*
X170688000Y-96012000D03*
X170688000Y-98552000D03*
X168148000Y-96012000D03*
X168148000Y-98552000D03*
X166624000Y-124714000D03*
X166624000Y-122174000D03*
X169164000Y-124714000D03*
X169164000Y-122174000D03*
X171704000Y-124714000D03*
D11*
X171704000Y-122174000D03*
D13*
X191770000Y-88110000D03*
X191770000Y-91610000D03*
D14*
X194000000Y-89860000D03*
D13*
X191770000Y-84610000D03*
X191770000Y-81110000D03*
D15*
X113030000Y-82550000D03*
X105410000Y-80010000D03*
D16*
X137812780Y-101541580D03*
X137777220Y-98206560D03*
X137812780Y-106377740D03*
X137812780Y-104277160D03*
X118498620Y-89347040D03*
X115669060Y-89334340D03*
X112699800Y-89372440D03*
X109545120Y-89372440D03*
X109481620Y-91170760D03*
X109468920Y-94051120D03*
X134947660Y-107731560D03*
D17*
X120523000Y-112776000D03*
X147701000Y-100711000D03*
X161036000Y-83439000D03*
X154813000Y-81026000D03*
X152400000Y-128270000D03*
X147828000Y-96774000D03*
X176530000Y-85344000D03*
X141478000Y-131318000D03*
X155956000Y-132715000D03*
X162433000Y-88519000D03*
X170180000Y-105410000D03*
X184912000Y-114935000D03*
X180467000Y-99695000D03*
X158242000Y-115824000D03*
X149606000Y-124460000D03*
X147828000Y-123063000D03*
X153416000Y-97155000D03*
X191770000Y-95250000D03*
X173228000Y-100838000D03*
X128397000Y-111506000D03*
X158877000Y-91821000D03*
X157576172Y-92613828D03*
X183113210Y-114808000D03*
X181741600Y-114808000D03*
D18*
X123705620Y-96205040D02*
X120888760Y-96205040D01*
X120888760Y-96205040D02*
X120876060Y-96192340D01*
X114688620Y-100896420D02*
X114675920Y-100909120D01*
D19*
X158369000Y-91821000D02*
X158877000Y-91821000D01*
X157576172Y-92613828D02*
X158369000Y-91821000D01*
X183113210Y-114808000D02*
X181741600Y-114808000D01*
G36*
X196009226Y-76572262D02*
G01*
X196422096Y-76696915D01*
X196802896Y-76899389D01*
X197137119Y-77171974D01*
X197412028Y-77504284D01*
X197617155Y-77883657D01*
X197744689Y-78295651D01*
X197791398Y-78740063D01*
X197791401Y-78740863D01*
X197791400Y-134603926D01*
X197747738Y-135049226D01*
X197623085Y-135462097D01*
X197420610Y-135842898D01*
X197148026Y-136177119D01*
X196815720Y-136452026D01*
X196436345Y-136657154D01*
X196024349Y-136784689D01*
X195579937Y-136831398D01*
X195579423Y-136831400D01*
X102886074Y-136831400D01*
X102440774Y-136787738D01*
X102027903Y-136663085D01*
X101647102Y-136460610D01*
X101312881Y-136188026D01*
X101037974Y-135855720D01*
X100832846Y-135476345D01*
X100705311Y-135064349D01*
X100658602Y-134619937D01*
X100658600Y-134619423D01*
X100658600Y-125639084D01*
X165950363Y-125639084D01*
X166016592Y-125852518D01*
X166250377Y-125949141D01*
X166498520Y-125998298D01*
X166751485Y-125998101D01*
X166999551Y-125948556D01*
X167231408Y-125852518D01*
X167297637Y-125639084D01*
X166624000Y-124965447D01*
X165950363Y-125639084D01*
X100658600Y-125639084D01*
X100658600Y-124588520D01*
X165339702Y-124588520D01*
X165339899Y-124841485D01*
X165389444Y-125089551D01*
X165485482Y-125321408D01*
X165698916Y-125387637D01*
X166372553Y-124714000D01*
X166875447Y-124714000D01*
X167549084Y-125387637D01*
X167762518Y-125321408D01*
X167859141Y-125087623D01*
X167908298Y-124839480D01*
X167908130Y-124622541D01*
X168235400Y-124622541D01*
X168235400Y-124805459D01*
X168271086Y-124984863D01*
X168341085Y-125153857D01*
X168442709Y-125305948D01*
X168572052Y-125435291D01*
X168724143Y-125536915D01*
X168893137Y-125606914D01*
X169072541Y-125642600D01*
X169255459Y-125642600D01*
X169434863Y-125606914D01*
X169603857Y-125536915D01*
X169755948Y-125435291D01*
X169885291Y-125305948D01*
X169986915Y-125153857D01*
X170056914Y-124984863D01*
X170092600Y-124805459D01*
X170092600Y-124622541D01*
X170775400Y-124622541D01*
X170775400Y-124805459D01*
X170811086Y-124984863D01*
X170881085Y-125153857D01*
X170982709Y-125305948D01*
X171112052Y-125435291D01*
X171264143Y-125536915D01*
X171433137Y-125606914D01*
X171612541Y-125642600D01*
X171795459Y-125642600D01*
X171974863Y-125606914D01*
X172143857Y-125536915D01*
X172295948Y-125435291D01*
X172425291Y-125305948D01*
X172526915Y-125153857D01*
X172596914Y-124984863D01*
X172632600Y-124805459D01*
X172632600Y-124622541D01*
X172596914Y-124443137D01*
X172526915Y-124274143D01*
X172425291Y-124122052D01*
X172295948Y-123992709D01*
X172143857Y-123891085D01*
X171974863Y-123821086D01*
X171795459Y-123785400D01*
X171612541Y-123785400D01*
X171433137Y-123821086D01*
X171264143Y-123891085D01*
X171112052Y-123992709D01*
X170982709Y-124122052D01*
X170881085Y-124274143D01*
X170811086Y-124443137D01*
X170775400Y-124622541D01*
X170092600Y-124622541D01*
X170056914Y-124443137D01*
X169986915Y-124274143D01*
X169885291Y-124122052D01*
X169755948Y-123992709D01*
X169603857Y-123891085D01*
X169434863Y-123821086D01*
X169255459Y-123785400D01*
X169072541Y-123785400D01*
X168893137Y-123821086D01*
X168724143Y-123891085D01*
X168572052Y-123992709D01*
X168442709Y-124122052D01*
X168341085Y-124274143D01*
X168271086Y-124443137D01*
X168235400Y-124622541D01*
X167908130Y-124622541D01*
X167908101Y-124586515D01*
X167858556Y-124338449D01*
X167762518Y-124106592D01*
X167549084Y-124040363D01*
X166875447Y-124714000D01*
X166372553Y-124714000D01*
X165698916Y-124040363D01*
X165485482Y-124106592D01*
X165388859Y-124340377D01*
X165339702Y-124588520D01*
X100658600Y-124588520D01*
X100658600Y-123788916D01*
X165950363Y-123788916D01*
X166624000Y-124462553D01*
X167297637Y-123788916D01*
X167231408Y-123575482D01*
X166997623Y-123478859D01*
X166749480Y-123429702D01*
X166496515Y-123429899D01*
X166248449Y-123479444D01*
X166016592Y-123575482D01*
X165950363Y-123788916D01*
X100658600Y-123788916D01*
X100658600Y-122082541D01*
X165695400Y-122082541D01*
X165695400Y-122265459D01*
X165731086Y-122444863D01*
X165801085Y-122613857D01*
X165902709Y-122765948D01*
X166032052Y-122895291D01*
X166184143Y-122996915D01*
X166353137Y-123066914D01*
X166532541Y-123102600D01*
X166715459Y-123102600D01*
X166894863Y-123066914D01*
X167063857Y-122996915D01*
X167215948Y-122895291D01*
X167345291Y-122765948D01*
X167446915Y-122613857D01*
X167516914Y-122444863D01*
X167552600Y-122265459D01*
X167552600Y-122082541D01*
X168235400Y-122082541D01*
X168235400Y-122265459D01*
X168271086Y-122444863D01*
X168341085Y-122613857D01*
X168442709Y-122765948D01*
X168572052Y-122895291D01*
X168724143Y-122996915D01*
X168893137Y-123066914D01*
X169072541Y-123102600D01*
X169255459Y-123102600D01*
X169434863Y-123066914D01*
X169603857Y-122996915D01*
X169755948Y-122895291D01*
X169885291Y-122765948D01*
X169986915Y-122613857D01*
X170056914Y-122444863D01*
X170092600Y-122265459D01*
X170092600Y-122082541D01*
X170056914Y-121903137D01*
X169986915Y-121734143D01*
X169885291Y-121582052D01*
X169777239Y-121474000D01*
X170774294Y-121474000D01*
X170774294Y-122874000D01*
X170778708Y-122918813D01*
X170791779Y-122961905D01*
X170813006Y-123001618D01*
X170841573Y-123036427D01*
X170876382Y-123064994D01*
X170916095Y-123086221D01*
X170959187Y-123099292D01*
X171004000Y-123103706D01*
X172404000Y-123103706D01*
X172448813Y-123099292D01*
X172491905Y-123086221D01*
X172531618Y-123064994D01*
X172566427Y-123036427D01*
X172594994Y-123001618D01*
X172616221Y-122961905D01*
X172629292Y-122918813D01*
X172633706Y-122874000D01*
X172633706Y-121474000D01*
X172629292Y-121429187D01*
X172616221Y-121386095D01*
X172594994Y-121346382D01*
X172566427Y-121311573D01*
X172531618Y-121283006D01*
X172491905Y-121261779D01*
X172448813Y-121248708D01*
X172404000Y-121244294D01*
X171004000Y-121244294D01*
X170959187Y-121248708D01*
X170916095Y-121261779D01*
X170876382Y-121283006D01*
X170841573Y-121311573D01*
X170813006Y-121346382D01*
X170791779Y-121386095D01*
X170778708Y-121429187D01*
X170774294Y-121474000D01*
X169777239Y-121474000D01*
X169755948Y-121452709D01*
X169603857Y-121351085D01*
X169434863Y-121281086D01*
X169255459Y-121245400D01*
X169072541Y-121245400D01*
X168893137Y-121281086D01*
X168724143Y-121351085D01*
X168572052Y-121452709D01*
X168442709Y-121582052D01*
X168341085Y-121734143D01*
X168271086Y-121903137D01*
X168235400Y-122082541D01*
X167552600Y-122082541D01*
X167516914Y-121903137D01*
X167446915Y-121734143D01*
X167345291Y-121582052D01*
X167215948Y-121452709D01*
X167063857Y-121351085D01*
X166894863Y-121281086D01*
X166715459Y-121245400D01*
X166532541Y-121245400D01*
X166353137Y-121281086D01*
X166184143Y-121351085D01*
X166032052Y-121452709D01*
X165902709Y-121582052D01*
X165801085Y-121734143D01*
X165731086Y-121903137D01*
X165695400Y-122082541D01*
X100658600Y-122082541D01*
X100658600Y-115345434D01*
X163855400Y-115345434D01*
X163855400Y-115540566D01*
X163893468Y-115731947D01*
X163968142Y-115912225D01*
X164076551Y-116074471D01*
X164214529Y-116212449D01*
X164376775Y-116320858D01*
X164557053Y-116395532D01*
X164748434Y-116433600D01*
X164943566Y-116433600D01*
X165134947Y-116395532D01*
X165315225Y-116320858D01*
X165477471Y-116212449D01*
X165615449Y-116074471D01*
X165723858Y-115912225D01*
X165798532Y-115731947D01*
X165836600Y-115540566D01*
X165836600Y-115345434D01*
X165798532Y-115154053D01*
X165723858Y-114973775D01*
X165615449Y-114811529D01*
X165559385Y-114755465D01*
X181208200Y-114755465D01*
X181208200Y-114860535D01*
X181228698Y-114963587D01*
X181268907Y-115060660D01*
X181327281Y-115148023D01*
X181401577Y-115222319D01*
X181488940Y-115280693D01*
X181586013Y-115320902D01*
X181689065Y-115341400D01*
X181794135Y-115341400D01*
X181897187Y-115320902D01*
X181994260Y-115280693D01*
X182081623Y-115222319D01*
X182155919Y-115148023D01*
X182179454Y-115112800D01*
X182675356Y-115112800D01*
X182698891Y-115148023D01*
X182773187Y-115222319D01*
X182860550Y-115280693D01*
X182957623Y-115320902D01*
X183060675Y-115341400D01*
X183165745Y-115341400D01*
X183268797Y-115320902D01*
X183365870Y-115280693D01*
X183453233Y-115222319D01*
X183527529Y-115148023D01*
X183585903Y-115060660D01*
X183626112Y-114963587D01*
X183646610Y-114860535D01*
X183646610Y-114755465D01*
X183626112Y-114652413D01*
X183585903Y-114555340D01*
X183527529Y-114467977D01*
X183453233Y-114393681D01*
X183365870Y-114335307D01*
X183268797Y-114295098D01*
X183165745Y-114274600D01*
X183060675Y-114274600D01*
X182957623Y-114295098D01*
X182860550Y-114335307D01*
X182773187Y-114393681D01*
X182698891Y-114467977D01*
X182675356Y-114503200D01*
X182179454Y-114503200D01*
X182155919Y-114467977D01*
X182081623Y-114393681D01*
X181994260Y-114335307D01*
X181897187Y-114295098D01*
X181794135Y-114274600D01*
X181689065Y-114274600D01*
X181586013Y-114295098D01*
X181488940Y-114335307D01*
X181401577Y-114393681D01*
X181327281Y-114467977D01*
X181268907Y-114555340D01*
X181228698Y-114652413D01*
X181208200Y-114755465D01*
X165559385Y-114755465D01*
X165477471Y-114673551D01*
X165315225Y-114565142D01*
X165134947Y-114490468D01*
X164943566Y-114452400D01*
X164748434Y-114452400D01*
X164557053Y-114490468D01*
X164376775Y-114565142D01*
X164214529Y-114673551D01*
X164076551Y-114811529D01*
X163968142Y-114973775D01*
X163893468Y-115154053D01*
X163855400Y-115345434D01*
X100658600Y-115345434D01*
X100658600Y-112805434D01*
X161315400Y-112805434D01*
X161315400Y-113000566D01*
X161353468Y-113191947D01*
X161428142Y-113372225D01*
X161536551Y-113534471D01*
X161674529Y-113672449D01*
X161836775Y-113780858D01*
X162017053Y-113855532D01*
X162208434Y-113893600D01*
X162403566Y-113893600D01*
X162594947Y-113855532D01*
X162775225Y-113780858D01*
X162937471Y-113672449D01*
X163075449Y-113534471D01*
X163183858Y-113372225D01*
X163258532Y-113191947D01*
X163296600Y-113000566D01*
X163296600Y-112805434D01*
X166395400Y-112805434D01*
X166395400Y-113000566D01*
X166433468Y-113191947D01*
X166508142Y-113372225D01*
X166616551Y-113534471D01*
X166754529Y-113672449D01*
X166916775Y-113780858D01*
X167097053Y-113855532D01*
X167288434Y-113893600D01*
X167483566Y-113893600D01*
X167674947Y-113855532D01*
X167855225Y-113780858D01*
X168017471Y-113672449D01*
X168155449Y-113534471D01*
X168263858Y-113372225D01*
X168338532Y-113191947D01*
X168376600Y-113000566D01*
X168376600Y-112805434D01*
X168338532Y-112614053D01*
X168263858Y-112433775D01*
X168155449Y-112271529D01*
X168017471Y-112133551D01*
X167855225Y-112025142D01*
X167674947Y-111950468D01*
X167483566Y-111912400D01*
X167288434Y-111912400D01*
X167097053Y-111950468D01*
X166916775Y-112025142D01*
X166754529Y-112133551D01*
X166616551Y-112271529D01*
X166508142Y-112433775D01*
X166433468Y-112614053D01*
X166395400Y-112805434D01*
X163296600Y-112805434D01*
X163258532Y-112614053D01*
X163183858Y-112433775D01*
X163075449Y-112271529D01*
X162937471Y-112133551D01*
X162775225Y-112025142D01*
X162594947Y-111950468D01*
X162403566Y-111912400D01*
X162208434Y-111912400D01*
X162017053Y-111950468D01*
X161836775Y-112025142D01*
X161674529Y-112133551D01*
X161536551Y-112271529D01*
X161428142Y-112433775D01*
X161353468Y-112614053D01*
X161315400Y-112805434D01*
X100658600Y-112805434D01*
X100658600Y-111453465D01*
X127863600Y-111453465D01*
X127863600Y-111558535D01*
X127884098Y-111661587D01*
X127924307Y-111758660D01*
X127982681Y-111846023D01*
X128056977Y-111920319D01*
X128144340Y-111978693D01*
X128241413Y-112018902D01*
X128344465Y-112039400D01*
X128449535Y-112039400D01*
X128552587Y-112018902D01*
X128649660Y-111978693D01*
X128737023Y-111920319D01*
X128811319Y-111846023D01*
X128869693Y-111758660D01*
X128909902Y-111661587D01*
X128930400Y-111558535D01*
X128930400Y-111453465D01*
X128909902Y-111350413D01*
X128902545Y-111332651D01*
X164127797Y-111332651D01*
X164201636Y-111552382D01*
X164446055Y-111655238D01*
X164705843Y-111708433D01*
X164971017Y-111709925D01*
X165231387Y-111659654D01*
X165476946Y-111559554D01*
X165490364Y-111552382D01*
X165564203Y-111332651D01*
X164846000Y-110614447D01*
X164127797Y-111332651D01*
X128902545Y-111332651D01*
X128869693Y-111253340D01*
X128811319Y-111165977D01*
X128737023Y-111091681D01*
X128649660Y-111033307D01*
X128552587Y-110993098D01*
X128449535Y-110972600D01*
X128344465Y-110972600D01*
X128241413Y-110993098D01*
X128144340Y-111033307D01*
X128056977Y-111091681D01*
X127982681Y-111165977D01*
X127924307Y-111253340D01*
X127884098Y-111350413D01*
X127863600Y-111453465D01*
X100658600Y-111453465D01*
X100658600Y-110488017D01*
X163499075Y-110488017D01*
X163549346Y-110748387D01*
X163649446Y-110993946D01*
X163656618Y-111007364D01*
X163876349Y-111081203D01*
X164594553Y-110363000D01*
X165097447Y-110363000D01*
X165815651Y-111081203D01*
X166035382Y-111007364D01*
X166138238Y-110762945D01*
X166191433Y-110503157D01*
X166192925Y-110237983D01*
X166142654Y-109977613D01*
X166042554Y-109732054D01*
X166035382Y-109718636D01*
X165815651Y-109644797D01*
X165097447Y-110363000D01*
X164594553Y-110363000D01*
X163876349Y-109644797D01*
X163656618Y-109718636D01*
X163553762Y-109963055D01*
X163500567Y-110222843D01*
X163499075Y-110488017D01*
X100658600Y-110488017D01*
X100658600Y-109393349D01*
X164127797Y-109393349D01*
X164846000Y-110111553D01*
X165564203Y-109393349D01*
X165490364Y-109173618D01*
X165245945Y-109070762D01*
X164986157Y-109017567D01*
X164720983Y-109016075D01*
X164460613Y-109066346D01*
X164215054Y-109166446D01*
X164201636Y-109173618D01*
X164127797Y-109393349D01*
X100658600Y-109393349D01*
X100658600Y-100785465D01*
X172694600Y-100785465D01*
X172694600Y-100890535D01*
X172715098Y-100993587D01*
X172755307Y-101090660D01*
X172813681Y-101178023D01*
X172887977Y-101252319D01*
X172975340Y-101310693D01*
X173072413Y-101350902D01*
X173175465Y-101371400D01*
X173280535Y-101371400D01*
X173383587Y-101350902D01*
X173480660Y-101310693D01*
X173568023Y-101252319D01*
X173642319Y-101178023D01*
X173700693Y-101090660D01*
X173740902Y-100993587D01*
X173761400Y-100890535D01*
X173761400Y-100785465D01*
X173740902Y-100682413D01*
X173700693Y-100585340D01*
X173642319Y-100497977D01*
X173568023Y-100423681D01*
X173480660Y-100365307D01*
X173383587Y-100325098D01*
X173280535Y-100304600D01*
X173175465Y-100304600D01*
X173072413Y-100325098D01*
X172975340Y-100365307D01*
X172887977Y-100423681D01*
X172813681Y-100497977D01*
X172755307Y-100585340D01*
X172715098Y-100682413D01*
X172694600Y-100785465D01*
X100658600Y-100785465D01*
X100658600Y-99477084D01*
X167474363Y-99477084D01*
X167540592Y-99690518D01*
X167774377Y-99787141D01*
X168022520Y-99836298D01*
X168275485Y-99836101D01*
X168523551Y-99786556D01*
X168755408Y-99690518D01*
X168821637Y-99477084D01*
X168148000Y-98803447D01*
X167474363Y-99477084D01*
X100658600Y-99477084D01*
X100658600Y-98426520D01*
X166863702Y-98426520D01*
X166863899Y-98679485D01*
X166913444Y-98927551D01*
X167009482Y-99159408D01*
X167222916Y-99225637D01*
X167896553Y-98552000D01*
X168399447Y-98552000D01*
X169073084Y-99225637D01*
X169286518Y-99159408D01*
X169383141Y-98925623D01*
X169432298Y-98677480D01*
X169432130Y-98460541D01*
X169759400Y-98460541D01*
X169759400Y-98643459D01*
X169795086Y-98822863D01*
X169865085Y-98991857D01*
X169966709Y-99143948D01*
X170096052Y-99273291D01*
X170248143Y-99374915D01*
X170417137Y-99444914D01*
X170596541Y-99480600D01*
X170779459Y-99480600D01*
X170958863Y-99444914D01*
X171127857Y-99374915D01*
X171279948Y-99273291D01*
X171409291Y-99143948D01*
X171510915Y-98991857D01*
X171580914Y-98822863D01*
X171616600Y-98643459D01*
X171616600Y-98460541D01*
X172299400Y-98460541D01*
X172299400Y-98643459D01*
X172335086Y-98822863D01*
X172405085Y-98991857D01*
X172506709Y-99143948D01*
X172636052Y-99273291D01*
X172788143Y-99374915D01*
X172957137Y-99444914D01*
X173136541Y-99480600D01*
X173319459Y-99480600D01*
X173498863Y-99444914D01*
X173667857Y-99374915D01*
X173819948Y-99273291D01*
X173949291Y-99143948D01*
X174050915Y-98991857D01*
X174120914Y-98822863D01*
X174156600Y-98643459D01*
X174156600Y-98460541D01*
X174120914Y-98281137D01*
X174050915Y-98112143D01*
X173949291Y-97960052D01*
X173819948Y-97830709D01*
X173667857Y-97729085D01*
X173498863Y-97659086D01*
X173319459Y-97623400D01*
X173136541Y-97623400D01*
X172957137Y-97659086D01*
X172788143Y-97729085D01*
X172636052Y-97830709D01*
X172506709Y-97960052D01*
X172405085Y-98112143D01*
X172335086Y-98281137D01*
X172299400Y-98460541D01*
X171616600Y-98460541D01*
X171580914Y-98281137D01*
X171510915Y-98112143D01*
X171409291Y-97960052D01*
X171279948Y-97830709D01*
X171127857Y-97729085D01*
X170958863Y-97659086D01*
X170779459Y-97623400D01*
X170596541Y-97623400D01*
X170417137Y-97659086D01*
X170248143Y-97729085D01*
X170096052Y-97830709D01*
X169966709Y-97960052D01*
X169865085Y-98112143D01*
X169795086Y-98281137D01*
X169759400Y-98460541D01*
X169432130Y-98460541D01*
X169432101Y-98424515D01*
X169382556Y-98176449D01*
X169286518Y-97944592D01*
X169073084Y-97878363D01*
X168399447Y-98552000D01*
X167896553Y-98552000D01*
X167222916Y-97878363D01*
X167009482Y-97944592D01*
X166912859Y-98178377D01*
X166863702Y-98426520D01*
X100658600Y-98426520D01*
X100658600Y-97626916D01*
X167474363Y-97626916D01*
X168148000Y-98300553D01*
X168821637Y-97626916D01*
X168755408Y-97413482D01*
X168521623Y-97316859D01*
X168273480Y-97267702D01*
X168020515Y-97267899D01*
X167772449Y-97317444D01*
X167540592Y-97413482D01*
X167474363Y-97626916D01*
X100658600Y-97626916D01*
X100658600Y-95920541D01*
X167219400Y-95920541D01*
X167219400Y-96103459D01*
X167255086Y-96282863D01*
X167325085Y-96451857D01*
X167426709Y-96603948D01*
X167556052Y-96733291D01*
X167708143Y-96834915D01*
X167877137Y-96904914D01*
X168056541Y-96940600D01*
X168239459Y-96940600D01*
X168418863Y-96904914D01*
X168587857Y-96834915D01*
X168739948Y-96733291D01*
X168869291Y-96603948D01*
X168970915Y-96451857D01*
X169040914Y-96282863D01*
X169076600Y-96103459D01*
X169076600Y-95920541D01*
X169759400Y-95920541D01*
X169759400Y-96103459D01*
X169795086Y-96282863D01*
X169865085Y-96451857D01*
X169966709Y-96603948D01*
X170096052Y-96733291D01*
X170248143Y-96834915D01*
X170417137Y-96904914D01*
X170596541Y-96940600D01*
X170779459Y-96940600D01*
X170958863Y-96904914D01*
X171127857Y-96834915D01*
X171279948Y-96733291D01*
X171409291Y-96603948D01*
X171510915Y-96451857D01*
X171580914Y-96282863D01*
X171616600Y-96103459D01*
X171616600Y-95920541D01*
X171580914Y-95741137D01*
X171510915Y-95572143D01*
X171409291Y-95420052D01*
X171301239Y-95312000D01*
X172298294Y-95312000D01*
X172298294Y-96712000D01*
X172302708Y-96756813D01*
X172315779Y-96799905D01*
X172337006Y-96839618D01*
X172365573Y-96874427D01*
X172400382Y-96902994D01*
X172440095Y-96924221D01*
X172483187Y-96937292D01*
X172528000Y-96941706D01*
X173928000Y-96941706D01*
X173972813Y-96937292D01*
X174015905Y-96924221D01*
X174055618Y-96902994D01*
X174090427Y-96874427D01*
X174118994Y-96839618D01*
X174140221Y-96799905D01*
X174153292Y-96756813D01*
X174157706Y-96712000D01*
X174157706Y-95312000D01*
X174153292Y-95267187D01*
X174140221Y-95224095D01*
X174118994Y-95184382D01*
X174090427Y-95149573D01*
X174055618Y-95121006D01*
X174015905Y-95099779D01*
X173972813Y-95086708D01*
X173928000Y-95082294D01*
X172528000Y-95082294D01*
X172483187Y-95086708D01*
X172440095Y-95099779D01*
X172400382Y-95121006D01*
X172365573Y-95149573D01*
X172337006Y-95184382D01*
X172315779Y-95224095D01*
X172302708Y-95267187D01*
X172298294Y-95312000D01*
X171301239Y-95312000D01*
X171279948Y-95290709D01*
X171127857Y-95189085D01*
X170958863Y-95119086D01*
X170779459Y-95083400D01*
X170596541Y-95083400D01*
X170417137Y-95119086D01*
X170248143Y-95189085D01*
X170096052Y-95290709D01*
X169966709Y-95420052D01*
X169865085Y-95572143D01*
X169795086Y-95741137D01*
X169759400Y-95920541D01*
X169076600Y-95920541D01*
X169040914Y-95741137D01*
X168970915Y-95572143D01*
X168869291Y-95420052D01*
X168739948Y-95290709D01*
X168587857Y-95189085D01*
X168418863Y-95119086D01*
X168239459Y-95083400D01*
X168056541Y-95083400D01*
X167877137Y-95119086D01*
X167708143Y-95189085D01*
X167556052Y-95290709D01*
X167426709Y-95420052D01*
X167325085Y-95572143D01*
X167255086Y-95741137D01*
X167219400Y-95920541D01*
X100658600Y-95920541D01*
X100658600Y-92561293D01*
X157042772Y-92561293D01*
X157042772Y-92666363D01*
X157063270Y-92769415D01*
X157103479Y-92866488D01*
X157161853Y-92953851D01*
X157236149Y-93028147D01*
X157323512Y-93086521D01*
X157420585Y-93126730D01*
X157523637Y-93147228D01*
X157628707Y-93147228D01*
X157731759Y-93126730D01*
X157828832Y-93086521D01*
X157916195Y-93028147D01*
X157990491Y-92953851D01*
X158048865Y-92866488D01*
X158089074Y-92769415D01*
X158109572Y-92666363D01*
X158109572Y-92561293D01*
X158104144Y-92534005D01*
X191097442Y-92534005D01*
X191163486Y-92747287D01*
X191397014Y-92843758D01*
X191644875Y-92892818D01*
X191897545Y-92892580D01*
X192145314Y-92843053D01*
X192376514Y-92747287D01*
X192442558Y-92534005D01*
X191770000Y-91861447D01*
X191097442Y-92534005D01*
X158104144Y-92534005D01*
X158101307Y-92519744D01*
X158461619Y-92159433D01*
X158462681Y-92161023D01*
X158536977Y-92235319D01*
X158624340Y-92293693D01*
X158721413Y-92333902D01*
X158824465Y-92354400D01*
X158929535Y-92354400D01*
X159032587Y-92333902D01*
X159129660Y-92293693D01*
X159217023Y-92235319D01*
X159291319Y-92161023D01*
X159349693Y-92073660D01*
X159389902Y-91976587D01*
X159410400Y-91873535D01*
X159410400Y-91768465D01*
X159389902Y-91665413D01*
X159349693Y-91568340D01*
X159293924Y-91484875D01*
X190487182Y-91484875D01*
X190487420Y-91737545D01*
X190536947Y-91985314D01*
X190632713Y-92216514D01*
X190845995Y-92282558D01*
X191518553Y-91610000D01*
X192021447Y-91610000D01*
X192694005Y-92282558D01*
X192907287Y-92216514D01*
X193003758Y-91982986D01*
X193052818Y-91735125D01*
X193052580Y-91482455D01*
X193003053Y-91234686D01*
X192907287Y-91003486D01*
X192694005Y-90937442D01*
X192021447Y-91610000D01*
X191518553Y-91610000D01*
X190845995Y-90937442D01*
X190632713Y-91003486D01*
X190536242Y-91237014D01*
X190487182Y-91484875D01*
X159293924Y-91484875D01*
X159291319Y-91480977D01*
X159217023Y-91406681D01*
X159129660Y-91348307D01*
X159032587Y-91308098D01*
X158929535Y-91287600D01*
X158824465Y-91287600D01*
X158721413Y-91308098D01*
X158624340Y-91348307D01*
X158536977Y-91406681D01*
X158462681Y-91480977D01*
X158439146Y-91516200D01*
X158383957Y-91516200D01*
X158368999Y-91514727D01*
X158354041Y-91516200D01*
X158354034Y-91516200D01*
X158314889Y-91520055D01*
X158309248Y-91520611D01*
X158251794Y-91538040D01*
X158198843Y-91566342D01*
X158152432Y-91604432D01*
X158142892Y-91616056D01*
X157670256Y-92088693D01*
X157628707Y-92080428D01*
X157523637Y-92080428D01*
X157420585Y-92100926D01*
X157323512Y-92141135D01*
X157236149Y-92199509D01*
X157161853Y-92273805D01*
X157103479Y-92361168D01*
X157063270Y-92458241D01*
X157042772Y-92561293D01*
X100658600Y-92561293D01*
X100658600Y-90685995D01*
X191097442Y-90685995D01*
X191770000Y-91358553D01*
X192442558Y-90685995D01*
X192376514Y-90472713D01*
X192142986Y-90376242D01*
X191895125Y-90327182D01*
X191642455Y-90327420D01*
X191394686Y-90376947D01*
X191163486Y-90472713D01*
X191097442Y-90685995D01*
X100658600Y-90685995D01*
X100658600Y-89739929D01*
X192780900Y-89739929D01*
X192780900Y-89980071D01*
X192827749Y-90215598D01*
X192919647Y-90437461D01*
X193053063Y-90637131D01*
X193222869Y-90806937D01*
X193422539Y-90940353D01*
X193644402Y-91032251D01*
X193879929Y-91079100D01*
X194120071Y-91079100D01*
X194355598Y-91032251D01*
X194577461Y-90940353D01*
X194777131Y-90806937D01*
X194946937Y-90637131D01*
X195080353Y-90437461D01*
X195172251Y-90215598D01*
X195219100Y-89980071D01*
X195219100Y-89739929D01*
X195172251Y-89504402D01*
X195080353Y-89282539D01*
X194946937Y-89082869D01*
X194777131Y-88913063D01*
X194577461Y-88779647D01*
X194355598Y-88687749D01*
X194120071Y-88640900D01*
X193879929Y-88640900D01*
X193644402Y-88687749D01*
X193422539Y-88779647D01*
X193222869Y-88913063D01*
X193053063Y-89082869D01*
X192919647Y-89282539D01*
X192827749Y-89504402D01*
X192780900Y-89739929D01*
X100658600Y-89739929D01*
X100658600Y-88018689D01*
X190842900Y-88018689D01*
X190842900Y-88201311D01*
X190878528Y-88380425D01*
X190948414Y-88549147D01*
X191049874Y-88700992D01*
X191179008Y-88830126D01*
X191330853Y-88931586D01*
X191499575Y-89001472D01*
X191678689Y-89037100D01*
X191861311Y-89037100D01*
X192040425Y-89001472D01*
X192209147Y-88931586D01*
X192360992Y-88830126D01*
X192490126Y-88700992D01*
X192591586Y-88549147D01*
X192661472Y-88380425D01*
X192697100Y-88201311D01*
X192697100Y-88018689D01*
X192661472Y-87839575D01*
X192591586Y-87670853D01*
X192490126Y-87519008D01*
X192360992Y-87389874D01*
X192209147Y-87288414D01*
X192040425Y-87218528D01*
X191861311Y-87182900D01*
X191678689Y-87182900D01*
X191499575Y-87218528D01*
X191330853Y-87288414D01*
X191179008Y-87389874D01*
X191049874Y-87519008D01*
X190948414Y-87670853D01*
X190878528Y-87839575D01*
X190842900Y-88018689D01*
X100658600Y-88018689D01*
X100658600Y-84518689D01*
X190842900Y-84518689D01*
X190842900Y-84701311D01*
X190878528Y-84880425D01*
X190948414Y-85049147D01*
X191049874Y-85200992D01*
X191179008Y-85330126D01*
X191330853Y-85431586D01*
X191499575Y-85501472D01*
X191678689Y-85537100D01*
X191861311Y-85537100D01*
X192040425Y-85501472D01*
X192209147Y-85431586D01*
X192360992Y-85330126D01*
X192490126Y-85200992D01*
X192591586Y-85049147D01*
X192661472Y-84880425D01*
X192697100Y-84701311D01*
X192697100Y-84518689D01*
X192661472Y-84339575D01*
X192591586Y-84170853D01*
X192490126Y-84019008D01*
X192360992Y-83889874D01*
X192209147Y-83788414D01*
X192040425Y-83718528D01*
X191861311Y-83682900D01*
X191678689Y-83682900D01*
X191499575Y-83718528D01*
X191330853Y-83788414D01*
X191179008Y-83889874D01*
X191049874Y-84019008D01*
X190948414Y-84170853D01*
X190878528Y-84339575D01*
X190842900Y-84518689D01*
X100658600Y-84518689D01*
X100658600Y-83833368D01*
X111998079Y-83833368D01*
X112125237Y-84097790D01*
X112444581Y-84244560D01*
X112786422Y-84326210D01*
X113137624Y-84339600D01*
X113484689Y-84284218D01*
X113814282Y-84162189D01*
X113934763Y-84097790D01*
X114061921Y-83833368D01*
X113030000Y-82801447D01*
X111998079Y-83833368D01*
X100658600Y-83833368D01*
X100658600Y-82657624D01*
X111240400Y-82657624D01*
X111295782Y-83004689D01*
X111417811Y-83334282D01*
X111482210Y-83454763D01*
X111746632Y-83581921D01*
X112778553Y-82550000D01*
X113281447Y-82550000D01*
X114313368Y-83581921D01*
X114577790Y-83454763D01*
X114724560Y-83135419D01*
X114806210Y-82793578D01*
X114819600Y-82442376D01*
X114764218Y-82095311D01*
X114642189Y-81765718D01*
X114577790Y-81645237D01*
X114313368Y-81518079D01*
X113281447Y-82550000D01*
X112778553Y-82550000D01*
X111746632Y-81518079D01*
X111482210Y-81645237D01*
X111335440Y-81964581D01*
X111253790Y-82306422D01*
X111240400Y-82657624D01*
X100658600Y-82657624D01*
X100658600Y-79869295D01*
X103981400Y-79869295D01*
X103981400Y-80150705D01*
X104036301Y-80426707D01*
X104143991Y-80686696D01*
X104300334Y-80920679D01*
X104499321Y-81119666D01*
X104733304Y-81276009D01*
X104993293Y-81383699D01*
X105269295Y-81438600D01*
X105550705Y-81438600D01*
X105826707Y-81383699D01*
X106086696Y-81276009D01*
X106100729Y-81266632D01*
X111998079Y-81266632D01*
X113030000Y-82298553D01*
X114061921Y-81266632D01*
X113942688Y-81018689D01*
X190842900Y-81018689D01*
X190842900Y-81201311D01*
X190878528Y-81380425D01*
X190948414Y-81549147D01*
X191049874Y-81700992D01*
X191179008Y-81830126D01*
X191330853Y-81931586D01*
X191499575Y-82001472D01*
X191678689Y-82037100D01*
X191861311Y-82037100D01*
X192040425Y-82001472D01*
X192209147Y-81931586D01*
X192360992Y-81830126D01*
X192490126Y-81700992D01*
X192591586Y-81549147D01*
X192661472Y-81380425D01*
X192697100Y-81201311D01*
X192697100Y-81018689D01*
X192661472Y-80839575D01*
X192591586Y-80670853D01*
X192490126Y-80519008D01*
X192360992Y-80389874D01*
X192209147Y-80288414D01*
X192040425Y-80218528D01*
X191861311Y-80182900D01*
X191678689Y-80182900D01*
X191499575Y-80218528D01*
X191330853Y-80288414D01*
X191179008Y-80389874D01*
X191049874Y-80519008D01*
X190948414Y-80670853D01*
X190878528Y-80839575D01*
X190842900Y-81018689D01*
X113942688Y-81018689D01*
X113934763Y-81002210D01*
X113615419Y-80855440D01*
X113273578Y-80773790D01*
X112922376Y-80760400D01*
X112575311Y-80815782D01*
X112245718Y-80937811D01*
X112125237Y-81002210D01*
X111998079Y-81266632D01*
X106100729Y-81266632D01*
X106320679Y-81119666D01*
X106519666Y-80920679D01*
X106676009Y-80686696D01*
X106783699Y-80426707D01*
X106838600Y-80150705D01*
X106838600Y-79869295D01*
X106783699Y-79593293D01*
X106676009Y-79333304D01*
X106519666Y-79099321D01*
X106320679Y-78900334D01*
X106086696Y-78743991D01*
X105826707Y-78636301D01*
X105550705Y-78581400D01*
X105269295Y-78581400D01*
X104993293Y-78636301D01*
X104733304Y-78743991D01*
X104499321Y-78900334D01*
X104300334Y-79099321D01*
X104143991Y-79333304D01*
X104036301Y-79593293D01*
X103981400Y-79869295D01*
X100658600Y-79869295D01*
X100658600Y-78756074D01*
X100702262Y-78310774D01*
X100826915Y-77897904D01*
X101029389Y-77517104D01*
X101301974Y-77182881D01*
X101634284Y-76907972D01*
X102013657Y-76702845D01*
X102425651Y-76575311D01*
X102870063Y-76528602D01*
X102870577Y-76528600D01*
X195563926Y-76528600D01*
X196009226Y-76572262D01*
X196009226Y-76572262D01*
G37*
X196009226Y-76572262D02*
X196422096Y-76696915D01*
X196802896Y-76899389D01*
X197137119Y-77171974D01*
X197412028Y-77504284D01*
X197617155Y-77883657D01*
X197744689Y-78295651D01*
X197791398Y-78740063D01*
X197791401Y-78740863D01*
X197791400Y-134603926D01*
X197747738Y-135049226D01*
X197623085Y-135462097D01*
X197420610Y-135842898D01*
X197148026Y-136177119D01*
X196815720Y-136452026D01*
X196436345Y-136657154D01*
X196024349Y-136784689D01*
X195579937Y-136831398D01*
X195579423Y-136831400D01*
X102886074Y-136831400D01*
X102440774Y-136787738D01*
X102027903Y-136663085D01*
X101647102Y-136460610D01*
X101312881Y-136188026D01*
X101037974Y-135855720D01*
X100832846Y-135476345D01*
X100705311Y-135064349D01*
X100658602Y-134619937D01*
X100658600Y-134619423D01*
X100658600Y-125639084D01*
X165950363Y-125639084D01*
X166016592Y-125852518D01*
X166250377Y-125949141D01*
X166498520Y-125998298D01*
X166751485Y-125998101D01*
X166999551Y-125948556D01*
X167231408Y-125852518D01*
X167297637Y-125639084D01*
X166624000Y-124965447D01*
X165950363Y-125639084D01*
X100658600Y-125639084D01*
X100658600Y-124588520D01*
X165339702Y-124588520D01*
X165339899Y-124841485D01*
X165389444Y-125089551D01*
X165485482Y-125321408D01*
X165698916Y-125387637D01*
X166372553Y-124714000D01*
X166875447Y-124714000D01*
X167549084Y-125387637D01*
X167762518Y-125321408D01*
X167859141Y-125087623D01*
X167908298Y-124839480D01*
X167908130Y-124622541D01*
X168235400Y-124622541D01*
X168235400Y-124805459D01*
X168271086Y-124984863D01*
X168341085Y-125153857D01*
X168442709Y-125305948D01*
X168572052Y-125435291D01*
X168724143Y-125536915D01*
X168893137Y-125606914D01*
X169072541Y-125642600D01*
X169255459Y-125642600D01*
X169434863Y-125606914D01*
X169603857Y-125536915D01*
X169755948Y-125435291D01*
X169885291Y-125305948D01*
X169986915Y-125153857D01*
X170056914Y-124984863D01*
X170092600Y-124805459D01*
X170092600Y-124622541D01*
X170775400Y-124622541D01*
X170775400Y-124805459D01*
X170811086Y-124984863D01*
X170881085Y-125153857D01*
X170982709Y-125305948D01*
X171112052Y-125435291D01*
X171264143Y-125536915D01*
X171433137Y-125606914D01*
X171612541Y-125642600D01*
X171795459Y-125642600D01*
X171974863Y-125606914D01*
X172143857Y-125536915D01*
X172295948Y-125435291D01*
X172425291Y-125305948D01*
X172526915Y-125153857D01*
X172596914Y-124984863D01*
X172632600Y-124805459D01*
X172632600Y-124622541D01*
X172596914Y-124443137D01*
X172526915Y-124274143D01*
X172425291Y-124122052D01*
X172295948Y-123992709D01*
X172143857Y-123891085D01*
X171974863Y-123821086D01*
X171795459Y-123785400D01*
X171612541Y-123785400D01*
X171433137Y-123821086D01*
X171264143Y-123891085D01*
X171112052Y-123992709D01*
X170982709Y-124122052D01*
X170881085Y-124274143D01*
X170811086Y-124443137D01*
X170775400Y-124622541D01*
X170092600Y-124622541D01*
X170056914Y-124443137D01*
X169986915Y-124274143D01*
X169885291Y-124122052D01*
X169755948Y-123992709D01*
X169603857Y-123891085D01*
X169434863Y-123821086D01*
X169255459Y-123785400D01*
X169072541Y-123785400D01*
X168893137Y-123821086D01*
X168724143Y-123891085D01*
X168572052Y-123992709D01*
X168442709Y-124122052D01*
X168341085Y-124274143D01*
X168271086Y-124443137D01*
X168235400Y-124622541D01*
X167908130Y-124622541D01*
X167908101Y-124586515D01*
X167858556Y-124338449D01*
X167762518Y-124106592D01*
X167549084Y-124040363D01*
X166875447Y-124714000D01*
X166372553Y-124714000D01*
X165698916Y-124040363D01*
X165485482Y-124106592D01*
X165388859Y-124340377D01*
X165339702Y-124588520D01*
X100658600Y-124588520D01*
X100658600Y-123788916D01*
X165950363Y-123788916D01*
X166624000Y-124462553D01*
X167297637Y-123788916D01*
X167231408Y-123575482D01*
X166997623Y-123478859D01*
X166749480Y-123429702D01*
X166496515Y-123429899D01*
X166248449Y-123479444D01*
X166016592Y-123575482D01*
X165950363Y-123788916D01*
X100658600Y-123788916D01*
X100658600Y-122082541D01*
X165695400Y-122082541D01*
X165695400Y-122265459D01*
X165731086Y-122444863D01*
X165801085Y-122613857D01*
X165902709Y-122765948D01*
X166032052Y-122895291D01*
X166184143Y-122996915D01*
X166353137Y-123066914D01*
X166532541Y-123102600D01*
X166715459Y-123102600D01*
X166894863Y-123066914D01*
X167063857Y-122996915D01*
X167215948Y-122895291D01*
X167345291Y-122765948D01*
X167446915Y-122613857D01*
X167516914Y-122444863D01*
X167552600Y-122265459D01*
X167552600Y-122082541D01*
X168235400Y-122082541D01*
X168235400Y-122265459D01*
X168271086Y-122444863D01*
X168341085Y-122613857D01*
X168442709Y-122765948D01*
X168572052Y-122895291D01*
X168724143Y-122996915D01*
X168893137Y-123066914D01*
X169072541Y-123102600D01*
X169255459Y-123102600D01*
X169434863Y-123066914D01*
X169603857Y-122996915D01*
X169755948Y-122895291D01*
X169885291Y-122765948D01*
X169986915Y-122613857D01*
X170056914Y-122444863D01*
X170092600Y-122265459D01*
X170092600Y-122082541D01*
X170056914Y-121903137D01*
X169986915Y-121734143D01*
X169885291Y-121582052D01*
X169777239Y-121474000D01*
X170774294Y-121474000D01*
X170774294Y-122874000D01*
X170778708Y-122918813D01*
X170791779Y-122961905D01*
X170813006Y-123001618D01*
X170841573Y-123036427D01*
X170876382Y-123064994D01*
X170916095Y-123086221D01*
X170959187Y-123099292D01*
X171004000Y-123103706D01*
X172404000Y-123103706D01*
X172448813Y-123099292D01*
X172491905Y-123086221D01*
X172531618Y-123064994D01*
X172566427Y-123036427D01*
X172594994Y-123001618D01*
X172616221Y-122961905D01*
X172629292Y-122918813D01*
X172633706Y-122874000D01*
X172633706Y-121474000D01*
X172629292Y-121429187D01*
X172616221Y-121386095D01*
X172594994Y-121346382D01*
X172566427Y-121311573D01*
X172531618Y-121283006D01*
X172491905Y-121261779D01*
X172448813Y-121248708D01*
X172404000Y-121244294D01*
X171004000Y-121244294D01*
X170959187Y-121248708D01*
X170916095Y-121261779D01*
X170876382Y-121283006D01*
X170841573Y-121311573D01*
X170813006Y-121346382D01*
X170791779Y-121386095D01*
X170778708Y-121429187D01*
X170774294Y-121474000D01*
X169777239Y-121474000D01*
X169755948Y-121452709D01*
X169603857Y-121351085D01*
X169434863Y-121281086D01*
X169255459Y-121245400D01*
X169072541Y-121245400D01*
X168893137Y-121281086D01*
X168724143Y-121351085D01*
X168572052Y-121452709D01*
X168442709Y-121582052D01*
X168341085Y-121734143D01*
X168271086Y-121903137D01*
X168235400Y-122082541D01*
X167552600Y-122082541D01*
X167516914Y-121903137D01*
X167446915Y-121734143D01*
X167345291Y-121582052D01*
X167215948Y-121452709D01*
X167063857Y-121351085D01*
X166894863Y-121281086D01*
X166715459Y-121245400D01*
X166532541Y-121245400D01*
X166353137Y-121281086D01*
X166184143Y-121351085D01*
X166032052Y-121452709D01*
X165902709Y-121582052D01*
X165801085Y-121734143D01*
X165731086Y-121903137D01*
X165695400Y-122082541D01*
X100658600Y-122082541D01*
X100658600Y-115345434D01*
X163855400Y-115345434D01*
X163855400Y-115540566D01*
X163893468Y-115731947D01*
X163968142Y-115912225D01*
X164076551Y-116074471D01*
X164214529Y-116212449D01*
X164376775Y-116320858D01*
X164557053Y-116395532D01*
X164748434Y-116433600D01*
X164943566Y-116433600D01*
X165134947Y-116395532D01*
X165315225Y-116320858D01*
X165477471Y-116212449D01*
X165615449Y-116074471D01*
X165723858Y-115912225D01*
X165798532Y-115731947D01*
X165836600Y-115540566D01*
X165836600Y-115345434D01*
X165798532Y-115154053D01*
X165723858Y-114973775D01*
X165615449Y-114811529D01*
X165559385Y-114755465D01*
X181208200Y-114755465D01*
X181208200Y-114860535D01*
X181228698Y-114963587D01*
X181268907Y-115060660D01*
X181327281Y-115148023D01*
X181401577Y-115222319D01*
X181488940Y-115280693D01*
X181586013Y-115320902D01*
X181689065Y-115341400D01*
X181794135Y-115341400D01*
X181897187Y-115320902D01*
X181994260Y-115280693D01*
X182081623Y-115222319D01*
X182155919Y-115148023D01*
X182179454Y-115112800D01*
X182675356Y-115112800D01*
X182698891Y-115148023D01*
X182773187Y-115222319D01*
X182860550Y-115280693D01*
X182957623Y-115320902D01*
X183060675Y-115341400D01*
X183165745Y-115341400D01*
X183268797Y-115320902D01*
X183365870Y-115280693D01*
X183453233Y-115222319D01*
X183527529Y-115148023D01*
X183585903Y-115060660D01*
X183626112Y-114963587D01*
X183646610Y-114860535D01*
X183646610Y-114755465D01*
X183626112Y-114652413D01*
X183585903Y-114555340D01*
X183527529Y-114467977D01*
X183453233Y-114393681D01*
X183365870Y-114335307D01*
X183268797Y-114295098D01*
X183165745Y-114274600D01*
X183060675Y-114274600D01*
X182957623Y-114295098D01*
X182860550Y-114335307D01*
X182773187Y-114393681D01*
X182698891Y-114467977D01*
X182675356Y-114503200D01*
X182179454Y-114503200D01*
X182155919Y-114467977D01*
X182081623Y-114393681D01*
X181994260Y-114335307D01*
X181897187Y-114295098D01*
X181794135Y-114274600D01*
X181689065Y-114274600D01*
X181586013Y-114295098D01*
X181488940Y-114335307D01*
X181401577Y-114393681D01*
X181327281Y-114467977D01*
X181268907Y-114555340D01*
X181228698Y-114652413D01*
X181208200Y-114755465D01*
X165559385Y-114755465D01*
X165477471Y-114673551D01*
X165315225Y-114565142D01*
X165134947Y-114490468D01*
X164943566Y-114452400D01*
X164748434Y-114452400D01*
X164557053Y-114490468D01*
X164376775Y-114565142D01*
X164214529Y-114673551D01*
X164076551Y-114811529D01*
X163968142Y-114973775D01*
X163893468Y-115154053D01*
X163855400Y-115345434D01*
X100658600Y-115345434D01*
X100658600Y-112805434D01*
X161315400Y-112805434D01*
X161315400Y-113000566D01*
X161353468Y-113191947D01*
X161428142Y-113372225D01*
X161536551Y-113534471D01*
X161674529Y-113672449D01*
X161836775Y-113780858D01*
X162017053Y-113855532D01*
X162208434Y-113893600D01*
X162403566Y-113893600D01*
X162594947Y-113855532D01*
X162775225Y-113780858D01*
X162937471Y-113672449D01*
X163075449Y-113534471D01*
X163183858Y-113372225D01*
X163258532Y-113191947D01*
X163296600Y-113000566D01*
X163296600Y-112805434D01*
X166395400Y-112805434D01*
X166395400Y-113000566D01*
X166433468Y-113191947D01*
X166508142Y-113372225D01*
X166616551Y-113534471D01*
X166754529Y-113672449D01*
X166916775Y-113780858D01*
X167097053Y-113855532D01*
X167288434Y-113893600D01*
X167483566Y-113893600D01*
X167674947Y-113855532D01*
X167855225Y-113780858D01*
X168017471Y-113672449D01*
X168155449Y-113534471D01*
X168263858Y-113372225D01*
X168338532Y-113191947D01*
X168376600Y-113000566D01*
X168376600Y-112805434D01*
X168338532Y-112614053D01*
X168263858Y-112433775D01*
X168155449Y-112271529D01*
X168017471Y-112133551D01*
X167855225Y-112025142D01*
X167674947Y-111950468D01*
X167483566Y-111912400D01*
X167288434Y-111912400D01*
X167097053Y-111950468D01*
X166916775Y-112025142D01*
X166754529Y-112133551D01*
X166616551Y-112271529D01*
X166508142Y-112433775D01*
X166433468Y-112614053D01*
X166395400Y-112805434D01*
X163296600Y-112805434D01*
X163258532Y-112614053D01*
X163183858Y-112433775D01*
X163075449Y-112271529D01*
X162937471Y-112133551D01*
X162775225Y-112025142D01*
X162594947Y-111950468D01*
X162403566Y-111912400D01*
X162208434Y-111912400D01*
X162017053Y-111950468D01*
X161836775Y-112025142D01*
X161674529Y-112133551D01*
X161536551Y-112271529D01*
X161428142Y-112433775D01*
X161353468Y-112614053D01*
X161315400Y-112805434D01*
X100658600Y-112805434D01*
X100658600Y-111453465D01*
X127863600Y-111453465D01*
X127863600Y-111558535D01*
X127884098Y-111661587D01*
X127924307Y-111758660D01*
X127982681Y-111846023D01*
X128056977Y-111920319D01*
X128144340Y-111978693D01*
X128241413Y-112018902D01*
X128344465Y-112039400D01*
X128449535Y-112039400D01*
X128552587Y-112018902D01*
X128649660Y-111978693D01*
X128737023Y-111920319D01*
X128811319Y-111846023D01*
X128869693Y-111758660D01*
X128909902Y-111661587D01*
X128930400Y-111558535D01*
X128930400Y-111453465D01*
X128909902Y-111350413D01*
X128902545Y-111332651D01*
X164127797Y-111332651D01*
X164201636Y-111552382D01*
X164446055Y-111655238D01*
X164705843Y-111708433D01*
X164971017Y-111709925D01*
X165231387Y-111659654D01*
X165476946Y-111559554D01*
X165490364Y-111552382D01*
X165564203Y-111332651D01*
X164846000Y-110614447D01*
X164127797Y-111332651D01*
X128902545Y-111332651D01*
X128869693Y-111253340D01*
X128811319Y-111165977D01*
X128737023Y-111091681D01*
X128649660Y-111033307D01*
X128552587Y-110993098D01*
X128449535Y-110972600D01*
X128344465Y-110972600D01*
X128241413Y-110993098D01*
X128144340Y-111033307D01*
X128056977Y-111091681D01*
X127982681Y-111165977D01*
X127924307Y-111253340D01*
X127884098Y-111350413D01*
X127863600Y-111453465D01*
X100658600Y-111453465D01*
X100658600Y-110488017D01*
X163499075Y-110488017D01*
X163549346Y-110748387D01*
X163649446Y-110993946D01*
X163656618Y-111007364D01*
X163876349Y-111081203D01*
X164594553Y-110363000D01*
X165097447Y-110363000D01*
X165815651Y-111081203D01*
X166035382Y-111007364D01*
X166138238Y-110762945D01*
X166191433Y-110503157D01*
X166192925Y-110237983D01*
X166142654Y-109977613D01*
X166042554Y-109732054D01*
X166035382Y-109718636D01*
X165815651Y-109644797D01*
X165097447Y-110363000D01*
X164594553Y-110363000D01*
X163876349Y-109644797D01*
X163656618Y-109718636D01*
X163553762Y-109963055D01*
X163500567Y-110222843D01*
X163499075Y-110488017D01*
X100658600Y-110488017D01*
X100658600Y-109393349D01*
X164127797Y-109393349D01*
X164846000Y-110111553D01*
X165564203Y-109393349D01*
X165490364Y-109173618D01*
X165245945Y-109070762D01*
X164986157Y-109017567D01*
X164720983Y-109016075D01*
X164460613Y-109066346D01*
X164215054Y-109166446D01*
X164201636Y-109173618D01*
X164127797Y-109393349D01*
X100658600Y-109393349D01*
X100658600Y-100785465D01*
X172694600Y-100785465D01*
X172694600Y-100890535D01*
X172715098Y-100993587D01*
X172755307Y-101090660D01*
X172813681Y-101178023D01*
X172887977Y-101252319D01*
X172975340Y-101310693D01*
X173072413Y-101350902D01*
X173175465Y-101371400D01*
X173280535Y-101371400D01*
X173383587Y-101350902D01*
X173480660Y-101310693D01*
X173568023Y-101252319D01*
X173642319Y-101178023D01*
X173700693Y-101090660D01*
X173740902Y-100993587D01*
X173761400Y-100890535D01*
X173761400Y-100785465D01*
X173740902Y-100682413D01*
X173700693Y-100585340D01*
X173642319Y-100497977D01*
X173568023Y-100423681D01*
X173480660Y-100365307D01*
X173383587Y-100325098D01*
X173280535Y-100304600D01*
X173175465Y-100304600D01*
X173072413Y-100325098D01*
X172975340Y-100365307D01*
X172887977Y-100423681D01*
X172813681Y-100497977D01*
X172755307Y-100585340D01*
X172715098Y-100682413D01*
X172694600Y-100785465D01*
X100658600Y-100785465D01*
X100658600Y-99477084D01*
X167474363Y-99477084D01*
X167540592Y-99690518D01*
X167774377Y-99787141D01*
X168022520Y-99836298D01*
X168275485Y-99836101D01*
X168523551Y-99786556D01*
X168755408Y-99690518D01*
X168821637Y-99477084D01*
X168148000Y-98803447D01*
X167474363Y-99477084D01*
X100658600Y-99477084D01*
X100658600Y-98426520D01*
X166863702Y-98426520D01*
X166863899Y-98679485D01*
X166913444Y-98927551D01*
X167009482Y-99159408D01*
X167222916Y-99225637D01*
X167896553Y-98552000D01*
X168399447Y-98552000D01*
X169073084Y-99225637D01*
X169286518Y-99159408D01*
X169383141Y-98925623D01*
X169432298Y-98677480D01*
X169432130Y-98460541D01*
X169759400Y-98460541D01*
X169759400Y-98643459D01*
X169795086Y-98822863D01*
X169865085Y-98991857D01*
X169966709Y-99143948D01*
X170096052Y-99273291D01*
X170248143Y-99374915D01*
X170417137Y-99444914D01*
X170596541Y-99480600D01*
X170779459Y-99480600D01*
X170958863Y-99444914D01*
X171127857Y-99374915D01*
X171279948Y-99273291D01*
X171409291Y-99143948D01*
X171510915Y-98991857D01*
X171580914Y-98822863D01*
X171616600Y-98643459D01*
X171616600Y-98460541D01*
X172299400Y-98460541D01*
X172299400Y-98643459D01*
X172335086Y-98822863D01*
X172405085Y-98991857D01*
X172506709Y-99143948D01*
X172636052Y-99273291D01*
X172788143Y-99374915D01*
X172957137Y-99444914D01*
X173136541Y-99480600D01*
X173319459Y-99480600D01*
X173498863Y-99444914D01*
X173667857Y-99374915D01*
X173819948Y-99273291D01*
X173949291Y-99143948D01*
X174050915Y-98991857D01*
X174120914Y-98822863D01*
X174156600Y-98643459D01*
X174156600Y-98460541D01*
X174120914Y-98281137D01*
X174050915Y-98112143D01*
X173949291Y-97960052D01*
X173819948Y-97830709D01*
X173667857Y-97729085D01*
X173498863Y-97659086D01*
X173319459Y-97623400D01*
X173136541Y-97623400D01*
X172957137Y-97659086D01*
X172788143Y-97729085D01*
X172636052Y-97830709D01*
X172506709Y-97960052D01*
X172405085Y-98112143D01*
X172335086Y-98281137D01*
X172299400Y-98460541D01*
X171616600Y-98460541D01*
X171580914Y-98281137D01*
X171510915Y-98112143D01*
X171409291Y-97960052D01*
X171279948Y-97830709D01*
X171127857Y-97729085D01*
X170958863Y-97659086D01*
X170779459Y-97623400D01*
X170596541Y-97623400D01*
X170417137Y-97659086D01*
X170248143Y-97729085D01*
X170096052Y-97830709D01*
X169966709Y-97960052D01*
X169865085Y-98112143D01*
X169795086Y-98281137D01*
X169759400Y-98460541D01*
X169432130Y-98460541D01*
X169432101Y-98424515D01*
X169382556Y-98176449D01*
X169286518Y-97944592D01*
X169073084Y-97878363D01*
X168399447Y-98552000D01*
X167896553Y-98552000D01*
X167222916Y-97878363D01*
X167009482Y-97944592D01*
X166912859Y-98178377D01*
X166863702Y-98426520D01*
X100658600Y-98426520D01*
X100658600Y-97626916D01*
X167474363Y-97626916D01*
X168148000Y-98300553D01*
X168821637Y-97626916D01*
X168755408Y-97413482D01*
X168521623Y-97316859D01*
X168273480Y-97267702D01*
X168020515Y-97267899D01*
X167772449Y-97317444D01*
X167540592Y-97413482D01*
X167474363Y-97626916D01*
X100658600Y-97626916D01*
X100658600Y-95920541D01*
X167219400Y-95920541D01*
X167219400Y-96103459D01*
X167255086Y-96282863D01*
X167325085Y-96451857D01*
X167426709Y-96603948D01*
X167556052Y-96733291D01*
X167708143Y-96834915D01*
X167877137Y-96904914D01*
X168056541Y-96940600D01*
X168239459Y-96940600D01*
X168418863Y-96904914D01*
X168587857Y-96834915D01*
X168739948Y-96733291D01*
X168869291Y-96603948D01*
X168970915Y-96451857D01*
X169040914Y-96282863D01*
X169076600Y-96103459D01*
X169076600Y-95920541D01*
X169759400Y-95920541D01*
X169759400Y-96103459D01*
X169795086Y-96282863D01*
X169865085Y-96451857D01*
X169966709Y-96603948D01*
X170096052Y-96733291D01*
X170248143Y-96834915D01*
X170417137Y-96904914D01*
X170596541Y-96940600D01*
X170779459Y-96940600D01*
X170958863Y-96904914D01*
X171127857Y-96834915D01*
X171279948Y-96733291D01*
X171409291Y-96603948D01*
X171510915Y-96451857D01*
X171580914Y-96282863D01*
X171616600Y-96103459D01*
X171616600Y-95920541D01*
X171580914Y-95741137D01*
X171510915Y-95572143D01*
X171409291Y-95420052D01*
X171301239Y-95312000D01*
X172298294Y-95312000D01*
X172298294Y-96712000D01*
X172302708Y-96756813D01*
X172315779Y-96799905D01*
X172337006Y-96839618D01*
X172365573Y-96874427D01*
X172400382Y-96902994D01*
X172440095Y-96924221D01*
X172483187Y-96937292D01*
X172528000Y-96941706D01*
X173928000Y-96941706D01*
X173972813Y-96937292D01*
X174015905Y-96924221D01*
X174055618Y-96902994D01*
X174090427Y-96874427D01*
X174118994Y-96839618D01*
X174140221Y-96799905D01*
X174153292Y-96756813D01*
X174157706Y-96712000D01*
X174157706Y-95312000D01*
X174153292Y-95267187D01*
X174140221Y-95224095D01*
X174118994Y-95184382D01*
X174090427Y-95149573D01*
X174055618Y-95121006D01*
X174015905Y-95099779D01*
X173972813Y-95086708D01*
X173928000Y-95082294D01*
X172528000Y-95082294D01*
X172483187Y-95086708D01*
X172440095Y-95099779D01*
X172400382Y-95121006D01*
X172365573Y-95149573D01*
X172337006Y-95184382D01*
X172315779Y-95224095D01*
X172302708Y-95267187D01*
X172298294Y-95312000D01*
X171301239Y-95312000D01*
X171279948Y-95290709D01*
X171127857Y-95189085D01*
X170958863Y-95119086D01*
X170779459Y-95083400D01*
X170596541Y-95083400D01*
X170417137Y-95119086D01*
X170248143Y-95189085D01*
X170096052Y-95290709D01*
X169966709Y-95420052D01*
X169865085Y-95572143D01*
X169795086Y-95741137D01*
X169759400Y-95920541D01*
X169076600Y-95920541D01*
X169040914Y-95741137D01*
X168970915Y-95572143D01*
X168869291Y-95420052D01*
X168739948Y-95290709D01*
X168587857Y-95189085D01*
X168418863Y-95119086D01*
X168239459Y-95083400D01*
X168056541Y-95083400D01*
X167877137Y-95119086D01*
X167708143Y-95189085D01*
X167556052Y-95290709D01*
X167426709Y-95420052D01*
X167325085Y-95572143D01*
X167255086Y-95741137D01*
X167219400Y-95920541D01*
X100658600Y-95920541D01*
X100658600Y-92561293D01*
X157042772Y-92561293D01*
X157042772Y-92666363D01*
X157063270Y-92769415D01*
X157103479Y-92866488D01*
X157161853Y-92953851D01*
X157236149Y-93028147D01*
X157323512Y-93086521D01*
X157420585Y-93126730D01*
X157523637Y-93147228D01*
X157628707Y-93147228D01*
X157731759Y-93126730D01*
X157828832Y-93086521D01*
X157916195Y-93028147D01*
X157990491Y-92953851D01*
X158048865Y-92866488D01*
X158089074Y-92769415D01*
X158109572Y-92666363D01*
X158109572Y-92561293D01*
X158104144Y-92534005D01*
X191097442Y-92534005D01*
X191163486Y-92747287D01*
X191397014Y-92843758D01*
X191644875Y-92892818D01*
X191897545Y-92892580D01*
X192145314Y-92843053D01*
X192376514Y-92747287D01*
X192442558Y-92534005D01*
X191770000Y-91861447D01*
X191097442Y-92534005D01*
X158104144Y-92534005D01*
X158101307Y-92519744D01*
X158461619Y-92159433D01*
X158462681Y-92161023D01*
X158536977Y-92235319D01*
X158624340Y-92293693D01*
X158721413Y-92333902D01*
X158824465Y-92354400D01*
X158929535Y-92354400D01*
X159032587Y-92333902D01*
X159129660Y-92293693D01*
X159217023Y-92235319D01*
X159291319Y-92161023D01*
X159349693Y-92073660D01*
X159389902Y-91976587D01*
X159410400Y-91873535D01*
X159410400Y-91768465D01*
X159389902Y-91665413D01*
X159349693Y-91568340D01*
X159293924Y-91484875D01*
X190487182Y-91484875D01*
X190487420Y-91737545D01*
X190536947Y-91985314D01*
X190632713Y-92216514D01*
X190845995Y-92282558D01*
X191518553Y-91610000D01*
X192021447Y-91610000D01*
X192694005Y-92282558D01*
X192907287Y-92216514D01*
X193003758Y-91982986D01*
X193052818Y-91735125D01*
X193052580Y-91482455D01*
X193003053Y-91234686D01*
X192907287Y-91003486D01*
X192694005Y-90937442D01*
X192021447Y-91610000D01*
X191518553Y-91610000D01*
X190845995Y-90937442D01*
X190632713Y-91003486D01*
X190536242Y-91237014D01*
X190487182Y-91484875D01*
X159293924Y-91484875D01*
X159291319Y-91480977D01*
X159217023Y-91406681D01*
X159129660Y-91348307D01*
X159032587Y-91308098D01*
X158929535Y-91287600D01*
X158824465Y-91287600D01*
X158721413Y-91308098D01*
X158624340Y-91348307D01*
X158536977Y-91406681D01*
X158462681Y-91480977D01*
X158439146Y-91516200D01*
X158383957Y-91516200D01*
X158368999Y-91514727D01*
X158354041Y-91516200D01*
X158354034Y-91516200D01*
X158314889Y-91520055D01*
X158309248Y-91520611D01*
X158251794Y-91538040D01*
X158198843Y-91566342D01*
X158152432Y-91604432D01*
X158142892Y-91616056D01*
X157670256Y-92088693D01*
X157628707Y-92080428D01*
X157523637Y-92080428D01*
X157420585Y-92100926D01*
X157323512Y-92141135D01*
X157236149Y-92199509D01*
X157161853Y-92273805D01*
X157103479Y-92361168D01*
X157063270Y-92458241D01*
X157042772Y-92561293D01*
X100658600Y-92561293D01*
X100658600Y-90685995D01*
X191097442Y-90685995D01*
X191770000Y-91358553D01*
X192442558Y-90685995D01*
X192376514Y-90472713D01*
X192142986Y-90376242D01*
X191895125Y-90327182D01*
X191642455Y-90327420D01*
X191394686Y-90376947D01*
X191163486Y-90472713D01*
X191097442Y-90685995D01*
X100658600Y-90685995D01*
X100658600Y-89739929D01*
X192780900Y-89739929D01*
X192780900Y-89980071D01*
X192827749Y-90215598D01*
X192919647Y-90437461D01*
X193053063Y-90637131D01*
X193222869Y-90806937D01*
X193422539Y-90940353D01*
X193644402Y-91032251D01*
X193879929Y-91079100D01*
X194120071Y-91079100D01*
X194355598Y-91032251D01*
X194577461Y-90940353D01*
X194777131Y-90806937D01*
X194946937Y-90637131D01*
X195080353Y-90437461D01*
X195172251Y-90215598D01*
X195219100Y-89980071D01*
X195219100Y-89739929D01*
X195172251Y-89504402D01*
X195080353Y-89282539D01*
X194946937Y-89082869D01*
X194777131Y-88913063D01*
X194577461Y-88779647D01*
X194355598Y-88687749D01*
X194120071Y-88640900D01*
X193879929Y-88640900D01*
X193644402Y-88687749D01*
X193422539Y-88779647D01*
X193222869Y-88913063D01*
X193053063Y-89082869D01*
X192919647Y-89282539D01*
X192827749Y-89504402D01*
X192780900Y-89739929D01*
X100658600Y-89739929D01*
X100658600Y-88018689D01*
X190842900Y-88018689D01*
X190842900Y-88201311D01*
X190878528Y-88380425D01*
X190948414Y-88549147D01*
X191049874Y-88700992D01*
X191179008Y-88830126D01*
X191330853Y-88931586D01*
X191499575Y-89001472D01*
X191678689Y-89037100D01*
X191861311Y-89037100D01*
X192040425Y-89001472D01*
X192209147Y-88931586D01*
X192360992Y-88830126D01*
X192490126Y-88700992D01*
X192591586Y-88549147D01*
X192661472Y-88380425D01*
X192697100Y-88201311D01*
X192697100Y-88018689D01*
X192661472Y-87839575D01*
X192591586Y-87670853D01*
X192490126Y-87519008D01*
X192360992Y-87389874D01*
X192209147Y-87288414D01*
X192040425Y-87218528D01*
X191861311Y-87182900D01*
X191678689Y-87182900D01*
X191499575Y-87218528D01*
X191330853Y-87288414D01*
X191179008Y-87389874D01*
X191049874Y-87519008D01*
X190948414Y-87670853D01*
X190878528Y-87839575D01*
X190842900Y-88018689D01*
X100658600Y-88018689D01*
X100658600Y-84518689D01*
X190842900Y-84518689D01*
X190842900Y-84701311D01*
X190878528Y-84880425D01*
X190948414Y-85049147D01*
X191049874Y-85200992D01*
X191179008Y-85330126D01*
X191330853Y-85431586D01*
X191499575Y-85501472D01*
X191678689Y-85537100D01*
X191861311Y-85537100D01*
X192040425Y-85501472D01*
X192209147Y-85431586D01*
X192360992Y-85330126D01*
X192490126Y-85200992D01*
X192591586Y-85049147D01*
X192661472Y-84880425D01*
X192697100Y-84701311D01*
X192697100Y-84518689D01*
X192661472Y-84339575D01*
X192591586Y-84170853D01*
X192490126Y-84019008D01*
X192360992Y-83889874D01*
X192209147Y-83788414D01*
X192040425Y-83718528D01*
X191861311Y-83682900D01*
X191678689Y-83682900D01*
X191499575Y-83718528D01*
X191330853Y-83788414D01*
X191179008Y-83889874D01*
X191049874Y-84019008D01*
X190948414Y-84170853D01*
X190878528Y-84339575D01*
X190842900Y-84518689D01*
X100658600Y-84518689D01*
X100658600Y-83833368D01*
X111998079Y-83833368D01*
X112125237Y-84097790D01*
X112444581Y-84244560D01*
X112786422Y-84326210D01*
X113137624Y-84339600D01*
X113484689Y-84284218D01*
X113814282Y-84162189D01*
X113934763Y-84097790D01*
X114061921Y-83833368D01*
X113030000Y-82801447D01*
X111998079Y-83833368D01*
X100658600Y-83833368D01*
X100658600Y-82657624D01*
X111240400Y-82657624D01*
X111295782Y-83004689D01*
X111417811Y-83334282D01*
X111482210Y-83454763D01*
X111746632Y-83581921D01*
X112778553Y-82550000D01*
X113281447Y-82550000D01*
X114313368Y-83581921D01*
X114577790Y-83454763D01*
X114724560Y-83135419D01*
X114806210Y-82793578D01*
X114819600Y-82442376D01*
X114764218Y-82095311D01*
X114642189Y-81765718D01*
X114577790Y-81645237D01*
X114313368Y-81518079D01*
X113281447Y-82550000D01*
X112778553Y-82550000D01*
X111746632Y-81518079D01*
X111482210Y-81645237D01*
X111335440Y-81964581D01*
X111253790Y-82306422D01*
X111240400Y-82657624D01*
X100658600Y-82657624D01*
X100658600Y-79869295D01*
X103981400Y-79869295D01*
X103981400Y-80150705D01*
X104036301Y-80426707D01*
X104143991Y-80686696D01*
X104300334Y-80920679D01*
X104499321Y-81119666D01*
X104733304Y-81276009D01*
X104993293Y-81383699D01*
X105269295Y-81438600D01*
X105550705Y-81438600D01*
X105826707Y-81383699D01*
X106086696Y-81276009D01*
X106100729Y-81266632D01*
X111998079Y-81266632D01*
X113030000Y-82298553D01*
X114061921Y-81266632D01*
X113942688Y-81018689D01*
X190842900Y-81018689D01*
X190842900Y-81201311D01*
X190878528Y-81380425D01*
X190948414Y-81549147D01*
X191049874Y-81700992D01*
X191179008Y-81830126D01*
X191330853Y-81931586D01*
X191499575Y-82001472D01*
X191678689Y-82037100D01*
X191861311Y-82037100D01*
X192040425Y-82001472D01*
X192209147Y-81931586D01*
X192360992Y-81830126D01*
X192490126Y-81700992D01*
X192591586Y-81549147D01*
X192661472Y-81380425D01*
X192697100Y-81201311D01*
X192697100Y-81018689D01*
X192661472Y-80839575D01*
X192591586Y-80670853D01*
X192490126Y-80519008D01*
X192360992Y-80389874D01*
X192209147Y-80288414D01*
X192040425Y-80218528D01*
X191861311Y-80182900D01*
X191678689Y-80182900D01*
X191499575Y-80218528D01*
X191330853Y-80288414D01*
X191179008Y-80389874D01*
X191049874Y-80519008D01*
X190948414Y-80670853D01*
X190878528Y-80839575D01*
X190842900Y-81018689D01*
X113942688Y-81018689D01*
X113934763Y-81002210D01*
X113615419Y-80855440D01*
X113273578Y-80773790D01*
X112922376Y-80760400D01*
X112575311Y-80815782D01*
X112245718Y-80937811D01*
X112125237Y-81002210D01*
X111998079Y-81266632D01*
X106100729Y-81266632D01*
X106320679Y-81119666D01*
X106519666Y-80920679D01*
X106676009Y-80686696D01*
X106783699Y-80426707D01*
X106838600Y-80150705D01*
X106838600Y-79869295D01*
X106783699Y-79593293D01*
X106676009Y-79333304D01*
X106519666Y-79099321D01*
X106320679Y-78900334D01*
X106086696Y-78743991D01*
X105826707Y-78636301D01*
X105550705Y-78581400D01*
X105269295Y-78581400D01*
X104993293Y-78636301D01*
X104733304Y-78743991D01*
X104499321Y-78900334D01*
X104300334Y-79099321D01*
X104143991Y-79333304D01*
X104036301Y-79593293D01*
X103981400Y-79869295D01*
X100658600Y-79869295D01*
X100658600Y-78756074D01*
X100702262Y-78310774D01*
X100826915Y-77897904D01*
X101029389Y-77517104D01*
X101301974Y-77182881D01*
X101634284Y-76907972D01*
X102013657Y-76702845D01*
X102425651Y-76575311D01*
X102870063Y-76528602D01*
X102870577Y-76528600D01*
X195563926Y-76528600D01*
X196009226Y-76572262D01*
M02*
