G04 #@! TF.GenerationSoftware,KiCad,Pcbnew,5.1.4-e60b266~84~ubuntu16.04.1*
G04 #@! TF.CreationDate,2020-01-29T21:56:32-05:00*
G04 #@! TF.ProjectId,tire_temp,74697265-5f74-4656-9d70-2e6b69636164,rev?*
G04 #@! TF.SameCoordinates,Original*
G04 #@! TF.FileFunction,Paste,Top*
G04 #@! TF.FilePolarity,Positive*
%FSLAX46Y46*%
G04 Gerber Fmt 4.6, Leading zero omitted, Abs format (unit mm)*
G04 Created by KiCad (PCBNEW 5.1.4-e60b266~84~ubuntu16.04.1) date 2020-01-29 21:56:32*
%MOMM*%
%LPD*%
G04 APERTURE LIST*
%ADD10C,0.550000*%
%ADD11C,0.100000*%
%ADD12R,1.200000X2.000000*%
%ADD13R,1.780000X3.500000*%
%ADD14R,1.250000X1.000000*%
%ADD15R,0.900000X2.500000*%
%ADD16R,0.700000X1.300000*%
%ADD17R,1.300000X0.700000*%
%ADD18R,1.000000X3.200000*%
%ADD19R,0.650000X1.060000*%
%ADD20R,1.000000X1.600000*%
%ADD21R,1.000000X1.250000*%
%ADD22R,2.159000X1.778000*%
%ADD23R,1.200000X1.200000*%
%ADD24C,0.875000*%
%ADD25R,0.900000X0.800000*%
%ADD26R,0.450000X1.450000*%
%ADD27R,1.550000X0.600000*%
G04 APERTURE END LIST*
D10*
X148811897Y-121548305D03*
D11*
G36*
X148440666Y-122308445D02*
G01*
X148051757Y-121919536D01*
X149183128Y-120788165D01*
X149572037Y-121177074D01*
X148440666Y-122308445D01*
X148440666Y-122308445D01*
G37*
D10*
X149377583Y-122113990D03*
D11*
G36*
X149006352Y-122874130D02*
G01*
X148617443Y-122485221D01*
X149748814Y-121353850D01*
X150137723Y-121742759D01*
X149006352Y-122874130D01*
X149006352Y-122874130D01*
G37*
D10*
X149943268Y-122679676D03*
D11*
G36*
X149572037Y-123439816D02*
G01*
X149183128Y-123050907D01*
X150314499Y-121919536D01*
X150703408Y-122308445D01*
X149572037Y-123439816D01*
X149572037Y-123439816D01*
G37*
D10*
X150508953Y-123245361D03*
D11*
G36*
X150137722Y-124005501D02*
G01*
X149748813Y-123616592D01*
X150880184Y-122485221D01*
X151269093Y-122874130D01*
X150137722Y-124005501D01*
X150137722Y-124005501D01*
G37*
D10*
X151074639Y-123811047D03*
D11*
G36*
X150703408Y-124571187D02*
G01*
X150314499Y-124182278D01*
X151445870Y-123050907D01*
X151834779Y-123439816D01*
X150703408Y-124571187D01*
X150703408Y-124571187D01*
G37*
D10*
X151640324Y-124376732D03*
D11*
G36*
X151269093Y-125136872D02*
G01*
X150880184Y-124747963D01*
X152011555Y-123616592D01*
X152400464Y-124005501D01*
X151269093Y-125136872D01*
X151269093Y-125136872D01*
G37*
D10*
X152206010Y-124942417D03*
D11*
G36*
X151834779Y-125702557D02*
G01*
X151445870Y-125313648D01*
X152577241Y-124182277D01*
X152966150Y-124571186D01*
X151834779Y-125702557D01*
X151834779Y-125702557D01*
G37*
D10*
X152771695Y-125508103D03*
D11*
G36*
X152400464Y-126268243D02*
G01*
X152011555Y-125879334D01*
X153142926Y-124747963D01*
X153531835Y-125136872D01*
X152400464Y-126268243D01*
X152400464Y-126268243D01*
G37*
D10*
X154822305Y-125508103D03*
D11*
G36*
X155582445Y-125879334D02*
G01*
X155193536Y-126268243D01*
X154062165Y-125136872D01*
X154451074Y-124747963D01*
X155582445Y-125879334D01*
X155582445Y-125879334D01*
G37*
D10*
X155387990Y-124942417D03*
D11*
G36*
X156148130Y-125313648D02*
G01*
X155759221Y-125702557D01*
X154627850Y-124571186D01*
X155016759Y-124182277D01*
X156148130Y-125313648D01*
X156148130Y-125313648D01*
G37*
D10*
X155953676Y-124376732D03*
D11*
G36*
X156713816Y-124747963D02*
G01*
X156324907Y-125136872D01*
X155193536Y-124005501D01*
X155582445Y-123616592D01*
X156713816Y-124747963D01*
X156713816Y-124747963D01*
G37*
D10*
X156519361Y-123811047D03*
D11*
G36*
X157279501Y-124182278D02*
G01*
X156890592Y-124571187D01*
X155759221Y-123439816D01*
X156148130Y-123050907D01*
X157279501Y-124182278D01*
X157279501Y-124182278D01*
G37*
D10*
X157085047Y-123245361D03*
D11*
G36*
X157845187Y-123616592D02*
G01*
X157456278Y-124005501D01*
X156324907Y-122874130D01*
X156713816Y-122485221D01*
X157845187Y-123616592D01*
X157845187Y-123616592D01*
G37*
D10*
X157650732Y-122679676D03*
D11*
G36*
X158410872Y-123050907D02*
G01*
X158021963Y-123439816D01*
X156890592Y-122308445D01*
X157279501Y-121919536D01*
X158410872Y-123050907D01*
X158410872Y-123050907D01*
G37*
D10*
X158216417Y-122113990D03*
D11*
G36*
X158976557Y-122485221D02*
G01*
X158587648Y-122874130D01*
X157456277Y-121742759D01*
X157845186Y-121353850D01*
X158976557Y-122485221D01*
X158976557Y-122485221D01*
G37*
D10*
X158782103Y-121548305D03*
D11*
G36*
X159542243Y-121919536D02*
G01*
X159153334Y-122308445D01*
X158021963Y-121177074D01*
X158410872Y-120788165D01*
X159542243Y-121919536D01*
X159542243Y-121919536D01*
G37*
D10*
X158782103Y-119497695D03*
D11*
G36*
X158410872Y-120257835D02*
G01*
X158021963Y-119868926D01*
X159153334Y-118737555D01*
X159542243Y-119126464D01*
X158410872Y-120257835D01*
X158410872Y-120257835D01*
G37*
D10*
X158216417Y-118932010D03*
D11*
G36*
X157845186Y-119692150D02*
G01*
X157456277Y-119303241D01*
X158587648Y-118171870D01*
X158976557Y-118560779D01*
X157845186Y-119692150D01*
X157845186Y-119692150D01*
G37*
D10*
X157650732Y-118366324D03*
D11*
G36*
X157279501Y-119126464D02*
G01*
X156890592Y-118737555D01*
X158021963Y-117606184D01*
X158410872Y-117995093D01*
X157279501Y-119126464D01*
X157279501Y-119126464D01*
G37*
D10*
X157085047Y-117800639D03*
D11*
G36*
X156713816Y-118560779D02*
G01*
X156324907Y-118171870D01*
X157456278Y-117040499D01*
X157845187Y-117429408D01*
X156713816Y-118560779D01*
X156713816Y-118560779D01*
G37*
D10*
X156519361Y-117234953D03*
D11*
G36*
X156148130Y-117995093D02*
G01*
X155759221Y-117606184D01*
X156890592Y-116474813D01*
X157279501Y-116863722D01*
X156148130Y-117995093D01*
X156148130Y-117995093D01*
G37*
D10*
X155953676Y-116669268D03*
D11*
G36*
X155582445Y-117429408D02*
G01*
X155193536Y-117040499D01*
X156324907Y-115909128D01*
X156713816Y-116298037D01*
X155582445Y-117429408D01*
X155582445Y-117429408D01*
G37*
D10*
X155387990Y-116103583D03*
D11*
G36*
X155016759Y-116863723D02*
G01*
X154627850Y-116474814D01*
X155759221Y-115343443D01*
X156148130Y-115732352D01*
X155016759Y-116863723D01*
X155016759Y-116863723D01*
G37*
D10*
X154822305Y-115537897D03*
D11*
G36*
X154451074Y-116298037D02*
G01*
X154062165Y-115909128D01*
X155193536Y-114777757D01*
X155582445Y-115166666D01*
X154451074Y-116298037D01*
X154451074Y-116298037D01*
G37*
D10*
X152771695Y-115537897D03*
D11*
G36*
X153531835Y-115909128D02*
G01*
X153142926Y-116298037D01*
X152011555Y-115166666D01*
X152400464Y-114777757D01*
X153531835Y-115909128D01*
X153531835Y-115909128D01*
G37*
D10*
X152206010Y-116103583D03*
D11*
G36*
X152966150Y-116474814D02*
G01*
X152577241Y-116863723D01*
X151445870Y-115732352D01*
X151834779Y-115343443D01*
X152966150Y-116474814D01*
X152966150Y-116474814D01*
G37*
D10*
X151640324Y-116669268D03*
D11*
G36*
X152400464Y-117040499D02*
G01*
X152011555Y-117429408D01*
X150880184Y-116298037D01*
X151269093Y-115909128D01*
X152400464Y-117040499D01*
X152400464Y-117040499D01*
G37*
D10*
X151074639Y-117234953D03*
D11*
G36*
X151834779Y-117606184D02*
G01*
X151445870Y-117995093D01*
X150314499Y-116863722D01*
X150703408Y-116474813D01*
X151834779Y-117606184D01*
X151834779Y-117606184D01*
G37*
D10*
X150508953Y-117800639D03*
D11*
G36*
X151269093Y-118171870D02*
G01*
X150880184Y-118560779D01*
X149748813Y-117429408D01*
X150137722Y-117040499D01*
X151269093Y-118171870D01*
X151269093Y-118171870D01*
G37*
D10*
X149943268Y-118366324D03*
D11*
G36*
X150703408Y-118737555D02*
G01*
X150314499Y-119126464D01*
X149183128Y-117995093D01*
X149572037Y-117606184D01*
X150703408Y-118737555D01*
X150703408Y-118737555D01*
G37*
D10*
X149377583Y-118932010D03*
D11*
G36*
X150137723Y-119303241D02*
G01*
X149748814Y-119692150D01*
X148617443Y-118560779D01*
X149006352Y-118171870D01*
X150137723Y-119303241D01*
X150137723Y-119303241D01*
G37*
D10*
X148811897Y-119497695D03*
D11*
G36*
X149572037Y-119868926D02*
G01*
X149183128Y-120257835D01*
X148051757Y-119126464D01*
X148440666Y-118737555D01*
X149572037Y-119868926D01*
X149572037Y-119868926D01*
G37*
D12*
X125869700Y-98808540D03*
X122669700Y-98808540D03*
D13*
X127622300Y-102743000D03*
X132902300Y-102743000D03*
D14*
X124764800Y-96123000D03*
X124764800Y-94123000D03*
D15*
X115313800Y-98869500D03*
X118213800Y-98869500D03*
D16*
X125087420Y-92120720D03*
X123187420Y-92120720D03*
X119301220Y-92105480D03*
X121201220Y-92105480D03*
D17*
X120493000Y-105542000D03*
X120493000Y-107442000D03*
D18*
X125021200Y-102748080D03*
X118821200Y-102748080D03*
D19*
X122420600Y-94007800D03*
X121470600Y-94007800D03*
X120520600Y-94007800D03*
X120520600Y-96207800D03*
X122420600Y-96207800D03*
X121470600Y-96207800D03*
D20*
X127241300Y-96393000D03*
X130241300Y-96393000D03*
D21*
X127765300Y-98742500D03*
X129765300Y-98742500D03*
D22*
X111747300Y-94805500D03*
X111747300Y-98869500D03*
D23*
X120493000Y-109192000D03*
X120493000Y-111392000D03*
X106693000Y-93842000D03*
X106693000Y-91642000D03*
D17*
X106693000Y-97492000D03*
X106693000Y-95592000D03*
D14*
X116545360Y-94012000D03*
X116545360Y-96012000D03*
D11*
G36*
X118628991Y-95553553D02*
G01*
X118650226Y-95556703D01*
X118671050Y-95561919D01*
X118691262Y-95569151D01*
X118710668Y-95578330D01*
X118729081Y-95589366D01*
X118746324Y-95602154D01*
X118762230Y-95616570D01*
X118776646Y-95632476D01*
X118789434Y-95649719D01*
X118800470Y-95668132D01*
X118809649Y-95687538D01*
X118816881Y-95707750D01*
X118822097Y-95728574D01*
X118825247Y-95749809D01*
X118826300Y-95771250D01*
X118826300Y-96208750D01*
X118825247Y-96230191D01*
X118822097Y-96251426D01*
X118816881Y-96272250D01*
X118809649Y-96292462D01*
X118800470Y-96311868D01*
X118789434Y-96330281D01*
X118776646Y-96347524D01*
X118762230Y-96363430D01*
X118746324Y-96377846D01*
X118729081Y-96390634D01*
X118710668Y-96401670D01*
X118691262Y-96410849D01*
X118671050Y-96418081D01*
X118650226Y-96423297D01*
X118628991Y-96426447D01*
X118607550Y-96427500D01*
X118095050Y-96427500D01*
X118073609Y-96426447D01*
X118052374Y-96423297D01*
X118031550Y-96418081D01*
X118011338Y-96410849D01*
X117991932Y-96401670D01*
X117973519Y-96390634D01*
X117956276Y-96377846D01*
X117940370Y-96363430D01*
X117925954Y-96347524D01*
X117913166Y-96330281D01*
X117902130Y-96311868D01*
X117892951Y-96292462D01*
X117885719Y-96272250D01*
X117880503Y-96251426D01*
X117877353Y-96230191D01*
X117876300Y-96208750D01*
X117876300Y-95771250D01*
X117877353Y-95749809D01*
X117880503Y-95728574D01*
X117885719Y-95707750D01*
X117892951Y-95687538D01*
X117902130Y-95668132D01*
X117913166Y-95649719D01*
X117925954Y-95632476D01*
X117940370Y-95616570D01*
X117956276Y-95602154D01*
X117973519Y-95589366D01*
X117991932Y-95578330D01*
X118011338Y-95569151D01*
X118031550Y-95561919D01*
X118052374Y-95556703D01*
X118073609Y-95553553D01*
X118095050Y-95552500D01*
X118607550Y-95552500D01*
X118628991Y-95553553D01*
X118628991Y-95553553D01*
G37*
D24*
X118351300Y-95990000D03*
D11*
G36*
X118628991Y-93978553D02*
G01*
X118650226Y-93981703D01*
X118671050Y-93986919D01*
X118691262Y-93994151D01*
X118710668Y-94003330D01*
X118729081Y-94014366D01*
X118746324Y-94027154D01*
X118762230Y-94041570D01*
X118776646Y-94057476D01*
X118789434Y-94074719D01*
X118800470Y-94093132D01*
X118809649Y-94112538D01*
X118816881Y-94132750D01*
X118822097Y-94153574D01*
X118825247Y-94174809D01*
X118826300Y-94196250D01*
X118826300Y-94633750D01*
X118825247Y-94655191D01*
X118822097Y-94676426D01*
X118816881Y-94697250D01*
X118809649Y-94717462D01*
X118800470Y-94736868D01*
X118789434Y-94755281D01*
X118776646Y-94772524D01*
X118762230Y-94788430D01*
X118746324Y-94802846D01*
X118729081Y-94815634D01*
X118710668Y-94826670D01*
X118691262Y-94835849D01*
X118671050Y-94843081D01*
X118650226Y-94848297D01*
X118628991Y-94851447D01*
X118607550Y-94852500D01*
X118095050Y-94852500D01*
X118073609Y-94851447D01*
X118052374Y-94848297D01*
X118031550Y-94843081D01*
X118011338Y-94835849D01*
X117991932Y-94826670D01*
X117973519Y-94815634D01*
X117956276Y-94802846D01*
X117940370Y-94788430D01*
X117925954Y-94772524D01*
X117913166Y-94755281D01*
X117902130Y-94736868D01*
X117892951Y-94717462D01*
X117885719Y-94697250D01*
X117880503Y-94676426D01*
X117877353Y-94655191D01*
X117876300Y-94633750D01*
X117876300Y-94196250D01*
X117877353Y-94174809D01*
X117880503Y-94153574D01*
X117885719Y-94132750D01*
X117892951Y-94112538D01*
X117902130Y-94093132D01*
X117913166Y-94074719D01*
X117925954Y-94057476D01*
X117940370Y-94041570D01*
X117956276Y-94027154D01*
X117973519Y-94014366D01*
X117991932Y-94003330D01*
X118011338Y-93994151D01*
X118031550Y-93986919D01*
X118052374Y-93981703D01*
X118073609Y-93978553D01*
X118095050Y-93977500D01*
X118607550Y-93977500D01*
X118628991Y-93978553D01*
X118628991Y-93978553D01*
G37*
D24*
X118351300Y-94415000D03*
D14*
X149479000Y-94393000D03*
X149479000Y-96393000D03*
X144272000Y-122174000D03*
X144272000Y-124174000D03*
X125222000Y-113300000D03*
X125222000Y-115300000D03*
D21*
X128667000Y-118237000D03*
X130667000Y-118237000D03*
D14*
X154813000Y-82328000D03*
X154813000Y-84328000D03*
X162560000Y-80280000D03*
X162560000Y-82280000D03*
X188468000Y-108077000D03*
X188468000Y-110077000D03*
X165481000Y-86503000D03*
X165481000Y-88503000D03*
X184912000Y-113538000D03*
X184912000Y-111538000D03*
D21*
X166910000Y-105410000D03*
X168910000Y-105410000D03*
D14*
X150749000Y-129651000D03*
X150749000Y-127651000D03*
X141351000Y-129524000D03*
X141351000Y-127524000D03*
D23*
X151257000Y-83271000D03*
X151257000Y-85471000D03*
X147660000Y-99187000D03*
X149860000Y-99187000D03*
X159004000Y-130218000D03*
X159004000Y-132418000D03*
X162560000Y-132418000D03*
X162560000Y-130218000D03*
D17*
X151257000Y-89215000D03*
X151257000Y-87315000D03*
D16*
X154427000Y-99187000D03*
X152527000Y-99187000D03*
D17*
X159004000Y-128204000D03*
X159004000Y-126304000D03*
X162560000Y-128270000D03*
X162560000Y-126370000D03*
X164084000Y-100960000D03*
X164084000Y-99060000D03*
X151003000Y-109855000D03*
X151003000Y-107955000D03*
X180340000Y-109540000D03*
X180340000Y-111440000D03*
X154686000Y-109540000D03*
X154686000Y-111440000D03*
X178247000Y-88072000D03*
X178247000Y-86172000D03*
X148590000Y-114173000D03*
X148590000Y-112273000D03*
D25*
X128302000Y-115350000D03*
X128302000Y-113250000D03*
X130302000Y-114300000D03*
D10*
X163227103Y-92065695D03*
D11*
G36*
X163598334Y-91305555D02*
G01*
X163987243Y-91694464D01*
X162855872Y-92825835D01*
X162466963Y-92436926D01*
X163598334Y-91305555D01*
X163598334Y-91305555D01*
G37*
D10*
X162661417Y-91500010D03*
D11*
G36*
X163032648Y-90739870D02*
G01*
X163421557Y-91128779D01*
X162290186Y-92260150D01*
X161901277Y-91871241D01*
X163032648Y-90739870D01*
X163032648Y-90739870D01*
G37*
D10*
X162095732Y-90934324D03*
D11*
G36*
X162466963Y-90174184D02*
G01*
X162855872Y-90563093D01*
X161724501Y-91694464D01*
X161335592Y-91305555D01*
X162466963Y-90174184D01*
X162466963Y-90174184D01*
G37*
D10*
X161530047Y-90368639D03*
D11*
G36*
X161901278Y-89608499D02*
G01*
X162290187Y-89997408D01*
X161158816Y-91128779D01*
X160769907Y-90739870D01*
X161901278Y-89608499D01*
X161901278Y-89608499D01*
G37*
D10*
X160964361Y-89802953D03*
D11*
G36*
X161335592Y-89042813D02*
G01*
X161724501Y-89431722D01*
X160593130Y-90563093D01*
X160204221Y-90174184D01*
X161335592Y-89042813D01*
X161335592Y-89042813D01*
G37*
D10*
X160398676Y-89237268D03*
D11*
G36*
X160769907Y-88477128D02*
G01*
X161158816Y-88866037D01*
X160027445Y-89997408D01*
X159638536Y-89608499D01*
X160769907Y-88477128D01*
X160769907Y-88477128D01*
G37*
D10*
X159832990Y-88671583D03*
D11*
G36*
X160204221Y-87911443D02*
G01*
X160593130Y-88300352D01*
X159461759Y-89431723D01*
X159072850Y-89042814D01*
X160204221Y-87911443D01*
X160204221Y-87911443D01*
G37*
D10*
X159267305Y-88105897D03*
D11*
G36*
X159638536Y-87345757D02*
G01*
X160027445Y-87734666D01*
X158896074Y-88866037D01*
X158507165Y-88477128D01*
X159638536Y-87345757D01*
X159638536Y-87345757D01*
G37*
D10*
X157216695Y-88105897D03*
D11*
G36*
X156456555Y-87734666D02*
G01*
X156845464Y-87345757D01*
X157976835Y-88477128D01*
X157587926Y-88866037D01*
X156456555Y-87734666D01*
X156456555Y-87734666D01*
G37*
D10*
X156651010Y-88671583D03*
D11*
G36*
X155890870Y-88300352D02*
G01*
X156279779Y-87911443D01*
X157411150Y-89042814D01*
X157022241Y-89431723D01*
X155890870Y-88300352D01*
X155890870Y-88300352D01*
G37*
D10*
X156085324Y-89237268D03*
D11*
G36*
X155325184Y-88866037D02*
G01*
X155714093Y-88477128D01*
X156845464Y-89608499D01*
X156456555Y-89997408D01*
X155325184Y-88866037D01*
X155325184Y-88866037D01*
G37*
D10*
X155519639Y-89802953D03*
D11*
G36*
X154759499Y-89431722D02*
G01*
X155148408Y-89042813D01*
X156279779Y-90174184D01*
X155890870Y-90563093D01*
X154759499Y-89431722D01*
X154759499Y-89431722D01*
G37*
D10*
X154953953Y-90368639D03*
D11*
G36*
X154193813Y-89997408D02*
G01*
X154582722Y-89608499D01*
X155714093Y-90739870D01*
X155325184Y-91128779D01*
X154193813Y-89997408D01*
X154193813Y-89997408D01*
G37*
D10*
X154388268Y-90934324D03*
D11*
G36*
X153628128Y-90563093D02*
G01*
X154017037Y-90174184D01*
X155148408Y-91305555D01*
X154759499Y-91694464D01*
X153628128Y-90563093D01*
X153628128Y-90563093D01*
G37*
D10*
X153822583Y-91500010D03*
D11*
G36*
X153062443Y-91128779D02*
G01*
X153451352Y-90739870D01*
X154582723Y-91871241D01*
X154193814Y-92260150D01*
X153062443Y-91128779D01*
X153062443Y-91128779D01*
G37*
D10*
X153256897Y-92065695D03*
D11*
G36*
X152496757Y-91694464D02*
G01*
X152885666Y-91305555D01*
X154017037Y-92436926D01*
X153628128Y-92825835D01*
X152496757Y-91694464D01*
X152496757Y-91694464D01*
G37*
D10*
X153256897Y-94116305D03*
D11*
G36*
X153628128Y-93356165D02*
G01*
X154017037Y-93745074D01*
X152885666Y-94876445D01*
X152496757Y-94487536D01*
X153628128Y-93356165D01*
X153628128Y-93356165D01*
G37*
D10*
X153822583Y-94681990D03*
D11*
G36*
X154193814Y-93921850D02*
G01*
X154582723Y-94310759D01*
X153451352Y-95442130D01*
X153062443Y-95053221D01*
X154193814Y-93921850D01*
X154193814Y-93921850D01*
G37*
D10*
X154388268Y-95247676D03*
D11*
G36*
X154759499Y-94487536D02*
G01*
X155148408Y-94876445D01*
X154017037Y-96007816D01*
X153628128Y-95618907D01*
X154759499Y-94487536D01*
X154759499Y-94487536D01*
G37*
D10*
X154953953Y-95813361D03*
D11*
G36*
X155325184Y-95053221D02*
G01*
X155714093Y-95442130D01*
X154582722Y-96573501D01*
X154193813Y-96184592D01*
X155325184Y-95053221D01*
X155325184Y-95053221D01*
G37*
D10*
X155519639Y-96379047D03*
D11*
G36*
X155890870Y-95618907D02*
G01*
X156279779Y-96007816D01*
X155148408Y-97139187D01*
X154759499Y-96750278D01*
X155890870Y-95618907D01*
X155890870Y-95618907D01*
G37*
D10*
X156085324Y-96944732D03*
D11*
G36*
X156456555Y-96184592D02*
G01*
X156845464Y-96573501D01*
X155714093Y-97704872D01*
X155325184Y-97315963D01*
X156456555Y-96184592D01*
X156456555Y-96184592D01*
G37*
D10*
X156651010Y-97510417D03*
D11*
G36*
X157022241Y-96750277D02*
G01*
X157411150Y-97139186D01*
X156279779Y-98270557D01*
X155890870Y-97881648D01*
X157022241Y-96750277D01*
X157022241Y-96750277D01*
G37*
D10*
X157216695Y-98076103D03*
D11*
G36*
X157587926Y-97315963D02*
G01*
X157976835Y-97704872D01*
X156845464Y-98836243D01*
X156456555Y-98447334D01*
X157587926Y-97315963D01*
X157587926Y-97315963D01*
G37*
D10*
X159267305Y-98076103D03*
D11*
G36*
X158507165Y-97704872D02*
G01*
X158896074Y-97315963D01*
X160027445Y-98447334D01*
X159638536Y-98836243D01*
X158507165Y-97704872D01*
X158507165Y-97704872D01*
G37*
D10*
X159832990Y-97510417D03*
D11*
G36*
X159072850Y-97139186D02*
G01*
X159461759Y-96750277D01*
X160593130Y-97881648D01*
X160204221Y-98270557D01*
X159072850Y-97139186D01*
X159072850Y-97139186D01*
G37*
D10*
X160398676Y-96944732D03*
D11*
G36*
X159638536Y-96573501D02*
G01*
X160027445Y-96184592D01*
X161158816Y-97315963D01*
X160769907Y-97704872D01*
X159638536Y-96573501D01*
X159638536Y-96573501D01*
G37*
D10*
X160964361Y-96379047D03*
D11*
G36*
X160204221Y-96007816D02*
G01*
X160593130Y-95618907D01*
X161724501Y-96750278D01*
X161335592Y-97139187D01*
X160204221Y-96007816D01*
X160204221Y-96007816D01*
G37*
D10*
X161530047Y-95813361D03*
D11*
G36*
X160769907Y-95442130D02*
G01*
X161158816Y-95053221D01*
X162290187Y-96184592D01*
X161901278Y-96573501D01*
X160769907Y-95442130D01*
X160769907Y-95442130D01*
G37*
D10*
X162095732Y-95247676D03*
D11*
G36*
X161335592Y-94876445D02*
G01*
X161724501Y-94487536D01*
X162855872Y-95618907D01*
X162466963Y-96007816D01*
X161335592Y-94876445D01*
X161335592Y-94876445D01*
G37*
D10*
X162661417Y-94681990D03*
D11*
G36*
X161901277Y-94310759D02*
G01*
X162290186Y-93921850D01*
X163421557Y-95053221D01*
X163032648Y-95442130D01*
X161901277Y-94310759D01*
X161901277Y-94310759D01*
G37*
D10*
X163227103Y-94116305D03*
D11*
G36*
X162466963Y-93745074D02*
G01*
X162855872Y-93356165D01*
X163987243Y-94487536D01*
X163598334Y-94876445D01*
X162466963Y-93745074D01*
X162466963Y-93745074D01*
G37*
D26*
X184875000Y-101346000D03*
X184225000Y-101346000D03*
X183575000Y-101346000D03*
X182925000Y-101346000D03*
X182275000Y-101346000D03*
X181625000Y-101346000D03*
X180975000Y-101346000D03*
X180975000Y-107246000D03*
X181625000Y-107246000D03*
X182275000Y-107246000D03*
X182925000Y-107246000D03*
X183575000Y-107246000D03*
X184225000Y-107246000D03*
X184875000Y-107246000D03*
D27*
X169225000Y-85344000D03*
X169225000Y-86614000D03*
X169225000Y-87884000D03*
X169225000Y-89154000D03*
X174625000Y-89154000D03*
X174625000Y-87884000D03*
X174625000Y-86614000D03*
X174625000Y-85344000D03*
M02*
