G04 #@! TF.GenerationSoftware,KiCad,Pcbnew,5.1.5-52549c5~84~ubuntu18.04.1*
G04 #@! TF.CreationDate,2019-12-12T20:24:59-05:00*
G04 #@! TF.ProjectId,Shutdown_Sense,53687574-646f-4776-9e5f-53656e73652e,rev?*
G04 #@! TF.SameCoordinates,Original*
G04 #@! TF.FileFunction,Copper,L1,Top*
G04 #@! TF.FilePolarity,Positive*
%FSLAX46Y46*%
G04 Gerber Fmt 4.6, Leading zero omitted, Abs format (unit mm)*
G04 Created by KiCad (PCBNEW 5.1.5-52549c5~84~ubuntu18.04.1) date 2019-12-12 20:24:59*
%MOMM*%
%LPD*%
G04 APERTURE LIST*
%ADD10R,1.200000X1.200000*%
%ADD11R,1.400000X1.200000*%
%ADD12R,1.550000X0.600000*%
%ADD13R,0.700000X1.300000*%
%ADD14R,1.300000X0.700000*%
%ADD15R,0.800000X0.900000*%
%ADD16C,1.400000*%
%ADD17R,1.400000X1.400000*%
%ADD18R,1.600000X0.550000*%
%ADD19R,0.550000X1.600000*%
%ADD20R,1.000000X1.250000*%
%ADD21R,1.250000X1.000000*%
%ADD22C,1.300000*%
%ADD23R,0.800000X0.750000*%
%ADD24R,1.060000X0.650000*%
%ADD25R,3.500000X1.780000*%
%ADD26R,2.000000X1.200000*%
%ADD27R,1.600000X1.000000*%
%ADD28R,3.200000X1.000000*%
%ADD29R,1.778000X2.159000*%
%ADD30R,2.500000X0.900000*%
%ADD31C,0.800000*%
%ADD32C,0.609600*%
%ADD33C,0.152400*%
%ADD34C,0.254000*%
%ADD35C,0.381000*%
%ADD36C,0.250000*%
%ADD37C,0.800000*%
G04 APERTURE END LIST*
D10*
X145474264Y-98940800D03*
X145474264Y-96740800D03*
D11*
X138701600Y-59398000D03*
X140901600Y-59398000D03*
X140901600Y-60998000D03*
X138701600Y-60998000D03*
D12*
X151086800Y-50673000D03*
X151086800Y-51943000D03*
X151086800Y-53213000D03*
X151086800Y-54483000D03*
X145686800Y-54483000D03*
X145686800Y-53213000D03*
X145686800Y-51943000D03*
X145686800Y-50673000D03*
D13*
X180375600Y-43789600D03*
X178475600Y-43789600D03*
D14*
X134772400Y-78623200D03*
X134772400Y-76723200D03*
X131572000Y-85989200D03*
X131572000Y-84089200D03*
X130251200Y-78623200D03*
X130251200Y-76723200D03*
X127050800Y-85989200D03*
X127050800Y-84089200D03*
X146608800Y-71897200D03*
X146608800Y-73797200D03*
X153314400Y-53477200D03*
X153314400Y-51577200D03*
X150672800Y-69154000D03*
X150672800Y-71054000D03*
D15*
X132537200Y-80433200D03*
X133487200Y-82533200D03*
X131587200Y-82533200D03*
X128016000Y-80433200D03*
X128966000Y-82533200D03*
X127066000Y-82533200D03*
D16*
X188264800Y-96875600D03*
X188264800Y-99415600D03*
X185724800Y-96875600D03*
X185724800Y-99415600D03*
X183184800Y-96875600D03*
D17*
X183184800Y-99415600D03*
D18*
X152789200Y-59379200D03*
X152789200Y-60179200D03*
X152789200Y-60979200D03*
X152789200Y-61779200D03*
X152789200Y-62579200D03*
X152789200Y-63379200D03*
X152789200Y-64179200D03*
X152789200Y-64979200D03*
D19*
X151339200Y-66429200D03*
X150539200Y-66429200D03*
X149739200Y-66429200D03*
X148939200Y-66429200D03*
X148139200Y-66429200D03*
X147339200Y-66429200D03*
X146539200Y-66429200D03*
X145739200Y-66429200D03*
D18*
X144289200Y-64979200D03*
X144289200Y-64179200D03*
X144289200Y-63379200D03*
X144289200Y-62579200D03*
X144289200Y-61779200D03*
X144289200Y-60979200D03*
X144289200Y-60179200D03*
X144289200Y-59379200D03*
D19*
X145739200Y-57929200D03*
X146539200Y-57929200D03*
X147339200Y-57929200D03*
X148139200Y-57929200D03*
X148939200Y-57929200D03*
X149739200Y-57929200D03*
X150539200Y-57929200D03*
X151339200Y-57929200D03*
D10*
X141452598Y-98940800D03*
X141452598Y-96740800D03*
X149495930Y-98940800D03*
X149495930Y-96740800D03*
X153517596Y-98940800D03*
X153517596Y-96740800D03*
X157539262Y-98940800D03*
X157539262Y-96740800D03*
X137430932Y-98940800D03*
X137430932Y-96740800D03*
X133409266Y-98940800D03*
X133409266Y-96740800D03*
X161560928Y-98940800D03*
X161560928Y-96740800D03*
X165582594Y-98940800D03*
X165582594Y-96740800D03*
X169604260Y-98940800D03*
X169604260Y-96740800D03*
X173625926Y-98940800D03*
X173625926Y-96740800D03*
X177647600Y-98940800D03*
X177647600Y-96740800D03*
X129387600Y-98940800D03*
X129387600Y-96740800D03*
D20*
X146542000Y-48564800D03*
X144542000Y-48564800D03*
X138801600Y-57404000D03*
X140801600Y-57404000D03*
D21*
X136702800Y-59147200D03*
X136702800Y-61147200D03*
D20*
X154568400Y-69088000D03*
X152568400Y-69088000D03*
X154568400Y-71170800D03*
X152568400Y-71170800D03*
D22*
X155194000Y-42934000D03*
X157734000Y-42934000D03*
X160274000Y-42934000D03*
X152654000Y-42934000D03*
X159004000Y-45474000D03*
X156464000Y-45474000D03*
X153924000Y-45474000D03*
X151384000Y-45474000D03*
X150114000Y-42934000D03*
X148844000Y-45474000D03*
X147574000Y-42934000D03*
X146304000Y-45474000D03*
X145034000Y-42934000D03*
X143764000Y-45474000D03*
X142494000Y-42934000D03*
X141224000Y-45474000D03*
X139954000Y-42934000D03*
X138684000Y-45474000D03*
X137414000Y-42934000D03*
X136144000Y-45474000D03*
D10*
X182184900Y-43769700D03*
X184384900Y-43769700D03*
D20*
X181903900Y-61841500D03*
X179903900Y-61841500D03*
D23*
X180074400Y-55428000D03*
X181574400Y-55428000D03*
D24*
X182019100Y-59497300D03*
X182019100Y-58547300D03*
X182019100Y-57597300D03*
X179819100Y-57597300D03*
X179819100Y-59497300D03*
X179819100Y-58547300D03*
D25*
X173283900Y-64699000D03*
X173283900Y-69979000D03*
D26*
X177218360Y-59746400D03*
X177218360Y-62946400D03*
D27*
X179633900Y-64318000D03*
X179633900Y-67318000D03*
D28*
X173278820Y-62097900D03*
X173278820Y-55897900D03*
D14*
X183906180Y-62164120D03*
X183906180Y-60264120D03*
D13*
X170484900Y-57569700D03*
X168584900Y-57569700D03*
D21*
X177284400Y-64842000D03*
X177284400Y-66842000D03*
D10*
X166834900Y-57569700D03*
X164634900Y-57569700D03*
D14*
X183921420Y-56377920D03*
X183921420Y-58277920D03*
D29*
X181221400Y-48824000D03*
X177157400Y-48824000D03*
D20*
X179733720Y-53622060D03*
X181733720Y-53622060D03*
D30*
X177157400Y-52390500D03*
X177157400Y-55290500D03*
D14*
X129387600Y-94523600D03*
X129387600Y-92623600D03*
X177647600Y-92608400D03*
X177647600Y-94508400D03*
X173634400Y-94523600D03*
X173634400Y-92623600D03*
X169570400Y-92623600D03*
X169570400Y-94523600D03*
X165608000Y-94523600D03*
X165608000Y-92623600D03*
X161544000Y-92674400D03*
X161544000Y-94574400D03*
X157530800Y-94523600D03*
X157530800Y-92623600D03*
X153517600Y-92623600D03*
X153517600Y-94523600D03*
X149504400Y-94523600D03*
X149504400Y-92623600D03*
X145440400Y-92623600D03*
X145440400Y-94523600D03*
X141427200Y-92623600D03*
X141427200Y-94523600D03*
X133400800Y-94523600D03*
X133400800Y-92623600D03*
X137414000Y-92623600D03*
X137414000Y-94523600D03*
D31*
X174485320Y-74889480D03*
X181975780Y-46545620D03*
X186679860Y-55575320D03*
X186654460Y-49776500D03*
D32*
X167060900Y-67759700D03*
D31*
X168295340Y-72024360D03*
X186654460Y-46621820D03*
D32*
X163314400Y-57536200D03*
D31*
X171749740Y-74889480D03*
X186692560Y-52745760D03*
X169649160Y-74889480D03*
X177820340Y-74853920D03*
X184856140Y-46558320D03*
D32*
X155854400Y-69088000D03*
X155854400Y-71170800D03*
X144221200Y-51968400D03*
X147980400Y-48564800D03*
X152704800Y-50038000D03*
X137464800Y-57404000D03*
X142341600Y-60299600D03*
X161696400Y-42926000D03*
X128981200Y-83616800D03*
X133502400Y-83616800D03*
X190754000Y-96824800D03*
X137414000Y-100330000D03*
X129387600Y-100330000D03*
X141478000Y-100152199D03*
X149504400Y-100152199D03*
X157581600Y-100152199D03*
X165608000Y-100152199D03*
X173634400Y-100152199D03*
X140309600Y-73761600D03*
X139192000Y-73761600D03*
X149099492Y-73153492D03*
X148240308Y-72243508D03*
X138607800Y-90220800D03*
X140004800Y-90220802D03*
X141986000Y-73213000D03*
X141986000Y-74381400D03*
X139217400Y-78587600D03*
X140309600Y-78638400D03*
X141223997Y-74381400D03*
X141224000Y-73213000D03*
X140309592Y-77774800D03*
X139191988Y-77774800D03*
X137414000Y-90754160D03*
X137414000Y-89687360D03*
X133400800Y-90754211D03*
X133385230Y-89687411D03*
D33*
X164871900Y-57569700D02*
X164838400Y-57536200D01*
D34*
X177760400Y-67318000D02*
X177284400Y-66842000D01*
D35*
X181975780Y-48069620D02*
X181221400Y-48824000D01*
D34*
X183921420Y-56377920D02*
X182649320Y-56377920D01*
X181521220Y-53622060D02*
X181521220Y-55124820D01*
X182649320Y-56377920D02*
X181824400Y-55553000D01*
X185877260Y-56377920D02*
X186679860Y-55575320D01*
D33*
X181221400Y-48633500D02*
X181221400Y-48824000D01*
D34*
X174022400Y-69979000D02*
X173283900Y-69979000D01*
X181209699Y-58521899D02*
X181235100Y-58547300D01*
X183921420Y-56377920D02*
X185877260Y-56377920D01*
X177284400Y-66842000D02*
X177159400Y-66842000D01*
X181221400Y-48824000D02*
X181221400Y-47300000D01*
X177159400Y-66842000D02*
X174022400Y-69979000D01*
D36*
X169649160Y-74889480D02*
X169547560Y-74991080D01*
D34*
X181521220Y-55124820D02*
X181824400Y-55428000D01*
X181221400Y-47300000D02*
X181975780Y-46545620D01*
X181209699Y-56921701D02*
X181209699Y-58521899D01*
X181824400Y-56307000D02*
X181209699Y-56921701D01*
X164634900Y-57569700D02*
X164634900Y-60239060D01*
X164634900Y-65333700D02*
X167060900Y-67759700D01*
D33*
X164634900Y-57569700D02*
X163347900Y-57569700D01*
D34*
X164634900Y-60239060D02*
X164634900Y-65333700D01*
X181824400Y-55553000D02*
X181824400Y-55428000D01*
X173283900Y-69979000D02*
X173283900Y-73688060D01*
X181824400Y-55428000D02*
X181824400Y-56307000D01*
X173283900Y-73688060D02*
X174485320Y-74889480D01*
D35*
X184919640Y-46621820D02*
X184856140Y-46558320D01*
D34*
X181235100Y-58547300D02*
X182019100Y-58547300D01*
X184384900Y-46087080D02*
X184856140Y-46558320D01*
X179633900Y-67318000D02*
X177760400Y-67318000D01*
X184384900Y-43769700D02*
X184384900Y-46087080D01*
D35*
X186692560Y-49814600D02*
X186654460Y-49776500D01*
D33*
X154568400Y-69088000D02*
X155854400Y-69088000D01*
X154568400Y-71170800D02*
X155854400Y-71170800D01*
X145686800Y-51943000D02*
X144246600Y-51943000D01*
X144246600Y-51943000D02*
X144221200Y-51968400D01*
X152069800Y-50673000D02*
X152704800Y-50038000D01*
X151086800Y-50673000D02*
X152069800Y-50673000D01*
X146542000Y-48564800D02*
X147980400Y-48564800D01*
X138701600Y-57504000D02*
X138801600Y-57404000D01*
X138701600Y-59398000D02*
X138701600Y-57504000D01*
X136953600Y-59398000D02*
X136702800Y-59147200D01*
X138701600Y-59398000D02*
X136953600Y-59398000D01*
X138801600Y-57404000D02*
X137464800Y-57404000D01*
X140901600Y-60998000D02*
X141754000Y-60998000D01*
X141754000Y-60998000D02*
X142341600Y-60410400D01*
X160274000Y-42934000D02*
X161688400Y-42934000D01*
X161688400Y-42934000D02*
X161696400Y-42926000D01*
X128966000Y-82533200D02*
X128966000Y-83601600D01*
X128966000Y-83601600D02*
X128981200Y-83616800D01*
X133487200Y-82533200D02*
X133487200Y-83601600D01*
X133487200Y-83601600D02*
X133502400Y-83616800D01*
X128981200Y-84861200D02*
X128981200Y-84047852D01*
X128981200Y-84047852D02*
X128981200Y-83616800D01*
X127853200Y-85989200D02*
X128981200Y-84861200D01*
X127050800Y-85989200D02*
X127853200Y-85989200D01*
X133502400Y-84047852D02*
X133502400Y-83616800D01*
X133502400Y-84861200D02*
X133502400Y-84047852D01*
X132374400Y-85989200D02*
X133502400Y-84861200D01*
X131572000Y-85989200D02*
X132374400Y-85989200D01*
X129387600Y-98940800D02*
X133409266Y-98940800D01*
X134161666Y-98940800D02*
X137430932Y-98940800D01*
X133409266Y-98940800D02*
X134161666Y-98940800D01*
X141452598Y-98940800D02*
X145474264Y-98940800D01*
X146226664Y-98940800D02*
X149495930Y-98940800D01*
X145474264Y-98940800D02*
X146226664Y-98940800D01*
X149495930Y-98940800D02*
X153517596Y-98940800D01*
X153517596Y-98940800D02*
X157539262Y-98940800D01*
X158291662Y-98940800D02*
X161560928Y-98940800D01*
X157539262Y-98940800D02*
X158291662Y-98940800D01*
X162313328Y-98940800D02*
X165582594Y-98940800D01*
X161560928Y-98940800D02*
X162313328Y-98940800D01*
X165582594Y-98940800D02*
X169604260Y-98940800D01*
X169604260Y-98940800D02*
X173625926Y-98940800D01*
X174378326Y-98940800D02*
X177647600Y-98940800D01*
X173625926Y-98940800D02*
X174378326Y-98940800D01*
X188264800Y-96875600D02*
X190703200Y-96875600D01*
X190703200Y-96875600D02*
X190754000Y-96824800D01*
X137430932Y-98940800D02*
X137430932Y-100313068D01*
X137430932Y-100313068D02*
X137414000Y-100330000D01*
X129387600Y-98940800D02*
X129387600Y-100330000D01*
X141452598Y-98940800D02*
X141452598Y-100126797D01*
X141452598Y-100126797D02*
X141478000Y-100152199D01*
X149495930Y-98940800D02*
X149495930Y-100143729D01*
X149495930Y-100143729D02*
X149504400Y-100152199D01*
X157539262Y-98940800D02*
X157539262Y-100109861D01*
X157539262Y-100109861D02*
X157581600Y-100152199D01*
X165582594Y-98940800D02*
X165582594Y-100126793D01*
X165582594Y-100126793D02*
X165608000Y-100152199D01*
X173625926Y-98940800D02*
X173625926Y-100143725D01*
X173625926Y-100143725D02*
X173634400Y-100152199D01*
D34*
X173278820Y-55897900D02*
X173278820Y-56651900D01*
X173278820Y-56651900D02*
X172361020Y-57569700D01*
X172361020Y-57569700D02*
X171088900Y-57569700D01*
X170484900Y-57269700D02*
X170484900Y-57569700D01*
X171088900Y-57569700D02*
X170484900Y-57569700D01*
X152451600Y-71054000D02*
X152568400Y-71170800D01*
X150672800Y-71054000D02*
X152451600Y-71054000D01*
X130251200Y-76723200D02*
X134772400Y-76723200D01*
X150672800Y-71196000D02*
X150672800Y-71054000D01*
X146608800Y-73797200D02*
X147512800Y-73797200D01*
X146608800Y-73797200D02*
X140345200Y-73797200D01*
X140345200Y-73797200D02*
X140309600Y-73761600D01*
X144657800Y-53213000D02*
X145686800Y-53213000D01*
X144601182Y-53213000D02*
X144657800Y-53213000D01*
X143788000Y-48564800D02*
X143636999Y-48715801D01*
X143636999Y-52248817D02*
X144601182Y-53213000D01*
X143636999Y-48715801D02*
X143636999Y-52248817D01*
X144542000Y-48564800D02*
X143788000Y-48564800D01*
X147629600Y-73797200D02*
X147512800Y-73797200D01*
X150372800Y-71054000D02*
X147629600Y-73797200D01*
X150672800Y-71054000D02*
X150372800Y-71054000D01*
X135863583Y-52248817D02*
X143636999Y-52248817D01*
X128727200Y-59385200D02*
X135863583Y-52248817D01*
X128727200Y-75234800D02*
X128727200Y-59385200D01*
X134772400Y-76723200D02*
X130215600Y-76723200D01*
X130215600Y-76723200D02*
X128727200Y-75234800D01*
X136230400Y-76723200D02*
X134772400Y-76723200D01*
X139192000Y-73761600D02*
X136230400Y-76723200D01*
X148939200Y-57929200D02*
X148939200Y-57151278D01*
X149916500Y-55897900D02*
X148939200Y-56875200D01*
X148939200Y-56875200D02*
X148939200Y-57929200D01*
X156852500Y-55897900D02*
X149916500Y-55897900D01*
X161714300Y-55897900D02*
X156852500Y-55897900D01*
X173278820Y-55897900D02*
X161714300Y-55897900D01*
X181660818Y-95351618D02*
X183184800Y-96875600D01*
X161696468Y-57642932D02*
X161696468Y-88731030D01*
X163441500Y-55897900D02*
X161696468Y-57642932D01*
X161696468Y-88731030D02*
X162525778Y-89560340D01*
X162525778Y-89560340D02*
X177717915Y-89560341D01*
X177717915Y-89560341D02*
X181660818Y-93503246D01*
X181660818Y-93503246D02*
X181660818Y-95351618D01*
D33*
X181000400Y-98083600D02*
X182332400Y-99415600D01*
X161036050Y-89004586D02*
X162252224Y-90220760D01*
X177444360Y-90220760D02*
X181000400Y-93776800D01*
X162252224Y-90220760D02*
X177444360Y-90220760D01*
X181000400Y-93776800D02*
X181000400Y-98083600D01*
X182332400Y-99415600D02*
X183184800Y-99415600D01*
X157949996Y-57929200D02*
X151339200Y-57929200D01*
X161036050Y-61015254D02*
X157949996Y-57929200D01*
X161036050Y-61015254D02*
X161036050Y-89004586D01*
X146539200Y-56976800D02*
X146539200Y-57929200D01*
X146539200Y-55787800D02*
X146539200Y-56976800D01*
X145686800Y-54935400D02*
X146539200Y-55787800D01*
X145686800Y-54483000D02*
X145686800Y-54935400D01*
X140404892Y-100990410D02*
X140309600Y-100895118D01*
X140309600Y-100895118D02*
X140309600Y-100888800D01*
X143336800Y-61779200D02*
X144289200Y-61779200D01*
X188520155Y-100990410D02*
X140404892Y-100990410D01*
X188620400Y-98145600D02*
X189382400Y-98907600D01*
X185724800Y-99415600D02*
X186994800Y-98145600D01*
X139141200Y-99720400D02*
X139141200Y-82563918D01*
X186994800Y-98145600D02*
X188620400Y-98145600D01*
X139141200Y-82563918D02*
X139750800Y-81954318D01*
X139750800Y-65365200D02*
X143336800Y-61779200D01*
X189382400Y-98907600D02*
X189382400Y-100128165D01*
X139750800Y-81954318D02*
X139750800Y-65365200D01*
X189382400Y-100128165D02*
X188520155Y-100990410D01*
X140309600Y-100888800D02*
X139141200Y-99720400D01*
X129387600Y-95041200D02*
X129387600Y-96740800D01*
X129387600Y-94538800D02*
X129387600Y-95041200D01*
D35*
X177109760Y-48776360D02*
X177157400Y-48824000D01*
X177157400Y-48824000D02*
X177157400Y-52390500D01*
X176989760Y-48656360D02*
X177157400Y-48824000D01*
D37*
X177170400Y-48811000D02*
X177157400Y-48824000D01*
X162354000Y-48824000D02*
X159004000Y-45474000D01*
X177157400Y-48824000D02*
X162354000Y-48824000D01*
D33*
X150672800Y-69154000D02*
X150260944Y-69154000D01*
X150738800Y-69088000D02*
X150672800Y-69154000D01*
X152568400Y-69088000D02*
X150738800Y-69088000D01*
X136852000Y-60998000D02*
X136702800Y-61147200D01*
X138701600Y-60998000D02*
X136852000Y-60998000D01*
X142631882Y-60979200D02*
X143336800Y-60979200D01*
X143336800Y-60979200D02*
X144289200Y-60979200D01*
X138927200Y-61976000D02*
X141635082Y-61976000D01*
X141635082Y-61976000D02*
X142631882Y-60979200D01*
X138701600Y-61750400D02*
X138927200Y-61976000D01*
X138701600Y-60998000D02*
X138701600Y-61750400D01*
X140801600Y-59298000D02*
X140901600Y-59398000D01*
X140801600Y-57404000D02*
X140801600Y-59298000D01*
X141754000Y-59398000D02*
X140901600Y-59398000D01*
X142229434Y-59398000D02*
X141754000Y-59398000D01*
X143010634Y-60179200D02*
X142229434Y-59398000D01*
X144289200Y-60179200D02*
X143010634Y-60179200D01*
X169604260Y-95041200D02*
X169604260Y-96740800D01*
X169604260Y-94538800D02*
X169604260Y-95041200D01*
X165582594Y-95041200D02*
X165582594Y-96740800D01*
X165582594Y-94538800D02*
X165582594Y-95041200D01*
X145474264Y-95041200D02*
X145474264Y-96740800D01*
X145474264Y-94538800D02*
X145474264Y-95041200D01*
X141452598Y-95041200D02*
X141452598Y-96740800D01*
X141452598Y-94538800D02*
X141452598Y-95041200D01*
X150539200Y-57242718D02*
X150539200Y-57929200D01*
X150881319Y-56900599D02*
X150539200Y-57242718D01*
X157352461Y-56900599D02*
X150881319Y-56900599D01*
X161340859Y-60888997D02*
X157352461Y-56900599D01*
X161340860Y-88878330D02*
X161340859Y-60888997D01*
X162378480Y-89915950D02*
X161340860Y-88878330D01*
X181834865Y-98486999D02*
X181305210Y-97957344D01*
X184113401Y-98486999D02*
X181834865Y-98486999D01*
X185724800Y-96875600D02*
X184113401Y-98486999D01*
X181305210Y-97957344D02*
X181305209Y-93650543D01*
X181305209Y-93650543D02*
X177570616Y-89915950D01*
X177570616Y-89915950D02*
X162378480Y-89915950D01*
X147339200Y-56976800D02*
X147339200Y-57929200D01*
X147339200Y-51398000D02*
X147339200Y-56976800D01*
X146614200Y-50673000D02*
X147339200Y-51398000D01*
X145686800Y-50673000D02*
X146614200Y-50673000D01*
X146608800Y-71897200D02*
X146507200Y-71897200D01*
X146594555Y-71882955D02*
X146608800Y-71897200D01*
X146608800Y-71897200D02*
X147894000Y-71897200D01*
X147894000Y-71897200D02*
X148240308Y-72243508D01*
X187564801Y-100115599D02*
X188264800Y-99415600D01*
X149041092Y-73095092D02*
X139446011Y-82690173D01*
X140537465Y-100685599D02*
X186994801Y-100685599D01*
X139446011Y-99594145D02*
X140537465Y-100685599D01*
X139446011Y-82690173D02*
X139446011Y-99594145D01*
X186994801Y-100685599D02*
X187564801Y-100115599D01*
X149041092Y-73095092D02*
X149099492Y-73153492D01*
X151836800Y-60179200D02*
X152789200Y-60179200D01*
X150502718Y-60179200D02*
X151836800Y-60179200D01*
X145235599Y-65446319D02*
X150502718Y-60179200D01*
X145235599Y-71326399D02*
X145235599Y-65446319D01*
X145806400Y-71897200D02*
X145235599Y-71326399D01*
X146608800Y-71897200D02*
X145806400Y-71897200D01*
D34*
X179686900Y-55290500D02*
X179824400Y-55428000D01*
X177157400Y-55290500D02*
X179686900Y-55290500D01*
X179946220Y-55306180D02*
X179824400Y-55428000D01*
D35*
X179819100Y-57597300D02*
X179819100Y-58547300D01*
D34*
X179824400Y-55428000D02*
X179824400Y-57592000D01*
X179946220Y-53622060D02*
X179946220Y-55306180D01*
D36*
X179824400Y-53743880D02*
X179946220Y-53622060D01*
D34*
X179824400Y-57592000D02*
X179819100Y-57597300D01*
X179946220Y-45260220D02*
X178475600Y-43789600D01*
X179946220Y-53622060D02*
X179946220Y-45260220D01*
X182019100Y-61726300D02*
X181903900Y-61841500D01*
X182019100Y-59497300D02*
X182019100Y-61726300D01*
X179819100Y-59497300D02*
X179819100Y-61756700D01*
X177218360Y-59746400D02*
X179570000Y-59746400D01*
X179819100Y-61756700D02*
X179903900Y-61841500D01*
X179570000Y-59746400D02*
X179819100Y-59497300D01*
D36*
X177467460Y-59497300D02*
X177218360Y-59746400D01*
D34*
X177284400Y-64842000D02*
X173426900Y-64842000D01*
D36*
X173426140Y-64841240D02*
X173283900Y-64699000D01*
X177218360Y-64752340D02*
X177307260Y-64841240D01*
D34*
X182356300Y-64318000D02*
X183906180Y-62768120D01*
D36*
X183906180Y-62164120D02*
X184206180Y-62164120D01*
D34*
X177218360Y-64775960D02*
X177284400Y-64842000D01*
X173426900Y-64842000D02*
X173283900Y-64699000D01*
X177218360Y-62946400D02*
X177218360Y-64775960D01*
X173278820Y-64693920D02*
X173283900Y-64699000D01*
X173278820Y-62097900D02*
X173278820Y-64693920D01*
X179633900Y-64318000D02*
X177808400Y-64318000D01*
D36*
X173283900Y-62102980D02*
X173278820Y-62097900D01*
D34*
X177808400Y-64318000D02*
X177284400Y-64842000D01*
X183906180Y-62768120D02*
X183906180Y-62164120D01*
X179633900Y-64318000D02*
X182356300Y-64318000D01*
X180454800Y-43789600D02*
X180434900Y-43769700D01*
X182184900Y-43769700D02*
X182165000Y-43789600D01*
X182165000Y-43789600D02*
X180454800Y-43789600D01*
X168584900Y-57569700D02*
X166834900Y-57569700D01*
X183921420Y-58277920D02*
X183240800Y-57597300D01*
X183921420Y-60248880D02*
X183906180Y-60264120D01*
X183921420Y-58277920D02*
X183921420Y-60248880D01*
X183240800Y-57597300D02*
X182019100Y-57597300D01*
D33*
X177647600Y-95026000D02*
X177647600Y-96740800D01*
X177647600Y-94523600D02*
X177647600Y-95026000D01*
X173625926Y-95041200D02*
X173625926Y-96740800D01*
X173625926Y-94538800D02*
X173625926Y-95041200D01*
X161560928Y-94538800D02*
X161560928Y-96740800D01*
X133409266Y-94538800D02*
X133409266Y-96740800D01*
X137430932Y-95041200D02*
X137430932Y-96740800D01*
X137430932Y-94538800D02*
X137430932Y-95041200D01*
X157539262Y-95041200D02*
X157539262Y-96740800D01*
X157539262Y-94538800D02*
X157539262Y-95041200D01*
X153517596Y-94538800D02*
X153517596Y-96740800D01*
X149495930Y-95041200D02*
X149495930Y-96740800D01*
X149495930Y-94538800D02*
X149495930Y-95041200D01*
X158340677Y-59182013D02*
X160426430Y-61267766D01*
X161999712Y-90830380D02*
X172319906Y-90830380D01*
X160426430Y-89257098D02*
X161999712Y-90830380D01*
X172319906Y-90830380D02*
X173625926Y-92136400D01*
X173625926Y-92136400D02*
X173625926Y-92638800D01*
X152789200Y-59379200D02*
X154233209Y-59379200D01*
X154430396Y-59182013D02*
X158340677Y-59182013D01*
X154233209Y-59379200D02*
X154430396Y-59182013D01*
X160426430Y-61267766D02*
X160426430Y-89257098D01*
X158214420Y-59486822D02*
X160121620Y-61394022D01*
X160121620Y-89383354D02*
X161873456Y-91135190D01*
X161873456Y-91135190D02*
X168603050Y-91135190D01*
X168603050Y-91135190D02*
X169604260Y-92136400D01*
X169604260Y-92136400D02*
X169604260Y-92638800D01*
X155233978Y-59486822D02*
X158214420Y-59486822D01*
X153741600Y-60979200D02*
X155233978Y-59486822D01*
X152789200Y-60979200D02*
X153741600Y-60979200D01*
X160121620Y-89383354D02*
X160121620Y-61394022D01*
X164886194Y-91440000D02*
X165582594Y-92136400D01*
X159816810Y-89509610D02*
X161747200Y-91440000D01*
X161747200Y-91440000D02*
X164886194Y-91440000D01*
X165582594Y-92136400D02*
X165582594Y-92638800D01*
X158088163Y-59791631D02*
X159816810Y-61520278D01*
X152789200Y-61779200D02*
X153409600Y-61779200D01*
X153741600Y-61779200D02*
X155729168Y-59791632D01*
X152789200Y-61779200D02*
X153741600Y-61779200D01*
X155729168Y-59791632D02*
X158088164Y-59791632D01*
X159816810Y-61520278D02*
X159816810Y-89509610D01*
X161560928Y-91710928D02*
X159512000Y-89662000D01*
X159512000Y-61646534D02*
X157961906Y-60096440D01*
X161560928Y-92638800D02*
X161560928Y-91710928D01*
X156224360Y-60096440D02*
X157961906Y-60096440D01*
X153741600Y-62579200D02*
X156224360Y-60096440D01*
X152789200Y-62579200D02*
X153741600Y-62579200D01*
X159512000Y-89662000D02*
X159512000Y-61646534D01*
X157539262Y-91352169D02*
X157539262Y-92638800D01*
X153741600Y-63379200D02*
X156719550Y-60401250D01*
X152789200Y-63379200D02*
X153741600Y-63379200D01*
X156719550Y-60401250D02*
X157835650Y-60401250D01*
X157835650Y-60401250D02*
X159207200Y-61772800D01*
X159207200Y-61772800D02*
X159207200Y-89684231D01*
X159207200Y-89684231D02*
X157539262Y-91352169D01*
X158902390Y-89557975D02*
X157020365Y-91440000D01*
X157709394Y-60706060D02*
X158902390Y-61899056D01*
X153517596Y-92202004D02*
X153517596Y-92638800D01*
X157020365Y-91440000D02*
X154279600Y-91440000D01*
X154279600Y-91440000D02*
X153517596Y-92202004D01*
X153741600Y-64179200D02*
X152789200Y-64179200D01*
X157214740Y-60706060D02*
X153741600Y-64179200D01*
X157709394Y-60706060D02*
X157214740Y-60706060D01*
X158902390Y-89557975D02*
X158902390Y-61899056D01*
X150497130Y-91135200D02*
X149495930Y-92136400D01*
X149495930Y-92136400D02*
X149495930Y-92638800D01*
X154153334Y-91135200D02*
X150497130Y-91135200D01*
X155657200Y-64979200D02*
X158597580Y-67919580D01*
X152789200Y-64979200D02*
X155657200Y-64979200D01*
X158597580Y-67919580D02*
X158597580Y-89431719D01*
X158597580Y-89431719D02*
X156894109Y-91135190D01*
X156894109Y-91135190D02*
X154153344Y-91135190D01*
X154153344Y-91135190D02*
X154153334Y-91135200D01*
X158292770Y-89305463D02*
X158292770Y-68071970D01*
X145474264Y-92136400D02*
X146780274Y-90830390D01*
X145474264Y-92638800D02*
X145474264Y-92136400D01*
X156650000Y-66429200D02*
X151339200Y-66429200D01*
X156767853Y-90830380D02*
X158292770Y-89305463D01*
X158292770Y-68071970D02*
X156650000Y-66429200D01*
X146780274Y-90830390D02*
X153263610Y-90830390D01*
X153263610Y-90830390D02*
X153263620Y-90830380D01*
X153263620Y-90830380D02*
X156767853Y-90830380D01*
X157479990Y-67716390D02*
X157987960Y-68224360D01*
X150539200Y-66429200D02*
X150539200Y-67115682D01*
X151139908Y-67716390D02*
X157479990Y-67716390D01*
X150539200Y-67115682D02*
X151139908Y-67716390D01*
X141452598Y-92136400D02*
X141452598Y-92638800D01*
X143063428Y-90525570D02*
X141452598Y-92136400D01*
X156641597Y-90525570D02*
X143063428Y-90525570D01*
X157987960Y-68224360D02*
X157987960Y-89179207D01*
X157987960Y-89179207D02*
X156641597Y-90525570D01*
X133144767Y-90220811D02*
X133144716Y-90220760D01*
X133656833Y-90220811D02*
X133144767Y-90220811D01*
X133144716Y-90220760D02*
X131303240Y-90220760D01*
X131303240Y-90220760D02*
X129387600Y-92136400D01*
X129387600Y-92136400D02*
X129387600Y-92638800D01*
X133656884Y-90220760D02*
X133656833Y-90220811D01*
X133656884Y-90220760D02*
X138607760Y-90220760D01*
X138607760Y-90220760D02*
X138607800Y-90220800D01*
X149739200Y-67381600D02*
X149739200Y-66429200D01*
X140055602Y-90170000D02*
X156514800Y-90170000D01*
X157327600Y-68021200D02*
X150378800Y-68021200D01*
X140004800Y-90220802D02*
X140055602Y-90170000D01*
X150378800Y-68021200D02*
X149739200Y-67381600D01*
X157683150Y-68376750D02*
X157327600Y-68021200D01*
X156514800Y-90170000D02*
X157683150Y-89001650D01*
X157683150Y-89001650D02*
X157683150Y-68376750D01*
X133970000Y-78623200D02*
X134772400Y-78623200D01*
X133744800Y-78623200D02*
X133970000Y-78623200D01*
X132537200Y-79830800D02*
X133744800Y-78623200D01*
X132537200Y-80433200D02*
X132537200Y-79830800D01*
X143336800Y-64179200D02*
X144289200Y-64179200D01*
X141986000Y-65530000D02*
X143336800Y-64179200D01*
X141986000Y-73213000D02*
X141986000Y-65530000D01*
X141986000Y-74381400D02*
X141986000Y-76962000D01*
X141986000Y-76962000D02*
X140614399Y-78333601D01*
X140614399Y-78333601D02*
X140309600Y-78638400D01*
X134772400Y-78623200D02*
X139181800Y-78623200D01*
X139181800Y-78623200D02*
X139217400Y-78587600D01*
X129448800Y-78623200D02*
X130251200Y-78623200D01*
X129223600Y-78623200D02*
X129448800Y-78623200D01*
X128016000Y-79830800D02*
X129223600Y-78623200D01*
X128016000Y-80433200D02*
X128016000Y-79830800D01*
X141224000Y-73213000D02*
X141224000Y-70205600D01*
X141224000Y-65492000D02*
X141224000Y-70205600D01*
X143336800Y-63379200D02*
X141224000Y-65492000D01*
X144289200Y-63379200D02*
X143336800Y-63379200D01*
X139192000Y-77774800D02*
X139191988Y-77774800D01*
X141223997Y-76860395D02*
X140309592Y-77774800D01*
X141223997Y-74381400D02*
X141223997Y-76860395D01*
X139201601Y-77784401D02*
X139192000Y-77774800D01*
X138760936Y-77774800D02*
X139191988Y-77774800D01*
X130597200Y-77774800D02*
X138760936Y-77774800D01*
X130251200Y-78623200D02*
X130251200Y-78120800D01*
X130251200Y-78120800D02*
X130597200Y-77774800D01*
X151724117Y-58957801D02*
X150081319Y-58957801D01*
X151806319Y-58875599D02*
X151724117Y-58957801D01*
X149739200Y-58615682D02*
X149739200Y-57929200D01*
X158465329Y-58875599D02*
X151806319Y-58875599D01*
X150081319Y-58957801D02*
X149739200Y-58615682D01*
X160731240Y-89130842D02*
X160731240Y-61141510D01*
X177647600Y-92121200D02*
X176051970Y-90525570D01*
X177647600Y-92623600D02*
X177647600Y-92121200D01*
X162125968Y-90525570D02*
X160731240Y-89130842D01*
X176051970Y-90525570D02*
X162125968Y-90525570D01*
X160731240Y-61141510D02*
X158465329Y-58875599D01*
X137414000Y-92621868D02*
X137430932Y-92638800D01*
D34*
X131572000Y-82548400D02*
X131587200Y-82533200D01*
X131572000Y-84089200D02*
X131572000Y-82548400D01*
X137430932Y-92638800D02*
X137430932Y-90771092D01*
X137430932Y-90771092D02*
X137414000Y-90754160D01*
X130668000Y-84089200D02*
X131572000Y-84089200D01*
X129946400Y-84810800D02*
X130668000Y-84089200D01*
X129946400Y-86766400D02*
X129946400Y-84810800D01*
X127101600Y-81026000D02*
X127508000Y-81432400D01*
X131190400Y-81432400D02*
X131587200Y-81829200D01*
X127101600Y-79994678D02*
X127101600Y-81026000D01*
X131587200Y-81829200D02*
X131587200Y-82533200D01*
X155194000Y-45579514D02*
X153529503Y-47244011D01*
X127508000Y-81432400D02*
X131190400Y-81432400D01*
X128320790Y-59216860D02*
X128320790Y-78775488D01*
X155194000Y-42934000D02*
X155194000Y-45579514D01*
X153529503Y-47244011D02*
X140293639Y-47244011D01*
X128320790Y-78775488D02*
X127101600Y-79994678D01*
X140293639Y-47244011D02*
X128320790Y-59216860D01*
X131064000Y-87884000D02*
X129946400Y-86766400D01*
X136194800Y-87884000D02*
X131064000Y-87884000D01*
X137414000Y-89687360D02*
X137414000Y-89103200D01*
X137414000Y-89103200D02*
X136194800Y-87884000D01*
D33*
X152948600Y-51943000D02*
X153314400Y-51577200D01*
X151086800Y-51943000D02*
X152948600Y-51943000D01*
X157726000Y-42926000D02*
X157734000Y-42934000D01*
X155585399Y-44465001D02*
X157124400Y-42926000D01*
X155585399Y-48803801D02*
X155585399Y-44465001D01*
X153314400Y-51577200D02*
X153314400Y-51074800D01*
X157124400Y-42926000D02*
X157726000Y-42926000D01*
X153314400Y-51074800D02*
X155585399Y-48803801D01*
X153050200Y-53213000D02*
X153314400Y-53477200D01*
X151086800Y-53213000D02*
X153050200Y-53213000D01*
X154116800Y-53477200D02*
X156464000Y-51130000D01*
X153314400Y-53477200D02*
X154116800Y-53477200D01*
X156464000Y-51130000D02*
X156464000Y-45474000D01*
D34*
X127050800Y-82548400D02*
X127066000Y-82533200D01*
X127050800Y-84089200D02*
X127050800Y-82548400D01*
X133409266Y-92638800D02*
X133409266Y-90762677D01*
X133409266Y-90762677D02*
X133400800Y-90754211D01*
X152560400Y-46837600D02*
X140125299Y-46837600D01*
X126412000Y-80109527D02*
X126412000Y-81829200D01*
X126412000Y-81829200D02*
X127066000Y-82483200D01*
X127914379Y-78607148D02*
X126412000Y-80109527D01*
X127066000Y-82483200D02*
X127066000Y-82533200D01*
X140125299Y-46837600D02*
X127914379Y-59048520D01*
X127914379Y-59048520D02*
X127914379Y-78607148D01*
X153924000Y-45474000D02*
X152560400Y-46837600D01*
X125628400Y-84683600D02*
X126222800Y-84089200D01*
X126222800Y-84089200D02*
X127050800Y-84089200D01*
X125628400Y-86766400D02*
X125628400Y-84683600D01*
X133385230Y-89687411D02*
X128549411Y-89687411D01*
X128549411Y-89687411D02*
X125628400Y-86766400D01*
D33*
G36*
X175483700Y-60126264D02*
G01*
X175483700Y-60894700D01*
X175485164Y-60909566D01*
X175489500Y-60923860D01*
X175496542Y-60937034D01*
X175506018Y-60948582D01*
X175906018Y-61348582D01*
X175917566Y-61358058D01*
X175930740Y-61365100D01*
X175945034Y-61369436D01*
X175959900Y-61370900D01*
X178303336Y-61370900D01*
X178608700Y-61676264D01*
X178608700Y-63044700D01*
X178610164Y-63059566D01*
X178614500Y-63073860D01*
X178621542Y-63087034D01*
X178631018Y-63098582D01*
X178881018Y-63348582D01*
X178892566Y-63358058D01*
X178905740Y-63365100D01*
X178920034Y-63369436D01*
X178934900Y-63370900D01*
X182684900Y-63370900D01*
X182699766Y-63369436D01*
X182714060Y-63365100D01*
X182727234Y-63358058D01*
X182738782Y-63348582D01*
X182938782Y-63148582D01*
X182948258Y-63137034D01*
X182955300Y-63123860D01*
X182959636Y-63109566D01*
X182961100Y-63094700D01*
X182961100Y-61601264D01*
X183341464Y-61220900D01*
X184803336Y-61220900D01*
X185208700Y-61626264D01*
X185208700Y-64938136D01*
X184728336Y-65418500D01*
X175984900Y-65418500D01*
X175970034Y-65419964D01*
X175955740Y-65424300D01*
X175942566Y-65431342D01*
X175931018Y-65440818D01*
X175203336Y-66168500D01*
X171586100Y-66168500D01*
X171586100Y-63844700D01*
X171584636Y-63829834D01*
X171580300Y-63815540D01*
X171573302Y-63802432D01*
X171536100Y-63746629D01*
X171536100Y-60226264D01*
X172266464Y-59495900D01*
X174853336Y-59495900D01*
X175483700Y-60126264D01*
G37*
X175483700Y-60126264D02*
X175483700Y-60894700D01*
X175485164Y-60909566D01*
X175489500Y-60923860D01*
X175496542Y-60937034D01*
X175506018Y-60948582D01*
X175906018Y-61348582D01*
X175917566Y-61358058D01*
X175930740Y-61365100D01*
X175945034Y-61369436D01*
X175959900Y-61370900D01*
X178303336Y-61370900D01*
X178608700Y-61676264D01*
X178608700Y-63044700D01*
X178610164Y-63059566D01*
X178614500Y-63073860D01*
X178621542Y-63087034D01*
X178631018Y-63098582D01*
X178881018Y-63348582D01*
X178892566Y-63358058D01*
X178905740Y-63365100D01*
X178920034Y-63369436D01*
X178934900Y-63370900D01*
X182684900Y-63370900D01*
X182699766Y-63369436D01*
X182714060Y-63365100D01*
X182727234Y-63358058D01*
X182738782Y-63348582D01*
X182938782Y-63148582D01*
X182948258Y-63137034D01*
X182955300Y-63123860D01*
X182959636Y-63109566D01*
X182961100Y-63094700D01*
X182961100Y-61601264D01*
X183341464Y-61220900D01*
X184803336Y-61220900D01*
X185208700Y-61626264D01*
X185208700Y-64938136D01*
X184728336Y-65418500D01*
X175984900Y-65418500D01*
X175970034Y-65419964D01*
X175955740Y-65424300D01*
X175942566Y-65431342D01*
X175931018Y-65440818D01*
X175203336Y-66168500D01*
X171586100Y-66168500D01*
X171586100Y-63844700D01*
X171584636Y-63829834D01*
X171580300Y-63815540D01*
X171573302Y-63802432D01*
X171536100Y-63746629D01*
X171536100Y-60226264D01*
X172266464Y-59495900D01*
X174853336Y-59495900D01*
X175483700Y-60126264D01*
G36*
X180408700Y-75663136D02*
G01*
X178403336Y-77668500D01*
X168616464Y-77668500D01*
X166786100Y-75838136D01*
X166786100Y-69576264D01*
X168316464Y-68045900D01*
X174284900Y-68045900D01*
X174299766Y-68044436D01*
X174314060Y-68040100D01*
X174327234Y-68033058D01*
X174338782Y-68023582D01*
X176466464Y-65895900D01*
X180408700Y-65895900D01*
X180408700Y-75663136D01*
G37*
X180408700Y-75663136D02*
X178403336Y-77668500D01*
X168616464Y-77668500D01*
X166786100Y-75838136D01*
X166786100Y-69576264D01*
X168316464Y-68045900D01*
X174284900Y-68045900D01*
X174299766Y-68044436D01*
X174314060Y-68040100D01*
X174327234Y-68033058D01*
X174338782Y-68023582D01*
X176466464Y-65895900D01*
X180408700Y-65895900D01*
X180408700Y-75663136D01*
G36*
X181008700Y-58093500D02*
G01*
X180884900Y-58093500D01*
X180870034Y-58094964D01*
X180861100Y-58097674D01*
X180861100Y-57376264D01*
X180941464Y-57295900D01*
X181008700Y-57295900D01*
X181008700Y-58093500D01*
G37*
X181008700Y-58093500D02*
X180884900Y-58093500D01*
X180870034Y-58094964D01*
X180861100Y-58097674D01*
X180861100Y-57376264D01*
X180941464Y-57295900D01*
X181008700Y-57295900D01*
X181008700Y-58093500D01*
G36*
X182533700Y-62788136D02*
G01*
X182403336Y-62918500D01*
X181366464Y-62918500D01*
X181211100Y-62763136D01*
X181211100Y-59301264D01*
X181316464Y-59195900D01*
X182533700Y-59195900D01*
X182533700Y-62788136D01*
G37*
X182533700Y-62788136D02*
X182403336Y-62918500D01*
X181366464Y-62918500D01*
X181211100Y-62763136D01*
X181211100Y-59301264D01*
X181316464Y-59195900D01*
X182533700Y-59195900D01*
X182533700Y-62788136D01*
D34*
G36*
X180282900Y-62692700D02*
G01*
X179237506Y-62692700D01*
X179061900Y-62517094D01*
X179061900Y-61019700D01*
X179059460Y-60994924D01*
X179052233Y-60971099D01*
X179040497Y-60949143D01*
X179024703Y-60929897D01*
X178699703Y-60604897D01*
X178680457Y-60589103D01*
X178658501Y-60577367D01*
X178634676Y-60570140D01*
X178609900Y-60567700D01*
X176337506Y-60567700D01*
X176211900Y-60442094D01*
X176211900Y-59208200D01*
X176227233Y-59196700D01*
X180282900Y-59196700D01*
X180282900Y-62692700D01*
G37*
X180282900Y-62692700D02*
X179237506Y-62692700D01*
X179061900Y-62517094D01*
X179061900Y-61019700D01*
X179059460Y-60994924D01*
X179052233Y-60971099D01*
X179040497Y-60949143D01*
X179024703Y-60929897D01*
X178699703Y-60604897D01*
X178680457Y-60589103D01*
X178658501Y-60577367D01*
X178634676Y-60570140D01*
X178609900Y-60567700D01*
X176337506Y-60567700D01*
X176211900Y-60442094D01*
X176211900Y-59208200D01*
X176227233Y-59196700D01*
X180282900Y-59196700D01*
X180282900Y-62692700D01*
D33*
G36*
X182533700Y-58843500D02*
G01*
X181016464Y-58843500D01*
X180861100Y-58688136D01*
X180861100Y-58245900D01*
X182533700Y-58245900D01*
X182533700Y-58843500D01*
G37*
X182533700Y-58843500D02*
X181016464Y-58843500D01*
X180861100Y-58688136D01*
X180861100Y-58245900D01*
X182533700Y-58245900D01*
X182533700Y-58843500D01*
G36*
X188083700Y-46351264D02*
G01*
X188083700Y-55888136D01*
X187053336Y-56918500D01*
X181334900Y-56918500D01*
X181320034Y-56919964D01*
X181305740Y-56924300D01*
X181292566Y-56931342D01*
X181281018Y-56940818D01*
X180861100Y-57360736D01*
X180861100Y-51844700D01*
X180859636Y-51829834D01*
X180855300Y-51815540D01*
X180848258Y-51802366D01*
X180838782Y-51790818D01*
X180301820Y-51253856D01*
X180301820Y-45835544D01*
X180491464Y-45645900D01*
X187378336Y-45645900D01*
X188083700Y-46351264D01*
G37*
X188083700Y-46351264D02*
X188083700Y-55888136D01*
X187053336Y-56918500D01*
X181334900Y-56918500D01*
X181320034Y-56919964D01*
X181305740Y-56924300D01*
X181292566Y-56931342D01*
X181281018Y-56940818D01*
X180861100Y-57360736D01*
X180861100Y-51844700D01*
X180859636Y-51829834D01*
X180855300Y-51815540D01*
X180848258Y-51802366D01*
X180838782Y-51790818D01*
X180301820Y-51253856D01*
X180301820Y-45835544D01*
X180491464Y-45645900D01*
X187378336Y-45645900D01*
X188083700Y-46351264D01*
G36*
X181083700Y-58188136D02*
G01*
X180959900Y-58311936D01*
X180861100Y-58213136D01*
X180861100Y-57295900D01*
X181083700Y-57295900D01*
X181083700Y-58188136D01*
G37*
X181083700Y-58188136D02*
X180959900Y-58311936D01*
X180861100Y-58213136D01*
X180861100Y-57295900D01*
X181083700Y-57295900D01*
X181083700Y-58188136D01*
M02*
