G04 #@! TF.GenerationSoftware,KiCad,Pcbnew,5.1.5-52549c5~84~ubuntu18.04.1*
G04 #@! TF.CreationDate,2019-12-12T20:24:59-05:00*
G04 #@! TF.ProjectId,Shutdown_Sense,53687574-646f-4776-9e5f-53656e73652e,rev?*
G04 #@! TF.SameCoordinates,Original*
G04 #@! TF.FileFunction,Soldermask,Top*
G04 #@! TF.FilePolarity,Negative*
%FSLAX46Y46*%
G04 Gerber Fmt 4.6, Leading zero omitted, Abs format (unit mm)*
G04 Created by KiCad (PCBNEW 5.1.5-52549c5~84~ubuntu18.04.1) date 2019-12-12 20:24:59*
%MOMM*%
%LPD*%
G04 APERTURE LIST*
%ADD10C,0.100000*%
G04 APERTURE END LIST*
D10*
G36*
X188483859Y-98693460D02*
G01*
X188620532Y-98750072D01*
X188743535Y-98832260D01*
X188848140Y-98936865D01*
X188930328Y-99059868D01*
X188986940Y-99196541D01*
X189015800Y-99341633D01*
X189015800Y-99489567D01*
X188986940Y-99634659D01*
X188930328Y-99771332D01*
X188848140Y-99894335D01*
X188743535Y-99998940D01*
X188620532Y-100081128D01*
X188620531Y-100081129D01*
X188620530Y-100081129D01*
X188483859Y-100137740D01*
X188338768Y-100166600D01*
X188190832Y-100166600D01*
X188045741Y-100137740D01*
X187909070Y-100081129D01*
X187909069Y-100081129D01*
X187909068Y-100081128D01*
X187786065Y-99998940D01*
X187681460Y-99894335D01*
X187599272Y-99771332D01*
X187542660Y-99634659D01*
X187513800Y-99489567D01*
X187513800Y-99341633D01*
X187542660Y-99196541D01*
X187599272Y-99059868D01*
X187681460Y-98936865D01*
X187786065Y-98832260D01*
X187909068Y-98750072D01*
X188045741Y-98693460D01*
X188190832Y-98664600D01*
X188338768Y-98664600D01*
X188483859Y-98693460D01*
G37*
G36*
X185943859Y-98693460D02*
G01*
X186080532Y-98750072D01*
X186203535Y-98832260D01*
X186308140Y-98936865D01*
X186390328Y-99059868D01*
X186446940Y-99196541D01*
X186475800Y-99341633D01*
X186475800Y-99489567D01*
X186446940Y-99634659D01*
X186390328Y-99771332D01*
X186308140Y-99894335D01*
X186203535Y-99998940D01*
X186080532Y-100081128D01*
X186080531Y-100081129D01*
X186080530Y-100081129D01*
X185943859Y-100137740D01*
X185798768Y-100166600D01*
X185650832Y-100166600D01*
X185505741Y-100137740D01*
X185369070Y-100081129D01*
X185369069Y-100081129D01*
X185369068Y-100081128D01*
X185246065Y-99998940D01*
X185141460Y-99894335D01*
X185059272Y-99771332D01*
X185002660Y-99634659D01*
X184973800Y-99489567D01*
X184973800Y-99341633D01*
X185002660Y-99196541D01*
X185059272Y-99059868D01*
X185141460Y-98936865D01*
X185246065Y-98832260D01*
X185369068Y-98750072D01*
X185505741Y-98693460D01*
X185650832Y-98664600D01*
X185798768Y-98664600D01*
X185943859Y-98693460D01*
G37*
G36*
X183935800Y-100166600D02*
G01*
X182433800Y-100166600D01*
X182433800Y-98664600D01*
X183935800Y-98664600D01*
X183935800Y-100166600D01*
G37*
G36*
X142103598Y-99591800D02*
G01*
X140801598Y-99591800D01*
X140801598Y-98289800D01*
X142103598Y-98289800D01*
X142103598Y-99591800D01*
G37*
G36*
X146125264Y-99591800D02*
G01*
X144823264Y-99591800D01*
X144823264Y-98289800D01*
X146125264Y-98289800D01*
X146125264Y-99591800D01*
G37*
G36*
X130038600Y-99591800D02*
G01*
X128736600Y-99591800D01*
X128736600Y-98289800D01*
X130038600Y-98289800D01*
X130038600Y-99591800D01*
G37*
G36*
X178298600Y-99591800D02*
G01*
X176996600Y-99591800D01*
X176996600Y-98289800D01*
X178298600Y-98289800D01*
X178298600Y-99591800D01*
G37*
G36*
X174276926Y-99591800D02*
G01*
X172974926Y-99591800D01*
X172974926Y-98289800D01*
X174276926Y-98289800D01*
X174276926Y-99591800D01*
G37*
G36*
X170255260Y-99591800D02*
G01*
X168953260Y-99591800D01*
X168953260Y-98289800D01*
X170255260Y-98289800D01*
X170255260Y-99591800D01*
G37*
G36*
X166233594Y-99591800D02*
G01*
X164931594Y-99591800D01*
X164931594Y-98289800D01*
X166233594Y-98289800D01*
X166233594Y-99591800D01*
G37*
G36*
X162211928Y-99591800D02*
G01*
X160909928Y-99591800D01*
X160909928Y-98289800D01*
X162211928Y-98289800D01*
X162211928Y-99591800D01*
G37*
G36*
X134060266Y-99591800D02*
G01*
X132758266Y-99591800D01*
X132758266Y-98289800D01*
X134060266Y-98289800D01*
X134060266Y-99591800D01*
G37*
G36*
X138081932Y-99591800D02*
G01*
X136779932Y-99591800D01*
X136779932Y-98289800D01*
X138081932Y-98289800D01*
X138081932Y-99591800D01*
G37*
G36*
X158190262Y-99591800D02*
G01*
X156888262Y-99591800D01*
X156888262Y-98289800D01*
X158190262Y-98289800D01*
X158190262Y-99591800D01*
G37*
G36*
X154168596Y-99591800D02*
G01*
X152866596Y-99591800D01*
X152866596Y-98289800D01*
X154168596Y-98289800D01*
X154168596Y-99591800D01*
G37*
G36*
X150146930Y-99591800D02*
G01*
X148844930Y-99591800D01*
X148844930Y-98289800D01*
X150146930Y-98289800D01*
X150146930Y-99591800D01*
G37*
G36*
X188483859Y-96153460D02*
G01*
X188620532Y-96210072D01*
X188743535Y-96292260D01*
X188848140Y-96396865D01*
X188930328Y-96519868D01*
X188986940Y-96656541D01*
X189015800Y-96801633D01*
X189015800Y-96949567D01*
X188986940Y-97094659D01*
X188930328Y-97231332D01*
X188848140Y-97354335D01*
X188743535Y-97458940D01*
X188620532Y-97541128D01*
X188620531Y-97541129D01*
X188620530Y-97541129D01*
X188483859Y-97597740D01*
X188338768Y-97626600D01*
X188190832Y-97626600D01*
X188045741Y-97597740D01*
X187909070Y-97541129D01*
X187909069Y-97541129D01*
X187909068Y-97541128D01*
X187786065Y-97458940D01*
X187681460Y-97354335D01*
X187599272Y-97231332D01*
X187542660Y-97094659D01*
X187513800Y-96949567D01*
X187513800Y-96801633D01*
X187542660Y-96656541D01*
X187599272Y-96519868D01*
X187681460Y-96396865D01*
X187786065Y-96292260D01*
X187909068Y-96210072D01*
X188045741Y-96153460D01*
X188190832Y-96124600D01*
X188338768Y-96124600D01*
X188483859Y-96153460D01*
G37*
G36*
X185943859Y-96153460D02*
G01*
X186080532Y-96210072D01*
X186203535Y-96292260D01*
X186308140Y-96396865D01*
X186390328Y-96519868D01*
X186446940Y-96656541D01*
X186475800Y-96801633D01*
X186475800Y-96949567D01*
X186446940Y-97094659D01*
X186390328Y-97231332D01*
X186308140Y-97354335D01*
X186203535Y-97458940D01*
X186080532Y-97541128D01*
X186080531Y-97541129D01*
X186080530Y-97541129D01*
X185943859Y-97597740D01*
X185798768Y-97626600D01*
X185650832Y-97626600D01*
X185505741Y-97597740D01*
X185369070Y-97541129D01*
X185369069Y-97541129D01*
X185369068Y-97541128D01*
X185246065Y-97458940D01*
X185141460Y-97354335D01*
X185059272Y-97231332D01*
X185002660Y-97094659D01*
X184973800Y-96949567D01*
X184973800Y-96801633D01*
X185002660Y-96656541D01*
X185059272Y-96519868D01*
X185141460Y-96396865D01*
X185246065Y-96292260D01*
X185369068Y-96210072D01*
X185505741Y-96153460D01*
X185650832Y-96124600D01*
X185798768Y-96124600D01*
X185943859Y-96153460D01*
G37*
G36*
X183403859Y-96153460D02*
G01*
X183540532Y-96210072D01*
X183663535Y-96292260D01*
X183768140Y-96396865D01*
X183850328Y-96519868D01*
X183906940Y-96656541D01*
X183935800Y-96801633D01*
X183935800Y-96949567D01*
X183906940Y-97094659D01*
X183850328Y-97231332D01*
X183768140Y-97354335D01*
X183663535Y-97458940D01*
X183540532Y-97541128D01*
X183540531Y-97541129D01*
X183540530Y-97541129D01*
X183403859Y-97597740D01*
X183258768Y-97626600D01*
X183110832Y-97626600D01*
X182965741Y-97597740D01*
X182829070Y-97541129D01*
X182829069Y-97541129D01*
X182829068Y-97541128D01*
X182706065Y-97458940D01*
X182601460Y-97354335D01*
X182519272Y-97231332D01*
X182462660Y-97094659D01*
X182433800Y-96949567D01*
X182433800Y-96801633D01*
X182462660Y-96656541D01*
X182519272Y-96519868D01*
X182601460Y-96396865D01*
X182706065Y-96292260D01*
X182829068Y-96210072D01*
X182965741Y-96153460D01*
X183110832Y-96124600D01*
X183258768Y-96124600D01*
X183403859Y-96153460D01*
G37*
G36*
X154168596Y-97391800D02*
G01*
X152866596Y-97391800D01*
X152866596Y-96089800D01*
X154168596Y-96089800D01*
X154168596Y-97391800D01*
G37*
G36*
X130038600Y-97391800D02*
G01*
X128736600Y-97391800D01*
X128736600Y-96089800D01*
X130038600Y-96089800D01*
X130038600Y-97391800D01*
G37*
G36*
X178298600Y-97391800D02*
G01*
X176996600Y-97391800D01*
X176996600Y-96089800D01*
X178298600Y-96089800D01*
X178298600Y-97391800D01*
G37*
G36*
X174276926Y-97391800D02*
G01*
X172974926Y-97391800D01*
X172974926Y-96089800D01*
X174276926Y-96089800D01*
X174276926Y-97391800D01*
G37*
G36*
X146125264Y-97391800D02*
G01*
X144823264Y-97391800D01*
X144823264Y-96089800D01*
X146125264Y-96089800D01*
X146125264Y-97391800D01*
G37*
G36*
X170255260Y-97391800D02*
G01*
X168953260Y-97391800D01*
X168953260Y-96089800D01*
X170255260Y-96089800D01*
X170255260Y-97391800D01*
G37*
G36*
X166233594Y-97391800D02*
G01*
X164931594Y-97391800D01*
X164931594Y-96089800D01*
X166233594Y-96089800D01*
X166233594Y-97391800D01*
G37*
G36*
X162211928Y-97391800D02*
G01*
X160909928Y-97391800D01*
X160909928Y-96089800D01*
X162211928Y-96089800D01*
X162211928Y-97391800D01*
G37*
G36*
X142103598Y-97391800D02*
G01*
X140801598Y-97391800D01*
X140801598Y-96089800D01*
X142103598Y-96089800D01*
X142103598Y-97391800D01*
G37*
G36*
X134060266Y-97391800D02*
G01*
X132758266Y-97391800D01*
X132758266Y-96089800D01*
X134060266Y-96089800D01*
X134060266Y-97391800D01*
G37*
G36*
X150146930Y-97391800D02*
G01*
X148844930Y-97391800D01*
X148844930Y-96089800D01*
X150146930Y-96089800D01*
X150146930Y-97391800D01*
G37*
G36*
X138081932Y-97391800D02*
G01*
X136779932Y-97391800D01*
X136779932Y-96089800D01*
X138081932Y-96089800D01*
X138081932Y-97391800D01*
G37*
G36*
X158190262Y-97391800D02*
G01*
X156888262Y-97391800D01*
X156888262Y-96089800D01*
X158190262Y-96089800D01*
X158190262Y-97391800D01*
G37*
G36*
X162245000Y-94975400D02*
G01*
X160843000Y-94975400D01*
X160843000Y-94173400D01*
X162245000Y-94173400D01*
X162245000Y-94975400D01*
G37*
G36*
X170271400Y-94924600D02*
G01*
X168869400Y-94924600D01*
X168869400Y-94122600D01*
X170271400Y-94122600D01*
X170271400Y-94924600D01*
G37*
G36*
X138115000Y-94924600D02*
G01*
X136713000Y-94924600D01*
X136713000Y-94122600D01*
X138115000Y-94122600D01*
X138115000Y-94924600D01*
G37*
G36*
X130088600Y-94924600D02*
G01*
X128686600Y-94924600D01*
X128686600Y-94122600D01*
X130088600Y-94122600D01*
X130088600Y-94924600D01*
G37*
G36*
X174335400Y-94924600D02*
G01*
X172933400Y-94924600D01*
X172933400Y-94122600D01*
X174335400Y-94122600D01*
X174335400Y-94924600D01*
G37*
G36*
X166309000Y-94924600D02*
G01*
X164907000Y-94924600D01*
X164907000Y-94122600D01*
X166309000Y-94122600D01*
X166309000Y-94924600D01*
G37*
G36*
X154218600Y-94924600D02*
G01*
X152816600Y-94924600D01*
X152816600Y-94122600D01*
X154218600Y-94122600D01*
X154218600Y-94924600D01*
G37*
G36*
X158231800Y-94924600D02*
G01*
X156829800Y-94924600D01*
X156829800Y-94122600D01*
X158231800Y-94122600D01*
X158231800Y-94924600D01*
G37*
G36*
X134101800Y-94924600D02*
G01*
X132699800Y-94924600D01*
X132699800Y-94122600D01*
X134101800Y-94122600D01*
X134101800Y-94924600D01*
G37*
G36*
X142128200Y-94924600D02*
G01*
X140726200Y-94924600D01*
X140726200Y-94122600D01*
X142128200Y-94122600D01*
X142128200Y-94924600D01*
G37*
G36*
X150205400Y-94924600D02*
G01*
X148803400Y-94924600D01*
X148803400Y-94122600D01*
X150205400Y-94122600D01*
X150205400Y-94924600D01*
G37*
G36*
X146141400Y-94924600D02*
G01*
X144739400Y-94924600D01*
X144739400Y-94122600D01*
X146141400Y-94122600D01*
X146141400Y-94924600D01*
G37*
G36*
X178348600Y-94909400D02*
G01*
X176946600Y-94909400D01*
X176946600Y-94107400D01*
X178348600Y-94107400D01*
X178348600Y-94909400D01*
G37*
G36*
X162245000Y-93075400D02*
G01*
X160843000Y-93075400D01*
X160843000Y-92273400D01*
X162245000Y-92273400D01*
X162245000Y-93075400D01*
G37*
G36*
X174335400Y-93024600D02*
G01*
X172933400Y-93024600D01*
X172933400Y-92222600D01*
X174335400Y-92222600D01*
X174335400Y-93024600D01*
G37*
G36*
X142128200Y-93024600D02*
G01*
X140726200Y-93024600D01*
X140726200Y-92222600D01*
X142128200Y-92222600D01*
X142128200Y-93024600D01*
G37*
G36*
X146141400Y-93024600D02*
G01*
X144739400Y-93024600D01*
X144739400Y-92222600D01*
X146141400Y-92222600D01*
X146141400Y-93024600D01*
G37*
G36*
X150205400Y-93024600D02*
G01*
X148803400Y-93024600D01*
X148803400Y-92222600D01*
X150205400Y-92222600D01*
X150205400Y-93024600D01*
G37*
G36*
X154218600Y-93024600D02*
G01*
X152816600Y-93024600D01*
X152816600Y-92222600D01*
X154218600Y-92222600D01*
X154218600Y-93024600D01*
G37*
G36*
X158231800Y-93024600D02*
G01*
X156829800Y-93024600D01*
X156829800Y-92222600D01*
X158231800Y-92222600D01*
X158231800Y-93024600D01*
G37*
G36*
X166309000Y-93024600D02*
G01*
X164907000Y-93024600D01*
X164907000Y-92222600D01*
X166309000Y-92222600D01*
X166309000Y-93024600D01*
G37*
G36*
X170271400Y-93024600D02*
G01*
X168869400Y-93024600D01*
X168869400Y-92222600D01*
X170271400Y-92222600D01*
X170271400Y-93024600D01*
G37*
G36*
X130088600Y-93024600D02*
G01*
X128686600Y-93024600D01*
X128686600Y-92222600D01*
X130088600Y-92222600D01*
X130088600Y-93024600D01*
G37*
G36*
X134101800Y-93024600D02*
G01*
X132699800Y-93024600D01*
X132699800Y-92222600D01*
X134101800Y-92222600D01*
X134101800Y-93024600D01*
G37*
G36*
X138115000Y-93024600D02*
G01*
X136713000Y-93024600D01*
X136713000Y-92222600D01*
X138115000Y-92222600D01*
X138115000Y-93024600D01*
G37*
G36*
X178348600Y-93009400D02*
G01*
X176946600Y-93009400D01*
X176946600Y-92207400D01*
X178348600Y-92207400D01*
X178348600Y-93009400D01*
G37*
G36*
X132273000Y-86390200D02*
G01*
X130871000Y-86390200D01*
X130871000Y-85588200D01*
X132273000Y-85588200D01*
X132273000Y-86390200D01*
G37*
G36*
X127751800Y-86390200D02*
G01*
X126349800Y-86390200D01*
X126349800Y-85588200D01*
X127751800Y-85588200D01*
X127751800Y-86390200D01*
G37*
G36*
X132273000Y-84490200D02*
G01*
X130871000Y-84490200D01*
X130871000Y-83688200D01*
X132273000Y-83688200D01*
X132273000Y-84490200D01*
G37*
G36*
X127751800Y-84490200D02*
G01*
X126349800Y-84490200D01*
X126349800Y-83688200D01*
X127751800Y-83688200D01*
X127751800Y-84490200D01*
G37*
G36*
X132038200Y-83034200D02*
G01*
X131136200Y-83034200D01*
X131136200Y-82032200D01*
X132038200Y-82032200D01*
X132038200Y-83034200D01*
G37*
G36*
X129417000Y-83034200D02*
G01*
X128515000Y-83034200D01*
X128515000Y-82032200D01*
X129417000Y-82032200D01*
X129417000Y-83034200D01*
G37*
G36*
X127517000Y-83034200D02*
G01*
X126615000Y-83034200D01*
X126615000Y-82032200D01*
X127517000Y-82032200D01*
X127517000Y-83034200D01*
G37*
G36*
X133938200Y-83034200D02*
G01*
X133036200Y-83034200D01*
X133036200Y-82032200D01*
X133938200Y-82032200D01*
X133938200Y-83034200D01*
G37*
G36*
X132988200Y-80934200D02*
G01*
X132086200Y-80934200D01*
X132086200Y-79932200D01*
X132988200Y-79932200D01*
X132988200Y-80934200D01*
G37*
G36*
X128467000Y-80934200D02*
G01*
X127565000Y-80934200D01*
X127565000Y-79932200D01*
X128467000Y-79932200D01*
X128467000Y-80934200D01*
G37*
G36*
X135473400Y-79024200D02*
G01*
X134071400Y-79024200D01*
X134071400Y-78222200D01*
X135473400Y-78222200D01*
X135473400Y-79024200D01*
G37*
G36*
X130952200Y-79024200D02*
G01*
X129550200Y-79024200D01*
X129550200Y-78222200D01*
X130952200Y-78222200D01*
X130952200Y-79024200D01*
G37*
G36*
X130952200Y-77124200D02*
G01*
X129550200Y-77124200D01*
X129550200Y-76322200D01*
X130952200Y-76322200D01*
X130952200Y-77124200D01*
G37*
G36*
X135473400Y-77124200D02*
G01*
X134071400Y-77124200D01*
X134071400Y-76322200D01*
X135473400Y-76322200D01*
X135473400Y-77124200D01*
G37*
G36*
X147309800Y-74198200D02*
G01*
X145907800Y-74198200D01*
X145907800Y-73396200D01*
X147309800Y-73396200D01*
X147309800Y-74198200D01*
G37*
G36*
X147309800Y-72298200D02*
G01*
X145907800Y-72298200D01*
X145907800Y-71496200D01*
X147309800Y-71496200D01*
X147309800Y-72298200D01*
G37*
G36*
X155119400Y-71846800D02*
G01*
X154017400Y-71846800D01*
X154017400Y-70494800D01*
X155119400Y-70494800D01*
X155119400Y-71846800D01*
G37*
G36*
X153119400Y-71846800D02*
G01*
X152017400Y-71846800D01*
X152017400Y-70494800D01*
X153119400Y-70494800D01*
X153119400Y-71846800D01*
G37*
G36*
X151373800Y-71455000D02*
G01*
X149971800Y-71455000D01*
X149971800Y-70653000D01*
X151373800Y-70653000D01*
X151373800Y-71455000D01*
G37*
G36*
X175084900Y-70920000D02*
G01*
X171482900Y-70920000D01*
X171482900Y-69038000D01*
X175084900Y-69038000D01*
X175084900Y-70920000D01*
G37*
G36*
X153119400Y-69764000D02*
G01*
X152017400Y-69764000D01*
X152017400Y-68412000D01*
X153119400Y-68412000D01*
X153119400Y-69764000D01*
G37*
G36*
X155119400Y-69764000D02*
G01*
X154017400Y-69764000D01*
X154017400Y-68412000D01*
X155119400Y-68412000D01*
X155119400Y-69764000D01*
G37*
G36*
X151373800Y-69555000D02*
G01*
X149971800Y-69555000D01*
X149971800Y-68753000D01*
X151373800Y-68753000D01*
X151373800Y-69555000D01*
G37*
G36*
X180484900Y-67869000D02*
G01*
X178782900Y-67869000D01*
X178782900Y-66767000D01*
X180484900Y-66767000D01*
X180484900Y-67869000D01*
G37*
G36*
X177960400Y-67393000D02*
G01*
X176608400Y-67393000D01*
X176608400Y-66291000D01*
X177960400Y-66291000D01*
X177960400Y-67393000D01*
G37*
G36*
X151665200Y-67280200D02*
G01*
X145413200Y-67280200D01*
X145413200Y-65578200D01*
X151665200Y-65578200D01*
X151665200Y-67280200D01*
G37*
G36*
X175084900Y-65640000D02*
G01*
X171482900Y-65640000D01*
X171482900Y-63758000D01*
X175084900Y-63758000D01*
X175084900Y-65640000D01*
G37*
G36*
X177960400Y-65393000D02*
G01*
X176608400Y-65393000D01*
X176608400Y-64291000D01*
X177960400Y-64291000D01*
X177960400Y-65393000D01*
G37*
G36*
X145140200Y-65305200D02*
G01*
X143438200Y-65305200D01*
X143438200Y-59053200D01*
X145140200Y-59053200D01*
X145140200Y-65305200D01*
G37*
G36*
X153640200Y-65305200D02*
G01*
X151938200Y-65305200D01*
X151938200Y-59053200D01*
X153640200Y-59053200D01*
X153640200Y-65305200D01*
G37*
G36*
X180484900Y-64869000D02*
G01*
X178782900Y-64869000D01*
X178782900Y-63767000D01*
X180484900Y-63767000D01*
X180484900Y-64869000D01*
G37*
G36*
X178269360Y-63597400D02*
G01*
X176167360Y-63597400D01*
X176167360Y-62295400D01*
X178269360Y-62295400D01*
X178269360Y-63597400D01*
G37*
G36*
X174929820Y-62648900D02*
G01*
X171627820Y-62648900D01*
X171627820Y-61546900D01*
X174929820Y-61546900D01*
X174929820Y-62648900D01*
G37*
G36*
X184607180Y-62565120D02*
G01*
X183205180Y-62565120D01*
X183205180Y-61763120D01*
X184607180Y-61763120D01*
X184607180Y-62565120D01*
G37*
G36*
X180454900Y-62517500D02*
G01*
X179352900Y-62517500D01*
X179352900Y-61165500D01*
X180454900Y-61165500D01*
X180454900Y-62517500D01*
G37*
G36*
X182454900Y-62517500D02*
G01*
X181352900Y-62517500D01*
X181352900Y-61165500D01*
X182454900Y-61165500D01*
X182454900Y-62517500D01*
G37*
G36*
X137378800Y-61698200D02*
G01*
X136026800Y-61698200D01*
X136026800Y-60596200D01*
X137378800Y-60596200D01*
X137378800Y-61698200D01*
G37*
G36*
X139452600Y-61649000D02*
G01*
X137950600Y-61649000D01*
X137950600Y-60347000D01*
X139452600Y-60347000D01*
X139452600Y-61649000D01*
G37*
G36*
X141652600Y-61649000D02*
G01*
X140150600Y-61649000D01*
X140150600Y-60347000D01*
X141652600Y-60347000D01*
X141652600Y-61649000D01*
G37*
G36*
X184607180Y-60665120D02*
G01*
X183205180Y-60665120D01*
X183205180Y-59863120D01*
X184607180Y-59863120D01*
X184607180Y-60665120D01*
G37*
G36*
X178269360Y-60397400D02*
G01*
X176167360Y-60397400D01*
X176167360Y-59095400D01*
X178269360Y-59095400D01*
X178269360Y-60397400D01*
G37*
G36*
X139452600Y-60049000D02*
G01*
X137950600Y-60049000D01*
X137950600Y-58747000D01*
X139452600Y-58747000D01*
X139452600Y-60049000D01*
G37*
G36*
X141652600Y-60049000D02*
G01*
X140150600Y-60049000D01*
X140150600Y-58747000D01*
X141652600Y-58747000D01*
X141652600Y-60049000D01*
G37*
G36*
X182600100Y-59873300D02*
G01*
X181438100Y-59873300D01*
X181438100Y-57221300D01*
X182600100Y-57221300D01*
X182600100Y-59873300D01*
G37*
G36*
X180400100Y-59873300D02*
G01*
X179238100Y-59873300D01*
X179238100Y-57221300D01*
X180400100Y-57221300D01*
X180400100Y-59873300D01*
G37*
G36*
X137378800Y-59698200D02*
G01*
X136026800Y-59698200D01*
X136026800Y-58596200D01*
X137378800Y-58596200D01*
X137378800Y-59698200D01*
G37*
G36*
X151665200Y-58780200D02*
G01*
X145413200Y-58780200D01*
X145413200Y-57078200D01*
X151665200Y-57078200D01*
X151665200Y-58780200D01*
G37*
G36*
X184622420Y-58678920D02*
G01*
X183220420Y-58678920D01*
X183220420Y-57876920D01*
X184622420Y-57876920D01*
X184622420Y-58678920D01*
G37*
G36*
X170885900Y-58270700D02*
G01*
X170083900Y-58270700D01*
X170083900Y-56868700D01*
X170885900Y-56868700D01*
X170885900Y-58270700D01*
G37*
G36*
X168985900Y-58270700D02*
G01*
X168183900Y-58270700D01*
X168183900Y-56868700D01*
X168985900Y-56868700D01*
X168985900Y-58270700D01*
G37*
G36*
X165285900Y-58220700D02*
G01*
X163983900Y-58220700D01*
X163983900Y-56918700D01*
X165285900Y-56918700D01*
X165285900Y-58220700D01*
G37*
G36*
X167485900Y-58220700D02*
G01*
X166183900Y-58220700D01*
X166183900Y-56918700D01*
X167485900Y-56918700D01*
X167485900Y-58220700D01*
G37*
G36*
X141352600Y-58080000D02*
G01*
X140250600Y-58080000D01*
X140250600Y-56728000D01*
X141352600Y-56728000D01*
X141352600Y-58080000D01*
G37*
G36*
X139352600Y-58080000D02*
G01*
X138250600Y-58080000D01*
X138250600Y-56728000D01*
X139352600Y-56728000D01*
X139352600Y-58080000D01*
G37*
G36*
X184622420Y-56778920D02*
G01*
X183220420Y-56778920D01*
X183220420Y-55976920D01*
X184622420Y-55976920D01*
X184622420Y-56778920D01*
G37*
G36*
X174929820Y-56448900D02*
G01*
X171627820Y-56448900D01*
X171627820Y-55346900D01*
X174929820Y-55346900D01*
X174929820Y-56448900D01*
G37*
G36*
X182025400Y-55854000D02*
G01*
X181123400Y-55854000D01*
X181123400Y-55002000D01*
X182025400Y-55002000D01*
X182025400Y-55854000D01*
G37*
G36*
X180525400Y-55854000D02*
G01*
X179623400Y-55854000D01*
X179623400Y-55002000D01*
X180525400Y-55002000D01*
X180525400Y-55854000D01*
G37*
G36*
X178458400Y-55791500D02*
G01*
X175856400Y-55791500D01*
X175856400Y-54789500D01*
X178458400Y-54789500D01*
X178458400Y-55791500D01*
G37*
G36*
X151912800Y-54834000D02*
G01*
X150260800Y-54834000D01*
X150260800Y-54132000D01*
X151912800Y-54132000D01*
X151912800Y-54834000D01*
G37*
G36*
X146512800Y-54834000D02*
G01*
X144860800Y-54834000D01*
X144860800Y-54132000D01*
X146512800Y-54132000D01*
X146512800Y-54834000D01*
G37*
G36*
X180284720Y-54298060D02*
G01*
X179182720Y-54298060D01*
X179182720Y-52946060D01*
X180284720Y-52946060D01*
X180284720Y-54298060D01*
G37*
G36*
X182284720Y-54298060D02*
G01*
X181182720Y-54298060D01*
X181182720Y-52946060D01*
X182284720Y-52946060D01*
X182284720Y-54298060D01*
G37*
G36*
X154015400Y-53878200D02*
G01*
X152613400Y-53878200D01*
X152613400Y-53076200D01*
X154015400Y-53076200D01*
X154015400Y-53878200D01*
G37*
G36*
X146512800Y-53564000D02*
G01*
X144860800Y-53564000D01*
X144860800Y-52862000D01*
X146512800Y-52862000D01*
X146512800Y-53564000D01*
G37*
G36*
X151912800Y-53564000D02*
G01*
X150260800Y-53564000D01*
X150260800Y-52862000D01*
X151912800Y-52862000D01*
X151912800Y-53564000D01*
G37*
G36*
X178458400Y-52891500D02*
G01*
X175856400Y-52891500D01*
X175856400Y-51889500D01*
X178458400Y-51889500D01*
X178458400Y-52891500D01*
G37*
G36*
X146512800Y-52294000D02*
G01*
X144860800Y-52294000D01*
X144860800Y-51592000D01*
X146512800Y-51592000D01*
X146512800Y-52294000D01*
G37*
G36*
X151912800Y-52294000D02*
G01*
X150260800Y-52294000D01*
X150260800Y-51592000D01*
X151912800Y-51592000D01*
X151912800Y-52294000D01*
G37*
G36*
X154015400Y-51978200D02*
G01*
X152613400Y-51978200D01*
X152613400Y-51176200D01*
X154015400Y-51176200D01*
X154015400Y-51978200D01*
G37*
G36*
X151912800Y-51024000D02*
G01*
X150260800Y-51024000D01*
X150260800Y-50322000D01*
X151912800Y-50322000D01*
X151912800Y-51024000D01*
G37*
G36*
X146512800Y-51024000D02*
G01*
X144860800Y-51024000D01*
X144860800Y-50322000D01*
X146512800Y-50322000D01*
X146512800Y-51024000D01*
G37*
G36*
X182161400Y-49954500D02*
G01*
X180281400Y-49954500D01*
X180281400Y-47693500D01*
X182161400Y-47693500D01*
X182161400Y-49954500D01*
G37*
G36*
X178097400Y-49954500D02*
G01*
X176217400Y-49954500D01*
X176217400Y-47693500D01*
X178097400Y-47693500D01*
X178097400Y-49954500D01*
G37*
G36*
X145093000Y-49240800D02*
G01*
X143991000Y-49240800D01*
X143991000Y-47888800D01*
X145093000Y-47888800D01*
X145093000Y-49240800D01*
G37*
G36*
X147093000Y-49240800D02*
G01*
X145991000Y-49240800D01*
X145991000Y-47888800D01*
X147093000Y-47888800D01*
X147093000Y-49240800D01*
G37*
G36*
X138888473Y-44799938D02*
G01*
X139016049Y-44852782D01*
X139130859Y-44929495D01*
X139228505Y-45027141D01*
X139305218Y-45141951D01*
X139358062Y-45269527D01*
X139385000Y-45404956D01*
X139385000Y-45543044D01*
X139358062Y-45678473D01*
X139305218Y-45806049D01*
X139228505Y-45920859D01*
X139130859Y-46018505D01*
X139016049Y-46095218D01*
X138888473Y-46148062D01*
X138753044Y-46175000D01*
X138614956Y-46175000D01*
X138479527Y-46148062D01*
X138351951Y-46095218D01*
X138237141Y-46018505D01*
X138139495Y-45920859D01*
X138062782Y-45806049D01*
X138009938Y-45678473D01*
X137983000Y-45543044D01*
X137983000Y-45404956D01*
X138009938Y-45269527D01*
X138062782Y-45141951D01*
X138139495Y-45027141D01*
X138237141Y-44929495D01*
X138351951Y-44852782D01*
X138479527Y-44799938D01*
X138614956Y-44773000D01*
X138753044Y-44773000D01*
X138888473Y-44799938D01*
G37*
G36*
X143968473Y-44799938D02*
G01*
X144096049Y-44852782D01*
X144210859Y-44929495D01*
X144308505Y-45027141D01*
X144385218Y-45141951D01*
X144438062Y-45269527D01*
X144465000Y-45404956D01*
X144465000Y-45543044D01*
X144438062Y-45678473D01*
X144385218Y-45806049D01*
X144308505Y-45920859D01*
X144210859Y-46018505D01*
X144096049Y-46095218D01*
X143968473Y-46148062D01*
X143833044Y-46175000D01*
X143694956Y-46175000D01*
X143559527Y-46148062D01*
X143431951Y-46095218D01*
X143317141Y-46018505D01*
X143219495Y-45920859D01*
X143142782Y-45806049D01*
X143089938Y-45678473D01*
X143063000Y-45543044D01*
X143063000Y-45404956D01*
X143089938Y-45269527D01*
X143142782Y-45141951D01*
X143219495Y-45027141D01*
X143317141Y-44929495D01*
X143431951Y-44852782D01*
X143559527Y-44799938D01*
X143694956Y-44773000D01*
X143833044Y-44773000D01*
X143968473Y-44799938D01*
G37*
G36*
X146508473Y-44799938D02*
G01*
X146636049Y-44852782D01*
X146750859Y-44929495D01*
X146848505Y-45027141D01*
X146925218Y-45141951D01*
X146978062Y-45269527D01*
X147005000Y-45404956D01*
X147005000Y-45543044D01*
X146978062Y-45678473D01*
X146925218Y-45806049D01*
X146848505Y-45920859D01*
X146750859Y-46018505D01*
X146636049Y-46095218D01*
X146508473Y-46148062D01*
X146373044Y-46175000D01*
X146234956Y-46175000D01*
X146099527Y-46148062D01*
X145971951Y-46095218D01*
X145857141Y-46018505D01*
X145759495Y-45920859D01*
X145682782Y-45806049D01*
X145629938Y-45678473D01*
X145603000Y-45543044D01*
X145603000Y-45404956D01*
X145629938Y-45269527D01*
X145682782Y-45141951D01*
X145759495Y-45027141D01*
X145857141Y-44929495D01*
X145971951Y-44852782D01*
X146099527Y-44799938D01*
X146234956Y-44773000D01*
X146373044Y-44773000D01*
X146508473Y-44799938D01*
G37*
G36*
X149048473Y-44799938D02*
G01*
X149176049Y-44852782D01*
X149290859Y-44929495D01*
X149388505Y-45027141D01*
X149465218Y-45141951D01*
X149518062Y-45269527D01*
X149545000Y-45404956D01*
X149545000Y-45543044D01*
X149518062Y-45678473D01*
X149465218Y-45806049D01*
X149388505Y-45920859D01*
X149290859Y-46018505D01*
X149176049Y-46095218D01*
X149048473Y-46148062D01*
X148913044Y-46175000D01*
X148774956Y-46175000D01*
X148639527Y-46148062D01*
X148511951Y-46095218D01*
X148397141Y-46018505D01*
X148299495Y-45920859D01*
X148222782Y-45806049D01*
X148169938Y-45678473D01*
X148143000Y-45543044D01*
X148143000Y-45404956D01*
X148169938Y-45269527D01*
X148222782Y-45141951D01*
X148299495Y-45027141D01*
X148397141Y-44929495D01*
X148511951Y-44852782D01*
X148639527Y-44799938D01*
X148774956Y-44773000D01*
X148913044Y-44773000D01*
X149048473Y-44799938D01*
G37*
G36*
X154128473Y-44799938D02*
G01*
X154256049Y-44852782D01*
X154370859Y-44929495D01*
X154468505Y-45027141D01*
X154545218Y-45141951D01*
X154598062Y-45269527D01*
X154625000Y-45404956D01*
X154625000Y-45543044D01*
X154598062Y-45678473D01*
X154545218Y-45806049D01*
X154468505Y-45920859D01*
X154370859Y-46018505D01*
X154256049Y-46095218D01*
X154128473Y-46148062D01*
X153993044Y-46175000D01*
X153854956Y-46175000D01*
X153719527Y-46148062D01*
X153591951Y-46095218D01*
X153477141Y-46018505D01*
X153379495Y-45920859D01*
X153302782Y-45806049D01*
X153249938Y-45678473D01*
X153223000Y-45543044D01*
X153223000Y-45404956D01*
X153249938Y-45269527D01*
X153302782Y-45141951D01*
X153379495Y-45027141D01*
X153477141Y-44929495D01*
X153591951Y-44852782D01*
X153719527Y-44799938D01*
X153854956Y-44773000D01*
X153993044Y-44773000D01*
X154128473Y-44799938D01*
G37*
G36*
X156668473Y-44799938D02*
G01*
X156796049Y-44852782D01*
X156910859Y-44929495D01*
X157008505Y-45027141D01*
X157085218Y-45141951D01*
X157138062Y-45269527D01*
X157165000Y-45404956D01*
X157165000Y-45543044D01*
X157138062Y-45678473D01*
X157085218Y-45806049D01*
X157008505Y-45920859D01*
X156910859Y-46018505D01*
X156796049Y-46095218D01*
X156668473Y-46148062D01*
X156533044Y-46175000D01*
X156394956Y-46175000D01*
X156259527Y-46148062D01*
X156131951Y-46095218D01*
X156017141Y-46018505D01*
X155919495Y-45920859D01*
X155842782Y-45806049D01*
X155789938Y-45678473D01*
X155763000Y-45543044D01*
X155763000Y-45404956D01*
X155789938Y-45269527D01*
X155842782Y-45141951D01*
X155919495Y-45027141D01*
X156017141Y-44929495D01*
X156131951Y-44852782D01*
X156259527Y-44799938D01*
X156394956Y-44773000D01*
X156533044Y-44773000D01*
X156668473Y-44799938D01*
G37*
G36*
X141428473Y-44799938D02*
G01*
X141556049Y-44852782D01*
X141670859Y-44929495D01*
X141768505Y-45027141D01*
X141845218Y-45141951D01*
X141898062Y-45269527D01*
X141925000Y-45404956D01*
X141925000Y-45543044D01*
X141898062Y-45678473D01*
X141845218Y-45806049D01*
X141768505Y-45920859D01*
X141670859Y-46018505D01*
X141556049Y-46095218D01*
X141428473Y-46148062D01*
X141293044Y-46175000D01*
X141154956Y-46175000D01*
X141019527Y-46148062D01*
X140891951Y-46095218D01*
X140777141Y-46018505D01*
X140679495Y-45920859D01*
X140602782Y-45806049D01*
X140549938Y-45678473D01*
X140523000Y-45543044D01*
X140523000Y-45404956D01*
X140549938Y-45269527D01*
X140602782Y-45141951D01*
X140679495Y-45027141D01*
X140777141Y-44929495D01*
X140891951Y-44852782D01*
X141019527Y-44799938D01*
X141154956Y-44773000D01*
X141293044Y-44773000D01*
X141428473Y-44799938D01*
G37*
G36*
X136348473Y-44799938D02*
G01*
X136476049Y-44852782D01*
X136590859Y-44929495D01*
X136688505Y-45027141D01*
X136765218Y-45141951D01*
X136818062Y-45269527D01*
X136845000Y-45404956D01*
X136845000Y-45543044D01*
X136818062Y-45678473D01*
X136765218Y-45806049D01*
X136688505Y-45920859D01*
X136590859Y-46018505D01*
X136476049Y-46095218D01*
X136348473Y-46148062D01*
X136213044Y-46175000D01*
X136074956Y-46175000D01*
X135939527Y-46148062D01*
X135811951Y-46095218D01*
X135697141Y-46018505D01*
X135599495Y-45920859D01*
X135522782Y-45806049D01*
X135469938Y-45678473D01*
X135443000Y-45543044D01*
X135443000Y-45404956D01*
X135469938Y-45269527D01*
X135522782Y-45141951D01*
X135599495Y-45027141D01*
X135697141Y-44929495D01*
X135811951Y-44852782D01*
X135939527Y-44799938D01*
X136074956Y-44773000D01*
X136213044Y-44773000D01*
X136348473Y-44799938D01*
G37*
G36*
X159208473Y-44799938D02*
G01*
X159336049Y-44852782D01*
X159450859Y-44929495D01*
X159548505Y-45027141D01*
X159625218Y-45141951D01*
X159678062Y-45269527D01*
X159705000Y-45404956D01*
X159705000Y-45543044D01*
X159678062Y-45678473D01*
X159625218Y-45806049D01*
X159548505Y-45920859D01*
X159450859Y-46018505D01*
X159336049Y-46095218D01*
X159208473Y-46148062D01*
X159073044Y-46175000D01*
X158934956Y-46175000D01*
X158799527Y-46148062D01*
X158671951Y-46095218D01*
X158557141Y-46018505D01*
X158459495Y-45920859D01*
X158382782Y-45806049D01*
X158329938Y-45678473D01*
X158303000Y-45543044D01*
X158303000Y-45404956D01*
X158329938Y-45269527D01*
X158382782Y-45141951D01*
X158459495Y-45027141D01*
X158557141Y-44929495D01*
X158671951Y-44852782D01*
X158799527Y-44799938D01*
X158934956Y-44773000D01*
X159073044Y-44773000D01*
X159208473Y-44799938D01*
G37*
G36*
X151588473Y-44799938D02*
G01*
X151716049Y-44852782D01*
X151830859Y-44929495D01*
X151928505Y-45027141D01*
X152005218Y-45141951D01*
X152058062Y-45269527D01*
X152085000Y-45404956D01*
X152085000Y-45543044D01*
X152058062Y-45678473D01*
X152005218Y-45806049D01*
X151928505Y-45920859D01*
X151830859Y-46018505D01*
X151716049Y-46095218D01*
X151588473Y-46148062D01*
X151453044Y-46175000D01*
X151314956Y-46175000D01*
X151179527Y-46148062D01*
X151051951Y-46095218D01*
X150937141Y-46018505D01*
X150839495Y-45920859D01*
X150762782Y-45806049D01*
X150709938Y-45678473D01*
X150683000Y-45543044D01*
X150683000Y-45404956D01*
X150709938Y-45269527D01*
X150762782Y-45141951D01*
X150839495Y-45027141D01*
X150937141Y-44929495D01*
X151051951Y-44852782D01*
X151179527Y-44799938D01*
X151314956Y-44773000D01*
X151453044Y-44773000D01*
X151588473Y-44799938D01*
G37*
G36*
X178876600Y-44490600D02*
G01*
X178074600Y-44490600D01*
X178074600Y-43088600D01*
X178876600Y-43088600D01*
X178876600Y-44490600D01*
G37*
G36*
X180776600Y-44490600D02*
G01*
X179974600Y-44490600D01*
X179974600Y-43088600D01*
X180776600Y-43088600D01*
X180776600Y-44490600D01*
G37*
G36*
X182835900Y-44420700D02*
G01*
X181533900Y-44420700D01*
X181533900Y-43118700D01*
X182835900Y-43118700D01*
X182835900Y-44420700D01*
G37*
G36*
X185035900Y-44420700D02*
G01*
X183733900Y-44420700D01*
X183733900Y-43118700D01*
X185035900Y-43118700D01*
X185035900Y-44420700D01*
G37*
G36*
X160478473Y-42259938D02*
G01*
X160606049Y-42312782D01*
X160720859Y-42389495D01*
X160818505Y-42487141D01*
X160895218Y-42601951D01*
X160948062Y-42729527D01*
X160975000Y-42864956D01*
X160975000Y-43003044D01*
X160948062Y-43138473D01*
X160895218Y-43266049D01*
X160818505Y-43380859D01*
X160720859Y-43478505D01*
X160606049Y-43555218D01*
X160478473Y-43608062D01*
X160343044Y-43635000D01*
X160204956Y-43635000D01*
X160069527Y-43608062D01*
X159941951Y-43555218D01*
X159827141Y-43478505D01*
X159729495Y-43380859D01*
X159652782Y-43266049D01*
X159599938Y-43138473D01*
X159573000Y-43003044D01*
X159573000Y-42864956D01*
X159599938Y-42729527D01*
X159652782Y-42601951D01*
X159729495Y-42487141D01*
X159827141Y-42389495D01*
X159941951Y-42312782D01*
X160069527Y-42259938D01*
X160204956Y-42233000D01*
X160343044Y-42233000D01*
X160478473Y-42259938D01*
G37*
G36*
X157938473Y-42259938D02*
G01*
X158066049Y-42312782D01*
X158180859Y-42389495D01*
X158278505Y-42487141D01*
X158355218Y-42601951D01*
X158408062Y-42729527D01*
X158435000Y-42864956D01*
X158435000Y-43003044D01*
X158408062Y-43138473D01*
X158355218Y-43266049D01*
X158278505Y-43380859D01*
X158180859Y-43478505D01*
X158066049Y-43555218D01*
X157938473Y-43608062D01*
X157803044Y-43635000D01*
X157664956Y-43635000D01*
X157529527Y-43608062D01*
X157401951Y-43555218D01*
X157287141Y-43478505D01*
X157189495Y-43380859D01*
X157112782Y-43266049D01*
X157059938Y-43138473D01*
X157033000Y-43003044D01*
X157033000Y-42864956D01*
X157059938Y-42729527D01*
X157112782Y-42601951D01*
X157189495Y-42487141D01*
X157287141Y-42389495D01*
X157401951Y-42312782D01*
X157529527Y-42259938D01*
X157664956Y-42233000D01*
X157803044Y-42233000D01*
X157938473Y-42259938D01*
G37*
G36*
X155398473Y-42259938D02*
G01*
X155526049Y-42312782D01*
X155640859Y-42389495D01*
X155738505Y-42487141D01*
X155815218Y-42601951D01*
X155868062Y-42729527D01*
X155895000Y-42864956D01*
X155895000Y-43003044D01*
X155868062Y-43138473D01*
X155815218Y-43266049D01*
X155738505Y-43380859D01*
X155640859Y-43478505D01*
X155526049Y-43555218D01*
X155398473Y-43608062D01*
X155263044Y-43635000D01*
X155124956Y-43635000D01*
X154989527Y-43608062D01*
X154861951Y-43555218D01*
X154747141Y-43478505D01*
X154649495Y-43380859D01*
X154572782Y-43266049D01*
X154519938Y-43138473D01*
X154493000Y-43003044D01*
X154493000Y-42864956D01*
X154519938Y-42729527D01*
X154572782Y-42601951D01*
X154649495Y-42487141D01*
X154747141Y-42389495D01*
X154861951Y-42312782D01*
X154989527Y-42259938D01*
X155124956Y-42233000D01*
X155263044Y-42233000D01*
X155398473Y-42259938D01*
G37*
G36*
X152858473Y-42259938D02*
G01*
X152986049Y-42312782D01*
X153100859Y-42389495D01*
X153198505Y-42487141D01*
X153275218Y-42601951D01*
X153328062Y-42729527D01*
X153355000Y-42864956D01*
X153355000Y-43003044D01*
X153328062Y-43138473D01*
X153275218Y-43266049D01*
X153198505Y-43380859D01*
X153100859Y-43478505D01*
X152986049Y-43555218D01*
X152858473Y-43608062D01*
X152723044Y-43635000D01*
X152584956Y-43635000D01*
X152449527Y-43608062D01*
X152321951Y-43555218D01*
X152207141Y-43478505D01*
X152109495Y-43380859D01*
X152032782Y-43266049D01*
X151979938Y-43138473D01*
X151953000Y-43003044D01*
X151953000Y-42864956D01*
X151979938Y-42729527D01*
X152032782Y-42601951D01*
X152109495Y-42487141D01*
X152207141Y-42389495D01*
X152321951Y-42312782D01*
X152449527Y-42259938D01*
X152584956Y-42233000D01*
X152723044Y-42233000D01*
X152858473Y-42259938D01*
G37*
G36*
X150318473Y-42259938D02*
G01*
X150446049Y-42312782D01*
X150560859Y-42389495D01*
X150658505Y-42487141D01*
X150735218Y-42601951D01*
X150788062Y-42729527D01*
X150815000Y-42864956D01*
X150815000Y-43003044D01*
X150788062Y-43138473D01*
X150735218Y-43266049D01*
X150658505Y-43380859D01*
X150560859Y-43478505D01*
X150446049Y-43555218D01*
X150318473Y-43608062D01*
X150183044Y-43635000D01*
X150044956Y-43635000D01*
X149909527Y-43608062D01*
X149781951Y-43555218D01*
X149667141Y-43478505D01*
X149569495Y-43380859D01*
X149492782Y-43266049D01*
X149439938Y-43138473D01*
X149413000Y-43003044D01*
X149413000Y-42864956D01*
X149439938Y-42729527D01*
X149492782Y-42601951D01*
X149569495Y-42487141D01*
X149667141Y-42389495D01*
X149781951Y-42312782D01*
X149909527Y-42259938D01*
X150044956Y-42233000D01*
X150183044Y-42233000D01*
X150318473Y-42259938D01*
G37*
G36*
X147778473Y-42259938D02*
G01*
X147906049Y-42312782D01*
X148020859Y-42389495D01*
X148118505Y-42487141D01*
X148195218Y-42601951D01*
X148248062Y-42729527D01*
X148275000Y-42864956D01*
X148275000Y-43003044D01*
X148248062Y-43138473D01*
X148195218Y-43266049D01*
X148118505Y-43380859D01*
X148020859Y-43478505D01*
X147906049Y-43555218D01*
X147778473Y-43608062D01*
X147643044Y-43635000D01*
X147504956Y-43635000D01*
X147369527Y-43608062D01*
X147241951Y-43555218D01*
X147127141Y-43478505D01*
X147029495Y-43380859D01*
X146952782Y-43266049D01*
X146899938Y-43138473D01*
X146873000Y-43003044D01*
X146873000Y-42864956D01*
X146899938Y-42729527D01*
X146952782Y-42601951D01*
X147029495Y-42487141D01*
X147127141Y-42389495D01*
X147241951Y-42312782D01*
X147369527Y-42259938D01*
X147504956Y-42233000D01*
X147643044Y-42233000D01*
X147778473Y-42259938D01*
G37*
G36*
X145238473Y-42259938D02*
G01*
X145366049Y-42312782D01*
X145480859Y-42389495D01*
X145578505Y-42487141D01*
X145655218Y-42601951D01*
X145708062Y-42729527D01*
X145735000Y-42864956D01*
X145735000Y-43003044D01*
X145708062Y-43138473D01*
X145655218Y-43266049D01*
X145578505Y-43380859D01*
X145480859Y-43478505D01*
X145366049Y-43555218D01*
X145238473Y-43608062D01*
X145103044Y-43635000D01*
X144964956Y-43635000D01*
X144829527Y-43608062D01*
X144701951Y-43555218D01*
X144587141Y-43478505D01*
X144489495Y-43380859D01*
X144412782Y-43266049D01*
X144359938Y-43138473D01*
X144333000Y-43003044D01*
X144333000Y-42864956D01*
X144359938Y-42729527D01*
X144412782Y-42601951D01*
X144489495Y-42487141D01*
X144587141Y-42389495D01*
X144701951Y-42312782D01*
X144829527Y-42259938D01*
X144964956Y-42233000D01*
X145103044Y-42233000D01*
X145238473Y-42259938D01*
G37*
G36*
X142698473Y-42259938D02*
G01*
X142826049Y-42312782D01*
X142940859Y-42389495D01*
X143038505Y-42487141D01*
X143115218Y-42601951D01*
X143168062Y-42729527D01*
X143195000Y-42864956D01*
X143195000Y-43003044D01*
X143168062Y-43138473D01*
X143115218Y-43266049D01*
X143038505Y-43380859D01*
X142940859Y-43478505D01*
X142826049Y-43555218D01*
X142698473Y-43608062D01*
X142563044Y-43635000D01*
X142424956Y-43635000D01*
X142289527Y-43608062D01*
X142161951Y-43555218D01*
X142047141Y-43478505D01*
X141949495Y-43380859D01*
X141872782Y-43266049D01*
X141819938Y-43138473D01*
X141793000Y-43003044D01*
X141793000Y-42864956D01*
X141819938Y-42729527D01*
X141872782Y-42601951D01*
X141949495Y-42487141D01*
X142047141Y-42389495D01*
X142161951Y-42312782D01*
X142289527Y-42259938D01*
X142424956Y-42233000D01*
X142563044Y-42233000D01*
X142698473Y-42259938D01*
G37*
G36*
X140158473Y-42259938D02*
G01*
X140286049Y-42312782D01*
X140400859Y-42389495D01*
X140498505Y-42487141D01*
X140575218Y-42601951D01*
X140628062Y-42729527D01*
X140655000Y-42864956D01*
X140655000Y-43003044D01*
X140628062Y-43138473D01*
X140575218Y-43266049D01*
X140498505Y-43380859D01*
X140400859Y-43478505D01*
X140286049Y-43555218D01*
X140158473Y-43608062D01*
X140023044Y-43635000D01*
X139884956Y-43635000D01*
X139749527Y-43608062D01*
X139621951Y-43555218D01*
X139507141Y-43478505D01*
X139409495Y-43380859D01*
X139332782Y-43266049D01*
X139279938Y-43138473D01*
X139253000Y-43003044D01*
X139253000Y-42864956D01*
X139279938Y-42729527D01*
X139332782Y-42601951D01*
X139409495Y-42487141D01*
X139507141Y-42389495D01*
X139621951Y-42312782D01*
X139749527Y-42259938D01*
X139884956Y-42233000D01*
X140023044Y-42233000D01*
X140158473Y-42259938D01*
G37*
G36*
X137618473Y-42259938D02*
G01*
X137746049Y-42312782D01*
X137860859Y-42389495D01*
X137958505Y-42487141D01*
X138035218Y-42601951D01*
X138088062Y-42729527D01*
X138115000Y-42864956D01*
X138115000Y-43003044D01*
X138088062Y-43138473D01*
X138035218Y-43266049D01*
X137958505Y-43380859D01*
X137860859Y-43478505D01*
X137746049Y-43555218D01*
X137618473Y-43608062D01*
X137483044Y-43635000D01*
X137344956Y-43635000D01*
X137209527Y-43608062D01*
X137081951Y-43555218D01*
X136967141Y-43478505D01*
X136869495Y-43380859D01*
X136792782Y-43266049D01*
X136739938Y-43138473D01*
X136713000Y-43003044D01*
X136713000Y-42864956D01*
X136739938Y-42729527D01*
X136792782Y-42601951D01*
X136869495Y-42487141D01*
X136967141Y-42389495D01*
X137081951Y-42312782D01*
X137209527Y-42259938D01*
X137344956Y-42233000D01*
X137483044Y-42233000D01*
X137618473Y-42259938D01*
G37*
M02*
