M48
; DRILL file {KiCad 5.1.5-52549c5~84~ubuntu18.04.1} date Thu 12 Dec 2019 08:25:12 PM EST
; FORMAT={-:-/ absolute / inch / decimal}
; #@! TF.CreationDate,2019-12-12T20:25:12-05:00
; #@! TF.GenerationSoftware,Kicad,Pcbnew,5.1.5-52549c5~84~ubuntu18.04.1
; #@! TF.FileFunction,Plated,1,2,PTH
FMAT,2
INCH
T1C0.0120
T2C0.0157
T3C0.0315
T4C0.0400
%
G90
G05
T1
X5.078Y-3.292
X5.094Y-3.95
X5.2514Y-3.531
X5.252Y-3.573
X5.256Y-3.292
X5.41Y-3.531
X5.41Y-3.573
X5.41Y-3.95
X5.412Y-2.26
X5.457Y-3.552
X5.48Y-3.062
X5.48Y-2.904
X5.481Y-3.094
X5.512Y-3.552
X5.524Y-3.062
X5.524Y-2.904
X5.524Y-3.096
X5.56Y-2.9284
X5.56Y-2.8824
X5.57Y-3.943
X5.59Y-2.8824
X5.59Y-2.9284
X5.604Y-2.374
X5.678Y-2.046
X5.826Y-1.912
X5.8362Y-2.8442
X5.8701Y-2.8801
X5.886Y-3.943
X6.012Y-1.97
X6.136Y-2.72
X6.136Y-2.802
X6.204Y-3.943
X6.366Y-1.69
X6.4297Y-2.2652
X6.52Y-3.943
X6.5772Y-2.6677
X6.836Y-3.943
X7.51Y-3.812
T2
X6.6258Y-2.8356
X6.6791Y-2.9484
X6.7618Y-2.9484
X6.8695Y-2.9484
X7.0008Y-2.947
X7.1644Y-1.8325
X7.2778Y-1.833
X7.3486Y-1.8355
X7.3486Y-1.9597
X7.3496Y-2.188
X7.3501Y-2.0766
T3
X5.36Y-1.7903
X5.41Y-1.6903
X5.46Y-1.7903
X5.51Y-1.6903
X5.56Y-1.7903
X5.61Y-1.6903
X5.66Y-1.7903
X5.71Y-1.6903
X5.76Y-1.7903
X5.81Y-1.6903
X5.86Y-1.7903
X5.91Y-1.6903
X5.96Y-1.7903
X6.01Y-1.6903
X6.06Y-1.7903
X6.11Y-1.6903
X6.16Y-1.7903
X6.21Y-1.6903
X6.26Y-1.7903
X6.31Y-1.6903
T4
X7.212Y-3.814
X7.212Y-3.914
X7.312Y-3.814
X7.312Y-3.914
X7.412Y-3.814
X7.412Y-3.914
T0
M30
