M48
INCH,TZ
T1C0.0120
T2C0.0157
T3C0.0315
T4C0.0400
%
G90
G05
T1
X50780Y-32920
X50940Y-39500
X52514Y-35310
X52520Y-35730
X52560Y-32920
X54100Y-35310
X54100Y-35730
X54100Y-39500
X54120Y-22600
X54570Y-35520
X54800Y-30620
X54800Y-29040
X54810Y-30940
X55120Y-35520
X55240Y-30620
X55240Y-29040
X55240Y-30960
X55600Y-29284
X55600Y-28824
X55700Y-39430
X55900Y-28824
X55900Y-29284
X56040Y-23740
X56780Y-20460
X58260Y-19120
X58362Y-28442
X58701Y-28801
X58860Y-39430
X60120Y-19700
X61360Y-27200
X61360Y-28020
X62040Y-39430
X63660Y-16900
X64297Y-22652
X65200Y-39430
X65772Y-26677
X68360Y-39430
X75100Y-38120
T2
X66258Y-28356
X66791Y-29484
X67618Y-29484
X68695Y-29484
X70008Y-29470
X71644Y-18325
X72778Y-18330
X73486Y-18355
X73486Y-19597
X73496Y-21880
X73501Y-20766
T3
X53600Y-17903
X54100Y-16903
X54600Y-17903
X55100Y-16903
X55600Y-17903
X56100Y-16903
X56600Y-17903
X57100Y-16903
X57600Y-17903
X58100Y-16903
X58600Y-17903
X59100Y-16903
X59600Y-17903
X60100Y-16903
X60600Y-17903
X61100Y-16903
X61600Y-17903
X62100Y-16903
X62600Y-17903
X63100Y-16903
T4
X72120Y-38140
X72120Y-39140
X73120Y-38140
X73120Y-39140
X74120Y-38140
X74120Y-39140
T0
M30
