G04 #@! TF.GenerationSoftware,KiCad,Pcbnew,5.1.5-52549c5~84~ubuntu18.04.1*
G04 #@! TF.CreationDate,2019-12-12T20:24:59-05:00*
G04 #@! TF.ProjectId,Shutdown_Sense,53687574-646f-4776-9e5f-53656e73652e,rev?*
G04 #@! TF.SameCoordinates,Original*
G04 #@! TF.FileFunction,Legend,Top*
G04 #@! TF.FilePolarity,Positive*
%FSLAX46Y46*%
G04 Gerber Fmt 4.6, Leading zero omitted, Abs format (unit mm)*
G04 Created by KiCad (PCBNEW 5.1.5-52549c5~84~ubuntu18.04.1) date 2019-12-12 20:24:59*
%MOMM*%
%LPD*%
G04 APERTURE LIST*
%ADD10C,0.150000*%
%ADD11C,0.152400*%
%ADD12C,0.200000*%
%ADD13C,0.100000*%
%ADD14C,0.300000*%
%ADD15C,0.120000*%
%ADD16C,0.500000*%
G04 APERTURE END LIST*
D10*
X175463200Y-77876400D02*
X179171600Y-77876400D01*
X174091600Y-79248000D02*
X175463200Y-77876400D01*
D11*
X176894821Y-90799582D02*
X177356663Y-90337740D01*
X177933965Y-91376884D02*
X177125742Y-90568661D01*
X178357320Y-90876555D02*
X178511267Y-90799582D01*
X178703701Y-90607147D01*
X178742188Y-90491687D01*
X178742188Y-90414713D01*
X178703701Y-90299253D01*
X178626727Y-90222279D01*
X178511267Y-90183793D01*
X178434293Y-90183793D01*
X178318833Y-90222279D01*
X178126399Y-90337740D01*
X178010938Y-90376227D01*
X177933965Y-90376227D01*
X177818504Y-90337740D01*
X177741531Y-90260766D01*
X177703044Y-90145306D01*
X177703044Y-90068332D01*
X177741531Y-89952872D01*
X177933965Y-89760438D01*
X178087912Y-89683464D01*
X179204030Y-90106819D02*
X178395806Y-89298596D01*
X179242516Y-89606490D01*
X178934622Y-88759781D01*
X179742845Y-89568004D01*
X180050739Y-89183135D02*
X180204687Y-89106162D01*
X180397121Y-88913728D01*
X180435607Y-88798267D01*
X180435607Y-88721294D01*
X180397121Y-88605833D01*
X180320147Y-88528860D01*
X180204687Y-88490373D01*
X180127713Y-88490373D01*
X180012253Y-88528860D01*
X179819818Y-88644320D01*
X179704358Y-88682807D01*
X179627384Y-88682807D01*
X179511924Y-88644320D01*
X179434950Y-88567346D01*
X179396464Y-88451886D01*
X179396464Y-88374912D01*
X179434950Y-88259452D01*
X179627384Y-88067018D01*
X179781332Y-87990044D01*
X173957704Y-91492344D02*
X173149481Y-90684121D01*
X174342572Y-91107476D02*
X173534349Y-90299253D01*
X174381059Y-90607147D01*
X174073165Y-89760438D01*
X174881388Y-90568661D01*
X175266256Y-90183793D02*
X174458033Y-89375569D01*
X174650467Y-89183135D01*
X174804414Y-89106162D01*
X174958361Y-89106162D01*
X175073822Y-89144649D01*
X175266256Y-89260109D01*
X175381716Y-89375569D01*
X175497177Y-89568004D01*
X175535664Y-89683464D01*
X175535664Y-89837411D01*
X175458690Y-89991358D01*
X175266256Y-90183793D01*
X169739757Y-90799582D02*
X169893704Y-90722608D01*
X169970678Y-90722608D01*
X170086138Y-90761095D01*
X170201599Y-90876555D01*
X170240086Y-90992016D01*
X170240086Y-91068989D01*
X170201599Y-91184450D01*
X169893704Y-91492344D01*
X169085481Y-90684121D01*
X169354889Y-90414713D01*
X169470349Y-90376227D01*
X169547323Y-90376227D01*
X169662783Y-90414713D01*
X169739757Y-90491687D01*
X169778244Y-90607147D01*
X169778244Y-90684121D01*
X169739757Y-90799582D01*
X169470349Y-91068989D01*
X170701927Y-90684121D02*
X169893704Y-89875898D01*
X170740414Y-90183793D01*
X170432520Y-89337083D01*
X171240743Y-90145306D01*
X171548637Y-89760438D02*
X171702584Y-89683464D01*
X171895018Y-89491030D01*
X171933505Y-89375569D01*
X171933505Y-89298596D01*
X171895018Y-89183135D01*
X171818045Y-89106162D01*
X171702584Y-89067675D01*
X171625611Y-89067675D01*
X171510150Y-89106162D01*
X171317716Y-89221622D01*
X171202256Y-89260109D01*
X171125282Y-89260109D01*
X171009822Y-89221622D01*
X170932848Y-89144649D01*
X170894361Y-89029188D01*
X170894361Y-88952215D01*
X170932848Y-88836754D01*
X171125282Y-88644320D01*
X171279230Y-88567346D01*
X166032904Y-91492344D02*
X165224681Y-90684121D01*
X166071391Y-90992016D01*
X165763497Y-90145306D01*
X166571720Y-90953529D01*
X167302969Y-90222279D02*
X166879614Y-89798924D01*
X166764154Y-89760438D01*
X166648693Y-89798924D01*
X166494746Y-89952872D01*
X166456259Y-90068332D01*
X167264482Y-90183793D02*
X167225995Y-90299253D01*
X167033561Y-90491687D01*
X166918101Y-90530174D01*
X166802641Y-90491687D01*
X166725667Y-90414713D01*
X166687180Y-90299253D01*
X166725667Y-90183793D01*
X166918101Y-89991358D01*
X166956588Y-89875898D01*
X167687837Y-89837411D02*
X167149022Y-89298596D01*
X166879614Y-89029188D02*
X166879614Y-89106162D01*
X166956588Y-89106162D01*
X166956588Y-89029188D01*
X166879614Y-89029188D01*
X166956588Y-89106162D01*
X167533890Y-88913728D02*
X168072705Y-89452543D01*
X167610864Y-88990701D02*
X167610864Y-88913728D01*
X167649350Y-88798267D01*
X167764811Y-88682807D01*
X167880271Y-88644320D01*
X167995732Y-88682807D01*
X168419087Y-89106162D01*
X169419744Y-88105505D02*
X168611521Y-87297282D01*
X168919415Y-86989387D01*
X169034876Y-86950900D01*
X169111849Y-86950900D01*
X169227310Y-86989387D01*
X169342770Y-87104848D01*
X169381257Y-87220308D01*
X169381257Y-87297282D01*
X169342770Y-87412742D01*
X169034876Y-87720637D01*
X170574348Y-86950900D02*
X170150993Y-86527545D01*
X170035533Y-86489059D01*
X169920072Y-86527545D01*
X169766125Y-86681493D01*
X169727638Y-86796953D01*
X170535861Y-86912414D02*
X170497374Y-87027874D01*
X170304940Y-87220308D01*
X170189480Y-87258795D01*
X170074020Y-87220308D01*
X169997046Y-87143334D01*
X169958559Y-87027874D01*
X169997046Y-86912414D01*
X170189480Y-86719979D01*
X170227967Y-86604519D01*
X171267111Y-86181164D02*
X171228624Y-86296625D01*
X171074677Y-86450572D01*
X170959216Y-86489059D01*
X170882243Y-86489059D01*
X170766782Y-86450572D01*
X170535861Y-86219651D01*
X170497374Y-86104190D01*
X170497374Y-86027217D01*
X170535861Y-85911756D01*
X170689809Y-85757809D01*
X170805269Y-85719322D01*
X171651979Y-85873270D02*
X170843756Y-85065047D01*
X171421058Y-85488401D02*
X171959873Y-85565375D01*
X171421058Y-85026560D02*
X171421058Y-85642349D01*
X173306912Y-84064389D02*
X173306912Y-84141363D01*
X173229938Y-84295310D01*
X173152964Y-84372284D01*
X172999017Y-84449258D01*
X172845070Y-84449258D01*
X172729610Y-84410771D01*
X172537175Y-84295310D01*
X172421715Y-84179850D01*
X172306255Y-83987416D01*
X172267768Y-83871955D01*
X172267768Y-83718008D01*
X172344741Y-83564061D01*
X172421715Y-83487087D01*
X172575662Y-83410114D01*
X172652636Y-83410114D01*
X173845727Y-83679521D02*
X173730267Y-83718008D01*
X173653293Y-83718008D01*
X173537833Y-83679521D01*
X173306912Y-83448600D01*
X173268425Y-83333140D01*
X173268425Y-83256166D01*
X173306912Y-83140706D01*
X173422372Y-83025246D01*
X173537833Y-82986759D01*
X173614806Y-82986759D01*
X173730267Y-83025246D01*
X173961188Y-83256166D01*
X173999674Y-83371627D01*
X173999674Y-83448600D01*
X173961188Y-83564061D01*
X173845727Y-83679521D01*
X173922701Y-82524917D02*
X174461516Y-83063732D01*
X173999674Y-82601891D02*
X173999674Y-82524917D01*
X174038161Y-82409457D01*
X174153622Y-82293996D01*
X174269082Y-82255509D01*
X174384542Y-82293996D01*
X174807897Y-82717351D01*
X174653950Y-81793668D02*
X175192766Y-82332483D01*
X174730924Y-81870641D02*
X174730924Y-81793668D01*
X174769411Y-81678207D01*
X174884871Y-81562747D01*
X175000331Y-81524260D01*
X175115792Y-81562747D01*
X175539147Y-81986102D01*
X176193423Y-81254852D02*
X176154936Y-81370313D01*
X176000989Y-81524260D01*
X175885528Y-81562747D01*
X175770068Y-81524260D01*
X175462173Y-81216365D01*
X175423686Y-81100905D01*
X175462173Y-80985444D01*
X175616120Y-80831497D01*
X175731581Y-80793010D01*
X175847041Y-80831497D01*
X175924015Y-80908471D01*
X175616120Y-81370313D01*
X176924672Y-80523603D02*
X176886185Y-80639063D01*
X176732238Y-80793010D01*
X176616778Y-80831497D01*
X176539804Y-80831497D01*
X176424343Y-80793010D01*
X176193423Y-80562090D01*
X176154936Y-80446629D01*
X176154936Y-80369656D01*
X176193423Y-80254195D01*
X176347370Y-80100248D01*
X176462830Y-80061761D01*
X176655264Y-79792353D02*
X176963159Y-79484459D01*
X176501317Y-79407485D02*
X177194080Y-80100248D01*
X177309540Y-80138735D01*
X177425001Y-80100248D01*
X177501974Y-80023274D01*
X177886842Y-79638406D02*
X177771382Y-79676893D01*
X177694408Y-79676893D01*
X177578948Y-79638406D01*
X177348027Y-79407485D01*
X177309540Y-79292025D01*
X177309540Y-79215051D01*
X177348027Y-79099591D01*
X177463487Y-78984130D01*
X177578948Y-78945643D01*
X177655921Y-78945643D01*
X177771382Y-78984130D01*
X178002303Y-79215051D01*
X178040790Y-79330512D01*
X178040790Y-79407485D01*
X178002303Y-79522946D01*
X177886842Y-79638406D01*
X178502631Y-79022617D02*
X177963816Y-78483802D01*
X178117763Y-78637749D02*
X178079276Y-78522289D01*
X178079276Y-78445315D01*
X178117763Y-78329854D01*
X178194737Y-78252881D01*
X162353772Y-90953529D02*
X162353772Y-91030502D01*
X162276799Y-91184450D01*
X162199825Y-91261423D01*
X162045878Y-91338397D01*
X161891931Y-91338397D01*
X161776470Y-91299910D01*
X161584036Y-91184450D01*
X161468576Y-91068989D01*
X161353115Y-90876555D01*
X161314628Y-90761095D01*
X161314628Y-90607147D01*
X161391602Y-90453200D01*
X161468576Y-90376227D01*
X161622523Y-90299253D01*
X161699497Y-90299253D01*
X162892588Y-90568661D02*
X162777127Y-90607147D01*
X162700154Y-90607147D01*
X162584693Y-90568661D01*
X162353772Y-90337740D01*
X162315286Y-90222279D01*
X162315286Y-90145306D01*
X162353772Y-90029845D01*
X162469233Y-89914385D01*
X162584693Y-89875898D01*
X162661667Y-89875898D01*
X162777127Y-89914385D01*
X163008048Y-90145306D01*
X163046535Y-90260766D01*
X163046535Y-90337740D01*
X163008048Y-90453200D01*
X162892588Y-90568661D01*
X162969561Y-89414056D02*
X163508377Y-89952872D01*
X163046535Y-89491030D02*
X163046535Y-89414056D01*
X163085022Y-89298596D01*
X163200482Y-89183135D01*
X163315943Y-89144649D01*
X163431403Y-89183135D01*
X163854758Y-89606490D01*
X163700811Y-88682807D02*
X164239626Y-89221622D01*
X163777784Y-88759781D02*
X163777784Y-88682807D01*
X163816271Y-88567346D01*
X163931732Y-88451886D01*
X164047192Y-88413399D01*
X164162653Y-88451886D01*
X164586007Y-88875241D01*
X165240283Y-88143992D02*
X165201796Y-88259452D01*
X165047849Y-88413399D01*
X164932389Y-88451886D01*
X164816928Y-88413399D01*
X164509034Y-88105505D01*
X164470547Y-87990044D01*
X164509034Y-87874584D01*
X164662981Y-87720637D01*
X164778442Y-87682150D01*
X164893902Y-87720637D01*
X164970876Y-87797610D01*
X164662981Y-88259452D01*
X165971533Y-87412742D02*
X165933046Y-87528203D01*
X165779099Y-87682150D01*
X165663638Y-87720637D01*
X165586665Y-87720637D01*
X165471204Y-87682150D01*
X165240283Y-87451229D01*
X165201796Y-87335768D01*
X165201796Y-87258795D01*
X165240283Y-87143334D01*
X165394231Y-86989387D01*
X165509691Y-86950900D01*
X165702125Y-86681493D02*
X166010020Y-86373598D01*
X165548178Y-86296625D02*
X166240940Y-86989387D01*
X166356401Y-87027874D01*
X166471861Y-86989387D01*
X166548835Y-86912414D01*
X166933703Y-86527545D02*
X166818243Y-86566032D01*
X166741269Y-86566032D01*
X166625809Y-86527545D01*
X166394888Y-86296625D01*
X166356401Y-86181164D01*
X166356401Y-86104190D01*
X166394888Y-85988730D01*
X166510348Y-85873270D01*
X166625809Y-85834783D01*
X166702782Y-85834783D01*
X166818243Y-85873270D01*
X167049163Y-86104190D01*
X167087650Y-86219651D01*
X167087650Y-86296625D01*
X167049163Y-86412085D01*
X166933703Y-86527545D01*
X167549492Y-85911756D02*
X167010677Y-85372941D01*
X167164624Y-85526888D02*
X167126137Y-85411428D01*
X167126137Y-85334454D01*
X167164624Y-85218994D01*
X167241598Y-85142020D01*
X167895873Y-84102876D02*
X167895873Y-84025903D01*
X167934360Y-83910442D01*
X168126794Y-83718008D01*
X168242255Y-83679521D01*
X168319228Y-83679521D01*
X168434689Y-83718008D01*
X168511662Y-83794982D01*
X168588636Y-83948929D01*
X168588636Y-84872613D01*
X169088964Y-84372284D01*
X170051135Y-83410114D02*
X169242912Y-82601891D01*
X169627780Y-82986759D02*
X170089622Y-82524917D01*
X170512977Y-82948272D02*
X169704753Y-82140049D01*
X169974161Y-81870641D02*
X171051792Y-82409457D01*
X170512977Y-81331826D01*
X171590607Y-81870641D02*
X170782384Y-81062418D01*
X170974818Y-80869984D01*
X171128766Y-80793010D01*
X171282713Y-80793010D01*
X171398173Y-80831497D01*
X171590607Y-80946958D01*
X171706068Y-81062418D01*
X171821528Y-81254852D01*
X171860015Y-81370313D01*
X171860015Y-81524260D01*
X171783041Y-81678207D01*
X171590607Y-81870641D01*
X157854104Y-91492344D02*
X157045881Y-90684121D01*
X157430749Y-91068989D02*
X157892591Y-90607147D01*
X158315946Y-91030502D02*
X157507723Y-90222279D01*
X157777131Y-89952872D02*
X158854761Y-90491687D01*
X158315946Y-89414056D01*
X159393577Y-89952872D02*
X158585354Y-89144649D01*
X158777788Y-88952215D01*
X158931735Y-88875241D01*
X159085682Y-88875241D01*
X159201143Y-88913728D01*
X159393577Y-89029188D01*
X159509037Y-89144649D01*
X159624498Y-89337083D01*
X159662984Y-89452543D01*
X159662984Y-89606490D01*
X159586011Y-89760438D01*
X159393577Y-89952872D01*
X153315949Y-91068989D02*
X153585357Y-90799582D01*
X154124172Y-91107476D02*
X153739304Y-91492344D01*
X152931081Y-90684121D01*
X153315949Y-90299253D01*
X154393580Y-90761095D02*
X154547527Y-90684121D01*
X154739961Y-90491687D01*
X154778448Y-90376227D01*
X154778448Y-90299253D01*
X154739961Y-90183793D01*
X154662988Y-90106819D01*
X154547527Y-90068332D01*
X154470554Y-90068332D01*
X154355093Y-90106819D01*
X154162659Y-90222279D01*
X154047199Y-90260766D01*
X153970225Y-90260766D01*
X153854765Y-90222279D01*
X153777791Y-90145306D01*
X153739304Y-90029845D01*
X153739304Y-89952872D01*
X153777791Y-89837411D01*
X153970225Y-89644977D01*
X154124172Y-89568004D01*
X154316606Y-89298596D02*
X154778448Y-88836754D01*
X155355750Y-89875898D02*
X154547527Y-89067675D01*
X155201803Y-88413399D02*
X155355750Y-88259452D01*
X155471211Y-88220965D01*
X155625158Y-88220965D01*
X155817592Y-88336426D01*
X156087000Y-88605833D01*
X156202460Y-88798267D01*
X156202460Y-88952215D01*
X156163973Y-89067675D01*
X156010026Y-89221622D01*
X155894566Y-89260109D01*
X155740618Y-89260109D01*
X155548184Y-89144649D01*
X155278777Y-88875241D01*
X155163316Y-88682807D01*
X155163316Y-88528860D01*
X155201803Y-88413399D01*
X156702789Y-88528860D02*
X155894566Y-87720637D01*
X156202460Y-87412742D01*
X156317921Y-87374255D01*
X156394894Y-87374255D01*
X156510355Y-87412742D01*
X156625815Y-87528203D01*
X156664302Y-87643663D01*
X156664302Y-87720637D01*
X156625815Y-87836097D01*
X156317921Y-88143992D01*
X158126801Y-87104848D02*
X157318578Y-86296625D01*
X157511012Y-86104190D01*
X157664959Y-86027217D01*
X157818906Y-86027217D01*
X157934367Y-86065704D01*
X158126801Y-86181164D01*
X158242261Y-86296625D01*
X158357722Y-86489059D01*
X158396209Y-86604519D01*
X158396209Y-86758466D01*
X158319235Y-86912414D01*
X158126801Y-87104848D01*
X158935024Y-86296625D02*
X158396209Y-85757809D01*
X158550156Y-85911756D02*
X158511669Y-85796296D01*
X158511669Y-85719322D01*
X158550156Y-85603862D01*
X158627129Y-85526888D01*
X159435352Y-85796296D02*
X158896537Y-85257481D01*
X158627129Y-84988073D02*
X158627129Y-85065047D01*
X158704103Y-85065047D01*
X158704103Y-84988073D01*
X158627129Y-84988073D01*
X158704103Y-85065047D01*
X159204432Y-84949586D02*
X159935681Y-85295967D01*
X159589300Y-84564718D01*
X160705417Y-84449258D02*
X160666930Y-84564718D01*
X160512983Y-84718665D01*
X160397523Y-84757152D01*
X160282062Y-84718665D01*
X159974168Y-84410771D01*
X159935681Y-84295310D01*
X159974168Y-84179850D01*
X160128115Y-84025903D01*
X160243575Y-83987416D01*
X160359036Y-84025903D01*
X160436010Y-84102876D01*
X160128115Y-84564718D01*
X161128772Y-84102876D02*
X160589957Y-83564061D01*
X160743904Y-83718008D02*
X160705417Y-83602548D01*
X160705417Y-83525574D01*
X160743904Y-83410114D01*
X160820878Y-83333140D01*
X149622957Y-90799582D02*
X149776904Y-90722608D01*
X149853878Y-90722608D01*
X149969338Y-90761095D01*
X150084799Y-90876555D01*
X150123286Y-90992016D01*
X150123286Y-91068989D01*
X150084799Y-91184450D01*
X149776904Y-91492344D01*
X148968681Y-90684121D01*
X149238089Y-90414713D01*
X149353549Y-90376227D01*
X149430523Y-90376227D01*
X149545983Y-90414713D01*
X149622957Y-90491687D01*
X149661444Y-90607147D01*
X149661444Y-90684121D01*
X149622957Y-90799582D01*
X149353549Y-91068989D01*
X149930852Y-89721951D02*
X150084799Y-89568004D01*
X150200259Y-89529517D01*
X150354206Y-89529517D01*
X150546641Y-89644977D01*
X150816048Y-89914385D01*
X150931509Y-90106819D01*
X150931509Y-90260766D01*
X150893022Y-90376227D01*
X150739075Y-90530174D01*
X150623614Y-90568661D01*
X150469667Y-90568661D01*
X150277233Y-90453200D01*
X150007825Y-90183793D01*
X149892365Y-89991358D01*
X149892365Y-89837411D01*
X149930852Y-89721951D01*
X150508154Y-89144649D02*
X150969995Y-88682807D01*
X151547298Y-89721951D02*
X150739075Y-88913728D01*
X151970653Y-89221622D02*
X152124600Y-89144649D01*
X152317034Y-88952215D01*
X152355521Y-88836754D01*
X152355521Y-88759781D01*
X152317034Y-88644320D01*
X152240060Y-88567346D01*
X152124600Y-88528860D01*
X152047626Y-88528860D01*
X151932166Y-88567346D01*
X151739732Y-88682807D01*
X151624271Y-88721294D01*
X151547298Y-88721294D01*
X151431837Y-88682807D01*
X151354864Y-88605833D01*
X151316377Y-88490373D01*
X151316377Y-88413399D01*
X151354864Y-88297939D01*
X151547298Y-88105505D01*
X151701245Y-88028531D01*
X146199372Y-90953529D02*
X146199372Y-91030502D01*
X146122399Y-91184450D01*
X146045425Y-91261423D01*
X145891478Y-91338397D01*
X145737531Y-91338397D01*
X145622070Y-91299910D01*
X145429636Y-91184450D01*
X145314176Y-91068989D01*
X145198715Y-90876555D01*
X145160228Y-90761095D01*
X145160228Y-90607147D01*
X145237202Y-90453200D01*
X145314176Y-90376227D01*
X145468123Y-90299253D01*
X145545097Y-90299253D01*
X146622727Y-90684121D02*
X146083912Y-90145306D01*
X146237859Y-90299253D02*
X146199372Y-90183793D01*
X146199372Y-90106819D01*
X146237859Y-89991358D01*
X146314833Y-89914385D01*
X147469437Y-89837411D02*
X147046082Y-89414056D01*
X146930622Y-89375569D01*
X146815161Y-89414056D01*
X146661214Y-89568004D01*
X146622727Y-89683464D01*
X147430950Y-89798924D02*
X147392464Y-89914385D01*
X147200030Y-90106819D01*
X147084569Y-90145306D01*
X146969109Y-90106819D01*
X146892135Y-90029845D01*
X146853648Y-89914385D01*
X146892135Y-89798924D01*
X147084569Y-89606490D01*
X147123056Y-89491030D01*
X147777332Y-89452543D02*
X147892792Y-89414056D01*
X148046739Y-89260109D01*
X148085226Y-89144649D01*
X148046739Y-89029188D01*
X148008253Y-88990701D01*
X147892792Y-88952215D01*
X147777332Y-88990701D01*
X147661871Y-89106162D01*
X147546411Y-89144649D01*
X147430950Y-89106162D01*
X147392464Y-89067675D01*
X147353977Y-88952215D01*
X147392464Y-88836754D01*
X147507924Y-88721294D01*
X147623384Y-88682807D01*
X148508581Y-88798267D02*
X147700358Y-87990044D01*
X148854962Y-88451886D02*
X148431607Y-88028531D01*
X148316147Y-87990044D01*
X148200687Y-88028531D01*
X148085226Y-88143992D01*
X148046739Y-88259452D01*
X148046739Y-88336426D01*
X149778646Y-87451229D02*
X149932593Y-87374255D01*
X150125027Y-87181821D01*
X150163514Y-87066361D01*
X150163514Y-86989387D01*
X150125027Y-86873927D01*
X150048054Y-86796953D01*
X149932593Y-86758466D01*
X149855620Y-86758466D01*
X149740159Y-86796953D01*
X149547725Y-86912414D01*
X149432265Y-86950900D01*
X149355291Y-86950900D01*
X149239831Y-86912414D01*
X149162857Y-86835440D01*
X149124370Y-86719979D01*
X149124370Y-86643006D01*
X149162857Y-86527545D01*
X149355291Y-86335111D01*
X149509238Y-86258138D01*
X150894763Y-86335111D02*
X150856277Y-86450572D01*
X150702329Y-86604519D01*
X150586869Y-86643006D01*
X150471409Y-86604519D01*
X150163514Y-86296625D01*
X150125027Y-86181164D01*
X150163514Y-86065704D01*
X150317461Y-85911756D01*
X150432922Y-85873270D01*
X150548382Y-85911756D01*
X150625356Y-85988730D01*
X150317461Y-86450572D01*
X150779303Y-85449915D02*
X151318118Y-85988730D01*
X150856277Y-85526888D02*
X150856277Y-85449915D01*
X150894763Y-85334454D01*
X151010224Y-85218994D01*
X151125684Y-85180507D01*
X151241145Y-85218994D01*
X151664500Y-85642349D01*
X151972394Y-85257481D02*
X152087855Y-85218994D01*
X152241802Y-85065047D01*
X152280289Y-84949586D01*
X152241802Y-84834126D01*
X152203315Y-84795639D01*
X152087855Y-84757152D01*
X151972394Y-84795639D01*
X151856934Y-84911099D01*
X151741473Y-84949586D01*
X151626013Y-84911099D01*
X151587526Y-84872613D01*
X151549039Y-84757152D01*
X151587526Y-84641692D01*
X151702986Y-84526231D01*
X151818447Y-84487744D01*
X152819104Y-84487744D02*
X152703644Y-84526231D01*
X152626670Y-84526231D01*
X152511210Y-84487744D01*
X152280289Y-84256824D01*
X152241802Y-84141363D01*
X152241802Y-84064389D01*
X152280289Y-83948929D01*
X152395749Y-83833469D01*
X152511210Y-83794982D01*
X152588183Y-83794982D01*
X152703644Y-83833469D01*
X152934564Y-84064389D01*
X152973051Y-84179850D01*
X152973051Y-84256824D01*
X152934564Y-84372284D01*
X152819104Y-84487744D01*
X153434893Y-83871955D02*
X152896078Y-83333140D01*
X153050025Y-83487087D02*
X153011538Y-83371627D01*
X153011538Y-83294653D01*
X153050025Y-83179193D01*
X153126999Y-83102219D01*
X141647357Y-90799582D02*
X141801304Y-90722608D01*
X141878278Y-90722608D01*
X141993738Y-90761095D01*
X142109199Y-90876555D01*
X142147686Y-90992016D01*
X142147686Y-91068989D01*
X142109199Y-91184450D01*
X141801304Y-91492344D01*
X140993081Y-90684121D01*
X141262489Y-90414713D01*
X141377949Y-90376227D01*
X141454923Y-90376227D01*
X141570383Y-90414713D01*
X141647357Y-90491687D01*
X141685844Y-90607147D01*
X141685844Y-90684121D01*
X141647357Y-90799582D01*
X141377949Y-91068989D01*
X142532554Y-90684121D02*
X142686501Y-90607147D01*
X142878935Y-90414713D01*
X142917422Y-90299253D01*
X142917422Y-90222279D01*
X142878935Y-90106819D01*
X142801961Y-90029845D01*
X142686501Y-89991358D01*
X142609527Y-89991358D01*
X142494067Y-90029845D01*
X142301633Y-90145306D01*
X142186172Y-90183793D01*
X142109199Y-90183793D01*
X141993738Y-90145306D01*
X141916765Y-90068332D01*
X141878278Y-89952872D01*
X141878278Y-89875898D01*
X141916765Y-89760438D01*
X142109199Y-89568004D01*
X142263146Y-89491030D01*
X143379264Y-89914385D02*
X142571041Y-89106162D01*
X142878935Y-88798267D01*
X142994395Y-88759781D01*
X143071369Y-88759781D01*
X143186830Y-88798267D01*
X143302290Y-88913728D01*
X143340777Y-89029188D01*
X143340777Y-89106162D01*
X143302290Y-89221622D01*
X142994395Y-89529517D01*
X144187487Y-89106162D02*
X143379264Y-88297939D01*
X143571698Y-88105505D01*
X143725645Y-88028531D01*
X143879592Y-88028531D01*
X143995053Y-88067018D01*
X144187487Y-88182478D01*
X144302947Y-88297939D01*
X144418407Y-88490373D01*
X144456894Y-88605833D01*
X144456894Y-88759781D01*
X144379921Y-88913728D01*
X144187487Y-89106162D01*
X137313949Y-91068989D02*
X137583357Y-90799582D01*
X138122172Y-91107476D02*
X137737304Y-91492344D01*
X136929081Y-90684121D01*
X137313949Y-90299253D01*
X138391580Y-90761095D02*
X138545527Y-90684121D01*
X138737961Y-90491687D01*
X138776448Y-90376227D01*
X138776448Y-90299253D01*
X138737961Y-90183793D01*
X138660988Y-90106819D01*
X138545527Y-90068332D01*
X138468554Y-90068332D01*
X138353093Y-90106819D01*
X138160659Y-90222279D01*
X138045199Y-90260766D01*
X137968225Y-90260766D01*
X137852765Y-90222279D01*
X137775791Y-90145306D01*
X137737304Y-90029845D01*
X137737304Y-89952872D01*
X137775791Y-89837411D01*
X137968225Y-89644977D01*
X138122172Y-89568004D01*
X138314606Y-89298596D02*
X138776448Y-88836754D01*
X139353750Y-89875898D02*
X138545527Y-89067675D01*
X139199803Y-88413399D02*
X139353750Y-88259452D01*
X139469211Y-88220965D01*
X139623158Y-88220965D01*
X139815592Y-88336426D01*
X140085000Y-88605833D01*
X140200460Y-88798267D01*
X140200460Y-88952215D01*
X140161973Y-89067675D01*
X140008026Y-89221622D01*
X139892566Y-89260109D01*
X139738618Y-89260109D01*
X139546184Y-89144649D01*
X139276777Y-88875241D01*
X139161316Y-88682807D01*
X139161316Y-88528860D01*
X139199803Y-88413399D01*
X140700789Y-88528860D02*
X139892566Y-87720637D01*
X140200460Y-87412742D01*
X140315921Y-87374255D01*
X140392894Y-87374255D01*
X140508355Y-87412742D01*
X140623815Y-87528203D01*
X140662302Y-87643663D01*
X140662302Y-87720637D01*
X140623815Y-87836097D01*
X140315921Y-88143992D01*
X133428523Y-90299253D02*
X133313063Y-90337740D01*
X133197602Y-90453200D01*
X133120628Y-90607147D01*
X133120628Y-90761095D01*
X133159115Y-90876555D01*
X133274576Y-91068989D01*
X133390036Y-91184450D01*
X133582470Y-91299910D01*
X133697931Y-91338397D01*
X133851878Y-91338397D01*
X134005825Y-91261423D01*
X134082799Y-91184450D01*
X134159772Y-91030502D01*
X134159772Y-90953529D01*
X133890365Y-90684121D01*
X133736417Y-90838068D01*
X134967995Y-90299253D02*
X134583127Y-90684121D01*
X133774904Y-89875898D01*
X134313720Y-89337083D02*
X135391350Y-89875898D01*
X134852535Y-88798267D01*
X135930166Y-89337083D02*
X135121943Y-88528860D01*
X135968653Y-88836754D01*
X135660758Y-87990044D01*
X136468981Y-88798267D01*
X136776876Y-88413399D02*
X136930823Y-88336426D01*
X137123257Y-88143992D01*
X137161744Y-88028531D01*
X137161744Y-87951557D01*
X137123257Y-87836097D01*
X137046283Y-87759123D01*
X136930823Y-87720637D01*
X136853849Y-87720637D01*
X136738389Y-87759123D01*
X136545955Y-87874584D01*
X136430494Y-87913071D01*
X136353521Y-87913071D01*
X136238060Y-87874584D01*
X136161087Y-87797610D01*
X136122600Y-87682150D01*
X136122600Y-87605176D01*
X136161087Y-87489716D01*
X136353521Y-87297282D01*
X136507468Y-87220308D01*
X129364523Y-90299253D02*
X129249063Y-90337740D01*
X129133602Y-90453200D01*
X129056628Y-90607147D01*
X129056628Y-90761095D01*
X129095115Y-90876555D01*
X129210576Y-91068989D01*
X129326036Y-91184450D01*
X129518470Y-91299910D01*
X129633931Y-91338397D01*
X129787878Y-91338397D01*
X129941825Y-91261423D01*
X130018799Y-91184450D01*
X130095772Y-91030502D01*
X130095772Y-90953529D01*
X129826365Y-90684121D01*
X129672417Y-90838068D01*
X130903995Y-90299253D02*
X130519127Y-90684121D01*
X129710904Y-89875898D01*
X130249720Y-89337083D02*
X131327350Y-89875898D01*
X130788535Y-88798267D01*
X132328007Y-88028531D02*
X132481955Y-87951557D01*
X132558928Y-87951557D01*
X132674389Y-87990044D01*
X132789849Y-88105505D01*
X132828336Y-88220965D01*
X132828336Y-88297939D01*
X132789849Y-88413399D01*
X132481955Y-88721294D01*
X131673732Y-87913071D01*
X131943139Y-87643663D01*
X132058600Y-87605176D01*
X132135573Y-87605176D01*
X132251034Y-87643663D01*
X132328007Y-87720637D01*
X132366494Y-87836097D01*
X132366494Y-87913071D01*
X132328007Y-88028531D01*
X132058600Y-88297939D01*
X133636559Y-87566689D02*
X133213204Y-87143334D01*
X133097744Y-87104848D01*
X132982283Y-87143334D01*
X132828336Y-87297282D01*
X132789849Y-87412742D01*
X133598072Y-87528203D02*
X133559585Y-87643663D01*
X133367151Y-87836097D01*
X133251691Y-87874584D01*
X133136231Y-87836097D01*
X133059257Y-87759123D01*
X133020770Y-87643663D01*
X133059257Y-87528203D01*
X133251691Y-87335768D01*
X133290178Y-87220308D01*
X133367151Y-86758466D02*
X133675046Y-86450572D01*
X133213204Y-86373598D02*
X133905967Y-87066361D01*
X134021427Y-87104848D01*
X134136888Y-87066361D01*
X134213861Y-86989387D01*
X133828993Y-86296625D02*
X134136888Y-85988730D01*
X133675046Y-85911756D02*
X134367809Y-86604519D01*
X134483269Y-86643006D01*
X134598729Y-86604519D01*
X134675703Y-86527545D01*
X135214518Y-85911756D02*
X135176032Y-86027217D01*
X135022084Y-86181164D01*
X134906624Y-86219651D01*
X134791163Y-86181164D01*
X134483269Y-85873270D01*
X134444782Y-85757809D01*
X134483269Y-85642349D01*
X134637216Y-85488401D01*
X134752677Y-85449915D01*
X134868137Y-85488401D01*
X134945111Y-85565375D01*
X134637216Y-86027217D01*
X135637873Y-85565375D02*
X135099058Y-85026560D01*
X135253005Y-85180507D02*
X135214518Y-85065047D01*
X135214518Y-84988073D01*
X135253005Y-84872613D01*
X135329979Y-84795639D01*
X135522413Y-84603205D02*
X136253662Y-84949586D01*
X135907281Y-84218337D02*
X136253662Y-84949586D01*
X136369123Y-85218994D01*
X136369123Y-85295967D01*
X136330636Y-85411428D01*
X137215833Y-83140706D02*
X136946425Y-83410114D01*
X137369780Y-83833469D02*
X136561557Y-83025246D01*
X136946425Y-82640377D01*
X137870108Y-82255509D02*
X138408924Y-82794325D01*
X137523727Y-82601891D02*
X137947082Y-83025246D01*
X138062542Y-83063732D01*
X138178003Y-83025246D01*
X138293463Y-82909785D01*
X138331950Y-82794325D01*
X138331950Y-82717351D01*
X138716818Y-82409457D02*
X138832279Y-82370970D01*
X138986226Y-82217022D01*
X139024713Y-82101562D01*
X138986226Y-81986102D01*
X138947739Y-81947615D01*
X138832279Y-81909128D01*
X138716818Y-81947615D01*
X138601358Y-82063075D01*
X138485897Y-82101562D01*
X138370437Y-82063075D01*
X138331950Y-82024588D01*
X138293463Y-81909128D01*
X138331950Y-81793668D01*
X138447411Y-81678207D01*
X138562871Y-81639720D01*
X139717475Y-81408799D02*
X139678989Y-81524260D01*
X139525041Y-81678207D01*
X139409581Y-81716694D01*
X139294120Y-81678207D01*
X138986226Y-81370313D01*
X138947739Y-81254852D01*
X138986226Y-81139392D01*
X139140173Y-80985444D01*
X139255634Y-80946958D01*
X139371094Y-80985444D01*
X139448068Y-81062418D01*
X139140173Y-81524260D01*
D10*
X187553600Y-40944800D02*
G75*
G02X191313143Y-44704343I0J-3759543D01*
G01*
X191313143Y-44704343D02*
X191313143Y-62738000D01*
D12*
X107387428Y-43001571D02*
X107387428Y-44073000D01*
X107316000Y-44287285D01*
X107173142Y-44430142D01*
X106958857Y-44501571D01*
X106816000Y-44501571D01*
X108744571Y-44501571D02*
X108744571Y-43715857D01*
X108673142Y-43573000D01*
X108530285Y-43501571D01*
X108244571Y-43501571D01*
X108101714Y-43573000D01*
X108744571Y-44430142D02*
X108601714Y-44501571D01*
X108244571Y-44501571D01*
X108101714Y-44430142D01*
X108030285Y-44287285D01*
X108030285Y-44144428D01*
X108101714Y-44001571D01*
X108244571Y-43930142D01*
X108601714Y-43930142D01*
X108744571Y-43858714D01*
X110101714Y-44430142D02*
X109958857Y-44501571D01*
X109673142Y-44501571D01*
X109530285Y-44430142D01*
X109458857Y-44358714D01*
X109387428Y-44215857D01*
X109387428Y-43787285D01*
X109458857Y-43644428D01*
X109530285Y-43573000D01*
X109673142Y-43501571D01*
X109958857Y-43501571D01*
X110101714Y-43573000D01*
X110744571Y-44501571D02*
X110744571Y-43001571D01*
X110887428Y-43930142D02*
X111316000Y-44501571D01*
X111316000Y-43501571D02*
X110744571Y-44073000D01*
X113887428Y-43073000D02*
X113744571Y-43001571D01*
X113530285Y-43001571D01*
X113316000Y-43073000D01*
X113173142Y-43215857D01*
X113101714Y-43358714D01*
X113030285Y-43644428D01*
X113030285Y-43858714D01*
X113101714Y-44144428D01*
X113173142Y-44287285D01*
X113316000Y-44430142D01*
X113530285Y-44501571D01*
X113673142Y-44501571D01*
X113887428Y-44430142D01*
X113958857Y-44358714D01*
X113958857Y-43858714D01*
X113673142Y-43858714D01*
X114601714Y-44501571D02*
X114601714Y-43501571D01*
X114601714Y-43787285D02*
X114673142Y-43644428D01*
X114744571Y-43573000D01*
X114887428Y-43501571D01*
X115030285Y-43501571D01*
X116101714Y-44430142D02*
X115958857Y-44501571D01*
X115673142Y-44501571D01*
X115530285Y-44430142D01*
X115458857Y-44287285D01*
X115458857Y-43715857D01*
X115530285Y-43573000D01*
X115673142Y-43501571D01*
X115958857Y-43501571D01*
X116101714Y-43573000D01*
X116173142Y-43715857D01*
X116173142Y-43858714D01*
X115458857Y-44001571D01*
X117387428Y-44430142D02*
X117244571Y-44501571D01*
X116958857Y-44501571D01*
X116816000Y-44430142D01*
X116744571Y-44287285D01*
X116744571Y-43715857D01*
X116816000Y-43573000D01*
X116958857Y-43501571D01*
X117244571Y-43501571D01*
X117387428Y-43573000D01*
X117458857Y-43715857D01*
X117458857Y-43858714D01*
X116744571Y-44001571D01*
X118101714Y-43501571D02*
X118101714Y-44501571D01*
X118101714Y-43644428D02*
X118173142Y-43573000D01*
X118316000Y-43501571D01*
X118530285Y-43501571D01*
X118673142Y-43573000D01*
X118744571Y-43715857D01*
X118744571Y-44501571D01*
X119458857Y-44501571D02*
X119458857Y-43001571D01*
X119458857Y-43573000D02*
X119601714Y-43501571D01*
X119887428Y-43501571D01*
X120030285Y-43573000D01*
X120101714Y-43644428D01*
X120173142Y-43787285D01*
X120173142Y-44215857D01*
X120101714Y-44358714D01*
X120030285Y-44430142D01*
X119887428Y-44501571D01*
X119601714Y-44501571D01*
X119458857Y-44430142D01*
X121387428Y-44430142D02*
X121244571Y-44501571D01*
X120958857Y-44501571D01*
X120816000Y-44430142D01*
X120744571Y-44287285D01*
X120744571Y-43715857D01*
X120816000Y-43573000D01*
X120958857Y-43501571D01*
X121244571Y-43501571D01*
X121387428Y-43573000D01*
X121458857Y-43715857D01*
X121458857Y-43858714D01*
X120744571Y-44001571D01*
X122101714Y-44501571D02*
X122101714Y-43501571D01*
X122101714Y-43787285D02*
X122173142Y-43644428D01*
X122244571Y-43573000D01*
X122387428Y-43501571D01*
X122530285Y-43501571D01*
X123673142Y-43501571D02*
X123673142Y-44715857D01*
X123601714Y-44858714D01*
X123530285Y-44930142D01*
X123387428Y-45001571D01*
X123173142Y-45001571D01*
X123030285Y-44930142D01*
X123673142Y-44430142D02*
X123530285Y-44501571D01*
X123244571Y-44501571D01*
X123101714Y-44430142D01*
X123030285Y-44358714D01*
X122958857Y-44215857D01*
X122958857Y-43787285D01*
X123030285Y-43644428D01*
X123101714Y-43573000D01*
X123244571Y-43501571D01*
X123530285Y-43501571D01*
X123673142Y-43573000D01*
X106423142Y-46880142D02*
X106637428Y-46951571D01*
X106994571Y-46951571D01*
X107137428Y-46880142D01*
X107208857Y-46808714D01*
X107280285Y-46665857D01*
X107280285Y-46523000D01*
X107208857Y-46380142D01*
X107137428Y-46308714D01*
X106994571Y-46237285D01*
X106708857Y-46165857D01*
X106566000Y-46094428D01*
X106494571Y-46023000D01*
X106423142Y-45880142D01*
X106423142Y-45737285D01*
X106494571Y-45594428D01*
X106566000Y-45523000D01*
X106708857Y-45451571D01*
X107066000Y-45451571D01*
X107280285Y-45523000D01*
X107923142Y-46951571D02*
X107923142Y-45451571D01*
X108566000Y-46951571D02*
X108566000Y-46165857D01*
X108494571Y-46023000D01*
X108351714Y-45951571D01*
X108137428Y-45951571D01*
X107994571Y-46023000D01*
X107923142Y-46094428D01*
X109923142Y-45951571D02*
X109923142Y-46951571D01*
X109280285Y-45951571D02*
X109280285Y-46737285D01*
X109351714Y-46880142D01*
X109494571Y-46951571D01*
X109708857Y-46951571D01*
X109851714Y-46880142D01*
X109923142Y-46808714D01*
X110423142Y-45951571D02*
X110994571Y-45951571D01*
X110637428Y-45451571D02*
X110637428Y-46737285D01*
X110708857Y-46880142D01*
X110851714Y-46951571D01*
X110994571Y-46951571D01*
X112137428Y-46951571D02*
X112137428Y-45451571D01*
X112137428Y-46880142D02*
X111994571Y-46951571D01*
X111708857Y-46951571D01*
X111566000Y-46880142D01*
X111494571Y-46808714D01*
X111423142Y-46665857D01*
X111423142Y-46237285D01*
X111494571Y-46094428D01*
X111566000Y-46023000D01*
X111708857Y-45951571D01*
X111994571Y-45951571D01*
X112137428Y-46023000D01*
X113066000Y-46951571D02*
X112923142Y-46880142D01*
X112851714Y-46808714D01*
X112780285Y-46665857D01*
X112780285Y-46237285D01*
X112851714Y-46094428D01*
X112923142Y-46023000D01*
X113066000Y-45951571D01*
X113280285Y-45951571D01*
X113423142Y-46023000D01*
X113494571Y-46094428D01*
X113566000Y-46237285D01*
X113566000Y-46665857D01*
X113494571Y-46808714D01*
X113423142Y-46880142D01*
X113280285Y-46951571D01*
X113066000Y-46951571D01*
X114066000Y-45951571D02*
X114351714Y-46951571D01*
X114637428Y-46237285D01*
X114923142Y-46951571D01*
X115208857Y-45951571D01*
X115780285Y-45951571D02*
X115780285Y-46951571D01*
X115780285Y-46094428D02*
X115851714Y-46023000D01*
X115994571Y-45951571D01*
X116208857Y-45951571D01*
X116351714Y-46023000D01*
X116423142Y-46165857D01*
X116423142Y-46951571D01*
X118208857Y-46880142D02*
X118423142Y-46951571D01*
X118780285Y-46951571D01*
X118923142Y-46880142D01*
X118994571Y-46808714D01*
X119066000Y-46665857D01*
X119066000Y-46523000D01*
X118994571Y-46380142D01*
X118923142Y-46308714D01*
X118780285Y-46237285D01*
X118494571Y-46165857D01*
X118351714Y-46094428D01*
X118280285Y-46023000D01*
X118208857Y-45880142D01*
X118208857Y-45737285D01*
X118280285Y-45594428D01*
X118351714Y-45523000D01*
X118494571Y-45451571D01*
X118851714Y-45451571D01*
X119066000Y-45523000D01*
X120280285Y-46880142D02*
X120137428Y-46951571D01*
X119851714Y-46951571D01*
X119708857Y-46880142D01*
X119637428Y-46737285D01*
X119637428Y-46165857D01*
X119708857Y-46023000D01*
X119851714Y-45951571D01*
X120137428Y-45951571D01*
X120280285Y-46023000D01*
X120351714Y-46165857D01*
X120351714Y-46308714D01*
X119637428Y-46451571D01*
X120994571Y-45951571D02*
X120994571Y-46951571D01*
X120994571Y-46094428D02*
X121066000Y-46023000D01*
X121208857Y-45951571D01*
X121423142Y-45951571D01*
X121566000Y-46023000D01*
X121637428Y-46165857D01*
X121637428Y-46951571D01*
X122280285Y-46880142D02*
X122423142Y-46951571D01*
X122708857Y-46951571D01*
X122851714Y-46880142D01*
X122923142Y-46737285D01*
X122923142Y-46665857D01*
X122851714Y-46523000D01*
X122708857Y-46451571D01*
X122494571Y-46451571D01*
X122351714Y-46380142D01*
X122280285Y-46237285D01*
X122280285Y-46165857D01*
X122351714Y-46023000D01*
X122494571Y-45951571D01*
X122708857Y-45951571D01*
X122851714Y-46023000D01*
X124137428Y-46880142D02*
X123994571Y-46951571D01*
X123708857Y-46951571D01*
X123566000Y-46880142D01*
X123494571Y-46737285D01*
X123494571Y-46165857D01*
X123566000Y-46023000D01*
X123708857Y-45951571D01*
X123994571Y-45951571D01*
X124137428Y-46023000D01*
X124208857Y-46165857D01*
X124208857Y-46308714D01*
X123494571Y-46451571D01*
X105566000Y-49401571D02*
X105066000Y-48687285D01*
X104708857Y-49401571D02*
X104708857Y-47901571D01*
X105280285Y-47901571D01*
X105423142Y-47973000D01*
X105494571Y-48044428D01*
X105566000Y-48187285D01*
X105566000Y-48401571D01*
X105494571Y-48544428D01*
X105423142Y-48615857D01*
X105280285Y-48687285D01*
X104708857Y-48687285D01*
X106780285Y-49330142D02*
X106637428Y-49401571D01*
X106351714Y-49401571D01*
X106208857Y-49330142D01*
X106137428Y-49187285D01*
X106137428Y-48615857D01*
X106208857Y-48473000D01*
X106351714Y-48401571D01*
X106637428Y-48401571D01*
X106780285Y-48473000D01*
X106851714Y-48615857D01*
X106851714Y-48758714D01*
X106137428Y-48901571D01*
X107351714Y-48401571D02*
X107708857Y-49401571D01*
X108066000Y-48401571D01*
X110566000Y-49401571D02*
X109708857Y-49401571D01*
X110137428Y-49401571D02*
X110137428Y-47901571D01*
X109994571Y-48115857D01*
X109851714Y-48258714D01*
X109708857Y-48330142D01*
X112708857Y-49901571D02*
X112708857Y-47758714D01*
X115708857Y-49401571D02*
X114851714Y-49401571D01*
X115280285Y-49401571D02*
X115280285Y-47901571D01*
X115137428Y-48115857D01*
X114994571Y-48258714D01*
X114851714Y-48330142D01*
X116280285Y-48044428D02*
X116351714Y-47973000D01*
X116494571Y-47901571D01*
X116851714Y-47901571D01*
X116994571Y-47973000D01*
X117066000Y-48044428D01*
X117137428Y-48187285D01*
X117137428Y-48330142D01*
X117066000Y-48544428D01*
X116208857Y-49401571D01*
X117137428Y-49401571D01*
X118851714Y-47830142D02*
X117566000Y-49758714D01*
X119637428Y-47901571D02*
X119780285Y-47901571D01*
X119923142Y-47973000D01*
X119994571Y-48044428D01*
X120066000Y-48187285D01*
X120137428Y-48473000D01*
X120137428Y-48830142D01*
X120066000Y-49115857D01*
X119994571Y-49258714D01*
X119923142Y-49330142D01*
X119780285Y-49401571D01*
X119637428Y-49401571D01*
X119494571Y-49330142D01*
X119423142Y-49258714D01*
X119351714Y-49115857D01*
X119280285Y-48830142D01*
X119280285Y-48473000D01*
X119351714Y-48187285D01*
X119423142Y-48044428D01*
X119494571Y-47973000D01*
X119637428Y-47901571D01*
X120637428Y-47901571D02*
X121637428Y-47901571D01*
X120994571Y-49401571D01*
X123280285Y-47830142D02*
X121994571Y-49758714D01*
X124566000Y-49401571D02*
X123708857Y-49401571D01*
X124137428Y-49401571D02*
X124137428Y-47901571D01*
X123994571Y-48115857D01*
X123851714Y-48258714D01*
X123708857Y-48330142D01*
X125280285Y-49401571D02*
X125566000Y-49401571D01*
X125708857Y-49330142D01*
X125780285Y-49258714D01*
X125923142Y-49044428D01*
X125994571Y-48758714D01*
X125994571Y-48187285D01*
X125923142Y-48044428D01*
X125851714Y-47973000D01*
X125708857Y-47901571D01*
X125423142Y-47901571D01*
X125280285Y-47973000D01*
X125208857Y-48044428D01*
X125137428Y-48187285D01*
X125137428Y-48544428D01*
X125208857Y-48687285D01*
X125280285Y-48758714D01*
X125423142Y-48830142D01*
X125708857Y-48830142D01*
X125851714Y-48758714D01*
X125923142Y-48687285D01*
X125994571Y-48544428D01*
X109316000Y-50351571D02*
X109601714Y-50351571D01*
X109744571Y-50423000D01*
X109887428Y-50565857D01*
X109958857Y-50851571D01*
X109958857Y-51351571D01*
X109887428Y-51637285D01*
X109744571Y-51780142D01*
X109601714Y-51851571D01*
X109316000Y-51851571D01*
X109173142Y-51780142D01*
X109030285Y-51637285D01*
X108958857Y-51351571D01*
X108958857Y-50851571D01*
X109030285Y-50565857D01*
X109173142Y-50423000D01*
X109316000Y-50351571D01*
X110601714Y-51065857D02*
X111101714Y-51065857D01*
X111316000Y-51851571D02*
X110601714Y-51851571D01*
X110601714Y-50351571D01*
X111316000Y-50351571D01*
X111958857Y-51851571D02*
X111958857Y-50351571D01*
X112458857Y-51423000D01*
X112958857Y-50351571D01*
X112958857Y-51851571D01*
X114816000Y-51280142D02*
X115958857Y-51280142D01*
X117815999Y-51851571D02*
X117815999Y-50351571D01*
X118315999Y-51423000D01*
X118815999Y-50351571D01*
X118815999Y-51851571D01*
X119530285Y-51851571D02*
X119530285Y-50351571D01*
X120387428Y-51851571D02*
X119744571Y-50994428D01*
X120387428Y-50351571D02*
X119530285Y-51208714D01*
X120816000Y-50351571D02*
X121316000Y-51851571D01*
X121816000Y-50351571D01*
D10*
X173634400Y-44755200D02*
X173634400Y-40949200D01*
X162509200Y-55930800D02*
X173634400Y-44755200D01*
X162534400Y-76555200D02*
X162509200Y-55930800D01*
X163534400Y-76555200D02*
X162534400Y-76555200D01*
X166534400Y-76555200D02*
X163534400Y-76555200D01*
X169265600Y-79248000D02*
X166534400Y-76555200D01*
X174091600Y-79248000D02*
X169265600Y-79248000D01*
X180902400Y-76155200D02*
X179171600Y-77876400D01*
X180902400Y-73155200D02*
X180902400Y-76155200D01*
X191313143Y-62738000D02*
X180902400Y-73155200D01*
D13*
X164364828Y-54487104D02*
X163983876Y-54487104D01*
X163945780Y-54868057D01*
X163983876Y-54829961D01*
X164060066Y-54791866D01*
X164250542Y-54791866D01*
X164326733Y-54829961D01*
X164364828Y-54868057D01*
X164402923Y-54944247D01*
X164402923Y-55134723D01*
X164364828Y-55210914D01*
X164326733Y-55249009D01*
X164250542Y-55287104D01*
X164060066Y-55287104D01*
X163983876Y-55249009D01*
X163945780Y-55210914D01*
X164631495Y-54487104D02*
X164898161Y-55287104D01*
X165164828Y-54487104D01*
X163983876Y-56587104D02*
X163983876Y-55787104D01*
X164364828Y-56053771D02*
X164364828Y-56587104D01*
X164364828Y-56129961D02*
X164402923Y-56091866D01*
X164479114Y-56053771D01*
X164593400Y-56053771D01*
X164669590Y-56091866D01*
X164707685Y-56168057D01*
X164707685Y-56587104D01*
X165431495Y-56587104D02*
X165431495Y-55787104D01*
X165431495Y-56549009D02*
X165355304Y-56587104D01*
X165202923Y-56587104D01*
X165126733Y-56549009D01*
X165088638Y-56510914D01*
X165050542Y-56434723D01*
X165050542Y-56206152D01*
X165088638Y-56129961D01*
X165126733Y-56091866D01*
X165202923Y-56053771D01*
X165355304Y-56053771D01*
X165431495Y-56091866D01*
X165812447Y-56587104D02*
X165812447Y-56053771D01*
X165812447Y-55787104D02*
X165774352Y-55825200D01*
X165812447Y-55863295D01*
X165850542Y-55825200D01*
X165812447Y-55787104D01*
X165812447Y-55863295D01*
X166536257Y-56549009D02*
X166460066Y-56587104D01*
X166307685Y-56587104D01*
X166231495Y-56549009D01*
X166193400Y-56510914D01*
X166155304Y-56434723D01*
X166155304Y-56206152D01*
X166193400Y-56129961D01*
X166231495Y-56091866D01*
X166307685Y-56053771D01*
X166460066Y-56053771D01*
X166536257Y-56091866D01*
X167221971Y-56587104D02*
X167221971Y-56168057D01*
X167183876Y-56091866D01*
X167107685Y-56053771D01*
X166955304Y-56053771D01*
X166879114Y-56091866D01*
X167221971Y-56549009D02*
X167145780Y-56587104D01*
X166955304Y-56587104D01*
X166879114Y-56549009D01*
X166841019Y-56472819D01*
X166841019Y-56396628D01*
X166879114Y-56320438D01*
X166955304Y-56282342D01*
X167145780Y-56282342D01*
X167221971Y-56244247D01*
X167488638Y-56053771D02*
X167793400Y-56053771D01*
X167602923Y-55787104D02*
X167602923Y-56472819D01*
X167641019Y-56549009D01*
X167717209Y-56587104D01*
X167793400Y-56587104D01*
X168174352Y-56587104D02*
X168098161Y-56549009D01*
X168060066Y-56510914D01*
X168021971Y-56434723D01*
X168021971Y-56206152D01*
X168060066Y-56129961D01*
X168098161Y-56091866D01*
X168174352Y-56053771D01*
X168288638Y-56053771D01*
X168364828Y-56091866D01*
X168402923Y-56129961D01*
X168441019Y-56206152D01*
X168441019Y-56434723D01*
X168402923Y-56510914D01*
X168364828Y-56549009D01*
X168288638Y-56587104D01*
X168174352Y-56587104D01*
X168783876Y-56587104D02*
X168783876Y-56053771D01*
X168783876Y-56206152D02*
X168821971Y-56129961D01*
X168860066Y-56091866D01*
X168936257Y-56053771D01*
X169012447Y-56053771D01*
X186500923Y-43603104D02*
X186043780Y-43603104D01*
X186272352Y-43603104D02*
X186272352Y-42803104D01*
X186196161Y-42917390D01*
X186119971Y-42993580D01*
X186043780Y-43031676D01*
X186805685Y-42879295D02*
X186843780Y-42841200D01*
X186919971Y-42803104D01*
X187110447Y-42803104D01*
X187186638Y-42841200D01*
X187224733Y-42879295D01*
X187262828Y-42955485D01*
X187262828Y-43031676D01*
X187224733Y-43145961D01*
X186767590Y-43603104D01*
X187262828Y-43603104D01*
X187491400Y-42803104D02*
X187758066Y-43603104D01*
X188024733Y-42803104D01*
X186081876Y-44903104D02*
X186081876Y-44103104D01*
X186462828Y-44369771D02*
X186462828Y-44903104D01*
X186462828Y-44445961D02*
X186500923Y-44407866D01*
X186577114Y-44369771D01*
X186691400Y-44369771D01*
X186767590Y-44407866D01*
X186805685Y-44484057D01*
X186805685Y-44903104D01*
X187529495Y-44903104D02*
X187529495Y-44103104D01*
X187529495Y-44865009D02*
X187453304Y-44903104D01*
X187300923Y-44903104D01*
X187224733Y-44865009D01*
X187186638Y-44826914D01*
X187148542Y-44750723D01*
X187148542Y-44522152D01*
X187186638Y-44445961D01*
X187224733Y-44407866D01*
X187300923Y-44369771D01*
X187453304Y-44369771D01*
X187529495Y-44407866D01*
X187910447Y-44903104D02*
X187910447Y-44369771D01*
X187910447Y-44103104D02*
X187872352Y-44141200D01*
X187910447Y-44179295D01*
X187948542Y-44141200D01*
X187910447Y-44103104D01*
X187910447Y-44179295D01*
X188634257Y-44865009D02*
X188558066Y-44903104D01*
X188405685Y-44903104D01*
X188329495Y-44865009D01*
X188291400Y-44826914D01*
X188253304Y-44750723D01*
X188253304Y-44522152D01*
X188291400Y-44445961D01*
X188329495Y-44407866D01*
X188405685Y-44369771D01*
X188558066Y-44369771D01*
X188634257Y-44407866D01*
X189319971Y-44903104D02*
X189319971Y-44484057D01*
X189281876Y-44407866D01*
X189205685Y-44369771D01*
X189053304Y-44369771D01*
X188977114Y-44407866D01*
X189319971Y-44865009D02*
X189243780Y-44903104D01*
X189053304Y-44903104D01*
X188977114Y-44865009D01*
X188939019Y-44788819D01*
X188939019Y-44712628D01*
X188977114Y-44636438D01*
X189053304Y-44598342D01*
X189243780Y-44598342D01*
X189319971Y-44560247D01*
X189586638Y-44369771D02*
X189891400Y-44369771D01*
X189700923Y-44103104D02*
X189700923Y-44788819D01*
X189739019Y-44865009D01*
X189815209Y-44903104D01*
X189891400Y-44903104D01*
X190272352Y-44903104D02*
X190196161Y-44865009D01*
X190158066Y-44826914D01*
X190119971Y-44750723D01*
X190119971Y-44522152D01*
X190158066Y-44445961D01*
X190196161Y-44407866D01*
X190272352Y-44369771D01*
X190386638Y-44369771D01*
X190462828Y-44407866D01*
X190500923Y-44445961D01*
X190539019Y-44522152D01*
X190539019Y-44750723D01*
X190500923Y-44826914D01*
X190462828Y-44865009D01*
X190386638Y-44903104D01*
X190272352Y-44903104D01*
X190881876Y-44903104D02*
X190881876Y-44369771D01*
X190881876Y-44522152D02*
X190919971Y-44445961D01*
X190958066Y-44407866D01*
X191034257Y-44369771D01*
X191110447Y-44369771D01*
D10*
X187553600Y-40949200D02*
X173614400Y-40949200D01*
D14*
X174637328Y-43209128D02*
X174637328Y-42351985D01*
X174637328Y-42780557D02*
X176137328Y-42780557D01*
X175923042Y-42637700D01*
X175780185Y-42494842D01*
X175708757Y-42351985D01*
X175994471Y-43780557D02*
X176065900Y-43851985D01*
X176137328Y-43994842D01*
X176137328Y-44351985D01*
X176065900Y-44494842D01*
X175994471Y-44566271D01*
X175851614Y-44637700D01*
X175708757Y-44637700D01*
X175494471Y-44566271D01*
X174637328Y-43709128D01*
X174637328Y-44637700D01*
X176137328Y-45066271D02*
X174637328Y-45566271D01*
X176137328Y-46066271D01*
X190640400Y-48082342D02*
X190711828Y-47939485D01*
X190711828Y-47725200D01*
X190640400Y-47510914D01*
X190497542Y-47368057D01*
X190354685Y-47296628D01*
X190068971Y-47225200D01*
X189854685Y-47225200D01*
X189568971Y-47296628D01*
X189426114Y-47368057D01*
X189283257Y-47510914D01*
X189211828Y-47725200D01*
X189211828Y-47868057D01*
X189283257Y-48082342D01*
X189354685Y-48153771D01*
X189854685Y-48153771D01*
X189854685Y-47868057D01*
X189211828Y-48796628D02*
X190711828Y-48796628D01*
X189211828Y-49653771D01*
X190711828Y-49653771D01*
X189211828Y-50368057D02*
X190711828Y-50368057D01*
X190711828Y-50725200D01*
X190640400Y-50939485D01*
X190497542Y-51082342D01*
X190354685Y-51153771D01*
X190068971Y-51225200D01*
X189854685Y-51225200D01*
X189568971Y-51153771D01*
X189426114Y-51082342D01*
X189283257Y-50939485D01*
X189211828Y-50725200D01*
X189211828Y-50368057D01*
X169284685Y-52721771D02*
X168570400Y-52721771D01*
X168498971Y-53436057D01*
X168570400Y-53364628D01*
X168713257Y-53293200D01*
X169070400Y-53293200D01*
X169213257Y-53364628D01*
X169284685Y-53436057D01*
X169356114Y-53578914D01*
X169356114Y-53936057D01*
X169284685Y-54078914D01*
X169213257Y-54150342D01*
X169070400Y-54221771D01*
X168713257Y-54221771D01*
X168570400Y-54150342D01*
X168498971Y-54078914D01*
X169784685Y-52721771D02*
X170284685Y-54221771D01*
X170784685Y-52721771D01*
D10*
X163402971Y-75551657D02*
X163450590Y-75408800D01*
X163498209Y-75361180D01*
X163593447Y-75313561D01*
X163736304Y-75313561D01*
X163831542Y-75361180D01*
X163879161Y-75408800D01*
X163926780Y-75504038D01*
X163926780Y-75884990D01*
X162926780Y-75884990D01*
X162926780Y-75551657D01*
X162974400Y-75456419D01*
X163022019Y-75408800D01*
X163117257Y-75361180D01*
X163212495Y-75361180D01*
X163307733Y-75408800D01*
X163355352Y-75456419D01*
X163402971Y-75551657D01*
X163402971Y-75884990D01*
X163260114Y-74456419D02*
X163926780Y-74456419D01*
X163260114Y-74884990D02*
X163783923Y-74884990D01*
X163879161Y-74837371D01*
X163926780Y-74742133D01*
X163926780Y-74599276D01*
X163879161Y-74504038D01*
X163831542Y-74456419D01*
X163879161Y-73551657D02*
X163926780Y-73646895D01*
X163926780Y-73837371D01*
X163879161Y-73932609D01*
X163831542Y-73980228D01*
X163736304Y-74027847D01*
X163450590Y-74027847D01*
X163355352Y-73980228D01*
X163307733Y-73932609D01*
X163260114Y-73837371D01*
X163260114Y-73646895D01*
X163307733Y-73551657D01*
X163926780Y-73123085D02*
X162926780Y-73123085D01*
X163545828Y-73027847D02*
X163926780Y-72742133D01*
X163260114Y-72742133D02*
X163641066Y-73123085D01*
X163831542Y-70980228D02*
X163879161Y-71027847D01*
X163926780Y-71170704D01*
X163926780Y-71265942D01*
X163879161Y-71408800D01*
X163783923Y-71504038D01*
X163688685Y-71551657D01*
X163498209Y-71599276D01*
X163355352Y-71599276D01*
X163164876Y-71551657D01*
X163069638Y-71504038D01*
X162974400Y-71408800D01*
X162926780Y-71265942D01*
X162926780Y-71170704D01*
X162974400Y-71027847D01*
X163022019Y-70980228D01*
X163926780Y-70408800D02*
X163879161Y-70504038D01*
X163831542Y-70551657D01*
X163736304Y-70599276D01*
X163450590Y-70599276D01*
X163355352Y-70551657D01*
X163307733Y-70504038D01*
X163260114Y-70408800D01*
X163260114Y-70265942D01*
X163307733Y-70170704D01*
X163355352Y-70123085D01*
X163450590Y-70075466D01*
X163736304Y-70075466D01*
X163831542Y-70123085D01*
X163879161Y-70170704D01*
X163926780Y-70265942D01*
X163926780Y-70408800D01*
X163260114Y-69646895D02*
X163926780Y-69646895D01*
X163355352Y-69646895D02*
X163307733Y-69599276D01*
X163260114Y-69504038D01*
X163260114Y-69361180D01*
X163307733Y-69265942D01*
X163402971Y-69218323D01*
X163926780Y-69218323D01*
X163260114Y-68837371D02*
X163926780Y-68599276D01*
X163260114Y-68361180D01*
X163879161Y-67599276D02*
X163926780Y-67694514D01*
X163926780Y-67884990D01*
X163879161Y-67980228D01*
X163783923Y-68027847D01*
X163402971Y-68027847D01*
X163307733Y-67980228D01*
X163260114Y-67884990D01*
X163260114Y-67694514D01*
X163307733Y-67599276D01*
X163402971Y-67551657D01*
X163498209Y-67551657D01*
X163593447Y-68027847D01*
X163926780Y-67123085D02*
X163260114Y-67123085D01*
X163450590Y-67123085D02*
X163355352Y-67075466D01*
X163307733Y-67027847D01*
X163260114Y-66932609D01*
X163260114Y-66837371D01*
X163260114Y-66646895D02*
X163260114Y-66265942D01*
X162926780Y-66504038D02*
X163783923Y-66504038D01*
X163879161Y-66456419D01*
X163926780Y-66361180D01*
X163926780Y-66265942D01*
X163879161Y-65551657D02*
X163926780Y-65646895D01*
X163926780Y-65837371D01*
X163879161Y-65932609D01*
X163783923Y-65980228D01*
X163402971Y-65980228D01*
X163307733Y-65932609D01*
X163260114Y-65837371D01*
X163260114Y-65646895D01*
X163307733Y-65551657D01*
X163402971Y-65504038D01*
X163498209Y-65504038D01*
X163593447Y-65980228D01*
X163926780Y-65075466D02*
X163260114Y-65075466D01*
X163450590Y-65075466D02*
X163355352Y-65027847D01*
X163307733Y-64980228D01*
X163260114Y-64884990D01*
X163260114Y-64789752D01*
D15*
X144774264Y-99640800D02*
X144774264Y-96840800D01*
X146174264Y-99640800D02*
X146174264Y-96840800D01*
X144774264Y-99640800D02*
X146174264Y-99640800D01*
D13*
X145474264Y-98040800D02*
X145174264Y-97740800D01*
X145174264Y-97740800D02*
X145124264Y-97690800D01*
X145124264Y-97690800D02*
X145774264Y-97690800D01*
X145824264Y-97690800D02*
X145774264Y-97690800D01*
X145774264Y-97690800D02*
X145824264Y-97690800D01*
X145824264Y-97690800D02*
X145474264Y-98040800D01*
X145474264Y-98040800D02*
X145124264Y-98040800D01*
X145824264Y-98040800D02*
X145474264Y-98040800D01*
X137801600Y-58598000D02*
X137801600Y-60198000D01*
X137801600Y-58598000D02*
X139801600Y-58598000D01*
D10*
X146311800Y-50053000D02*
X144911800Y-50053000D01*
X146311800Y-55153000D02*
X150461800Y-55153000D01*
X146311800Y-50003000D02*
X150461800Y-50003000D01*
X146311800Y-55153000D02*
X146311800Y-55008000D01*
X150461800Y-55153000D02*
X150461800Y-55008000D01*
X150461800Y-50003000D02*
X150461800Y-50148000D01*
X146311800Y-50003000D02*
X146311800Y-50053000D01*
D15*
X178825600Y-42909600D02*
X180025600Y-42909600D01*
X180025600Y-44669600D02*
X178825600Y-44669600D01*
X135652400Y-77073200D02*
X135652400Y-78273200D01*
X133892400Y-78273200D02*
X133892400Y-77073200D01*
X132452000Y-84439200D02*
X132452000Y-85639200D01*
X130692000Y-85639200D02*
X130692000Y-84439200D01*
X131131200Y-77073200D02*
X131131200Y-78273200D01*
X129371200Y-78273200D02*
X129371200Y-77073200D01*
X127930800Y-84439200D02*
X127930800Y-85639200D01*
X126170800Y-85639200D02*
X126170800Y-84439200D01*
X145728800Y-73447200D02*
X145728800Y-72247200D01*
X147488800Y-72247200D02*
X147488800Y-73447200D01*
X154194400Y-51927200D02*
X154194400Y-53127200D01*
X152434400Y-53127200D02*
X152434400Y-51927200D01*
X149792800Y-70704000D02*
X149792800Y-69504000D01*
X151552800Y-69504000D02*
X151552800Y-70704000D01*
X134117200Y-80723200D02*
X134117200Y-82183200D01*
X130957200Y-80723200D02*
X130957200Y-82883200D01*
X130957200Y-80723200D02*
X131887200Y-80723200D01*
X134117200Y-80723200D02*
X133187200Y-80723200D01*
X129596000Y-80723200D02*
X129596000Y-82183200D01*
X126436000Y-80723200D02*
X126436000Y-82883200D01*
X126436000Y-80723200D02*
X127366000Y-80723200D01*
X129596000Y-80723200D02*
X128666000Y-80723200D01*
D10*
X184454800Y-95605600D02*
X181914800Y-95605600D01*
X181914800Y-95605600D02*
X181914800Y-98145600D01*
X181634800Y-100965600D02*
X183184800Y-100965600D01*
X189534800Y-95605600D02*
X184454800Y-95605600D01*
X189534800Y-100685600D02*
X189534800Y-95605600D01*
X184454800Y-98145600D02*
X184454800Y-100685600D01*
X181914800Y-98145600D02*
X184454800Y-98145600D01*
X181634800Y-100965600D02*
X181634800Y-99415600D01*
X184454800Y-100685600D02*
X189534800Y-100685600D01*
X151939200Y-58554200D02*
X151939200Y-57129200D01*
X152164200Y-65804200D02*
X152164200Y-65479200D01*
X144914200Y-65804200D02*
X144914200Y-65479200D01*
X144914200Y-58554200D02*
X144914200Y-58879200D01*
X152164200Y-58554200D02*
X152164200Y-58879200D01*
X144914200Y-58554200D02*
X145239200Y-58554200D01*
X144914200Y-65804200D02*
X145239200Y-65804200D01*
X152164200Y-65804200D02*
X151839200Y-65804200D01*
X152164200Y-58554200D02*
X151939200Y-58554200D01*
D16*
X152984200Y-57962800D02*
G75*
G03X152984200Y-57962800I-50800J0D01*
G01*
X151231600Y-59512200D02*
G75*
G03X151231600Y-59512200I-50800J0D01*
G01*
D15*
X140752598Y-99640800D02*
X140752598Y-96840800D01*
X142152598Y-99640800D02*
X142152598Y-96840800D01*
X140752598Y-99640800D02*
X142152598Y-99640800D01*
D13*
X141452598Y-98040800D02*
X141152598Y-97740800D01*
X141152598Y-97740800D02*
X141102598Y-97690800D01*
X141102598Y-97690800D02*
X141752598Y-97690800D01*
X141802598Y-97690800D02*
X141752598Y-97690800D01*
X141752598Y-97690800D02*
X141802598Y-97690800D01*
X141802598Y-97690800D02*
X141452598Y-98040800D01*
X141452598Y-98040800D02*
X141102598Y-98040800D01*
X141802598Y-98040800D02*
X141452598Y-98040800D01*
D15*
X148795930Y-99640800D02*
X148795930Y-96840800D01*
X150195930Y-99640800D02*
X150195930Y-96840800D01*
X148795930Y-99640800D02*
X150195930Y-99640800D01*
D13*
X149495930Y-98040800D02*
X149195930Y-97740800D01*
X149195930Y-97740800D02*
X149145930Y-97690800D01*
X149145930Y-97690800D02*
X149795930Y-97690800D01*
X149845930Y-97690800D02*
X149795930Y-97690800D01*
X149795930Y-97690800D02*
X149845930Y-97690800D01*
X149845930Y-97690800D02*
X149495930Y-98040800D01*
X149495930Y-98040800D02*
X149145930Y-98040800D01*
X149845930Y-98040800D02*
X149495930Y-98040800D01*
D15*
X152817596Y-99640800D02*
X152817596Y-96840800D01*
X154217596Y-99640800D02*
X154217596Y-96840800D01*
X152817596Y-99640800D02*
X154217596Y-99640800D01*
D13*
X153517596Y-98040800D02*
X153217596Y-97740800D01*
X153217596Y-97740800D02*
X153167596Y-97690800D01*
X153167596Y-97690800D02*
X153817596Y-97690800D01*
X153867596Y-97690800D02*
X153817596Y-97690800D01*
X153817596Y-97690800D02*
X153867596Y-97690800D01*
X153867596Y-97690800D02*
X153517596Y-98040800D01*
X153517596Y-98040800D02*
X153167596Y-98040800D01*
X153867596Y-98040800D02*
X153517596Y-98040800D01*
D15*
X156839262Y-99640800D02*
X156839262Y-96840800D01*
X158239262Y-99640800D02*
X158239262Y-96840800D01*
X156839262Y-99640800D02*
X158239262Y-99640800D01*
D13*
X157539262Y-98040800D02*
X157239262Y-97740800D01*
X157239262Y-97740800D02*
X157189262Y-97690800D01*
X157189262Y-97690800D02*
X157839262Y-97690800D01*
X157889262Y-97690800D02*
X157839262Y-97690800D01*
X157839262Y-97690800D02*
X157889262Y-97690800D01*
X157889262Y-97690800D02*
X157539262Y-98040800D01*
X157539262Y-98040800D02*
X157189262Y-98040800D01*
X157889262Y-98040800D02*
X157539262Y-98040800D01*
D15*
X136730932Y-99640800D02*
X136730932Y-96840800D01*
X138130932Y-99640800D02*
X138130932Y-96840800D01*
X136730932Y-99640800D02*
X138130932Y-99640800D01*
D13*
X137430932Y-98040800D02*
X137130932Y-97740800D01*
X137130932Y-97740800D02*
X137080932Y-97690800D01*
X137080932Y-97690800D02*
X137730932Y-97690800D01*
X137780932Y-97690800D02*
X137730932Y-97690800D01*
X137730932Y-97690800D02*
X137780932Y-97690800D01*
X137780932Y-97690800D02*
X137430932Y-98040800D01*
X137430932Y-98040800D02*
X137080932Y-98040800D01*
X137780932Y-98040800D02*
X137430932Y-98040800D01*
D15*
X132709266Y-99640800D02*
X132709266Y-96840800D01*
X134109266Y-99640800D02*
X134109266Y-96840800D01*
X132709266Y-99640800D02*
X134109266Y-99640800D01*
D13*
X133409266Y-98040800D02*
X133109266Y-97740800D01*
X133109266Y-97740800D02*
X133059266Y-97690800D01*
X133059266Y-97690800D02*
X133709266Y-97690800D01*
X133759266Y-97690800D02*
X133709266Y-97690800D01*
X133709266Y-97690800D02*
X133759266Y-97690800D01*
X133759266Y-97690800D02*
X133409266Y-98040800D01*
X133409266Y-98040800D02*
X133059266Y-98040800D01*
X133759266Y-98040800D02*
X133409266Y-98040800D01*
D15*
X160860928Y-99640800D02*
X160860928Y-96840800D01*
X162260928Y-99640800D02*
X162260928Y-96840800D01*
X160860928Y-99640800D02*
X162260928Y-99640800D01*
D13*
X161560928Y-98040800D02*
X161260928Y-97740800D01*
X161260928Y-97740800D02*
X161210928Y-97690800D01*
X161210928Y-97690800D02*
X161860928Y-97690800D01*
X161910928Y-97690800D02*
X161860928Y-97690800D01*
X161860928Y-97690800D02*
X161910928Y-97690800D01*
X161910928Y-97690800D02*
X161560928Y-98040800D01*
X161560928Y-98040800D02*
X161210928Y-98040800D01*
X161910928Y-98040800D02*
X161560928Y-98040800D01*
D15*
X164882594Y-99640800D02*
X164882594Y-96840800D01*
X166282594Y-99640800D02*
X166282594Y-96840800D01*
X164882594Y-99640800D02*
X166282594Y-99640800D01*
D13*
X165582594Y-98040800D02*
X165282594Y-97740800D01*
X165282594Y-97740800D02*
X165232594Y-97690800D01*
X165232594Y-97690800D02*
X165882594Y-97690800D01*
X165932594Y-97690800D02*
X165882594Y-97690800D01*
X165882594Y-97690800D02*
X165932594Y-97690800D01*
X165932594Y-97690800D02*
X165582594Y-98040800D01*
X165582594Y-98040800D02*
X165232594Y-98040800D01*
X165932594Y-98040800D02*
X165582594Y-98040800D01*
D15*
X168904260Y-99640800D02*
X168904260Y-96840800D01*
X170304260Y-99640800D02*
X170304260Y-96840800D01*
X168904260Y-99640800D02*
X170304260Y-99640800D01*
D13*
X169604260Y-98040800D02*
X169304260Y-97740800D01*
X169304260Y-97740800D02*
X169254260Y-97690800D01*
X169254260Y-97690800D02*
X169904260Y-97690800D01*
X169954260Y-97690800D02*
X169904260Y-97690800D01*
X169904260Y-97690800D02*
X169954260Y-97690800D01*
X169954260Y-97690800D02*
X169604260Y-98040800D01*
X169604260Y-98040800D02*
X169254260Y-98040800D01*
X169954260Y-98040800D02*
X169604260Y-98040800D01*
D15*
X172925926Y-99640800D02*
X172925926Y-96840800D01*
X174325926Y-99640800D02*
X174325926Y-96840800D01*
X172925926Y-99640800D02*
X174325926Y-99640800D01*
D13*
X173625926Y-98040800D02*
X173325926Y-97740800D01*
X173325926Y-97740800D02*
X173275926Y-97690800D01*
X173275926Y-97690800D02*
X173925926Y-97690800D01*
X173975926Y-97690800D02*
X173925926Y-97690800D01*
X173925926Y-97690800D02*
X173975926Y-97690800D01*
X173975926Y-97690800D02*
X173625926Y-98040800D01*
X173625926Y-98040800D02*
X173275926Y-98040800D01*
X173975926Y-98040800D02*
X173625926Y-98040800D01*
D15*
X176947600Y-99640800D02*
X176947600Y-96840800D01*
X178347600Y-99640800D02*
X178347600Y-96840800D01*
X176947600Y-99640800D02*
X178347600Y-99640800D01*
D13*
X177647600Y-98040800D02*
X177347600Y-97740800D01*
X177347600Y-97740800D02*
X177297600Y-97690800D01*
X177297600Y-97690800D02*
X177947600Y-97690800D01*
X177997600Y-97690800D02*
X177947600Y-97690800D01*
X177947600Y-97690800D02*
X177997600Y-97690800D01*
X177997600Y-97690800D02*
X177647600Y-98040800D01*
X177647600Y-98040800D02*
X177297600Y-98040800D01*
X177997600Y-98040800D02*
X177647600Y-98040800D01*
D15*
X128687600Y-99640800D02*
X128687600Y-96840800D01*
X130087600Y-99640800D02*
X130087600Y-96840800D01*
X128687600Y-99640800D02*
X130087600Y-99640800D01*
D13*
X129387600Y-98040800D02*
X129087600Y-97740800D01*
X129087600Y-97740800D02*
X129037600Y-97690800D01*
X129037600Y-97690800D02*
X129687600Y-97690800D01*
X129737600Y-97690800D02*
X129687600Y-97690800D01*
X129687600Y-97690800D02*
X129737600Y-97690800D01*
X129737600Y-97690800D02*
X129387600Y-98040800D01*
X129387600Y-98040800D02*
X129037600Y-98040800D01*
X129737600Y-98040800D02*
X129387600Y-98040800D01*
D15*
X145042000Y-49414800D02*
X146042000Y-49414800D01*
X146042000Y-47714800D02*
X145042000Y-47714800D01*
X140301600Y-56554000D02*
X139301600Y-56554000D01*
X139301600Y-58254000D02*
X140301600Y-58254000D01*
X137552800Y-60647200D02*
X137552800Y-59647200D01*
X135852800Y-59647200D02*
X135852800Y-60647200D01*
X153068400Y-69938000D02*
X154068400Y-69938000D01*
X154068400Y-68238000D02*
X153068400Y-68238000D01*
X153068400Y-72020800D02*
X154068400Y-72020800D01*
X154068400Y-70320800D02*
X153068400Y-70320800D01*
D10*
X133204000Y-41554000D02*
X133204000Y-46854000D01*
X163214000Y-41554000D02*
X163214000Y-46854000D01*
X133204000Y-41554000D02*
X163214000Y-41554000D01*
X133204000Y-46854000D02*
X163214000Y-46854000D01*
D13*
X183484900Y-43419700D02*
X183484900Y-43769700D01*
X183484900Y-43769700D02*
X183484900Y-44119700D01*
X183134900Y-43419700D02*
X183484900Y-43769700D01*
X183134900Y-43469700D02*
X183134900Y-43419700D01*
X183134900Y-43419700D02*
X183134900Y-43469700D01*
X183134900Y-44119700D02*
X183134900Y-43469700D01*
X183184900Y-44069700D02*
X183134900Y-44119700D01*
X183484900Y-43769700D02*
X183184900Y-44069700D01*
D15*
X185084900Y-44469700D02*
X185084900Y-43069700D01*
X185084900Y-43069700D02*
X182284900Y-43069700D01*
X185084900Y-44469700D02*
X182284900Y-44469700D01*
X180403900Y-62691500D02*
X181403900Y-62691500D01*
X181403900Y-60991500D02*
X180403900Y-60991500D01*
X180474400Y-54828000D02*
X181174400Y-54828000D01*
X181174400Y-56028000D02*
X180474400Y-56028000D01*
X181819100Y-56937300D02*
X180019100Y-56937300D01*
X180019100Y-60157300D02*
X182469100Y-60157300D01*
D10*
X170783900Y-63199000D02*
X175783900Y-63199000D01*
X170783900Y-71699000D02*
X170783900Y-63199000D01*
X175783900Y-71699000D02*
X170783900Y-71699000D01*
X175783900Y-63199000D02*
X175783900Y-71699000D01*
D15*
X180653900Y-66818000D02*
X180653900Y-64818000D01*
X178613900Y-64818000D02*
X178613900Y-66818000D01*
X175098820Y-56397900D02*
X175098820Y-61597900D01*
X171458820Y-61597900D02*
X171458820Y-56397900D01*
X184786180Y-60614120D02*
X184786180Y-61814120D01*
X183026180Y-61814120D02*
X183026180Y-60614120D01*
X168934900Y-56689700D02*
X170134900Y-56689700D01*
X170134900Y-58449700D02*
X168934900Y-58449700D01*
X178134400Y-66342000D02*
X178134400Y-65342000D01*
X176434400Y-65342000D02*
X176434400Y-66342000D01*
D13*
X165534900Y-57919700D02*
X165534900Y-57569700D01*
X165534900Y-57569700D02*
X165534900Y-57219700D01*
X165884900Y-57919700D02*
X165534900Y-57569700D01*
X165884900Y-57869700D02*
X165884900Y-57919700D01*
X165884900Y-57919700D02*
X165884900Y-57869700D01*
X165884900Y-57219700D02*
X165884900Y-57869700D01*
X165834900Y-57269700D02*
X165884900Y-57219700D01*
X165534900Y-57569700D02*
X165834900Y-57269700D01*
D15*
X163934900Y-56869700D02*
X163934900Y-58269700D01*
X163934900Y-58269700D02*
X166734900Y-58269700D01*
X163934900Y-56869700D02*
X166734900Y-56869700D01*
X183041420Y-57927920D02*
X183041420Y-56727920D01*
X184801420Y-56727920D02*
X184801420Y-57927920D01*
D12*
X179789400Y-49824000D02*
X178689400Y-48924000D01*
X179789400Y-48124000D02*
X179789400Y-49824000D01*
X178689400Y-48924000D02*
X179789400Y-48124000D01*
X178689400Y-48124000D02*
X178689400Y-49824000D01*
D15*
X176014400Y-47490500D02*
X176014400Y-50157500D01*
X176014400Y-50157500D02*
X179189400Y-50157500D01*
X176014400Y-47490500D02*
X179189400Y-47490500D01*
X181233720Y-52772060D02*
X180233720Y-52772060D01*
X180233720Y-54472060D02*
X181233720Y-54472060D01*
X175677400Y-54840500D02*
X175677400Y-52840500D01*
X178637400Y-52840500D02*
X178637400Y-54840500D01*
X130267600Y-92973600D02*
X130267600Y-94173600D01*
X128507600Y-94173600D02*
X128507600Y-92973600D01*
X176767600Y-94158400D02*
X176767600Y-92958400D01*
X178527600Y-92958400D02*
X178527600Y-94158400D01*
X174514400Y-92973600D02*
X174514400Y-94173600D01*
X172754400Y-94173600D02*
X172754400Y-92973600D01*
X168690400Y-94173600D02*
X168690400Y-92973600D01*
X170450400Y-92973600D02*
X170450400Y-94173600D01*
X166488000Y-92973600D02*
X166488000Y-94173600D01*
X164728000Y-94173600D02*
X164728000Y-92973600D01*
X160664000Y-94224400D02*
X160664000Y-93024400D01*
X162424000Y-93024400D02*
X162424000Y-94224400D01*
X158410800Y-92973600D02*
X158410800Y-94173600D01*
X156650800Y-94173600D02*
X156650800Y-92973600D01*
X152637600Y-94173600D02*
X152637600Y-92973600D01*
X154397600Y-92973600D02*
X154397600Y-94173600D01*
X150384400Y-92973600D02*
X150384400Y-94173600D01*
X148624400Y-94173600D02*
X148624400Y-92973600D01*
X144560400Y-94173600D02*
X144560400Y-92973600D01*
X146320400Y-92973600D02*
X146320400Y-94173600D01*
X140547200Y-94173600D02*
X140547200Y-92973600D01*
X142307200Y-92973600D02*
X142307200Y-94173600D01*
X134280800Y-92973600D02*
X134280800Y-94173600D01*
X132520800Y-94173600D02*
X132520800Y-92973600D01*
X136534000Y-94173600D02*
X136534000Y-92973600D01*
X138294000Y-92973600D02*
X138294000Y-94173600D01*
D10*
X144476644Y-99055085D02*
X143476644Y-99055085D01*
X143476644Y-98816990D01*
X143524264Y-98674133D01*
X143619502Y-98578895D01*
X143714740Y-98531276D01*
X143905216Y-98483657D01*
X144048073Y-98483657D01*
X144238549Y-98531276D01*
X144333787Y-98578895D01*
X144429025Y-98674133D01*
X144476644Y-98816990D01*
X144476644Y-99055085D01*
X144476644Y-97531276D02*
X144476644Y-98102704D01*
X144476644Y-97816990D02*
X143476644Y-97816990D01*
X143619502Y-97912228D01*
X143714740Y-98007466D01*
X143762359Y-98102704D01*
X143571883Y-97150323D02*
X143524264Y-97102704D01*
X143476644Y-97007466D01*
X143476644Y-96769371D01*
X143524264Y-96674133D01*
X143571883Y-96626514D01*
X143667121Y-96578895D01*
X143762359Y-96578895D01*
X143905216Y-96626514D01*
X144476644Y-97197942D01*
X144476644Y-96578895D01*
X139325409Y-62663390D02*
X139325409Y-63139580D01*
X138992076Y-62139580D02*
X139325409Y-62663390D01*
X139658742Y-62139580D01*
X140515885Y-63139580D02*
X139944457Y-63139580D01*
X140230171Y-63139580D02*
X140230171Y-62139580D01*
X140134933Y-62282438D01*
X140039695Y-62377676D01*
X139944457Y-62425295D01*
X147624895Y-48530380D02*
X147624895Y-49339904D01*
X147672514Y-49435142D01*
X147720133Y-49482761D01*
X147815371Y-49530380D01*
X148005847Y-49530380D01*
X148101085Y-49482761D01*
X148148704Y-49435142D01*
X148196323Y-49339904D01*
X148196323Y-48530380D01*
X148577276Y-48530380D02*
X149196323Y-48530380D01*
X148862990Y-48911333D01*
X149005847Y-48911333D01*
X149101085Y-48958952D01*
X149148704Y-49006571D01*
X149196323Y-49101809D01*
X149196323Y-49339904D01*
X149148704Y-49435142D01*
X149101085Y-49482761D01*
X149005847Y-49530380D01*
X148720133Y-49530380D01*
X148624895Y-49482761D01*
X148577276Y-49435142D01*
X178306552Y-42591980D02*
X177973219Y-42115790D01*
X177735123Y-42591980D02*
X177735123Y-41591980D01*
X178116076Y-41591980D01*
X178211314Y-41639600D01*
X178258933Y-41687219D01*
X178306552Y-41782457D01*
X178306552Y-41925314D01*
X178258933Y-42020552D01*
X178211314Y-42068171D01*
X178116076Y-42115790D01*
X177735123Y-42115790D01*
X179258933Y-42591980D02*
X178687504Y-42591980D01*
X178973219Y-42591980D02*
X178973219Y-41591980D01*
X178877980Y-41734838D01*
X178782742Y-41830076D01*
X178687504Y-41877695D01*
X179877980Y-41591980D02*
X179973219Y-41591980D01*
X180068457Y-41639600D01*
X180116076Y-41687219D01*
X180163695Y-41782457D01*
X180211314Y-41972933D01*
X180211314Y-42211028D01*
X180163695Y-42401504D01*
X180116076Y-42496742D01*
X180068457Y-42544361D01*
X179973219Y-42591980D01*
X179877980Y-42591980D01*
X179782742Y-42544361D01*
X179735123Y-42496742D01*
X179687504Y-42401504D01*
X179639885Y-42211028D01*
X179639885Y-41972933D01*
X179687504Y-41782457D01*
X179735123Y-41687219D01*
X179782742Y-41639600D01*
X179877980Y-41591980D01*
X181163695Y-42591980D02*
X180592266Y-42591980D01*
X180877980Y-42591980D02*
X180877980Y-41591980D01*
X180782742Y-41734838D01*
X180687504Y-41830076D01*
X180592266Y-41877695D01*
X136874780Y-78316057D02*
X136398590Y-78649390D01*
X136874780Y-78887485D02*
X135874780Y-78887485D01*
X135874780Y-78506533D01*
X135922400Y-78411295D01*
X135970019Y-78363676D01*
X136065257Y-78316057D01*
X136208114Y-78316057D01*
X136303352Y-78363676D01*
X136350971Y-78411295D01*
X136398590Y-78506533D01*
X136398590Y-78887485D01*
X135874780Y-77982723D02*
X135874780Y-77363676D01*
X136255733Y-77697009D01*
X136255733Y-77554152D01*
X136303352Y-77458914D01*
X136350971Y-77411295D01*
X136446209Y-77363676D01*
X136684304Y-77363676D01*
X136779542Y-77411295D01*
X136827161Y-77458914D01*
X136874780Y-77554152D01*
X136874780Y-77839866D01*
X136827161Y-77935104D01*
X136779542Y-77982723D01*
X136874780Y-76411295D02*
X136874780Y-76982723D01*
X136874780Y-76697009D02*
X135874780Y-76697009D01*
X136017638Y-76792247D01*
X136112876Y-76887485D01*
X136160495Y-76982723D01*
X130449580Y-85682057D02*
X129973390Y-86015390D01*
X130449580Y-86253485D02*
X129449580Y-86253485D01*
X129449580Y-85872533D01*
X129497200Y-85777295D01*
X129544819Y-85729676D01*
X129640057Y-85682057D01*
X129782914Y-85682057D01*
X129878152Y-85729676D01*
X129925771Y-85777295D01*
X129973390Y-85872533D01*
X129973390Y-86253485D01*
X129544819Y-85301104D02*
X129497200Y-85253485D01*
X129449580Y-85158247D01*
X129449580Y-84920152D01*
X129497200Y-84824914D01*
X129544819Y-84777295D01*
X129640057Y-84729676D01*
X129735295Y-84729676D01*
X129878152Y-84777295D01*
X130449580Y-85348723D01*
X130449580Y-84729676D01*
X130449580Y-84253485D02*
X130449580Y-84063009D01*
X130401961Y-83967771D01*
X130354342Y-83920152D01*
X130211485Y-83824914D01*
X130021009Y-83777295D01*
X129640057Y-83777295D01*
X129544819Y-83824914D01*
X129497200Y-83872533D01*
X129449580Y-83967771D01*
X129449580Y-84158247D01*
X129497200Y-84253485D01*
X129544819Y-84301104D01*
X129640057Y-84348723D01*
X129878152Y-84348723D01*
X129973390Y-84301104D01*
X130021009Y-84253485D01*
X130068628Y-84158247D01*
X130068628Y-83967771D01*
X130021009Y-83872533D01*
X129973390Y-83824914D01*
X129878152Y-83777295D01*
X132353580Y-78316057D02*
X131877390Y-78649390D01*
X132353580Y-78887485D02*
X131353580Y-78887485D01*
X131353580Y-78506533D01*
X131401200Y-78411295D01*
X131448819Y-78363676D01*
X131544057Y-78316057D01*
X131686914Y-78316057D01*
X131782152Y-78363676D01*
X131829771Y-78411295D01*
X131877390Y-78506533D01*
X131877390Y-78887485D01*
X131448819Y-77935104D02*
X131401200Y-77887485D01*
X131353580Y-77792247D01*
X131353580Y-77554152D01*
X131401200Y-77458914D01*
X131448819Y-77411295D01*
X131544057Y-77363676D01*
X131639295Y-77363676D01*
X131782152Y-77411295D01*
X132353580Y-77982723D01*
X132353580Y-77363676D01*
X131353580Y-77030342D02*
X131353580Y-76411295D01*
X131734533Y-76744628D01*
X131734533Y-76601771D01*
X131782152Y-76506533D01*
X131829771Y-76458914D01*
X131925009Y-76411295D01*
X132163104Y-76411295D01*
X132258342Y-76458914D01*
X132305961Y-76506533D01*
X132353580Y-76601771D01*
X132353580Y-76887485D01*
X132305961Y-76982723D01*
X132258342Y-77030342D01*
X125928380Y-85682057D02*
X125452190Y-86015390D01*
X125928380Y-86253485D02*
X124928380Y-86253485D01*
X124928380Y-85872533D01*
X124976000Y-85777295D01*
X125023619Y-85729676D01*
X125118857Y-85682057D01*
X125261714Y-85682057D01*
X125356952Y-85729676D01*
X125404571Y-85777295D01*
X125452190Y-85872533D01*
X125452190Y-86253485D01*
X125023619Y-85301104D02*
X124976000Y-85253485D01*
X124928380Y-85158247D01*
X124928380Y-84920152D01*
X124976000Y-84824914D01*
X125023619Y-84777295D01*
X125118857Y-84729676D01*
X125214095Y-84729676D01*
X125356952Y-84777295D01*
X125928380Y-85348723D01*
X125928380Y-84729676D01*
X125023619Y-84348723D02*
X124976000Y-84301104D01*
X124928380Y-84205866D01*
X124928380Y-83967771D01*
X124976000Y-83872533D01*
X125023619Y-83824914D01*
X125118857Y-83777295D01*
X125214095Y-83777295D01*
X125356952Y-83824914D01*
X125928380Y-84396342D01*
X125928380Y-83777295D01*
X145411180Y-73013866D02*
X144934990Y-73347200D01*
X145411180Y-73585295D02*
X144411180Y-73585295D01*
X144411180Y-73204342D01*
X144458800Y-73109104D01*
X144506419Y-73061485D01*
X144601657Y-73013866D01*
X144744514Y-73013866D01*
X144839752Y-73061485D01*
X144887371Y-73109104D01*
X144934990Y-73204342D01*
X144934990Y-73585295D01*
X144411180Y-72680533D02*
X144411180Y-72061485D01*
X144792133Y-72394819D01*
X144792133Y-72251961D01*
X144839752Y-72156723D01*
X144887371Y-72109104D01*
X144982609Y-72061485D01*
X145220704Y-72061485D01*
X145315942Y-72109104D01*
X145363561Y-72156723D01*
X145411180Y-72251961D01*
X145411180Y-72537676D01*
X145363561Y-72632914D01*
X145315942Y-72680533D01*
X155416780Y-52693866D02*
X154940590Y-53027200D01*
X155416780Y-53265295D02*
X154416780Y-53265295D01*
X154416780Y-52884342D01*
X154464400Y-52789104D01*
X154512019Y-52741485D01*
X154607257Y-52693866D01*
X154750114Y-52693866D01*
X154845352Y-52741485D01*
X154892971Y-52789104D01*
X154940590Y-52884342D01*
X154940590Y-53265295D01*
X154512019Y-52312914D02*
X154464400Y-52265295D01*
X154416780Y-52170057D01*
X154416780Y-51931961D01*
X154464400Y-51836723D01*
X154512019Y-51789104D01*
X154607257Y-51741485D01*
X154702495Y-51741485D01*
X154845352Y-51789104D01*
X155416780Y-52360533D01*
X155416780Y-51741485D01*
X149475180Y-70270666D02*
X148998990Y-70604000D01*
X149475180Y-70842095D02*
X148475180Y-70842095D01*
X148475180Y-70461142D01*
X148522800Y-70365904D01*
X148570419Y-70318285D01*
X148665657Y-70270666D01*
X148808514Y-70270666D01*
X148903752Y-70318285D01*
X148951371Y-70365904D01*
X148998990Y-70461142D01*
X148998990Y-70842095D01*
X149475180Y-69318285D02*
X149475180Y-69889714D01*
X149475180Y-69604000D02*
X148475180Y-69604000D01*
X148618038Y-69699238D01*
X148713276Y-69794476D01*
X148760895Y-69889714D01*
X135574019Y-81578438D02*
X135526400Y-81673676D01*
X135431161Y-81768914D01*
X135288304Y-81911771D01*
X135240685Y-82007009D01*
X135240685Y-82102247D01*
X135478780Y-82054628D02*
X135431161Y-82149866D01*
X135335923Y-82245104D01*
X135145447Y-82292723D01*
X134812114Y-82292723D01*
X134621638Y-82245104D01*
X134526400Y-82149866D01*
X134478780Y-82054628D01*
X134478780Y-81864152D01*
X134526400Y-81768914D01*
X134621638Y-81673676D01*
X134812114Y-81626057D01*
X135145447Y-81626057D01*
X135335923Y-81673676D01*
X135431161Y-81768914D01*
X135478780Y-81864152D01*
X135478780Y-82054628D01*
X134812114Y-80768914D02*
X135478780Y-80768914D01*
X134431161Y-81007009D02*
X135145447Y-81245104D01*
X135145447Y-80626057D01*
X126063619Y-81578438D02*
X126016000Y-81673676D01*
X125920761Y-81768914D01*
X125777904Y-81911771D01*
X125730285Y-82007009D01*
X125730285Y-82102247D01*
X125968380Y-82054628D02*
X125920761Y-82149866D01*
X125825523Y-82245104D01*
X125635047Y-82292723D01*
X125301714Y-82292723D01*
X125111238Y-82245104D01*
X125016000Y-82149866D01*
X124968380Y-82054628D01*
X124968380Y-81864152D01*
X125016000Y-81768914D01*
X125111238Y-81673676D01*
X125301714Y-81626057D01*
X125635047Y-81626057D01*
X125825523Y-81673676D01*
X125920761Y-81768914D01*
X125968380Y-81864152D01*
X125968380Y-82054628D01*
X124968380Y-81292723D02*
X124968380Y-80673676D01*
X125349333Y-81007009D01*
X125349333Y-80864152D01*
X125396952Y-80768914D01*
X125444571Y-80721295D01*
X125539809Y-80673676D01*
X125777904Y-80673676D01*
X125873142Y-80721295D01*
X125920761Y-80768914D01*
X125968380Y-80864152D01*
X125968380Y-81149866D01*
X125920761Y-81245104D01*
X125873142Y-81292723D01*
X180097180Y-97970933D02*
X180811466Y-97970933D01*
X180954323Y-98018552D01*
X181049561Y-98113790D01*
X181097180Y-98256647D01*
X181097180Y-98351885D01*
X180097180Y-97589980D02*
X180097180Y-96970933D01*
X180478133Y-97304266D01*
X180478133Y-97161409D01*
X180525752Y-97066171D01*
X180573371Y-97018552D01*
X180668609Y-96970933D01*
X180906704Y-96970933D01*
X181001942Y-97018552D01*
X181049561Y-97066171D01*
X181097180Y-97161409D01*
X181097180Y-97447123D01*
X181049561Y-97542361D01*
X181001942Y-97589980D01*
X155041580Y-63155390D02*
X154041580Y-63155390D01*
X154946342Y-62107771D02*
X154993961Y-62155390D01*
X155041580Y-62298247D01*
X155041580Y-62393485D01*
X154993961Y-62536342D01*
X154898723Y-62631580D01*
X154803485Y-62679200D01*
X154613009Y-62726819D01*
X154470152Y-62726819D01*
X154279676Y-62679200D01*
X154184438Y-62631580D01*
X154089200Y-62536342D01*
X154041580Y-62393485D01*
X154041580Y-62298247D01*
X154089200Y-62155390D01*
X154136819Y-62107771D01*
X155041580Y-61155390D02*
X155041580Y-61726819D01*
X155041580Y-61441104D02*
X154041580Y-61441104D01*
X154184438Y-61536342D01*
X154279676Y-61631580D01*
X154327295Y-61726819D01*
X140454978Y-99055085D02*
X139454978Y-99055085D01*
X139454978Y-98816990D01*
X139502598Y-98674133D01*
X139597836Y-98578895D01*
X139693074Y-98531276D01*
X139883550Y-98483657D01*
X140026407Y-98483657D01*
X140216883Y-98531276D01*
X140312121Y-98578895D01*
X140407359Y-98674133D01*
X140454978Y-98816990D01*
X140454978Y-99055085D01*
X140454978Y-97531276D02*
X140454978Y-98102704D01*
X140454978Y-97816990D02*
X139454978Y-97816990D01*
X139597836Y-97912228D01*
X139693074Y-98007466D01*
X139740693Y-98102704D01*
X139454978Y-97197942D02*
X139454978Y-96578895D01*
X139835931Y-96912228D01*
X139835931Y-96769371D01*
X139883550Y-96674133D01*
X139931169Y-96626514D01*
X140026407Y-96578895D01*
X140264502Y-96578895D01*
X140359740Y-96626514D01*
X140407359Y-96674133D01*
X140454978Y-96769371D01*
X140454978Y-97055085D01*
X140407359Y-97150323D01*
X140359740Y-97197942D01*
X148498310Y-99055085D02*
X147498310Y-99055085D01*
X147498310Y-98816990D01*
X147545930Y-98674133D01*
X147641168Y-98578895D01*
X147736406Y-98531276D01*
X147926882Y-98483657D01*
X148069739Y-98483657D01*
X148260215Y-98531276D01*
X148355453Y-98578895D01*
X148450691Y-98674133D01*
X148498310Y-98816990D01*
X148498310Y-99055085D01*
X148498310Y-97531276D02*
X148498310Y-98102704D01*
X148498310Y-97816990D02*
X147498310Y-97816990D01*
X147641168Y-97912228D01*
X147736406Y-98007466D01*
X147784025Y-98102704D01*
X148498310Y-96578895D02*
X148498310Y-97150323D01*
X148498310Y-96864609D02*
X147498310Y-96864609D01*
X147641168Y-96959847D01*
X147736406Y-97055085D01*
X147784025Y-97150323D01*
X152519976Y-99055085D02*
X151519976Y-99055085D01*
X151519976Y-98816990D01*
X151567596Y-98674133D01*
X151662834Y-98578895D01*
X151758072Y-98531276D01*
X151948548Y-98483657D01*
X152091405Y-98483657D01*
X152281881Y-98531276D01*
X152377119Y-98578895D01*
X152472357Y-98674133D01*
X152519976Y-98816990D01*
X152519976Y-99055085D01*
X152519976Y-97531276D02*
X152519976Y-98102704D01*
X152519976Y-97816990D02*
X151519976Y-97816990D01*
X151662834Y-97912228D01*
X151758072Y-98007466D01*
X151805691Y-98102704D01*
X151519976Y-96912228D02*
X151519976Y-96816990D01*
X151567596Y-96721752D01*
X151615215Y-96674133D01*
X151710453Y-96626514D01*
X151900929Y-96578895D01*
X152139024Y-96578895D01*
X152329500Y-96626514D01*
X152424738Y-96674133D01*
X152472357Y-96721752D01*
X152519976Y-96816990D01*
X152519976Y-96912228D01*
X152472357Y-97007466D01*
X152424738Y-97055085D01*
X152329500Y-97102704D01*
X152139024Y-97150323D01*
X151900929Y-97150323D01*
X151710453Y-97102704D01*
X151615215Y-97055085D01*
X151567596Y-97007466D01*
X151519976Y-96912228D01*
X156541642Y-98578895D02*
X155541642Y-98578895D01*
X155541642Y-98340800D01*
X155589262Y-98197942D01*
X155684500Y-98102704D01*
X155779738Y-98055085D01*
X155970214Y-98007466D01*
X156113071Y-98007466D01*
X156303547Y-98055085D01*
X156398785Y-98102704D01*
X156494023Y-98197942D01*
X156541642Y-98340800D01*
X156541642Y-98578895D01*
X156541642Y-97531276D02*
X156541642Y-97340800D01*
X156494023Y-97245561D01*
X156446404Y-97197942D01*
X156303547Y-97102704D01*
X156113071Y-97055085D01*
X155732119Y-97055085D01*
X155636881Y-97102704D01*
X155589262Y-97150323D01*
X155541642Y-97245561D01*
X155541642Y-97436038D01*
X155589262Y-97531276D01*
X155636881Y-97578895D01*
X155732119Y-97626514D01*
X155970214Y-97626514D01*
X156065452Y-97578895D01*
X156113071Y-97531276D01*
X156160690Y-97436038D01*
X156160690Y-97245561D01*
X156113071Y-97150323D01*
X156065452Y-97102704D01*
X155970214Y-97055085D01*
X136433312Y-98578895D02*
X135433312Y-98578895D01*
X135433312Y-98340800D01*
X135480932Y-98197942D01*
X135576170Y-98102704D01*
X135671408Y-98055085D01*
X135861884Y-98007466D01*
X136004741Y-98007466D01*
X136195217Y-98055085D01*
X136290455Y-98102704D01*
X136385693Y-98197942D01*
X136433312Y-98340800D01*
X136433312Y-98578895D01*
X135861884Y-97436038D02*
X135814265Y-97531276D01*
X135766646Y-97578895D01*
X135671408Y-97626514D01*
X135623789Y-97626514D01*
X135528551Y-97578895D01*
X135480932Y-97531276D01*
X135433312Y-97436038D01*
X135433312Y-97245561D01*
X135480932Y-97150323D01*
X135528551Y-97102704D01*
X135623789Y-97055085D01*
X135671408Y-97055085D01*
X135766646Y-97102704D01*
X135814265Y-97150323D01*
X135861884Y-97245561D01*
X135861884Y-97436038D01*
X135909503Y-97531276D01*
X135957122Y-97578895D01*
X136052360Y-97626514D01*
X136242836Y-97626514D01*
X136338074Y-97578895D01*
X136385693Y-97531276D01*
X136433312Y-97436038D01*
X136433312Y-97245561D01*
X136385693Y-97150323D01*
X136338074Y-97102704D01*
X136242836Y-97055085D01*
X136052360Y-97055085D01*
X135957122Y-97102704D01*
X135909503Y-97150323D01*
X135861884Y-97245561D01*
X132411646Y-98578895D02*
X131411646Y-98578895D01*
X131411646Y-98340800D01*
X131459266Y-98197942D01*
X131554504Y-98102704D01*
X131649742Y-98055085D01*
X131840218Y-98007466D01*
X131983075Y-98007466D01*
X132173551Y-98055085D01*
X132268789Y-98102704D01*
X132364027Y-98197942D01*
X132411646Y-98340800D01*
X132411646Y-98578895D01*
X131411646Y-97674133D02*
X131411646Y-97007466D01*
X132411646Y-97436038D01*
X160563308Y-98578895D02*
X159563308Y-98578895D01*
X159563308Y-98340800D01*
X159610928Y-98197942D01*
X159706166Y-98102704D01*
X159801404Y-98055085D01*
X159991880Y-98007466D01*
X160134737Y-98007466D01*
X160325213Y-98055085D01*
X160420451Y-98102704D01*
X160515689Y-98197942D01*
X160563308Y-98340800D01*
X160563308Y-98578895D01*
X159563308Y-97150323D02*
X159563308Y-97340800D01*
X159610928Y-97436038D01*
X159658547Y-97483657D01*
X159801404Y-97578895D01*
X159991880Y-97626514D01*
X160372832Y-97626514D01*
X160468070Y-97578895D01*
X160515689Y-97531276D01*
X160563308Y-97436038D01*
X160563308Y-97245561D01*
X160515689Y-97150323D01*
X160468070Y-97102704D01*
X160372832Y-97055085D01*
X160134737Y-97055085D01*
X160039499Y-97102704D01*
X159991880Y-97150323D01*
X159944261Y-97245561D01*
X159944261Y-97436038D01*
X159991880Y-97531276D01*
X160039499Y-97578895D01*
X160134737Y-97626514D01*
X164584974Y-98578895D02*
X163584974Y-98578895D01*
X163584974Y-98340800D01*
X163632594Y-98197942D01*
X163727832Y-98102704D01*
X163823070Y-98055085D01*
X164013546Y-98007466D01*
X164156403Y-98007466D01*
X164346879Y-98055085D01*
X164442117Y-98102704D01*
X164537355Y-98197942D01*
X164584974Y-98340800D01*
X164584974Y-98578895D01*
X163584974Y-97102704D02*
X163584974Y-97578895D01*
X164061165Y-97626514D01*
X164013546Y-97578895D01*
X163965927Y-97483657D01*
X163965927Y-97245561D01*
X164013546Y-97150323D01*
X164061165Y-97102704D01*
X164156403Y-97055085D01*
X164394498Y-97055085D01*
X164489736Y-97102704D01*
X164537355Y-97150323D01*
X164584974Y-97245561D01*
X164584974Y-97483657D01*
X164537355Y-97578895D01*
X164489736Y-97626514D01*
X168606640Y-98578895D02*
X167606640Y-98578895D01*
X167606640Y-98340800D01*
X167654260Y-98197942D01*
X167749498Y-98102704D01*
X167844736Y-98055085D01*
X168035212Y-98007466D01*
X168178069Y-98007466D01*
X168368545Y-98055085D01*
X168463783Y-98102704D01*
X168559021Y-98197942D01*
X168606640Y-98340800D01*
X168606640Y-98578895D01*
X167939974Y-97150323D02*
X168606640Y-97150323D01*
X167559021Y-97388419D02*
X168273307Y-97626514D01*
X168273307Y-97007466D01*
X172628306Y-98578895D02*
X171628306Y-98578895D01*
X171628306Y-98340800D01*
X171675926Y-98197942D01*
X171771164Y-98102704D01*
X171866402Y-98055085D01*
X172056878Y-98007466D01*
X172199735Y-98007466D01*
X172390211Y-98055085D01*
X172485449Y-98102704D01*
X172580687Y-98197942D01*
X172628306Y-98340800D01*
X172628306Y-98578895D01*
X171628306Y-97674133D02*
X171628306Y-97055085D01*
X172009259Y-97388419D01*
X172009259Y-97245561D01*
X172056878Y-97150323D01*
X172104497Y-97102704D01*
X172199735Y-97055085D01*
X172437830Y-97055085D01*
X172533068Y-97102704D01*
X172580687Y-97150323D01*
X172628306Y-97245561D01*
X172628306Y-97531276D01*
X172580687Y-97626514D01*
X172533068Y-97674133D01*
X176649980Y-98578895D02*
X175649980Y-98578895D01*
X175649980Y-98340800D01*
X175697600Y-98197942D01*
X175792838Y-98102704D01*
X175888076Y-98055085D01*
X176078552Y-98007466D01*
X176221409Y-98007466D01*
X176411885Y-98055085D01*
X176507123Y-98102704D01*
X176602361Y-98197942D01*
X176649980Y-98340800D01*
X176649980Y-98578895D01*
X175745219Y-97626514D02*
X175697600Y-97578895D01*
X175649980Y-97483657D01*
X175649980Y-97245561D01*
X175697600Y-97150323D01*
X175745219Y-97102704D01*
X175840457Y-97055085D01*
X175935695Y-97055085D01*
X176078552Y-97102704D01*
X176649980Y-97674133D01*
X176649980Y-97055085D01*
X128389980Y-98578895D02*
X127389980Y-98578895D01*
X127389980Y-98340800D01*
X127437600Y-98197942D01*
X127532838Y-98102704D01*
X127628076Y-98055085D01*
X127818552Y-98007466D01*
X127961409Y-98007466D01*
X128151885Y-98055085D01*
X128247123Y-98102704D01*
X128342361Y-98197942D01*
X128389980Y-98340800D01*
X128389980Y-98578895D01*
X128389980Y-97055085D02*
X128389980Y-97626514D01*
X128389980Y-97340800D02*
X127389980Y-97340800D01*
X127532838Y-97436038D01*
X127628076Y-97531276D01*
X127675695Y-97626514D01*
X142479733Y-48921942D02*
X142432114Y-48969561D01*
X142289257Y-49017180D01*
X142194019Y-49017180D01*
X142051161Y-48969561D01*
X141955923Y-48874323D01*
X141908304Y-48779085D01*
X141860685Y-48588609D01*
X141860685Y-48445752D01*
X141908304Y-48255276D01*
X141955923Y-48160038D01*
X142051161Y-48064800D01*
X142194019Y-48017180D01*
X142289257Y-48017180D01*
X142432114Y-48064800D01*
X142479733Y-48112419D01*
X142955923Y-49017180D02*
X143146400Y-49017180D01*
X143241638Y-48969561D01*
X143289257Y-48921942D01*
X143384495Y-48779085D01*
X143432114Y-48588609D01*
X143432114Y-48207657D01*
X143384495Y-48112419D01*
X143336876Y-48064800D01*
X143241638Y-48017180D01*
X143051161Y-48017180D01*
X142955923Y-48064800D01*
X142908304Y-48112419D01*
X142860685Y-48207657D01*
X142860685Y-48445752D01*
X142908304Y-48540990D01*
X142955923Y-48588609D01*
X143051161Y-48636228D01*
X143241638Y-48636228D01*
X143336876Y-48588609D01*
X143384495Y-48540990D01*
X143432114Y-48445752D01*
X137618742Y-57570666D02*
X137666361Y-57618285D01*
X137713980Y-57761142D01*
X137713980Y-57856380D01*
X137666361Y-57999238D01*
X137571123Y-58094476D01*
X137475885Y-58142095D01*
X137285409Y-58189714D01*
X137142552Y-58189714D01*
X136952076Y-58142095D01*
X136856838Y-58094476D01*
X136761600Y-57999238D01*
X136713980Y-57856380D01*
X136713980Y-57761142D01*
X136761600Y-57618285D01*
X136809219Y-57570666D01*
X137047314Y-56713523D02*
X137713980Y-56713523D01*
X136666361Y-56951619D02*
X137380647Y-57189714D01*
X137380647Y-56570666D01*
X135559942Y-60313866D02*
X135607561Y-60361485D01*
X135655180Y-60504342D01*
X135655180Y-60599580D01*
X135607561Y-60742438D01*
X135512323Y-60837676D01*
X135417085Y-60885295D01*
X135226609Y-60932914D01*
X135083752Y-60932914D01*
X134893276Y-60885295D01*
X134798038Y-60837676D01*
X134702800Y-60742438D01*
X134655180Y-60599580D01*
X134655180Y-60504342D01*
X134702800Y-60361485D01*
X134750419Y-60313866D01*
X134655180Y-59980533D02*
X134655180Y-59361485D01*
X135036133Y-59694819D01*
X135036133Y-59551961D01*
X135083752Y-59456723D01*
X135131371Y-59409104D01*
X135226609Y-59361485D01*
X135464704Y-59361485D01*
X135559942Y-59409104D01*
X135607561Y-59456723D01*
X135655180Y-59551961D01*
X135655180Y-59837676D01*
X135607561Y-59932914D01*
X135559942Y-59980533D01*
X153401733Y-67945142D02*
X153354114Y-67992761D01*
X153211257Y-68040380D01*
X153116019Y-68040380D01*
X152973161Y-67992761D01*
X152877923Y-67897523D01*
X152830304Y-67802285D01*
X152782685Y-67611809D01*
X152782685Y-67468952D01*
X152830304Y-67278476D01*
X152877923Y-67183238D01*
X152973161Y-67088000D01*
X153116019Y-67040380D01*
X153211257Y-67040380D01*
X153354114Y-67088000D01*
X153401733Y-67135619D01*
X153782685Y-67135619D02*
X153830304Y-67088000D01*
X153925542Y-67040380D01*
X154163638Y-67040380D01*
X154258876Y-67088000D01*
X154306495Y-67135619D01*
X154354114Y-67230857D01*
X154354114Y-67326095D01*
X154306495Y-67468952D01*
X153735066Y-68040380D01*
X154354114Y-68040380D01*
X153401733Y-73102742D02*
X153354114Y-73150361D01*
X153211257Y-73197980D01*
X153116019Y-73197980D01*
X152973161Y-73150361D01*
X152877923Y-73055123D01*
X152830304Y-72959885D01*
X152782685Y-72769409D01*
X152782685Y-72626552D01*
X152830304Y-72436076D01*
X152877923Y-72340838D01*
X152973161Y-72245600D01*
X153116019Y-72197980D01*
X153211257Y-72197980D01*
X153354114Y-72245600D01*
X153401733Y-72293219D01*
X154354114Y-73197980D02*
X153782685Y-73197980D01*
X154068400Y-73197980D02*
X154068400Y-72197980D01*
X153973161Y-72340838D01*
X153877923Y-72436076D01*
X153782685Y-72483695D01*
X163599880Y-46124833D02*
X164314166Y-46124833D01*
X164457023Y-46172452D01*
X164552261Y-46267690D01*
X164599880Y-46410547D01*
X164599880Y-46505785D01*
X163695119Y-45696261D02*
X163647500Y-45648642D01*
X163599880Y-45553404D01*
X163599880Y-45315309D01*
X163647500Y-45220071D01*
X163695119Y-45172452D01*
X163790357Y-45124833D01*
X163885595Y-45124833D01*
X164028452Y-45172452D01*
X164599880Y-45743880D01*
X164599880Y-45124833D01*
X131881619Y-46235904D02*
X131834000Y-46188285D01*
X131786380Y-46093047D01*
X131786380Y-45854952D01*
X131834000Y-45759714D01*
X131881619Y-45712095D01*
X131976857Y-45664476D01*
X132072095Y-45664476D01*
X132214952Y-45712095D01*
X132786380Y-46283523D01*
X132786380Y-45664476D01*
X131786380Y-45045428D02*
X131786380Y-44950190D01*
X131834000Y-44854952D01*
X131881619Y-44807333D01*
X131976857Y-44759714D01*
X132167333Y-44712095D01*
X132405428Y-44712095D01*
X132595904Y-44759714D01*
X132691142Y-44807333D01*
X132738761Y-44854952D01*
X132786380Y-44950190D01*
X132786380Y-45045428D01*
X132738761Y-45140666D01*
X132691142Y-45188285D01*
X132595904Y-45235904D01*
X132405428Y-45283523D01*
X132167333Y-45283523D01*
X131976857Y-45235904D01*
X131881619Y-45188285D01*
X131834000Y-45140666D01*
X131786380Y-45045428D01*
X164536380Y-42648285D02*
X164536380Y-43219714D01*
X164536380Y-42934000D02*
X163536380Y-42934000D01*
X163679238Y-43029238D01*
X163774476Y-43124476D01*
X163822095Y-43219714D01*
X182103923Y-42565580D02*
X182103923Y-41565580D01*
X182342019Y-41565580D01*
X182484876Y-41613200D01*
X182580114Y-41708438D01*
X182627733Y-41803676D01*
X182675352Y-41994152D01*
X182675352Y-42137009D01*
X182627733Y-42327485D01*
X182580114Y-42422723D01*
X182484876Y-42517961D01*
X182342019Y-42565580D01*
X182103923Y-42565580D01*
X183627733Y-42565580D02*
X183056304Y-42565580D01*
X183342019Y-42565580D02*
X183342019Y-41565580D01*
X183246780Y-41708438D01*
X183151542Y-41803676D01*
X183056304Y-41851295D01*
X184246780Y-41565580D02*
X184342019Y-41565580D01*
X184437257Y-41613200D01*
X184484876Y-41660819D01*
X184532495Y-41756057D01*
X184580114Y-41946533D01*
X184580114Y-42184628D01*
X184532495Y-42375104D01*
X184484876Y-42470342D01*
X184437257Y-42517961D01*
X184342019Y-42565580D01*
X184246780Y-42565580D01*
X184151542Y-42517961D01*
X184103923Y-42470342D01*
X184056304Y-42375104D01*
X184008685Y-42184628D01*
X184008685Y-41946533D01*
X184056304Y-41756057D01*
X184103923Y-41660819D01*
X184151542Y-41613200D01*
X184246780Y-41565580D01*
X184961066Y-41660819D02*
X185008685Y-41613200D01*
X185103923Y-41565580D01*
X185342019Y-41565580D01*
X185437257Y-41613200D01*
X185484876Y-41660819D01*
X185532495Y-41756057D01*
X185532495Y-41851295D01*
X185484876Y-41994152D01*
X184913447Y-42565580D01*
X185532495Y-42565580D01*
X178874185Y-62516128D02*
X178902757Y-62544700D01*
X178931328Y-62630414D01*
X178931328Y-62687557D01*
X178902757Y-62773271D01*
X178845614Y-62830414D01*
X178788471Y-62858985D01*
X178674185Y-62887557D01*
X178588471Y-62887557D01*
X178474185Y-62858985D01*
X178417042Y-62830414D01*
X178359900Y-62773271D01*
X178331328Y-62687557D01*
X178331328Y-62630414D01*
X178359900Y-62544700D01*
X178388471Y-62516128D01*
X178931328Y-61944700D02*
X178931328Y-62287557D01*
X178931328Y-62116128D02*
X178331328Y-62116128D01*
X178417042Y-62173271D01*
X178474185Y-62230414D01*
X178502757Y-62287557D01*
X178331328Y-61573271D02*
X178331328Y-61516128D01*
X178359900Y-61458985D01*
X178388471Y-61430414D01*
X178445614Y-61401842D01*
X178559900Y-61373271D01*
X178702757Y-61373271D01*
X178817042Y-61401842D01*
X178874185Y-61430414D01*
X178902757Y-61458985D01*
X178931328Y-61516128D01*
X178931328Y-61573271D01*
X178902757Y-61630414D01*
X178874185Y-61658985D01*
X178817042Y-61687557D01*
X178702757Y-61716128D01*
X178559900Y-61716128D01*
X178445614Y-61687557D01*
X178388471Y-61658985D01*
X178359900Y-61630414D01*
X178331328Y-61573271D01*
X178331328Y-61173271D02*
X178331328Y-60801842D01*
X178559900Y-61001842D01*
X178559900Y-60916128D01*
X178588471Y-60858985D01*
X178617042Y-60830414D01*
X178674185Y-60801842D01*
X178817042Y-60801842D01*
X178874185Y-60830414D01*
X178902757Y-60858985D01*
X178931328Y-60916128D01*
X178931328Y-61087557D01*
X178902757Y-61144700D01*
X178874185Y-61173271D01*
X179705352Y-54285142D02*
X179657733Y-54332761D01*
X179514876Y-54380380D01*
X179419638Y-54380380D01*
X179276780Y-54332761D01*
X179181542Y-54237523D01*
X179133923Y-54142285D01*
X179086304Y-53951809D01*
X179086304Y-53808952D01*
X179133923Y-53618476D01*
X179181542Y-53523238D01*
X179276780Y-53428000D01*
X179419638Y-53380380D01*
X179514876Y-53380380D01*
X179657733Y-53428000D01*
X179705352Y-53475619D01*
X180657733Y-54380380D02*
X180086304Y-54380380D01*
X180372019Y-54380380D02*
X180372019Y-53380380D01*
X180276780Y-53523238D01*
X180181542Y-53618476D01*
X180086304Y-53666095D01*
X181276780Y-53380380D02*
X181372019Y-53380380D01*
X181467257Y-53428000D01*
X181514876Y-53475619D01*
X181562495Y-53570857D01*
X181610114Y-53761333D01*
X181610114Y-53999428D01*
X181562495Y-54189904D01*
X181514876Y-54285142D01*
X181467257Y-54332761D01*
X181372019Y-54380380D01*
X181276780Y-54380380D01*
X181181542Y-54332761D01*
X181133923Y-54285142D01*
X181086304Y-54189904D01*
X181038685Y-53999428D01*
X181038685Y-53761333D01*
X181086304Y-53570857D01*
X181133923Y-53475619D01*
X181181542Y-53428000D01*
X181276780Y-53380380D01*
X181991066Y-53475619D02*
X182038685Y-53428000D01*
X182133923Y-53380380D01*
X182372019Y-53380380D01*
X182467257Y-53428000D01*
X182514876Y-53475619D01*
X182562495Y-53570857D01*
X182562495Y-53666095D01*
X182514876Y-53808952D01*
X181943447Y-54380380D01*
X182562495Y-54380380D01*
X175395614Y-56447080D02*
X175395614Y-57256604D01*
X175443233Y-57351842D01*
X175490852Y-57399461D01*
X175586090Y-57447080D01*
X175776566Y-57447080D01*
X175871804Y-57399461D01*
X175919423Y-57351842D01*
X175967042Y-57256604D01*
X175967042Y-56447080D01*
X176967042Y-57447080D02*
X176395614Y-57447080D01*
X176681328Y-57447080D02*
X176681328Y-56447080D01*
X176586090Y-56589938D01*
X176490852Y-56685176D01*
X176395614Y-56732795D01*
X177586090Y-56447080D02*
X177681328Y-56447080D01*
X177776566Y-56494700D01*
X177824185Y-56542319D01*
X177871804Y-56637557D01*
X177919423Y-56828033D01*
X177919423Y-57066128D01*
X177871804Y-57256604D01*
X177824185Y-57351842D01*
X177776566Y-57399461D01*
X177681328Y-57447080D01*
X177586090Y-57447080D01*
X177490852Y-57399461D01*
X177443233Y-57351842D01*
X177395614Y-57256604D01*
X177347995Y-57066128D01*
X177347995Y-56828033D01*
X177395614Y-56637557D01*
X177443233Y-56542319D01*
X177490852Y-56494700D01*
X177586090Y-56447080D01*
X178871804Y-57447080D02*
X178300376Y-57447080D01*
X178586090Y-57447080D02*
X178586090Y-56447080D01*
X178490852Y-56589938D01*
X178395614Y-56685176D01*
X178300376Y-56732795D01*
X173592042Y-78242319D02*
X173639661Y-78289938D01*
X173687280Y-78432795D01*
X173687280Y-78528033D01*
X173639661Y-78670890D01*
X173544423Y-78766128D01*
X173449185Y-78813747D01*
X173258709Y-78861366D01*
X173115852Y-78861366D01*
X172925376Y-78813747D01*
X172830138Y-78766128D01*
X172734900Y-78670890D01*
X172687280Y-78528033D01*
X172687280Y-78432795D01*
X172734900Y-78289938D01*
X172782519Y-78242319D01*
X172687280Y-77623271D02*
X172687280Y-77432795D01*
X172734900Y-77337557D01*
X172830138Y-77242319D01*
X173020614Y-77194700D01*
X173353947Y-77194700D01*
X173544423Y-77242319D01*
X173639661Y-77337557D01*
X173687280Y-77432795D01*
X173687280Y-77623271D01*
X173639661Y-77718509D01*
X173544423Y-77813747D01*
X173353947Y-77861366D01*
X173020614Y-77861366D01*
X172830138Y-77813747D01*
X172734900Y-77718509D01*
X172687280Y-77623271D01*
X172687280Y-76766128D02*
X173496804Y-76766128D01*
X173592042Y-76718509D01*
X173639661Y-76670890D01*
X173687280Y-76575652D01*
X173687280Y-76385176D01*
X173639661Y-76289938D01*
X173592042Y-76242319D01*
X173496804Y-76194700D01*
X172687280Y-76194700D01*
X172687280Y-75861366D02*
X172687280Y-75289938D01*
X173687280Y-75575652D02*
X172687280Y-75575652D01*
X173687280Y-74432795D02*
X173687280Y-75004223D01*
X173687280Y-74718509D02*
X172687280Y-74718509D01*
X172830138Y-74813747D01*
X172925376Y-74908985D01*
X172972995Y-75004223D01*
X172687280Y-73813747D02*
X172687280Y-73718509D01*
X172734900Y-73623271D01*
X172782519Y-73575652D01*
X172877757Y-73528033D01*
X173068233Y-73480414D01*
X173306328Y-73480414D01*
X173496804Y-73528033D01*
X173592042Y-73575652D01*
X173639661Y-73623271D01*
X173687280Y-73718509D01*
X173687280Y-73813747D01*
X173639661Y-73908985D01*
X173592042Y-73956604D01*
X173496804Y-74004223D01*
X173306328Y-74051842D01*
X173068233Y-74051842D01*
X172877757Y-74004223D01*
X172782519Y-73956604D01*
X172734900Y-73908985D01*
X172687280Y-73813747D01*
X172782519Y-73099461D02*
X172734900Y-73051842D01*
X172687280Y-72956604D01*
X172687280Y-72718509D01*
X172734900Y-72623271D01*
X172782519Y-72575652D01*
X172877757Y-72528033D01*
X172972995Y-72528033D01*
X173115852Y-72575652D01*
X173687280Y-73147080D01*
X173687280Y-72528033D01*
X176115852Y-58872080D02*
X175639661Y-58872080D01*
X175639661Y-57872080D01*
X176972995Y-58872080D02*
X176401566Y-58872080D01*
X176687280Y-58872080D02*
X176687280Y-57872080D01*
X176592042Y-58014938D01*
X176496804Y-58110176D01*
X176401566Y-58157795D01*
X177592042Y-57872080D02*
X177687280Y-57872080D01*
X177782519Y-57919700D01*
X177830138Y-57967319D01*
X177877757Y-58062557D01*
X177925376Y-58253033D01*
X177925376Y-58491128D01*
X177877757Y-58681604D01*
X177830138Y-58776842D01*
X177782519Y-58824461D01*
X177687280Y-58872080D01*
X177592042Y-58872080D01*
X177496804Y-58824461D01*
X177449185Y-58776842D01*
X177401566Y-58681604D01*
X177353947Y-58491128D01*
X177353947Y-58253033D01*
X177401566Y-58062557D01*
X177449185Y-57967319D01*
X177496804Y-57919700D01*
X177592042Y-57872080D01*
X178877757Y-58872080D02*
X178306328Y-58872080D01*
X178592042Y-58872080D02*
X178592042Y-57872080D01*
X178496804Y-58014938D01*
X178401566Y-58110176D01*
X178306328Y-58157795D01*
X179992042Y-74492319D02*
X180039661Y-74539938D01*
X180087280Y-74682795D01*
X180087280Y-74778033D01*
X180039661Y-74920890D01*
X179944423Y-75016128D01*
X179849185Y-75063747D01*
X179658709Y-75111366D01*
X179515852Y-75111366D01*
X179325376Y-75063747D01*
X179230138Y-75016128D01*
X179134900Y-74920890D01*
X179087280Y-74778033D01*
X179087280Y-74682795D01*
X179134900Y-74539938D01*
X179182519Y-74492319D01*
X179087280Y-73873271D02*
X179087280Y-73682795D01*
X179134900Y-73587557D01*
X179230138Y-73492319D01*
X179420614Y-73444700D01*
X179753947Y-73444700D01*
X179944423Y-73492319D01*
X180039661Y-73587557D01*
X180087280Y-73682795D01*
X180087280Y-73873271D01*
X180039661Y-73968509D01*
X179944423Y-74063747D01*
X179753947Y-74111366D01*
X179420614Y-74111366D01*
X179230138Y-74063747D01*
X179134900Y-73968509D01*
X179087280Y-73873271D01*
X179087280Y-73016128D02*
X179896804Y-73016128D01*
X179992042Y-72968509D01*
X180039661Y-72920890D01*
X180087280Y-72825652D01*
X180087280Y-72635176D01*
X180039661Y-72539938D01*
X179992042Y-72492319D01*
X179896804Y-72444700D01*
X179087280Y-72444700D01*
X179087280Y-72111366D02*
X179087280Y-71539938D01*
X180087280Y-71825652D02*
X179087280Y-71825652D01*
X180087280Y-70682795D02*
X180087280Y-71254223D01*
X180087280Y-70968509D02*
X179087280Y-70968509D01*
X179230138Y-71063747D01*
X179325376Y-71158985D01*
X179372995Y-71254223D01*
X179087280Y-70063747D02*
X179087280Y-69968509D01*
X179134900Y-69873271D01*
X179182519Y-69825652D01*
X179277757Y-69778033D01*
X179468233Y-69730414D01*
X179706328Y-69730414D01*
X179896804Y-69778033D01*
X179992042Y-69825652D01*
X180039661Y-69873271D01*
X180087280Y-69968509D01*
X180087280Y-70063747D01*
X180039661Y-70158985D01*
X179992042Y-70206604D01*
X179896804Y-70254223D01*
X179706328Y-70301842D01*
X179468233Y-70301842D01*
X179277757Y-70254223D01*
X179182519Y-70206604D01*
X179134900Y-70158985D01*
X179087280Y-70063747D01*
X180087280Y-68778033D02*
X180087280Y-69349461D01*
X180087280Y-69063747D02*
X179087280Y-69063747D01*
X179230138Y-69158985D01*
X179325376Y-69254223D01*
X179372995Y-69349461D01*
X172720280Y-54146747D02*
X172244090Y-54480080D01*
X172720280Y-54718176D02*
X171720280Y-54718176D01*
X171720280Y-54337223D01*
X171767900Y-54241985D01*
X171815519Y-54194366D01*
X171910757Y-54146747D01*
X172053614Y-54146747D01*
X172148852Y-54194366D01*
X172196471Y-54241985D01*
X172244090Y-54337223D01*
X172244090Y-54718176D01*
X172720280Y-53194366D02*
X172720280Y-53765795D01*
X172720280Y-53480080D02*
X171720280Y-53480080D01*
X171863138Y-53575319D01*
X171958376Y-53670557D01*
X172005995Y-53765795D01*
X171720280Y-52575319D02*
X171720280Y-52480080D01*
X171767900Y-52384842D01*
X171815519Y-52337223D01*
X171910757Y-52289604D01*
X172101233Y-52241985D01*
X172339328Y-52241985D01*
X172529804Y-52289604D01*
X172625042Y-52337223D01*
X172672661Y-52384842D01*
X172720280Y-52480080D01*
X172720280Y-52575319D01*
X172672661Y-52670557D01*
X172625042Y-52718176D01*
X172529804Y-52765795D01*
X172339328Y-52813414D01*
X172101233Y-52813414D01*
X171910757Y-52765795D01*
X171815519Y-52718176D01*
X171767900Y-52670557D01*
X171720280Y-52575319D01*
X172053614Y-51384842D02*
X172720280Y-51384842D01*
X171672661Y-51622938D02*
X172386947Y-51861033D01*
X172386947Y-51241985D01*
X186165852Y-61697080D02*
X185832519Y-61220890D01*
X185594423Y-61697080D02*
X185594423Y-60697080D01*
X185975376Y-60697080D01*
X186070614Y-60744700D01*
X186118233Y-60792319D01*
X186165852Y-60887557D01*
X186165852Y-61030414D01*
X186118233Y-61125652D01*
X186070614Y-61173271D01*
X185975376Y-61220890D01*
X185594423Y-61220890D01*
X187118233Y-61697080D02*
X186546804Y-61697080D01*
X186832519Y-61697080D02*
X186832519Y-60697080D01*
X186737280Y-60839938D01*
X186642042Y-60935176D01*
X186546804Y-60982795D01*
X187737280Y-60697080D02*
X187832519Y-60697080D01*
X187927757Y-60744700D01*
X187975376Y-60792319D01*
X188022995Y-60887557D01*
X188070614Y-61078033D01*
X188070614Y-61316128D01*
X188022995Y-61506604D01*
X187975376Y-61601842D01*
X187927757Y-61649461D01*
X187832519Y-61697080D01*
X187737280Y-61697080D01*
X187642042Y-61649461D01*
X187594423Y-61601842D01*
X187546804Y-61506604D01*
X187499185Y-61316128D01*
X187499185Y-61078033D01*
X187546804Y-60887557D01*
X187594423Y-60792319D01*
X187642042Y-60744700D01*
X187737280Y-60697080D01*
X188403947Y-60697080D02*
X189022995Y-60697080D01*
X188689661Y-61078033D01*
X188832519Y-61078033D01*
X188927757Y-61125652D01*
X188975376Y-61173271D01*
X189022995Y-61268509D01*
X189022995Y-61506604D01*
X188975376Y-61601842D01*
X188927757Y-61649461D01*
X188832519Y-61697080D01*
X188546804Y-61697080D01*
X188451566Y-61649461D01*
X188403947Y-61601842D01*
X169987280Y-62063747D02*
X169511090Y-62397080D01*
X169987280Y-62635176D02*
X168987280Y-62635176D01*
X168987280Y-62254223D01*
X169034900Y-62158985D01*
X169082519Y-62111366D01*
X169177757Y-62063747D01*
X169320614Y-62063747D01*
X169415852Y-62111366D01*
X169463471Y-62158985D01*
X169511090Y-62254223D01*
X169511090Y-62635176D01*
X169987280Y-61111366D02*
X169987280Y-61682795D01*
X169987280Y-61397080D02*
X168987280Y-61397080D01*
X169130138Y-61492319D01*
X169225376Y-61587557D01*
X169272995Y-61682795D01*
X168987280Y-60492319D02*
X168987280Y-60397080D01*
X169034900Y-60301842D01*
X169082519Y-60254223D01*
X169177757Y-60206604D01*
X169368233Y-60158985D01*
X169606328Y-60158985D01*
X169796804Y-60206604D01*
X169892042Y-60254223D01*
X169939661Y-60301842D01*
X169987280Y-60397080D01*
X169987280Y-60492319D01*
X169939661Y-60587557D01*
X169892042Y-60635176D01*
X169796804Y-60682795D01*
X169606328Y-60730414D01*
X169368233Y-60730414D01*
X169177757Y-60682795D01*
X169082519Y-60635176D01*
X169034900Y-60587557D01*
X168987280Y-60492319D01*
X168987280Y-59254223D02*
X168987280Y-59730414D01*
X169463471Y-59778033D01*
X169415852Y-59730414D01*
X169368233Y-59635176D01*
X169368233Y-59397080D01*
X169415852Y-59301842D01*
X169463471Y-59254223D01*
X169558709Y-59206604D01*
X169796804Y-59206604D01*
X169892042Y-59254223D01*
X169939661Y-59301842D01*
X169987280Y-59397080D01*
X169987280Y-59635176D01*
X169939661Y-59730414D01*
X169892042Y-59778033D01*
X177642042Y-74267319D02*
X177689661Y-74314938D01*
X177737280Y-74457795D01*
X177737280Y-74553033D01*
X177689661Y-74695890D01*
X177594423Y-74791128D01*
X177499185Y-74838747D01*
X177308709Y-74886366D01*
X177165852Y-74886366D01*
X176975376Y-74838747D01*
X176880138Y-74791128D01*
X176784900Y-74695890D01*
X176737280Y-74553033D01*
X176737280Y-74457795D01*
X176784900Y-74314938D01*
X176832519Y-74267319D01*
X176737280Y-73648271D02*
X176737280Y-73457795D01*
X176784900Y-73362557D01*
X176880138Y-73267319D01*
X177070614Y-73219700D01*
X177403947Y-73219700D01*
X177594423Y-73267319D01*
X177689661Y-73362557D01*
X177737280Y-73457795D01*
X177737280Y-73648271D01*
X177689661Y-73743509D01*
X177594423Y-73838747D01*
X177403947Y-73886366D01*
X177070614Y-73886366D01*
X176880138Y-73838747D01*
X176784900Y-73743509D01*
X176737280Y-73648271D01*
X176737280Y-72791128D02*
X177546804Y-72791128D01*
X177642042Y-72743509D01*
X177689661Y-72695890D01*
X177737280Y-72600652D01*
X177737280Y-72410176D01*
X177689661Y-72314938D01*
X177642042Y-72267319D01*
X177546804Y-72219700D01*
X176737280Y-72219700D01*
X176737280Y-71886366D02*
X176737280Y-71314938D01*
X177737280Y-71600652D02*
X176737280Y-71600652D01*
X177737280Y-70457795D02*
X177737280Y-71029223D01*
X177737280Y-70743509D02*
X176737280Y-70743509D01*
X176880138Y-70838747D01*
X176975376Y-70933985D01*
X177022995Y-71029223D01*
X176737280Y-69838747D02*
X176737280Y-69743509D01*
X176784900Y-69648271D01*
X176832519Y-69600652D01*
X176927757Y-69553033D01*
X177118233Y-69505414D01*
X177356328Y-69505414D01*
X177546804Y-69553033D01*
X177642042Y-69600652D01*
X177689661Y-69648271D01*
X177737280Y-69743509D01*
X177737280Y-69838747D01*
X177689661Y-69933985D01*
X177642042Y-69981604D01*
X177546804Y-70029223D01*
X177356328Y-70076842D01*
X177118233Y-70076842D01*
X176927757Y-70029223D01*
X176832519Y-69981604D01*
X176784900Y-69933985D01*
X176737280Y-69838747D01*
X176737280Y-69172080D02*
X176737280Y-68553033D01*
X177118233Y-68886366D01*
X177118233Y-68743509D01*
X177165852Y-68648271D01*
X177213471Y-68600652D01*
X177308709Y-68553033D01*
X177546804Y-68553033D01*
X177642042Y-68600652D01*
X177689661Y-68648271D01*
X177737280Y-68743509D01*
X177737280Y-69029223D01*
X177689661Y-69124461D01*
X177642042Y-69172080D01*
X166237280Y-62360176D02*
X165237280Y-62360176D01*
X165237280Y-62122080D01*
X165284900Y-61979223D01*
X165380138Y-61883985D01*
X165475376Y-61836366D01*
X165665852Y-61788747D01*
X165808709Y-61788747D01*
X165999185Y-61836366D01*
X166094423Y-61883985D01*
X166189661Y-61979223D01*
X166237280Y-62122080D01*
X166237280Y-62360176D01*
X166237280Y-60836366D02*
X166237280Y-61407795D01*
X166237280Y-61122080D02*
X165237280Y-61122080D01*
X165380138Y-61217319D01*
X165475376Y-61312557D01*
X165522995Y-61407795D01*
X165237280Y-60217319D02*
X165237280Y-60122080D01*
X165284900Y-60026842D01*
X165332519Y-59979223D01*
X165427757Y-59931604D01*
X165618233Y-59883985D01*
X165856328Y-59883985D01*
X166046804Y-59931604D01*
X166142042Y-59979223D01*
X166189661Y-60026842D01*
X166237280Y-60122080D01*
X166237280Y-60217319D01*
X166189661Y-60312557D01*
X166142042Y-60360176D01*
X166046804Y-60407795D01*
X165856328Y-60455414D01*
X165618233Y-60455414D01*
X165427757Y-60407795D01*
X165332519Y-60360176D01*
X165284900Y-60312557D01*
X165237280Y-60217319D01*
X165237280Y-59550652D02*
X165237280Y-58931604D01*
X165618233Y-59264938D01*
X165618233Y-59122080D01*
X165665852Y-59026842D01*
X165713471Y-58979223D01*
X165808709Y-58931604D01*
X166046804Y-58931604D01*
X166142042Y-58979223D01*
X166189661Y-59026842D01*
X166237280Y-59122080D01*
X166237280Y-59407795D01*
X166189661Y-59503033D01*
X166142042Y-59550652D01*
X186115852Y-57847080D02*
X185782519Y-57370890D01*
X185544423Y-57847080D02*
X185544423Y-56847080D01*
X185925376Y-56847080D01*
X186020614Y-56894700D01*
X186068233Y-56942319D01*
X186115852Y-57037557D01*
X186115852Y-57180414D01*
X186068233Y-57275652D01*
X186020614Y-57323271D01*
X185925376Y-57370890D01*
X185544423Y-57370890D01*
X187068233Y-57847080D02*
X186496804Y-57847080D01*
X186782519Y-57847080D02*
X186782519Y-56847080D01*
X186687280Y-56989938D01*
X186592042Y-57085176D01*
X186496804Y-57132795D01*
X187687280Y-56847080D02*
X187782519Y-56847080D01*
X187877757Y-56894700D01*
X187925376Y-56942319D01*
X187972995Y-57037557D01*
X188020614Y-57228033D01*
X188020614Y-57466128D01*
X187972995Y-57656604D01*
X187925376Y-57751842D01*
X187877757Y-57799461D01*
X187782519Y-57847080D01*
X187687280Y-57847080D01*
X187592042Y-57799461D01*
X187544423Y-57751842D01*
X187496804Y-57656604D01*
X187449185Y-57466128D01*
X187449185Y-57228033D01*
X187496804Y-57037557D01*
X187544423Y-56942319D01*
X187592042Y-56894700D01*
X187687280Y-56847080D01*
X188401566Y-56942319D02*
X188449185Y-56894700D01*
X188544423Y-56847080D01*
X188782519Y-56847080D01*
X188877757Y-56894700D01*
X188925376Y-56942319D01*
X188972995Y-57037557D01*
X188972995Y-57132795D01*
X188925376Y-57275652D01*
X188353947Y-57847080D01*
X188972995Y-57847080D01*
X183219423Y-49397080D02*
X183219423Y-48397080D01*
X183457519Y-48397080D01*
X183600376Y-48444700D01*
X183695614Y-48539938D01*
X183743233Y-48635176D01*
X183790852Y-48825652D01*
X183790852Y-48968509D01*
X183743233Y-49158985D01*
X183695614Y-49254223D01*
X183600376Y-49349461D01*
X183457519Y-49397080D01*
X183219423Y-49397080D01*
X184743233Y-49397080D02*
X184171804Y-49397080D01*
X184457519Y-49397080D02*
X184457519Y-48397080D01*
X184362280Y-48539938D01*
X184267042Y-48635176D01*
X184171804Y-48682795D01*
X185362280Y-48397080D02*
X185457519Y-48397080D01*
X185552757Y-48444700D01*
X185600376Y-48492319D01*
X185647995Y-48587557D01*
X185695614Y-48778033D01*
X185695614Y-49016128D01*
X185647995Y-49206604D01*
X185600376Y-49301842D01*
X185552757Y-49349461D01*
X185457519Y-49397080D01*
X185362280Y-49397080D01*
X185267042Y-49349461D01*
X185219423Y-49301842D01*
X185171804Y-49206604D01*
X185124185Y-49016128D01*
X185124185Y-48778033D01*
X185171804Y-48587557D01*
X185219423Y-48492319D01*
X185267042Y-48444700D01*
X185362280Y-48397080D01*
X186647995Y-49397080D02*
X186076566Y-49397080D01*
X186362280Y-49397080D02*
X186362280Y-48397080D01*
X186267042Y-48539938D01*
X186171804Y-48635176D01*
X186076566Y-48682795D01*
X179614672Y-52479202D02*
X179567053Y-52526821D01*
X179424196Y-52574440D01*
X179328958Y-52574440D01*
X179186100Y-52526821D01*
X179090862Y-52431583D01*
X179043243Y-52336345D01*
X178995624Y-52145869D01*
X178995624Y-52003012D01*
X179043243Y-51812536D01*
X179090862Y-51717298D01*
X179186100Y-51622060D01*
X179328958Y-51574440D01*
X179424196Y-51574440D01*
X179567053Y-51622060D01*
X179614672Y-51669679D01*
X180567053Y-52574440D02*
X179995624Y-52574440D01*
X180281339Y-52574440D02*
X180281339Y-51574440D01*
X180186100Y-51717298D01*
X180090862Y-51812536D01*
X179995624Y-51860155D01*
X181186100Y-51574440D02*
X181281339Y-51574440D01*
X181376577Y-51622060D01*
X181424196Y-51669679D01*
X181471815Y-51764917D01*
X181519434Y-51955393D01*
X181519434Y-52193488D01*
X181471815Y-52383964D01*
X181424196Y-52479202D01*
X181376577Y-52526821D01*
X181281339Y-52574440D01*
X181186100Y-52574440D01*
X181090862Y-52526821D01*
X181043243Y-52479202D01*
X180995624Y-52383964D01*
X180948005Y-52193488D01*
X180948005Y-51955393D01*
X180995624Y-51764917D01*
X181043243Y-51669679D01*
X181090862Y-51622060D01*
X181186100Y-51574440D01*
X182471815Y-52574440D02*
X181900386Y-52574440D01*
X182186100Y-52574440D02*
X182186100Y-51574440D01*
X182090862Y-51717298D01*
X181995624Y-51812536D01*
X181900386Y-51860155D01*
X174713471Y-54530414D02*
X174713471Y-54863747D01*
X175237280Y-54863747D02*
X174237280Y-54863747D01*
X174237280Y-54387557D01*
X175237280Y-53482795D02*
X175237280Y-54054223D01*
X175237280Y-53768509D02*
X174237280Y-53768509D01*
X174380138Y-53863747D01*
X174475376Y-53958985D01*
X174522995Y-54054223D01*
X174237280Y-52863747D02*
X174237280Y-52768509D01*
X174284900Y-52673271D01*
X174332519Y-52625652D01*
X174427757Y-52578033D01*
X174618233Y-52530414D01*
X174856328Y-52530414D01*
X175046804Y-52578033D01*
X175142042Y-52625652D01*
X175189661Y-52673271D01*
X175237280Y-52768509D01*
X175237280Y-52863747D01*
X175189661Y-52958985D01*
X175142042Y-53006604D01*
X175046804Y-53054223D01*
X174856328Y-53101842D01*
X174618233Y-53101842D01*
X174427757Y-53054223D01*
X174332519Y-53006604D01*
X174284900Y-52958985D01*
X174237280Y-52863747D01*
X175237280Y-51578033D02*
X175237280Y-52149461D01*
X175237280Y-51863747D02*
X174237280Y-51863747D01*
X174380138Y-51958985D01*
X174475376Y-52054223D01*
X174522995Y-52149461D01*
X128189980Y-93740266D02*
X127713790Y-94073600D01*
X128189980Y-94311695D02*
X127189980Y-94311695D01*
X127189980Y-93930742D01*
X127237600Y-93835504D01*
X127285219Y-93787885D01*
X127380457Y-93740266D01*
X127523314Y-93740266D01*
X127618552Y-93787885D01*
X127666171Y-93835504D01*
X127713790Y-93930742D01*
X127713790Y-94311695D01*
X127523314Y-92883123D02*
X128189980Y-92883123D01*
X127142361Y-93121219D02*
X127856647Y-93359314D01*
X127856647Y-92740266D01*
X176449980Y-93725066D02*
X175973790Y-94058400D01*
X176449980Y-94296495D02*
X175449980Y-94296495D01*
X175449980Y-93915542D01*
X175497600Y-93820304D01*
X175545219Y-93772685D01*
X175640457Y-93725066D01*
X175783314Y-93725066D01*
X175878552Y-93772685D01*
X175926171Y-93820304D01*
X175973790Y-93915542D01*
X175973790Y-94296495D01*
X175449980Y-92820304D02*
X175449980Y-93296495D01*
X175926171Y-93344114D01*
X175878552Y-93296495D01*
X175830933Y-93201257D01*
X175830933Y-92963161D01*
X175878552Y-92867923D01*
X175926171Y-92820304D01*
X176021409Y-92772685D01*
X176259504Y-92772685D01*
X176354742Y-92820304D01*
X176402361Y-92867923D01*
X176449980Y-92963161D01*
X176449980Y-93201257D01*
X176402361Y-93296495D01*
X176354742Y-93344114D01*
X172436780Y-93740266D02*
X171960590Y-94073600D01*
X172436780Y-94311695D02*
X171436780Y-94311695D01*
X171436780Y-93930742D01*
X171484400Y-93835504D01*
X171532019Y-93787885D01*
X171627257Y-93740266D01*
X171770114Y-93740266D01*
X171865352Y-93787885D01*
X171912971Y-93835504D01*
X171960590Y-93930742D01*
X171960590Y-94311695D01*
X171436780Y-92883123D02*
X171436780Y-93073600D01*
X171484400Y-93168838D01*
X171532019Y-93216457D01*
X171674876Y-93311695D01*
X171865352Y-93359314D01*
X172246304Y-93359314D01*
X172341542Y-93311695D01*
X172389161Y-93264076D01*
X172436780Y-93168838D01*
X172436780Y-92978361D01*
X172389161Y-92883123D01*
X172341542Y-92835504D01*
X172246304Y-92787885D01*
X172008209Y-92787885D01*
X171912971Y-92835504D01*
X171865352Y-92883123D01*
X171817733Y-92978361D01*
X171817733Y-93168838D01*
X171865352Y-93264076D01*
X171912971Y-93311695D01*
X172008209Y-93359314D01*
X168372780Y-93740266D02*
X167896590Y-94073600D01*
X168372780Y-94311695D02*
X167372780Y-94311695D01*
X167372780Y-93930742D01*
X167420400Y-93835504D01*
X167468019Y-93787885D01*
X167563257Y-93740266D01*
X167706114Y-93740266D01*
X167801352Y-93787885D01*
X167848971Y-93835504D01*
X167896590Y-93930742D01*
X167896590Y-94311695D01*
X167372780Y-93406933D02*
X167372780Y-92740266D01*
X168372780Y-93168838D01*
X164410380Y-93740266D02*
X163934190Y-94073600D01*
X164410380Y-94311695D02*
X163410380Y-94311695D01*
X163410380Y-93930742D01*
X163458000Y-93835504D01*
X163505619Y-93787885D01*
X163600857Y-93740266D01*
X163743714Y-93740266D01*
X163838952Y-93787885D01*
X163886571Y-93835504D01*
X163934190Y-93930742D01*
X163934190Y-94311695D01*
X163838952Y-93168838D02*
X163791333Y-93264076D01*
X163743714Y-93311695D01*
X163648476Y-93359314D01*
X163600857Y-93359314D01*
X163505619Y-93311695D01*
X163458000Y-93264076D01*
X163410380Y-93168838D01*
X163410380Y-92978361D01*
X163458000Y-92883123D01*
X163505619Y-92835504D01*
X163600857Y-92787885D01*
X163648476Y-92787885D01*
X163743714Y-92835504D01*
X163791333Y-92883123D01*
X163838952Y-92978361D01*
X163838952Y-93168838D01*
X163886571Y-93264076D01*
X163934190Y-93311695D01*
X164029428Y-93359314D01*
X164219904Y-93359314D01*
X164315142Y-93311695D01*
X164362761Y-93264076D01*
X164410380Y-93168838D01*
X164410380Y-92978361D01*
X164362761Y-92883123D01*
X164315142Y-92835504D01*
X164219904Y-92787885D01*
X164029428Y-92787885D01*
X163934190Y-92835504D01*
X163886571Y-92883123D01*
X163838952Y-92978361D01*
X160346380Y-93791066D02*
X159870190Y-94124400D01*
X160346380Y-94362495D02*
X159346380Y-94362495D01*
X159346380Y-93981542D01*
X159394000Y-93886304D01*
X159441619Y-93838685D01*
X159536857Y-93791066D01*
X159679714Y-93791066D01*
X159774952Y-93838685D01*
X159822571Y-93886304D01*
X159870190Y-93981542D01*
X159870190Y-94362495D01*
X160346380Y-93314876D02*
X160346380Y-93124400D01*
X160298761Y-93029161D01*
X160251142Y-92981542D01*
X160108285Y-92886304D01*
X159917809Y-92838685D01*
X159536857Y-92838685D01*
X159441619Y-92886304D01*
X159394000Y-92933923D01*
X159346380Y-93029161D01*
X159346380Y-93219638D01*
X159394000Y-93314876D01*
X159441619Y-93362495D01*
X159536857Y-93410114D01*
X159774952Y-93410114D01*
X159870190Y-93362495D01*
X159917809Y-93314876D01*
X159965428Y-93219638D01*
X159965428Y-93029161D01*
X159917809Y-92933923D01*
X159870190Y-92886304D01*
X159774952Y-92838685D01*
X156333180Y-94216457D02*
X155856990Y-94549790D01*
X156333180Y-94787885D02*
X155333180Y-94787885D01*
X155333180Y-94406933D01*
X155380800Y-94311695D01*
X155428419Y-94264076D01*
X155523657Y-94216457D01*
X155666514Y-94216457D01*
X155761752Y-94264076D01*
X155809371Y-94311695D01*
X155856990Y-94406933D01*
X155856990Y-94787885D01*
X156333180Y-93264076D02*
X156333180Y-93835504D01*
X156333180Y-93549790D02*
X155333180Y-93549790D01*
X155476038Y-93645028D01*
X155571276Y-93740266D01*
X155618895Y-93835504D01*
X155333180Y-92645028D02*
X155333180Y-92549790D01*
X155380800Y-92454552D01*
X155428419Y-92406933D01*
X155523657Y-92359314D01*
X155714133Y-92311695D01*
X155952228Y-92311695D01*
X156142704Y-92359314D01*
X156237942Y-92406933D01*
X156285561Y-92454552D01*
X156333180Y-92549790D01*
X156333180Y-92645028D01*
X156285561Y-92740266D01*
X156237942Y-92787885D01*
X156142704Y-92835504D01*
X155952228Y-92883123D01*
X155714133Y-92883123D01*
X155523657Y-92835504D01*
X155428419Y-92787885D01*
X155380800Y-92740266D01*
X155333180Y-92645028D01*
X152319980Y-94216457D02*
X151843790Y-94549790D01*
X152319980Y-94787885D02*
X151319980Y-94787885D01*
X151319980Y-94406933D01*
X151367600Y-94311695D01*
X151415219Y-94264076D01*
X151510457Y-94216457D01*
X151653314Y-94216457D01*
X151748552Y-94264076D01*
X151796171Y-94311695D01*
X151843790Y-94406933D01*
X151843790Y-94787885D01*
X152319980Y-93264076D02*
X152319980Y-93835504D01*
X152319980Y-93549790D02*
X151319980Y-93549790D01*
X151462838Y-93645028D01*
X151558076Y-93740266D01*
X151605695Y-93835504D01*
X152319980Y-92311695D02*
X152319980Y-92883123D01*
X152319980Y-92597409D02*
X151319980Y-92597409D01*
X151462838Y-92692647D01*
X151558076Y-92787885D01*
X151605695Y-92883123D01*
X148306780Y-94216457D02*
X147830590Y-94549790D01*
X148306780Y-94787885D02*
X147306780Y-94787885D01*
X147306780Y-94406933D01*
X147354400Y-94311695D01*
X147402019Y-94264076D01*
X147497257Y-94216457D01*
X147640114Y-94216457D01*
X147735352Y-94264076D01*
X147782971Y-94311695D01*
X147830590Y-94406933D01*
X147830590Y-94787885D01*
X148306780Y-93264076D02*
X148306780Y-93835504D01*
X148306780Y-93549790D02*
X147306780Y-93549790D01*
X147449638Y-93645028D01*
X147544876Y-93740266D01*
X147592495Y-93835504D01*
X147402019Y-92883123D02*
X147354400Y-92835504D01*
X147306780Y-92740266D01*
X147306780Y-92502171D01*
X147354400Y-92406933D01*
X147402019Y-92359314D01*
X147497257Y-92311695D01*
X147592495Y-92311695D01*
X147735352Y-92359314D01*
X148306780Y-92930742D01*
X148306780Y-92311695D01*
X144165580Y-94216457D02*
X143689390Y-94549790D01*
X144165580Y-94787885D02*
X143165580Y-94787885D01*
X143165580Y-94406933D01*
X143213200Y-94311695D01*
X143260819Y-94264076D01*
X143356057Y-94216457D01*
X143498914Y-94216457D01*
X143594152Y-94264076D01*
X143641771Y-94311695D01*
X143689390Y-94406933D01*
X143689390Y-94787885D01*
X144165580Y-93264076D02*
X144165580Y-93835504D01*
X144165580Y-93549790D02*
X143165580Y-93549790D01*
X143308438Y-93645028D01*
X143403676Y-93740266D01*
X143451295Y-93835504D01*
X143165580Y-92930742D02*
X143165580Y-92311695D01*
X143546533Y-92645028D01*
X143546533Y-92502171D01*
X143594152Y-92406933D01*
X143641771Y-92359314D01*
X143737009Y-92311695D01*
X143975104Y-92311695D01*
X144070342Y-92359314D01*
X144117961Y-92406933D01*
X144165580Y-92502171D01*
X144165580Y-92787885D01*
X144117961Y-92883123D01*
X144070342Y-92930742D01*
X140203180Y-94216457D02*
X139726990Y-94549790D01*
X140203180Y-94787885D02*
X139203180Y-94787885D01*
X139203180Y-94406933D01*
X139250800Y-94311695D01*
X139298419Y-94264076D01*
X139393657Y-94216457D01*
X139536514Y-94216457D01*
X139631752Y-94264076D01*
X139679371Y-94311695D01*
X139726990Y-94406933D01*
X139726990Y-94787885D01*
X140203180Y-93264076D02*
X140203180Y-93835504D01*
X140203180Y-93549790D02*
X139203180Y-93549790D01*
X139346038Y-93645028D01*
X139441276Y-93740266D01*
X139488895Y-93835504D01*
X139536514Y-92406933D02*
X140203180Y-92406933D01*
X139155561Y-92645028D02*
X139869847Y-92883123D01*
X139869847Y-92264076D01*
X132176780Y-94216457D02*
X131700590Y-94549790D01*
X132176780Y-94787885D02*
X131176780Y-94787885D01*
X131176780Y-94406933D01*
X131224400Y-94311695D01*
X131272019Y-94264076D01*
X131367257Y-94216457D01*
X131510114Y-94216457D01*
X131605352Y-94264076D01*
X131652971Y-94311695D01*
X131700590Y-94406933D01*
X131700590Y-94787885D01*
X131272019Y-93835504D02*
X131224400Y-93787885D01*
X131176780Y-93692647D01*
X131176780Y-93454552D01*
X131224400Y-93359314D01*
X131272019Y-93311695D01*
X131367257Y-93264076D01*
X131462495Y-93264076D01*
X131605352Y-93311695D01*
X132176780Y-93883123D01*
X132176780Y-93264076D01*
X132176780Y-92311695D02*
X132176780Y-92883123D01*
X132176780Y-92597409D02*
X131176780Y-92597409D01*
X131319638Y-92692647D01*
X131414876Y-92787885D01*
X131462495Y-92883123D01*
X136189980Y-94216457D02*
X135713790Y-94549790D01*
X136189980Y-94787885D02*
X135189980Y-94787885D01*
X135189980Y-94406933D01*
X135237600Y-94311695D01*
X135285219Y-94264076D01*
X135380457Y-94216457D01*
X135523314Y-94216457D01*
X135618552Y-94264076D01*
X135666171Y-94311695D01*
X135713790Y-94406933D01*
X135713790Y-94787885D01*
X135285219Y-93835504D02*
X135237600Y-93787885D01*
X135189980Y-93692647D01*
X135189980Y-93454552D01*
X135237600Y-93359314D01*
X135285219Y-93311695D01*
X135380457Y-93264076D01*
X135475695Y-93264076D01*
X135618552Y-93311695D01*
X136189980Y-93883123D01*
X136189980Y-93264076D01*
X135189980Y-92406933D02*
X135189980Y-92597409D01*
X135237600Y-92692647D01*
X135285219Y-92740266D01*
X135428076Y-92835504D01*
X135618552Y-92883123D01*
X135999504Y-92883123D01*
X136094742Y-92835504D01*
X136142361Y-92787885D01*
X136189980Y-92692647D01*
X136189980Y-92502171D01*
X136142361Y-92406933D01*
X136094742Y-92359314D01*
X135999504Y-92311695D01*
X135761409Y-92311695D01*
X135666171Y-92359314D01*
X135618552Y-92406933D01*
X135570933Y-92502171D01*
X135570933Y-92692647D01*
X135618552Y-92787885D01*
X135666171Y-92835504D01*
X135761409Y-92883123D01*
M02*
