G04 #@! TF.GenerationSoftware,KiCad,Pcbnew,5.1.5-52549c5~84~ubuntu18.04.1*
G04 #@! TF.CreationDate,2019-12-12T20:24:59-05:00*
G04 #@! TF.ProjectId,Shutdown_Sense,53687574-646f-4776-9e5f-53656e73652e,rev?*
G04 #@! TF.SameCoordinates,Original*
G04 #@! TF.FileFunction,Paste,Top*
G04 #@! TF.FilePolarity,Positive*
%FSLAX46Y46*%
G04 Gerber Fmt 4.6, Leading zero omitted, Abs format (unit mm)*
G04 Created by KiCad (PCBNEW 5.1.5-52549c5~84~ubuntu18.04.1) date 2019-12-12 20:24:59*
%MOMM*%
%LPD*%
G04 APERTURE LIST*
%ADD10R,1.200000X1.200000*%
%ADD11R,1.550000X0.600000*%
%ADD12R,0.700000X1.300000*%
%ADD13R,1.300000X0.700000*%
%ADD14R,0.800000X0.900000*%
%ADD15R,1.600000X0.550000*%
%ADD16R,0.550000X1.600000*%
%ADD17R,1.000000X1.250000*%
%ADD18R,1.250000X1.000000*%
%ADD19R,0.800000X0.750000*%
%ADD20R,1.060000X0.650000*%
%ADD21R,3.500000X1.780000*%
%ADD22R,2.000000X1.200000*%
%ADD23R,1.600000X1.000000*%
%ADD24R,3.200000X1.000000*%
%ADD25R,1.778000X2.159000*%
%ADD26R,2.500000X0.900000*%
G04 APERTURE END LIST*
D10*
X145474264Y-98940800D03*
X145474264Y-96740800D03*
D11*
X151086800Y-50673000D03*
X151086800Y-51943000D03*
X151086800Y-53213000D03*
X151086800Y-54483000D03*
X145686800Y-54483000D03*
X145686800Y-53213000D03*
X145686800Y-51943000D03*
X145686800Y-50673000D03*
D12*
X180375600Y-43789600D03*
X178475600Y-43789600D03*
D13*
X134772400Y-78623200D03*
X134772400Y-76723200D03*
X131572000Y-85989200D03*
X131572000Y-84089200D03*
X130251200Y-78623200D03*
X130251200Y-76723200D03*
X127050800Y-85989200D03*
X127050800Y-84089200D03*
X146608800Y-71897200D03*
X146608800Y-73797200D03*
X153314400Y-53477200D03*
X153314400Y-51577200D03*
X150672800Y-69154000D03*
X150672800Y-71054000D03*
D14*
X132537200Y-80433200D03*
X133487200Y-82533200D03*
X131587200Y-82533200D03*
X128016000Y-80433200D03*
X128966000Y-82533200D03*
X127066000Y-82533200D03*
D15*
X152789200Y-59379200D03*
X152789200Y-60179200D03*
X152789200Y-60979200D03*
X152789200Y-61779200D03*
X152789200Y-62579200D03*
X152789200Y-63379200D03*
X152789200Y-64179200D03*
X152789200Y-64979200D03*
D16*
X151339200Y-66429200D03*
X150539200Y-66429200D03*
X149739200Y-66429200D03*
X148939200Y-66429200D03*
X148139200Y-66429200D03*
X147339200Y-66429200D03*
X146539200Y-66429200D03*
X145739200Y-66429200D03*
D15*
X144289200Y-64979200D03*
X144289200Y-64179200D03*
X144289200Y-63379200D03*
X144289200Y-62579200D03*
X144289200Y-61779200D03*
X144289200Y-60979200D03*
X144289200Y-60179200D03*
X144289200Y-59379200D03*
D16*
X145739200Y-57929200D03*
X146539200Y-57929200D03*
X147339200Y-57929200D03*
X148139200Y-57929200D03*
X148939200Y-57929200D03*
X149739200Y-57929200D03*
X150539200Y-57929200D03*
X151339200Y-57929200D03*
D10*
X141452598Y-98940800D03*
X141452598Y-96740800D03*
X149495930Y-98940800D03*
X149495930Y-96740800D03*
X153517596Y-98940800D03*
X153517596Y-96740800D03*
X157539262Y-98940800D03*
X157539262Y-96740800D03*
X137430932Y-98940800D03*
X137430932Y-96740800D03*
X133409266Y-98940800D03*
X133409266Y-96740800D03*
X161560928Y-98940800D03*
X161560928Y-96740800D03*
X165582594Y-98940800D03*
X165582594Y-96740800D03*
X169604260Y-98940800D03*
X169604260Y-96740800D03*
X173625926Y-98940800D03*
X173625926Y-96740800D03*
X177647600Y-98940800D03*
X177647600Y-96740800D03*
X129387600Y-98940800D03*
X129387600Y-96740800D03*
D17*
X146542000Y-48564800D03*
X144542000Y-48564800D03*
X138801600Y-57404000D03*
X140801600Y-57404000D03*
D18*
X136702800Y-59147200D03*
X136702800Y-61147200D03*
D17*
X154568400Y-69088000D03*
X152568400Y-69088000D03*
X154568400Y-71170800D03*
X152568400Y-71170800D03*
D10*
X182184900Y-43769700D03*
X184384900Y-43769700D03*
D17*
X181903900Y-61841500D03*
X179903900Y-61841500D03*
D19*
X180074400Y-55428000D03*
X181574400Y-55428000D03*
D20*
X182019100Y-59497300D03*
X182019100Y-58547300D03*
X182019100Y-57597300D03*
X179819100Y-57597300D03*
X179819100Y-59497300D03*
X179819100Y-58547300D03*
D21*
X173283900Y-64699000D03*
X173283900Y-69979000D03*
D22*
X177218360Y-59746400D03*
X177218360Y-62946400D03*
D23*
X179633900Y-64318000D03*
X179633900Y-67318000D03*
D24*
X173278820Y-62097900D03*
X173278820Y-55897900D03*
D13*
X183906180Y-62164120D03*
X183906180Y-60264120D03*
D12*
X170484900Y-57569700D03*
X168584900Y-57569700D03*
D18*
X177284400Y-64842000D03*
X177284400Y-66842000D03*
D10*
X166834900Y-57569700D03*
X164634900Y-57569700D03*
D13*
X183921420Y-56377920D03*
X183921420Y-58277920D03*
D25*
X181221400Y-48824000D03*
X177157400Y-48824000D03*
D17*
X179733720Y-53622060D03*
X181733720Y-53622060D03*
D26*
X177157400Y-52390500D03*
X177157400Y-55290500D03*
D13*
X129387600Y-94523600D03*
X129387600Y-92623600D03*
X177647600Y-92608400D03*
X177647600Y-94508400D03*
X173634400Y-94523600D03*
X173634400Y-92623600D03*
X169570400Y-92623600D03*
X169570400Y-94523600D03*
X165608000Y-94523600D03*
X165608000Y-92623600D03*
X161544000Y-92674400D03*
X161544000Y-94574400D03*
X157530800Y-94523600D03*
X157530800Y-92623600D03*
X153517600Y-92623600D03*
X153517600Y-94523600D03*
X149504400Y-94523600D03*
X149504400Y-92623600D03*
X145440400Y-92623600D03*
X145440400Y-94523600D03*
X141427200Y-92623600D03*
X141427200Y-94523600D03*
X133400800Y-94523600D03*
X133400800Y-92623600D03*
X137414000Y-92623600D03*
X137414000Y-94523600D03*
M02*
