M48
INCH,TZ
T1C0.0120
T2C0.0157
T3C0.0315
T4C0.0340
T5C0.0394
T6C0.0400
T7C0.0591
T8C0.0394
T9C0.0400
T10C0.0950
%
G90
G05
T1
X40045Y-29139
X43803Y-36903
X46200Y-37100
X46500Y-35600
X47700Y-38200
X48900Y-30500
X50300Y-38437
X50333Y-39248
X50844Y-32356
X50873Y-39219
X51000Y-26400
X51800Y-28600
X52056Y-22400
X52200Y-23400
X52400Y-38900
X53110Y-22400
X53400Y-37200
X53430Y-25563
X54900Y-25816
X55467Y-26267
X56000Y-32400
X56400Y-23200
X56468Y-26568
X56700Y-23200
X57600Y-38400
X57665Y-22600
X57924Y-22752
X58032Y-25270
X58200Y-22900
X58200Y-23200
X58300Y-25500
X58689Y-23411
X58690Y-28200
X58690Y-30900
X58739Y-22261
X58760Y-22991
X58850Y-33500
X59033Y-23115
X59041Y-25135
X59049Y-22304
X59100Y-20900
X59100Y-22600
X59230Y-30900
X59253Y-25347
X59270Y-33500
X59300Y-33100
X59310Y-24400
X59390Y-28200
X59400Y-30300
X59500Y-27500
X59610Y-36600
X62200Y-21100
X62200Y-35400
X62400Y-29900
X62500Y-23700
X62500Y-32800
X62600Y-26900
X63500Y-40400
T2
X41486Y-33779
X42019Y-34907
X42846Y-34907
X43923Y-34907
X45236Y-34893
X46872Y-23748
X48006Y-23753
X48714Y-23778
X48714Y-25020
X48724Y-27303
X48729Y-26189
T3
X47400Y-21500
X47900Y-20500
X48400Y-21500
X48900Y-20500
X49400Y-21500
X49900Y-20500
X50400Y-21500
X50900Y-20500
X51400Y-21500
X51900Y-20500
X52400Y-21500
X52900Y-20500
X53400Y-21500
X53900Y-20500
X54400Y-21500
X54900Y-20500
X55400Y-21500
X55900Y-20500
X56400Y-21500
X56900Y-20500
T4
X56600Y-40500
X56600Y-42470
X60500Y-39200
X60500Y-41170
T5
X47000Y-40200
X47000Y-41381
X48181Y-40200
X48181Y-41381
X49362Y-40200
X49362Y-41381
X50543Y-40200
X50543Y-41381
X51724Y-40200
X51724Y-41381
X52906Y-40200
X52906Y-41381
T6
X54700Y-23000
X54700Y-24000
X54700Y-25000
X55700Y-23000
X55700Y-24000
X55700Y-25000
X43800Y-39920
X43800Y-41100
T7
X46849Y-20791
T8
X45819Y-41751
X54087Y-41751
T9
X42620Y-39550
X44980Y-39550
T10
X42950Y-40510
X44650Y-40510
T0
M30
