G04 #@! TF.GenerationSoftware,KiCad,Pcbnew,5.1.5-52549c5~84~ubuntu18.04.1*
G04 #@! TF.CreationDate,2020-03-08T18:46:09-04:00*
G04 #@! TF.ProjectId,AIR_control,4149525f-636f-46e7-9472-6f6c2e6b6963,rev?*
G04 #@! TF.SameCoordinates,Original*
G04 #@! TF.FileFunction,Soldermask,Top*
G04 #@! TF.FilePolarity,Negative*
%FSLAX46Y46*%
G04 Gerber Fmt 4.6, Leading zero omitted, Abs format (unit mm)*
G04 Created by KiCad (PCBNEW 5.1.5-52549c5~84~ubuntu18.04.1) date 2020-03-08 18:46:09*
%MOMM*%
%LPD*%
G04 APERTURE LIST*
%ADD10C,0.100000*%
G04 APERTURE END LIST*
D10*
G36*
X144500800Y-108610600D02*
G01*
X143027200Y-108610600D01*
X143027200Y-107137000D01*
X144500800Y-107137000D01*
X144500800Y-108610600D01*
G37*
G36*
X137540721Y-105518174D02*
G01*
X137640995Y-105559709D01*
X137640996Y-105559710D01*
X137731242Y-105620010D01*
X137807990Y-105696758D01*
X137807991Y-105696760D01*
X137868291Y-105787005D01*
X137909826Y-105887279D01*
X137931000Y-105993730D01*
X137931000Y-106102270D01*
X137909826Y-106208721D01*
X137868291Y-106308995D01*
X137868290Y-106308996D01*
X137807990Y-106399242D01*
X137731242Y-106475990D01*
X137685812Y-106506345D01*
X137640995Y-106536291D01*
X137540721Y-106577826D01*
X137434270Y-106599000D01*
X137325730Y-106599000D01*
X137219279Y-106577826D01*
X137119005Y-106536291D01*
X137074188Y-106506345D01*
X137028758Y-106475990D01*
X136952010Y-106399242D01*
X136891710Y-106308996D01*
X136891709Y-106308995D01*
X136850174Y-106208721D01*
X136829000Y-106102270D01*
X136829000Y-105993730D01*
X136850174Y-105887279D01*
X136891709Y-105787005D01*
X136952009Y-105696760D01*
X136952010Y-105696758D01*
X137028758Y-105620010D01*
X137119004Y-105559710D01*
X137119005Y-105559709D01*
X137219279Y-105518174D01*
X137325730Y-105497000D01*
X137434270Y-105497000D01*
X137540721Y-105518174D01*
G37*
G36*
X116540721Y-105518174D02*
G01*
X116640995Y-105559709D01*
X116640996Y-105559710D01*
X116731242Y-105620010D01*
X116807990Y-105696758D01*
X116807991Y-105696760D01*
X116868291Y-105787005D01*
X116909826Y-105887279D01*
X116931000Y-105993730D01*
X116931000Y-106102270D01*
X116909826Y-106208721D01*
X116868291Y-106308995D01*
X116868290Y-106308996D01*
X116807990Y-106399242D01*
X116731242Y-106475990D01*
X116685812Y-106506345D01*
X116640995Y-106536291D01*
X116540721Y-106577826D01*
X116434270Y-106599000D01*
X116325730Y-106599000D01*
X116219279Y-106577826D01*
X116119005Y-106536291D01*
X116074188Y-106506345D01*
X116028758Y-106475990D01*
X115952010Y-106399242D01*
X115891710Y-106308996D01*
X115891709Y-106308995D01*
X115850174Y-106208721D01*
X115829000Y-106102270D01*
X115829000Y-105993730D01*
X115850174Y-105887279D01*
X115891709Y-105787005D01*
X115952009Y-105696760D01*
X115952010Y-105696758D01*
X116028758Y-105620010D01*
X116119004Y-105559710D01*
X116119005Y-105559709D01*
X116219279Y-105518174D01*
X116325730Y-105497000D01*
X116434270Y-105497000D01*
X116540721Y-105518174D01*
G37*
G36*
X125613642Y-104337781D02*
G01*
X125759414Y-104398162D01*
X125759416Y-104398163D01*
X125890608Y-104485822D01*
X126002178Y-104597392D01*
X126089837Y-104728584D01*
X126089838Y-104728586D01*
X126150219Y-104874358D01*
X126181000Y-105029107D01*
X126181000Y-105186893D01*
X126150219Y-105341642D01*
X126089838Y-105487414D01*
X126089837Y-105487416D01*
X126002178Y-105618608D01*
X125890608Y-105730178D01*
X125759416Y-105817837D01*
X125759415Y-105817838D01*
X125759414Y-105817838D01*
X125613642Y-105878219D01*
X125458893Y-105909000D01*
X125301107Y-105909000D01*
X125146358Y-105878219D01*
X125000586Y-105817838D01*
X125000585Y-105817838D01*
X125000584Y-105817837D01*
X124869392Y-105730178D01*
X124757822Y-105618608D01*
X124670163Y-105487416D01*
X124670162Y-105487414D01*
X124609781Y-105341642D01*
X124579000Y-105186893D01*
X124579000Y-105029107D01*
X124609781Y-104874358D01*
X124670162Y-104728586D01*
X124670163Y-104728584D01*
X124757822Y-104597392D01*
X124869392Y-104485822D01*
X125000584Y-104398163D01*
X125000586Y-104398162D01*
X125146358Y-104337781D01*
X125301107Y-104307000D01*
X125458893Y-104307000D01*
X125613642Y-104337781D01*
G37*
G36*
X119613642Y-104337781D02*
G01*
X119759414Y-104398162D01*
X119759416Y-104398163D01*
X119890608Y-104485822D01*
X120002178Y-104597392D01*
X120089837Y-104728584D01*
X120089838Y-104728586D01*
X120150219Y-104874358D01*
X120181000Y-105029107D01*
X120181000Y-105186893D01*
X120150219Y-105341642D01*
X120089838Y-105487414D01*
X120089837Y-105487416D01*
X120002178Y-105618608D01*
X119890608Y-105730178D01*
X119759416Y-105817837D01*
X119759415Y-105817838D01*
X119759414Y-105817838D01*
X119613642Y-105878219D01*
X119458893Y-105909000D01*
X119301107Y-105909000D01*
X119146358Y-105878219D01*
X119000586Y-105817838D01*
X119000585Y-105817838D01*
X119000584Y-105817837D01*
X118869392Y-105730178D01*
X118757822Y-105618608D01*
X118670163Y-105487416D01*
X118670162Y-105487414D01*
X118609781Y-105341642D01*
X118579000Y-105186893D01*
X118579000Y-105029107D01*
X118609781Y-104874358D01*
X118670162Y-104728586D01*
X118670163Y-104728584D01*
X118757822Y-104597392D01*
X118869392Y-104485822D01*
X119000584Y-104398163D01*
X119000586Y-104398162D01*
X119146358Y-104337781D01*
X119301107Y-104307000D01*
X119458893Y-104307000D01*
X119613642Y-104337781D01*
G37*
G36*
X122613642Y-104337781D02*
G01*
X122759414Y-104398162D01*
X122759416Y-104398163D01*
X122890608Y-104485822D01*
X123002178Y-104597392D01*
X123089837Y-104728584D01*
X123089838Y-104728586D01*
X123150219Y-104874358D01*
X123181000Y-105029107D01*
X123181000Y-105186893D01*
X123150219Y-105341642D01*
X123089838Y-105487414D01*
X123089837Y-105487416D01*
X123002178Y-105618608D01*
X122890608Y-105730178D01*
X122759416Y-105817837D01*
X122759415Y-105817838D01*
X122759414Y-105817838D01*
X122613642Y-105878219D01*
X122458893Y-105909000D01*
X122301107Y-105909000D01*
X122146358Y-105878219D01*
X122000586Y-105817838D01*
X122000585Y-105817838D01*
X122000584Y-105817837D01*
X121869392Y-105730178D01*
X121757822Y-105618608D01*
X121670163Y-105487416D01*
X121670162Y-105487414D01*
X121609781Y-105341642D01*
X121579000Y-105186893D01*
X121579000Y-105029107D01*
X121609781Y-104874358D01*
X121670162Y-104728586D01*
X121670163Y-104728584D01*
X121757822Y-104597392D01*
X121869392Y-104485822D01*
X122000584Y-104398163D01*
X122000586Y-104398162D01*
X122146358Y-104337781D01*
X122301107Y-104307000D01*
X122458893Y-104307000D01*
X122613642Y-104337781D01*
G37*
G36*
X131613642Y-104337781D02*
G01*
X131759414Y-104398162D01*
X131759416Y-104398163D01*
X131890608Y-104485822D01*
X132002178Y-104597392D01*
X132089837Y-104728584D01*
X132089838Y-104728586D01*
X132150219Y-104874358D01*
X132181000Y-105029107D01*
X132181000Y-105186893D01*
X132150219Y-105341642D01*
X132089838Y-105487414D01*
X132089837Y-105487416D01*
X132002178Y-105618608D01*
X131890608Y-105730178D01*
X131759416Y-105817837D01*
X131759415Y-105817838D01*
X131759414Y-105817838D01*
X131613642Y-105878219D01*
X131458893Y-105909000D01*
X131301107Y-105909000D01*
X131146358Y-105878219D01*
X131000586Y-105817838D01*
X131000585Y-105817838D01*
X131000584Y-105817837D01*
X130869392Y-105730178D01*
X130757822Y-105618608D01*
X130670163Y-105487416D01*
X130670162Y-105487414D01*
X130609781Y-105341642D01*
X130579000Y-105186893D01*
X130579000Y-105029107D01*
X130609781Y-104874358D01*
X130670162Y-104728586D01*
X130670163Y-104728584D01*
X130757822Y-104597392D01*
X130869392Y-104485822D01*
X131000584Y-104398163D01*
X131000586Y-104398162D01*
X131146358Y-104337781D01*
X131301107Y-104307000D01*
X131458893Y-104307000D01*
X131613642Y-104337781D01*
G37*
G36*
X128613642Y-104337781D02*
G01*
X128759414Y-104398162D01*
X128759416Y-104398163D01*
X128890608Y-104485822D01*
X129002178Y-104597392D01*
X129089837Y-104728584D01*
X129089838Y-104728586D01*
X129150219Y-104874358D01*
X129181000Y-105029107D01*
X129181000Y-105186893D01*
X129150219Y-105341642D01*
X129089838Y-105487414D01*
X129089837Y-105487416D01*
X129002178Y-105618608D01*
X128890608Y-105730178D01*
X128759416Y-105817837D01*
X128759415Y-105817838D01*
X128759414Y-105817838D01*
X128613642Y-105878219D01*
X128458893Y-105909000D01*
X128301107Y-105909000D01*
X128146358Y-105878219D01*
X128000586Y-105817838D01*
X128000585Y-105817838D01*
X128000584Y-105817837D01*
X127869392Y-105730178D01*
X127757822Y-105618608D01*
X127670163Y-105487416D01*
X127670162Y-105487414D01*
X127609781Y-105341642D01*
X127579000Y-105186893D01*
X127579000Y-105029107D01*
X127609781Y-104874358D01*
X127670162Y-104728586D01*
X127670163Y-104728584D01*
X127757822Y-104597392D01*
X127869392Y-104485822D01*
X128000584Y-104398163D01*
X128000586Y-104398162D01*
X128146358Y-104337781D01*
X128301107Y-104307000D01*
X128458893Y-104307000D01*
X128613642Y-104337781D01*
G37*
G36*
X134613642Y-104337781D02*
G01*
X134759414Y-104398162D01*
X134759416Y-104398163D01*
X134890608Y-104485822D01*
X135002178Y-104597392D01*
X135089837Y-104728584D01*
X135089838Y-104728586D01*
X135150219Y-104874358D01*
X135181000Y-105029107D01*
X135181000Y-105186893D01*
X135150219Y-105341642D01*
X135089838Y-105487414D01*
X135089837Y-105487416D01*
X135002178Y-105618608D01*
X134890608Y-105730178D01*
X134759416Y-105817837D01*
X134759415Y-105817838D01*
X134759414Y-105817838D01*
X134613642Y-105878219D01*
X134458893Y-105909000D01*
X134301107Y-105909000D01*
X134146358Y-105878219D01*
X134000586Y-105817838D01*
X134000585Y-105817838D01*
X134000584Y-105817837D01*
X133869392Y-105730178D01*
X133757822Y-105618608D01*
X133670163Y-105487416D01*
X133670162Y-105487414D01*
X133609781Y-105341642D01*
X133579000Y-105186893D01*
X133579000Y-105029107D01*
X133609781Y-104874358D01*
X133670162Y-104728586D01*
X133670163Y-104728584D01*
X133757822Y-104597392D01*
X133869392Y-104485822D01*
X134000584Y-104398163D01*
X134000586Y-104398162D01*
X134146358Y-104337781D01*
X134301107Y-104307000D01*
X134458893Y-104307000D01*
X134613642Y-104337781D01*
G37*
G36*
X154406800Y-105308600D02*
G01*
X152933200Y-105308600D01*
X152933200Y-103835000D01*
X154406800Y-103835000D01*
X154406800Y-105308600D01*
G37*
G36*
X111489142Y-103612242D02*
G01*
X111637101Y-103673529D01*
X111770255Y-103762499D01*
X111883501Y-103875745D01*
X111972471Y-104008899D01*
X112033758Y-104156858D01*
X112065000Y-104313925D01*
X112065000Y-104474075D01*
X112033758Y-104631142D01*
X111972471Y-104779101D01*
X111883501Y-104912255D01*
X111770255Y-105025501D01*
X111637101Y-105114471D01*
X111489142Y-105175758D01*
X111332075Y-105207000D01*
X111171925Y-105207000D01*
X111014858Y-105175758D01*
X110866899Y-105114471D01*
X110733745Y-105025501D01*
X110620499Y-104912255D01*
X110531529Y-104779101D01*
X110470242Y-104631142D01*
X110439000Y-104474075D01*
X110439000Y-104313925D01*
X110470242Y-104156858D01*
X110531529Y-104008899D01*
X110620499Y-103875745D01*
X110733745Y-103762499D01*
X110866899Y-103673529D01*
X111014858Y-103612242D01*
X111171925Y-103581000D01*
X111332075Y-103581000D01*
X111489142Y-103612242D01*
G37*
G36*
X113656326Y-101662062D02*
G01*
X113777799Y-101686225D01*
X114006650Y-101781018D01*
X114212610Y-101918636D01*
X114387764Y-102093790D01*
X114525382Y-102299750D01*
X114620175Y-102528601D01*
X114668500Y-102771547D01*
X114668500Y-103019253D01*
X114620175Y-103262199D01*
X114525382Y-103491050D01*
X114387764Y-103697010D01*
X114212610Y-103872164D01*
X114006650Y-104009782D01*
X113777799Y-104104575D01*
X113656326Y-104128738D01*
X113534854Y-104152900D01*
X113287146Y-104152900D01*
X113165674Y-104128738D01*
X113044201Y-104104575D01*
X112815350Y-104009782D01*
X112609390Y-103872164D01*
X112434236Y-103697010D01*
X112296618Y-103491050D01*
X112201825Y-103262199D01*
X112153500Y-103019253D01*
X112153500Y-102771547D01*
X112201825Y-102528601D01*
X112296618Y-102299750D01*
X112434236Y-102093790D01*
X112609390Y-101918636D01*
X112815350Y-101781018D01*
X113044201Y-101686225D01*
X113165674Y-101662063D01*
X113287146Y-101637900D01*
X113534854Y-101637900D01*
X113656326Y-101662062D01*
G37*
G36*
X109338326Y-101662062D02*
G01*
X109459799Y-101686225D01*
X109688650Y-101781018D01*
X109894610Y-101918636D01*
X110069764Y-102093790D01*
X110207382Y-102299750D01*
X110302175Y-102528601D01*
X110350500Y-102771547D01*
X110350500Y-103019253D01*
X110302175Y-103262199D01*
X110207382Y-103491050D01*
X110069764Y-103697010D01*
X109894610Y-103872164D01*
X109688650Y-104009782D01*
X109459799Y-104104575D01*
X109338326Y-104128738D01*
X109216854Y-104152900D01*
X108969146Y-104152900D01*
X108847674Y-104128738D01*
X108726201Y-104104575D01*
X108497350Y-104009782D01*
X108291390Y-103872164D01*
X108116236Y-103697010D01*
X107978618Y-103491050D01*
X107883825Y-103262199D01*
X107835500Y-103019253D01*
X107835500Y-102771547D01*
X107883825Y-102528601D01*
X107978618Y-102299750D01*
X108116236Y-102093790D01*
X108291390Y-101918636D01*
X108497350Y-101781018D01*
X108726201Y-101686225D01*
X108847674Y-101662063D01*
X108969146Y-101637900D01*
X109216854Y-101637900D01*
X109338326Y-101662062D01*
G37*
G36*
X143978914Y-102161514D02*
G01*
X143978916Y-102161515D01*
X143978917Y-102161515D01*
X144113006Y-102217056D01*
X144233683Y-102297690D01*
X144336310Y-102400317D01*
X144416944Y-102520994D01*
X144467066Y-102642000D01*
X144472486Y-102655086D01*
X144500800Y-102797430D01*
X144500800Y-102942570D01*
X144485547Y-103019254D01*
X144472485Y-103084917D01*
X144416944Y-103219006D01*
X144336310Y-103339683D01*
X144233683Y-103442310D01*
X144113006Y-103522944D01*
X143978917Y-103578485D01*
X143978916Y-103578485D01*
X143978914Y-103578486D01*
X143836570Y-103606800D01*
X143691430Y-103606800D01*
X143549086Y-103578486D01*
X143549084Y-103578485D01*
X143549083Y-103578485D01*
X143414994Y-103522944D01*
X143294317Y-103442310D01*
X143191690Y-103339683D01*
X143111056Y-103219006D01*
X143055515Y-103084917D01*
X143042454Y-103019254D01*
X143027200Y-102942570D01*
X143027200Y-102797430D01*
X143055514Y-102655086D01*
X143060934Y-102642000D01*
X143111056Y-102520994D01*
X143191690Y-102400317D01*
X143294317Y-102297690D01*
X143414994Y-102217056D01*
X143549083Y-102161515D01*
X143549084Y-102161515D01*
X143549086Y-102161514D01*
X143691430Y-102133200D01*
X143836570Y-102133200D01*
X143978914Y-102161514D01*
G37*
G36*
X160925000Y-103097000D02*
G01*
X159623000Y-103097000D01*
X159623000Y-101795000D01*
X160925000Y-101795000D01*
X160925000Y-103097000D01*
G37*
G36*
X122613642Y-101337781D02*
G01*
X122737208Y-101388964D01*
X122759416Y-101398163D01*
X122890608Y-101485822D01*
X123002178Y-101597392D01*
X123089837Y-101728584D01*
X123089838Y-101728586D01*
X123150219Y-101874358D01*
X123181000Y-102029107D01*
X123181000Y-102186893D01*
X123150219Y-102341642D01*
X123089838Y-102487414D01*
X123089837Y-102487416D01*
X123002178Y-102618608D01*
X122890608Y-102730178D01*
X122759416Y-102817837D01*
X122759415Y-102817838D01*
X122759414Y-102817838D01*
X122613642Y-102878219D01*
X122458893Y-102909000D01*
X122301107Y-102909000D01*
X122146358Y-102878219D01*
X122000586Y-102817838D01*
X122000585Y-102817838D01*
X122000584Y-102817837D01*
X121869392Y-102730178D01*
X121757822Y-102618608D01*
X121670163Y-102487416D01*
X121670162Y-102487414D01*
X121609781Y-102341642D01*
X121579000Y-102186893D01*
X121579000Y-102029107D01*
X121609781Y-101874358D01*
X121670162Y-101728586D01*
X121670163Y-101728584D01*
X121757822Y-101597392D01*
X121869392Y-101485822D01*
X122000584Y-101398163D01*
X122022792Y-101388964D01*
X122146358Y-101337781D01*
X122301107Y-101307000D01*
X122458893Y-101307000D01*
X122613642Y-101337781D01*
G37*
G36*
X120033048Y-101311122D02*
G01*
X120067387Y-101321539D01*
X120099036Y-101338456D01*
X120126778Y-101361222D01*
X120149544Y-101388964D01*
X120166461Y-101420613D01*
X120176878Y-101454952D01*
X120181000Y-101496807D01*
X120181000Y-102719193D01*
X120176878Y-102761048D01*
X120166461Y-102795387D01*
X120149544Y-102827036D01*
X120126778Y-102854778D01*
X120099036Y-102877544D01*
X120067387Y-102894461D01*
X120033048Y-102904878D01*
X119991193Y-102909000D01*
X118768807Y-102909000D01*
X118726952Y-102904878D01*
X118692613Y-102894461D01*
X118660964Y-102877544D01*
X118633222Y-102854778D01*
X118610456Y-102827036D01*
X118593539Y-102795387D01*
X118583122Y-102761048D01*
X118579000Y-102719193D01*
X118579000Y-101496807D01*
X118583122Y-101454952D01*
X118593539Y-101420613D01*
X118610456Y-101388964D01*
X118633222Y-101361222D01*
X118660964Y-101338456D01*
X118692613Y-101321539D01*
X118726952Y-101311122D01*
X118768807Y-101307000D01*
X119991193Y-101307000D01*
X120033048Y-101311122D01*
G37*
G36*
X125613642Y-101337781D02*
G01*
X125737208Y-101388964D01*
X125759416Y-101398163D01*
X125890608Y-101485822D01*
X126002178Y-101597392D01*
X126089837Y-101728584D01*
X126089838Y-101728586D01*
X126150219Y-101874358D01*
X126181000Y-102029107D01*
X126181000Y-102186893D01*
X126150219Y-102341642D01*
X126089838Y-102487414D01*
X126089837Y-102487416D01*
X126002178Y-102618608D01*
X125890608Y-102730178D01*
X125759416Y-102817837D01*
X125759415Y-102817838D01*
X125759414Y-102817838D01*
X125613642Y-102878219D01*
X125458893Y-102909000D01*
X125301107Y-102909000D01*
X125146358Y-102878219D01*
X125000586Y-102817838D01*
X125000585Y-102817838D01*
X125000584Y-102817837D01*
X124869392Y-102730178D01*
X124757822Y-102618608D01*
X124670163Y-102487416D01*
X124670162Y-102487414D01*
X124609781Y-102341642D01*
X124579000Y-102186893D01*
X124579000Y-102029107D01*
X124609781Y-101874358D01*
X124670162Y-101728586D01*
X124670163Y-101728584D01*
X124757822Y-101597392D01*
X124869392Y-101485822D01*
X125000584Y-101398163D01*
X125022792Y-101388964D01*
X125146358Y-101337781D01*
X125301107Y-101307000D01*
X125458893Y-101307000D01*
X125613642Y-101337781D01*
G37*
G36*
X131613642Y-101337781D02*
G01*
X131737208Y-101388964D01*
X131759416Y-101398163D01*
X131890608Y-101485822D01*
X132002178Y-101597392D01*
X132089837Y-101728584D01*
X132089838Y-101728586D01*
X132150219Y-101874358D01*
X132181000Y-102029107D01*
X132181000Y-102186893D01*
X132150219Y-102341642D01*
X132089838Y-102487414D01*
X132089837Y-102487416D01*
X132002178Y-102618608D01*
X131890608Y-102730178D01*
X131759416Y-102817837D01*
X131759415Y-102817838D01*
X131759414Y-102817838D01*
X131613642Y-102878219D01*
X131458893Y-102909000D01*
X131301107Y-102909000D01*
X131146358Y-102878219D01*
X131000586Y-102817838D01*
X131000585Y-102817838D01*
X131000584Y-102817837D01*
X130869392Y-102730178D01*
X130757822Y-102618608D01*
X130670163Y-102487416D01*
X130670162Y-102487414D01*
X130609781Y-102341642D01*
X130579000Y-102186893D01*
X130579000Y-102029107D01*
X130609781Y-101874358D01*
X130670162Y-101728586D01*
X130670163Y-101728584D01*
X130757822Y-101597392D01*
X130869392Y-101485822D01*
X131000584Y-101398163D01*
X131022792Y-101388964D01*
X131146358Y-101337781D01*
X131301107Y-101307000D01*
X131458893Y-101307000D01*
X131613642Y-101337781D01*
G37*
G36*
X128613642Y-101337781D02*
G01*
X128737208Y-101388964D01*
X128759416Y-101398163D01*
X128890608Y-101485822D01*
X129002178Y-101597392D01*
X129089837Y-101728584D01*
X129089838Y-101728586D01*
X129150219Y-101874358D01*
X129181000Y-102029107D01*
X129181000Y-102186893D01*
X129150219Y-102341642D01*
X129089838Y-102487414D01*
X129089837Y-102487416D01*
X129002178Y-102618608D01*
X128890608Y-102730178D01*
X128759416Y-102817837D01*
X128759415Y-102817838D01*
X128759414Y-102817838D01*
X128613642Y-102878219D01*
X128458893Y-102909000D01*
X128301107Y-102909000D01*
X128146358Y-102878219D01*
X128000586Y-102817838D01*
X128000585Y-102817838D01*
X128000584Y-102817837D01*
X127869392Y-102730178D01*
X127757822Y-102618608D01*
X127670163Y-102487416D01*
X127670162Y-102487414D01*
X127609781Y-102341642D01*
X127579000Y-102186893D01*
X127579000Y-102029107D01*
X127609781Y-101874358D01*
X127670162Y-101728586D01*
X127670163Y-101728584D01*
X127757822Y-101597392D01*
X127869392Y-101485822D01*
X128000584Y-101398163D01*
X128022792Y-101388964D01*
X128146358Y-101337781D01*
X128301107Y-101307000D01*
X128458893Y-101307000D01*
X128613642Y-101337781D01*
G37*
G36*
X134613642Y-101337781D02*
G01*
X134737208Y-101388964D01*
X134759416Y-101398163D01*
X134890608Y-101485822D01*
X135002178Y-101597392D01*
X135089837Y-101728584D01*
X135089838Y-101728586D01*
X135150219Y-101874358D01*
X135181000Y-102029107D01*
X135181000Y-102186893D01*
X135150219Y-102341642D01*
X135089838Y-102487414D01*
X135089837Y-102487416D01*
X135002178Y-102618608D01*
X134890608Y-102730178D01*
X134759416Y-102817837D01*
X134759415Y-102817838D01*
X134759414Y-102817838D01*
X134613642Y-102878219D01*
X134458893Y-102909000D01*
X134301107Y-102909000D01*
X134146358Y-102878219D01*
X134000586Y-102817838D01*
X134000585Y-102817838D01*
X134000584Y-102817837D01*
X133869392Y-102730178D01*
X133757822Y-102618608D01*
X133670163Y-102487416D01*
X133670162Y-102487414D01*
X133609781Y-102341642D01*
X133579000Y-102186893D01*
X133579000Y-102029107D01*
X133609781Y-101874358D01*
X133670162Y-101728586D01*
X133670163Y-101728584D01*
X133757822Y-101597392D01*
X133869392Y-101485822D01*
X134000584Y-101398163D01*
X134022792Y-101388964D01*
X134146358Y-101337781D01*
X134301107Y-101307000D01*
X134458893Y-101307000D01*
X134613642Y-101337781D01*
G37*
G36*
X111489142Y-100615042D02*
G01*
X111637101Y-100676329D01*
X111770255Y-100765299D01*
X111883501Y-100878545D01*
X111972471Y-101011699D01*
X112033758Y-101159658D01*
X112065000Y-101316725D01*
X112065000Y-101476875D01*
X112033758Y-101633942D01*
X111972471Y-101781901D01*
X111883501Y-101915055D01*
X111770255Y-102028301D01*
X111637101Y-102117271D01*
X111489142Y-102178558D01*
X111332075Y-102209800D01*
X111171925Y-102209800D01*
X111014858Y-102178558D01*
X110866899Y-102117271D01*
X110733745Y-102028301D01*
X110620499Y-101915055D01*
X110531529Y-101781901D01*
X110470242Y-101633942D01*
X110439000Y-101476875D01*
X110439000Y-101316725D01*
X110470242Y-101159658D01*
X110531529Y-101011699D01*
X110620499Y-100878545D01*
X110733745Y-100765299D01*
X110866899Y-100676329D01*
X111014858Y-100615042D01*
X111171925Y-100583800D01*
X111332075Y-100583800D01*
X111489142Y-100615042D01*
G37*
G36*
X108417851Y-99919480D02*
G01*
X108468720Y-99940551D01*
X108519586Y-99961620D01*
X108611142Y-100022796D01*
X108689004Y-100100658D01*
X108750180Y-100192214D01*
X108762080Y-100220944D01*
X108792320Y-100293949D01*
X108813800Y-100401941D01*
X108813800Y-100512059D01*
X108792320Y-100620051D01*
X108771249Y-100670920D01*
X108750180Y-100721786D01*
X108689004Y-100813342D01*
X108611142Y-100891204D01*
X108519586Y-100952380D01*
X108468720Y-100973449D01*
X108417851Y-100994520D01*
X108309859Y-101016000D01*
X108199741Y-101016000D01*
X108091749Y-100994520D01*
X108040880Y-100973449D01*
X107990014Y-100952380D01*
X107898458Y-100891204D01*
X107820596Y-100813342D01*
X107759420Y-100721786D01*
X107738351Y-100670920D01*
X107717280Y-100620051D01*
X107695800Y-100512059D01*
X107695800Y-100401941D01*
X107717280Y-100293949D01*
X107747520Y-100220944D01*
X107759420Y-100192214D01*
X107820596Y-100100658D01*
X107898458Y-100022796D01*
X107990014Y-99961620D01*
X108040880Y-99940551D01*
X108091749Y-99919480D01*
X108199741Y-99898000D01*
X108309859Y-99898000D01*
X108417851Y-99919480D01*
G37*
G36*
X114412251Y-99919480D02*
G01*
X114463120Y-99940551D01*
X114513986Y-99961620D01*
X114605542Y-100022796D01*
X114683404Y-100100658D01*
X114744580Y-100192214D01*
X114756480Y-100220944D01*
X114786720Y-100293949D01*
X114808200Y-100401941D01*
X114808200Y-100512059D01*
X114786720Y-100620051D01*
X114765649Y-100670920D01*
X114744580Y-100721786D01*
X114683404Y-100813342D01*
X114605542Y-100891204D01*
X114513986Y-100952380D01*
X114463120Y-100973449D01*
X114412251Y-100994520D01*
X114304259Y-101016000D01*
X114194141Y-101016000D01*
X114086149Y-100994520D01*
X114035280Y-100973449D01*
X113984414Y-100952380D01*
X113892858Y-100891204D01*
X113814996Y-100813342D01*
X113753820Y-100721786D01*
X113732751Y-100670920D01*
X113711680Y-100620051D01*
X113690200Y-100512059D01*
X113690200Y-100401941D01*
X113711680Y-100293949D01*
X113741920Y-100220944D01*
X113753820Y-100192214D01*
X113814996Y-100100658D01*
X113892858Y-100022796D01*
X113984414Y-99961620D01*
X114035280Y-99940551D01*
X114086149Y-99919480D01*
X114194141Y-99898000D01*
X114304259Y-99898000D01*
X114412251Y-99919480D01*
G37*
G36*
X160925000Y-100897000D02*
G01*
X159623000Y-100897000D01*
X159623000Y-99595000D01*
X160925000Y-99595000D01*
X160925000Y-100897000D01*
G37*
G36*
X153884914Y-98859514D02*
G01*
X153884916Y-98859515D01*
X153884917Y-98859515D01*
X154019006Y-98915056D01*
X154139683Y-98995690D01*
X154242310Y-99098317D01*
X154322944Y-99218994D01*
X154378485Y-99353083D01*
X154406800Y-99495432D01*
X154406800Y-99640568D01*
X154378485Y-99782917D01*
X154322944Y-99917006D01*
X154242310Y-100037683D01*
X154139683Y-100140310D01*
X154019006Y-100220944D01*
X153884917Y-100276485D01*
X153884916Y-100276485D01*
X153884914Y-100276486D01*
X153742570Y-100304800D01*
X153597430Y-100304800D01*
X153455086Y-100276486D01*
X153455084Y-100276485D01*
X153455083Y-100276485D01*
X153320994Y-100220944D01*
X153200317Y-100140310D01*
X153097690Y-100037683D01*
X153017056Y-99917006D01*
X152961515Y-99782917D01*
X152933200Y-99640568D01*
X152933200Y-99495432D01*
X152961515Y-99353083D01*
X153017056Y-99218994D01*
X153097690Y-99098317D01*
X153200317Y-98995690D01*
X153320994Y-98915056D01*
X153455083Y-98859515D01*
X153455084Y-98859515D01*
X153455086Y-98859514D01*
X153597430Y-98831200D01*
X153742570Y-98831200D01*
X153884914Y-98859514D01*
G37*
G36*
X160467000Y-98887000D02*
G01*
X159065000Y-98887000D01*
X159065000Y-98085000D01*
X160467000Y-98085000D01*
X160467000Y-98887000D01*
G37*
G36*
X142575000Y-98745000D02*
G01*
X141773000Y-98745000D01*
X141773000Y-97343000D01*
X142575000Y-97343000D01*
X142575000Y-98745000D01*
G37*
G36*
X129499000Y-98745000D02*
G01*
X128697000Y-98745000D01*
X128697000Y-97343000D01*
X129499000Y-97343000D01*
X129499000Y-98745000D01*
G37*
G36*
X131399000Y-98745000D02*
G01*
X130597000Y-98745000D01*
X130597000Y-97343000D01*
X131399000Y-97343000D01*
X131399000Y-98745000D01*
G37*
G36*
X140675000Y-98745000D02*
G01*
X139873000Y-98745000D01*
X139873000Y-97343000D01*
X140675000Y-97343000D01*
X140675000Y-98745000D01*
G37*
G36*
X133747000Y-98271000D02*
G01*
X132445000Y-98271000D01*
X132445000Y-96969000D01*
X133747000Y-96969000D01*
X133747000Y-98271000D01*
G37*
G36*
X125049000Y-98237000D02*
G01*
X124247000Y-98237000D01*
X124247000Y-96835000D01*
X125049000Y-96835000D01*
X125049000Y-98237000D01*
G37*
G36*
X123149000Y-98237000D02*
G01*
X122347000Y-98237000D01*
X122347000Y-96835000D01*
X123149000Y-96835000D01*
X123149000Y-98237000D01*
G37*
G36*
X137103000Y-97817000D02*
G01*
X136201000Y-97817000D01*
X136201000Y-96815000D01*
X137103000Y-96815000D01*
X137103000Y-97817000D01*
G37*
G36*
X127143000Y-97763000D02*
G01*
X125841000Y-97763000D01*
X125841000Y-96461000D01*
X127143000Y-96461000D01*
X127143000Y-97763000D01*
G37*
G36*
X116921000Y-97475000D02*
G01*
X116119000Y-97475000D01*
X116119000Y-96073000D01*
X116921000Y-96073000D01*
X116921000Y-97475000D01*
G37*
G36*
X115021000Y-97475000D02*
G01*
X114219000Y-97475000D01*
X114219000Y-96073000D01*
X115021000Y-96073000D01*
X115021000Y-97475000D01*
G37*
G36*
X112211000Y-97309000D02*
G01*
X111309000Y-97309000D01*
X111309000Y-96307000D01*
X112211000Y-96307000D01*
X112211000Y-97309000D01*
G37*
G36*
X160467000Y-96987000D02*
G01*
X159065000Y-96987000D01*
X159065000Y-96185000D01*
X160467000Y-96185000D01*
X160467000Y-96987000D01*
G37*
G36*
X144839000Y-96917000D02*
G01*
X143537000Y-96917000D01*
X143537000Y-95615000D01*
X144839000Y-95615000D01*
X144839000Y-96917000D01*
G37*
G36*
X147039000Y-96917000D02*
G01*
X145737000Y-96917000D01*
X145737000Y-95615000D01*
X147039000Y-95615000D01*
X147039000Y-96917000D01*
G37*
G36*
X121639000Y-96409000D02*
G01*
X120337000Y-96409000D01*
X120337000Y-95107000D01*
X121639000Y-95107000D01*
X121639000Y-96409000D01*
G37*
G36*
X119439000Y-96409000D02*
G01*
X118137000Y-96409000D01*
X118137000Y-95107000D01*
X119439000Y-95107000D01*
X119439000Y-96409000D01*
G37*
G36*
X133747000Y-96071000D02*
G01*
X132445000Y-96071000D01*
X132445000Y-94769000D01*
X133747000Y-94769000D01*
X133747000Y-96071000D01*
G37*
G36*
X138053000Y-95717000D02*
G01*
X137151000Y-95717000D01*
X137151000Y-94715000D01*
X138053000Y-94715000D01*
X138053000Y-95717000D01*
G37*
G36*
X136153000Y-95717000D02*
G01*
X135251000Y-95717000D01*
X135251000Y-94715000D01*
X136153000Y-94715000D01*
X136153000Y-95717000D01*
G37*
G36*
X127143000Y-95563000D02*
G01*
X125841000Y-95563000D01*
X125841000Y-94261000D01*
X127143000Y-94261000D01*
X127143000Y-95563000D01*
G37*
G36*
X131399000Y-95443000D02*
G01*
X130597000Y-95443000D01*
X130597000Y-94041000D01*
X131399000Y-94041000D01*
X131399000Y-95443000D01*
G37*
G36*
X140675000Y-95443000D02*
G01*
X139873000Y-95443000D01*
X139873000Y-94041000D01*
X140675000Y-94041000D01*
X140675000Y-95443000D01*
G37*
G36*
X142575000Y-95443000D02*
G01*
X141773000Y-95443000D01*
X141773000Y-94041000D01*
X142575000Y-94041000D01*
X142575000Y-95443000D01*
G37*
G36*
X129499000Y-95443000D02*
G01*
X128697000Y-95443000D01*
X128697000Y-94041000D01*
X129499000Y-94041000D01*
X129499000Y-95443000D01*
G37*
G36*
X113161000Y-95209000D02*
G01*
X112259000Y-95209000D01*
X112259000Y-94207000D01*
X113161000Y-94207000D01*
X113161000Y-95209000D01*
G37*
G36*
X111261000Y-95209000D02*
G01*
X110359000Y-95209000D01*
X110359000Y-94207000D01*
X111261000Y-94207000D01*
X111261000Y-95209000D01*
G37*
G36*
X115021000Y-95189000D02*
G01*
X114219000Y-95189000D01*
X114219000Y-93787000D01*
X115021000Y-93787000D01*
X115021000Y-95189000D01*
G37*
G36*
X116921000Y-95189000D02*
G01*
X116119000Y-95189000D01*
X116119000Y-93787000D01*
X116921000Y-93787000D01*
X116921000Y-95189000D01*
G37*
G36*
X152105000Y-94935000D02*
G01*
X151303000Y-94935000D01*
X151303000Y-93533000D01*
X152105000Y-93533000D01*
X152105000Y-94935000D01*
G37*
G36*
X154005000Y-94935000D02*
G01*
X153203000Y-94935000D01*
X153203000Y-93533000D01*
X154005000Y-93533000D01*
X154005000Y-94935000D01*
G37*
G36*
X125049000Y-94935000D02*
G01*
X124247000Y-94935000D01*
X124247000Y-93533000D01*
X125049000Y-93533000D01*
X125049000Y-94935000D01*
G37*
G36*
X123149000Y-94935000D02*
G01*
X122347000Y-94935000D01*
X122347000Y-93533000D01*
X123149000Y-93533000D01*
X123149000Y-94935000D01*
G37*
G36*
X155915000Y-93919000D02*
G01*
X155113000Y-93919000D01*
X155113000Y-92517000D01*
X155915000Y-92517000D01*
X155915000Y-93919000D01*
G37*
G36*
X157815000Y-93919000D02*
G01*
X157013000Y-93919000D01*
X157013000Y-92517000D01*
X157815000Y-92517000D01*
X157815000Y-93919000D01*
G37*
G36*
X152105000Y-92333000D02*
G01*
X151103000Y-92333000D01*
X151103000Y-91431000D01*
X152105000Y-91431000D01*
X152105000Y-92333000D01*
G37*
G36*
X162533000Y-92091000D02*
G01*
X161231000Y-92091000D01*
X161231000Y-90789000D01*
X162533000Y-90789000D01*
X162533000Y-92091000D01*
G37*
G36*
X160333000Y-92091000D02*
G01*
X159031000Y-92091000D01*
X159031000Y-90789000D01*
X160333000Y-90789000D01*
X160333000Y-92091000D01*
G37*
G36*
X154205000Y-91383000D02*
G01*
X153203000Y-91383000D01*
X153203000Y-90481000D01*
X154205000Y-90481000D01*
X154205000Y-91383000D01*
G37*
G36*
X123079000Y-91159000D02*
G01*
X121777000Y-91159000D01*
X121777000Y-89857000D01*
X123079000Y-89857000D01*
X123079000Y-91159000D01*
G37*
G36*
X120031000Y-91159000D02*
G01*
X118729000Y-91159000D01*
X118729000Y-89857000D01*
X120031000Y-89857000D01*
X120031000Y-91159000D01*
G37*
G36*
X126127000Y-91159000D02*
G01*
X124825000Y-91159000D01*
X124825000Y-89857000D01*
X126127000Y-89857000D01*
X126127000Y-91159000D01*
G37*
G36*
X157815000Y-90617000D02*
G01*
X157013000Y-90617000D01*
X157013000Y-89215000D01*
X157815000Y-89215000D01*
X157815000Y-90617000D01*
G37*
G36*
X155915000Y-90617000D02*
G01*
X155113000Y-90617000D01*
X155113000Y-89215000D01*
X155915000Y-89215000D01*
X155915000Y-90617000D01*
G37*
G36*
X152105000Y-90433000D02*
G01*
X151103000Y-90433000D01*
X151103000Y-89531000D01*
X152105000Y-89531000D01*
X152105000Y-90433000D01*
G37*
G36*
X126127000Y-88959000D02*
G01*
X124825000Y-88959000D01*
X124825000Y-87657000D01*
X126127000Y-87657000D01*
X126127000Y-88959000D01*
G37*
G36*
X120031000Y-88959000D02*
G01*
X118729000Y-88959000D01*
X118729000Y-87657000D01*
X120031000Y-87657000D01*
X120031000Y-88959000D01*
G37*
G36*
X123079000Y-88959000D02*
G01*
X121777000Y-88959000D01*
X121777000Y-87657000D01*
X123079000Y-87657000D01*
X123079000Y-88959000D01*
G37*
G36*
X126177000Y-86949000D02*
G01*
X124775000Y-86949000D01*
X124775000Y-86147000D01*
X126177000Y-86147000D01*
X126177000Y-86949000D01*
G37*
G36*
X123129000Y-86949000D02*
G01*
X121727000Y-86949000D01*
X121727000Y-86147000D01*
X123129000Y-86147000D01*
X123129000Y-86949000D01*
G37*
G36*
X120081000Y-86949000D02*
G01*
X118679000Y-86949000D01*
X118679000Y-86147000D01*
X120081000Y-86147000D01*
X120081000Y-86949000D01*
G37*
G36*
X152105000Y-86807000D02*
G01*
X151303000Y-86807000D01*
X151303000Y-85405000D01*
X152105000Y-85405000D01*
X152105000Y-86807000D01*
G37*
G36*
X158323000Y-86807000D02*
G01*
X157521000Y-86807000D01*
X157521000Y-85405000D01*
X158323000Y-85405000D01*
X158323000Y-86807000D01*
G37*
G36*
X154005000Y-86807000D02*
G01*
X153203000Y-86807000D01*
X153203000Y-85405000D01*
X154005000Y-85405000D01*
X154005000Y-86807000D01*
G37*
G36*
X156423000Y-86807000D02*
G01*
X155621000Y-86807000D01*
X155621000Y-85405000D01*
X156423000Y-85405000D01*
X156423000Y-86807000D01*
G37*
G36*
X141559000Y-86299000D02*
G01*
X140757000Y-86299000D01*
X140757000Y-84897000D01*
X141559000Y-84897000D01*
X141559000Y-86299000D01*
G37*
G36*
X139659000Y-86299000D02*
G01*
X138857000Y-86299000D01*
X138857000Y-84897000D01*
X139659000Y-84897000D01*
X139659000Y-86299000D01*
G37*
G36*
X143932000Y-86133000D02*
G01*
X142580000Y-86133000D01*
X142580000Y-85031000D01*
X143932000Y-85031000D01*
X143932000Y-86133000D01*
G37*
G36*
X126177000Y-85049000D02*
G01*
X124775000Y-85049000D01*
X124775000Y-84247000D01*
X126177000Y-84247000D01*
X126177000Y-85049000D01*
G37*
G36*
X120081000Y-85049000D02*
G01*
X118679000Y-85049000D01*
X118679000Y-84247000D01*
X120081000Y-84247000D01*
X120081000Y-85049000D01*
G37*
G36*
X123129000Y-85049000D02*
G01*
X121727000Y-85049000D01*
X121727000Y-84247000D01*
X123129000Y-84247000D01*
X123129000Y-85049000D01*
G37*
G36*
X162787000Y-84979000D02*
G01*
X161485000Y-84979000D01*
X161485000Y-83677000D01*
X162787000Y-83677000D01*
X162787000Y-84979000D01*
G37*
G36*
X160587000Y-84979000D02*
G01*
X159285000Y-84979000D01*
X159285000Y-83677000D01*
X160587000Y-83677000D01*
X160587000Y-84979000D01*
G37*
G36*
X112164000Y-84694300D02*
G01*
X108562000Y-84694300D01*
X108562000Y-82812300D01*
X112164000Y-82812300D01*
X112164000Y-84694300D01*
G37*
G36*
X152105000Y-84459000D02*
G01*
X151103000Y-84459000D01*
X151103000Y-83557000D01*
X152105000Y-83557000D01*
X152105000Y-84459000D01*
G37*
G36*
X143932000Y-84133000D02*
G01*
X142580000Y-84133000D01*
X142580000Y-83031000D01*
X143932000Y-83031000D01*
X143932000Y-84133000D01*
G37*
G36*
X141759000Y-83988000D02*
G01*
X140657000Y-83988000D01*
X140657000Y-82636000D01*
X141759000Y-82636000D01*
X141759000Y-83988000D01*
G37*
G36*
X139759000Y-83988000D02*
G01*
X138657000Y-83988000D01*
X138657000Y-82636000D01*
X139759000Y-82636000D01*
X139759000Y-83988000D01*
G37*
G36*
X154205000Y-83509000D02*
G01*
X153203000Y-83509000D01*
X153203000Y-82607000D01*
X154205000Y-82607000D01*
X154205000Y-83509000D01*
G37*
G36*
X156423000Y-83251000D02*
G01*
X155621000Y-83251000D01*
X155621000Y-81849000D01*
X156423000Y-81849000D01*
X156423000Y-83251000D01*
G37*
G36*
X158323000Y-83251000D02*
G01*
X157521000Y-83251000D01*
X157521000Y-81849000D01*
X158323000Y-81849000D01*
X158323000Y-83251000D01*
G37*
G36*
X152105000Y-82559000D02*
G01*
X151103000Y-82559000D01*
X151103000Y-81657000D01*
X152105000Y-81657000D01*
X152105000Y-82559000D01*
G37*
G36*
X141707368Y-77850536D02*
G01*
X141246334Y-78311570D01*
X141141682Y-78416221D01*
X140680648Y-78877255D01*
X140575997Y-78981907D01*
X138417907Y-81139997D01*
X138313255Y-81244648D01*
X137852221Y-81705682D01*
X137747570Y-81810334D01*
X137286536Y-82271368D01*
X136083040Y-81067872D01*
X136544074Y-80606838D01*
X136544075Y-80606839D01*
X136560339Y-80590575D01*
X136560348Y-80590564D01*
X136648726Y-80502187D01*
X136648725Y-80502186D01*
X137109759Y-80041152D01*
X137109760Y-80041153D01*
X137198137Y-79952775D01*
X137198148Y-79952766D01*
X137214412Y-79936502D01*
X137214411Y-79936501D01*
X137675445Y-79475467D01*
X137675446Y-79475468D01*
X137763833Y-79387080D01*
X137780097Y-79370817D01*
X137780096Y-79370816D01*
X138241130Y-78909782D01*
X138241131Y-78909783D01*
X138345783Y-78805131D01*
X138345782Y-78805130D01*
X138806816Y-78344096D01*
X138806817Y-78344097D01*
X138895204Y-78255709D01*
X138911468Y-78239446D01*
X138911467Y-78239445D01*
X139372501Y-77778411D01*
X139372502Y-77778412D01*
X139388766Y-77762148D01*
X139388775Y-77762137D01*
X139477153Y-77673760D01*
X139477152Y-77673759D01*
X139938186Y-77212725D01*
X139938187Y-77212726D01*
X140026564Y-77124348D01*
X140026575Y-77124339D01*
X140042839Y-77108075D01*
X140042838Y-77108074D01*
X140503872Y-76647040D01*
X141707368Y-77850536D01*
G37*
G36*
X131737162Y-77108074D02*
G01*
X131737162Y-77108075D01*
X131753426Y-77124339D01*
X131753432Y-77124344D01*
X131841814Y-77212726D01*
X131841814Y-77212725D01*
X132302848Y-77673759D01*
X132302848Y-77673760D01*
X132391230Y-77762142D01*
X132391235Y-77762148D01*
X132407499Y-77778412D01*
X132407499Y-77778411D01*
X132868533Y-78239445D01*
X132868533Y-78239446D01*
X132973184Y-78344097D01*
X132973184Y-78344096D01*
X133434218Y-78805130D01*
X133434218Y-78805131D01*
X133538870Y-78909783D01*
X133538870Y-78909782D01*
X133999904Y-79370816D01*
X133999904Y-79370817D01*
X134104555Y-79475468D01*
X134104555Y-79475467D01*
X134565589Y-79936501D01*
X134565589Y-79936502D01*
X134581853Y-79952766D01*
X134581859Y-79952771D01*
X134670241Y-80041153D01*
X134670241Y-80041152D01*
X135131275Y-80502186D01*
X135131275Y-80502187D01*
X135219657Y-80590569D01*
X135219662Y-80590575D01*
X135235926Y-80606839D01*
X135235926Y-80606838D01*
X135696960Y-81067872D01*
X134493464Y-82271368D01*
X134032430Y-81810334D01*
X134032431Y-81810334D01*
X133944049Y-81721952D01*
X133944044Y-81721946D01*
X133927780Y-81705682D01*
X133927779Y-81705682D01*
X133466745Y-81244648D01*
X133466746Y-81244648D01*
X133450482Y-81228384D01*
X133450476Y-81228379D01*
X133362094Y-81139997D01*
X133362093Y-81139997D01*
X132901059Y-80678963D01*
X132901060Y-80678963D01*
X132796409Y-80574312D01*
X132796408Y-80574312D01*
X132335374Y-80113278D01*
X132335375Y-80113278D01*
X132230723Y-80008626D01*
X132230722Y-80008626D01*
X131769688Y-79547592D01*
X131769689Y-79547592D01*
X131665038Y-79442941D01*
X131665037Y-79442941D01*
X131204003Y-78981907D01*
X131204004Y-78981907D01*
X131115622Y-78893525D01*
X131115617Y-78893519D01*
X131099353Y-78877255D01*
X131099352Y-78877255D01*
X130638318Y-78416221D01*
X130638319Y-78416221D01*
X130622055Y-78399957D01*
X130622049Y-78399952D01*
X130533667Y-78311570D01*
X130533666Y-78311570D01*
X130072632Y-77850536D01*
X131276128Y-76647040D01*
X131737162Y-77108074D01*
G37*
G36*
X125644000Y-81815000D02*
G01*
X124292000Y-81815000D01*
X124292000Y-80713000D01*
X125644000Y-80713000D01*
X125644000Y-81815000D01*
G37*
G36*
X127921000Y-81715000D02*
G01*
X126419000Y-81715000D01*
X126419000Y-80413000D01*
X127921000Y-80413000D01*
X127921000Y-81715000D01*
G37*
G36*
X130121000Y-81715000D02*
G01*
X128619000Y-81715000D01*
X128619000Y-80413000D01*
X130121000Y-80413000D01*
X130121000Y-81715000D01*
G37*
G36*
X117564000Y-81643300D02*
G01*
X115862000Y-81643300D01*
X115862000Y-80541300D01*
X117564000Y-80541300D01*
X117564000Y-81643300D01*
G37*
G36*
X115039500Y-81167300D02*
G01*
X113687500Y-81167300D01*
X113687500Y-80065300D01*
X115039500Y-80065300D01*
X115039500Y-81167300D01*
G37*
G36*
X130121000Y-80115000D02*
G01*
X128619000Y-80115000D01*
X128619000Y-78813000D01*
X130121000Y-78813000D01*
X130121000Y-80115000D01*
G37*
G36*
X127921000Y-80115000D02*
G01*
X126419000Y-80115000D01*
X126419000Y-78813000D01*
X127921000Y-78813000D01*
X127921000Y-80115000D01*
G37*
G36*
X125644000Y-79815000D02*
G01*
X124292000Y-79815000D01*
X124292000Y-78713000D01*
X125644000Y-78713000D01*
X125644000Y-79815000D01*
G37*
G36*
X154005000Y-79695000D02*
G01*
X153203000Y-79695000D01*
X153203000Y-78293000D01*
X154005000Y-78293000D01*
X154005000Y-79695000D01*
G37*
G36*
X152105000Y-79695000D02*
G01*
X151303000Y-79695000D01*
X151303000Y-78293000D01*
X152105000Y-78293000D01*
X152105000Y-79695000D01*
G37*
G36*
X112164000Y-79414300D02*
G01*
X108562000Y-79414300D01*
X108562000Y-77532300D01*
X112164000Y-77532300D01*
X112164000Y-79414300D01*
G37*
G36*
X155915000Y-79187000D02*
G01*
X155113000Y-79187000D01*
X155113000Y-77785000D01*
X155915000Y-77785000D01*
X155915000Y-79187000D01*
G37*
G36*
X157815000Y-79187000D02*
G01*
X157013000Y-79187000D01*
X157013000Y-77785000D01*
X157815000Y-77785000D01*
X157815000Y-79187000D01*
G37*
G36*
X115039500Y-79167300D02*
G01*
X113687500Y-79167300D01*
X113687500Y-78065300D01*
X115039500Y-78065300D01*
X115039500Y-79167300D01*
G37*
G36*
X117564000Y-78643300D02*
G01*
X115862000Y-78643300D01*
X115862000Y-77541300D01*
X117564000Y-77541300D01*
X117564000Y-78643300D01*
G37*
G36*
X127789000Y-78146000D02*
G01*
X126687000Y-78146000D01*
X126687000Y-76794000D01*
X127789000Y-76794000D01*
X127789000Y-78146000D01*
G37*
G36*
X125789000Y-78146000D02*
G01*
X124687000Y-78146000D01*
X124687000Y-76794000D01*
X125789000Y-76794000D01*
X125789000Y-78146000D01*
G37*
G36*
X162533000Y-77613000D02*
G01*
X161231000Y-77613000D01*
X161231000Y-76311000D01*
X162533000Y-76311000D01*
X162533000Y-77613000D01*
G37*
G36*
X160333000Y-77613000D02*
G01*
X159031000Y-77613000D01*
X159031000Y-76311000D01*
X160333000Y-76311000D01*
X160333000Y-77613000D01*
G37*
G36*
X115348460Y-77371700D02*
G01*
X113246460Y-77371700D01*
X113246460Y-76069700D01*
X115348460Y-76069700D01*
X115348460Y-77371700D01*
G37*
G36*
X152105000Y-77347000D02*
G01*
X151103000Y-77347000D01*
X151103000Y-76445000D01*
X152105000Y-76445000D01*
X152105000Y-77347000D01*
G37*
G36*
X112008920Y-76423200D02*
G01*
X108706920Y-76423200D01*
X108706920Y-75321200D01*
X112008920Y-75321200D01*
X112008920Y-76423200D01*
G37*
G36*
X154205000Y-76397000D02*
G01*
X153203000Y-76397000D01*
X153203000Y-75495000D01*
X154205000Y-75495000D01*
X154205000Y-76397000D01*
G37*
G36*
X122113000Y-76339420D02*
G01*
X120711000Y-76339420D01*
X120711000Y-75537420D01*
X122113000Y-75537420D01*
X122113000Y-76339420D01*
G37*
G36*
X117534000Y-76291800D02*
G01*
X116432000Y-76291800D01*
X116432000Y-74939800D01*
X117534000Y-74939800D01*
X117534000Y-76291800D01*
G37*
G36*
X119534000Y-76291800D02*
G01*
X118432000Y-76291800D01*
X118432000Y-74939800D01*
X119534000Y-74939800D01*
X119534000Y-76291800D01*
G37*
G36*
X135696960Y-71840128D02*
G01*
X135219662Y-72317426D01*
X135131275Y-72405814D01*
X134670241Y-72866848D01*
X134581853Y-72955235D01*
X134104555Y-73432533D01*
X134016167Y-73520920D01*
X133999904Y-73537184D01*
X132973184Y-74563904D01*
X132884796Y-74652291D01*
X132868533Y-74668555D01*
X132391235Y-75145853D01*
X132302848Y-75234241D01*
X131841814Y-75695275D01*
X131753426Y-75783662D01*
X131276128Y-76260960D01*
X130072632Y-75057464D01*
X130533666Y-74596430D01*
X130533667Y-74596431D01*
X130622044Y-74508053D01*
X130622055Y-74508044D01*
X130638319Y-74491780D01*
X130638318Y-74491779D01*
X131099352Y-74030745D01*
X131099353Y-74030746D01*
X131115617Y-74014482D01*
X131115626Y-74014471D01*
X131204004Y-73926094D01*
X131204003Y-73926093D01*
X131665037Y-73465059D01*
X131665038Y-73465060D01*
X131769689Y-73360409D01*
X131769688Y-73360408D01*
X132230722Y-72899374D01*
X132230723Y-72899375D01*
X132335375Y-72794723D01*
X132335374Y-72794722D01*
X132796408Y-72333688D01*
X132796409Y-72333689D01*
X132901060Y-72229038D01*
X132901059Y-72229037D01*
X133362093Y-71768003D01*
X133362094Y-71768004D01*
X133450471Y-71679626D01*
X133450482Y-71679617D01*
X133466746Y-71663353D01*
X133466745Y-71663352D01*
X133927779Y-71202318D01*
X133927780Y-71202319D01*
X133944044Y-71186055D01*
X133944053Y-71186044D01*
X134032431Y-71097667D01*
X134032430Y-71097666D01*
X134493464Y-70636632D01*
X135696960Y-71840128D01*
G37*
G36*
X137747570Y-71097666D02*
G01*
X137747570Y-71097667D01*
X137835952Y-71186049D01*
X137835957Y-71186055D01*
X137852221Y-71202319D01*
X137852221Y-71202318D01*
X138313255Y-71663352D01*
X138313255Y-71663353D01*
X138329519Y-71679617D01*
X138329525Y-71679622D01*
X138417907Y-71768004D01*
X138417907Y-71768003D01*
X138878941Y-72229037D01*
X138878941Y-72229038D01*
X138983592Y-72333689D01*
X138983592Y-72333688D01*
X139444626Y-72794722D01*
X139444626Y-72794723D01*
X139549278Y-72899375D01*
X139549278Y-72899374D01*
X140010312Y-73360408D01*
X140010312Y-73360409D01*
X140114963Y-73465060D01*
X140114963Y-73465059D01*
X140575997Y-73926093D01*
X140575997Y-73926094D01*
X140664379Y-74014476D01*
X140664384Y-74014482D01*
X140680648Y-74030746D01*
X140680648Y-74030745D01*
X141141682Y-74491779D01*
X141141682Y-74491780D01*
X141157946Y-74508044D01*
X141157952Y-74508049D01*
X141246334Y-74596431D01*
X141246334Y-74596430D01*
X141707368Y-75057464D01*
X140503872Y-76260960D01*
X140042838Y-75799926D01*
X140042839Y-75799926D01*
X140026575Y-75783662D01*
X140026569Y-75783657D01*
X139938187Y-75695275D01*
X139938186Y-75695275D01*
X139477152Y-75234241D01*
X139477153Y-75234241D01*
X139388771Y-75145859D01*
X139388766Y-75145853D01*
X139372502Y-75129589D01*
X139372501Y-75129589D01*
X138911467Y-74668555D01*
X138911468Y-74668555D01*
X138806817Y-74563904D01*
X138806816Y-74563904D01*
X138345782Y-74102870D01*
X138345783Y-74102870D01*
X138241131Y-73998218D01*
X138241130Y-73998218D01*
X137780096Y-73537184D01*
X137780097Y-73537184D01*
X137675446Y-73432533D01*
X137675445Y-73432533D01*
X137214411Y-72971499D01*
X137214412Y-72971499D01*
X137198148Y-72955235D01*
X137198142Y-72955230D01*
X137109760Y-72866848D01*
X137109759Y-72866848D01*
X136648725Y-72405814D01*
X136648726Y-72405814D01*
X136560344Y-72317432D01*
X136560339Y-72317426D01*
X136544075Y-72301162D01*
X136544074Y-72301162D01*
X136083040Y-71840128D01*
X137286536Y-70636632D01*
X137747570Y-71097666D01*
G37*
G36*
X157815000Y-75885000D02*
G01*
X157013000Y-75885000D01*
X157013000Y-74483000D01*
X157815000Y-74483000D01*
X157815000Y-75885000D01*
G37*
G36*
X155915000Y-75885000D02*
G01*
X155113000Y-75885000D01*
X155113000Y-74483000D01*
X155915000Y-74483000D01*
X155915000Y-75885000D01*
G37*
G36*
X152105000Y-75447000D02*
G01*
X151103000Y-75447000D01*
X151103000Y-74545000D01*
X152105000Y-74545000D01*
X152105000Y-75447000D01*
G37*
G36*
X122113000Y-74439420D02*
G01*
X120711000Y-74439420D01*
X120711000Y-73637420D01*
X122113000Y-73637420D01*
X122113000Y-74439420D01*
G37*
G36*
X115348460Y-74171700D02*
G01*
X113246460Y-74171700D01*
X113246460Y-72869700D01*
X115348460Y-72869700D01*
X115348460Y-74171700D01*
G37*
G36*
X117479200Y-73647600D02*
G01*
X115817200Y-73647600D01*
X115817200Y-70995600D01*
X117479200Y-70995600D01*
X117479200Y-73647600D01*
G37*
G36*
X120179200Y-73647600D02*
G01*
X118517200Y-73647600D01*
X118517200Y-70995600D01*
X120179200Y-70995600D01*
X120179200Y-73647600D01*
G37*
G36*
X122113000Y-72453220D02*
G01*
X120711000Y-72453220D01*
X120711000Y-71651220D01*
X122113000Y-71651220D01*
X122113000Y-72453220D01*
G37*
G36*
X154005000Y-72075000D02*
G01*
X153203000Y-72075000D01*
X153203000Y-70673000D01*
X154005000Y-70673000D01*
X154005000Y-72075000D01*
G37*
G36*
X152105000Y-72075000D02*
G01*
X151303000Y-72075000D01*
X151303000Y-70673000D01*
X152105000Y-70673000D01*
X152105000Y-72075000D01*
G37*
G36*
X107965000Y-72045000D02*
G01*
X107163000Y-72045000D01*
X107163000Y-70643000D01*
X107965000Y-70643000D01*
X107965000Y-72045000D01*
G37*
G36*
X106065000Y-72045000D02*
G01*
X105263000Y-72045000D01*
X105263000Y-70643000D01*
X106065000Y-70643000D01*
X106065000Y-72045000D01*
G37*
G36*
X104565000Y-71995000D02*
G01*
X103263000Y-71995000D01*
X103263000Y-70693000D01*
X104565000Y-70693000D01*
X104565000Y-71995000D01*
G37*
G36*
X102365000Y-71995000D02*
G01*
X101063000Y-71995000D01*
X101063000Y-70693000D01*
X102365000Y-70693000D01*
X102365000Y-71995000D01*
G37*
G36*
X156423000Y-71567000D02*
G01*
X155621000Y-71567000D01*
X155621000Y-70165000D01*
X156423000Y-70165000D01*
X156423000Y-71567000D01*
G37*
G36*
X158323000Y-71567000D02*
G01*
X157521000Y-71567000D01*
X157521000Y-70165000D01*
X158323000Y-70165000D01*
X158323000Y-71567000D01*
G37*
G36*
X131145000Y-70805000D02*
G01*
X130343000Y-70805000D01*
X130343000Y-69403000D01*
X131145000Y-69403000D01*
X131145000Y-70805000D01*
G37*
G36*
X129245000Y-70805000D02*
G01*
X128443000Y-70805000D01*
X128443000Y-69403000D01*
X129245000Y-69403000D01*
X129245000Y-70805000D01*
G37*
G36*
X122113000Y-70553220D02*
G01*
X120711000Y-70553220D01*
X120711000Y-69751220D01*
X122113000Y-69751220D01*
X122113000Y-70553220D01*
G37*
G36*
X112008920Y-70223200D02*
G01*
X108706920Y-70223200D01*
X108706920Y-69121200D01*
X112008920Y-69121200D01*
X112008920Y-70223200D01*
G37*
G36*
X160841000Y-69993000D02*
G01*
X159539000Y-69993000D01*
X159539000Y-68691000D01*
X160841000Y-68691000D01*
X160841000Y-69993000D01*
G37*
G36*
X163041000Y-69993000D02*
G01*
X161739000Y-69993000D01*
X161739000Y-68691000D01*
X163041000Y-68691000D01*
X163041000Y-69993000D01*
G37*
G36*
X140147000Y-69931000D02*
G01*
X138745000Y-69931000D01*
X138745000Y-69129000D01*
X140147000Y-69129000D01*
X140147000Y-69931000D01*
G37*
G36*
X117458091Y-68680385D02*
G01*
X117492069Y-68690693D01*
X117523390Y-68707434D01*
X117550839Y-68729961D01*
X117573366Y-68757410D01*
X117590107Y-68788731D01*
X117600415Y-68822709D01*
X117604500Y-68864190D01*
X117604500Y-69540410D01*
X117600415Y-69581891D01*
X117590107Y-69615869D01*
X117573366Y-69647190D01*
X117550839Y-69674639D01*
X117523390Y-69697166D01*
X117492069Y-69713907D01*
X117458091Y-69724215D01*
X117416610Y-69728300D01*
X116815390Y-69728300D01*
X116773909Y-69724215D01*
X116739931Y-69713907D01*
X116708610Y-69697166D01*
X116681161Y-69674639D01*
X116658634Y-69647190D01*
X116641893Y-69615869D01*
X116631585Y-69581891D01*
X116627500Y-69540410D01*
X116627500Y-68864190D01*
X116631585Y-68822709D01*
X116641893Y-68788731D01*
X116658634Y-68757410D01*
X116681161Y-68729961D01*
X116708610Y-68707434D01*
X116739931Y-68690693D01*
X116773909Y-68680385D01*
X116815390Y-68676300D01*
X117416610Y-68676300D01*
X117458091Y-68680385D01*
G37*
G36*
X119033091Y-68680385D02*
G01*
X119067069Y-68690693D01*
X119098390Y-68707434D01*
X119125839Y-68729961D01*
X119148366Y-68757410D01*
X119165107Y-68788731D01*
X119175415Y-68822709D01*
X119179500Y-68864190D01*
X119179500Y-69540410D01*
X119175415Y-69581891D01*
X119165107Y-69615869D01*
X119148366Y-69647190D01*
X119125839Y-69674639D01*
X119098390Y-69697166D01*
X119067069Y-69713907D01*
X119033091Y-69724215D01*
X118991610Y-69728300D01*
X118390390Y-69728300D01*
X118348909Y-69724215D01*
X118314931Y-69713907D01*
X118283610Y-69697166D01*
X118256161Y-69674639D01*
X118233634Y-69647190D01*
X118216893Y-69615869D01*
X118206585Y-69581891D01*
X118202500Y-69540410D01*
X118202500Y-68864190D01*
X118206585Y-68822709D01*
X118216893Y-68788731D01*
X118233634Y-68757410D01*
X118256161Y-68729961D01*
X118283610Y-68707434D01*
X118314931Y-68690693D01*
X118348909Y-68680385D01*
X118390390Y-68676300D01*
X118991610Y-68676300D01*
X119033091Y-68680385D01*
G37*
G36*
X152105000Y-69727000D02*
G01*
X151103000Y-69727000D01*
X151103000Y-68825000D01*
X152105000Y-68825000D01*
X152105000Y-69727000D01*
G37*
G36*
X115537500Y-69565800D02*
G01*
X112935500Y-69565800D01*
X112935500Y-68563800D01*
X115537500Y-68563800D01*
X115537500Y-69565800D01*
G37*
G36*
X154205000Y-68777000D02*
G01*
X153203000Y-68777000D01*
X153203000Y-67875000D01*
X154205000Y-67875000D01*
X154205000Y-68777000D01*
G37*
G36*
X131785000Y-68773000D02*
G01*
X130983000Y-68773000D01*
X130983000Y-67371000D01*
X131785000Y-67371000D01*
X131785000Y-68773000D01*
G37*
G36*
X133685000Y-68773000D02*
G01*
X132883000Y-68773000D01*
X132883000Y-67371000D01*
X133685000Y-67371000D01*
X133685000Y-68773000D01*
G37*
G36*
X156423000Y-68265000D02*
G01*
X155621000Y-68265000D01*
X155621000Y-66863000D01*
X156423000Y-66863000D01*
X156423000Y-68265000D01*
G37*
G36*
X158323000Y-68265000D02*
G01*
X157521000Y-68265000D01*
X157521000Y-66863000D01*
X158323000Y-66863000D01*
X158323000Y-68265000D01*
G37*
G36*
X119645000Y-68072360D02*
G01*
X118543000Y-68072360D01*
X118543000Y-66720360D01*
X119645000Y-66720360D01*
X119645000Y-68072360D01*
G37*
G36*
X117645000Y-68072360D02*
G01*
X116543000Y-68072360D01*
X116543000Y-66720360D01*
X117645000Y-66720360D01*
X117645000Y-68072360D01*
G37*
G36*
X140147000Y-68031000D02*
G01*
X138745000Y-68031000D01*
X138745000Y-67229000D01*
X140147000Y-67229000D01*
X140147000Y-68031000D01*
G37*
G36*
X152105000Y-67827000D02*
G01*
X151103000Y-67827000D01*
X151103000Y-66925000D01*
X152105000Y-66925000D01*
X152105000Y-67827000D01*
G37*
G36*
X115537500Y-66665800D02*
G01*
X112935500Y-66665800D01*
X112935500Y-65663800D01*
X115537500Y-65663800D01*
X115537500Y-66665800D01*
G37*
G36*
X130206000Y-66010000D02*
G01*
X128554000Y-66010000D01*
X128554000Y-65308000D01*
X130206000Y-65308000D01*
X130206000Y-66010000D01*
G37*
G36*
X135606000Y-66010000D02*
G01*
X133954000Y-66010000D01*
X133954000Y-65308000D01*
X135606000Y-65308000D01*
X135606000Y-66010000D01*
G37*
G36*
X130206000Y-64740000D02*
G01*
X128554000Y-64740000D01*
X128554000Y-64038000D01*
X130206000Y-64038000D01*
X130206000Y-64740000D01*
G37*
G36*
X135606000Y-64740000D02*
G01*
X133954000Y-64740000D01*
X133954000Y-64038000D01*
X135606000Y-64038000D01*
X135606000Y-64740000D01*
G37*
G36*
X139157059Y-62777860D02*
G01*
X139293732Y-62834472D01*
X139416735Y-62916660D01*
X139521340Y-63021265D01*
X139603528Y-63144268D01*
X139660140Y-63280941D01*
X139689000Y-63426033D01*
X139689000Y-63573967D01*
X139660140Y-63719059D01*
X139603528Y-63855732D01*
X139521340Y-63978735D01*
X139416735Y-64083340D01*
X139293732Y-64165528D01*
X139293731Y-64165529D01*
X139293730Y-64165529D01*
X139157059Y-64222140D01*
X139011968Y-64251000D01*
X138864032Y-64251000D01*
X138718941Y-64222140D01*
X138582270Y-64165529D01*
X138582269Y-64165529D01*
X138582268Y-64165528D01*
X138459265Y-64083340D01*
X138354660Y-63978735D01*
X138272472Y-63855732D01*
X138215860Y-63719059D01*
X138187000Y-63573967D01*
X138187000Y-63426033D01*
X138215860Y-63280941D01*
X138272472Y-63144268D01*
X138354660Y-63021265D01*
X138459265Y-62916660D01*
X138582268Y-62834472D01*
X138718941Y-62777860D01*
X138864032Y-62749000D01*
X139011968Y-62749000D01*
X139157059Y-62777860D01*
G37*
G36*
X142229000Y-64251000D02*
G01*
X140727000Y-64251000D01*
X140727000Y-62749000D01*
X142229000Y-62749000D01*
X142229000Y-64251000D01*
G37*
G36*
X151851000Y-63947000D02*
G01*
X151049000Y-63947000D01*
X151049000Y-62545000D01*
X151851000Y-62545000D01*
X151851000Y-63947000D01*
G37*
G36*
X153751000Y-63947000D02*
G01*
X152949000Y-63947000D01*
X152949000Y-62545000D01*
X153751000Y-62545000D01*
X153751000Y-63947000D01*
G37*
G36*
X119240500Y-63728800D02*
G01*
X117360500Y-63728800D01*
X117360500Y-61467800D01*
X119240500Y-61467800D01*
X119240500Y-63728800D01*
G37*
G36*
X115176500Y-63728800D02*
G01*
X113296500Y-63728800D01*
X113296500Y-61467800D01*
X115176500Y-61467800D01*
X115176500Y-63728800D01*
G37*
G36*
X156169000Y-63693000D02*
G01*
X155367000Y-63693000D01*
X155367000Y-62291000D01*
X156169000Y-62291000D01*
X156169000Y-63693000D01*
G37*
G36*
X158069000Y-63693000D02*
G01*
X157267000Y-63693000D01*
X157267000Y-62291000D01*
X158069000Y-62291000D01*
X158069000Y-63693000D01*
G37*
G36*
X135606000Y-63470000D02*
G01*
X133954000Y-63470000D01*
X133954000Y-62768000D01*
X135606000Y-62768000D01*
X135606000Y-63470000D01*
G37*
G36*
X130206000Y-63470000D02*
G01*
X128554000Y-63470000D01*
X128554000Y-62768000D01*
X130206000Y-62768000D01*
X130206000Y-63470000D01*
G37*
G36*
X130206000Y-62200000D02*
G01*
X128554000Y-62200000D01*
X128554000Y-61498000D01*
X130206000Y-61498000D01*
X130206000Y-62200000D01*
G37*
G36*
X135606000Y-62200000D02*
G01*
X133954000Y-62200000D01*
X133954000Y-61498000D01*
X135606000Y-61498000D01*
X135606000Y-62200000D01*
G37*
G36*
X160333000Y-61865000D02*
G01*
X159031000Y-61865000D01*
X159031000Y-60563000D01*
X160333000Y-60563000D01*
X160333000Y-61865000D01*
G37*
G36*
X162533000Y-61865000D02*
G01*
X161231000Y-61865000D01*
X161231000Y-60563000D01*
X162533000Y-60563000D01*
X162533000Y-61865000D01*
G37*
G36*
X141697059Y-60237860D02*
G01*
X141833732Y-60294472D01*
X141956735Y-60376660D01*
X142061340Y-60481265D01*
X142143528Y-60604268D01*
X142200140Y-60740941D01*
X142229000Y-60886033D01*
X142229000Y-61033967D01*
X142200140Y-61179059D01*
X142143528Y-61315732D01*
X142061340Y-61438735D01*
X141956735Y-61543340D01*
X141833732Y-61625528D01*
X141833731Y-61625529D01*
X141833730Y-61625529D01*
X141697059Y-61682140D01*
X141551968Y-61711000D01*
X141404032Y-61711000D01*
X141258941Y-61682140D01*
X141122270Y-61625529D01*
X141122269Y-61625529D01*
X141122268Y-61625528D01*
X140999265Y-61543340D01*
X140894660Y-61438735D01*
X140812472Y-61315732D01*
X140755860Y-61179059D01*
X140727000Y-61033967D01*
X140727000Y-60886033D01*
X140755860Y-60740941D01*
X140812472Y-60604268D01*
X140894660Y-60481265D01*
X140999265Y-60376660D01*
X141122268Y-60294472D01*
X141258941Y-60237860D01*
X141404032Y-60209000D01*
X141551968Y-60209000D01*
X141697059Y-60237860D01*
G37*
G36*
X139157059Y-60237860D02*
G01*
X139293732Y-60294472D01*
X139416735Y-60376660D01*
X139521340Y-60481265D01*
X139603528Y-60604268D01*
X139660140Y-60740941D01*
X139689000Y-60886033D01*
X139689000Y-61033967D01*
X139660140Y-61179059D01*
X139603528Y-61315732D01*
X139521340Y-61438735D01*
X139416735Y-61543340D01*
X139293732Y-61625528D01*
X139293731Y-61625529D01*
X139293730Y-61625529D01*
X139157059Y-61682140D01*
X139011968Y-61711000D01*
X138864032Y-61711000D01*
X138718941Y-61682140D01*
X138582270Y-61625529D01*
X138582269Y-61625529D01*
X138582268Y-61625528D01*
X138459265Y-61543340D01*
X138354660Y-61438735D01*
X138272472Y-61315732D01*
X138215860Y-61179059D01*
X138187000Y-61033967D01*
X138187000Y-60886033D01*
X138215860Y-60740941D01*
X138272472Y-60604268D01*
X138354660Y-60481265D01*
X138459265Y-60376660D01*
X138582268Y-60294472D01*
X138718941Y-60237860D01*
X138864032Y-60209000D01*
X139011968Y-60209000D01*
X139157059Y-60237860D01*
G37*
G36*
X151597000Y-61599000D02*
G01*
X150595000Y-61599000D01*
X150595000Y-60697000D01*
X151597000Y-60697000D01*
X151597000Y-61599000D01*
G37*
G36*
X153697000Y-60649000D02*
G01*
X152695000Y-60649000D01*
X152695000Y-59747000D01*
X153697000Y-59747000D01*
X153697000Y-60649000D01*
G37*
G36*
X158069000Y-60645000D02*
G01*
X157267000Y-60645000D01*
X157267000Y-59243000D01*
X158069000Y-59243000D01*
X158069000Y-60645000D01*
G37*
G36*
X156169000Y-60645000D02*
G01*
X155367000Y-60645000D01*
X155367000Y-59243000D01*
X156169000Y-59243000D01*
X156169000Y-60645000D01*
G37*
G36*
X131399000Y-60137000D02*
G01*
X130597000Y-60137000D01*
X130597000Y-58735000D01*
X131399000Y-58735000D01*
X131399000Y-60137000D01*
G37*
G36*
X129499000Y-60137000D02*
G01*
X128697000Y-60137000D01*
X128697000Y-58735000D01*
X129499000Y-58735000D01*
X129499000Y-60137000D01*
G37*
G36*
X134425000Y-60112000D02*
G01*
X133323000Y-60112000D01*
X133323000Y-58760000D01*
X134425000Y-58760000D01*
X134425000Y-60112000D01*
G37*
G36*
X136425000Y-60112000D02*
G01*
X135323000Y-60112000D01*
X135323000Y-58760000D01*
X136425000Y-58760000D01*
X136425000Y-60112000D01*
G37*
G36*
X151597000Y-59699000D02*
G01*
X150595000Y-59699000D01*
X150595000Y-58797000D01*
X151597000Y-58797000D01*
X151597000Y-59699000D01*
G37*
G36*
X141697059Y-57697860D02*
G01*
X141833732Y-57754472D01*
X141956735Y-57836660D01*
X142061340Y-57941265D01*
X142061341Y-57941267D01*
X142143529Y-58064270D01*
X142200140Y-58200941D01*
X142229000Y-58346032D01*
X142229000Y-58493968D01*
X142200140Y-58639059D01*
X142150045Y-58760000D01*
X142143528Y-58775732D01*
X142061340Y-58898735D01*
X141956735Y-59003340D01*
X141833732Y-59085528D01*
X141833731Y-59085529D01*
X141833730Y-59085529D01*
X141697059Y-59142140D01*
X141551968Y-59171000D01*
X141404032Y-59171000D01*
X141258941Y-59142140D01*
X141122270Y-59085529D01*
X141122269Y-59085529D01*
X141122268Y-59085528D01*
X140999265Y-59003340D01*
X140894660Y-58898735D01*
X140812472Y-58775732D01*
X140805956Y-58760000D01*
X140755860Y-58639059D01*
X140727000Y-58493968D01*
X140727000Y-58346032D01*
X140755860Y-58200941D01*
X140812471Y-58064270D01*
X140894659Y-57941267D01*
X140894660Y-57941265D01*
X140999265Y-57836660D01*
X141122268Y-57754472D01*
X141258941Y-57697860D01*
X141404032Y-57669000D01*
X141551968Y-57669000D01*
X141697059Y-57697860D01*
G37*
G36*
X139157059Y-57697860D02*
G01*
X139293732Y-57754472D01*
X139416735Y-57836660D01*
X139521340Y-57941265D01*
X139521341Y-57941267D01*
X139603529Y-58064270D01*
X139660140Y-58200941D01*
X139689000Y-58346032D01*
X139689000Y-58493968D01*
X139660140Y-58639059D01*
X139610045Y-58760000D01*
X139603528Y-58775732D01*
X139521340Y-58898735D01*
X139416735Y-59003340D01*
X139293732Y-59085528D01*
X139293731Y-59085529D01*
X139293730Y-59085529D01*
X139157059Y-59142140D01*
X139011968Y-59171000D01*
X138864032Y-59171000D01*
X138718941Y-59142140D01*
X138582270Y-59085529D01*
X138582269Y-59085529D01*
X138582268Y-59085528D01*
X138459265Y-59003340D01*
X138354660Y-58898735D01*
X138272472Y-58775732D01*
X138265956Y-58760000D01*
X138215860Y-58639059D01*
X138187000Y-58493968D01*
X138187000Y-58346032D01*
X138215860Y-58200941D01*
X138272471Y-58064270D01*
X138354659Y-57941267D01*
X138354660Y-57941265D01*
X138459265Y-57836660D01*
X138582268Y-57754472D01*
X138718941Y-57697860D01*
X138864032Y-57669000D01*
X139011968Y-57669000D01*
X139157059Y-57697860D01*
G37*
G36*
X119915000Y-58195000D02*
G01*
X118613000Y-58195000D01*
X118613000Y-56893000D01*
X119915000Y-56893000D01*
X119915000Y-58195000D01*
G37*
G36*
X122115000Y-58195000D02*
G01*
X120813000Y-58195000D01*
X120813000Y-56893000D01*
X122115000Y-56893000D01*
X122115000Y-58195000D01*
G37*
G36*
X117937000Y-58105000D02*
G01*
X117135000Y-58105000D01*
X117135000Y-56703000D01*
X117937000Y-56703000D01*
X117937000Y-58105000D01*
G37*
G36*
X116037000Y-58105000D02*
G01*
X115235000Y-58105000D01*
X115235000Y-56703000D01*
X116037000Y-56703000D01*
X116037000Y-58105000D01*
G37*
G36*
X151597000Y-56835000D02*
G01*
X150795000Y-56835000D01*
X150795000Y-55433000D01*
X151597000Y-55433000D01*
X151597000Y-56835000D01*
G37*
G36*
X153497000Y-56835000D02*
G01*
X152695000Y-56835000D01*
X152695000Y-55433000D01*
X153497000Y-55433000D01*
X153497000Y-56835000D01*
G37*
G36*
X157561000Y-56581000D02*
G01*
X156759000Y-56581000D01*
X156759000Y-55179000D01*
X157561000Y-55179000D01*
X157561000Y-56581000D01*
G37*
G36*
X155661000Y-56581000D02*
G01*
X154859000Y-56581000D01*
X154859000Y-55179000D01*
X155661000Y-55179000D01*
X155661000Y-56581000D01*
G37*
G36*
X124536973Y-53665938D02*
G01*
X124664549Y-53718782D01*
X124779359Y-53795495D01*
X124877005Y-53893141D01*
X124953718Y-54007951D01*
X125006562Y-54135527D01*
X125033500Y-54270956D01*
X125033500Y-54409044D01*
X125006562Y-54544473D01*
X124953718Y-54672049D01*
X124877005Y-54786859D01*
X124779359Y-54884505D01*
X124664549Y-54961218D01*
X124536973Y-55014062D01*
X124401544Y-55041000D01*
X124263456Y-55041000D01*
X124128027Y-55014062D01*
X124000451Y-54961218D01*
X123885641Y-54884505D01*
X123787995Y-54786859D01*
X123711282Y-54672049D01*
X123658438Y-54544473D01*
X123631500Y-54409044D01*
X123631500Y-54270956D01*
X123658438Y-54135527D01*
X123711282Y-54007951D01*
X123787995Y-53893141D01*
X123885641Y-53795495D01*
X124000451Y-53718782D01*
X124128027Y-53665938D01*
X124263456Y-53639000D01*
X124401544Y-53639000D01*
X124536973Y-53665938D01*
G37*
G36*
X121996973Y-53665938D02*
G01*
X122124549Y-53718782D01*
X122239359Y-53795495D01*
X122337005Y-53893141D01*
X122413718Y-54007951D01*
X122466562Y-54135527D01*
X122493500Y-54270956D01*
X122493500Y-54409044D01*
X122466562Y-54544473D01*
X122413718Y-54672049D01*
X122337005Y-54786859D01*
X122239359Y-54884505D01*
X122124549Y-54961218D01*
X121996973Y-55014062D01*
X121861544Y-55041000D01*
X121723456Y-55041000D01*
X121588027Y-55014062D01*
X121460451Y-54961218D01*
X121345641Y-54884505D01*
X121247995Y-54786859D01*
X121171282Y-54672049D01*
X121118438Y-54544473D01*
X121091500Y-54409044D01*
X121091500Y-54270956D01*
X121118438Y-54135527D01*
X121171282Y-54007951D01*
X121247995Y-53893141D01*
X121345641Y-53795495D01*
X121460451Y-53718782D01*
X121588027Y-53665938D01*
X121723456Y-53639000D01*
X121861544Y-53639000D01*
X121996973Y-53665938D01*
G37*
G36*
X139776973Y-53665938D02*
G01*
X139904549Y-53718782D01*
X140019359Y-53795495D01*
X140117005Y-53893141D01*
X140193718Y-54007951D01*
X140246562Y-54135527D01*
X140273500Y-54270956D01*
X140273500Y-54409044D01*
X140246562Y-54544473D01*
X140193718Y-54672049D01*
X140117005Y-54786859D01*
X140019359Y-54884505D01*
X139904549Y-54961218D01*
X139776973Y-55014062D01*
X139641544Y-55041000D01*
X139503456Y-55041000D01*
X139368027Y-55014062D01*
X139240451Y-54961218D01*
X139125641Y-54884505D01*
X139027995Y-54786859D01*
X138951282Y-54672049D01*
X138898438Y-54544473D01*
X138871500Y-54409044D01*
X138871500Y-54270956D01*
X138898438Y-54135527D01*
X138951282Y-54007951D01*
X139027995Y-53893141D01*
X139125641Y-53795495D01*
X139240451Y-53718782D01*
X139368027Y-53665938D01*
X139503456Y-53639000D01*
X139641544Y-53639000D01*
X139776973Y-53665938D01*
G37*
G36*
X127076973Y-53665938D02*
G01*
X127204549Y-53718782D01*
X127319359Y-53795495D01*
X127417005Y-53893141D01*
X127493718Y-54007951D01*
X127546562Y-54135527D01*
X127573500Y-54270956D01*
X127573500Y-54409044D01*
X127546562Y-54544473D01*
X127493718Y-54672049D01*
X127417005Y-54786859D01*
X127319359Y-54884505D01*
X127204549Y-54961218D01*
X127076973Y-55014062D01*
X126941544Y-55041000D01*
X126803456Y-55041000D01*
X126668027Y-55014062D01*
X126540451Y-54961218D01*
X126425641Y-54884505D01*
X126327995Y-54786859D01*
X126251282Y-54672049D01*
X126198438Y-54544473D01*
X126171500Y-54409044D01*
X126171500Y-54270956D01*
X126198438Y-54135527D01*
X126251282Y-54007951D01*
X126327995Y-53893141D01*
X126425641Y-53795495D01*
X126540451Y-53718782D01*
X126668027Y-53665938D01*
X126803456Y-53639000D01*
X126941544Y-53639000D01*
X127076973Y-53665938D01*
G37*
G36*
X129616973Y-53665938D02*
G01*
X129744549Y-53718782D01*
X129859359Y-53795495D01*
X129957005Y-53893141D01*
X130033718Y-54007951D01*
X130086562Y-54135527D01*
X130113500Y-54270956D01*
X130113500Y-54409044D01*
X130086562Y-54544473D01*
X130033718Y-54672049D01*
X129957005Y-54786859D01*
X129859359Y-54884505D01*
X129744549Y-54961218D01*
X129616973Y-55014062D01*
X129481544Y-55041000D01*
X129343456Y-55041000D01*
X129208027Y-55014062D01*
X129080451Y-54961218D01*
X128965641Y-54884505D01*
X128867995Y-54786859D01*
X128791282Y-54672049D01*
X128738438Y-54544473D01*
X128711500Y-54409044D01*
X128711500Y-54270956D01*
X128738438Y-54135527D01*
X128791282Y-54007951D01*
X128867995Y-53893141D01*
X128965641Y-53795495D01*
X129080451Y-53718782D01*
X129208027Y-53665938D01*
X129343456Y-53639000D01*
X129481544Y-53639000D01*
X129616973Y-53665938D01*
G37*
G36*
X144856973Y-53665938D02*
G01*
X144984549Y-53718782D01*
X145099359Y-53795495D01*
X145197005Y-53893141D01*
X145273718Y-54007951D01*
X145326562Y-54135527D01*
X145353500Y-54270956D01*
X145353500Y-54409044D01*
X145326562Y-54544473D01*
X145273718Y-54672049D01*
X145197005Y-54786859D01*
X145099359Y-54884505D01*
X144984549Y-54961218D01*
X144856973Y-55014062D01*
X144721544Y-55041000D01*
X144583456Y-55041000D01*
X144448027Y-55014062D01*
X144320451Y-54961218D01*
X144205641Y-54884505D01*
X144107995Y-54786859D01*
X144031282Y-54672049D01*
X143978438Y-54544473D01*
X143951500Y-54409044D01*
X143951500Y-54270956D01*
X143978438Y-54135527D01*
X144031282Y-54007951D01*
X144107995Y-53893141D01*
X144205641Y-53795495D01*
X144320451Y-53718782D01*
X144448027Y-53665938D01*
X144583456Y-53639000D01*
X144721544Y-53639000D01*
X144856973Y-53665938D01*
G37*
G36*
X132156973Y-53665938D02*
G01*
X132284549Y-53718782D01*
X132399359Y-53795495D01*
X132497005Y-53893141D01*
X132573718Y-54007951D01*
X132626562Y-54135527D01*
X132653500Y-54270956D01*
X132653500Y-54409044D01*
X132626562Y-54544473D01*
X132573718Y-54672049D01*
X132497005Y-54786859D01*
X132399359Y-54884505D01*
X132284549Y-54961218D01*
X132156973Y-55014062D01*
X132021544Y-55041000D01*
X131883456Y-55041000D01*
X131748027Y-55014062D01*
X131620451Y-54961218D01*
X131505641Y-54884505D01*
X131407995Y-54786859D01*
X131331282Y-54672049D01*
X131278438Y-54544473D01*
X131251500Y-54409044D01*
X131251500Y-54270956D01*
X131278438Y-54135527D01*
X131331282Y-54007951D01*
X131407995Y-53893141D01*
X131505641Y-53795495D01*
X131620451Y-53718782D01*
X131748027Y-53665938D01*
X131883456Y-53639000D01*
X132021544Y-53639000D01*
X132156973Y-53665938D01*
G37*
G36*
X142316973Y-53665938D02*
G01*
X142444549Y-53718782D01*
X142559359Y-53795495D01*
X142657005Y-53893141D01*
X142733718Y-54007951D01*
X142786562Y-54135527D01*
X142813500Y-54270956D01*
X142813500Y-54409044D01*
X142786562Y-54544473D01*
X142733718Y-54672049D01*
X142657005Y-54786859D01*
X142559359Y-54884505D01*
X142444549Y-54961218D01*
X142316973Y-55014062D01*
X142181544Y-55041000D01*
X142043456Y-55041000D01*
X141908027Y-55014062D01*
X141780451Y-54961218D01*
X141665641Y-54884505D01*
X141567995Y-54786859D01*
X141491282Y-54672049D01*
X141438438Y-54544473D01*
X141411500Y-54409044D01*
X141411500Y-54270956D01*
X141438438Y-54135527D01*
X141491282Y-54007951D01*
X141567995Y-53893141D01*
X141665641Y-53795495D01*
X141780451Y-53718782D01*
X141908027Y-53665938D01*
X142043456Y-53639000D01*
X142181544Y-53639000D01*
X142316973Y-53665938D01*
G37*
G36*
X134696973Y-53665938D02*
G01*
X134824549Y-53718782D01*
X134939359Y-53795495D01*
X135037005Y-53893141D01*
X135113718Y-54007951D01*
X135166562Y-54135527D01*
X135193500Y-54270956D01*
X135193500Y-54409044D01*
X135166562Y-54544473D01*
X135113718Y-54672049D01*
X135037005Y-54786859D01*
X134939359Y-54884505D01*
X134824549Y-54961218D01*
X134696973Y-55014062D01*
X134561544Y-55041000D01*
X134423456Y-55041000D01*
X134288027Y-55014062D01*
X134160451Y-54961218D01*
X134045641Y-54884505D01*
X133947995Y-54786859D01*
X133871282Y-54672049D01*
X133818438Y-54544473D01*
X133791500Y-54409044D01*
X133791500Y-54270956D01*
X133818438Y-54135527D01*
X133871282Y-54007951D01*
X133947995Y-53893141D01*
X134045641Y-53795495D01*
X134160451Y-53718782D01*
X134288027Y-53665938D01*
X134423456Y-53639000D01*
X134561544Y-53639000D01*
X134696973Y-53665938D01*
G37*
G36*
X137236973Y-53665938D02*
G01*
X137364549Y-53718782D01*
X137479359Y-53795495D01*
X137577005Y-53893141D01*
X137653718Y-54007951D01*
X137706562Y-54135527D01*
X137733500Y-54270956D01*
X137733500Y-54409044D01*
X137706562Y-54544473D01*
X137653718Y-54672049D01*
X137577005Y-54786859D01*
X137479359Y-54884505D01*
X137364549Y-54961218D01*
X137236973Y-55014062D01*
X137101544Y-55041000D01*
X136963456Y-55041000D01*
X136828027Y-55014062D01*
X136700451Y-54961218D01*
X136585641Y-54884505D01*
X136487995Y-54786859D01*
X136411282Y-54672049D01*
X136358438Y-54544473D01*
X136331500Y-54409044D01*
X136331500Y-54270956D01*
X136358438Y-54135527D01*
X136411282Y-54007951D01*
X136487995Y-53893141D01*
X136585641Y-53795495D01*
X136700451Y-53718782D01*
X136828027Y-53665938D01*
X136963456Y-53639000D01*
X137101544Y-53639000D01*
X137236973Y-53665938D01*
G37*
G36*
X160079000Y-55007000D02*
G01*
X158777000Y-55007000D01*
X158777000Y-53705000D01*
X160079000Y-53705000D01*
X160079000Y-55007000D01*
G37*
G36*
X162279000Y-55007000D02*
G01*
X160977000Y-55007000D01*
X160977000Y-53705000D01*
X162279000Y-53705000D01*
X162279000Y-55007000D01*
G37*
G36*
X119429064Y-52589389D02*
G01*
X119620333Y-52668615D01*
X119620335Y-52668616D01*
X119792473Y-52783635D01*
X119938865Y-52930027D01*
X120053885Y-53102167D01*
X120133111Y-53293436D01*
X120173500Y-53496484D01*
X120173500Y-53703516D01*
X120133111Y-53906564D01*
X120053885Y-54097833D01*
X120053884Y-54097835D01*
X119938865Y-54269973D01*
X119792473Y-54416365D01*
X119620335Y-54531384D01*
X119620334Y-54531385D01*
X119620333Y-54531385D01*
X119429064Y-54610611D01*
X119226016Y-54651000D01*
X119018984Y-54651000D01*
X118815936Y-54610611D01*
X118624667Y-54531385D01*
X118624666Y-54531385D01*
X118624665Y-54531384D01*
X118452527Y-54416365D01*
X118306135Y-54269973D01*
X118191116Y-54097835D01*
X118191115Y-54097833D01*
X118111889Y-53906564D01*
X118071500Y-53703516D01*
X118071500Y-53496484D01*
X118111889Y-53293436D01*
X118191115Y-53102167D01*
X118306135Y-52930027D01*
X118452527Y-52783635D01*
X118624665Y-52668616D01*
X118624667Y-52668615D01*
X118815936Y-52589389D01*
X119018984Y-52549000D01*
X119226016Y-52549000D01*
X119429064Y-52589389D01*
G37*
G36*
X151597000Y-54487000D02*
G01*
X150595000Y-54487000D01*
X150595000Y-53585000D01*
X151597000Y-53585000D01*
X151597000Y-54487000D01*
G37*
G36*
X153697000Y-53537000D02*
G01*
X152695000Y-53537000D01*
X152695000Y-52635000D01*
X153697000Y-52635000D01*
X153697000Y-53537000D01*
G37*
G36*
X157561000Y-53279000D02*
G01*
X156759000Y-53279000D01*
X156759000Y-51877000D01*
X157561000Y-51877000D01*
X157561000Y-53279000D01*
G37*
G36*
X155661000Y-53279000D02*
G01*
X154859000Y-53279000D01*
X154859000Y-51877000D01*
X155661000Y-51877000D01*
X155661000Y-53279000D01*
G37*
G36*
X151597000Y-52587000D02*
G01*
X150595000Y-52587000D01*
X150595000Y-51685000D01*
X151597000Y-51685000D01*
X151597000Y-52587000D01*
G37*
G36*
X141046973Y-51125938D02*
G01*
X141174549Y-51178782D01*
X141289359Y-51255495D01*
X141387005Y-51353141D01*
X141463718Y-51467951D01*
X141516562Y-51595527D01*
X141543500Y-51730956D01*
X141543500Y-51869044D01*
X141516562Y-52004473D01*
X141463718Y-52132049D01*
X141387005Y-52246859D01*
X141289359Y-52344505D01*
X141174549Y-52421218D01*
X141046973Y-52474062D01*
X140911544Y-52501000D01*
X140773456Y-52501000D01*
X140638027Y-52474062D01*
X140510451Y-52421218D01*
X140395641Y-52344505D01*
X140297995Y-52246859D01*
X140221282Y-52132049D01*
X140168438Y-52004473D01*
X140141500Y-51869044D01*
X140141500Y-51730956D01*
X140168438Y-51595527D01*
X140221282Y-51467951D01*
X140297995Y-51353141D01*
X140395641Y-51255495D01*
X140510451Y-51178782D01*
X140638027Y-51125938D01*
X140773456Y-51099000D01*
X140911544Y-51099000D01*
X141046973Y-51125938D01*
G37*
G36*
X138506973Y-51125938D02*
G01*
X138634549Y-51178782D01*
X138749359Y-51255495D01*
X138847005Y-51353141D01*
X138923718Y-51467951D01*
X138976562Y-51595527D01*
X139003500Y-51730956D01*
X139003500Y-51869044D01*
X138976562Y-52004473D01*
X138923718Y-52132049D01*
X138847005Y-52246859D01*
X138749359Y-52344505D01*
X138634549Y-52421218D01*
X138506973Y-52474062D01*
X138371544Y-52501000D01*
X138233456Y-52501000D01*
X138098027Y-52474062D01*
X137970451Y-52421218D01*
X137855641Y-52344505D01*
X137757995Y-52246859D01*
X137681282Y-52132049D01*
X137628438Y-52004473D01*
X137601500Y-51869044D01*
X137601500Y-51730956D01*
X137628438Y-51595527D01*
X137681282Y-51467951D01*
X137757995Y-51353141D01*
X137855641Y-51255495D01*
X137970451Y-51178782D01*
X138098027Y-51125938D01*
X138233456Y-51099000D01*
X138371544Y-51099000D01*
X138506973Y-51125938D01*
G37*
G36*
X135966973Y-51125938D02*
G01*
X136094549Y-51178782D01*
X136209359Y-51255495D01*
X136307005Y-51353141D01*
X136383718Y-51467951D01*
X136436562Y-51595527D01*
X136463500Y-51730956D01*
X136463500Y-51869044D01*
X136436562Y-52004473D01*
X136383718Y-52132049D01*
X136307005Y-52246859D01*
X136209359Y-52344505D01*
X136094549Y-52421218D01*
X135966973Y-52474062D01*
X135831544Y-52501000D01*
X135693456Y-52501000D01*
X135558027Y-52474062D01*
X135430451Y-52421218D01*
X135315641Y-52344505D01*
X135217995Y-52246859D01*
X135141282Y-52132049D01*
X135088438Y-52004473D01*
X135061500Y-51869044D01*
X135061500Y-51730956D01*
X135088438Y-51595527D01*
X135141282Y-51467951D01*
X135217995Y-51353141D01*
X135315641Y-51255495D01*
X135430451Y-51178782D01*
X135558027Y-51125938D01*
X135693456Y-51099000D01*
X135831544Y-51099000D01*
X135966973Y-51125938D01*
G37*
G36*
X133426973Y-51125938D02*
G01*
X133554549Y-51178782D01*
X133669359Y-51255495D01*
X133767005Y-51353141D01*
X133843718Y-51467951D01*
X133896562Y-51595527D01*
X133923500Y-51730956D01*
X133923500Y-51869044D01*
X133896562Y-52004473D01*
X133843718Y-52132049D01*
X133767005Y-52246859D01*
X133669359Y-52344505D01*
X133554549Y-52421218D01*
X133426973Y-52474062D01*
X133291544Y-52501000D01*
X133153456Y-52501000D01*
X133018027Y-52474062D01*
X132890451Y-52421218D01*
X132775641Y-52344505D01*
X132677995Y-52246859D01*
X132601282Y-52132049D01*
X132548438Y-52004473D01*
X132521500Y-51869044D01*
X132521500Y-51730956D01*
X132548438Y-51595527D01*
X132601282Y-51467951D01*
X132677995Y-51353141D01*
X132775641Y-51255495D01*
X132890451Y-51178782D01*
X133018027Y-51125938D01*
X133153456Y-51099000D01*
X133291544Y-51099000D01*
X133426973Y-51125938D01*
G37*
G36*
X130886973Y-51125938D02*
G01*
X131014549Y-51178782D01*
X131129359Y-51255495D01*
X131227005Y-51353141D01*
X131303718Y-51467951D01*
X131356562Y-51595527D01*
X131383500Y-51730956D01*
X131383500Y-51869044D01*
X131356562Y-52004473D01*
X131303718Y-52132049D01*
X131227005Y-52246859D01*
X131129359Y-52344505D01*
X131014549Y-52421218D01*
X130886973Y-52474062D01*
X130751544Y-52501000D01*
X130613456Y-52501000D01*
X130478027Y-52474062D01*
X130350451Y-52421218D01*
X130235641Y-52344505D01*
X130137995Y-52246859D01*
X130061282Y-52132049D01*
X130008438Y-52004473D01*
X129981500Y-51869044D01*
X129981500Y-51730956D01*
X130008438Y-51595527D01*
X130061282Y-51467951D01*
X130137995Y-51353141D01*
X130235641Y-51255495D01*
X130350451Y-51178782D01*
X130478027Y-51125938D01*
X130613456Y-51099000D01*
X130751544Y-51099000D01*
X130886973Y-51125938D01*
G37*
G36*
X128346973Y-51125938D02*
G01*
X128474549Y-51178782D01*
X128589359Y-51255495D01*
X128687005Y-51353141D01*
X128763718Y-51467951D01*
X128816562Y-51595527D01*
X128843500Y-51730956D01*
X128843500Y-51869044D01*
X128816562Y-52004473D01*
X128763718Y-52132049D01*
X128687005Y-52246859D01*
X128589359Y-52344505D01*
X128474549Y-52421218D01*
X128346973Y-52474062D01*
X128211544Y-52501000D01*
X128073456Y-52501000D01*
X127938027Y-52474062D01*
X127810451Y-52421218D01*
X127695641Y-52344505D01*
X127597995Y-52246859D01*
X127521282Y-52132049D01*
X127468438Y-52004473D01*
X127441500Y-51869044D01*
X127441500Y-51730956D01*
X127468438Y-51595527D01*
X127521282Y-51467951D01*
X127597995Y-51353141D01*
X127695641Y-51255495D01*
X127810451Y-51178782D01*
X127938027Y-51125938D01*
X128073456Y-51099000D01*
X128211544Y-51099000D01*
X128346973Y-51125938D01*
G37*
G36*
X120726973Y-51125938D02*
G01*
X120854549Y-51178782D01*
X120969359Y-51255495D01*
X121067005Y-51353141D01*
X121143718Y-51467951D01*
X121196562Y-51595527D01*
X121223500Y-51730956D01*
X121223500Y-51869044D01*
X121196562Y-52004473D01*
X121143718Y-52132049D01*
X121067005Y-52246859D01*
X120969359Y-52344505D01*
X120854549Y-52421218D01*
X120726973Y-52474062D01*
X120591544Y-52501000D01*
X120453456Y-52501000D01*
X120318027Y-52474062D01*
X120190451Y-52421218D01*
X120075641Y-52344505D01*
X119977995Y-52246859D01*
X119901282Y-52132049D01*
X119848438Y-52004473D01*
X119821500Y-51869044D01*
X119821500Y-51730956D01*
X119848438Y-51595527D01*
X119901282Y-51467951D01*
X119977995Y-51353141D01*
X120075641Y-51255495D01*
X120190451Y-51178782D01*
X120318027Y-51125938D01*
X120453456Y-51099000D01*
X120591544Y-51099000D01*
X120726973Y-51125938D01*
G37*
G36*
X123266973Y-51125938D02*
G01*
X123394549Y-51178782D01*
X123509359Y-51255495D01*
X123607005Y-51353141D01*
X123683718Y-51467951D01*
X123736562Y-51595527D01*
X123763500Y-51730956D01*
X123763500Y-51869044D01*
X123736562Y-52004473D01*
X123683718Y-52132049D01*
X123607005Y-52246859D01*
X123509359Y-52344505D01*
X123394549Y-52421218D01*
X123266973Y-52474062D01*
X123131544Y-52501000D01*
X122993456Y-52501000D01*
X122858027Y-52474062D01*
X122730451Y-52421218D01*
X122615641Y-52344505D01*
X122517995Y-52246859D01*
X122441282Y-52132049D01*
X122388438Y-52004473D01*
X122361500Y-51869044D01*
X122361500Y-51730956D01*
X122388438Y-51595527D01*
X122441282Y-51467951D01*
X122517995Y-51353141D01*
X122615641Y-51255495D01*
X122730451Y-51178782D01*
X122858027Y-51125938D01*
X122993456Y-51099000D01*
X123131544Y-51099000D01*
X123266973Y-51125938D01*
G37*
G36*
X125806973Y-51125938D02*
G01*
X125934549Y-51178782D01*
X126049359Y-51255495D01*
X126147005Y-51353141D01*
X126223718Y-51467951D01*
X126276562Y-51595527D01*
X126303500Y-51730956D01*
X126303500Y-51869044D01*
X126276562Y-52004473D01*
X126223718Y-52132049D01*
X126147005Y-52246859D01*
X126049359Y-52344505D01*
X125934549Y-52421218D01*
X125806973Y-52474062D01*
X125671544Y-52501000D01*
X125533456Y-52501000D01*
X125398027Y-52474062D01*
X125270451Y-52421218D01*
X125155641Y-52344505D01*
X125057995Y-52246859D01*
X124981282Y-52132049D01*
X124928438Y-52004473D01*
X124901500Y-51869044D01*
X124901500Y-51730956D01*
X124928438Y-51595527D01*
X124981282Y-51467951D01*
X125057995Y-51353141D01*
X125155641Y-51255495D01*
X125270451Y-51178782D01*
X125398027Y-51125938D01*
X125533456Y-51099000D01*
X125671544Y-51099000D01*
X125806973Y-51125938D01*
G37*
G36*
X143586973Y-51125938D02*
G01*
X143714549Y-51178782D01*
X143829359Y-51255495D01*
X143927005Y-51353141D01*
X144003718Y-51467951D01*
X144056562Y-51595527D01*
X144083500Y-51730956D01*
X144083500Y-51869044D01*
X144056562Y-52004473D01*
X144003718Y-52132049D01*
X143927005Y-52246859D01*
X143829359Y-52344505D01*
X143714549Y-52421218D01*
X143586973Y-52474062D01*
X143451544Y-52501000D01*
X143313456Y-52501000D01*
X143178027Y-52474062D01*
X143050451Y-52421218D01*
X142935641Y-52344505D01*
X142837995Y-52246859D01*
X142761282Y-52132049D01*
X142708438Y-52004473D01*
X142681500Y-51869044D01*
X142681500Y-51730956D01*
X142708438Y-51595527D01*
X142761282Y-51467951D01*
X142837995Y-51353141D01*
X142935641Y-51255495D01*
X143050451Y-51178782D01*
X143178027Y-51125938D01*
X143313456Y-51099000D01*
X143451544Y-51099000D01*
X143586973Y-51125938D01*
G37*
M02*
