G04 #@! TF.GenerationSoftware,KiCad,Pcbnew,5.1.4-e60b266~84~ubuntu18.04.1*
G04 #@! TF.CreationDate,2019-12-02T22:04:49-05:00*
G04 #@! TF.ProjectId,AIR_control,4149525f-636f-46e7-9472-6f6c2e6b6963,rev?*
G04 #@! TF.SameCoordinates,Original*
G04 #@! TF.FileFunction,Soldermask,Bot*
G04 #@! TF.FilePolarity,Negative*
%FSLAX46Y46*%
G04 Gerber Fmt 4.6, Leading zero omitted, Abs format (unit mm)*
G04 Created by KiCad (PCBNEW 5.1.4-e60b266~84~ubuntu18.04.1) date 2019-12-02 22:04:49*
%MOMM*%
%LPD*%
G04 APERTURE LIST*
%ADD10C,0.100000*%
G04 APERTURE END LIST*
D10*
G36*
X144500800Y-108610600D02*
G01*
X143027200Y-108610600D01*
X143027200Y-107137000D01*
X144500800Y-107137000D01*
X144500800Y-108610600D01*
X144500800Y-108610600D01*
G37*
G36*
X137540721Y-105518174D02*
G01*
X137640995Y-105559709D01*
X137640996Y-105559710D01*
X137731242Y-105620010D01*
X137807990Y-105696758D01*
X137807991Y-105696760D01*
X137868291Y-105787005D01*
X137909826Y-105887279D01*
X137931000Y-105993730D01*
X137931000Y-106102270D01*
X137909826Y-106208721D01*
X137868291Y-106308995D01*
X137868290Y-106308996D01*
X137807990Y-106399242D01*
X137731242Y-106475990D01*
X137685812Y-106506345D01*
X137640995Y-106536291D01*
X137540721Y-106577826D01*
X137434270Y-106599000D01*
X137325730Y-106599000D01*
X137219279Y-106577826D01*
X137119005Y-106536291D01*
X137074188Y-106506345D01*
X137028758Y-106475990D01*
X136952010Y-106399242D01*
X136891710Y-106308996D01*
X136891709Y-106308995D01*
X136850174Y-106208721D01*
X136829000Y-106102270D01*
X136829000Y-105993730D01*
X136850174Y-105887279D01*
X136891709Y-105787005D01*
X136952009Y-105696760D01*
X136952010Y-105696758D01*
X137028758Y-105620010D01*
X137119004Y-105559710D01*
X137119005Y-105559709D01*
X137219279Y-105518174D01*
X137325730Y-105497000D01*
X137434270Y-105497000D01*
X137540721Y-105518174D01*
X137540721Y-105518174D01*
G37*
G36*
X116540721Y-105518174D02*
G01*
X116640995Y-105559709D01*
X116640996Y-105559710D01*
X116731242Y-105620010D01*
X116807990Y-105696758D01*
X116807991Y-105696760D01*
X116868291Y-105787005D01*
X116909826Y-105887279D01*
X116931000Y-105993730D01*
X116931000Y-106102270D01*
X116909826Y-106208721D01*
X116868291Y-106308995D01*
X116868290Y-106308996D01*
X116807990Y-106399242D01*
X116731242Y-106475990D01*
X116685812Y-106506345D01*
X116640995Y-106536291D01*
X116540721Y-106577826D01*
X116434270Y-106599000D01*
X116325730Y-106599000D01*
X116219279Y-106577826D01*
X116119005Y-106536291D01*
X116074188Y-106506345D01*
X116028758Y-106475990D01*
X115952010Y-106399242D01*
X115891710Y-106308996D01*
X115891709Y-106308995D01*
X115850174Y-106208721D01*
X115829000Y-106102270D01*
X115829000Y-105993730D01*
X115850174Y-105887279D01*
X115891709Y-105787005D01*
X115952009Y-105696760D01*
X115952010Y-105696758D01*
X116028758Y-105620010D01*
X116119004Y-105559710D01*
X116119005Y-105559709D01*
X116219279Y-105518174D01*
X116325730Y-105497000D01*
X116434270Y-105497000D01*
X116540721Y-105518174D01*
X116540721Y-105518174D01*
G37*
G36*
X125613642Y-104337781D02*
G01*
X125759414Y-104398162D01*
X125759416Y-104398163D01*
X125890608Y-104485822D01*
X126002178Y-104597392D01*
X126089837Y-104728584D01*
X126089838Y-104728586D01*
X126150219Y-104874358D01*
X126181000Y-105029107D01*
X126181000Y-105186893D01*
X126150219Y-105341642D01*
X126089838Y-105487414D01*
X126089837Y-105487416D01*
X126002178Y-105618608D01*
X125890608Y-105730178D01*
X125759416Y-105817837D01*
X125759415Y-105817838D01*
X125759414Y-105817838D01*
X125613642Y-105878219D01*
X125458893Y-105909000D01*
X125301107Y-105909000D01*
X125146358Y-105878219D01*
X125000586Y-105817838D01*
X125000585Y-105817838D01*
X125000584Y-105817837D01*
X124869392Y-105730178D01*
X124757822Y-105618608D01*
X124670163Y-105487416D01*
X124670162Y-105487414D01*
X124609781Y-105341642D01*
X124579000Y-105186893D01*
X124579000Y-105029107D01*
X124609781Y-104874358D01*
X124670162Y-104728586D01*
X124670163Y-104728584D01*
X124757822Y-104597392D01*
X124869392Y-104485822D01*
X125000584Y-104398163D01*
X125000586Y-104398162D01*
X125146358Y-104337781D01*
X125301107Y-104307000D01*
X125458893Y-104307000D01*
X125613642Y-104337781D01*
X125613642Y-104337781D01*
G37*
G36*
X128613642Y-104337781D02*
G01*
X128759414Y-104398162D01*
X128759416Y-104398163D01*
X128890608Y-104485822D01*
X129002178Y-104597392D01*
X129089837Y-104728584D01*
X129089838Y-104728586D01*
X129150219Y-104874358D01*
X129181000Y-105029107D01*
X129181000Y-105186893D01*
X129150219Y-105341642D01*
X129089838Y-105487414D01*
X129089837Y-105487416D01*
X129002178Y-105618608D01*
X128890608Y-105730178D01*
X128759416Y-105817837D01*
X128759415Y-105817838D01*
X128759414Y-105817838D01*
X128613642Y-105878219D01*
X128458893Y-105909000D01*
X128301107Y-105909000D01*
X128146358Y-105878219D01*
X128000586Y-105817838D01*
X128000585Y-105817838D01*
X128000584Y-105817837D01*
X127869392Y-105730178D01*
X127757822Y-105618608D01*
X127670163Y-105487416D01*
X127670162Y-105487414D01*
X127609781Y-105341642D01*
X127579000Y-105186893D01*
X127579000Y-105029107D01*
X127609781Y-104874358D01*
X127670162Y-104728586D01*
X127670163Y-104728584D01*
X127757822Y-104597392D01*
X127869392Y-104485822D01*
X128000584Y-104398163D01*
X128000586Y-104398162D01*
X128146358Y-104337781D01*
X128301107Y-104307000D01*
X128458893Y-104307000D01*
X128613642Y-104337781D01*
X128613642Y-104337781D01*
G37*
G36*
X131613642Y-104337781D02*
G01*
X131759414Y-104398162D01*
X131759416Y-104398163D01*
X131890608Y-104485822D01*
X132002178Y-104597392D01*
X132089837Y-104728584D01*
X132089838Y-104728586D01*
X132150219Y-104874358D01*
X132181000Y-105029107D01*
X132181000Y-105186893D01*
X132150219Y-105341642D01*
X132089838Y-105487414D01*
X132089837Y-105487416D01*
X132002178Y-105618608D01*
X131890608Y-105730178D01*
X131759416Y-105817837D01*
X131759415Y-105817838D01*
X131759414Y-105817838D01*
X131613642Y-105878219D01*
X131458893Y-105909000D01*
X131301107Y-105909000D01*
X131146358Y-105878219D01*
X131000586Y-105817838D01*
X131000585Y-105817838D01*
X131000584Y-105817837D01*
X130869392Y-105730178D01*
X130757822Y-105618608D01*
X130670163Y-105487416D01*
X130670162Y-105487414D01*
X130609781Y-105341642D01*
X130579000Y-105186893D01*
X130579000Y-105029107D01*
X130609781Y-104874358D01*
X130670162Y-104728586D01*
X130670163Y-104728584D01*
X130757822Y-104597392D01*
X130869392Y-104485822D01*
X131000584Y-104398163D01*
X131000586Y-104398162D01*
X131146358Y-104337781D01*
X131301107Y-104307000D01*
X131458893Y-104307000D01*
X131613642Y-104337781D01*
X131613642Y-104337781D01*
G37*
G36*
X134613642Y-104337781D02*
G01*
X134759414Y-104398162D01*
X134759416Y-104398163D01*
X134890608Y-104485822D01*
X135002178Y-104597392D01*
X135089837Y-104728584D01*
X135089838Y-104728586D01*
X135150219Y-104874358D01*
X135181000Y-105029107D01*
X135181000Y-105186893D01*
X135150219Y-105341642D01*
X135089838Y-105487414D01*
X135089837Y-105487416D01*
X135002178Y-105618608D01*
X134890608Y-105730178D01*
X134759416Y-105817837D01*
X134759415Y-105817838D01*
X134759414Y-105817838D01*
X134613642Y-105878219D01*
X134458893Y-105909000D01*
X134301107Y-105909000D01*
X134146358Y-105878219D01*
X134000586Y-105817838D01*
X134000585Y-105817838D01*
X134000584Y-105817837D01*
X133869392Y-105730178D01*
X133757822Y-105618608D01*
X133670163Y-105487416D01*
X133670162Y-105487414D01*
X133609781Y-105341642D01*
X133579000Y-105186893D01*
X133579000Y-105029107D01*
X133609781Y-104874358D01*
X133670162Y-104728586D01*
X133670163Y-104728584D01*
X133757822Y-104597392D01*
X133869392Y-104485822D01*
X134000584Y-104398163D01*
X134000586Y-104398162D01*
X134146358Y-104337781D01*
X134301107Y-104307000D01*
X134458893Y-104307000D01*
X134613642Y-104337781D01*
X134613642Y-104337781D01*
G37*
G36*
X122613642Y-104337781D02*
G01*
X122759414Y-104398162D01*
X122759416Y-104398163D01*
X122890608Y-104485822D01*
X123002178Y-104597392D01*
X123089837Y-104728584D01*
X123089838Y-104728586D01*
X123150219Y-104874358D01*
X123181000Y-105029107D01*
X123181000Y-105186893D01*
X123150219Y-105341642D01*
X123089838Y-105487414D01*
X123089837Y-105487416D01*
X123002178Y-105618608D01*
X122890608Y-105730178D01*
X122759416Y-105817837D01*
X122759415Y-105817838D01*
X122759414Y-105817838D01*
X122613642Y-105878219D01*
X122458893Y-105909000D01*
X122301107Y-105909000D01*
X122146358Y-105878219D01*
X122000586Y-105817838D01*
X122000585Y-105817838D01*
X122000584Y-105817837D01*
X121869392Y-105730178D01*
X121757822Y-105618608D01*
X121670163Y-105487416D01*
X121670162Y-105487414D01*
X121609781Y-105341642D01*
X121579000Y-105186893D01*
X121579000Y-105029107D01*
X121609781Y-104874358D01*
X121670162Y-104728586D01*
X121670163Y-104728584D01*
X121757822Y-104597392D01*
X121869392Y-104485822D01*
X122000584Y-104398163D01*
X122000586Y-104398162D01*
X122146358Y-104337781D01*
X122301107Y-104307000D01*
X122458893Y-104307000D01*
X122613642Y-104337781D01*
X122613642Y-104337781D01*
G37*
G36*
X119613642Y-104337781D02*
G01*
X119759414Y-104398162D01*
X119759416Y-104398163D01*
X119890608Y-104485822D01*
X120002178Y-104597392D01*
X120089837Y-104728584D01*
X120089838Y-104728586D01*
X120150219Y-104874358D01*
X120181000Y-105029107D01*
X120181000Y-105186893D01*
X120150219Y-105341642D01*
X120089838Y-105487414D01*
X120089837Y-105487416D01*
X120002178Y-105618608D01*
X119890608Y-105730178D01*
X119759416Y-105817837D01*
X119759415Y-105817838D01*
X119759414Y-105817838D01*
X119613642Y-105878219D01*
X119458893Y-105909000D01*
X119301107Y-105909000D01*
X119146358Y-105878219D01*
X119000586Y-105817838D01*
X119000585Y-105817838D01*
X119000584Y-105817837D01*
X118869392Y-105730178D01*
X118757822Y-105618608D01*
X118670163Y-105487416D01*
X118670162Y-105487414D01*
X118609781Y-105341642D01*
X118579000Y-105186893D01*
X118579000Y-105029107D01*
X118609781Y-104874358D01*
X118670162Y-104728586D01*
X118670163Y-104728584D01*
X118757822Y-104597392D01*
X118869392Y-104485822D01*
X119000584Y-104398163D01*
X119000586Y-104398162D01*
X119146358Y-104337781D01*
X119301107Y-104307000D01*
X119458893Y-104307000D01*
X119613642Y-104337781D01*
X119613642Y-104337781D01*
G37*
G36*
X154406800Y-105308600D02*
G01*
X152933200Y-105308600D01*
X152933200Y-103835000D01*
X154406800Y-103835000D01*
X154406800Y-105308600D01*
X154406800Y-105308600D01*
G37*
G36*
X111489142Y-103612242D02*
G01*
X111637101Y-103673529D01*
X111770255Y-103762499D01*
X111883501Y-103875745D01*
X111972471Y-104008899D01*
X112033758Y-104156858D01*
X112065000Y-104313925D01*
X112065000Y-104474075D01*
X112033758Y-104631142D01*
X111972471Y-104779101D01*
X111883501Y-104912255D01*
X111770255Y-105025501D01*
X111637101Y-105114471D01*
X111489142Y-105175758D01*
X111332075Y-105207000D01*
X111171925Y-105207000D01*
X111014858Y-105175758D01*
X110866899Y-105114471D01*
X110733745Y-105025501D01*
X110620499Y-104912255D01*
X110531529Y-104779101D01*
X110470242Y-104631142D01*
X110439000Y-104474075D01*
X110439000Y-104313925D01*
X110470242Y-104156858D01*
X110531529Y-104008899D01*
X110620499Y-103875745D01*
X110733745Y-103762499D01*
X110866899Y-103673529D01*
X111014858Y-103612242D01*
X111171925Y-103581000D01*
X111332075Y-103581000D01*
X111489142Y-103612242D01*
X111489142Y-103612242D01*
G37*
G36*
X113656326Y-101662062D02*
G01*
X113777799Y-101686225D01*
X114006650Y-101781018D01*
X114212610Y-101918636D01*
X114387764Y-102093790D01*
X114525382Y-102299750D01*
X114620175Y-102528601D01*
X114668500Y-102771547D01*
X114668500Y-103019253D01*
X114620175Y-103262199D01*
X114525382Y-103491050D01*
X114387764Y-103697010D01*
X114212610Y-103872164D01*
X114006650Y-104009782D01*
X113777799Y-104104575D01*
X113656326Y-104128738D01*
X113534854Y-104152900D01*
X113287146Y-104152900D01*
X113165674Y-104128738D01*
X113044201Y-104104575D01*
X112815350Y-104009782D01*
X112609390Y-103872164D01*
X112434236Y-103697010D01*
X112296618Y-103491050D01*
X112201825Y-103262199D01*
X112153500Y-103019253D01*
X112153500Y-102771547D01*
X112201825Y-102528601D01*
X112296618Y-102299750D01*
X112434236Y-102093790D01*
X112609390Y-101918636D01*
X112815350Y-101781018D01*
X113044201Y-101686225D01*
X113165674Y-101662063D01*
X113287146Y-101637900D01*
X113534854Y-101637900D01*
X113656326Y-101662062D01*
X113656326Y-101662062D01*
G37*
G36*
X109338326Y-101662062D02*
G01*
X109459799Y-101686225D01*
X109688650Y-101781018D01*
X109894610Y-101918636D01*
X110069764Y-102093790D01*
X110207382Y-102299750D01*
X110302175Y-102528601D01*
X110350500Y-102771547D01*
X110350500Y-103019253D01*
X110302175Y-103262199D01*
X110207382Y-103491050D01*
X110069764Y-103697010D01*
X109894610Y-103872164D01*
X109688650Y-104009782D01*
X109459799Y-104104575D01*
X109338326Y-104128738D01*
X109216854Y-104152900D01*
X108969146Y-104152900D01*
X108847674Y-104128738D01*
X108726201Y-104104575D01*
X108497350Y-104009782D01*
X108291390Y-103872164D01*
X108116236Y-103697010D01*
X107978618Y-103491050D01*
X107883825Y-103262199D01*
X107835500Y-103019253D01*
X107835500Y-102771547D01*
X107883825Y-102528601D01*
X107978618Y-102299750D01*
X108116236Y-102093790D01*
X108291390Y-101918636D01*
X108497350Y-101781018D01*
X108726201Y-101686225D01*
X108847674Y-101662063D01*
X108969146Y-101637900D01*
X109216854Y-101637900D01*
X109338326Y-101662062D01*
X109338326Y-101662062D01*
G37*
G36*
X143978914Y-102161514D02*
G01*
X143978916Y-102161515D01*
X143978917Y-102161515D01*
X144113006Y-102217056D01*
X144233683Y-102297690D01*
X144336310Y-102400317D01*
X144416944Y-102520994D01*
X144467066Y-102642000D01*
X144472486Y-102655086D01*
X144500800Y-102797430D01*
X144500800Y-102942570D01*
X144485547Y-103019254D01*
X144472485Y-103084917D01*
X144416944Y-103219006D01*
X144336310Y-103339683D01*
X144233683Y-103442310D01*
X144113006Y-103522944D01*
X143978917Y-103578485D01*
X143978916Y-103578485D01*
X143978914Y-103578486D01*
X143836570Y-103606800D01*
X143691430Y-103606800D01*
X143549086Y-103578486D01*
X143549084Y-103578485D01*
X143549083Y-103578485D01*
X143414994Y-103522944D01*
X143294317Y-103442310D01*
X143191690Y-103339683D01*
X143111056Y-103219006D01*
X143055515Y-103084917D01*
X143042454Y-103019254D01*
X143027200Y-102942570D01*
X143027200Y-102797430D01*
X143055514Y-102655086D01*
X143060934Y-102642000D01*
X143111056Y-102520994D01*
X143191690Y-102400317D01*
X143294317Y-102297690D01*
X143414994Y-102217056D01*
X143549083Y-102161515D01*
X143549084Y-102161515D01*
X143549086Y-102161514D01*
X143691430Y-102133200D01*
X143836570Y-102133200D01*
X143978914Y-102161514D01*
X143978914Y-102161514D01*
G37*
G36*
X120033048Y-101311122D02*
G01*
X120067387Y-101321539D01*
X120099036Y-101338456D01*
X120126778Y-101361222D01*
X120149544Y-101388964D01*
X120166461Y-101420613D01*
X120176878Y-101454952D01*
X120181000Y-101496807D01*
X120181000Y-102719193D01*
X120176878Y-102761048D01*
X120166461Y-102795387D01*
X120149544Y-102827036D01*
X120126778Y-102854778D01*
X120099036Y-102877544D01*
X120067387Y-102894461D01*
X120033048Y-102904878D01*
X119991193Y-102909000D01*
X118768807Y-102909000D01*
X118726952Y-102904878D01*
X118692613Y-102894461D01*
X118660964Y-102877544D01*
X118633222Y-102854778D01*
X118610456Y-102827036D01*
X118593539Y-102795387D01*
X118583122Y-102761048D01*
X118579000Y-102719193D01*
X118579000Y-101496807D01*
X118583122Y-101454952D01*
X118593539Y-101420613D01*
X118610456Y-101388964D01*
X118633222Y-101361222D01*
X118660964Y-101338456D01*
X118692613Y-101321539D01*
X118726952Y-101311122D01*
X118768807Y-101307000D01*
X119991193Y-101307000D01*
X120033048Y-101311122D01*
X120033048Y-101311122D01*
G37*
G36*
X122613642Y-101337781D02*
G01*
X122737208Y-101388964D01*
X122759416Y-101398163D01*
X122890608Y-101485822D01*
X123002178Y-101597392D01*
X123089837Y-101728584D01*
X123089838Y-101728586D01*
X123150219Y-101874358D01*
X123181000Y-102029107D01*
X123181000Y-102186893D01*
X123150219Y-102341642D01*
X123089838Y-102487414D01*
X123089837Y-102487416D01*
X123002178Y-102618608D01*
X122890608Y-102730178D01*
X122759416Y-102817837D01*
X122759415Y-102817838D01*
X122759414Y-102817838D01*
X122613642Y-102878219D01*
X122458893Y-102909000D01*
X122301107Y-102909000D01*
X122146358Y-102878219D01*
X122000586Y-102817838D01*
X122000585Y-102817838D01*
X122000584Y-102817837D01*
X121869392Y-102730178D01*
X121757822Y-102618608D01*
X121670163Y-102487416D01*
X121670162Y-102487414D01*
X121609781Y-102341642D01*
X121579000Y-102186893D01*
X121579000Y-102029107D01*
X121609781Y-101874358D01*
X121670162Y-101728586D01*
X121670163Y-101728584D01*
X121757822Y-101597392D01*
X121869392Y-101485822D01*
X122000584Y-101398163D01*
X122022792Y-101388964D01*
X122146358Y-101337781D01*
X122301107Y-101307000D01*
X122458893Y-101307000D01*
X122613642Y-101337781D01*
X122613642Y-101337781D01*
G37*
G36*
X125613642Y-101337781D02*
G01*
X125737208Y-101388964D01*
X125759416Y-101398163D01*
X125890608Y-101485822D01*
X126002178Y-101597392D01*
X126089837Y-101728584D01*
X126089838Y-101728586D01*
X126150219Y-101874358D01*
X126181000Y-102029107D01*
X126181000Y-102186893D01*
X126150219Y-102341642D01*
X126089838Y-102487414D01*
X126089837Y-102487416D01*
X126002178Y-102618608D01*
X125890608Y-102730178D01*
X125759416Y-102817837D01*
X125759415Y-102817838D01*
X125759414Y-102817838D01*
X125613642Y-102878219D01*
X125458893Y-102909000D01*
X125301107Y-102909000D01*
X125146358Y-102878219D01*
X125000586Y-102817838D01*
X125000585Y-102817838D01*
X125000584Y-102817837D01*
X124869392Y-102730178D01*
X124757822Y-102618608D01*
X124670163Y-102487416D01*
X124670162Y-102487414D01*
X124609781Y-102341642D01*
X124579000Y-102186893D01*
X124579000Y-102029107D01*
X124609781Y-101874358D01*
X124670162Y-101728586D01*
X124670163Y-101728584D01*
X124757822Y-101597392D01*
X124869392Y-101485822D01*
X125000584Y-101398163D01*
X125022792Y-101388964D01*
X125146358Y-101337781D01*
X125301107Y-101307000D01*
X125458893Y-101307000D01*
X125613642Y-101337781D01*
X125613642Y-101337781D01*
G37*
G36*
X128613642Y-101337781D02*
G01*
X128737208Y-101388964D01*
X128759416Y-101398163D01*
X128890608Y-101485822D01*
X129002178Y-101597392D01*
X129089837Y-101728584D01*
X129089838Y-101728586D01*
X129150219Y-101874358D01*
X129181000Y-102029107D01*
X129181000Y-102186893D01*
X129150219Y-102341642D01*
X129089838Y-102487414D01*
X129089837Y-102487416D01*
X129002178Y-102618608D01*
X128890608Y-102730178D01*
X128759416Y-102817837D01*
X128759415Y-102817838D01*
X128759414Y-102817838D01*
X128613642Y-102878219D01*
X128458893Y-102909000D01*
X128301107Y-102909000D01*
X128146358Y-102878219D01*
X128000586Y-102817838D01*
X128000585Y-102817838D01*
X128000584Y-102817837D01*
X127869392Y-102730178D01*
X127757822Y-102618608D01*
X127670163Y-102487416D01*
X127670162Y-102487414D01*
X127609781Y-102341642D01*
X127579000Y-102186893D01*
X127579000Y-102029107D01*
X127609781Y-101874358D01*
X127670162Y-101728586D01*
X127670163Y-101728584D01*
X127757822Y-101597392D01*
X127869392Y-101485822D01*
X128000584Y-101398163D01*
X128022792Y-101388964D01*
X128146358Y-101337781D01*
X128301107Y-101307000D01*
X128458893Y-101307000D01*
X128613642Y-101337781D01*
X128613642Y-101337781D01*
G37*
G36*
X131613642Y-101337781D02*
G01*
X131737208Y-101388964D01*
X131759416Y-101398163D01*
X131890608Y-101485822D01*
X132002178Y-101597392D01*
X132089837Y-101728584D01*
X132089838Y-101728586D01*
X132150219Y-101874358D01*
X132181000Y-102029107D01*
X132181000Y-102186893D01*
X132150219Y-102341642D01*
X132089838Y-102487414D01*
X132089837Y-102487416D01*
X132002178Y-102618608D01*
X131890608Y-102730178D01*
X131759416Y-102817837D01*
X131759415Y-102817838D01*
X131759414Y-102817838D01*
X131613642Y-102878219D01*
X131458893Y-102909000D01*
X131301107Y-102909000D01*
X131146358Y-102878219D01*
X131000586Y-102817838D01*
X131000585Y-102817838D01*
X131000584Y-102817837D01*
X130869392Y-102730178D01*
X130757822Y-102618608D01*
X130670163Y-102487416D01*
X130670162Y-102487414D01*
X130609781Y-102341642D01*
X130579000Y-102186893D01*
X130579000Y-102029107D01*
X130609781Y-101874358D01*
X130670162Y-101728586D01*
X130670163Y-101728584D01*
X130757822Y-101597392D01*
X130869392Y-101485822D01*
X131000584Y-101398163D01*
X131022792Y-101388964D01*
X131146358Y-101337781D01*
X131301107Y-101307000D01*
X131458893Y-101307000D01*
X131613642Y-101337781D01*
X131613642Y-101337781D01*
G37*
G36*
X134613642Y-101337781D02*
G01*
X134737208Y-101388964D01*
X134759416Y-101398163D01*
X134890608Y-101485822D01*
X135002178Y-101597392D01*
X135089837Y-101728584D01*
X135089838Y-101728586D01*
X135150219Y-101874358D01*
X135181000Y-102029107D01*
X135181000Y-102186893D01*
X135150219Y-102341642D01*
X135089838Y-102487414D01*
X135089837Y-102487416D01*
X135002178Y-102618608D01*
X134890608Y-102730178D01*
X134759416Y-102817837D01*
X134759415Y-102817838D01*
X134759414Y-102817838D01*
X134613642Y-102878219D01*
X134458893Y-102909000D01*
X134301107Y-102909000D01*
X134146358Y-102878219D01*
X134000586Y-102817838D01*
X134000585Y-102817838D01*
X134000584Y-102817837D01*
X133869392Y-102730178D01*
X133757822Y-102618608D01*
X133670163Y-102487416D01*
X133670162Y-102487414D01*
X133609781Y-102341642D01*
X133579000Y-102186893D01*
X133579000Y-102029107D01*
X133609781Y-101874358D01*
X133670162Y-101728586D01*
X133670163Y-101728584D01*
X133757822Y-101597392D01*
X133869392Y-101485822D01*
X134000584Y-101398163D01*
X134022792Y-101388964D01*
X134146358Y-101337781D01*
X134301107Y-101307000D01*
X134458893Y-101307000D01*
X134613642Y-101337781D01*
X134613642Y-101337781D01*
G37*
G36*
X111489142Y-100615042D02*
G01*
X111637101Y-100676329D01*
X111770255Y-100765299D01*
X111883501Y-100878545D01*
X111972471Y-101011699D01*
X112033758Y-101159658D01*
X112065000Y-101316725D01*
X112065000Y-101476875D01*
X112033758Y-101633942D01*
X111972471Y-101781901D01*
X111883501Y-101915055D01*
X111770255Y-102028301D01*
X111637101Y-102117271D01*
X111489142Y-102178558D01*
X111332075Y-102209800D01*
X111171925Y-102209800D01*
X111014858Y-102178558D01*
X110866899Y-102117271D01*
X110733745Y-102028301D01*
X110620499Y-101915055D01*
X110531529Y-101781901D01*
X110470242Y-101633942D01*
X110439000Y-101476875D01*
X110439000Y-101316725D01*
X110470242Y-101159658D01*
X110531529Y-101011699D01*
X110620499Y-100878545D01*
X110733745Y-100765299D01*
X110866899Y-100676329D01*
X111014858Y-100615042D01*
X111171925Y-100583800D01*
X111332075Y-100583800D01*
X111489142Y-100615042D01*
X111489142Y-100615042D01*
G37*
G36*
X114412251Y-99919480D02*
G01*
X114463120Y-99940551D01*
X114513986Y-99961620D01*
X114605542Y-100022796D01*
X114683404Y-100100658D01*
X114744580Y-100192214D01*
X114756480Y-100220944D01*
X114786720Y-100293949D01*
X114808200Y-100401941D01*
X114808200Y-100512059D01*
X114786720Y-100620051D01*
X114765649Y-100670920D01*
X114744580Y-100721786D01*
X114683404Y-100813342D01*
X114605542Y-100891204D01*
X114513986Y-100952380D01*
X114463120Y-100973449D01*
X114412251Y-100994520D01*
X114304259Y-101016000D01*
X114194141Y-101016000D01*
X114086149Y-100994520D01*
X114035280Y-100973449D01*
X113984414Y-100952380D01*
X113892858Y-100891204D01*
X113814996Y-100813342D01*
X113753820Y-100721786D01*
X113732751Y-100670920D01*
X113711680Y-100620051D01*
X113690200Y-100512059D01*
X113690200Y-100401941D01*
X113711680Y-100293949D01*
X113741920Y-100220944D01*
X113753820Y-100192214D01*
X113814996Y-100100658D01*
X113892858Y-100022796D01*
X113984414Y-99961620D01*
X114035280Y-99940551D01*
X114086149Y-99919480D01*
X114194141Y-99898000D01*
X114304259Y-99898000D01*
X114412251Y-99919480D01*
X114412251Y-99919480D01*
G37*
G36*
X108417851Y-99919480D02*
G01*
X108468720Y-99940551D01*
X108519586Y-99961620D01*
X108611142Y-100022796D01*
X108689004Y-100100658D01*
X108750180Y-100192214D01*
X108762080Y-100220944D01*
X108792320Y-100293949D01*
X108813800Y-100401941D01*
X108813800Y-100512059D01*
X108792320Y-100620051D01*
X108771249Y-100670920D01*
X108750180Y-100721786D01*
X108689004Y-100813342D01*
X108611142Y-100891204D01*
X108519586Y-100952380D01*
X108468720Y-100973449D01*
X108417851Y-100994520D01*
X108309859Y-101016000D01*
X108199741Y-101016000D01*
X108091749Y-100994520D01*
X108040880Y-100973449D01*
X107990014Y-100952380D01*
X107898458Y-100891204D01*
X107820596Y-100813342D01*
X107759420Y-100721786D01*
X107738351Y-100670920D01*
X107717280Y-100620051D01*
X107695800Y-100512059D01*
X107695800Y-100401941D01*
X107717280Y-100293949D01*
X107747520Y-100220944D01*
X107759420Y-100192214D01*
X107820596Y-100100658D01*
X107898458Y-100022796D01*
X107990014Y-99961620D01*
X108040880Y-99940551D01*
X108091749Y-99919480D01*
X108199741Y-99898000D01*
X108309859Y-99898000D01*
X108417851Y-99919480D01*
X108417851Y-99919480D01*
G37*
G36*
X153884914Y-98859514D02*
G01*
X153884916Y-98859515D01*
X153884917Y-98859515D01*
X154019006Y-98915056D01*
X154139683Y-98995690D01*
X154242310Y-99098317D01*
X154322944Y-99218994D01*
X154378485Y-99353083D01*
X154406800Y-99495432D01*
X154406800Y-99640568D01*
X154378485Y-99782917D01*
X154322944Y-99917006D01*
X154242310Y-100037683D01*
X154139683Y-100140310D01*
X154019006Y-100220944D01*
X153884917Y-100276485D01*
X153884916Y-100276485D01*
X153884914Y-100276486D01*
X153742570Y-100304800D01*
X153597430Y-100304800D01*
X153455086Y-100276486D01*
X153455084Y-100276485D01*
X153455083Y-100276485D01*
X153320994Y-100220944D01*
X153200317Y-100140310D01*
X153097690Y-100037683D01*
X153017056Y-99917006D01*
X152961515Y-99782917D01*
X152933200Y-99640568D01*
X152933200Y-99495432D01*
X152961515Y-99353083D01*
X153017056Y-99218994D01*
X153097690Y-99098317D01*
X153200317Y-98995690D01*
X153320994Y-98915056D01*
X153455083Y-98859515D01*
X153455084Y-98859515D01*
X153455086Y-98859514D01*
X153597430Y-98831200D01*
X153742570Y-98831200D01*
X153884914Y-98859514D01*
X153884914Y-98859514D01*
G37*
G36*
X139157059Y-62777860D02*
G01*
X139293732Y-62834472D01*
X139416735Y-62916660D01*
X139521340Y-63021265D01*
X139603528Y-63144268D01*
X139660140Y-63280941D01*
X139689000Y-63426033D01*
X139689000Y-63573967D01*
X139660140Y-63719059D01*
X139603528Y-63855732D01*
X139521340Y-63978735D01*
X139416735Y-64083340D01*
X139293732Y-64165528D01*
X139293731Y-64165529D01*
X139293730Y-64165529D01*
X139157059Y-64222140D01*
X139011968Y-64251000D01*
X138864032Y-64251000D01*
X138718941Y-64222140D01*
X138582270Y-64165529D01*
X138582269Y-64165529D01*
X138582268Y-64165528D01*
X138459265Y-64083340D01*
X138354660Y-63978735D01*
X138272472Y-63855732D01*
X138215860Y-63719059D01*
X138187000Y-63573967D01*
X138187000Y-63426033D01*
X138215860Y-63280941D01*
X138272472Y-63144268D01*
X138354660Y-63021265D01*
X138459265Y-62916660D01*
X138582268Y-62834472D01*
X138718941Y-62777860D01*
X138864032Y-62749000D01*
X139011968Y-62749000D01*
X139157059Y-62777860D01*
X139157059Y-62777860D01*
G37*
G36*
X142229000Y-64251000D02*
G01*
X140727000Y-64251000D01*
X140727000Y-62749000D01*
X142229000Y-62749000D01*
X142229000Y-64251000D01*
X142229000Y-64251000D01*
G37*
G36*
X141697059Y-60237860D02*
G01*
X141833732Y-60294472D01*
X141956735Y-60376660D01*
X142061340Y-60481265D01*
X142143528Y-60604268D01*
X142200140Y-60740941D01*
X142229000Y-60886033D01*
X142229000Y-61033967D01*
X142200140Y-61179059D01*
X142143528Y-61315732D01*
X142061340Y-61438735D01*
X141956735Y-61543340D01*
X141833732Y-61625528D01*
X141833731Y-61625529D01*
X141833730Y-61625529D01*
X141697059Y-61682140D01*
X141551968Y-61711000D01*
X141404032Y-61711000D01*
X141258941Y-61682140D01*
X141122270Y-61625529D01*
X141122269Y-61625529D01*
X141122268Y-61625528D01*
X140999265Y-61543340D01*
X140894660Y-61438735D01*
X140812472Y-61315732D01*
X140755860Y-61179059D01*
X140727000Y-61033967D01*
X140727000Y-60886033D01*
X140755860Y-60740941D01*
X140812472Y-60604268D01*
X140894660Y-60481265D01*
X140999265Y-60376660D01*
X141122268Y-60294472D01*
X141258941Y-60237860D01*
X141404032Y-60209000D01*
X141551968Y-60209000D01*
X141697059Y-60237860D01*
X141697059Y-60237860D01*
G37*
G36*
X139157059Y-60237860D02*
G01*
X139293732Y-60294472D01*
X139416735Y-60376660D01*
X139521340Y-60481265D01*
X139603528Y-60604268D01*
X139660140Y-60740941D01*
X139689000Y-60886033D01*
X139689000Y-61033967D01*
X139660140Y-61179059D01*
X139603528Y-61315732D01*
X139521340Y-61438735D01*
X139416735Y-61543340D01*
X139293732Y-61625528D01*
X139293731Y-61625529D01*
X139293730Y-61625529D01*
X139157059Y-61682140D01*
X139011968Y-61711000D01*
X138864032Y-61711000D01*
X138718941Y-61682140D01*
X138582270Y-61625529D01*
X138582269Y-61625529D01*
X138582268Y-61625528D01*
X138459265Y-61543340D01*
X138354660Y-61438735D01*
X138272472Y-61315732D01*
X138215860Y-61179059D01*
X138187000Y-61033967D01*
X138187000Y-60886033D01*
X138215860Y-60740941D01*
X138272472Y-60604268D01*
X138354660Y-60481265D01*
X138459265Y-60376660D01*
X138582268Y-60294472D01*
X138718941Y-60237860D01*
X138864032Y-60209000D01*
X139011968Y-60209000D01*
X139157059Y-60237860D01*
X139157059Y-60237860D01*
G37*
G36*
X141697059Y-57697860D02*
G01*
X141833732Y-57754472D01*
X141956735Y-57836660D01*
X142061340Y-57941265D01*
X142143528Y-58064268D01*
X142200140Y-58200941D01*
X142229000Y-58346033D01*
X142229000Y-58493967D01*
X142200140Y-58639059D01*
X142143528Y-58775732D01*
X142061340Y-58898735D01*
X141956735Y-59003340D01*
X141833732Y-59085528D01*
X141833731Y-59085529D01*
X141833730Y-59085529D01*
X141697059Y-59142140D01*
X141551968Y-59171000D01*
X141404032Y-59171000D01*
X141258941Y-59142140D01*
X141122270Y-59085529D01*
X141122269Y-59085529D01*
X141122268Y-59085528D01*
X140999265Y-59003340D01*
X140894660Y-58898735D01*
X140812472Y-58775732D01*
X140755860Y-58639059D01*
X140727000Y-58493967D01*
X140727000Y-58346033D01*
X140755860Y-58200941D01*
X140812472Y-58064268D01*
X140894660Y-57941265D01*
X140999265Y-57836660D01*
X141122268Y-57754472D01*
X141258941Y-57697860D01*
X141404032Y-57669000D01*
X141551968Y-57669000D01*
X141697059Y-57697860D01*
X141697059Y-57697860D01*
G37*
G36*
X139157059Y-57697860D02*
G01*
X139293732Y-57754472D01*
X139416735Y-57836660D01*
X139521340Y-57941265D01*
X139603528Y-58064268D01*
X139660140Y-58200941D01*
X139689000Y-58346033D01*
X139689000Y-58493967D01*
X139660140Y-58639059D01*
X139603528Y-58775732D01*
X139521340Y-58898735D01*
X139416735Y-59003340D01*
X139293732Y-59085528D01*
X139293731Y-59085529D01*
X139293730Y-59085529D01*
X139157059Y-59142140D01*
X139011968Y-59171000D01*
X138864032Y-59171000D01*
X138718941Y-59142140D01*
X138582270Y-59085529D01*
X138582269Y-59085529D01*
X138582268Y-59085528D01*
X138459265Y-59003340D01*
X138354660Y-58898735D01*
X138272472Y-58775732D01*
X138215860Y-58639059D01*
X138187000Y-58493967D01*
X138187000Y-58346033D01*
X138215860Y-58200941D01*
X138272472Y-58064268D01*
X138354660Y-57941265D01*
X138459265Y-57836660D01*
X138582268Y-57754472D01*
X138718941Y-57697860D01*
X138864032Y-57669000D01*
X139011968Y-57669000D01*
X139157059Y-57697860D01*
X139157059Y-57697860D01*
G37*
G36*
X130760473Y-53935938D02*
G01*
X130888049Y-53988782D01*
X131002859Y-54065495D01*
X131100505Y-54163141D01*
X131177218Y-54277951D01*
X131230062Y-54405527D01*
X131257000Y-54540956D01*
X131257000Y-54679044D01*
X131230062Y-54814473D01*
X131177218Y-54942049D01*
X131100505Y-55056859D01*
X131002859Y-55154505D01*
X130888049Y-55231218D01*
X130760473Y-55284062D01*
X130625044Y-55311000D01*
X130486956Y-55311000D01*
X130351527Y-55284062D01*
X130223951Y-55231218D01*
X130109141Y-55154505D01*
X130011495Y-55056859D01*
X129934782Y-54942049D01*
X129881938Y-54814473D01*
X129855000Y-54679044D01*
X129855000Y-54540956D01*
X129881938Y-54405527D01*
X129934782Y-54277951D01*
X130011495Y-54163141D01*
X130109141Y-54065495D01*
X130223951Y-53988782D01*
X130351527Y-53935938D01*
X130486956Y-53909000D01*
X130625044Y-53909000D01*
X130760473Y-53935938D01*
X130760473Y-53935938D01*
G37*
G36*
X133300473Y-53935938D02*
G01*
X133428049Y-53988782D01*
X133542859Y-54065495D01*
X133640505Y-54163141D01*
X133717218Y-54277951D01*
X133770062Y-54405527D01*
X133797000Y-54540956D01*
X133797000Y-54679044D01*
X133770062Y-54814473D01*
X133717218Y-54942049D01*
X133640505Y-55056859D01*
X133542859Y-55154505D01*
X133428049Y-55231218D01*
X133300473Y-55284062D01*
X133165044Y-55311000D01*
X133026956Y-55311000D01*
X132891527Y-55284062D01*
X132763951Y-55231218D01*
X132649141Y-55154505D01*
X132551495Y-55056859D01*
X132474782Y-54942049D01*
X132421938Y-54814473D01*
X132395000Y-54679044D01*
X132395000Y-54540956D01*
X132421938Y-54405527D01*
X132474782Y-54277951D01*
X132551495Y-54163141D01*
X132649141Y-54065495D01*
X132763951Y-53988782D01*
X132891527Y-53935938D01*
X133026956Y-53909000D01*
X133165044Y-53909000D01*
X133300473Y-53935938D01*
X133300473Y-53935938D01*
G37*
G36*
X128220473Y-53935938D02*
G01*
X128348049Y-53988782D01*
X128462859Y-54065495D01*
X128560505Y-54163141D01*
X128637218Y-54277951D01*
X128690062Y-54405527D01*
X128717000Y-54540956D01*
X128717000Y-54679044D01*
X128690062Y-54814473D01*
X128637218Y-54942049D01*
X128560505Y-55056859D01*
X128462859Y-55154505D01*
X128348049Y-55231218D01*
X128220473Y-55284062D01*
X128085044Y-55311000D01*
X127946956Y-55311000D01*
X127811527Y-55284062D01*
X127683951Y-55231218D01*
X127569141Y-55154505D01*
X127471495Y-55056859D01*
X127394782Y-54942049D01*
X127341938Y-54814473D01*
X127315000Y-54679044D01*
X127315000Y-54540956D01*
X127341938Y-54405527D01*
X127394782Y-54277951D01*
X127471495Y-54163141D01*
X127569141Y-54065495D01*
X127683951Y-53988782D01*
X127811527Y-53935938D01*
X127946956Y-53909000D01*
X128085044Y-53909000D01*
X128220473Y-53935938D01*
X128220473Y-53935938D01*
G37*
G36*
X123140473Y-53935938D02*
G01*
X123268049Y-53988782D01*
X123382859Y-54065495D01*
X123480505Y-54163141D01*
X123557218Y-54277951D01*
X123610062Y-54405527D01*
X123637000Y-54540956D01*
X123637000Y-54679044D01*
X123610062Y-54814473D01*
X123557218Y-54942049D01*
X123480505Y-55056859D01*
X123382859Y-55154505D01*
X123268049Y-55231218D01*
X123140473Y-55284062D01*
X123005044Y-55311000D01*
X122866956Y-55311000D01*
X122731527Y-55284062D01*
X122603951Y-55231218D01*
X122489141Y-55154505D01*
X122391495Y-55056859D01*
X122314782Y-54942049D01*
X122261938Y-54814473D01*
X122235000Y-54679044D01*
X122235000Y-54540956D01*
X122261938Y-54405527D01*
X122314782Y-54277951D01*
X122391495Y-54163141D01*
X122489141Y-54065495D01*
X122603951Y-53988782D01*
X122731527Y-53935938D01*
X122866956Y-53909000D01*
X123005044Y-53909000D01*
X123140473Y-53935938D01*
X123140473Y-53935938D01*
G37*
G36*
X120600473Y-53935938D02*
G01*
X120728049Y-53988782D01*
X120842859Y-54065495D01*
X120940505Y-54163141D01*
X121017218Y-54277951D01*
X121070062Y-54405527D01*
X121097000Y-54540956D01*
X121097000Y-54679044D01*
X121070062Y-54814473D01*
X121017218Y-54942049D01*
X120940505Y-55056859D01*
X120842859Y-55154505D01*
X120728049Y-55231218D01*
X120600473Y-55284062D01*
X120465044Y-55311000D01*
X120326956Y-55311000D01*
X120191527Y-55284062D01*
X120063951Y-55231218D01*
X119949141Y-55154505D01*
X119851495Y-55056859D01*
X119774782Y-54942049D01*
X119721938Y-54814473D01*
X119695000Y-54679044D01*
X119695000Y-54540956D01*
X119721938Y-54405527D01*
X119774782Y-54277951D01*
X119851495Y-54163141D01*
X119949141Y-54065495D01*
X120063951Y-53988782D01*
X120191527Y-53935938D01*
X120326956Y-53909000D01*
X120465044Y-53909000D01*
X120600473Y-53935938D01*
X120600473Y-53935938D01*
G37*
G36*
X138380473Y-53935938D02*
G01*
X138508049Y-53988782D01*
X138622859Y-54065495D01*
X138720505Y-54163141D01*
X138797218Y-54277951D01*
X138850062Y-54405527D01*
X138877000Y-54540956D01*
X138877000Y-54679044D01*
X138850062Y-54814473D01*
X138797218Y-54942049D01*
X138720505Y-55056859D01*
X138622859Y-55154505D01*
X138508049Y-55231218D01*
X138380473Y-55284062D01*
X138245044Y-55311000D01*
X138106956Y-55311000D01*
X137971527Y-55284062D01*
X137843951Y-55231218D01*
X137729141Y-55154505D01*
X137631495Y-55056859D01*
X137554782Y-54942049D01*
X137501938Y-54814473D01*
X137475000Y-54679044D01*
X137475000Y-54540956D01*
X137501938Y-54405527D01*
X137554782Y-54277951D01*
X137631495Y-54163141D01*
X137729141Y-54065495D01*
X137843951Y-53988782D01*
X137971527Y-53935938D01*
X138106956Y-53909000D01*
X138245044Y-53909000D01*
X138380473Y-53935938D01*
X138380473Y-53935938D01*
G37*
G36*
X125680473Y-53935938D02*
G01*
X125808049Y-53988782D01*
X125922859Y-54065495D01*
X126020505Y-54163141D01*
X126097218Y-54277951D01*
X126150062Y-54405527D01*
X126177000Y-54540956D01*
X126177000Y-54679044D01*
X126150062Y-54814473D01*
X126097218Y-54942049D01*
X126020505Y-55056859D01*
X125922859Y-55154505D01*
X125808049Y-55231218D01*
X125680473Y-55284062D01*
X125545044Y-55311000D01*
X125406956Y-55311000D01*
X125271527Y-55284062D01*
X125143951Y-55231218D01*
X125029141Y-55154505D01*
X124931495Y-55056859D01*
X124854782Y-54942049D01*
X124801938Y-54814473D01*
X124775000Y-54679044D01*
X124775000Y-54540956D01*
X124801938Y-54405527D01*
X124854782Y-54277951D01*
X124931495Y-54163141D01*
X125029141Y-54065495D01*
X125143951Y-53988782D01*
X125271527Y-53935938D01*
X125406956Y-53909000D01*
X125545044Y-53909000D01*
X125680473Y-53935938D01*
X125680473Y-53935938D01*
G37*
G36*
X135840473Y-53935938D02*
G01*
X135968049Y-53988782D01*
X136082859Y-54065495D01*
X136180505Y-54163141D01*
X136257218Y-54277951D01*
X136310062Y-54405527D01*
X136337000Y-54540956D01*
X136337000Y-54679044D01*
X136310062Y-54814473D01*
X136257218Y-54942049D01*
X136180505Y-55056859D01*
X136082859Y-55154505D01*
X135968049Y-55231218D01*
X135840473Y-55284062D01*
X135705044Y-55311000D01*
X135566956Y-55311000D01*
X135431527Y-55284062D01*
X135303951Y-55231218D01*
X135189141Y-55154505D01*
X135091495Y-55056859D01*
X135014782Y-54942049D01*
X134961938Y-54814473D01*
X134935000Y-54679044D01*
X134935000Y-54540956D01*
X134961938Y-54405527D01*
X135014782Y-54277951D01*
X135091495Y-54163141D01*
X135189141Y-54065495D01*
X135303951Y-53988782D01*
X135431527Y-53935938D01*
X135566956Y-53909000D01*
X135705044Y-53909000D01*
X135840473Y-53935938D01*
X135840473Y-53935938D01*
G37*
G36*
X143460473Y-53935938D02*
G01*
X143588049Y-53988782D01*
X143702859Y-54065495D01*
X143800505Y-54163141D01*
X143877218Y-54277951D01*
X143930062Y-54405527D01*
X143957000Y-54540956D01*
X143957000Y-54679044D01*
X143930062Y-54814473D01*
X143877218Y-54942049D01*
X143800505Y-55056859D01*
X143702859Y-55154505D01*
X143588049Y-55231218D01*
X143460473Y-55284062D01*
X143325044Y-55311000D01*
X143186956Y-55311000D01*
X143051527Y-55284062D01*
X142923951Y-55231218D01*
X142809141Y-55154505D01*
X142711495Y-55056859D01*
X142634782Y-54942049D01*
X142581938Y-54814473D01*
X142555000Y-54679044D01*
X142555000Y-54540956D01*
X142581938Y-54405527D01*
X142634782Y-54277951D01*
X142711495Y-54163141D01*
X142809141Y-54065495D01*
X142923951Y-53988782D01*
X143051527Y-53935938D01*
X143186956Y-53909000D01*
X143325044Y-53909000D01*
X143460473Y-53935938D01*
X143460473Y-53935938D01*
G37*
G36*
X140920473Y-53935938D02*
G01*
X141048049Y-53988782D01*
X141162859Y-54065495D01*
X141260505Y-54163141D01*
X141337218Y-54277951D01*
X141390062Y-54405527D01*
X141417000Y-54540956D01*
X141417000Y-54679044D01*
X141390062Y-54814473D01*
X141337218Y-54942049D01*
X141260505Y-55056859D01*
X141162859Y-55154505D01*
X141048049Y-55231218D01*
X140920473Y-55284062D01*
X140785044Y-55311000D01*
X140646956Y-55311000D01*
X140511527Y-55284062D01*
X140383951Y-55231218D01*
X140269141Y-55154505D01*
X140171495Y-55056859D01*
X140094782Y-54942049D01*
X140041938Y-54814473D01*
X140015000Y-54679044D01*
X140015000Y-54540956D01*
X140041938Y-54405527D01*
X140094782Y-54277951D01*
X140171495Y-54163141D01*
X140269141Y-54065495D01*
X140383951Y-53988782D01*
X140511527Y-53935938D01*
X140646956Y-53909000D01*
X140785044Y-53909000D01*
X140920473Y-53935938D01*
X140920473Y-53935938D01*
G37*
G36*
X119302564Y-51799389D02*
G01*
X119493833Y-51878615D01*
X119493835Y-51878616D01*
X119665973Y-51993635D01*
X119812365Y-52140027D01*
X119902200Y-52274474D01*
X119927385Y-52312167D01*
X120006611Y-52503436D01*
X120047000Y-52706484D01*
X120047000Y-52913516D01*
X120006611Y-53116564D01*
X119927385Y-53307833D01*
X119927384Y-53307835D01*
X119812365Y-53479973D01*
X119665973Y-53626365D01*
X119493835Y-53741384D01*
X119493834Y-53741385D01*
X119493833Y-53741385D01*
X119302564Y-53820611D01*
X119099516Y-53861000D01*
X118892484Y-53861000D01*
X118689436Y-53820611D01*
X118498167Y-53741385D01*
X118498166Y-53741385D01*
X118498165Y-53741384D01*
X118326027Y-53626365D01*
X118179635Y-53479973D01*
X118064616Y-53307835D01*
X118064615Y-53307833D01*
X117985389Y-53116564D01*
X117945000Y-52913516D01*
X117945000Y-52706484D01*
X117985389Y-52503436D01*
X118064615Y-52312167D01*
X118089801Y-52274474D01*
X118179635Y-52140027D01*
X118326027Y-51993635D01*
X118498165Y-51878616D01*
X118498167Y-51878615D01*
X118689436Y-51799389D01*
X118892484Y-51759000D01*
X119099516Y-51759000D01*
X119302564Y-51799389D01*
X119302564Y-51799389D01*
G37*
G36*
X142190473Y-51395938D02*
G01*
X142318049Y-51448782D01*
X142432859Y-51525495D01*
X142530505Y-51623141D01*
X142607218Y-51737951D01*
X142660062Y-51865527D01*
X142687000Y-52000956D01*
X142687000Y-52139044D01*
X142660062Y-52274473D01*
X142607218Y-52402049D01*
X142530505Y-52516859D01*
X142432859Y-52614505D01*
X142318049Y-52691218D01*
X142190473Y-52744062D01*
X142055044Y-52771000D01*
X141916956Y-52771000D01*
X141781527Y-52744062D01*
X141653951Y-52691218D01*
X141539141Y-52614505D01*
X141441495Y-52516859D01*
X141364782Y-52402049D01*
X141311938Y-52274473D01*
X141285000Y-52139044D01*
X141285000Y-52000956D01*
X141311938Y-51865527D01*
X141364782Y-51737951D01*
X141441495Y-51623141D01*
X141539141Y-51525495D01*
X141653951Y-51448782D01*
X141781527Y-51395938D01*
X141916956Y-51369000D01*
X142055044Y-51369000D01*
X142190473Y-51395938D01*
X142190473Y-51395938D01*
G37*
G36*
X137110473Y-51395938D02*
G01*
X137238049Y-51448782D01*
X137352859Y-51525495D01*
X137450505Y-51623141D01*
X137527218Y-51737951D01*
X137580062Y-51865527D01*
X137607000Y-52000956D01*
X137607000Y-52139044D01*
X137580062Y-52274473D01*
X137527218Y-52402049D01*
X137450505Y-52516859D01*
X137352859Y-52614505D01*
X137238049Y-52691218D01*
X137110473Y-52744062D01*
X136975044Y-52771000D01*
X136836956Y-52771000D01*
X136701527Y-52744062D01*
X136573951Y-52691218D01*
X136459141Y-52614505D01*
X136361495Y-52516859D01*
X136284782Y-52402049D01*
X136231938Y-52274473D01*
X136205000Y-52139044D01*
X136205000Y-52000956D01*
X136231938Y-51865527D01*
X136284782Y-51737951D01*
X136361495Y-51623141D01*
X136459141Y-51525495D01*
X136573951Y-51448782D01*
X136701527Y-51395938D01*
X136836956Y-51369000D01*
X136975044Y-51369000D01*
X137110473Y-51395938D01*
X137110473Y-51395938D01*
G37*
G36*
X134570473Y-51395938D02*
G01*
X134698049Y-51448782D01*
X134812859Y-51525495D01*
X134910505Y-51623141D01*
X134987218Y-51737951D01*
X135040062Y-51865527D01*
X135067000Y-52000956D01*
X135067000Y-52139044D01*
X135040062Y-52274473D01*
X134987218Y-52402049D01*
X134910505Y-52516859D01*
X134812859Y-52614505D01*
X134698049Y-52691218D01*
X134570473Y-52744062D01*
X134435044Y-52771000D01*
X134296956Y-52771000D01*
X134161527Y-52744062D01*
X134033951Y-52691218D01*
X133919141Y-52614505D01*
X133821495Y-52516859D01*
X133744782Y-52402049D01*
X133691938Y-52274473D01*
X133665000Y-52139044D01*
X133665000Y-52000956D01*
X133691938Y-51865527D01*
X133744782Y-51737951D01*
X133821495Y-51623141D01*
X133919141Y-51525495D01*
X134033951Y-51448782D01*
X134161527Y-51395938D01*
X134296956Y-51369000D01*
X134435044Y-51369000D01*
X134570473Y-51395938D01*
X134570473Y-51395938D01*
G37*
G36*
X132030473Y-51395938D02*
G01*
X132158049Y-51448782D01*
X132272859Y-51525495D01*
X132370505Y-51623141D01*
X132447218Y-51737951D01*
X132500062Y-51865527D01*
X132527000Y-52000956D01*
X132527000Y-52139044D01*
X132500062Y-52274473D01*
X132447218Y-52402049D01*
X132370505Y-52516859D01*
X132272859Y-52614505D01*
X132158049Y-52691218D01*
X132030473Y-52744062D01*
X131895044Y-52771000D01*
X131756956Y-52771000D01*
X131621527Y-52744062D01*
X131493951Y-52691218D01*
X131379141Y-52614505D01*
X131281495Y-52516859D01*
X131204782Y-52402049D01*
X131151938Y-52274473D01*
X131125000Y-52139044D01*
X131125000Y-52000956D01*
X131151938Y-51865527D01*
X131204782Y-51737951D01*
X131281495Y-51623141D01*
X131379141Y-51525495D01*
X131493951Y-51448782D01*
X131621527Y-51395938D01*
X131756956Y-51369000D01*
X131895044Y-51369000D01*
X132030473Y-51395938D01*
X132030473Y-51395938D01*
G37*
G36*
X129490473Y-51395938D02*
G01*
X129618049Y-51448782D01*
X129732859Y-51525495D01*
X129830505Y-51623141D01*
X129907218Y-51737951D01*
X129960062Y-51865527D01*
X129987000Y-52000956D01*
X129987000Y-52139044D01*
X129960062Y-52274473D01*
X129907218Y-52402049D01*
X129830505Y-52516859D01*
X129732859Y-52614505D01*
X129618049Y-52691218D01*
X129490473Y-52744062D01*
X129355044Y-52771000D01*
X129216956Y-52771000D01*
X129081527Y-52744062D01*
X128953951Y-52691218D01*
X128839141Y-52614505D01*
X128741495Y-52516859D01*
X128664782Y-52402049D01*
X128611938Y-52274473D01*
X128585000Y-52139044D01*
X128585000Y-52000956D01*
X128611938Y-51865527D01*
X128664782Y-51737951D01*
X128741495Y-51623141D01*
X128839141Y-51525495D01*
X128953951Y-51448782D01*
X129081527Y-51395938D01*
X129216956Y-51369000D01*
X129355044Y-51369000D01*
X129490473Y-51395938D01*
X129490473Y-51395938D01*
G37*
G36*
X126950473Y-51395938D02*
G01*
X127078049Y-51448782D01*
X127192859Y-51525495D01*
X127290505Y-51623141D01*
X127367218Y-51737951D01*
X127420062Y-51865527D01*
X127447000Y-52000956D01*
X127447000Y-52139044D01*
X127420062Y-52274473D01*
X127367218Y-52402049D01*
X127290505Y-52516859D01*
X127192859Y-52614505D01*
X127078049Y-52691218D01*
X126950473Y-52744062D01*
X126815044Y-52771000D01*
X126676956Y-52771000D01*
X126541527Y-52744062D01*
X126413951Y-52691218D01*
X126299141Y-52614505D01*
X126201495Y-52516859D01*
X126124782Y-52402049D01*
X126071938Y-52274473D01*
X126045000Y-52139044D01*
X126045000Y-52000956D01*
X126071938Y-51865527D01*
X126124782Y-51737951D01*
X126201495Y-51623141D01*
X126299141Y-51525495D01*
X126413951Y-51448782D01*
X126541527Y-51395938D01*
X126676956Y-51369000D01*
X126815044Y-51369000D01*
X126950473Y-51395938D01*
X126950473Y-51395938D01*
G37*
G36*
X124410473Y-51395938D02*
G01*
X124538049Y-51448782D01*
X124652859Y-51525495D01*
X124750505Y-51623141D01*
X124827218Y-51737951D01*
X124880062Y-51865527D01*
X124907000Y-52000956D01*
X124907000Y-52139044D01*
X124880062Y-52274473D01*
X124827218Y-52402049D01*
X124750505Y-52516859D01*
X124652859Y-52614505D01*
X124538049Y-52691218D01*
X124410473Y-52744062D01*
X124275044Y-52771000D01*
X124136956Y-52771000D01*
X124001527Y-52744062D01*
X123873951Y-52691218D01*
X123759141Y-52614505D01*
X123661495Y-52516859D01*
X123584782Y-52402049D01*
X123531938Y-52274473D01*
X123505000Y-52139044D01*
X123505000Y-52000956D01*
X123531938Y-51865527D01*
X123584782Y-51737951D01*
X123661495Y-51623141D01*
X123759141Y-51525495D01*
X123873951Y-51448782D01*
X124001527Y-51395938D01*
X124136956Y-51369000D01*
X124275044Y-51369000D01*
X124410473Y-51395938D01*
X124410473Y-51395938D01*
G37*
G36*
X121870473Y-51395938D02*
G01*
X121998049Y-51448782D01*
X122112859Y-51525495D01*
X122210505Y-51623141D01*
X122287218Y-51737951D01*
X122340062Y-51865527D01*
X122367000Y-52000956D01*
X122367000Y-52139044D01*
X122340062Y-52274473D01*
X122287218Y-52402049D01*
X122210505Y-52516859D01*
X122112859Y-52614505D01*
X121998049Y-52691218D01*
X121870473Y-52744062D01*
X121735044Y-52771000D01*
X121596956Y-52771000D01*
X121461527Y-52744062D01*
X121333951Y-52691218D01*
X121219141Y-52614505D01*
X121121495Y-52516859D01*
X121044782Y-52402049D01*
X120991938Y-52274473D01*
X120965000Y-52139044D01*
X120965000Y-52000956D01*
X120991938Y-51865527D01*
X121044782Y-51737951D01*
X121121495Y-51623141D01*
X121219141Y-51525495D01*
X121333951Y-51448782D01*
X121461527Y-51395938D01*
X121596956Y-51369000D01*
X121735044Y-51369000D01*
X121870473Y-51395938D01*
X121870473Y-51395938D01*
G37*
G36*
X144730473Y-51395938D02*
G01*
X144858049Y-51448782D01*
X144972859Y-51525495D01*
X145070505Y-51623141D01*
X145147218Y-51737951D01*
X145200062Y-51865527D01*
X145227000Y-52000956D01*
X145227000Y-52139044D01*
X145200062Y-52274473D01*
X145147218Y-52402049D01*
X145070505Y-52516859D01*
X144972859Y-52614505D01*
X144858049Y-52691218D01*
X144730473Y-52744062D01*
X144595044Y-52771000D01*
X144456956Y-52771000D01*
X144321527Y-52744062D01*
X144193951Y-52691218D01*
X144079141Y-52614505D01*
X143981495Y-52516859D01*
X143904782Y-52402049D01*
X143851938Y-52274473D01*
X143825000Y-52139044D01*
X143825000Y-52000956D01*
X143851938Y-51865527D01*
X143904782Y-51737951D01*
X143981495Y-51623141D01*
X144079141Y-51525495D01*
X144193951Y-51448782D01*
X144321527Y-51395938D01*
X144456956Y-51369000D01*
X144595044Y-51369000D01*
X144730473Y-51395938D01*
X144730473Y-51395938D01*
G37*
G36*
X139650473Y-51395938D02*
G01*
X139778049Y-51448782D01*
X139892859Y-51525495D01*
X139990505Y-51623141D01*
X140067218Y-51737951D01*
X140120062Y-51865527D01*
X140147000Y-52000956D01*
X140147000Y-52139044D01*
X140120062Y-52274473D01*
X140067218Y-52402049D01*
X139990505Y-52516859D01*
X139892859Y-52614505D01*
X139778049Y-52691218D01*
X139650473Y-52744062D01*
X139515044Y-52771000D01*
X139376956Y-52771000D01*
X139241527Y-52744062D01*
X139113951Y-52691218D01*
X138999141Y-52614505D01*
X138901495Y-52516859D01*
X138824782Y-52402049D01*
X138771938Y-52274473D01*
X138745000Y-52139044D01*
X138745000Y-52000956D01*
X138771938Y-51865527D01*
X138824782Y-51737951D01*
X138901495Y-51623141D01*
X138999141Y-51525495D01*
X139113951Y-51448782D01*
X139241527Y-51395938D01*
X139376956Y-51369000D01*
X139515044Y-51369000D01*
X139650473Y-51395938D01*
X139650473Y-51395938D01*
G37*
M02*
