G04 #@! TF.GenerationSoftware,KiCad,Pcbnew,5.1.4-e60b266~84~ubuntu18.04.1*
G04 #@! TF.CreationDate,2019-12-02T22:04:49-05:00*
G04 #@! TF.ProjectId,AIR_control,4149525f-636f-46e7-9472-6f6c2e6b6963,rev?*
G04 #@! TF.SameCoordinates,Original*
G04 #@! TF.FileFunction,Legend,Top*
G04 #@! TF.FilePolarity,Positive*
%FSLAX46Y46*%
G04 Gerber Fmt 4.6, Leading zero omitted, Abs format (unit mm)*
G04 Created by KiCad (PCBNEW 5.1.4-e60b266~84~ubuntu18.04.1) date 2019-12-02 22:04:49*
%MOMM*%
%LPD*%
G04 APERTURE LIST*
%ADD10C,0.254000*%
%ADD11C,0.150000*%
%ADD12C,0.120000*%
%ADD13C,0.100000*%
%ADD14C,0.152400*%
%ADD15C,0.500000*%
%ADD16C,0.200000*%
G04 APERTURE END LIST*
D10*
X108581976Y-52711047D02*
X109851976Y-52711047D01*
X108642452Y-53255333D02*
X108581976Y-53376285D01*
X108581976Y-53618190D01*
X108642452Y-53739142D01*
X108763404Y-53799619D01*
X108823880Y-53799619D01*
X108944833Y-53739142D01*
X109005309Y-53618190D01*
X109005309Y-53436761D01*
X109065785Y-53315809D01*
X109186738Y-53255333D01*
X109247214Y-53255333D01*
X109368166Y-53315809D01*
X109428642Y-53436761D01*
X109428642Y-53618190D01*
X109368166Y-53739142D01*
X108581976Y-54888190D02*
X109247214Y-54888190D01*
X109368166Y-54827714D01*
X109428642Y-54706761D01*
X109428642Y-54464857D01*
X109368166Y-54343904D01*
X108642452Y-54888190D02*
X108581976Y-54767238D01*
X108581976Y-54464857D01*
X108642452Y-54343904D01*
X108763404Y-54283428D01*
X108884357Y-54283428D01*
X109005309Y-54343904D01*
X109065785Y-54464857D01*
X109065785Y-54767238D01*
X109126261Y-54888190D01*
X108581976Y-55492952D02*
X109851976Y-55492952D01*
X109368166Y-55492952D02*
X109428642Y-55613904D01*
X109428642Y-55855809D01*
X109368166Y-55976761D01*
X109307690Y-56037238D01*
X109186738Y-56097714D01*
X108823880Y-56097714D01*
X108702928Y-56037238D01*
X108642452Y-55976761D01*
X108581976Y-55855809D01*
X108581976Y-55613904D01*
X108642452Y-55492952D01*
X108642452Y-57125809D02*
X108581976Y-57004857D01*
X108581976Y-56762952D01*
X108642452Y-56642000D01*
X108763404Y-56581523D01*
X109247214Y-56581523D01*
X109368166Y-56642000D01*
X109428642Y-56762952D01*
X109428642Y-57004857D01*
X109368166Y-57125809D01*
X109247214Y-57186285D01*
X109126261Y-57186285D01*
X109005309Y-56581523D01*
X108581976Y-57912000D02*
X108642452Y-57791047D01*
X108763404Y-57730571D01*
X109851976Y-57730571D01*
X108642452Y-59302952D02*
X108581976Y-59484380D01*
X108581976Y-59786761D01*
X108642452Y-59907714D01*
X108702928Y-59968190D01*
X108823880Y-60028666D01*
X108944833Y-60028666D01*
X109065785Y-59968190D01*
X109126261Y-59907714D01*
X109186738Y-59786761D01*
X109247214Y-59544857D01*
X109307690Y-59423904D01*
X109368166Y-59363428D01*
X109489119Y-59302952D01*
X109610071Y-59302952D01*
X109731023Y-59363428D01*
X109791500Y-59423904D01*
X109851976Y-59544857D01*
X109851976Y-59847238D01*
X109791500Y-60028666D01*
X108642452Y-61056761D02*
X108581976Y-60935809D01*
X108581976Y-60693904D01*
X108642452Y-60572952D01*
X108763404Y-60512476D01*
X109247214Y-60512476D01*
X109368166Y-60572952D01*
X109428642Y-60693904D01*
X109428642Y-60935809D01*
X109368166Y-61056761D01*
X109247214Y-61117238D01*
X109126261Y-61117238D01*
X109005309Y-60512476D01*
X108581976Y-61661523D02*
X109428642Y-61661523D01*
X109186738Y-61661523D02*
X109307690Y-61722000D01*
X109368166Y-61782476D01*
X109428642Y-61903428D01*
X109428642Y-62024380D01*
X108581976Y-62447714D02*
X109428642Y-62447714D01*
X109186738Y-62447714D02*
X109307690Y-62508190D01*
X109368166Y-62568666D01*
X109428642Y-62689619D01*
X109428642Y-62810571D01*
X108581976Y-63778190D02*
X109247214Y-63778190D01*
X109368166Y-63717714D01*
X109428642Y-63596761D01*
X109428642Y-63354857D01*
X109368166Y-63233904D01*
X108642452Y-63778190D02*
X108581976Y-63657238D01*
X108581976Y-63354857D01*
X108642452Y-63233904D01*
X108763404Y-63173428D01*
X108884357Y-63173428D01*
X109005309Y-63233904D01*
X109065785Y-63354857D01*
X109065785Y-63657238D01*
X109126261Y-63778190D01*
X109428642Y-64201523D02*
X109428642Y-64685333D01*
X109851976Y-64382952D02*
X108763404Y-64382952D01*
X108642452Y-64443428D01*
X108581976Y-64564380D01*
X108581976Y-64685333D01*
X108581976Y-65290095D02*
X108642452Y-65169142D01*
X108702928Y-65108666D01*
X108823880Y-65048190D01*
X109186738Y-65048190D01*
X109307690Y-65108666D01*
X109368166Y-65169142D01*
X109428642Y-65290095D01*
X109428642Y-65471523D01*
X109368166Y-65592476D01*
X109307690Y-65652952D01*
X109186738Y-65713428D01*
X108823880Y-65713428D01*
X108702928Y-65652952D01*
X108642452Y-65592476D01*
X108581976Y-65471523D01*
X108581976Y-65290095D01*
X106785833Y-50775809D02*
X106785833Y-51380571D01*
X106422976Y-50654857D02*
X107692976Y-51078190D01*
X106422976Y-51501523D01*
X106422976Y-51924857D02*
X107692976Y-51924857D01*
X106422976Y-53255333D02*
X107027738Y-52832000D01*
X106422976Y-52529619D02*
X107692976Y-52529619D01*
X107692976Y-53013428D01*
X107632500Y-53134380D01*
X107572023Y-53194857D01*
X107451071Y-53255333D01*
X107269642Y-53255333D01*
X107148690Y-53194857D01*
X107088214Y-53134380D01*
X107027738Y-53013428D01*
X107027738Y-52529619D01*
X106543928Y-55492952D02*
X106483452Y-55432476D01*
X106422976Y-55251047D01*
X106422976Y-55130095D01*
X106483452Y-54948666D01*
X106604404Y-54827714D01*
X106725357Y-54767238D01*
X106967261Y-54706761D01*
X107148690Y-54706761D01*
X107390595Y-54767238D01*
X107511547Y-54827714D01*
X107632500Y-54948666D01*
X107692976Y-55130095D01*
X107692976Y-55251047D01*
X107632500Y-55432476D01*
X107572023Y-55492952D01*
X106422976Y-56218666D02*
X106483452Y-56097714D01*
X106543928Y-56037238D01*
X106664880Y-55976761D01*
X107027738Y-55976761D01*
X107148690Y-56037238D01*
X107209166Y-56097714D01*
X107269642Y-56218666D01*
X107269642Y-56400095D01*
X107209166Y-56521047D01*
X107148690Y-56581523D01*
X107027738Y-56642000D01*
X106664880Y-56642000D01*
X106543928Y-56581523D01*
X106483452Y-56521047D01*
X106422976Y-56400095D01*
X106422976Y-56218666D01*
X107269642Y-57186285D02*
X106422976Y-57186285D01*
X107148690Y-57186285D02*
X107209166Y-57246761D01*
X107269642Y-57367714D01*
X107269642Y-57549142D01*
X107209166Y-57670095D01*
X107088214Y-57730571D01*
X106422976Y-57730571D01*
X107269642Y-58153904D02*
X107269642Y-58637714D01*
X107692976Y-58335333D02*
X106604404Y-58335333D01*
X106483452Y-58395809D01*
X106422976Y-58516761D01*
X106422976Y-58637714D01*
X106422976Y-59061047D02*
X107269642Y-59061047D01*
X107027738Y-59061047D02*
X107148690Y-59121523D01*
X107209166Y-59182000D01*
X107269642Y-59302952D01*
X107269642Y-59423904D01*
X106422976Y-60028666D02*
X106483452Y-59907714D01*
X106543928Y-59847238D01*
X106664880Y-59786761D01*
X107027738Y-59786761D01*
X107148690Y-59847238D01*
X107209166Y-59907714D01*
X107269642Y-60028666D01*
X107269642Y-60210095D01*
X107209166Y-60331047D01*
X107148690Y-60391523D01*
X107027738Y-60452000D01*
X106664880Y-60452000D01*
X106543928Y-60391523D01*
X106483452Y-60331047D01*
X106422976Y-60210095D01*
X106422976Y-60028666D01*
X106422976Y-61177714D02*
X106483452Y-61056761D01*
X106604404Y-60996285D01*
X107692976Y-60996285D01*
X107088214Y-63052476D02*
X107027738Y-63233904D01*
X106967261Y-63294380D01*
X106846309Y-63354857D01*
X106664880Y-63354857D01*
X106543928Y-63294380D01*
X106483452Y-63233904D01*
X106422976Y-63112952D01*
X106422976Y-62629142D01*
X107692976Y-62629142D01*
X107692976Y-63052476D01*
X107632500Y-63173428D01*
X107572023Y-63233904D01*
X107451071Y-63294380D01*
X107330119Y-63294380D01*
X107209166Y-63233904D01*
X107148690Y-63173428D01*
X107088214Y-63052476D01*
X107088214Y-62629142D01*
X106422976Y-64080571D02*
X106483452Y-63959619D01*
X106543928Y-63899142D01*
X106664880Y-63838666D01*
X107027738Y-63838666D01*
X107148690Y-63899142D01*
X107209166Y-63959619D01*
X107269642Y-64080571D01*
X107269642Y-64262000D01*
X107209166Y-64382952D01*
X107148690Y-64443428D01*
X107027738Y-64503904D01*
X106664880Y-64503904D01*
X106543928Y-64443428D01*
X106483452Y-64382952D01*
X106422976Y-64262000D01*
X106422976Y-64080571D01*
X106422976Y-65592476D02*
X107088214Y-65592476D01*
X107209166Y-65532000D01*
X107269642Y-65411047D01*
X107269642Y-65169142D01*
X107209166Y-65048190D01*
X106483452Y-65592476D02*
X106422976Y-65471523D01*
X106422976Y-65169142D01*
X106483452Y-65048190D01*
X106604404Y-64987714D01*
X106725357Y-64987714D01*
X106846309Y-65048190D01*
X106906785Y-65169142D01*
X106906785Y-65471523D01*
X106967261Y-65592476D01*
X106422976Y-66197238D02*
X107269642Y-66197238D01*
X107027738Y-66197238D02*
X107148690Y-66257714D01*
X107209166Y-66318190D01*
X107269642Y-66439142D01*
X107269642Y-66560095D01*
X106422976Y-67527714D02*
X107692976Y-67527714D01*
X106483452Y-67527714D02*
X106422976Y-67406761D01*
X106422976Y-67164857D01*
X106483452Y-67043904D01*
X106543928Y-66983428D01*
X106664880Y-66922952D01*
X107027738Y-66922952D01*
X107148690Y-66983428D01*
X107209166Y-67043904D01*
X107269642Y-67164857D01*
X107269642Y-67406761D01*
X107209166Y-67527714D01*
X104263976Y-52620333D02*
X104868738Y-52197000D01*
X104263976Y-51894619D02*
X105533976Y-51894619D01*
X105533976Y-52378428D01*
X105473500Y-52499380D01*
X105413023Y-52559857D01*
X105292071Y-52620333D01*
X105110642Y-52620333D01*
X104989690Y-52559857D01*
X104929214Y-52499380D01*
X104868738Y-52378428D01*
X104868738Y-51894619D01*
X104324452Y-53648428D02*
X104263976Y-53527476D01*
X104263976Y-53285571D01*
X104324452Y-53164619D01*
X104445404Y-53104142D01*
X104929214Y-53104142D01*
X105050166Y-53164619D01*
X105110642Y-53285571D01*
X105110642Y-53527476D01*
X105050166Y-53648428D01*
X104929214Y-53708904D01*
X104808261Y-53708904D01*
X104687309Y-53104142D01*
X105110642Y-54132238D02*
X104263976Y-54434619D01*
X105110642Y-54737000D01*
X104384928Y-55220809D02*
X104324452Y-55281285D01*
X104263976Y-55220809D01*
X104324452Y-55160333D01*
X104384928Y-55220809D01*
X104263976Y-55220809D01*
X104263976Y-57458428D02*
X104263976Y-56732714D01*
X104263976Y-57095571D02*
X105533976Y-57095571D01*
X105352547Y-56974619D01*
X105231595Y-56853666D01*
X105171119Y-56732714D01*
X103840642Y-59272714D02*
X105654928Y-59272714D01*
X104263976Y-62780333D02*
X104263976Y-62054619D01*
X104263976Y-62417476D02*
X105533976Y-62417476D01*
X105352547Y-62296523D01*
X105231595Y-62175571D01*
X105171119Y-62054619D01*
X105533976Y-63566523D02*
X105533976Y-63687476D01*
X105473500Y-63808428D01*
X105413023Y-63868904D01*
X105292071Y-63929380D01*
X105050166Y-63989857D01*
X104747785Y-63989857D01*
X104505880Y-63929380D01*
X104384928Y-63868904D01*
X104324452Y-63808428D01*
X104263976Y-63687476D01*
X104263976Y-63566523D01*
X104324452Y-63445571D01*
X104384928Y-63385095D01*
X104505880Y-63324619D01*
X104747785Y-63264142D01*
X105050166Y-63264142D01*
X105292071Y-63324619D01*
X105413023Y-63385095D01*
X105473500Y-63445571D01*
X105533976Y-63566523D01*
X105594452Y-65441285D02*
X103961595Y-64352714D01*
X105413023Y-65804142D02*
X105473500Y-65864619D01*
X105533976Y-65985571D01*
X105533976Y-66287952D01*
X105473500Y-66408904D01*
X105413023Y-66469380D01*
X105292071Y-66529857D01*
X105171119Y-66529857D01*
X104989690Y-66469380D01*
X104263976Y-65743666D01*
X104263976Y-66529857D01*
X103374976Y-55069619D02*
X103374976Y-55311523D01*
X103314500Y-55432476D01*
X103193547Y-55553428D01*
X102951642Y-55613904D01*
X102528309Y-55613904D01*
X102286404Y-55553428D01*
X102165452Y-55432476D01*
X102104976Y-55311523D01*
X102104976Y-55069619D01*
X102165452Y-54948666D01*
X102286404Y-54827714D01*
X102528309Y-54767238D01*
X102951642Y-54767238D01*
X103193547Y-54827714D01*
X103314500Y-54948666D01*
X103374976Y-55069619D01*
X102770214Y-56158190D02*
X102770214Y-56581523D01*
X102104976Y-56762952D02*
X102104976Y-56158190D01*
X103374976Y-56158190D01*
X103374976Y-56762952D01*
X102104976Y-57307238D02*
X103374976Y-57307238D01*
X102467833Y-57730571D01*
X103374976Y-58153904D01*
X102104976Y-58153904D01*
X102588785Y-58758666D02*
X102588785Y-59726285D01*
X102104976Y-60331047D02*
X103374976Y-60331047D01*
X102467833Y-60754380D01*
X103374976Y-61177714D01*
X102104976Y-61177714D01*
X102104976Y-61782476D02*
X103374976Y-61782476D01*
X102104976Y-62508190D02*
X102830690Y-61963904D01*
X103374976Y-62508190D02*
X102649261Y-61782476D01*
X103374976Y-62871047D02*
X102104976Y-63294380D01*
X103374976Y-63717714D01*
X159161238Y-104563333D02*
X159645047Y-104563333D01*
X159064476Y-104853619D02*
X159403142Y-103837619D01*
X159741809Y-104853619D01*
X160080476Y-104853619D02*
X160080476Y-103837619D01*
X161144857Y-104853619D02*
X160806190Y-104369809D01*
X160564285Y-104853619D02*
X160564285Y-103837619D01*
X160951333Y-103837619D01*
X161048095Y-103886000D01*
X161096476Y-103934380D01*
X161144857Y-104031142D01*
X161144857Y-104176285D01*
X161096476Y-104273047D01*
X161048095Y-104321428D01*
X160951333Y-104369809D01*
X160564285Y-104369809D01*
X161580285Y-104466571D02*
X162354380Y-104466571D01*
X120988666Y-92371333D02*
X121472476Y-92371333D01*
X120891904Y-92661619D02*
X121230571Y-91645619D01*
X121569238Y-92661619D01*
X121907904Y-92661619D02*
X121907904Y-91645619D01*
X122972285Y-92661619D02*
X122633619Y-92177809D01*
X122391714Y-92661619D02*
X122391714Y-91645619D01*
X122778761Y-91645619D01*
X122875523Y-91694000D01*
X122923904Y-91742380D01*
X122972285Y-91839142D01*
X122972285Y-91984285D01*
X122923904Y-92081047D01*
X122875523Y-92129428D01*
X122778761Y-92177809D01*
X122391714Y-92177809D01*
X123407714Y-92274571D02*
X124181809Y-92274571D01*
X123794761Y-92661619D02*
X123794761Y-91887523D01*
X124568857Y-91645619D02*
X124810761Y-92661619D01*
X125004285Y-91935904D01*
X125197809Y-92661619D01*
X125439714Y-91645619D01*
X125826761Y-92661619D02*
X125826761Y-91645619D01*
X126068666Y-91645619D01*
X126213809Y-91694000D01*
X126310571Y-91790761D01*
X126358952Y-91887523D01*
X126407333Y-92081047D01*
X126407333Y-92226190D01*
X126358952Y-92419714D01*
X126310571Y-92516476D01*
X126213809Y-92613238D01*
X126068666Y-92661619D01*
X125826761Y-92661619D01*
X128608666Y-92117333D02*
X129092476Y-92117333D01*
X128511904Y-92407619D02*
X128850571Y-91391619D01*
X129189238Y-92407619D01*
X129527904Y-92407619D02*
X129527904Y-91391619D01*
X130592285Y-92407619D02*
X130253619Y-91923809D01*
X130011714Y-92407619D02*
X130011714Y-91391619D01*
X130398761Y-91391619D01*
X130495523Y-91440000D01*
X130543904Y-91488380D01*
X130592285Y-91585142D01*
X130592285Y-91730285D01*
X130543904Y-91827047D01*
X130495523Y-91875428D01*
X130398761Y-91923809D01*
X130011714Y-91923809D01*
X131027714Y-92020571D02*
X131801809Y-92020571D01*
X132188857Y-91391619D02*
X132430761Y-92407619D01*
X132624285Y-91681904D01*
X132817809Y-92407619D01*
X133059714Y-91391619D01*
X133446761Y-92407619D02*
X133446761Y-91391619D01*
X133688666Y-91391619D01*
X133833809Y-91440000D01*
X133930571Y-91536761D01*
X133978952Y-91633523D01*
X134027333Y-91827047D01*
X134027333Y-91972190D01*
X133978952Y-92165714D01*
X133930571Y-92262476D01*
X133833809Y-92359238D01*
X133688666Y-92407619D01*
X133446761Y-92407619D01*
X158786285Y-59085238D02*
X158931428Y-59133619D01*
X159173333Y-59133619D01*
X159270095Y-59085238D01*
X159318476Y-59036857D01*
X159366857Y-58940095D01*
X159366857Y-58843333D01*
X159318476Y-58746571D01*
X159270095Y-58698190D01*
X159173333Y-58649809D01*
X158979809Y-58601428D01*
X158883047Y-58553047D01*
X158834666Y-58504666D01*
X158786285Y-58407904D01*
X158786285Y-58311142D01*
X158834666Y-58214380D01*
X158883047Y-58166000D01*
X158979809Y-58117619D01*
X159221714Y-58117619D01*
X159366857Y-58166000D01*
X159753904Y-59085238D02*
X159899047Y-59133619D01*
X160140952Y-59133619D01*
X160237714Y-59085238D01*
X160286095Y-59036857D01*
X160334476Y-58940095D01*
X160334476Y-58843333D01*
X160286095Y-58746571D01*
X160237714Y-58698190D01*
X160140952Y-58649809D01*
X159947428Y-58601428D01*
X159850666Y-58553047D01*
X159802285Y-58504666D01*
X159753904Y-58407904D01*
X159753904Y-58311142D01*
X159802285Y-58214380D01*
X159850666Y-58166000D01*
X159947428Y-58117619D01*
X160189333Y-58117619D01*
X160334476Y-58166000D01*
X160769904Y-59133619D02*
X160769904Y-58117619D01*
X160769904Y-58601428D02*
X161350476Y-58601428D01*
X161350476Y-59133619D02*
X161350476Y-58117619D01*
X161689142Y-58117619D02*
X162027809Y-59133619D01*
X162366476Y-58117619D01*
X162705142Y-59133619D02*
X162705142Y-58117619D01*
X162947047Y-58117619D01*
X163092190Y-58166000D01*
X163188952Y-58262761D01*
X163237333Y-58359523D01*
X163285714Y-58553047D01*
X163285714Y-58698190D01*
X163237333Y-58891714D01*
X163188952Y-58988476D01*
X163092190Y-59085238D01*
X162947047Y-59133619D01*
X162705142Y-59133619D01*
X164301714Y-59036857D02*
X164253333Y-59085238D01*
X164108190Y-59133619D01*
X164011428Y-59133619D01*
X163866285Y-59085238D01*
X163769523Y-58988476D01*
X163721142Y-58891714D01*
X163672761Y-58698190D01*
X163672761Y-58553047D01*
X163721142Y-58359523D01*
X163769523Y-58262761D01*
X163866285Y-58166000D01*
X164011428Y-58117619D01*
X164108190Y-58117619D01*
X164253333Y-58166000D01*
X164301714Y-58214380D01*
X158689523Y-75341238D02*
X158834666Y-75389619D01*
X159076571Y-75389619D01*
X159173333Y-75341238D01*
X159221714Y-75292857D01*
X159270095Y-75196095D01*
X159270095Y-75099333D01*
X159221714Y-75002571D01*
X159173333Y-74954190D01*
X159076571Y-74905809D01*
X158883047Y-74857428D01*
X158786285Y-74809047D01*
X158737904Y-74760666D01*
X158689523Y-74663904D01*
X158689523Y-74567142D01*
X158737904Y-74470380D01*
X158786285Y-74422000D01*
X158883047Y-74373619D01*
X159124952Y-74373619D01*
X159270095Y-74422000D01*
X159657142Y-75341238D02*
X159802285Y-75389619D01*
X160044190Y-75389619D01*
X160140952Y-75341238D01*
X160189333Y-75292857D01*
X160237714Y-75196095D01*
X160237714Y-75099333D01*
X160189333Y-75002571D01*
X160140952Y-74954190D01*
X160044190Y-74905809D01*
X159850666Y-74857428D01*
X159753904Y-74809047D01*
X159705523Y-74760666D01*
X159657142Y-74663904D01*
X159657142Y-74567142D01*
X159705523Y-74470380D01*
X159753904Y-74422000D01*
X159850666Y-74373619D01*
X160092571Y-74373619D01*
X160237714Y-74422000D01*
X161011809Y-74857428D02*
X161156952Y-74905809D01*
X161205333Y-74954190D01*
X161253714Y-75050952D01*
X161253714Y-75196095D01*
X161205333Y-75292857D01*
X161156952Y-75341238D01*
X161060190Y-75389619D01*
X160673142Y-75389619D01*
X160673142Y-74373619D01*
X161011809Y-74373619D01*
X161108571Y-74422000D01*
X161156952Y-74470380D01*
X161205333Y-74567142D01*
X161205333Y-74663904D01*
X161156952Y-74760666D01*
X161108571Y-74809047D01*
X161011809Y-74857428D01*
X160673142Y-74857428D01*
X161689142Y-75389619D02*
X161689142Y-74373619D01*
X162027809Y-75099333D01*
X162366476Y-74373619D01*
X162366476Y-75389619D01*
X162801904Y-75341238D02*
X162947047Y-75389619D01*
X163188952Y-75389619D01*
X163285714Y-75341238D01*
X163334095Y-75292857D01*
X163382476Y-75196095D01*
X163382476Y-75099333D01*
X163334095Y-75002571D01*
X163285714Y-74954190D01*
X163188952Y-74905809D01*
X162995428Y-74857428D01*
X162898666Y-74809047D01*
X162850285Y-74760666D01*
X162801904Y-74663904D01*
X162801904Y-74567142D01*
X162850285Y-74470380D01*
X162898666Y-74422000D01*
X162995428Y-74373619D01*
X163237333Y-74373619D01*
X163382476Y-74422000D01*
X140873238Y-91863333D02*
X141357047Y-91863333D01*
X140776476Y-92153619D02*
X141115142Y-91137619D01*
X141453809Y-92153619D01*
X141792476Y-92153619D02*
X141792476Y-91137619D01*
X142856857Y-92153619D02*
X142518190Y-91669809D01*
X142276285Y-92153619D02*
X142276285Y-91137619D01*
X142663333Y-91137619D01*
X142760095Y-91186000D01*
X142808476Y-91234380D01*
X142856857Y-91331142D01*
X142856857Y-91476285D01*
X142808476Y-91573047D01*
X142760095Y-91621428D01*
X142663333Y-91669809D01*
X142276285Y-91669809D01*
X143292285Y-91766571D02*
X144066380Y-91766571D01*
X143679333Y-92153619D02*
X143679333Y-91379523D01*
X111227809Y-92153619D02*
X111227809Y-91137619D01*
X111614857Y-91137619D01*
X111711619Y-91186000D01*
X111760000Y-91234380D01*
X111808380Y-91331142D01*
X111808380Y-91476285D01*
X111760000Y-91573047D01*
X111711619Y-91621428D01*
X111614857Y-91669809D01*
X111227809Y-91669809D01*
X112243809Y-92153619D02*
X112243809Y-91476285D01*
X112243809Y-91669809D02*
X112292190Y-91573047D01*
X112340571Y-91524666D01*
X112437333Y-91476285D01*
X112534095Y-91476285D01*
X113259809Y-92105238D02*
X113163047Y-92153619D01*
X112969523Y-92153619D01*
X112872761Y-92105238D01*
X112824380Y-92008476D01*
X112824380Y-91621428D01*
X112872761Y-91524666D01*
X112969523Y-91476285D01*
X113163047Y-91476285D01*
X113259809Y-91524666D01*
X113308190Y-91621428D01*
X113308190Y-91718190D01*
X112824380Y-91814952D01*
X114179047Y-92105238D02*
X114082285Y-92153619D01*
X113888761Y-92153619D01*
X113792000Y-92105238D01*
X113743619Y-92056857D01*
X113695238Y-91960095D01*
X113695238Y-91669809D01*
X113743619Y-91573047D01*
X113792000Y-91524666D01*
X113888761Y-91476285D01*
X114082285Y-91476285D01*
X114179047Y-91524666D01*
X114614476Y-92153619D02*
X114614476Y-91137619D01*
X115049904Y-92153619D02*
X115049904Y-91621428D01*
X115001523Y-91524666D01*
X114904761Y-91476285D01*
X114759619Y-91476285D01*
X114662857Y-91524666D01*
X114614476Y-91573047D01*
X115969142Y-92153619D02*
X115969142Y-91621428D01*
X115920761Y-91524666D01*
X115824000Y-91476285D01*
X115630476Y-91476285D01*
X115533714Y-91524666D01*
X115969142Y-92105238D02*
X115872380Y-92153619D01*
X115630476Y-92153619D01*
X115533714Y-92105238D01*
X115485333Y-92008476D01*
X115485333Y-91911714D01*
X115533714Y-91814952D01*
X115630476Y-91766571D01*
X115872380Y-91766571D01*
X115969142Y-91718190D01*
X116452952Y-92153619D02*
X116452952Y-91476285D01*
X116452952Y-91669809D02*
X116501333Y-91573047D01*
X116549714Y-91524666D01*
X116646476Y-91476285D01*
X116743238Y-91476285D01*
X117517333Y-91476285D02*
X117517333Y-92298761D01*
X117468952Y-92395523D01*
X117420571Y-92443904D01*
X117323809Y-92492285D01*
X117178666Y-92492285D01*
X117081904Y-92443904D01*
X117517333Y-92105238D02*
X117420571Y-92153619D01*
X117227047Y-92153619D01*
X117130285Y-92105238D01*
X117081904Y-92056857D01*
X117033523Y-91960095D01*
X117033523Y-91669809D01*
X117081904Y-91573047D01*
X117130285Y-91524666D01*
X117227047Y-91476285D01*
X117420571Y-91476285D01*
X117517333Y-91524666D01*
X118388190Y-92105238D02*
X118291428Y-92153619D01*
X118097904Y-92153619D01*
X118001142Y-92105238D01*
X117952761Y-92008476D01*
X117952761Y-91621428D01*
X118001142Y-91524666D01*
X118097904Y-91476285D01*
X118291428Y-91476285D01*
X118388190Y-91524666D01*
X118436571Y-91621428D01*
X118436571Y-91718190D01*
X117952761Y-91814952D01*
X159185428Y-82199238D02*
X159330571Y-82247619D01*
X159572476Y-82247619D01*
X159669238Y-82199238D01*
X159717619Y-82150857D01*
X159766000Y-82054095D01*
X159766000Y-81957333D01*
X159717619Y-81860571D01*
X159669238Y-81812190D01*
X159572476Y-81763809D01*
X159378952Y-81715428D01*
X159282190Y-81667047D01*
X159233809Y-81618666D01*
X159185428Y-81521904D01*
X159185428Y-81425142D01*
X159233809Y-81328380D01*
X159282190Y-81280000D01*
X159378952Y-81231619D01*
X159620857Y-81231619D01*
X159766000Y-81280000D01*
X160153047Y-82199238D02*
X160298190Y-82247619D01*
X160540095Y-82247619D01*
X160636857Y-82199238D01*
X160685238Y-82150857D01*
X160733619Y-82054095D01*
X160733619Y-81957333D01*
X160685238Y-81860571D01*
X160636857Y-81812190D01*
X160540095Y-81763809D01*
X160346571Y-81715428D01*
X160249809Y-81667047D01*
X160201428Y-81618666D01*
X160153047Y-81521904D01*
X160153047Y-81425142D01*
X160201428Y-81328380D01*
X160249809Y-81280000D01*
X160346571Y-81231619D01*
X160588476Y-81231619D01*
X160733619Y-81280000D01*
X161169047Y-82247619D02*
X161169047Y-81231619D01*
X161652857Y-82247619D02*
X161652857Y-81231619D01*
X161991523Y-81957333D01*
X162330190Y-81231619D01*
X162330190Y-82247619D01*
X162814000Y-82247619D02*
X162814000Y-81231619D01*
X163055904Y-81231619D01*
X163201047Y-81280000D01*
X163297809Y-81376761D01*
X163346190Y-81473523D01*
X163394571Y-81667047D01*
X163394571Y-81812190D01*
X163346190Y-82005714D01*
X163297809Y-82102476D01*
X163201047Y-82199238D01*
X163055904Y-82247619D01*
X162814000Y-82247619D01*
X158834666Y-89311238D02*
X158979809Y-89359619D01*
X159221714Y-89359619D01*
X159318476Y-89311238D01*
X159366857Y-89262857D01*
X159415238Y-89166095D01*
X159415238Y-89069333D01*
X159366857Y-88972571D01*
X159318476Y-88924190D01*
X159221714Y-88875809D01*
X159028190Y-88827428D01*
X158931428Y-88779047D01*
X158883047Y-88730666D01*
X158834666Y-88633904D01*
X158834666Y-88537142D01*
X158883047Y-88440380D01*
X158931428Y-88392000D01*
X159028190Y-88343619D01*
X159270095Y-88343619D01*
X159415238Y-88392000D01*
X159802285Y-89311238D02*
X159947428Y-89359619D01*
X160189333Y-89359619D01*
X160286095Y-89311238D01*
X160334476Y-89262857D01*
X160382857Y-89166095D01*
X160382857Y-89069333D01*
X160334476Y-88972571D01*
X160286095Y-88924190D01*
X160189333Y-88875809D01*
X159995809Y-88827428D01*
X159899047Y-88779047D01*
X159850666Y-88730666D01*
X159802285Y-88633904D01*
X159802285Y-88537142D01*
X159850666Y-88440380D01*
X159899047Y-88392000D01*
X159995809Y-88343619D01*
X160237714Y-88343619D01*
X160382857Y-88392000D01*
X160673142Y-88343619D02*
X161253714Y-88343619D01*
X160963428Y-89359619D02*
X160963428Y-88343619D01*
X161544000Y-89311238D02*
X161689142Y-89359619D01*
X161931047Y-89359619D01*
X162027809Y-89311238D01*
X162076190Y-89262857D01*
X162124571Y-89166095D01*
X162124571Y-89069333D01*
X162076190Y-88972571D01*
X162027809Y-88924190D01*
X161931047Y-88875809D01*
X161737523Y-88827428D01*
X161640761Y-88779047D01*
X161592380Y-88730666D01*
X161544000Y-88633904D01*
X161544000Y-88537142D01*
X161592380Y-88440380D01*
X161640761Y-88392000D01*
X161737523Y-88343619D01*
X161979428Y-88343619D01*
X162124571Y-88392000D01*
X162560000Y-89359619D02*
X162560000Y-88343619D01*
X162898666Y-89069333D01*
X163237333Y-88343619D01*
X163237333Y-89359619D01*
X163672761Y-89311238D02*
X163817904Y-89359619D01*
X164059809Y-89359619D01*
X164156571Y-89311238D01*
X164204952Y-89262857D01*
X164253333Y-89166095D01*
X164253333Y-89069333D01*
X164204952Y-88972571D01*
X164156571Y-88924190D01*
X164059809Y-88875809D01*
X163866285Y-88827428D01*
X163769523Y-88779047D01*
X163721142Y-88730666D01*
X163672761Y-88633904D01*
X163672761Y-88537142D01*
X163721142Y-88440380D01*
X163769523Y-88392000D01*
X163866285Y-88343619D01*
X164108190Y-88343619D01*
X164253333Y-88392000D01*
X158278285Y-52735238D02*
X158423428Y-52783619D01*
X158665333Y-52783619D01*
X158762095Y-52735238D01*
X158810476Y-52686857D01*
X158858857Y-52590095D01*
X158858857Y-52493333D01*
X158810476Y-52396571D01*
X158762095Y-52348190D01*
X158665333Y-52299809D01*
X158471809Y-52251428D01*
X158375047Y-52203047D01*
X158326666Y-52154666D01*
X158278285Y-52057904D01*
X158278285Y-51961142D01*
X158326666Y-51864380D01*
X158375047Y-51816000D01*
X158471809Y-51767619D01*
X158713714Y-51767619D01*
X158858857Y-51816000D01*
X159245904Y-52735238D02*
X159391047Y-52783619D01*
X159632952Y-52783619D01*
X159729714Y-52735238D01*
X159778095Y-52686857D01*
X159826476Y-52590095D01*
X159826476Y-52493333D01*
X159778095Y-52396571D01*
X159729714Y-52348190D01*
X159632952Y-52299809D01*
X159439428Y-52251428D01*
X159342666Y-52203047D01*
X159294285Y-52154666D01*
X159245904Y-52057904D01*
X159245904Y-51961142D01*
X159294285Y-51864380D01*
X159342666Y-51816000D01*
X159439428Y-51767619D01*
X159681333Y-51767619D01*
X159826476Y-51816000D01*
X160261904Y-52783619D02*
X160261904Y-51767619D01*
X160261904Y-52251428D02*
X160842476Y-52251428D01*
X160842476Y-52783619D02*
X160842476Y-51767619D01*
X161181142Y-51767619D02*
X161519809Y-52783619D01*
X161858476Y-51767619D01*
X162197142Y-52783619D02*
X162197142Y-51767619D01*
X162439047Y-51767619D01*
X162584190Y-51816000D01*
X162680952Y-51912761D01*
X162729333Y-52009523D01*
X162777714Y-52203047D01*
X162777714Y-52348190D01*
X162729333Y-52541714D01*
X162680952Y-52638476D01*
X162584190Y-52735238D01*
X162439047Y-52783619D01*
X162197142Y-52783619D01*
X159681333Y-67467238D02*
X159826476Y-67515619D01*
X160068380Y-67515619D01*
X160165142Y-67467238D01*
X160213523Y-67418857D01*
X160261904Y-67322095D01*
X160261904Y-67225333D01*
X160213523Y-67128571D01*
X160165142Y-67080190D01*
X160068380Y-67031809D01*
X159874857Y-66983428D01*
X159778095Y-66935047D01*
X159729714Y-66886666D01*
X159681333Y-66789904D01*
X159681333Y-66693142D01*
X159729714Y-66596380D01*
X159778095Y-66548000D01*
X159874857Y-66499619D01*
X160116761Y-66499619D01*
X160261904Y-66548000D01*
X160648952Y-67467238D02*
X160794095Y-67515619D01*
X161036000Y-67515619D01*
X161132761Y-67467238D01*
X161181142Y-67418857D01*
X161229523Y-67322095D01*
X161229523Y-67225333D01*
X161181142Y-67128571D01*
X161132761Y-67080190D01*
X161036000Y-67031809D01*
X160842476Y-66983428D01*
X160745714Y-66935047D01*
X160697333Y-66886666D01*
X160648952Y-66789904D01*
X160648952Y-66693142D01*
X160697333Y-66596380D01*
X160745714Y-66548000D01*
X160842476Y-66499619D01*
X161084380Y-66499619D01*
X161229523Y-66548000D01*
X161664952Y-67515619D02*
X161664952Y-66499619D01*
X162003619Y-67225333D01*
X162342285Y-66499619D01*
X162342285Y-67515619D01*
X162826095Y-67515619D02*
X162826095Y-66499619D01*
X163213142Y-66499619D01*
X163309904Y-66548000D01*
X163358285Y-66596380D01*
X163406666Y-66693142D01*
X163406666Y-66838285D01*
X163358285Y-66935047D01*
X163309904Y-66983428D01*
X163213142Y-67031809D01*
X162826095Y-67031809D01*
D11*
X147466000Y-50690000D02*
X117456000Y-50690000D01*
X147466000Y-55990000D02*
X117456000Y-55990000D01*
X117456000Y-55990000D02*
X117456000Y-50690000D01*
X147466000Y-55990000D02*
X147466000Y-50690000D01*
D12*
X115945000Y-106808000D02*
X115945000Y-107118000D01*
X115945000Y-107118000D02*
X137815000Y-107118000D01*
X137815000Y-107118000D02*
X137815000Y-106808000D01*
X115945000Y-105288000D02*
X115945000Y-99528000D01*
X115945000Y-99528000D02*
X117365000Y-99528000D01*
X117365000Y-99528000D02*
X117365000Y-100028000D01*
X117365000Y-100028000D02*
X136395000Y-100028000D01*
X136395000Y-100028000D02*
X136395000Y-99528000D01*
X136395000Y-99528000D02*
X137815000Y-99528000D01*
X137815000Y-99528000D02*
X137815000Y-105288000D01*
D11*
X137668000Y-62230000D02*
X137668000Y-64770000D01*
X137668000Y-64770000D02*
X140208000Y-64770000D01*
X143028000Y-65050000D02*
X143028000Y-63500000D01*
X137668000Y-57150000D02*
X137668000Y-62230000D01*
X142748000Y-57150000D02*
X137668000Y-57150000D01*
X140208000Y-62230000D02*
X142748000Y-62230000D01*
X140208000Y-64770000D02*
X140208000Y-62230000D01*
X143028000Y-65050000D02*
X141478000Y-65050000D01*
X142748000Y-62230000D02*
X142748000Y-57150000D01*
D12*
X152906000Y-54666000D02*
X152906000Y-53736000D01*
X152906000Y-51506000D02*
X152906000Y-52436000D01*
X152906000Y-51506000D02*
X150746000Y-51506000D01*
X152906000Y-54666000D02*
X151446000Y-54666000D01*
X155864000Y-74304000D02*
X157064000Y-74304000D01*
X157064000Y-76064000D02*
X155864000Y-76064000D01*
X153254000Y-79874000D02*
X152054000Y-79874000D01*
X152054000Y-78114000D02*
X153254000Y-78114000D01*
X153414000Y-77526000D02*
X151954000Y-77526000D01*
X153414000Y-74366000D02*
X151254000Y-74366000D01*
X153414000Y-74366000D02*
X153414000Y-75296000D01*
X153414000Y-77526000D02*
X153414000Y-76596000D01*
X157064000Y-79366000D02*
X155864000Y-79366000D01*
X155864000Y-77606000D02*
X157064000Y-77606000D01*
D13*
X160982000Y-76612000D02*
X160982000Y-76962000D01*
X160982000Y-76962000D02*
X160982000Y-77312000D01*
X160632000Y-76612000D02*
X160982000Y-76962000D01*
X160632000Y-76662000D02*
X160632000Y-76612000D01*
X160632000Y-76612000D02*
X160632000Y-76662000D01*
X160632000Y-77312000D02*
X160632000Y-76662000D01*
X160682000Y-77262000D02*
X160632000Y-77312000D01*
X160982000Y-76962000D02*
X160682000Y-77262000D01*
D12*
X162582000Y-77662000D02*
X162582000Y-76262000D01*
X162582000Y-76262000D02*
X159782000Y-76262000D01*
X162582000Y-77662000D02*
X159782000Y-77662000D01*
X114970000Y-95894000D02*
X116170000Y-95894000D01*
X116170000Y-97654000D02*
X114970000Y-97654000D01*
D14*
X158800800Y-102069900D02*
G75*
G03X158800800Y-102069900I-5130800J0D01*
G01*
X153035000Y-107962700D02*
X154305000Y-107962700D01*
X153670000Y-108597700D02*
X153670000Y-107327700D01*
X143764000Y-111899700D02*
X143764000Y-110629700D01*
X143129000Y-111264700D02*
X144399000Y-111264700D01*
X148894800Y-105371900D02*
G75*
G03X148894800Y-105371900I-5130800J0D01*
G01*
D12*
X110180000Y-96518000D02*
X111110000Y-96518000D01*
X113340000Y-96518000D02*
X112410000Y-96518000D01*
X113340000Y-96518000D02*
X113340000Y-94358000D01*
X110180000Y-96518000D02*
X110180000Y-95058000D01*
X126738000Y-76620000D02*
X125738000Y-76620000D01*
X125738000Y-78320000D02*
X126738000Y-78320000D01*
D11*
X134155000Y-66279000D02*
X135555000Y-66279000D01*
X134155000Y-61179000D02*
X130005000Y-61179000D01*
X134155000Y-66329000D02*
X130005000Y-66329000D01*
X134155000Y-61179000D02*
X134155000Y-61324000D01*
X130005000Y-61179000D02*
X130005000Y-61324000D01*
X130005000Y-66329000D02*
X130005000Y-66184000D01*
X134155000Y-66329000D02*
X134155000Y-66279000D01*
D12*
X124298000Y-98416000D02*
X123098000Y-98416000D01*
X123098000Y-96656000D02*
X124298000Y-96656000D01*
X116170000Y-95368000D02*
X114970000Y-95368000D01*
X114970000Y-93608000D02*
X116170000Y-93608000D01*
X130648000Y-98924000D02*
X129448000Y-98924000D01*
X129448000Y-97164000D02*
X130648000Y-97164000D01*
X138566000Y-69180000D02*
X138566000Y-67980000D01*
X140326000Y-67980000D02*
X140326000Y-69180000D01*
X129448000Y-58556000D02*
X130648000Y-58556000D01*
X130648000Y-60316000D02*
X129448000Y-60316000D01*
X153414000Y-69906000D02*
X151954000Y-69906000D01*
X153414000Y-66746000D02*
X151254000Y-66746000D01*
X153414000Y-66746000D02*
X153414000Y-67676000D01*
X153414000Y-69906000D02*
X153414000Y-68976000D01*
X124118000Y-79764000D02*
X124118000Y-80764000D01*
X125818000Y-80764000D02*
X125818000Y-79764000D01*
X151546000Y-55254000D02*
X152746000Y-55254000D01*
X152746000Y-57014000D02*
X151546000Y-57014000D01*
X129448000Y-93862000D02*
X130648000Y-93862000D01*
X130648000Y-95622000D02*
X129448000Y-95622000D01*
X155610000Y-55000000D02*
X156810000Y-55000000D01*
X156810000Y-56760000D02*
X155610000Y-56760000D01*
D13*
X119730000Y-89608000D02*
X119380000Y-89608000D01*
X119380000Y-89608000D02*
X119030000Y-89608000D01*
X119730000Y-89258000D02*
X119380000Y-89608000D01*
X119680000Y-89258000D02*
X119730000Y-89258000D01*
X119730000Y-89258000D02*
X119680000Y-89258000D01*
X119030000Y-89258000D02*
X119680000Y-89258000D01*
X119080000Y-89308000D02*
X119030000Y-89258000D01*
X119380000Y-89608000D02*
X119080000Y-89308000D01*
D12*
X118680000Y-91208000D02*
X120080000Y-91208000D01*
X120080000Y-91208000D02*
X120080000Y-88408000D01*
X118680000Y-91208000D02*
X118680000Y-88408000D01*
X124776000Y-91208000D02*
X124776000Y-88408000D01*
X126176000Y-91208000D02*
X126176000Y-88408000D01*
X124776000Y-91208000D02*
X126176000Y-91208000D01*
D13*
X125476000Y-89608000D02*
X125176000Y-89308000D01*
X125176000Y-89308000D02*
X125126000Y-89258000D01*
X125126000Y-89258000D02*
X125776000Y-89258000D01*
X125826000Y-89258000D02*
X125776000Y-89258000D01*
X125776000Y-89258000D02*
X125826000Y-89258000D01*
X125826000Y-89258000D02*
X125476000Y-89608000D01*
X125476000Y-89608000D02*
X125126000Y-89608000D01*
X125826000Y-89608000D02*
X125476000Y-89608000D01*
D11*
X135730901Y-71486575D02*
X134723274Y-70478948D01*
X141016524Y-76454000D02*
X140786714Y-76224190D01*
X135890000Y-81580524D02*
X135660190Y-81350714D01*
X130763476Y-76454000D02*
X130993286Y-76683810D01*
X135890000Y-71327476D02*
X136119810Y-71557286D01*
X130763476Y-76454000D02*
X130993286Y-76224190D01*
X135890000Y-81580524D02*
X136119810Y-81350714D01*
X141016524Y-76454000D02*
X140786714Y-76683810D01*
X135890000Y-71327476D02*
X135730901Y-71486575D01*
D15*
X136066524Y-70365386D02*
G75*
G03X136066524Y-70365386I-50800J0D01*
G01*
X135922840Y-72700253D02*
G75*
G03X135922840Y-72700253I-50801J0D01*
G01*
D12*
X118500000Y-86198000D02*
X118500000Y-84998000D01*
X120260000Y-84998000D02*
X120260000Y-86198000D01*
D13*
X126270000Y-78664000D02*
X126270000Y-80264000D01*
X126270000Y-78664000D02*
X128270000Y-78664000D01*
D12*
X130394000Y-70984000D02*
X129194000Y-70984000D01*
X129194000Y-69224000D02*
X130394000Y-69224000D01*
X134374000Y-60286000D02*
X135374000Y-60286000D01*
X135374000Y-58586000D02*
X134374000Y-58586000D01*
X153254000Y-95114000D02*
X152054000Y-95114000D01*
X152054000Y-93354000D02*
X153254000Y-93354000D01*
D13*
X145488000Y-95916000D02*
X145488000Y-96266000D01*
X145488000Y-96266000D02*
X145488000Y-96616000D01*
X145138000Y-95916000D02*
X145488000Y-96266000D01*
X145138000Y-95966000D02*
X145138000Y-95916000D01*
X145138000Y-95916000D02*
X145138000Y-95966000D01*
X145138000Y-96616000D02*
X145138000Y-95966000D01*
X145188000Y-96566000D02*
X145138000Y-96616000D01*
X145488000Y-96266000D02*
X145188000Y-96566000D01*
D12*
X147088000Y-96966000D02*
X147088000Y-95566000D01*
X147088000Y-95566000D02*
X144288000Y-95566000D01*
X147088000Y-96966000D02*
X144288000Y-96966000D01*
X126356000Y-84998000D02*
X126356000Y-86198000D01*
X124596000Y-86198000D02*
X124596000Y-84998000D01*
X124298000Y-95114000D02*
X123098000Y-95114000D01*
X123098000Y-93354000D02*
X124298000Y-93354000D01*
X157064000Y-94098000D02*
X155864000Y-94098000D01*
X155864000Y-92338000D02*
X157064000Y-92338000D01*
X153414000Y-92512000D02*
X151954000Y-92512000D01*
X153414000Y-89352000D02*
X151254000Y-89352000D01*
X153414000Y-89352000D02*
X153414000Y-90282000D01*
X153414000Y-92512000D02*
X153414000Y-91582000D01*
X157572000Y-68444000D02*
X156372000Y-68444000D01*
X156372000Y-66684000D02*
X157572000Y-66684000D01*
X140624000Y-97164000D02*
X141824000Y-97164000D01*
X141824000Y-98924000D02*
X140624000Y-98924000D01*
X152054000Y-85226000D02*
X153254000Y-85226000D01*
X153254000Y-86986000D02*
X152054000Y-86986000D01*
X157572000Y-83430000D02*
X156372000Y-83430000D01*
X156372000Y-81670000D02*
X157572000Y-81670000D01*
X121728000Y-91208000D02*
X121728000Y-88408000D01*
X123128000Y-91208000D02*
X123128000Y-88408000D01*
X121728000Y-91208000D02*
X123128000Y-91208000D01*
D13*
X122428000Y-89608000D02*
X122128000Y-89308000D01*
X122128000Y-89308000D02*
X122078000Y-89258000D01*
X122078000Y-89258000D02*
X122728000Y-89258000D01*
X122778000Y-89258000D02*
X122728000Y-89258000D01*
X122728000Y-89258000D02*
X122778000Y-89258000D01*
X122778000Y-89258000D02*
X122428000Y-89608000D01*
X122428000Y-89608000D02*
X122078000Y-89608000D01*
X122778000Y-89608000D02*
X122428000Y-89608000D01*
D12*
X121688000Y-96458000D02*
X118888000Y-96458000D01*
X121688000Y-95058000D02*
X118888000Y-95058000D01*
X121688000Y-96458000D02*
X121688000Y-95058000D01*
D13*
X120088000Y-95758000D02*
X119788000Y-96058000D01*
X119788000Y-96058000D02*
X119738000Y-96108000D01*
X119738000Y-96108000D02*
X119738000Y-95458000D01*
X119738000Y-95408000D02*
X119738000Y-95458000D01*
X119738000Y-95458000D02*
X119738000Y-95408000D01*
X119738000Y-95408000D02*
X120088000Y-95758000D01*
X120088000Y-95758000D02*
X120088000Y-96108000D01*
X120088000Y-95408000D02*
X120088000Y-95758000D01*
D12*
X142406000Y-84082000D02*
X142406000Y-85082000D01*
X144106000Y-85082000D02*
X144106000Y-84082000D01*
D13*
X126842000Y-96212000D02*
X126492000Y-96212000D01*
X126492000Y-96212000D02*
X126142000Y-96212000D01*
X126842000Y-95862000D02*
X126492000Y-96212000D01*
X126792000Y-95862000D02*
X126842000Y-95862000D01*
X126842000Y-95862000D02*
X126792000Y-95862000D01*
X126142000Y-95862000D02*
X126792000Y-95862000D01*
X126192000Y-95912000D02*
X126142000Y-95862000D01*
X126492000Y-96212000D02*
X126192000Y-95912000D01*
D12*
X125792000Y-97812000D02*
X127192000Y-97812000D01*
X127192000Y-97812000D02*
X127192000Y-95012000D01*
X125792000Y-97812000D02*
X125792000Y-95012000D01*
X123308000Y-84998000D02*
X123308000Y-86198000D01*
X121548000Y-86198000D02*
X121548000Y-84998000D01*
X135072000Y-97026000D02*
X136002000Y-97026000D01*
X138232000Y-97026000D02*
X137302000Y-97026000D01*
X138232000Y-97026000D02*
X138232000Y-94866000D01*
X135072000Y-97026000D02*
X135072000Y-95566000D01*
X153254000Y-72254000D02*
X152054000Y-72254000D01*
X152054000Y-70494000D02*
X153254000Y-70494000D01*
X131734000Y-67192000D02*
X132934000Y-67192000D01*
X132934000Y-68952000D02*
X131734000Y-68952000D01*
X157572000Y-86986000D02*
X156372000Y-86986000D01*
X156372000Y-85226000D02*
X157572000Y-85226000D01*
X155864000Y-89036000D02*
X157064000Y-89036000D01*
X157064000Y-90796000D02*
X155864000Y-90796000D01*
X159574000Y-103146000D02*
X159574000Y-100346000D01*
X160974000Y-103146000D02*
X160974000Y-100346000D01*
X159574000Y-103146000D02*
X160974000Y-103146000D01*
D13*
X160274000Y-101546000D02*
X159974000Y-101246000D01*
X159974000Y-101246000D02*
X159924000Y-101196000D01*
X159924000Y-101196000D02*
X160574000Y-101196000D01*
X160624000Y-101196000D02*
X160574000Y-101196000D01*
X160574000Y-101196000D02*
X160624000Y-101196000D01*
X160624000Y-101196000D02*
X160274000Y-101546000D01*
X160274000Y-101546000D02*
X159924000Y-101546000D01*
X160624000Y-101546000D02*
X160274000Y-101546000D01*
D12*
X160646000Y-96936000D02*
X160646000Y-98136000D01*
X158886000Y-98136000D02*
X158886000Y-96936000D01*
X156372000Y-69986000D02*
X157572000Y-69986000D01*
X157572000Y-71746000D02*
X156372000Y-71746000D01*
X139608000Y-84718000D02*
X140808000Y-84718000D01*
X140808000Y-86478000D02*
X139608000Y-86478000D01*
X140708000Y-82462000D02*
X139708000Y-82462000D01*
X139708000Y-84162000D02*
X140708000Y-84162000D01*
X132396000Y-98320000D02*
X132396000Y-95520000D01*
X133796000Y-98320000D02*
X133796000Y-95520000D01*
X132396000Y-98320000D02*
X133796000Y-98320000D01*
D13*
X133096000Y-96720000D02*
X132796000Y-96420000D01*
X132796000Y-96420000D02*
X132746000Y-96370000D01*
X132746000Y-96370000D02*
X133396000Y-96370000D01*
X133446000Y-96370000D02*
X133396000Y-96370000D01*
X133396000Y-96370000D02*
X133446000Y-96370000D01*
X133446000Y-96370000D02*
X133096000Y-96720000D01*
X133096000Y-96720000D02*
X132746000Y-96720000D01*
X133446000Y-96720000D02*
X133096000Y-96720000D01*
D12*
X153414000Y-84638000D02*
X151954000Y-84638000D01*
X153414000Y-81478000D02*
X151254000Y-81478000D01*
X153414000Y-81478000D02*
X153414000Y-82408000D01*
X153414000Y-84638000D02*
X153414000Y-83708000D01*
X155610000Y-51698000D02*
X156810000Y-51698000D01*
X156810000Y-53458000D02*
X155610000Y-53458000D01*
X141824000Y-95622000D02*
X140624000Y-95622000D01*
X140624000Y-93862000D02*
X141824000Y-93862000D01*
D11*
X107863000Y-76973300D02*
X112863000Y-76973300D01*
X107863000Y-85473300D02*
X107863000Y-76973300D01*
X112863000Y-85473300D02*
X107863000Y-85473300D01*
X112863000Y-76973300D02*
X112863000Y-85473300D01*
D12*
X117483000Y-76465800D02*
X118483000Y-76465800D01*
X118483000Y-74765800D02*
X117483000Y-74765800D01*
X112756500Y-68614800D02*
X112756500Y-66614800D01*
X115716500Y-66614800D02*
X115716500Y-68614800D01*
X122292000Y-74388420D02*
X122292000Y-75588420D01*
X120532000Y-75588420D02*
X120532000Y-74388420D01*
X120532000Y-71702220D02*
X120532000Y-70502220D01*
X122292000Y-70502220D02*
X122292000Y-71702220D01*
X106014000Y-70464000D02*
X107214000Y-70464000D01*
X107214000Y-72224000D02*
X106014000Y-72224000D01*
X108537920Y-75372200D02*
X108537920Y-70172200D01*
X112177920Y-70172200D02*
X112177920Y-75372200D01*
X117733000Y-80592300D02*
X117733000Y-78592300D01*
X115693000Y-78592300D02*
X115693000Y-80592300D01*
X115213500Y-80116300D02*
X115213500Y-79116300D01*
X113513500Y-79116300D02*
X113513500Y-80116300D01*
D16*
X116868500Y-63598300D02*
X115768500Y-62698300D01*
X116868500Y-61898300D02*
X116868500Y-63598300D01*
X115768500Y-62698300D02*
X116868500Y-61898300D01*
X115768500Y-61898300D02*
X115768500Y-63598300D01*
D12*
X113093500Y-61264800D02*
X113093500Y-63931800D01*
X113093500Y-63931800D02*
X116268500Y-63931800D01*
X113093500Y-61264800D02*
X116268500Y-61264800D01*
D13*
X102614000Y-71694000D02*
X102614000Y-71344000D01*
X102614000Y-71344000D02*
X102614000Y-70994000D01*
X102964000Y-71694000D02*
X102614000Y-71344000D01*
X102964000Y-71644000D02*
X102964000Y-71694000D01*
X102964000Y-71694000D02*
X102964000Y-71644000D01*
X102964000Y-70994000D02*
X102964000Y-71644000D01*
X102914000Y-71044000D02*
X102964000Y-70994000D01*
X102614000Y-71344000D02*
X102914000Y-71044000D01*
D12*
X101014000Y-70644000D02*
X101014000Y-72044000D01*
X101014000Y-72044000D02*
X103814000Y-72044000D01*
X101014000Y-70644000D02*
X103814000Y-70644000D01*
D13*
X120564000Y-57194000D02*
X120564000Y-57544000D01*
X120564000Y-57544000D02*
X120564000Y-57894000D01*
X120214000Y-57194000D02*
X120564000Y-57544000D01*
X120214000Y-57244000D02*
X120214000Y-57194000D01*
X120214000Y-57194000D02*
X120214000Y-57244000D01*
X120214000Y-57894000D02*
X120214000Y-57244000D01*
X120264000Y-57844000D02*
X120214000Y-57894000D01*
X120564000Y-57544000D02*
X120264000Y-57844000D01*
D12*
X122164000Y-58244000D02*
X122164000Y-56844000D01*
X122164000Y-56844000D02*
X119364000Y-56844000D01*
X122164000Y-58244000D02*
X119364000Y-58244000D01*
X117164000Y-58424000D02*
X115964000Y-58424000D01*
X115964000Y-56664000D02*
X117164000Y-56664000D01*
X117594000Y-68246360D02*
X118594000Y-68246360D01*
X118594000Y-66546360D02*
X117594000Y-66546360D01*
X117740721Y-68692300D02*
X118066279Y-68692300D01*
X117740721Y-69712300D02*
X118066279Y-69712300D01*
X118898200Y-70711600D02*
X117098200Y-70711600D01*
X117098200Y-73931600D02*
X120048200Y-73931600D01*
D13*
X160728000Y-54006000D02*
X160728000Y-54356000D01*
X160728000Y-54356000D02*
X160728000Y-54706000D01*
X160378000Y-54006000D02*
X160728000Y-54356000D01*
X160378000Y-54056000D02*
X160378000Y-54006000D01*
X160378000Y-54006000D02*
X160378000Y-54056000D01*
X160378000Y-54706000D02*
X160378000Y-54056000D01*
X160428000Y-54656000D02*
X160378000Y-54706000D01*
X160728000Y-54356000D02*
X160428000Y-54656000D01*
D12*
X162328000Y-55056000D02*
X162328000Y-53656000D01*
X162328000Y-53656000D02*
X159528000Y-53656000D01*
X162328000Y-55056000D02*
X159528000Y-55056000D01*
D13*
X161490000Y-68992000D02*
X161490000Y-69342000D01*
X161490000Y-69342000D02*
X161490000Y-69692000D01*
X161140000Y-68992000D02*
X161490000Y-69342000D01*
X161140000Y-69042000D02*
X161140000Y-68992000D01*
X161140000Y-68992000D02*
X161140000Y-69042000D01*
X161140000Y-69692000D02*
X161140000Y-69042000D01*
X161190000Y-69642000D02*
X161140000Y-69692000D01*
X161490000Y-69342000D02*
X161190000Y-69642000D01*
D12*
X163090000Y-70042000D02*
X163090000Y-68642000D01*
X163090000Y-68642000D02*
X160290000Y-68642000D01*
X163090000Y-70042000D02*
X160290000Y-70042000D01*
X162836000Y-85028000D02*
X160036000Y-85028000D01*
X162836000Y-83628000D02*
X160036000Y-83628000D01*
X162836000Y-85028000D02*
X162836000Y-83628000D01*
D13*
X161236000Y-84328000D02*
X160936000Y-84628000D01*
X160936000Y-84628000D02*
X160886000Y-84678000D01*
X160886000Y-84678000D02*
X160886000Y-84028000D01*
X160886000Y-83978000D02*
X160886000Y-84028000D01*
X160886000Y-84028000D02*
X160886000Y-83978000D01*
X160886000Y-83978000D02*
X161236000Y-84328000D01*
X161236000Y-84328000D02*
X161236000Y-84678000D01*
X161236000Y-83978000D02*
X161236000Y-84328000D01*
D12*
X162582000Y-92140000D02*
X159782000Y-92140000D01*
X162582000Y-90740000D02*
X159782000Y-90740000D01*
X162582000Y-92140000D02*
X162582000Y-90740000D01*
D13*
X160982000Y-91440000D02*
X160682000Y-91740000D01*
X160682000Y-91740000D02*
X160632000Y-91790000D01*
X160632000Y-91790000D02*
X160632000Y-91140000D01*
X160632000Y-91090000D02*
X160632000Y-91140000D01*
X160632000Y-91140000D02*
X160632000Y-91090000D01*
X160632000Y-91090000D02*
X160982000Y-91440000D01*
X160982000Y-91440000D02*
X160982000Y-91790000D01*
X160982000Y-91090000D02*
X160982000Y-91440000D01*
X160982000Y-60864000D02*
X160982000Y-61214000D01*
X160982000Y-61214000D02*
X160982000Y-61564000D01*
X160632000Y-60864000D02*
X160982000Y-61214000D01*
X160632000Y-60914000D02*
X160632000Y-60864000D01*
X160632000Y-60864000D02*
X160632000Y-60914000D01*
X160632000Y-61564000D02*
X160632000Y-60914000D01*
X160682000Y-61514000D02*
X160632000Y-61564000D01*
X160982000Y-61214000D02*
X160682000Y-61514000D01*
D12*
X162582000Y-61914000D02*
X162582000Y-60514000D01*
X162582000Y-60514000D02*
X159782000Y-60514000D01*
X162582000Y-61914000D02*
X159782000Y-61914000D01*
X152906000Y-61778000D02*
X152906000Y-60848000D01*
X152906000Y-58618000D02*
X152906000Y-59548000D01*
X152906000Y-58618000D02*
X150746000Y-58618000D01*
X152906000Y-61778000D02*
X151446000Y-61778000D01*
X157318000Y-63872000D02*
X156118000Y-63872000D01*
X156118000Y-62112000D02*
X157318000Y-62112000D01*
X156118000Y-59064000D02*
X157318000Y-59064000D01*
X157318000Y-60824000D02*
X156118000Y-60824000D01*
X151800000Y-62366000D02*
X153000000Y-62366000D01*
X153000000Y-64126000D02*
X151800000Y-64126000D01*
D11*
X107188000Y-99314000D02*
X115316000Y-99314000D01*
X115316000Y-99314000D02*
X115316000Y-106934000D01*
X115316000Y-106934000D02*
X107188000Y-106934000D01*
X107188000Y-106934000D02*
X107188000Y-99314000D01*
X130008380Y-49863333D02*
X130722666Y-49863333D01*
X130865523Y-49910952D01*
X130960761Y-50006190D01*
X131008380Y-50149047D01*
X131008380Y-50244285D01*
X130341714Y-48958571D02*
X131008380Y-48958571D01*
X129960761Y-49196666D02*
X130675047Y-49434761D01*
X130675047Y-48815714D01*
X117038380Y-54324285D02*
X117038380Y-54895714D01*
X117038380Y-54610000D02*
X116038380Y-54610000D01*
X116181238Y-54705238D01*
X116276476Y-54800476D01*
X116324095Y-54895714D01*
X146359619Y-50291904D02*
X146312000Y-50244285D01*
X146264380Y-50149047D01*
X146264380Y-49910952D01*
X146312000Y-49815714D01*
X146359619Y-49768095D01*
X146454857Y-49720476D01*
X146550095Y-49720476D01*
X146692952Y-49768095D01*
X147264380Y-50339523D01*
X147264380Y-49720476D01*
X146264380Y-49101428D02*
X146264380Y-49006190D01*
X146312000Y-48910952D01*
X146359619Y-48863333D01*
X146454857Y-48815714D01*
X146645333Y-48768095D01*
X146883428Y-48768095D01*
X147073904Y-48815714D01*
X147169142Y-48863333D01*
X147216761Y-48910952D01*
X147264380Y-49006190D01*
X147264380Y-49101428D01*
X147216761Y-49196666D01*
X147169142Y-49244285D01*
X147073904Y-49291904D01*
X146883428Y-49339523D01*
X146645333Y-49339523D01*
X146454857Y-49291904D01*
X146359619Y-49244285D01*
X146312000Y-49196666D01*
X146264380Y-49101428D01*
X120316666Y-109180380D02*
X120316666Y-109894666D01*
X120269047Y-110037523D01*
X120173809Y-110132761D01*
X120030952Y-110180380D01*
X119935714Y-110180380D01*
X121316666Y-110180380D02*
X120745238Y-110180380D01*
X121030952Y-110180380D02*
X121030952Y-109180380D01*
X120935714Y-109323238D01*
X120840476Y-109418476D01*
X120745238Y-109466095D01*
X143938666Y-61682380D02*
X143938666Y-62396666D01*
X143891047Y-62539523D01*
X143795809Y-62634761D01*
X143652952Y-62682380D01*
X143557714Y-62682380D01*
X144319619Y-61682380D02*
X144938666Y-61682380D01*
X144605333Y-62063333D01*
X144748190Y-62063333D01*
X144843428Y-62110952D01*
X144891047Y-62158571D01*
X144938666Y-62253809D01*
X144938666Y-62491904D01*
X144891047Y-62587142D01*
X144843428Y-62634761D01*
X144748190Y-62682380D01*
X144462476Y-62682380D01*
X144367238Y-62634761D01*
X144319619Y-62587142D01*
X149256761Y-52363619D02*
X149161523Y-52316000D01*
X149066285Y-52220761D01*
X148923428Y-52077904D01*
X148828190Y-52030285D01*
X148732952Y-52030285D01*
X148780571Y-52268380D02*
X148685333Y-52220761D01*
X148590095Y-52125523D01*
X148542476Y-51935047D01*
X148542476Y-51601714D01*
X148590095Y-51411238D01*
X148685333Y-51316000D01*
X148780571Y-51268380D01*
X148971047Y-51268380D01*
X149066285Y-51316000D01*
X149161523Y-51411238D01*
X149209142Y-51601714D01*
X149209142Y-51935047D01*
X149161523Y-52125523D01*
X149066285Y-52220761D01*
X148971047Y-52268380D01*
X148780571Y-52268380D01*
X149542476Y-51268380D02*
X150161523Y-51268380D01*
X149828190Y-51649333D01*
X149971047Y-51649333D01*
X150066285Y-51696952D01*
X150113904Y-51744571D01*
X150161523Y-51839809D01*
X150161523Y-52077904D01*
X150113904Y-52173142D01*
X150066285Y-52220761D01*
X149971047Y-52268380D01*
X149685333Y-52268380D01*
X149590095Y-52220761D01*
X149542476Y-52173142D01*
X155821142Y-74112380D02*
X155487809Y-73636190D01*
X155249714Y-74112380D02*
X155249714Y-73112380D01*
X155630666Y-73112380D01*
X155725904Y-73160000D01*
X155773523Y-73207619D01*
X155821142Y-73302857D01*
X155821142Y-73445714D01*
X155773523Y-73540952D01*
X155725904Y-73588571D01*
X155630666Y-73636190D01*
X155249714Y-73636190D01*
X156202095Y-73207619D02*
X156249714Y-73160000D01*
X156344952Y-73112380D01*
X156583047Y-73112380D01*
X156678285Y-73160000D01*
X156725904Y-73207619D01*
X156773523Y-73302857D01*
X156773523Y-73398095D01*
X156725904Y-73540952D01*
X156154476Y-74112380D01*
X156773523Y-74112380D01*
X157392571Y-73112380D02*
X157487809Y-73112380D01*
X157583047Y-73160000D01*
X157630666Y-73207619D01*
X157678285Y-73302857D01*
X157725904Y-73493333D01*
X157725904Y-73731428D01*
X157678285Y-73921904D01*
X157630666Y-74017142D01*
X157583047Y-74064761D01*
X157487809Y-74112380D01*
X157392571Y-74112380D01*
X157297333Y-74064761D01*
X157249714Y-74017142D01*
X157202095Y-73921904D01*
X157154476Y-73731428D01*
X157154476Y-73493333D01*
X157202095Y-73302857D01*
X157249714Y-73207619D01*
X157297333Y-73160000D01*
X157392571Y-73112380D01*
X148963142Y-79446380D02*
X148629809Y-78970190D01*
X148391714Y-79446380D02*
X148391714Y-78446380D01*
X148772666Y-78446380D01*
X148867904Y-78494000D01*
X148915523Y-78541619D01*
X148963142Y-78636857D01*
X148963142Y-78779714D01*
X148915523Y-78874952D01*
X148867904Y-78922571D01*
X148772666Y-78970190D01*
X148391714Y-78970190D01*
X149344095Y-78541619D02*
X149391714Y-78494000D01*
X149486952Y-78446380D01*
X149725047Y-78446380D01*
X149820285Y-78494000D01*
X149867904Y-78541619D01*
X149915523Y-78636857D01*
X149915523Y-78732095D01*
X149867904Y-78874952D01*
X149296476Y-79446380D01*
X149915523Y-79446380D01*
X150296476Y-78541619D02*
X150344095Y-78494000D01*
X150439333Y-78446380D01*
X150677428Y-78446380D01*
X150772666Y-78494000D01*
X150820285Y-78541619D01*
X150867904Y-78636857D01*
X150867904Y-78732095D01*
X150820285Y-78874952D01*
X150248857Y-79446380D01*
X150867904Y-79446380D01*
X149764761Y-75477619D02*
X149669523Y-75430000D01*
X149574285Y-75334761D01*
X149431428Y-75191904D01*
X149336190Y-75144285D01*
X149240952Y-75144285D01*
X149288571Y-75382380D02*
X149193333Y-75334761D01*
X149098095Y-75239523D01*
X149050476Y-75049047D01*
X149050476Y-74715714D01*
X149098095Y-74525238D01*
X149193333Y-74430000D01*
X149288571Y-74382380D01*
X149479047Y-74382380D01*
X149574285Y-74430000D01*
X149669523Y-74525238D01*
X149717142Y-74715714D01*
X149717142Y-75049047D01*
X149669523Y-75239523D01*
X149574285Y-75334761D01*
X149479047Y-75382380D01*
X149288571Y-75382380D01*
X150621904Y-74382380D02*
X150145714Y-74382380D01*
X150098095Y-74858571D01*
X150145714Y-74810952D01*
X150240952Y-74763333D01*
X150479047Y-74763333D01*
X150574285Y-74810952D01*
X150621904Y-74858571D01*
X150669523Y-74953809D01*
X150669523Y-75191904D01*
X150621904Y-75287142D01*
X150574285Y-75334761D01*
X150479047Y-75382380D01*
X150240952Y-75382380D01*
X150145714Y-75334761D01*
X150098095Y-75287142D01*
X155821142Y-77414380D02*
X155487809Y-76938190D01*
X155249714Y-77414380D02*
X155249714Y-76414380D01*
X155630666Y-76414380D01*
X155725904Y-76462000D01*
X155773523Y-76509619D01*
X155821142Y-76604857D01*
X155821142Y-76747714D01*
X155773523Y-76842952D01*
X155725904Y-76890571D01*
X155630666Y-76938190D01*
X155249714Y-76938190D01*
X156773523Y-77414380D02*
X156202095Y-77414380D01*
X156487809Y-77414380D02*
X156487809Y-76414380D01*
X156392571Y-76557238D01*
X156297333Y-76652476D01*
X156202095Y-76700095D01*
X157344952Y-76842952D02*
X157249714Y-76795333D01*
X157202095Y-76747714D01*
X157154476Y-76652476D01*
X157154476Y-76604857D01*
X157202095Y-76509619D01*
X157249714Y-76462000D01*
X157344952Y-76414380D01*
X157535428Y-76414380D01*
X157630666Y-76462000D01*
X157678285Y-76509619D01*
X157725904Y-76604857D01*
X157725904Y-76652476D01*
X157678285Y-76747714D01*
X157630666Y-76795333D01*
X157535428Y-76842952D01*
X157344952Y-76842952D01*
X157249714Y-76890571D01*
X157202095Y-76938190D01*
X157154476Y-77033428D01*
X157154476Y-77223904D01*
X157202095Y-77319142D01*
X157249714Y-77366761D01*
X157344952Y-77414380D01*
X157535428Y-77414380D01*
X157630666Y-77366761D01*
X157678285Y-77319142D01*
X157725904Y-77223904D01*
X157725904Y-77033428D01*
X157678285Y-76938190D01*
X157630666Y-76890571D01*
X157535428Y-76842952D01*
X160043904Y-78864380D02*
X160043904Y-77864380D01*
X160282000Y-77864380D01*
X160424857Y-77912000D01*
X160520095Y-78007238D01*
X160567714Y-78102476D01*
X160615333Y-78292952D01*
X160615333Y-78435809D01*
X160567714Y-78626285D01*
X160520095Y-78721523D01*
X160424857Y-78816761D01*
X160282000Y-78864380D01*
X160043904Y-78864380D01*
X161186761Y-78292952D02*
X161091523Y-78245333D01*
X161043904Y-78197714D01*
X160996285Y-78102476D01*
X160996285Y-78054857D01*
X161043904Y-77959619D01*
X161091523Y-77912000D01*
X161186761Y-77864380D01*
X161377238Y-77864380D01*
X161472476Y-77912000D01*
X161520095Y-77959619D01*
X161567714Y-78054857D01*
X161567714Y-78102476D01*
X161520095Y-78197714D01*
X161472476Y-78245333D01*
X161377238Y-78292952D01*
X161186761Y-78292952D01*
X161091523Y-78340571D01*
X161043904Y-78388190D01*
X160996285Y-78483428D01*
X160996285Y-78673904D01*
X161043904Y-78769142D01*
X161091523Y-78816761D01*
X161186761Y-78864380D01*
X161377238Y-78864380D01*
X161472476Y-78816761D01*
X161520095Y-78769142D01*
X161567714Y-78673904D01*
X161567714Y-78483428D01*
X161520095Y-78388190D01*
X161472476Y-78340571D01*
X161377238Y-78292952D01*
X115403333Y-99004380D02*
X115070000Y-98528190D01*
X114831904Y-99004380D02*
X114831904Y-98004380D01*
X115212857Y-98004380D01*
X115308095Y-98052000D01*
X115355714Y-98099619D01*
X115403333Y-98194857D01*
X115403333Y-98337714D01*
X115355714Y-98432952D01*
X115308095Y-98480571D01*
X115212857Y-98528190D01*
X114831904Y-98528190D01*
X116308095Y-98004380D02*
X115831904Y-98004380D01*
X115784285Y-98480571D01*
X115831904Y-98432952D01*
X115927142Y-98385333D01*
X116165238Y-98385333D01*
X116260476Y-98432952D01*
X116308095Y-98480571D01*
X116355714Y-98575809D01*
X116355714Y-98813904D01*
X116308095Y-98909142D01*
X116260476Y-98956761D01*
X116165238Y-99004380D01*
X115927142Y-99004380D01*
X115831904Y-98956761D01*
X115784285Y-98909142D01*
X156297333Y-97131142D02*
X156249714Y-97178761D01*
X156106857Y-97226380D01*
X156011619Y-97226380D01*
X155868761Y-97178761D01*
X155773523Y-97083523D01*
X155725904Y-96988285D01*
X155678285Y-96797809D01*
X155678285Y-96654952D01*
X155725904Y-96464476D01*
X155773523Y-96369238D01*
X155868761Y-96274000D01*
X156011619Y-96226380D01*
X156106857Y-96226380D01*
X156249714Y-96274000D01*
X156297333Y-96321619D01*
X156678285Y-96321619D02*
X156725904Y-96274000D01*
X156821142Y-96226380D01*
X157059238Y-96226380D01*
X157154476Y-96274000D01*
X157202095Y-96321619D01*
X157249714Y-96416857D01*
X157249714Y-96512095D01*
X157202095Y-96654952D01*
X156630666Y-97226380D01*
X157249714Y-97226380D01*
X147407333Y-100941142D02*
X147359714Y-100988761D01*
X147216857Y-101036380D01*
X147121619Y-101036380D01*
X146978761Y-100988761D01*
X146883523Y-100893523D01*
X146835904Y-100798285D01*
X146788285Y-100607809D01*
X146788285Y-100464952D01*
X146835904Y-100274476D01*
X146883523Y-100179238D01*
X146978761Y-100084000D01*
X147121619Y-100036380D01*
X147216857Y-100036380D01*
X147359714Y-100084000D01*
X147407333Y-100131619D01*
X148359714Y-101036380D02*
X147788285Y-101036380D01*
X148074000Y-101036380D02*
X148074000Y-100036380D01*
X147978761Y-100179238D01*
X147883523Y-100274476D01*
X147788285Y-100322095D01*
X112426761Y-93765619D02*
X112331523Y-93718000D01*
X112236285Y-93622761D01*
X112093428Y-93479904D01*
X111998190Y-93432285D01*
X111902952Y-93432285D01*
X111950571Y-93670380D02*
X111855333Y-93622761D01*
X111760095Y-93527523D01*
X111712476Y-93337047D01*
X111712476Y-93003714D01*
X111760095Y-92813238D01*
X111855333Y-92718000D01*
X111950571Y-92670380D01*
X112141047Y-92670380D01*
X112236285Y-92718000D01*
X112331523Y-92813238D01*
X112379142Y-93003714D01*
X112379142Y-93337047D01*
X112331523Y-93527523D01*
X112236285Y-93622761D01*
X112141047Y-93670380D01*
X111950571Y-93670380D01*
X113331523Y-93670380D02*
X112760095Y-93670380D01*
X113045809Y-93670380D02*
X113045809Y-92670380D01*
X112950571Y-92813238D01*
X112855333Y-92908476D01*
X112760095Y-92956095D01*
X125595142Y-76049142D02*
X125547523Y-76096761D01*
X125404666Y-76144380D01*
X125309428Y-76144380D01*
X125166571Y-76096761D01*
X125071333Y-76001523D01*
X125023714Y-75906285D01*
X124976095Y-75715809D01*
X124976095Y-75572952D01*
X125023714Y-75382476D01*
X125071333Y-75287238D01*
X125166571Y-75192000D01*
X125309428Y-75144380D01*
X125404666Y-75144380D01*
X125547523Y-75192000D01*
X125595142Y-75239619D01*
X126547523Y-76144380D02*
X125976095Y-76144380D01*
X126261809Y-76144380D02*
X126261809Y-75144380D01*
X126166571Y-75287238D01*
X126071333Y-75382476D01*
X125976095Y-75430095D01*
X126880857Y-75144380D02*
X127499904Y-75144380D01*
X127166571Y-75525333D01*
X127309428Y-75525333D01*
X127404666Y-75572952D01*
X127452285Y-75620571D01*
X127499904Y-75715809D01*
X127499904Y-75953904D01*
X127452285Y-76049142D01*
X127404666Y-76096761D01*
X127309428Y-76144380D01*
X127023714Y-76144380D01*
X126928476Y-76096761D01*
X126880857Y-76049142D01*
X126746095Y-62698380D02*
X126746095Y-63507904D01*
X126793714Y-63603142D01*
X126841333Y-63650761D01*
X126936571Y-63698380D01*
X127127047Y-63698380D01*
X127222285Y-63650761D01*
X127269904Y-63603142D01*
X127317523Y-63507904D01*
X127317523Y-62698380D01*
X128317523Y-63698380D02*
X127746095Y-63698380D01*
X128031809Y-63698380D02*
X128031809Y-62698380D01*
X127936571Y-62841238D01*
X127841333Y-62936476D01*
X127746095Y-62984095D01*
X123531333Y-96338380D02*
X123198000Y-95862190D01*
X122959904Y-96338380D02*
X122959904Y-95338380D01*
X123340857Y-95338380D01*
X123436095Y-95386000D01*
X123483714Y-95433619D01*
X123531333Y-95528857D01*
X123531333Y-95671714D01*
X123483714Y-95766952D01*
X123436095Y-95814571D01*
X123340857Y-95862190D01*
X122959904Y-95862190D01*
X124102761Y-95766952D02*
X124007523Y-95719333D01*
X123959904Y-95671714D01*
X123912285Y-95576476D01*
X123912285Y-95528857D01*
X123959904Y-95433619D01*
X124007523Y-95386000D01*
X124102761Y-95338380D01*
X124293238Y-95338380D01*
X124388476Y-95386000D01*
X124436095Y-95433619D01*
X124483714Y-95528857D01*
X124483714Y-95576476D01*
X124436095Y-95671714D01*
X124388476Y-95719333D01*
X124293238Y-95766952D01*
X124102761Y-95766952D01*
X124007523Y-95814571D01*
X123959904Y-95862190D01*
X123912285Y-95957428D01*
X123912285Y-96147904D01*
X123959904Y-96243142D01*
X124007523Y-96290761D01*
X124102761Y-96338380D01*
X124293238Y-96338380D01*
X124388476Y-96290761D01*
X124436095Y-96243142D01*
X124483714Y-96147904D01*
X124483714Y-95957428D01*
X124436095Y-95862190D01*
X124388476Y-95814571D01*
X124293238Y-95766952D01*
X115403333Y-93290380D02*
X115070000Y-92814190D01*
X114831904Y-93290380D02*
X114831904Y-92290380D01*
X115212857Y-92290380D01*
X115308095Y-92338000D01*
X115355714Y-92385619D01*
X115403333Y-92480857D01*
X115403333Y-92623714D01*
X115355714Y-92718952D01*
X115308095Y-92766571D01*
X115212857Y-92814190D01*
X114831904Y-92814190D01*
X116260476Y-92290380D02*
X116070000Y-92290380D01*
X115974761Y-92338000D01*
X115927142Y-92385619D01*
X115831904Y-92528476D01*
X115784285Y-92718952D01*
X115784285Y-93099904D01*
X115831904Y-93195142D01*
X115879523Y-93242761D01*
X115974761Y-93290380D01*
X116165238Y-93290380D01*
X116260476Y-93242761D01*
X116308095Y-93195142D01*
X116355714Y-93099904D01*
X116355714Y-92861809D01*
X116308095Y-92766571D01*
X116260476Y-92718952D01*
X116165238Y-92671333D01*
X115974761Y-92671333D01*
X115879523Y-92718952D01*
X115831904Y-92766571D01*
X115784285Y-92861809D01*
X129881333Y-96972380D02*
X129548000Y-96496190D01*
X129309904Y-96972380D02*
X129309904Y-95972380D01*
X129690857Y-95972380D01*
X129786095Y-96020000D01*
X129833714Y-96067619D01*
X129881333Y-96162857D01*
X129881333Y-96305714D01*
X129833714Y-96400952D01*
X129786095Y-96448571D01*
X129690857Y-96496190D01*
X129309904Y-96496190D01*
X130738476Y-96305714D02*
X130738476Y-96972380D01*
X130500380Y-95924761D02*
X130262285Y-96639047D01*
X130881333Y-96639047D01*
X141422380Y-69222857D02*
X140946190Y-69556190D01*
X141422380Y-69794285D02*
X140422380Y-69794285D01*
X140422380Y-69413333D01*
X140470000Y-69318095D01*
X140517619Y-69270476D01*
X140612857Y-69222857D01*
X140755714Y-69222857D01*
X140850952Y-69270476D01*
X140898571Y-69318095D01*
X140946190Y-69413333D01*
X140946190Y-69794285D01*
X140422380Y-68889523D02*
X140422380Y-68270476D01*
X140803333Y-68603809D01*
X140803333Y-68460952D01*
X140850952Y-68365714D01*
X140898571Y-68318095D01*
X140993809Y-68270476D01*
X141231904Y-68270476D01*
X141327142Y-68318095D01*
X141374761Y-68365714D01*
X141422380Y-68460952D01*
X141422380Y-68746666D01*
X141374761Y-68841904D01*
X141327142Y-68889523D01*
X140422380Y-67651428D02*
X140422380Y-67556190D01*
X140470000Y-67460952D01*
X140517619Y-67413333D01*
X140612857Y-67365714D01*
X140803333Y-67318095D01*
X141041428Y-67318095D01*
X141231904Y-67365714D01*
X141327142Y-67413333D01*
X141374761Y-67460952D01*
X141422380Y-67556190D01*
X141422380Y-67651428D01*
X141374761Y-67746666D01*
X141327142Y-67794285D01*
X141231904Y-67841904D01*
X141041428Y-67889523D01*
X140803333Y-67889523D01*
X140612857Y-67841904D01*
X140517619Y-67794285D01*
X140470000Y-67746666D01*
X140422380Y-67651428D01*
X127976571Y-58364380D02*
X127643238Y-57888190D01*
X127405142Y-58364380D02*
X127405142Y-57364380D01*
X127786095Y-57364380D01*
X127881333Y-57412000D01*
X127928952Y-57459619D01*
X127976571Y-57554857D01*
X127976571Y-57697714D01*
X127928952Y-57792952D01*
X127881333Y-57840571D01*
X127786095Y-57888190D01*
X127405142Y-57888190D01*
X128167047Y-58459619D02*
X128928952Y-58459619D01*
X129167047Y-58364380D02*
X129167047Y-57364380D01*
X129405142Y-57364380D01*
X129548000Y-57412000D01*
X129643238Y-57507238D01*
X129690857Y-57602476D01*
X129738476Y-57792952D01*
X129738476Y-57935809D01*
X129690857Y-58126285D01*
X129643238Y-58221523D01*
X129548000Y-58316761D01*
X129405142Y-58364380D01*
X129167047Y-58364380D01*
X130167047Y-58364380D02*
X130167047Y-57364380D01*
X130738476Y-58364380D01*
X130738476Y-57364380D01*
X131214666Y-58364380D02*
X131214666Y-57364380D01*
X131595619Y-57364380D01*
X131690857Y-57412000D01*
X131738476Y-57459619D01*
X131786095Y-57554857D01*
X131786095Y-57697714D01*
X131738476Y-57792952D01*
X131690857Y-57840571D01*
X131595619Y-57888190D01*
X131214666Y-57888190D01*
X132738476Y-58364380D02*
X132167047Y-58364380D01*
X132452761Y-58364380D02*
X132452761Y-57364380D01*
X132357523Y-57507238D01*
X132262285Y-57602476D01*
X132167047Y-57650095D01*
X149764761Y-67857619D02*
X149669523Y-67810000D01*
X149574285Y-67714761D01*
X149431428Y-67571904D01*
X149336190Y-67524285D01*
X149240952Y-67524285D01*
X149288571Y-67762380D02*
X149193333Y-67714761D01*
X149098095Y-67619523D01*
X149050476Y-67429047D01*
X149050476Y-67095714D01*
X149098095Y-66905238D01*
X149193333Y-66810000D01*
X149288571Y-66762380D01*
X149479047Y-66762380D01*
X149574285Y-66810000D01*
X149669523Y-66905238D01*
X149717142Y-67095714D01*
X149717142Y-67429047D01*
X149669523Y-67619523D01*
X149574285Y-67714761D01*
X149479047Y-67762380D01*
X149288571Y-67762380D01*
X150574285Y-67095714D02*
X150574285Y-67762380D01*
X150336190Y-66714761D02*
X150098095Y-67429047D01*
X150717142Y-67429047D01*
X123825142Y-80906857D02*
X123872761Y-80954476D01*
X123920380Y-81097333D01*
X123920380Y-81192571D01*
X123872761Y-81335428D01*
X123777523Y-81430666D01*
X123682285Y-81478285D01*
X123491809Y-81525904D01*
X123348952Y-81525904D01*
X123158476Y-81478285D01*
X123063238Y-81430666D01*
X122968000Y-81335428D01*
X122920380Y-81192571D01*
X122920380Y-81097333D01*
X122968000Y-80954476D01*
X123015619Y-80906857D01*
X123920380Y-79954476D02*
X123920380Y-80525904D01*
X123920380Y-80240190D02*
X122920380Y-80240190D01*
X123063238Y-80335428D01*
X123158476Y-80430666D01*
X123206095Y-80525904D01*
X123920380Y-79002095D02*
X123920380Y-79573523D01*
X123920380Y-79287809D02*
X122920380Y-79287809D01*
X123063238Y-79383047D01*
X123158476Y-79478285D01*
X123206095Y-79573523D01*
X148455142Y-56586380D02*
X148121809Y-56110190D01*
X147883714Y-56586380D02*
X147883714Y-55586380D01*
X148264666Y-55586380D01*
X148359904Y-55634000D01*
X148407523Y-55681619D01*
X148455142Y-55776857D01*
X148455142Y-55919714D01*
X148407523Y-56014952D01*
X148359904Y-56062571D01*
X148264666Y-56110190D01*
X147883714Y-56110190D01*
X149407523Y-56586380D02*
X148836095Y-56586380D01*
X149121809Y-56586380D02*
X149121809Y-55586380D01*
X149026571Y-55729238D01*
X148931333Y-55824476D01*
X148836095Y-55872095D01*
X150312285Y-55586380D02*
X149836095Y-55586380D01*
X149788476Y-56062571D01*
X149836095Y-56014952D01*
X149931333Y-55967333D01*
X150169428Y-55967333D01*
X150264666Y-56014952D01*
X150312285Y-56062571D01*
X150359904Y-56157809D01*
X150359904Y-56395904D01*
X150312285Y-56491142D01*
X150264666Y-56538761D01*
X150169428Y-56586380D01*
X149931333Y-56586380D01*
X149836095Y-56538761D01*
X149788476Y-56491142D01*
X129881333Y-93544380D02*
X129548000Y-93068190D01*
X129309904Y-93544380D02*
X129309904Y-92544380D01*
X129690857Y-92544380D01*
X129786095Y-92592000D01*
X129833714Y-92639619D01*
X129881333Y-92734857D01*
X129881333Y-92877714D01*
X129833714Y-92972952D01*
X129786095Y-93020571D01*
X129690857Y-93068190D01*
X129309904Y-93068190D01*
X130214666Y-92544380D02*
X130833714Y-92544380D01*
X130500380Y-92925333D01*
X130643238Y-92925333D01*
X130738476Y-92972952D01*
X130786095Y-93020571D01*
X130833714Y-93115809D01*
X130833714Y-93353904D01*
X130786095Y-93449142D01*
X130738476Y-93496761D01*
X130643238Y-93544380D01*
X130357523Y-93544380D01*
X130262285Y-93496761D01*
X130214666Y-93449142D01*
X155567142Y-54682380D02*
X155233809Y-54206190D01*
X154995714Y-54682380D02*
X154995714Y-53682380D01*
X155376666Y-53682380D01*
X155471904Y-53730000D01*
X155519523Y-53777619D01*
X155567142Y-53872857D01*
X155567142Y-54015714D01*
X155519523Y-54110952D01*
X155471904Y-54158571D01*
X155376666Y-54206190D01*
X154995714Y-54206190D01*
X156519523Y-54682380D02*
X155948095Y-54682380D01*
X156233809Y-54682380D02*
X156233809Y-53682380D01*
X156138571Y-53825238D01*
X156043333Y-53920476D01*
X155948095Y-53968095D01*
X157471904Y-54682380D02*
X156900476Y-54682380D01*
X157186190Y-54682380D02*
X157186190Y-53682380D01*
X157090952Y-53825238D01*
X156995714Y-53920476D01*
X156900476Y-53968095D01*
X118382380Y-90114285D02*
X117382380Y-90114285D01*
X117382380Y-89876190D01*
X117430000Y-89733333D01*
X117525238Y-89638095D01*
X117620476Y-89590476D01*
X117810952Y-89542857D01*
X117953809Y-89542857D01*
X118144285Y-89590476D01*
X118239523Y-89638095D01*
X118334761Y-89733333D01*
X118382380Y-89876190D01*
X118382380Y-90114285D01*
X118382380Y-88590476D02*
X118382380Y-89161904D01*
X118382380Y-88876190D02*
X117382380Y-88876190D01*
X117525238Y-88971428D01*
X117620476Y-89066666D01*
X117668095Y-89161904D01*
X117382380Y-88257142D02*
X117382380Y-87638095D01*
X117763333Y-87971428D01*
X117763333Y-87828571D01*
X117810952Y-87733333D01*
X117858571Y-87685714D01*
X117953809Y-87638095D01*
X118191904Y-87638095D01*
X118287142Y-87685714D01*
X118334761Y-87733333D01*
X118382380Y-87828571D01*
X118382380Y-88114285D01*
X118334761Y-88209523D01*
X118287142Y-88257142D01*
X124478380Y-90114285D02*
X123478380Y-90114285D01*
X123478380Y-89876190D01*
X123526000Y-89733333D01*
X123621238Y-89638095D01*
X123716476Y-89590476D01*
X123906952Y-89542857D01*
X124049809Y-89542857D01*
X124240285Y-89590476D01*
X124335523Y-89638095D01*
X124430761Y-89733333D01*
X124478380Y-89876190D01*
X124478380Y-90114285D01*
X124478380Y-88590476D02*
X124478380Y-89161904D01*
X124478380Y-88876190D02*
X123478380Y-88876190D01*
X123621238Y-88971428D01*
X123716476Y-89066666D01*
X123764095Y-89161904D01*
X123478380Y-87733333D02*
X123478380Y-87923809D01*
X123526000Y-88019047D01*
X123573619Y-88066666D01*
X123716476Y-88161904D01*
X123906952Y-88209523D01*
X124287904Y-88209523D01*
X124383142Y-88161904D01*
X124430761Y-88114285D01*
X124478380Y-88019047D01*
X124478380Y-87828571D01*
X124430761Y-87733333D01*
X124383142Y-87685714D01*
X124287904Y-87638095D01*
X124049809Y-87638095D01*
X123954571Y-87685714D01*
X123906952Y-87733333D01*
X123859333Y-87828571D01*
X123859333Y-88019047D01*
X123906952Y-88114285D01*
X123954571Y-88161904D01*
X124049809Y-88209523D01*
X140016473Y-71250030D02*
X139444053Y-71822450D01*
X139410381Y-71923465D01*
X139410381Y-71990809D01*
X139444053Y-72091824D01*
X139578740Y-72226511D01*
X139679755Y-72260183D01*
X139747099Y-72260183D01*
X139848114Y-72226511D01*
X140420534Y-71654091D01*
X140689908Y-71923465D02*
X141127640Y-72361198D01*
X140622564Y-72394870D01*
X140723579Y-72495885D01*
X140757251Y-72596900D01*
X140757251Y-72664244D01*
X140723579Y-72765259D01*
X140555221Y-72933618D01*
X140454205Y-72967290D01*
X140386862Y-72967290D01*
X140285847Y-72933618D01*
X140083816Y-72731587D01*
X140050144Y-72630572D01*
X140050144Y-72563229D01*
X128809809Y-82526190D02*
X128809809Y-83002380D01*
X128476476Y-82002380D02*
X128809809Y-82526190D01*
X129143142Y-82002380D01*
X130000285Y-83002380D02*
X129428857Y-83002380D01*
X129714571Y-83002380D02*
X129714571Y-82002380D01*
X129619333Y-82145238D01*
X129524095Y-82240476D01*
X129428857Y-82288095D01*
X132167333Y-70556380D02*
X131834000Y-70080190D01*
X131595904Y-70556380D02*
X131595904Y-69556380D01*
X131976857Y-69556380D01*
X132072095Y-69604000D01*
X132119714Y-69651619D01*
X132167333Y-69746857D01*
X132167333Y-69889714D01*
X132119714Y-69984952D01*
X132072095Y-70032571D01*
X131976857Y-70080190D01*
X131595904Y-70080190D01*
X132548285Y-69651619D02*
X132595904Y-69604000D01*
X132691142Y-69556380D01*
X132929238Y-69556380D01*
X133024476Y-69604000D01*
X133072095Y-69651619D01*
X133119714Y-69746857D01*
X133119714Y-69842095D01*
X133072095Y-69984952D01*
X132500666Y-70556380D01*
X133119714Y-70556380D01*
X134707333Y-58293142D02*
X134659714Y-58340761D01*
X134516857Y-58388380D01*
X134421619Y-58388380D01*
X134278761Y-58340761D01*
X134183523Y-58245523D01*
X134135904Y-58150285D01*
X134088285Y-57959809D01*
X134088285Y-57816952D01*
X134135904Y-57626476D01*
X134183523Y-57531238D01*
X134278761Y-57436000D01*
X134421619Y-57388380D01*
X134516857Y-57388380D01*
X134659714Y-57436000D01*
X134707333Y-57483619D01*
X135040666Y-57388380D02*
X135707333Y-57388380D01*
X135278761Y-58388380D01*
X148963142Y-94686380D02*
X148629809Y-94210190D01*
X148391714Y-94686380D02*
X148391714Y-93686380D01*
X148772666Y-93686380D01*
X148867904Y-93734000D01*
X148915523Y-93781619D01*
X148963142Y-93876857D01*
X148963142Y-94019714D01*
X148915523Y-94114952D01*
X148867904Y-94162571D01*
X148772666Y-94210190D01*
X148391714Y-94210190D01*
X149296476Y-93686380D02*
X149915523Y-93686380D01*
X149582190Y-94067333D01*
X149725047Y-94067333D01*
X149820285Y-94114952D01*
X149867904Y-94162571D01*
X149915523Y-94257809D01*
X149915523Y-94495904D01*
X149867904Y-94591142D01*
X149820285Y-94638761D01*
X149725047Y-94686380D01*
X149439333Y-94686380D01*
X149344095Y-94638761D01*
X149296476Y-94591142D01*
X150820285Y-93686380D02*
X150344095Y-93686380D01*
X150296476Y-94162571D01*
X150344095Y-94114952D01*
X150439333Y-94067333D01*
X150677428Y-94067333D01*
X150772666Y-94114952D01*
X150820285Y-94162571D01*
X150867904Y-94257809D01*
X150867904Y-94495904D01*
X150820285Y-94591142D01*
X150772666Y-94638761D01*
X150677428Y-94686380D01*
X150439333Y-94686380D01*
X150344095Y-94638761D01*
X150296476Y-94591142D01*
X144549904Y-95194380D02*
X144549904Y-94194380D01*
X144788000Y-94194380D01*
X144930857Y-94242000D01*
X145026095Y-94337238D01*
X145073714Y-94432476D01*
X145121333Y-94622952D01*
X145121333Y-94765809D01*
X145073714Y-94956285D01*
X145026095Y-95051523D01*
X144930857Y-95146761D01*
X144788000Y-95194380D01*
X144549904Y-95194380D01*
X145978476Y-94527714D02*
X145978476Y-95194380D01*
X145740380Y-94146761D02*
X145502285Y-94861047D01*
X146121333Y-94861047D01*
X120991333Y-94432380D02*
X120658000Y-93956190D01*
X120419904Y-94432380D02*
X120419904Y-93432380D01*
X120800857Y-93432380D01*
X120896095Y-93480000D01*
X120943714Y-93527619D01*
X120991333Y-93622857D01*
X120991333Y-93765714D01*
X120943714Y-93860952D01*
X120896095Y-93908571D01*
X120800857Y-93956190D01*
X120419904Y-93956190D01*
X121324666Y-93432380D02*
X121991333Y-93432380D01*
X121562761Y-94432380D01*
X155821142Y-92146380D02*
X155487809Y-91670190D01*
X155249714Y-92146380D02*
X155249714Y-91146380D01*
X155630666Y-91146380D01*
X155725904Y-91194000D01*
X155773523Y-91241619D01*
X155821142Y-91336857D01*
X155821142Y-91479714D01*
X155773523Y-91574952D01*
X155725904Y-91622571D01*
X155630666Y-91670190D01*
X155249714Y-91670190D01*
X156154476Y-91146380D02*
X156773523Y-91146380D01*
X156440190Y-91527333D01*
X156583047Y-91527333D01*
X156678285Y-91574952D01*
X156725904Y-91622571D01*
X156773523Y-91717809D01*
X156773523Y-91955904D01*
X156725904Y-92051142D01*
X156678285Y-92098761D01*
X156583047Y-92146380D01*
X156297333Y-92146380D01*
X156202095Y-92098761D01*
X156154476Y-92051142D01*
X157106857Y-91146380D02*
X157725904Y-91146380D01*
X157392571Y-91527333D01*
X157535428Y-91527333D01*
X157630666Y-91574952D01*
X157678285Y-91622571D01*
X157725904Y-91717809D01*
X157725904Y-91955904D01*
X157678285Y-92051142D01*
X157630666Y-92098761D01*
X157535428Y-92146380D01*
X157249714Y-92146380D01*
X157154476Y-92098761D01*
X157106857Y-92051142D01*
X149764761Y-90463619D02*
X149669523Y-90416000D01*
X149574285Y-90320761D01*
X149431428Y-90177904D01*
X149336190Y-90130285D01*
X149240952Y-90130285D01*
X149288571Y-90368380D02*
X149193333Y-90320761D01*
X149098095Y-90225523D01*
X149050476Y-90035047D01*
X149050476Y-89701714D01*
X149098095Y-89511238D01*
X149193333Y-89416000D01*
X149288571Y-89368380D01*
X149479047Y-89368380D01*
X149574285Y-89416000D01*
X149669523Y-89511238D01*
X149717142Y-89701714D01*
X149717142Y-90035047D01*
X149669523Y-90225523D01*
X149574285Y-90320761D01*
X149479047Y-90368380D01*
X149288571Y-90368380D01*
X150050476Y-89368380D02*
X150717142Y-89368380D01*
X150288571Y-90368380D01*
X156329142Y-66366380D02*
X155995809Y-65890190D01*
X155757714Y-66366380D02*
X155757714Y-65366380D01*
X156138666Y-65366380D01*
X156233904Y-65414000D01*
X156281523Y-65461619D01*
X156329142Y-65556857D01*
X156329142Y-65699714D01*
X156281523Y-65794952D01*
X156233904Y-65842571D01*
X156138666Y-65890190D01*
X155757714Y-65890190D01*
X157281523Y-66366380D02*
X156710095Y-66366380D01*
X156995809Y-66366380D02*
X156995809Y-65366380D01*
X156900571Y-65509238D01*
X156805333Y-65604476D01*
X156710095Y-65652095D01*
X158138666Y-65699714D02*
X158138666Y-66366380D01*
X157900571Y-65318761D02*
X157662476Y-66033047D01*
X158281523Y-66033047D01*
X141057333Y-96972380D02*
X140724000Y-96496190D01*
X140485904Y-96972380D02*
X140485904Y-95972380D01*
X140866857Y-95972380D01*
X140962095Y-96020000D01*
X141009714Y-96067619D01*
X141057333Y-96162857D01*
X141057333Y-96305714D01*
X141009714Y-96400952D01*
X140962095Y-96448571D01*
X140866857Y-96496190D01*
X140485904Y-96496190D01*
X141533523Y-96972380D02*
X141724000Y-96972380D01*
X141819238Y-96924761D01*
X141866857Y-96877142D01*
X141962095Y-96734285D01*
X142009714Y-96543809D01*
X142009714Y-96162857D01*
X141962095Y-96067619D01*
X141914476Y-96020000D01*
X141819238Y-95972380D01*
X141628761Y-95972380D01*
X141533523Y-96020000D01*
X141485904Y-96067619D01*
X141438285Y-96162857D01*
X141438285Y-96400952D01*
X141485904Y-96496190D01*
X141533523Y-96543809D01*
X141628761Y-96591428D01*
X141819238Y-96591428D01*
X141914476Y-96543809D01*
X141962095Y-96496190D01*
X142009714Y-96400952D01*
X148963142Y-86558380D02*
X148629809Y-86082190D01*
X148391714Y-86558380D02*
X148391714Y-85558380D01*
X148772666Y-85558380D01*
X148867904Y-85606000D01*
X148915523Y-85653619D01*
X148963142Y-85748857D01*
X148963142Y-85891714D01*
X148915523Y-85986952D01*
X148867904Y-86034571D01*
X148772666Y-86082190D01*
X148391714Y-86082190D01*
X149344095Y-85653619D02*
X149391714Y-85606000D01*
X149486952Y-85558380D01*
X149725047Y-85558380D01*
X149820285Y-85606000D01*
X149867904Y-85653619D01*
X149915523Y-85748857D01*
X149915523Y-85844095D01*
X149867904Y-85986952D01*
X149296476Y-86558380D01*
X149915523Y-86558380D01*
X150248857Y-85558380D02*
X150867904Y-85558380D01*
X150534571Y-85939333D01*
X150677428Y-85939333D01*
X150772666Y-85986952D01*
X150820285Y-86034571D01*
X150867904Y-86129809D01*
X150867904Y-86367904D01*
X150820285Y-86463142D01*
X150772666Y-86510761D01*
X150677428Y-86558380D01*
X150391714Y-86558380D01*
X150296476Y-86510761D01*
X150248857Y-86463142D01*
X156329142Y-81478380D02*
X155995809Y-81002190D01*
X155757714Y-81478380D02*
X155757714Y-80478380D01*
X156138666Y-80478380D01*
X156233904Y-80526000D01*
X156281523Y-80573619D01*
X156329142Y-80668857D01*
X156329142Y-80811714D01*
X156281523Y-80906952D01*
X156233904Y-80954571D01*
X156138666Y-81002190D01*
X155757714Y-81002190D01*
X156710095Y-80573619D02*
X156757714Y-80526000D01*
X156852952Y-80478380D01*
X157091047Y-80478380D01*
X157186285Y-80526000D01*
X157233904Y-80573619D01*
X157281523Y-80668857D01*
X157281523Y-80764095D01*
X157233904Y-80906952D01*
X156662476Y-81478380D01*
X157281523Y-81478380D01*
X158233904Y-81478380D02*
X157662476Y-81478380D01*
X157948190Y-81478380D02*
X157948190Y-80478380D01*
X157852952Y-80621238D01*
X157757714Y-80716476D01*
X157662476Y-80764095D01*
X121430380Y-90114285D02*
X120430380Y-90114285D01*
X120430380Y-89876190D01*
X120478000Y-89733333D01*
X120573238Y-89638095D01*
X120668476Y-89590476D01*
X120858952Y-89542857D01*
X121001809Y-89542857D01*
X121192285Y-89590476D01*
X121287523Y-89638095D01*
X121382761Y-89733333D01*
X121430380Y-89876190D01*
X121430380Y-90114285D01*
X121430380Y-88590476D02*
X121430380Y-89161904D01*
X121430380Y-88876190D02*
X120430380Y-88876190D01*
X120573238Y-88971428D01*
X120668476Y-89066666D01*
X120716095Y-89161904D01*
X120525619Y-88209523D02*
X120478000Y-88161904D01*
X120430380Y-88066666D01*
X120430380Y-87828571D01*
X120478000Y-87733333D01*
X120525619Y-87685714D01*
X120620857Y-87638095D01*
X120716095Y-87638095D01*
X120858952Y-87685714D01*
X121430380Y-88257142D01*
X121430380Y-87638095D01*
X119149904Y-97734380D02*
X119149904Y-96734380D01*
X119388000Y-96734380D01*
X119530857Y-96782000D01*
X119626095Y-96877238D01*
X119673714Y-96972476D01*
X119721333Y-97162952D01*
X119721333Y-97305809D01*
X119673714Y-97496285D01*
X119626095Y-97591523D01*
X119530857Y-97686761D01*
X119388000Y-97734380D01*
X119149904Y-97734380D01*
X120102285Y-96829619D02*
X120149904Y-96782000D01*
X120245142Y-96734380D01*
X120483238Y-96734380D01*
X120578476Y-96782000D01*
X120626095Y-96829619D01*
X120673714Y-96924857D01*
X120673714Y-97020095D01*
X120626095Y-97162952D01*
X120054666Y-97734380D01*
X120673714Y-97734380D01*
X145391142Y-84748666D02*
X145438761Y-84796285D01*
X145486380Y-84939142D01*
X145486380Y-85034380D01*
X145438761Y-85177238D01*
X145343523Y-85272476D01*
X145248285Y-85320095D01*
X145057809Y-85367714D01*
X144914952Y-85367714D01*
X144724476Y-85320095D01*
X144629238Y-85272476D01*
X144534000Y-85177238D01*
X144486380Y-85034380D01*
X144486380Y-84939142D01*
X144534000Y-84796285D01*
X144581619Y-84748666D01*
X144819714Y-83891523D02*
X145486380Y-83891523D01*
X144438761Y-84129619D02*
X145153047Y-84367714D01*
X145153047Y-83748666D01*
X125753904Y-93924380D02*
X125753904Y-92924380D01*
X125992000Y-92924380D01*
X126134857Y-92972000D01*
X126230095Y-93067238D01*
X126277714Y-93162476D01*
X126325333Y-93352952D01*
X126325333Y-93495809D01*
X126277714Y-93686285D01*
X126230095Y-93781523D01*
X126134857Y-93876761D01*
X125992000Y-93924380D01*
X125753904Y-93924380D01*
X126658666Y-92924380D02*
X127277714Y-92924380D01*
X126944380Y-93305333D01*
X127087238Y-93305333D01*
X127182476Y-93352952D01*
X127230095Y-93400571D01*
X127277714Y-93495809D01*
X127277714Y-93733904D01*
X127230095Y-93829142D01*
X127182476Y-93876761D01*
X127087238Y-93924380D01*
X126801523Y-93924380D01*
X126706285Y-93876761D01*
X126658666Y-93829142D01*
X137318761Y-94273619D02*
X137223523Y-94226000D01*
X137128285Y-94130761D01*
X136985428Y-93987904D01*
X136890190Y-93940285D01*
X136794952Y-93940285D01*
X136842571Y-94178380D02*
X136747333Y-94130761D01*
X136652095Y-94035523D01*
X136604476Y-93845047D01*
X136604476Y-93511714D01*
X136652095Y-93321238D01*
X136747333Y-93226000D01*
X136842571Y-93178380D01*
X137033047Y-93178380D01*
X137128285Y-93226000D01*
X137223523Y-93321238D01*
X137271142Y-93511714D01*
X137271142Y-93845047D01*
X137223523Y-94035523D01*
X137128285Y-94130761D01*
X137033047Y-94178380D01*
X136842571Y-94178380D01*
X137652095Y-93273619D02*
X137699714Y-93226000D01*
X137794952Y-93178380D01*
X138033047Y-93178380D01*
X138128285Y-93226000D01*
X138175904Y-93273619D01*
X138223523Y-93368857D01*
X138223523Y-93464095D01*
X138175904Y-93606952D01*
X137604476Y-94178380D01*
X138223523Y-94178380D01*
X148963142Y-71826380D02*
X148629809Y-71350190D01*
X148391714Y-71826380D02*
X148391714Y-70826380D01*
X148772666Y-70826380D01*
X148867904Y-70874000D01*
X148915523Y-70921619D01*
X148963142Y-71016857D01*
X148963142Y-71159714D01*
X148915523Y-71254952D01*
X148867904Y-71302571D01*
X148772666Y-71350190D01*
X148391714Y-71350190D01*
X149915523Y-71826380D02*
X149344095Y-71826380D01*
X149629809Y-71826380D02*
X149629809Y-70826380D01*
X149534571Y-70969238D01*
X149439333Y-71064476D01*
X149344095Y-71112095D01*
X150772666Y-70826380D02*
X150582190Y-70826380D01*
X150486952Y-70874000D01*
X150439333Y-70921619D01*
X150344095Y-71064476D01*
X150296476Y-71254952D01*
X150296476Y-71635904D01*
X150344095Y-71731142D01*
X150391714Y-71778761D01*
X150486952Y-71826380D01*
X150677428Y-71826380D01*
X150772666Y-71778761D01*
X150820285Y-71731142D01*
X150867904Y-71635904D01*
X150867904Y-71397809D01*
X150820285Y-71302571D01*
X150772666Y-71254952D01*
X150677428Y-71207333D01*
X150486952Y-71207333D01*
X150391714Y-71254952D01*
X150344095Y-71302571D01*
X150296476Y-71397809D01*
X134707333Y-68270380D02*
X134374000Y-67794190D01*
X134135904Y-68270380D02*
X134135904Y-67270380D01*
X134516857Y-67270380D01*
X134612095Y-67318000D01*
X134659714Y-67365619D01*
X134707333Y-67460857D01*
X134707333Y-67603714D01*
X134659714Y-67698952D01*
X134612095Y-67746571D01*
X134516857Y-67794190D01*
X134135904Y-67794190D01*
X135659714Y-68270380D02*
X135088285Y-68270380D01*
X135374000Y-68270380D02*
X135374000Y-67270380D01*
X135278761Y-67413238D01*
X135183523Y-67508476D01*
X135088285Y-67556095D01*
X156329142Y-85034380D02*
X155995809Y-84558190D01*
X155757714Y-85034380D02*
X155757714Y-84034380D01*
X156138666Y-84034380D01*
X156233904Y-84082000D01*
X156281523Y-84129619D01*
X156329142Y-84224857D01*
X156329142Y-84367714D01*
X156281523Y-84462952D01*
X156233904Y-84510571D01*
X156138666Y-84558190D01*
X155757714Y-84558190D01*
X157281523Y-85034380D02*
X156710095Y-85034380D01*
X156995809Y-85034380D02*
X156995809Y-84034380D01*
X156900571Y-84177238D01*
X156805333Y-84272476D01*
X156710095Y-84320095D01*
X157757714Y-85034380D02*
X157948190Y-85034380D01*
X158043428Y-84986761D01*
X158091047Y-84939142D01*
X158186285Y-84796285D01*
X158233904Y-84605809D01*
X158233904Y-84224857D01*
X158186285Y-84129619D01*
X158138666Y-84082000D01*
X158043428Y-84034380D01*
X157852952Y-84034380D01*
X157757714Y-84082000D01*
X157710095Y-84129619D01*
X157662476Y-84224857D01*
X157662476Y-84462952D01*
X157710095Y-84558190D01*
X157757714Y-84605809D01*
X157852952Y-84653428D01*
X158043428Y-84653428D01*
X158138666Y-84605809D01*
X158186285Y-84558190D01*
X158233904Y-84462952D01*
X155821142Y-88844380D02*
X155487809Y-88368190D01*
X155249714Y-88844380D02*
X155249714Y-87844380D01*
X155630666Y-87844380D01*
X155725904Y-87892000D01*
X155773523Y-87939619D01*
X155821142Y-88034857D01*
X155821142Y-88177714D01*
X155773523Y-88272952D01*
X155725904Y-88320571D01*
X155630666Y-88368190D01*
X155249714Y-88368190D01*
X156154476Y-87844380D02*
X156773523Y-87844380D01*
X156440190Y-88225333D01*
X156583047Y-88225333D01*
X156678285Y-88272952D01*
X156725904Y-88320571D01*
X156773523Y-88415809D01*
X156773523Y-88653904D01*
X156725904Y-88749142D01*
X156678285Y-88796761D01*
X156583047Y-88844380D01*
X156297333Y-88844380D01*
X156202095Y-88796761D01*
X156154476Y-88749142D01*
X157630666Y-88177714D02*
X157630666Y-88844380D01*
X157392571Y-87796761D02*
X157154476Y-88511047D01*
X157773523Y-88511047D01*
X162504380Y-102084095D02*
X161504380Y-102084095D01*
X161504380Y-101846000D01*
X161552000Y-101703142D01*
X161647238Y-101607904D01*
X161742476Y-101560285D01*
X161932952Y-101512666D01*
X162075809Y-101512666D01*
X162266285Y-101560285D01*
X162361523Y-101607904D01*
X162456761Y-101703142D01*
X162504380Y-101846000D01*
X162504380Y-102084095D01*
X161504380Y-101179333D02*
X161504380Y-100512666D01*
X162504380Y-100941238D01*
X161996380Y-97162857D02*
X161520190Y-97496190D01*
X161996380Y-97734285D02*
X160996380Y-97734285D01*
X160996380Y-97353333D01*
X161044000Y-97258095D01*
X161091619Y-97210476D01*
X161186857Y-97162857D01*
X161329714Y-97162857D01*
X161424952Y-97210476D01*
X161472571Y-97258095D01*
X161520190Y-97353333D01*
X161520190Y-97734285D01*
X161996380Y-96210476D02*
X161996380Y-96781904D01*
X161996380Y-96496190D02*
X160996380Y-96496190D01*
X161139238Y-96591428D01*
X161234476Y-96686666D01*
X161282095Y-96781904D01*
X160996380Y-95877142D02*
X160996380Y-95210476D01*
X161996380Y-95639047D01*
X156329142Y-69668380D02*
X155995809Y-69192190D01*
X155757714Y-69668380D02*
X155757714Y-68668380D01*
X156138666Y-68668380D01*
X156233904Y-68716000D01*
X156281523Y-68763619D01*
X156329142Y-68858857D01*
X156329142Y-69001714D01*
X156281523Y-69096952D01*
X156233904Y-69144571D01*
X156138666Y-69192190D01*
X155757714Y-69192190D01*
X157281523Y-69668380D02*
X156710095Y-69668380D01*
X156995809Y-69668380D02*
X156995809Y-68668380D01*
X156900571Y-68811238D01*
X156805333Y-68906476D01*
X156710095Y-68954095D01*
X157662476Y-68763619D02*
X157710095Y-68716000D01*
X157805333Y-68668380D01*
X158043428Y-68668380D01*
X158138666Y-68716000D01*
X158186285Y-68763619D01*
X158233904Y-68858857D01*
X158233904Y-68954095D01*
X158186285Y-69096952D01*
X157614857Y-69668380D01*
X158233904Y-69668380D01*
X136517142Y-85542380D02*
X136183809Y-85066190D01*
X135945714Y-85542380D02*
X135945714Y-84542380D01*
X136326666Y-84542380D01*
X136421904Y-84590000D01*
X136469523Y-84637619D01*
X136517142Y-84732857D01*
X136517142Y-84875714D01*
X136469523Y-84970952D01*
X136421904Y-85018571D01*
X136326666Y-85066190D01*
X135945714Y-85066190D01*
X136898095Y-84637619D02*
X136945714Y-84590000D01*
X137040952Y-84542380D01*
X137279047Y-84542380D01*
X137374285Y-84590000D01*
X137421904Y-84637619D01*
X137469523Y-84732857D01*
X137469523Y-84828095D01*
X137421904Y-84970952D01*
X136850476Y-85542380D01*
X137469523Y-85542380D01*
X138374285Y-84542380D02*
X137898095Y-84542380D01*
X137850476Y-85018571D01*
X137898095Y-84970952D01*
X137993333Y-84923333D01*
X138231428Y-84923333D01*
X138326666Y-84970952D01*
X138374285Y-85018571D01*
X138421904Y-85113809D01*
X138421904Y-85351904D01*
X138374285Y-85447142D01*
X138326666Y-85494761D01*
X138231428Y-85542380D01*
X137993333Y-85542380D01*
X137898095Y-85494761D01*
X137850476Y-85447142D01*
X140041333Y-82169142D02*
X139993714Y-82216761D01*
X139850857Y-82264380D01*
X139755619Y-82264380D01*
X139612761Y-82216761D01*
X139517523Y-82121523D01*
X139469904Y-82026285D01*
X139422285Y-81835809D01*
X139422285Y-81692952D01*
X139469904Y-81502476D01*
X139517523Y-81407238D01*
X139612761Y-81312000D01*
X139755619Y-81264380D01*
X139850857Y-81264380D01*
X139993714Y-81312000D01*
X140041333Y-81359619D01*
X140898476Y-81264380D02*
X140708000Y-81264380D01*
X140612761Y-81312000D01*
X140565142Y-81359619D01*
X140469904Y-81502476D01*
X140422285Y-81692952D01*
X140422285Y-82073904D01*
X140469904Y-82169142D01*
X140517523Y-82216761D01*
X140612761Y-82264380D01*
X140803238Y-82264380D01*
X140898476Y-82216761D01*
X140946095Y-82169142D01*
X140993714Y-82073904D01*
X140993714Y-81835809D01*
X140946095Y-81740571D01*
X140898476Y-81692952D01*
X140803238Y-81645333D01*
X140612761Y-81645333D01*
X140517523Y-81692952D01*
X140469904Y-81740571D01*
X140422285Y-81835809D01*
X132357904Y-94432380D02*
X132357904Y-93432380D01*
X132596000Y-93432380D01*
X132738857Y-93480000D01*
X132834095Y-93575238D01*
X132881714Y-93670476D01*
X132929333Y-93860952D01*
X132929333Y-94003809D01*
X132881714Y-94194285D01*
X132834095Y-94289523D01*
X132738857Y-94384761D01*
X132596000Y-94432380D01*
X132357904Y-94432380D01*
X133881714Y-94432380D02*
X133310285Y-94432380D01*
X133596000Y-94432380D02*
X133596000Y-93432380D01*
X133500761Y-93575238D01*
X133405523Y-93670476D01*
X133310285Y-93718095D01*
X150018761Y-82589619D02*
X149923523Y-82542000D01*
X149828285Y-82446761D01*
X149685428Y-82303904D01*
X149590190Y-82256285D01*
X149494952Y-82256285D01*
X149542571Y-82494380D02*
X149447333Y-82446761D01*
X149352095Y-82351523D01*
X149304476Y-82161047D01*
X149304476Y-81827714D01*
X149352095Y-81637238D01*
X149447333Y-81542000D01*
X149542571Y-81494380D01*
X149733047Y-81494380D01*
X149828285Y-81542000D01*
X149923523Y-81637238D01*
X149971142Y-81827714D01*
X149971142Y-82161047D01*
X149923523Y-82351523D01*
X149828285Y-82446761D01*
X149733047Y-82494380D01*
X149542571Y-82494380D01*
X150828285Y-81494380D02*
X150637809Y-81494380D01*
X150542571Y-81542000D01*
X150494952Y-81589619D01*
X150399714Y-81732476D01*
X150352095Y-81922952D01*
X150352095Y-82303904D01*
X150399714Y-82399142D01*
X150447333Y-82446761D01*
X150542571Y-82494380D01*
X150733047Y-82494380D01*
X150828285Y-82446761D01*
X150875904Y-82399142D01*
X150923523Y-82303904D01*
X150923523Y-82065809D01*
X150875904Y-81970571D01*
X150828285Y-81922952D01*
X150733047Y-81875333D01*
X150542571Y-81875333D01*
X150447333Y-81922952D01*
X150399714Y-81970571D01*
X150352095Y-82065809D01*
X155567142Y-51380380D02*
X155233809Y-50904190D01*
X154995714Y-51380380D02*
X154995714Y-50380380D01*
X155376666Y-50380380D01*
X155471904Y-50428000D01*
X155519523Y-50475619D01*
X155567142Y-50570857D01*
X155567142Y-50713714D01*
X155519523Y-50808952D01*
X155471904Y-50856571D01*
X155376666Y-50904190D01*
X154995714Y-50904190D01*
X156519523Y-51380380D02*
X155948095Y-51380380D01*
X156233809Y-51380380D02*
X156233809Y-50380380D01*
X156138571Y-50523238D01*
X156043333Y-50618476D01*
X155948095Y-50666095D01*
X156852857Y-50380380D02*
X157471904Y-50380380D01*
X157138571Y-50761333D01*
X157281428Y-50761333D01*
X157376666Y-50808952D01*
X157424285Y-50856571D01*
X157471904Y-50951809D01*
X157471904Y-51189904D01*
X157424285Y-51285142D01*
X157376666Y-51332761D01*
X157281428Y-51380380D01*
X156995714Y-51380380D01*
X156900476Y-51332761D01*
X156852857Y-51285142D01*
X140581142Y-93544380D02*
X140247809Y-93068190D01*
X140009714Y-93544380D02*
X140009714Y-92544380D01*
X140390666Y-92544380D01*
X140485904Y-92592000D01*
X140533523Y-92639619D01*
X140581142Y-92734857D01*
X140581142Y-92877714D01*
X140533523Y-92972952D01*
X140485904Y-93020571D01*
X140390666Y-93068190D01*
X140009714Y-93068190D01*
X141533523Y-93544380D02*
X140962095Y-93544380D01*
X141247809Y-93544380D02*
X141247809Y-92544380D01*
X141152571Y-92687238D01*
X141057333Y-92782476D01*
X140962095Y-92830095D01*
X142152571Y-92544380D02*
X142247809Y-92544380D01*
X142343047Y-92592000D01*
X142390666Y-92639619D01*
X142438285Y-92734857D01*
X142485904Y-92925333D01*
X142485904Y-93163428D01*
X142438285Y-93353904D01*
X142390666Y-93449142D01*
X142343047Y-93496761D01*
X142247809Y-93544380D01*
X142152571Y-93544380D01*
X142057333Y-93496761D01*
X142009714Y-93449142D01*
X141962095Y-93353904D01*
X141914476Y-93163428D01*
X141914476Y-92925333D01*
X141962095Y-92734857D01*
X142009714Y-92639619D01*
X142057333Y-92592000D01*
X142152571Y-92544380D01*
X110671142Y-92016619D02*
X110718761Y-92064238D01*
X110766380Y-92207095D01*
X110766380Y-92302333D01*
X110718761Y-92445190D01*
X110623523Y-92540428D01*
X110528285Y-92588047D01*
X110337809Y-92635666D01*
X110194952Y-92635666D01*
X110004476Y-92588047D01*
X109909238Y-92540428D01*
X109814000Y-92445190D01*
X109766380Y-92302333D01*
X109766380Y-92207095D01*
X109814000Y-92064238D01*
X109861619Y-92016619D01*
X109766380Y-91397571D02*
X109766380Y-91207095D01*
X109814000Y-91111857D01*
X109909238Y-91016619D01*
X110099714Y-90969000D01*
X110433047Y-90969000D01*
X110623523Y-91016619D01*
X110718761Y-91111857D01*
X110766380Y-91207095D01*
X110766380Y-91397571D01*
X110718761Y-91492809D01*
X110623523Y-91588047D01*
X110433047Y-91635666D01*
X110099714Y-91635666D01*
X109909238Y-91588047D01*
X109814000Y-91492809D01*
X109766380Y-91397571D01*
X109766380Y-90540428D02*
X110575904Y-90540428D01*
X110671142Y-90492809D01*
X110718761Y-90445190D01*
X110766380Y-90349952D01*
X110766380Y-90159476D01*
X110718761Y-90064238D01*
X110671142Y-90016619D01*
X110575904Y-89969000D01*
X109766380Y-89969000D01*
X109766380Y-89635666D02*
X109766380Y-89064238D01*
X110766380Y-89349952D02*
X109766380Y-89349952D01*
X110766380Y-88207095D02*
X110766380Y-88778523D01*
X110766380Y-88492809D02*
X109766380Y-88492809D01*
X109909238Y-88588047D01*
X110004476Y-88683285D01*
X110052095Y-88778523D01*
X109766380Y-87588047D02*
X109766380Y-87492809D01*
X109814000Y-87397571D01*
X109861619Y-87349952D01*
X109956857Y-87302333D01*
X110147333Y-87254714D01*
X110385428Y-87254714D01*
X110575904Y-87302333D01*
X110671142Y-87349952D01*
X110718761Y-87397571D01*
X110766380Y-87492809D01*
X110766380Y-87588047D01*
X110718761Y-87683285D01*
X110671142Y-87730904D01*
X110575904Y-87778523D01*
X110385428Y-87826142D01*
X110147333Y-87826142D01*
X109956857Y-87778523D01*
X109861619Y-87730904D01*
X109814000Y-87683285D01*
X109766380Y-87588047D01*
X109861619Y-86873761D02*
X109814000Y-86826142D01*
X109766380Y-86730904D01*
X109766380Y-86492809D01*
X109814000Y-86397571D01*
X109861619Y-86349952D01*
X109956857Y-86302333D01*
X110052095Y-86302333D01*
X110194952Y-86349952D01*
X110766380Y-86921380D01*
X110766380Y-86302333D01*
X120356285Y-76290428D02*
X120384857Y-76319000D01*
X120413428Y-76404714D01*
X120413428Y-76461857D01*
X120384857Y-76547571D01*
X120327714Y-76604714D01*
X120270571Y-76633285D01*
X120156285Y-76661857D01*
X120070571Y-76661857D01*
X119956285Y-76633285D01*
X119899142Y-76604714D01*
X119842000Y-76547571D01*
X119813428Y-76461857D01*
X119813428Y-76404714D01*
X119842000Y-76319000D01*
X119870571Y-76290428D01*
X120413428Y-75719000D02*
X120413428Y-76061857D01*
X120413428Y-75890428D02*
X119813428Y-75890428D01*
X119899142Y-75947571D01*
X119956285Y-76004714D01*
X119984857Y-76061857D01*
X119813428Y-75347571D02*
X119813428Y-75290428D01*
X119842000Y-75233285D01*
X119870571Y-75204714D01*
X119927714Y-75176142D01*
X120042000Y-75147571D01*
X120184857Y-75147571D01*
X120299142Y-75176142D01*
X120356285Y-75204714D01*
X120384857Y-75233285D01*
X120413428Y-75290428D01*
X120413428Y-75347571D01*
X120384857Y-75404714D01*
X120356285Y-75433285D01*
X120299142Y-75461857D01*
X120184857Y-75490428D01*
X120042000Y-75490428D01*
X119927714Y-75461857D01*
X119870571Y-75433285D01*
X119842000Y-75404714D01*
X119813428Y-75347571D01*
X119813428Y-74947571D02*
X119813428Y-74576142D01*
X120042000Y-74776142D01*
X120042000Y-74690428D01*
X120070571Y-74633285D01*
X120099142Y-74604714D01*
X120156285Y-74576142D01*
X120299142Y-74576142D01*
X120356285Y-74604714D01*
X120384857Y-74633285D01*
X120413428Y-74690428D01*
X120413428Y-74861857D01*
X120384857Y-74919000D01*
X120356285Y-74947571D01*
X111792571Y-68304714D02*
X111792571Y-68638047D01*
X112316380Y-68638047D02*
X111316380Y-68638047D01*
X111316380Y-68161857D01*
X112316380Y-67257095D02*
X112316380Y-67828523D01*
X112316380Y-67542809D02*
X111316380Y-67542809D01*
X111459238Y-67638047D01*
X111554476Y-67733285D01*
X111602095Y-67828523D01*
X111316380Y-66638047D02*
X111316380Y-66542809D01*
X111364000Y-66447571D01*
X111411619Y-66399952D01*
X111506857Y-66352333D01*
X111697333Y-66304714D01*
X111935428Y-66304714D01*
X112125904Y-66352333D01*
X112221142Y-66399952D01*
X112268761Y-66447571D01*
X112316380Y-66542809D01*
X112316380Y-66638047D01*
X112268761Y-66733285D01*
X112221142Y-66780904D01*
X112125904Y-66828523D01*
X111935428Y-66876142D01*
X111697333Y-66876142D01*
X111506857Y-66828523D01*
X111411619Y-66780904D01*
X111364000Y-66733285D01*
X111316380Y-66638047D01*
X112316380Y-65352333D02*
X112316380Y-65923761D01*
X112316380Y-65638047D02*
X111316380Y-65638047D01*
X111459238Y-65733285D01*
X111554476Y-65828523D01*
X111602095Y-65923761D01*
X113194952Y-72646380D02*
X112718761Y-72646380D01*
X112718761Y-71646380D01*
X114052095Y-72646380D02*
X113480666Y-72646380D01*
X113766380Y-72646380D02*
X113766380Y-71646380D01*
X113671142Y-71789238D01*
X113575904Y-71884476D01*
X113480666Y-71932095D01*
X114671142Y-71646380D02*
X114766380Y-71646380D01*
X114861619Y-71694000D01*
X114909238Y-71741619D01*
X114956857Y-71836857D01*
X115004476Y-72027333D01*
X115004476Y-72265428D01*
X114956857Y-72455904D01*
X114909238Y-72551142D01*
X114861619Y-72598761D01*
X114766380Y-72646380D01*
X114671142Y-72646380D01*
X114575904Y-72598761D01*
X114528285Y-72551142D01*
X114480666Y-72455904D01*
X114433047Y-72265428D01*
X114433047Y-72027333D01*
X114480666Y-71836857D01*
X114528285Y-71741619D01*
X114575904Y-71694000D01*
X114671142Y-71646380D01*
X115956857Y-72646380D02*
X115385428Y-72646380D01*
X115671142Y-72646380D02*
X115671142Y-71646380D01*
X115575904Y-71789238D01*
X115480666Y-71884476D01*
X115385428Y-71932095D01*
X123340952Y-74366380D02*
X123007619Y-73890190D01*
X122769523Y-74366380D02*
X122769523Y-73366380D01*
X123150476Y-73366380D01*
X123245714Y-73414000D01*
X123293333Y-73461619D01*
X123340952Y-73556857D01*
X123340952Y-73699714D01*
X123293333Y-73794952D01*
X123245714Y-73842571D01*
X123150476Y-73890190D01*
X122769523Y-73890190D01*
X124293333Y-74366380D02*
X123721904Y-74366380D01*
X124007619Y-74366380D02*
X124007619Y-73366380D01*
X123912380Y-73509238D01*
X123817142Y-73604476D01*
X123721904Y-73652095D01*
X124912380Y-73366380D02*
X125007619Y-73366380D01*
X125102857Y-73414000D01*
X125150476Y-73461619D01*
X125198095Y-73556857D01*
X125245714Y-73747333D01*
X125245714Y-73985428D01*
X125198095Y-74175904D01*
X125150476Y-74271142D01*
X125102857Y-74318761D01*
X125007619Y-74366380D01*
X124912380Y-74366380D01*
X124817142Y-74318761D01*
X124769523Y-74271142D01*
X124721904Y-74175904D01*
X124674285Y-73985428D01*
X124674285Y-73747333D01*
X124721904Y-73556857D01*
X124769523Y-73461619D01*
X124817142Y-73414000D01*
X124912380Y-73366380D01*
X125579047Y-73366380D02*
X126198095Y-73366380D01*
X125864761Y-73747333D01*
X126007619Y-73747333D01*
X126102857Y-73794952D01*
X126150476Y-73842571D01*
X126198095Y-73937809D01*
X126198095Y-74175904D01*
X126150476Y-74271142D01*
X126102857Y-74318761D01*
X126007619Y-74366380D01*
X125721904Y-74366380D01*
X125626666Y-74318761D01*
X125579047Y-74271142D01*
X123606432Y-71621380D02*
X123273099Y-71145190D01*
X123035003Y-71621380D02*
X123035003Y-70621380D01*
X123415956Y-70621380D01*
X123511194Y-70669000D01*
X123558813Y-70716619D01*
X123606432Y-70811857D01*
X123606432Y-70954714D01*
X123558813Y-71049952D01*
X123511194Y-71097571D01*
X123415956Y-71145190D01*
X123035003Y-71145190D01*
X124558813Y-71621380D02*
X123987384Y-71621380D01*
X124273099Y-71621380D02*
X124273099Y-70621380D01*
X124177860Y-70764238D01*
X124082622Y-70859476D01*
X123987384Y-70907095D01*
X125177860Y-70621380D02*
X125273099Y-70621380D01*
X125368337Y-70669000D01*
X125415956Y-70716619D01*
X125463575Y-70811857D01*
X125511194Y-71002333D01*
X125511194Y-71240428D01*
X125463575Y-71430904D01*
X125415956Y-71526142D01*
X125368337Y-71573761D01*
X125273099Y-71621380D01*
X125177860Y-71621380D01*
X125082622Y-71573761D01*
X125035003Y-71526142D01*
X124987384Y-71430904D01*
X124939765Y-71240428D01*
X124939765Y-71002333D01*
X124987384Y-70811857D01*
X125035003Y-70716619D01*
X125082622Y-70669000D01*
X125177860Y-70621380D01*
X125892146Y-70716619D02*
X125939765Y-70669000D01*
X126035003Y-70621380D01*
X126273099Y-70621380D01*
X126368337Y-70669000D01*
X126415956Y-70716619D01*
X126463575Y-70811857D01*
X126463575Y-70907095D01*
X126415956Y-71049952D01*
X125844527Y-71621380D01*
X126463575Y-71621380D01*
X107066380Y-75838047D02*
X106590190Y-76171380D01*
X107066380Y-76409476D02*
X106066380Y-76409476D01*
X106066380Y-76028523D01*
X106114000Y-75933285D01*
X106161619Y-75885666D01*
X106256857Y-75838047D01*
X106399714Y-75838047D01*
X106494952Y-75885666D01*
X106542571Y-75933285D01*
X106590190Y-76028523D01*
X106590190Y-76409476D01*
X107066380Y-74885666D02*
X107066380Y-75457095D01*
X107066380Y-75171380D02*
X106066380Y-75171380D01*
X106209238Y-75266619D01*
X106304476Y-75361857D01*
X106352095Y-75457095D01*
X106066380Y-74266619D02*
X106066380Y-74171380D01*
X106114000Y-74076142D01*
X106161619Y-74028523D01*
X106256857Y-73980904D01*
X106447333Y-73933285D01*
X106685428Y-73933285D01*
X106875904Y-73980904D01*
X106971142Y-74028523D01*
X107018761Y-74076142D01*
X107066380Y-74171380D01*
X107066380Y-74266619D01*
X107018761Y-74361857D01*
X106971142Y-74409476D01*
X106875904Y-74457095D01*
X106685428Y-74504714D01*
X106447333Y-74504714D01*
X106256857Y-74457095D01*
X106161619Y-74409476D01*
X106114000Y-74361857D01*
X106066380Y-74266619D01*
X106066380Y-73028523D02*
X106066380Y-73504714D01*
X106542571Y-73552333D01*
X106494952Y-73504714D01*
X106447333Y-73409476D01*
X106447333Y-73171380D01*
X106494952Y-73076142D01*
X106542571Y-73028523D01*
X106637809Y-72980904D01*
X106875904Y-72980904D01*
X106971142Y-73028523D01*
X107018761Y-73076142D01*
X107066380Y-73171380D01*
X107066380Y-73409476D01*
X107018761Y-73504714D01*
X106971142Y-73552333D01*
X110804220Y-79944447D02*
X110328030Y-80277780D01*
X110804220Y-80515876D02*
X109804220Y-80515876D01*
X109804220Y-80134923D01*
X109851840Y-80039685D01*
X109899459Y-79992066D01*
X109994697Y-79944447D01*
X110137554Y-79944447D01*
X110232792Y-79992066D01*
X110280411Y-80039685D01*
X110328030Y-80134923D01*
X110328030Y-80515876D01*
X110804220Y-78992066D02*
X110804220Y-79563495D01*
X110804220Y-79277780D02*
X109804220Y-79277780D01*
X109947078Y-79373019D01*
X110042316Y-79468257D01*
X110089935Y-79563495D01*
X109804220Y-78373019D02*
X109804220Y-78277780D01*
X109851840Y-78182542D01*
X109899459Y-78134923D01*
X109994697Y-78087304D01*
X110185173Y-78039685D01*
X110423268Y-78039685D01*
X110613744Y-78087304D01*
X110708982Y-78134923D01*
X110756601Y-78182542D01*
X110804220Y-78277780D01*
X110804220Y-78373019D01*
X110756601Y-78468257D01*
X110708982Y-78515876D01*
X110613744Y-78563495D01*
X110423268Y-78611114D01*
X110185173Y-78611114D01*
X109994697Y-78563495D01*
X109899459Y-78515876D01*
X109851840Y-78468257D01*
X109804220Y-78373019D01*
X110137554Y-77182542D02*
X110804220Y-77182542D01*
X109756601Y-77420638D02*
X110470887Y-77658733D01*
X110470887Y-77039685D01*
X117071142Y-88266619D02*
X117118761Y-88314238D01*
X117166380Y-88457095D01*
X117166380Y-88552333D01*
X117118761Y-88695190D01*
X117023523Y-88790428D01*
X116928285Y-88838047D01*
X116737809Y-88885666D01*
X116594952Y-88885666D01*
X116404476Y-88838047D01*
X116309238Y-88790428D01*
X116214000Y-88695190D01*
X116166380Y-88552333D01*
X116166380Y-88457095D01*
X116214000Y-88314238D01*
X116261619Y-88266619D01*
X116166380Y-87647571D02*
X116166380Y-87457095D01*
X116214000Y-87361857D01*
X116309238Y-87266619D01*
X116499714Y-87219000D01*
X116833047Y-87219000D01*
X117023523Y-87266619D01*
X117118761Y-87361857D01*
X117166380Y-87457095D01*
X117166380Y-87647571D01*
X117118761Y-87742809D01*
X117023523Y-87838047D01*
X116833047Y-87885666D01*
X116499714Y-87885666D01*
X116309238Y-87838047D01*
X116214000Y-87742809D01*
X116166380Y-87647571D01*
X116166380Y-86790428D02*
X116975904Y-86790428D01*
X117071142Y-86742809D01*
X117118761Y-86695190D01*
X117166380Y-86599952D01*
X117166380Y-86409476D01*
X117118761Y-86314238D01*
X117071142Y-86266619D01*
X116975904Y-86219000D01*
X116166380Y-86219000D01*
X116166380Y-85885666D02*
X116166380Y-85314238D01*
X117166380Y-85599952D02*
X116166380Y-85599952D01*
X117166380Y-84457095D02*
X117166380Y-85028523D01*
X117166380Y-84742809D02*
X116166380Y-84742809D01*
X116309238Y-84838047D01*
X116404476Y-84933285D01*
X116452095Y-85028523D01*
X116166380Y-83838047D02*
X116166380Y-83742809D01*
X116214000Y-83647571D01*
X116261619Y-83599952D01*
X116356857Y-83552333D01*
X116547333Y-83504714D01*
X116785428Y-83504714D01*
X116975904Y-83552333D01*
X117071142Y-83599952D01*
X117118761Y-83647571D01*
X117166380Y-83742809D01*
X117166380Y-83838047D01*
X117118761Y-83933285D01*
X117071142Y-83980904D01*
X116975904Y-84028523D01*
X116785428Y-84076142D01*
X116547333Y-84076142D01*
X116356857Y-84028523D01*
X116261619Y-83980904D01*
X116214000Y-83933285D01*
X116166380Y-83838047D01*
X117166380Y-82552333D02*
X117166380Y-83123761D01*
X117166380Y-82838047D02*
X116166380Y-82838047D01*
X116309238Y-82933285D01*
X116404476Y-83028523D01*
X116452095Y-83123761D01*
X114721142Y-88041619D02*
X114768761Y-88089238D01*
X114816380Y-88232095D01*
X114816380Y-88327333D01*
X114768761Y-88470190D01*
X114673523Y-88565428D01*
X114578285Y-88613047D01*
X114387809Y-88660666D01*
X114244952Y-88660666D01*
X114054476Y-88613047D01*
X113959238Y-88565428D01*
X113864000Y-88470190D01*
X113816380Y-88327333D01*
X113816380Y-88232095D01*
X113864000Y-88089238D01*
X113911619Y-88041619D01*
X113816380Y-87422571D02*
X113816380Y-87232095D01*
X113864000Y-87136857D01*
X113959238Y-87041619D01*
X114149714Y-86994000D01*
X114483047Y-86994000D01*
X114673523Y-87041619D01*
X114768761Y-87136857D01*
X114816380Y-87232095D01*
X114816380Y-87422571D01*
X114768761Y-87517809D01*
X114673523Y-87613047D01*
X114483047Y-87660666D01*
X114149714Y-87660666D01*
X113959238Y-87613047D01*
X113864000Y-87517809D01*
X113816380Y-87422571D01*
X113816380Y-86565428D02*
X114625904Y-86565428D01*
X114721142Y-86517809D01*
X114768761Y-86470190D01*
X114816380Y-86374952D01*
X114816380Y-86184476D01*
X114768761Y-86089238D01*
X114721142Y-86041619D01*
X114625904Y-85994000D01*
X113816380Y-85994000D01*
X113816380Y-85660666D02*
X113816380Y-85089238D01*
X114816380Y-85374952D02*
X113816380Y-85374952D01*
X114816380Y-84232095D02*
X114816380Y-84803523D01*
X114816380Y-84517809D02*
X113816380Y-84517809D01*
X113959238Y-84613047D01*
X114054476Y-84708285D01*
X114102095Y-84803523D01*
X113816380Y-83613047D02*
X113816380Y-83517809D01*
X113864000Y-83422571D01*
X113911619Y-83374952D01*
X114006857Y-83327333D01*
X114197333Y-83279714D01*
X114435428Y-83279714D01*
X114625904Y-83327333D01*
X114721142Y-83374952D01*
X114768761Y-83422571D01*
X114816380Y-83517809D01*
X114816380Y-83613047D01*
X114768761Y-83708285D01*
X114721142Y-83755904D01*
X114625904Y-83803523D01*
X114435428Y-83851142D01*
X114197333Y-83851142D01*
X114006857Y-83803523D01*
X113911619Y-83755904D01*
X113864000Y-83708285D01*
X113816380Y-83613047D01*
X113816380Y-82946380D02*
X113816380Y-82327333D01*
X114197333Y-82660666D01*
X114197333Y-82517809D01*
X114244952Y-82422571D01*
X114292571Y-82374952D01*
X114387809Y-82327333D01*
X114625904Y-82327333D01*
X114721142Y-82374952D01*
X114768761Y-82422571D01*
X114816380Y-82517809D01*
X114816380Y-82803523D01*
X114768761Y-82898761D01*
X114721142Y-82946380D01*
X120298523Y-63171380D02*
X120298523Y-62171380D01*
X120536619Y-62171380D01*
X120679476Y-62219000D01*
X120774714Y-62314238D01*
X120822333Y-62409476D01*
X120869952Y-62599952D01*
X120869952Y-62742809D01*
X120822333Y-62933285D01*
X120774714Y-63028523D01*
X120679476Y-63123761D01*
X120536619Y-63171380D01*
X120298523Y-63171380D01*
X121822333Y-63171380D02*
X121250904Y-63171380D01*
X121536619Y-63171380D02*
X121536619Y-62171380D01*
X121441380Y-62314238D01*
X121346142Y-62409476D01*
X121250904Y-62457095D01*
X122441380Y-62171380D02*
X122536619Y-62171380D01*
X122631857Y-62219000D01*
X122679476Y-62266619D01*
X122727095Y-62361857D01*
X122774714Y-62552333D01*
X122774714Y-62790428D01*
X122727095Y-62980904D01*
X122679476Y-63076142D01*
X122631857Y-63123761D01*
X122536619Y-63171380D01*
X122441380Y-63171380D01*
X122346142Y-63123761D01*
X122298523Y-63076142D01*
X122250904Y-62980904D01*
X122203285Y-62790428D01*
X122203285Y-62552333D01*
X122250904Y-62361857D01*
X122298523Y-62266619D01*
X122346142Y-62219000D01*
X122441380Y-62171380D01*
X123727095Y-63171380D02*
X123155666Y-63171380D01*
X123441380Y-63171380D02*
X123441380Y-62171380D01*
X123346142Y-62314238D01*
X123250904Y-62409476D01*
X123155666Y-62457095D01*
X103316380Y-75063047D02*
X103316380Y-75634476D01*
X103316380Y-75348761D02*
X102316380Y-75348761D01*
X102459238Y-75444000D01*
X102554476Y-75539238D01*
X102602095Y-75634476D01*
X102411619Y-74682095D02*
X102364000Y-74634476D01*
X102316380Y-74539238D01*
X102316380Y-74301142D01*
X102364000Y-74205904D01*
X102411619Y-74158285D01*
X102506857Y-74110666D01*
X102602095Y-74110666D01*
X102744952Y-74158285D01*
X103316380Y-74729714D01*
X103316380Y-74110666D01*
X102316380Y-73824952D02*
X103316380Y-73491619D01*
X102316380Y-73158285D01*
X123253523Y-57046380D02*
X122777333Y-57046380D01*
X122729714Y-57522571D01*
X122777333Y-57474952D01*
X122872571Y-57427333D01*
X123110666Y-57427333D01*
X123205904Y-57474952D01*
X123253523Y-57522571D01*
X123301142Y-57617809D01*
X123301142Y-57855904D01*
X123253523Y-57951142D01*
X123205904Y-57998761D01*
X123110666Y-58046380D01*
X122872571Y-58046380D01*
X122777333Y-57998761D01*
X122729714Y-57951142D01*
X123586857Y-57046380D02*
X123920190Y-58046380D01*
X124253523Y-57046380D01*
X111944952Y-57946380D02*
X111611619Y-57470190D01*
X111373523Y-57946380D02*
X111373523Y-56946380D01*
X111754476Y-56946380D01*
X111849714Y-56994000D01*
X111897333Y-57041619D01*
X111944952Y-57136857D01*
X111944952Y-57279714D01*
X111897333Y-57374952D01*
X111849714Y-57422571D01*
X111754476Y-57470190D01*
X111373523Y-57470190D01*
X112897333Y-57946380D02*
X112325904Y-57946380D01*
X112611619Y-57946380D02*
X112611619Y-56946380D01*
X112516380Y-57089238D01*
X112421142Y-57184476D01*
X112325904Y-57232095D01*
X113516380Y-56946380D02*
X113611619Y-56946380D01*
X113706857Y-56994000D01*
X113754476Y-57041619D01*
X113802095Y-57136857D01*
X113849714Y-57327333D01*
X113849714Y-57565428D01*
X113802095Y-57755904D01*
X113754476Y-57851142D01*
X113706857Y-57898761D01*
X113611619Y-57946380D01*
X113516380Y-57946380D01*
X113421142Y-57898761D01*
X113373523Y-57851142D01*
X113325904Y-57755904D01*
X113278285Y-57565428D01*
X113278285Y-57327333D01*
X113325904Y-57136857D01*
X113373523Y-57041619D01*
X113421142Y-56994000D01*
X113516380Y-56946380D01*
X114802095Y-57946380D02*
X114230666Y-57946380D01*
X114516380Y-57946380D02*
X114516380Y-56946380D01*
X114421142Y-57089238D01*
X114325904Y-57184476D01*
X114230666Y-57232095D01*
X121038952Y-67667142D02*
X120991333Y-67714761D01*
X120848476Y-67762380D01*
X120753238Y-67762380D01*
X120610380Y-67714761D01*
X120515142Y-67619523D01*
X120467523Y-67524285D01*
X120419904Y-67333809D01*
X120419904Y-67190952D01*
X120467523Y-67000476D01*
X120515142Y-66905238D01*
X120610380Y-66810000D01*
X120753238Y-66762380D01*
X120848476Y-66762380D01*
X120991333Y-66810000D01*
X121038952Y-66857619D01*
X121991333Y-67762380D02*
X121419904Y-67762380D01*
X121705619Y-67762380D02*
X121705619Y-66762380D01*
X121610380Y-66905238D01*
X121515142Y-67000476D01*
X121419904Y-67048095D01*
X122610380Y-66762380D02*
X122705619Y-66762380D01*
X122800857Y-66810000D01*
X122848476Y-66857619D01*
X122896095Y-66952857D01*
X122943714Y-67143333D01*
X122943714Y-67381428D01*
X122896095Y-67571904D01*
X122848476Y-67667142D01*
X122800857Y-67714761D01*
X122705619Y-67762380D01*
X122610380Y-67762380D01*
X122515142Y-67714761D01*
X122467523Y-67667142D01*
X122419904Y-67571904D01*
X122372285Y-67381428D01*
X122372285Y-67143333D01*
X122419904Y-66952857D01*
X122467523Y-66857619D01*
X122515142Y-66810000D01*
X122610380Y-66762380D01*
X123896095Y-67762380D02*
X123324666Y-67762380D01*
X123610380Y-67762380D02*
X123610380Y-66762380D01*
X123515142Y-66905238D01*
X123419904Y-67000476D01*
X123324666Y-67048095D01*
X120292952Y-69445142D02*
X120245333Y-69492761D01*
X120102476Y-69540380D01*
X120007238Y-69540380D01*
X119864380Y-69492761D01*
X119769142Y-69397523D01*
X119721523Y-69302285D01*
X119673904Y-69111809D01*
X119673904Y-68968952D01*
X119721523Y-68778476D01*
X119769142Y-68683238D01*
X119864380Y-68588000D01*
X120007238Y-68540380D01*
X120102476Y-68540380D01*
X120245333Y-68588000D01*
X120292952Y-68635619D01*
X121245333Y-69540380D02*
X120673904Y-69540380D01*
X120959619Y-69540380D02*
X120959619Y-68540380D01*
X120864380Y-68683238D01*
X120769142Y-68778476D01*
X120673904Y-68826095D01*
X121864380Y-68540380D02*
X121959619Y-68540380D01*
X122054857Y-68588000D01*
X122102476Y-68635619D01*
X122150095Y-68730857D01*
X122197714Y-68921333D01*
X122197714Y-69159428D01*
X122150095Y-69349904D01*
X122102476Y-69445142D01*
X122054857Y-69492761D01*
X121959619Y-69540380D01*
X121864380Y-69540380D01*
X121769142Y-69492761D01*
X121721523Y-69445142D01*
X121673904Y-69349904D01*
X121626285Y-69159428D01*
X121626285Y-68921333D01*
X121673904Y-68730857D01*
X121721523Y-68635619D01*
X121769142Y-68588000D01*
X121864380Y-68540380D01*
X122578666Y-68635619D02*
X122626285Y-68588000D01*
X122721523Y-68540380D01*
X122959619Y-68540380D01*
X123054857Y-68588000D01*
X123102476Y-68635619D01*
X123150095Y-68730857D01*
X123150095Y-68826095D01*
X123102476Y-68968952D01*
X122531047Y-69540380D01*
X123150095Y-69540380D01*
X116283914Y-74673980D02*
X116283914Y-75483504D01*
X116331533Y-75578742D01*
X116379152Y-75626361D01*
X116474390Y-75673980D01*
X116664866Y-75673980D01*
X116760104Y-75626361D01*
X116807723Y-75578742D01*
X116855342Y-75483504D01*
X116855342Y-74673980D01*
X117855342Y-75673980D02*
X117283914Y-75673980D01*
X117569628Y-75673980D02*
X117569628Y-74673980D01*
X117474390Y-74816838D01*
X117379152Y-74912076D01*
X117283914Y-74959695D01*
X118474390Y-74673980D02*
X118569628Y-74673980D01*
X118664866Y-74721600D01*
X118712485Y-74769219D01*
X118760104Y-74864457D01*
X118807723Y-75054933D01*
X118807723Y-75293028D01*
X118760104Y-75483504D01*
X118712485Y-75578742D01*
X118664866Y-75626361D01*
X118569628Y-75673980D01*
X118474390Y-75673980D01*
X118379152Y-75626361D01*
X118331533Y-75578742D01*
X118283914Y-75483504D01*
X118236295Y-75293028D01*
X118236295Y-75054933D01*
X118283914Y-74864457D01*
X118331533Y-74769219D01*
X118379152Y-74721600D01*
X118474390Y-74673980D01*
X119760104Y-75673980D02*
X119188676Y-75673980D01*
X119474390Y-75673980D02*
X119474390Y-74673980D01*
X119379152Y-74816838D01*
X119283914Y-74912076D01*
X119188676Y-74959695D01*
X159789904Y-56258380D02*
X159789904Y-55258380D01*
X160028000Y-55258380D01*
X160170857Y-55306000D01*
X160266095Y-55401238D01*
X160313714Y-55496476D01*
X160361333Y-55686952D01*
X160361333Y-55829809D01*
X160313714Y-56020285D01*
X160266095Y-56115523D01*
X160170857Y-56210761D01*
X160028000Y-56258380D01*
X159789904Y-56258380D01*
X161266095Y-55258380D02*
X160789904Y-55258380D01*
X160742285Y-55734571D01*
X160789904Y-55686952D01*
X160885142Y-55639333D01*
X161123238Y-55639333D01*
X161218476Y-55686952D01*
X161266095Y-55734571D01*
X161313714Y-55829809D01*
X161313714Y-56067904D01*
X161266095Y-56163142D01*
X161218476Y-56210761D01*
X161123238Y-56258380D01*
X160885142Y-56258380D01*
X160789904Y-56210761D01*
X160742285Y-56163142D01*
X160551904Y-71244380D02*
X160551904Y-70244380D01*
X160790000Y-70244380D01*
X160932857Y-70292000D01*
X161028095Y-70387238D01*
X161075714Y-70482476D01*
X161123333Y-70672952D01*
X161123333Y-70815809D01*
X161075714Y-71006285D01*
X161028095Y-71101523D01*
X160932857Y-71196761D01*
X160790000Y-71244380D01*
X160551904Y-71244380D01*
X161980476Y-70244380D02*
X161790000Y-70244380D01*
X161694761Y-70292000D01*
X161647142Y-70339619D01*
X161551904Y-70482476D01*
X161504285Y-70672952D01*
X161504285Y-71053904D01*
X161551904Y-71149142D01*
X161599523Y-71196761D01*
X161694761Y-71244380D01*
X161885238Y-71244380D01*
X161980476Y-71196761D01*
X162028095Y-71149142D01*
X162075714Y-71053904D01*
X162075714Y-70815809D01*
X162028095Y-70720571D01*
X161980476Y-70672952D01*
X161885238Y-70625333D01*
X161694761Y-70625333D01*
X161599523Y-70672952D01*
X161551904Y-70720571D01*
X161504285Y-70815809D01*
X160297904Y-86558380D02*
X160297904Y-85558380D01*
X160536000Y-85558380D01*
X160678857Y-85606000D01*
X160774095Y-85701238D01*
X160821714Y-85796476D01*
X160869333Y-85986952D01*
X160869333Y-86129809D01*
X160821714Y-86320285D01*
X160774095Y-86415523D01*
X160678857Y-86510761D01*
X160536000Y-86558380D01*
X160297904Y-86558380D01*
X161345523Y-86558380D02*
X161536000Y-86558380D01*
X161631238Y-86510761D01*
X161678857Y-86463142D01*
X161774095Y-86320285D01*
X161821714Y-86129809D01*
X161821714Y-85748857D01*
X161774095Y-85653619D01*
X161726476Y-85606000D01*
X161631238Y-85558380D01*
X161440761Y-85558380D01*
X161345523Y-85606000D01*
X161297904Y-85653619D01*
X161250285Y-85748857D01*
X161250285Y-85986952D01*
X161297904Y-86082190D01*
X161345523Y-86129809D01*
X161440761Y-86177428D01*
X161631238Y-86177428D01*
X161726476Y-86129809D01*
X161774095Y-86082190D01*
X161821714Y-85986952D01*
X159567714Y-93416380D02*
X159567714Y-92416380D01*
X159805809Y-92416380D01*
X159948666Y-92464000D01*
X160043904Y-92559238D01*
X160091523Y-92654476D01*
X160139142Y-92844952D01*
X160139142Y-92987809D01*
X160091523Y-93178285D01*
X160043904Y-93273523D01*
X159948666Y-93368761D01*
X159805809Y-93416380D01*
X159567714Y-93416380D01*
X161091523Y-93416380D02*
X160520095Y-93416380D01*
X160805809Y-93416380D02*
X160805809Y-92416380D01*
X160710571Y-92559238D01*
X160615333Y-92654476D01*
X160520095Y-92702095D01*
X161996285Y-92416380D02*
X161520095Y-92416380D01*
X161472476Y-92892571D01*
X161520095Y-92844952D01*
X161615333Y-92797333D01*
X161853428Y-92797333D01*
X161948666Y-92844952D01*
X161996285Y-92892571D01*
X162043904Y-92987809D01*
X162043904Y-93225904D01*
X161996285Y-93321142D01*
X161948666Y-93368761D01*
X161853428Y-93416380D01*
X161615333Y-93416380D01*
X161520095Y-93368761D01*
X161472476Y-93321142D01*
X159567714Y-63116380D02*
X159567714Y-62116380D01*
X159805809Y-62116380D01*
X159948666Y-62164000D01*
X160043904Y-62259238D01*
X160091523Y-62354476D01*
X160139142Y-62544952D01*
X160139142Y-62687809D01*
X160091523Y-62878285D01*
X160043904Y-62973523D01*
X159948666Y-63068761D01*
X159805809Y-63116380D01*
X159567714Y-63116380D01*
X161091523Y-63116380D02*
X160520095Y-63116380D01*
X160805809Y-63116380D02*
X160805809Y-62116380D01*
X160710571Y-62259238D01*
X160615333Y-62354476D01*
X160520095Y-62402095D01*
X161710571Y-62116380D02*
X161805809Y-62116380D01*
X161901047Y-62164000D01*
X161948666Y-62211619D01*
X161996285Y-62306857D01*
X162043904Y-62497333D01*
X162043904Y-62735428D01*
X161996285Y-62925904D01*
X161948666Y-63021142D01*
X161901047Y-63068761D01*
X161805809Y-63116380D01*
X161710571Y-63116380D01*
X161615333Y-63068761D01*
X161567714Y-63021142D01*
X161520095Y-62925904D01*
X161472476Y-62735428D01*
X161472476Y-62497333D01*
X161520095Y-62306857D01*
X161567714Y-62211619D01*
X161615333Y-62164000D01*
X161710571Y-62116380D01*
X149256761Y-59729619D02*
X149161523Y-59682000D01*
X149066285Y-59586761D01*
X148923428Y-59443904D01*
X148828190Y-59396285D01*
X148732952Y-59396285D01*
X148780571Y-59634380D02*
X148685333Y-59586761D01*
X148590095Y-59491523D01*
X148542476Y-59301047D01*
X148542476Y-58967714D01*
X148590095Y-58777238D01*
X148685333Y-58682000D01*
X148780571Y-58634380D01*
X148971047Y-58634380D01*
X149066285Y-58682000D01*
X149161523Y-58777238D01*
X149209142Y-58967714D01*
X149209142Y-59301047D01*
X149161523Y-59491523D01*
X149066285Y-59586761D01*
X148971047Y-59634380D01*
X148780571Y-59634380D01*
X149780571Y-59062952D02*
X149685333Y-59015333D01*
X149637714Y-58967714D01*
X149590095Y-58872476D01*
X149590095Y-58824857D01*
X149637714Y-58729619D01*
X149685333Y-58682000D01*
X149780571Y-58634380D01*
X149971047Y-58634380D01*
X150066285Y-58682000D01*
X150113904Y-58729619D01*
X150161523Y-58824857D01*
X150161523Y-58872476D01*
X150113904Y-58967714D01*
X150066285Y-59015333D01*
X149971047Y-59062952D01*
X149780571Y-59062952D01*
X149685333Y-59110571D01*
X149637714Y-59158190D01*
X149590095Y-59253428D01*
X149590095Y-59443904D01*
X149637714Y-59539142D01*
X149685333Y-59586761D01*
X149780571Y-59634380D01*
X149971047Y-59634380D01*
X150066285Y-59586761D01*
X150113904Y-59539142D01*
X150161523Y-59443904D01*
X150161523Y-59253428D01*
X150113904Y-59158190D01*
X150066285Y-59110571D01*
X149971047Y-59062952D01*
X156075142Y-61920380D02*
X155741809Y-61444190D01*
X155503714Y-61920380D02*
X155503714Y-60920380D01*
X155884666Y-60920380D01*
X155979904Y-60968000D01*
X156027523Y-61015619D01*
X156075142Y-61110857D01*
X156075142Y-61253714D01*
X156027523Y-61348952D01*
X155979904Y-61396571D01*
X155884666Y-61444190D01*
X155503714Y-61444190D01*
X156456095Y-61015619D02*
X156503714Y-60968000D01*
X156598952Y-60920380D01*
X156837047Y-60920380D01*
X156932285Y-60968000D01*
X156979904Y-61015619D01*
X157027523Y-61110857D01*
X157027523Y-61206095D01*
X156979904Y-61348952D01*
X156408476Y-61920380D01*
X157027523Y-61920380D01*
X157884666Y-61253714D02*
X157884666Y-61920380D01*
X157646571Y-60872761D02*
X157408476Y-61587047D01*
X158027523Y-61587047D01*
X156075142Y-58746380D02*
X155741809Y-58270190D01*
X155503714Y-58746380D02*
X155503714Y-57746380D01*
X155884666Y-57746380D01*
X155979904Y-57794000D01*
X156027523Y-57841619D01*
X156075142Y-57936857D01*
X156075142Y-58079714D01*
X156027523Y-58174952D01*
X155979904Y-58222571D01*
X155884666Y-58270190D01*
X155503714Y-58270190D01*
X156456095Y-57841619D02*
X156503714Y-57794000D01*
X156598952Y-57746380D01*
X156837047Y-57746380D01*
X156932285Y-57794000D01*
X156979904Y-57841619D01*
X157027523Y-57936857D01*
X157027523Y-58032095D01*
X156979904Y-58174952D01*
X156408476Y-58746380D01*
X157027523Y-58746380D01*
X157884666Y-57746380D02*
X157694190Y-57746380D01*
X157598952Y-57794000D01*
X157551333Y-57841619D01*
X157456095Y-57984476D01*
X157408476Y-58174952D01*
X157408476Y-58555904D01*
X157456095Y-58651142D01*
X157503714Y-58698761D01*
X157598952Y-58746380D01*
X157789428Y-58746380D01*
X157884666Y-58698761D01*
X157932285Y-58651142D01*
X157979904Y-58555904D01*
X157979904Y-58317809D01*
X157932285Y-58222571D01*
X157884666Y-58174952D01*
X157789428Y-58127333D01*
X157598952Y-58127333D01*
X157503714Y-58174952D01*
X157456095Y-58222571D01*
X157408476Y-58317809D01*
X148455142Y-63698380D02*
X148121809Y-63222190D01*
X147883714Y-63698380D02*
X147883714Y-62698380D01*
X148264666Y-62698380D01*
X148359904Y-62746000D01*
X148407523Y-62793619D01*
X148455142Y-62888857D01*
X148455142Y-63031714D01*
X148407523Y-63126952D01*
X148359904Y-63174571D01*
X148264666Y-63222190D01*
X147883714Y-63222190D01*
X148836095Y-62793619D02*
X148883714Y-62746000D01*
X148978952Y-62698380D01*
X149217047Y-62698380D01*
X149312285Y-62746000D01*
X149359904Y-62793619D01*
X149407523Y-62888857D01*
X149407523Y-62984095D01*
X149359904Y-63126952D01*
X148788476Y-63698380D01*
X149407523Y-63698380D01*
X149740857Y-62698380D02*
X150407523Y-62698380D01*
X149978952Y-63698380D01*
X105838666Y-101560380D02*
X105838666Y-102274666D01*
X105791047Y-102417523D01*
X105695809Y-102512761D01*
X105552952Y-102560380D01*
X105457714Y-102560380D01*
X106267238Y-101655619D02*
X106314857Y-101608000D01*
X106410095Y-101560380D01*
X106648190Y-101560380D01*
X106743428Y-101608000D01*
X106791047Y-101655619D01*
X106838666Y-101750857D01*
X106838666Y-101846095D01*
X106791047Y-101988952D01*
X106219619Y-102560380D01*
X106838666Y-102560380D01*
M02*
