G04 #@! TF.GenerationSoftware,KiCad,Pcbnew,5.1.4-e60b266~84~ubuntu18.04.1*
G04 #@! TF.CreationDate,2020-01-06T17:57:10-05:00*
G04 #@! TF.ProjectId,AIR_MINUS,4149525f-4d49-44e5-9553-2e6b69636164,rev?*
G04 #@! TF.SameCoordinates,Original*
G04 #@! TF.FileFunction,Legend,Bot*
G04 #@! TF.FilePolarity,Positive*
%FSLAX46Y46*%
G04 Gerber Fmt 4.6, Leading zero omitted, Abs format (unit mm)*
G04 Created by KiCad (PCBNEW 5.1.4-e60b266~84~ubuntu18.04.1) date 2020-01-06 17:57:10*
%MOMM*%
%LPD*%
G04 APERTURE LIST*
%ADD10C,0.120000*%
%ADD11C,0.150000*%
G04 APERTURE END LIST*
D10*
X139352800Y-139526000D02*
X139352800Y-169526000D01*
X130352800Y-146276000D02*
X148352800Y-146276000D01*
D11*
X99618800Y-168757600D02*
X99618800Y-177393600D01*
X130098800Y-168757600D02*
X99618800Y-168757600D01*
X130098800Y-177393600D02*
X130098800Y-168757600D01*
X99618800Y-177393600D02*
X130098800Y-177393600D01*
X129652780Y-151434895D02*
X130462304Y-151434895D01*
X130557542Y-151482514D01*
X130605161Y-151530133D01*
X130652780Y-151625371D01*
X130652780Y-151815847D01*
X130605161Y-151911085D01*
X130557542Y-151958704D01*
X130462304Y-152006323D01*
X129652780Y-152006323D01*
X129748019Y-152434895D02*
X129700400Y-152482514D01*
X129652780Y-152577752D01*
X129652780Y-152815847D01*
X129700400Y-152911085D01*
X129748019Y-152958704D01*
X129843257Y-153006323D01*
X129938495Y-153006323D01*
X130081352Y-152958704D01*
X130652780Y-152387276D01*
X130652780Y-153006323D01*
X124893295Y-168244780D02*
X124893295Y-167244780D01*
X124321866Y-168244780D02*
X124750438Y-167673352D01*
X124321866Y-167244780D02*
X124893295Y-167816209D01*
X123369485Y-168244780D02*
X123940914Y-168244780D01*
X123655200Y-168244780D02*
X123655200Y-167244780D01*
X123750438Y-167387638D01*
X123845676Y-167482876D01*
X123940914Y-167530495D01*
M02*
