G04 #@! TF.GenerationSoftware,KiCad,Pcbnew,5.1.4-e60b266~84~ubuntu18.04.1*
G04 #@! TF.CreationDate,2020-01-06T17:57:10-05:00*
G04 #@! TF.ProjectId,AIR_MINUS,4149525f-4d49-44e5-9553-2e6b69636164,rev?*
G04 #@! TF.SameCoordinates,Original*
G04 #@! TF.FileFunction,Soldermask,Top*
G04 #@! TF.FilePolarity,Negative*
%FSLAX46Y46*%
G04 Gerber Fmt 4.6, Leading zero omitted, Abs format (unit mm)*
G04 Created by KiCad (PCBNEW 5.1.4-e60b266~84~ubuntu18.04.1) date 2020-01-06 17:57:10*
%MOMM*%
%LPD*%
G04 APERTURE LIST*
%ADD10C,0.100000*%
G04 APERTURE END LIST*
D10*
G36*
X68025393Y-177047324D02*
G01*
X68214933Y-177125834D01*
X68214935Y-177125835D01*
X68385517Y-177239814D01*
X68530586Y-177384883D01*
X68644566Y-177555467D01*
X68723076Y-177745007D01*
X68763100Y-177946220D01*
X68763100Y-178151380D01*
X68723076Y-178352593D01*
X68644566Y-178542133D01*
X68644565Y-178542135D01*
X68530586Y-178712717D01*
X68385517Y-178857786D01*
X68214935Y-178971765D01*
X68214934Y-178971766D01*
X68214933Y-178971766D01*
X68025393Y-179050276D01*
X67824180Y-179090300D01*
X67619020Y-179090300D01*
X67417807Y-179050276D01*
X67228267Y-178971766D01*
X67228266Y-178971766D01*
X67228265Y-178971765D01*
X67057683Y-178857786D01*
X66912614Y-178712717D01*
X66798635Y-178542135D01*
X66798634Y-178542133D01*
X66720124Y-178352593D01*
X66680100Y-178151380D01*
X66680100Y-177946220D01*
X66720124Y-177745007D01*
X66798634Y-177555467D01*
X66912614Y-177384883D01*
X67057683Y-177239814D01*
X67228265Y-177125835D01*
X67228267Y-177125834D01*
X67417807Y-177047324D01*
X67619020Y-177007300D01*
X67824180Y-177007300D01*
X68025393Y-177047324D01*
X68025393Y-177047324D01*
G37*
G36*
X76566025Y-175073399D02*
G01*
X76690221Y-175098102D01*
X76826622Y-175154601D01*
X76949379Y-175236625D01*
X77053775Y-175341021D01*
X77135799Y-175463778D01*
X77192298Y-175600179D01*
X77221100Y-175744981D01*
X77221100Y-175892619D01*
X77192298Y-176037421D01*
X77135799Y-176173822D01*
X77053775Y-176296579D01*
X76949379Y-176400975D01*
X76826622Y-176482999D01*
X76690221Y-176539498D01*
X76566025Y-176564201D01*
X76545420Y-176568300D01*
X76397780Y-176568300D01*
X76377175Y-176564201D01*
X76252979Y-176539498D01*
X76116578Y-176482999D01*
X75993821Y-176400975D01*
X75889425Y-176296579D01*
X75807401Y-176173822D01*
X75750902Y-176037421D01*
X75722100Y-175892619D01*
X75722100Y-175744981D01*
X75750902Y-175600179D01*
X75807401Y-175463778D01*
X75889425Y-175341021D01*
X75993821Y-175236625D01*
X76116578Y-175154601D01*
X76252979Y-175098102D01*
X76377175Y-175073399D01*
X76397780Y-175069300D01*
X76545420Y-175069300D01*
X76566025Y-175073399D01*
X76566025Y-175073399D01*
G37*
G36*
X69566025Y-175073399D02*
G01*
X69690221Y-175098102D01*
X69826622Y-175154601D01*
X69949379Y-175236625D01*
X70053775Y-175341021D01*
X70135799Y-175463778D01*
X70192298Y-175600179D01*
X70221100Y-175744981D01*
X70221100Y-175892619D01*
X70192298Y-176037421D01*
X70135799Y-176173822D01*
X70053775Y-176296579D01*
X69949379Y-176400975D01*
X69826622Y-176482999D01*
X69690221Y-176539498D01*
X69566025Y-176564201D01*
X69545420Y-176568300D01*
X69397780Y-176568300D01*
X69377175Y-176564201D01*
X69252979Y-176539498D01*
X69116578Y-176482999D01*
X68993821Y-176400975D01*
X68889425Y-176296579D01*
X68807401Y-176173822D01*
X68750902Y-176037421D01*
X68722100Y-175892619D01*
X68722100Y-175744981D01*
X68750902Y-175600179D01*
X68807401Y-175463778D01*
X68889425Y-175341021D01*
X68993821Y-175236625D01*
X69116578Y-175154601D01*
X69252979Y-175098102D01*
X69377175Y-175073399D01*
X69397780Y-175069300D01*
X69545420Y-175069300D01*
X69566025Y-175073399D01*
X69566025Y-175073399D01*
G37*
G36*
X73066025Y-175073399D02*
G01*
X73190221Y-175098102D01*
X73326622Y-175154601D01*
X73449379Y-175236625D01*
X73553775Y-175341021D01*
X73635799Y-175463778D01*
X73692298Y-175600179D01*
X73721100Y-175744981D01*
X73721100Y-175892619D01*
X73692298Y-176037421D01*
X73635799Y-176173822D01*
X73553775Y-176296579D01*
X73449379Y-176400975D01*
X73326622Y-176482999D01*
X73190221Y-176539498D01*
X73066025Y-176564201D01*
X73045420Y-176568300D01*
X72897780Y-176568300D01*
X72877175Y-176564201D01*
X72752979Y-176539498D01*
X72616578Y-176482999D01*
X72493821Y-176400975D01*
X72389425Y-176296579D01*
X72307401Y-176173822D01*
X72250902Y-176037421D01*
X72222100Y-175892619D01*
X72222100Y-175744981D01*
X72250902Y-175600179D01*
X72307401Y-175463778D01*
X72389425Y-175341021D01*
X72493821Y-175236625D01*
X72616578Y-175154601D01*
X72752979Y-175098102D01*
X72877175Y-175073399D01*
X72897780Y-175069300D01*
X73045420Y-175069300D01*
X73066025Y-175073399D01*
X73066025Y-175073399D01*
G37*
G36*
X66066025Y-175073399D02*
G01*
X66190221Y-175098102D01*
X66326622Y-175154601D01*
X66449379Y-175236625D01*
X66553775Y-175341021D01*
X66635799Y-175463778D01*
X66692298Y-175600179D01*
X66721100Y-175744981D01*
X66721100Y-175892619D01*
X66692298Y-176037421D01*
X66635799Y-176173822D01*
X66553775Y-176296579D01*
X66449379Y-176400975D01*
X66326622Y-176482999D01*
X66190221Y-176539498D01*
X66066025Y-176564201D01*
X66045420Y-176568300D01*
X65897780Y-176568300D01*
X65877175Y-176564201D01*
X65752979Y-176539498D01*
X65616578Y-176482999D01*
X65493821Y-176400975D01*
X65389425Y-176296579D01*
X65307401Y-176173822D01*
X65250902Y-176037421D01*
X65222100Y-175892619D01*
X65222100Y-175744981D01*
X65250902Y-175600179D01*
X65307401Y-175463778D01*
X65389425Y-175341021D01*
X65493821Y-175236625D01*
X65616578Y-175154601D01*
X65752979Y-175098102D01*
X65877175Y-175073399D01*
X65897780Y-175069300D01*
X66045420Y-175069300D01*
X66066025Y-175073399D01*
X66066025Y-175073399D01*
G37*
G36*
X117319521Y-175259774D02*
G01*
X117419795Y-175301309D01*
X117419796Y-175301310D01*
X117510042Y-175361610D01*
X117586790Y-175438358D01*
X117586791Y-175438360D01*
X117647091Y-175528605D01*
X117688626Y-175628879D01*
X117709800Y-175735330D01*
X117709800Y-175843870D01*
X117688626Y-175950321D01*
X117647091Y-176050595D01*
X117647090Y-176050596D01*
X117586790Y-176140842D01*
X117510042Y-176217590D01*
X117464612Y-176247945D01*
X117419795Y-176277891D01*
X117319521Y-176319426D01*
X117213070Y-176340600D01*
X117104530Y-176340600D01*
X116998079Y-176319426D01*
X116897805Y-176277891D01*
X116852988Y-176247945D01*
X116807558Y-176217590D01*
X116730810Y-176140842D01*
X116670510Y-176050596D01*
X116670509Y-176050595D01*
X116628974Y-175950321D01*
X116607800Y-175843870D01*
X116607800Y-175735330D01*
X116628974Y-175628879D01*
X116670509Y-175528605D01*
X116730809Y-175438360D01*
X116730810Y-175438358D01*
X116807558Y-175361610D01*
X116897804Y-175301310D01*
X116897805Y-175301309D01*
X116998079Y-175259774D01*
X117104530Y-175238600D01*
X117213070Y-175238600D01*
X117319521Y-175259774D01*
X117319521Y-175259774D01*
G37*
G36*
X112319521Y-175259774D02*
G01*
X112419795Y-175301309D01*
X112419796Y-175301310D01*
X112510042Y-175361610D01*
X112586790Y-175438358D01*
X112586791Y-175438360D01*
X112647091Y-175528605D01*
X112688626Y-175628879D01*
X112709800Y-175735330D01*
X112709800Y-175843870D01*
X112688626Y-175950321D01*
X112647091Y-176050595D01*
X112647090Y-176050596D01*
X112586790Y-176140842D01*
X112510042Y-176217590D01*
X112464612Y-176247945D01*
X112419795Y-176277891D01*
X112319521Y-176319426D01*
X112213070Y-176340600D01*
X112104530Y-176340600D01*
X111998079Y-176319426D01*
X111897805Y-176277891D01*
X111852988Y-176247945D01*
X111807558Y-176217590D01*
X111730810Y-176140842D01*
X111670510Y-176050596D01*
X111670509Y-176050595D01*
X111628974Y-175950321D01*
X111607800Y-175843870D01*
X111607800Y-175735330D01*
X111628974Y-175628879D01*
X111670509Y-175528605D01*
X111730809Y-175438360D01*
X111730810Y-175438358D01*
X111807558Y-175361610D01*
X111897804Y-175301310D01*
X111897805Y-175301309D01*
X111998079Y-175259774D01*
X112104530Y-175238600D01*
X112213070Y-175238600D01*
X112319521Y-175259774D01*
X112319521Y-175259774D01*
G37*
G36*
X98186200Y-175376600D02*
G01*
X96784200Y-175376600D01*
X96784200Y-174574600D01*
X98186200Y-174574600D01*
X98186200Y-175376600D01*
X98186200Y-175376600D01*
G37*
G36*
X116655800Y-174234600D02*
G01*
X115353800Y-174234600D01*
X115353800Y-172932600D01*
X116655800Y-172932600D01*
X116655800Y-174234600D01*
X116655800Y-174234600D01*
G37*
G36*
X113855800Y-174234600D02*
G01*
X112553800Y-174234600D01*
X112553800Y-172932600D01*
X113855800Y-172932600D01*
X113855800Y-174234600D01*
X113855800Y-174234600D01*
G37*
G36*
X98186200Y-173476600D02*
G01*
X96784200Y-173476600D01*
X96784200Y-172674600D01*
X98186200Y-172674600D01*
X98186200Y-173476600D01*
X98186200Y-173476600D01*
G37*
G36*
X102319521Y-170259774D02*
G01*
X102419795Y-170301309D01*
X102419796Y-170301310D01*
X102510042Y-170361610D01*
X102586790Y-170438358D01*
X102586791Y-170438360D01*
X102647091Y-170528605D01*
X102688626Y-170628879D01*
X102709800Y-170735330D01*
X102709800Y-170843870D01*
X102688626Y-170950321D01*
X102647091Y-171050595D01*
X102647090Y-171050596D01*
X102586790Y-171140842D01*
X102510042Y-171217590D01*
X102464612Y-171247945D01*
X102419795Y-171277891D01*
X102319521Y-171319426D01*
X102213070Y-171340600D01*
X102104530Y-171340600D01*
X101998079Y-171319426D01*
X101897805Y-171277891D01*
X101852988Y-171247945D01*
X101807558Y-171217590D01*
X101730810Y-171140842D01*
X101670510Y-171050596D01*
X101670509Y-171050595D01*
X101628974Y-170950321D01*
X101607800Y-170843870D01*
X101607800Y-170735330D01*
X101628974Y-170628879D01*
X101670509Y-170528605D01*
X101730809Y-170438360D01*
X101730810Y-170438358D01*
X101807558Y-170361610D01*
X101897804Y-170301310D01*
X101897805Y-170301309D01*
X101998079Y-170259774D01*
X102104530Y-170238600D01*
X102213070Y-170238600D01*
X102319521Y-170259774D01*
X102319521Y-170259774D01*
G37*
G36*
X127319521Y-170259774D02*
G01*
X127419795Y-170301309D01*
X127419796Y-170301310D01*
X127510042Y-170361610D01*
X127586790Y-170438358D01*
X127586791Y-170438360D01*
X127647091Y-170528605D01*
X127688626Y-170628879D01*
X127709800Y-170735330D01*
X127709800Y-170843870D01*
X127688626Y-170950321D01*
X127647091Y-171050595D01*
X127647090Y-171050596D01*
X127586790Y-171140842D01*
X127510042Y-171217590D01*
X127464612Y-171247945D01*
X127419795Y-171277891D01*
X127319521Y-171319426D01*
X127213070Y-171340600D01*
X127104530Y-171340600D01*
X126998079Y-171319426D01*
X126897805Y-171277891D01*
X126852988Y-171247945D01*
X126807558Y-171217590D01*
X126730810Y-171140842D01*
X126670510Y-171050596D01*
X126670509Y-171050595D01*
X126628974Y-170950321D01*
X126607800Y-170843870D01*
X126607800Y-170735330D01*
X126628974Y-170628879D01*
X126670509Y-170528605D01*
X126730809Y-170438360D01*
X126730810Y-170438358D01*
X126807558Y-170361610D01*
X126897804Y-170301310D01*
X126897805Y-170301309D01*
X126998079Y-170259774D01*
X127104530Y-170238600D01*
X127213070Y-170238600D01*
X127319521Y-170259774D01*
X127319521Y-170259774D01*
G37*
G36*
X143509823Y-168236590D02*
G01*
X143610482Y-168267125D01*
X143660813Y-168282392D01*
X143799965Y-168356771D01*
X143921933Y-168456867D01*
X144022029Y-168578835D01*
X144096408Y-168717987D01*
X144096408Y-168717988D01*
X144142210Y-168868977D01*
X144153800Y-168986655D01*
X144153800Y-170065345D01*
X144142210Y-170183023D01*
X144111675Y-170283682D01*
X144096408Y-170334013D01*
X144081657Y-170361609D01*
X144022029Y-170473165D01*
X143921933Y-170595133D01*
X143799964Y-170695229D01*
X143660812Y-170769608D01*
X143610481Y-170784875D01*
X143509822Y-170815410D01*
X143352800Y-170830875D01*
X143195777Y-170815410D01*
X143095118Y-170784875D01*
X143044787Y-170769608D01*
X142905635Y-170695229D01*
X142783667Y-170595133D01*
X142683571Y-170473164D01*
X142609193Y-170334013D01*
X142609192Y-170334012D01*
X142586673Y-170259775D01*
X142563390Y-170183022D01*
X142551800Y-170065344D01*
X142551801Y-168986655D01*
X142563391Y-168868977D01*
X142609193Y-168717988D01*
X142609193Y-168717987D01*
X142683572Y-168578835D01*
X142783668Y-168456867D01*
X142905636Y-168356771D01*
X143044788Y-168282392D01*
X143095119Y-168267125D01*
X143195778Y-168236590D01*
X143352800Y-168221125D01*
X143509823Y-168236590D01*
X143509823Y-168236590D01*
G37*
G36*
X135509823Y-168236590D02*
G01*
X135610482Y-168267125D01*
X135660813Y-168282392D01*
X135799965Y-168356771D01*
X135921933Y-168456867D01*
X136022029Y-168578835D01*
X136096408Y-168717987D01*
X136096408Y-168717988D01*
X136142210Y-168868977D01*
X136153800Y-168986655D01*
X136153800Y-170065345D01*
X136142210Y-170183023D01*
X136111675Y-170283682D01*
X136096408Y-170334013D01*
X136081657Y-170361609D01*
X136022029Y-170473165D01*
X135921933Y-170595133D01*
X135799964Y-170695229D01*
X135660812Y-170769608D01*
X135610481Y-170784875D01*
X135509822Y-170815410D01*
X135352800Y-170830875D01*
X135195777Y-170815410D01*
X135095118Y-170784875D01*
X135044787Y-170769608D01*
X134905635Y-170695229D01*
X134783667Y-170595133D01*
X134683571Y-170473164D01*
X134609193Y-170334013D01*
X134609192Y-170334012D01*
X134586673Y-170259775D01*
X134563390Y-170183022D01*
X134551800Y-170065344D01*
X134551801Y-168986655D01*
X134563391Y-168868977D01*
X134609193Y-168717988D01*
X134609193Y-168717987D01*
X134683572Y-168578835D01*
X134783668Y-168456867D01*
X134905636Y-168356771D01*
X135044788Y-168282392D01*
X135095119Y-168267125D01*
X135195778Y-168236590D01*
X135352800Y-168221125D01*
X135509823Y-168236590D01*
X135509823Y-168236590D01*
G37*
G36*
X137509823Y-168236590D02*
G01*
X137610482Y-168267125D01*
X137660813Y-168282392D01*
X137799965Y-168356771D01*
X137921933Y-168456867D01*
X138022029Y-168578835D01*
X138096408Y-168717987D01*
X138096408Y-168717988D01*
X138142210Y-168868977D01*
X138153800Y-168986655D01*
X138153800Y-170065345D01*
X138142210Y-170183023D01*
X138111675Y-170283682D01*
X138096408Y-170334013D01*
X138081657Y-170361609D01*
X138022029Y-170473165D01*
X137921933Y-170595133D01*
X137799964Y-170695229D01*
X137660812Y-170769608D01*
X137610481Y-170784875D01*
X137509822Y-170815410D01*
X137352800Y-170830875D01*
X137195777Y-170815410D01*
X137095118Y-170784875D01*
X137044787Y-170769608D01*
X136905635Y-170695229D01*
X136783667Y-170595133D01*
X136683571Y-170473164D01*
X136609193Y-170334013D01*
X136609192Y-170334012D01*
X136586673Y-170259775D01*
X136563390Y-170183022D01*
X136551800Y-170065344D01*
X136551801Y-168986655D01*
X136563391Y-168868977D01*
X136609193Y-168717988D01*
X136609193Y-168717987D01*
X136683572Y-168578835D01*
X136783668Y-168456867D01*
X136905636Y-168356771D01*
X137044788Y-168282392D01*
X137095119Y-168267125D01*
X137195778Y-168236590D01*
X137352800Y-168221125D01*
X137509823Y-168236590D01*
X137509823Y-168236590D01*
G37*
G36*
X139509823Y-168236590D02*
G01*
X139610482Y-168267125D01*
X139660813Y-168282392D01*
X139799965Y-168356771D01*
X139921933Y-168456867D01*
X140022029Y-168578835D01*
X140096408Y-168717987D01*
X140096408Y-168717988D01*
X140142210Y-168868977D01*
X140153800Y-168986655D01*
X140153800Y-170065345D01*
X140142210Y-170183023D01*
X140111675Y-170283682D01*
X140096408Y-170334013D01*
X140081657Y-170361609D01*
X140022029Y-170473165D01*
X139921933Y-170595133D01*
X139799964Y-170695229D01*
X139660812Y-170769608D01*
X139610481Y-170784875D01*
X139509822Y-170815410D01*
X139352800Y-170830875D01*
X139195777Y-170815410D01*
X139095118Y-170784875D01*
X139044787Y-170769608D01*
X138905635Y-170695229D01*
X138783667Y-170595133D01*
X138683571Y-170473164D01*
X138609193Y-170334013D01*
X138609192Y-170334012D01*
X138586673Y-170259775D01*
X138563390Y-170183022D01*
X138551800Y-170065344D01*
X138551801Y-168986655D01*
X138563391Y-168868977D01*
X138609193Y-168717988D01*
X138609193Y-168717987D01*
X138683572Y-168578835D01*
X138783668Y-168456867D01*
X138905636Y-168356771D01*
X139044788Y-168282392D01*
X139095119Y-168267125D01*
X139195778Y-168236590D01*
X139352800Y-168221125D01*
X139509823Y-168236590D01*
X139509823Y-168236590D01*
G37*
G36*
X141509823Y-168236590D02*
G01*
X141610482Y-168267125D01*
X141660813Y-168282392D01*
X141799965Y-168356771D01*
X141921933Y-168456867D01*
X142022029Y-168578835D01*
X142096408Y-168717987D01*
X142096408Y-168717988D01*
X142142210Y-168868977D01*
X142153800Y-168986655D01*
X142153800Y-170065345D01*
X142142210Y-170183023D01*
X142111675Y-170283682D01*
X142096408Y-170334013D01*
X142081657Y-170361609D01*
X142022029Y-170473165D01*
X141921933Y-170595133D01*
X141799964Y-170695229D01*
X141660812Y-170769608D01*
X141610481Y-170784875D01*
X141509822Y-170815410D01*
X141352800Y-170830875D01*
X141195777Y-170815410D01*
X141095118Y-170784875D01*
X141044787Y-170769608D01*
X140905635Y-170695229D01*
X140783667Y-170595133D01*
X140683571Y-170473164D01*
X140609193Y-170334013D01*
X140609192Y-170334012D01*
X140586673Y-170259775D01*
X140563390Y-170183022D01*
X140551800Y-170065344D01*
X140551801Y-168986655D01*
X140563391Y-168868977D01*
X140609193Y-168717988D01*
X140609193Y-168717987D01*
X140683572Y-168578835D01*
X140783668Y-168456867D01*
X140905636Y-168356771D01*
X141044788Y-168282392D01*
X141095119Y-168267125D01*
X141195778Y-168236590D01*
X141352800Y-168221125D01*
X141509823Y-168236590D01*
X141509823Y-168236590D01*
G37*
G36*
X107113000Y-167053400D02*
G01*
X105231000Y-167053400D01*
X105231000Y-163451400D01*
X107113000Y-163451400D01*
X107113000Y-167053400D01*
X107113000Y-167053400D01*
G37*
G36*
X112393000Y-167053400D02*
G01*
X110511000Y-167053400D01*
X110511000Y-163451400D01*
X112393000Y-163451400D01*
X112393000Y-167053400D01*
X112393000Y-167053400D01*
G37*
G36*
X139663059Y-161078660D02*
G01*
X139799732Y-161135272D01*
X139922735Y-161217460D01*
X140027340Y-161322065D01*
X140109528Y-161445068D01*
X140166140Y-161581741D01*
X140195000Y-161726833D01*
X140195000Y-161874767D01*
X140166140Y-162019859D01*
X140109528Y-162156532D01*
X140027340Y-162279535D01*
X139922735Y-162384140D01*
X139799732Y-162466328D01*
X139799731Y-162466329D01*
X139799730Y-162466329D01*
X139663059Y-162522940D01*
X139517968Y-162551800D01*
X139370032Y-162551800D01*
X139224941Y-162522940D01*
X139088270Y-162466329D01*
X139088269Y-162466329D01*
X139088268Y-162466328D01*
X138965265Y-162384140D01*
X138860660Y-162279535D01*
X138778472Y-162156532D01*
X138721860Y-162019859D01*
X138693000Y-161874767D01*
X138693000Y-161726833D01*
X138721860Y-161581741D01*
X138778472Y-161445068D01*
X138860660Y-161322065D01*
X138965265Y-161217460D01*
X139088268Y-161135272D01*
X139224941Y-161078660D01*
X139370032Y-161049800D01*
X139517968Y-161049800D01*
X139663059Y-161078660D01*
X139663059Y-161078660D01*
G37*
G36*
X136663059Y-161078660D02*
G01*
X136799732Y-161135272D01*
X136922735Y-161217460D01*
X137027340Y-161322065D01*
X137109528Y-161445068D01*
X137166140Y-161581741D01*
X137195000Y-161726833D01*
X137195000Y-161874767D01*
X137166140Y-162019859D01*
X137109528Y-162156532D01*
X137027340Y-162279535D01*
X136922735Y-162384140D01*
X136799732Y-162466328D01*
X136799731Y-162466329D01*
X136799730Y-162466329D01*
X136663059Y-162522940D01*
X136517968Y-162551800D01*
X136370032Y-162551800D01*
X136224941Y-162522940D01*
X136088270Y-162466329D01*
X136088269Y-162466329D01*
X136088268Y-162466328D01*
X135965265Y-162384140D01*
X135860660Y-162279535D01*
X135778472Y-162156532D01*
X135721860Y-162019859D01*
X135693000Y-161874767D01*
X135693000Y-161726833D01*
X135721860Y-161581741D01*
X135778472Y-161445068D01*
X135860660Y-161322065D01*
X135965265Y-161217460D01*
X136088268Y-161135272D01*
X136224941Y-161078660D01*
X136370032Y-161049800D01*
X136517968Y-161049800D01*
X136663059Y-161078660D01*
X136663059Y-161078660D01*
G37*
G36*
X144066585Y-157279602D02*
G01*
X144216410Y-157309404D01*
X144498674Y-157426321D01*
X144752705Y-157596059D01*
X144968741Y-157812095D01*
X145138479Y-158066126D01*
X145255396Y-158348390D01*
X145315000Y-158648040D01*
X145315000Y-158953560D01*
X145255396Y-159253210D01*
X145138479Y-159535474D01*
X144968741Y-159789505D01*
X144752705Y-160005541D01*
X144498674Y-160175279D01*
X144216410Y-160292196D01*
X144066585Y-160321998D01*
X143916761Y-160351800D01*
X143611239Y-160351800D01*
X143461415Y-160321998D01*
X143311590Y-160292196D01*
X143029326Y-160175279D01*
X142775295Y-160005541D01*
X142559259Y-159789505D01*
X142389521Y-159535474D01*
X142272604Y-159253210D01*
X142213000Y-158953560D01*
X142213000Y-158648040D01*
X142272604Y-158348390D01*
X142389521Y-158066126D01*
X142559259Y-157812095D01*
X142775295Y-157596059D01*
X143029326Y-157426321D01*
X143311590Y-157309404D01*
X143461415Y-157279602D01*
X143611239Y-157249800D01*
X143916761Y-157249800D01*
X144066585Y-157279602D01*
X144066585Y-157279602D01*
G37*
G36*
X139663059Y-158078660D02*
G01*
X139799732Y-158135272D01*
X139922735Y-158217460D01*
X140027340Y-158322065D01*
X140044930Y-158348391D01*
X140109529Y-158445070D01*
X140166140Y-158581741D01*
X140195000Y-158726832D01*
X140195000Y-158874768D01*
X140179327Y-158953561D01*
X140166140Y-159019859D01*
X140109528Y-159156532D01*
X140027340Y-159279535D01*
X139922735Y-159384140D01*
X139799732Y-159466328D01*
X139799731Y-159466329D01*
X139799730Y-159466329D01*
X139663059Y-159522940D01*
X139517968Y-159551800D01*
X139370032Y-159551800D01*
X139224941Y-159522940D01*
X139088270Y-159466329D01*
X139088269Y-159466329D01*
X139088268Y-159466328D01*
X138965265Y-159384140D01*
X138860660Y-159279535D01*
X138778472Y-159156532D01*
X138721860Y-159019859D01*
X138708673Y-158953561D01*
X138693000Y-158874768D01*
X138693000Y-158726832D01*
X138721860Y-158581741D01*
X138778471Y-158445070D01*
X138843070Y-158348391D01*
X138860660Y-158322065D01*
X138965265Y-158217460D01*
X139088268Y-158135272D01*
X139224941Y-158078660D01*
X139370032Y-158049800D01*
X139517968Y-158049800D01*
X139663059Y-158078660D01*
X139663059Y-158078660D01*
G37*
G36*
X136663059Y-158078660D02*
G01*
X136799732Y-158135272D01*
X136922735Y-158217460D01*
X137027340Y-158322065D01*
X137044930Y-158348391D01*
X137109529Y-158445070D01*
X137166140Y-158581741D01*
X137195000Y-158726832D01*
X137195000Y-158874768D01*
X137179327Y-158953561D01*
X137166140Y-159019859D01*
X137109528Y-159156532D01*
X137027340Y-159279535D01*
X136922735Y-159384140D01*
X136799732Y-159466328D01*
X136799731Y-159466329D01*
X136799730Y-159466329D01*
X136663059Y-159522940D01*
X136517968Y-159551800D01*
X136370032Y-159551800D01*
X136224941Y-159522940D01*
X136088270Y-159466329D01*
X136088269Y-159466329D01*
X136088268Y-159466328D01*
X135965265Y-159384140D01*
X135860660Y-159279535D01*
X135778472Y-159156532D01*
X135721860Y-159019859D01*
X135708673Y-158953561D01*
X135693000Y-158874768D01*
X135693000Y-158726832D01*
X135721860Y-158581741D01*
X135778471Y-158445070D01*
X135843070Y-158348391D01*
X135860660Y-158322065D01*
X135965265Y-158217460D01*
X136088268Y-158135272D01*
X136224941Y-158078660D01*
X136370032Y-158049800D01*
X136517968Y-158049800D01*
X136663059Y-158078660D01*
X136663059Y-158078660D01*
G37*
G36*
X139663059Y-155078660D02*
G01*
X139799732Y-155135272D01*
X139922735Y-155217460D01*
X140027340Y-155322065D01*
X140109528Y-155445068D01*
X140166140Y-155581741D01*
X140195000Y-155726833D01*
X140195000Y-155874767D01*
X140166140Y-156019859D01*
X140109528Y-156156532D01*
X140027340Y-156279535D01*
X139922735Y-156384140D01*
X139799732Y-156466328D01*
X139799731Y-156466329D01*
X139799730Y-156466329D01*
X139663059Y-156522940D01*
X139517968Y-156551800D01*
X139370032Y-156551800D01*
X139224941Y-156522940D01*
X139088270Y-156466329D01*
X139088269Y-156466329D01*
X139088268Y-156466328D01*
X138965265Y-156384140D01*
X138860660Y-156279535D01*
X138778472Y-156156532D01*
X138721860Y-156019859D01*
X138693000Y-155874767D01*
X138693000Y-155726833D01*
X138721860Y-155581741D01*
X138778472Y-155445068D01*
X138860660Y-155322065D01*
X138965265Y-155217460D01*
X139088268Y-155135272D01*
X139224941Y-155078660D01*
X139370032Y-155049800D01*
X139517968Y-155049800D01*
X139663059Y-155078660D01*
X139663059Y-155078660D01*
G37*
G36*
X136663059Y-155078660D02*
G01*
X136799732Y-155135272D01*
X136922735Y-155217460D01*
X137027340Y-155322065D01*
X137109528Y-155445068D01*
X137166140Y-155581741D01*
X137195000Y-155726833D01*
X137195000Y-155874767D01*
X137166140Y-156019859D01*
X137109528Y-156156532D01*
X137027340Y-156279535D01*
X136922735Y-156384140D01*
X136799732Y-156466328D01*
X136799731Y-156466329D01*
X136799730Y-156466329D01*
X136663059Y-156522940D01*
X136517968Y-156551800D01*
X136370032Y-156551800D01*
X136224941Y-156522940D01*
X136088270Y-156466329D01*
X136088269Y-156466329D01*
X136088268Y-156466328D01*
X135965265Y-156384140D01*
X135860660Y-156279535D01*
X135778472Y-156156532D01*
X135721860Y-156019859D01*
X135693000Y-155874767D01*
X135693000Y-155726833D01*
X135721860Y-155581741D01*
X135778472Y-155445068D01*
X135860660Y-155322065D01*
X135965265Y-155217460D01*
X136088268Y-155135272D01*
X136224941Y-155078660D01*
X136370032Y-155049800D01*
X136517968Y-155049800D01*
X136663059Y-155078660D01*
X136663059Y-155078660D01*
G37*
G36*
X117212031Y-151004041D02*
G01*
X117357026Y-151032882D01*
X117470174Y-151079750D01*
X117630189Y-151146030D01*
X117630190Y-151146031D01*
X117876032Y-151310297D01*
X118085103Y-151519368D01*
X118085104Y-151519370D01*
X118249370Y-151765211D01*
X118362518Y-152038375D01*
X118420200Y-152328363D01*
X118420200Y-152624037D01*
X118362518Y-152914025D01*
X118249370Y-153187189D01*
X118249369Y-153187190D01*
X118085103Y-153433032D01*
X117876032Y-153642103D01*
X117752276Y-153724794D01*
X117630189Y-153806370D01*
X117470174Y-153872650D01*
X117357026Y-153919518D01*
X117212031Y-153948359D01*
X117067037Y-153977200D01*
X116771363Y-153977200D01*
X116626369Y-153948359D01*
X116481374Y-153919518D01*
X116368226Y-153872650D01*
X116208211Y-153806370D01*
X116086124Y-153724794D01*
X115962368Y-153642103D01*
X115753297Y-153433032D01*
X115589031Y-153187190D01*
X115589030Y-153187189D01*
X115475882Y-152914025D01*
X115418200Y-152624037D01*
X115418200Y-152328363D01*
X115475882Y-152038375D01*
X115589030Y-151765211D01*
X115753296Y-151519370D01*
X115753297Y-151519368D01*
X115962368Y-151310297D01*
X116208210Y-151146031D01*
X116208211Y-151146030D01*
X116368226Y-151079750D01*
X116481374Y-151032882D01*
X116626369Y-151004041D01*
X116771363Y-150975200D01*
X117067037Y-150975200D01*
X117212031Y-151004041D01*
X117212031Y-151004041D01*
G37*
G36*
X148951054Y-142553818D02*
G01*
X149112987Y-142620893D01*
X149324313Y-142708427D01*
X149643070Y-142921414D01*
X149660236Y-142932884D01*
X149945916Y-143218564D01*
X150170374Y-143554489D01*
X150324982Y-143927746D01*
X150403800Y-144323993D01*
X150403800Y-144728007D01*
X150324982Y-145124254D01*
X150184624Y-145463108D01*
X150170373Y-145497513D01*
X150087933Y-145620893D01*
X149945916Y-145833436D01*
X149660234Y-146119118D01*
X149580990Y-146172067D01*
X149562048Y-146187612D01*
X149546502Y-146206554D01*
X149534951Y-146228165D01*
X149527838Y-146251614D01*
X149525436Y-146276000D01*
X149527838Y-146300386D01*
X149534951Y-146323835D01*
X149546502Y-146345445D01*
X149562047Y-146364387D01*
X149580990Y-146379933D01*
X149660234Y-146432882D01*
X149945916Y-146718564D01*
X150170374Y-147054489D01*
X150324982Y-147427746D01*
X150403800Y-147823993D01*
X150403800Y-148228007D01*
X150324982Y-148624254D01*
X150181773Y-148969991D01*
X150170373Y-148997513D01*
X149945916Y-149333436D01*
X149660236Y-149619116D01*
X149324313Y-149843573D01*
X149324312Y-149843574D01*
X149324311Y-149843574D01*
X148951054Y-149998182D01*
X148554807Y-150077000D01*
X148150793Y-150077000D01*
X147754546Y-149998182D01*
X147381289Y-149843574D01*
X147381288Y-149843574D01*
X147381287Y-149843573D01*
X147045364Y-149619116D01*
X146759684Y-149333436D01*
X146535227Y-148997513D01*
X146523827Y-148969991D01*
X146380618Y-148624254D01*
X146301800Y-148228007D01*
X146301800Y-147823993D01*
X146380618Y-147427746D01*
X146535226Y-147054489D01*
X146759684Y-146718564D01*
X147045366Y-146432882D01*
X147124610Y-146379933D01*
X147143552Y-146364388D01*
X147159098Y-146345446D01*
X147170649Y-146323835D01*
X147177762Y-146300386D01*
X147180164Y-146276000D01*
X147177762Y-146251614D01*
X147170649Y-146228165D01*
X147159098Y-146206555D01*
X147143553Y-146187613D01*
X147124610Y-146172067D01*
X147045366Y-146119118D01*
X146759684Y-145833436D01*
X146617667Y-145620893D01*
X146535227Y-145497513D01*
X146520976Y-145463108D01*
X146380618Y-145124254D01*
X146301800Y-144728007D01*
X146301800Y-144323993D01*
X146380618Y-143927746D01*
X146535226Y-143554489D01*
X146759684Y-143218564D01*
X147045364Y-142932884D01*
X147062530Y-142921414D01*
X147381287Y-142708427D01*
X147592613Y-142620893D01*
X147754546Y-142553818D01*
X148150793Y-142475000D01*
X148554807Y-142475000D01*
X148951054Y-142553818D01*
X148951054Y-142553818D01*
G37*
G36*
X130951054Y-142553818D02*
G01*
X131112987Y-142620893D01*
X131324313Y-142708427D01*
X131643070Y-142921414D01*
X131660236Y-142932884D01*
X131945916Y-143218564D01*
X132170374Y-143554489D01*
X132324982Y-143927746D01*
X132403800Y-144323993D01*
X132403800Y-144728007D01*
X132324982Y-145124254D01*
X132184624Y-145463108D01*
X132170373Y-145497513D01*
X132087933Y-145620893D01*
X131945916Y-145833436D01*
X131660234Y-146119118D01*
X131580990Y-146172067D01*
X131562048Y-146187612D01*
X131546502Y-146206554D01*
X131534951Y-146228165D01*
X131527838Y-146251614D01*
X131525436Y-146276000D01*
X131527838Y-146300386D01*
X131534951Y-146323835D01*
X131546502Y-146345445D01*
X131562047Y-146364387D01*
X131580990Y-146379933D01*
X131660234Y-146432882D01*
X131945916Y-146718564D01*
X132170374Y-147054489D01*
X132324982Y-147427746D01*
X132403800Y-147823993D01*
X132403800Y-148228007D01*
X132324982Y-148624254D01*
X132181773Y-148969991D01*
X132170373Y-148997513D01*
X131945916Y-149333436D01*
X131660236Y-149619116D01*
X131324313Y-149843573D01*
X131324312Y-149843574D01*
X131324311Y-149843574D01*
X130951054Y-149998182D01*
X130554807Y-150077000D01*
X130150793Y-150077000D01*
X129754546Y-149998182D01*
X129381289Y-149843574D01*
X129381288Y-149843574D01*
X129381287Y-149843573D01*
X129045364Y-149619116D01*
X128759684Y-149333436D01*
X128535227Y-148997513D01*
X128523827Y-148969991D01*
X128380618Y-148624254D01*
X128301800Y-148228007D01*
X128301800Y-147823993D01*
X128380618Y-147427746D01*
X128535226Y-147054489D01*
X128759684Y-146718564D01*
X129045366Y-146432882D01*
X129124610Y-146379933D01*
X129143552Y-146364388D01*
X129159098Y-146345446D01*
X129170649Y-146323835D01*
X129177762Y-146300386D01*
X129180164Y-146276000D01*
X129177762Y-146251614D01*
X129170649Y-146228165D01*
X129159098Y-146206555D01*
X129143553Y-146187613D01*
X129124610Y-146172067D01*
X129045366Y-146119118D01*
X128759684Y-145833436D01*
X128617667Y-145620893D01*
X128535227Y-145497513D01*
X128520976Y-145463108D01*
X128380618Y-145124254D01*
X128301800Y-144728007D01*
X128301800Y-144323993D01*
X128380618Y-143927746D01*
X128535226Y-143554489D01*
X128759684Y-143218564D01*
X129045364Y-142932884D01*
X129062530Y-142921414D01*
X129381287Y-142708427D01*
X129592613Y-142620893D01*
X129754546Y-142553818D01*
X130150793Y-142475000D01*
X130554807Y-142475000D01*
X130951054Y-142553818D01*
X130951054Y-142553818D01*
G37*
G36*
X141870321Y-148012174D02*
G01*
X141970595Y-148053709D01*
X141970596Y-148053710D01*
X142060842Y-148114010D01*
X142137590Y-148190758D01*
X142137591Y-148190760D01*
X142197891Y-148281005D01*
X142239426Y-148381279D01*
X142260600Y-148487730D01*
X142260600Y-148596270D01*
X142239426Y-148702721D01*
X142197891Y-148802995D01*
X142197890Y-148802996D01*
X142137590Y-148893242D01*
X142060842Y-148969990D01*
X142019654Y-148997511D01*
X141970595Y-149030291D01*
X141870321Y-149071826D01*
X141763870Y-149093000D01*
X141655330Y-149093000D01*
X141548879Y-149071826D01*
X141448605Y-149030291D01*
X141399546Y-148997511D01*
X141358358Y-148969990D01*
X141281610Y-148893242D01*
X141221310Y-148802996D01*
X141221309Y-148802995D01*
X141179774Y-148702721D01*
X141158600Y-148596270D01*
X141158600Y-148487730D01*
X141179774Y-148381279D01*
X141221309Y-148281005D01*
X141281609Y-148190760D01*
X141281610Y-148190758D01*
X141358358Y-148114010D01*
X141448604Y-148053710D01*
X141448605Y-148053709D01*
X141548879Y-148012174D01*
X141655330Y-147991000D01*
X141763870Y-147991000D01*
X141870321Y-148012174D01*
X141870321Y-148012174D01*
G37*
G36*
X114430172Y-144372432D02*
G01*
X114573267Y-144400895D01*
X114775456Y-144484644D01*
X114957421Y-144606230D01*
X115112170Y-144760979D01*
X115233756Y-144942944D01*
X115317505Y-145145133D01*
X115360200Y-145359776D01*
X115360200Y-145578624D01*
X115317505Y-145793267D01*
X115233756Y-145995456D01*
X115112170Y-146177421D01*
X114957421Y-146332170D01*
X114775456Y-146453756D01*
X114573267Y-146537505D01*
X114430172Y-146565968D01*
X114358625Y-146580200D01*
X114139775Y-146580200D01*
X114068228Y-146565968D01*
X113925133Y-146537505D01*
X113722944Y-146453756D01*
X113540979Y-146332170D01*
X113386230Y-146177421D01*
X113264644Y-145995456D01*
X113180895Y-145793267D01*
X113138200Y-145578624D01*
X113138200Y-145359776D01*
X113180895Y-145145133D01*
X113264644Y-144942944D01*
X113386230Y-144760979D01*
X113540979Y-144606230D01*
X113722944Y-144484644D01*
X113925133Y-144400895D01*
X114068228Y-144372432D01*
X114139775Y-144358200D01*
X114358625Y-144358200D01*
X114430172Y-144372432D01*
X114430172Y-144372432D01*
G37*
G36*
X141003242Y-144771781D02*
G01*
X141126808Y-144822964D01*
X141149016Y-144832163D01*
X141280208Y-144919822D01*
X141391778Y-145031392D01*
X141467778Y-145145135D01*
X141479438Y-145162586D01*
X141539819Y-145308358D01*
X141570600Y-145463107D01*
X141570600Y-145620893D01*
X141539819Y-145775642D01*
X141479438Y-145921414D01*
X141479437Y-145921416D01*
X141391778Y-146052608D01*
X141280208Y-146164178D01*
X141149016Y-146251837D01*
X141149015Y-146251838D01*
X141149014Y-146251838D01*
X141003242Y-146312219D01*
X140848493Y-146343000D01*
X140690707Y-146343000D01*
X140535958Y-146312219D01*
X140390186Y-146251838D01*
X140390185Y-146251838D01*
X140390184Y-146251837D01*
X140258992Y-146164178D01*
X140147422Y-146052608D01*
X140059763Y-145921416D01*
X140059762Y-145921414D01*
X139999381Y-145775642D01*
X139968600Y-145620893D01*
X139968600Y-145463107D01*
X139999381Y-145308358D01*
X140059762Y-145162586D01*
X140071422Y-145145135D01*
X140147422Y-145031392D01*
X140258992Y-144919822D01*
X140390184Y-144832163D01*
X140412392Y-144822964D01*
X140535958Y-144771781D01*
X140690707Y-144741000D01*
X140848493Y-144741000D01*
X141003242Y-144771781D01*
X141003242Y-144771781D01*
G37*
G36*
X138422648Y-144745122D02*
G01*
X138456987Y-144755539D01*
X138488636Y-144772456D01*
X138516378Y-144795222D01*
X138539144Y-144822964D01*
X138556061Y-144854613D01*
X138566478Y-144888952D01*
X138570600Y-144930807D01*
X138570600Y-146153193D01*
X138566478Y-146195048D01*
X138556061Y-146229387D01*
X138539144Y-146261036D01*
X138516378Y-146288778D01*
X138488636Y-146311544D01*
X138456987Y-146328461D01*
X138422648Y-146338878D01*
X138380793Y-146343000D01*
X137158407Y-146343000D01*
X137116552Y-146338878D01*
X137082213Y-146328461D01*
X137050564Y-146311544D01*
X137022822Y-146288778D01*
X137000056Y-146261036D01*
X136983139Y-146229387D01*
X136972722Y-146195048D01*
X136968600Y-146153193D01*
X136968600Y-144930807D01*
X136972722Y-144888952D01*
X136983139Y-144854613D01*
X137000056Y-144822964D01*
X137022822Y-144795222D01*
X137050564Y-144772456D01*
X137082213Y-144755539D01*
X137116552Y-144745122D01*
X137158407Y-144741000D01*
X138380793Y-144741000D01*
X138422648Y-144745122D01*
X138422648Y-144745122D01*
G37*
G36*
X141003242Y-141771781D02*
G01*
X141149014Y-141832162D01*
X141149016Y-141832163D01*
X141280208Y-141919822D01*
X141391778Y-142031392D01*
X141479437Y-142162584D01*
X141479438Y-142162586D01*
X141539819Y-142308358D01*
X141570600Y-142463107D01*
X141570600Y-142620893D01*
X141539819Y-142775642D01*
X141479438Y-142921414D01*
X141479437Y-142921416D01*
X141391778Y-143052608D01*
X141280208Y-143164178D01*
X141149016Y-143251837D01*
X141149015Y-143251838D01*
X141149014Y-143251838D01*
X141003242Y-143312219D01*
X140848493Y-143343000D01*
X140690707Y-143343000D01*
X140535958Y-143312219D01*
X140390186Y-143251838D01*
X140390185Y-143251838D01*
X140390184Y-143251837D01*
X140258992Y-143164178D01*
X140147422Y-143052608D01*
X140059763Y-142921416D01*
X140059762Y-142921414D01*
X139999381Y-142775642D01*
X139968600Y-142620893D01*
X139968600Y-142463107D01*
X139999381Y-142308358D01*
X140059762Y-142162586D01*
X140059763Y-142162584D01*
X140147422Y-142031392D01*
X140258992Y-141919822D01*
X140390184Y-141832163D01*
X140390186Y-141832162D01*
X140535958Y-141771781D01*
X140690707Y-141741000D01*
X140848493Y-141741000D01*
X141003242Y-141771781D01*
X141003242Y-141771781D01*
G37*
G36*
X138003242Y-141771781D02*
G01*
X138149014Y-141832162D01*
X138149016Y-141832163D01*
X138280208Y-141919822D01*
X138391778Y-142031392D01*
X138479437Y-142162584D01*
X138479438Y-142162586D01*
X138539819Y-142308358D01*
X138570600Y-142463107D01*
X138570600Y-142620893D01*
X138539819Y-142775642D01*
X138479438Y-142921414D01*
X138479437Y-142921416D01*
X138391778Y-143052608D01*
X138280208Y-143164178D01*
X138149016Y-143251837D01*
X138149015Y-143251838D01*
X138149014Y-143251838D01*
X138003242Y-143312219D01*
X137848493Y-143343000D01*
X137690707Y-143343000D01*
X137535958Y-143312219D01*
X137390186Y-143251838D01*
X137390185Y-143251838D01*
X137390184Y-143251837D01*
X137258992Y-143164178D01*
X137147422Y-143052608D01*
X137059763Y-142921416D01*
X137059762Y-142921414D01*
X136999381Y-142775642D01*
X136968600Y-142620893D01*
X136968600Y-142463107D01*
X136999381Y-142308358D01*
X137059762Y-142162586D01*
X137059763Y-142162584D01*
X137147422Y-142031392D01*
X137258992Y-141919822D01*
X137390184Y-141832163D01*
X137390186Y-141832162D01*
X137535958Y-141771781D01*
X137690707Y-141741000D01*
X137848493Y-141741000D01*
X138003242Y-141771781D01*
X138003242Y-141771781D01*
G37*
G36*
X141003242Y-138771781D02*
G01*
X141149014Y-138832162D01*
X141149016Y-138832163D01*
X141280208Y-138919822D01*
X141391778Y-139031392D01*
X141479437Y-139162584D01*
X141479438Y-139162586D01*
X141539819Y-139308358D01*
X141570600Y-139463107D01*
X141570600Y-139620893D01*
X141539819Y-139775642D01*
X141479438Y-139921414D01*
X141479437Y-139921416D01*
X141391778Y-140052608D01*
X141280208Y-140164178D01*
X141149016Y-140251837D01*
X141149015Y-140251838D01*
X141149014Y-140251838D01*
X141003242Y-140312219D01*
X140848493Y-140343000D01*
X140690707Y-140343000D01*
X140535958Y-140312219D01*
X140390186Y-140251838D01*
X140390185Y-140251838D01*
X140390184Y-140251837D01*
X140258992Y-140164178D01*
X140147422Y-140052608D01*
X140059763Y-139921416D01*
X140059762Y-139921414D01*
X139999381Y-139775642D01*
X139968600Y-139620893D01*
X139968600Y-139463107D01*
X139999381Y-139308358D01*
X140059762Y-139162586D01*
X140059763Y-139162584D01*
X140147422Y-139031392D01*
X140258992Y-138919822D01*
X140390184Y-138832163D01*
X140390186Y-138832162D01*
X140535958Y-138771781D01*
X140690707Y-138741000D01*
X140848493Y-138741000D01*
X141003242Y-138771781D01*
X141003242Y-138771781D01*
G37*
G36*
X138003242Y-138771781D02*
G01*
X138149014Y-138832162D01*
X138149016Y-138832163D01*
X138280208Y-138919822D01*
X138391778Y-139031392D01*
X138479437Y-139162584D01*
X138479438Y-139162586D01*
X138539819Y-139308358D01*
X138570600Y-139463107D01*
X138570600Y-139620893D01*
X138539819Y-139775642D01*
X138479438Y-139921414D01*
X138479437Y-139921416D01*
X138391778Y-140052608D01*
X138280208Y-140164178D01*
X138149016Y-140251837D01*
X138149015Y-140251838D01*
X138149014Y-140251838D01*
X138003242Y-140312219D01*
X137848493Y-140343000D01*
X137690707Y-140343000D01*
X137535958Y-140312219D01*
X137390186Y-140251838D01*
X137390185Y-140251838D01*
X137390184Y-140251837D01*
X137258992Y-140164178D01*
X137147422Y-140052608D01*
X137059763Y-139921416D01*
X137059762Y-139921414D01*
X136999381Y-139775642D01*
X136968600Y-139620893D01*
X136968600Y-139463107D01*
X136999381Y-139308358D01*
X137059762Y-139162586D01*
X137059763Y-139162584D01*
X137147422Y-139031392D01*
X137258992Y-138919822D01*
X137390184Y-138832163D01*
X137390186Y-138832162D01*
X137535958Y-138771781D01*
X137690707Y-138741000D01*
X137848493Y-138741000D01*
X138003242Y-138771781D01*
X138003242Y-138771781D01*
G37*
G36*
X141870321Y-136012174D02*
G01*
X141970595Y-136053709D01*
X141970596Y-136053710D01*
X142060842Y-136114010D01*
X142137590Y-136190758D01*
X142137591Y-136190760D01*
X142197891Y-136281005D01*
X142239426Y-136381279D01*
X142260600Y-136487730D01*
X142260600Y-136596270D01*
X142239426Y-136702721D01*
X142197891Y-136802995D01*
X142197890Y-136802996D01*
X142137590Y-136893242D01*
X142060842Y-136969990D01*
X142015412Y-137000345D01*
X141970595Y-137030291D01*
X141870321Y-137071826D01*
X141763870Y-137093000D01*
X141655330Y-137093000D01*
X141548879Y-137071826D01*
X141448605Y-137030291D01*
X141403788Y-137000345D01*
X141358358Y-136969990D01*
X141281610Y-136893242D01*
X141221310Y-136802996D01*
X141221309Y-136802995D01*
X141179774Y-136702721D01*
X141158600Y-136596270D01*
X141158600Y-136487730D01*
X141179774Y-136381279D01*
X141221309Y-136281005D01*
X141281609Y-136190760D01*
X141281610Y-136190758D01*
X141358358Y-136114010D01*
X141448604Y-136053710D01*
X141448605Y-136053709D01*
X141548879Y-136012174D01*
X141655330Y-135991000D01*
X141763870Y-135991000D01*
X141870321Y-136012174D01*
X141870321Y-136012174D01*
G37*
G36*
X114430172Y-133472432D02*
G01*
X114573267Y-133500895D01*
X114775456Y-133584644D01*
X114957421Y-133706230D01*
X115112170Y-133860979D01*
X115233756Y-134042944D01*
X115317505Y-134245133D01*
X115360200Y-134459776D01*
X115360200Y-134678624D01*
X115317505Y-134893267D01*
X115233756Y-135095456D01*
X115112170Y-135277421D01*
X114957421Y-135432170D01*
X114775456Y-135553756D01*
X114573267Y-135637505D01*
X114430172Y-135665968D01*
X114358625Y-135680200D01*
X114139775Y-135680200D01*
X114068228Y-135665968D01*
X113925133Y-135637505D01*
X113722944Y-135553756D01*
X113540979Y-135432170D01*
X113386230Y-135277421D01*
X113264644Y-135095456D01*
X113180895Y-134893267D01*
X113138200Y-134678624D01*
X113138200Y-134459776D01*
X113180895Y-134245133D01*
X113264644Y-134042944D01*
X113386230Y-133860979D01*
X113540979Y-133706230D01*
X113722944Y-133584644D01*
X113925133Y-133500895D01*
X114068228Y-133472432D01*
X114139775Y-133458200D01*
X114358625Y-133458200D01*
X114430172Y-133472432D01*
X114430172Y-133472432D01*
G37*
G36*
X117212031Y-125604041D02*
G01*
X117357026Y-125632882D01*
X117470174Y-125679750D01*
X117630189Y-125746030D01*
X117630190Y-125746031D01*
X117876032Y-125910297D01*
X118085103Y-126119368D01*
X118138176Y-126198798D01*
X118249370Y-126365211D01*
X118362518Y-126638375D01*
X118420200Y-126928363D01*
X118420200Y-127224037D01*
X118362518Y-127514025D01*
X118249370Y-127787189D01*
X118249369Y-127787190D01*
X118085103Y-128033032D01*
X117876032Y-128242103D01*
X117752276Y-128324794D01*
X117630189Y-128406370D01*
X117470174Y-128472650D01*
X117357026Y-128519518D01*
X117212031Y-128548359D01*
X117067037Y-128577200D01*
X116771363Y-128577200D01*
X116626369Y-128548359D01*
X116481374Y-128519518D01*
X116368226Y-128472650D01*
X116208211Y-128406370D01*
X116086124Y-128324794D01*
X115962368Y-128242103D01*
X115753297Y-128033032D01*
X115589031Y-127787190D01*
X115589030Y-127787189D01*
X115475882Y-127514025D01*
X115418200Y-127224037D01*
X115418200Y-126928363D01*
X115475882Y-126638375D01*
X115589030Y-126365211D01*
X115700224Y-126198798D01*
X115753297Y-126119368D01*
X115962368Y-125910297D01*
X116208210Y-125746031D01*
X116208211Y-125746030D01*
X116368226Y-125679750D01*
X116481374Y-125632882D01*
X116626369Y-125604041D01*
X116771363Y-125575200D01*
X117067037Y-125575200D01*
X117212031Y-125604041D01*
X117212031Y-125604041D01*
G37*
G36*
X143756648Y-124679122D02*
G01*
X143790987Y-124689539D01*
X143822636Y-124706456D01*
X143850378Y-124729222D01*
X143873144Y-124756964D01*
X143890061Y-124788613D01*
X143900478Y-124822952D01*
X143904600Y-124864807D01*
X143904600Y-126087193D01*
X143900478Y-126129048D01*
X143890061Y-126163387D01*
X143873144Y-126195036D01*
X143850378Y-126222778D01*
X143822636Y-126245544D01*
X143790987Y-126262461D01*
X143756648Y-126272878D01*
X143714793Y-126277000D01*
X142492407Y-126277000D01*
X142450552Y-126272878D01*
X142416213Y-126262461D01*
X142384564Y-126245544D01*
X142356822Y-126222778D01*
X142334056Y-126195036D01*
X142317139Y-126163387D01*
X142306722Y-126129048D01*
X142302600Y-126087193D01*
X142302600Y-124864807D01*
X142306722Y-124822952D01*
X142317139Y-124788613D01*
X142334056Y-124756964D01*
X142356822Y-124729222D01*
X142384564Y-124706456D01*
X142416213Y-124689539D01*
X142450552Y-124679122D01*
X142492407Y-124675000D01*
X143714793Y-124675000D01*
X143756648Y-124679122D01*
X143756648Y-124679122D01*
G37*
G36*
X146337242Y-124705781D02*
G01*
X146460808Y-124756964D01*
X146483016Y-124766163D01*
X146614208Y-124853822D01*
X146725778Y-124965392D01*
X146813437Y-125096584D01*
X146813438Y-125096586D01*
X146873819Y-125242358D01*
X146904600Y-125397107D01*
X146904600Y-125554893D01*
X146873819Y-125709642D01*
X146858746Y-125746031D01*
X146813437Y-125855416D01*
X146725778Y-125986608D01*
X146614208Y-126098178D01*
X146483016Y-126185837D01*
X146483015Y-126185838D01*
X146483014Y-126185838D01*
X146337242Y-126246219D01*
X146182493Y-126277000D01*
X146024707Y-126277000D01*
X145869958Y-126246219D01*
X145724186Y-126185838D01*
X145724185Y-126185838D01*
X145724184Y-126185837D01*
X145592992Y-126098178D01*
X145481422Y-125986608D01*
X145393763Y-125855416D01*
X145348454Y-125746031D01*
X145333381Y-125709642D01*
X145302600Y-125554893D01*
X145302600Y-125397107D01*
X145333381Y-125242358D01*
X145393762Y-125096586D01*
X145393763Y-125096584D01*
X145481422Y-124965392D01*
X145592992Y-124853822D01*
X145724184Y-124766163D01*
X145746392Y-124756964D01*
X145869958Y-124705781D01*
X146024707Y-124675000D01*
X146182493Y-124675000D01*
X146337242Y-124705781D01*
X146337242Y-124705781D01*
G37*
G36*
X139086185Y-122454802D02*
G01*
X139236010Y-122484604D01*
X139518274Y-122601521D01*
X139772305Y-122771259D01*
X139988341Y-122987295D01*
X140158079Y-123241326D01*
X140274996Y-123523590D01*
X140334600Y-123823240D01*
X140334600Y-124128760D01*
X140274996Y-124428410D01*
X140158079Y-124710674D01*
X139988341Y-124964705D01*
X139772305Y-125180741D01*
X139518274Y-125350479D01*
X139236010Y-125467396D01*
X139086185Y-125497198D01*
X138936361Y-125527000D01*
X138630839Y-125527000D01*
X138481015Y-125497198D01*
X138331190Y-125467396D01*
X138048926Y-125350479D01*
X137794895Y-125180741D01*
X137578859Y-124964705D01*
X137409121Y-124710674D01*
X137292204Y-124428410D01*
X137232600Y-124128760D01*
X137232600Y-123823240D01*
X137292204Y-123523590D01*
X137409121Y-123241326D01*
X137578859Y-122987295D01*
X137794895Y-122771259D01*
X138048926Y-122601521D01*
X138331190Y-122484604D01*
X138481015Y-122454802D01*
X138630839Y-122425000D01*
X138936361Y-122425000D01*
X139086185Y-122454802D01*
X139086185Y-122454802D01*
G37*
G36*
X143337242Y-121705781D02*
G01*
X143483014Y-121766162D01*
X143483016Y-121766163D01*
X143614208Y-121853822D01*
X143725778Y-121965392D01*
X143813437Y-122096584D01*
X143813438Y-122096586D01*
X143873819Y-122242358D01*
X143904600Y-122397107D01*
X143904600Y-122554893D01*
X143873819Y-122709642D01*
X143813438Y-122855414D01*
X143813437Y-122855416D01*
X143725778Y-122986608D01*
X143614208Y-123098178D01*
X143483016Y-123185837D01*
X143483015Y-123185838D01*
X143483014Y-123185838D01*
X143337242Y-123246219D01*
X143182493Y-123277000D01*
X143024707Y-123277000D01*
X142869958Y-123246219D01*
X142724186Y-123185838D01*
X142724185Y-123185838D01*
X142724184Y-123185837D01*
X142592992Y-123098178D01*
X142481422Y-122986608D01*
X142393763Y-122855416D01*
X142393762Y-122855414D01*
X142333381Y-122709642D01*
X142302600Y-122554893D01*
X142302600Y-122397107D01*
X142333381Y-122242358D01*
X142393762Y-122096586D01*
X142393763Y-122096584D01*
X142481422Y-121965392D01*
X142592992Y-121853822D01*
X142724184Y-121766163D01*
X142724186Y-121766162D01*
X142869958Y-121705781D01*
X143024707Y-121675000D01*
X143182493Y-121675000D01*
X143337242Y-121705781D01*
X143337242Y-121705781D01*
G37*
G36*
X146337242Y-121705781D02*
G01*
X146483014Y-121766162D01*
X146483016Y-121766163D01*
X146614208Y-121853822D01*
X146725778Y-121965392D01*
X146813437Y-122096584D01*
X146813438Y-122096586D01*
X146873819Y-122242358D01*
X146904600Y-122397107D01*
X146904600Y-122554893D01*
X146873819Y-122709642D01*
X146813438Y-122855414D01*
X146813437Y-122855416D01*
X146725778Y-122986608D01*
X146614208Y-123098178D01*
X146483016Y-123185837D01*
X146483015Y-123185838D01*
X146483014Y-123185838D01*
X146337242Y-123246219D01*
X146182493Y-123277000D01*
X146024707Y-123277000D01*
X145869958Y-123246219D01*
X145724186Y-123185838D01*
X145724185Y-123185838D01*
X145724184Y-123185837D01*
X145592992Y-123098178D01*
X145481422Y-122986608D01*
X145393763Y-122855416D01*
X145393762Y-122855414D01*
X145333381Y-122709642D01*
X145302600Y-122554893D01*
X145302600Y-122397107D01*
X145333381Y-122242358D01*
X145393762Y-122096586D01*
X145393763Y-122096584D01*
X145481422Y-121965392D01*
X145592992Y-121853822D01*
X145724184Y-121766163D01*
X145724186Y-121766162D01*
X145869958Y-121705781D01*
X146024707Y-121675000D01*
X146182493Y-121675000D01*
X146337242Y-121705781D01*
X146337242Y-121705781D01*
G37*
M02*
