G04 #@! TF.GenerationSoftware,KiCad,Pcbnew,5.1.4-e60b266~84~ubuntu18.04.1*
G04 #@! TF.CreationDate,2020-01-06T17:57:10-05:00*
G04 #@! TF.ProjectId,AIR_MINUS,4149525f-4d49-44e5-9553-2e6b69636164,rev?*
G04 #@! TF.SameCoordinates,Original*
G04 #@! TF.FileFunction,Copper,L2,Bot*
G04 #@! TF.FilePolarity,Positive*
%FSLAX46Y46*%
G04 Gerber Fmt 4.6, Leading zero omitted, Abs format (unit mm)*
G04 Created by KiCad (PCBNEW 5.1.4-e60b266~84~ubuntu18.04.1) date 2020-01-06 17:57:10*
%MOMM*%
%LPD*%
G04 APERTURE LIST*
%ADD10O,1.500000X2.500000*%
%ADD11C,4.000000*%
%ADD12C,1.000000*%
%ADD13C,1.500000*%
%ADD14C,0.100000*%
%ADD15C,1.397000*%
%ADD16C,1.981000*%
%ADD17C,2.900000*%
%ADD18C,2.120000*%
%ADD19C,1.400000*%
%ADD20C,0.254000*%
G04 APERTURE END LIST*
D10*
X135352800Y-169526000D03*
X137352800Y-169526000D03*
X139352800Y-169526000D03*
X141352800Y-169526000D03*
D11*
X130352800Y-148026000D03*
X130352800Y-144526000D03*
X148352800Y-144526000D03*
D10*
X143352800Y-169526000D03*
D11*
X148352800Y-148026000D03*
D12*
X117158800Y-175789600D03*
X112158800Y-175789600D03*
X127158800Y-170789600D03*
X102158800Y-170789600D03*
D13*
X140769600Y-139542000D03*
X140769600Y-142542000D03*
X140769600Y-145542000D03*
X137769600Y-139542000D03*
X137769600Y-142542000D03*
D14*
G36*
X138294104Y-144793204D02*
G01*
X138318373Y-144796804D01*
X138342171Y-144802765D01*
X138365271Y-144811030D01*
X138387449Y-144821520D01*
X138408493Y-144834133D01*
X138428198Y-144848747D01*
X138446377Y-144865223D01*
X138462853Y-144883402D01*
X138477467Y-144903107D01*
X138490080Y-144924151D01*
X138500570Y-144946329D01*
X138508835Y-144969429D01*
X138514796Y-144993227D01*
X138518396Y-145017496D01*
X138519600Y-145042000D01*
X138519600Y-146042000D01*
X138518396Y-146066504D01*
X138514796Y-146090773D01*
X138508835Y-146114571D01*
X138500570Y-146137671D01*
X138490080Y-146159849D01*
X138477467Y-146180893D01*
X138462853Y-146200598D01*
X138446377Y-146218777D01*
X138428198Y-146235253D01*
X138408493Y-146249867D01*
X138387449Y-146262480D01*
X138365271Y-146272970D01*
X138342171Y-146281235D01*
X138318373Y-146287196D01*
X138294104Y-146290796D01*
X138269600Y-146292000D01*
X137269600Y-146292000D01*
X137245096Y-146290796D01*
X137220827Y-146287196D01*
X137197029Y-146281235D01*
X137173929Y-146272970D01*
X137151751Y-146262480D01*
X137130707Y-146249867D01*
X137111002Y-146235253D01*
X137092823Y-146218777D01*
X137076347Y-146200598D01*
X137061733Y-146180893D01*
X137049120Y-146159849D01*
X137038630Y-146137671D01*
X137030365Y-146114571D01*
X137024404Y-146090773D01*
X137020804Y-146066504D01*
X137019600Y-146042000D01*
X137019600Y-145042000D01*
X137020804Y-145017496D01*
X137024404Y-144993227D01*
X137030365Y-144969429D01*
X137038630Y-144946329D01*
X137049120Y-144924151D01*
X137061733Y-144903107D01*
X137076347Y-144883402D01*
X137092823Y-144865223D01*
X137111002Y-144848747D01*
X137130707Y-144834133D01*
X137151751Y-144821520D01*
X137173929Y-144811030D01*
X137197029Y-144802765D01*
X137220827Y-144796804D01*
X137245096Y-144793204D01*
X137269600Y-144792000D01*
X138269600Y-144792000D01*
X138294104Y-144793204D01*
X138294104Y-144793204D01*
G37*
D13*
X137769600Y-145542000D03*
D15*
X76471600Y-175818800D03*
X72971600Y-175818800D03*
D16*
X67721600Y-178048800D03*
D15*
X65971600Y-175818800D03*
X69471600Y-175818800D03*
D13*
X146103600Y-122476000D03*
X146103600Y-125476000D03*
X143103600Y-122476000D03*
D14*
G36*
X143628104Y-124727204D02*
G01*
X143652373Y-124730804D01*
X143676171Y-124736765D01*
X143699271Y-124745030D01*
X143721449Y-124755520D01*
X143742493Y-124768133D01*
X143762198Y-124782747D01*
X143780377Y-124799223D01*
X143796853Y-124817402D01*
X143811467Y-124837107D01*
X143824080Y-124858151D01*
X143834570Y-124880329D01*
X143842835Y-124903429D01*
X143848796Y-124927227D01*
X143852396Y-124951496D01*
X143853600Y-124976000D01*
X143853600Y-125976000D01*
X143852396Y-126000504D01*
X143848796Y-126024773D01*
X143842835Y-126048571D01*
X143834570Y-126071671D01*
X143824080Y-126093849D01*
X143811467Y-126114893D01*
X143796853Y-126134598D01*
X143780377Y-126152777D01*
X143762198Y-126169253D01*
X143742493Y-126183867D01*
X143721449Y-126196480D01*
X143699271Y-126206970D01*
X143676171Y-126215235D01*
X143652373Y-126221196D01*
X143628104Y-126224796D01*
X143603600Y-126226000D01*
X142603600Y-126226000D01*
X142579096Y-126224796D01*
X142554827Y-126221196D01*
X142531029Y-126215235D01*
X142507929Y-126206970D01*
X142485751Y-126196480D01*
X142464707Y-126183867D01*
X142445002Y-126169253D01*
X142426823Y-126152777D01*
X142410347Y-126134598D01*
X142395733Y-126114893D01*
X142383120Y-126093849D01*
X142372630Y-126071671D01*
X142364365Y-126048571D01*
X142358404Y-126024773D01*
X142354804Y-126000504D01*
X142353600Y-125976000D01*
X142353600Y-124976000D01*
X142354804Y-124951496D01*
X142358404Y-124927227D01*
X142364365Y-124903429D01*
X142372630Y-124880329D01*
X142383120Y-124858151D01*
X142395733Y-124837107D01*
X142410347Y-124817402D01*
X142426823Y-124799223D01*
X142445002Y-124782747D01*
X142464707Y-124768133D01*
X142485751Y-124755520D01*
X142507929Y-124745030D01*
X142531029Y-124736765D01*
X142554827Y-124730804D01*
X142579096Y-124727204D01*
X142603600Y-124726000D01*
X143603600Y-124726000D01*
X143628104Y-124727204D01*
X143628104Y-124727204D01*
G37*
D13*
X143103600Y-125476000D03*
D17*
X116919200Y-152476200D03*
X116919200Y-127076200D03*
D18*
X114249200Y-145469200D03*
X114249200Y-134569200D03*
D19*
X139444000Y-155800800D03*
X139444000Y-158800800D03*
X139444000Y-161800800D03*
X136444000Y-155800800D03*
X136444000Y-158800800D03*
X136444000Y-161800800D03*
D20*
G36*
X147519747Y-118280281D02*
G01*
X148250643Y-118480231D01*
X148934575Y-118806450D01*
X149549928Y-119248626D01*
X150077259Y-119792789D01*
X150499886Y-120421726D01*
X150804463Y-121115570D01*
X150982715Y-121858039D01*
X151030001Y-122501963D01*
X151030000Y-177212269D01*
X150959719Y-177999748D01*
X150759769Y-178730643D01*
X150433550Y-179414575D01*
X149991374Y-180029928D01*
X149447211Y-180557259D01*
X148818274Y-180979886D01*
X148124429Y-181284464D01*
X147381961Y-181462714D01*
X146738051Y-181510000D01*
X38431525Y-181510000D01*
X37644046Y-181439719D01*
X36913151Y-181239769D01*
X36229219Y-180913550D01*
X35613866Y-180471374D01*
X35086535Y-179927211D01*
X34663908Y-179298274D01*
X34359330Y-178604429D01*
X34181080Y-177861961D01*
X34133794Y-177218051D01*
X34133794Y-175687462D01*
X64638100Y-175687462D01*
X64638100Y-175950138D01*
X64689346Y-176207768D01*
X64789868Y-176450449D01*
X64935803Y-176668857D01*
X65121543Y-176854597D01*
X65339951Y-177000532D01*
X65582632Y-177101054D01*
X65840262Y-177152300D01*
X66102938Y-177152300D01*
X66360568Y-177101054D01*
X66414940Y-177078532D01*
X66281101Y-177278837D01*
X66158567Y-177574659D01*
X66096100Y-177888702D01*
X66096100Y-178208898D01*
X66158567Y-178522941D01*
X66281101Y-178818763D01*
X66458992Y-179084996D01*
X66685404Y-179311408D01*
X66951637Y-179489299D01*
X67247459Y-179611833D01*
X67561502Y-179674300D01*
X67881698Y-179674300D01*
X68195741Y-179611833D01*
X68491563Y-179489299D01*
X68757796Y-179311408D01*
X68984208Y-179084996D01*
X69162099Y-178818763D01*
X69284633Y-178522941D01*
X69347100Y-178208898D01*
X69347100Y-177888702D01*
X69284633Y-177574659D01*
X69162099Y-177278837D01*
X69028260Y-177078532D01*
X69082632Y-177101054D01*
X69340262Y-177152300D01*
X69602938Y-177152300D01*
X69860568Y-177101054D01*
X70103249Y-177000532D01*
X70321657Y-176854597D01*
X70507397Y-176668857D01*
X70653332Y-176450449D01*
X70753854Y-176207768D01*
X70805100Y-175950138D01*
X70805100Y-175687462D01*
X71638100Y-175687462D01*
X71638100Y-175950138D01*
X71689346Y-176207768D01*
X71789868Y-176450449D01*
X71935803Y-176668857D01*
X72121543Y-176854597D01*
X72339951Y-177000532D01*
X72582632Y-177101054D01*
X72840262Y-177152300D01*
X73102938Y-177152300D01*
X73360568Y-177101054D01*
X73603249Y-177000532D01*
X73821657Y-176854597D01*
X74007397Y-176668857D01*
X74153332Y-176450449D01*
X74253854Y-176207768D01*
X74305100Y-175950138D01*
X74305100Y-175687462D01*
X75138100Y-175687462D01*
X75138100Y-175950138D01*
X75189346Y-176207768D01*
X75289868Y-176450449D01*
X75435803Y-176668857D01*
X75621543Y-176854597D01*
X75839951Y-177000532D01*
X76082632Y-177101054D01*
X76340262Y-177152300D01*
X76602938Y-177152300D01*
X76860568Y-177101054D01*
X77103249Y-177000532D01*
X77321657Y-176854597D01*
X77507397Y-176668857D01*
X77653332Y-176450449D01*
X77753854Y-176207768D01*
X77805100Y-175950138D01*
X77805100Y-175687462D01*
X77803181Y-175677812D01*
X111023800Y-175677812D01*
X111023800Y-175901388D01*
X111067417Y-176120667D01*
X111152976Y-176327224D01*
X111277188Y-176513120D01*
X111435280Y-176671212D01*
X111621176Y-176795424D01*
X111827733Y-176880983D01*
X112047012Y-176924600D01*
X112270588Y-176924600D01*
X112489867Y-176880983D01*
X112696424Y-176795424D01*
X112882320Y-176671212D01*
X113040412Y-176513120D01*
X113164624Y-176327224D01*
X113250183Y-176120667D01*
X113293800Y-175901388D01*
X113293800Y-175677812D01*
X116023800Y-175677812D01*
X116023800Y-175901388D01*
X116067417Y-176120667D01*
X116152976Y-176327224D01*
X116277188Y-176513120D01*
X116435280Y-176671212D01*
X116621176Y-176795424D01*
X116827733Y-176880983D01*
X117047012Y-176924600D01*
X117270588Y-176924600D01*
X117489867Y-176880983D01*
X117696424Y-176795424D01*
X117882320Y-176671212D01*
X118040412Y-176513120D01*
X118164624Y-176327224D01*
X118250183Y-176120667D01*
X118293800Y-175901388D01*
X118293800Y-175677812D01*
X118250183Y-175458533D01*
X118164624Y-175251976D01*
X118040412Y-175066080D01*
X117882320Y-174907988D01*
X117696424Y-174783776D01*
X117489867Y-174698217D01*
X117270588Y-174654600D01*
X117047012Y-174654600D01*
X116827733Y-174698217D01*
X116621176Y-174783776D01*
X116435280Y-174907988D01*
X116277188Y-175066080D01*
X116152976Y-175251976D01*
X116067417Y-175458533D01*
X116023800Y-175677812D01*
X113293800Y-175677812D01*
X113250183Y-175458533D01*
X113164624Y-175251976D01*
X113040412Y-175066080D01*
X112882320Y-174907988D01*
X112696424Y-174783776D01*
X112489867Y-174698217D01*
X112270588Y-174654600D01*
X112047012Y-174654600D01*
X111827733Y-174698217D01*
X111621176Y-174783776D01*
X111435280Y-174907988D01*
X111277188Y-175066080D01*
X111152976Y-175251976D01*
X111067417Y-175458533D01*
X111023800Y-175677812D01*
X77803181Y-175677812D01*
X77753854Y-175429832D01*
X77653332Y-175187151D01*
X77507397Y-174968743D01*
X77321657Y-174783003D01*
X77103249Y-174637068D01*
X76860568Y-174536546D01*
X76602938Y-174485300D01*
X76340262Y-174485300D01*
X76082632Y-174536546D01*
X75839951Y-174637068D01*
X75621543Y-174783003D01*
X75435803Y-174968743D01*
X75289868Y-175187151D01*
X75189346Y-175429832D01*
X75138100Y-175687462D01*
X74305100Y-175687462D01*
X74253854Y-175429832D01*
X74153332Y-175187151D01*
X74007397Y-174968743D01*
X73821657Y-174783003D01*
X73603249Y-174637068D01*
X73360568Y-174536546D01*
X73102938Y-174485300D01*
X72840262Y-174485300D01*
X72582632Y-174536546D01*
X72339951Y-174637068D01*
X72121543Y-174783003D01*
X71935803Y-174968743D01*
X71789868Y-175187151D01*
X71689346Y-175429832D01*
X71638100Y-175687462D01*
X70805100Y-175687462D01*
X70753854Y-175429832D01*
X70653332Y-175187151D01*
X70507397Y-174968743D01*
X70321657Y-174783003D01*
X70103249Y-174637068D01*
X69860568Y-174536546D01*
X69602938Y-174485300D01*
X69340262Y-174485300D01*
X69082632Y-174536546D01*
X68839951Y-174637068D01*
X68621543Y-174783003D01*
X68435803Y-174968743D01*
X68289868Y-175187151D01*
X68189346Y-175429832D01*
X68138100Y-175687462D01*
X68138100Y-175950138D01*
X68189346Y-176207768D01*
X68289868Y-176450449D01*
X68358518Y-176553192D01*
X68195741Y-176485767D01*
X67881698Y-176423300D01*
X67561502Y-176423300D01*
X67247459Y-176485767D01*
X67084682Y-176553192D01*
X67153332Y-176450449D01*
X67253854Y-176207768D01*
X67305100Y-175950138D01*
X67305100Y-175687462D01*
X67253854Y-175429832D01*
X67153332Y-175187151D01*
X67007397Y-174968743D01*
X66821657Y-174783003D01*
X66603249Y-174637068D01*
X66360568Y-174536546D01*
X66102938Y-174485300D01*
X65840262Y-174485300D01*
X65582632Y-174536546D01*
X65339951Y-174637068D01*
X65121543Y-174783003D01*
X64935803Y-174968743D01*
X64789868Y-175187151D01*
X64689346Y-175429832D01*
X64638100Y-175687462D01*
X34133794Y-175687462D01*
X34133794Y-170677812D01*
X101023800Y-170677812D01*
X101023800Y-170901388D01*
X101067417Y-171120667D01*
X101152976Y-171327224D01*
X101277188Y-171513120D01*
X101435280Y-171671212D01*
X101621176Y-171795424D01*
X101827733Y-171880983D01*
X102047012Y-171924600D01*
X102270588Y-171924600D01*
X102489867Y-171880983D01*
X102696424Y-171795424D01*
X102882320Y-171671212D01*
X103040412Y-171513120D01*
X103164624Y-171327224D01*
X103250183Y-171120667D01*
X103293800Y-170901388D01*
X103293800Y-170677812D01*
X126023800Y-170677812D01*
X126023800Y-170901388D01*
X126067417Y-171120667D01*
X126152976Y-171327224D01*
X126277188Y-171513120D01*
X126435280Y-171671212D01*
X126621176Y-171795424D01*
X126827733Y-171880983D01*
X127047012Y-171924600D01*
X127270588Y-171924600D01*
X127489867Y-171880983D01*
X127696424Y-171795424D01*
X127882320Y-171671212D01*
X128040412Y-171513120D01*
X128164624Y-171327224D01*
X128250183Y-171120667D01*
X128293800Y-170901388D01*
X128293800Y-170677812D01*
X128250183Y-170458533D01*
X128164624Y-170251976D01*
X128040412Y-170066080D01*
X127882320Y-169907988D01*
X127696424Y-169783776D01*
X127489867Y-169698217D01*
X127270588Y-169654600D01*
X127047012Y-169654600D01*
X126827733Y-169698217D01*
X126621176Y-169783776D01*
X126435280Y-169907988D01*
X126277188Y-170066080D01*
X126152976Y-170251976D01*
X126067417Y-170458533D01*
X126023800Y-170677812D01*
X103293800Y-170677812D01*
X103250183Y-170458533D01*
X103164624Y-170251976D01*
X103040412Y-170066080D01*
X102882320Y-169907988D01*
X102696424Y-169783776D01*
X102489867Y-169698217D01*
X102270588Y-169654600D01*
X102047012Y-169654600D01*
X101827733Y-169698217D01*
X101621176Y-169783776D01*
X101435280Y-169907988D01*
X101277188Y-170066080D01*
X101152976Y-170251976D01*
X101067417Y-170458533D01*
X101023800Y-170677812D01*
X34133794Y-170677812D01*
X34133794Y-168957963D01*
X133967800Y-168957963D01*
X133967800Y-170094036D01*
X133987840Y-170297506D01*
X134067036Y-170558580D01*
X134195643Y-170799187D01*
X134368719Y-171010080D01*
X134579612Y-171183157D01*
X134820219Y-171311764D01*
X135081293Y-171390960D01*
X135352800Y-171417701D01*
X135624306Y-171390960D01*
X135885380Y-171311764D01*
X136125987Y-171183157D01*
X136336880Y-171010081D01*
X136356158Y-170986591D01*
X136463260Y-171095145D01*
X136688932Y-171248142D01*
X136940116Y-171354173D01*
X137011615Y-171368318D01*
X137225800Y-171245656D01*
X137225800Y-169653000D01*
X137205800Y-169653000D01*
X137205800Y-169399000D01*
X137225800Y-169399000D01*
X137225800Y-167806344D01*
X137479800Y-167806344D01*
X137479800Y-169399000D01*
X137499800Y-169399000D01*
X137499800Y-169653000D01*
X137479800Y-169653000D01*
X137479800Y-171245656D01*
X137693985Y-171368318D01*
X137765484Y-171354173D01*
X138016668Y-171248142D01*
X138242340Y-171095145D01*
X138349442Y-170986591D01*
X138368719Y-171010080D01*
X138579612Y-171183157D01*
X138820219Y-171311764D01*
X139081293Y-171390960D01*
X139352800Y-171417701D01*
X139624306Y-171390960D01*
X139885380Y-171311764D01*
X140125987Y-171183157D01*
X140336880Y-171010081D01*
X140352800Y-170990683D01*
X140368719Y-171010080D01*
X140579612Y-171183157D01*
X140820219Y-171311764D01*
X141081293Y-171390960D01*
X141352800Y-171417701D01*
X141624306Y-171390960D01*
X141885380Y-171311764D01*
X142125987Y-171183157D01*
X142336880Y-171010081D01*
X142352800Y-170990683D01*
X142368719Y-171010080D01*
X142579612Y-171183157D01*
X142820219Y-171311764D01*
X143081293Y-171390960D01*
X143352800Y-171417701D01*
X143624306Y-171390960D01*
X143885380Y-171311764D01*
X144125987Y-171183157D01*
X144336880Y-171010081D01*
X144509957Y-170799188D01*
X144638564Y-170558581D01*
X144717760Y-170297507D01*
X144737800Y-170094037D01*
X144737800Y-168957963D01*
X144717760Y-168754493D01*
X144638564Y-168493419D01*
X144509957Y-168252812D01*
X144336881Y-168041919D01*
X144125988Y-167868843D01*
X143885381Y-167740236D01*
X143624307Y-167661040D01*
X143352800Y-167634299D01*
X143081294Y-167661040D01*
X142820220Y-167740236D01*
X142579613Y-167868843D01*
X142368720Y-168041919D01*
X142352800Y-168061317D01*
X142336881Y-168041919D01*
X142125988Y-167868843D01*
X141885381Y-167740236D01*
X141624307Y-167661040D01*
X141352800Y-167634299D01*
X141081294Y-167661040D01*
X140820220Y-167740236D01*
X140579613Y-167868843D01*
X140368720Y-168041919D01*
X140352800Y-168061317D01*
X140336881Y-168041919D01*
X140125988Y-167868843D01*
X139885381Y-167740236D01*
X139624307Y-167661040D01*
X139352800Y-167634299D01*
X139081294Y-167661040D01*
X138820220Y-167740236D01*
X138579613Y-167868843D01*
X138368720Y-168041919D01*
X138349442Y-168065409D01*
X138242340Y-167956855D01*
X138016668Y-167803858D01*
X137765484Y-167697827D01*
X137693985Y-167683682D01*
X137479800Y-167806344D01*
X137225800Y-167806344D01*
X137011615Y-167683682D01*
X136940116Y-167697827D01*
X136688932Y-167803858D01*
X136463260Y-167956855D01*
X136356158Y-168065409D01*
X136336881Y-168041919D01*
X136125988Y-167868843D01*
X135885381Y-167740236D01*
X135624307Y-167661040D01*
X135352800Y-167634299D01*
X135081294Y-167661040D01*
X134820220Y-167740236D01*
X134579613Y-167868843D01*
X134368720Y-168041919D01*
X134195643Y-168252812D01*
X134067036Y-168493419D01*
X133987840Y-168754493D01*
X133967800Y-168957963D01*
X34133794Y-168957963D01*
X34133794Y-146810955D01*
X59276534Y-146810955D01*
X59276534Y-147829045D01*
X59463607Y-148829799D01*
X59831383Y-149779139D01*
X60367338Y-150644736D01*
X61053220Y-151397113D01*
X61865673Y-152010649D01*
X62777029Y-152464450D01*
X63756254Y-152743064D01*
X64770000Y-152837001D01*
X65783746Y-152743064D01*
X66762971Y-152464450D01*
X67674327Y-152010649D01*
X68486780Y-151397113D01*
X69172662Y-150644736D01*
X69708617Y-149779139D01*
X70076393Y-148829799D01*
X70263466Y-147829045D01*
X70263466Y-146810955D01*
X70076393Y-145810201D01*
X69708617Y-144860861D01*
X69172662Y-143995264D01*
X68486780Y-143242887D01*
X67674327Y-142629351D01*
X66762971Y-142175550D01*
X65783746Y-141896936D01*
X64770000Y-141802999D01*
X63756254Y-141896936D01*
X62777029Y-142175550D01*
X61865673Y-142629351D01*
X61053220Y-143242887D01*
X60367338Y-143995264D01*
X59831383Y-144860861D01*
X59463607Y-145810201D01*
X59276534Y-146810955D01*
X34133794Y-146810955D01*
X34133794Y-127316576D01*
X73318358Y-127316576D01*
X73323749Y-127382994D01*
X73328210Y-127449441D01*
X73329964Y-127459552D01*
X73471008Y-128240276D01*
X73489207Y-128304415D01*
X73506480Y-128368697D01*
X73510164Y-128378275D01*
X73800166Y-129116736D01*
X73830468Y-129176102D01*
X73859906Y-129235822D01*
X73865380Y-129244502D01*
X74293294Y-129912570D01*
X74334553Y-129964925D01*
X74375026Y-130017784D01*
X74382082Y-130025236D01*
X74931608Y-130597465D01*
X74931614Y-130597470D01*
X75016872Y-130686250D01*
X75044399Y-130729227D01*
X75063052Y-130776725D01*
X75072124Y-130826941D01*
X75071270Y-130877967D01*
X75060377Y-130928523D01*
X75018832Y-131025203D01*
X74977461Y-131111653D01*
X74959997Y-131159706D01*
X74939859Y-131206690D01*
X74936824Y-131216493D01*
X74880415Y-131403329D01*
X74867467Y-131468721D01*
X74853626Y-131533837D01*
X74852553Y-131544043D01*
X74833508Y-131738277D01*
X74830000Y-131773896D01*
X74830001Y-162866105D01*
X74833093Y-162897495D01*
X74833050Y-162903598D01*
X74834051Y-162913812D01*
X74854452Y-163107908D01*
X74867844Y-163173149D01*
X74880329Y-163238598D01*
X74883295Y-163248423D01*
X74941007Y-163434861D01*
X74966831Y-163496293D01*
X74991777Y-163558037D01*
X74996595Y-163567099D01*
X75089420Y-163738775D01*
X75126657Y-163793982D01*
X75163150Y-163849748D01*
X75169636Y-163857701D01*
X75294039Y-164008078D01*
X75341346Y-164055056D01*
X75387917Y-164102613D01*
X75395824Y-164109155D01*
X75547066Y-164232505D01*
X75602559Y-164269374D01*
X75657520Y-164307007D01*
X75666547Y-164311888D01*
X75838869Y-164403513D01*
X75900508Y-164428919D01*
X75961689Y-164455141D01*
X75971492Y-164458176D01*
X76158328Y-164514585D01*
X76223720Y-164527533D01*
X76288836Y-164541374D01*
X76299042Y-164542447D01*
X76493275Y-164561492D01*
X76493287Y-164561492D01*
X76528895Y-164564999D01*
X79681105Y-164564999D01*
X79712495Y-164561907D01*
X79718598Y-164561950D01*
X79728812Y-164560949D01*
X79922908Y-164540548D01*
X79988149Y-164527156D01*
X80053598Y-164514671D01*
X80063423Y-164511705D01*
X80249861Y-164453993D01*
X80311293Y-164428169D01*
X80373037Y-164403223D01*
X80382099Y-164398405D01*
X80553775Y-164305580D01*
X80608982Y-164268343D01*
X80664748Y-164231850D01*
X80672701Y-164225364D01*
X80823078Y-164100961D01*
X80870056Y-164053654D01*
X80917613Y-164007083D01*
X80924155Y-163999176D01*
X81047505Y-163847934D01*
X81084374Y-163792441D01*
X81122007Y-163737480D01*
X81126888Y-163728453D01*
X81218513Y-163556131D01*
X81243919Y-163494492D01*
X81270141Y-163433311D01*
X81273176Y-163423508D01*
X81329585Y-163236672D01*
X81342533Y-163171280D01*
X81356374Y-163106164D01*
X81357447Y-163095958D01*
X81376492Y-162901725D01*
X81376492Y-162901723D01*
X81380000Y-162866105D01*
X81380000Y-161669314D01*
X135109000Y-161669314D01*
X135109000Y-161932286D01*
X135160304Y-162190205D01*
X135260939Y-162433159D01*
X135407038Y-162651813D01*
X135592987Y-162837762D01*
X135811641Y-162983861D01*
X136054595Y-163084496D01*
X136312514Y-163135800D01*
X136575486Y-163135800D01*
X136833405Y-163084496D01*
X137076359Y-162983861D01*
X137295013Y-162837762D01*
X137480962Y-162651813D01*
X137627061Y-162433159D01*
X137727696Y-162190205D01*
X137779000Y-161932286D01*
X137779000Y-161669314D01*
X138109000Y-161669314D01*
X138109000Y-161932286D01*
X138160304Y-162190205D01*
X138260939Y-162433159D01*
X138407038Y-162651813D01*
X138592987Y-162837762D01*
X138811641Y-162983861D01*
X139054595Y-163084496D01*
X139312514Y-163135800D01*
X139575486Y-163135800D01*
X139833405Y-163084496D01*
X140076359Y-162983861D01*
X140295013Y-162837762D01*
X140480962Y-162651813D01*
X140627061Y-162433159D01*
X140727696Y-162190205D01*
X140779000Y-161932286D01*
X140779000Y-161669314D01*
X140727696Y-161411395D01*
X140627061Y-161168441D01*
X140480962Y-160949787D01*
X140295013Y-160763838D01*
X140076359Y-160617739D01*
X139833405Y-160517104D01*
X139575486Y-160465800D01*
X139312514Y-160465800D01*
X139054595Y-160517104D01*
X138811641Y-160617739D01*
X138592987Y-160763838D01*
X138407038Y-160949787D01*
X138260939Y-161168441D01*
X138160304Y-161411395D01*
X138109000Y-161669314D01*
X137779000Y-161669314D01*
X137727696Y-161411395D01*
X137627061Y-161168441D01*
X137480962Y-160949787D01*
X137295013Y-160763838D01*
X137076359Y-160617739D01*
X136833405Y-160517104D01*
X136575486Y-160465800D01*
X136312514Y-160465800D01*
X136054595Y-160517104D01*
X135811641Y-160617739D01*
X135592987Y-160763838D01*
X135407038Y-160949787D01*
X135260939Y-161168441D01*
X135160304Y-161411395D01*
X135109000Y-161669314D01*
X81380000Y-161669314D01*
X81380000Y-158669314D01*
X135109000Y-158669314D01*
X135109000Y-158932286D01*
X135160304Y-159190205D01*
X135260939Y-159433159D01*
X135407038Y-159651813D01*
X135592987Y-159837762D01*
X135811641Y-159983861D01*
X136054595Y-160084496D01*
X136312514Y-160135800D01*
X136575486Y-160135800D01*
X136833405Y-160084496D01*
X137076359Y-159983861D01*
X137295013Y-159837762D01*
X137480962Y-159651813D01*
X137627061Y-159433159D01*
X137727696Y-159190205D01*
X137779000Y-158932286D01*
X137779000Y-158669314D01*
X138109000Y-158669314D01*
X138109000Y-158932286D01*
X138160304Y-159190205D01*
X138260939Y-159433159D01*
X138407038Y-159651813D01*
X138592987Y-159837762D01*
X138811641Y-159983861D01*
X139054595Y-160084496D01*
X139312514Y-160135800D01*
X139575486Y-160135800D01*
X139833405Y-160084496D01*
X140076359Y-159983861D01*
X140295013Y-159837762D01*
X140480962Y-159651813D01*
X140627061Y-159433159D01*
X140727696Y-159190205D01*
X140779000Y-158932286D01*
X140779000Y-158669314D01*
X140763327Y-158590521D01*
X141629000Y-158590521D01*
X141629000Y-159011079D01*
X141711047Y-159423556D01*
X141871988Y-159812102D01*
X142105637Y-160161783D01*
X142403017Y-160459163D01*
X142752698Y-160692812D01*
X143141244Y-160853753D01*
X143553721Y-160935800D01*
X143974279Y-160935800D01*
X144386756Y-160853753D01*
X144775302Y-160692812D01*
X145124983Y-160459163D01*
X145422363Y-160161783D01*
X145656012Y-159812102D01*
X145816953Y-159423556D01*
X145899000Y-159011079D01*
X145899000Y-158590521D01*
X145816953Y-158178044D01*
X145656012Y-157789498D01*
X145422363Y-157439817D01*
X145124983Y-157142437D01*
X144775302Y-156908788D01*
X144386756Y-156747847D01*
X143974279Y-156665800D01*
X143553721Y-156665800D01*
X143141244Y-156747847D01*
X142752698Y-156908788D01*
X142403017Y-157142437D01*
X142105637Y-157439817D01*
X141871988Y-157789498D01*
X141711047Y-158178044D01*
X141629000Y-158590521D01*
X140763327Y-158590521D01*
X140727696Y-158411395D01*
X140627061Y-158168441D01*
X140480962Y-157949787D01*
X140295013Y-157763838D01*
X140076359Y-157617739D01*
X139833405Y-157517104D01*
X139575486Y-157465800D01*
X139312514Y-157465800D01*
X139054595Y-157517104D01*
X138811641Y-157617739D01*
X138592987Y-157763838D01*
X138407038Y-157949787D01*
X138260939Y-158168441D01*
X138160304Y-158411395D01*
X138109000Y-158669314D01*
X137779000Y-158669314D01*
X137727696Y-158411395D01*
X137627061Y-158168441D01*
X137480962Y-157949787D01*
X137295013Y-157763838D01*
X137076359Y-157617739D01*
X136833405Y-157517104D01*
X136575486Y-157465800D01*
X136312514Y-157465800D01*
X136054595Y-157517104D01*
X135811641Y-157617739D01*
X135592987Y-157763838D01*
X135407038Y-157949787D01*
X135260939Y-158168441D01*
X135160304Y-158411395D01*
X135109000Y-158669314D01*
X81380000Y-158669314D01*
X81380000Y-155669314D01*
X135109000Y-155669314D01*
X135109000Y-155932286D01*
X135160304Y-156190205D01*
X135260939Y-156433159D01*
X135407038Y-156651813D01*
X135592987Y-156837762D01*
X135811641Y-156983861D01*
X136054595Y-157084496D01*
X136312514Y-157135800D01*
X136575486Y-157135800D01*
X136833405Y-157084496D01*
X137076359Y-156983861D01*
X137295013Y-156837762D01*
X137410706Y-156722069D01*
X138702336Y-156722069D01*
X138761797Y-156955837D01*
X139000242Y-157066734D01*
X139255740Y-157128983D01*
X139518473Y-157140190D01*
X139778344Y-157099925D01*
X140025366Y-157009735D01*
X140126203Y-156955837D01*
X140185664Y-156722069D01*
X139444000Y-155980405D01*
X138702336Y-156722069D01*
X137410706Y-156722069D01*
X137480962Y-156651813D01*
X137627061Y-156433159D01*
X137727696Y-156190205D01*
X137779000Y-155932286D01*
X137779000Y-155875273D01*
X138104610Y-155875273D01*
X138144875Y-156135144D01*
X138235065Y-156382166D01*
X138288963Y-156483003D01*
X138522731Y-156542464D01*
X139264395Y-155800800D01*
X139623605Y-155800800D01*
X140365269Y-156542464D01*
X140599037Y-156483003D01*
X140709934Y-156244558D01*
X140772183Y-155989060D01*
X140783390Y-155726327D01*
X140743125Y-155466456D01*
X140652935Y-155219434D01*
X140599037Y-155118597D01*
X140365269Y-155059136D01*
X139623605Y-155800800D01*
X139264395Y-155800800D01*
X138522731Y-155059136D01*
X138288963Y-155118597D01*
X138178066Y-155357042D01*
X138115817Y-155612540D01*
X138104610Y-155875273D01*
X137779000Y-155875273D01*
X137779000Y-155669314D01*
X137727696Y-155411395D01*
X137627061Y-155168441D01*
X137480962Y-154949787D01*
X137410706Y-154879531D01*
X138702336Y-154879531D01*
X139444000Y-155621195D01*
X140185664Y-154879531D01*
X140126203Y-154645763D01*
X139887758Y-154534866D01*
X139632260Y-154472617D01*
X139369527Y-154461410D01*
X139109656Y-154501675D01*
X138862634Y-154591865D01*
X138761797Y-154645763D01*
X138702336Y-154879531D01*
X137410706Y-154879531D01*
X137295013Y-154763838D01*
X137076359Y-154617739D01*
X136833405Y-154517104D01*
X136575486Y-154465800D01*
X136312514Y-154465800D01*
X136054595Y-154517104D01*
X135811641Y-154617739D01*
X135592987Y-154763838D01*
X135407038Y-154949787D01*
X135260939Y-155168441D01*
X135160304Y-155411395D01*
X135109000Y-155669314D01*
X81380000Y-155669314D01*
X81380000Y-146810955D01*
X85946535Y-146810955D01*
X85946535Y-147829045D01*
X86133608Y-148829799D01*
X86501384Y-149779139D01*
X87037339Y-150644735D01*
X87723221Y-151397112D01*
X88535674Y-152010648D01*
X89447030Y-152464449D01*
X90426254Y-152743063D01*
X91440000Y-152837000D01*
X92453746Y-152743063D01*
X93432970Y-152464449D01*
X93821779Y-152270845D01*
X114834200Y-152270845D01*
X114834200Y-152681555D01*
X114914326Y-153084372D01*
X115071497Y-153463818D01*
X115299675Y-153805310D01*
X115590090Y-154095725D01*
X115931582Y-154323903D01*
X116311028Y-154481074D01*
X116713845Y-154561200D01*
X117124555Y-154561200D01*
X117527372Y-154481074D01*
X117906818Y-154323903D01*
X118248310Y-154095725D01*
X118538725Y-153805310D01*
X118766903Y-153463818D01*
X118924074Y-153084372D01*
X119004200Y-152681555D01*
X119004200Y-152270845D01*
X118924074Y-151868028D01*
X118766903Y-151488582D01*
X118538725Y-151147090D01*
X118248310Y-150856675D01*
X117906818Y-150628497D01*
X117527372Y-150471326D01*
X117124555Y-150391200D01*
X116713845Y-150391200D01*
X116311028Y-150471326D01*
X115931582Y-150628497D01*
X115590090Y-150856675D01*
X115299675Y-151147090D01*
X115071497Y-151488582D01*
X114914326Y-151868028D01*
X114834200Y-152270845D01*
X93821779Y-152270845D01*
X94344326Y-152010648D01*
X95156779Y-151397112D01*
X95842661Y-150644735D01*
X96378616Y-149779139D01*
X96746392Y-148829799D01*
X96933465Y-147829045D01*
X96933465Y-146810955D01*
X96746392Y-145810201D01*
X96549614Y-145302257D01*
X112554200Y-145302257D01*
X112554200Y-145636143D01*
X112619338Y-145963613D01*
X112747111Y-146272083D01*
X112932608Y-146549699D01*
X113168701Y-146785792D01*
X113446317Y-146971289D01*
X113754787Y-147099062D01*
X114082257Y-147164200D01*
X114416143Y-147164200D01*
X114743613Y-147099062D01*
X115052083Y-146971289D01*
X115329699Y-146785792D01*
X115565792Y-146549699D01*
X115751289Y-146272083D01*
X115879062Y-145963613D01*
X115944200Y-145636143D01*
X115944200Y-145302257D01*
X115879062Y-144974787D01*
X115751289Y-144666317D01*
X115565792Y-144388701D01*
X115443566Y-144266475D01*
X127717800Y-144266475D01*
X127717800Y-144785525D01*
X127819061Y-145294601D01*
X128017693Y-145774141D01*
X128306062Y-146205715D01*
X128376347Y-146276000D01*
X128306062Y-146346285D01*
X128017693Y-146777859D01*
X127819061Y-147257399D01*
X127717800Y-147766475D01*
X127717800Y-148285525D01*
X127819061Y-148794601D01*
X128017693Y-149274141D01*
X128306062Y-149705715D01*
X128673085Y-150072738D01*
X129104659Y-150361107D01*
X129584199Y-150559739D01*
X130093275Y-150661000D01*
X130612325Y-150661000D01*
X131121401Y-150559739D01*
X131600941Y-150361107D01*
X132032515Y-150072738D01*
X132399538Y-149705715D01*
X132687907Y-149274141D01*
X132886539Y-148794601D01*
X132959020Y-148430212D01*
X140574600Y-148430212D01*
X140574600Y-148653788D01*
X140618217Y-148873067D01*
X140703776Y-149079624D01*
X140827988Y-149265520D01*
X140986080Y-149423612D01*
X141171976Y-149547824D01*
X141378533Y-149633383D01*
X141597812Y-149677000D01*
X141821388Y-149677000D01*
X142040667Y-149633383D01*
X142247224Y-149547824D01*
X142433120Y-149423612D01*
X142591212Y-149265520D01*
X142715424Y-149079624D01*
X142800983Y-148873067D01*
X142844600Y-148653788D01*
X142844600Y-148430212D01*
X142800983Y-148210933D01*
X142715424Y-148004376D01*
X142591212Y-147818480D01*
X142433120Y-147660388D01*
X142247224Y-147536176D01*
X142040667Y-147450617D01*
X141821388Y-147407000D01*
X141597812Y-147407000D01*
X141378533Y-147450617D01*
X141171976Y-147536176D01*
X140986080Y-147660388D01*
X140827988Y-147818480D01*
X140703776Y-148004376D01*
X140618217Y-148210933D01*
X140574600Y-148430212D01*
X132959020Y-148430212D01*
X132987800Y-148285525D01*
X132987800Y-147766475D01*
X132886539Y-147257399D01*
X132687907Y-146777859D01*
X132399538Y-146346285D01*
X132329253Y-146276000D01*
X132399538Y-146205715D01*
X132687907Y-145774141D01*
X132886539Y-145294601D01*
X132936784Y-145042000D01*
X136381528Y-145042000D01*
X136381528Y-146042000D01*
X136398592Y-146215254D01*
X136449128Y-146381850D01*
X136531195Y-146535386D01*
X136641638Y-146669962D01*
X136776214Y-146780405D01*
X136929750Y-146862472D01*
X137096346Y-146913008D01*
X137269600Y-146930072D01*
X138269600Y-146930072D01*
X138442854Y-146913008D01*
X138609450Y-146862472D01*
X138762986Y-146780405D01*
X138897562Y-146669962D01*
X139008005Y-146535386D01*
X139090072Y-146381850D01*
X139140608Y-146215254D01*
X139157672Y-146042000D01*
X139157672Y-145405589D01*
X139384600Y-145405589D01*
X139384600Y-145678411D01*
X139437825Y-145945989D01*
X139542229Y-146198043D01*
X139693801Y-146424886D01*
X139886714Y-146617799D01*
X140113557Y-146769371D01*
X140365611Y-146873775D01*
X140633189Y-146927000D01*
X140906011Y-146927000D01*
X141173589Y-146873775D01*
X141425643Y-146769371D01*
X141652486Y-146617799D01*
X141845399Y-146424886D01*
X141996971Y-146198043D01*
X142101375Y-145945989D01*
X142154600Y-145678411D01*
X142154600Y-145405589D01*
X142101375Y-145138011D01*
X141996971Y-144885957D01*
X141845399Y-144659114D01*
X141652486Y-144466201D01*
X141425643Y-144314629D01*
X141309389Y-144266475D01*
X145717800Y-144266475D01*
X145717800Y-144785525D01*
X145819061Y-145294601D01*
X146017693Y-145774141D01*
X146306062Y-146205715D01*
X146376347Y-146276000D01*
X146306062Y-146346285D01*
X146017693Y-146777859D01*
X145819061Y-147257399D01*
X145717800Y-147766475D01*
X145717800Y-148285525D01*
X145819061Y-148794601D01*
X146017693Y-149274141D01*
X146306062Y-149705715D01*
X146673085Y-150072738D01*
X147104659Y-150361107D01*
X147584199Y-150559739D01*
X148093275Y-150661000D01*
X148612325Y-150661000D01*
X149121401Y-150559739D01*
X149600941Y-150361107D01*
X150032515Y-150072738D01*
X150399538Y-149705715D01*
X150687907Y-149274141D01*
X150886539Y-148794601D01*
X150987800Y-148285525D01*
X150987800Y-147766475D01*
X150886539Y-147257399D01*
X150687907Y-146777859D01*
X150399538Y-146346285D01*
X150329253Y-146276000D01*
X150399538Y-146205715D01*
X150687907Y-145774141D01*
X150886539Y-145294601D01*
X150987800Y-144785525D01*
X150987800Y-144266475D01*
X150886539Y-143757399D01*
X150687907Y-143277859D01*
X150399538Y-142846285D01*
X150032515Y-142479262D01*
X149600941Y-142190893D01*
X149121401Y-141992261D01*
X148612325Y-141891000D01*
X148093275Y-141891000D01*
X147584199Y-141992261D01*
X147104659Y-142190893D01*
X146673085Y-142479262D01*
X146306062Y-142846285D01*
X146017693Y-143277859D01*
X145819061Y-143757399D01*
X145717800Y-144266475D01*
X141309389Y-144266475D01*
X141173589Y-144210225D01*
X140906011Y-144157000D01*
X140633189Y-144157000D01*
X140365611Y-144210225D01*
X140113557Y-144314629D01*
X139886714Y-144466201D01*
X139693801Y-144659114D01*
X139542229Y-144885957D01*
X139437825Y-145138011D01*
X139384600Y-145405589D01*
X139157672Y-145405589D01*
X139157672Y-145042000D01*
X139140608Y-144868746D01*
X139090072Y-144702150D01*
X139008005Y-144548614D01*
X138897562Y-144414038D01*
X138762986Y-144303595D01*
X138609450Y-144221528D01*
X138442854Y-144170992D01*
X138269600Y-144153928D01*
X137269600Y-144153928D01*
X137096346Y-144170992D01*
X136929750Y-144221528D01*
X136776214Y-144303595D01*
X136641638Y-144414038D01*
X136531195Y-144548614D01*
X136449128Y-144702150D01*
X136398592Y-144868746D01*
X136381528Y-145042000D01*
X132936784Y-145042000D01*
X132987800Y-144785525D01*
X132987800Y-144266475D01*
X132886539Y-143757399D01*
X132779504Y-143498993D01*
X136992212Y-143498993D01*
X137057737Y-143737860D01*
X137304716Y-143853760D01*
X137569560Y-143919250D01*
X137842092Y-143931812D01*
X138111838Y-143890965D01*
X138368432Y-143798277D01*
X138481463Y-143737860D01*
X138546988Y-143498993D01*
X137769600Y-142721605D01*
X136992212Y-143498993D01*
X132779504Y-143498993D01*
X132687907Y-143277859D01*
X132399538Y-142846285D01*
X132167745Y-142614492D01*
X136379788Y-142614492D01*
X136420635Y-142884238D01*
X136513323Y-143140832D01*
X136573740Y-143253863D01*
X136812607Y-143319388D01*
X137589995Y-142542000D01*
X137949205Y-142542000D01*
X138726593Y-143319388D01*
X138965460Y-143253863D01*
X139081360Y-143006884D01*
X139146850Y-142742040D01*
X139159412Y-142469508D01*
X139149733Y-142405589D01*
X139384600Y-142405589D01*
X139384600Y-142678411D01*
X139437825Y-142945989D01*
X139542229Y-143198043D01*
X139693801Y-143424886D01*
X139886714Y-143617799D01*
X140113557Y-143769371D01*
X140365611Y-143873775D01*
X140633189Y-143927000D01*
X140906011Y-143927000D01*
X141173589Y-143873775D01*
X141425643Y-143769371D01*
X141652486Y-143617799D01*
X141845399Y-143424886D01*
X141996971Y-143198043D01*
X142101375Y-142945989D01*
X142154600Y-142678411D01*
X142154600Y-142405589D01*
X142101375Y-142138011D01*
X141996971Y-141885957D01*
X141845399Y-141659114D01*
X141652486Y-141466201D01*
X141425643Y-141314629D01*
X141173589Y-141210225D01*
X140906011Y-141157000D01*
X140633189Y-141157000D01*
X140365611Y-141210225D01*
X140113557Y-141314629D01*
X139886714Y-141466201D01*
X139693801Y-141659114D01*
X139542229Y-141885957D01*
X139437825Y-142138011D01*
X139384600Y-142405589D01*
X139149733Y-142405589D01*
X139118565Y-142199762D01*
X139025877Y-141943168D01*
X138965460Y-141830137D01*
X138726593Y-141764612D01*
X137949205Y-142542000D01*
X137589995Y-142542000D01*
X136812607Y-141764612D01*
X136573740Y-141830137D01*
X136457840Y-142077116D01*
X136392350Y-142341960D01*
X136379788Y-142614492D01*
X132167745Y-142614492D01*
X132032515Y-142479262D01*
X131600941Y-142190893D01*
X131121401Y-141992261D01*
X130612325Y-141891000D01*
X130093275Y-141891000D01*
X129584199Y-141992261D01*
X129104659Y-142190893D01*
X128673085Y-142479262D01*
X128306062Y-142846285D01*
X128017693Y-143277859D01*
X127819061Y-143757399D01*
X127717800Y-144266475D01*
X115443566Y-144266475D01*
X115329699Y-144152608D01*
X115052083Y-143967111D01*
X114743613Y-143839338D01*
X114416143Y-143774200D01*
X114082257Y-143774200D01*
X113754787Y-143839338D01*
X113446317Y-143967111D01*
X113168701Y-144152608D01*
X112932608Y-144388701D01*
X112747111Y-144666317D01*
X112619338Y-144974787D01*
X112554200Y-145302257D01*
X96549614Y-145302257D01*
X96378616Y-144860861D01*
X95842661Y-143995265D01*
X95156779Y-143242888D01*
X94344326Y-142629352D01*
X93432970Y-142175551D01*
X92453746Y-141896937D01*
X91440000Y-141803000D01*
X90426254Y-141896937D01*
X89447030Y-142175551D01*
X88535674Y-142629352D01*
X87723221Y-143242888D01*
X87037339Y-143995265D01*
X86501384Y-144860861D01*
X86133608Y-145810201D01*
X85946535Y-146810955D01*
X81380000Y-146810955D01*
X81380000Y-141585007D01*
X136992212Y-141585007D01*
X137769600Y-142362395D01*
X138546988Y-141585007D01*
X138481463Y-141346140D01*
X138234484Y-141230240D01*
X137969640Y-141164750D01*
X137697108Y-141152188D01*
X137427362Y-141193035D01*
X137170768Y-141285723D01*
X137057737Y-141346140D01*
X136992212Y-141585007D01*
X81380000Y-141585007D01*
X81380000Y-139405589D01*
X136384600Y-139405589D01*
X136384600Y-139678411D01*
X136437825Y-139945989D01*
X136542229Y-140198043D01*
X136693801Y-140424886D01*
X136886714Y-140617799D01*
X137113557Y-140769371D01*
X137365611Y-140873775D01*
X137633189Y-140927000D01*
X137906011Y-140927000D01*
X138173589Y-140873775D01*
X138425643Y-140769371D01*
X138652486Y-140617799D01*
X138845399Y-140424886D01*
X138996971Y-140198043D01*
X139101375Y-139945989D01*
X139154600Y-139678411D01*
X139154600Y-139405589D01*
X139384600Y-139405589D01*
X139384600Y-139678411D01*
X139437825Y-139945989D01*
X139542229Y-140198043D01*
X139693801Y-140424886D01*
X139886714Y-140617799D01*
X140113557Y-140769371D01*
X140365611Y-140873775D01*
X140633189Y-140927000D01*
X140906011Y-140927000D01*
X141173589Y-140873775D01*
X141425643Y-140769371D01*
X141652486Y-140617799D01*
X141845399Y-140424886D01*
X141996971Y-140198043D01*
X142101375Y-139945989D01*
X142154600Y-139678411D01*
X142154600Y-139405589D01*
X142101375Y-139138011D01*
X141996971Y-138885957D01*
X141845399Y-138659114D01*
X141652486Y-138466201D01*
X141425643Y-138314629D01*
X141173589Y-138210225D01*
X140906011Y-138157000D01*
X140633189Y-138157000D01*
X140365611Y-138210225D01*
X140113557Y-138314629D01*
X139886714Y-138466201D01*
X139693801Y-138659114D01*
X139542229Y-138885957D01*
X139437825Y-139138011D01*
X139384600Y-139405589D01*
X139154600Y-139405589D01*
X139101375Y-139138011D01*
X138996971Y-138885957D01*
X138845399Y-138659114D01*
X138652486Y-138466201D01*
X138425643Y-138314629D01*
X138173589Y-138210225D01*
X137906011Y-138157000D01*
X137633189Y-138157000D01*
X137365611Y-138210225D01*
X137113557Y-138314629D01*
X136886714Y-138466201D01*
X136693801Y-138659114D01*
X136542229Y-138885957D01*
X136437825Y-139138011D01*
X136384600Y-139405589D01*
X81380000Y-139405589D01*
X81380000Y-136430212D01*
X140574600Y-136430212D01*
X140574600Y-136653788D01*
X140618217Y-136873067D01*
X140703776Y-137079624D01*
X140827988Y-137265520D01*
X140986080Y-137423612D01*
X141171976Y-137547824D01*
X141378533Y-137633383D01*
X141597812Y-137677000D01*
X141821388Y-137677000D01*
X142040667Y-137633383D01*
X142247224Y-137547824D01*
X142433120Y-137423612D01*
X142591212Y-137265520D01*
X142715424Y-137079624D01*
X142800983Y-136873067D01*
X142844600Y-136653788D01*
X142844600Y-136430212D01*
X142800983Y-136210933D01*
X142715424Y-136004376D01*
X142591212Y-135818480D01*
X142433120Y-135660388D01*
X142247224Y-135536176D01*
X142040667Y-135450617D01*
X141821388Y-135407000D01*
X141597812Y-135407000D01*
X141378533Y-135450617D01*
X141171976Y-135536176D01*
X140986080Y-135660388D01*
X140827988Y-135818480D01*
X140703776Y-136004376D01*
X140618217Y-136210933D01*
X140574600Y-136430212D01*
X81380000Y-136430212D01*
X81380000Y-134402257D01*
X112554200Y-134402257D01*
X112554200Y-134736143D01*
X112619338Y-135063613D01*
X112747111Y-135372083D01*
X112932608Y-135649699D01*
X113168701Y-135885792D01*
X113446317Y-136071289D01*
X113754787Y-136199062D01*
X114082257Y-136264200D01*
X114416143Y-136264200D01*
X114743613Y-136199062D01*
X115052083Y-136071289D01*
X115329699Y-135885792D01*
X115565792Y-135649699D01*
X115751289Y-135372083D01*
X115879062Y-135063613D01*
X115944200Y-134736143D01*
X115944200Y-134402257D01*
X115879062Y-134074787D01*
X115751289Y-133766317D01*
X115565792Y-133488701D01*
X115329699Y-133252608D01*
X115052083Y-133067111D01*
X114743613Y-132939338D01*
X114416143Y-132874200D01*
X114082257Y-132874200D01*
X113754787Y-132939338D01*
X113446317Y-133067111D01*
X113168701Y-133252608D01*
X112932608Y-133488701D01*
X112747111Y-133766317D01*
X112619338Y-134074787D01*
X112554200Y-134402257D01*
X81380000Y-134402257D01*
X81380000Y-131773895D01*
X81378003Y-131753618D01*
X81372743Y-131658750D01*
X81364944Y-131608215D01*
X81360002Y-131557336D01*
X81357948Y-131547281D01*
X81317545Y-131356343D01*
X81297448Y-131292787D01*
X81278264Y-131229037D01*
X81274296Y-131219572D01*
X81197576Y-131040118D01*
X81197574Y-131040114D01*
X81149186Y-130926931D01*
X81138621Y-130877002D01*
X81137955Y-130825982D01*
X81147214Y-130775793D01*
X81166041Y-130728368D01*
X81194100Y-130684916D01*
X81275419Y-130600550D01*
X81773181Y-130092252D01*
X81812707Y-130043091D01*
X81853343Y-129994936D01*
X81859106Y-129986445D01*
X82299983Y-129326861D01*
X82331432Y-129268109D01*
X82363676Y-129209842D01*
X82367679Y-129200393D01*
X82672046Y-128467736D01*
X82691489Y-128403982D01*
X82711797Y-128340575D01*
X82713889Y-128330529D01*
X82870153Y-127552707D01*
X82876840Y-127486409D01*
X82884448Y-127420245D01*
X82884548Y-127409984D01*
X82886048Y-126870845D01*
X114834200Y-126870845D01*
X114834200Y-127281555D01*
X114914326Y-127684372D01*
X115071497Y-128063818D01*
X115299675Y-128405310D01*
X115590090Y-128695725D01*
X115931582Y-128923903D01*
X116311028Y-129081074D01*
X116713845Y-129161200D01*
X117124555Y-129161200D01*
X117527372Y-129081074D01*
X117906818Y-128923903D01*
X118248310Y-128695725D01*
X118538725Y-128405310D01*
X118766903Y-128063818D01*
X118924074Y-127684372D01*
X119004200Y-127281555D01*
X119004200Y-126870845D01*
X118924074Y-126468028D01*
X118766903Y-126088582D01*
X118538725Y-125747090D01*
X118248310Y-125456675D01*
X117906818Y-125228497D01*
X117527372Y-125071326D01*
X117124555Y-124991200D01*
X116713845Y-124991200D01*
X116311028Y-125071326D01*
X115931582Y-125228497D01*
X115590090Y-125456675D01*
X115299675Y-125747090D01*
X115071497Y-126088582D01*
X114914326Y-126468028D01*
X114834200Y-126870845D01*
X82886048Y-126870845D01*
X82886756Y-126616624D01*
X82880438Y-126550282D01*
X82875050Y-126483909D01*
X82873156Y-126473823D01*
X82721224Y-125695144D01*
X82702141Y-125631298D01*
X82683963Y-125567230D01*
X82680145Y-125557704D01*
X82379860Y-124823365D01*
X82348729Y-124764421D01*
X82318464Y-124705125D01*
X82312873Y-124696530D01*
X82312869Y-124696522D01*
X82312864Y-124696515D01*
X81875669Y-124034494D01*
X81833674Y-123982710D01*
X81792475Y-123930431D01*
X81785316Y-123923079D01*
X81629921Y-123765721D01*
X136648600Y-123765721D01*
X136648600Y-124186279D01*
X136730647Y-124598756D01*
X136891588Y-124987302D01*
X137125237Y-125336983D01*
X137422617Y-125634363D01*
X137772298Y-125868012D01*
X138160844Y-126028953D01*
X138573321Y-126111000D01*
X138993879Y-126111000D01*
X139406356Y-126028953D01*
X139794902Y-125868012D01*
X140144583Y-125634363D01*
X140441963Y-125336983D01*
X140675612Y-124987302D01*
X140680293Y-124976000D01*
X141715528Y-124976000D01*
X141715528Y-125976000D01*
X141732592Y-126149254D01*
X141783128Y-126315850D01*
X141865195Y-126469386D01*
X141975638Y-126603962D01*
X142110214Y-126714405D01*
X142263750Y-126796472D01*
X142430346Y-126847008D01*
X142603600Y-126864072D01*
X143603600Y-126864072D01*
X143776854Y-126847008D01*
X143943450Y-126796472D01*
X144096986Y-126714405D01*
X144231562Y-126603962D01*
X144342005Y-126469386D01*
X144424072Y-126315850D01*
X144474608Y-126149254D01*
X144491672Y-125976000D01*
X144491672Y-125339589D01*
X144718600Y-125339589D01*
X144718600Y-125612411D01*
X144771825Y-125879989D01*
X144876229Y-126132043D01*
X145027801Y-126358886D01*
X145220714Y-126551799D01*
X145447557Y-126703371D01*
X145699611Y-126807775D01*
X145967189Y-126861000D01*
X146240011Y-126861000D01*
X146507589Y-126807775D01*
X146759643Y-126703371D01*
X146986486Y-126551799D01*
X147179399Y-126358886D01*
X147330971Y-126132043D01*
X147435375Y-125879989D01*
X147488600Y-125612411D01*
X147488600Y-125339589D01*
X147435375Y-125072011D01*
X147330971Y-124819957D01*
X147179399Y-124593114D01*
X146986486Y-124400201D01*
X146759643Y-124248629D01*
X146507589Y-124144225D01*
X146240011Y-124091000D01*
X145967189Y-124091000D01*
X145699611Y-124144225D01*
X145447557Y-124248629D01*
X145220714Y-124400201D01*
X145027801Y-124593114D01*
X144876229Y-124819957D01*
X144771825Y-125072011D01*
X144718600Y-125339589D01*
X144491672Y-125339589D01*
X144491672Y-124976000D01*
X144474608Y-124802746D01*
X144424072Y-124636150D01*
X144342005Y-124482614D01*
X144231562Y-124348038D01*
X144096986Y-124237595D01*
X143943450Y-124155528D01*
X143776854Y-124104992D01*
X143603600Y-124087928D01*
X142603600Y-124087928D01*
X142430346Y-124104992D01*
X142263750Y-124155528D01*
X142110214Y-124237595D01*
X141975638Y-124348038D01*
X141865195Y-124482614D01*
X141783128Y-124636150D01*
X141732592Y-124802746D01*
X141715528Y-124976000D01*
X140680293Y-124976000D01*
X140836553Y-124598756D01*
X140918600Y-124186279D01*
X140918600Y-123765721D01*
X140836553Y-123353244D01*
X140675612Y-122964698D01*
X140441963Y-122615017D01*
X140166535Y-122339589D01*
X141718600Y-122339589D01*
X141718600Y-122612411D01*
X141771825Y-122879989D01*
X141876229Y-123132043D01*
X142027801Y-123358886D01*
X142220714Y-123551799D01*
X142447557Y-123703371D01*
X142699611Y-123807775D01*
X142967189Y-123861000D01*
X143240011Y-123861000D01*
X143507589Y-123807775D01*
X143759643Y-123703371D01*
X143986486Y-123551799D01*
X144179399Y-123358886D01*
X144330971Y-123132043D01*
X144435375Y-122879989D01*
X144488600Y-122612411D01*
X144488600Y-122339589D01*
X144718600Y-122339589D01*
X144718600Y-122612411D01*
X144771825Y-122879989D01*
X144876229Y-123132043D01*
X145027801Y-123358886D01*
X145220714Y-123551799D01*
X145447557Y-123703371D01*
X145699611Y-123807775D01*
X145967189Y-123861000D01*
X146240011Y-123861000D01*
X146507589Y-123807775D01*
X146759643Y-123703371D01*
X146986486Y-123551799D01*
X147179399Y-123358886D01*
X147330971Y-123132043D01*
X147435375Y-122879989D01*
X147488600Y-122612411D01*
X147488600Y-122339589D01*
X147435375Y-122072011D01*
X147330971Y-121819957D01*
X147179399Y-121593114D01*
X146986486Y-121400201D01*
X146759643Y-121248629D01*
X146507589Y-121144225D01*
X146240011Y-121091000D01*
X145967189Y-121091000D01*
X145699611Y-121144225D01*
X145447557Y-121248629D01*
X145220714Y-121400201D01*
X145027801Y-121593114D01*
X144876229Y-121819957D01*
X144771825Y-122072011D01*
X144718600Y-122339589D01*
X144488600Y-122339589D01*
X144435375Y-122072011D01*
X144330971Y-121819957D01*
X144179399Y-121593114D01*
X143986486Y-121400201D01*
X143759643Y-121248629D01*
X143507589Y-121144225D01*
X143240011Y-121091000D01*
X142967189Y-121091000D01*
X142699611Y-121144225D01*
X142447557Y-121248629D01*
X142220714Y-121400201D01*
X142027801Y-121593114D01*
X141876229Y-121819957D01*
X141771825Y-122072011D01*
X141718600Y-122339589D01*
X140166535Y-122339589D01*
X140144583Y-122317637D01*
X139794902Y-122083988D01*
X139406356Y-121923047D01*
X138993879Y-121841000D01*
X138573321Y-121841000D01*
X138160844Y-121923047D01*
X137772298Y-122083988D01*
X137422617Y-122317637D01*
X137125237Y-122615017D01*
X136891588Y-122964698D01*
X136730647Y-123353244D01*
X136648600Y-123765721D01*
X81629921Y-123765721D01*
X81227854Y-123358578D01*
X81176632Y-123315963D01*
X81126032Y-123272656D01*
X81117580Y-123266834D01*
X80461089Y-122821363D01*
X80402542Y-122789496D01*
X80344518Y-122756855D01*
X80335098Y-122752786D01*
X79604585Y-122443311D01*
X79540985Y-122423430D01*
X79477702Y-122402673D01*
X79467670Y-122400511D01*
X78690958Y-122238822D01*
X78624719Y-122231674D01*
X78558602Y-122223603D01*
X78548341Y-122223431D01*
X77755016Y-122215684D01*
X77688638Y-122221538D01*
X77622222Y-122226463D01*
X77612124Y-122228287D01*
X76832403Y-122374779D01*
X76768422Y-122393416D01*
X76704232Y-122411146D01*
X76694680Y-122414897D01*
X75958262Y-122710048D01*
X75899110Y-122740763D01*
X75839596Y-122770618D01*
X75830954Y-122776153D01*
X75165891Y-123208721D01*
X75113869Y-123250310D01*
X75061250Y-123291185D01*
X75053848Y-123298293D01*
X74485469Y-123851800D01*
X74442482Y-123902741D01*
X74398838Y-123953020D01*
X74392957Y-123961431D01*
X73942913Y-124614795D01*
X73910649Y-124673100D01*
X73877593Y-124730913D01*
X73873458Y-124740305D01*
X73558891Y-125468641D01*
X73538573Y-125532077D01*
X73517368Y-125595235D01*
X73515137Y-125605252D01*
X73348028Y-126380816D01*
X73340410Y-126447072D01*
X73331886Y-126513065D01*
X73331642Y-126523324D01*
X73318358Y-127316576D01*
X34133794Y-127316576D01*
X34133794Y-122507731D01*
X34204075Y-121720253D01*
X34404025Y-120989357D01*
X34730244Y-120305425D01*
X35172420Y-119690072D01*
X35716583Y-119162741D01*
X36345520Y-118740114D01*
X37039364Y-118435537D01*
X37781833Y-118257285D01*
X38425743Y-118210000D01*
X146732269Y-118210000D01*
X147519747Y-118280281D01*
X147519747Y-118280281D01*
G37*
X147519747Y-118280281D02*
X148250643Y-118480231D01*
X148934575Y-118806450D01*
X149549928Y-119248626D01*
X150077259Y-119792789D01*
X150499886Y-120421726D01*
X150804463Y-121115570D01*
X150982715Y-121858039D01*
X151030001Y-122501963D01*
X151030000Y-177212269D01*
X150959719Y-177999748D01*
X150759769Y-178730643D01*
X150433550Y-179414575D01*
X149991374Y-180029928D01*
X149447211Y-180557259D01*
X148818274Y-180979886D01*
X148124429Y-181284464D01*
X147381961Y-181462714D01*
X146738051Y-181510000D01*
X38431525Y-181510000D01*
X37644046Y-181439719D01*
X36913151Y-181239769D01*
X36229219Y-180913550D01*
X35613866Y-180471374D01*
X35086535Y-179927211D01*
X34663908Y-179298274D01*
X34359330Y-178604429D01*
X34181080Y-177861961D01*
X34133794Y-177218051D01*
X34133794Y-175687462D01*
X64638100Y-175687462D01*
X64638100Y-175950138D01*
X64689346Y-176207768D01*
X64789868Y-176450449D01*
X64935803Y-176668857D01*
X65121543Y-176854597D01*
X65339951Y-177000532D01*
X65582632Y-177101054D01*
X65840262Y-177152300D01*
X66102938Y-177152300D01*
X66360568Y-177101054D01*
X66414940Y-177078532D01*
X66281101Y-177278837D01*
X66158567Y-177574659D01*
X66096100Y-177888702D01*
X66096100Y-178208898D01*
X66158567Y-178522941D01*
X66281101Y-178818763D01*
X66458992Y-179084996D01*
X66685404Y-179311408D01*
X66951637Y-179489299D01*
X67247459Y-179611833D01*
X67561502Y-179674300D01*
X67881698Y-179674300D01*
X68195741Y-179611833D01*
X68491563Y-179489299D01*
X68757796Y-179311408D01*
X68984208Y-179084996D01*
X69162099Y-178818763D01*
X69284633Y-178522941D01*
X69347100Y-178208898D01*
X69347100Y-177888702D01*
X69284633Y-177574659D01*
X69162099Y-177278837D01*
X69028260Y-177078532D01*
X69082632Y-177101054D01*
X69340262Y-177152300D01*
X69602938Y-177152300D01*
X69860568Y-177101054D01*
X70103249Y-177000532D01*
X70321657Y-176854597D01*
X70507397Y-176668857D01*
X70653332Y-176450449D01*
X70753854Y-176207768D01*
X70805100Y-175950138D01*
X70805100Y-175687462D01*
X71638100Y-175687462D01*
X71638100Y-175950138D01*
X71689346Y-176207768D01*
X71789868Y-176450449D01*
X71935803Y-176668857D01*
X72121543Y-176854597D01*
X72339951Y-177000532D01*
X72582632Y-177101054D01*
X72840262Y-177152300D01*
X73102938Y-177152300D01*
X73360568Y-177101054D01*
X73603249Y-177000532D01*
X73821657Y-176854597D01*
X74007397Y-176668857D01*
X74153332Y-176450449D01*
X74253854Y-176207768D01*
X74305100Y-175950138D01*
X74305100Y-175687462D01*
X75138100Y-175687462D01*
X75138100Y-175950138D01*
X75189346Y-176207768D01*
X75289868Y-176450449D01*
X75435803Y-176668857D01*
X75621543Y-176854597D01*
X75839951Y-177000532D01*
X76082632Y-177101054D01*
X76340262Y-177152300D01*
X76602938Y-177152300D01*
X76860568Y-177101054D01*
X77103249Y-177000532D01*
X77321657Y-176854597D01*
X77507397Y-176668857D01*
X77653332Y-176450449D01*
X77753854Y-176207768D01*
X77805100Y-175950138D01*
X77805100Y-175687462D01*
X77803181Y-175677812D01*
X111023800Y-175677812D01*
X111023800Y-175901388D01*
X111067417Y-176120667D01*
X111152976Y-176327224D01*
X111277188Y-176513120D01*
X111435280Y-176671212D01*
X111621176Y-176795424D01*
X111827733Y-176880983D01*
X112047012Y-176924600D01*
X112270588Y-176924600D01*
X112489867Y-176880983D01*
X112696424Y-176795424D01*
X112882320Y-176671212D01*
X113040412Y-176513120D01*
X113164624Y-176327224D01*
X113250183Y-176120667D01*
X113293800Y-175901388D01*
X113293800Y-175677812D01*
X116023800Y-175677812D01*
X116023800Y-175901388D01*
X116067417Y-176120667D01*
X116152976Y-176327224D01*
X116277188Y-176513120D01*
X116435280Y-176671212D01*
X116621176Y-176795424D01*
X116827733Y-176880983D01*
X117047012Y-176924600D01*
X117270588Y-176924600D01*
X117489867Y-176880983D01*
X117696424Y-176795424D01*
X117882320Y-176671212D01*
X118040412Y-176513120D01*
X118164624Y-176327224D01*
X118250183Y-176120667D01*
X118293800Y-175901388D01*
X118293800Y-175677812D01*
X118250183Y-175458533D01*
X118164624Y-175251976D01*
X118040412Y-175066080D01*
X117882320Y-174907988D01*
X117696424Y-174783776D01*
X117489867Y-174698217D01*
X117270588Y-174654600D01*
X117047012Y-174654600D01*
X116827733Y-174698217D01*
X116621176Y-174783776D01*
X116435280Y-174907988D01*
X116277188Y-175066080D01*
X116152976Y-175251976D01*
X116067417Y-175458533D01*
X116023800Y-175677812D01*
X113293800Y-175677812D01*
X113250183Y-175458533D01*
X113164624Y-175251976D01*
X113040412Y-175066080D01*
X112882320Y-174907988D01*
X112696424Y-174783776D01*
X112489867Y-174698217D01*
X112270588Y-174654600D01*
X112047012Y-174654600D01*
X111827733Y-174698217D01*
X111621176Y-174783776D01*
X111435280Y-174907988D01*
X111277188Y-175066080D01*
X111152976Y-175251976D01*
X111067417Y-175458533D01*
X111023800Y-175677812D01*
X77803181Y-175677812D01*
X77753854Y-175429832D01*
X77653332Y-175187151D01*
X77507397Y-174968743D01*
X77321657Y-174783003D01*
X77103249Y-174637068D01*
X76860568Y-174536546D01*
X76602938Y-174485300D01*
X76340262Y-174485300D01*
X76082632Y-174536546D01*
X75839951Y-174637068D01*
X75621543Y-174783003D01*
X75435803Y-174968743D01*
X75289868Y-175187151D01*
X75189346Y-175429832D01*
X75138100Y-175687462D01*
X74305100Y-175687462D01*
X74253854Y-175429832D01*
X74153332Y-175187151D01*
X74007397Y-174968743D01*
X73821657Y-174783003D01*
X73603249Y-174637068D01*
X73360568Y-174536546D01*
X73102938Y-174485300D01*
X72840262Y-174485300D01*
X72582632Y-174536546D01*
X72339951Y-174637068D01*
X72121543Y-174783003D01*
X71935803Y-174968743D01*
X71789868Y-175187151D01*
X71689346Y-175429832D01*
X71638100Y-175687462D01*
X70805100Y-175687462D01*
X70753854Y-175429832D01*
X70653332Y-175187151D01*
X70507397Y-174968743D01*
X70321657Y-174783003D01*
X70103249Y-174637068D01*
X69860568Y-174536546D01*
X69602938Y-174485300D01*
X69340262Y-174485300D01*
X69082632Y-174536546D01*
X68839951Y-174637068D01*
X68621543Y-174783003D01*
X68435803Y-174968743D01*
X68289868Y-175187151D01*
X68189346Y-175429832D01*
X68138100Y-175687462D01*
X68138100Y-175950138D01*
X68189346Y-176207768D01*
X68289868Y-176450449D01*
X68358518Y-176553192D01*
X68195741Y-176485767D01*
X67881698Y-176423300D01*
X67561502Y-176423300D01*
X67247459Y-176485767D01*
X67084682Y-176553192D01*
X67153332Y-176450449D01*
X67253854Y-176207768D01*
X67305100Y-175950138D01*
X67305100Y-175687462D01*
X67253854Y-175429832D01*
X67153332Y-175187151D01*
X67007397Y-174968743D01*
X66821657Y-174783003D01*
X66603249Y-174637068D01*
X66360568Y-174536546D01*
X66102938Y-174485300D01*
X65840262Y-174485300D01*
X65582632Y-174536546D01*
X65339951Y-174637068D01*
X65121543Y-174783003D01*
X64935803Y-174968743D01*
X64789868Y-175187151D01*
X64689346Y-175429832D01*
X64638100Y-175687462D01*
X34133794Y-175687462D01*
X34133794Y-170677812D01*
X101023800Y-170677812D01*
X101023800Y-170901388D01*
X101067417Y-171120667D01*
X101152976Y-171327224D01*
X101277188Y-171513120D01*
X101435280Y-171671212D01*
X101621176Y-171795424D01*
X101827733Y-171880983D01*
X102047012Y-171924600D01*
X102270588Y-171924600D01*
X102489867Y-171880983D01*
X102696424Y-171795424D01*
X102882320Y-171671212D01*
X103040412Y-171513120D01*
X103164624Y-171327224D01*
X103250183Y-171120667D01*
X103293800Y-170901388D01*
X103293800Y-170677812D01*
X126023800Y-170677812D01*
X126023800Y-170901388D01*
X126067417Y-171120667D01*
X126152976Y-171327224D01*
X126277188Y-171513120D01*
X126435280Y-171671212D01*
X126621176Y-171795424D01*
X126827733Y-171880983D01*
X127047012Y-171924600D01*
X127270588Y-171924600D01*
X127489867Y-171880983D01*
X127696424Y-171795424D01*
X127882320Y-171671212D01*
X128040412Y-171513120D01*
X128164624Y-171327224D01*
X128250183Y-171120667D01*
X128293800Y-170901388D01*
X128293800Y-170677812D01*
X128250183Y-170458533D01*
X128164624Y-170251976D01*
X128040412Y-170066080D01*
X127882320Y-169907988D01*
X127696424Y-169783776D01*
X127489867Y-169698217D01*
X127270588Y-169654600D01*
X127047012Y-169654600D01*
X126827733Y-169698217D01*
X126621176Y-169783776D01*
X126435280Y-169907988D01*
X126277188Y-170066080D01*
X126152976Y-170251976D01*
X126067417Y-170458533D01*
X126023800Y-170677812D01*
X103293800Y-170677812D01*
X103250183Y-170458533D01*
X103164624Y-170251976D01*
X103040412Y-170066080D01*
X102882320Y-169907988D01*
X102696424Y-169783776D01*
X102489867Y-169698217D01*
X102270588Y-169654600D01*
X102047012Y-169654600D01*
X101827733Y-169698217D01*
X101621176Y-169783776D01*
X101435280Y-169907988D01*
X101277188Y-170066080D01*
X101152976Y-170251976D01*
X101067417Y-170458533D01*
X101023800Y-170677812D01*
X34133794Y-170677812D01*
X34133794Y-168957963D01*
X133967800Y-168957963D01*
X133967800Y-170094036D01*
X133987840Y-170297506D01*
X134067036Y-170558580D01*
X134195643Y-170799187D01*
X134368719Y-171010080D01*
X134579612Y-171183157D01*
X134820219Y-171311764D01*
X135081293Y-171390960D01*
X135352800Y-171417701D01*
X135624306Y-171390960D01*
X135885380Y-171311764D01*
X136125987Y-171183157D01*
X136336880Y-171010081D01*
X136356158Y-170986591D01*
X136463260Y-171095145D01*
X136688932Y-171248142D01*
X136940116Y-171354173D01*
X137011615Y-171368318D01*
X137225800Y-171245656D01*
X137225800Y-169653000D01*
X137205800Y-169653000D01*
X137205800Y-169399000D01*
X137225800Y-169399000D01*
X137225800Y-167806344D01*
X137479800Y-167806344D01*
X137479800Y-169399000D01*
X137499800Y-169399000D01*
X137499800Y-169653000D01*
X137479800Y-169653000D01*
X137479800Y-171245656D01*
X137693985Y-171368318D01*
X137765484Y-171354173D01*
X138016668Y-171248142D01*
X138242340Y-171095145D01*
X138349442Y-170986591D01*
X138368719Y-171010080D01*
X138579612Y-171183157D01*
X138820219Y-171311764D01*
X139081293Y-171390960D01*
X139352800Y-171417701D01*
X139624306Y-171390960D01*
X139885380Y-171311764D01*
X140125987Y-171183157D01*
X140336880Y-171010081D01*
X140352800Y-170990683D01*
X140368719Y-171010080D01*
X140579612Y-171183157D01*
X140820219Y-171311764D01*
X141081293Y-171390960D01*
X141352800Y-171417701D01*
X141624306Y-171390960D01*
X141885380Y-171311764D01*
X142125987Y-171183157D01*
X142336880Y-171010081D01*
X142352800Y-170990683D01*
X142368719Y-171010080D01*
X142579612Y-171183157D01*
X142820219Y-171311764D01*
X143081293Y-171390960D01*
X143352800Y-171417701D01*
X143624306Y-171390960D01*
X143885380Y-171311764D01*
X144125987Y-171183157D01*
X144336880Y-171010081D01*
X144509957Y-170799188D01*
X144638564Y-170558581D01*
X144717760Y-170297507D01*
X144737800Y-170094037D01*
X144737800Y-168957963D01*
X144717760Y-168754493D01*
X144638564Y-168493419D01*
X144509957Y-168252812D01*
X144336881Y-168041919D01*
X144125988Y-167868843D01*
X143885381Y-167740236D01*
X143624307Y-167661040D01*
X143352800Y-167634299D01*
X143081294Y-167661040D01*
X142820220Y-167740236D01*
X142579613Y-167868843D01*
X142368720Y-168041919D01*
X142352800Y-168061317D01*
X142336881Y-168041919D01*
X142125988Y-167868843D01*
X141885381Y-167740236D01*
X141624307Y-167661040D01*
X141352800Y-167634299D01*
X141081294Y-167661040D01*
X140820220Y-167740236D01*
X140579613Y-167868843D01*
X140368720Y-168041919D01*
X140352800Y-168061317D01*
X140336881Y-168041919D01*
X140125988Y-167868843D01*
X139885381Y-167740236D01*
X139624307Y-167661040D01*
X139352800Y-167634299D01*
X139081294Y-167661040D01*
X138820220Y-167740236D01*
X138579613Y-167868843D01*
X138368720Y-168041919D01*
X138349442Y-168065409D01*
X138242340Y-167956855D01*
X138016668Y-167803858D01*
X137765484Y-167697827D01*
X137693985Y-167683682D01*
X137479800Y-167806344D01*
X137225800Y-167806344D01*
X137011615Y-167683682D01*
X136940116Y-167697827D01*
X136688932Y-167803858D01*
X136463260Y-167956855D01*
X136356158Y-168065409D01*
X136336881Y-168041919D01*
X136125988Y-167868843D01*
X135885381Y-167740236D01*
X135624307Y-167661040D01*
X135352800Y-167634299D01*
X135081294Y-167661040D01*
X134820220Y-167740236D01*
X134579613Y-167868843D01*
X134368720Y-168041919D01*
X134195643Y-168252812D01*
X134067036Y-168493419D01*
X133987840Y-168754493D01*
X133967800Y-168957963D01*
X34133794Y-168957963D01*
X34133794Y-146810955D01*
X59276534Y-146810955D01*
X59276534Y-147829045D01*
X59463607Y-148829799D01*
X59831383Y-149779139D01*
X60367338Y-150644736D01*
X61053220Y-151397113D01*
X61865673Y-152010649D01*
X62777029Y-152464450D01*
X63756254Y-152743064D01*
X64770000Y-152837001D01*
X65783746Y-152743064D01*
X66762971Y-152464450D01*
X67674327Y-152010649D01*
X68486780Y-151397113D01*
X69172662Y-150644736D01*
X69708617Y-149779139D01*
X70076393Y-148829799D01*
X70263466Y-147829045D01*
X70263466Y-146810955D01*
X70076393Y-145810201D01*
X69708617Y-144860861D01*
X69172662Y-143995264D01*
X68486780Y-143242887D01*
X67674327Y-142629351D01*
X66762971Y-142175550D01*
X65783746Y-141896936D01*
X64770000Y-141802999D01*
X63756254Y-141896936D01*
X62777029Y-142175550D01*
X61865673Y-142629351D01*
X61053220Y-143242887D01*
X60367338Y-143995264D01*
X59831383Y-144860861D01*
X59463607Y-145810201D01*
X59276534Y-146810955D01*
X34133794Y-146810955D01*
X34133794Y-127316576D01*
X73318358Y-127316576D01*
X73323749Y-127382994D01*
X73328210Y-127449441D01*
X73329964Y-127459552D01*
X73471008Y-128240276D01*
X73489207Y-128304415D01*
X73506480Y-128368697D01*
X73510164Y-128378275D01*
X73800166Y-129116736D01*
X73830468Y-129176102D01*
X73859906Y-129235822D01*
X73865380Y-129244502D01*
X74293294Y-129912570D01*
X74334553Y-129964925D01*
X74375026Y-130017784D01*
X74382082Y-130025236D01*
X74931608Y-130597465D01*
X74931614Y-130597470D01*
X75016872Y-130686250D01*
X75044399Y-130729227D01*
X75063052Y-130776725D01*
X75072124Y-130826941D01*
X75071270Y-130877967D01*
X75060377Y-130928523D01*
X75018832Y-131025203D01*
X74977461Y-131111653D01*
X74959997Y-131159706D01*
X74939859Y-131206690D01*
X74936824Y-131216493D01*
X74880415Y-131403329D01*
X74867467Y-131468721D01*
X74853626Y-131533837D01*
X74852553Y-131544043D01*
X74833508Y-131738277D01*
X74830000Y-131773896D01*
X74830001Y-162866105D01*
X74833093Y-162897495D01*
X74833050Y-162903598D01*
X74834051Y-162913812D01*
X74854452Y-163107908D01*
X74867844Y-163173149D01*
X74880329Y-163238598D01*
X74883295Y-163248423D01*
X74941007Y-163434861D01*
X74966831Y-163496293D01*
X74991777Y-163558037D01*
X74996595Y-163567099D01*
X75089420Y-163738775D01*
X75126657Y-163793982D01*
X75163150Y-163849748D01*
X75169636Y-163857701D01*
X75294039Y-164008078D01*
X75341346Y-164055056D01*
X75387917Y-164102613D01*
X75395824Y-164109155D01*
X75547066Y-164232505D01*
X75602559Y-164269374D01*
X75657520Y-164307007D01*
X75666547Y-164311888D01*
X75838869Y-164403513D01*
X75900508Y-164428919D01*
X75961689Y-164455141D01*
X75971492Y-164458176D01*
X76158328Y-164514585D01*
X76223720Y-164527533D01*
X76288836Y-164541374D01*
X76299042Y-164542447D01*
X76493275Y-164561492D01*
X76493287Y-164561492D01*
X76528895Y-164564999D01*
X79681105Y-164564999D01*
X79712495Y-164561907D01*
X79718598Y-164561950D01*
X79728812Y-164560949D01*
X79922908Y-164540548D01*
X79988149Y-164527156D01*
X80053598Y-164514671D01*
X80063423Y-164511705D01*
X80249861Y-164453993D01*
X80311293Y-164428169D01*
X80373037Y-164403223D01*
X80382099Y-164398405D01*
X80553775Y-164305580D01*
X80608982Y-164268343D01*
X80664748Y-164231850D01*
X80672701Y-164225364D01*
X80823078Y-164100961D01*
X80870056Y-164053654D01*
X80917613Y-164007083D01*
X80924155Y-163999176D01*
X81047505Y-163847934D01*
X81084374Y-163792441D01*
X81122007Y-163737480D01*
X81126888Y-163728453D01*
X81218513Y-163556131D01*
X81243919Y-163494492D01*
X81270141Y-163433311D01*
X81273176Y-163423508D01*
X81329585Y-163236672D01*
X81342533Y-163171280D01*
X81356374Y-163106164D01*
X81357447Y-163095958D01*
X81376492Y-162901725D01*
X81376492Y-162901723D01*
X81380000Y-162866105D01*
X81380000Y-161669314D01*
X135109000Y-161669314D01*
X135109000Y-161932286D01*
X135160304Y-162190205D01*
X135260939Y-162433159D01*
X135407038Y-162651813D01*
X135592987Y-162837762D01*
X135811641Y-162983861D01*
X136054595Y-163084496D01*
X136312514Y-163135800D01*
X136575486Y-163135800D01*
X136833405Y-163084496D01*
X137076359Y-162983861D01*
X137295013Y-162837762D01*
X137480962Y-162651813D01*
X137627061Y-162433159D01*
X137727696Y-162190205D01*
X137779000Y-161932286D01*
X137779000Y-161669314D01*
X138109000Y-161669314D01*
X138109000Y-161932286D01*
X138160304Y-162190205D01*
X138260939Y-162433159D01*
X138407038Y-162651813D01*
X138592987Y-162837762D01*
X138811641Y-162983861D01*
X139054595Y-163084496D01*
X139312514Y-163135800D01*
X139575486Y-163135800D01*
X139833405Y-163084496D01*
X140076359Y-162983861D01*
X140295013Y-162837762D01*
X140480962Y-162651813D01*
X140627061Y-162433159D01*
X140727696Y-162190205D01*
X140779000Y-161932286D01*
X140779000Y-161669314D01*
X140727696Y-161411395D01*
X140627061Y-161168441D01*
X140480962Y-160949787D01*
X140295013Y-160763838D01*
X140076359Y-160617739D01*
X139833405Y-160517104D01*
X139575486Y-160465800D01*
X139312514Y-160465800D01*
X139054595Y-160517104D01*
X138811641Y-160617739D01*
X138592987Y-160763838D01*
X138407038Y-160949787D01*
X138260939Y-161168441D01*
X138160304Y-161411395D01*
X138109000Y-161669314D01*
X137779000Y-161669314D01*
X137727696Y-161411395D01*
X137627061Y-161168441D01*
X137480962Y-160949787D01*
X137295013Y-160763838D01*
X137076359Y-160617739D01*
X136833405Y-160517104D01*
X136575486Y-160465800D01*
X136312514Y-160465800D01*
X136054595Y-160517104D01*
X135811641Y-160617739D01*
X135592987Y-160763838D01*
X135407038Y-160949787D01*
X135260939Y-161168441D01*
X135160304Y-161411395D01*
X135109000Y-161669314D01*
X81380000Y-161669314D01*
X81380000Y-158669314D01*
X135109000Y-158669314D01*
X135109000Y-158932286D01*
X135160304Y-159190205D01*
X135260939Y-159433159D01*
X135407038Y-159651813D01*
X135592987Y-159837762D01*
X135811641Y-159983861D01*
X136054595Y-160084496D01*
X136312514Y-160135800D01*
X136575486Y-160135800D01*
X136833405Y-160084496D01*
X137076359Y-159983861D01*
X137295013Y-159837762D01*
X137480962Y-159651813D01*
X137627061Y-159433159D01*
X137727696Y-159190205D01*
X137779000Y-158932286D01*
X137779000Y-158669314D01*
X138109000Y-158669314D01*
X138109000Y-158932286D01*
X138160304Y-159190205D01*
X138260939Y-159433159D01*
X138407038Y-159651813D01*
X138592987Y-159837762D01*
X138811641Y-159983861D01*
X139054595Y-160084496D01*
X139312514Y-160135800D01*
X139575486Y-160135800D01*
X139833405Y-160084496D01*
X140076359Y-159983861D01*
X140295013Y-159837762D01*
X140480962Y-159651813D01*
X140627061Y-159433159D01*
X140727696Y-159190205D01*
X140779000Y-158932286D01*
X140779000Y-158669314D01*
X140763327Y-158590521D01*
X141629000Y-158590521D01*
X141629000Y-159011079D01*
X141711047Y-159423556D01*
X141871988Y-159812102D01*
X142105637Y-160161783D01*
X142403017Y-160459163D01*
X142752698Y-160692812D01*
X143141244Y-160853753D01*
X143553721Y-160935800D01*
X143974279Y-160935800D01*
X144386756Y-160853753D01*
X144775302Y-160692812D01*
X145124983Y-160459163D01*
X145422363Y-160161783D01*
X145656012Y-159812102D01*
X145816953Y-159423556D01*
X145899000Y-159011079D01*
X145899000Y-158590521D01*
X145816953Y-158178044D01*
X145656012Y-157789498D01*
X145422363Y-157439817D01*
X145124983Y-157142437D01*
X144775302Y-156908788D01*
X144386756Y-156747847D01*
X143974279Y-156665800D01*
X143553721Y-156665800D01*
X143141244Y-156747847D01*
X142752698Y-156908788D01*
X142403017Y-157142437D01*
X142105637Y-157439817D01*
X141871988Y-157789498D01*
X141711047Y-158178044D01*
X141629000Y-158590521D01*
X140763327Y-158590521D01*
X140727696Y-158411395D01*
X140627061Y-158168441D01*
X140480962Y-157949787D01*
X140295013Y-157763838D01*
X140076359Y-157617739D01*
X139833405Y-157517104D01*
X139575486Y-157465800D01*
X139312514Y-157465800D01*
X139054595Y-157517104D01*
X138811641Y-157617739D01*
X138592987Y-157763838D01*
X138407038Y-157949787D01*
X138260939Y-158168441D01*
X138160304Y-158411395D01*
X138109000Y-158669314D01*
X137779000Y-158669314D01*
X137727696Y-158411395D01*
X137627061Y-158168441D01*
X137480962Y-157949787D01*
X137295013Y-157763838D01*
X137076359Y-157617739D01*
X136833405Y-157517104D01*
X136575486Y-157465800D01*
X136312514Y-157465800D01*
X136054595Y-157517104D01*
X135811641Y-157617739D01*
X135592987Y-157763838D01*
X135407038Y-157949787D01*
X135260939Y-158168441D01*
X135160304Y-158411395D01*
X135109000Y-158669314D01*
X81380000Y-158669314D01*
X81380000Y-155669314D01*
X135109000Y-155669314D01*
X135109000Y-155932286D01*
X135160304Y-156190205D01*
X135260939Y-156433159D01*
X135407038Y-156651813D01*
X135592987Y-156837762D01*
X135811641Y-156983861D01*
X136054595Y-157084496D01*
X136312514Y-157135800D01*
X136575486Y-157135800D01*
X136833405Y-157084496D01*
X137076359Y-156983861D01*
X137295013Y-156837762D01*
X137410706Y-156722069D01*
X138702336Y-156722069D01*
X138761797Y-156955837D01*
X139000242Y-157066734D01*
X139255740Y-157128983D01*
X139518473Y-157140190D01*
X139778344Y-157099925D01*
X140025366Y-157009735D01*
X140126203Y-156955837D01*
X140185664Y-156722069D01*
X139444000Y-155980405D01*
X138702336Y-156722069D01*
X137410706Y-156722069D01*
X137480962Y-156651813D01*
X137627061Y-156433159D01*
X137727696Y-156190205D01*
X137779000Y-155932286D01*
X137779000Y-155875273D01*
X138104610Y-155875273D01*
X138144875Y-156135144D01*
X138235065Y-156382166D01*
X138288963Y-156483003D01*
X138522731Y-156542464D01*
X139264395Y-155800800D01*
X139623605Y-155800800D01*
X140365269Y-156542464D01*
X140599037Y-156483003D01*
X140709934Y-156244558D01*
X140772183Y-155989060D01*
X140783390Y-155726327D01*
X140743125Y-155466456D01*
X140652935Y-155219434D01*
X140599037Y-155118597D01*
X140365269Y-155059136D01*
X139623605Y-155800800D01*
X139264395Y-155800800D01*
X138522731Y-155059136D01*
X138288963Y-155118597D01*
X138178066Y-155357042D01*
X138115817Y-155612540D01*
X138104610Y-155875273D01*
X137779000Y-155875273D01*
X137779000Y-155669314D01*
X137727696Y-155411395D01*
X137627061Y-155168441D01*
X137480962Y-154949787D01*
X137410706Y-154879531D01*
X138702336Y-154879531D01*
X139444000Y-155621195D01*
X140185664Y-154879531D01*
X140126203Y-154645763D01*
X139887758Y-154534866D01*
X139632260Y-154472617D01*
X139369527Y-154461410D01*
X139109656Y-154501675D01*
X138862634Y-154591865D01*
X138761797Y-154645763D01*
X138702336Y-154879531D01*
X137410706Y-154879531D01*
X137295013Y-154763838D01*
X137076359Y-154617739D01*
X136833405Y-154517104D01*
X136575486Y-154465800D01*
X136312514Y-154465800D01*
X136054595Y-154517104D01*
X135811641Y-154617739D01*
X135592987Y-154763838D01*
X135407038Y-154949787D01*
X135260939Y-155168441D01*
X135160304Y-155411395D01*
X135109000Y-155669314D01*
X81380000Y-155669314D01*
X81380000Y-146810955D01*
X85946535Y-146810955D01*
X85946535Y-147829045D01*
X86133608Y-148829799D01*
X86501384Y-149779139D01*
X87037339Y-150644735D01*
X87723221Y-151397112D01*
X88535674Y-152010648D01*
X89447030Y-152464449D01*
X90426254Y-152743063D01*
X91440000Y-152837000D01*
X92453746Y-152743063D01*
X93432970Y-152464449D01*
X93821779Y-152270845D01*
X114834200Y-152270845D01*
X114834200Y-152681555D01*
X114914326Y-153084372D01*
X115071497Y-153463818D01*
X115299675Y-153805310D01*
X115590090Y-154095725D01*
X115931582Y-154323903D01*
X116311028Y-154481074D01*
X116713845Y-154561200D01*
X117124555Y-154561200D01*
X117527372Y-154481074D01*
X117906818Y-154323903D01*
X118248310Y-154095725D01*
X118538725Y-153805310D01*
X118766903Y-153463818D01*
X118924074Y-153084372D01*
X119004200Y-152681555D01*
X119004200Y-152270845D01*
X118924074Y-151868028D01*
X118766903Y-151488582D01*
X118538725Y-151147090D01*
X118248310Y-150856675D01*
X117906818Y-150628497D01*
X117527372Y-150471326D01*
X117124555Y-150391200D01*
X116713845Y-150391200D01*
X116311028Y-150471326D01*
X115931582Y-150628497D01*
X115590090Y-150856675D01*
X115299675Y-151147090D01*
X115071497Y-151488582D01*
X114914326Y-151868028D01*
X114834200Y-152270845D01*
X93821779Y-152270845D01*
X94344326Y-152010648D01*
X95156779Y-151397112D01*
X95842661Y-150644735D01*
X96378616Y-149779139D01*
X96746392Y-148829799D01*
X96933465Y-147829045D01*
X96933465Y-146810955D01*
X96746392Y-145810201D01*
X96549614Y-145302257D01*
X112554200Y-145302257D01*
X112554200Y-145636143D01*
X112619338Y-145963613D01*
X112747111Y-146272083D01*
X112932608Y-146549699D01*
X113168701Y-146785792D01*
X113446317Y-146971289D01*
X113754787Y-147099062D01*
X114082257Y-147164200D01*
X114416143Y-147164200D01*
X114743613Y-147099062D01*
X115052083Y-146971289D01*
X115329699Y-146785792D01*
X115565792Y-146549699D01*
X115751289Y-146272083D01*
X115879062Y-145963613D01*
X115944200Y-145636143D01*
X115944200Y-145302257D01*
X115879062Y-144974787D01*
X115751289Y-144666317D01*
X115565792Y-144388701D01*
X115443566Y-144266475D01*
X127717800Y-144266475D01*
X127717800Y-144785525D01*
X127819061Y-145294601D01*
X128017693Y-145774141D01*
X128306062Y-146205715D01*
X128376347Y-146276000D01*
X128306062Y-146346285D01*
X128017693Y-146777859D01*
X127819061Y-147257399D01*
X127717800Y-147766475D01*
X127717800Y-148285525D01*
X127819061Y-148794601D01*
X128017693Y-149274141D01*
X128306062Y-149705715D01*
X128673085Y-150072738D01*
X129104659Y-150361107D01*
X129584199Y-150559739D01*
X130093275Y-150661000D01*
X130612325Y-150661000D01*
X131121401Y-150559739D01*
X131600941Y-150361107D01*
X132032515Y-150072738D01*
X132399538Y-149705715D01*
X132687907Y-149274141D01*
X132886539Y-148794601D01*
X132959020Y-148430212D01*
X140574600Y-148430212D01*
X140574600Y-148653788D01*
X140618217Y-148873067D01*
X140703776Y-149079624D01*
X140827988Y-149265520D01*
X140986080Y-149423612D01*
X141171976Y-149547824D01*
X141378533Y-149633383D01*
X141597812Y-149677000D01*
X141821388Y-149677000D01*
X142040667Y-149633383D01*
X142247224Y-149547824D01*
X142433120Y-149423612D01*
X142591212Y-149265520D01*
X142715424Y-149079624D01*
X142800983Y-148873067D01*
X142844600Y-148653788D01*
X142844600Y-148430212D01*
X142800983Y-148210933D01*
X142715424Y-148004376D01*
X142591212Y-147818480D01*
X142433120Y-147660388D01*
X142247224Y-147536176D01*
X142040667Y-147450617D01*
X141821388Y-147407000D01*
X141597812Y-147407000D01*
X141378533Y-147450617D01*
X141171976Y-147536176D01*
X140986080Y-147660388D01*
X140827988Y-147818480D01*
X140703776Y-148004376D01*
X140618217Y-148210933D01*
X140574600Y-148430212D01*
X132959020Y-148430212D01*
X132987800Y-148285525D01*
X132987800Y-147766475D01*
X132886539Y-147257399D01*
X132687907Y-146777859D01*
X132399538Y-146346285D01*
X132329253Y-146276000D01*
X132399538Y-146205715D01*
X132687907Y-145774141D01*
X132886539Y-145294601D01*
X132936784Y-145042000D01*
X136381528Y-145042000D01*
X136381528Y-146042000D01*
X136398592Y-146215254D01*
X136449128Y-146381850D01*
X136531195Y-146535386D01*
X136641638Y-146669962D01*
X136776214Y-146780405D01*
X136929750Y-146862472D01*
X137096346Y-146913008D01*
X137269600Y-146930072D01*
X138269600Y-146930072D01*
X138442854Y-146913008D01*
X138609450Y-146862472D01*
X138762986Y-146780405D01*
X138897562Y-146669962D01*
X139008005Y-146535386D01*
X139090072Y-146381850D01*
X139140608Y-146215254D01*
X139157672Y-146042000D01*
X139157672Y-145405589D01*
X139384600Y-145405589D01*
X139384600Y-145678411D01*
X139437825Y-145945989D01*
X139542229Y-146198043D01*
X139693801Y-146424886D01*
X139886714Y-146617799D01*
X140113557Y-146769371D01*
X140365611Y-146873775D01*
X140633189Y-146927000D01*
X140906011Y-146927000D01*
X141173589Y-146873775D01*
X141425643Y-146769371D01*
X141652486Y-146617799D01*
X141845399Y-146424886D01*
X141996971Y-146198043D01*
X142101375Y-145945989D01*
X142154600Y-145678411D01*
X142154600Y-145405589D01*
X142101375Y-145138011D01*
X141996971Y-144885957D01*
X141845399Y-144659114D01*
X141652486Y-144466201D01*
X141425643Y-144314629D01*
X141309389Y-144266475D01*
X145717800Y-144266475D01*
X145717800Y-144785525D01*
X145819061Y-145294601D01*
X146017693Y-145774141D01*
X146306062Y-146205715D01*
X146376347Y-146276000D01*
X146306062Y-146346285D01*
X146017693Y-146777859D01*
X145819061Y-147257399D01*
X145717800Y-147766475D01*
X145717800Y-148285525D01*
X145819061Y-148794601D01*
X146017693Y-149274141D01*
X146306062Y-149705715D01*
X146673085Y-150072738D01*
X147104659Y-150361107D01*
X147584199Y-150559739D01*
X148093275Y-150661000D01*
X148612325Y-150661000D01*
X149121401Y-150559739D01*
X149600941Y-150361107D01*
X150032515Y-150072738D01*
X150399538Y-149705715D01*
X150687907Y-149274141D01*
X150886539Y-148794601D01*
X150987800Y-148285525D01*
X150987800Y-147766475D01*
X150886539Y-147257399D01*
X150687907Y-146777859D01*
X150399538Y-146346285D01*
X150329253Y-146276000D01*
X150399538Y-146205715D01*
X150687907Y-145774141D01*
X150886539Y-145294601D01*
X150987800Y-144785525D01*
X150987800Y-144266475D01*
X150886539Y-143757399D01*
X150687907Y-143277859D01*
X150399538Y-142846285D01*
X150032515Y-142479262D01*
X149600941Y-142190893D01*
X149121401Y-141992261D01*
X148612325Y-141891000D01*
X148093275Y-141891000D01*
X147584199Y-141992261D01*
X147104659Y-142190893D01*
X146673085Y-142479262D01*
X146306062Y-142846285D01*
X146017693Y-143277859D01*
X145819061Y-143757399D01*
X145717800Y-144266475D01*
X141309389Y-144266475D01*
X141173589Y-144210225D01*
X140906011Y-144157000D01*
X140633189Y-144157000D01*
X140365611Y-144210225D01*
X140113557Y-144314629D01*
X139886714Y-144466201D01*
X139693801Y-144659114D01*
X139542229Y-144885957D01*
X139437825Y-145138011D01*
X139384600Y-145405589D01*
X139157672Y-145405589D01*
X139157672Y-145042000D01*
X139140608Y-144868746D01*
X139090072Y-144702150D01*
X139008005Y-144548614D01*
X138897562Y-144414038D01*
X138762986Y-144303595D01*
X138609450Y-144221528D01*
X138442854Y-144170992D01*
X138269600Y-144153928D01*
X137269600Y-144153928D01*
X137096346Y-144170992D01*
X136929750Y-144221528D01*
X136776214Y-144303595D01*
X136641638Y-144414038D01*
X136531195Y-144548614D01*
X136449128Y-144702150D01*
X136398592Y-144868746D01*
X136381528Y-145042000D01*
X132936784Y-145042000D01*
X132987800Y-144785525D01*
X132987800Y-144266475D01*
X132886539Y-143757399D01*
X132779504Y-143498993D01*
X136992212Y-143498993D01*
X137057737Y-143737860D01*
X137304716Y-143853760D01*
X137569560Y-143919250D01*
X137842092Y-143931812D01*
X138111838Y-143890965D01*
X138368432Y-143798277D01*
X138481463Y-143737860D01*
X138546988Y-143498993D01*
X137769600Y-142721605D01*
X136992212Y-143498993D01*
X132779504Y-143498993D01*
X132687907Y-143277859D01*
X132399538Y-142846285D01*
X132167745Y-142614492D01*
X136379788Y-142614492D01*
X136420635Y-142884238D01*
X136513323Y-143140832D01*
X136573740Y-143253863D01*
X136812607Y-143319388D01*
X137589995Y-142542000D01*
X137949205Y-142542000D01*
X138726593Y-143319388D01*
X138965460Y-143253863D01*
X139081360Y-143006884D01*
X139146850Y-142742040D01*
X139159412Y-142469508D01*
X139149733Y-142405589D01*
X139384600Y-142405589D01*
X139384600Y-142678411D01*
X139437825Y-142945989D01*
X139542229Y-143198043D01*
X139693801Y-143424886D01*
X139886714Y-143617799D01*
X140113557Y-143769371D01*
X140365611Y-143873775D01*
X140633189Y-143927000D01*
X140906011Y-143927000D01*
X141173589Y-143873775D01*
X141425643Y-143769371D01*
X141652486Y-143617799D01*
X141845399Y-143424886D01*
X141996971Y-143198043D01*
X142101375Y-142945989D01*
X142154600Y-142678411D01*
X142154600Y-142405589D01*
X142101375Y-142138011D01*
X141996971Y-141885957D01*
X141845399Y-141659114D01*
X141652486Y-141466201D01*
X141425643Y-141314629D01*
X141173589Y-141210225D01*
X140906011Y-141157000D01*
X140633189Y-141157000D01*
X140365611Y-141210225D01*
X140113557Y-141314629D01*
X139886714Y-141466201D01*
X139693801Y-141659114D01*
X139542229Y-141885957D01*
X139437825Y-142138011D01*
X139384600Y-142405589D01*
X139149733Y-142405589D01*
X139118565Y-142199762D01*
X139025877Y-141943168D01*
X138965460Y-141830137D01*
X138726593Y-141764612D01*
X137949205Y-142542000D01*
X137589995Y-142542000D01*
X136812607Y-141764612D01*
X136573740Y-141830137D01*
X136457840Y-142077116D01*
X136392350Y-142341960D01*
X136379788Y-142614492D01*
X132167745Y-142614492D01*
X132032515Y-142479262D01*
X131600941Y-142190893D01*
X131121401Y-141992261D01*
X130612325Y-141891000D01*
X130093275Y-141891000D01*
X129584199Y-141992261D01*
X129104659Y-142190893D01*
X128673085Y-142479262D01*
X128306062Y-142846285D01*
X128017693Y-143277859D01*
X127819061Y-143757399D01*
X127717800Y-144266475D01*
X115443566Y-144266475D01*
X115329699Y-144152608D01*
X115052083Y-143967111D01*
X114743613Y-143839338D01*
X114416143Y-143774200D01*
X114082257Y-143774200D01*
X113754787Y-143839338D01*
X113446317Y-143967111D01*
X113168701Y-144152608D01*
X112932608Y-144388701D01*
X112747111Y-144666317D01*
X112619338Y-144974787D01*
X112554200Y-145302257D01*
X96549614Y-145302257D01*
X96378616Y-144860861D01*
X95842661Y-143995265D01*
X95156779Y-143242888D01*
X94344326Y-142629352D01*
X93432970Y-142175551D01*
X92453746Y-141896937D01*
X91440000Y-141803000D01*
X90426254Y-141896937D01*
X89447030Y-142175551D01*
X88535674Y-142629352D01*
X87723221Y-143242888D01*
X87037339Y-143995265D01*
X86501384Y-144860861D01*
X86133608Y-145810201D01*
X85946535Y-146810955D01*
X81380000Y-146810955D01*
X81380000Y-141585007D01*
X136992212Y-141585007D01*
X137769600Y-142362395D01*
X138546988Y-141585007D01*
X138481463Y-141346140D01*
X138234484Y-141230240D01*
X137969640Y-141164750D01*
X137697108Y-141152188D01*
X137427362Y-141193035D01*
X137170768Y-141285723D01*
X137057737Y-141346140D01*
X136992212Y-141585007D01*
X81380000Y-141585007D01*
X81380000Y-139405589D01*
X136384600Y-139405589D01*
X136384600Y-139678411D01*
X136437825Y-139945989D01*
X136542229Y-140198043D01*
X136693801Y-140424886D01*
X136886714Y-140617799D01*
X137113557Y-140769371D01*
X137365611Y-140873775D01*
X137633189Y-140927000D01*
X137906011Y-140927000D01*
X138173589Y-140873775D01*
X138425643Y-140769371D01*
X138652486Y-140617799D01*
X138845399Y-140424886D01*
X138996971Y-140198043D01*
X139101375Y-139945989D01*
X139154600Y-139678411D01*
X139154600Y-139405589D01*
X139384600Y-139405589D01*
X139384600Y-139678411D01*
X139437825Y-139945989D01*
X139542229Y-140198043D01*
X139693801Y-140424886D01*
X139886714Y-140617799D01*
X140113557Y-140769371D01*
X140365611Y-140873775D01*
X140633189Y-140927000D01*
X140906011Y-140927000D01*
X141173589Y-140873775D01*
X141425643Y-140769371D01*
X141652486Y-140617799D01*
X141845399Y-140424886D01*
X141996971Y-140198043D01*
X142101375Y-139945989D01*
X142154600Y-139678411D01*
X142154600Y-139405589D01*
X142101375Y-139138011D01*
X141996971Y-138885957D01*
X141845399Y-138659114D01*
X141652486Y-138466201D01*
X141425643Y-138314629D01*
X141173589Y-138210225D01*
X140906011Y-138157000D01*
X140633189Y-138157000D01*
X140365611Y-138210225D01*
X140113557Y-138314629D01*
X139886714Y-138466201D01*
X139693801Y-138659114D01*
X139542229Y-138885957D01*
X139437825Y-139138011D01*
X139384600Y-139405589D01*
X139154600Y-139405589D01*
X139101375Y-139138011D01*
X138996971Y-138885957D01*
X138845399Y-138659114D01*
X138652486Y-138466201D01*
X138425643Y-138314629D01*
X138173589Y-138210225D01*
X137906011Y-138157000D01*
X137633189Y-138157000D01*
X137365611Y-138210225D01*
X137113557Y-138314629D01*
X136886714Y-138466201D01*
X136693801Y-138659114D01*
X136542229Y-138885957D01*
X136437825Y-139138011D01*
X136384600Y-139405589D01*
X81380000Y-139405589D01*
X81380000Y-136430212D01*
X140574600Y-136430212D01*
X140574600Y-136653788D01*
X140618217Y-136873067D01*
X140703776Y-137079624D01*
X140827988Y-137265520D01*
X140986080Y-137423612D01*
X141171976Y-137547824D01*
X141378533Y-137633383D01*
X141597812Y-137677000D01*
X141821388Y-137677000D01*
X142040667Y-137633383D01*
X142247224Y-137547824D01*
X142433120Y-137423612D01*
X142591212Y-137265520D01*
X142715424Y-137079624D01*
X142800983Y-136873067D01*
X142844600Y-136653788D01*
X142844600Y-136430212D01*
X142800983Y-136210933D01*
X142715424Y-136004376D01*
X142591212Y-135818480D01*
X142433120Y-135660388D01*
X142247224Y-135536176D01*
X142040667Y-135450617D01*
X141821388Y-135407000D01*
X141597812Y-135407000D01*
X141378533Y-135450617D01*
X141171976Y-135536176D01*
X140986080Y-135660388D01*
X140827988Y-135818480D01*
X140703776Y-136004376D01*
X140618217Y-136210933D01*
X140574600Y-136430212D01*
X81380000Y-136430212D01*
X81380000Y-134402257D01*
X112554200Y-134402257D01*
X112554200Y-134736143D01*
X112619338Y-135063613D01*
X112747111Y-135372083D01*
X112932608Y-135649699D01*
X113168701Y-135885792D01*
X113446317Y-136071289D01*
X113754787Y-136199062D01*
X114082257Y-136264200D01*
X114416143Y-136264200D01*
X114743613Y-136199062D01*
X115052083Y-136071289D01*
X115329699Y-135885792D01*
X115565792Y-135649699D01*
X115751289Y-135372083D01*
X115879062Y-135063613D01*
X115944200Y-134736143D01*
X115944200Y-134402257D01*
X115879062Y-134074787D01*
X115751289Y-133766317D01*
X115565792Y-133488701D01*
X115329699Y-133252608D01*
X115052083Y-133067111D01*
X114743613Y-132939338D01*
X114416143Y-132874200D01*
X114082257Y-132874200D01*
X113754787Y-132939338D01*
X113446317Y-133067111D01*
X113168701Y-133252608D01*
X112932608Y-133488701D01*
X112747111Y-133766317D01*
X112619338Y-134074787D01*
X112554200Y-134402257D01*
X81380000Y-134402257D01*
X81380000Y-131773895D01*
X81378003Y-131753618D01*
X81372743Y-131658750D01*
X81364944Y-131608215D01*
X81360002Y-131557336D01*
X81357948Y-131547281D01*
X81317545Y-131356343D01*
X81297448Y-131292787D01*
X81278264Y-131229037D01*
X81274296Y-131219572D01*
X81197576Y-131040118D01*
X81197574Y-131040114D01*
X81149186Y-130926931D01*
X81138621Y-130877002D01*
X81137955Y-130825982D01*
X81147214Y-130775793D01*
X81166041Y-130728368D01*
X81194100Y-130684916D01*
X81275419Y-130600550D01*
X81773181Y-130092252D01*
X81812707Y-130043091D01*
X81853343Y-129994936D01*
X81859106Y-129986445D01*
X82299983Y-129326861D01*
X82331432Y-129268109D01*
X82363676Y-129209842D01*
X82367679Y-129200393D01*
X82672046Y-128467736D01*
X82691489Y-128403982D01*
X82711797Y-128340575D01*
X82713889Y-128330529D01*
X82870153Y-127552707D01*
X82876840Y-127486409D01*
X82884448Y-127420245D01*
X82884548Y-127409984D01*
X82886048Y-126870845D01*
X114834200Y-126870845D01*
X114834200Y-127281555D01*
X114914326Y-127684372D01*
X115071497Y-128063818D01*
X115299675Y-128405310D01*
X115590090Y-128695725D01*
X115931582Y-128923903D01*
X116311028Y-129081074D01*
X116713845Y-129161200D01*
X117124555Y-129161200D01*
X117527372Y-129081074D01*
X117906818Y-128923903D01*
X118248310Y-128695725D01*
X118538725Y-128405310D01*
X118766903Y-128063818D01*
X118924074Y-127684372D01*
X119004200Y-127281555D01*
X119004200Y-126870845D01*
X118924074Y-126468028D01*
X118766903Y-126088582D01*
X118538725Y-125747090D01*
X118248310Y-125456675D01*
X117906818Y-125228497D01*
X117527372Y-125071326D01*
X117124555Y-124991200D01*
X116713845Y-124991200D01*
X116311028Y-125071326D01*
X115931582Y-125228497D01*
X115590090Y-125456675D01*
X115299675Y-125747090D01*
X115071497Y-126088582D01*
X114914326Y-126468028D01*
X114834200Y-126870845D01*
X82886048Y-126870845D01*
X82886756Y-126616624D01*
X82880438Y-126550282D01*
X82875050Y-126483909D01*
X82873156Y-126473823D01*
X82721224Y-125695144D01*
X82702141Y-125631298D01*
X82683963Y-125567230D01*
X82680145Y-125557704D01*
X82379860Y-124823365D01*
X82348729Y-124764421D01*
X82318464Y-124705125D01*
X82312873Y-124696530D01*
X82312869Y-124696522D01*
X82312864Y-124696515D01*
X81875669Y-124034494D01*
X81833674Y-123982710D01*
X81792475Y-123930431D01*
X81785316Y-123923079D01*
X81629921Y-123765721D01*
X136648600Y-123765721D01*
X136648600Y-124186279D01*
X136730647Y-124598756D01*
X136891588Y-124987302D01*
X137125237Y-125336983D01*
X137422617Y-125634363D01*
X137772298Y-125868012D01*
X138160844Y-126028953D01*
X138573321Y-126111000D01*
X138993879Y-126111000D01*
X139406356Y-126028953D01*
X139794902Y-125868012D01*
X140144583Y-125634363D01*
X140441963Y-125336983D01*
X140675612Y-124987302D01*
X140680293Y-124976000D01*
X141715528Y-124976000D01*
X141715528Y-125976000D01*
X141732592Y-126149254D01*
X141783128Y-126315850D01*
X141865195Y-126469386D01*
X141975638Y-126603962D01*
X142110214Y-126714405D01*
X142263750Y-126796472D01*
X142430346Y-126847008D01*
X142603600Y-126864072D01*
X143603600Y-126864072D01*
X143776854Y-126847008D01*
X143943450Y-126796472D01*
X144096986Y-126714405D01*
X144231562Y-126603962D01*
X144342005Y-126469386D01*
X144424072Y-126315850D01*
X144474608Y-126149254D01*
X144491672Y-125976000D01*
X144491672Y-125339589D01*
X144718600Y-125339589D01*
X144718600Y-125612411D01*
X144771825Y-125879989D01*
X144876229Y-126132043D01*
X145027801Y-126358886D01*
X145220714Y-126551799D01*
X145447557Y-126703371D01*
X145699611Y-126807775D01*
X145967189Y-126861000D01*
X146240011Y-126861000D01*
X146507589Y-126807775D01*
X146759643Y-126703371D01*
X146986486Y-126551799D01*
X147179399Y-126358886D01*
X147330971Y-126132043D01*
X147435375Y-125879989D01*
X147488600Y-125612411D01*
X147488600Y-125339589D01*
X147435375Y-125072011D01*
X147330971Y-124819957D01*
X147179399Y-124593114D01*
X146986486Y-124400201D01*
X146759643Y-124248629D01*
X146507589Y-124144225D01*
X146240011Y-124091000D01*
X145967189Y-124091000D01*
X145699611Y-124144225D01*
X145447557Y-124248629D01*
X145220714Y-124400201D01*
X145027801Y-124593114D01*
X144876229Y-124819957D01*
X144771825Y-125072011D01*
X144718600Y-125339589D01*
X144491672Y-125339589D01*
X144491672Y-124976000D01*
X144474608Y-124802746D01*
X144424072Y-124636150D01*
X144342005Y-124482614D01*
X144231562Y-124348038D01*
X144096986Y-124237595D01*
X143943450Y-124155528D01*
X143776854Y-124104992D01*
X143603600Y-124087928D01*
X142603600Y-124087928D01*
X142430346Y-124104992D01*
X142263750Y-124155528D01*
X142110214Y-124237595D01*
X141975638Y-124348038D01*
X141865195Y-124482614D01*
X141783128Y-124636150D01*
X141732592Y-124802746D01*
X141715528Y-124976000D01*
X140680293Y-124976000D01*
X140836553Y-124598756D01*
X140918600Y-124186279D01*
X140918600Y-123765721D01*
X140836553Y-123353244D01*
X140675612Y-122964698D01*
X140441963Y-122615017D01*
X140166535Y-122339589D01*
X141718600Y-122339589D01*
X141718600Y-122612411D01*
X141771825Y-122879989D01*
X141876229Y-123132043D01*
X142027801Y-123358886D01*
X142220714Y-123551799D01*
X142447557Y-123703371D01*
X142699611Y-123807775D01*
X142967189Y-123861000D01*
X143240011Y-123861000D01*
X143507589Y-123807775D01*
X143759643Y-123703371D01*
X143986486Y-123551799D01*
X144179399Y-123358886D01*
X144330971Y-123132043D01*
X144435375Y-122879989D01*
X144488600Y-122612411D01*
X144488600Y-122339589D01*
X144718600Y-122339589D01*
X144718600Y-122612411D01*
X144771825Y-122879989D01*
X144876229Y-123132043D01*
X145027801Y-123358886D01*
X145220714Y-123551799D01*
X145447557Y-123703371D01*
X145699611Y-123807775D01*
X145967189Y-123861000D01*
X146240011Y-123861000D01*
X146507589Y-123807775D01*
X146759643Y-123703371D01*
X146986486Y-123551799D01*
X147179399Y-123358886D01*
X147330971Y-123132043D01*
X147435375Y-122879989D01*
X147488600Y-122612411D01*
X147488600Y-122339589D01*
X147435375Y-122072011D01*
X147330971Y-121819957D01*
X147179399Y-121593114D01*
X146986486Y-121400201D01*
X146759643Y-121248629D01*
X146507589Y-121144225D01*
X146240011Y-121091000D01*
X145967189Y-121091000D01*
X145699611Y-121144225D01*
X145447557Y-121248629D01*
X145220714Y-121400201D01*
X145027801Y-121593114D01*
X144876229Y-121819957D01*
X144771825Y-122072011D01*
X144718600Y-122339589D01*
X144488600Y-122339589D01*
X144435375Y-122072011D01*
X144330971Y-121819957D01*
X144179399Y-121593114D01*
X143986486Y-121400201D01*
X143759643Y-121248629D01*
X143507589Y-121144225D01*
X143240011Y-121091000D01*
X142967189Y-121091000D01*
X142699611Y-121144225D01*
X142447557Y-121248629D01*
X142220714Y-121400201D01*
X142027801Y-121593114D01*
X141876229Y-121819957D01*
X141771825Y-122072011D01*
X141718600Y-122339589D01*
X140166535Y-122339589D01*
X140144583Y-122317637D01*
X139794902Y-122083988D01*
X139406356Y-121923047D01*
X138993879Y-121841000D01*
X138573321Y-121841000D01*
X138160844Y-121923047D01*
X137772298Y-122083988D01*
X137422617Y-122317637D01*
X137125237Y-122615017D01*
X136891588Y-122964698D01*
X136730647Y-123353244D01*
X136648600Y-123765721D01*
X81629921Y-123765721D01*
X81227854Y-123358578D01*
X81176632Y-123315963D01*
X81126032Y-123272656D01*
X81117580Y-123266834D01*
X80461089Y-122821363D01*
X80402542Y-122789496D01*
X80344518Y-122756855D01*
X80335098Y-122752786D01*
X79604585Y-122443311D01*
X79540985Y-122423430D01*
X79477702Y-122402673D01*
X79467670Y-122400511D01*
X78690958Y-122238822D01*
X78624719Y-122231674D01*
X78558602Y-122223603D01*
X78548341Y-122223431D01*
X77755016Y-122215684D01*
X77688638Y-122221538D01*
X77622222Y-122226463D01*
X77612124Y-122228287D01*
X76832403Y-122374779D01*
X76768422Y-122393416D01*
X76704232Y-122411146D01*
X76694680Y-122414897D01*
X75958262Y-122710048D01*
X75899110Y-122740763D01*
X75839596Y-122770618D01*
X75830954Y-122776153D01*
X75165891Y-123208721D01*
X75113869Y-123250310D01*
X75061250Y-123291185D01*
X75053848Y-123298293D01*
X74485469Y-123851800D01*
X74442482Y-123902741D01*
X74398838Y-123953020D01*
X74392957Y-123961431D01*
X73942913Y-124614795D01*
X73910649Y-124673100D01*
X73877593Y-124730913D01*
X73873458Y-124740305D01*
X73558891Y-125468641D01*
X73538573Y-125532077D01*
X73517368Y-125595235D01*
X73515137Y-125605252D01*
X73348028Y-126380816D01*
X73340410Y-126447072D01*
X73331886Y-126513065D01*
X73331642Y-126523324D01*
X73318358Y-127316576D01*
X34133794Y-127316576D01*
X34133794Y-122507731D01*
X34204075Y-121720253D01*
X34404025Y-120989357D01*
X34730244Y-120305425D01*
X35172420Y-119690072D01*
X35716583Y-119162741D01*
X36345520Y-118740114D01*
X37039364Y-118435537D01*
X37781833Y-118257285D01*
X38425743Y-118210000D01*
X146732269Y-118210000D01*
X147519747Y-118280281D01*
M02*
