G04 #@! TF.GenerationSoftware,KiCad,Pcbnew,5.1.4-e60b266~84~ubuntu18.04.1*
G04 #@! TF.CreationDate,2020-01-06T17:57:10-05:00*
G04 #@! TF.ProjectId,AIR_MINUS,4149525f-4d49-44e5-9553-2e6b69636164,rev?*
G04 #@! TF.SameCoordinates,Original*
G04 #@! TF.FileFunction,Profile,NP*
%FSLAX46Y46*%
G04 Gerber Fmt 4.6, Leading zero omitted, Abs format (unit mm)*
G04 Created by KiCad (PCBNEW 5.1.4-e60b266~84~ubuntu18.04.1) date 2020-01-06 17:57:10*
%MOMM*%
%LPD*%
G04 APERTURE LIST*
%ADD10C,0.200000*%
G04 APERTURE END LIST*
D10*
X38398794Y-182245000D02*
X146765000Y-182245000D01*
X38398794Y-182245000D02*
G75*
G02X33398794Y-177245000I0J5000000D01*
G01*
X75461743Y-130088365D02*
G75*
G02X75688253Y-131329049I-650237J-759732D01*
G01*
X75565000Y-131810001D02*
G75*
G02X75688253Y-131329049I1000000J1D01*
G01*
X76565000Y-163830000D02*
G75*
G02X75565000Y-162830000I0J1000000D01*
G01*
X80521747Y-131329049D02*
G75*
G02X80748257Y-130088365I876747J480952D01*
G01*
X79645000Y-163829999D02*
X76565000Y-163829999D01*
X151765000Y-177245000D02*
X151765000Y-122475000D01*
X75461742Y-130088364D02*
G75*
G02X80748257Y-130088365I2643258J3088364D01*
G01*
X96202000Y-147320000D02*
G75*
G03X96202000Y-147320000I-4762000J0D01*
G01*
X151765000Y-177245000D02*
G75*
G02X146765000Y-182245000I-5000000J0D01*
G01*
X80521747Y-131329048D02*
G75*
G02X80645000Y-131810000I-876747J-480952D01*
G01*
X33398794Y-122475000D02*
G75*
G02X38398794Y-117475000I5000000J0D01*
G01*
X75565000Y-131810000D02*
X75565000Y-162830000D01*
X146765000Y-117475000D02*
G75*
G02X151765000Y-122475000I0J-5000000D01*
G01*
X33398794Y-177245000D02*
X33398794Y-122475000D01*
X80645000Y-162830000D02*
G75*
G02X79645000Y-163830000I-1000000J0D01*
G01*
X80645000Y-131810000D02*
X80645000Y-162830000D01*
X146765000Y-117475000D02*
X38398794Y-117475000D01*
X69532001Y-147320000D02*
G75*
G03X69532001Y-147320000I-4762001J0D01*
G01*
M02*
