G04 #@! TF.GenerationSoftware,KiCad,Pcbnew,5.1.4-e60b266~84~ubuntu18.04.1*
G04 #@! TF.CreationDate,2020-01-06T17:57:10-05:00*
G04 #@! TF.ProjectId,AIR_MINUS,4149525f-4d49-44e5-9553-2e6b69636164,rev?*
G04 #@! TF.SameCoordinates,Original*
G04 #@! TF.FileFunction,Copper,L1,Top*
G04 #@! TF.FilePolarity,Positive*
%FSLAX46Y46*%
G04 Gerber Fmt 4.6, Leading zero omitted, Abs format (unit mm)*
G04 Created by KiCad (PCBNEW 5.1.4-e60b266~84~ubuntu18.04.1) date 2020-01-06 17:57:10*
%MOMM*%
%LPD*%
G04 APERTURE LIST*
%ADD10O,1.500000X2.500000*%
%ADD11C,4.000000*%
%ADD12C,1.000000*%
%ADD13C,1.500000*%
%ADD14C,0.100000*%
%ADD15R,1.200000X1.200000*%
%ADD16R,1.780000X3.500000*%
%ADD17C,1.397000*%
%ADD18C,1.981000*%
%ADD19C,2.900000*%
%ADD20C,2.120000*%
%ADD21R,1.300000X0.700000*%
%ADD22C,1.400000*%
%ADD23C,0.762000*%
%ADD24C,0.250000*%
G04 APERTURE END LIST*
D10*
X135352800Y-169526000D03*
X137352800Y-169526000D03*
X139352800Y-169526000D03*
X141352800Y-169526000D03*
D11*
X130352800Y-148026000D03*
X130352800Y-144526000D03*
X148352800Y-144526000D03*
D10*
X143352800Y-169526000D03*
D11*
X148352800Y-148026000D03*
D12*
X117158800Y-175789600D03*
X112158800Y-175789600D03*
X127158800Y-170789600D03*
X102158800Y-170789600D03*
D13*
X140769600Y-139542000D03*
X140769600Y-142542000D03*
X140769600Y-145542000D03*
X137769600Y-139542000D03*
X137769600Y-142542000D03*
D14*
G36*
X138294104Y-144793204D02*
G01*
X138318373Y-144796804D01*
X138342171Y-144802765D01*
X138365271Y-144811030D01*
X138387449Y-144821520D01*
X138408493Y-144834133D01*
X138428198Y-144848747D01*
X138446377Y-144865223D01*
X138462853Y-144883402D01*
X138477467Y-144903107D01*
X138490080Y-144924151D01*
X138500570Y-144946329D01*
X138508835Y-144969429D01*
X138514796Y-144993227D01*
X138518396Y-145017496D01*
X138519600Y-145042000D01*
X138519600Y-146042000D01*
X138518396Y-146066504D01*
X138514796Y-146090773D01*
X138508835Y-146114571D01*
X138500570Y-146137671D01*
X138490080Y-146159849D01*
X138477467Y-146180893D01*
X138462853Y-146200598D01*
X138446377Y-146218777D01*
X138428198Y-146235253D01*
X138408493Y-146249867D01*
X138387449Y-146262480D01*
X138365271Y-146272970D01*
X138342171Y-146281235D01*
X138318373Y-146287196D01*
X138294104Y-146290796D01*
X138269600Y-146292000D01*
X137269600Y-146292000D01*
X137245096Y-146290796D01*
X137220827Y-146287196D01*
X137197029Y-146281235D01*
X137173929Y-146272970D01*
X137151751Y-146262480D01*
X137130707Y-146249867D01*
X137111002Y-146235253D01*
X137092823Y-146218777D01*
X137076347Y-146200598D01*
X137061733Y-146180893D01*
X137049120Y-146159849D01*
X137038630Y-146137671D01*
X137030365Y-146114571D01*
X137024404Y-146090773D01*
X137020804Y-146066504D01*
X137019600Y-146042000D01*
X137019600Y-145042000D01*
X137020804Y-145017496D01*
X137024404Y-144993227D01*
X137030365Y-144969429D01*
X137038630Y-144946329D01*
X137049120Y-144924151D01*
X137061733Y-144903107D01*
X137076347Y-144883402D01*
X137092823Y-144865223D01*
X137111002Y-144848747D01*
X137130707Y-144834133D01*
X137151751Y-144821520D01*
X137173929Y-144811030D01*
X137197029Y-144802765D01*
X137220827Y-144796804D01*
X137245096Y-144793204D01*
X137269600Y-144792000D01*
X138269600Y-144792000D01*
X138294104Y-144793204D01*
X138294104Y-144793204D01*
G37*
D13*
X137769600Y-145542000D03*
D15*
X113204800Y-173583600D03*
X116004800Y-173583600D03*
D16*
X106172000Y-165252400D03*
X111452000Y-165252400D03*
D17*
X76471600Y-175818800D03*
X72971600Y-175818800D03*
D18*
X67721600Y-178048800D03*
D17*
X65971600Y-175818800D03*
X69471600Y-175818800D03*
D13*
X146103600Y-122476000D03*
X146103600Y-125476000D03*
X143103600Y-122476000D03*
D14*
G36*
X143628104Y-124727204D02*
G01*
X143652373Y-124730804D01*
X143676171Y-124736765D01*
X143699271Y-124745030D01*
X143721449Y-124755520D01*
X143742493Y-124768133D01*
X143762198Y-124782747D01*
X143780377Y-124799223D01*
X143796853Y-124817402D01*
X143811467Y-124837107D01*
X143824080Y-124858151D01*
X143834570Y-124880329D01*
X143842835Y-124903429D01*
X143848796Y-124927227D01*
X143852396Y-124951496D01*
X143853600Y-124976000D01*
X143853600Y-125976000D01*
X143852396Y-126000504D01*
X143848796Y-126024773D01*
X143842835Y-126048571D01*
X143834570Y-126071671D01*
X143824080Y-126093849D01*
X143811467Y-126114893D01*
X143796853Y-126134598D01*
X143780377Y-126152777D01*
X143762198Y-126169253D01*
X143742493Y-126183867D01*
X143721449Y-126196480D01*
X143699271Y-126206970D01*
X143676171Y-126215235D01*
X143652373Y-126221196D01*
X143628104Y-126224796D01*
X143603600Y-126226000D01*
X142603600Y-126226000D01*
X142579096Y-126224796D01*
X142554827Y-126221196D01*
X142531029Y-126215235D01*
X142507929Y-126206970D01*
X142485751Y-126196480D01*
X142464707Y-126183867D01*
X142445002Y-126169253D01*
X142426823Y-126152777D01*
X142410347Y-126134598D01*
X142395733Y-126114893D01*
X142383120Y-126093849D01*
X142372630Y-126071671D01*
X142364365Y-126048571D01*
X142358404Y-126024773D01*
X142354804Y-126000504D01*
X142353600Y-125976000D01*
X142353600Y-124976000D01*
X142354804Y-124951496D01*
X142358404Y-124927227D01*
X142364365Y-124903429D01*
X142372630Y-124880329D01*
X142383120Y-124858151D01*
X142395733Y-124837107D01*
X142410347Y-124817402D01*
X142426823Y-124799223D01*
X142445002Y-124782747D01*
X142464707Y-124768133D01*
X142485751Y-124755520D01*
X142507929Y-124745030D01*
X142531029Y-124736765D01*
X142554827Y-124730804D01*
X142579096Y-124727204D01*
X142603600Y-124726000D01*
X143603600Y-124726000D01*
X143628104Y-124727204D01*
X143628104Y-124727204D01*
G37*
D13*
X143103600Y-125476000D03*
D19*
X116919200Y-152476200D03*
X116919200Y-127076200D03*
D20*
X114249200Y-145469200D03*
X114249200Y-134569200D03*
D21*
X97485200Y-173075600D03*
X97485200Y-174975600D03*
D22*
X139444000Y-155800800D03*
X139444000Y-158800800D03*
X139444000Y-161800800D03*
X136444000Y-155800800D03*
X136444000Y-158800800D03*
X136444000Y-161800800D03*
D23*
X117158800Y-174737600D02*
X116004800Y-173583600D01*
X117158800Y-175789600D02*
X117158800Y-174737600D01*
X112158800Y-174629600D02*
X113204800Y-173583600D01*
X112158800Y-175789600D02*
X112158800Y-174629600D01*
X99872800Y-173075600D02*
X102158800Y-170789600D01*
X97485200Y-173075600D02*
X99872800Y-173075600D01*
X102158800Y-167613600D02*
X104520000Y-165252400D01*
X104520000Y-165252400D02*
X106172000Y-165252400D01*
X102158800Y-170789600D02*
X102158800Y-167613600D01*
D24*
X71249600Y-174040800D02*
X69471600Y-175818800D01*
X78486000Y-174040800D02*
X71249600Y-174040800D01*
X136444000Y-155800800D02*
X135454051Y-155800800D01*
X135454051Y-155800800D02*
X127983801Y-163271050D01*
X127983801Y-163271050D02*
X127983801Y-171185601D01*
X81138201Y-176693001D02*
X78486000Y-174040800D01*
X127983801Y-171185601D02*
X122476401Y-176693001D01*
X122476401Y-176693001D02*
X81138201Y-176693001D01*
X65971600Y-179255600D02*
X65971600Y-175818800D01*
X66548000Y-179832000D02*
X65971600Y-179255600D01*
X74338124Y-179171600D02*
X73677724Y-179832000D01*
X123647200Y-179171600D02*
X74338124Y-179171600D01*
X139444000Y-161800800D02*
X139444000Y-162790749D01*
X73677724Y-179832000D02*
X66548000Y-179832000D01*
X139444000Y-162790749D02*
X137337949Y-164896800D01*
X130852420Y-171966380D02*
X123647200Y-179171600D01*
X137337949Y-164896800D02*
X132842000Y-164896800D01*
X132842000Y-164896800D02*
X130852420Y-166886380D01*
X130852420Y-166886380D02*
X130852420Y-171966380D01*
D23*
X138162999Y-161977683D02*
X136412282Y-163728400D01*
X139444000Y-158800800D02*
X138162999Y-160081801D01*
X138162999Y-160081801D02*
X138162999Y-161977683D01*
X136412282Y-163728400D02*
X132876886Y-163728400D01*
X132876886Y-163728400D02*
X130146410Y-166458876D01*
X130146410Y-166458876D02*
X130146410Y-171381927D01*
X130146410Y-171381927D02*
X125440369Y-176087969D01*
X125440369Y-176087969D02*
X125150736Y-176377600D01*
X74525993Y-178361021D02*
X123167317Y-178361021D01*
X123167317Y-178361021D02*
X125440369Y-176087969D01*
X72971600Y-176806628D02*
X74525993Y-178361021D01*
X72971600Y-175818800D02*
X72971600Y-176806628D01*
X122768839Y-177399011D02*
X129184400Y-170983450D01*
X76471600Y-175818800D02*
X78051811Y-177399011D01*
X78051811Y-177399011D02*
X122768839Y-177399011D01*
X129184400Y-166060400D02*
X136444000Y-158800800D01*
X129184400Y-170983450D02*
X129184400Y-166060400D01*
X146103600Y-122476000D02*
X143103600Y-122476000D01*
X143103600Y-125476000D02*
X143103600Y-122476000D01*
X142353601Y-121726001D02*
X143103600Y-122476000D01*
X134203231Y-121726001D02*
X142353601Y-121726001D01*
X111452000Y-165252400D02*
X111452000Y-144477232D01*
X111452000Y-144477232D02*
X134203231Y-121726001D01*
X127158800Y-158378800D02*
X127158800Y-160534400D01*
X114249200Y-145469200D02*
X127158800Y-158378800D01*
X127158800Y-160106000D02*
X127158800Y-160534400D01*
X127158800Y-160534400D02*
X127158800Y-170789600D01*
X135352800Y-169143668D02*
X135352800Y-169526000D01*
X137769600Y-145542000D02*
X137769600Y-149726518D01*
X137769600Y-149726518D02*
X145845001Y-157801919D01*
X145845001Y-157801919D02*
X145845001Y-160275799D01*
X135352800Y-169026000D02*
X135352800Y-169526000D01*
X145238999Y-160881801D02*
X143496999Y-160881801D01*
X143496999Y-160881801D02*
X135352800Y-169026000D01*
X145845001Y-160275799D02*
X145238999Y-160881801D01*
X146807011Y-161571789D02*
X139352800Y-169026000D01*
X146807011Y-157403442D02*
X146807011Y-161571789D01*
X139352800Y-169026000D02*
X139352800Y-169526000D01*
X139438599Y-150035031D02*
X146807011Y-157403442D01*
X137769600Y-139542000D02*
X139438599Y-141210999D01*
X139438599Y-141210999D02*
X139438599Y-150035031D01*
X141352800Y-169026000D02*
X141352800Y-169526000D01*
X140769600Y-146602660D02*
X140628599Y-146743661D01*
X140769600Y-145542000D02*
X140769600Y-146602660D01*
X140628599Y-146743661D02*
X140628599Y-149864544D01*
X147769021Y-157004965D02*
X147769021Y-162609779D01*
X140628599Y-149864544D02*
X147769021Y-157004965D01*
X147769021Y-162609779D02*
X141352800Y-169026000D01*
X148731031Y-156606488D02*
X148731031Y-163647769D01*
X142790601Y-150666059D02*
X148731031Y-156606488D01*
X142790601Y-144563001D02*
X142790601Y-150666059D01*
X140769600Y-142542000D02*
X142790601Y-144563001D01*
X143352800Y-169026000D02*
X143352800Y-169526000D01*
X148731031Y-163647769D02*
X143352800Y-169026000D01*
X112923001Y-167467201D02*
X112923001Y-162850915D01*
X97485200Y-174975600D02*
X105414602Y-174975600D01*
X105414602Y-174975600D02*
X112923001Y-167467201D01*
X130482708Y-126807010D02*
X146039790Y-126807010D01*
X112608199Y-144681519D02*
X130482708Y-126807010D01*
X112923001Y-162850915D02*
X112608199Y-162536113D01*
X112608199Y-162536113D02*
X112608199Y-144681519D01*
X146103600Y-126743200D02*
X146103600Y-125476000D01*
X146039790Y-126807010D02*
X146103600Y-126743200D01*
M02*
