M48
INCH,TZ
T1C0.0295
T2C0.0354
T3C0.0394
T4C0.0402
T5C0.0630
T6C0.0638
T7C0.0846
T8C0.0945
T9C0.0394
T10C0.1181
%
G90
G05
T1
X40220Y-67240
X44157Y-69209
X46126Y-69209
X50063Y-67240
T2
X53289Y-66743
X54076Y-66743
X54863Y-66743
X55651Y-66743
X56438Y-66743
T3
X54240Y-54938
X54240Y-56119
X54240Y-57300
X55421Y-54938
X55421Y-56119
X55421Y-57300
T4
X25973Y-69220
X27351Y-69220
X28729Y-69220
X30107Y-69220
X53718Y-61339
X53718Y-62520
X53718Y-63701
X54899Y-61339
X54899Y-62520
X54899Y-63701
X56340Y-48219
X56340Y-49400
X57521Y-48219
X57521Y-49400
T5
X26662Y-70098
T6
X44980Y-52980
X44980Y-57271
T7
X51320Y-56900
X51320Y-58278
X58407Y-56900
X58407Y-58278
T8
X46031Y-50030
X46031Y-60030
T9
X55791Y-53757
X55791Y-58481
T10
X56600Y-62520
X54639Y-48809
T0
M30
